<svg version="1.1" xmlns="http://www.w3.org/2000/svg" viewBox="0 0 1561.18310546875 608.5" width="1561.18310546875" height="608.5">
  <!-- svg-source:excalidraw -->
  
  <defs>
    <style>
      @font-face {
        font-family: "Virgil";
        src: url("https://excalidraw.com/Virgil.woff2");
      }
      @font-face {
        font-family: "Cascadia";
        src: url("https://excalidraw.com/Cascadia.woff2");
      }
    </style>
  </defs>
  <rect x="0" y="0" width="1561.18310546875" height="608.5" fill="#0d1117"></rect><g transform="translate(34 10) rotate(0 352.19781494140625 17.5)"><text x="0" y="NaN" font-family="Virgil, Segoe UI Emoji" font-size="28px" fill="#ff8c42" text-anchor="start" style="white-space: pre;" direction="ltr">Token Bucket: Idle Fills, Burst Drains, Refill Drips</text></g><g transform="translate(34 50) rotate(0 758.591552734375 11.25)"><text x="0" y="NaN" font-family="Virgil, Segoe UI Emoji" font-size="18px" fill="#c9d1d9" text-anchor="start" style="white-space: pre;" direction="ltr">Bucket of 50 tokens, refilling at 10/sec. After 5 sec of idle the bucket is full; the next request can be a 50-burst, after which the client must wait for the drip refill.</text></g><g stroke-linecap="round"><g transform="translate(74 525) rotate(0 700 0)"><path d="M0.01 -1.15 C233.2 -1.09, 1167.03 -0.88, 1400.32 -0.48 M-1.44 0.86 C231.52 1.15, 1166.16 1.03, 1399.54 0.8" stroke="#8b949e" stroke-width="2" fill="none"></path></g></g><g stroke-linecap="round"><g transform="translate(74 525) rotate(0 0 -160)"><path d="M0.49 -0.4 C0.58 -54.02, -0.33 -267.85, -0.25 -321.13 M-0.71 -1.66 C-0.73 -55.22, -1.57 -267.32, -1.33 -320.18" stroke="#8b949e" stroke-width="2" fill="none"></path></g></g><g transform="translate(36 513) rotate(0 4.8159942626953125 8.75)"><text x="0" y="NaN" font-family="Virgil, Segoe UI Emoji" font-size="14px" fill="#8b949e" text-anchor="start" style="white-space: pre;" direction="ltr">0</text></g><g transform="translate(26 209) rotate(0 9.141990661621094 8.75)"><text x="0" y="NaN" font-family="Virgil, Segoe UI Emoji" font-size="14px" fill="#8b949e" text-anchor="start" style="white-space: pre;" direction="ltr">50</text></g><g transform="translate(10 357) rotate(0 22.140975952148438 8.75)"><text x="0" y="NaN" font-family="Virgil, Segoe UI Emoji" font-size="14px" fill="#8b949e" text-anchor="start" style="white-space: pre;" direction="ltr">tokens</text></g><g stroke-linecap="round"><g transform="translate(68 205) rotate(0 6 0)"><path d="M0.11 -0.87 C1.96 -1.04, 9.69 -0.56, 11.83 -0.51 M-1.29 1.28 C0.32 1.23, 8.46 0.91, 10.79 0.76" stroke="#8b949e" stroke-width="2" fill="none"></path></g></g><g stroke-linecap="round"><g transform="translate(74 521) rotate(0 0 4)"><path d="M-0.16 -1.07 C-0.05 0.02, 0.95 5.55, 1.15 7.21 M-1.7 0.99 C-1.69 2.15, 0.38 7.33, 0.8 8.34" stroke="#8b949e" stroke-width="2" fill="none"></path></g></g><g transform="translate(66 535) rotate(0 4.4720001220703125 8.125)"><text x="0" y="NaN" font-family="Virgil, Segoe UI Emoji" font-size="13px" fill="#8b949e" text-anchor="start" style="white-space: pre;" direction="ltr">0</text></g><g stroke-linecap="round"><g transform="translate(174 521) rotate(0 0 4)"><path d="M-0.18 -0.03 C-0.42 1.29, -0.36 6.89, -0.45 8.26 M-1.73 -1.09 C-2.25 -0.18, -2.22 4.49, -1.64 6.27" stroke="#8b949e" stroke-width="2" fill="none"></path></g></g><g transform="translate(166 535) rotate(0 1.7614974975585938 8.125)"><text x="0" y="NaN" font-family="Virgil, Segoe UI Emoji" font-size="13px" fill="#8b949e" text-anchor="start" style="white-space: pre;" direction="ltr">1</text></g><g stroke-linecap="round"><g transform="translate(274 521) rotate(0 0 4)"><path d="M0.88 0.33 C0.97 1.64, -0.29 7.65, -0.59 8.86 M-0.11 -0.55 C0.47 0.35, 1.55 5.66, 1.81 7.18" stroke="#8b949e" stroke-width="2" fill="none"></path></g></g><g transform="translate(266 535) rotate(0 4.627998352050781 8.125)"><text x="0" y="NaN" font-family="Virgil, Segoe UI Emoji" font-size="13px" fill="#8b949e" text-anchor="start" style="white-space: pre;" direction="ltr">2</text></g><g stroke-linecap="round"><g transform="translate(374 521) rotate(0 0 4)"><path d="M0.43 1.04 C0.46 2.27, 0.71 6.35, 0.74 7.46 M-0.81 0.53 C-0.92 1.93, 0.02 7.33, 0.19 8.71" stroke="#8b949e" stroke-width="2" fill="none"></path></g></g><g transform="translate(366 535) rotate(0 4.4264984130859375 8.125)"><text x="0" y="NaN" font-family="Virgil, Segoe UI Emoji" font-size="13px" fill="#8b949e" text-anchor="start" style="white-space: pre;" direction="ltr">3</text></g><g stroke-linecap="round"><g transform="translate(474 521) rotate(0 0 4)"><path d="M0.38 0.88 C0.17 2.34, -1.29 6.96, -1.19 8.17 M-0.88 0.29 C-0.75 2.02, 0.63 8.26, 0.89 9.8" stroke="#8b949e" stroke-width="2" fill="none"></path></g></g><g transform="translate(466 535) rotate(0 4.159996032714844 8.125)"><text x="0" y="NaN" font-family="Virgil, Segoe UI Emoji" font-size="13px" fill="#8b949e" text-anchor="start" style="white-space: pre;" direction="ltr">4</text></g><g stroke-linecap="round"><g transform="translate(574 521) rotate(0 0 4)"><path d="M-0.38 -0.78 C-0.19 0.64, 0.99 6.92, 0.97 8.2 M1.62 1.42 C1.75 2.49, 1.05 5.15, 0.53 6.18" stroke="#8b949e" stroke-width="2" fill="none"></path></g></g><g transform="translate(566 535) rotate(0 4.016998291015625 8.125)"><text x="0" y="NaN" font-family="Virgil, Segoe UI Emoji" font-size="13px" fill="#8b949e" text-anchor="start" style="white-space: pre;" direction="ltr">5</text></g><g stroke-linecap="round"><g transform="translate(674 521) rotate(0 0 4)"><path d="M0.28 -0.55 C0.27 1.1, -0.7 7.55, -0.69 9.17 M-1.04 1.77 C-0.59 3.18, 1.53 6.72, 1.66 7.66" stroke="#8b949e" stroke-width="2" fill="none"></path></g></g><g transform="translate(666 535) rotate(0 4.159996032714844 8.125)"><text x="0" y="NaN" font-family="Virgil, Segoe UI Emoji" font-size="13px" fill="#8b949e" text-anchor="start" style="white-space: pre;" direction="ltr">6</text></g><g stroke-linecap="round"><g transform="translate(774 521) rotate(0 0 4)"><path d="M0.84 -0.93 C0.92 0.37, 0.82 6.78, 0.74 8.21 M-0.17 1.2 C-0.22 2.08, 0.19 4.93, 0.19 6.2" stroke="#8b949e" stroke-width="2" fill="none"></path></g></g><g transform="translate(766 535) rotate(0 3.4969940185546875 8.125)"><text x="0" y="NaN" font-family="Virgil, Segoe UI Emoji" font-size="13px" fill="#8b949e" text-anchor="start" style="white-space: pre;" direction="ltr">7</text></g><g stroke-linecap="round"><g transform="translate(874 521) rotate(0 0 4)"><path d="M0.59 0.41 C0.39 2.08, -0.54 7.52, -0.81 8.87 M-0.56 -0.42 C-0.41 1.02, 1.16 6.07, 1.47 7.21" stroke="#8b949e" stroke-width="2" fill="none"></path></g></g><g transform="translate(866 535) rotate(0 4.972496032714844 8.125)"><text x="0" y="NaN" font-family="Virgil, Segoe UI Emoji" font-size="13px" fill="#8b949e" text-anchor="start" style="white-space: pre;" direction="ltr">8</text></g><g stroke-linecap="round"><g transform="translate(974 521) rotate(0 0 4)"><path d="M0.07 -0.67 C-0.15 0.42, -0.65 5.98, -0.6 7.57 M-1.35 1.6 C-1.24 3.38, 1.61 7.98, 1.8 8.89" stroke="#8b949e" stroke-width="2" fill="none"></path></g></g><g transform="translate(966 535) rotate(0 3.95849609375 8.125)"><text x="0" y="NaN" font-family="Virgil, Segoe UI Emoji" font-size="13px" fill="#8b949e" text-anchor="start" style="white-space: pre;" direction="ltr">9</text></g><g stroke-linecap="round"><g transform="translate(1074 521) rotate(0 0 4)"><path d="M0.36 -1.14 C0.35 -0.01, 0.25 5.84, 0.03 7.21 M-0.92 0.87 C-1.08 2.11, -1.29 7.16, -0.9 8.33" stroke="#8b949e" stroke-width="2" fill="none"></path></g></g><g transform="translate(1066 535) rotate(0 6.233497619628906 8.125)"><text x="0" y="NaN" font-family="Virgil, Segoe UI Emoji" font-size="13px" fill="#8b949e" text-anchor="start" style="white-space: pre;" direction="ltr">10</text></g><g stroke-linecap="round"><g transform="translate(1174 521) rotate(0 0 4)"><path d="M-0.36 0.86 C-0.57 2.07, -1.32 6.04, -1.07 7.1 M1.65 0.27 C1.78 1.62, 1.2 6.85, 1.08 8.16" stroke="#8b949e" stroke-width="2" fill="none"></path></g></g><g transform="translate(1166 535) rotate(0 3.5229949951171875 8.125)"><text x="0" y="NaN" font-family="Virgil, Segoe UI Emoji" font-size="13px" fill="#8b949e" text-anchor="start" style="white-space: pre;" direction="ltr">11</text></g><g stroke-linecap="round"><g transform="translate(1274 521) rotate(0 0 4)"><path d="M-0.58 -0.58 C-0.43 0.93, 0.17 7.69, 0.45 9.08 M1.32 1.72 C1.39 2.93, -0.19 6.32, -0.26 7.53" stroke="#8b949e" stroke-width="2" fill="none"></path></g></g><g transform="translate(1266 535) rotate(0 6.389495849609375 8.125)"><text x="0" y="NaN" font-family="Virgil, Segoe UI Emoji" font-size="13px" fill="#8b949e" text-anchor="start" style="white-space: pre;" direction="ltr">12</text></g><g transform="translate(1414 555) rotate(0 31.258453369140625 8.125)"><text x="0" y="NaN" font-family="Virgil, Segoe UI Emoji" font-size="13px" fill="#8b949e" text-anchor="start" style="white-space: pre;" direction="ltr">time (sec)</text></g><g stroke-linecap="round"><g transform="translate(74 525) rotate(0 250 -160)"><path d="M-0.42 -1.04 C82.52 -54.62, 415.35 -267.33, 498.82 -320.41 M1.57 1.03 C84.75 -51.87, 417.86 -265.32, 500.91 -319.09" stroke="#3fb950" stroke-width="3" fill="none"></path></g></g><g stroke-linecap="round"><g transform="translate(574 205) rotate(0 0 160)"><path d="M0.98 0.93 C0.81 54.23, -1.01 267.55, -0.99 320.86 M0.04 0.38 C0.23 53.86, 1.06 266.11, 1.2 319.19" stroke="#f85149" stroke-width="3" fill="none"></path></g></g><g stroke-linecap="round"><g transform="translate(574 525) rotate(0 250 -160)"><path d="M0.19 0.04 C83.65 -53.47, 416.56 -267.75, 499.81 -320.89 M-1.17 -0.99 C82.2 -54.38, 415.45 -266.56, 498.77 -319.82" stroke="#3fb950" stroke-width="3" fill="none"></path></g></g><g stroke-linecap="round"><g transform="translate(1074 205) rotate(0 100 0)"><path d="M1.2 0.37 C34.84 0.36, 168.05 -0.84, 201.13 -0.81 M0.36 -0.48 C34.02 -0.29, 167.71 0.47, 200.78 0.31" stroke="#3fb950" stroke-width="3" fill="none"></path></g></g><g stroke-opacity="0.2" fill-opacity="0.2" stroke-linecap="round" transform="translate(566 201) rotate(0 8 160)"><path d="M1.92 0.44 L16.96 1.29 L15.08 321.51 L0.89 319.74" stroke="none" stroke-width="0" fill="#4a1219"></path><path d="M-0.72 -0.53 C6.83 1.09, 13.81 0.84, 15.51 0.31 M0.46 -0.8 C5.39 -0.14, 11.18 -0.88, 15.52 -0.24 M15.34 0.4 C17.54 108.28, 17.68 215.98, 16.19 319.35 M15.72 0.22 C15.84 77.93, 15.98 157.44, 15.76 320.01 M17.41 318.81 C13.05 321.58, 8.5 319.74, 1.19 319.17 M15.85 319.65 C11.52 319.63, 6.27 319.8, 0.46 319.99 M-0.73 319.86 C-3.41 215.22, -2.71 110.28, -0.55 0.88 M0.7 320.02 C1.22 236.54, 1.47 151.74, 0.16 -0.6" stroke="#f85149" stroke-width="2" fill="none"></path></g><g transform="translate(592 335) rotate(0 47.679962158203125 10)"><text x="0" y="NaN" font-family="Virgil, Segoe UI Emoji" font-size="16px" fill="#f85149" text-anchor="start" style="white-space: pre;" direction="ltr">burst of 50</text></g><g transform="translate(592 357) rotate(0 42.71794128417969 8.125)"><text x="0" y="NaN" font-family="Virgil, Segoe UI Emoji" font-size="13px" fill="#8b949e" text-anchor="start" style="white-space: pre;" direction="ltr">drains bucket</text></g><g transform="translate(104 581) rotate(0 146.88787841796875 8.75)"><text x="0" y="NaN" font-family="Virgil, Segoe UI Emoji" font-size="14px" fill="#3fb950" text-anchor="start" style="white-space: pre;" direction="ltr">(1) idle  —  refill drips, bucket fills to cap</text></g><g transform="translate(524 581) rotate(0 32.05297088623047 8.75)"><text x="0" y="NaN" font-family="Virgil, Segoe UI Emoji" font-size="14px" fill="#f85149" text-anchor="start" style="white-space: pre;" direction="ltr">(2) burst</text></g><g transform="translate(694 581) rotate(0 153.4188690185547 8.75)"><text x="0" y="NaN" font-family="Virgil, Segoe UI Emoji" font-size="14px" fill="#3fb950" text-anchor="start" style="white-space: pre;" direction="ltr">(3) drip refill back to cap, 5 sec to recover</text></g><g stroke-linecap="round" transform="translate(1074 115) rotate(0 65 85)"><path d="M1.47 1.26 L129.3 -1.56 L129.7 171.4 L-1.81 170.58" stroke="none" stroke-width="0" fill="#21262d"></path><path d="M1.41 -0.11 C36.83 -1.02, 71.24 -1.36, 129.05 0.95 M0.64 -0.1 C39.12 -1.35, 78.59 -1.33, 129.02 0.8 M130.44 -1.95 C128.9 33.4, 128.94 68.67, 131.99 168.79 M130.92 -0.2 C130.41 46.26, 129.63 91.41, 130.37 170.31 M128.06 170.47 C100.88 170.62, 71.48 172.45, 0.55 170.61 M129.75 170.61 C100.41 171.46, 70.56 171.54, 0.08 170.91 M1.94 171.58 C0.46 104.54, -1.7 39.83, 1.33 0.45 M0.19 169.58 C0 126.97, 0.41 85.18, -0.49 0.29" stroke="#8b949e" stroke-width="3" fill="none"></path></g><g stroke-linecap="round" transform="translate(1078 211) rotate(0 61 35)"><path d="M-1.32 -1.4 L122.51 0.94 L123.79 71.27 L-1.09 68.47" stroke="none" stroke-width="0" fill="#3a5d1d"></path><path d="M-0.71 -1.15 C39.5 -1.2, 78.43 0.86, 122.02 1.84 M0.48 0.44 C35.3 -0.73, 71.32 -0.89, 121.54 0.24 M123.43 0.14 C121.2 15.19, 122.9 32.85, 120.47 69.38 M122.86 0.11 C121.04 21.28, 121.35 39.7, 122.69 69.44 M123.29 71.73 C82.84 69.02, 42.64 68.75, -1.91 70.03 M122.28 70.49 C75.37 70.65, 26.95 69.6, 0.33 69.98 M1.61 69.76 C-0.12 51.39, -0.7 34.06, 1.49 -1.99 M-0.92 69.17 C-0.16 52.91, 0.27 36.6, -0.57 -0.92" stroke="#6dbf3a" stroke-width="2" fill="none"></path></g><g transform="translate(1096 233) rotate(0 25.303985595703125 10)"><text x="0" y="NaN" font-family="Virgil, Segoe UI Emoji" font-size="16px" fill="#3fb950" text-anchor="start" style="white-space: pre;" direction="ltr">tokens</text></g><g stroke-linecap="round"><g transform="translate(1139 103) rotate(0 0 5.5)"><path d="M-0.87 -1.01 C-0.87 0.88, -0.33 8.42, -0.18 10.37 M0.88 1.07 C0.72 3.19, -0.95 9.78, -1.23 11.58" stroke="#f0883e" stroke-width="3" fill="none"></path></g><g transform="translate(1139 103) rotate(0 0 5.5)"><path d="M-2.5 6.05 C-2.14 7.7, -1.75 9.5, -1.65 11.07 M-1.78 6.25 C-1.7 8.19, -1.44 9.78, -1.45 11.34" stroke="#f0883e" stroke-width="3" fill="none"></path></g><g transform="translate(1139 103) rotate(0 0 5.5)"><path d="M1.19 6.81 C0.5 8.21, -0.17 9.8, -1.65 11.07 M1.9 7.01 C0.72 8.67, -0.28 10.01, -1.45 11.34" stroke="#f0883e" stroke-width="3" fill="none"></path></g></g><g transform="translate(1044 83) rotate(0 65.37295532226562 8.75)"><text x="0" y="NaN" font-family="Virgil, Segoe UI Emoji" font-size="14px" fill="#f0883e" text-anchor="start" style="white-space: pre;" direction="ltr">+10 tokens/sec  →</text></g><g stroke-linecap="round" transform="translate(1234 115) rotate(0 140 125)"><path d="M0.91 0.57 L281.16 1.37 L279.58 250.91 L0.47 249.64" stroke="none" stroke-width="0" fill="#161b22"></path><path d="M-0.08 0.44 C74.01 -1.92, 147.57 -0.24, 280.54 -0.67 M-0.47 -0.71 C58.05 1.94, 115.05 1.71, 279.38 -0.36 M278.88 0.2 C277.44 99.16, 277.67 195.79, 278.78 250.44 M279.64 -0.78 C279.11 61.06, 279.64 121.73, 279.5 249.81 M280.27 248.99 C191.63 249.72, 102.08 248.66, 0.03 250.86 M279.61 250.35 C199.11 248.91, 117.69 248.85, -0.72 250.43 M-0.67 248.57 C2.31 174.1, 2.23 102.29, 1.44 0.07 M-0.79 249.42 C1.24 172.56, 1 95.37, 0.27 -0.63" stroke="#30363d" stroke-width="2" fill="none"></path></g><g transform="translate(1246 125) rotate(0 74.79195404052734 10)"><text x="0" y="NaN" font-family="Virgil, Segoe UI Emoji" font-size="16px" fill="#e6edf3" text-anchor="start" style="white-space: pre;" direction="ltr">Why bursts are OK</text></g><g transform="translate(1246 155) rotate(0 96.1799087524414 43.75)"><text x="0" y="NaN" font-family="Virgil, Segoe UI Emoji" font-size="14px" fill="#c9d1d9" text-anchor="start" style="white-space: pre;" direction="ltr">Sustained rate is bounded</text><text x="0" y="NaN" font-family="Virgil, Segoe UI Emoji" font-size="14px" fill="#c9d1d9" text-anchor="start" style="white-space: pre;" direction="ltr">by the refill (10/sec). The</text><text x="0" y="NaN" font-family="Virgil, Segoe UI Emoji" font-size="14px" fill="#c9d1d9" text-anchor="start" style="white-space: pre;" direction="ltr">bucket size only sets how</text><text x="0" y="NaN" font-family="Virgil, Segoe UI Emoji" font-size="14px" fill="#c9d1d9" text-anchor="start" style="white-space: pre;" direction="ltr">much burst is allowed after</text><text x="0" y="NaN" font-family="Virgil, Segoe UI Emoji" font-size="14px" fill="#c9d1d9" text-anchor="start" style="white-space: pre;" direction="ltr">idle.</text></g><g transform="translate(1246 275) rotate(0 85.90389251708984 24.375)"><text x="0" y="NaN" font-family="Virgil, Segoe UI Emoji" font-size="13px" fill="#8b949e" text-anchor="start" style="white-space: pre;" direction="ltr">request leaving the bucket</text><text x="0" y="NaN" font-family="Virgil, Segoe UI Emoji" font-size="13px" fill="#8b949e" text-anchor="start" style="white-space: pre;" direction="ltr">consumes 1 token; reject</text><text x="0" y="NaN" font-family="Virgil, Segoe UI Emoji" font-size="13px" fill="#8b949e" text-anchor="start" style="white-space: pre;" direction="ltr">when empty.</text></g></svg>