<svg version="1.1" xmlns="http://www.w3.org/2000/svg" viewBox="0 0 1284.0746761376204 707.3977547872668" width="1284.0746761376204" height="707.3977547872668">
  <!-- svg-source:excalidraw -->
  
  <defs>
    <style>
      @font-face {
        font-family: "Virgil";
        src: url("https://excalidraw.com/Virgil.woff2");
      }
      @font-face {
        font-family: "Cascadia";
        src: url("https://excalidraw.com/Cascadia.woff2");
      }
    </style>
  </defs>
  <rect x="0" y="0" width="1284.0746761376204" height="707.3977547872668" fill="#0d1117"></rect><g stroke-linecap="round" transform="translate(10 17.397754787266763) rotate(0 100 25)"><path d="M-0.7 1.44 L200.61 -1.84 L198.67 48.67 L1.75 50.16" stroke="none" stroke-width="0" fill="#3a1d6e"></path><path d="M0.72 -1.02 C63.2 0.25, 124.52 -0.68, 198.5 -1.25 M-0.69 -0.26 C45.34 1.72, 90.66 0.53, 200.45 -0.19 M200.38 0.73 C198.93 14.36, 199.9 28.76, 199.41 51.56 M200.19 -0.42 C199.17 17.46, 198.89 35.2, 200.28 49.51 M198.21 51.55 C142.84 49.51, 86.01 51.59, -0.48 50.2 M199.61 49.77 C157.63 49.91, 116.17 50.12, -0.47 50.52 M0.97 51.46 C-1.41 36.73, -1.77 23.6, -0.63 -1.37 M-0.36 49.09 C0.36 32.93, -1.28 15.06, 1 -1" stroke="#a371f7" stroke-width="2" fill="none"></path></g><g transform="translate(71.39002990722656 29.897754787266763) rotate(0 38.60997009277344 12.5)"><text x="38.60997009277344" y="NaN" font-family="Virgil, Segoe UI Emoji" font-size="20px" fill="#ffffff" text-anchor="middle" style="white-space: pre;" direction="ltr">Client A</text></g><g stroke-linecap="round"><g transform="translate(110 67.39775478726676) rotate(0 0 290)"><path d="M-0.87 -0.77 C-0.78 95.67, -0.01 482.56, 0.12 579.38" stroke="#30363d" stroke-width="1.5" fill="none" stroke-dasharray="8 9"></path></g></g><g stroke-linecap="round" transform="translate(10 647.3977547872668) rotate(0 100 25)"><path d="M0.62 -0.92 L199.61 1.49 L201.94 50.51 L0.48 51.58" stroke="none" stroke-width="0" fill="#3a1d6e"></path><path d="M-0.84 -1.56 C48.36 1.48, 98.66 -0.96, 201.09 0.72 M0.08 0.36 C49.33 1.69, 99.85 1.31, 200.4 -0.53 M199.39 -1.68 C200.93 19.85, 199.97 38.68, 200.16 51.94 M199.01 0.54 C200.2 12.18, 199.64 25.75, 200.98 49.2 M200.39 48.98 C144.74 50.6, 86.61 48.94, 1.79 51.29 M199.6 49.55 C155.7 49.61, 110.91 48.74, 0.57 50.22 M1.6 49.78 C-2.23 31.88, 0.79 15.51, 1.67 0.02 M0.79 50.07 C0.54 32.73, -0.12 16.8, 0.18 -0.8" stroke="#a371f7" stroke-width="2" fill="none"></path></g><g transform="translate(71.39002990722656 659.8977547872668) rotate(0 38.60997009277344 12.5)"><text x="38.60997009277344" y="NaN" font-family="Virgil, Segoe UI Emoji" font-size="20px" fill="#ffffff" text-anchor="middle" style="white-space: pre;" direction="ltr">Client A</text></g><g stroke-linecap="round" transform="translate(608.2747722679915 15) rotate(0 100 25)"><path d="M-0.1 0.43 L201.96 -1.25 L200.84 51.59 L1.99 49.01" stroke="none" stroke-width="0" fill="#3a1d6e"></path><path d="M-0.05 0.98 C43.28 -3, 87.83 -0.15, 198.86 1.5 M0.78 -0.36 C76.12 -0.01, 153.05 -0.25, 199.49 -0.06 M199.63 0.24 C200.36 17.51, 199.68 35.48, 201.66 51.55 M200.3 0.07 C200.74 17.88, 200.66 35.17, 199.08 49.85 M199.53 48.8 C131.92 47.89, 64.18 48.89, -1.45 48.84 M200.19 50.05 C146.44 49.38, 94.26 48.56, -0.23 50.6 M1.62 49.63 C-0.9 35.64, -1.54 20.07, 0.14 0.35 M0.52 50.69 C-0.07 31.14, -0.09 11.5, 0.32 0.05" stroke="#a371f7" stroke-width="2" fill="none"></path></g><g transform="translate(648.0948253685774 27.5) rotate(0 60.17994689941406 12.5)"><text x="60.17994689941406" y="NaN" font-family="Virgil, Segoe UI Emoji" font-size="20px" fill="#ffffff" text-anchor="middle" style="white-space: pre;" direction="ltr">Lock Service</text></g><g stroke-linecap="round"><g transform="translate(705 67.39775478726676) rotate(0 0 290)"><path d="M-1.1 0.83 C-1.1 97.55, -0.7 482.72, -0.5 579.34" stroke="#30363d" stroke-width="1.5" fill="none" stroke-dasharray="8 9"></path></g></g><g stroke-linecap="round" transform="translate(608.2747722679915 645) rotate(0 100 25)"><path d="M-0.36 1.6 L200.78 0.96 L198.54 50.72 L-0.37 48.47" stroke="none" stroke-width="0" fill="#3a1d6e"></path><path d="M-1.57 -0.15 C65.86 -2.88, 127.5 -0.96, 198.89 1.23 M0.78 -0.24 C46.82 1.77, 94.67 1.59, 199.66 -0.22 M201.37 1.86 C200.94 8.36, 197.77 18.94, 198.48 49.27 M200.22 -0.79 C200.94 20.39, 200.96 40.11, 200.34 49.97 M201.23 50.63 C159.48 49.65, 117.96 49.67, -1.73 48.4 M200.36 49.58 C151.89 51.21, 103.17 50.88, -0.85 49.5 M-1.99 50.44 C0.76 38.58, -1.6 30.14, -0.77 -1.61 M0.72 50.83 C-0.08 35.59, -0.83 22.13, 0.7 0.93" stroke="#a371f7" stroke-width="2" fill="none"></path></g><g transform="translate(648.0948253685774 657.5) rotate(0 60.17994689941406 12.5)"><text x="60.17994689941406" y="NaN" font-family="Virgil, Segoe UI Emoji" font-size="20px" fill="#ffffff" text-anchor="middle" style="white-space: pre;" direction="ltr">Lock Service</text></g><g stroke-linecap="round" transform="translate(318.27477226799147 15) rotate(0 100 25)"><path d="M-0.17 1.74 L200.27 -0.57 L198.31 51.27 L1.96 49.91" stroke="none" stroke-width="0" fill="#3a1d6e"></path><path d="M-1.38 -1.33 C78.06 -0.51, 155.82 -2.17, 200.65 0.53 M0.41 -0.62 C44.17 -0.01, 88.51 -0.62, 199.57 0.63 M201.94 0.25 C199.06 11.11, 198.71 21.77, 201.9 50.17 M200.06 0.09 C200.02 17.33, 199.13 33.14, 199.81 50.25 M199.54 51.3 C149.7 50.42, 100.47 49.15, 0.64 49.75 M200.7 50.05 C132.97 49.92, 65.78 51.49, 0.53 49.54 M-0.83 50.64 C0.17 37.56, -0.68 22.23, 0.37 -0.58 M0.1 49.45 C-0.65 35.37, -0.38 22.07, 0.76 0.37" stroke="#a371f7" stroke-width="2" fill="none"></path></g><g transform="translate(378.9548030907454 27.5) rotate(0 39.319969177246094 12.5)"><text x="39.319969177246094" y="NaN" font-family="Virgil, Segoe UI Emoji" font-size="20px" fill="#ffffff" text-anchor="middle" style="white-space: pre;" direction="ltr">Client B</text></g><g stroke-linecap="round"><g transform="translate(418.27477226799147 65) rotate(0 0 290)"><path d="M-0.11 -0.28 C-0.01 96.15, 0.02 482.74, 0.18 579.46" stroke="#30363d" stroke-width="1.5" fill="none" stroke-dasharray="8 9"></path></g></g><g stroke-linecap="round" transform="translate(318.27477226799147 645) rotate(0 100 25)"><path d="M1.8 -1.48 L198.74 -1.56 L199.39 51.71 L-1.13 48.58" stroke="none" stroke-width="0" fill="#3a1d6e"></path><path d="M-0.79 0.33 C73.65 -3.23, 149.16 -0.1, 200.95 -1.31 M0.46 0.88 C56.31 -0.87, 112.91 -0.44, 200.2 -0.37 M201.33 -0.02 C198.71 18.17, 200.01 34.99, 199.93 50.95 M200.34 0.77 C200.45 9.28, 198.97 20.87, 199.62 50.01 M198.89 51.02 C152.11 49.06, 106.48 49.87, 0.14 49.38 M200.27 49.44 C152.02 49.38, 102.41 50.19, 0.89 50.54 M0.23 50.12 C-1.23 35.94, 0.68 23.03, -0.5 -1.72 M0.37 50.06 C-0.92 34.58, -0.87 18.8, -0.87 -0.08" stroke="#a371f7" stroke-width="2" fill="none"></path></g><g transform="translate(378.9548030907454 657.5) rotate(0 39.319969177246094 12.5)"><text x="39.319969177246094" y="NaN" font-family="Virgil, Segoe UI Emoji" font-size="20px" fill="#ffffff" text-anchor="middle" style="white-space: pre;" direction="ltr">Client B</text></g><g stroke-linecap="round" transform="translate(918.2747722679915 10) rotate(0 100 25)"><path d="M0.87 -1.3 L201.4 0.39 L201.86 49.28 L0.9 50.61" stroke="none" stroke-width="0" fill="#3a1d6e"></path><path d="M0.68 -1 C81.04 -2.09, 160 0.29, 201.24 1.74 M0.69 0.87 C78.24 -0.77, 154.55 -0.47, 199.64 0.83 M200.52 0.46 C200.87 14.66, 199.74 26.96, 201.79 48.98 M200.53 0.91 C199.96 13.39, 201.21 25.34, 199.45 50.5 M198.44 50.71 C135.29 49.11, 74.17 48.99, -1.67 50.89 M199.1 50.46 C148.61 50.06, 95.68 51.07, 0.23 50.71 M-0.49 49.94 C0.48 38.63, -1.28 22.94, 0.9 0.83 M-0.04 49.88 C-0.19 33.34, 1.29 16.85, -0.66 0.2" stroke="#a371f7" stroke-width="2" fill="none"></path></g><g transform="translate(979.554809194261 22.5) rotate(0 38.71996307373047 12.5)"><text x="38.71996307373047" y="NaN" font-family="Virgil, Segoe UI Emoji" font-size="20px" fill="#ffffff" text-anchor="middle" style="white-space: pre;" direction="ltr">Storage</text></g><g stroke-linecap="round"><g transform="translate(1018.2747722679915 60) rotate(0 0 290)"><path d="M0.43 -0.47 C0.26 96.09, -0.7 482.17, -0.69 579.05" stroke="#30363d" stroke-width="1.5" fill="none" stroke-dasharray="8 9"></path></g></g><g stroke-linecap="round" transform="translate(918.2747722679915 640) rotate(0 100 25)"><path d="M0.38 -1.21 L198.44 -1.3 L198.31 49.64 L0.44 50.97" stroke="none" stroke-width="0" fill="#3a1d6e"></path><path d="M-1.38 0.21 C46.18 -1.05, 94.14 -1, 199.9 0.06 M-0.56 0.8 C55.4 2.08, 111.42 2.27, 200.53 -0.3 M200.83 -1.7 C198.68 11.64, 199.04 20.77, 200.66 50.03 M200.7 0 C199.51 16.09, 200.55 29.88, 200.97 50.19 M199.22 51.26 C152.99 50.46, 107.5 49.93, 1.57 49.74 M200.14 49.87 C120.3 50.44, 40.25 50.75, -0.74 50.48 M-1.71 51.6 C-1.13 39.21, -2.01 23.46, 0.59 1.98 M-0.9 49.03 C0.28 36.68, -0.22 23.38, -1 0.67" stroke="#a371f7" stroke-width="2" fill="none"></path></g><g transform="translate(979.554809194261 652.5) rotate(0 38.71996307373047 12.5)"><text x="38.71996307373047" y="NaN" font-family="Virgil, Segoe UI Emoji" font-size="20px" fill="#ffffff" text-anchor="middle" style="white-space: pre;" direction="ltr">Storage</text></g><g stroke-linecap="round"><g transform="translate(109.80209075593143 147.39775478726676) rotate(0 294.63423943138275 -2.321236192311062)"><path d="M1.2 0.17 C31.51 -0.14, 83.5 -1.72, 181.31 -2.71 C279.12 -3.7, 520 -5.38, 588.07 -5.75 M0.36 -0.78 C30.61 -1.41, 82.33 -3.99, 180.66 -4.7 C278.99 -5.4, 522.07 -5.13, 590.34 -5.02" stroke="#c9d1d9" stroke-width="2" fill="none"></path></g><g transform="translate(109.80209075593143 147.39775478726676) rotate(0 294.63423943138275 -2.321236192311062)"><path d="M562.42 6.15 C569.8 0.34, 574.69 0.57, 589.81 -3.85 M561.73 4.26 C570.26 2.08, 578.15 -1.68, 589.64 -4.05" stroke="#c9d1d9" stroke-width="2" fill="none"></path></g><g transform="translate(109.80209075593143 147.39775478726676) rotate(0 294.63423943138275 -2.321236192311062)"><path d="M562.45 -14.37 C569.68 -14.96, 574.57 -9.52, 589.81 -3.85 M561.76 -16.26 C570.21 -12.54, 578.1 -10.4, 589.64 -4.05" stroke="#c9d1d9" stroke-width="2" fill="none"></path></g></g><g transform="translate(546.3088069969954 133.75) rotate(0 51.96596527099611 11.25)"><text x="51.965965270996094" y="NaN" font-family="Virgil, Segoe UI Emoji" font-size="18px" fill="#c9d1d9" text-anchor="middle" style="white-space: pre;" direction="ltr">Acquire lock</text></g><g stroke-linecap="round"><g transform="translate(702.1003841482961 223.16225717649206) rotate(0 -296.0501920741481 2.2166579101162256)"><path d="M-0.58 0.83 C-66.39 1.5, -296.32 4.08, -394.71 4.5 C-493.1 4.91, -558.19 3.47, -590.92 3.31 M1.31 0.22 C-64.65 0.52, -296.82 2.22, -395.55 2.86 C-494.28 3.49, -558.6 3.82, -591.06 4.04" stroke="#c9d1d9" stroke-width="2" fill="none"></path></g><g transform="translate(702.1003841482961 223.16225717649206) rotate(0 -296.0501920741481 2.2166579101162256)"><path d="M-561.55 -6.04 C-570.09 -1.32, -582.21 1.63, -592.57 2.11 M-561.99 -6.09 C-571.1 -2.73, -581.75 0.99, -590.4 3.1" stroke="#c9d1d9" stroke-width="2" fill="none"></path></g><g transform="translate(702.1003841482961 223.16225717649206) rotate(0 -296.0501920741481 2.2166579101162256)"><path d="M-561.43 14.48 C-570.08 12.84, -582.24 9.42, -592.57 2.11 M-561.86 14.43 C-571.15 11.14, -581.84 8.22, -590.4 3.1" stroke="#c9d1d9" stroke-width="2" fill="none"></path></g></g><g transform="translate(513.7648235375227 213.75) rotate(0 84.50994873046876 11.25)"><text x="84.50994873046875" y="NaN" font-family="Virgil, Segoe UI Emoji" font-size="18px" fill="#c9d1d9" text-anchor="middle" style="white-space: pre;" direction="ltr">Granted, token=33</text></g><g stroke-opacity="0.85" fill-opacity="0.85" stroke-linecap="round" transform="translate(28 245.39775478726676) rotate(0 82 22)"><path d="M1.28 0.26 L164.95 -0.24 L162.78 43.15 L0.78 43.85" stroke="none" stroke-width="0" fill="#1f4d2b"></path><path d="M-1.93 1.84 C58.68 -2.84, 120.82 -3.13, 164.04 -0.81 M-0.29 -0.85 C36.75 1.86, 73.69 0.41, 164.28 -0.84 M164.2 1.88 C163.77 12.48, 163.26 28.47, 162.54 44.35 M163.28 0.15 C163.49 14.95, 164.72 31.61, 163.46 43.23 M164.79 42.6 C114.38 43.36, 65.12 43.99, 0.32 42.1 M163.8 44.54 C117.12 42.57, 68.95 42.42, 0.19 44.97 M-1.41 44.27 C-0.61 27.49, -2.12 14.37, -0.89 -0.02 M0 43.62 C0.74 27.85, -0.13 12.52, 0.53 -0.03" stroke="#3fb950" stroke-width="2" fill="none"></path></g><g transform="translate(45.71204376220703 257.39775478726676) rotate(0 64.28795623779297 10)"><text x="64.28795623779297" y="NaN" font-family="Virgil, Segoe UI Emoji" font-size="16px" fill="#ffffff" text-anchor="middle" style="white-space: pre;" direction="ltr">GC pause begins</text></g><g stroke-opacity="0.85" fill-opacity="0.85" stroke-linecap="round" transform="translate(573.4747722679915 243) rotate(0 134.79999999999998 22)"><path d="M0.78 -0.9 L270.29 -0.02 L268.12 44.62 L1.43 44.09" stroke="none" stroke-width="0" fill="#1f4d2b"></path><path d="M-0.09 -1.31 C87.21 2.09, 174.37 2.78, 270.19 0.61 M0.74 0.53 C64.24 2.14, 129.62 1.4, 268.9 -0.27 M269.09 -1.25 C270.05 12.43, 267.55 21.05, 268.1 42.1 M269.31 0.58 C269.58 16.45, 270.53 34.57, 268.68 44.35 M269.32 44.12 C170.49 44.02, 70.01 43.56, 0.73 43.99 M270.29 44.32 C207.68 44.66, 147.53 44.32, 0.54 44.59 M1.36 44.12 C-1.01 27.65, -0.67 13.27, -1.33 -1.81 M0.79 44.69 C0.53 34.69, 0.31 26.5, 0.54 -0.02" stroke="#3fb950" stroke-width="2" fill="none"></path></g><g transform="translate(595.5548397118391 255) rotate(0 112.71993255615234 10)"><text x="112.71993255615234" y="NaN" font-family="Virgil, Segoe UI Emoji" font-size="16px" fill="#ffffff" text-anchor="middle" style="white-space: pre;" direction="ltr">Lease expires after timeout</text></g><g stroke-linecap="round"><g transform="translate(421.0469897121329 307.1161250429527) rotate(0 143.61389127792927 -1.0580625214763586)"><path d="M-1.06 0.81 C47.14 0.2, 240.3 -2.15, 288.42 -2.54 M0.59 0.18 C48.8 0.27, 240.34 -0.6, 288.09 -1.23" stroke="#c9d1d9" stroke-width="2" fill="none"></path></g><g transform="translate(421.0469897121329 307.1161250429527) rotate(0 143.61389127792927 -1.0580625214763586)"><path d="M261.33 11.24 C265.82 7.71, 274.11 3.98, 289.68 -2.76 M260.53 8.55 C266.81 7.43, 272.67 5.09, 287.3 -0.88" stroke="#c9d1d9" stroke-width="2" fill="none"></path></g><g transform="translate(421.0469897121329 307.1161250429527) rotate(0 143.61389127792927 -1.0580625214763586)"><path d="M261.17 -9.28 C265.88 -7.96, 274.2 -6.84, 289.68 -2.76 M260.37 -11.97 C266.69 -8.21, 272.58 -5.68, 287.3 -0.88" stroke="#c9d1d9" stroke-width="2" fill="none"></path></g></g><g transform="translate(796.3088069969954 293.75) rotate(0 51.965965270996065 11.25)"><text x="51.965965270996094" y="NaN" font-family="Virgil, Segoe UI Emoji" font-size="18px" fill="#c9d1d9" text-anchor="middle" style="white-space: pre;" direction="ltr">Acquire lock</text></g><g stroke-linecap="round"><g transform="translate(708.0252763168346 385) rotate(0 -142.33462201962925 0.7241579815083696)"><path d="M0 -0.25 C-47.28 0.1, -236.44 2.12, -283.84 2.45 M-1.46 -1.42 C-48.81 -1.43, -237.09 0.09, -284.36 0.86" stroke="#c9d1d9" stroke-width="2" fill="none"></path></g><g transform="translate(708.0252763168346 385) rotate(0 -142.33462201962925 0.7241579815083696)"><path d="M-256.7 -8.35 C-262.63 -6.32, -271.87 -5.51, -283.13 0.85 M-256.91 -9.77 C-267.29 -6.98, -277.29 -2.14, -285.21 0.51" stroke="#c9d1d9" stroke-width="2" fill="none"></path></g><g transform="translate(708.0252763168346 385) rotate(0 -142.33462201962925 0.7241579815083696)"><path d="M-256.47 12.17 C-262.53 8.32, -271.83 3.24, -283.13 0.85 M-256.68 10.75 C-267.02 6.11, -277.1 3.51, -285.21 0.51" stroke="#c9d1d9" stroke-width="2" fill="none"></path></g></g><g transform="translate(764.1338268334212 373.75) rotate(0 84.14094543457028 11.25)"><text x="84.14094543457031" y="NaN" font-family="Virgil, Segoe UI Emoji" font-size="18px" fill="#c9d1d9" text-anchor="middle" style="white-space: pre;" direction="ltr">Granted, token=34</text></g><g stroke-linecap="round"><g transform="translate(424.7240137576998 465.86898957781) rotate(0 293.5156391388689 -3.387360852963525)"><path d="M-0.46 0.3 C97.27 -0.62, 489.75 -4.69, 587.52 -5.68 M1.49 -0.58 C99.02 -1.8, 488.98 -6.1, 586.83 -7.22" stroke="#c9d1d9" stroke-width="2" fill="none"></path></g><g transform="translate(424.7240137576998 465.86898957781) rotate(0 293.5156391388689 -3.387360852963525)"><path d="M559.27 4.17 C571.58 -2.07, 582.7 -4.11, 586.2 -7.51 M558.56 3.63 C564.45 1.4, 570.27 -0.41, 586.39 -6.7" stroke="#c9d1d9" stroke-width="2" fill="none"></path></g><g transform="translate(424.7240137576998 465.86898957781) rotate(0 293.5156391388689 -3.387360852963525)"><path d="M559.04 -16.35 C571.41 -14.56, 582.62 -8.58, 586.2 -7.51 M558.33 -16.89 C564.38 -14.73, 570.25 -12.15, 586.39 -6.7" stroke="#c9d1d9" stroke-width="2" fill="none"></path></g></g><g transform="translate(1073.5188137108626 453.75) rotate(0 100.2779312133789 11.25)"><text x="100.2779312133789" y="NaN" font-family="Virgil, Segoe UI Emoji" font-size="18px" fill="#c9d1d9" text-anchor="middle" style="white-space: pre;" direction="ltr">Write X=bar, token=34</text></g><g stroke-opacity="0.85" fill-opacity="0.85" stroke-linecap="round" transform="translate(918.6747722679914 478) rotate(0 99.60000000000002 22)"><path d="M1.73 1.35 L200.2 0.35 L198.1 45.87 L1.23 42.67" stroke="none" stroke-width="0" fill="#1f4d2b"></path><path d="M1.58 -0.99 C57.97 -0.27, 119.2 0.1, 199.14 0.23 M-0.93 -0.46 C73.23 0.28, 146.97 -0.23, 198.54 0.35 M200.06 -0.32 C198.59 13.94, 200.83 29.23, 200.09 44.45 M199.29 -0.61 C199.66 17.08, 198.79 35.16, 200.13 43.05 M198.28 43.23 C128.85 41.37, 53.92 44.57, -1.74 42.13 M199.2 43.41 C140.1 43.21, 81.25 44.55, -0.01 44.45 M0.44 44.59 C0.5 34.46, 0.21 23.02, 0.13 0.48 M-0.54 43.19 C-0.61 26.6, 0.62 9.2, 0.19 0.29" stroke="#3fb950" stroke-width="2" fill="none"></path></g><g transform="translate(930.3308254296126 490) rotate(0 87.9439468383789 10)"><text x="87.9439468383789" y="NaN" font-family="Virgil, Segoe UI Emoji" font-size="16px" fill="#ffffff" text-anchor="middle" style="white-space: pre;" direction="ltr">Stores max_token=34</text></g><g stroke-opacity="0.85" fill-opacity="0.85" stroke-linecap="round" transform="translate(36.80000000000001 485.39775478726676) rotate(0 73.2 22)"><path d="M-0.16 1.08 L145.64 -1.88 L147.83 42.97 L1.81 43.37" stroke="none" stroke-width="0" fill="#1f4d2b"></path><path d="M-1.71 1.94 C46.83 0.19, 89.48 -1.43, 145.53 1.27 M-0.98 -0.15 C38.4 -1.22, 76.29 -2, 145.7 -0.74 M144.73 0.03 C148.28 10.31, 145.56 21.42, 145.06 44.74 M145.41 0.59 C146.76 16.76, 146.39 35.18, 145.59 44.52 M145.74 43.13 C94.77 41.22, 41.56 44.34, 1.93 43.93 M147.37 44.62 C105.44 45.27, 63.77 43.46, 0.55 43.68 M1.16 42.98 C-1.39 33.17, 0.33 24.8, -1.19 -1.85 M0.15 44.04 C0.82 31.43, 0.32 18.01, -0.45 0.11" stroke="#3fb950" stroke-width="2" fill="none"></path></g><g transform="translate(50.984039306640625 497.39775478726676) rotate(0 59.015960693359375 10)"><text x="59.015960693359375" y="NaN" font-family="Virgil, Segoe UI Emoji" font-size="16px" fill="#ffffff" text-anchor="middle" style="white-space: pre;" direction="ltr">GC pause ends</text></g><g stroke-linecap="round"><g transform="translate(111.54000656513608 553.689436723912) rotate(0 446.0284872209303 -5.813117945695922)"><path d="M0.62 -0.37 C149.33 -2.3, 743.92 -9.64, 892.49 -11.51 M-0.51 -1.6 C148.06 -3.33, 743.13 -8.46, 891.77 -9.92" stroke="#c9d1d9" stroke-width="2" fill="none"></path></g><g transform="translate(111.54000656513608 553.689436723912) rotate(0 446.0284872209303 -5.813117945695922)"><path d="M863.06 1.32 C872.85 -2.89, 881.64 -8.06, 892.24 -11.49 M863.32 0.96 C872.45 -2.89, 881.31 -7.1, 892.43 -9.3" stroke="#c9d1d9" stroke-width="2" fill="none"></path></g><g transform="translate(111.54000656513608 553.689436723912) rotate(0 446.0284872209303 -5.813117945695922)"><path d="M862.88 -19.2 C872.73 -16.84, 881.59 -15.44, 892.24 -11.49 M863.13 -19.56 C872.4 -16.8, 881.31 -14.39, 892.43 -9.3" stroke="#c9d1d9" stroke-width="2" fill="none"></path></g></g><g transform="translate(747.7268367821516 533.75) rotate(0 100.54793548583982 11.25)"><text x="100.54793548583984" y="NaN" font-family="Virgil, Segoe UI Emoji" font-size="18px" fill="#c9d1d9" text-anchor="middle" style="white-space: pre;" direction="ltr">Write X=foo, token=33</text></g><g stroke-opacity="0.85" fill-opacity="0.85" stroke-linecap="round" transform="translate(936.2747722679915 558) rotate(0 82 22)"><path d="M0.22 -0.31 L164.19 -0.59 L164.47 42.66 L0.61 44.72" stroke="none" stroke-width="0" fill="#1f4d2b"></path><path d="M-0.44 -1.41 C42.96 0.88, 88.79 -0.4, 165.14 1.13 M-0.9 -0.67 C38.79 -0.19, 75.44 -0.3, 163.92 -0.36 M164 0.39 C162.96 9.38, 165.08 20.15, 164.43 43.21 M163.42 -0.15 C165.18 12.42, 163.76 26.78, 164.31 44.25 M164.12 43.82 C105.57 44.58, 45.59 46.21, 0.52 44.35 M164.97 44.02 C119.68 43.47, 76.18 45.04, -0.82 43.15 M-1.89 44.1 C0.11 27.55, -0.53 11.54, -0.79 -0.81 M0.95 44.53 C0.3 34.36, 0.94 26.25, -0.33 -0.19" stroke="#3fb950" stroke-width="2" fill="none"></path></g><g transform="translate(945.0508037621321 570) rotate(0 73.22396850585938 10)"><text x="73.22396850585938" y="NaN" font-family="Virgil, Segoe UI Emoji" font-size="16px" fill="#ffffff" text-anchor="middle" style="white-space: pre;" direction="ltr">33 &lt; 34, REJECT</text></g></svg>