<svg version="1.1" xmlns="http://www.w3.org/2000/svg" viewBox="0 0 1510 633" width="1510" height="633">
  <!-- svg-source:excalidraw -->
  
  <defs>
    <style>
      @font-face {
        font-family: "Virgil";
        src: url("https://excalidraw.com/Virgil.woff2");
      }
      @font-face {
        font-family: "Cascadia";
        src: url("https://excalidraw.com/Cascadia.woff2");
      }
    </style>
  </defs>
  <rect x="0" y="0" width="1510" height="633" fill="#0d1117"></rect><g transform="translate(40 10) rotate(0 329.7978210449219 17.5)"><text x="0" y="NaN" font-family="Virgil, Segoe UI Emoji" font-size="28px" fill="#ff8c42" text-anchor="start" style="white-space: pre;" direction="ltr">Fixed-Window Rate Limiting: the Boundary Burst</text></g><g transform="translate(40 50) rotate(0 622.691650390625 11.25)"><text x="0" y="NaN" font-family="Virgil, Segoe UI Emoji" font-size="18px" fill="#c9d1d9" text-anchor="start" style="white-space: pre;" direction="ltr">Counter resets at every window boundary. A client that saves traffic for the boundary can send 2x the limit in seconds across the seam.</text></g><g stroke-linecap="round"><g transform="translate(100 525) rotate(0 700 0)"><path d="M0.01 -1.15 C233.2 -1.09, 1167.03 -0.88, 1400.32 -0.48 M-1.44 0.86 C231.52 1.15, 1166.16 1.03, 1399.54 0.8" stroke="#8b949e" stroke-width="2" fill="none"></path></g></g><g stroke-linecap="round"><g transform="translate(100 519) rotate(0 0 6)"><path d="M0.49 -0.4 C0.58 1.32, -0.33 8.82, -0.25 10.87 M-0.71 -1.66 C-0.73 0.11, -1.57 9.35, -1.33 11.82" stroke="#8b949e" stroke-width="2" fill="none"></path></g></g><g transform="translate(68 539) rotate(0 23.951988220214844 10)"><text x="0" y="NaN" font-family="Virgil, Segoe UI Emoji" font-size="16px" fill="#e6edf3" text-anchor="start" style="white-space: pre;" direction="ltr">00:00</text></g><g transform="translate(10 561) rotate(0 55.951942443847656 8.125)"><text x="0" y="NaN" font-family="Virgil, Segoe UI Emoji" font-size="13px" fill="#8b949e" text-anchor="start" style="white-space: pre;" direction="ltr">start of window 1</text></g><g stroke-linecap="round"><g transform="translate(700 519) rotate(0 0 6)"><path d="M0.63 -0.85 C0.76 0.85, 0.39 8.99, 0.13 11.09 M-0.5 1.32 C-0.46 3.06, -1.09 10.21, -0.75 12.15" stroke="#8b949e" stroke-width="2" fill="none"></path></g></g><g transform="translate(668 539) rotate(0 20.615989685058594 10)"><text x="0" y="NaN" font-family="Virgil, Segoe UI Emoji" font-size="16px" fill="#e6edf3" text-anchor="start" style="white-space: pre;" direction="ltr">00:01</text></g><g transform="translate(610 561) rotate(0 81.23042297363281 8.125)"><text x="0" y="NaN" font-family="Virgil, Segoe UI Emoji" font-size="13px" fill="#8b949e" text-anchor="start" style="white-space: pre;" direction="ltr">boundary / counter reset</text></g><g stroke-linecap="round"><g transform="translate(1300 519) rotate(0 0 6)"><path d="M-0.46 0.87 C-0.63 2.64, -1.28 9.25, -1.06 11.25 M1.5 0.28 C1.69 2.13, 1.25 10.61, 1.09 12.4" stroke="#8b949e" stroke-width="2" fill="none"></path></g></g><g transform="translate(1268 539) rotate(0 24.14398956298828 10)"><text x="0" y="NaN" font-family="Virgil, Segoe UI Emoji" font-size="16px" fill="#e6edf3" text-anchor="start" style="white-space: pre;" direction="ltr">00:02</text></g><g transform="translate(1210 561) rotate(0 51.10295867919922 8.125)"><text x="0" y="NaN" font-family="Virgil, Segoe UI Emoji" font-size="13px" fill="#8b949e" text-anchor="start" style="white-space: pre;" direction="ltr">end of window 2</text></g><g stroke-opacity="0.4" fill-opacity="0.4" stroke-linecap="round" transform="translate(100 365) rotate(0 300 80)"><path d="M0.64 -0.05 L601.87 -1.39 L598.43 158.29 L-1.73 159.31" stroke="none" stroke-width="0" fill="#21262d"></path><path d="M0.22 -0.39 C124.22 -2.39, 247 -1.52, 599.66 -0.04 M598.41 -0.69 C598.24 35.76, 600.5 70.61, 600.2 160.26 M600.56 159.55 C463.7 158.17, 329.53 159.34, 0.35 160.52 M-1.37 160.94 C-2.77 98.72, -1.84 37.22, -1.35 -0.41" stroke="#8b949e" stroke-width="2.5" fill="none" stroke-dasharray="8 10"></path></g><g transform="translate(320 325) rotate(0 56.471961975097656 10)"><text x="0" y="NaN" font-family="Virgil, Segoe UI Emoji" font-size="16px" fill="#8b949e" text-anchor="start" style="white-space: pre;" direction="ltr">Window 1 (60s)</text></g><g stroke-linecap="round" transform="translate(540 291) rotate(0 30 115)"><path d="M0.53 0.07 L61.47 -1.75 L60.83 228.68 L0.2 228.57" stroke="none" stroke-width="0" fill="#4a1219"></path><path d="M1.73 1.24 C19.96 0.85, 41.14 0.54, 58.65 1.44 M0.02 -0.23 C15.63 0.84, 29.72 0.27, 60.21 -0.1 M60.88 -1.62 C59.88 70.92, 61.17 143.72, 60.23 229.14 M60.65 -0.63 C58.16 58.04, 58.3 115.85, 60.16 230.64 M61 230.9 C41.05 231.43, 22.13 230.08, -0.02 228.51 M59.76 229.1 C48.4 231.34, 35.12 229.58, -0.79 230.13 M0.83 229.96 C-0.07 139.04, 0.09 46.17, -1.53 0.39 M-0.52 230.27 C-0.45 183.85, -0.34 136.8, 0.84 0.07" stroke="#f85149" stroke-width="2" fill="none"></path></g><g transform="translate(510 263) rotate(0 28.454971313476562 9.375)"><text x="0" y="NaN" font-family="Virgil, Segoe UI Emoji" font-size="15px" fill="#f85149" text-anchor="start" style="white-space: pre;" direction="ltr">100/100</text></g><g transform="translate(500 241) rotate(0 40.267478942871094 8.125)"><text x="0" y="NaN" font-family="Virgil, Segoe UI Emoji" font-size="13px" fill="#8b949e" text-anchor="start" style="white-space: pre;" direction="ltr">at 00:00:59</text></g><g stroke-opacity="0.4" fill-opacity="0.4" stroke-linecap="round" transform="translate(700 365) rotate(0 300 80)"><path d="M-0.95 -1.22 L601.67 0.75 L599.76 159.89 L-0.23 160.59" stroke="none" stroke-width="0" fill="#21262d"></path><path d="M-0.73 -0.27 C161.11 -1.47, 322.08 -0.3, 600.4 -0.2 M601.8 1.3 C603.2 41.63, 602.41 86.92, 601.33 161.81 M599.3 159.76 C398.45 159.46, 195.74 158.49, 0.45 160.7 M0.93 160.05 C0.13 107.21, -1.51 49.45, -1.35 1.65" stroke="#8b949e" stroke-width="2.5" fill="none" stroke-dasharray="8 10"></path></g><g transform="translate(920 325) rotate(0 59.999961853027344 10)"><text x="0" y="NaN" font-family="Virgil, Segoe UI Emoji" font-size="16px" fill="#8b949e" text-anchor="start" style="white-space: pre;" direction="ltr">Window 2 (60s)</text></g><g stroke-linecap="round" transform="translate(820 291) rotate(0 30 115)"><path d="M-1.82 -1.43 L61.65 0.04 L59.72 229.29 L-1.32 230.66" stroke="none" stroke-width="0" fill="#4a1219"></path><path d="M-1.32 1.45 C18.88 0.25, 39.73 -1.33, 61.67 1.74 M0.98 -0.05 C17.33 -0.65, 34.77 0.28, 59.14 0.63 M61.45 0.96 C60.11 67.51, 59.69 136.39, 61.22 230.95 M59.91 0.73 C61 86.08, 61.4 172.43, 59.6 229.63 M59.03 228.22 C45.25 229.54, 33.08 230.59, -1.47 229.38 M60.04 230.97 C41.43 231.08, 21.97 230.67, -1 229.58 M-1.57 229.87 C-2.35 139.52, -1.61 51.26, -1.61 0.49 M-0.41 229.57 C-1.1 167.43, -1.89 105.33, -0.47 0.26" stroke="#f85149" stroke-width="2" fill="none"></path></g><g transform="translate(790 263) rotate(0 28.454971313476562 9.375)"><text x="0" y="NaN" font-family="Virgil, Segoe UI Emoji" font-size="15px" fill="#f85149" text-anchor="start" style="white-space: pre;" direction="ltr">100/100</text></g><g transform="translate(780 241) rotate(0 38.525482177734375 8.125)"><text x="0" y="NaN" font-family="Virgil, Segoe UI Emoji" font-size="13px" fill="#8b949e" text-anchor="start" style="white-space: pre;" direction="ltr">at 00:01:00</text></g><g stroke-linecap="round"><g transform="translate(540 201) rotate(0 170 0)"><path d="M0.84 -0.93 C57.58 -0.96, 284.16 0.11, 340.74 0.21 M-0.17 1.2 C56.45 0.74, 283.52 -1.74, 340.19 -1.8" stroke="#f85149" stroke-width="3" fill="none"></path></g></g><g stroke-linecap="round"><g transform="translate(540 201) rotate(0 0 7)"><path d="M0.41 -0.97 C0.63 1.26, 0.41 10.77, 0.45 13.11 M-0.83 1.13 C-0.66 3.51, -0.44 12.05, -0.26 14.19" stroke="#f85149" stroke-width="3" fill="none"></path></g></g><g stroke-linecap="round"><g transform="translate(880 201) rotate(0 0 7)"><path d="M0.59 0.41 C0.39 3.08, -0.54 12.52, -0.81 14.87 M-0.56 -0.42 C-0.41 2.02, 1.16 11.07, 1.47 13.21" stroke="#f85149" stroke-width="3" fill="none"></path></g></g><g transform="translate(593.0910339355469 123) rotate(0 116.90896606445312 21.25)"><text x="116.90896606445312" y="NaN" font-family="Virgil, Segoe UI Emoji" font-size="34px" fill="#f85149" text-anchor="middle" style="white-space: pre;" direction="ltr">200 requests</text></g><g transform="translate(642.6470413208008 163) rotate(0 67.35295867919922 13.75)"><text x="67.35295867919922" y="NaN" font-family="Virgil, Segoe UI Emoji" font-size="22px" fill="#f85149" text-anchor="middle" style="white-space: pre;" direction="ltr">in 2 seconds</text></g><g stroke-linecap="round"><g transform="translate(710 193) rotate(0 0 3)"><path d="M-0.02 -0.06 C-0.04 0.68, -0.98 4.43, -1.09 5.51 M-1.5 -1.13 C-1.07 0.28, 0.49 5.89, 1.04 6.79" stroke="#f85149" stroke-width="3" fill="none"></path></g><g transform="translate(710 193) rotate(0 0 3)"><path d="M-0.94 4.25 C-0.6 4.84, 0.04 5.41, 1.32 6.62 M-0.9 4.49 C-0.53 5.16, -0.12 5.54, 0.91 6.84" stroke="#f85149" stroke-width="3" fill="none"></path></g><g transform="translate(710 193) rotate(0 0 3)"><path d="M0.97 3.51 C0.9 4.26, 1.14 4.99, 1.32 6.62 M1.01 3.75 C0.93 4.6, 0.88 5.16, 0.91 6.84" stroke="#f85149" stroke-width="3" fill="none"></path></g></g><g transform="translate(40 603) rotate(0 388.94378662109375 10)"><text x="0" y="NaN" font-family="Virgil, Segoe UI Emoji" font-size="16px" fill="#f0b070" text-anchor="start" style="white-space: pre;" direction="ltr">Configured limit: 100 requests / minute.   Observed peak: 200 / 2 sec  (12,000 / min equivalent).</text></g></svg>