<svg version="1.1" xmlns="http://www.w3.org/2000/svg" viewBox="0 0 1778.0182635687454 465.38266255647454" width="1778.0182635687454" height="465.38266255647454">
  <!-- svg-source:excalidraw -->
  
  <defs>
    <style>
      @font-face {
        font-family: "Virgil";
        src: url("https://excalidraw.com/Virgil.woff2");
      }
      @font-face {
        font-family: "Cascadia";
        src: url("https://excalidraw.com/Cascadia.woff2");
      }
    </style>
  </defs>
  <rect x="0" y="0" width="1778.0182635687454" height="465.38266255647454" fill="#1e1e2e"></rect><g stroke-linecap="round" transform="translate(10 284.10640090310835) rotate(0 95 48)"><path d="M-1.24 -0.41 L189.43 1.18 L190.06 95.46 L-1.15 97.59" stroke="none" stroke-width="0" fill="#2d6a4f"></path><path d="M1.34 0.36 C40.81 -0.81, 83.55 -0.62, 191.65 -0.7 M0.09 -0.28 C59.73 2.73, 119.45 1.19, 189.6 -0.97 M188.5 1.52 C191.89 27.67, 189.49 57.61, 191.14 94.23 M190.2 0.91 C190.06 30.43, 191.3 61.79, 189.54 96.74 M190.47 97.17 C118.89 94.89, 51.27 94.07, -0.99 95.89 M189.58 96.35 C127.39 97.37, 64.31 96.16, 0.49 95.59 M1.98 96.72 C0.83 68.79, -1.57 44.79, -1.84 1.65 M0.92 95.88 C-0.88 69.72, -0.13 41.03, -0.83 -0.94" stroke="#40916c" stroke-width="2" fill="none"></path></g><g transform="translate(29.520050048828125 317.10640090310835) rotate(0 75.47994995117188 15)"><text x="75.47994995117188" y="NaN" font-family="Virgil, Segoe UI Emoji" font-size="24px" fill="#ffffff" text-anchor="middle" style="white-space: pre;" direction="ltr">Requirements</text></g><g stroke-linecap="round" transform="translate(250 284.10640090310835) rotate(0 95 48)"><path d="M1.99 0.69 L189.92 -1.42 L190.75 96.93 L-1.47 97.84" stroke="none" stroke-width="0" fill="#b45309"></path><path d="M-0.95 -1.71 C40.17 0.74, 82.43 -0.86, 190.07 0.09 M191.59 0.49 C191.06 35.26, 189.64 68.18, 190.88 97.07 M191.57 94.02 C126.28 97.66, 62.23 97.37, -0.08 96.49 M1.59 94.62 C0.24 69.89, -1.18 44.62, 0.71 -1.12" stroke="#d97706" stroke-width="2.5" fill="none" stroke-dasharray="8 10"></path></g><g transform="translate(294.28802490234375 317.10640090310835) rotate(0 50.71197509765625 15)"><text x="50.71197509765625" y="NaN" font-family="Virgil, Segoe UI Emoji" font-size="24px" fill="#ffffff" text-anchor="middle" style="white-space: pre;" direction="ltr">Capacity</text></g><g stroke-linecap="round" transform="translate(1035.5274286504743 284.8687314025748) rotate(0 95 51.18608489295298)"><path d="M-1.5 -0.19 L189.62 -1.84 L188.4 104.05 L-0.99 100.61" stroke="none" stroke-width="0" fill="#b45309"></path><path d="M-0.13 1.08 C46.08 0.41, 94.57 0.34, 188.81 -1.2 M189.16 0.31 C188.74 23.47, 189.96 50.46, 191.48 101.55 M189.77 104.15 C144.21 101.99, 96.23 101.9, 1.72 103.64 M-1.54 102.87 C-1.37 71.41, 0.94 40.39, -1.71 -0.43" stroke="#d97706" stroke-width="2.5" fill="none" stroke-dasharray="8 10"></path></g><g transform="translate(1068.3794565435408 321.05481629552776) rotate(0 62.147972106933594 15)"><text x="62.147972106933594" y="NaN" font-family="Virgil, Segoe UI Emoji" font-size="24px" fill="#ffffff" text-anchor="middle" style="white-space: pre;" direction="ltr">Data Flow</text></g><g stroke-linecap="round" transform="translate(490 284.10640090310835) rotate(0 95 48)"><path d="M0.36 1.28 L189.62 0.42 L191.07 96.4 L-1.44 95.72" stroke="none" stroke-width="0" fill="#5b21b6"></path><path d="M0.77 0.21 C39.53 -1.7, 81.31 -1.09, 188.48 0.87 M-0.5 0.78 C75.71 -1.3, 152.25 -1.12, 189.28 0.04 M190.65 -1.48 C192.43 35.31, 192.8 68.49, 188.71 94.76 M189.39 -0.29 C190.32 38.05, 189.65 76.02, 189.17 96.15 M190.68 96.32 C145.11 94.03, 100.71 95.04, -1.65 94.27 M189.8 95.78 C145.34 97.3, 102.11 97, 0.25 95.75 M-0.9 95.6 C-1.08 75.74, 1.6 55.64, 0.53 0.82 M-0.21 95.88 C-0.42 63.82, 0.35 30.85, 0.93 -0.99" stroke="#7c3aed" stroke-width="2" fill="none"></path></g><g transform="translate(539.4120178222656 317.10640090310835) rotate(0 45.587982177734375 15)"><text x="45.587982177734375" y="NaN" font-family="Virgil, Segoe UI Emoji" font-size="24px" fill="#ffffff" text-anchor="middle" style="white-space: pre;" direction="ltr">Entities</text></g><g stroke-linecap="round" transform="translate(730 284.10640090310835) rotate(0 95 48)"><path d="M1.16 0.12 L191.71 0.04 L191.58 96.87 L0.41 94.79" stroke="none" stroke-width="0" fill="#1e40af"></path><path d="M-1.52 -1.86 C42.89 -0.14, 84.2 -1.32, 190.89 1.66 M0.2 -0.69 C46.71 0.49, 92.65 1.53, 190.12 -0.46 M189.72 -0.98 C189.74 17.93, 191.49 37.52, 191.49 97.02 M189.99 0.11 C191.4 32.26, 190.79 63.94, 189.98 96.85 M188.79 95.89 C141.21 97.61, 89.43 97.53, -1.97 97.47 M189.92 95.49 C116.32 94.46, 44.01 93.62, 0.13 95.84 M1.66 95.03 C0.05 60.02, -0.74 22.67, 1.71 -1.59 M0.23 95.87 C0.77 69.47, 0.55 44.97, -0.19 0.99" stroke="#3b82f6" stroke-width="2" fill="none"></path></g><g transform="translate(796.1400146484375 317.10640090310835) rotate(0 28.8599853515625 15)"><text x="28.8599853515625" y="NaN" font-family="Virgil, Segoe UI Emoji" font-size="24px" fill="#ffffff" text-anchor="middle" style="white-space: pre;" direction="ltr">APIs</text></g><g stroke-linecap="round" transform="translate(1321.498989695532 284.08071692859335) rotate(0 95 48)"><path d="M1.95 -1.04 L189.8 -0.33 L188.09 97.33 L-1.74 97.85" stroke="none" stroke-width="0" fill="#5b21b6"></path><path d="M0.2 0.07 C42.26 1.21, 83.08 2.25, 189.3 -1.56 M0.91 -0.17 C53.7 -1.53, 109.05 -1.62, 190.96 -0.95 M188.79 -0.48 C191.05 23.75, 190.18 44.96, 190.27 95.28 M190.58 0.51 C188.57 26.48, 190 51.86, 190.8 95.55 M190.89 95.46 C133.32 97.18, 78.15 96.02, 1.7 96.66 M190.03 95.2 C125.3 95.42, 61.9 94.03, 0.01 95.92 M0.22 94.47 C-0.9 59.49, -1.16 24.09, -1.11 0 M0.66 95.87 C0.03 57.92, -1.17 20.68, 0.69 0.96" stroke="#7c3aed" stroke-width="2" fill="none"></path></g><g transform="translate(1364.671024912817 302.08071692859335) rotate(0 51.827964782714844 30)"><text x="51.827964782714844" y="NaN" font-family="Virgil, Segoe UI Emoji" font-size="24px" fill="#ffffff" text-anchor="middle" style="white-space: pre;" direction="ltr">High-level</text><text x="51.827964782714844" y="NaN" font-family="Virgil, Segoe UI Emoji" font-size="24px" fill="#ffffff" text-anchor="middle" style="white-space: pre;" direction="ltr">Design</text></g><g stroke-linecap="round" transform="translate(1573.5224139593704 284.08071692859335) rotate(0 95 48)"><path d="M-1.25 1.81 L191.89 -0.71 L188.6 97.8 L0.11 96.92" stroke="none" stroke-width="0" fill="#9f1239"></path><path d="M1.91 2 C41.62 -1.23, 81.96 2.02, 191.72 -0.77 M-0.39 0.36 C62.69 0.26, 125.45 1.02, 189.8 0.56 M191.87 0.02 C190.28 25.58, 190.8 52.4, 189.05 97.54 M189.18 0.91 C189.66 20.69, 189.14 39.78, 189.61 96.26 M189 95.04 C129.42 96.75, 66.88 94.5, 1.37 95.85 M190.14 96.92 C134.27 94.38, 79.8 94.45, -0.12 96.01 M-1.23 97.91 C2.15 62.97, -1.57 29.52, 0.08 1.59 M-0.9 95.87 C-0.78 65.57, -0.97 34.79, -0.43 0.94" stroke="#e11d48" stroke-width="2" fill="none"></path></g><g transform="translate(1602.7744586371048 317.08071692859335) rotate(0 65.74795532226562 15)"><text x="65.74795532226562" y="NaN" font-family="Virgil, Segoe UI Emoji" font-size="24px" fill="#ffffff" text-anchor="middle" style="white-space: pre;" direction="ltr">Deep Dives</text></g><g stroke-linecap="round"><g transform="translate(206 332.11600090310833) rotate(0 19 0)"><path d="M0.97 0.21 C7.44 0.07, 31.96 -0.34, 38.16 -0.39 M0.02 -0.72 C6.4 -0.73, 31.05 0.63, 37.3 0.94" stroke="#3b82f6" stroke-width="2" fill="none"></path></g><g transform="translate(206 332.11600090310833) rotate(0 19 0)"><path d="M19.47 6.76 C22.94 5.3, 27.83 4.26, 38.59 0.59 M19.1 5.76 C24.37 4.29, 28.86 2.99, 37.27 0.18" stroke="#3b82f6" stroke-width="2" fill="none"></path></g><g transform="translate(206 332.11600090310833) rotate(0 19 0)"><path d="M20.14 -6.22 C23.5 -4.49, 28.22 -2.35, 38.59 0.59 M19.77 -7.22 C24.93 -5.32, 29.25 -3.23, 37.27 0.18" stroke="#3b82f6" stroke-width="2" fill="none"></path></g></g><g stroke-linecap="round"><g transform="translate(446 332.11600090310833) rotate(0 19 0)"><path d="M0.01 -0.48 C6.38 -0.48, 31.26 0.41, 37.54 0.62 M-1.44 -1.77 C4.78 -2.18, 29.98 -1.28, 36.35 -1.18" stroke="#3b82f6" stroke-width="2" fill="none"></path></g><g transform="translate(446 332.11600090310833) rotate(0 19 0)"><path d="M17.59 4.14 C23.69 2.89, 28.31 2.79, 34.98 -3.06 M18.64 5.32 C23.46 3.86, 27.96 1.76, 36.72 -0.28" stroke="#3b82f6" stroke-width="2" fill="none"></path></g><g transform="translate(446 332.11600090310833) rotate(0 19 0)"><path d="M17.91 -8.86 C24.01 -6.92, 28.55 -3.84, 34.98 -3.06 M18.97 -7.67 C23.6 -5.47, 28.01 -3.91, 36.72 -0.28" stroke="#3b82f6" stroke-width="2" fill="none"></path></g></g><g stroke-linecap="round"><g transform="translate(686 332.11600090310833) rotate(0 19 0)"><path d="M-0.95 -1.16 C5.32 -1.43, 30.56 -0.84, 36.92 -0.78 M0.76 0.84 C7.44 0.63, 32.58 0.48, 39.06 0.35" stroke="#3b82f6" stroke-width="2" fill="none"></path></g><g transform="translate(686 332.11600090310833) rotate(0 19 0)"><path d="M19.45 5.36 C24.37 4.28, 28.7 5.06, 38.84 0.75 M21.92 6.83 C26.14 5.65, 32.52 2.69, 39.83 1.03" stroke="#3b82f6" stroke-width="2" fill="none"></path></g><g transform="translate(686 332.11600090310833) rotate(0 19 0)"><path d="M19.29 -7.64 C24.34 -5.53, 28.71 -1.56, 38.84 0.75 M21.77 -6.17 C26.03 -3.4, 32.46 -2.43, 39.83 1.03" stroke="#3b82f6" stroke-width="2" fill="none"></path></g></g><g stroke-linecap="round"><g transform="translate(926 334.0103634429178) rotate(0 51.763714325237174 0.9710662534450023)"><path d="M0.5 0.55 C17.98 0.74, 86.87 1.93, 104.22 2.17 M-0.7 -0.2 C16.74 0.12, 86.12 -0.42, 103.64 0.17" stroke="#3b82f6" stroke-width="2" fill="none"></path></g><g transform="translate(926 334.0103634429178) rotate(0 51.763714325237174 0.9710662534450023)"><path d="M76.27 11.3 C82.58 9.39, 89.25 6.61, 104.62 -1.02 M74.36 9.15 C85.32 7.54, 93.2 4.75, 102.87 0.64" stroke="#3b82f6" stroke-width="2" fill="none"></path></g><g transform="translate(926 334.0103634429178) rotate(0 51.763714325237174 0.9710662534450023)"><path d="M76.48 -9.22 C82.92 -6.1, 89.54 -3.85, 104.62 -1.02 M74.58 -11.37 C85.64 -6.32, 93.44 -2.45, 102.87 0.64" stroke="#3b82f6" stroke-width="2" fill="none"></path></g></g><g stroke-linecap="round"><g transform="translate(1517.498989695532 332.0903169285933) rotate(0 25.01171213191924 0)"><path d="M-0.46 -0.13 C8 -0.14, 41.59 -1.34, 50.1 -1.16 M1.5 -1.25 C9.87 -1.05, 41.08 -0.29, 49.19 -0.23" stroke="#3b82f6" stroke-width="2" fill="none"></path></g><g transform="translate(1517.498989695532 332.0903169285933) rotate(0 25.01171213191924 0)"><path d="M25.33 8.05 C29.48 6.99, 38.77 5.77, 47.37 0.97 M24.92 8.21 C34.07 5.19, 42.59 2.24, 48.84 -0.02" stroke="#3b82f6" stroke-width="2" fill="none"></path></g><g transform="translate(1517.498989695532 332.0903169285933) rotate(0 25.01171213191924 0)"><path d="M25.61 -9.05 C29.54 -5.92, 38.76 -2.96, 47.37 0.97 M25.2 -8.9 C34.19 -6, 42.61 -3.02, 48.84 -0.02" stroke="#3b82f6" stroke-width="2" fill="none"></path></g></g><g transform="translate(40 424.10640090310835) rotate(0 102.17994689941406 15)"><text x="0" y="NaN" font-family="Virgil, Segoe UI Emoji" font-size="24px" fill="#40916c" text-anchor="start" style="white-space: pre;" direction="ltr">Correctness first</text></g><g transform="translate(561.2308734000183 425.38266255647454) rotate(0 167.80789184570312 15)"><text x="0" y="NaN" font-family="Virgil, Segoe UI Emoji" font-size="24px" fill="#d97706" text-anchor="start" style="white-space: pre;" direction="ltr">Interfaces define the shape</text></g><g transform="translate(1423.5224139593704 424.08071692859335) rotate(0 172.2479248046875 15)"><text x="0" y="NaN" font-family="Virgil, Segoe UI Emoji" font-size="24px" fill="#e11d48" text-anchor="start" style="white-space: pre;" direction="ltr">Scale and failure modes last</text></g><g stroke-linecap="round"><g transform="translate(1231.5274286504746 335.8165588621767) rotate(0 41.98578052252856 -1.738873641626867)"><path d="M-0.18 -0.86 C14.03 -1.46, 70.51 -4.04, 84.42 -4.35 M-1.73 1.31 C12.42 0.89, 69.73 -2.28, 83.71 -3.27" stroke="#2f9e44" stroke-width="2" fill="none"></path></g><g transform="translate(1231.5274286504746 335.8165588621767) rotate(0 41.98578052252856 -1.738873641626867)"><path d="M54.78 9.45 C61.27 4.83, 70.46 3.55, 85.11 -1.37 M55.56 8.91 C66.35 3.88, 77.34 0.14, 84.51 -3.38" stroke="#2f9e44" stroke-width="2" fill="none"></path></g><g transform="translate(1231.5274286504746 335.8165588621767) rotate(0 41.98578052252856 -1.738873641626867)"><path d="M53.52 -11.03 C60.18 -10.85, 69.67 -7.33, 85.11 -1.37 M54.3 -11.57 C65.68 -9.05, 77.14 -5.22, 84.51 -3.38" stroke="#2f9e44" stroke-width="2" fill="none"></path></g></g><g stroke-linecap="round"><g transform="translate(1378.3348068433309 278.08071692859335) rotate(0 -622.1311348042009 -53.40703723788445)"><path d="M0.95 -0.61 C-120.19 -18.12, -519.66 -105.79, -727.14 -105.66 C-934.63 -105.53, -1157.66 -17.62, -1243.96 0.16 M-0.01 1.69 C-121.31 -16.08, -520.85 -107.14, -728.27 -107.16 C-935.7 -107.19, -1158.44 -16.15, -1244.56 1.54" stroke="#7c3aed" stroke-width="2" fill="none"></path></g><g transform="translate(1378.3348068433309 278.08071692859335) rotate(0 -622.1311348042009 -53.40703723788445)"><path d="M-1221.26 -16.6 C-1225.03 -10.5, -1233.45 -7.29, -1242.92 -0.19 M-1220.85 -16.98 C-1227.81 -11.3, -1233.49 -5.89, -1245.35 1.93" stroke="#7c3aed" stroke-width="2" fill="none"></path></g><g transform="translate(1378.3348068433309 278.08071692859335) rotate(0 -622.1311348042009 -53.40703723788445)"><path d="M-1215.66 3.14 C-1220.87 3.87, -1230.83 1.67, -1242.92 -0.19 M-1215.25 2.76 C-1223.92 2.78, -1231.22 2.48, -1245.35 1.93" stroke="#7c3aed" stroke-width="2" fill="none"></path></g></g><g stroke-linecap="round"><g transform="translate(1642.0620304168385 278.08071692859335) rotate(0 -788.0843662338679 -110.46141415388047)"><path d="M-0.2 1.05 C-167.34 -36.73, -739.89 -227.59, -1002.75 -226.79 C-1265.61 -225.99, -1481.92 -32.99, -1577.36 5.83 M-1.76 0.55 C-168.54 -37.6, -738.34 -229.89, -1000.56 -228.81 C-1262.79 -227.73, -1479.39 -32.33, -1575.09 7.02" stroke="#e03131" stroke-width="2" fill="none"></path></g><g transform="translate(1642.0620304168385 278.08071692859335) rotate(0 -788.0843662338679 -110.46141415388047)"><path d="M-1554.17 -17.7 C-1561.52 -10.96, -1568.16 -0.64, -1574.97 7.33 M-1555.57 -16.5 C-1560.01 -10.37, -1565.39 -4.47, -1575.19 7.44" stroke="#e03131" stroke-width="2" fill="none"></path></g><g transform="translate(1642.0620304168385 278.08071692859335) rotate(0 -788.0843662338679 -110.46141415388047)"><path d="M-1543.83 0.03 C-1554.34 1.29, -1564.17 6.15, -1574.97 7.33 M-1545.23 1.23 C-1552.25 2.97, -1560.16 4.53, -1575.19 7.44" stroke="#e03131" stroke-width="2" fill="none"></path></g></g><g transform="translate(447.62522887165665 10) rotate(0 250.40982055664062 12.5)"><text x="0" y="NaN" font-family="Segoe UI Emoji" font-size="20px" fill="#e03131" text-anchor="start" style="white-space: pre;" direction="ltr">Primary Goal : Satisfy Non Functional Requirements</text></g><g transform="translate(411.9831763624238 129.11170013368303) rotate(0 228.829833984375 12.5)"><text x="0" y="NaN" font-family="Segoe UI Emoji" font-size="20px" fill="#7c3aed" text-anchor="start" style="white-space: pre;" direction="ltr">Primary Goal : Satisfy Functional Requirements</text></g></svg>