<svg version="1.1" xmlns="http://www.w3.org/2000/svg" viewBox="0 0 1470 645" width="1470" height="645">
  <!-- svg-source:excalidraw -->
  
  <defs>
    <style>
      @font-face {
        font-family: "Virgil";
        src: url("https://excalidraw.com/Virgil.woff2");
      }
      @font-face {
        font-family: "Cascadia";
        src: url("https://excalidraw.com/Cascadia.woff2");
      }
    </style>
  </defs>
  <rect x="0" y="0" width="1470" height="645" fill="#0d1117"></rect><g transform="translate(10 10) rotate(0 356.5508728027344 16.25)"><text x="0" y="NaN" font-family="Virgil, Segoe UI Emoji" font-size="26px" fill="#ff8c42" text-anchor="start" style="white-space: pre;" direction="ltr">Centralized Redis Counter: every Request pays +1 RTT</text></g><g transform="translate(10 47) rotate(0 482.1452331542969 21.25)"><text x="0" y="NaN" font-family="Virgil, Segoe UI Emoji" font-size="17px" fill="#c9d1d9" text-anchor="start" style="white-space: pre;" direction="ltr">Every gateway calls INCR on the same Redis key before serving the request.</text><text x="0" y="NaN" font-family="Virgil, Segoe UI Emoji" font-size="17px" fill="#c9d1d9" text-anchor="start" style="white-space: pre;" direction="ltr">Counts are exact globally; the cost is +1 RTT on every request, and Redis becomes a SPOF + scaling bottleneck.</text></g><g stroke-linecap="round" transform="translate(30 185) rotate(0 75 35)"><path d="M-0.95 -1.56 L150.23 -0.65 L151.56 71.31 L-1.04 71.39" stroke="none" stroke-width="0" fill="#1f4d2b"></path><path d="M-1.92 0.54 C59.01 -0.43, 121.63 -0.74, 148.64 2 M-0.85 0.89 C32.33 -1.21, 63.85 -0.92, 150.18 -0.33 M151.34 1.29 C150.31 20.21, 150.82 42.48, 151.74 71.01 M150.39 -0.41 C150.28 21.01, 150.09 42.87, 149.68 69.42 M148.78 68.09 C101.77 70.44, 55.82 71.7, 0.61 69.02 M149.41 70.48 C115.4 69.36, 82.62 71.21, -0.83 70.43 M1.57 68.52 C0.45 52.75, 0.68 34.59, 1.5 -1.86 M-0.34 70.7 C1.03 49.01, 1.07 27.85, 0.1 -0.71" stroke="#3fb950" stroke-width="2" fill="none"></path></g><g transform="translate(75.2450180053711 206.25) rotate(0 29.754981994628906 13.75)"><text x="29.754981994628906" y="NaN" font-family="Virgil, Segoe UI Emoji" font-size="22px" fill="#ffffff" text-anchor="middle" style="white-space: pre;" direction="ltr">Client</text></g><g stroke-linecap="round" transform="translate(30 315) rotate(0 75 35)"><path d="M0.33 -0.03 L151.22 0.21 L150.91 71.24 L-1.34 69.53" stroke="none" stroke-width="0" fill="#5c3a10"></path><path d="M-0.21 -1.58 C56.6 1.54, 110.51 2.68, 149.91 -1.96 M0.36 -0.69 C33.1 1.96, 66 2.19, 150.42 -0.49 M150.27 -0.13 C149.31 14.98, 150.17 29.93, 149.5 68.55 M150.19 -0.28 C151.04 20.34, 149.73 41.05, 150.15 70.09 M150.74 69.61 C94.7 70.88, 43.82 71.91, -1.95 69.45 M149.87 70.02 C109.71 70.53, 67.65 70.32, 0.76 69.72 M1.97 69.96 C1.97 50.23, 0.57 29.97, 0.7 0.09 M0.83 69.53 C-0.39 54.31, 0.43 37.12, 0.47 -0.03" stroke="#f0883e" stroke-width="2" fill="none"></path></g><g transform="translate(66.57002258300781 327.5) rotate(0 38.42997741699219 22.5)"><text x="38.42997741699219" y="NaN" font-family="Virgil, Segoe UI Emoji" font-size="18px" fill="#ffffff" text-anchor="middle" style="white-space: pre;" direction="ltr">Load</text><text x="38.42997741699219" y="NaN" font-family="Virgil, Segoe UI Emoji" font-size="18px" fill="#ffffff" text-anchor="middle" style="white-space: pre;" direction="ltr">Balancer</text></g><g stroke-linecap="round"><g transform="translate(105 257) rotate(0 0 28)"><path d="M0.63 -0.85 C0.76 8.18, 0.39 45.65, 0.13 55.09 M-0.5 1.32 C-0.46 10.39, -1.09 46.88, -0.75 56.15" stroke="#58a6ff" stroke-width="2" fill="none"></path></g><g transform="translate(105 257) rotate(0 0 28)"><path d="M-11.91 30.11 C-9.41 34.82, -5.89 41.39, -1.43 55.15 M-10.83 29.63 C-6.65 39.93, -3.08 51.32, -0.15 55.7" stroke="#58a6ff" stroke-width="2" fill="none"></path></g><g transform="translate(105 257) rotate(0 0 28)"><path d="M7.25 29.99 C5.02 34.83, 3.8 41.43, -1.43 55.15 M8.32 29.52 C4.93 39.87, 0.94 51.32, -0.15 55.7" stroke="#58a6ff" stroke-width="2" fill="none"></path></g></g><g stroke-linecap="round" transform="translate(290 105) rotate(0 100 35)"><path d="M-1.36 -1.41 L200.38 -0.38 L201.98 71.22 L-1.13 69.98" stroke="none" stroke-width="0" fill="#3a1d6e"></path><path d="M-1.31 -0.26 C72.04 1.27, 144.72 -1.28, 201.14 1.78 M0.45 -0.39 C60.57 1.77, 120.43 1.19, 200.89 -0.27 M198.98 1.66 C202.34 16.06, 200.23 27.37, 198.54 71.97 M200.54 0.31 C201.18 16.52, 200.3 32.71, 200.85 70.81 M198.98 69.66 C158.55 72.37, 114.82 70.2, -1.41 69.88 M199.52 70.03 C151.9 69.15, 103.77 68.47, 0.27 69.23 M0.52 69 C-1.49 46.37, 0 23.02, 1.85 -1.62 M0.37 70.2 C-0.57 50.19, 0.88 31.65, -0.98 -0.13" stroke="#a371f7" stroke-width="2" fill="none"></path></g><g transform="translate(334.0760269165039 126.25) rotate(0 55.923973083496094 13.75)"><text x="55.923973083496094" y="NaN" font-family="Virgil, Segoe UI Emoji" font-size="22px" fill="#ffffff" text-anchor="middle" style="white-space: pre;" direction="ltr">Gateway 1</text></g><g stroke-linecap="round"><g transform="translate(180 350) rotate(0 54 -105)"><path d="M-0.46 0.87 C17.37 -34.36, 88.72 -175.75, 106.94 -210.75 M1.5 0.28 C19.69 -34.87, 91.25 -174.39, 109.09 -209.6" stroke="#58a6ff" stroke-width="2" fill="none"></path></g><g transform="translate(180 350) rotate(0 54 -105)"><path d="M106.86 -181.6 C105.11 -187.25, 108.92 -198.74, 110.24 -207.94 M105.3 -179.88 C106.18 -187.36, 108.04 -193.33, 108.27 -210.17" stroke="#58a6ff" stroke-width="2" fill="none"></path></g><g transform="translate(180 350) rotate(0 54 -105)"><path d="M88.58 -190.93 C92.3 -193.74, 101.54 -202.46, 110.24 -207.94 M87.02 -189.21 C91.96 -194.73, 97.94 -198.6, 108.27 -210.17" stroke="#58a6ff" stroke-width="2" fill="none"></path></g></g><g stroke-linecap="round" transform="translate(290 245) rotate(0 100 35)"><path d="M-1.24 -0.42 L198.64 -0.05 L199.65 68.1 L-0.53 68.61" stroke="none" stroke-width="0" fill="#3a1d6e"></path><path d="M-0.04 -0.68 C76.95 -0.8, 153.44 0.09, 201.48 1.79 M-0.39 0.51 C75.44 -2.08, 150.47 -0.89, 200.85 0.78 M201.78 -1.24 C201.03 26.05, 202.64 50.38, 199.73 68.23 M200.92 0.16 C199.62 24.55, 199.89 50.36, 199.99 69.07 M200.08 68.2 C121.38 71.05, 45 68.9, -0.49 69.58 M200.4 69.61 C157.02 70.36, 115.29 70.1, 0.78 69.85 M-1.56 71.51 C1.6 54.07, 0.46 37.95, -0.35 1.37 M-0.19 69.44 C1.03 52.84, 0.36 37.32, -0.48 -0.36" stroke="#a371f7" stroke-width="2" fill="none"></path></g><g transform="translate(329.2250289916992 266.25) rotate(0 60.77497100830078 13.75)"><text x="60.77497100830078" y="NaN" font-family="Virgil, Segoe UI Emoji" font-size="22px" fill="#ffffff" text-anchor="middle" style="white-space: pre;" direction="ltr">Gateway 2</text></g><g stroke-linecap="round"><g transform="translate(180 350) rotate(0 54 -35)"><path d="M0.88 0.33 C18.97 -11.36, 89.71 -57.35, 107.41 -69.14 M-0.11 -0.55 C18.47 -12.65, 91.55 -59.34, 109.81 -70.82" stroke="#58a6ff" stroke-width="2" fill="none"></path></g><g transform="translate(180 350) rotate(0 54 -35)"><path d="M92.05 -48.03 C96.51 -53.66, 98.1 -56.36, 108.96 -70.93 M90.71 -47.39 C94.63 -51.94, 99.77 -57.27, 109.91 -70.68" stroke="#58a6ff" stroke-width="2" fill="none"></path></g><g transform="translate(180 350) rotate(0 54 -35)"><path d="M81.05 -65.36 C87.92 -67.49, 91.78 -66.63, 108.96 -70.93 M79.71 -64.72 C86.05 -65.47, 93.6 -67, 109.91 -70.68" stroke="#58a6ff" stroke-width="2" fill="none"></path></g></g><g stroke-linecap="round" transform="translate(290 385) rotate(0 100 35)"><path d="M-1.83 -0.98 L199.95 0.17 L201.14 70.48 L-1.95 71.6" stroke="none" stroke-width="0" fill="#3a1d6e"></path><path d="M0.05 1.04 C73 1.41, 145.29 -0.27, 198.72 -0.37 M-0.21 -0.57 C74.03 1.3, 150.29 1.55, 199.33 -0.71 M201.79 0.92 C199.12 21.96, 201.89 46.91, 199.05 68.32 M199.03 -0.5 C201.22 23.53, 201.27 47.07, 199.29 70.81 M198.78 70.45 C127.48 72, 58.23 71.08, 1.71 68.68 M200.18 70.23 C141.05 67.96, 82.17 69.27, -0.17 69.77 M-0.2 70.58 C2.19 49.5, 2 29.57, 0.8 -0.74 M-0.75 69.43 C-0.53 41.57, -0.53 15.49, 0.88 0.49" stroke="#a371f7" stroke-width="2" fill="none"></path></g><g transform="translate(329.56602478027344 406.25) rotate(0 60.43397521972656 13.75)"><text x="60.43397521972656" y="NaN" font-family="Virgil, Segoe UI Emoji" font-size="22px" fill="#ffffff" text-anchor="middle" style="white-space: pre;" direction="ltr">Gateway 3</text></g><g stroke-linecap="round"><g transform="translate(180 350) rotate(0 54 35)"><path d="M0.19 0.39 C17.96 12.1, 89.24 59.26, 107.05 70.9 M-1.18 -0.44 C16.93 10.88, 90.83 57.22, 109.27 69.26" stroke="#58a6ff" stroke-width="2" fill="none"></path></g><g transform="translate(180 350) rotate(0 54 35)"><path d="M80.64 61.17 C91.33 63.32, 100.11 65.89, 109.59 68.37 M79.39 62.58 C88.73 64.35, 96.32 66.86, 109.74 69.23" stroke="#58a6ff" stroke-width="2" fill="none"></path></g><g transform="translate(180 350) rotate(0 54 35)"><path d="M91.68 43.87 C98.77 51.83, 103.85 60.19, 109.59 68.37 M90.43 45.28 C96.77 51.96, 101.21 59.43, 109.74 69.23" stroke="#58a6ff" stroke-width="2" fill="none"></path></g></g><g stroke-opacity="0.25" fill-opacity="0.25" stroke-linecap="round" transform="translate(590 145) rotate(0 80 140)"><path d="M-1.46 -1.5 L160.62 1.62 L161.99 279.76 L-0.92 278.31" stroke="none" stroke-width="0" fill="#4a1219"></path><path d="M1.46 -1.99 C49.78 1.11, 99.25 -1.19, 161.22 0.24 M159.43 0.82 C160.77 76.5, 160.19 150.85, 161.39 279.35 M158.8 279.79 C108.26 280.44, 53.93 282.11, 0.74 281.63 M-0.67 280.47 C-1.39 206.7, -0.18 131.61, -0.29 -1.28" stroke="#f85149" stroke-width="2.5" fill="none" stroke-dasharray="8 10"></path></g><g transform="translate(611.7300338745117 81) rotate(0 58.26996612548828 12.5)"><text x="58.26996612548828" y="NaN" font-family="Virgil, Segoe UI Emoji" font-size="20px" fill="#f85149" text-anchor="middle" style="white-space: pre;" direction="ltr">+1 RTT toll</text></g><g transform="translate(620.8360290527344 109) rotate(0 49.163970947265625 15)"><text x="49.163970947265625" y="NaN" font-family="Virgil, Segoe UI Emoji" font-size="24px" fill="#f85149" text-anchor="middle" style="white-space: pre;" direction="ltr">~0.5 ms</text></g><g transform="translate(575.3600921630859 433) rotate(0 94.63990783691406 8.125)"><text x="94.63990783691406" y="NaN" font-family="Virgil, Segoe UI Emoji" font-size="13px" fill="#8b949e" text-anchor="middle" style="white-space: pre;" direction="ltr">every gateway, every request</text></g><g stroke-linecap="round" transform="translate(850 225) rotate(0 110 60)"><path d="M-1.38 0.7 L220.79 -0.55 L220.08 118.38 L-0.14 121.62" stroke="none" stroke-width="0" fill="#4a1219"></path><path d="M-0.8 -0.99 C55.66 0.03, 109.59 -1.68, 218.96 -1.1 M-0.71 -0.75 C62.02 0.55, 122.37 0.62, 219.82 -0.3 M220.44 0.23 C220.21 33.95, 220.38 67.34, 218.84 119.13 M219.6 -0.72 C219.27 44.04, 219.16 85.91, 219.63 119.67 M220.51 120.21 C149.29 120.93, 79.98 118.19, 0.5 119.6 M220.41 120.02 C165.41 121.21, 111.76 121, -0.79 120.81 M-1.79 118.7 C-1.37 87.55, 0.99 53.86, -1.54 1.1 M-0.96 120.08 C0.69 82.21, -0.69 46.27, 0.75 -0.71" stroke="#f85149" stroke-width="3" fill="none"></path></g><g transform="translate(880.3400344848633 260) rotate(0 79.65996551513672 25)"><text x="79.65996551513672" y="NaN" font-family="Virgil, Segoe UI Emoji" font-size="20px" fill="#ffffff" text-anchor="middle" style="white-space: pre;" direction="ltr">Redis</text><text x="79.65996551513672" y="NaN" font-family="Virgil, Segoe UI Emoji" font-size="20px" fill="#ffffff" text-anchor="middle" style="white-space: pre;" direction="ltr">INCR + EXPIRE</text></g><g transform="translate(882 201) rotate(0 72.96092224121094 8.75)"><text x="0" y="NaN" font-family="Virgil, Segoe UI Emoji" font-size="14px" fill="#8b949e" text-anchor="start" style="white-space: pre;" direction="ltr">single shared counter</text></g><g stroke-linecap="round"><g transform="translate(490 140) rotate(0 179 72.5)"><path d="M0.41 -0.97 C60.29 23.09, 298.74 119.93, 358.45 144.11 M-0.83 1.13 C59 25.35, 297.89 121.21, 357.74 145.19" stroke="#f85149" stroke-width="2" fill="none"></path></g><g transform="translate(490 140) rotate(0 179 72.5)"><path d="M326.14 144.97 C333.2 145.46, 340.14 143.22, 356.12 145.04 M326.87 143.29 C334.61 145.08, 340.7 143.86, 358.53 144.38" stroke="#f85149" stroke-width="2" fill="none"></path></g><g transform="translate(490 140) rotate(0 179 72.5)"><path d="M333.78 125.92 C339.03 130.84, 344.2 133, 356.12 145.04 M334.5 124.24 C340.6 130.21, 345.04 133.1, 358.53 144.38" stroke="#f85149" stroke-width="2" fill="none"></path></g></g><g stroke-linecap="round"><g transform="translate(490 280) rotate(0 179 2.5)"><path d="M0.59 0.41 C60.06 1.58, 297.79 5.02, 357.19 5.87 M-0.56 -0.42 C59.25 0.52, 299.5 3.57, 359.47 4.21" stroke="#f85149" stroke-width="2" fill="none"></path></g><g transform="translate(490 280) rotate(0 179 2.5)"><path d="M331.85 12.78 C342.08 8.95, 350.85 8.06, 358.02 3.69 M330.41 13.18 C341.89 10.1, 353.49 6.39, 359.97 5.03" stroke="#f85149" stroke-width="2" fill="none"></path></g><g transform="translate(490 280) rotate(0 179 2.5)"><path d="M332.09 -7.74 C342.05 -4.77, 350.73 1.13, 358.02 3.69 M330.66 -7.34 C342.01 -2.3, 353.52 2.11, 359.97 5.03" stroke="#f85149" stroke-width="2" fill="none"></path></g></g><g stroke-linecap="round"><g transform="translate(490 420) rotate(0 179 -67.5)"><path d="M0.32 0.8 C59.95 -21.85, 299.45 -112.77, 358.89 -135.59 M-0.97 0.17 C58.48 -22.35, 298.36 -111.77, 358.4 -134.37" stroke="#f85149" stroke-width="2" fill="none"></path></g><g transform="translate(490 420) rotate(0 179 -67.5)"><path d="M336.93 -113.4 C343.53 -124.38, 351.63 -128.62, 357.37 -132.88 M335.21 -115.25 C343.8 -121.15, 351.35 -129.08, 358 -134.31" stroke="#f85149" stroke-width="2" fill="none"></path></g><g transform="translate(490 420) rotate(0 179 -67.5)"><path d="M329.73 -132.62 C339.21 -136.05, 350.14 -132.74, 357.37 -132.88 M328.02 -134.47 C339.26 -133.76, 349.29 -135.09, 358 -134.31" stroke="#f85149" stroke-width="2" fill="none"></path></g></g><g stroke-linecap="round" transform="translate(840 363) rotate(0 120 30)"><path d="M-0.93 -0.83 C86.67 0.41, 175.78 -0.26, 238.39 0.34 M238.95 0.57 C241.24 18.7, 239.3 38.8, 238.91 61.07 M241.07 59.55 C167.97 62.46, 94.41 61.22, -0.62 59.37 M-0.78 58.45 C0.3 47.12, -0.45 36.21, -0.68 0.22" stroke="#f85149" stroke-width="2.5" fill="none" stroke-dasharray="8 10"></path></g><g transform="translate(858 375) rotate(0 96.4574203491211 9.375)"><text x="0" y="NaN" font-family="Virgil, Segoe UI Emoji" font-size="15px" fill="#f85149" text-anchor="start" style="white-space: pre;" direction="ltr">SPOF + scaling bottleneck</text></g><g transform="translate(858 397) rotate(0 96.69385528564453 8.125)"><text x="0" y="NaN" font-family="Virgil, Segoe UI Emoji" font-size="13px" fill="#8b949e" text-anchor="start" style="white-space: pre;" direction="ltr">(mitigate w/ cluster, batching)</text></g><g stroke-linecap="round" transform="translate(1170 225) rotate(0 100 45)"><path d="M0.3 1.04 L201.3 1.81 L199.99 91.59 L-0.49 88.55" stroke="none" stroke-width="0" fill="#1f4d2b"></path><path d="M1.7 -1.3 C55.08 -0.19, 110.6 0.57, 200.37 0.14 M-0.32 -0.78 C75.01 -0.78, 150.7 0.04, 200.17 0.09 M200.2 -0.15 C198.68 30.71, 197.49 58.96, 198.12 90.57 M199.78 -0.21 C201.03 26.91, 199.69 53, 200.38 90.03 M199.3 91.62 C137.8 90.84, 76.98 90.81, 1.39 88.32 M200.34 89.49 C132.63 88.92, 63.96 89.08, 0.27 90.13 M0.71 88.57 C-2.2 72.87, -0.53 54.27, -0.44 0.72 M0.92 90.77 C0.18 67.81, 0.87 43.67, -0.72 -0.83" stroke="#3fb950" stroke-width="2" fill="none"></path></g><g transform="translate(1230.3400268554688 245) rotate(0 39.65997314453125 25)"><text x="39.65997314453125" y="NaN" font-family="Virgil, Segoe UI Emoji" font-size="20px" fill="#ffffff" text-anchor="middle" style="white-space: pre;" direction="ltr">Backend</text><text x="39.65997314453125" y="NaN" font-family="Virgil, Segoe UI Emoji" font-size="20px" fill="#ffffff" text-anchor="middle" style="white-space: pre;" direction="ltr">Service</text></g><g stroke-linecap="round"><g transform="translate(490 155) rotate(0 339 57.5)"><path d="M0.79 0.88 C114.01 20.09, 566.22 96.6, 679.02 115.77" stroke="#58a6ff" stroke-width="1.5" fill="none" stroke-dasharray="8 9"></path></g><g transform="translate(490 155) rotate(0 339 57.5)"><path d="M650.98 122.87 C658.88 118.86, 667.15 119.51, 677.12 116.94" stroke="#58a6ff" stroke-width="1.5" fill="none"></path></g><g transform="translate(490 155) rotate(0 339 57.5)"><path d="M654.41 102.64 C661.46 104.21, 668.78 110.43, 677.12 116.94" stroke="#58a6ff" stroke-width="1.5" fill="none"></path></g></g><g stroke-linecap="round"><g transform="translate(490 295) rotate(0 339 -12.5)"><path d="M-0.58 -0.58 C112.57 -4.57, 565.17 -19.81, 678.45 -23.92" stroke="#58a6ff" stroke-width="1.5" fill="none" stroke-dasharray="8 9"></path></g><g transform="translate(490 295) rotate(0 339 -12.5)"><path d="M649.66 -11.93 C659.75 -13.67, 664.9 -18.36, 679.3 -23.32" stroke="#58a6ff" stroke-width="1.5" fill="none"></path></g><g transform="translate(490 295) rotate(0 339 -12.5)"><path d="M648.95 -32.43 C659.22 -28.79, 664.56 -28.09, 679.3 -23.32" stroke="#58a6ff" stroke-width="1.5" fill="none"></path></g></g><g stroke-linecap="round"><g transform="translate(490 435) rotate(0 339 -82.5)"><path d="M0.73 0.45 C113.78 -27.11, 566.3 -137.17, 678.99 -164.79" stroke="#58a6ff" stroke-width="1.5" fill="none" stroke-dasharray="8 9"></path></g><g transform="translate(490 435) rotate(0 339 -82.5)"><path d="M654.79 -146.5 C663.11 -156.11, 671.17 -161.94, 678.02 -166.19" stroke="#58a6ff" stroke-width="1.5" fill="none"></path></g><g transform="translate(490 435) rotate(0 339 -82.5)"><path d="M649.92 -166.43 C660.06 -169.04, 669.84 -167.83, 678.02 -166.19" stroke="#58a6ff" stroke-width="1.5" fill="none"></path></g></g><g stroke-linecap="round" transform="translate(30 525) rotate(0 715 55)"><path d="M-1.06 -0.96 L1428.6 -0.05 L1429.98 108.83 L0.89 108.85" stroke="none" stroke-width="0" fill="#161b22"></path><path d="M0.01 0.58 C427.89 0.35, 854.78 0.29, 1429.92 -0.13 M-0.21 0.25 C401.48 -0.69, 802.59 -0.38, 1429.7 0.14 M1429.77 -1.51 C1428.26 27.92, 1428.29 57.43, 1428.68 109.01 M1430.48 0.67 C1430.25 27.43, 1430.34 56.18, 1429.5 110.44 M1430.06 109.93 C1013.42 108.88, 597.44 109.1, -0.37 110.72 M1429.68 109.99 C1102.08 111.85, 774.73 111.91, -0.18 110.29 M1.72 111.4 C-1.08 82.51, 1.71 54.85, 1.68 -0.87 M0 109.83 C0.27 72.94, 0.67 36.89, 0.72 0.48" stroke="#30363d" stroke-width="2" fill="none"></path></g><g transform="translate(48 537) rotate(0 71.35195922851562 11.25)"><text x="0" y="NaN" font-family="Virgil, Segoe UI Emoji" font-size="18px" fill="#e6edf3" text-anchor="start" style="white-space: pre;" direction="ltr">Scale arithmetic</text></g><g transform="translate(48 571) rotate(0 537.623779296875 10)"><text x="0" y="NaN" font-family="Virgil, Segoe UI Emoji" font-size="16px" fill="#f0b070" text-anchor="start" style="white-space: pre;" direction="ltr">1,000,000 req/sec at the edge   →   1,000,000 INCR/sec on Redis   →   Redis CPU is the cluster's actual limit, not the backend's.</text></g><g transform="translate(48 603) rotate(0 479.5345458984375 8.75)"><text x="0" y="NaN" font-family="Virgil, Segoe UI Emoji" font-size="14px" fill="#c9d1d9" text-anchor="start" style="white-space: pre;" direction="ltr">Mitigations: Redis Cluster (shard the counter key), batched INCRs every 100 ms per gateway, or fall back to gossip-based local counting.</text></g></svg>