<svg version="1.1" xmlns="http://www.w3.org/2000/svg" viewBox="0 0 830.3326371775871 421.5180717950485" width="830.3326371775871" height="421.5180717950485">
  <!-- svg-source:excalidraw -->
  
  <defs>
    <style>
      @font-face {
        font-family: "Virgil";
        src: url("https://excalidraw.com/Virgil.woff2");
      }
      @font-face {
        font-family: "Cascadia";
        src: url("https://excalidraw.com/Cascadia.woff2");
      }
    </style>
  </defs>
  <rect x="0" y="0" width="830.3326371775871" height="421.5180717950485" fill="#0d1117"></rect><g stroke-linecap="round" transform="translate(10 10) rotate(0 100 32)"><path d="M0.88 1.07 L199.08 -1.49 L200.6 65.19 L0.92 64.08" stroke="none" stroke-width="0" fill="#1f4d2b"></path><path d="M-0.55 1.07 C50.59 0.27, 105.18 1.2, 199.24 -1.07 M-0.44 -0.26 C78.14 0.32, 156.35 0.86, 200.82 -0.8 M199.24 -0.56 C200.16 22.59, 197.69 44.46, 199.51 64.41 M200.45 -0.51 C201.08 20.91, 200.14 40.91, 199.81 64.24 M200.08 64.91 C158.44 66.16, 113.23 65.07, 1.71 65.38 M200.69 64.85 C126.07 64.55, 51.47 63.73, 0.82 64.33 M0.33 64.31 C-1.47 40.41, -1.32 19.43, 1.12 -0.6 M0.99 64.93 C-0.64 44.99, 0.08 25.57, -0.83 0.08" stroke="#3fb950" stroke-width="2" fill="none"></path></g><g transform="translate(64.63004302978516 17) rotate(0 45.369956970214844 25)"><text x="45.369956970214844" y="NaN" font-family="Virgil, Segoe UI Emoji" font-size="20px" fill="#ffffff" text-anchor="middle" style="white-space: pre;" direction="ltr">Incoming</text><text x="45.369956970214844" y="NaN" font-family="Virgil, Segoe UI Emoji" font-size="20px" fill="#ffffff" text-anchor="middle" style="white-space: pre;" direction="ltr">Requests</text></g><g stroke-linecap="round" transform="translate(620.3326371775871 347.5180717950485) rotate(0 100 32)"><path d="M-0.87 -1.12 L200.25 -1.25 L200.61 64.69 L-0.51 62.33" stroke="none" stroke-width="0" fill="#1f4d2b"></path><path d="M-0.6 1.21 C47.42 2.33, 95.21 0.17, 201.56 -1.13 M-0.06 0.86 C50.67 2.04, 100.48 1.63, 200.78 -0.77 M199.85 0.95 C201.81 23.36, 200.34 46.16, 200 63.57 M200.81 0.14 C200.54 15.63, 199.06 29.45, 199.18 63.95 M200.74 65.47 C145.22 63.74, 93.74 61.74, -0.11 63.11 M199.12 63.99 C151.7 63.44, 105.05 63.49, -0.22 64.41 M-0.48 62.67 C1.51 51.93, 2.31 35.93, -0.89 -0.1 M0.62 63.27 C0.48 47.65, -0.63 33.94, 0.82 0" stroke="#3fb950" stroke-width="2" fill="none"></path></g><g transform="translate(682.5326799021965 367.0180717950485) rotate(0 37.799957275390625 12.5)"><text x="37.799957275390625" y="NaN" font-family="Virgil, Segoe UI Emoji" font-size="20px" fill="#ffffff" text-anchor="middle" style="white-space: pre;" direction="ltr">Process</text></g><g stroke-linecap="round" transform="translate(589.646541747592 91.89759694853123) rotate(0 100 32)"><path d="M-1.74 1.59 L201.08 0.55 L201.27 62.36 L-1.69 62.01" stroke="none" stroke-width="0" fill="#4a1219"></path><path d="M-0.03 -1.61 C61.69 -2.06, 122.27 -0.47, 199.99 -0.21 M-0.8 -0.22 C45.19 -0.72, 88.51 -2.02, 199.78 0.5 M200.36 1.77 C198.69 20.2, 201.3 36.5, 199.11 63.97 M200.62 0.55 C200.31 13.36, 200.48 26.43, 200.99 63.65 M199.99 65.27 C151.88 64.75, 102.76 63.68, -1.64 63.08 M200.41 63.89 C143.24 65.18, 85.89 65.76, -0.35 63.49 M1.29 62.61 C1.18 38.13, 0.45 14.29, 0.18 -0.79 M-0.55 64.67 C0.31 50.34, -0.34 35.83, 0.83 0.46" stroke="#f85149" stroke-width="2" fill="none"></path></g><g transform="translate(650.9865838618498 111.39759694853123) rotate(0 38.65995788574219 12.5)"><text x="38.65995788574219" y="NaN" font-family="Virgil, Segoe UI Emoji" font-size="20px" fill="#ffffff" text-anchor="middle" style="white-space: pre;" direction="ltr">Dropped</text></g><g transform="translate(282.0776194622098 39.18343503812022) rotate(0 58.74296569824219 11.25)"><text x="58.74296569824219" y="NaN" font-family="Virgil, Segoe UI Emoji" font-size="18px" fill="#c9d1d9" text-anchor="middle" style="white-space: pre;" direction="ltr">Variable rate</text></g><g stroke-linecap="round"><g transform="translate(391.45877700533356 276.50831412850164) rotate(0 111.43693008612684 51.36680509055846)"><path d="M-0.88 -0.7 C3.07 14.67, -12.62 75.36, 24.55 92.6 C61.72 109.84, 189.09 100.89, 222.15 102.73 M0.86 1.55 C4.59 17.01, -13.67 76.64, 23.63 93.72 C60.93 110.81, 191.41 102.74, 224.67 104.04" stroke="#58a6ff" stroke-width="2" fill="none"></path></g><g transform="translate(391.45877700533356 276.50831412850164) rotate(0 111.43693008612684 51.36680509055846)"><path d="M195.4 114.63 C205.58 109.67, 217.26 107.06, 226.17 104.75 M197.05 115.1 C202.43 113.43, 207.7 110.52, 225.11 103.76" stroke="#58a6ff" stroke-width="2" fill="none"></path></g><g transform="translate(391.45877700533356 276.50831412850164) rotate(0 111.43693008612684 51.36680509055846)"><path d="M195.23 94.11 C205.54 96.72, 217.28 101.68, 226.17 104.75 M196.88 94.58 C202.27 97.15, 207.57 98.48, 225.11 103.76" stroke="#58a6ff" stroke-width="2" fill="none"></path></g></g><g transform="translate(346.25529775558505 347.3998973453955) rotate(0 69.69595336914062 22.5)"><text x="69.69595336914062" y="NaN" font-family="Virgil, Segoe UI Emoji" font-size="18px" fill="#c9d1d9" text-anchor="middle" style="white-space: pre;" direction="ltr">Constant drain</text><text x="69.69595336914062" y="NaN" font-family="Virgil, Segoe UI Emoji" font-size="18px" fill="#c9d1d9" text-anchor="middle" style="white-space: pre;" direction="ltr">rate: R req/sec</text></g><g stroke-linecap="round"><g transform="translate(396.2031725808414 133.35641205186795) rotate(0 95.41646590526801 -29.29171058124644)"><path d="M0.07 -0.23 C13.35 -9.77, 47.11 -56.15, 78.87 -57.59 C110.63 -59.02, 172.05 -17.13, 190.63 -8.85 M-1.35 -1.4 C12.4 -11.22, 49.41 -58.1, 81.26 -59.19 C113.11 -60.28, 171.57 -16.68, 189.76 -7.94" stroke="#f85149" stroke-width="2" fill="none"></path></g><g transform="translate(396.2031725808414 133.35641205186795) rotate(0 95.41646590526801 -29.29171058124644)"><path d="M159.9 -14.56 C168.81 -12.57, 172.74 -11.67, 190.05 -7.82 M160.07 -14.38 C166.68 -13.32, 172.93 -10.44, 188.94 -6.97" stroke="#f85149" stroke-width="2" fill="none"></path></g><g transform="translate(396.2031725808414 133.35641205186795) rotate(0 95.41646590526801 -29.29171058124644)"><path d="M170.39 -32.19 C176.8 -26.09, 178.28 -21.07, 190.05 -7.82 M170.56 -32.02 C174.86 -26.97, 178.75 -20.11, 188.94 -6.97" stroke="#f85149" stroke-width="2" fill="none"></path></g></g><g transform="translate(445.12722909775096 52.27299088937508) rotate(0 30.563987731933594 22.5)"><text x="30.563987731933594" y="NaN" font-family="Virgil, Segoe UI Emoji" font-size="18px" fill="#c9d1d9" text-anchor="middle" style="white-space: pre;" direction="ltr">Bucket</text><text x="30.563987731933594" y="NaN" font-family="Virgil, Segoe UI Emoji" font-size="18px" fill="#c9d1d9" text-anchor="middle" style="white-space: pre;" direction="ltr">full</text></g><g stroke-linecap="round"><g transform="translate(328.8962456416192 138.7180265725937) rotate(0 58.14290499417001 63.14611129772554)" fill-rule="evenodd"><path d="M1.62 1.99 L-2.03 127.98 L1.16 131.33 L14.67 134.94 L26.94 136.57 L62.77 139.68 L94.09 136.88 L107.47 134.88 L117.24 129.16 L114.53 -2 L117.23 0.57 L109.37 -6.98 L98.19 -10.44 L56.12 -10.47 L27.7 -11.78 L16.73 -6.29 L4.57 -4.47 L1.39 0.04" stroke="none" stroke-width="0" fill="#a5d8ff" fill-rule="evenodd"></path><path d="M0.54 0.69 C0.8 19.39, 0.61 91.6, 0.53 112.41 C0.45 133.22, -1.05 122.44, 0.05 125.55 C1.14 128.66, 2.74 129.03, 7.11 131.08 C11.49 133.14, 17.02 136.53, 26.28 137.89 C35.54 139.25, 51.2 139.75, 62.69 139.25 C74.18 138.74, 86.84 136.28, 95.21 134.88 C103.59 133.48, 109.26 132.56, 112.92 130.83 C116.57 129.11, 116.41 127.17, 117.13 124.52 C117.86 121.87, 117.26 133.93, 117.28 114.95 C117.3 95.98, 117.42 30.08, 117.26 10.64 C117.1 -8.79, 118.01 1.07, 116.33 -1.65 C114.66 -4.37, 111.14 -4.24, 107.19 -5.66 C103.25 -7.08, 101.03 -9.08, 92.67 -10.17 C84.32 -11.27, 67.89 -12.2, 57.06 -12.21 C46.24 -12.22, 36.53 -11.42, 27.7 -10.24 C18.86 -9.07, 8.53 -6.95, 4.06 -5.17 C-0.41 -3.4, 1.38 -0.3, 0.86 0.41 C0.35 1.11, 0.94 -0.75, 0.97 -0.97 M-0.63 0.01 C-0.43 18.79, -0.33 92.29, -0.34 113.35 C-0.36 134.41, -1.48 123.32, -0.71 126.38 C0.07 129.43, -0.53 130.2, 4.29 131.67 C9.1 133.14, 18.77 134.02, 28.19 135.2 C37.61 136.37, 49.56 138.48, 60.8 138.72 C72.05 138.96, 86.57 137.97, 95.65 136.64 C104.72 135.32, 111.86 132.51, 115.26 130.77 C118.66 129.04, 116.13 128.98, 116.06 126.25 C116 123.52, 115.12 134.01, 114.87 114.4 C114.62 94.78, 114.46 27.46, 114.54 8.56 C114.63 -10.35, 116.64 3.43, 115.39 0.96 C114.13 -1.52, 110.88 -4.33, 107.01 -6.29 C103.15 -8.26, 100.41 -9.75, 92.2 -10.85 C83.99 -11.95, 68.33 -13.21, 57.76 -12.89 C47.19 -12.57, 37.41 -10.31, 28.78 -8.93 C20.15 -7.55, 10.77 -6.25, 5.98 -4.59 C1.2 -2.93, 1.05 0.46, 0.07 1.02 C-0.92 1.58, 0.37 -1.13, 0.09 -1.23" stroke="#000000" stroke-width="1" fill="none"></path></g></g><g stroke-linecap="round" transform="translate(328.0215007427481 125.15513942403331) rotate(0 57.83250581488596 11.696189209254555)"><path d="M60.03 -0.2 C70.1 -0.36, 81.99 1.53, 90.49 2.71 C98.99 3.9, 107.06 5.2, 111.04 6.91 C115.02 8.62, 116.23 10.77, 114.36 12.95 C112.5 15.14, 106.68 18.41, 99.86 20.01 C93.04 21.6, 83.33 22.21, 73.47 22.51 C63.61 22.82, 50.72 22.48, 40.7 21.84 C30.67 21.2, 20.01 19.97, 13.3 18.65 C6.59 17.33, 1.75 15.93, 0.46 13.92 C-0.84 11.91, 1.06 8.57, 5.51 6.58 C9.97 4.58, 16.55 3.16, 27.18 1.95 C37.8 0.75, 60.73 -0.4, 69.26 -0.65 C77.8 -0.89, 78.55 0.23, 78.39 0.49 M57.04 -0.49 C67.13 -0.4, 81.35 1.23, 90.09 2.44 C98.83 3.66, 105.34 5.18, 109.5 6.8 C113.66 8.43, 116.52 10.17, 115.05 12.2 C113.58 14.23, 107.45 17.34, 100.66 19 C93.88 20.67, 84.14 21.74, 74.35 22.19 C64.56 22.63, 51.85 22.23, 41.91 21.67 C31.97 21.11, 21.63 20.07, 14.73 18.83 C7.83 17.6, 2.12 16.3, 0.51 14.26 C-1.09 12.21, 1 8.68, 5.11 6.55 C9.21 4.41, 16.14 2.31, 25.14 1.44 C34.13 0.57, 53.74 1.43, 59.08 1.35 C64.41 1.26, 57.53 1.06, 57.15 0.93" stroke="none" stroke-width="0" fill="#a5d8ff"></path><path d="M57.66 -0.44 C67.85 -0.64, 81.58 1.33, 90.56 2.5 C99.53 3.68, 107.59 4.87, 111.52 6.62 C115.45 8.38, 115.77 10.73, 114.11 13.03 C112.45 15.32, 108.47 18.62, 101.56 20.4 C94.64 22.19, 82.77 23.15, 72.63 23.73 C62.5 24.31, 50.42 24.49, 40.75 23.87 C31.08 23.25, 21.51 21.88, 14.63 20 C7.76 18.11, 0.97 14.73, -0.5 12.58 C-1.97 10.43, 1.33 8.79, 5.81 7.09 C10.28 5.39, 17.29 3.54, 26.36 2.37 C35.42 1.21, 54.2 0.57, 60.18 0.09 C66.17 -0.39, 62.33 -0.81, 62.28 -0.5 M70.42 -0.94 C80.29 -0.26, 92.17 2.89, 99.24 4.78 C106.31 6.67, 110.72 8.41, 112.84 10.4 C114.96 12.4, 115.22 14.97, 111.97 16.75 C108.72 18.54, 101.5 20.06, 93.34 21.13 C85.19 22.2, 73.33 22.84, 63.03 23.17 C52.74 23.51, 41 23.94, 31.56 23.11 C22.13 22.28, 11.53 20, 6.41 18.2 C1.28 16.39, -0.11 14.39, 0.82 12.28 C1.75 10.17, 6.24 7.49, 12.01 5.55 C17.78 3.6, 25.7 1.35, 35.45 0.6 C45.2 -0.16, 64.74 1.13, 70.5 0.99 C76.26 0.85, 70.35 -0.08, 69.99 -0.26" stroke="#000000" stroke-width="1" fill="none"></path></g><g stroke-linecap="round"><g transform="translate(216 42.39290041326987) rotate(0 77.43429046238998 42.68532320114079)"><path d="M0.63 -0.78 C21.55 0.72, 99.91 -5.15, 125.69 9.23 C151.48 23.61, 150.65 72.77, 155.32 85.47 M-0.5 1.42 C20.33 2.61, 99.32 -6.51, 125.21 7.73 C151.09 21.97, 150.09 73.7, 154.79 86.85" stroke="#3fb950" stroke-width="2" fill="none"></path></g><g transform="translate(216 42.39290041326987) rotate(0 77.43429046238998 42.68532320114079)"><path d="M138.47 62.33 C146.48 69.64, 149.35 75.1, 154.94 86.39 M140.1 60.95 C145.97 71.89, 150.68 81.57, 154.94 87.47" stroke="#3fb950" stroke-width="2" fill="none"></path></g><g transform="translate(216 42.39290041326987) rotate(0 77.43429046238998 42.68532320114079)"><path d="M158.68 58.76 C160.39 67.29, 156.96 73.87, 154.94 86.39 M160.31 57.38 C158.32 69.68, 155.19 80.75, 154.94 87.47" stroke="#3fb950" stroke-width="2" fill="none"></path></g></g><g stroke-linecap="round" transform="translate(380.393151006459 160.65425388431092) rotate(0 7.345605999111967 7.3456059991119815)"><path d="M8.91 0.32 C10.56 0.72, 13.64 2.18, 14.47 3.73 C15.29 5.27, 14.14 8.08, 13.87 9.59 C13.59 11.1, 13.88 11.81, 12.82 12.77 C11.77 13.74, 9.23 15.38, 7.54 15.39 C5.84 15.39, 3.96 14.02, 2.64 12.77 C1.32 11.53, 0.01 9.37, -0.38 7.92 C-0.78 6.48, -0.73 5.43, 0.26 4.1 C1.25 2.77, 3.59 0.58, 5.56 -0.04 C7.53 -0.67, 10.86 -0.04, 12.1 0.35 C13.34 0.73, 13.13 1.86, 12.98 2.26 M6.54 0.47 C7.78 0.38, 8.63 0.73, 9.8 1.56 C10.96 2.4, 12.91 4.09, 13.54 5.49 C14.16 6.89, 14.02 8.72, 13.56 9.95 C13.1 11.17, 12.16 12.16, 10.76 12.84 C9.35 13.53, 6.48 14.12, 5.12 14.07 C3.76 14.03, 3.62 13.72, 2.6 12.58 C1.59 11.43, -0.83 9.07, -0.97 7.21 C-1.11 5.34, 0.71 2.62, 1.76 1.38 C2.81 0.13, 4.54 0.04, 5.33 -0.27 C6.11 -0.58, 6.24 -0.47, 6.47 -0.49" stroke="none" stroke-width="0" fill="#a5d8ff"></path><path d="M11.55 1.36 C13.21 1.96, 14.58 2.83, 14.9 4.1 C15.23 5.38, 14.03 7.27, 13.51 8.99 C13 10.71, 13.14 13.36, 11.83 14.43 C10.51 15.5, 7.29 15.59, 5.62 15.41 C3.96 15.24, 2.62 14.53, 1.84 13.37 C1.06 12.22, 1.17 10.35, 0.94 8.51 C0.71 6.67, -0.38 3.63, 0.46 2.31 C1.29 0.99, 4.33 0.69, 5.96 0.57 C7.59 0.44, 9.4 1.43, 10.26 1.57 C11.12 1.71, 11.03 1.53, 11.11 1.41 M7.61 -1.15 C9.09 -1.73, 11.23 -1.31, 12.56 -0.01 C13.89 1.29, 15.53 4.72, 15.57 6.64 C15.62 8.57, 13.71 10.16, 12.84 11.56 C11.97 12.95, 11.51 14.5, 10.34 15.02 C9.17 15.55, 7.27 15.27, 5.81 14.7 C4.36 14.14, 2.48 12.74, 1.61 11.64 C0.73 10.53, 0.72 9.5, 0.59 8.07 C0.45 6.65, -0.3 4.23, 0.79 3.1 C1.88 1.96, 6.02 1.64, 7.13 1.28 C8.25 0.91, 7.79 1.02, 7.47 0.91" stroke="#000000" stroke-width="1" fill="none"></path></g><g stroke-linecap="round" transform="translate(342.70699848928007 188.7591811852617) rotate(0 7.345605999111967 7.3456059991119815)"><path d="M8.86 0.09 C10.4 0.33, 10.82 2.11, 11.92 3.2 C13.01 4.29, 15.17 5.1, 15.43 6.62 C15.7 8.15, 14.54 11.08, 13.49 12.35 C12.44 13.63, 10.79 14.13, 9.15 14.28 C7.5 14.43, 5.18 13.84, 3.64 13.26 C2.1 12.67, 0.35 12.17, -0.09 10.77 C-0.53 9.37, 0.36 6.59, 1 4.84 C1.64 3.09, 2.43 1.13, 3.76 0.27 C5.09 -0.59, 8.01 -0.5, 9 -0.31 C9.98 -0.13, 9.77 1.16, 9.68 1.36 M3.86 0.87 C5.07 0.36, 7.87 0.62, 9.43 1.14 C10.99 1.65, 12.4 2.82, 13.22 3.98 C14.03 5.13, 14.71 6.59, 14.33 8.05 C13.95 9.5, 12.01 11.49, 10.94 12.7 C9.88 13.9, 9.54 15.26, 7.94 15.26 C6.35 15.26, 2.72 14.06, 1.4 12.7 C0.08 11.34, 0.22 8.72, 0.04 7.11 C-0.13 5.49, -0.57 4.27, 0.33 3.02 C1.23 1.76, 4.55 0.23, 5.44 -0.4 C6.32 -1.03, 5.53 -0.93, 5.63 -0.77" stroke="none" stroke-width="0" fill="#a5d8ff"></path><path d="M6.54 -0.15 C7.68 -0.75, 8.51 -0.58, 9.85 0.35 C11.18 1.29, 13.96 3.8, 14.57 5.46 C15.18 7.12, 14.06 8.79, 13.49 10.3 C12.92 11.81, 12.17 13.67, 11.15 14.52 C10.13 15.36, 9.04 15.84, 7.34 15.37 C5.64 14.9, 2.12 12.9, 0.95 11.68 C-0.22 10.46, 0.35 9.43, 0.32 8.06 C0.28 6.7, -0.2 4.8, 0.74 3.48 C1.69 2.17, 4.98 0.85, 5.98 0.17 C6.98 -0.5, 6.73 -0.82, 6.74 -0.59 M10.04 -1.03 C11.53 -0.37, 13.74 2.59, 14.3 4.25 C14.86 5.9, 13.71 7.38, 13.4 8.9 C13.1 10.42, 13.29 12.37, 12.47 13.35 C11.66 14.33, 10 14.78, 8.53 14.8 C7.05 14.81, 4.88 14.12, 3.62 13.45 C2.36 12.78, 1.68 12.1, 0.97 10.76 C0.26 9.42, -1.24 6.84, -0.64 5.4 C-0.05 3.96, 2.8 2.88, 4.55 2.12 C6.3 1.36, 9.35 1.18, 9.84 0.84 C10.33 0.5, 7.48 -0.06, 7.5 0.07" stroke="#000000" stroke-width="1" fill="none"></path></g><g stroke-linecap="round" transform="translate(417.4405551758972 188.120432837513) rotate(0 7.345605999111967 7.3456059991119815)"><path d="M6.19 0.98 C7.68 0.75, 11.06 0.35, 12.48 1.24 C13.9 2.13, 14.44 4.8, 14.69 6.33 C14.93 7.86, 14.76 9.26, 13.94 10.43 C13.12 11.61, 11.35 12.66, 9.78 13.39 C8.21 14.12, 5.83 15.23, 4.53 14.82 C3.22 14.41, 2.6 12.46, 1.94 10.91 C1.28 9.36, 0.5 7.08, 0.57 5.52 C0.65 3.95, 1.28 2.31, 2.39 1.53 C3.51 0.76, 6.46 1.08, 7.25 0.85 C8.05 0.62, 7.28 0.13, 7.17 0.15 M7.51 0.62 C9.12 0.63, 10.91 1.44, 12.07 2.35 C13.24 3.26, 14.45 4.58, 14.5 6.07 C14.55 7.56, 13.11 9.79, 12.35 11.29 C11.58 12.79, 11.48 14.66, 9.92 15.09 C8.37 15.51, 4.59 14.85, 3.03 13.84 C1.47 12.83, 1.15 10.53, 0.56 9.03 C-0.03 7.52, -1.02 6.25, -0.51 4.82 C0 3.39, 2.11 1.44, 3.64 0.44 C5.17 -0.56, 7.81 -1.06, 8.69 -1.19 C9.56 -1.32, 8.98 -0.79, 8.88 -0.31" stroke="none" stroke-width="0" fill="#a5d8ff"></path><path d="M8.56 -0.16 C9.96 0.39, 13.05 2.72, 13.92 4.24 C14.79 5.76, 14.06 7.38, 13.78 8.95 C13.5 10.52, 13.08 12.59, 12.24 13.66 C11.4 14.74, 10.44 15.59, 8.73 15.42 C7.02 15.24, 3.35 13.6, 1.98 12.6 C0.61 11.6, 0.84 10.75, 0.51 9.43 C0.18 8.11, -0.61 6.11, 0.01 4.66 C0.63 3.2, 2.42 1.46, 4.22 0.69 C6.03 -0.08, 9.6 -0.24, 10.82 0.06 C12.05 0.35, 11.56 2.1, 11.55 2.47 M5.67 2.09 C6.59 1.84, 6.95 1.3, 8.19 1.7 C9.42 2.1, 12.02 3.36, 13.1 4.48 C14.19 5.6, 14.81 7.07, 14.71 8.41 C14.6 9.75, 13.53 11.31, 12.47 12.53 C11.4 13.75, 10.11 15.5, 8.33 15.74 C6.56 15.98, 3.03 14.87, 1.8 13.95 C0.57 13.03, 0.92 11.78, 0.93 10.24 C0.94 8.7, 1.47 6.37, 1.85 4.73 C2.23 3.09, 2.53 0.92, 3.2 0.38 C3.86 -0.16, 5.42 1.46, 5.85 1.49" stroke="#000000" stroke-width="1" fill="none"></path></g><g stroke-linecap="round" transform="translate(404.66558822092077 232.83281717993322) rotate(0 7.345605999111967 7.3456059991119815)"><path d="M8.29 -0.2 C9.94 -0.3, 11.35 1.49, 12.4 2.53 C13.46 3.57, 14.51 4.73, 14.63 6.06 C14.75 7.38, 14.07 9.03, 13.12 10.48 C12.18 11.93, 10.25 14.21, 8.96 14.74 C7.67 15.28, 6.64 14.51, 5.38 13.7 C4.13 12.89, 2.28 11.25, 1.42 9.87 C0.56 8.49, 0.01 6.65, 0.24 5.41 C0.48 4.17, 1.41 3.32, 2.82 2.45 C4.23 1.58, 7.55 0.43, 8.71 0.2 C9.88 -0.03, 9.74 1.11, 9.81 1.08 M7.99 0.12 C9.57 0.04, 11.83 0.6, 12.8 1.73 C13.78 2.86, 13.65 5.05, 13.84 6.88 C14.02 8.7, 14.93 11.39, 13.9 12.66 C12.87 13.94, 9.34 14.56, 7.63 14.54 C5.92 14.51, 4.98 13.37, 3.64 12.52 C2.3 11.68, 0.09 10.88, -0.4 9.47 C-0.88 8.07, -0.02 5.7, 0.73 4.08 C1.48 2.46, 2.69 0.47, 4.12 -0.27 C5.54 -1.02, 8.54 -0.64, 9.28 -0.4 C10.02 -0.16, 8.7 1.01, 8.55 1.17" stroke="none" stroke-width="0" fill="#a5d8ff"></path><path d="M6.57 1.05 C8.03 0.92, 8.95 0.98, 10.2 1.79 C11.46 2.59, 13.28 4.4, 14.1 5.88 C14.93 7.35, 15.85 9.45, 15.16 10.65 C14.47 11.85, 11.45 12.37, 9.97 13.09 C8.5 13.8, 7.83 15.02, 6.32 14.94 C4.81 14.86, 2.01 13.87, 0.92 12.61 C-0.16 11.35, -0.35 9.17, -0.19 7.37 C-0.04 5.57, 0.5 2.9, 1.85 1.81 C3.2 0.72, 6.47 0.87, 7.91 0.82 C9.35 0.77, 10.6 1.37, 10.49 1.5 M3.27 1.94 C4.35 1.23, 7.46 1.22, 9.19 1.5 C10.91 1.78, 12.7 2.5, 13.62 3.61 C14.54 4.72, 14.84 6.45, 14.72 8.15 C14.59 9.86, 14.24 12.63, 12.87 13.84 C11.5 15.04, 8.05 15.32, 6.5 15.41 C4.95 15.5, 4.47 15.34, 3.59 14.38 C2.71 13.41, 1.89 11.39, 1.23 9.61 C0.56 7.84, -1.19 5.1, -0.42 3.72 C0.36 2.34, 4.88 1.94, 5.89 1.32 C6.91 0.69, 5.79 0.22, 5.66 -0.03" stroke="#000000" stroke-width="1" fill="none"></path></g><g stroke-linecap="round" transform="translate(356.44008796588105 233.15219135380704) rotate(0 7.345605999111967 7.3456059991119815)"><path d="M10.94 1.53 C12.19 2.14, 13.67 3.12, 14.15 4.35 C14.64 5.57, 14.46 7.26, 13.86 8.87 C13.26 10.47, 11.68 13.1, 10.56 13.98 C9.43 14.86, 8.45 14.59, 7.1 14.14 C5.75 13.7, 3.62 12.47, 2.45 11.31 C1.29 10.15, 0.25 8.45, 0.11 7.18 C-0.04 5.91, 0.69 4.88, 1.58 3.72 C2.46 2.55, 3.94 0.57, 5.44 0.18 C6.94 -0.22, 9.51 1.25, 10.56 1.32 C11.61 1.39, 11.64 0.61, 11.74 0.59 M8.55 -0.78 C10 -0.67, 11 0.75, 12.19 2.22 C13.37 3.69, 15.67 6.39, 15.63 8.03 C15.59 9.68, 13.12 11.2, 11.93 12.1 C10.75 13, 10.03 13.23, 8.5 13.42 C6.97 13.62, 4.05 14.02, 2.74 13.29 C1.44 12.55, 0.99 10.66, 0.69 9.02 C0.38 7.39, 0.29 4.92, 0.91 3.49 C1.53 2.05, 3.12 0.82, 4.41 0.42 C5.7 0.01, 7.97 1.11, 8.66 1.04 C9.35 0.97, 8.81 0.09, 8.55 -0.01" stroke="none" stroke-width="0" fill="#a5d8ff"></path><path d="M4.79 0.97 C6.12 0.54, 8.77 1.07, 10.48 1.77 C12.19 2.47, 14.54 4, 15.02 5.18 C15.51 6.35, 13.94 7.36, 13.39 8.8 C12.83 10.25, 12.96 12.78, 11.69 13.85 C10.41 14.92, 7.38 15.46, 5.73 15.23 C4.08 15, 2.75 13.84, 1.81 12.47 C0.87 11.09, 0.21 8.46, 0.11 7 C0.01 5.55, 0.15 4.74, 1.2 3.73 C2.24 2.72, 5.66 1.38, 6.38 0.93 C7.1 0.49, 5.71 0.93, 5.53 1.05 M10.47 2.05 C12.05 2.48, 13.6 3.61, 14.25 4.85 C14.91 6.1, 14.82 7.88, 14.4 9.51 C13.99 11.15, 13.31 13.7, 11.76 14.67 C10.21 15.64, 6.64 15.54, 5.11 15.33 C3.58 15.12, 3.25 14.61, 2.57 13.42 C1.9 12.24, 1.43 10.04, 1.06 8.23 C0.69 6.42, -0.68 3.77, 0.35 2.55 C1.37 1.33, 5.3 1.31, 7.23 0.91 C9.15 0.51, 11.26 0.4, 11.91 0.18 C12.55 -0.04, 11.36 -0.82, 11.1 -0.4" stroke="#000000" stroke-width="1" fill="none"></path></g><g stroke-linecap="round"><g transform="translate(394.31805193881416 170.64892687794082) rotate(0 12.827549279299035 9.506960530119159)"><path d="M-0.56 0.54 C3.97 3.71, 22.27 14.93, 26.79 17.97 M1.35 -0.23 C5.86 3.15, 22.29 15.59, 26.45 18.97" stroke="#000000" stroke-width="1" fill="none"></path></g></g><g stroke-linecap="round"><g transform="translate(426.30028567843146 202.10091062895444) rotate(0 -4.8112812281897845 15.090368166769736)"><path d="M1.14 -1.04 C-0.22 3.87, -7.1 24.59, -8.7 29.98 M0.28 1.03 C-1.1 6.08, -7.68 26.67, -9.16 31.42" stroke="#000000" stroke-width="1" fill="none"></path></g></g><g stroke-linecap="round"><g transform="translate(379.5906726983569 171.9170918870504) rotate(0 -13.464959454771133 9.295046632868065)"><path d="M0.93 -0.2 C-3.55 3.26, -21.25 16.78, -25.74 19.71 M-0.04 -1.35 C-4.68 1.9, -21.68 14.93, -26.07 18.17" stroke="#000000" stroke-width="1" fill="none"></path></g></g><g stroke-linecap="round"><g transform="translate(351.3981197630783 202.4478096625091) rotate(0 5.121522351581177 15.533857370070336)"><path d="M1.19 1.12 C2.89 6.13, 9.75 24.82, 11.13 29.87 M0.35 0.66 C1.89 5.79, 8.72 26.01, 10.65 30.78" stroke="#000000" stroke-width="1" fill="none"></path></g></g><g stroke-linecap="round"><g transform="translate(371.4145638256085 241.91129052544247) rotate(0 16.106455504053372 -0.2080710090891955)"><path d="M0.89 -1.2 C5.93 -1.39, 26.14 -0.03, 31.43 -0.05 M-0.11 0.79 C5.22 0.74, 28.37 -1.76, 33.74 -1.98" stroke="#000000" stroke-width="1" fill="none"></path></g></g><g stroke-linecap="round"><g transform="translate(359.0880339531167 197.5349051681759) rotate(0 29.851444311764567 0.10717404185723467)"><path d="M-0.78 0.37 C9.1 0.45, 49.95 -0.63, 60.15 -0.7 M1.01 -0.48 C10.69 -0.17, 49.6 0.08, 59.43 0.36" stroke="#000000" stroke-width="1" fill="none"></path></g></g><g stroke-linecap="round"><g transform="translate(387.44385766849575 175.69785146742032) rotate(0 -8.942476868484164 29.2227369095107)"><path d="M0.44 -0.91 C-2.29 8.73, -14.14 48.3, -17.18 58.21 M-0.78 1.22 C-3.55 11.01, -14.8 49.84, -17.76 59.63" stroke="#000000" stroke-width="1" fill="none"></path></g></g><g stroke-linecap="round"><g transform="translate(390.80170167399297 175.66521037543106) rotate(0 8.942476868484164 29.70179817032235)"><path d="M0.7 -0.23 C3.63 9.84, 15.27 49.63, 17.98 59.52 M-0.38 -1.4 C2.35 8.97, 13.79 50.84, 17.08 61.12" stroke="#000000" stroke-width="1" fill="none"></path></g></g><g stroke-linecap="round"><g transform="translate(369.9052534862909 235.1163686126681) rotate(0 25.230559736080295 -17.08651830228223)"><path d="M0.1 0.11 C8.23 -5.59, 40.99 -28.85, 49.54 -34.48 M-1.31 -0.87 C7.14 -6.38, 43.03 -27.29, 51.77 -33.11" stroke="#000000" stroke-width="1" fill="none"></path></g></g><g stroke-linecap="round"><g transform="translate(356.4488376736184 201.45587296188066) rotate(0 25.549793417233104 16.839189736339904)"><path d="M-0.92 -0.31 C7.73 5.36, 43.2 28.65, 52.03 34.15 M0.8 -1.52 C9.37 3.78, 43.06 26.44, 51.57 32.28" stroke="#000000" stroke-width="1" fill="none"></path></g></g></svg>