<svg version="1.1" xmlns="http://www.w3.org/2000/svg" viewBox="0 0 1260 467.5" width="1260" height="467.5">
  <!-- svg-source:excalidraw -->
  
  <defs>
    <style>
      @font-face {
        font-family: "Virgil";
        src: url("https://excalidraw.com/Virgil.woff2");
      }
      @font-face {
        font-family: "Cascadia";
        src: url("https://excalidraw.com/Cascadia.woff2");
      }
    </style>
  </defs>
  <rect x="0" y="0" width="1260" height="467.5" fill="#0d1117"></rect><g stroke-linecap="round" transform="translate(10 148) rotate(0 100 32)"><path d="M1.3 -1.38 L198.7 1.33 L201.44 63.81 L1.5 63.44" stroke="none" stroke-width="0" fill="#1f4d2b"></path><path d="M1.63 0.78 C60.42 -0.53, 123.08 -2.07, 201.52 -1.67 M-0.04 -0.05 C68.63 -0.53, 139.06 0.23, 199.4 -0.01 M198.98 -1.72 C201.31 17.68, 199.42 38.92, 198.13 62.72 M200.65 0.94 C200.03 22.53, 200.15 45.34, 199.81 64.91 M200.63 62.47 C132.28 65.98, 66.21 65.57, 1.61 62.99 M199.53 63.18 C134.17 65.05, 68.74 65, -0.41 63.45 M0.44 64.52 C1.45 50.9, -2.27 35.2, -1.89 0.03 M-0.55 63.51 C-0.19 40.32, 0.68 17.15, -0.36 0.34" stroke="#3fb950" stroke-width="2" fill="none"></path></g><g transform="translate(82.95002746582031 167.5) rotate(0 27.049972534179688 12.5)"><text x="27.049972534179688" y="NaN" font-family="Virgil, Segoe UI Emoji" font-size="20px" fill="#ffffff" text-anchor="middle" style="white-space: pre;" direction="ltr">Client</text></g><g stroke-linecap="round" transform="translate(330 135) rotate(0 100 45)"><path d="M-0.44 -1.86 L198.74 1.46 L201.5 91.52 L1.86 90.62" stroke="none" stroke-width="0" fill="#5c3a10"></path><path d="M0.42 -0.08 C48.82 -0.4, 96.34 -0.36, 198.47 1.71 M-0.77 -0.22 C67.45 0.17, 135.35 1.92, 199.39 -0.35 M201.71 0.14 C198.02 21.35, 200.09 42.16, 200.34 89.64 M200.34 0.27 C199.31 24.47, 198.51 47.11, 199.9 90.08 M198.74 90.68 C135.52 89.05, 74.98 92.28, 0.06 90.87 M199.48 89.3 C154.5 89.63, 111.37 88.67, -0.18 89.39 M0.86 90.54 C-2.22 69.21, -1.9 50.07, -1.48 1.31 M0.04 89.45 C0.2 70.27, -1.01 49.85, 0.18 -0.81" stroke="#f0883e" stroke-width="2" fill="none"></path></g><g transform="translate(387.3000259399414 155) rotate(0 42.699974060058594 25)"><text x="42.699974060058594" y="NaN" font-family="Virgil, Segoe UI Emoji" font-size="20px" fill="#ffffff" text-anchor="middle" style="white-space: pre;" direction="ltr">Load</text><text x="42.699974060058594" y="NaN" font-family="Virgil, Segoe UI Emoji" font-size="20px" fill="#ffffff" text-anchor="middle" style="white-space: pre;" direction="ltr">Balancer</text></g><g stroke-linecap="round" transform="translate(680 10) rotate(0 110 40)"><path d="M-1.74 1.59 L221.08 0.55 L221.27 78.36 L-1.69 78.01" stroke="none" stroke-width="0" fill="#0d2c5a"></path><path d="M-0.03 -1.55 C67.7 -2.11, 134.34 -0.58, 219.99 -0.21 M-0.77 -0.22 C49.62 -0.84, 97.45 -2.09, 219.79 0.48 M220.36 1.77 C218.65 24.83, 221.26 45.76, 219.11 79.97 M220.62 0.55 C220.36 16.58, 220.53 32.87, 220.99 79.65 M219.99 81.22 C166.89 80.79, 112.82 79.76, -1.58 79.11 M220.39 79.89 C157.5 81.3, 94.44 81.86, -0.34 79.51 M1.29 78.61 C1.05 48.03, 0.32 18.08, 0.18 -0.79 M-0.55 80.67 C0.18 62.85, -0.47 44.86, 0.83 0.46" stroke="#58a6ff" stroke-width="2" fill="none"></path></g><g transform="translate(713.4640579223633 27.5) rotate(0 76.53594207763672 22.5)"><text x="76.53594207763672" y="NaN" font-family="Virgil, Segoe UI Emoji" font-size="18px" fill="#ffffff" text-anchor="middle" style="white-space: pre;" direction="ltr">Gateway 1</text><text x="76.53594207763672" y="NaN" font-family="Virgil, Segoe UI Emoji" font-size="18px" fill="#ffffff" text-anchor="middle" style="white-space: pre;" direction="ltr">Local limit: 10/min</text></g><g stroke-linecap="round" transform="translate(680 140) rotate(0 110 40)"><path d="M0.46 1.36 L221.76 1.57 L218.07 80.81 L0.69 79.44" stroke="none" stroke-width="0" fill="#0d2c5a"></path><path d="M-0.82 -0.7 C47.64 0.52, 94.07 -1.07, 220.99 0.84 M-0.64 -0.75 C69.29 -0.29, 140.76 0.54, 220.59 0.68 M221.11 -1.74 C221.02 30.24, 220.25 58.34, 220.11 79.54 M220.42 -0.09 C220.32 30.37, 220.14 62.89, 219.48 80.34 M218.85 79.31 C172.79 82.3, 123.42 82.11, 1.1 79.92 M219.6 79.5 C153.79 78.62, 88.62 78.88, -0.76 79.59 M-0.59 78.56 C-0.6 57.39, -0.73 36.62, 0.33 -0.43 M0.85 80.24 C-1.52 50.92, 0.22 20.8, -0.27 -0.79" stroke="#58a6ff" stroke-width="2" fill="none"></path></g><g transform="translate(713.4640579223633 157.5) rotate(0 76.53594207763672 22.5)"><text x="76.53594207763672" y="NaN" font-family="Virgil, Segoe UI Emoji" font-size="18px" fill="#ffffff" text-anchor="middle" style="white-space: pre;" direction="ltr">Gateway 2</text><text x="76.53594207763672" y="NaN" font-family="Virgil, Segoe UI Emoji" font-size="18px" fill="#ffffff" text-anchor="middle" style="white-space: pre;" direction="ltr">Local limit: 10/min</text></g><g stroke-linecap="round" transform="translate(680 270) rotate(0 110 40)"><path d="M-1.31 0.21 L220.55 -1.89 L219.36 78.24 L-0.4 79" stroke="none" stroke-width="0" fill="#0d2c5a"></path><path d="M0.37 -1.29 C79.23 1.51, 156.95 -0.9, 220.77 0.34 M0.52 -0.3 C55.47 1.17, 112.03 2.57, 220.44 -0.44 M220.39 1.01 C220.93 17.2, 221.77 33.07, 218.15 81.57 M220.99 -0.57 C220.15 16.93, 219.2 33.97, 219.72 79.26 M219.25 80.34 C135.97 79.79, 53.76 81.77, 1.05 81.38 M219.47 79.27 C152.03 77.89, 86.03 77.82, 0.47 79.37 M-0.55 78.95 C-0.76 48.98, -0.77 16.59, -1.29 -0.98 M0.89 79.03 C0.56 59.35, 0.54 39.25, -0.56 -0.4" stroke="#58a6ff" stroke-width="2" fill="none"></path></g><g transform="translate(713.4640579223633 287.5) rotate(0 76.53594207763672 22.5)"><text x="76.53594207763672" y="NaN" font-family="Virgil, Segoe UI Emoji" font-size="18px" fill="#ffffff" text-anchor="middle" style="white-space: pre;" direction="ltr">Gateway 3</text><text x="76.53594207763672" y="NaN" font-family="Virgil, Segoe UI Emoji" font-size="18px" fill="#ffffff" text-anchor="middle" style="white-space: pre;" direction="ltr">Local limit: 10/min</text></g><g stroke-linecap="round" transform="translate(1050 148) rotate(0 100 32)"><path d="M-0.5 -1.17 L199.56 -1.76 L198.62 62.89 L-1.21 64.32" stroke="none" stroke-width="0" fill="#1f4d2b"></path><path d="M-1.18 1.31 C64.18 -0.27, 124.95 -2.65, 200.14 -0.41 M0.29 0.07 C78.04 1.02, 154.62 0.66, 200.14 0.56 M200.84 -1.04 C202.31 15.76, 201.86 25.67, 200.12 62.55 M200.32 -0.37 C200.65 20.2, 199.52 39.65, 200.45 63.58 M201.78 62.89 C125.12 65.35, 49.2 62.63, -0.38 65.35 M200.15 64.87 C135.85 65.28, 70.15 64.96, -0.15 64.2 M1.72 65.06 C-0.33 46, -0.9 24.39, -1.23 1.88 M-0.4 64.85 C-0.48 39.48, -1.39 14.11, 0.28 -0.67" stroke="#3fb950" stroke-width="2" fill="none"></path></g><g transform="translate(1110.3400268554688 155) rotate(0 39.65997314453125 25)"><text x="39.65997314453125" y="NaN" font-family="Virgil, Segoe UI Emoji" font-size="20px" fill="#ffffff" text-anchor="middle" style="white-space: pre;" direction="ltr">Backend</text><text x="39.65997314453125" y="NaN" font-family="Virgil, Segoe UI Emoji" font-size="20px" fill="#ffffff" text-anchor="middle" style="white-space: pre;" direction="ltr">Service</text></g><g stroke-linecap="round"><g transform="translate(216 180.00653) rotate(0 54 0.001169999999987681)"><path d="M0.34 0.75 C18.47 0.57, 89.71 -0.49, 107.82 -0.74 M-0.95 0.09 C17.1 0.03, 88.49 0.39, 106.78 0.4" stroke="#3fb950" stroke-width="2" fill="none"></path></g><g transform="translate(216 180.00653) rotate(0 54 0.001169999999987681)"><path d="M79.8 10.28 C83.42 9.97, 89.52 7.52, 108.54 -1.12 M78.9 10.46 C88.22 7.21, 98.61 3.44, 106.22 0.67" stroke="#3fb950" stroke-width="2" fill="none"></path></g><g transform="translate(216 180.00653) rotate(0 54 0.001169999999987681)"><path d="M79.86 -10.24 C83.52 -6.09, 89.61 -4.08, 108.54 -1.12 M78.97 -10.06 C88.1 -6.28, 98.47 -3.02, 106.22 0.67" stroke="#3fb950" stroke-width="2" fill="none"></path></g></g><g stroke-linecap="round"><g transform="translate(536 174.80895999999993) rotate(0 69 -59.800459999999944)"><path d="M0.65 -0.68 C23.58 -20.77, 115.57 -100.41, 138.5 -120.37 M-0.46 1.57 C22.27 -18.39, 114.8 -99.05, 137.81 -119.24" stroke="#58a6ff" stroke-width="2" fill="none"></path></g><g transform="translate(536 174.80895999999993) rotate(0 69 -59.800459999999944)"><path d="M122.2 -92.13 C127.52 -102.61, 132.86 -112.66, 135.92 -119.36 M124.23 -93.86 C128.76 -101.88, 132.73 -111.26, 138.27 -119.19" stroke="#58a6ff" stroke-width="2" fill="none"></path></g><g transform="translate(536 174.80895999999993) rotate(0 69 -59.800459999999944)"><path d="M108.69 -107.58 C119.15 -112.28, 129.61 -116.47, 135.92 -119.36 M110.73 -109.31 C120.14 -111.88, 128.91 -115.76, 138.27 -119.19" stroke="#58a6ff" stroke-width="2" fill="none"></path></g></g><g stroke-linecap="round"><g transform="translate(536 180.00896000000003) rotate(0 69 -0.0004600000000181126)"><path d="M0.08 -0.01 C23.05 0.05, 115.73 0.74, 138.68 0.6 M-1.34 -1.06 C21.46 -1.37, 115.05 -1.38, 138.09 -1.21" stroke="#58a6ff" stroke-width="2" fill="none"></path></g><g transform="translate(536 180.00896000000003) rotate(0 69 -0.0004600000000181126)"><path d="M109.85 10.1 C121.26 4.84, 129.22 1.24, 138.38 -2.9 M110 8.26 C121.44 4.14, 132.12 2.04, 138.1 -1.25" stroke="#58a6ff" stroke-width="2" fill="none"></path></g><g transform="translate(536 180.00896000000003) rotate(0 69 -0.0004600000000181126)"><path d="M109.91 -10.42 C121.33 -8.12, 129.27 -4.15, 138.38 -2.9 M110.06 -12.26 C121.28 -8.48, 131.95 -2.66, 138.1 -1.25" stroke="#58a6ff" stroke-width="2" fill="none"></path></g></g><g stroke-linecap="round"><g transform="translate(536 185.20896) rotate(0 69 59.79954000000001)"><path d="M0.14 0.68 C22.94 20.77, 114.68 100.15, 137.58 119.85 M-1.24 -0.01 C21.29 19.76, 113.45 97.88, 136.41 117.86" stroke="#58a6ff" stroke-width="2" fill="none"></path></g><g transform="translate(536 185.20896) rotate(0 69 59.79954000000001)"><path d="M109.47 106.6 C118.98 110.39, 127.7 116.09, 134.73 115.91 M108.11 108.27 C117.28 110.57, 125.76 114.02, 135.76 117.16" stroke="#58a6ff" stroke-width="2" fill="none"></path></g><g transform="translate(536 185.20896) rotate(0 69 59.79954000000001)"><path d="M122.83 91.02 C127.36 100.53, 131.18 111.94, 134.73 115.91 M121.47 92.7 C126.31 99.92, 130.49 108.38, 135.76 117.16" stroke="#58a6ff" stroke-width="2" fill="none"></path></g></g><g stroke-linecap="round"><g transform="translate(906 55.20793600000006) rotate(0 69 59.799264)"><path d="M0.89 -0.32 C23.86 19.34, 115.55 98.88, 138.5 118.96 M-0.11 -1.53 C22.69 18.19, 114.77 100.23, 137.81 120.15" stroke="#3fb950" stroke-width="2" fill="none"></path></g><g transform="translate(906 55.20793600000006) rotate(0 69 59.799264)"><path d="M109.33 110.07 C118.81 113.87, 130.67 115.49, 136.8 121.2 M110.34 110.23 C116.34 112.34, 122.61 114.12, 137.07 120.31" stroke="#3fb950" stroke-width="2" fill="none"></path></g><g transform="translate(906 55.20793600000006) rotate(0 69 59.799264)"><path d="M122.88 94.66 C127.67 104.04, 134.72 111.13, 136.8 121.2 M123.9 94.82 C126.63 100.71, 129.61 106.22, 137.07 120.31" stroke="#3fb950" stroke-width="2" fill="none"></path></g></g><g stroke-linecap="round"><g transform="translate(906 180.007936) rotate(0 69 -0.0007360000000176115)"><path d="M-0.33 0.93 C22.69 0.83, 115.21 -0.21, 138.25 -0.21 M1.7 0.37 C24.57 0.43, 114.86 1.43, 137.44 1.23" stroke="#3fb950" stroke-width="2" fill="none"></path></g><g transform="translate(906 180.007936) rotate(0 69 -0.0007360000000176115)"><path d="M110.77 11.84 C117.65 8.23, 128.41 3.51, 138.8 3.16 M109.9 10.77 C115.06 10.22, 121.5 7.12, 138.01 1.6" stroke="#3fb950" stroke-width="2" fill="none"></path></g><g transform="translate(906 180.007936) rotate(0 69 -0.0007360000000176115)"><path d="M110.82 -8.68 C117.75 -5.89, 128.49 -4.21, 138.8 3.16 M109.94 -9.75 C115.14 -6.01, 121.57 -4.81, 138.01 1.6" stroke="#3fb950" stroke-width="2" fill="none"></path></g></g><g stroke-linecap="round"><g transform="translate(906 304.8079359999999) rotate(0 69 -59.80073599999993)"><path d="M-1.18 0.91 C21.86 -19.24, 115.31 -100.73, 138.46 -120.71 M0.4 0.35 C23.3 -19.71, 115.01 -99.54, 137.76 -119.75" stroke="#3fb950" stroke-width="2" fill="none"></path></g><g transform="translate(906 304.8079359999999) rotate(0 69 -59.80073599999993)"><path d="M124.87 -92.67 C126.03 -102.07, 133.57 -110.98, 136.34 -119.21 M123.45 -94.24 C126.51 -98.84, 129.94 -106.09, 138.33 -120.38" stroke="#3fb950" stroke-width="2" fill="none"></path></g><g transform="translate(906 304.8079359999999) rotate(0 69 -59.80073599999993)"><path d="M111.33 -108.09 C116.82 -112.46, 128.65 -116.47, 136.34 -119.21 M109.91 -109.66 C116.27 -110.67, 122.85 -114.32, 138.33 -120.38" stroke="#3fb950" stroke-width="2" fill="none"></path></g></g><g stroke-opacity="0.7" fill-opacity="0.7" transform="translate(650 390) rotate(0 86.85893249511719 33.75)"><text x="0" y="NaN" font-family="Virgil, Segoe UI Emoji" font-size="18px" fill="#8b949e" text-anchor="start" style="white-space: pre;" direction="ltr">Global limit: 100/min</text><text x="0" y="NaN" font-family="Virgil, Segoe UI Emoji" font-size="18px" fill="#8b949e" text-anchor="start" style="white-space: pre;" direction="ltr">Instances: 10</text><text x="0" y="NaN" font-family="Virgil, Segoe UI Emoji" font-size="18px" fill="#8b949e" text-anchor="start" style="white-space: pre;" direction="ltr">Per-instance: 10/min</text></g><g stroke-opacity="0.7" fill-opacity="0.7" transform="translate(723.3200454711914 120) rotate(0 66.6799545288086 10)"><text x="66.6799545288086" y="NaN" font-family="Virgil, Segoe UI Emoji" font-size="16px" fill="#8b949e" text-anchor="middle" style="white-space: pre;" direction="ltr">No shared state</text></g></svg>