<svg version="1.1" xmlns="http://www.w3.org/2000/svg" viewBox="0 0 1260 560.319286465638" width="1260" height="560.319286465638">
  <!-- svg-source:excalidraw -->
  
  <defs>
    <style>
      @font-face {
        font-family: "Virgil";
        src: url("https://excalidraw.com/Virgil.woff2");
      }
      @font-face {
        font-family: "Cascadia";
        src: url("https://excalidraw.com/Cascadia.woff2");
      }
    </style>
  </defs>
  <rect x="0" y="0" width="1260" height="560.319286465638" fill="#0d1117"></rect><g stroke-linecap="round" transform="translate(10 207.76989340296296) rotate(0 100 32)"><path d="M-0.38 0.25 L198.3 -1.72 L199.91 62.52 L-0.88 62.2" stroke="none" stroke-width="0" fill="#1f4d2b"></path><path d="M1.38 0.06 C58.04 -0.91, 117.82 -2.88, 201.06 0.52 M0.68 0.8 C79.3 1.12, 158.03 1.57, 200.74 -0.58 M199.07 0.37 C199.43 23.76, 199.64 52.25, 200.38 63.35 M200.37 0.72 C199.52 22.03, 200.36 43.32, 200.02 63.33 M199.64 62.57 C152.82 65.13, 108.93 66.04, 0.46 62.27 M200.19 64.63 C141.33 64.89, 81.39 65.15, -0.28 64.45 M0.62 62.27 C-0.08 43.25, 1.49 22.85, 0.05 1.63 M0.02 64.97 C0.76 42.49, 0.83 18.56, -0.87 -0.7" stroke="#3fb950" stroke-width="2" fill="none"></path></g><g transform="translate(82.95002746582031 227.26989340296296) rotate(0 27.049972534179688 12.5)"><text x="27.049972534179688" y="NaN" font-family="Virgil, Segoe UI Emoji" font-size="20px" fill="#ffffff" text-anchor="middle" style="white-space: pre;" direction="ltr">Client</text></g><g stroke-linecap="round" transform="translate(330 194.76989340296296) rotate(0 100 45)"><path d="M1.79 1.1 L201.5 0.35 L199.74 90.19 L0.82 88.89" stroke="none" stroke-width="0" fill="#5c3a10"></path><path d="M1.11 1.65 C78.42 -0.8, 159.82 -0.44, 200.58 0.13 M0.75 0.59 C64.7 1.96, 128.17 0.61, 200.6 0.86 M198.12 1.15 C199.37 25.64, 198.44 50.46, 199.76 88.1 M199.31 0.65 C199.55 30.19, 199.43 62.04, 200.53 90.32 M199.72 91.41 C128.46 86.81, 52.38 89.81, -0.06 91.16 M200.8 90.16 C136.48 90.34, 72.64 89.59, -0.35 89.31 M0.88 91.91 C1.15 53.86, -0.4 22.04, -0.09 0.67 M-0.5 89.19 C-0.44 69.32, -0.53 48.65, -0.87 0.88" stroke="#f0883e" stroke-width="2" fill="none"></path></g><g transform="translate(387.3000259399414 214.76989340296296) rotate(0 42.699974060058594 25)"><text x="42.699974060058594" y="NaN" font-family="Virgil, Segoe UI Emoji" font-size="20px" fill="#ffffff" text-anchor="middle" style="white-space: pre;" direction="ltr">Load</text><text x="42.699974060058594" y="NaN" font-family="Virgil, Segoe UI Emoji" font-size="20px" fill="#ffffff" text-anchor="middle" style="white-space: pre;" direction="ltr">Balancer</text></g><g stroke-linecap="round" transform="translate(677.5414770640925 10) rotate(0 110 40)"><path d="M0.49 0.55 L219.84 -0.56 L219.52 81.03 L1.27 80.29" stroke="none" stroke-width="0" fill="#0d2c5a"></path><path d="M0.64 0.11 C56.56 1.11, 116.16 -0.52, 218.55 -1.73 M0.69 0.56 C46.56 -0.81, 91.44 -1.57, 219.22 -0.09 M220.77 -1.22 C219.96 24.81, 219.58 49.44, 218.53 78.43 M219.59 0.93 C218.9 21.51, 219.75 44.23, 219.61 79.89 M220.94 78.46 C155.26 78.42, 88.33 77.17, -1.69 79.39 M219.94 80.73 C135.76 80.04, 51.84 79.07, -0.5 79.43 M1.31 79.99 C0.34 50.35, 1.74 25.41, 1.57 -1.43 M0.91 80.42 C1.22 61.89, -0.3 45.63, -0.22 0.15" stroke="#58a6ff" stroke-width="2" fill="none"></path></g><g transform="translate(717.242511609991 27.5) rotate(0 70.29896545410156 22.5)"><text x="70.29896545410156" y="NaN" font-family="Virgil, Segoe UI Emoji" font-size="18px" fill="#ffffff" text-anchor="middle" style="white-space: pre;" direction="ltr">Gateway 1</text><text x="70.29896545410156" y="NaN" font-family="Virgil, Segoe UI Emoji" font-size="18px" fill="#ffffff" text-anchor="middle" style="white-space: pre;" direction="ltr">Local count: 40</text></g><g stroke-linecap="round" transform="translate(680 199.76989340296296) rotate(0 110 40)"><path d="M-1.31 0.32 L220.52 0.47 L220.31 79.48 L-0.35 81.72" stroke="none" stroke-width="0" fill="#0d2c5a"></path><path d="M-0.15 0.97 C80.49 0.27, 163.89 2.46, 219.56 -0.69 M0.82 0.03 C66.22 -0.26, 133.01 1.06, 220.02 0.11 M221.52 -0.73 C218.34 30.22, 218.57 62.02, 219.53 78.01 M219.39 0.28 C220.47 21.3, 220.95 44.25, 220.1 80.58 M219.8 80.01 C161.16 79.93, 102.39 79.52, 0.98 80.19 M219.15 80.34 C133.78 79.44, 46.01 79.9, 0.81 79.51 M-0.58 79.94 C1.08 59.71, -0.91 43.95, 1.72 -1.07 M0.3 79.99 C-0.48 49.95, 0.39 21.58, 0.68 0.91" stroke="#58a6ff" stroke-width="2" fill="none"></path></g><g transform="translate(719.962028503418 217.26989340296296) rotate(0 70.03797149658203 22.5)"><text x="70.03797149658203" y="NaN" font-family="Virgil, Segoe UI Emoji" font-size="18px" fill="#ffffff" text-anchor="middle" style="white-space: pre;" direction="ltr">Gateway 2</text><text x="70.03797149658203" y="NaN" font-family="Virgil, Segoe UI Emoji" font-size="18px" fill="#ffffff" text-anchor="middle" style="white-space: pre;" direction="ltr">Local count: 35</text></g><g stroke-linecap="round" transform="translate(683.5965181914426 407.22245810646706) rotate(0 110 40)"><path d="M0.92 -0.83 L219.31 1.01 L221.61 80.91 L-1.44 81.28" stroke="none" stroke-width="0" fill="#0d2c5a"></path><path d="M1.04 0.37 C71.55 1.26, 138.78 2.62, 219.34 -1.18 M0.24 0.47 C52.4 -0.88, 106.02 -0.72, 219.88 0.72 M220.8 -1.98 C222.25 21.18, 220.1 36.75, 221.57 80.03 M219.97 -0.2 C220.29 23.86, 220.02 45.33, 220.34 79.5 M220.19 81.04 C168.33 77.42, 117.27 79.18, 0.94 81.66 M220.75 80.1 C176.02 80.44, 131.42 80.58, 0.31 79.29 M-0.53 80.33 C-1.47 51.29, 0.65 23.92, 0.1 -1.62 M0.34 80.78 C0.01 60.38, -0.9 40.03, 0.39 -0.71" stroke="#58a6ff" stroke-width="2" fill="none"></path></g><g transform="translate(723.2795473662472 424.72245810646706) rotate(0 70.31697082519531 22.5)"><text x="70.31697082519531" y="NaN" font-family="Virgil, Segoe UI Emoji" font-size="18px" fill="#ffffff" text-anchor="middle" style="white-space: pre;" direction="ltr">Gateway 3</text><text x="70.31697082519531" y="NaN" font-family="Virgil, Segoe UI Emoji" font-size="18px" fill="#ffffff" text-anchor="middle" style="white-space: pre;" direction="ltr">Local count: 25</text></g><g stroke-linecap="round" transform="translate(1050 207.76989340296296) rotate(0 100 32)"><path d="M1.73 1.79 L198.32 1.14 L200.86 65.56 L1.75 62.59" stroke="none" stroke-width="0" fill="#1f4d2b"></path><path d="M-0.48 -0.56 C53.78 -0.66, 108.42 0.87, 198.65 1.61 M0 0.88 C75.29 1, 149.23 1.16, 199.55 -0.04 M201.25 -0.03 C199.57 15.25, 200.14 32.37, 199.54 65.01 M199.29 0.01 C199.36 23.87, 198.9 48.49, 199.07 63.82 M199.17 63.62 C154.46 66.71, 110.19 63.75, -0.49 65.63 M199.68 63.93 C156.03 62.39, 111.41 62.27, -0.32 64.12 M1.74 62.44 C-1.17 47.79, 0.39 26.68, 0.17 1.24 M-0.95 64.59 C0.38 38.5, 0.59 12.85, -0.77 -0.98" stroke="#3fb950" stroke-width="2" fill="none"></path></g><g transform="translate(1110.3400268554688 214.76989340296296) rotate(0 39.65997314453125 25)"><text x="39.65997314453125" y="NaN" font-family="Virgil, Segoe UI Emoji" font-size="20px" fill="#ffffff" text-anchor="middle" style="white-space: pre;" direction="ltr">Backend</text><text x="39.65997314453125" y="NaN" font-family="Virgil, Segoe UI Emoji" font-size="20px" fill="#ffffff" text-anchor="middle" style="white-space: pre;" direction="ltr">Service</text></g><g stroke-linecap="round"><g transform="translate(216 239.77642340296296) rotate(0 54 0.001169999999987681)"><path d="M-0.62 -1.19 C17.39 -1.15, 90.9 0.16, 108.97 0.23 M1.26 0.8 C19.12 0.45, 90.93 -1.67, 108.54 -1.78" stroke="#3fb950" stroke-width="2" fill="none"></path></g><g transform="translate(216 239.77642340296296) rotate(0 54 0.001169999999987681)"><path d="M78.57 10.65 C91.45 4.76, 100.31 0.81, 108.65 -1.05 M80.58 9.81 C89.98 5.18, 98.3 1.92, 109.33 -2.17" stroke="#3fb950" stroke-width="2" fill="none"></path></g><g transform="translate(216 239.77642340296296) rotate(0 54 0.001169999999987681)"><path d="M78.17 -9.86 C91.2 -8.03, 100.21 -4.27, 108.65 -1.05 M80.18 -10.71 C89.6 -8.61, 98.05 -5.16, 109.33 -2.17" stroke="#3fb950" stroke-width="2" fill="none"></path></g></g><g stroke-linecap="round"><g transform="translate(536 232.06156954884995) rotate(0 67.77073853204632 -87.16812284736854)"><path d="M-0.3 -0.22 C22.09 -29.21, 112.32 -144.97, 134.79 -174.14 M1.75 -1.38 C24.48 -30.74, 114.58 -147.33, 137.11 -176.15" stroke="#58a6ff" stroke-width="2" fill="none"></path></g><g transform="translate(536 232.06156954884995) rotate(0 67.77073853204632 -87.16812284736854)"><path d="M127.56 -148.84 C131.41 -158.86, 132.73 -168.24, 137.57 -178.03 M128.49 -147.6 C131.53 -157.36, 133.91 -166.55, 136.92 -176.77" stroke="#58a6ff" stroke-width="2" fill="none"></path></g><g transform="translate(536 232.06156954884995) rotate(0 67.77073853204632 -87.16812284736854)"><path d="M111.35 -161.43 C120.66 -167.16, 127.46 -172.28, 137.57 -178.03 M112.29 -160.18 C120.94 -165.67, 128.84 -170.57, 136.92 -176.77" stroke="#58a6ff" stroke-width="2" fill="none"></path></g></g><g stroke-linecap="round"><g transform="translate(536 239.778853402963) rotate(0 69 -0.0004600000000181126)"><path d="M-0.88 0.45 C21.97 0.33, 114.12 -0.61, 137.43 -0.83 M0.87 -0.36 C23.48 -0.33, 113.21 0.22, 136.18 0.28" stroke="#58a6ff" stroke-width="2" fill="none"></path></g><g transform="translate(536 239.778853402963) rotate(0 69 -0.0004600000000181126)"><path d="M108.7 9.46 C115.83 8.9, 124.99 2.09, 134.82 0.83 M107.76 10.6 C119.36 7.31, 128.06 3.96, 135.55 -0.43" stroke="#58a6ff" stroke-width="2" fill="none"></path></g><g transform="translate(536 239.778853402963) rotate(0 69 -0.0004600000000181126)"><path d="M108.79 -11.06 C115.87 -4.9, 125.01 -4.99, 134.82 0.83 M107.86 -9.92 C119.28 -5.61, 127.95 -1.37, 135.55 -0.43" stroke="#58a6ff" stroke-width="2" fill="none"></path></g></g><g stroke-linecap="round"><g transform="translate(536 247.88265384543342) rotate(0 70.79825909572128 95.6220219092815)"><path d="M-0.81 1.14 C22.86 32.99, 118.47 158.5, 142.33 190.07 M0.97 0.7 C24.52 32.74, 118.27 159.19, 141.76 190.99" stroke="#58a6ff" stroke-width="2" fill="none"></path></g><g transform="translate(536 247.88265384543342) rotate(0 70.79825909572128 95.6220219092815)"><path d="M118.65 175.66 C122.78 181.21, 131.71 184.77, 142.43 191.28 M116.2 174.3 C124.65 178.92, 132.2 184.62, 142.46 191.62" stroke="#58a6ff" stroke-width="2" fill="none"></path></g><g transform="translate(536 247.88265384543342) rotate(0 70.79825909572128 95.6220219092815)"><path d="M135.15 163.45 C133.81 172.85, 137.38 180.39, 142.43 191.28 M132.7 162.1 C136.09 170.31, 138.58 179.75, 142.46 191.62" stroke="#58a6ff" stroke-width="2" fill="none"></path></g></g><g stroke-linecap="round"><g transform="translate(903.5414770640926 57.476324751489486) rotate(0 70.22926146795368 87.41582194999197)"><path d="M-0.07 0.14 C23.19 29.23, 116.39 145.96, 139.71 175.16 M-1.56 -0.83 C22.07 27.82, 118.65 144.2, 142.02 173.21" stroke="#3fb950" stroke-width="2" fill="none"></path></g><g transform="translate(903.5414770640926 57.476324751489486) rotate(0 70.22926146795368 87.41582194999197)"><path d="M116.46 156.66 C124.95 161.66, 133.35 168.56, 143.36 172.5 M116.38 157.79 C122.13 161.41, 127.91 164.58, 142.64 172.7" stroke="#3fb950" stroke-width="2" fill="none"></path></g><g transform="translate(903.5414770640926 57.476324751489486) rotate(0 70.22926146795368 87.41582194999197)"><path d="M132.33 143.65 C135.91 152.72, 139.33 163.71, 143.36 172.5 M132.25 144.78 C134.44 151.37, 136.62 157.5, 142.64 172.7" stroke="#3fb950" stroke-width="2" fill="none"></path></g></g><g stroke-linecap="round"><g transform="translate(906 239.77782940296296) rotate(0 69 -0.0007360000000176115)"><path d="M1.12 -1.01 C24.01 -0.89, 114 0.44, 137 0.77 M0.24 1.08 C23.53 0.86, 116.08 -0.63, 139.19 -0.95" stroke="#3fb950" stroke-width="2" fill="none"></path></g><g transform="translate(906 239.77782940296296) rotate(0 69 -0.0007360000000176115)"><path d="M109.48 8.07 C120.03 8.46, 127.93 4.38, 138.9 -0.77 M111.52 9.97 C122.41 6.02, 132.42 1.41, 139.12 -1.24" stroke="#3fb950" stroke-width="2" fill="none"></path></g><g transform="translate(906 239.77782940296296) rotate(0 69 -0.0007360000000176115)"><path d="M109.17 -12.45 C119.81 -6.51, 127.8 -5.03, 138.9 -0.77 M111.21 -10.54 C122.31 -6.41, 132.45 -2.93, 139.12 -1.24" stroke="#3fb950" stroke-width="2" fill="none"></path></g></g><g stroke-linecap="round"><g transform="translate(909.5965181914426 438.72844044374045) rotate(0 67.20174090427872 -95.22506468902547)"><path d="M0.27 -1.02 C22.58 -32.77, 111.1 -159.12, 133.62 -190.59 M-1.05 1.05 C21.67 -30.49, 113.23 -156.98, 135.92 -189.12" stroke="#3fb950" stroke-width="2" fill="none"></path></g><g transform="translate(909.5965181914426 438.72844044374045) rotate(0 67.20174090427872 -95.22506468902547)"><path d="M126.14 -161.54 C129.88 -166.67, 133.43 -174.86, 136.85 -190.34 M127.63 -160.13 C130.19 -166.27, 132.45 -173.13, 135.84 -188.41" stroke="#3fb950" stroke-width="2" fill="none"></path></g><g transform="translate(909.5965181914426 438.72844044374045) rotate(0 67.20174090427872 -95.22506468902547)"><path d="M109.46 -173.48 C117.79 -175.35, 125.96 -180.24, 136.85 -190.34 M110.95 -172.08 C117.04 -175.57, 122.93 -179.82, 135.84 -188.41" stroke="#3fb950" stroke-width="2" fill="none"></path></g></g><g stroke-linecap="round"><g transform="translate(787.6978594266706 95.99999999999999) rotate(0 1.0948791053755258 48.884946701481475)"><path d="M-1.02 0.61 C-0.53 16.66, 1.97 80.39, 2.59 96.67" stroke="#f0883e" stroke-width="2.5" fill="none" stroke-dasharray="8 10"></path></g><g transform="translate(787.6978594266706 95.99999999999999) rotate(0 1.0948791053755258 48.884946701481475)"><path d="M11.29 29.06 C5.29 21.62, 4.86 12.48, -1.33 2.13" stroke="#f0883e" stroke-width="2.5" fill="none"></path></g><g transform="translate(787.6978594266706 95.99999999999999) rotate(0 1.0948791053755258 48.884946701481475)"><path d="M-9.22 29.83 C-9.63 22.34, -4.46 13.01, -1.33 2.13" stroke="#f0883e" stroke-width="2.5" fill="none"></path></g><g transform="translate(787.6978594266706 95.99999999999999) rotate(0 1.0948791053755258 48.884946701481475)"><path d="M-7.74 69.56 C-7.41 77.46, -1.66 83.49, 2.28 98.2" stroke="#f0883e" stroke-width="2.5" fill="none"></path></g><g transform="translate(787.6978594266706 95.99999999999999) rotate(0 1.0948791053755258 48.884946701481475)"><path d="M12.76 68.77 C7.5 76.71, 7.66 82.95, 2.28 98.2" stroke="#f0883e" stroke-width="2.5" fill="none"></path></g></g><g transform="translate(764.8720245361328 158.76989340296296) rotate(0 25.127975463867188 10)"><text x="25.127975463867188" y="NaN" font-family="Virgil, Segoe UI Emoji" font-size="16px" fill="#f0883e" text-anchor="middle" style="white-space: pre;" direction="ltr">Gossip</text></g><g stroke-linecap="round"><g transform="translate(790.1913109055815 285.76989340296296) rotate(0 1.6289481901395675 57.72628235175202)"><path d="M-0.53 0.38 C0.3 19.74, 3.75 97.33, 4.19 116.33" stroke="#f0883e" stroke-width="2.5" fill="none" stroke-dasharray="8 10"></path></g><g transform="translate(790.1913109055815 285.76989340296296) rotate(0 1.6289481901395675 57.72628235175202)"><path d="M11.56 29.66 C9.69 19.67, 3.82 17.16, -1.29 -1.45" stroke="#f0883e" stroke-width="2.5" fill="none"></path></g><g transform="translate(790.1913109055815 285.76989340296296) rotate(0 1.6289481901395675 57.72628235175202)"><path d="M-8.94 30.54 C-6.07 20.43, -7.19 17.72, -1.29 -1.45" stroke="#f0883e" stroke-width="2.5" fill="none"></path></g><g transform="translate(790.1913109055815 285.76989340296296) rotate(0 1.6289481901395675 57.72628235175202)"><path d="M-6.42 90.07 C-2.94 93.04, -3.55 103.38, 3.43 114.5" stroke="#f0883e" stroke-width="2.5" fill="none"></path></g><g transform="translate(790.1913109055815 285.76989340296296) rotate(0 1.6289481901395675 57.72628235175202)"><path d="M14.09 89.35 C12.82 92.39, 7.46 102.9, 3.43 114.5" stroke="#f0883e" stroke-width="2.5" fill="none"></path></g></g><g transform="translate(764.8720245361328 298.76989340296296) rotate(0 25.127975463867188 10)"><text x="25.127975463867188" y="NaN" font-family="Virgil, Segoe UI Emoji" font-size="16px" fill="#f0883e" text-anchor="middle" style="white-space: pre;" direction="ltr">Gossip</text></g><g stroke-linecap="round"><g transform="translate(883.6134706665047 87.92915615260716) rotate(0 30.953443086938137 160.9547250903859)"><path d="M-0.04 0.16 C9.94 30.45, 59.84 128.23, 60.97 181.82 C62.1 235.42, 15.65 298.49, 6.74 321.71" stroke="#f0883e" stroke-width="2.5" fill="none" stroke-dasharray="8 10"></path></g><g transform="translate(883.6134706665047 87.92915615260716) rotate(0 30.953443086938137 160.9547250903859)"><path d="M20.13 21.04 C12.85 13, 3.99 5.61, -1.24 -1.04" stroke="#f0883e" stroke-width="2.5" fill="none"></path></g><g transform="translate(883.6134706665047 87.92915615260716) rotate(0 30.953443086938137 160.9547250903859)"><path d="M1.05 28.59 C1.2 17.61, -0.21 7.27, -1.24 -1.04" stroke="#f0883e" stroke-width="2.5" fill="none"></path></g><g transform="translate(883.6134706665047 87.92915615260716) rotate(0 30.953443086938137 160.9547250903859)"><path d="M10.98 290.41 C9.95 302.74, 7.31 315.71, 5.54 320.51" stroke="#f0883e" stroke-width="2.5" fill="none"></path></g><g transform="translate(883.6134706665047 87.92915615260716) rotate(0 30.953443086938137 160.9547250903859)"><path d="M29.16 299.92 C21.04 308.53, 11.3 317.79, 5.54 320.51" stroke="#f0883e" stroke-width="2.5" fill="none"></path></g></g><g transform="translate(644.8720245361328 228.76989340296296) rotate(0 25.127975463867188 10)"><text x="25.127975463867188" y="NaN" font-family="Virgil, Segoe UI Emoji" font-size="16px" fill="#f0883e" text-anchor="middle" style="white-space: pre;" direction="ltr">Gossip</text></g><g stroke-opacity="0.7" fill-opacity="0.7" transform="translate(698.7738328432923 505.3192864656381) rotate(0 94.23895263671875 22.5)"><text x="0" y="NaN" font-family="Virgil, Segoe UI Emoji" font-size="18px" fill="#8b949e" text-anchor="start" style="white-space: pre;" direction="ltr">Estimated global:</text><text x="0" y="NaN" font-family="Virgil, Segoe UI Emoji" font-size="18px" fill="#8b949e" text-anchor="start" style="white-space: pre;" direction="ltr">40 + 35 + 25 = 100</text></g></svg>