<svg version="1.1" xmlns="http://www.w3.org/2000/svg" viewBox="0 0 2072 775" width="2072" height="775">
  <!-- svg-source:excalidraw -->
  
  <defs>
    <style>
      @font-face {
        font-family: "Virgil";
        src: url("https://excalidraw.com/Virgil.woff2");
      }
      @font-face {
        font-family: "Cascadia";
        src: url("https://excalidraw.com/Cascadia.woff2");
      }
    </style>
  </defs>
  <rect x="0" y="0" width="2072" height="775" fill="#0d1117"></rect><g transform="translate(10 10) rotate(0 450 20)"><text x="0" y="NaN" font-family="Virgil, Segoe UI Emoji" font-size="32px" fill="#ff8c42" text-anchor="start" style="white-space: pre;" direction="ltr">Tags lie. Digests don't.</text></g><g transform="translate(10 53) rotate(0 990.5 11.5)"><text x="0" y="NaN" font-family="Virgil, Segoe UI Emoji" font-size="19px" fill="#c9d1d9" text-anchor="start" style="white-space: pre;" direction="ltr">Same label, two different hosts, two different days → two different sets of bytes in production. The cryptographic hash is the only identity that holds.</text></g><g stroke-linecap="round"><g transform="translate(260 165) rotate(0 590 0)"><path d="M0.01 -1.15 C196.54 -1.09, 983.7 -0.88, 1180.32 -0.48 M-1.44 0.86 C194.85 1.15, 982.83 1.03, 1179.54 0.8" stroke="#8b949e" stroke-width="1" fill="none"></path></g></g><g transform="translate(250 137) rotate(0 40 11)"><text x="0" y="NaN" font-family="Virgil, Segoe UI Emoji" font-size="18px" fill="#e6edf3" text-anchor="start" style="white-space: pre;" direction="ltr">Mon</text></g><g transform="translate(250 173) rotate(0 113 9)"><text x="0" y="NaN" font-family="Virgil, Segoe UI Emoji" font-size="15px" fill="#8b949e" text-anchor="start" style="white-space: pre;" direction="ltr">build 'v2.4.1' pushed</text></g><g transform="translate(825 137) rotate(0 60 11)"><text x="0" y="NaN" font-family="Virgil, Segoe UI Emoji" font-size="18px" fill="#f85149" text-anchor="start" style="white-space: pre;" direction="ltr">Wed</text></g><g transform="translate(820 173) rotate(0 138.5 18.5)"><text x="0" y="NaN" font-family="Virgil, Segoe UI Emoji" font-size="15px" fill="#f85149" text-anchor="start" style="white-space: pre;" direction="ltr">someone re-pushes 'v2.4.1'</text><text x="0" y="NaN" font-family="Virgil, Segoe UI Emoji" font-size="15px" fill="#f85149" text-anchor="start" style="white-space: pre;" direction="ltr">(unrelated build)</text></g><g transform="translate(1410 137) rotate(0 30 11)"><text x="0" y="NaN" font-family="Virgil, Segoe UI Emoji" font-size="18px" fill="#e6edf3" text-anchor="start" style="white-space: pre;" direction="ltr">Fri</text></g><g transform="translate(1360 173) rotate(0 60 9)"><text x="0" y="NaN" font-family="Virgil, Segoe UI Emoji" font-size="15px" fill="#f85149" text-anchor="start" style="white-space: pre;" direction="ltr">incident</text></g><g stroke-linecap="round"><g transform="translate(260 159) rotate(0 0 6)"><path d="M-0.46 0.87 C-0.63 2.64, -1.28 9.25, -1.06 11.25 M1.5 0.28 C1.69 2.13, 1.25 10.61, 1.09 12.4" stroke="#8b949e" stroke-width="2" fill="none"></path></g></g><g stroke-linecap="round"><g transform="translate(850 159) rotate(0 0 6)"><path d="M-0.18 -0.03 C-0.42 1.96, -0.36 10.22, -0.45 12.26 M-1.73 -1.09 C-2.25 0.48, -2.22 7.82, -1.64 10.27" stroke="#8b949e" stroke-width="2" fill="none"></path></g></g><g stroke-linecap="round"><g transform="translate(1440 159) rotate(0 0 6)"><path d="M1 1.02 C1.11 2.72, 0.83 9.51, 0.53 11.19 M0.07 0.51 C0.08 2.26, -0.4 10.4, -0.15 12.31" stroke="#8b949e" stroke-width="2" fill="none"></path></g></g><g transform="translate(10 273) rotate(0 150 15)"><text x="0" y="NaN" font-family="Virgil, Segoe UI Emoji" font-size="24px" fill="#f85149" text-anchor="start" style="white-space: pre;" direction="ltr">Pull by TAG</text></g><g transform="translate(10 307) rotate(0 100 20)"><text x="0" y="NaN" font-family="Virgil, Segoe UI Emoji" font-size="16px" fill="#8b949e" text-anchor="start" style="white-space: pre;" direction="ltr">myservice:2.4.1</text><text x="0" y="NaN" font-family="Virgil, Segoe UI Emoji" font-size="16px" fill="#8b949e" text-anchor="start" style="white-space: pre;" direction="ltr">(mutable pointer)</text></g><g stroke-linecap="round" transform="translate(290 265) rotate(0 100 40)"><path d="M0.53 0.07 L201.47 -1.75 L200.83 78.68 L0.2 78.57" stroke="none" stroke-width="0" fill="#21262d"></path><path d="M1.55 1.12 C68.73 0.31, 138.56 0.04, 198.79 1.3 M0.02 -0.21 C50.36 1.86, 99.33 1.35, 200.19 -0.09 M201.04 -1.91 C199.52 23.29, 201.03 48.79, 200.28 78.99 M200.76 -0.75 C198.72 20.57, 198.88 40.86, 200.19 80.75 M200.9 80.81 C136.89 81.91, 73.81 80.69, -0.01 78.66 M199.79 79.19 C159.67 81.94, 117.83 80.35, -0.71 80.12 M0.97 79.96 C0.1 48.74, 0.29 15.22, -1.79 0.46 M-0.61 80.31 C-0.02 64.01, 0.11 46.96, 0.98 0.08" stroke="#8b949e" stroke-width="2" fill="none"></path></g><g transform="translate(290 265) rotate(0 100 40)"><text x="100" y="NaN" font-family="Virgil, Segoe UI Emoji" font-size="18px" fill="#ffffff" text-anchor="middle" style="white-space: pre;" direction="ltr">Host A  (pulls Mon)</text></g><g stroke-linecap="round" transform="translate(290 355) rotate(0 100 30)"><path d="M-1.56 -1.23 L198.58 -1.45 L200.3 58.56 L-1.88 61.87" stroke="none" stroke-width="0" fill="#1f4d2b"></path><path d="M1.32 -1.79 C62.13 0.89, 123.97 -1.19, 201.1 0.21 M-0.34 0.48 C53.04 0.48, 106.27 0.11, 200.82 -0.38 M198.8 -0.21 C201.97 19.03, 201.19 40.78, 200.74 61.63 M199.57 0.31 C200.18 16.86, 200.97 32.54, 199.81 59.16 M201.46 61.79 C154.4 59.72, 107.72 59.96, 1.14 60.03 M200.5 60.69 C136.1 61.4, 70.93 60.89, 0.57 59.94 M1.77 59.04 C1.03 37.94, -1.85 17.15, 0.07 1.84 M0.43 60.13 C0.14 45.83, 0.37 31.49, -0.94 0.52" stroke="#3fb950" stroke-width="2" fill="none"></path></g><g transform="translate(290 365) rotate(0 109.5 20)"><text x="109.5" y="NaN" font-family="Virgil, Segoe UI Emoji" font-size="16px" fill="#ffffff" text-anchor="middle" style="white-space: pre;" direction="ltr">bytes: sha256: a11…</text><text x="109.5" y="NaN" font-family="Virgil, Segoe UI Emoji" font-size="16px" fill="#ffffff" text-anchor="middle" style="white-space: pre;" direction="ltr">(Monday build)</text></g><g stroke-linecap="round" transform="translate(1210 265) rotate(0 100 40)"><path d="M0.38 -0.71 L199.31 -1.67 L199.17 80.13 L1.51 78.06" stroke="none" stroke-width="0" fill="#21262d"></path><path d="M-1.17 1.45 C57.51 -0.18, 112.76 -1.07, 201.19 1.02 M-0.86 0.36 C45.42 0.64, 89.03 -0.17, 199.98 0.06 M200.65 0.39 C200.34 23.62, 199.1 46.83, 199.36 81.57 M199.94 0.06 C199.78 17.3, 199.43 35.58, 200.63 79.4 M200.21 78.84 C145.44 81.15, 88.97 81.51, -0.19 81.05 M199.43 80.29 C121.15 80.18, 42.42 81.1, -0.63 79.89 M-1.31 79.33 C2.18 64.42, -0.24 45.32, -1.03 1.51 M-0.38 79.3 C-0.51 58.84, -0.01 38.06, -0.73 0.86" stroke="#8b949e" stroke-width="2" fill="none"></path></g><g transform="translate(1210 265) rotate(0 100 40)"><text x="100" y="NaN" font-family="Virgil, Segoe UI Emoji" font-size="18px" fill="#ffffff" text-anchor="middle" style="white-space: pre;" direction="ltr">Host B  (pulls Fri)</text></g><g stroke-linecap="round" transform="translate(1210 355) rotate(0 100 30)"><path d="M-1.38 0.7 L200.79 -0.55 L200.08 58.38 L-0.14 61.62" stroke="none" stroke-width="0" fill="#4a1219"></path><path d="M-0.83 -1.03 C50.82 0.08, 99.84 -1.71, 198.92 -1.14 M-0.74 -0.78 C56.48 0.57, 111.22 0.64, 199.82 -0.31 M200.44 0.23 C199.84 17.2, 200.02 33.86, 198.84 59.13 M199.6 -0.72 C199.35 22.34, 199.24 42.5, 199.63 59.67 M200.52 60.22 C135.7 61.03, 72.85 58.19, 0.52 59.58 M200.42 60.02 C150.32 61.18, 101.6 60.96, -0.82 60.84 M-1.79 58.7 C-1.15 43.68, 1.21 26.13, -1.54 1.1 M-0.96 60.08 C0.63 40.69, -0.74 23.22, 0.75 -0.71" stroke="#f85149" stroke-width="2" fill="none"></path></g><g transform="translate(1210 365) rotate(0 109.5 20)"><text x="109.5" y="NaN" font-family="Virgil, Segoe UI Emoji" font-size="16px" fill="#ffffff" text-anchor="middle" style="white-space: pre;" direction="ltr">bytes: sha256: b99…</text><text x="109.5" y="NaN" font-family="Virgil, Segoe UI Emoji" font-size="16px" fill="#ffffff" text-anchor="middle" style="white-space: pre;" direction="ltr">(Wednesday build)</text></g><g stroke-linecap="round"><g transform="translate(260 185) rotate(0 65 40)"><path d="M0.84 -0.93 C22.58 12.37, 109.16 66.78, 130.74 80.21" stroke="#c9d1d9" stroke-width="1.5" fill="none" stroke-dasharray="8 9"></path></g><g transform="translate(260 185) rotate(0 65 40)"><path d="M99.86 75.2 C111.35 76.42, 120.05 78.98, 130.18 82.15" stroke="#c9d1d9" stroke-width="1.5" fill="none"></path></g><g transform="translate(260 185) rotate(0 65 40)"><path d="M110.74 57.8 C118.74 64.77, 123.89 73, 130.18 82.15" stroke="#c9d1d9" stroke-width="1.5" fill="none"></path></g></g><g transform="translate(490 235) rotate(0 90 20)"><text x="0" y="NaN" font-family="Virgil, Segoe UI Emoji" font-size="16px" fill="#8b949e" text-anchor="start" style="white-space: pre;" direction="ltr">tag "2.4.1"</text><text x="0" y="NaN" font-family="Virgil, Segoe UI Emoji" font-size="16px" fill="#8b949e" text-anchor="start" style="white-space: pre;" direction="ltr">→ a11…</text></g><g stroke-linecap="round"><g transform="translate(850 185) rotate(0 230 40)"><path d="M0.59 0.41 C77.06 14.08, 382.79 67.52, 459.19 80.87" stroke="#f85149" stroke-width="2.5" fill="none" stroke-dasharray="8 10"></path></g><g transform="translate(850 185) rotate(0 230 40)"><path d="M430.34 84.77 C440.93 82.48, 450.1 83.14, 457.73 80.35" stroke="#f85149" stroke-width="2.5" fill="none"></path></g><g transform="translate(850 185) rotate(0 230 40)"><path d="M433.87 64.55 C443.1 68.98, 451.1 76.32, 457.73 80.35" stroke="#f85149" stroke-width="2.5" fill="none"></path></g></g><g transform="translate(870 235) rotate(0 120.5 20)"><text x="0" y="NaN" font-family="Virgil, Segoe UI Emoji" font-size="16px" fill="#f85149" text-anchor="start" style="white-space: pre;" direction="ltr">tag "2.4.1" REPOINTED</text><text x="0" y="NaN" font-family="Virgil, Segoe UI Emoji" font-size="16px" fill="#f85149" text-anchor="start" style="white-space: pre;" direction="ltr">→ b99…</text></g><g stroke-linecap="round"><g transform="translate(490 385) rotate(0 360 0)"><path d="M0.07 -0.67 C119.85 -0.91, 599.35 -0.69, 719.4 -0.43" stroke="#f85149" stroke-width="2.5" fill="none" stroke-dasharray="8 10"></path></g></g><g transform="translate(670 395) rotate(0 177.5 11)"><text x="177.5" y="NaN" font-family="Virgil, Segoe UI Emoji" font-size="18px" fill="#f85149" text-anchor="middle" style="white-space: pre;" direction="ltr">≠  same tag, different bytes</text></g><g transform="translate(10 533) rotate(0 150 15)"><text x="0" y="NaN" font-family="Virgil, Segoe UI Emoji" font-size="24px" fill="#3fb950" text-anchor="start" style="white-space: pre;" direction="ltr">Pull by DIGEST</text></g><g transform="translate(10 567) rotate(0 136.5 20)"><text x="0" y="NaN" font-family="Virgil, Segoe UI Emoji" font-size="16px" fill="#8b949e" text-anchor="start" style="white-space: pre;" direction="ltr">myservice@sha256: a11…</text><text x="0" y="NaN" font-family="Virgil, Segoe UI Emoji" font-size="16px" fill="#8b949e" text-anchor="start" style="white-space: pre;" direction="ltr">(immutable content hash)</text></g><g stroke-linecap="round" transform="translate(290 525) rotate(0 100 40)"><path d="M-0.33 -1.62 L199.31 -0.21 L201.96 81.54 L-1.57 81.23" stroke="none" stroke-width="0" fill="#21262d"></path><path d="M1.3 -1.6 C62.03 2.22, 125.59 1.74, 199.59 0.27 M-0.39 0.53 C74.75 -0.42, 151.58 -1.18, 200.19 -0.85 M198.86 1.66 C199.1 26.74, 200.15 53.42, 200.86 80.32 M199.18 0.24 C200.38 28.86, 200.81 56.29, 200.63 79.45 M199.71 81.37 C154.66 81.94, 110.95 80.97, 0.19 80.28 M199.32 79.97 C123.35 79.46, 47.7 79.5, 0.61 80.51 M-0.05 79.59 C-2.12 53.47, 1.04 30.54, 0.68 -1.6 M-0.41 79.67 C1.14 60.83, 0.9 40.03, 0.2 -0.4" stroke="#8b949e" stroke-width="2" fill="none"></path></g><g transform="translate(290 525) rotate(0 100 40)"><text x="100" y="NaN" font-family="Virgil, Segoe UI Emoji" font-size="18px" fill="#ffffff" text-anchor="middle" style="white-space: pre;" direction="ltr">Host A  (pulls Mon)</text></g><g stroke-linecap="round" transform="translate(290 615) rotate(0 100 30)"><path d="M1.31 -0.05 L199.86 1.36 L199.46 60.46 L0.3 58.97" stroke="none" stroke-width="0" fill="#1f4d2b"></path><path d="M-0.88 0.68 C54.15 2.51, 104.73 0.95, 200.76 0.54 M-0.19 0.55 C68.52 1.56, 135.87 1.5, 200.87 -0.6 M200.57 0 C201.32 19.73, 198.48 42.39, 198.96 58.56 M200.59 -0.83 C200.24 21.34, 200.27 43.28, 200.26 60.55 M201.63 60.94 C158.14 59.92, 115.13 60.22, -1.44 61.45 M200.03 60.64 C138.67 59.88, 77.91 59.24, -0.02 59.85 M0.46 58.74 C-0.04 41.66, 1.28 25.26, -1.36 1.74 M-0.89 59.85 C1.06 40.95, 0.58 20.5, -0.51 -0.25" stroke="#3fb950" stroke-width="2" fill="none"></path></g><g transform="translate(290 625) rotate(0 109.5 10)"><text x="109.5" y="NaN" font-family="Virgil, Segoe UI Emoji" font-size="16px" fill="#ffffff" text-anchor="middle" style="white-space: pre;" direction="ltr">bytes: sha256: a11…</text></g><g stroke-linecap="round" transform="translate(1210 525) rotate(0 100 40)"><path d="M-1.06 -0.96 L198.6 -0.05 L199.98 78.83 L0.89 78.85" stroke="none" stroke-width="0" fill="#21262d"></path><path d="M0.02 1.3 C60.93 1.6, 119.62 1.47, 199.81 -0.3 M-0.48 0.56 C56.76 -0.54, 112.7 0.18, 199.33 0.3 M199.77 -1.51 C198.38 20.03, 198.41 41.65, 198.68 79.01 M200.48 0.67 C200.38 19.87, 200.48 41.06, 199.5 80.44 M200.13 79.84 C140.5 79.18, 82.33 79.69, -0.83 81.63 M199.28 79.97 C153.63 80.26, 108.56 80.39, -0.41 80.66 M1.72 81.4 C-1.2 60.28, 1.6 40.4, 1.68 -0.87 M0 79.83 C0.15 52.98, 0.54 26.98, 0.72 0.48" stroke="#8b949e" stroke-width="2" fill="none"></path></g><g transform="translate(1210 525) rotate(0 100 40)"><text x="100" y="NaN" font-family="Virgil, Segoe UI Emoji" font-size="18px" fill="#ffffff" text-anchor="middle" style="white-space: pre;" direction="ltr">Host B  (pulls Fri)</text></g><g stroke-linecap="round" transform="translate(1210 615) rotate(0 100 30)"><path d="M-0.85 0.07 L198.33 -1.5 L201.34 60.33 L1.47 59.44" stroke="none" stroke-width="0" fill="#1f4d2b"></path><path d="M1.4 -1.49 C61.85 0.14, 122.3 -2.3, 199 1.63 M0.51 0.47 C75.06 0.3, 149.82 0.13, 199.47 0.35 M198.35 -1.72 C198.94 23.44, 198.85 47.09, 198.87 58.99 M200.89 -0.12 C201.05 17.84, 199.98 35.5, 199.97 59.54 M199.06 61.42 C143.43 62.14, 88.18 62.62, 0.79 59.31 M200.81 60.82 C137.11 60.35, 73.43 60.61, 0.43 60.38 M-1.42 58.82 C-0.19 36.01, -0.81 11.91, 1.13 0.18 M0.59 59.84 C-0.97 46.6, 0.61 31.98, 0.84 0.12" stroke="#3fb950" stroke-width="2" fill="none"></path></g><g transform="translate(1210 625) rotate(0 109.5 10)"><text x="109.5" y="NaN" font-family="Virgil, Segoe UI Emoji" font-size="16px" fill="#ffffff" text-anchor="middle" style="white-space: pre;" direction="ltr">bytes: sha256: a11…</text></g><g stroke-linecap="round"><g transform="translate(260 495) rotate(0 65 15)"><path d="M1.2 0.37 C23.18 5.36, 109.72 24.16, 131.13 29.19 M0.36 -0.48 C22.35 4.71, 109.38 25.47, 130.78 30.31" stroke="#3fb950" stroke-width="2" fill="none"></path></g><g transform="translate(260 495) rotate(0 65 15)"><path d="M101.61 35.78 C106.74 32.24, 116.15 30.37, 131.72 28.33 M101.43 33.25 C108.87 33.18, 117.02 33.08, 131.48 30.96" stroke="#3fb950" stroke-width="2" fill="none"></path></g><g transform="translate(260 495) rotate(0 65 15)"><path d="M106.27 15.8 C110.17 17.05, 118.48 19.92, 131.72 28.33 M106.09 13.27 C112.33 18.24, 119.3 23.21, 131.48 30.96" stroke="#3fb950" stroke-width="2" fill="none"></path></g></g><g stroke-linecap="round"><g transform="translate(260 495) rotate(0 525 15)"><path d="M0.05 -0.54 C174.81 4.61, 874.47 25.21, 1049.6 30.48 M-1.39 1.79 C173.09 6.61, 873.13 24.02, 1048.45 28.61" stroke="#3fb950" stroke-width="2" fill="none"></path></g><g transform="translate(260 495) rotate(0 525 15)"><path d="M1019.1 37.49 C1031.84 35.81, 1043.83 31.82, 1047.83 29 M1020.58 37.15 C1029.71 34.66, 1039.83 30.47, 1047.85 28.31" stroke="#3fb950" stroke-width="2" fill="none"></path></g><g transform="translate(260 495) rotate(0 525 15)"><path d="M1019.63 16.97 C1032.09 23.23, 1043.88 27.18, 1047.83 29 M1021.1 16.64 C1029.89 21.16, 1039.83 23.99, 1047.85 28.31" stroke="#3fb950" stroke-width="2" fill="none"></path></g></g><g transform="translate(280 475) rotate(0 450 10)"><text x="0" y="NaN" font-family="Virgil, Segoe UI Emoji" font-size="16px" fill="#3fb950" text-anchor="start" style="white-space: pre;" direction="ltr">digest @sha256: a11…  →  the same bytes, by definition</text></g><g stroke-linecap="round"><g transform="translate(490 645) rotate(0 360 0)"><path d="M-0.48 -0.97 C119.52 -1.06, 599.65 -1.2, 719.57 -1.05 M1.46 1.13 C121.3 1.2, 598.41 -0.07, 718.4 -0.07" stroke="#3fb950" stroke-width="2" fill="none"></path></g></g><g transform="translate(670 655) rotate(0 165.5 11)"><text x="165.5" y="NaN" font-family="Virgil, Segoe UI Emoji" font-size="18px" fill="#3fb950" text-anchor="middle" style="white-space: pre;" direction="ltr">=  same digest, same bytes</text></g><g stroke-opacity="0.7" fill-opacity="0.7" stroke-linecap="round" transform="translate(10 715) rotate(0 735 25)"><path d="M-0.52 1.42 L1470.83 -1.11 L1469.67 50.88 L0.15 50.45" stroke="none" stroke-width="0" fill="#161b22"></path><path d="M0.7 0.34 C521.36 -4.35, 1041.42 -5.31, 1469.3 0.61 M1468.85 1.83 C1469.75 17.84, 1469.3 34.8, 1468.55 50.34 M1469.55 50.33 C959.68 47.5, 450.77 47.29, 0.14 50.3 M-0.12 51.47 C0.32 38.83, 0.4 23.4, -0.21 -0.35" stroke="#30363d" stroke-width="2.5" fill="none" stroke-dasharray="8 10"></path></g><g transform="translate(25 729) rotate(0 1018.5 11)"><text x="0" y="NaN" font-family="Virgil, Segoe UI Emoji" font-size="18px" fill="#e6edf3" text-anchor="start" style="white-space: pre;" direction="ltr">Operational fix: deploy by digest. The tag is for humans to read; the digest is what the cluster pulls. Rollback by digest is bit-identical; rollback by tag is hope.</text></g></svg>