<svg version="1.1" xmlns="http://www.w3.org/2000/svg" viewBox="0 0 2489 815" width="2489" height="815">
  <!-- svg-source:excalidraw -->
  
  <defs>
    <style>
      @font-face {
        font-family: "Virgil";
        src: url("https://excalidraw.com/Virgil.woff2");
      }
      @font-face {
        font-family: "Cascadia";
        src: url("https://excalidraw.com/Cascadia.woff2");
      }
    </style>
  </defs>
  <rect x="0" y="0" width="2489" height="815" fill="#0d1117"></rect><g transform="translate(10 10) rotate(0 650 20)"><text x="0" y="NaN" font-family="Virgil, Segoe UI Emoji" font-size="32px" fill="#ff8c42" text-anchor="start" style="white-space: pre;" direction="ltr">How the version on the image tag is computed</text></g><g transform="translate(10 53) rotate(0 1068.5 11.5)"><text x="0" y="NaN" font-family="Virgil, Segoe UI Emoji" font-size="19px" fill="#c9d1d9" text-anchor="start" style="white-space: pre;" direction="ltr">Conventional Commits → semver state machine. Humans write commit messages; a tool (semantic-release, release-please) derives the version. No human picks the number.</text></g><g stroke-opacity="0.7" fill-opacity="0.7" stroke-linecap="round" transform="translate(10 145) rotate(0 270 270)"><path d="M0.3 1.64 L540.33 -1.22 L538.09 539.03 L0.19 540.34" stroke="none" stroke-width="0" fill="#161b22"></path><path d="M-0.77 0.21 C215.01 -0.19, 431.47 -0.31, 539.46 0.8 M539.32 0.72 C539.01 113.59, 538.97 227.49, 540.14 539.73 M540.54 540.51 C374.18 537.43, 208.48 537.74, 0.7 540.41 M0.32 539.67 C1.24 378.5, 1.09 217.68, -0.26 -0.46" stroke="#30363d" stroke-width="2.5" fill="none" stroke-dasharray="8 10"></path></g><g transform="translate(26 157) rotate(0 200 13.5)"><text x="0" y="NaN" font-family="Virgil, Segoe UI Emoji" font-size="22px" fill="#e6edf3" text-anchor="start" style="white-space: pre;" direction="ltr">git log v1.4.2..HEAD</text></g><g transform="translate(26 185) rotate(0 316.5 10)"><text x="0" y="NaN" font-family="Virgil, Segoe UI Emoji" font-size="16px" fill="#8b949e" text-anchor="start" style="white-space: pre;" direction="ltr">all commits merged to main since the previous release tag</text></g><g stroke-linecap="round" transform="translate(26 233) rotate(0 45 16)"><path d="M-0.94 -0.77 L91.64 1.22 L90.36 30.15 L-0.03 30.71" stroke="none" stroke-width="0" fill="#21262d"></path><path d="M0.07 -0.98 C22.25 -2.68, 49.66 -1.56, 91.57 -0.78 M0.61 0.05 C27.09 0.24, 55.03 -0.27, 90.18 0.62 M89.37 1.58 C91.14 13.89, 91.02 25.94, 91.03 32.05 M90.51 -0.84 C89.45 8.65, 89.77 17.68, 89.74 31.67 M91.47 30.08 C61.44 30.98, 37.86 30.52, 0.3 30.85 M90.63 31.43 C67.63 32.73, 46.05 31.86, -0.52 32.96 M1.85 33.23 C-0.95 21.35, -0.49 11.79, 0.58 0.92 M0.5 32.9 C0.18 24.73, 0.79 19.43, -0.74 0.53" stroke="#8b949e" stroke-width="2" fill="none"></path></g><g transform="translate(26 233) rotate(0 45 16)"><text x="45" y="NaN" font-family="Virgil, Segoe UI Emoji" font-size="16px" fill="#ffffff" text-anchor="middle" style="white-space: pre;" direction="ltr">docs:</text></g><g transform="translate(126 241) rotate(0 175 10)"><text x="0" y="NaN" font-family="Virgil, Segoe UI Emoji" font-size="16px" fill="#e6edf3" text-anchor="start" style="white-space: pre;" direction="ltr">update README with new endpoint</text></g><g transform="translate(390 241) rotate(0 80 10)"><text x="0" y="NaN" font-family="Virgil, Segoe UI Emoji" font-size="16px" fill="#8b949e" text-anchor="start" style="white-space: pre;" direction="ltr">no release</text></g><g stroke-linecap="round" transform="translate(26 289) rotate(0 45 16)"><path d="M-1.04 1.05 L88.99 0.5 L89.56 31.37 L1.08 30.98" stroke="none" stroke-width="0" fill="#21262d"></path><path d="M1.45 -1.77 C25.47 1.74, 54.9 -0.91, 91.15 1.65 M-0.12 -0.06 C20.03 -1.51, 41.35 -0.77, 89.19 -0.57 M89.11 1.83 C89.59 8.13, 90.27 14.07, 88.59 30.25 M90.22 -0.66 C88.81 10.84, 89.98 20.2, 89.96 32.56 M88.19 33.14 C63.8 32.44, 36.79 33.35, 0.31 33.96 M89.43 31.53 C58.29 31.29, 27.06 30.63, 0.55 31.52 M1.79 33.33 C-0.22 24.76, -0.52 17.8, 1.5 -1.15 M-0.47 31.82 C0.25 21.31, -0.25 9.41, -0.41 -0.93" stroke="#8b949e" stroke-width="2" fill="none"></path></g><g transform="translate(26 289) rotate(0 45 16)"><text x="45" y="NaN" font-family="Virgil, Segoe UI Emoji" font-size="16px" fill="#ffffff" text-anchor="middle" style="white-space: pre;" direction="ltr">chore:</text></g><g transform="translate(126 297) rotate(0 150 10)"><text x="0" y="NaN" font-family="Virgil, Segoe UI Emoji" font-size="16px" fill="#e6edf3" text-anchor="start" style="white-space: pre;" direction="ltr">bump test dependencies</text></g><g transform="translate(390 297) rotate(0 80 10)"><text x="0" y="NaN" font-family="Virgil, Segoe UI Emoji" font-size="16px" fill="#8b949e" text-anchor="start" style="white-space: pre;" direction="ltr">no release</text></g><g stroke-linecap="round" transform="translate(26 345) rotate(0 45 16)"><path d="M-1.83 -0.98 L89.95 0.17 L91.14 32.48 L-1.95 33.6" stroke="none" stroke-width="0" fill="#1f4d2b"></path><path d="M0.06 1.16 C32.55 1.18, 64.32 -0.69, 88.58 -0.41 M-0.23 -0.64 C32.78 0.67, 68.05 0.95, 89.25 -0.79 M91.79 0.92 C88.78 9.57, 91.55 22.14, 89.05 30.32 M89.03 -0.5 C91.04 10.69, 91.1 21.4, 89.29 32.81 M88.65 32.5 C56.37 33.92, 26.38 32.89, 1.91 30.53 M90.2 32.25 C63.33 30.5, 36.74 31.96, -0.19 31.74 M-0.2 32.58 C1.94 22, 1.75 12.57, 0.8 -0.74 M-0.75 31.43 C-0.7 18.54, -0.7 7.44, 0.88 0.49" stroke="#3fb950" stroke-width="2" fill="none"></path></g><g transform="translate(26 345) rotate(0 45 16)"><text x="45" y="NaN" font-family="Virgil, Segoe UI Emoji" font-size="16px" fill="#ffffff" text-anchor="middle" style="white-space: pre;" direction="ltr">fix:</text></g><g transform="translate(126 353) rotate(0 158.5 10)"><text x="0" y="NaN" font-family="Virgil, Segoe UI Emoji" font-size="16px" fill="#e6edf3" text-anchor="start" style="white-space: pre;" direction="ltr">handle null user in /profile</text></g><g transform="translate(390 353) rotate(0 87.5 10)"><text x="0" y="NaN" font-family="Virgil, Segoe UI Emoji" font-size="16px" fill="#3fb950" text-anchor="start" style="white-space: pre;" direction="ltr">→ patch  +0.0.1</text></g><g stroke-linecap="round" transform="translate(26 401) rotate(0 45 16)"><path d="M0.58 -1.6 L90.05 1.83 L89.24 33.32 L-1.44 30.8" stroke="none" stroke-width="0" fill="#5c3a10"></path><path d="M-1.82 -0.69 C23.99 -2.2, 47.64 0.73, 91 -0.5 M0.9 0.65 C25.22 -1.45, 49.12 -0.39, 90.67 0.9 M88.25 -0.6 C91.27 12.16, 89.43 20.5, 91.13 33.74 M90.46 0.03 C90.38 11.79, 89.56 21.1, 89.33 32.83 M90.75 31.76 C67.17 32.52, 45.16 31.6, 1.8 30.34 M89.01 32.24 C65.01 32.29, 39.94 32.23, 0.33 31.45 M-1.7 30.77 C1.75 22.19, 1.27 12.74, 0.8 -0.78 M0.61 32.54 C0.4 21.46, 0.53 11.3, -0.69 0.08" stroke="#f0883e" stroke-width="2" fill="none"></path></g><g transform="translate(26 401) rotate(0 45 16)"><text x="45" y="NaN" font-family="Virgil, Segoe UI Emoji" font-size="16px" fill="#ffffff" text-anchor="middle" style="white-space: pre;" direction="ltr">feat:</text></g><g transform="translate(126 409) rotate(0 150 10)"><text x="0" y="NaN" font-family="Virgil, Segoe UI Emoji" font-size="16px" fill="#e6edf3" text-anchor="start" style="white-space: pre;" direction="ltr">add /export endpoint</text></g><g transform="translate(390 409) rotate(0 87.5 10)"><text x="0" y="NaN" font-family="Virgil, Segoe UI Emoji" font-size="16px" fill="#f0883e" text-anchor="start" style="white-space: pre;" direction="ltr">→ minor  +0.1.0</text></g><g stroke-linecap="round" transform="translate(26 457) rotate(0 45 16)"><path d="M-0.09 1.94 L91.24 -0.81 L91.87 31.14 L-1.43 31.74" stroke="none" stroke-width="0" fill="#1f4d2b"></path><path d="M-1.54 -1.67 C31.62 0.53, 59.19 0.65, 89.93 0.43 M-0.24 0.88 C27.13 -0.07, 53.22 -1.31, 89.08 -0.92 M91.61 0.77 C89.28 12.97, 91.82 26.82, 89.28 32.86 M89.17 -0.11 C89.98 8.71, 90.86 16.9, 89.97 31.7 M88.61 30.37 C53.98 31.66, 19.56 32.76, -0.83 32.28 M89.72 31.02 C70.85 32.03, 52.28 31.97, -0.6 31.34 M1.34 31.79 C-0.1 25.28, -0.82 16.87, 1.3 -2 M-0.68 32.84 C-0.67 21.93, 0.61 12.93, 0.71 0.17" stroke="#3fb950" stroke-width="2" fill="none"></path></g><g transform="translate(26 457) rotate(0 45 16)"><text x="45" y="NaN" font-family="Virgil, Segoe UI Emoji" font-size="16px" fill="#ffffff" text-anchor="middle" style="white-space: pre;" direction="ltr">fix:</text></g><g transform="translate(126 465) rotate(0 150 10)"><text x="0" y="NaN" font-family="Virgil, Segoe UI Emoji" font-size="16px" fill="#e6edf3" text-anchor="start" style="white-space: pre;" direction="ltr">edge case in date parsing</text></g><g transform="translate(390 465) rotate(0 87.5 10)"><text x="0" y="NaN" font-family="Virgil, Segoe UI Emoji" font-size="16px" fill="#3fb950" text-anchor="start" style="white-space: pre;" direction="ltr">→ patch  +0.0.1</text></g><g stroke-linecap="round" transform="translate(26 513) rotate(0 45 16)"><path d="M-1.23 0.95 L88.42 -0.98 L88.11 31.51 L-0.17 31.2" stroke="none" stroke-width="0" fill="#21262d"></path><path d="M1.33 1.48 C34.41 -2.01, 68.94 1.41, 88.97 1.49 M-0.38 -0.38 C31.46 0.53, 62.07 -0.72, 89.6 0.05 M89.89 -0.29 C88.78 9.04, 90.61 20.88, 90.57 30.84 M89.34 0.91 C90.18 7.84, 90.87 15.95, 89.62 31.94 M89.21 33.27 C59.55 32.87, 28.45 32.14, 0.37 31.68 M90.67 31.74 C67.78 32.73, 47.15 32.06, -0.65 32.69 M-0.03 30.37 C1.43 23.74, -1.26 12.67, 0.79 0.75 M0.7 31.11 C-0.74 25.31, -0.59 18.27, -0.18 1" stroke="#8b949e" stroke-width="2" fill="none"></path></g><g transform="translate(26 513) rotate(0 45 16)"><text x="45" y="NaN" font-family="Virgil, Segoe UI Emoji" font-size="16px" fill="#ffffff" text-anchor="middle" style="white-space: pre;" direction="ltr">refactor:</text></g><g transform="translate(126 521) rotate(0 150 10)"><text x="0" y="NaN" font-family="Virgil, Segoe UI Emoji" font-size="16px" fill="#e6edf3" text-anchor="start" style="white-space: pre;" direction="ltr">extract auth into module</text></g><g transform="translate(390 521) rotate(0 80 10)"><text x="0" y="NaN" font-family="Virgil, Segoe UI Emoji" font-size="16px" fill="#8b949e" text-anchor="start" style="white-space: pre;" direction="ltr">no release</text></g><g stroke-linecap="round" transform="translate(26 569) rotate(0 45 16)"><path d="M0.3 1.04 L91.3 1.81 L89.99 33.59 L-0.49 30.55" stroke="none" stroke-width="0" fill="#4a1219"></path><path d="M1.89 -1.44 C25.2 -0.27, 50.87 0.56, 90.41 0.16 M-0.36 -0.87 C33.77 -0.5, 68.3 0.42, 90.19 0.1 M90.2 -0.15 C89.2 11.76, 88.01 21.07, 88.12 32.57 M89.78 -0.21 C90.82 9.56, 89.48 18.3, 90.38 32.03 M89.22 33.8 C62 31.84, 35.54 31.81, 1.54 30.14 M90.37 31.43 C60.2 31.15, 28.96 31.33, 0.3 32.14 M0.71 30.57 C-1.82 26.91, -0.15 20.36, -0.44 0.72 M0.92 32.77 C0.13 24.7, 0.82 15.44, -0.72 -0.83" stroke="#f85149" stroke-width="2" fill="none"></path></g><g transform="translate(26 569) rotate(0 45 16)"><text x="45" y="NaN" font-family="Virgil, Segoe UI Emoji" font-size="16px" fill="#ffffff" text-anchor="middle" style="white-space: pre;" direction="ltr">feat!:</text></g><g transform="translate(126 577) rotate(0 180.5 10)"><text x="0" y="NaN" font-family="Virgil, Segoe UI Emoji" font-size="16px" fill="#e6edf3" text-anchor="start" style="white-space: pre;" direction="ltr">rename field 'email' → 'contact'</text></g><g transform="translate(390 577) rotate(0 87.5 10)"><text x="0" y="NaN" font-family="Virgil, Segoe UI Emoji" font-size="16px" fill="#f85149" text-anchor="start" style="white-space: pre;" direction="ltr">→ MAJOR  +1.0.0</text></g><g stroke-linecap="round" transform="translate(26 625) rotate(0 45 16)"><path d="M1.84 -0.29 L90.7 -0.12 L90.46 31.88 L-1.44 32.72" stroke="none" stroke-width="0" fill="#21262d"></path><path d="M0.76 1.64 C32.14 -2.49, 63.17 -2.43, 89.03 -1.4 M-0.49 -0.8 C35.2 -0.78, 69.35 -0.93, 89.04 -0.88 M88.96 -0.67 C90.33 9.61, 92.04 18.91, 89.87 33.34 M90.97 -0.41 C90.13 10.47, 90.05 20.43, 89.1 31.5 M91.83 33.18 C63.01 30.93, 37.88 30.59, -0.43 30.7 M89.67 31.81 C59.93 32.33, 28.91 31.81, -0.19 32.14 M-0.18 31.26 C2.02 25.29, 1.82 14.95, -0.56 -1.03 M-0.13 31.94 C-0.72 23.6, 0.49 14.31, -0.26 -0.48" stroke="#8b949e" stroke-width="2" fill="none"></path></g><g transform="translate(26 625) rotate(0 45 16)"><text x="45" y="NaN" font-family="Virgil, Segoe UI Emoji" font-size="16px" fill="#ffffff" text-anchor="middle" style="white-space: pre;" direction="ltr">test:</text></g><g transform="translate(126 633) rotate(0 164 10)"><text x="0" y="NaN" font-family="Virgil, Segoe UI Emoji" font-size="16px" fill="#e6edf3" text-anchor="start" style="white-space: pre;" direction="ltr">add contract test for /export</text></g><g transform="translate(390 633) rotate(0 80 10)"><text x="0" y="NaN" font-family="Virgil, Segoe UI Emoji" font-size="16px" fill="#8b949e" text-anchor="start" style="white-space: pre;" direction="ltr">no release</text></g><g transform="translate(580 205) rotate(0 100 13.5)"><text x="0" y="NaN" font-family="Virgil, Segoe UI Emoji" font-size="22px" fill="#e6edf3" text-anchor="start" style="white-space: pre;" direction="ltr">The rule</text></g><g stroke-linecap="round" transform="translate(580 245) rotate(0 180 40)"><path d="M1.87 -0.1 L359.75 0.61 L358.86 78.51 L1.34 81.04" stroke="none" stroke-width="0" fill="#4a1219"></path><path d="M0.39 1.2 C84.6 -2.59, 171.52 -3.24, 360.6 -1.25 M0.27 -0.41 C91.43 0.92, 183.04 1.43, 360.44 0.41 M361.2 -1.76 C358.66 20.97, 360.62 42.76, 361.56 79.33 M359.84 -0.21 C360.25 25.01, 359.46 51.67, 359.08 79.92 M360.06 81.11 C259.34 83.31, 159.77 83.31, 0.04 79.93 M360.55 79.94 C224.84 78.11, 89.43 78.06, -0.35 79.75 M1.27 80.5 C-0.69 49.3, 0.69 20.34, -1.11 0.27 M0.86 79.47 C0.57 49.29, 0.92 20.93, -0.01 0.43" stroke="#f85149" stroke-width="2" fill="none"></path></g><g transform="translate(580 245) rotate(0 180 40)"><text x="180" y="NaN" font-family="Virgil, Segoe UI Emoji" font-size="16px" fill="#ffffff" text-anchor="middle" style="white-space: pre;" direction="ltr"></text></g><g transform="translate(594 253) rotate(0 166 10)"><text x="0" y="NaN" font-family="Virgil, Segoe UI Emoji" font-size="16px" fill="#ffffff" text-anchor="start" style="white-space: pre;" direction="ltr">any  feat! / BREAKING CHANGE</text></g><g transform="translate(594 275) rotate(0 166 11)"><text x="0" y="NaN" font-family="Virgil, Segoe UI Emoji" font-size="18px" fill="#ffffff" text-anchor="start" style="white-space: pre;" direction="ltr">→ MAJOR bump</text></g><g transform="translate(594 299) rotate(0 166 10)"><text x="0" y="NaN" font-family="Virgil, Segoe UI Emoji" font-size="16px" fill="#8b949e" text-anchor="start" style="white-space: pre;" direction="ltr">1.4.2 → 2.0.0</text></g><g stroke-linecap="round" transform="translate(580 345) rotate(0 180 40)"><path d="M0.95 -0.23 L360.82 -0.13 L360.51 80.33 L1.72 79.34" stroke="none" stroke-width="0" fill="#5c3a10"></path><path d="M1.1 0.54 C128.14 -1.17, 254.22 -2.69, 358.89 0.97 M-0.36 0.58 C123.64 0.66, 247.26 0.59, 359.54 0.11 M358.87 0.83 C358.04 28.1, 359.61 55.31, 360.36 80.75 M359.94 0.73 C360.83 21.77, 360.87 41.4, 359.89 79.82 M359.3 79.79 C261.86 81.04, 162.89 79.72, -0.94 79.01 M359.57 80.31 C226.94 80.08, 94.46 79.9, -0.12 80.61 M1.77 80.51 C-0.32 56.39, 1.48 33.49, 1.28 0.34 M-0.09 79.32 C0.72 58.96, 1.14 36.78, 0.55 -0.76" stroke="#f0883e" stroke-width="2" fill="none"></path></g><g transform="translate(580 345) rotate(0 180 40)"><text x="180" y="NaN" font-family="Virgil, Segoe UI Emoji" font-size="16px" fill="#ffffff" text-anchor="middle" style="white-space: pre;" direction="ltr"></text></g><g transform="translate(594 353) rotate(0 166 10)"><text x="0" y="NaN" font-family="Virgil, Segoe UI Emoji" font-size="16px" fill="#ffffff" text-anchor="start" style="white-space: pre;" direction="ltr">else any  feat:</text></g><g transform="translate(594 375) rotate(0 166 11)"><text x="0" y="NaN" font-family="Virgil, Segoe UI Emoji" font-size="18px" fill="#ffffff" text-anchor="start" style="white-space: pre;" direction="ltr">→ MINOR bump</text></g><g transform="translate(594 399) rotate(0 166 10)"><text x="0" y="NaN" font-family="Virgil, Segoe UI Emoji" font-size="16px" fill="#8b949e" text-anchor="start" style="white-space: pre;" direction="ltr">1.4.2 → 1.5.0</text></g><g stroke-linecap="round" transform="translate(580 445) rotate(0 180 40)"><path d="M-0.9 -1.56 L358.83 -0.48 L358.83 78.49 L-0.4 78.07" stroke="none" stroke-width="0" fill="#1f4d2b"></path><path d="M-1.07 -0.19 C102.54 1.64, 206.09 2.19, 359.04 -1.18 M0.58 0.26 C122.74 1.45, 245.43 0.86, 359.5 -0.55 M361.11 -0.29 C360.18 21.83, 361.81 46.06, 358.91 79.34 M360.46 0.55 C360.37 16.61, 358.67 33.01, 359.58 80.82 M360.88 81.24 C261.92 80.93, 164.47 80.87, -0.28 80.27 M359.96 80.22 C259.92 79.36, 159.46 80.23, 0.1 80.4 M1.7 80.55 C0.79 50.91, 0.73 26.43, 0.28 -1.39 M-0.58 79.91 C-0.88 52.23, -0.97 22.84, -0.17 -0.56" stroke="#3fb950" stroke-width="2" fill="none"></path></g><g transform="translate(580 445) rotate(0 180 40)"><text x="180" y="NaN" font-family="Virgil, Segoe UI Emoji" font-size="16px" fill="#ffffff" text-anchor="middle" style="white-space: pre;" direction="ltr"></text></g><g transform="translate(594 453) rotate(0 166 10)"><text x="0" y="NaN" font-family="Virgil, Segoe UI Emoji" font-size="16px" fill="#ffffff" text-anchor="start" style="white-space: pre;" direction="ltr">else any  fix:</text></g><g transform="translate(594 475) rotate(0 166 11)"><text x="0" y="NaN" font-family="Virgil, Segoe UI Emoji" font-size="18px" fill="#ffffff" text-anchor="start" style="white-space: pre;" direction="ltr">→ PATCH bump</text></g><g transform="translate(594 499) rotate(0 166 10)"><text x="0" y="NaN" font-family="Virgil, Segoe UI Emoji" font-size="16px" fill="#8b949e" text-anchor="start" style="white-space: pre;" direction="ltr">1.4.2 → 1.4.3</text></g><g stroke-linecap="round" transform="translate(580 545) rotate(0 180 40)"><path d="M-1.83 1.78 L360.32 -0.63 L361.22 81.88 L-1.78 79.23" stroke="none" stroke-width="0" fill="#21262d"></path><path d="M-0.11 -1.04 C124.47 1.1, 249.5 1.4, 360 -0.84 M-0.51 0.6 C80.67 -2.75, 162.6 -2.43, 359.89 0.11 M359.74 1.97 C360.26 23.66, 359.06 44.77, 359.58 79.39 M360.65 -0.33 C358.62 16.52, 360.35 31.83, 359.67 80.59 M359.87 79.48 C238.97 80.52, 115.29 79.4, 1.04 79.57 M359.37 79.94 C285.61 80.67, 213.05 80.05, 0.32 80.09 M0.02 78.13 C-0.36 52.74, -1.41 26.34, 0.28 -0.24 M0.06 79.98 C0.33 51.82, 0.93 23.8, 0.96 0.7" stroke="#8b949e" stroke-width="2" fill="none"></path></g><g transform="translate(580 545) rotate(0 180 40)"><text x="180" y="NaN" font-family="Virgil, Segoe UI Emoji" font-size="16px" fill="#ffffff" text-anchor="middle" style="white-space: pre;" direction="ltr"></text></g><g transform="translate(594 553) rotate(0 166 10)"><text x="0" y="NaN" font-family="Virgil, Segoe UI Emoji" font-size="16px" fill="#ffffff" text-anchor="start" style="white-space: pre;" direction="ltr">else (chore, docs, test, …)</text></g><g transform="translate(594 575) rotate(0 166 11)"><text x="0" y="NaN" font-family="Virgil, Segoe UI Emoji" font-size="18px" fill="#ffffff" text-anchor="start" style="white-space: pre;" direction="ltr">→ no release</text></g><g transform="translate(594 599) rotate(0 166 10)"><text x="0" y="NaN" font-family="Virgil, Segoe UI Emoji" font-size="16px" fill="#8b949e" text-anchor="start" style="white-space: pre;" direction="ltr">1.4.2 stays</text></g><g stroke-linecap="round" transform="translate(970 175) rotate(0 190 65)"><path d="M0.02 0.1 L381.53 1.6 L380.08 128.95 L0.9 129.8" stroke="none" stroke-width="0" fill="#3a5d1d"></path><path d="M-0.2 -1.12 C86.68 0.33, 173.69 2.09, 380.35 -0.31 M0.53 0.49 C130.92 -0.49, 261.27 -0.83, 380.5 0.23 M381.03 0.38 C377.39 47.94, 378.23 94.73, 378.18 130.92 M380.84 -0.51 C381.25 30.07, 380.79 62.03, 379.47 129.33 M379.51 130.66 C237.26 126.91, 95.19 127, 0.88 129.66 M379.89 130.27 C300.2 130.93, 221.34 131.52, -0.41 129.72 M-0.32 130.08 C2.45 100.5, 0.69 70.93, 0.73 -1.49 M0.99 129.75 C0.99 83.51, 1.06 39.03, -0.12 0.41" stroke="#6dbf3a" stroke-width="2" fill="none"></path></g><g transform="translate(970 175) rotate(0 190 65)"><text x="190" y="NaN" font-family="Virgil, Segoe UI Emoji" font-size="19px" fill="#ffffff" text-anchor="middle" style="white-space: pre;" direction="ltr"></text></g><g transform="translate(970 195) rotate(0 190 10)"><text x="190" y="NaN" font-family="Virgil, Segoe UI Emoji" font-size="16px" fill="#8b949e" text-anchor="middle" style="white-space: pre;" direction="ltr">result</text></g><g transform="translate(970 220) rotate(0 216 35)"><text x="216" y="NaN" font-family="Virgil, Segoe UI Emoji" font-size="56px" fill="#ffffff" text-anchor="middle" style="white-space: pre;" direction="ltr">v 2 . 0 . 0</text></g><g transform="translate(970 283) rotate(0 190 10)"><text x="190" y="NaN" font-family="Virgil, Segoe UI Emoji" font-size="16px" fill="#8b949e" text-anchor="middle" style="white-space: pre;" direction="ltr">(major bump — feat! present)</text></g><g stroke-linecap="round"><g transform="translate(950 240) rotate(0 8 0)"><path d="M-1.07 0.39 C1.48 0.37, 13.2 -0.45, 16.13 -0.46 M0.57 -0.46 C2.9 -0.28, 12.68 0.45, 15.25 0.83" stroke="#c9d1d9" stroke-width="2" fill="none"></path></g><g transform="translate(950 240) rotate(0 8 0)"><path d="M7.74 2.84 C10.06 2.44, 13.47 0.66, 15.52 0.88 M7.45 2.82 C10.21 2.47, 13.22 1.68, 15.26 0.71" stroke="#c9d1d9" stroke-width="2" fill="none"></path></g><g transform="translate(950 240) rotate(0 8 0)"><path d="M8.32 -2.6 C10.41 -0.99, 13.6 -0.74, 15.52 0.88 M8.03 -2.62 C10.6 -0.9, 13.39 0.39, 15.26 0.71" stroke="#c9d1d9" stroke-width="2" fill="none"></path></g></g><g transform="translate(970 345) rotate(0 190 11.5)"><text x="0" y="NaN" font-family="Virgil, Segoe UI Emoji" font-size="19px" fill="#e6edf3" text-anchor="start" style="white-space: pre;" direction="ltr">Then the tool, in order:</text></g><g transform="translate(978 380) rotate(0 185 20)"><text x="0" y="NaN" font-family="Virgil, Segoe UI Emoji" font-size="16px" fill="#c9d1d9" text-anchor="start" style="white-space: pre;" direction="ltr">1.  Update package metadata</text><text x="0" y="NaN" font-family="Virgil, Segoe UI Emoji" font-size="16px" fill="#c9d1d9" text-anchor="start" style="white-space: pre;" direction="ltr">     (pom.xml, package.json, …)</text></g><g transform="translate(978 440) rotate(0 185 10)"><text x="0" y="NaN" font-family="Virgil, Segoe UI Emoji" font-size="16px" fill="#c9d1d9" text-anchor="start" style="white-space: pre;" direction="ltr">2.  Append entry to CHANGELOG.md</text></g><g transform="translate(978 500) rotate(0 185 10)"><text x="0" y="NaN" font-family="Virgil, Segoe UI Emoji" font-size="16px" fill="#c9d1d9" text-anchor="start" style="white-space: pre;" direction="ltr">3.  git tag v2.0.0 + push</text></g><g transform="translate(978 560) rotate(0 185 20)"><text x="0" y="NaN" font-family="Virgil, Segoe UI Emoji" font-size="16px" fill="#c9d1d9" text-anchor="start" style="white-space: pre;" direction="ltr">4.  docker build → tag image:</text><text x="0" y="NaN" font-family="Virgil, Segoe UI Emoji" font-size="16px" fill="#c9d1d9" text-anchor="start" style="white-space: pre;" direction="ltr">     myservice:2.0.0  +  :latest</text></g><g transform="translate(978 620) rotate(0 191.5 20)"><text x="0" y="NaN" font-family="Virgil, Segoe UI Emoji" font-size="16px" fill="#c9d1d9" text-anchor="start" style="white-space: pre;" direction="ltr">5.  docker push → registry returns</text><text x="0" y="NaN" font-family="Virgil, Segoe UI Emoji" font-size="16px" fill="#c9d1d9" text-anchor="start" style="white-space: pre;" direction="ltr">     sha256: 9b3c4…</text></g><g transform="translate(978 680) rotate(0 202 20)"><text x="0" y="NaN" font-family="Virgil, Segoe UI Emoji" font-size="16px" fill="#c9d1d9" text-anchor="start" style="white-space: pre;" direction="ltr">6.  Record (version, digest, commit)</text><text x="0" y="NaN" font-family="Virgil, Segoe UI Emoji" font-size="16px" fill="#c9d1d9" text-anchor="start" style="white-space: pre;" direction="ltr">     as audit row in release DB</text></g><g stroke-opacity="0.7" fill-opacity="0.7" stroke-linecap="round" transform="translate(10 755) rotate(0 750 25)"><path d="M-1.06 -0.8 L1501.82 -1.64 L1500.25 49.96 L1.76 49.64" stroke="none" stroke-width="0" fill="#161b22"></path><path d="M-0.14 -0.06 C387.5 0.55, 774.15 1.53, 1499.82 0.15 M1498.55 -1.95 C1499.72 18.7, 1502.17 33.19, 1500.28 49.78 M1499.86 50.52 C1167.53 52.2, 836.15 51.69, -0.18 50.62 M0.5 48.97 C-1.46 36.95, 0.22 23.15, 0.59 1.24" stroke="#30363d" stroke-width="2.5" fill="none" stroke-dasharray="8 10"></path></g><g transform="translate(25 769) rotate(0 1227 11)"><text x="0" y="NaN" font-family="Virgil, Segoe UI Emoji" font-size="18px" fill="#e6edf3" text-anchor="start" style="white-space: pre;" direction="ltr">The (version, digest, commit-sha) triple is the rollback audit trail. 'Deploy v2.4.0' becomes a digest lookup that is deterministic forever — not a tag lookup that depends on what was re-pushed last.</text></g></svg>