<svg version="1.1" xmlns="http://www.w3.org/2000/svg" viewBox="0 0 1524.4141325960845 535" width="1524.4141325960845" height="535">
  <!-- svg-source:excalidraw -->
  
  <defs>
    <style>
      @font-face {
        font-family: "Virgil";
        src: url("https://excalidraw.com/Virgil.woff2");
      }
      @font-face {
        font-family: "Cascadia";
        src: url("https://excalidraw.com/Cascadia.woff2");
      }
    </style>
  </defs>
  <rect x="0" y="0" width="1524.4141325960845" height="535" fill="#0d1117"></rect><g transform="translate(10 10) rotate(0 385.2798767089844 20)"><text x="0" y="NaN" font-family="Virgil, Segoe UI Emoji" font-size="32px" fill="#ff8c42" text-anchor="start" style="white-space: pre;" direction="ltr">From commit to namespaced process — 6 stages</text></g><g transform="translate(10 53) rotate(0 592.0394897460938 11.875)"><text x="0" y="NaN" font-family="Virgil, Segoe UI Emoji" font-size="19px" fill="#c9d1d9" text-anchor="start" style="white-space: pre;" direction="ltr">The 'version' (a tag) lives at stage 4. The bytes that execute live at stage 6. The gap is where production magic happens.</text></g><g stroke-linecap="round" transform="translate(38.979151925954056 187.1852995490408) rotate(0 97.5 55)"><path d="M-0.95 -1.56 L195.23 -0.65 L196.56 111.31 L-1.04 111.39" stroke="none" stroke-width="0" fill="#1f4d2b"></path><path d="M-1.92 0.54 C76.95 -0.44, 157.52 -0.74, 193.64 2 M-0.85 0.89 C41.8 -1.54, 82.79 -1.25, 195.18 -0.33 M196.34 1.29 C195.36 32.5, 195.87 67.06, 196.74 111.01 M195.39 -0.41 C195.14 32.97, 194.94 66.8, 194.68 109.42 M193.78 108.09 C132.59 110.52, 72.46 111.77, 0.61 109.02 M194.41 110.48 C150.18 109.46, 107.19 111.31, -0.83 110.43 M1.57 108.52 C0.49 83.13, 0.72 55.36, 1.5 -1.86 M-0.34 110.7 C1.13 76.98, 1.18 43.78, 0.1 -0.71" stroke="#3fb950" stroke-width="2" fill="none"></path></g><g transform="translate(89.68518372527046 228.4352995490408) rotate(0 46.793968200683594 13.75)"><text x="46.793968200683594" y="NaN" font-family="Virgil, Segoe UI Emoji" font-size="22px" fill="#ffffff" text-anchor="middle" style="white-space: pre;" direction="ltr">1. Source</text></g><g stroke-linecap="round" transform="translate(313.9363137278302 185.54112179309578) rotate(0 97.5 55)"><path d="M0.33 -0.03 L196.22 0.21 L195.91 111.24 L-1.34 109.53" stroke="none" stroke-width="0" fill="#5c3a10"></path><path d="M-0.21 -1.58 C73.07 1.82, 143.44 2.96, 194.91 -1.96 M0.36 -0.69 C42.89 2.33, 85.59 2.56, 195.42 -0.49 M195.27 -0.13 C194.5 23.36, 195.36 46.69, 194.5 108.55 M195.19 -0.28 C196.35 31.82, 195.04 64, 195.15 110.09 M195.74 109.61 C123.5 111.31, 56.42 112.34, -1.95 109.45 M194.87 110.02 C142.43 110.86, 88.08 110.65, 0.76 109.72 M1.97 109.96 C2 79.2, 0.61 47.91, 0.7 0.09 M0.83 109.53 C-0.1 85.16, 0.72 58.81, 0.47 -0.03" stroke="#f0883e" stroke-width="2" fill="none"></path></g><g transform="translate(366.3253441843732 213.04112179309578) rotate(0 45.11096954345703 27.5)"><text x="45.11096954345703" y="NaN" font-family="Virgil, Segoe UI Emoji" font-size="22px" fill="#ffffff" text-anchor="middle" style="white-space: pre;" direction="ltr">2. Build</text><text x="45.11096954345703" y="NaN" font-family="Virgil, Segoe UI Emoji" font-size="22px" fill="#ffffff" text-anchor="middle" style="white-space: pre;" direction="ltr">artifact</text></g><g stroke-linecap="round" transform="translate(570 185) rotate(0 97.5 55)"><path d="M1.09 1.3 L196.64 -1.16 L196.8 109.17 L-0.39 109.59" stroke="none" stroke-width="0" fill="#3a1d6e"></path><path d="M-1.42 0.22 C46.66 -2.53, 95.95 -2.44, 194.32 -1 M-0.34 -0.26 C77.13 -0.52, 153.91 0.51, 195.6 -0.44 M194.97 1.75 C197.77 41.18, 194.39 80.63, 194.93 110.7 M195.89 -0.59 C194.61 39.82, 195.19 78.71, 194.35 110.13 M196.75 110.67 C127.05 111.03, 57.83 111.31, 1 108.9 M194.46 110.82 C136.22 111.45, 78.77 111.31, 0.07 109.14 M1.05 109.63 C1.26 78.11, 1.89 48.43, -1.64 1.64 M-0.39 110.21 C0.44 70.2, -0.18 27.68, 0.91 -0.89" stroke="#a371f7" stroke-width="2" fill="none"></path></g><g transform="translate(596.6930236816406 226.25) rotate(0 70.80697631835938 13.75)"><text x="70.80697631835938" y="NaN" font-family="Virgil, Segoe UI Emoji" font-size="22px" fill="#ffffff" text-anchor="middle" style="white-space: pre;" direction="ltr">3. OCI image</text></g><g stroke-linecap="round" transform="translate(815.632523091415 184.4672031575672) rotate(0 97.5 55)"><path d="M0.75 -1.02 L196.08 1.34 L196.17 109.02 L1.64 109.6" stroke="none" stroke-width="0" fill="#0d2c5a"></path><path d="M-1.78 1.91 C65.41 2.01, 134.94 -0.73, 193.91 -0.05 M-0.18 0.7 C41.44 1.72, 84.93 1.52, 195.66 0.22 M194.63 1.11 C194.11 26.24, 192.66 51.83, 196.67 111.87 M195.25 0.63 C194.25 32.03, 195.55 62.08, 195.25 110.74 M195.22 110.85 C131.23 109.69, 64.06 109.36, -0.42 108.1 M195.12 109.74 C120.51 109.97, 46.49 110.01, 0.13 110.41 M1.8 110.39 C1 73.49, -2.15 36.07, 0.96 -1.56 M0.59 109.43 C0.23 81.04, 0.66 49.35, 0.97 0.8" stroke="#58a6ff" stroke-width="2" fill="none"></path></g><g transform="translate(821.348572285751 225.7172031575672) rotate(0 91.78395080566406 13.75)"><text x="91.78395080566406" y="NaN" font-family="Virgil, Segoe UI Emoji" font-size="22px" fill="#ffffff" text-anchor="middle" style="white-space: pre;" direction="ltr">4. Registry entry</text></g><g stroke-linecap="round" transform="translate(1072.4288050219297 183.11439867482767) rotate(0 97.5 55)"><path d="M-1.24 -0.42 L193.64 -0.05 L194.65 108.1 L-0.53 108.61" stroke="none" stroke-width="0" fill="#5c3a10"></path><path d="M-0.05 -0.75 C75.08 -0.9, 149.64 0.1, 196.65 1.99 M-0.43 0.56 C73.57 -2.27, 146.67 -0.94, 195.94 0.87 M196.78 -1.24 C196.41 40.86, 198.02 80, 194.73 108.23 M195.92 0.16 C194.43 38.83, 194.7 78.92, 194.99 109.07 M195.09 108 C118.29 111.18, 44.06 108.79, -0.54 109.54 M195.45 109.57 C152.98 110.4, 112.36 110.12, 0.86 109.84 M-1.56 111.51 C1.65 84.71, 0.51 59.23, -0.35 1.37 M-0.19 109.44 C1.29 83.42, 0.62 58.5, -0.48 -0.36" stroke="#f0883e" stroke-width="2" fill="none"></path></g><g transform="translate(1082.9958521410704 224.36439867482767) rotate(0 86.93295288085938 13.75)"><text x="86.93295288085938" y="NaN" font-family="Virgil, Segoe UI Emoji" font-size="22px" fill="#ffffff" text-anchor="middle" style="white-space: pre;" direction="ltr">5. Host-resident</text></g><g stroke-linecap="round" transform="translate(1319.4141325960845 183.29338511408247) rotate(0 97.5 55)"><path d="M-0.63 -1.96 L196.15 1.51 L196 109.22 L-0.34 110.31" stroke="none" stroke-width="0" fill="#3a5d1d"></path><path d="M0.54 -0.99 C41.62 -3.01, 79.62 -0.81, 194.16 -0.11 M-0.79 -0.34 C41.89 0.23, 85.79 0.1, 195.1 0.13 M196.39 -1.12 C193.79 23.79, 197.28 51.58, 195.87 111.31 M194.31 0.47 C195.26 41.35, 195.72 82.58, 194.32 109.79 M193.61 108.43 C128.56 110.09, 64.85 113.18, 1.41 109.77 M195.12 109.34 C120.48 110.81, 45.51 110.53, 0.32 110.37 M-0.41 109.05 C1.05 82.31, 1.84 53.82, -0.66 0.6 M-0.48 109.43 C0.91 83.83, 0.16 57.76, 0.76 -0.76" stroke="#6dbf3a" stroke-width="2" fill="none"></path></g><g transform="translate(1364.323174954483 210.79338511408247) rotate(0 52.59095764160156 27.5)"><text x="52.59095764160156" y="NaN" font-family="Virgil, Segoe UI Emoji" font-size="22px" fill="#ffffff" text-anchor="middle" style="white-space: pre;" direction="ltr">6. Running</text><text x="52.59095764160156" y="NaN" font-family="Virgil, Segoe UI Emoji" font-size="22px" fill="#ffffff" text-anchor="middle" style="white-space: pre;" direction="ltr">container</text></g><g transform="translate(78.79496272553291 307) rotate(0 39.12797546386719 20)"><text x="0" y="NaN" font-family="Virgil, Segoe UI Emoji" font-size="16px" fill="#8b949e" text-anchor="start" style="white-space: pre;" direction="ltr">git commit</text><text x="0" y="NaN" font-family="Virgil, Segoe UI Emoji" font-size="16px" fill="#8b949e" text-anchor="start" style="white-space: pre;" direction="ltr">7f3a91c</text></g><g transform="translate(360 307) rotate(0 48.895957946777344 20)"><text x="0" y="NaN" font-family="Virgil, Segoe UI Emoji" font-size="16px" fill="#8b949e" text-anchor="start" style="white-space: pre;" direction="ltr">myservice.jar</text><text x="0" y="NaN" font-family="Virgil, Segoe UI Emoji" font-size="16px" fill="#8b949e" text-anchor="start" style="white-space: pre;" direction="ltr">12 MB</text></g><g transform="translate(626.8361724301076 305.96770611778646) rotate(0 42.01597595214844 30)"><text x="0" y="NaN" font-family="Virgil, Segoe UI Emoji" font-size="16px" fill="#8b949e" text-anchor="start" style="white-space: pre;" direction="ltr">manifest +</text><text x="0" y="NaN" font-family="Virgil, Segoe UI Emoji" font-size="16px" fill="#8b949e" text-anchor="start" style="white-space: pre;" direction="ltr">5 layers,</text><text x="0" y="NaN" font-family="Virgil, Segoe UI Emoji" font-size="16px" fill="#8b949e" text-anchor="start" style="white-space: pre;" direction="ltr">~320 MB</text></g><g transform="translate(835.4309900217806 306.15085503237276) rotate(0 60.799949645996094 20)"><text x="0" y="NaN" font-family="Virgil, Segoe UI Emoji" font-size="16px" fill="#8b949e" text-anchor="start" style="white-space: pre;" direction="ltr">tag → digest</text><text x="0" y="NaN" font-family="Virgil, Segoe UI Emoji" font-size="16px" fill="#8b949e" text-anchor="start" style="white-space: pre;" direction="ltr">(sha256-pinned)</text></g><g transform="translate(1086.8118915460059 305.5972458132824) rotate(0 61.31195831298828 20)"><text x="0" y="NaN" font-family="Virgil, Segoe UI Emoji" font-size="16px" fill="#8b949e" text-anchor="start" style="white-space: pre;" direction="ltr">layers on disk,</text><text x="0" y="NaN" font-family="Virgil, Segoe UI Emoji" font-size="16px" fill="#8b949e" text-anchor="start" style="white-space: pre;" direction="ltr">overlayfs ready</text></g><g transform="translate(1370.8598994718918 308.88143884984083) rotate(0 46.567970275878906 20)"><text x="0" y="NaN" font-family="Virgil, Segoe UI Emoji" font-size="16px" fill="#8b949e" text-anchor="start" style="white-space: pre;" direction="ltr">PID 1 inside</text><text x="0" y="NaN" font-family="Virgil, Segoe UI Emoji" font-size="16px" fill="#8b949e" text-anchor="start" style="white-space: pre;" direction="ltr">namespaces</text></g><g stroke-linecap="round"><g transform="translate(239.97915192595406 242.0729201504559) rotate(0 33.978580900938084 -0.698709479387631)"><path d="M0.28 -0.55 C11.6 -0.47, 55.93 -0.28, 67.27 -0.23 M-1.04 1.77 C10.73 1.62, 58.17 -1.11, 69.62 -1.74" stroke="#c9d1d9" stroke-width="2" fill="none"></path></g><g transform="translate(239.97915192595406 242.0729201504559) rotate(0 33.978580900938084 -0.698709479387631)"><path d="M41.12 8.93 C50.83 7.66, 57.55 2.78, 68.42 -3 M41.22 9.21 C50.47 7.37, 57.09 4.17, 69.42 -2.08" stroke="#c9d1d9" stroke-width="2" fill="none"></path></g><g transform="translate(239.97915192595406 242.0729201504559) rotate(0 33.978580900938084 -0.698709479387631)"><path d="M39.98 -11.56 C49.84 -7.81, 56.84 -7.66, 68.42 -3 M40.08 -11.28 C49.85 -7.41, 56.79 -4.91, 69.42 -2.08" stroke="#c9d1d9" stroke-width="2" fill="none"></path></g></g><g stroke-linecap="round"><g transform="translate(514.9363137278302 240.4978713709413) rotate(0 27.531843136084888 -0.2489356854706557)"><path d="M-0.87 -0.93 C8.07 -1.03, 44.75 0.34, 54.06 0.26 M0.88 1.2 C10.14 0.68, 47.36 -1.17, 56.25 -1.47" stroke="#c9d1d9" stroke-width="2" fill="none"></path></g><g transform="translate(514.9363137278302 240.4978713709413) rotate(0 27.531843136084888 -0.2489356854706557)"><path d="M29.26 7.39 C40.57 5.57, 46.37 2.14, 56.18 -1.04 M30.57 9.93 C39.03 6.48, 46.3 2.18, 55.33 -2.38" stroke="#c9d1d9" stroke-width="2" fill="none"></path></g><g transform="translate(514.9363137278302 240.4978713709413) rotate(0 27.531843136084888 -0.2489356854706557)"><path d="M28.45 -11.43 C40.18 -6.89, 46.24 -3.98, 56.18 -1.04 M29.76 -8.88 C38.63 -6.86, 46.13 -5.68, 55.33 -2.38" stroke="#c9d1d9" stroke-width="2" fill="none"></path></g></g><g stroke-linecap="round"><g transform="translate(765 240) rotate(0 26.265305921290974 -0.5015782774464981)"><path d="M0.84 -0.93 C9.67 -1.13, 44.6 -0.73, 53.27 -0.79 M-0.17 1.2 C8.54 0.58, 43.97 -2.58, 52.72 -2.8" stroke="#c9d1d9" stroke-width="2" fill="none"></path></g><g transform="translate(765 240) rotate(0 26.265305921290974 -0.5015782774464981)"><path d="M27.09 8.93 C36.81 4.72, 43.79 1.82, 52.16 -0.86 M29.63 7.96 C34.55 4.4, 40.14 1.65, 52.07 -2.5" stroke="#c9d1d9" stroke-width="2" fill="none"></path></g><g transform="translate(765 240) rotate(0 26.265305921290974 -0.5015782774464981)"><path d="M25.98 -9 C36.12 -7.37, 43.47 -4.42, 52.16 -0.86 M28.52 -9.97 C33.55 -9.31, 39.4 -7.83, 52.07 -2.5" stroke="#c9d1d9" stroke-width="2" fill="none"></path></g></g><g stroke-linecap="round"><g transform="translate(1008.8801209768511 238.996843445107) rotate(0 28.774342022539315 -0.39458330649276263)"><path d="M0.41 -0.97 C10.22 -1.21, 48.36 -1.56, 58 -1.68 M-0.83 1.13 C8.93 1.05, 47.51 -0.28, 57.29 -0.6" stroke="#c9d1d9" stroke-width="2" fill="none"></path></g><g transform="translate(1008.8801209768511 238.996843445107) rotate(0 28.774342022539315 -0.39458330649276263)"><path d="M28.97 10.89 C35.3 8.69, 41.48 3.74, 55.67 -0.75 M29.7 9.21 C36.74 8.51, 42.12 4.76, 58.08 -1.41" stroke="#c9d1d9" stroke-width="2" fill="none"></path></g><g transform="translate(1008.8801209768511 238.996843445107) rotate(0 28.774342022539315 -0.39458330649276263)"><path d="M28.31 -8.78 C34.75 -6.44, 41.08 -6.84, 55.67 -0.75 M29.04 -10.47 C36.22 -6.93, 41.74 -6.43, 58.08 -1.41" stroke="#c9d1d9" stroke-width="2" fill="none"></path></g></g><g stroke-linecap="round"><g transform="translate(1273.4288050219297 238.14605678521465) rotate(0 19.99266378707739 0.06883510924042469)"><path d="M0.59 0.41 C7.05 0.77, 32.78 0.97, 39.17 1.01 M-0.56 -0.42 C6.25 -0.29, 34.48 -0.48, 41.46 -0.65" stroke="#c9d1d9" stroke-width="2" fill="none"></path></g><g transform="translate(1273.4288050219297 238.14605678521465) rotate(0 19.99266378707739 0.06883510924042469)"><path d="M23.45 5.09 C30.48 2.25, 36.05 2.29, 40 -1.17 M22.02 5.48 C29.68 3.55, 37.48 0.95, 41.95 0.17" stroke="#c9d1d9" stroke-width="2" fill="none"></path></g><g transform="translate(1273.4288050219297 238.14605678521465) rotate(0 19.99266378707739 0.06883510924042469)"><path d="M23.26 -8.59 C30.22 -6.9, 35.86 -2.33, 40 -1.17 M21.83 -8.19 C29.56 -4.71, 37.43 -1.9, 41.95 0.17" stroke="#c9d1d9" stroke-width="2" fill="none"></path></g></g><g transform="translate(289.6040267944336 140) rotate(0 47.895973205566406 10)"><text x="47.895973205566406" y="NaN" font-family="Virgil, Segoe UI Emoji" font-size="16px" fill="#58a6ff" text-anchor="middle" style="white-space: pre;" direction="ltr">mvn package</text></g><g transform="translate(511.77203369140625 140) rotate(0 45.72796630859375 10)"><text x="45.72796630859375" y="NaN" font-family="Virgil, Segoe UI Emoji" font-size="16px" fill="#58a6ff" text-anchor="middle" style="white-space: pre;" direction="ltr">docker build</text></g><g transform="translate(732.004035949707 140) rotate(0 45.49596405029297 10)"><text x="45.49596405029297" y="NaN" font-family="Virgil, Segoe UI Emoji" font-size="16px" fill="#58a6ff" text-anchor="middle" style="white-space: pre;" direction="ltr">docker push</text></g><g transform="translate(953.7240371704102 140) rotate(0 72.77596282958984 10)"><text x="72.77596282958984" y="NaN" font-family="Virgil, Segoe UI Emoji" font-size="16px" fill="#58a6ff" text-anchor="middle" style="white-space: pre;" direction="ltr">kubelet+containerd</text></g><g transform="translate(1227.0131406820437 138.95105621646047) rotate(0 57.463966369628906 10)"><text x="57.463966369628906" y="NaN" font-family="Virgil, Segoe UI Emoji" font-size="16px" fill="#58a6ff" text-anchor="middle" style="white-space: pre;" direction="ltr">runc + cgroups</text></g><g stroke-linecap="round" transform="translate(805.0823823797691 425) rotate(0 90 27.5)"><path d="M-0.33 -1.62 L179.31 -0.21 L181.96 56.54 L-1.57 56.23" stroke="none" stroke-width="0" fill="#21262d"></path><path d="M1.44 -1.78 C55.54 2.4, 112.78 1.88, 179.55 0.3 M-0.44 0.59 C67.12 -0.33, 136.55 -1.18, 180.21 -0.94 M178.86 1.66 C179.06 18.22, 180.12 36.37, 180.86 55.32 M179.18 0.24 C180.13 20.11, 180.57 38.79, 180.63 54.45 M179.68 56.52 C139.17 56.98, 100.16 55.91, 0.22 55.31 M179.25 54.96 C110.86 54.47, 42.83 54.52, 0.67 55.57 M-0.05 54.59 C-1.92 36.31, 1.25 21.22, 0.68 -1.6 M-0.41 54.67 C0.9 41.94, 0.66 27.26, 0.2 -0.4" stroke="#8b949e" stroke-width="2" fill="none"></path></g><g transform="translate(844.7134248602379 440.625) rotate(0 50.36895751953125 11.875)"><text x="50.36895751953125" y="NaN" font-family="Virgil, Segoe UI Emoji" font-size="19px" fill="#ffffff" text-anchor="middle" style="white-space: pre;" direction="ltr">tag: "2.4.1"</text></g><g transform="translate(830.4960403442383 485) rotate(0 59.50395965576172 20)"><text x="59.50395965576172" y="NaN" font-family="Virgil, Segoe UI Emoji" font-size="16px" fill="#8b949e" text-anchor="middle" style="white-space: pre;" direction="ltr">human-readable</text><text x="59.50395965576172" y="NaN" font-family="Virgil, Segoe UI Emoji" font-size="16px" fill="#8b949e" text-anchor="middle" style="white-space: pre;" direction="ltr">label (mutable)</text></g><g stroke-linecap="round"><g transform="translate(897.1095078662127 425.54944674375884) rotate(0 -0.2663060821743102 -36.69929585569304)"><path d="M0.73 0.45 C0.69 -11.84, 0.86 -60.84, 0.45 -73.19" stroke="#c9d1d9" stroke-width="1.5" fill="none" stroke-dasharray="8 9"></path></g><g transform="translate(897.1095078662127 425.54944674375884) rotate(0 -0.2663060821743102 -36.69929585569304)"><path d="M11.81 -43.48 C7.52 -56.92, 3.02 -66.78, -0.52 -74.58" stroke="#c9d1d9" stroke-width="1.5" fill="none"></path></g><g transform="translate(897.1095078662127 425.54944674375884) rotate(0 -0.2663060821743102 -36.69929585569304)"><path d="M-8.71 -43.23 C-5.75 -56.88, -3 -66.83, -0.52 -74.58" stroke="#c9d1d9" stroke-width="1.5" fill="none"></path></g></g><g stroke-linecap="round" transform="translate(1240 425) rotate(0 90 27.5)"><path d="M-1.06 -0.96 L178.6 -0.05 L179.98 53.83 L0.89 53.85" stroke="none" stroke-width="0" fill="#3a5d1d"></path><path d="M0.03 1.44 C55.08 1.79, 107.67 1.65, 179.79 -0.33 M-0.53 0.62 C51.23 -0.58, 101.53 0.21, 179.26 0.34 M179.77 -1.51 C178.48 13.46, 178.51 28.5, 178.68 54.01 M180.48 0.67 C180.5 13.57, 180.59 28.46, 179.5 55.44 M180.15 54.82 C126.17 54.12, 73.83 54.69, -0.92 56.81 M179.2 54.96 C138.15 55.22, 97.75 55.36, -0.45 55.73 M1.72 56.4 C-1.29 41.76, 1.5 28.36, 1.68 -0.87 M0 54.83 C0.05 36.35, 0.44 18.71, 0.72 0.48" stroke="#6dbf3a" stroke-width="2" fill="none"></path></g><g transform="translate(1265.6850509643555 440.625) rotate(0 64.31494903564453 11.875)"><text x="64.31494903564453" y="NaN" font-family="Virgil, Segoe UI Emoji" font-size="19px" fill="#ffffff" text-anchor="middle" style="white-space: pre;" direction="ltr">sha256: abc…</text></g><g transform="translate(1270.7040252685547 485) rotate(0 62.29597473144531 20)"><text x="62.29597473144531" y="NaN" font-family="Virgil, Segoe UI Emoji" font-size="16px" fill="#8b949e" text-anchor="middle" style="white-space: pre;" direction="ltr">content identity</text><text x="62.29597473144531" y="NaN" font-family="Virgil, Segoe UI Emoji" font-size="16px" fill="#8b949e" text-anchor="middle" style="white-space: pre;" direction="ltr">(immutable)</text></g><g stroke-linecap="round"><g transform="translate(1330 425) rotate(0 0 -20)"><path d="M0.19 0.04 C0.32 -6.8, -0.1 -34.41, -0.19 -40.89" stroke="#c9d1d9" stroke-width="1.5" fill="none" stroke-dasharray="8 9"></path></g><g transform="translate(1330 425) rotate(0 0 -20)"><path d="M6.97 -22.5 C3.86 -26.8, 5.76 -31.21, 1.16 -39.23" stroke="#c9d1d9" stroke-width="1.5" fill="none"></path></g><g transform="translate(1330 425) rotate(0 0 -20)"><path d="M-6.71 -22.31 C-6.83 -26.68, -1.93 -31.13, 1.16 -39.23" stroke="#c9d1d9" stroke-width="1.5" fill="none"></path></g></g><g stroke-linecap="round"><g transform="translate(980 452) rotate(0 130 0)"><path d="M1.2 0.37 C44.84 0.36, 218.05 -0.84, 261.13 -0.81" stroke="#f85149" stroke-width="2.5" fill="none" stroke-dasharray="8 10"></path></g><g transform="translate(980 452) rotate(0 130 0)"><path d="M233.59 11.44 C238.38 6.31, 247.41 2.83, 262.08 -2.78" stroke="#f85149" stroke-width="2.5" fill="none"></path></g><g transform="translate(980 452) rotate(0 130 0)"><path d="M233.52 -9.08 C238.2 -9.34, 247.24 -7.95, 262.08 -2.78" stroke="#f85149" stroke-width="2.5" fill="none"></path></g></g><g transform="translate(995 380) rotate(0 258.65704345703125 10)"><text x="0" y="NaN" font-family="Virgil, Segoe UI Emoji" font-size="16px" fill="#f85149" text-anchor="start" style="white-space: pre;" direction="ltr">should match — usually does, sometimes silently doesn't (see §3)</text></g><g stroke-opacity="0.7" fill-opacity="0.7" stroke-linecap="round" transform="translate(130 415) rotate(0 325 52.5)"><path d="M1 -0.28 L650.59 0.16 L649.08 105.17 L1.09 103.14" stroke="none" stroke-width="0" fill="#161b22"></path><path d="M-0.16 0.2 C248.2 -0.67, 498.25 -0.31, 650.23 -0.27 M648.69 0 C650.56 25.3, 648.7 50.9, 648.21 106.47 M650 104.5 C469.2 103.64, 286.51 103.12, -0.46 105.13 M0.38 104.83 C-1.4 73.74, -0.44 40.83, -0.98 -0.29" stroke="#30363d" stroke-width="2.5" fill="none" stroke-dasharray="8 10"></path></g><g transform="translate(148 427) rotate(0 192.97332763671875 11.875)"><text x="0" y="NaN" font-family="Virgil, Segoe UI Emoji" font-size="19px" fill="#e6edf3" text-anchor="start" style="white-space: pre;" direction="ltr">The version label is a stage-4 attribute</text></g><g transform="translate(148 455) rotate(0 300.90386962890625 30)"><text x="0" y="NaN" font-family="Virgil, Segoe UI Emoji" font-size="16px" fill="#c9d1d9" text-anchor="start" style="white-space: pre;" direction="ltr">Stages 1–2 are owned by build tooling. Stage 6 is owned by the kernel.</text><text x="0" y="NaN" font-family="Virgil, Segoe UI Emoji" font-size="16px" fill="#c9d1d9" text-anchor="start" style="white-space: pre;" direction="ltr">Stages 3–5 are the part most engineers hand-wave through — and that is</text><text x="0" y="NaN" font-family="Virgil, Segoe UI Emoji" font-size="16px" fill="#c9d1d9" text-anchor="start" style="white-space: pre;" direction="ltr">where the gap between 'what you deployed' and 'what is running' opens up.</text></g></svg>