<svg version="1.1" xmlns="http://www.w3.org/2000/svg" viewBox="0 0 1468.50026721832 788.7864830796083" width="1468.50026721832" height="788.7864830796083">
  <!-- svg-source:excalidraw -->
  
  <defs>
    <style>
      @font-face {
        font-family: "Virgil";
        src: url("https://excalidraw.com/Virgil.woff2");
      }
      @font-face {
        font-family: "Cascadia";
        src: url("https://excalidraw.com/Cascadia.woff2");
      }
    </style>
  </defs>
  <rect x="0" y="0" width="1468.50026721832" height="788.7864830796083" fill="#0d1117"></rect><g transform="translate(10 10) rotate(0 260.3379211425781 21.25)"><text x="0" y="NaN" font-family="Virgil, Segoe UI Emoji" font-size="34px" fill="#ff8c42" text-anchor="start" style="white-space: pre;" direction="ltr">What an OCI image actually is</text></g><g transform="translate(10 58) rotate(0 507.40771484375 27.5)"><text x="0" y="NaN" font-family="Virgil, Segoe UI Emoji" font-size="22px" fill="#c9d1d9" text-anchor="start" style="white-space: pre;" direction="ltr">Each Dockerfile line that touches the filesystem produces one content-addressed layer. </text><text x="0" y="NaN" font-family="Virgil, Segoe UI Emoji" font-size="22px" fill="#c9d1d9" text-anchor="start" style="white-space: pre;" direction="ltr">Metadata-only lines (ENV, USER, ENTRYPOINT) update the config blob, not the layer stack.</text></g><g stroke-opacity="0.7" fill-opacity="0.7" stroke-linecap="round" transform="translate(10 140) rotate(0 290 255)"><path d="M0.3 1.64 L580.33 -1.22 L578.09 509.03 L0.19 510.34" stroke="none" stroke-width="0" fill="#161b22"></path><path d="M-0.77 0.21 C230.97 -0.19, 463.38 -0.31, 579.46 0.8 M579.32 0.72 C579.1 107.28, 579.06 214.86, 580.14 509.73 M580.54 510.51 C401.89 507.28, 223.9 507.59, 0.7 510.41 M0.32 509.67 C1.2 357.48, 1.04 205.63, -0.26 -0.46" stroke="#30363d" stroke-width="2.5" fill="none" stroke-dasharray="8 10"></path></g><g transform="translate(28 154) rotate(0 57.77995300292969 15)"><text x="0" y="NaN" font-family="Virgil, Segoe UI Emoji" font-size="24px" fill="#e6edf3" text-anchor="start" style="white-space: pre;" direction="ltr">Dockerfile</text></g><g transform="translate(28 208) rotate(0 83.7584457397461 13.125)"><text x="0" y="NaN" font-family="Virgil, Segoe UI Emoji" font-size="21px" fill="#e6edf3" text-anchor="start" style="white-space: pre;" direction="ltr">FROM alpine:3.19</text></g><g stroke-linecap="round" transform="translate(470 189) rotate(0 50 29)"><path d="M-0.94 -0.77 L101.64 1.22 L100.36 56.15 L-0.03 56.71" stroke="none" stroke-width="0" fill="#3a5d1d"></path><path d="M0.07 -0.98 C24.9 -2.76, 54.97 -1.64, 101.57 -0.78 M0.61 0.05 C30.17 0.27, 61.21 -0.25, 100.18 0.62 M99.37 1.58 C100.99 23.74, 100.86 45.65, 101.03 58.05 M100.51 -0.84 C99.38 16.12, 99.7 32.63, 99.74 57.67 M101.47 56.08 C68.48 56.89, 41.93 56.43, 0.3 56.85 M100.63 57.43 C75.21 58.82, 51.2 57.95, -0.52 58.96 M1.85 59.23 C-1.18 39.46, -0.72 22.01, 0.58 0.92 M0.5 58.9 C0.04 45.29, 0.65 34.54, -0.74 0.53" stroke="#6dbf3a" stroke-width="2" fill="none"></path></g><g transform="translate(489.13451385498047 194.25) rotate(0 30.86548614501953 23.75)"><text x="30.86548614501953" y="NaN" font-family="Virgil, Segoe UI Emoji" font-size="19px" fill="#ffffff" text-anchor="middle" style="white-space: pre;" direction="ltr">L1  ~7</text><text x="30.86548614501953" y="NaN" font-family="Virgil, Segoe UI Emoji" font-size="19px" fill="#ffffff" text-anchor="middle" style="white-space: pre;" direction="ltr">MB</text></g><g transform="translate(28 273) rotate(0 193.45187377929688 13.125)"><text x="0" y="NaN" font-family="Virgil, Segoe UI Emoji" font-size="21px" fill="#e6edf3" text-anchor="start" style="white-space: pre;" direction="ltr">RUN apk add --no-cache openjdk17-jre</text></g><g stroke-linecap="round" transform="translate(470 254) rotate(0 50 29)"><path d="M0.75 -1.02 L101.08 1.34 L101.17 57.02 L1.64 57.6" stroke="none" stroke-width="0" fill="#3a5d1d"></path><path d="M-1.78 1.91 C32.91 1.89, 69.93 -0.85, 98.91 -0.05 M-0.18 0.7 C20.82 0.83, 43.69 0.63, 100.66 0.22 M99.63 1.11 C99.33 13.57, 97.88 26.49, 101.67 59.87 M100.25 0.63 C99.36 17.22, 100.66 32.45, 100.25 58.74 M100.22 58.85 C67.9 57.3, 32.4 56.96, -0.42 56.1 M100.12 57.74 C61.63 57.59, 23.73 57.63, 0.13 58.41 M1.8 58.39 C1.1 38.58, -2.05 18.27, 0.96 -1.56 M0.59 57.43 C-0.18 43.18, 0.25 25.63, 0.97 0.8" stroke="#6dbf3a" stroke-width="2" fill="none"></path></g><g transform="translate(476.91751861572266 259.25) rotate(0 43.082481384277344 23.75)"><text x="43.082481384277344" y="NaN" font-family="Virgil, Segoe UI Emoji" font-size="19px" fill="#ffffff" text-anchor="middle" style="white-space: pre;" direction="ltr">L2  ~85</text><text x="43.082481384277344" y="NaN" font-family="Virgil, Segoe UI Emoji" font-size="19px" fill="#ffffff" text-anchor="middle" style="white-space: pre;" direction="ltr">MB</text></g><g transform="translate(27.911151111071945 338) rotate(0 152.27093505859375 13.125)"><text x="0" y="NaN" font-family="Virgil, Segoe UI Emoji" font-size="21px" fill="#e6edf3" text-anchor="start" style="white-space: pre;" direction="ltr">RUN adduser -D -u 1000 svc</text></g><g stroke-linecap="round" transform="translate(470 324) rotate(0 50 29)"><path d="M0.62 1.32 L100.29 -0.89 L100.63 57.4 L-0.85 58.29" stroke="none" stroke-width="0" fill="#3a5d1d"></path><path d="M1.7 0.88 C27.56 -2.25, 56.33 -1.84, 99.12 0.29 M-0.14 -0.66 C19.4 0.26, 39.98 1.61, 100.17 -0.81 M99.75 0.71 C100.58 21.99, 98.51 42.58, 100.67 59.9 M100.35 0.77 C100.62 22.78, 99.03 45.9, 100.17 58.29 M100.5 59.95 C61.6 58.41, 23.67 57.51, 1.69 57.98 M100.09 57.53 C79.25 57.96, 59.66 57.97, -0.7 57.62 M0.33 56.15 C-0.28 45.58, 1.78 32.15, -0.94 -0.47 M-0.07 58.67 C0.21 36.44, -0.82 16.14, -0.27 0.19" stroke="#6dbf3a" stroke-width="2" fill="none"></path></g><g transform="translate(487.77601623535156 329.25) rotate(0 32.22398376464844 23.75)"><text x="32.22398376464844" y="NaN" font-family="Virgil, Segoe UI Emoji" font-size="19px" fill="#ffffff" text-anchor="middle" style="white-space: pre;" direction="ltr">L3  ~1</text><text x="32.22398376464844" y="NaN" font-family="Virgil, Segoe UI Emoji" font-size="19px" fill="#ffffff" text-anchor="middle" style="white-space: pre;" direction="ltr">KB</text></g><g transform="translate(28 388) rotate(0 77.89945983886719 13.125)"><text x="0" y="NaN" font-family="Virgil, Segoe UI Emoji" font-size="21px" fill="#e6edf3" text-anchor="start" style="white-space: pre;" direction="ltr">WORKDIR /app</text></g><g transform="translate(470 389) rotate(0 54.482452392578125 11.875)"><text x="0" y="NaN" font-family="Virgil, Segoe UI Emoji" font-size="19px" fill="#8b949e" text-anchor="start" style="white-space: pre;" direction="ltr">(config only)</text></g><g transform="translate(28 438) rotate(0 233.08941650390625 13.125)"><text x="0" y="NaN" font-family="Virgil, Segoe UI Emoji" font-size="21px" fill="#e6edf3" text-anchor="start" style="white-space: pre;" direction="ltr">COPY target/myservice.jar /app/myservice.jar</text></g><g stroke-linecap="round" transform="translate(469.91401720426313 419) rotate(0 50 29)"><path d="M-1.56 -1.23 L98.58 -1.45 L100.3 56.56 L-1.88 59.87" stroke="none" stroke-width="0" fill="#3a5d1d"></path><path d="M1.46 -1.99 C31.22 1.3, 62.13 -1, 101.22 0.24 M-0.37 0.54 C26.2 0.76, 52.6 0.34, 100.91 -0.42 M98.8 -0.21 C101.97 18.36, 101.18 39.44, 100.74 59.63 M99.57 0.31 C100.17 16.33, 100.95 31.48, 99.81 57.16 M101.62 59.99 C77.07 57.38, 52.93 57.65, 1.27 58.03 M100.56 58.77 C68.52 59.15, 35.64 58.58, 0.64 57.93 M1.77 57.04 C1.04 36.68, -1.84 16.64, 0.07 1.84 M0.43 58.13 C0.16 44.29, 0.39 30.41, -0.94 0.52" stroke="#6dbf3a" stroke-width="2" fill="none"></path></g><g transform="translate(481.31553697965376 424.25) rotate(0 38.598480224609375 23.75)"><text x="38.598480224609375" y="NaN" font-family="Virgil, Segoe UI Emoji" font-size="19px" fill="#ffffff" text-anchor="middle" style="white-space: pre;" direction="ltr">L4  ~12</text><text x="38.598480224609375" y="NaN" font-family="Virgil, Segoe UI Emoji" font-size="19px" fill="#ffffff" text-anchor="middle" style="white-space: pre;" direction="ltr">MB</text></g><g transform="translate(28 483) rotate(0 49.79096984863281 13.125)"><text x="0" y="NaN" font-family="Virgil, Segoe UI Emoji" font-size="21px" fill="#e6edf3" text-anchor="start" style="white-space: pre;" direction="ltr">USER svc</text></g><g transform="translate(470 489) rotate(0 54.482452392578125 11.875)"><text x="0" y="NaN" font-family="Virgil, Segoe UI Emoji" font-size="19px" fill="#8b949e" text-anchor="start" style="white-space: pre;" direction="ltr">(config only)</text></g><g transform="translate(28 528) rotate(0 142.10687255859375 13.125)"><text x="0" y="NaN" font-family="Virgil, Segoe UI Emoji" font-size="21px" fill="#e6edf3" text-anchor="start" style="white-space: pre;" direction="ltr">ENTRYPOINT ["java","-jar",</text></g><g transform="translate(470 534) rotate(0 54.482452392578125 11.875)"><text x="0" y="NaN" font-family="Virgil, Segoe UI Emoji" font-size="19px" fill="#8b949e" text-anchor="start" style="white-space: pre;" direction="ltr">(config only)</text></g><g transform="translate(28 573) rotate(0 167.17044067382812 13.125)"><text x="0" y="NaN" font-family="Virgil, Segoe UI Emoji" font-size="21px" fill="#e6edf3" text-anchor="start" style="white-space: pre;" direction="ltr">            "/app/myservice.jar"]</text></g><g transform="translate(470 579) rotate(0 54.482452392578125 11.875)"><text x="0" y="NaN" font-family="Virgil, Segoe UI Emoji" font-size="19px" fill="#8b949e" text-anchor="start" style="white-space: pre;" direction="ltr">(config only)</text></g><g transform="translate(28 620) rotate(0 205.16993713378906 13.125)"><text x="0" y="NaN" font-family="Virgil, Segoe UI Emoji" font-size="21px" fill="#3fb950" text-anchor="start" style="white-space: pre;" direction="ltr">→ 4 layers + 1 config blob + 1 manifest</text></g><g stroke-linecap="round"><g transform="translate(595 395) rotate(0 65.01757955422943 -0.7162132481539345)"><path d="M0.32 0.8 C21.95 0.41, 109.48 -1.47, 130.92 -2.03 M-0.97 0.17 C20.48 -0.09, 108.39 -0.47, 130.44 -0.8" stroke="#e6edf3" stroke-width="3" fill="none"></path></g><g transform="translate(595 395) rotate(0 65.01757955422943 -0.7162132481539345)"><path d="M103.67 11.19 C112.38 3.73, 122.55 3.02, 129.41 0.69 M101.96 9.34 C112.45 6.53, 121.82 1.68, 130.04 -0.75" stroke="#e6edf3" stroke-width="3" fill="none"></path></g><g transform="translate(595 395) rotate(0 65.01757955422943 -0.7162132481539345)"><path d="M103.49 -9.33 C112.31 -8.72, 122.56 -1.36, 129.41 0.69 M101.77 -11.18 C112.53 -6.94, 121.96 -4.75, 130.04 -0.75" stroke="#e6edf3" stroke-width="3" fill="none"></path></g></g><g transform="translate(641.6276106821591 371.685508981041) rotate(0 30.889968872070312 25)"><text x="30.889968872070312" y="NaN" font-family="Virgil, Segoe UI Emoji" font-size="20px" fill="#e6edf3" text-anchor="middle" style="white-space: pre;" direction="ltr">docker</text><text x="30.889968872070312" y="NaN" font-family="Virgil, Segoe UI Emoji" font-size="20px" fill="#e6edf3" text-anchor="middle" style="white-space: pre;" direction="ltr"> build</text></g><g stroke-opacity="0.7" fill-opacity="0.7" stroke-linecap="round" transform="translate(731.0351591084589 138.4504793870181) rotate(0 363.7325540549306 254.99999999999997)"><path d="M1.36 0.44 L727.68 -0.53 L728.16 508.66 L-1.81 510.25" stroke="none" stroke-width="0" fill="#161b22"></path><path d="M-0.04 -0.73 C156.78 -0.42, 314.48 -0.19, 728.19 -0.44 M727.59 -0.18 C726.63 121.82, 726.29 242.29, 726.75 510.29 M726.79 510.24 C535.7 509.81, 344.99 508.93, 0.67 510.14 M0.52 509.51 C2.27 341.88, 1.71 173.27, 0.47 -0.39" stroke="#30363d" stroke-width="2.5" fill="none" stroke-dasharray="8 10"></path></g><g transform="translate(743 149) rotate(0 105.85194396972656 15)"><text x="0" y="NaN" font-family="Virgil, Segoe UI Emoji" font-size="24px" fill="#e6edf3" text-anchor="start" style="white-space: pre;" direction="ltr">OCI image on disk</text></g><g stroke-linecap="round" transform="translate(755 571) rotate(0 140 17)"><path d="M0.3 1.04 L281.3 1.81 L279.99 35.59 L-0.49 32.55" stroke="none" stroke-width="0" fill="#5c3a10"></path><path d="M1.45 -1.1 C76.78 -0.12, 153.92 0.52, 280.32 0.12 M-0.28 -0.66 C104.99 -0.88, 210.57 -0.17, 280.15 0.07 M280.2 -0.15 C279.18 12.41, 277.99 22.37, 278.12 34.57 M279.78 -0.21 C280.83 10.16, 279.49 19.49, 280.38 34.03 M279.4 35.38 C192.92 35.32, 107.02 35.3, 1.18 32.57 M280.29 33.56 C185.25 32.89, 89.4 33.02, 0.23 34.11 M0.71 32.57 C-1.84 28.49, -0.16 21.53, -0.44 0.72 M0.92 34.77 C0.13 26.19, 0.82 16.41, -0.72 -0.83" stroke="#f0883e" stroke-width="2" fill="none"></path></g><g transform="translate(787.4885787963867 576.125) rotate(0 107.51142120361328 11.875)"><text x="107.51142120361328" y="NaN" font-family="Virgil, Segoe UI Emoji" font-size="19px" fill="#ffffff" text-anchor="middle" style="white-space: pre;" direction="ltr">L1: alpine base  (7 MB)</text></g><g stroke-linecap="round" transform="translate(755 464) rotate(0 140 51)"><path d="M-0.03 0.94 L280.66 -0.47 L278.54 101.72 L0.21 102.07" stroke="none" stroke-width="0" fill="#5c3a10"></path><path d="M1.13 1.3 C78.01 -1.9, 155.16 -0.26, 278.55 0.9 M0.58 -0.75 C85.25 -0.23, 171.26 -0.6, 280.67 0.24 M280.63 1.62 C279.39 33.16, 279.14 63.3, 281.02 102.94 M280.16 0.03 C280.48 32.97, 281.01 66.28, 279.18 101.64 M278.65 101.5 C183.98 101.25, 89.38 102.92, -0.06 102.22 M280.63 102.72 C184.81 102.4, 90.88 102.14, -0.31 102.19 M0.46 101.86 C-0.19 70.3, 0.3 43.86, 0.21 -1.79 M0.83 102.64 C-0.24 79.11, -0.53 55.72, -0.96 0.81" stroke="#f0883e" stroke-width="2" fill="none"></path></g><g transform="translate(770.0560913085938 503.125) rotate(0 124.94390869140625 11.875)"><text x="124.94390869140625" y="NaN" font-family="Virgil, Segoe UI Emoji" font-size="19px" fill="#ffffff" text-anchor="middle" style="white-space: pre;" direction="ltr">L2: openjdk17-jre  (85 MB)</text></g><g stroke-linecap="round" transform="translate(755 420) rotate(0 140 17)"><path d="M1.84 -0.29 L280.7 -0.12 L280.46 33.88 L-1.44 34.72" stroke="none" stroke-width="0" fill="#5c3a10"></path><path d="M0.58 1.26 C99.16 -2.79, 197.48 -2.75, 279.26 -1.07 M-0.37 -0.61 C108.34 -1.33, 215.87 -1.44, 279.26 -0.67 M278.96 -0.67 C280.34 10.23, 282.05 20.15, 279.87 35.34 M280.97 -0.41 C280.14 11.11, 280.07 21.72, 279.1 33.5 M281.41 34.9 C199.32 33.6, 120.07 33.34, -0.33 33.01 M279.74 33.85 C184.4 34.19, 88.08 33.79, -0.15 34.11 M-0.18 33.26 C2.03 26.79, 1.82 15.96, -0.56 -1.03 M-0.13 33.94 C-0.73 25.04, 0.49 15.19, -0.26 -0.48" stroke="#f0883e" stroke-width="2" fill="none"></path></g><g transform="translate(775.2525787353516 425.125) rotate(0 119.74742126464844 11.875)"><text x="119.74742126464844" y="NaN" font-family="Virgil, Segoe UI Emoji" font-size="19px" fill="#ffffff" text-anchor="middle" style="white-space: pre;" direction="ltr">L3: adduser svc  (&lt;1 MB)</text></g><g stroke-linecap="round" transform="translate(755 376) rotate(0 140 17)"><path d="M-0.29 -1.32 L279.26 -1.8 L279.21 32.83 L0.62 34.64" stroke="none" stroke-width="0" fill="#1f4d2b"></path><path d="M-1.33 -1.51 C111.12 1.24, 223.91 1.23, 279.77 -0.51 M-0.52 -0.66 C72.58 -1.25, 144.14 -2.36, 279.82 0.27 M278.4 0.55 C281.51 9.73, 279.03 19.03, 278.14 32.84 M279.3 -0.8 C280.06 11.41, 280.39 23.05, 279.25 34.33 M280.87 34.61 C220.3 32.82, 160.93 34.71, 1.5 33.67 M280.25 34.04 C171.07 36.26, 61.23 35.61, 0.14 33.71 M0.92 32.48 C-0.24 24.28, 1.91 12.88, -0.57 0.77 M-0.53 34.97 C0.33 24.78, -0.13 14.71, 0.05 0.83" stroke="#3fb950" stroke-width="2" fill="none"></path></g><g transform="translate(773.1910781860352 381.125) rotate(0 121.80892181396484 11.875)"><text x="121.80892181396484" y="NaN" font-family="Virgil, Segoe UI Emoji" font-size="19px" fill="#ffffff" text-anchor="middle" style="white-space: pre;" direction="ltr">L4: myservice.jar  (12 MB)</text></g><g transform="translate(1047 574) rotate(0 73.69194793701172 11.25)"><text x="0" y="NaN" font-family="Virgil, Segoe UI Emoji" font-size="18px" fill="#8b949e" text-anchor="start" style="white-space: pre;" direction="ltr">sha256: 5d20b…</text></g><g transform="translate(1047 511) rotate(0 73.95294952392578 11.25)"><text x="0" y="NaN" font-family="Virgil, Segoe UI Emoji" font-size="18px" fill="#8b949e" text-anchor="start" style="white-space: pre;" direction="ltr">sha256: 9af33…</text></g><g transform="translate(1047 448) rotate(0 70.23594665527344 11.25)"><text x="0" y="NaN" font-family="Virgil, Segoe UI Emoji" font-size="18px" fill="#8b949e" text-anchor="start" style="white-space: pre;" direction="ltr">sha256: 17e0a…</text></g><g transform="translate(1047 424) rotate(0 67.96794891357422 11.25)"><text x="0" y="NaN" font-family="Virgil, Segoe UI Emoji" font-size="18px" fill="#8b949e" text-anchor="start" style="white-space: pre;" direction="ltr">sha256: 7c1b4…</text></g><g transform="translate(755 341) rotate(0 200.78961181640625 13.125)"><text x="0" y="NaN" font-family="Virgil, Segoe UI Emoji" font-size="21px" fill="#3fb950" text-anchor="start" style="white-space: pre;" direction="ltr">layer stack — total ≈ 105 MB on disk</text></g><g stroke-linecap="round" transform="translate(1236.2696048014118 212.28951184123446) rotate(0 85 45)"><path d="M-1.29 0.31 L171.51 0.4 L170.34 91.17 L0.7 90.95" stroke="none" stroke-width="0" fill="#3a1d6e"></path><path d="M0.89 -0.07 C64.86 0.11, 128.44 -1.25, 170.73 -0.83 M-0.09 0.43 C51.93 -1.82, 103.16 -1.94, 169.5 0.6 M168.62 -1.21 C168 24.07, 168.31 45.88, 170 89.65 M170.23 -0.53 C169.53 19.27, 170.03 37.57, 170.44 90.57 M170.52 89.98 C120.19 90.09, 69.12 89.73, 0.84 89.82 M169.71 90.07 C131.7 89.07, 93.95 88.47, 0.55 89.1 M1.93 88.19 C-1.81 59.46, -1.74 31.14, 0.87 0.02 M-0.54 90.86 C-0.34 68.34, -1.01 45.49, 0.94 -0.66" stroke="#a371f7" stroke-width="2" fill="none"></path></g><g transform="translate(1275.8726321451618 243.53951184123446) rotate(0 45.39697265625 13.75)"><text x="45.39697265625" y="NaN" font-family="Virgil, Segoe UI Emoji" font-size="22px" fill="#ffffff" text-anchor="middle" style="white-space: pre;" direction="ltr">manifest</text></g><g transform="translate(1227.2940826416016 311) rotate(0 104.70591735839844 45)"><text x="104.70591735839844" y="NaN" font-family="Virgil, Segoe UI Emoji" font-size="18px" fill="#8b949e" text-anchor="middle" style="white-space: pre;" direction="ltr">lists config digest</text><text x="104.70591735839844" y="NaN" font-family="Virgil, Segoe UI Emoji" font-size="18px" fill="#8b949e" text-anchor="middle" style="white-space: pre;" direction="ltr">+ ordered layer digests</text><text x="104.70591735839844" y="NaN" font-family="Virgil, Segoe UI Emoji" font-size="18px" fill="#8b949e" text-anchor="middle" style="white-space: pre;" direction="ltr">→ sha256(manifest) =</text><text x="104.70591735839844" y="NaN" font-family="Virgil, Segoe UI Emoji" font-size="18px" fill="#8b949e" text-anchor="middle" style="white-space: pre;" direction="ltr">the image digest</text></g><g stroke-linecap="round" transform="translate(1235 445) rotate(0 85 40)"><path d="M1.47 1.26 L169.3 -1.56 L169.7 81.4 L-1.81 80.58" stroke="none" stroke-width="0" fill="#0d2c5a"></path><path d="M1.41 -0.11 C47.83 -1.16, 93.25 -1.51, 169.05 0.95 M0.64 -0.1 C51.06 -1.65, 102.47 -1.63, 169.02 0.8 M170.44 -1.95 C168.45 15.23, 168.48 32.34, 171.99 78.79 M170.92 -0.2 C170.61 22.15, 169.83 43.19, 170.37 80.31 M168.06 80.47 C131.59 80.82, 92.91 82.65, 0.55 80.61 M169.75 80.61 C131.36 81.7, 92.47 81.78, 0.08 80.91 M1.94 81.58 C1.14 49.22, -1.03 19.2, 1.33 0.45 M0.19 79.58 C-0.19 59.6, 0.23 40.42, -0.49 0.29" stroke="#58a6ff" stroke-width="2" fill="none"></path></g><g transform="translate(1264.3180465698242 471.25) rotate(0 55.68195343017578 13.75)"><text x="55.68195343017578" y="NaN" font-family="Virgil, Segoe UI Emoji" font-size="22px" fill="#ffffff" text-anchor="middle" style="white-space: pre;" direction="ltr">config blob</text></g><g transform="translate(1233.086051940918 531) rotate(0 99.41394805908203 33.75)"><text x="99.41394805908203" y="NaN" font-family="Virgil, Segoe UI Emoji" font-size="18px" fill="#8b949e" text-anchor="middle" style="white-space: pre;" direction="ltr">ENV, USER, WORKDIR,</text><text x="99.41394805908203" y="NaN" font-family="Virgil, Segoe UI Emoji" font-size="18px" fill="#8b949e" text-anchor="middle" style="white-space: pre;" direction="ltr">ENTRYPOINT,</text><text x="99.41394805908203" y="NaN" font-family="Virgil, Segoe UI Emoji" font-size="18px" fill="#8b949e" text-anchor="middle" style="white-space: pre;" direction="ltr">build history</text></g><g stroke-linecap="round"><g transform="translate(1230.2696048014118 264.56509257540193) rotate(0 -95.1348024007059 115.21745371229903)"><path d="M-0.87 -1.01 C-32.58 37.45, -158.89 191.28, -190.45 229.81" stroke="#c9d1d9" stroke-width="1.5" fill="none" stroke-dasharray="8 9"></path></g><g transform="translate(1230.2696048014118 264.56509257540193) rotate(0 -95.1348024007059 115.21745371229903)"><path d="M-182.2 201.2 C-184.64 209.53, -186.93 218.53, -191.97 227.94" stroke="#c9d1d9" stroke-width="1.5" fill="none"></path></g><g transform="translate(1230.2696048014118 264.56509257540193) rotate(0 -95.1348024007059 115.21745371229903)"><path d="M-166.33 214.21 C-173.21 218.7, -180.05 223.97, -191.97 227.94" stroke="#c9d1d9" stroke-width="1.5" fill="none"></path></g></g><g stroke-linecap="round"><g transform="translate(1236.4233509784847 487.0290699171711) rotate(0 -97.71167548924234 2.721570579542089)"><path d="M-0.28 -0.13 C-32.78 0.97, -162.81 4.39, -195.4 5.39" stroke="#c9d1d9" stroke-width="1.5" fill="none" stroke-dasharray="8 9"></path></g><g transform="translate(1236.4233509784847 487.0290699171711) rotate(0 -97.71167548924234 2.721570579542089)"><path d="M-167.72 -5.62 C-175.18 -3.45, -181.8 0.49, -193.43 4.31" stroke="#c9d1d9" stroke-width="1.5" fill="none"></path></g><g transform="translate(1236.4233509784847 487.0290699171711) rotate(0 -97.71167548924234 2.721570579542089)"><path d="M-167.14 14.89 C-174.55 11.57, -181.33 10.02, -193.43 4.31" stroke="#c9d1d9" stroke-width="1.5" fill="none"></path></g></g><g stroke-opacity="0.6" fill-opacity="0.6" stroke-linecap="round" transform="translate(10 680) rotate(0 721.399023077669 49.39324153980414)"><path d="M0.38 1.38 L1441.57 0.35 L1441.48 100.09 L1.35 99.85" stroke="none" stroke-width="0" fill="#4a1219"></path><path d="M-0.04 0.23 C379.08 -3.84, 757.93 -2.97, 1443.08 -0.35 M1441.56 -1.85 C1443.08 21.92, 1440.82 41.74, 1441.19 97.85 M1442.25 98.88 C878.14 96.99, 314.24 96.45, -0.6 99 M-0.89 96.88 C-0.71 75.5, 0.58 51.26, -1.21 -0.45" stroke="#f85149" stroke-width="2.5" fill="none" stroke-dasharray="8 10"></path></g><g transform="translate(30 692) rotate(0 208.9998779296875 13.75)"><text x="0" y="NaN" font-family="Virgil, Segoe UI Emoji" font-size="22px" fill="#f85149" text-anchor="start" style="white-space: pre;" direction="ltr">Layer order = cache invalidation order</text></g><g transform="translate(30 720) rotate(0 468.45416259765625 23.75)"><text x="0" y="NaN" font-family="Virgil, Segoe UI Emoji" font-size="19px" fill="#c9d1d9" text-anchor="start" style="white-space: pre;" direction="ltr">L4 (the jar) changes every build. L1–L3 change rarely. If you put COPY *.jar above RUN apk add, </text><text x="0" y="NaN" font-family="Virgil, Segoe UI Emoji" font-size="19px" fill="#c9d1d9" text-anchor="start" style="white-space: pre;" direction="ltr">the JDK layer rebuilds on every code change → 5-minute build instead of 30 seconds.</text></g></svg>