<svg version="1.1" xmlns="http://www.w3.org/2000/svg" viewBox="0 0 1407.2493286132812 635" width="1407.2493286132812" height="635">
  <!-- svg-source:excalidraw -->
  
  <defs>
    <style>
      @font-face {
        font-family: "Virgil";
        src: url("https://excalidraw.com/Virgil.woff2");
      }
      @font-face {
        font-family: "Cascadia";
        src: url("https://excalidraw.com/Cascadia.woff2");
      }
    </style>
  </defs>
  <rect x="0" y="0" width="1407.2493286132812" height="635" fill="#0d1117"></rect><g transform="translate(10 10) rotate(0 240.04791259765625 20)"><text x="0" y="NaN" font-family="Virgil, Segoe UI Emoji" font-size="32px" fill="#ff8c42" text-anchor="start" style="white-space: pre;" direction="ltr">The registry: dedup-by-content</text></g><g transform="translate(10 53) rotate(0 656.12646484375 11.875)"><text x="0" y="NaN" font-family="Virgil, Segoe UI Emoji" font-size="19px" fill="#c9d1d9" text-anchor="start" style="white-space: pre;" direction="ltr">Two small indexes + one huge blob store. Layers are keyed by sha256, so identical bytes are stored once — across all images, all teams.</text></g><g stroke-opacity="0.6" fill-opacity="0.6" stroke-linecap="round" transform="translate(20 145) rotate(0 180 110)"><path d="M0.3 1.64 L360.33 -1.22 L358.09 219.03 L0.19 220.34" stroke="none" stroke-width="0" fill="#161b22"></path><path d="M-1.21 0.34 C143.05 -0.29, 288.38 -0.48, 359.14 1.26 M358.52 1.55 C359.9 46.15, 359.8 92.95, 360.3 219.42 M360.85 220.82 C249.54 217.01, 139.25 217.5, 1.1 220.64 M0.68 219.28 C1.66 154.3, 1.31 90.07, -0.55 -1.01" stroke="#30363d" stroke-width="2.5" fill="none" stroke-dasharray="8 10"></path></g><g transform="translate(36 157) rotate(0 98.22992706298828 11.875)"><text x="0" y="NaN" font-family="Virgil, Segoe UI Emoji" font-size="19px" fill="#f85149" text-anchor="start" style="white-space: pre;" direction="ltr">Tag index  (mutable)</text></g><g transform="translate(36 183) rotate(0 143.66390991210938 10)"><text x="0" y="NaN" font-family="Virgil, Segoe UI Emoji" font-size="16px" fill="#8b949e" text-anchor="start" style="white-space: pre;" direction="ltr">key = (repo, tag) → manifest digest</text></g><g stroke-linecap="round" transform="translate(36 217) rotate(0 164 17)"><path d="M-0.94 -0.77 L329.64 1.22 L328.36 32.15 L-0.03 32.71" stroke="none" stroke-width="0" fill="#21262d"></path><path d="M0.05 -0.67 C85.95 -3.18, 175.45 -2.41, 329.08 -0.54 M0.42 0.04 C100.83 0.52, 202.26 0.17, 328.12 0.42 M327.37 1.58 C329.13 14.64, 329.01 27.46, 329.03 34.05 M328.51 -0.84 C327.44 9.22, 327.77 18.83, 327.74 33.67 M329.01 32.68 C229.46 31.89, 134.33 31.58, 0.2 33.21 M328.43 33.61 C248.14 35.97, 168.82 35.38, -0.36 34.66 M1.85 35.23 C-0.97 22.75, -0.5 12.57, 0.58 0.92 M0.5 34.9 C0.17 26.31, 0.78 20.6, -0.74 0.53" stroke="#8b949e" stroke-width="2" fill="none"></path></g><g transform="translate(44 225) rotate(0 54.60795593261719 10)"><text x="0" y="NaN" font-family="Virgil, Segoe UI Emoji" font-size="16px" fill="#e6edf3" text-anchor="start" style="white-space: pre;" direction="ltr">myservice:2.4.1</text></g><g transform="translate(220 225) rotate(0 59.97595977783203 10)"><text x="0" y="NaN" font-family="Virgil, Segoe UI Emoji" font-size="16px" fill="#58a6ff" text-anchor="start" style="white-space: pre;" direction="ltr">→ sha256: m1…</text></g><g stroke-linecap="round" transform="translate(36 259) rotate(0 164 17)"><path d="M0.75 -1.02 L329.08 1.34 L329.17 33.02 L1.64 33.6" stroke="none" stroke-width="0" fill="#21262d"></path><path d="M-1.22 1.31 C111.33 1.5, 225.49 -0.38, 327.25 -0.04 M-0.12 0.48 C70.58 2.03, 142.57 1.89, 328.46 0.15 M327.63 1.11 C327.43 7.73, 325.98 14.79, 329.67 35.87 M328.25 0.63 C327.41 10.38, 328.71 18.77, 328.25 34.74 M328.15 34.58 C219.51 34.17, 108.68 33.93, -0.29 32.69 M328.08 33.82 C203.05 34.35, 78.43 34.38, 0.09 34.28 M1.8 34.39 C1.14 22.47, -2 10.05, 0.96 -1.56 M0.59 33.43 C-0.37 25.7, 0.06 14.68, 0.97 0.8" stroke="#8b949e" stroke-width="2" fill="none"></path></g><g transform="translate(44 267) rotate(0 58.27195739746094 10)"><text x="0" y="NaN" font-family="Virgil, Segoe UI Emoji" font-size="16px" fill="#e6edf3" text-anchor="start" style="white-space: pre;" direction="ltr">myservice:2.3.0</text></g><g transform="translate(220 267) rotate(0 63.50395965576172 10)"><text x="0" y="NaN" font-family="Virgil, Segoe UI Emoji" font-size="16px" fill="#58a6ff" text-anchor="start" style="white-space: pre;" direction="ltr">→ sha256: m2…</text></g><g stroke-linecap="round" transform="translate(36 301) rotate(0 164 17)"><path d="M0.62 1.32 L328.29 -0.89 L328.63 33.4 L-0.85 34.29" stroke="none" stroke-width="0" fill="#21262d"></path><path d="M1.17 0.6 C93.87 -2.85, 188.58 -2.57, 327.4 0.2 M-0.1 -0.45 C65.58 1.16, 131.97 2.09, 328.11 -0.56 M327.75 0.71 C328.79 13.39, 326.71 25.39, 328.67 35.9 M328.35 0.77 C328.77 13.48, 327.18 27.31, 328.17 34.29 M328.34 35.34 C200.58 33.56, 73.49 32.94, 1.16 33.98 M328.06 33.68 C260.93 34.96, 194.66 34.97, -0.48 33.74 M0.33 32.15 C-0.52 27.18, 1.54 19.33, -0.94 -0.47 M-0.07 34.67 C0.35 20.99, -0.68 9.26, -0.27 0.19" stroke="#8b949e" stroke-width="2" fill="none"></path></g><g transform="translate(44 309) rotate(0 53.43994903564453 10)"><text x="0" y="NaN" font-family="Virgil, Segoe UI Emoji" font-size="16px" fill="#e6edf3" text-anchor="start" style="white-space: pre;" direction="ltr">otherapp:1.0.0</text></g><g transform="translate(220 309) rotate(0 63.255958557128906 10)"><text x="0" y="NaN" font-family="Virgil, Segoe UI Emoji" font-size="16px" fill="#58a6ff" text-anchor="start" style="white-space: pre;" direction="ltr">→ sha256: m3…</text></g><g stroke-opacity="0.6" fill-opacity="0.6" stroke-linecap="round" transform="translate(20 405) rotate(0 180 110)"><path d="M0.31 1.85 L360.98 1 L360.9 219.97 L1.14 219.99" stroke="none" stroke-width="0" fill="#161b22"></path><path d="M1.09 0.79 C124.61 -0.14, 249.99 -0.34, 359.15 0.91 M360.03 -0.41 C360.57 55.22, 359.13 108.93, 360.37 219.82 M360.66 218.79 C245.97 216.9, 133.31 217.06, 0.17 219.36 M1.32 218.71 C-0.29 165.87, -0.01 111.25, 0.32 1.3" stroke="#30363d" stroke-width="2.5" fill="none" stroke-dasharray="8 10"></path></g><g transform="translate(36 417) rotate(0 130.67239379882812 11.875)"><text x="0" y="NaN" font-family="Virgil, Segoe UI Emoji" font-size="19px" fill="#58a6ff" text-anchor="start" style="white-space: pre;" direction="ltr">Manifest store  (immutable)</text></g><g transform="translate(36 443) rotate(0 130.28793334960938 10)"><text x="0" y="NaN" font-family="Virgil, Segoe UI Emoji" font-size="16px" fill="#8b949e" text-anchor="start" style="white-space: pre;" direction="ltr">key = sha256(manifest) → JSON</text></g><g stroke-linecap="round" transform="translate(36 477) rotate(0 164 17)"><path d="M0.58 -1.6 L328.05 1.83 L327.24 35.32 L-1.44 32.8" stroke="none" stroke-width="0" fill="#0d2c5a"></path><path d="M-1.25 -0.47 C87.99 -1.98, 175.74 0.03, 328.69 -0.34 M0.62 0.45 C89.17 -2.2, 177.42 -1.48, 328.46 0.62 M326.25 -0.6 C329.29 12.83, 327.44 21.85, 329.13 35.74 M328.46 0.03 C328.38 12.47, 327.56 22.47, 327.33 34.83 M328.51 33.84 C245.14 35.72, 162.84 35.09, 1.23 32.86 M327.32 34.17 C237.79 35.17, 147.53 35.14, 0.23 33.62 M-1.7 32.77 C1.74 23.65, 1.26 13.65, 0.8 -0.78 M0.61 34.54 C0.41 22.8, 0.55 11.98, -0.69 0.08" stroke="#58a6ff" stroke-width="2" fill="none"></path></g><g transform="translate(44 485) rotate(0 12.647987365722656 10)"><text x="0" y="NaN" font-family="Virgil, Segoe UI Emoji" font-size="16px" fill="#ffffff" text-anchor="start" style="white-space: pre;" direction="ltr">m1…</text></g><g transform="translate(110 485) rotate(0 111.4959487915039 10)"><text x="0" y="NaN" font-family="Virgil, Segoe UI Emoji" font-size="16px" fill="#ffffff" text-anchor="start" style="white-space: pre;" direction="ltr">[L_a, L_b, L_c, L_d, L_e]</text></g><g stroke-linecap="round" transform="translate(36 519) rotate(0 164 17)"><path d="M-1.38 0.7 L328.79 -0.55 L328.08 32.38 L-0.14 35.62" stroke="none" stroke-width="0" fill="#0d2c5a"></path><path d="M-0.63 -0.79 C81.8 -0.14, 162.24 -1.51, 327.18 -0.87 M-0.57 -0.59 C91.94 0.45, 182.56 0.51, 327.86 -0.23 M328.44 0.23 C327.69 9.95, 327.86 19.35, 326.84 33.13 M327.6 -0.72 C327.39 12.93, 327.28 23.68, 327.63 33.67 M328.4 34.17 C222.68 34.44, 118.46 32.27, 0.39 33.68 M328.32 34.02 C246.95 35.29, 166.63 35.11, -0.62 34.64 M-1.79 32.7 C-1.06 24.67, 1.3 14.12, -1.54 1.1 M-0.96 34.08 C0.61 22.69, -0.76 13.23, 0.75 -0.71" stroke="#58a6ff" stroke-width="2" fill="none"></path></g><g transform="translate(44 527) rotate(0 16.175987243652344 10)"><text x="0" y="NaN" font-family="Virgil, Segoe UI Emoji" font-size="16px" fill="#ffffff" text-anchor="start" style="white-space: pre;" direction="ltr">m2…</text></g><g transform="translate(110 527) rotate(0 111.00794219970703 10)"><text x="0" y="NaN" font-family="Virgil, Segoe UI Emoji" font-size="16px" fill="#ffffff" text-anchor="start" style="white-space: pre;" direction="ltr">[L_a, L_b, L_c, L_d, L_f]</text></g><g stroke-linecap="round" transform="translate(36 561) rotate(0 164 17)"><path d="M-1.44 -0.76 L328.55 -0.6 L328.96 33.9 L1.55 35.11" stroke="none" stroke-width="0" fill="#0d2c5a"></path><path d="M-1.11 0.52 C74.75 0, 150.53 -1.7, 326.89 -0.1 M-0.61 -0.64 C71.01 -1.34, 141.49 -2.32, 328.54 -0.55 M329.73 1.28 C326.18 8.7, 328.47 19.15, 329.84 33.57 M327.08 -0.94 C327.68 8.3, 328.71 16.1, 327.15 33.5 M329.06 35.05 C200.85 33.7, 73 33.61, 0.1 33.07 M327.82 34.13 C231.57 35.04, 133.3 35.48, 0.43 33.64 M-1.08 34.55 C-1.48 22.44, 1.44 14.39, -0.97 -1.97 M0.63 33.43 C0.24 20.26, 0.23 7.36, -0.94 0.06" stroke="#58a6ff" stroke-width="2" fill="none"></path></g><g transform="translate(44 569) rotate(0 15.927986145019531 10)"><text x="0" y="NaN" font-family="Virgil, Segoe UI Emoji" font-size="16px" fill="#ffffff" text-anchor="start" style="white-space: pre;" direction="ltr">m3…</text></g><g transform="translate(110 569) rotate(0 108.26394653320312 10)"><text x="0" y="NaN" font-family="Virgil, Segoe UI Emoji" font-size="16px" fill="#ffffff" text-anchor="start" style="white-space: pre;" direction="ltr">[L_a, L_b, L_g, L_h, L_i]</text></g><g stroke-opacity="0.6" fill-opacity="0.6" stroke-linecap="round" transform="translate(460 145) rotate(0 460 240)"><path d="M1.47 -1.27 L921.11 -0.35 L918.74 479.09 L1.38 478.74" stroke="none" stroke-width="0" fill="#161b22"></path><path d="M-0.44 -0.4 C334.24 0.03, 669.65 -0.29, 919.23 0.16 M919.54 0.25 C920.53 158.86, 919.69 318.33, 919.53 480.46 M920.52 479.78 C641.03 483.76, 361.32 483.17, -0.3 479.7 M-0.34 479.33 C-0.39 382.5, -0.71 285.85, -0.29 0.1" stroke="#30363d" stroke-width="2.5" fill="none" stroke-dasharray="8 10"></path></g><g transform="translate(476 157) rotate(0 202.976806640625 11.875)"><text x="0" y="NaN" font-family="Virgil, Segoe UI Emoji" font-size="19px" fill="#3fb950" text-anchor="start" style="white-space: pre;" direction="ltr">Blob store  (immutable, content-addressed)</text></g><g transform="translate(476 183) rotate(0 292.9918212890625 10)"><text x="0" y="NaN" font-family="Virgil, Segoe UI Emoji" font-size="16px" fill="#8b949e" text-anchor="start" style="white-space: pre;" direction="ltr">key = sha256(layer tar) → bytes.  ONE copy per unique content, globally.</text></g><g stroke-linecap="round" transform="translate(480 235) rotate(0 70 47.5)"><path d="M0.3 1.04 L141.3 1.81 L139.99 96.59 L-0.49 93.55" stroke="none" stroke-width="0" fill="#5c3a10"></path><path d="M1.89 -1.44 C38.81 -0.24, 78.1 0.59, 140.41 0.16 M-0.36 -0.87 C52.52 -0.67, 105.79 0.25, 140.19 0.1 M140.2 -0.15 C138.63 32.34, 137.45 62.22, 138.12 95.57 M139.78 -0.21 C141.05 28.41, 139.71 55.99, 140.38 95.03 M139.22 96.8 C96.45 95.33, 54.44 95.3, 1.54 93.14 M140.37 94.43 C93.16 93.99, 44.88 94.17, 0.3 95.14 M0.71 93.57 C-2.23 76.83, -0.56 57.2, -0.44 0.72 M0.92 95.77 C0.19 71.53, 0.88 46.1, -0.72 -0.83" stroke="#f0883e" stroke-width="2" fill="none"></path></g><g transform="translate(502.0800247192383 235) rotate(0 47.91997528076172 20)"><text x="47.91997528076172" y="NaN" font-family="Virgil, Segoe UI Emoji" font-size="16px" fill="#ffffff" text-anchor="middle" style="white-space: pre;" direction="ltr">L_a:  alpine</text><text x="47.91997528076172" y="NaN" font-family="Virgil, Segoe UI Emoji" font-size="16px" fill="#ffffff" text-anchor="middle" style="white-space: pre;" direction="ltr">base</text></g><g transform="translate(531.0175094604492 334) rotate(0 18.98249053955078 9.375)"><text x="18.98249053955078" y="NaN" font-family="Virgil, Segoe UI Emoji" font-size="15px" fill="#8b949e" text-anchor="middle" style="white-space: pre;" direction="ltr">7 MB</text></g><g stroke-linecap="round" transform="translate(772 235) rotate(0 122 47.5)"><path d="M1.31 -0.05 L243.86 1.36 L243.46 95.46 L0.3 93.97" stroke="none" stroke-width="0" fill="#5c3a10"></path><path d="M-0.81 0.63 C65.57 2.48, 127.86 1.05, 244.7 0.5 M-0.17 0.51 C83.38 1.76, 165.68 1.71, 244.8 -0.55 M244.57 0 C245.46 32.09, 242.62 67.1, 242.96 93.56 M244.59 -0.83 C244.47 34.14, 244.5 68.89, 244.26 95.55 M245.49 95.87 C192.91 95.07, 140.76 95.35, -1.32 96.33 M244.03 95.59 C169.14 94.7, 94.81 94.12, -0.02 94.86 M0.46 93.74 C0.21 66.37, 1.53 39.67, -1.36 1.74 M-0.89 94.85 C1.23 64.71, 0.75 33.01, -0.51 -0.25" stroke="#f0883e" stroke-width="2" fill="none"></path></g><g transform="translate(820.8400650024414 235) rotate(0 73.1599349975586 10)"><text x="73.1599349975586" y="NaN" font-family="Virgil, Segoe UI Emoji" font-size="16px" fill="#ffffff" text-anchor="middle" style="white-space: pre;" direction="ltr">L_b:  openjdk17-jre</text></g><g transform="translate(868.6800155639648 334) rotate(0 25.319984436035156 9.375)"><text x="25.319984436035156" y="NaN" font-family="Virgil, Segoe UI Emoji" font-size="15px" fill="#8b949e" text-anchor="middle" style="white-space: pre;" direction="ltr">85 MB</text></g><g stroke-linecap="round" transform="translate(1064 235) rotate(0 70 47.5)"><path d="M-0.29 -1.32 L139.26 -1.8 L139.21 93.83 L0.62 95.64" stroke="none" stroke-width="0" fill="#5c3a10"></path><path d="M-1.74 -1.97 C55.13 1.13, 112.45 1.12, 139.69 -0.67 M-0.67 -0.86 C36.61 -0.44, 71.9 -1.89, 139.76 0.35 M138.4 0.55 C141.49 28.28, 139.01 56.12, 138.14 93.84 M139.3 -0.8 C140.24 31.51, 140.57 63.27, 139.25 95.33 M141.14 95.8 C110.56 93.34, 81.54 95.81, 1.95 94.56 M140.33 95.05 C85.83 96.61, 30.47 95.76, 0.18 94.63 M0.92 93.48 C-0.15 67.74, 2.01 38.8, -0.57 0.77 M-0.53 95.97 C0.38 68.08, -0.08 40.3, 0.05 0.83" stroke="#f0883e" stroke-width="2" fill="none"></path></g><g transform="translate(1070.728042602539 235) rotate(0 63.27195739746094 20)"><text x="63.27195739746094" y="NaN" font-family="Virgil, Segoe UI Emoji" font-size="16px" fill="#ffffff" text-anchor="middle" style="white-space: pre;" direction="ltr">L_c:  shared lib</text><text x="63.27195739746094" y="NaN" font-family="Virgil, Segoe UI Emoji" font-size="16px" fill="#ffffff" text-anchor="middle" style="white-space: pre;" direction="ltr">X</text></g><g transform="translate(1111.2825164794922 334) rotate(0 22.717483520507812 9.375)"><text x="22.717483520507812" y="NaN" font-family="Virgil, Segoe UI Emoji" font-size="15px" fill="#8b949e" text-anchor="middle" style="white-space: pre;" direction="ltr">18 MB</text></g><g stroke-linecap="round" transform="translate(480 360) rotate(0 70 47.5)"><path d="M1.87 -0.1 L139.75 0.61 L138.86 93.51 L1.34 96.04" stroke="none" stroke-width="0" fill="#5c3a10"></path><path d="M0.61 1.89 C31.89 -1.9, 67.46 -2.92, 140.95 -1.98 M0.43 -0.64 C35.8 0.61, 71.88 1.42, 140.7 0.65 M141.2 -1.76 C138.52 24.98, 140.48 50.79, 141.56 94.33 M139.84 -0.21 C140.28 29.78, 139.49 61.22, 139.08 94.92 M140.09 96.76 C100.76 98.06, 63.24 98.06, 0.07 94.89 M140.87 94.9 C87.75 93.83, 35.12 93.76, -0.55 94.61 M1.27 95.5 C-0.61 58.62, 0.76 23.98, -1.11 0.27 M0.86 94.47 C0.66 58.67, 1.02 24.69, -0.01 0.43" stroke="#f0883e" stroke-width="2" fill="none"></path></g><g transform="translate(486.1920471191406 360) rotate(0 63.807952880859375 20)"><text x="63.807952880859375" y="NaN" font-family="Virgil, Segoe UI Emoji" font-size="16px" fill="#ffffff" text-anchor="middle" style="white-space: pre;" direction="ltr">L_d:  shared lib</text><text x="63.807952880859375" y="NaN" font-family="Virgil, Segoe UI Emoji" font-size="16px" fill="#ffffff" text-anchor="middle" style="white-space: pre;" direction="ltr">Y</text></g><g transform="translate(527.6800155639648 459) rotate(0 22.319984436035156 9.375)"><text x="22.319984436035156" y="NaN" font-family="Virgil, Segoe UI Emoji" font-size="15px" fill="#8b949e" text-anchor="middle" style="white-space: pre;" direction="ltr">12 MB</text></g><g stroke-linecap="round" transform="translate(772 360) rotate(0 70 47.5)"><path d="M-0.54 -0.04 L141.8 0.03 L140.68 93.79 L1.17 96.92" stroke="none" stroke-width="0" fill="#1f4d2b"></path><path d="M-1.62 -0.71 C35.31 -1.04, 73.92 0.21, 138.37 -0.29 M-0.13 0.46 C52.21 0.15, 105.81 -0.67, 139.07 0.65 M141.38 1.89 C141.03 28.5, 139.26 59.77, 140.53 93.81 M140.98 0.64 C140.61 19.4, 141.44 40.78, 140.74 95.11 M138.23 93.81 C87.11 95.68, 35.23 97.34, 0.55 93.45 M140.31 94.86 C85.93 95.87, 33.49 95.09, 0.21 94.59 M1.53 94.02 C0.41 62.89, 1.84 31.4, -1.48 1.17 M0.38 94.92 C1.1 58.32, -0.44 20.92, -0.98 -0.42" stroke="#3fb950" stroke-width="2" fill="none"></path></g><g transform="translate(793.1040420532227 360) rotate(0 48.895957946777344 30)"><text x="48.895957946777344" y="NaN" font-family="Virgil, Segoe UI Emoji" font-size="16px" fill="#ffffff" text-anchor="middle" style="white-space: pre;" direction="ltr">L_e:</text><text x="48.895957946777344" y="NaN" font-family="Virgil, Segoe UI Emoji" font-size="16px" fill="#ffffff" text-anchor="middle" style="white-space: pre;" direction="ltr">myservice.jar</text><text x="48.895957946777344" y="NaN" font-family="Virgil, Segoe UI Emoji" font-size="16px" fill="#ffffff" text-anchor="middle" style="white-space: pre;" direction="ltr">2.4.1</text></g><g transform="translate(819.6800155639648 459) rotate(0 22.319984436035156 9.375)"><text x="22.319984436035156" y="NaN" font-family="Virgil, Segoe UI Emoji" font-size="15px" fill="#8b949e" text-anchor="middle" style="white-space: pre;" direction="ltr">12 MB</text></g><g stroke-linecap="round" transform="translate(1064 360) rotate(0 70 47.5)"><path d="M1.51 1.27 L139.77 1.72 L140.44 93.32 L1.53 93.24" stroke="none" stroke-width="0" fill="#1f4d2b"></path><path d="M-1.55 -0.25 C29.56 0.73, 60.83 0.84, 141.17 -0.65 M0.09 0.56 C51.98 0.8, 104.87 1.01, 139.53 0.98 M141.31 -0.08 C138.73 26.03, 139.06 55.2, 139.83 96.28 M140.88 0.19 C140.51 36.67, 140.05 72.28, 139.22 95.55 M139.31 93.71 C100.99 92.94, 59.5 95.61, 1.66 93.5 M139.36 95.78 C104.2 96.18, 69.17 95.81, 0.6 95.4 M0.96 95.59 C0.65 64.18, -2.09 37.84, 1.37 -0.89 M-0.72 95.86 C-0.46 73.65, -0.61 53.02, 0.8 0.27" stroke="#3fb950" stroke-width="2" fill="none"></path></g><g transform="translate(1085.1040420532227 360) rotate(0 48.895957946777344 30)"><text x="48.895957946777344" y="NaN" font-family="Virgil, Segoe UI Emoji" font-size="16px" fill="#ffffff" text-anchor="middle" style="white-space: pre;" direction="ltr">L_f:</text><text x="48.895957946777344" y="NaN" font-family="Virgil, Segoe UI Emoji" font-size="16px" fill="#ffffff" text-anchor="middle" style="white-space: pre;" direction="ltr">myservice.jar</text><text x="48.895957946777344" y="NaN" font-family="Virgil, Segoe UI Emoji" font-size="16px" fill="#ffffff" text-anchor="middle" style="white-space: pre;" direction="ltr">2.3.0</text></g><g transform="translate(1114.9875183105469 459) rotate(0 19.012481689453125 9.375)"><text x="19.012481689453125" y="NaN" font-family="Virgil, Segoe UI Emoji" font-size="15px" fill="#8b949e" text-anchor="middle" style="white-space: pre;" direction="ltr">11 MB</text></g><g stroke-linecap="round" transform="translate(480 485) rotate(0 70 47.5)"><path d="M-1.16 0.47 L140.8 -0.55 L141.78 96.03 L-1.64 93.85" stroke="none" stroke-width="0" fill="#3a1d6e"></path><path d="M-0.7 0.09 C34.07 1.48, 66.26 -1.15, 141.95 -1.8 M-0.32 -0.43 C34.64 -0.22, 68.66 -0.46, 139.46 -0.52 M140.04 -1.04 C139.71 30.82, 141.53 66.16, 141.01 95.37 M140.46 -0.88 C140.51 22.88, 139.62 45.65, 140.77 95.13 M140.58 96.47 C97.03 95.59, 58.12 93.84, 1.71 94.9 M139 95.92 C101.05 93.72, 61.11 94.09, -0.57 95.75 M0.29 95.06 C1.31 61.23, -0.35 30.53, 1.26 1.45 M-0.71 94.79 C1.6 66.82, 0.02 40.51, 0.35 -0.27" stroke="#a371f7" stroke-width="2" fill="none"></path></g><g transform="translate(490.71204376220703 485) rotate(0 59.28795623779297 20)"><text x="59.28795623779297" y="NaN" font-family="Virgil, Segoe UI Emoji" font-size="16px" fill="#ffffff" text-anchor="middle" style="white-space: pre;" direction="ltr">L_g:  otherapp</text><text x="59.28795623779297" y="NaN" font-family="Virgil, Segoe UI Emoji" font-size="16px" fill="#ffffff" text-anchor="middle" style="white-space: pre;" direction="ltr">libs</text></g><g transform="translate(525.0925140380859 584) rotate(0 24.907485961914062 9.375)"><text x="24.907485961914062" y="NaN" font-family="Virgil, Segoe UI Emoji" font-size="15px" fill="#8b949e" text-anchor="middle" style="white-space: pre;" direction="ltr">40 MB</text></g><g stroke-linecap="round" transform="translate(772 485) rotate(0 70 47.5)"><path d="M0.91 0.57 L141.16 1.37 L139.58 95.91 L0.47 94.64" stroke="none" stroke-width="0" fill="#1f4d2b"></path><path d="M-0.11 0.57 C37.41 -1.64, 74.21 0.54, 140.71 -0.87 M-0.62 -0.92 C29.17 1.64, 56.97 1.34, 139.19 -0.47 M138.63 0.24 C137.8 38.88, 138.09 74.68, 138.51 95.54 M139.56 -0.95 C139.29 23.45, 139.94 46.43, 139.39 94.77 M140.35 93.68 C96.62 95.49, 51.69 94.11, 0.04 96.12 M139.49 95.46 C99.79 94.57, 58.87 94.49, -0.94 95.56 M-0.82 93.25 C1.87 64.79, 1.77 39.58, 1.76 0.08 M-0.97 94.29 C0.43 65.77, 0.13 36.86, 0.33 -0.77" stroke="#3fb950" stroke-width="2" fill="none"></path></g><g transform="translate(782.7680435180664 485) rotate(0 59.231956481933594 20)"><text x="59.231956481933594" y="NaN" font-family="Virgil, Segoe UI Emoji" font-size="16px" fill="#ffffff" text-anchor="middle" style="white-space: pre;" direction="ltr">L_h:  otherapp</text><text x="59.231956481933594" y="NaN" font-family="Virgil, Segoe UI Emoji" font-size="16px" fill="#ffffff" text-anchor="middle" style="white-space: pre;" direction="ltr">jar</text></g><g transform="translate(820.3850173950195 584) rotate(0 21.61498260498047 9.375)"><text x="21.61498260498047" y="NaN" font-family="Virgil, Segoe UI Emoji" font-size="15px" fill="#8b949e" text-anchor="middle" style="white-space: pre;" direction="ltr">15 MB</text></g><g stroke-linecap="round" transform="translate(1064 485) rotate(0 70 47.5)"><path d="M-1.83 1.78 L140.32 -0.63 L141.22 96.88 L-1.78 94.23" stroke="none" stroke-width="0" fill="#21262d"></path><path d="M-0.17 -1.65 C48.37 0.95, 97.62 1.42, 140.01 -1.33 M-0.81 0.95 C30.76 -2.28, 63.52 -1.77, 139.83 0.18 M139.74 1.97 C140.37 27.96, 139.17 53.37, 139.58 94.39 M140.65 -0.33 C138.52 19.59, 140.25 37.97, 139.67 95.59 M139.8 94.19 C93.87 95.51, 43.56 93.74, 1.64 94.33 M139.01 94.9 C110.33 95.8, 83.53 94.82, 0.5 95.14 M0.02 93.13 C-0.35 62.59, -1.39 31.04, 0.28 -0.24 M0.06 94.98 C0.42 61.59, 1.03 28.34, 0.96 0.7" stroke="#8b949e" stroke-width="2" fill="none"></path></g><g transform="translate(1076.9680404663086 485) rotate(0 57.031959533691406 20)"><text x="57.031959533691406" y="NaN" font-family="Virgil, Segoe UI Emoji" font-size="16px" fill="#ffffff" text-anchor="middle" style="white-space: pre;" direction="ltr">L_i:  otherapp</text><text x="57.031959533691406" y="NaN" font-family="Virgil, Segoe UI Emoji" font-size="16px" fill="#ffffff" text-anchor="middle" style="white-space: pre;" direction="ltr">config</text></g><g transform="translate(1117.0200119018555 584) rotate(0 16.97998809814453 9.375)"><text x="16.97998809814453" y="NaN" font-family="Virgil, Segoe UI Emoji" font-size="15px" fill="#8b949e" text-anchor="middle" style="white-space: pre;" direction="ltr">1 MB</text></g><g stroke-linecap="round" transform="translate(580 304) rotate(0 17 11)"><path d="M-0.45 0.52 L35.74 -0.29 L35.32 23.12 L-1.54 22.75" stroke="none" stroke-width="0" fill="#3a5d1d"></path><path d="M1.42 -0.14 C11.49 -1.52, 24.27 1.76, 35.21 -0.6 M-0.59 -0.5 C12.42 1.05, 25.08 0.64, 34.1 0.67 M33.55 0.93 C32.1 6.6, 32.01 16.46, 32.46 21.19 M33.25 -0.65 C33.81 7.47, 34.23 15.47, 33.91 21.12 M35.97 21.78 C22.39 23.45, 7.45 22.61, 1.01 20.07 M33.49 22.39 C25.08 22.64, 15.73 21.24, -0.8 21.62 M0.89 23.91 C-1.84 16.15, -0.29 12.58, 1.4 1.14 M-0.5 22.06 C-0.01 15.66, 0.15 8.72, -0.07 0.81" stroke="#6dbf3a" stroke-width="2" fill="none"></path></g><g transform="translate(588.5475082397461 306) rotate(0 8.452491760253906 9.375)"><text x="8.452491760253906" y="NaN" font-family="Virgil, Segoe UI Emoji" font-size="15px" fill="#ffffff" text-anchor="middle" style="white-space: pre;" direction="ltr">×3</text></g><g stroke-linecap="round" transform="translate(976 304) rotate(0 17 11)"><path d="M0.02 0.1 L35.53 1.6 L34.08 20.95 L0.9 21.8" stroke="none" stroke-width="0" fill="#3a5d1d"></path><path d="M-0.33 -1.86 C7.1 -1.19, 14.76 1.74, 34.58 -0.52 M0.88 0.81 C12.46 -0.1, 23.97 -0.66, 34.84 0.39 M35.03 0.38 C32.3 9.02, 33.13 16.89, 32.18 22.92 M34.84 -0.51 C34.75 4.32, 34.29 10.54, 33.47 21.33 M33.18 23.1 C21.2 20.17, 9.52 20.32, 1.46 21.43 M33.82 22.46 C26.46 21.29, 20.47 22.28, -0.69 21.53 M-0.32 22.08 C2 16.63, 0.23 11.18, 0.73 -1.49 M0.99 21.75 C0.73 13.54, 0.8 7.08, -0.12 0.41" stroke="#6dbf3a" stroke-width="2" fill="none"></path></g><g transform="translate(984.5475082397461 306) rotate(0 8.452491760253906 9.375)"><text x="8.452491760253906" y="NaN" font-family="Virgil, Segoe UI Emoji" font-size="15px" fill="#ffffff" text-anchor="middle" style="white-space: pre;" direction="ltr">×3</text></g><g stroke-linecap="round" transform="translate(1164 304) rotate(0 17 11)"><path d="M0.27 -0.66 L33.07 -0.23 L33.63 23.78 L1.56 21.66" stroke="none" stroke-width="0" fill="#0d2c5a"></path><path d="M-1.49 -0.19 C9.35 1.01, 17.18 0.01, 33.42 -0.22 M0.95 0.82 C9.91 -0.09, 21.27 0.35, 33.97 0.35 M32.18 0.2 C33.53 6.35, 32.91 10.65, 35.5 20.16 M33.01 0.71 C34.34 4.59, 33.9 8.44, 34.39 21.85 M34.98 20.9 C22.57 20.42, 9.7 23.52, -0.29 22.77 M33.54 21.71 C25.09 21.35, 15.78 21.61, 0.66 21.37 M0.99 20.62 C-0.72 11.64, 0.15 5.64, -1.7 -0.3 M0.49 21.85 C0.55 13.33, -0.21 4.14, -0.28 -0.35" stroke="#58a6ff" stroke-width="2" fill="none"></path></g><g transform="translate(1172.3150100708008 306) rotate(0 8.684989929199219 9.375)"><text x="8.684989929199219" y="NaN" font-family="Virgil, Segoe UI Emoji" font-size="15px" fill="#ffffff" text-anchor="middle" style="white-space: pre;" direction="ltr">×2</text></g><g stroke-linecap="round" transform="translate(580 429) rotate(0 17 11)"><path d="M-1.79 -0.68 L33.05 1.54 L34.32 20.1 L1.92 21.43" stroke="none" stroke-width="0" fill="#0d2c5a"></path><path d="M-0.88 -1.17 C12.73 -1.63, 25 -1.03, 35.7 0.61 M-0.7 -0.1 C9.86 0.98, 18.43 0.07, 34.18 0.44 M35.87 0.08 C34.35 6.42, 34 13.08, 32.19 23.79 M34.22 -0.64 C34.88 4.69, 34.49 10.93, 34.52 22.28 M32.69 20.96 C27.9 22.27, 19.85 20.88, -1.74 22.98 M34.25 21.57 C22.64 22.04, 11.33 21.29, -0.27 21.96 M-0.02 23.3 C1.94 17.41, 2.09 11.49, -0.35 -1.33 M0.66 22.76 C-0.3 14.61, -0.1 6.25, 0.85 -0.29" stroke="#58a6ff" stroke-width="2" fill="none"></path></g><g transform="translate(588.3150100708008 431) rotate(0 8.684989929199219 9.375)"><text x="8.684989929199219" y="NaN" font-family="Virgil, Segoe UI Emoji" font-size="15px" fill="#ffffff" text-anchor="middle" style="white-space: pre;" direction="ltr">×2</text></g><g stroke-linecap="round" transform="translate(480 565) rotate(0 440 21)"><path d="M1.09 -1.05 L881.81 0.73 L878.5 40.58 L0.61 40.75" stroke="none" stroke-width="0" fill="#3a5d1d"></path><path d="M0.75 0.09 C327.04 -1.11, 653.2 -0.16, 880.77 -0.74 M879.64 -0.91 C879.29 9.51, 879.4 22.37, 878.83 43.08 M879.5 42.21 C593.55 44.41, 309.01 43.8, -0.02 41.45 M1.18 40.24 C2.16 26.37, 0.99 14.76, -1.39 0.36" stroke="#6dbf3a" stroke-width="2.5" fill="none" stroke-dasharray="8 10"></path></g><g transform="translate(492 575) rotate(0 452.6246643066406 11.25)"><text x="0" y="NaN" font-family="Virgil, Segoe UI Emoji" font-size="18px" fill="#ffffff" text-anchor="start" style="white-space: pre;" direction="ltr">Naive storage = 3 images × ~140 MB ≈ 415 MB.  Dedup storage = 201 MB.  Saved ≈ 214 MB (51%).</text></g><g stroke-linecap="round"><g transform="translate(359 234) rotate(0 17.5 0)"><path d="M-0.03 0.58 C5.76 0.3, 29.07 -1.18, 35.01 -1.2 M-1.5 -0.17 C4.11 -0.38, 27.96 -0.05, 34.07 -0.29" stroke="#c9d1d9" stroke-width="1" fill="none"></path></g><g transform="translate(359 234) rotate(0 17.5 0)"><path d="M18.52 5.87 C21.17 4.75, 28.89 3.49, 33.27 1.36 M18.49 5.15 C23.01 4.2, 27.05 2.31, 33.82 0.12" stroke="#c9d1d9" stroke-width="1" fill="none"></path></g><g transform="translate(359 234) rotate(0 17.5 0)"><path d="M18.4 -6.1 C21.13 -3.38, 28.89 -0.81, 33.27 1.36 M18.37 -6.82 C23 -4.03, 27.08 -2.17, 33.82 0.12" stroke="#c9d1d9" stroke-width="1" fill="none"></path></g></g><g stroke-linecap="round"><g transform="translate(359 276) rotate(0 17.5 0)"><path d="M0.81 -0.37 C6.41 -0.65, 29.17 -0.86, 34.78 -0.94 M-0.22 -1.61 C5.1 -1.84, 28.11 -0.16, 33.72 0.11" stroke="#c9d1d9" stroke-width="1" fill="none"></path></g><g transform="translate(359 276) rotate(0 17.5 0)"><path d="M16.39 4.76 C22.24 2.22, 29.06 -0.34, 34.64 1.58 M17.08 5.18 C21.25 4.51, 25.94 3.37, 33.35 0.46" stroke="#c9d1d9" stroke-width="1" fill="none"></path></g><g transform="translate(359 276) rotate(0 17.5 0)"><path d="M17.12 -7.18 C22.75 -4.95, 29.27 -2.73, 34.64 1.58 M17.8 -6.77 C21.72 -4.22, 26.21 -2.14, 33.35 0.46" stroke="#c9d1d9" stroke-width="1" fill="none"></path></g></g><g stroke-linecap="round"><g transform="translate(359 318) rotate(0 17.5 0)"><path d="M-0.93 -0.83 C5.1 -1.09, 29.1 -1.19, 35.09 -1.03 M0.78 1.35 C6.76 1.16, 28.61 -0.07, 34.18 -0.04" stroke="#c9d1d9" stroke-width="1" fill="none"></path></g><g transform="translate(359 318) rotate(0 17.5 0)"><path d="M16.72 6.56 C19.78 5.22, 24.86 3.76, 34.88 0.87 M17.27 6.29 C23.89 4.08, 28.84 2.76, 33.77 0.01" stroke="#c9d1d9" stroke-width="1" fill="none"></path></g><g transform="translate(359 318) rotate(0 17.5 0)"><path d="M16.36 -5.41 C19.55 -4.25, 24.7 -3.22, 34.88 0.87 M16.92 -5.68 C23.71 -3.74, 28.78 -0.9, 33.77 0.01" stroke="#c9d1d9" stroke-width="1" fill="none"></path></g></g><g transform="translate(480 200) rotate(0 345.7837829589844 10)"><text x="0" y="NaN" font-family="Virgil, Segoe UI Emoji" font-size="16px" fill="#8b949e" text-anchor="start" style="white-space: pre;" direction="ltr">Badge ×N at bottom-right of a blob = referenced by N images. Stored once regardless.</text></g></svg>