<svg version="1.1" xmlns="http://www.w3.org/2000/svg" viewBox="0 0 1941 815" width="1941" height="815">
  <!-- svg-source:excalidraw -->
  
  <defs>
    <style>
      @font-face {
        font-family: "Virgil";
        src: url("https://excalidraw.com/Virgil.woff2");
      }
      @font-face {
        font-family: "Cascadia";
        src: url("https://excalidraw.com/Cascadia.woff2");
      }
    </style>
  </defs>
  <rect x="0" y="0" width="1941" height="815" fill="#0d1117"></rect><g transform="translate(10 10) rotate(0 650 20)"><text x="0" y="NaN" font-family="Virgil, Segoe UI Emoji" font-size="32px" fill="#ff8c42" text-anchor="start" style="white-space: pre;" direction="ltr">What 'running a container' actually is</text></g><g transform="translate(10 53) rotate(0 913 11.5)"><text x="0" y="NaN" font-family="Virgil, Segoe UI Emoji" font-size="19px" fill="#c9d1d9" text-anchor="start" style="white-space: pre;" direction="ltr">A regular Linux process. Six namespaces wall off what it sees. Cgroups cap what it can use. Overlayfs is its root filesystem. No hypervisor.</text></g><g stroke-opacity="0.5" fill-opacity="0.5" stroke-linecap="round" transform="translate(10 115) rotate(0 490 345)"><path d="M0.3 1.64 L980.33 -1.22 L978.09 689.03 L0.19 690.34" stroke="none" stroke-width="0" fill="#161b22"></path><path d="M-0.77 0.21 C390.48 -0.21, 782.4 -0.33, 979.46 0.8 M979.32 0.72 C978.57 145.17, 978.53 290.64, 980.14 689.73 M980.54 690.51 C679 685.76, 378.11 686.07, 0.7 690.41 M0.32 689.67 C1.47 483.62, 1.31 277.93, -0.26 -0.46" stroke="#30363d" stroke-width="2.5" fill="none" stroke-dasharray="8 10"></path></g><g transform="translate(26 129) rotate(0 200 11.5)"><text x="0" y="NaN" font-family="Virgil, Segoe UI Emoji" font-size="19px" fill="#e6edf3" text-anchor="start" style="white-space: pre;" direction="ltr">One Linux host  (node-prod-47)</text></g><g stroke-linecap="round" transform="translate(26 745) rotate(0 474 22)"><path d="M0.33 -0.03 L949.22 0.21 L948.91 45.24 L-1.34 43.53" stroke="none" stroke-width="0" fill="#3a1d6e"></path><path d="M-0.08 -0.63 C347.59 2.57, 694.1 3.03, 947.96 -0.79 M0.14 -0.28 C206.44 3.41, 412.8 3.5, 948.17 -0.2 M948.27 -0.13 C947.18 9.53, 948.04 19.04, 947.5 42.55 M948.19 -0.28 C948.84 12.88, 947.53 26.13, 948.15 44.09 M948.3 43.84 C606.16 47.43, 266.09 47.84, -0.78 43.78 M947.95 44.01 C689.45 46.57, 430.19 46.48, 0.3 43.89 M1.97 43.96 C1.94 31.4, 0.55 18.31, 0.7 0.09 M0.83 43.53 C-0.58 34.26, 0.24 23.01, 0.47 -0.03" stroke="#a371f7" stroke-width="2" fill="none"></path></g><g transform="translate(26 759) rotate(0 474 11.5)"><text x="474" y="NaN" font-family="Virgil, Segoe UI Emoji" font-size="19px" fill="#ffffff" text-anchor="middle" style="white-space: pre;" direction="ltr">Linux kernel  —  enforces namespaces + cgroups + overlayfs</text></g><g stroke-linecap="round" transform="translate(26 675) rotate(0 474 27)"><path d="M1.09 1.3 L949.64 -1.16 L949.8 53.17 L-0.39 53.59" stroke="none" stroke-width="0" fill="#5c3a10"></path><path d="M-0.57 0.09 C233.61 -2.59, 468.28 -2.55, 947.73 -0.4 M-0.14 -0.1 C374.64 -0.49, 749.13 -0.08, 948.24 -0.18 M947.97 1.75 C950.28 20.39, 946.9 39.05, 947.93 54.7 M948.89 -0.59 C947.94 19.82, 948.52 38.71, 947.35 54.13 M948.7 54.27 C616.23 56.37, 283.95 56.48, 0.4 53.56 M947.79 54.33 C663.57 57.1, 379.67 57.05, 0.03 53.65 M1.05 53.63 C1.08 37.67, 1.71 23.54, -1.64 1.64 M-0.39 54.21 C0.03 34.95, -0.59 13.18, 0.91 -0.89" stroke="#f0883e" stroke-width="2" fill="none"></path></g><g transform="translate(34 683) rotate(0 202 11)"><text x="0" y="NaN" font-family="Virgil, Segoe UI Emoji" font-size="18px" fill="#ffffff" text-anchor="start" style="white-space: pre;" direction="ltr">containerd  (CRI implementation)</text></g><g transform="translate(34 705) rotate(0 355 10)"><text x="0" y="NaN" font-family="Virgil, Segoe UI Emoji" font-size="16px" fill="#ffffff" text-anchor="start" style="white-space: pre;" direction="ltr">pulls layers • verifies sha256 • mounts overlayfs • invokes runc</text></g><g transform="translate(740 695) rotate(0 134.5 11)"><text x="0" y="NaN" font-family="Virgil, Segoe UI Emoji" font-size="18px" fill="#ffffff" text-anchor="start" style="white-space: pre;" direction="ltr">runc  (OCI low-level)</text></g><g stroke-linecap="round" transform="translate(26 615) rotate(0 200 22)"><path d="M-1.24 -0.42 L398.64 -0.05 L399.65 42.1 L-0.53 42.61" stroke="none" stroke-width="0" fill="#0d2c5a"></path><path d="M-0.03 -0.43 C153.38 -0.34, 306.46 0.23, 400.93 1.12 M-0.25 0.32 C150.77 -2.41, 301.28 -1.66, 400.53 0.49 M401.78 -1.24 C400.78 16.42, 402.39 31.12, 399.73 42.23 M400.92 0.16 C399.75 15.26, 400.02 31.79, 399.99 43.07 M400.05 42.87 C243.35 44.34, 88.11 42.99, -0.31 43.74 M400.25 43.76 C315.18 44.14, 231.15 43.98, 0.49 43.91 M-1.56 45.51 C1.56 34.16, 0.43 24.12, -0.35 1.37 M-0.19 43.44 C0.86 32.96, 0.19 23.56, -0.48 -0.36" stroke="#58a6ff" stroke-width="2" fill="none"></path></g><g transform="translate(34 629) rotate(0 246 10)"><text x="0" y="NaN" font-family="Virgil, Segoe UI Emoji" font-size="16px" fill="#ffffff" text-anchor="start" style="white-space: pre;" direction="ltr">kubelet  (receives pod spec from API server)</text></g><g stroke-linecap="round"><g transform="translate(426 637) rotate(0 22 0)"><path d="M0.88 0.33 C8.3 0.31, 36.38 0.99, 43.41 0.86 M-0.11 -0.55 C7.81 -0.98, 38.21 -1.01, 45.81 -0.82" stroke="#c9d1d9" stroke-width="2" fill="none"></path></g><g transform="translate(426 637) rotate(0 22 0)"><path d="M25.61 5.53 C30.71 3.27, 32.8 3.96, 44.96 -0.93 M24.27 6.17 C28.73 5.23, 34.41 3.5, 45.91 -0.68" stroke="#c9d1d9" stroke-width="2" fill="none"></path></g><g transform="translate(426 637) rotate(0 22 0)"><path d="M25.75 -9.52 C30.94 -8.67, 33.01 -4.89, 44.96 -0.93 M24.41 -8.88 C28.84 -6.52, 34.49 -4.95, 45.91 -0.68" stroke="#c9d1d9" stroke-width="2" fill="none"></path></g></g><g transform="translate(480 625) rotate(0 100 10)"><text x="0" y="NaN" font-family="Virgil, Segoe UI Emoji" font-size="16px" fill="#58a6ff" text-anchor="start" style="white-space: pre;" direction="ltr">CRI gRPC call →</text></g><g stroke-linecap="round" transform="translate(90 195) rotate(0 410 145)"><path d="M0.53 0.07 L821.47 -1.75 L820.83 288.68 L0.2 288.57" stroke="none" stroke-width="0" fill="#1a2a44"></path><path d="M0.69 0.5 C284.77 -0.75, 570.02 -0.87, 819.46 0.58 M0.01 -0.09 C204.13 3.01, 407.64 2.78, 820.09 -0.04 M820.78 -1.43 C820 90.05, 821.13 181.77, 820.21 289.24 M820.57 -0.56 C818.11 73.01, 818.24 145.81, 820.14 290.56 M820.4 290.36 C561.32 292.06, 302.66 291.52, -0.01 289.4 M819.91 289.64 C652.41 292.29, 484.15 291.59, -0.32 290.05 M0.73 289.97 C-0.12 175.14, 0.02 58.6, -1.35 0.34 M-0.46 290.24 C-0.55 231.78, -0.46 172.77, 0.74 0.06" stroke="#58a6ff" stroke-width="3" fill="none"></path></g><g transform="translate(106 207) rotate(0 258.5 11.5)"><text x="0" y="NaN" font-family="Virgil, Segoe UI Emoji" font-size="19px" fill="#58a6ff" text-anchor="start" style="white-space: pre;" direction="ltr">Container = process inside 6 namespaces</text></g><g stroke-linecap="round" transform="translate(90 169) rotate(0 410 11)"><path d="M-1.56 -1.23 L818.58 -1.45 L820.3 20.56 L-1.88 23.87" stroke="none" stroke-width="0" fill="#4a1219"></path><path d="M0.58 -0.79 C253.77 -0.4, 507.4 -1.32, 820.49 0.09 M-0.15 0.22 C219.41 -0.33, 438.9 -0.5, 820.36 -0.17 M818.8 -0.21 C821.87 6.31, 821.08 15.35, 820.74 23.63 M819.57 0.31 C819.97 6.73, 820.76 12.29, 819.81 21.16 M820.65 22.8 C633.86 22.64, 447.23 22.75, 0.51 22.01 M820.22 22.31 C555.19 23.63, 289.81 23.4, 0.25 21.97 M1.77 21.04 C1.24 14.03, -1.64 7.33, 0.07 1.84 M0.43 22.13 C0.52 16.65, 0.75 11.14, -0.94 0.52" stroke="#f85149" stroke-width="2" fill="none"></path></g><g transform="translate(90 171) rotate(0 437 10)"><text x="437" y="NaN" font-family="Virgil, Segoe UI Emoji" font-size="16px" fill="#ffffff" text-anchor="middle" style="white-space: pre;" direction="ltr">cgroup ceiling:  CPU ≤ 2 cores  •  memory ≤ 2 GB  (exceed → OOM-kill, exit 137)</text></g><g stroke-linecap="round" transform="translate(110 235) rotate(0 135 25)"><path d="M0.38 -0.71 L269.31 -1.67 L269.17 50.13 L1.51 48.06" stroke="none" stroke-width="0" fill="#1f4d2b"></path><path d="M-1.02 1.26 C77.5 0.02, 153.02 -0.75, 271.04 0.89 M-0.75 0.31 C61.05 0.63, 120.52 -0.08, 269.98 0.05 M270.65 0.39 C270.56 14.54, 269.32 28.68, 269.36 51.57 M269.94 0.06 C269.69 10.61, 269.33 22.2, 270.63 49.4 M270.19 48.99 C195.67 51.1, 119.68 51.41, -0.17 50.91 M269.51 50.25 C163.49 50.23, 57.08 51.03, -0.55 49.91 M-1.31 49.33 C2.11 40.88, -0.31 28.23, -1.03 1.51 M-0.38 49.3 C-0.37 36.74, 0.13 23.85, -0.73 0.86" stroke="#3fb950" stroke-width="2" fill="none"></path></g><g transform="translate(120 239) rotate(0 125 10)"><text x="0" y="NaN" font-family="Virgil, Segoe UI Emoji" font-size="16px" fill="#ffffff" text-anchor="start" style="white-space: pre;" direction="ltr">PID namespace</text></g><g transform="translate(120 259) rotate(0 125 9)"><text x="0" y="NaN" font-family="Virgil, Segoe UI Emoji" font-size="15px" fill="#ffffff" text-anchor="start" style="white-space: pre;" direction="ltr">process tree</text></g><g stroke-linecap="round" transform="translate(390 235) rotate(0 135 25)"><path d="M-0.09 1.94 L271.24 -0.81 L271.87 49.14 L-1.43 49.74" stroke="none" stroke-width="0" fill="#0d2c5a"></path><path d="M-1.21 -1.31 C92.06 1.43, 180.96 1.53, 269.95 0.34 M-0.19 0.69 C79.39 -1.29, 157.97 -2.26, 269.28 -0.72 M271.61 0.77 C269.24 19.98, 271.79 40.86, 269.28 50.86 M269.17 -0.11 C270.12 13.74, 271.01 26.96, 269.97 49.7 M268.91 48.72 C164.17 48.8, 59.59 49.67, -0.65 50.22 M269.78 49.23 C212.4 50.15, 155.26 50.1, -0.47 49.49 M1.34 49.79 C-0.08 38.82, -0.8 25.96, 1.3 -2 M-0.68 50.84 C-0.81 34.67, 0.47 20.39, 0.71 0.17" stroke="#58a6ff" stroke-width="2" fill="none"></path></g><g transform="translate(400 239) rotate(0 125 10)"><text x="0" y="NaN" font-family="Virgil, Segoe UI Emoji" font-size="16px" fill="#ffffff" text-anchor="start" style="white-space: pre;" direction="ltr">NET namespace</text></g><g transform="translate(400 259) rotate(0 128.5 9)"><text x="0" y="NaN" font-family="Virgil, Segoe UI Emoji" font-size="15px" fill="#ffffff" text-anchor="start" style="white-space: pre;" direction="ltr">interfaces, IP, iptables</text></g><g stroke-linecap="round" transform="translate(670 235) rotate(0 135 25)"><path d="M1.71 1.37 L271.05 1.89 L271.01 48.18 L0.58 48.96" stroke="none" stroke-width="0" fill="#5c3a10"></path><path d="M0.54 -1.06 C90.51 -2.41, 179.41 -0.54, 268.86 -0.41 M-0.59 -0.75 C106.44 -0.48, 213.58 -0.31, 270.39 0.64 M270.01 1.16 C268.51 15.08, 270.82 35.5, 269.09 49.38 M269.49 -0.14 C268.52 18.9, 269.65 35.15, 270.29 49.44 M270.6 51.12 C212.29 50.07, 157.2 50.07, -1.23 49.12 M270.2 49.83 C207.05 47.38, 143.63 47.59, 0.39 50.42 M0.47 50.09 C0.63 34.31, 0.05 21.72, -1.35 1.81 M0.91 50.54 C0.29 34.59, 0.28 20.14, -0.79 -0.02" stroke="#f0883e" stroke-width="2" fill="none"></path></g><g transform="translate(680 239) rotate(0 125 10)"><text x="0" y="NaN" font-family="Virgil, Segoe UI Emoji" font-size="16px" fill="#ffffff" text-anchor="start" style="white-space: pre;" direction="ltr">MNT namespace</text></g><g transform="translate(680 259) rotate(0 179.5 9)"><text x="0" y="NaN" font-family="Virgil, Segoe UI Emoji" font-size="15px" fill="#ffffff" text-anchor="start" style="white-space: pre;" direction="ltr">filesystem mounts (overlayfs root)</text></g><g stroke-linecap="round" transform="translate(110 295) rotate(0 135 25)"><path d="M-1.62 0.19 L270.78 1.92 L271.38 49.78 L0.12 48.2" stroke="none" stroke-width="0" fill="#3a1d6e"></path><path d="M-0.08 -1.43 C57.67 -0.89, 117.14 -0.44, 271.41 -0.87 M0.13 -0.17 C63.89 -0.1, 127.76 -0.9, 269.3 0.29 M268.31 0.61 C269.21 14.35, 270.77 25.28, 271.67 50.35 M270.64 -0.62 C269.95 16.3, 269.25 31.97, 270.59 49.51 M269.58 50.55 C169.62 48.81, 71.54 48.87, 0.32 48.78 M269.8 49.27 C195.71 50.06, 121.87 50.27, -0.35 49.48 M0.77 48.93 C-0.36 33.41, -0.12 11.23, -0.62 0.58 M-0.77 49.88 C-1.12 32.39, 0.23 14.73, 0.59 -0.34" stroke="#a371f7" stroke-width="2" fill="none"></path></g><g transform="translate(120 299) rotate(0 125 10)"><text x="0" y="NaN" font-family="Virgil, Segoe UI Emoji" font-size="16px" fill="#ffffff" text-anchor="start" style="white-space: pre;" direction="ltr">IPC namespace</text></g><g transform="translate(120 319) rotate(0 125 9)"><text x="0" y="NaN" font-family="Virgil, Segoe UI Emoji" font-size="15px" fill="#ffffff" text-anchor="start" style="white-space: pre;" direction="ltr">POSIX queues, shm</text></g><g stroke-linecap="round" transform="translate(390 295) rotate(0 135 25)"><path d="M-0.33 -1.62 L269.31 -0.21 L271.96 51.54 L-1.57 51.23" stroke="none" stroke-width="0" fill="#3a5d1d"></path><path d="M1.13 -1.4 C84.39 2.09, 170.11 1.68, 269.65 0.23 M-0.34 0.46 C101.25 -0.74, 204.32 -1.41, 270.17 -0.74 M268.86 1.66 C269.05 16.51, 270.11 32.96, 270.86 50.32 M269.18 0.24 C270.08 18.36, 270.52 35.29, 270.63 49.45 M269.75 51.19 C208.83 52.15, 149.08 51.3, 0.17 50.24 M269.41 49.97 C166.88 49.34, 64.62 49.38, 0.53 50.45 M-0.05 49.59 C-1.87 32.87, 1.29 19.36, 0.68 -1.6 M-0.41 49.67 C0.86 38.16, 0.62 24.7, 0.2 -0.4" stroke="#6dbf3a" stroke-width="2" fill="none"></path></g><g transform="translate(400 299) rotate(0 125 10)"><text x="0" y="NaN" font-family="Virgil, Segoe UI Emoji" font-size="16px" fill="#ffffff" text-anchor="start" style="white-space: pre;" direction="ltr">UTS namespace</text></g><g transform="translate(400 319) rotate(0 125 9)"><text x="0" y="NaN" font-family="Virgil, Segoe UI Emoji" font-size="15px" fill="#ffffff" text-anchor="start" style="white-space: pre;" direction="ltr">hostname, domain</text></g><g stroke-linecap="round" transform="translate(670 295) rotate(0 135 25)"><path d="M1.84 -0.29 L270.7 -0.12 L270.46 49.88 L-1.44 50.72" stroke="none" stroke-width="0" fill="#21262d"></path><path d="M0.59 1.29 C95.64 -2.8, 190.41 -2.76, 269.24 -1.09 M-0.38 -0.63 C104.49 -1.32, 208.16 -1.44, 269.25 -0.69 M268.96 -0.67 C270.43 15.19, 272.14 30.06, 269.87 51.34 M270.97 -0.41 C270.28 16.25, 270.2 31.99, 269.1 49.5 M271.44 50.92 C192.14 49.57, 115.74 49.3, -0.34 48.99 M269.74 49.85 C177.85 50.2, 84.97 49.79, -0.15 50.11 M-0.18 49.26 C2.06 38.83, 1.85 24.03, -0.56 -1.03 M-0.13 49.94 C-0.74 36.58, 0.47 22.26, -0.26 -0.48" stroke="#8b949e" stroke-width="2" fill="none"></path></g><g transform="translate(680 299) rotate(0 125 10)"><text x="0" y="NaN" font-family="Virgil, Segoe UI Emoji" font-size="16px" fill="#ffffff" text-anchor="start" style="white-space: pre;" direction="ltr">USER namespace</text></g><g transform="translate(680 319) rotate(0 125 9)"><text x="0" y="NaN" font-family="Virgil, Segoe UI Emoji" font-size="15px" fill="#ffffff" text-anchor="start" style="white-space: pre;" direction="ltr">UID mapping (often off)</text></g><g stroke-linecap="round" transform="translate(300 375) rotate(0 200 40)"><path d="M-0.85 0.07 L398.33 -1.5 L401.34 80.33 L1.47 79.44" stroke="none" stroke-width="0" fill="#3a5d1d"></path><path d="M0.88 -0.94 C121.92 -0.84, 242.96 -2.38, 399.37 1.03 M0.32 0.3 C149.4 0.19, 298.62 0.08, 399.66 0.22 M398.35 -1.72 C398.78 31.19, 398.68 62.6, 398.87 78.99 M400.89 -0.12 C401.08 23.65, 400.01 47.11, 399.97 79.54 M399.41 80.9 C287.21 82.29, 175.25 82.59, 0.5 79.57 M400.51 80.51 C273.21 80.39, 145.93 80.55, 0.27 80.24 M-1.42 78.82 C-0.36 48.18, -0.98 16.23, 1.13 0.18 M0.59 79.84 C-1.08 61.99, 0.5 42.74, 0.84 0.12" stroke="#6dbf3a" stroke-width="2" fill="none"></path></g><g transform="translate(300 375) rotate(0 200 40)"><text x="200" y="NaN" font-family="Virgil, Segoe UI Emoji" font-size="19px" fill="#ffffff" text-anchor="middle" style="white-space: pre;" direction="ltr">java -jar /app/myservice.jar</text></g><g transform="translate(80 393) rotate(0 116 23.5)"><text x="232" y="NaN" font-family="Virgil, Segoe UI Emoji" font-size="19px" fill="#3fb950" text-anchor="end" style="white-space: pre;" direction="ltr">inside container:</text><text x="232" y="NaN" font-family="Virgil, Segoe UI Emoji" font-size="19px" fill="#3fb950" text-anchor="end" style="white-space: pre;" direction="ltr">PID 1</text></g><g transform="translate(710 393) rotate(0 100 23.5)"><text x="0" y="NaN" font-family="Virgil, Segoe UI Emoji" font-size="19px" fill="#f85149" text-anchor="start" style="white-space: pre;" direction="ltr">on the host:</text><text x="0" y="NaN" font-family="Virgil, Segoe UI Emoji" font-size="19px" fill="#f85149" text-anchor="start" style="white-space: pre;" direction="ltr">PID 47823</text></g><g stroke-linecap="round"><g transform="translate(280 415) rotate(0 10 0)"><path d="M0.48 -0.24 C3.7 -0.41, 16.96 -1.18, 20.31 -1.01 M-0.73 -1.42 C2.27 -1.46, 16.05 -0.04, 19.52 -0.01" stroke="#3fb950" stroke-width="2" fill="none"></path></g><g transform="translate(280 415) rotate(0 10 0)"><path d="M9.72 3.08 C12.76 2.17, 17.9 1.54, 19.8 -0.35 M9.6 2.83 C12.52 2.35, 14.31 1.93, 19.07 0.36" stroke="#3fb950" stroke-width="2" fill="none"></path></g><g transform="translate(280 415) rotate(0 10 0)"><path d="M10.15 -3.74 C13.02 -2.04, 17.99 -0.06, 19.8 -0.35 M10.02 -4 C12.8 -2.87, 14.48 -1.7, 19.07 0.36" stroke="#3fb950" stroke-width="2" fill="none"></path></g></g><g stroke-linecap="round"><g transform="translate(720 415) rotate(0 -10 0)"><path d="M-0.48 -0.97 C-3.82 -1.06, -17.01 -1.2, -20.43 -1.05 M1.46 1.13 C-2.03 1.2, -18.26 -0.07, -21.6 -0.07" stroke="#f85149" stroke-width="2" fill="none"></path></g><g transform="translate(720 415) rotate(0 -10 0)"><path d="M-12.86 -3.4 C-15.47 -3.1, -17.23 -1.69, -22.41 -0.21 M-12.12 -2.81 C-15.8 -1.6, -18.86 -0.9, -22.06 0.26" stroke="#f85149" stroke-width="2" fill="none"></path></g><g transform="translate(720 415) rotate(0 -10 0)"><path d="M-13.18 3.43 C-15.68 1.93, -17.35 1.53, -22.41 -0.21 M-12.44 4.02 C-16 2.66, -18.94 0.8, -22.06 0.26" stroke="#f85149" stroke-width="2" fill="none"></path></g></g><g transform="translate(110 505) rotate(0 567.5 10)"><text x="0" y="NaN" font-family="Virgil, Segoe UI Emoji" font-size="16px" fill="#58a6ff" text-anchor="start" style="white-space: pre;" direction="ltr">MNT namespace mounts overlayfs root '/' into the container — image layers ro + 1 writable upper on top:</text></g><g stroke-linecap="round" transform="translate(110 527) rotate(0 390 8)"><path d="M0.95 -0.23 L780.82 -0.13 L780.51 16.33 L1.72 15.34" stroke="none" stroke-width="0" fill="#3a5d1d"></path><path d="M0.7 0.34 C276.8 -2.1, 552.3 -3.07, 779.3 0.61 M-0.23 0.37 C268.08 0.75, 536.14 0.71, 779.71 0.07 M779.1 0.66 C778.43 5.84, 779.7 10.98, 780.29 16.6 M779.95 0.59 C780.36 4.91, 780.39 8.11, 779.92 15.86 M779.56 15.87 C566.51 17.35, 352.49 16.52, -0.59 15.37 M779.73 16.19 C492.15 16.28, 204.67 16.17, -0.07 16.38 M1.41 16.41 C-0.17 11.54, 1.27 7.64, 1.02 0.27 M-0.07 15.46 C0.47 12.36, 0.81 7.81, 0.44 -0.61" stroke="#6dbf3a" stroke-width="2" fill="none"></path></g><g transform="translate(110 527) rotate(0 390 8)"><text x="390" y="NaN" font-family="Virgil, Segoe UI Emoji" font-size="14px" fill="#ffffff" text-anchor="middle" style="white-space: pre;" direction="ltr">WRITABLE upper (rw) — copy-up on write</text></g><g stroke-linecap="round" transform="translate(110 545) rotate(0 390 8)"><path d="M1.47 1.26 L779.3 -1.56 L779.7 17.4 L-1.81 16.58" stroke="none" stroke-width="0" fill="#1f4d2b"></path><path d="M0.56 -0.04 C215.04 -1.33, 429.12 -1.47, 779.62 0.38 M0.25 -0.04 C232.96 -2.48, 466.05 -2.47, 779.61 0.32 M780.36 -1.56 C778.52 2.49, 778.55 6.49, 781.59 15.03 M780.74 -0.16 C780.6 4.86, 779.98 8.84, 780.3 16.25 M779.22 16.19 C599.38 17.56, 418.64 18.3, 0.22 16.24 M779.9 16.24 C603.56 18.15, 427.02 18.18, 0.03 16.36 M1.56 17.27 C1.27 9.87, -0.46 4.36, 1.06 0.36 M0.15 15.66 C-0.25 11.74, 0.08 8.47, -0.39 0.23" stroke="#3fb950" stroke-width="2" fill="none"></path></g><g transform="translate(110 545) rotate(0 390 8)"><text x="390" y="NaN" font-family="Virgil, Segoe UI Emoji" font-size="14px" fill="#ffffff" text-anchor="middle" style="white-space: pre;" direction="ltr">L4 myservice.jar (ro)</text></g><g stroke-linecap="round" transform="translate(110 563) rotate(0 390 8)"><path d="M-1.16 0.47 L780.8 -0.55 L781.78 17.03 L-1.64 14.85" stroke="none" stroke-width="0" fill="#5c3a10"></path><path d="M-0.28 0.04 C185.19 0.14, 369.62 -0.91, 780.78 -0.72 M-0.13 -0.17 C189.16 -0.83, 378.08 -0.92, 779.79 -0.21 M780.03 -0.83 C779.68 4.26, 781.13 12.13, 780.81 16.29 M780.37 -0.7 C780.14 3.82, 779.43 7.56, 780.62 16.1 M780.23 16.59 C549.79 13.82, 321.21 13.12, 0.68 15.96 M779.6 16.37 C559.09 14.93, 337.78 15.08, -0.23 16.3 M0.23 16.05 C0.57 9.47, -0.77 5.39, 1.01 1.16 M-0.57 15.83 C0.81 10.8, -0.45 7.11, 0.28 -0.22" stroke="#f0883e" stroke-width="2" fill="none"></path></g><g transform="translate(110 563) rotate(0 390 8)"><text x="390" y="NaN" font-family="Virgil, Segoe UI Emoji" font-size="14px" fill="#ffffff" text-anchor="middle" style="white-space: pre;" direction="ltr">L3 adduser svc (ro)</text></g><g stroke-linecap="round" transform="translate(110 581) rotate(0 390 8)"><path d="M-0.94 1.45 L780.95 0.33 L779.34 16.99 L-1.01 16.48" stroke="none" stroke-width="0" fill="#5c3a10"></path><path d="M-0.09 0.02 C208.92 0.44, 418.22 0.84, 780.79 -0.43 M0.13 0.11 C231.63 0.93, 462.56 0.69, 780.34 0.32 M778.44 -1.47 C779.43 5.2, 780.63 6.26, 779.28 16.1 M779.91 -0.51 C779.42 3.21, 779.89 6.37, 779.58 15.36 M780.57 16.33 C475.2 14.47, 171.22 14.19, -0.39 15.52 M780.3 16.23 C588.48 13.18, 396.49 12.77, -0.12 15.83 M-1.41 16.19 C1.15 11.55, 1.17 2.83, -0.64 -1.39 M0.04 16.35 C-0.3 11.47, -0.44 6.67, -0.45 -0.38" stroke="#f0883e" stroke-width="2" fill="none"></path></g><g transform="translate(110 581) rotate(0 390 8)"><text x="390" y="NaN" font-family="Virgil, Segoe UI Emoji" font-size="14px" fill="#ffffff" text-anchor="middle" style="white-space: pre;" direction="ltr">L2 openjdk17-jre (ro)</text></g><g stroke-linecap="round" transform="translate(110 599) rotate(0 390 8)"><path d="M0.89 1.19 L779.66 -0.01 L778.12 15.33 L-1.23 17.93" stroke="none" stroke-width="0" fill="#5c3a10"></path><path d="M-0.71 -0.33 C252.23 2.17, 503.68 2.75, 779.5 -0.44 M-0.16 -0.36 C183.07 -0.45, 366.88 -0.06, 780.1 -0.3 M781.42 1.11 C778.81 5.03, 778.43 10.75, 779.54 15.92 M780.44 0.4 C780.55 5.08, 780.47 8.93, 779.64 16.78 M780.72 15.63 C569.06 15.93, 359.29 15.64, -0.24 16.17 M780.17 16.25 C589.77 18.04, 399.91 18.28, -0.21 15.88 M-0.11 15.68 C-0.37 12.86, -1.42 6.58, 0.41 -1.32 M-0.65 15.63 C0.81 10.4, -0.43 4.75, -0.11 -0.18" stroke="#f0883e" stroke-width="2" fill="none"></path></g><g transform="translate(110 599) rotate(0 390 8)"><text x="390" y="NaN" font-family="Virgil, Segoe UI Emoji" font-size="14px" fill="#ffffff" text-anchor="middle" style="white-space: pre;" direction="ltr">L1 alpine base (ro)</text></g><g stroke-opacity="0.7" fill-opacity="0.7" stroke-linecap="round" transform="translate(1020 115) rotate(0 235 345)"><path d="M0.77 -1.97 L470.29 -0.2 L469.19 691.24 L0.31 688.31" stroke="none" stroke-width="0" fill="#161b22"></path><path d="M-0.08 -0.74 C162.52 0.96, 325.44 1.17, 470 -0.6 M469.35 0.76 C467.51 154.82, 468.46 310.82, 469.86 690.14 M469.88 690.89 C335.1 689, 199.82 688.18, -0.19 689.73 M0.52 689.73 C1.12 549.03, 2.5 407.1, -0.27 0.47" stroke="#30363d" stroke-width="2.5" fill="none" stroke-dasharray="8 10"></path></g><g transform="translate(1036 129) rotate(0 200 13.5)"><text x="0" y="NaN" font-family="Virgil, Segoe UI Emoji" font-size="22px" fill="#e6edf3" text-anchor="start" style="white-space: pre;" direction="ltr">Properties that fall out</text></g><g transform="translate(1036 159) rotate(0 415 10)"><text x="0" y="NaN" font-family="Virgil, Segoe UI Emoji" font-size="16px" fill="#8b949e" text-anchor="start" style="white-space: pre;" direction="ltr">Each surprising behaviour is a direct consequence of the model on the left.</text></g><g transform="translate(1036 190) rotate(0 235 10)"><text x="0" y="NaN" font-family="Virgil, Segoe UI Emoji" font-size="16px" fill="#3fb950" text-anchor="start" style="white-space: pre;" direction="ltr">• PID 1 inside → kill -1 = container exits</text></g><g transform="translate(1050 212) rotate(0 364 9)"><text x="0" y="NaN" font-family="Virgil, Segoe UI Emoji" font-size="15px" fill="#c9d1d9" text-anchor="start" style="white-space: pre;" direction="ltr">no init system above your JVM. Killing PID 1 tears down the namespace.</text></g><g transform="translate(1036 268) rotate(0 240.5 10)"><text x="0" y="NaN" font-family="Virgil, Segoe UI Emoji" font-size="16px" fill="#3fb950" text-anchor="start" style="white-space: pre;" direction="ltr">• Two pods on same host can both bind :8080</text></g><g transform="translate(1050 290) rotate(0 251.5 9)"><text x="0" y="NaN" font-family="Virgil, Segoe UI Emoji" font-size="15px" fill="#c9d1d9" text-anchor="start" style="white-space: pre;" direction="ltr">separate NET namespaces, separate socket tables.</text></g><g transform="translate(1036 346) rotate(0 262 10)"><text x="0" y="NaN" font-family="Virgil, Segoe UI Emoji" font-size="16px" fill="#3fb950" text-anchor="start" style="white-space: pre;" direction="ltr">• `ps aux` sees only your container's processes</text></g><g transform="translate(1050 368) rotate(0 210 9)"><text x="0" y="NaN" font-family="Virgil, Segoe UI Emoji" font-size="15px" fill="#c9d1d9" text-anchor="start" style="white-space: pre;" direction="ltr">PID namespace hides everything outside.</text></g><g transform="translate(1036 424) rotate(0 273 10)"><text x="0" y="NaN" font-family="Virgil, Segoe UI Emoji" font-size="16px" fill="#3fb950" text-anchor="start" style="white-space: pre;" direction="ltr">• Container 'has' 64 GB RAM even if limit is 2 GB</text></g><g transform="translate(1050 446) rotate(0 440.5 9)"><text x="0" y="NaN" font-family="Virgil, Segoe UI Emoji" font-size="15px" fill="#c9d1d9" text-anchor="start" style="white-space: pre;" direction="ltr">/proc/meminfo is NOT cgroup-aware by default. Use -XX:+UseContainerSupport (JDK 10+).</text></g><g transform="translate(1036 502) rotate(0 219 10)"><text x="0" y="NaN" font-family="Virgil, Segoe UI Emoji" font-size="16px" fill="#3fb950" text-anchor="start" style="white-space: pre;" direction="ltr">• Exit 137 with no logs</text></g><g transform="translate(1050 524) rotate(0 338 9)"><text x="0" y="NaN" font-family="Virgil, Segoe UI Emoji" font-size="15px" fill="#c9d1d9" text-anchor="start" style="white-space: pre;" direction="ltr">kernel OOM-killer sent SIGKILL. JVM had no chance to log or dump.</text></g><g transform="translate(1036 580) rotate(0 219 10)"><text x="0" y="NaN" font-family="Virgil, Segoe UI Emoji" font-size="16px" fill="#3fb950" text-anchor="start" style="white-space: pre;" direction="ltr">• CPU usage 35% but threads stalling</text></g><g transform="translate(1050 602) rotate(0 374 9)"><text x="0" y="NaN" font-family="Virgil, Segoe UI Emoji" font-size="15px" fill="#c9d1d9" text-anchor="start" style="white-space: pre;" direction="ltr">cgroup CPU throttling. Export container_cpu_cfs_throttled_seconds_total.</text></g><g transform="translate(1036 658) rotate(0 219 10)"><text x="0" y="NaN" font-family="Virgil, Segoe UI Emoji" font-size="16px" fill="#3fb950" text-anchor="start" style="white-space: pre;" direction="ltr">• `/etc/hostname` differs from host</text></g><g transform="translate(1050 680) rotate(0 210 9)"><text x="0" y="NaN" font-family="Virgil, Segoe UI Emoji" font-size="15px" fill="#c9d1d9" text-anchor="start" style="white-space: pre;" direction="ltr">UTS namespace owns hostname.</text></g></svg>