<svg version="1.1" xmlns="http://www.w3.org/2000/svg" viewBox="0 0 1250 761.25" width="1250" height="761.25">
  <!-- svg-source:excalidraw -->
  
  <defs>
    <style>
      @font-face {
        font-family: "Virgil";
        src: url("https://excalidraw.com/Virgil.woff2");
      }
      @font-face {
        font-family: "Cascadia";
        src: url("https://excalidraw.com/Cascadia.woff2");
      }
    </style>
  </defs>
  <rect x="0" y="0" width="1250" height="761.25" fill="#0d1117"></rect><g transform="translate(10 10) rotate(0 448.24481201171875 18.75)"><text x="0" y="NaN" font-family="Virgil, Segoe UI Emoji" font-size="30px" fill="#ff8c42" text-anchor="start" style="white-space: pre;" direction="ltr">Federation -- many subgraph teams, one client-facing schema</text></g><g transform="translate(10 53) rotate(0 585.7916870117188 11.25)"><text x="0" y="NaN" font-family="Virgil, Segoe UI Emoji" font-size="18px" fill="#c9d1d9" text-anchor="start" style="white-space: pre;" direction="ltr">Gateway composes 4 team-owned subgraphs into 1 supergraph. One client query becomes 3 subgraph calls, stitched on shared @key.</text></g><g stroke-linecap="round" transform="translate(550 105) rotate(0 130 35)"><path d="M-0.95 -1.56 L260.23 -0.65 L261.56 71.31 L-1.04 71.39" stroke="none" stroke-width="0" fill="#1f4d2b"></path><path d="M-1.53 0.43 C103.03 -0.36, 208.96 -0.6, 258.92 1.6 M-0.68 0.72 C55.33 -1.62, 110.02 -1.39, 260.14 -0.27 M261.34 1.29 C260.31 20.21, 260.82 42.48, 261.74 71.01 M260.39 -0.41 C260.28 21.01, 260.09 42.87, 259.68 69.42 M259.02 68.47 C177.3 70.5, 96.43 71.5, 0.49 69.22 M259.53 70.38 C200.53 69.68, 142.52 71.15, -0.67 70.35 M1.57 68.52 C0.45 52.75, 0.68 34.59, 1.5 -1.86 M-0.34 70.7 C1.03 49.01, 1.07 27.85, 0.1 -0.71" stroke="#3fb950" stroke-width="2" fill="none"></path></g><g transform="translate(620.8000564575195 127.5) rotate(0 59.19994354248047 12.5)"><text x="59.19994354248047" y="NaN" font-family="Virgil, Segoe UI Emoji" font-size="20px" fill="#ffffff" text-anchor="middle" style="white-space: pre;" direction="ltr">Mobile client</text></g><g stroke-linecap="round" transform="translate(850 95) rotate(0 178.96685494350663 78.00991307002124)"><path d="M0.33 -0.03 L359.16 0.21 L358.85 157.26 L-1.34 155.55" stroke="none" stroke-width="0" fill="#21262d"></path><path d="M-0.13 -1 C132.07 1.79, 262.42 2.52, 357.88 -1.25 M0.23 -0.44 C78.17 2.34, 156.22 2.48, 358.2 -0.31 M358.2 -0.13 C357.65 33.01, 358.51 65.98, 357.44 154.57 M358.12 -0.28 C359.64 45.02, 358.33 90.41, 358.09 156.11 M358.41 155.77 C228.24 157.86, 101.36 158.51, -1.24 155.67 M357.85 156.04 C260.64 157.33, 162.21 157.2, 0.48 155.84 M1.97 155.98 C2.04 112.53, 0.64 68.55, 0.7 0.09 M0.83 155.55 C0.23 120.65, 1.05 83.78, 0.47 -0.03" stroke="#58a6ff" stroke-width="2" fill="none"></path></g><g transform="translate(864 103) rotate(0 51.10944366455078 8.125)"><text x="0" y="NaN" font-family="Virgil, Segoe UI Emoji" font-size="13px" fill="#8b949e" text-anchor="start" style="white-space: pre;" direction="ltr">One client query</text></g><g transform="translate(864 123) rotate(0 148.90835571289062 56.875)"><text x="0" y="NaN" font-family="Virgil, Segoe UI Emoji" font-size="13px" fill="#58a6ff" text-anchor="start" style="white-space: pre;" direction="ltr">query {</text><text x="0" y="NaN" font-family="Virgil, Segoe UI Emoji" font-size="13px" fill="#58a6ff" text-anchor="start" style="white-space: pre;" direction="ltr">  user(id:"u_42") {</text><text x="0" y="NaN" font-family="Virgil, Segoe UI Emoji" font-size="13px" fill="#58a6ff" text-anchor="start" style="white-space: pre;" direction="ltr">    name email</text><text x="0" y="NaN" font-family="Virgil, Segoe UI Emoji" font-size="13px" fill="#58a6ff" text-anchor="start" style="white-space: pre;" direction="ltr">    orders { total status }</text><text x="0" y="NaN" font-family="Virgil, Segoe UI Emoji" font-size="13px" fill="#58a6ff" text-anchor="start" style="white-space: pre;" direction="ltr">    cart { items { product { title price } } }</text><text x="0" y="NaN" font-family="Virgil, Segoe UI Emoji" font-size="13px" fill="#58a6ff" text-anchor="start" style="white-space: pre;" direction="ltr">  }</text><text x="0" y="NaN" font-family="Virgil, Segoe UI Emoji" font-size="13px" fill="#58a6ff" text-anchor="start" style="white-space: pre;" direction="ltr">}</text></g><g stroke-linecap="round" transform="translate(500 275) rotate(0 180 45)"><path d="M-1.36 -1.41 L360.38 -0.38 L361.98 91.22 L-1.13 89.98" stroke="none" stroke-width="0" fill="#5c3a10"></path><path d="M-0.92 -0.18 C130.5 0.8, 261.45 -1, 360.8 1.25 M0.32 -0.27 C109.13 1.78, 217.75 1.37, 360.63 -0.19 M358.98 1.66 C362.49 20.07, 360.38 35.41, 358.54 91.97 M360.54 0.31 C361.26 21.17, 360.37 42.01, 360.85 90.81 M359.28 89.76 C284.5 92.34, 207.38 90.81, -0.99 89.92 M359.66 90.02 C273.88 88.85, 187.74 88.38, 0.19 89.46 M0.52 89 C-1.62 59.91, -0.13 30.11, 1.85 -1.62 M0.37 90.2 C-0.6 64.82, 0.85 40.9, -0.98 -0.13" stroke="#f0883e" stroke-width="2" fill="none"></path></g><g transform="translate(564.1880645751953 297.5) rotate(0 115.81193542480469 22.5)"><text x="115.81193542480469" y="NaN" font-family="Virgil, Segoe UI Emoji" font-size="18px" fill="#ffffff" text-anchor="middle" style="white-space: pre;" direction="ltr">Apollo Router (Gateway)</text><text x="115.81193542480469" y="NaN" font-family="Virgil, Segoe UI Emoji" font-size="18px" fill="#ffffff" text-anchor="middle" style="white-space: pre;" direction="ltr">plans + routes + stitches</text></g><g stroke-linecap="round"><g transform="translate(680.028277363585 180.99999999999997) rotate(0 0.0024444172842663647 44.000000000000014)"><path d="M-0.46 0.87 C-0.63 15.31, -1.28 72.59, -1.06 87.25 M1.5 0.28 C1.69 14.8, 1.26 73.95, 1.09 88.4" stroke="#58a6ff" stroke-width="3" fill="none"></path></g><g transform="translate(680.028277363585 180.99999999999997) rotate(0 0.0024444172842663647 44.000000000000014)"><path d="M-7.47 58.35 C-7.04 69.95, -1.35 75.7, 2.24 90.06 M-9.04 60.07 C-7.09 65.62, -3.8 72.74, 0.28 87.83" stroke="#58a6ff" stroke-width="3" fill="none"></path></g><g transform="translate(680.028277363585 180.99999999999997) rotate(0 0.0024444172842663647 44.000000000000014)"><path d="M13.05 58.53 C7.39 70, 6.99 75.69, 2.24 90.06 M11.48 60.24 C8.8 65.93, 7.47 73, 0.28 87.83" stroke="#58a6ff" stroke-width="3" fill="none"></path></g></g><g stroke-linecap="round" transform="translate(30 465) rotate(0 125 40)"><path d="M-1.24 -0.42 L248.64 -0.05 L249.65 78.1 L-0.53 78.61" stroke="none" stroke-width="0" fill="#3a1d6e"></path><path d="M-0.04 -0.61 C96.06 -0.67, 191.69 0.14, 251.35 1.62 M-0.35 0.46 C94.27 -2.29, 188.17 -1.2, 250.77 0.71 M251.78 -1.24 C251.13 29.75, 252.74 57.78, 249.73 78.23 M250.92 0.16 C249.57 28.12, 249.84 57.5, 249.99 79.07 M250.08 78.37 C151.87 80.84, 55.78 78.89, -0.44 79.62 M250.37 79.65 C196.56 80.29, 144.26 80.06, 0.71 79.87 M-1.56 81.51 C1.61 61.73, 0.47 43.27, -0.35 1.37 M-0.19 79.44 C1.1 60.48, 0.42 42.62, -0.48 -0.36" stroke="#a371f7" stroke-width="2" fill="none"></path></g><g transform="translate(117.16402435302734 482.5) rotate(0 37.835975646972656 22.5)"><text x="37.835975646972656" y="NaN" font-family="Virgil, Segoe UI Emoji" font-size="18px" fill="#ffffff" text-anchor="middle" style="white-space: pre;" direction="ltr">Users</text><text x="37.835975646972656" y="NaN" font-family="Virgil, Segoe UI Emoji" font-size="18px" fill="#ffffff" text-anchor="middle" style="white-space: pre;" direction="ltr">subgraph</text></g><g stroke-linecap="round" transform="translate(30 555) rotate(0 125 45)"><path d="M-0.63 -1.96 L251.15 1.51 L251 89.22 L-0.34 90.31" stroke="none" stroke-width="0" fill="#21262d"></path><path d="M0.44 -0.81 C52.69 -2.79, 102.43 -1, 249.31 -0.09 M-0.65 -0.28 C54.11 0.16, 109.87 0.06, 250.08 0.11 M251.39 -1.12 C248.67 19.28, 252.16 42.54, 250.87 91.31 M249.31 0.47 C250.08 33.77, 250.55 67.43, 249.32 89.79 M248.86 88.71 C165.62 90.49, 83.47 93.02, 1.15 89.81 M250.1 89.46 C154.42 90.73, 58.47 90.5, 0.26 90.3 M-0.41 89.05 C0.87 67.48, 1.66 44.17, -0.66 0.6 M-0.48 89.43 C0.88 68.64, 0.13 47.39, 0.76 -0.76" stroke="#30363d" stroke-width="1" fill="none"></path></g><g transform="translate(40 563) rotate(0 58.8779296875 15)"><text x="0" y="NaN" font-family="Virgil, Segoe UI Emoji" font-size="12px" fill="#58a6ff" text-anchor="start" style="white-space: pre;" direction="ltr">type User @key("id")</text><text x="0" y="NaN" font-family="Virgil, Segoe UI Emoji" font-size="12px" fill="#58a6ff" text-anchor="start" style="white-space: pre;" direction="ltr">  id name email</text></g><g stroke-linecap="round" transform="translate(350 465) rotate(0 125 40)"><path d="M0.53 0.07 L251.47 -1.75 L250.83 78.68 L0.2 78.57" stroke="none" stroke-width="0" fill="#0d2c5a"></path><path d="M1.41 1.01 C86.19 0.14, 173.38 -0.11, 248.9 1.18 M0.02 -0.19 C62.73 2.05, 124.2 1.58, 250.18 -0.08 M251.04 -1.91 C249.52 23.29, 251.03 48.79, 250.28 78.99 M250.76 -0.75 C248.72 20.57, 248.88 40.86, 250.19 80.75 M250.82 80.74 C171.12 81.93, 92.27 80.83, -0.01 78.78 M249.81 79.27 C199.38 81.99, 147.39 80.55, -0.65 80.11 M0.97 79.96 C0.1 48.74, 0.29 15.22, -1.79 0.46 M-0.61 80.31 C-0.02 64.01, 0.11 46.96, 0.98 0.08" stroke="#58a6ff" stroke-width="2" fill="none"></path></g><g transform="translate(435.4720230102539 482.5) rotate(0 39.527976989746094 22.5)"><text x="39.527976989746094" y="NaN" font-family="Virgil, Segoe UI Emoji" font-size="18px" fill="#ffffff" text-anchor="middle" style="white-space: pre;" direction="ltr">Products</text><text x="39.527976989746094" y="NaN" font-family="Virgil, Segoe UI Emoji" font-size="18px" fill="#ffffff" text-anchor="middle" style="white-space: pre;" direction="ltr">subgraph</text></g><g stroke-linecap="round" transform="translate(350 555) rotate(0 125 45)"><path d="M-1.56 -1.23 L248.58 -1.45 L250.3 88.56 L-1.88 91.87" stroke="none" stroke-width="0" fill="#21262d"></path><path d="M1.19 -1.62 C77.57 0.67, 154.88 -1.21, 251 0.19 M-0.31 0.44 C66.48 0.35, 133.14 0.01, 250.74 -0.34 M248.8 -0.21 C252.05 29.07, 251.27 60.86, 250.74 91.63 M249.57 0.31 C250.34 24.86, 251.13 48.54, 249.81 89.16 M251.32 91.62 C193.08 89.87, 135.18 90.09, 1.04 90.02 M250.46 90.63 C169.86 91.44, 88.57 90.97, 0.52 89.94 M1.77 89.04 C0.86 56.82, -2.01 24.91, 0.07 1.84 M0.43 90.13 C-0.16 68.86, 0.08 47.55, -0.94 0.52" stroke="#30363d" stroke-width="1" fill="none"></path></g><g transform="translate(360 563) rotate(0 42.82794952392578 15)"><text x="0" y="NaN" font-family="Virgil, Segoe UI Emoji" font-size="12px" fill="#8b949e" text-anchor="start" style="white-space: pre;" direction="ltr">type Product</text><text x="0" y="NaN" font-family="Virgil, Segoe UI Emoji" font-size="12px" fill="#8b949e" text-anchor="start" style="white-space: pre;" direction="ltr">  id title price</text></g><g stroke-linecap="round" transform="translate(670 465) rotate(0 125 40)"><path d="M0.38 -0.71 L249.31 -1.67 L249.17 80.13 L1.51 78.06" stroke="none" stroke-width="0" fill="#3a1d6e"></path><path d="M-1.06 1.31 C71.79 -0.03, 141.52 -0.84, 251.08 0.92 M-0.78 0.32 C56.59 0.63, 111.52 -0.1, 249.98 0.06 M250.65 0.39 C250.34 23.62, 249.1 46.83, 249.36 81.57 M249.94 0.06 C249.78 17.3, 249.43 35.58, 250.63 79.4 M250.19 78.94 C181.32 81.12, 110.9 81.44, -0.18 80.95 M249.48 80.26 C151.39 80.22, 52.89 81.05, -0.57 79.9 M-1.31 79.33 C2.18 64.42, -0.24 45.32, -1.03 1.51 M-0.38 79.3 C-0.51 58.84, -0.01 38.06, -0.73 0.86" stroke="#a371f7" stroke-width="2" fill="none"></path></g><g transform="translate(757.1640243530273 482.5) rotate(0 37.835975646972656 22.5)"><text x="37.835975646972656" y="NaN" font-family="Virgil, Segoe UI Emoji" font-size="18px" fill="#ffffff" text-anchor="middle" style="white-space: pre;" direction="ltr">Orders</text><text x="37.835975646972656" y="NaN" font-family="Virgil, Segoe UI Emoji" font-size="18px" fill="#ffffff" text-anchor="middle" style="white-space: pre;" direction="ltr">subgraph</text></g><g stroke-linecap="round" transform="translate(670 555) rotate(0 125 45)"><path d="M-1.38 0.7 L250.79 -0.55 L250.08 88.38 L-0.14 91.62" stroke="none" stroke-width="0" fill="#21262d"></path><path d="M-0.76 -0.94 C62.92 -0.02, 124.21 -1.64, 249.02 -1.03 M-0.67 -0.71 C70.33 0.52, 139.09 0.59, 249.83 -0.28 M250.44 0.23 C250.03 25.57, 250.2 50.6, 248.84 89.13 M249.6 -0.72 C249.31 33.19, 249.2 64.2, 249.63 89.67 M250.48 90.2 C169.68 90.78, 90.66 88.19, 0.47 89.62 M250.38 90.02 C188.06 91.25, 127 91.05, -0.74 90.76 M-1.79 88.7 C-1.26 65.61, 1.1 40, -1.54 1.1 M-0.96 90.08 C0.66 61.45, -0.71 34.74, 0.75 -0.71" stroke="#30363d" stroke-width="1" fill="none"></path></g><g transform="translate(680 563) rotate(0 81.41990661621094 15)"><text x="0" y="NaN" font-family="Virgil, Segoe UI Emoji" font-size="12px" fill="#58a6ff" text-anchor="start" style="white-space: pre;" direction="ltr">extend type User @key("id")</text><text x="0" y="NaN" font-family="Virgil, Segoe UI Emoji" font-size="12px" fill="#58a6ff" text-anchor="start" style="white-space: pre;" direction="ltr">  orders: [Order!]!</text></g><g stroke-linecap="round" transform="translate(990 465) rotate(0 125 40)"><path d="M0.34 -0.03 L249.25 -1.51 L250.9 81.79 L1.23 78.22" stroke="none" stroke-width="0" fill="#0d2c5a"></path><path d="M-1.26 1.01 C81.82 -0.93, 162.64 -0.5, 249.54 1.59 M0.81 0.22 C59.1 -1.77, 118.01 -1.99, 249.47 0.24 M251.64 1.48 C250.81 26.44, 249.89 49.73, 248.7 80.54 M249.68 0.97 C250.12 25.95, 250.47 49.59, 250.9 79.05 M250.19 80.86 C186.23 81.46, 124.92 81.07, -0.73 79.23 M250.69 79.81 C196.17 80.33, 140.34 80.21, 0.65 80.58 M-1.18 79.62 C0.57 48.08, 0.97 18.8, -0.91 -0.89 M0.99 79.19 C-0.16 52.41, -0.37 26.57, -0.32 0.57" stroke="#58a6ff" stroke-width="2" fill="none"></path></g><g transform="translate(1073.8970336914062 482.5) rotate(0 41.10296630859375 22.5)"><text x="41.10296630859375" y="NaN" font-family="Virgil, Segoe UI Emoji" font-size="18px" fill="#ffffff" text-anchor="middle" style="white-space: pre;" direction="ltr">Inventory</text><text x="41.10296630859375" y="NaN" font-family="Virgil, Segoe UI Emoji" font-size="18px" fill="#ffffff" text-anchor="middle" style="white-space: pre;" direction="ltr">subgraph</text></g><g stroke-linecap="round" transform="translate(990 555) rotate(0 125 45)"><path d="M1.71 1.37 L251.05 1.89 L251.01 88.18 L0.58 88.96" stroke="none" stroke-width="0" fill="#21262d"></path><path d="M0.56 -1.11 C83.94 -2.44, 166.2 -0.48, 248.81 -0.43 M-0.61 -0.78 C98.51 -0.46, 197.75 -0.29, 250.41 0.67 M250.01 1.16 C248.19 28.56, 250.5 62.45, 249.09 89.38 M249.49 -0.14 C248.13 33.29, 249.25 63.94, 250.29 89.44 M250.63 91.17 C196.44 89.97, 145.62 89.97, -1.29 89.09 M250.21 89.82 C191.78 87.42, 133.07 87.64, 0.4 90.44 M0.47 90.09 C0.45 63.1, -0.13 39.29, -1.35 1.81 M0.91 90.54 C0.32 62.54, 0.31 36.02, -0.79 -0.02" stroke="#30363d" stroke-width="1" fill="none"></path></g><g transform="translate(1000 563) rotate(0 61.079933166503906 15)"><text x="0" y="NaN" font-family="Virgil, Segoe UI Emoji" font-size="12px" fill="#58a6ff" text-anchor="start" style="white-space: pre;" direction="ltr">extend type Product</text><text x="0" y="NaN" font-family="Virgil, Segoe UI Emoji" font-size="12px" fill="#58a6ff" text-anchor="start" style="white-space: pre;" direction="ltr">  stock: Int!</text></g><g stroke-linecap="round"><g transform="translate(627.0582436954776 371.00000000000006) rotate(0 -210.81505279494422 44)"><path d="M0.07 -0.67 C-70.43 13.76, -352.01 72.65, -422.23 87.57 M-1.35 1.6 C-71.51 16.71, -349.75 74.65, -419.83 88.89" stroke="#3fb950" stroke-width="2" fill="none"></path></g><g transform="translate(627.0582436954776 371.00000000000006) rotate(0 -210.81505279494422 44)"><path d="M-395.4 72.15 C-404.16 79.52, -411.23 84.45, -421.76 89.3 M-394.82 73.43 C-402.15 77.9, -411.61 83.21, -420.38 89.42" stroke="#3fb950" stroke-width="2" fill="none"></path></g><g transform="translate(627.0582436954776 371.00000000000006) rotate(0 -210.81505279494422 44)"><path d="M-391.26 92.24 C-401.69 92.31, -410.28 89.93, -421.76 89.3 M-390.67 93.53 C-399.39 91.34, -410.21 89.99, -420.38 89.42" stroke="#3fb950" stroke-width="2" fill="none"></path></g></g><g stroke-linecap="round"><g transform="translate(693.1048058283862 371) rotate(0 44.45006461337732 43.99999999999997)"><path d="M-0.02 -0.06 C14.78 14.35, 73.11 72.77, 87.81 87.51 M-1.5 -1.13 C13.75 13.95, 74.58 74.22, 89.94 88.79" stroke="#3fb950" stroke-width="2" fill="none"></path></g><g transform="translate(693.1048058283862 371) rotate(0 44.45006461337732 43.99999999999997)"><path d="M62.48 74.67 C67.78 77.96, 75.17 81.2, 91.75 87.68 M62.74 76.27 C68.65 80, 74.73 81.91, 89.05 89.15" stroke="#3fb950" stroke-width="2" fill="none"></path></g><g transform="translate(693.1048058283862 371) rotate(0 44.45006461337732 43.99999999999997)"><path d="M76.79 59.95 C79.13 66.42, 83.43 72.84, 91.75 87.68 M77.05 61.56 C79.51 68.83, 82.19 74.24, 89.05 89.15" stroke="#3fb950" stroke-width="2" fill="none"></path></g></g><g stroke-linecap="round"><g transform="translate(724.8885135788594 371) rotate(0 173.57781165257938 44)"><path d="M0.36 -1.14 C58.21 13.33, 289.55 72.51, 347.18 87.21 M-0.92 0.87 C56.78 15.44, 288 73.83, 346.25 88.33" stroke="#3fb950" stroke-width="2" fill="none"></path></g><g transform="translate(724.8885135788594 371) rotate(0 173.57781165257938 44)"><path d="M314.51 91.47 C324.17 88.77, 333.01 90.56, 345.28 88.76 M315.98 91.15 C325.76 90.83, 333.06 89.04, 346.01 87.38" stroke="#3fb950" stroke-width="2" fill="none"></path></g><g transform="translate(724.8885135788594 371) rotate(0 173.57781165257938 44)"><path d="M319.5 71.56 C327.71 74.94, 335.03 82.79, 345.28 88.76 M320.97 71.24 C329.17 76.55, 335.05 80.41, 346.01 87.38" stroke="#3fb950" stroke-width="2" fill="none"></path></g></g><g stroke-linecap="round"><g transform="translate(680 365) rotate(0 -102.5 50)"><path d="M-0.07 1.14 C-34.33 18.05, -171.68 83.75, -205.86 100.41" stroke="#8b949e" stroke-width="2.5" fill="none" stroke-dasharray="8 10"></path></g></g><g transform="translate(370 495) rotate(0 24.701980590820312 7.5)"><text x="0" y="NaN" font-family="Virgil, Segoe UI Emoji" font-size="12px" fill="#8b949e" text-anchor="start" style="white-space: pre;" direction="ltr">(not hit)</text></g><g stroke-linecap="round"><g transform="translate(280 595) rotate(0 195 0)"><path d="M0.79 0.88 C66.01 0.92, 326.22 0.77, 391.02 0.77" stroke="#f0883e" stroke-width="2.5" fill="none" stroke-dasharray="8 10"></path></g><g transform="translate(280 595) rotate(0 195 0)"><path d="M364.31 12.74 C371.82 7.39, 379.72 6.7, 389.12 1.94" stroke="#f0883e" stroke-width="2.5" fill="none"></path></g><g transform="translate(280 595) rotate(0 195 0)"><path d="M364.3 -7.78 C371.91 -7.48, 379.81 -2.53, 389.12 1.94" stroke="#f0883e" stroke-width="2.5" fill="none"></path></g></g><g transform="translate(349.8708781730397 661.12087817304) rotate(0 284.3297424316406 12.5)"><text x="0" y="NaN" font-family="Virgil, Segoe UI Emoji" font-size="20px" fill="#f0883e" text-anchor="start" style="white-space: pre;" direction="ltr">shared @key("id") -- gateway joins User across subgraphs</text></g><g stroke-linecap="round" transform="translate(10 275) rotate(0 230 65)"><path d="M1.84 -0.29 L460.7 -0.12 L460.46 129.88 L-1.44 130.72" stroke="none" stroke-width="0" fill="#3a5d1d"></path><path d="M0.35 0.77 C162.63 -2.2, 324.75 -2.18, 459.55 -0.65 M-0.23 -0.37 C177.59 -1.23, 354.69 -1.3, 459.55 -0.41 M458.96 -0.67 C460.87 39.97, 462.58 79.63, 459.87 131.34 M460.97 -0.41 C460.95 41.92, 460.87 83.35, 459.1 129.5 M460.86 130.55 C328.57 130, 198 129.84, -0.2 129.4 M459.84 129.91 C302.25 130.08, 144.06 129.83, -0.09 130.07 M-0.18 129.26 C2.21 99.02, 2.01 64.41, -0.56 -1.03 M-0.13 129.94 C-0.83 94.25, 0.38 57.61, -0.26 -0.48" stroke="#6dbf3a" stroke-width="2" fill="none"></path></g><g transform="translate(24 285) rotate(0 98.60990142822266 9.375)"><text x="0" y="NaN" font-family="Virgil, Segoe UI Emoji" font-size="15px" fill="#3fb950" text-anchor="start" style="white-space: pre;" direction="ltr">What the numbers look like</text></g><g transform="translate(24 311) rotate(0 143.12884521484375 35)"><text x="0" y="NaN" font-family="Virgil, Segoe UI Emoji" font-size="14px" fill="#c9d1d9" text-anchor="start" style="white-space: pre;" direction="ltr">4 subgraphs -&gt; 1 supergraph</text><text x="0" y="NaN" font-family="Virgil, Segoe UI Emoji" font-size="14px" fill="#c9d1d9" text-anchor="start" style="white-space: pre;" direction="ltr">1 client query -&gt; 3 subgraph queries</text><text x="0" y="NaN" font-family="Virgil, Segoe UI Emoji" font-size="14px" fill="#c9d1d9" text-anchor="start" style="white-space: pre;" direction="ltr">Owned by 4 teams, deployed independently</text><text x="0" y="NaN" font-family="Virgil, Segoe UI Emoji" font-size="14px" fill="#c9d1d9" text-anchor="start" style="white-space: pre;" direction="ltr">Gateway adds ~5-15 ms per request</text></g><g transform="translate(10 701.25) rotate(0 396.32965087890625 12.5)"><text x="0" y="NaN" font-family="Virgil, Segoe UI Emoji" font-size="20px" fill="#8b949e" text-anchor="start" style="white-space: pre;" direction="ltr">Team-aligned ownership: each subgraph has its own owner, deploy pipeline, on-call.</text></g><g transform="translate(10 726.25) rotate(0 464.9796142578125 12.5)"><text x="0" y="NaN" font-family="Virgil, Segoe UI Emoji" font-size="20px" fill="#f85149" text-anchor="start" style="white-space: pre;" direction="ltr">Cost: gateway becomes a critical-path component -- its uptime caps the whole graph's uptime.</text></g></svg>