<svg version="1.1" xmlns="http://www.w3.org/2000/svg" viewBox="0 0 1380 855" width="1380" height="855">
  <!-- svg-source:excalidraw -->
  
  <defs>
    <style>
      @font-face {
        font-family: "Virgil";
        src: url("https://excalidraw.com/Virgil.woff2");
      }
      @font-face {
        font-family: "Cascadia";
        src: url("https://excalidraw.com/Cascadia.woff2");
      }
    </style>
  </defs>
  <rect x="0" y="0" width="1380" height="855" fill="#0d1117"></rect><g transform="translate(10 10) rotate(0 430.6498107910156 18.75)"><text x="0" y="NaN" font-family="Virgil, Segoe UI Emoji" font-size="30px" fill="#ff8c42" text-anchor="start" style="white-space: pre;" direction="ltr">N+1 vs DataLoader -- request-scoped batching and dedup</text></g><g transform="translate(10 53) rotate(0 467.8826904296875 11.25)"><text x="0" y="NaN" font-family="Virgil, Segoe UI Emoji" font-size="18px" fill="#c9d1d9" text-anchor="start" style="white-space: pre;" direction="ltr">Same 100 venue resolver calls. Naive: 100 DB queries. DataLoader: 1 batched query for 12 distinct IDs.</text></g><g stroke-opacity="0.5" fill-opacity="0.5" stroke-linecap="round" transform="translate(10 115) rotate(0 680 170)"><path d="M0.3 1.64 L1360.33 -1.22 L1358.09 339.03 L0.19 340.34" stroke="none" stroke-width="0" fill="#161b22"></path><path d="M-0.77 0.21 C542.01 -0.23, 1085.46 -0.35, 1359.46 0.8 M1358.86 1.19 C1359.34 71.44, 1359.26 143.4, 1360.23 339.56 M1360.54 340.51 C942.25 334.32, 524.6 334.62, 0.7 340.41 M0.53 339.45 C1.58 238.37, 1.31 137.88, -0.43 -0.77" stroke="#f85149" stroke-width="2.5" fill="none" stroke-dasharray="8 10"></path></g><g transform="translate(30 131) rotate(0 185.08592224121094 13.75)"><text x="0" y="NaN" font-family="Virgil, Segoe UI Emoji" font-size="22px" fill="#f85149" text-anchor="start" style="white-space: pre;" direction="ltr">Naive resolver -- N+1 catastrophe</text></g><g stroke-linecap="round" transform="translate(50 185) rotate(0 39 25)"><path d="M0.33 -0.03 L79.22 0.21 L78.91 51.24 L-1.34 49.53" stroke="none" stroke-width="0" fill="#0d2c5a"></path><path d="M-0.21 -1.58 C30.25 1.1, 57.81 2.24, 77.91 -1.96 M0.36 -0.69 C17.43 1.37, 34.67 1.59, 78.42 -0.49 M78.27 -0.13 C77.21 10.79, 78.07 21.55, 77.5 48.55 M78.19 -0.28 C78.89 14.6, 77.58 29.57, 78.15 50.09 M78.74 49.61 C48.62 50.18, 23.67 51.21, -1.95 49.45 M77.87 50.02 C57.37 50, 34.97 49.79, 0.76 49.72 M1.97 49.96 C1.95 35.75, 0.56 21, 0.7 0.09 M0.83 49.53 C-0.53 38.89, 0.28 26.27, 0.47 -0.03" stroke="#58a6ff" stroke-width="2" fill="none"></path></g><g transform="translate(65.96002197265625 202.5) rotate(0 23.03997802734375 7.5)"><text x="23.03997802734375" y="NaN" font-family="Virgil, Segoe UI Emoji" font-size="12px" fill="#ffffff" text-anchor="middle" style="white-space: pre;" direction="ltr">venue 0</text></g><g stroke-linecap="round" transform="translate(140 185) rotate(0 39 25)"><path d="M1.09 1.3 L79.64 -1.16 L79.8 49.17 L-0.39 49.59" stroke="none" stroke-width="0" fill="#0d2c5a"></path><path d="M-1.42 0.22 C17.75 -1.91, 38.13 -1.83, 77.32 -1 M-0.34 -0.26 C30.9 -0.41, 61.45 0.62, 78.6 -0.44 M77.97 1.75 C80.25 18.9, 76.87 36.08, 77.93 50.7 M78.89 -0.59 C77.97 18.39, 78.55 35.85, 77.35 50.13 M79.75 50.67 C51.01 50.27, 22.75 50.55, 1 48.9 M77.46 50.82 C54.31 50.47, 31.95 50.34, 0.07 49.14 M1.05 49.63 C1.07 34.78, 1.7 21.77, -1.64 1.64 M-0.39 50.21 C0 32.43, -0.62 12.14, 0.91 -0.89" stroke="#58a6ff" stroke-width="2" fill="none"></path></g><g transform="translate(154.33402252197266 202.5) rotate(0 24.665977478027344 7.5)"><text x="24.665977478027344" y="NaN" font-family="Virgil, Segoe UI Emoji" font-size="12px" fill="#ffffff" text-anchor="middle" style="white-space: pre;" direction="ltr">venue 10</text></g><g stroke-linecap="round" transform="translate(230 185) rotate(0 39 25)"><path d="M0.75 -1.02 L79.08 1.34 L79.17 49.02 L1.64 49.6" stroke="none" stroke-width="0" fill="#0d2c5a"></path><path d="M-1.78 1.91 C25.38 1.86, 54.87 -0.88, 76.91 -0.05 M-0.18 0.7 C16.05 0.63, 34.14 0.43, 78.66 0.22 M77.63 1.11 C77.36 11.62, 75.91 22.59, 79.67 51.87 M78.25 0.63 C77.37 14.94, 78.68 27.89, 78.25 50.74 M78.22 50.85 C53.23 49.21, 25.07 48.87, -0.42 48.1 M78.12 49.74 C47.99 49.5, 18.45 49.54, 0.13 50.41 M1.8 50.39 C1.11 33.21, -2.03 15.53, 0.96 -1.56 M0.59 49.43 C-0.24 37.35, 0.19 21.98, 0.97 0.8" stroke="#58a6ff" stroke-width="2" fill="none"></path></g><g transform="translate(241.68802642822266 202.5) rotate(0 27.311973571777344 7.5)"><text x="27.311973571777344" y="NaN" font-family="Virgil, Segoe UI Emoji" font-size="12px" fill="#ffffff" text-anchor="middle" style="white-space: pre;" direction="ltr">venue 20</text></g><g stroke-linecap="round" transform="translate(320 185) rotate(0 39 25)"><path d="M-1.24 -0.42 L76.64 -0.05 L77.65 48.1 L-0.53 48.61" stroke="none" stroke-width="0" fill="#0d2c5a"></path><path d="M-0.05 -0.75 C30.29 -1.07, 60.06 -0.08, 79.65 1.99 M-0.43 0.56 C29.48 -1.13, 58.51 0.2, 78.94 0.87 M79.78 -1.24 C78.84 18.64, 80.45 35.56, 77.73 48.23 M78.92 0.16 C77.72 17.41, 77.99 36.08, 77.99 49.07 M78.09 48 C47.03 51.5, 18.54 49.12, -0.54 49.54 M78.45 49.57 C60.64 50.48, 44.67 50.2, 0.86 49.84 M-1.56 51.51 C1.57 38.75, 0.44 27.31, -0.35 1.37 M-0.19 49.44 C0.9 37.54, 0.23 26.74, -0.48 -0.36" stroke="#58a6ff" stroke-width="2" fill="none"></path></g><g transform="translate(331.8740234375 202.5) rotate(0 27.1259765625 7.5)"><text x="27.1259765625" y="NaN" font-family="Virgil, Segoe UI Emoji" font-size="12px" fill="#ffffff" text-anchor="middle" style="white-space: pre;" direction="ltr">venue 30</text></g><g stroke-linecap="round" transform="translate(410 185) rotate(0 39 25)"><path d="M-0.63 -1.96 L79.15 1.51 L79 49.22 L-0.34 50.31" stroke="none" stroke-width="0" fill="#0d2c5a"></path><path d="M0.54 -0.99 C17.5 -2.15, 31.4 0.04, 77.16 -0.11 M-0.79 -0.34 C16.22 0.29, 34.46 0.17, 78.1 0.13 M79.39 -1.12 C76.43 10.24, 79.92 24.47, 78.87 51.31 M77.31 0.47 C77.74 18.62, 78.2 37.12, 77.32 49.79 M76.61 48.43 C50.4 49, 25.52 52.09, 1.41 49.77 M78.12 49.34 C48.24 50.64, 18.04 50.35, 0.32 50.37 M-0.41 49.05 C0.5 37.82, 1.3 24.86, -0.66 0.6 M-0.48 49.43 C0.82 38.27, 0.07 26.65, 0.76 -0.76" stroke="#58a6ff" stroke-width="2" fill="none"></path></g><g transform="translate(422.1200256347656 202.5) rotate(0 26.879974365234375 7.5)"><text x="26.879974365234375" y="NaN" font-family="Virgil, Segoe UI Emoji" font-size="12px" fill="#ffffff" text-anchor="middle" style="white-space: pre;" direction="ltr">venue 40</text></g><g stroke-linecap="round" transform="translate(500 185) rotate(0 39 25)"><path d="M0.53 0.07 L79.47 -1.75 L78.83 48.68 L0.2 48.57" stroke="none" stroke-width="0" fill="#0d2c5a"></path><path d="M1.73 1.24 C26.22 0.78, 53.66 0.48, 76.65 1.44 M0.02 -0.23 C20.1 0.99, 38.66 0.43, 78.21 -0.1 M79.04 -1.91 C77.45 13.82, 78.97 29.85, 78.28 48.99 M78.76 -0.75 C76.9 13.06, 77.06 25.84, 78.19 50.75 M79 50.9 C53.37 51.52, 28.78 50.17, -0.02 48.51 M77.76 49.1 C62.72 51.45, 45.75 49.68, -0.79 50.13 M0.97 49.96 C0.14 30.66, 0.33 9.07, -1.79 0.46 M-0.61 50.31 C0.09 40.04, 0.22 29.01, 0.98 0.08" stroke="#58a6ff" stroke-width="2" fill="none"></path></g><g transform="translate(512.2520294189453 202.5) rotate(0 26.747970581054688 7.5)"><text x="26.747970581054688" y="NaN" font-family="Virgil, Segoe UI Emoji" font-size="12px" fill="#ffffff" text-anchor="middle" style="white-space: pre;" direction="ltr">venue 50</text></g><g stroke-linecap="round" transform="translate(590 185) rotate(0 39 25)"><path d="M-1.56 -1.23 L76.58 -1.45 L78.3 48.56 L-1.88 51.87" stroke="none" stroke-width="0" fill="#0d2c5a"></path><path d="M1.46 -1.99 C24.42 1.37, 48.52 -0.93, 79.22 0.24 M-0.37 0.54 C20.3 0.81, 40.82 0.39, 78.91 -0.42 M76.8 -0.21 C79.94 15.68, 79.16 34.09, 78.74 51.63 M77.57 0.31 C78.12 14.19, 78.91 27.21, 77.81 49.16 M79.62 51.99 C60.06 49.32, 40.92 49.58, 1.27 50.03 M78.56 50.77 C53.63 51.07, 27.86 50.49, 0.64 49.93 M1.77 49.04 C1.08 31.65, -1.79 14.57, 0.07 1.84 M0.43 50.13 C0.24 38.15, 0.47 26.13, -0.94 0.52" stroke="#58a6ff" stroke-width="2" fill="none"></path></g><g transform="translate(602.1200256347656 202.5) rotate(0 26.879974365234375 7.5)"><text x="26.879974365234375" y="NaN" font-family="Virgil, Segoe UI Emoji" font-size="12px" fill="#ffffff" text-anchor="middle" style="white-space: pre;" direction="ltr">venue 60</text></g><g stroke-linecap="round" transform="translate(680 185) rotate(0 39 25)"><path d="M0.38 -0.71 L77.31 -1.67 L77.17 50.13 L1.51 48.06" stroke="none" stroke-width="0" fill="#0d2c5a"></path><path d="M-1.3 1.61 C22.65 -0.58, 42.77 -1.57, 79.33 1.13 M-0.95 0.4 C18.11 0.56, 34.21 -0.34, 77.98 0.07 M78.65 0.39 C78.56 14.54, 77.32 28.68, 77.36 51.57 M77.94 0.06 C77.69 10.61, 77.33 22.2, 78.63 49.4 M78.24 48.71 C57.74 51.07, 35.36 51.46, -0.22 51.16 M77.37 50.32 C47.35 50.06, 16.82 51.08, -0.7 49.88 M-1.31 49.33 C2.11 40.88, -0.31 28.23, -1.03 1.51 M-0.38 49.3 C-0.37 36.74, 0.13 23.85, -0.73 0.86" stroke="#58a6ff" stroke-width="2" fill="none"></path></g><g transform="translate(692.7320251464844 202.5) rotate(0 26.267974853515625 7.5)"><text x="26.267974853515625" y="NaN" font-family="Virgil, Segoe UI Emoji" font-size="12px" fill="#ffffff" text-anchor="middle" style="white-space: pre;" direction="ltr">venue 70</text></g><g stroke-linecap="round" transform="translate(770 185) rotate(0 39 25)"><path d="M-1.38 0.7 L78.79 -0.55 L78.08 48.38 L-0.14 51.62" stroke="none" stroke-width="0" fill="#0d2c5a"></path><path d="M-0.92 -1.15 C21.08 0.37, 40.17 -1.62, 76.8 -1.27 M-0.82 -0.86 C22.59 0.6, 43.25 0.69, 77.8 -0.34 M78.44 0.23 C77.78 14.41, 77.96 28.27, 76.84 49.13 M77.6 -0.72 C77.37 18.72, 77.26 35.26, 77.63 49.67 M78.58 50.24 C52.82 51.63, 29.25 48.47, 0.57 49.53 M78.47 50.02 C58.27 50.78, 39.62 50.53, -0.91 50.93 M-1.79 48.7 C-1.11 36.37, 1.24 21.51, -1.54 1.1 M-0.96 50.08 C0.63 33.77, -0.75 19.38, 0.75 -0.71" stroke="#58a6ff" stroke-width="2" fill="none"></path></g><g transform="translate(781.3700256347656 202.5) rotate(0 27.629974365234375 7.5)"><text x="27.629974365234375" y="NaN" font-family="Virgil, Segoe UI Emoji" font-size="12px" fill="#ffffff" text-anchor="middle" style="white-space: pre;" direction="ltr">venue 80</text></g><g stroke-linecap="round" transform="translate(860 185) rotate(0 39 25)"><path d="M0.34 -0.03 L77.25 -1.51 L78.9 51.79 L1.23 48.22" stroke="none" stroke-width="0" fill="#0d2c5a"></path><path d="M-1.55 1.24 C25.79 0.07, 50.36 0.6, 77.44 1.94 M0.99 0.27 C18.55 -1.14, 36.86 -1.42, 77.36 0.3 M79.64 1.48 C78.9 16.94, 77.99 30.72, 76.7 50.54 M77.68 0.97 C78.24 16.55, 78.59 30.78, 78.9 49.05 M78.23 51.05 C56.83 51.55, 38.67 51.07, -0.89 49.06 M78.84 49.76 C61.85 50.53, 43.25 50.37, 0.8 50.71 M-1.18 49.62 C0.7 29.54, 1.1 11.71, -0.91 -0.89 M0.99 49.19 C-0.36 32.41, -0.57 16.57, -0.32 0.57" stroke="#58a6ff" stroke-width="2" fill="none"></path></g><g transform="translate(872.306022644043 202.5) rotate(0 26.69397735595703 7.5)"><text x="26.69397735595703" y="NaN" font-family="Virgil, Segoe UI Emoji" font-size="12px" fill="#ffffff" text-anchor="middle" style="white-space: pre;" direction="ltr">venue 90</text></g><g transform="translate(52.19097476311589 272.88885633050336) rotate(0 178.82180786132812 8.75)"><text x="0" y="NaN" font-family="Virgil, Segoe UI Emoji" font-size="14px" fill="#8b949e" text-anchor="start" style="white-space: pre;" direction="ltr">...100 venue resolvers, each calling DB independently</text></g><g stroke-linecap="round" transform="translate(1070 345) rotate(0 110 40)"><path d="M-1.23 0.95 L218.42 -0.98 L218.11 79.51 L-0.17 79.2" stroke="none" stroke-width="0" fill="#3a1d6e"></path><path d="M1.15 1.28 C85.68 -2.04, 171.46 0.92, 219.11 1.29 M-0.33 -0.33 C76.01 0.63, 151.28 -0.44, 219.65 0.05 M219.89 -0.29 C218.84 25.57, 220.67 53.94, 220.57 78.84 M219.34 0.91 C220.26 19.52, 220.94 39.32, 219.62 79.94 M219.32 81.1 C143.98 80.66, 67.39 80.02, 0.32 79.72 M220.58 79.78 C166.36 80.46, 114.1 79.89, -0.56 80.6 M-0.03 78.37 C0.97 57.76, -1.72 32.72, 0.79 0.75 M0.7 79.11 C-0.51 62.7, -0.36 45.05, -0.18 1" stroke="#a371f7" stroke-width="2" fill="none"></path></g><g transform="translate(1123.795036315918 362.5) rotate(0 56.20496368408203 22.5)"><text x="56.20496368408203" y="NaN" font-family="Virgil, Segoe UI Emoji" font-size="18px" fill="#ffffff" text-anchor="middle" style="white-space: pre;" direction="ltr">Database</text><text x="56.20496368408203" y="NaN" font-family="Virgil, Segoe UI Emoji" font-size="18px" fill="#ffffff" text-anchor="middle" style="white-space: pre;" direction="ltr">venues table</text></g><g stroke-linecap="round"><g transform="translate(125.57464936773363 238.74548535356854) rotate(0 489.3874834531283 50.12725732321576)"><path d="M-0.02 -0.06 C163.09 16.39, 814.67 82.98, 977.68 99.76 M-1.5 -1.13 C162.06 15.99, 816.14 84.43, 979.82 101.04" stroke="#f85149" stroke-width="2" fill="none"></path></g><g transform="translate(125.57464936773363 238.74548535356854) rotate(0 489.3874834531283 50.12725732321576)"><path d="M950.63 106.53 C956.12 105.59, 963.88 104.59, 981.62 99.94 M950.89 108.13 C957.25 107.2, 963.74 104.44, 978.93 101.41" stroke="#f85149" stroke-width="2" fill="none"></path></g><g transform="translate(125.57464936773363 238.74548535356854) rotate(0 489.3874834531283 50.12725732321576)"><path d="M952.74 86.12 C957.96 89.58, 965.26 92.99, 981.62 99.94 M952.99 87.72 C958.81 91.65, 964.8 93.74, 978.93 101.41" stroke="#f85149" stroke-width="2" fill="none"></path></g></g><g stroke-linecap="round"><g transform="translate(215.03143168554993 239.02542493937636) rotate(0 447.33725841651074 49.98728753031182)"><path d="M0.36 -1.14 C149.46 15.32, 745.81 82.49, 894.7 99.18 M-0.92 0.87 C148.03 17.44, 744.27 83.81, 893.77 100.31" stroke="#f85149" stroke-width="2" fill="none"></path></g><g transform="translate(215.03143168554993 239.02542493937636) rotate(0 447.33725841651074 49.98728753031182)"><path d="M862.71 107.44 C872.15 103.53, 880.78 104.11, 892.8 100.73 M864.19 107.12 C873.81 105.67, 880.92 102.75, 893.53 99.36" stroke="#f85149" stroke-width="2" fill="none"></path></g><g transform="translate(215.03143168554993 239.02542493937636) rotate(0 447.33725841651074 49.98728753031182)"><path d="M864.98 87.05 C873.79 89.35, 881.74 96.13, 892.8 100.73 M866.45 86.73 C875.25 91.05, 881.71 93.91, 893.53 99.36" stroke="#f85149" stroke-width="2" fill="none"></path></g></g><g stroke-linecap="round"><g transform="translate(304.34698614283366 239.34292562249257) rotate(0 405.38604912649237 49.828537188753714)"><path d="M-0.07 1.14 C134.97 17.99, 674.8 83.47, 809.91 100.07 M-1.57 0.69 C133.88 17.26, 676.95 81.78, 812.17 98.17" stroke="#f85149" stroke-width="2" fill="none"></path></g><g transform="translate(304.34698614283366 239.34292562249257) rotate(0 405.38604912649237 49.828537188753714)"><path d="M784.85 103.56 C791.66 102.83, 800.78 101.8, 812.58 98.32 M782.59 104.13 C794 102.15, 805.74 100.51, 812.36 98.26" stroke="#f85149" stroke-width="2" fill="none"></path></g><g transform="translate(304.34698614283366 239.34292562249257) rotate(0 405.38604912649237 49.828537188753714)"><path d="M787.29 83.18 C793.26 88, 801.71 92.52, 812.58 98.32 M785.04 83.76 C795.34 89.42, 806.17 95.42, 812.36 98.26" stroke="#f85149" stroke-width="2" fill="none"></path></g></g><g stroke-linecap="round"><g transform="translate(393.4536192028376 239.70374836118242) rotate(0 363.5734801956545 49.64812581940879)"><path d="M-0.36 0.86 C120.62 17.29, 604.64 82.12, 726.08 98.39 M1.65 0.27 C122.97 16.84, 607.16 82.93, 728.23 99.45" stroke="#f85149" stroke-width="2" fill="none"></path></g><g transform="translate(393.4536192028376 239.70374836118242) rotate(0 363.5734801956545 49.64812581940879)"><path d="M700.35 104.03 C706.7 105.75, 716.19 103.21, 727.78 99.75 M698.47 106.4 C709.11 104.12, 721.68 100.87, 728.44 98.51" stroke="#f85149" stroke-width="2" fill="none"></path></g><g transform="translate(393.4536192028376 239.70374836118242) rotate(0 363.5734801956545 49.64812581940879)"><path d="M703.12 83.69 C708.57 91.85, 717.18 95.75, 727.78 99.75 M701.25 86.06 C711.02 91.48, 722.55 95.9, 728.44 98.51" stroke="#f85149" stroke-width="2" fill="none"></path></g></g><g stroke-linecap="round"><g transform="translate(482.24783505478433 240.10502258299715) rotate(0 321.95875857692107 49.447488708501425)"><path d="M0.79 0.88 C108.33 17.4, 537.81 83.18, 644.94 99.66 M-0.25 0.3 C107.25 16.43, 537.39 81.68, 644.53 97.94" stroke="#f85149" stroke-width="2" fill="none"></path></g><g transform="translate(482.24783505478433 240.10502258299715) rotate(0 321.95875857692107 49.447488708501425)"><path d="M616.59 105.56 C624.45 101.4, 632.7 101.91, 642.63 99.12 M615.87 102.88 C623.46 102.38, 632.82 100.09, 645.4 98.25" stroke="#f85149" stroke-width="2" fill="none"></path></g><g transform="translate(482.24783505478433 240.10502258299715) rotate(0 321.95875857692107 49.447488708501425)"><path d="M619.67 85.27 C626.78 86.72, 634.17 92.81, 642.63 99.12 M618.95 82.59 C625.68 88.32, 634.1 92.24, 645.4 98.25" stroke="#f85149" stroke-width="2" fill="none"></path></g></g><g stroke-linecap="round"><g transform="translate(570.5288662309634 240.52968616954422) rotate(0 280.6520677089654 49.23515691522792)"><path d="M-0.58 -0.58 C93.12 16.01, 467.93 83.08, 561.76 99.55 M1.32 1.72 C94.94 18.01, 467.57 81.71, 561.05 98" stroke="#f85149" stroke-width="2" fill="none"></path></g><g transform="translate(570.5288662309634 240.52968616954422) rotate(0 280.6520677089654 49.23515691522792)"><path d="M530.55 104.08 C541.08 103.9, 546.68 100.76, 561.89 98.6 M531.31 103.93 C542.32 101.69, 551.83 99.83, 562.01 97.33" stroke="#f85149" stroke-width="2" fill="none"></path></g><g transform="translate(570.5288662309634 240.52968616954422) rotate(0 280.6520677089654 49.23515691522792)"><path d="M534.04 83.85 C543.65 88.97, 548.33 91.14, 561.89 98.6 M534.8 83.71 C544.67 88.29, 552.99 93.28, 562.01 97.33" stroke="#f85149" stroke-width="2" fill="none"></path></g></g><g stroke-linecap="round"><g transform="translate(657.8799401646061 240.90258117376817) rotate(0 239.87493052230946 49.048709413115915)"><path d="M0.73 0.45 C80.74 16.74, 401.09 82.07, 480.74 98.31 M-0.35 -0.35 C79.54 15.5, 400.1 79.73, 480.31 96.29" stroke="#f85149" stroke-width="2" fill="none"></path></g><g transform="translate(657.8799401646061 240.90258117376817) rotate(0 239.87493052230946 49.048709413115915)"><path d="M451.39 102.39 C461.44 97.05, 471.17 95.53, 479.34 94.9 M450.15 99.94 C462.56 98.55, 473.44 96.68, 479.34 95.41" stroke="#f85149" stroke-width="2" fill="none"></path></g><g transform="translate(657.8799401646061 240.90258117376817) rotate(0 239.87493052230946 49.048709413115915)"><path d="M455.47 82.27 C464.18 84.07, 472.46 89.65, 479.34 94.9 M454.23 79.83 C465.14 86.21, 474.45 92.1, 479.34 95.41" stroke="#f85149" stroke-width="2" fill="none"></path></g></g><g stroke-linecap="round"><g transform="translate(749.7670443972864 240.66917294917218) rotate(0 197.6549232536126 49.16541352541394)"><path d="M0.09 0.02 C66.12 16.62, 330.11 82.71, 396.18 99.1 M-1.32 -1.02 C64.63 15.29, 329.41 80.59, 395.68 97.38" stroke="#f85149" stroke-width="2" fill="none"></path></g><g transform="translate(749.7670443972864 240.66917294917218) rotate(0 197.6549232536126 49.16541352541394)"><path d="M365.87 101.96 C376.06 101.48, 383.78 100.4, 395.47 97.05 M365.31 101.13 C374.93 99.2, 383.1 99.11, 394.94 97.72" stroke="#f85149" stroke-width="2" fill="none"></path></g><g transform="translate(749.7670443972864 240.66917294917218) rotate(0 197.6549232536126 49.16541352541394)"><path d="M370.84 82.05 C379.46 87.53, 385.69 92.39, 395.47 97.05 M370.28 81.22 C378.61 84.88, 385.4 90.38, 394.94 97.72" stroke="#f85149" stroke-width="2" fill="none"></path></g></g><g stroke-linecap="round"><g transform="translate(835.5551291290406 240.99955138680193) rotate(0 157.82967213592178 49.00022430659904)"><path d="M-0.42 -1.04 C51.8 15.04, 261.73 81, 314.48 97.59 M1.57 1.03 C54.03 17.79, 264.25 83.01, 316.57 98.91" stroke="#f85149" stroke-width="2" fill="none"></path></g><g transform="translate(835.5551291290406 240.99955138680193) rotate(0 157.82967213592178 49.00022430659904)"><path d="M284.87 98.45 C297.85 100.56, 311.29 99.95, 316.26 98.24 M285.93 99.57 C294.86 100.53, 301.78 98.69, 316.32 99.26" stroke="#f85149" stroke-width="2" fill="none"></path></g><g transform="translate(835.5551291290406 240.99955138680193) rotate(0 157.82967213592178 49.00022430659904)"><path d="M290.9 78.84 C301.65 88.75, 312.68 95.96, 316.26 98.24 M291.96 79.95 C299.22 86.02, 304.58 89.23, 316.32 99.26" stroke="#f85149" stroke-width="2" fill="none"></path></g></g><g stroke-linecap="round"><g transform="translate(919.8355903878635 241) rotate(0 118.88061328994115 49)"><path d="M0.98 0.93 C40.44 17.23, 197.13 82.55, 236.77 98.86 M0.04 0.38 C39.86 16.86, 199.19 81.11, 238.96 97.19" stroke="#f85149" stroke-width="2" fill="none"></path></g><g transform="translate(919.8355903878635 241) rotate(0 118.88061328994115 49)"><path d="M210.53 94.5 C219.5 98.02, 228.48 95.62, 237.85 99.01 M209.54 96.67 C220.74 96.86, 232.16 97.07, 238.37 97.58" stroke="#f85149" stroke-width="2" fill="none"></path></g><g transform="translate(919.8355903878635 241) rotate(0 118.88061328994115 49)"><path d="M218.22 75.47 C225.03 84.81, 231.68 88.17, 237.85 99.01 M217.23 77.64 C225.67 84.93, 234.23 92.22, 238.37 97.58" stroke="#f85149" stroke-width="2" fill="none"></path></g></g><g stroke-linecap="round" transform="translate(1034.3695024962205 143.52233126660394) rotate(0 100 55)"><path d="M1.53 1.34 L198.89 -0.35 L198.68 109.74 L-0.84 109.46" stroke="none" stroke-width="0" fill="#4a1219"></path><path d="M0.06 -0.28 C42.5 -0.76, 89.44 -1.04, 201.21 1.49 M0.44 0.68 C51.1 -0.05, 102.68 -0.17, 199.49 0.2 M199.07 1.63 C199.05 37.32, 199.89 68.92, 200.55 110.43 M200.18 -0.99 C200.18 28.3, 200.99 57.69, 200.85 110.55 M199.74 110.39 C157.84 107.67, 117.02 109.17, 1.6 108.88 M200.14 109.93 C124.42 108.3, 47.71 108.35, -0.45 109.38 M-1.7 110.99 C0.96 84.38, 2.1 58.1, -0.84 0.17 M0.3 110.64 C0.13 86.29, 0.31 62.05, 0.26 0.95" stroke="#f85149" stroke-width="3" fill="none"></path></g><g transform="translate(1083.2169911264132 153.0201152287276) rotate(0 37.848968505859375 8.75)"><text x="0" y="NaN" font-family="Virgil, Segoe UI Emoji" font-size="14px" fill="#8b949e" text-anchor="start" style="white-space: pre;" direction="ltr">DB queries</text></g><g transform="translate(1078.192082651005 176.8350759350081) rotate(0 38.97297668457031 13.75)"><text x="0" y="NaN" font-family="Virgil, Segoe UI Emoji" font-size="22px" fill="#c9d1d9" text-anchor="start" style="white-space: pre;" direction="ltr">1 + 100</text></g><g transform="translate(1073.3760334520812 203.08789479809025) rotate(0 42.24598693847656 22.5)"><text x="0" y="NaN" font-family="Virgil, Segoe UI Emoji" font-size="36px" fill="#f85149" text-anchor="start" style="white-space: pre;" direction="ltr">= 101</text></g><g stroke-opacity="0.5" fill-opacity="0.5" stroke-linecap="round" transform="translate(10 485) rotate(0 680 180)"><path d="M1.38 -1.84 L1360.73 -1.77 L1358.81 358.79 L0.17 358.59" stroke="none" stroke-width="0" fill="#161b22"></path><path d="M-0.65 -0.28 C359.41 1.55, 720.14 2.05, 1359.35 -0.12 M1359.83 0.59 C1359.56 135.86, 1360.89 269.93, 1358.83 360.83 M1360.55 360.76 C936.93 360.29, 512.89 360.97, 0.21 359.52 M1.24 360.81 C-1.08 282.28, -0.04 207.06, 0.94 0.14" stroke="#6dbf3a" stroke-width="2.5" fill="none" stroke-dasharray="8 10"></path></g><g transform="translate(30 501) rotate(0 391.3358154296875 13.75)"><text x="0" y="NaN" font-family="Virgil, Segoe UI Emoji" font-size="22px" fill="#3fb950" text-anchor="start" style="white-space: pre;" direction="ltr">With DataLoader -- batched within one tick + deduplicated per request</text></g><g stroke-linecap="round" transform="translate(50 555) rotate(0 39 25)"><path d="M0.95 -0.23 L78.82 -0.13 L78.51 50.33 L1.72 49.34" stroke="none" stroke-width="0" fill="#0d2c5a"></path><path d="M1.74 0.86 C28.51 0.44, 53.77 -1.96, 76.25 1.53 M-0.58 0.91 C26.63 0.48, 53.22 0.37, 77.27 0.17 M76.87 0.83 C76.04 17.7, 77.62 34.52, 78.36 50.75 M77.94 0.73 C78.64 13.95, 78.68 25.77, 77.89 49.82 M76.89 49.67 C57.49 50.47, 35.68 48.4, -1.48 48.43 M77.31 50.48 C48.77 49.75, 20.46 49.46, -0.19 50.96 M1.77 50.51 C-0.27 35.41, 1.53 21.52, 1.28 0.34 M-0.09 49.32 C0.65 37.21, 1.08 23.27, 0.55 -0.76" stroke="#58a6ff" stroke-width="2" fill="none"></path></g><g transform="translate(65.96002197265625 572.5) rotate(0 23.03997802734375 7.5)"><text x="23.03997802734375" y="NaN" font-family="Virgil, Segoe UI Emoji" font-size="12px" fill="#ffffff" text-anchor="middle" style="white-space: pre;" direction="ltr">venue 0</text></g><g stroke-linecap="round" transform="translate(140 555) rotate(0 39 25)"><path d="M1.47 1.26 L77.3 -1.56 L77.7 51.4 L-1.81 50.58" stroke="none" stroke-width="0" fill="#0d2c5a"></path><path d="M1.41 -0.11 C22.52 -0.84, 42.62 -1.18, 77.05 0.95 M0.64 -0.1 C23.6 -0.96, 47.54 -0.94, 77.02 0.8 M78.44 -1.95 C76.3 9.17, 76.33 20.23, 79.99 48.79 M78.92 -0.2 C78.68 14.12, 77.9 27.12, 78.37 50.31 M76.06 50.47 C60.95 50.35, 43.62 52.19, 0.55 50.61 M77.75 50.61 C60.16 51.14, 42.08 51.23, 0.08 50.91 M1.94 51.58 C1.36 30.78, -0.8 12.33, 1.33 0.45 M0.19 49.58 C-0.25 37.14, 0.16 25.51, -0.49 0.29" stroke="#58a6ff" stroke-width="2" fill="none"></path></g><g transform="translate(154.33402252197266 572.5) rotate(0 24.665977478027344 7.5)"><text x="24.665977478027344" y="NaN" font-family="Virgil, Segoe UI Emoji" font-size="12px" fill="#ffffff" text-anchor="middle" style="white-space: pre;" direction="ltr">venue 10</text></g><g stroke-linecap="round" transform="translate(230 555) rotate(0 39 25)"><path d="M-1.16 0.47 L78.8 -0.55 L79.78 51.03 L-1.64 48.85" stroke="none" stroke-width="0" fill="#0d2c5a"></path><path d="M-0.7 0.09 C19.38 1.59, 36.88 -1.04, 79.95 -1.8 M-0.32 -0.43 C19.63 -0.04, 38.64 -0.28, 77.46 -0.52 M78.04 -1.04 C77.64 15.52, 79.46 35.56, 79.01 50.37 M78.46 -0.88 C78.31 12.02, 77.42 23.93, 78.77 50.13 M78.58 51.47 C53.27 51.17, 32.6 49.42, 1.71 49.9 M77 50.92 C56.63 48.86, 34.28 49.22, -0.57 50.75 M0.29 50.06 C0.95 31.6, -0.72 16.26, 1.26 1.45 M-0.71 49.79 C1.25 34.83, -0.33 21.54, 0.35 -0.27" stroke="#58a6ff" stroke-width="2" fill="none"></path></g><g transform="translate(241.68802642822266 572.5) rotate(0 27.311973571777344 7.5)"><text x="27.311973571777344" y="NaN" font-family="Virgil, Segoe UI Emoji" font-size="12px" fill="#ffffff" text-anchor="middle" style="white-space: pre;" direction="ltr">venue 20</text></g><g stroke-linecap="round" transform="translate(320 555) rotate(0 39 25)"><path d="M-0.94 1.45 L78.95 0.33 L77.34 50.99 L-1.01 50.48" stroke="none" stroke-width="0" fill="#0d2c5a"></path><path d="M-0.21 0.04 C20.81 -0.5, 42.55 0.48, 79.97 -1.08 M0.33 0.27 C23.67 -0.07, 45.59 -0.68, 78.84 0.8 M76.05 -1.84 C77.34 13.39, 78.84 21.61, 77.1 50.13 M77.88 -0.64 C77.44 10.18, 78.03 20.29, 77.47 49.2 M79.42 50.82 C45.73 48.92, 15.53 48.22, -0.98 48.8 M78.75 50.57 C59.09 49.87, 38.99 48.86, -0.3 49.57 M-1.77 50.23 C1.47 33.53, 1.49 11.73, -0.8 -1.74 M0.04 50.44 C-0.55 35.55, -0.72 20.76, -0.56 -0.47" stroke="#58a6ff" stroke-width="2" fill="none"></path></g><g transform="translate(331.8740234375 572.5) rotate(0 27.1259765625 7.5)"><text x="27.1259765625" y="NaN" font-family="Virgil, Segoe UI Emoji" font-size="12px" fill="#ffffff" text-anchor="middle" style="white-space: pre;" direction="ltr">venue 30</text></g><g stroke-linecap="round" transform="translate(410 555) rotate(0 39 25)"><path d="M0.89 1.19 L77.66 -0.01 L76.12 49.33 L-1.23 51.93" stroke="none" stroke-width="0" fill="#0d2c5a"></path><path d="M-1.77 -0.82 C26.83 1, 51.69 2.45, 76.74 -1.1 M-0.39 -0.89 C17.65 -0.65, 37.13 0.34, 78.25 -0.75 M79.78 1.39 C76.53 17.82, 76.05 36.52, 77.42 49.91 M78.55 0.51 C78.68 14.52, 78.58 27.48, 77.55 50.98 M79.81 49.08 C55.86 50.46, 36.63 49.74, -0.6 50.42 M78.42 50.61 C58.84 50.67, 40.62 51.27, -0.52 49.7 M-0.14 49.59 C-0.23 37.68, -1.54 21.44, 0.51 -1.65 M-0.82 49.54 C1.11 32.24, -0.44 14.42, -0.14 -0.23" stroke="#58a6ff" stroke-width="2" fill="none"></path></g><g transform="translate(422.1200256347656 572.5) rotate(0 26.879974365234375 7.5)"><text x="26.879974365234375" y="NaN" font-family="Virgil, Segoe UI Emoji" font-size="12px" fill="#ffffff" text-anchor="middle" style="white-space: pre;" direction="ltr">venue 40</text></g><g stroke-linecap="round" transform="translate(500 555) rotate(0 39 25)"><path d="M-1.83 1.78 L78.32 -0.63 L79.22 51.88 L-1.78 49.23" stroke="none" stroke-width="0" fill="#0d2c5a"></path><path d="M-0.17 -1.65 C26.93 0.72, 54.73 1.2, 78.01 -1.33 M-0.81 0.95 C16.78 -1.7, 35.56 -1.19, 77.83 0.18 M77.74 1.97 C78.04 15.06, 76.84 27.57, 77.58 49.39 M78.65 -0.33 C76.81 10.39, 78.54 19.56, 77.67 50.59 M77.8 49.19 C52.85 50.42, 23.52 48.65, 1.64 49.33 M77.01 49.9 C61.03 50.73, 46.94 49.75, 0.5 50.14 M0.02 48.13 C-0.4 33.04, -1.44 16.94, 0.28 -0.24 M0.06 49.98 C0.13 32.28, 0.74 14.73, 0.96 0.7" stroke="#58a6ff" stroke-width="2" fill="none"></path></g><g transform="translate(512.2520294189453 572.5) rotate(0 26.747970581054688 7.5)"><text x="26.747970581054688" y="NaN" font-family="Virgil, Segoe UI Emoji" font-size="12px" fill="#ffffff" text-anchor="middle" style="white-space: pre;" direction="ltr">venue 50</text></g><g stroke-linecap="round" transform="translate(590 555) rotate(0 39 25)"><path d="M-1.35 1.84 L77.81 1.55 L77.24 48.45 L-0.79 50.4" stroke="none" stroke-width="0" fill="#0d2c5a"></path><path d="M0.41 -0.62 C24.31 1.9, 47.65 -0.08, 76.39 1.09 M0.69 -0.7 C23.58 0.42, 45.08 0.34, 77.36 0.79 M77.73 1.69 C76.28 15.18, 76.49 28.61, 77.86 50.61 M77.44 0.78 C77.55 14.07, 77.98 27, 77.2 50.44 M77.63 51.65 C48.83 50.81, 17.71 51.61, 0.56 51.62 M78.95 49.08 C57.57 48.35, 36.94 49.15, 0.07 49.07 M-0.59 51.87 C0.54 35.45, 1.26 18.46, -1.56 -0.28 M-0.13 50.31 C-0.39 32.08, 0.38 13.3, 0.64 0.65" stroke="#58a6ff" stroke-width="2" fill="none"></path></g><g transform="translate(602.1200256347656 572.5) rotate(0 26.879974365234375 7.5)"><text x="26.879974365234375" y="NaN" font-family="Virgil, Segoe UI Emoji" font-size="12px" fill="#ffffff" text-anchor="middle" style="white-space: pre;" direction="ltr">venue 60</text></g><g stroke-linecap="round" transform="translate(680 555) rotate(0 39 25)"><path d="M-0.11 -0.63 L78.71 -1.7 L78.17 50.68 L0.52 48.79" stroke="none" stroke-width="0" fill="#0d2c5a"></path><path d="M-0.24 0.11 C22.63 -1.16, 39.99 0.32, 77.91 1.46 M0.69 0.45 C21.24 -1.02, 43.19 -0.08, 78.38 -0.88 M76.53 -1.67 C78.21 13.69, 77.66 27.31, 77.82 48.86 M77.63 -0.95 C78.76 12.31, 79.19 24.14, 77.77 50.38 M78.13 51.33 C52.11 49.88, 23.09 51.83, 1.66 51.37 M78.11 50.58 C50.92 50.89, 23.14 49.66, -0.41 50.46 M1.26 51.19 C1.01 33.4, 0.12 14.92, 0.57 -1.24 M0.27 50.11 C-0.14 38.51, -0.11 28.77, 0.88 -0.77" stroke="#58a6ff" stroke-width="2" fill="none"></path></g><g transform="translate(692.7320251464844 572.5) rotate(0 26.267974853515625 7.5)"><text x="26.267974853515625" y="NaN" font-family="Virgil, Segoe UI Emoji" font-size="12px" fill="#ffffff" text-anchor="middle" style="white-space: pre;" direction="ltr">venue 70</text></g><g stroke-linecap="round" transform="translate(770 555) rotate(0 39 25)"><path d="M-1.85 0.45 L79.74 1.15 L78.57 50.6 L1.66 49.5" stroke="none" stroke-width="0" fill="#0d2c5a"></path><path d="M-0.04 1.3 C30.75 2.24, 57.78 0.95, 76.05 0.29 M-0.88 0.99 C18.51 1.21, 36.07 0.7, 78.53 -0.82 M79.39 1.98 C78.14 18.02, 77.75 33.56, 78.65 49.15 M77.25 -0.02 C78.7 12.17, 78.76 25.45, 78.82 50.63 M77.85 48.56 C51.36 50.54, 27.33 51.78, 0.08 51.47 M77.7 49.55 C54.17 50.53, 31.57 50.44, -0.07 50.69 M0.57 49.64 C0.48 31.84, 1.43 12.56, -0.23 1.77 M-0.41 49.13 C0.64 39.16, -0.54 26.97, -0.43 -0.84" stroke="#58a6ff" stroke-width="2" fill="none"></path></g><g transform="translate(781.3700256347656 572.5) rotate(0 27.629974365234375 7.5)"><text x="27.629974365234375" y="NaN" font-family="Virgil, Segoe UI Emoji" font-size="12px" fill="#ffffff" text-anchor="middle" style="white-space: pre;" direction="ltr">venue 80</text></g><g stroke-linecap="round" transform="translate(860 555) rotate(0 39 25)"><path d="M1.4 1.34 L77.84 0.39 L78.63 50.98 L-0.22 49.07" stroke="none" stroke-width="0" fill="#0d2c5a"></path><path d="M0.87 0.67 C29.73 1.65, 58.58 0.84, 76.34 -0.53 M0.99 -0.82 C21.8 0.45, 42.97 -1.07, 78.2 -0.25 M77.49 0.28 C79.24 18.67, 79.85 40.53, 76.9 48.8 M78.12 0.84 C77.5 13.45, 78.64 29.13, 78.07 49.06 M76.42 51.14 C59.54 50.18, 39.84 47.65, -0.72 50.79 M77.61 50.93 C58.54 49.43, 39.68 49.31, 0.46 49.51 M1.12 49.42 C0.48 31.48, -1.55 15.92, -0.99 -0.27 M0.15 49.16 C0.1 35.03, -1.27 21.2, -0.45 0.7" stroke="#58a6ff" stroke-width="2" fill="none"></path></g><g transform="translate(872.306022644043 572.5) rotate(0 26.69397735595703 7.5)"><text x="26.69397735595703" y="NaN" font-family="Virgil, Segoe UI Emoji" font-size="12px" fill="#ffffff" text-anchor="middle" style="white-space: pre;" direction="ltr">venue 90</text></g><g transform="translate(50 615) rotate(0 191.69482421875 8.75)"><text x="0" y="NaN" font-family="Virgil, Segoe UI Emoji" font-size="14px" fill="#8b949e" text-anchor="start" style="white-space: pre;" direction="ltr">...same 100 resolvers -- each calls loader.load(venueId)</text></g><g stroke-linecap="round" transform="translate(50 660) rotate(0 450 15)"><path d="M1.36 -0.48 L901.7 1.02 L899.61 28.59 L-0.01 29.79" stroke="none" stroke-width="0" fill="#5c3a10"></path><path d="M0.75 0.09 C334.45 -1.12, 668.04 -0.17, 900.77 -0.74 M-0.07 -0.18 C232.49 0.45, 465.22 0.85, 899.77 0.22 M898.76 0.54 C898.59 10.91, 901.72 19.14, 899.95 28.62 M900.59 -0.88 C900.7 9.46, 900.11 20.93, 899.3 30.18 M900.29 29.4 C580.6 33.51, 261.83 33.71, 0.44 30.12 M899.65 30.28 C658.04 32.57, 416.26 32.84, 0.08 30.04 M1.81 31.7 C0.51 23.08, -0.29 15.62, 1.59 -1.57 M-0.91 30.87 C0.1 19.48, 0.67 8.06, -0.02 0.68" stroke="#f0883e" stroke-width="2" fill="none"></path></g><g transform="translate(330 664) rotate(0 201.08790588378906 10)"><text x="0" y="NaN" font-family="Virgil, Segoe UI Emoji" font-size="16px" fill="#ffffff" text-anchor="start" style="white-space: pre;" direction="ltr">DataLoader queue (collects IDs in the same tick)</text></g><g stroke-linecap="round"><g transform="translate(89.00695523004208 611) rotate(0 -0.003027092349284999 21.5)"><path d="M-0.03 0.58 C-0.07 7.47, -0.1 34.65, 0 41.8 M-1.5 -0.17 C-1.72 6.79, -1.21 35.78, -0.94 42.71" stroke="#c9d1d9" stroke-width="2" fill="none"></path></g><g transform="translate(89.00695523004208 611) rotate(0 -0.003027092349284999 21.5)"><path d="M-7.85 22.72 C-8.21 30.1, -2.86 37.33, -1.85 44.6 M-7.89 21.9 C-5.97 29.3, -4.74 35.6, -1.23 43.18" stroke="#c9d1d9" stroke-width="2" fill="none"></path></g><g transform="translate(89.00695523004208 611) rotate(0 -0.003027092349284999 21.5)"><path d="M6.85 22.34 C1.78 29.84, 2.41 37.19, -1.85 44.6 M6.81 21.52 C4.14 29.08, 0.76 35.51, -1.23 43.18" stroke="#c9d1d9" stroke-width="2" fill="none"></path></g></g><g stroke-linecap="round"><g transform="translate(179.00696836997176 611) rotate(0 -0.0029800076012094223 21.5)"><path d="M0.81 -0.37 C0.58 6.51, 0 34.98, -0.23 42.06 M-0.22 -1.61 C-0.74 5.33, -1.07 35.67, -1.29 43.11" stroke="#c9d1d9" stroke-width="2" fill="none"></path></g><g transform="translate(179.00696836997176 611) rotate(0 -0.0029800076012094223 21.5)"><path d="M-8.86 22.39 C-6.9 29.97, -4 37.45, -0.23 44.79 M-8.08 22.87 C-6.73 29.01, -4.67 34.72, -1.71 43.51" stroke="#c9d1d9" stroke-width="2" fill="none"></path></g><g transform="translate(179.00696836997176 611) rotate(0 -0.0029800076012094223 21.5)"><path d="M5.84 22.69 C1.92 30.24, -1.05 37.61, -0.23 44.79 M6.63 23.16 C4.01 29.09, 2.11 34.73, -1.71 43.51" stroke="#c9d1d9" stroke-width="2" fill="none"></path></g></g><g stroke-linecap="round"><g transform="translate(269.00698024442227 611) rotate(0 -0.002937457486865469 21.5)"><path d="M-0.93 -0.83 C-0.73 6.08, -0.07 34.64, 0.08 41.97 M0.78 1.35 C0.93 8.33, -0.56 35.77, -0.82 42.96" stroke="#c9d1d9" stroke-width="2" fill="none"></path></g><g transform="translate(269.00698024442227 611) rotate(0 -0.002937457486865469 21.5)"><path d="M-8.64 22.59 C-7.55 26.79, -4.28 30.92, -0.03 44 M-8 22.28 C-4.55 29.48, -3.11 37.66, -1.3 43.02" stroke="#c9d1d9" stroke-width="2" fill="none"></path></g><g transform="translate(269.00698024442227 611) rotate(0 -0.002937457486865469 21.5)"><path d="M6.05 23.25 C4.07 27.19, 4.29 31.19, -0.03 44 M6.69 22.94 C5.04 29.96, 1.38 37.91, -1.3 43.02" stroke="#c9d1d9" stroke-width="2" fill="none"></path></g></g><g stroke-linecap="round"><g transform="translate(341.89310576973827 611) rotate(0 6.201970335910971 21.5)"><path d="M0.4 -0.06 C2.44 7.04, 11.11 35.36, 13.14 42.41 M-0.84 -1.14 C1.01 6.14, 10.45 36.26, 12.57 43.64" stroke="#c9d1d9" stroke-width="2" fill="none"></path></g><g transform="translate(341.89310576973827 611) rotate(0 6.201970335910971 21.5)"><path d="M-0.93 26.94 C3.23 32.7, 7.97 40.53, 10.71 42.09 M0 26.48 C2.04 28.31, 4.7 33.32, 12.54 42.68" stroke="#c9d1d9" stroke-width="2" fill="none"></path></g><g transform="translate(341.89310576973827 611) rotate(0 6.201970335910971 21.5)"><path d="M13.73 22.52 C12.33 30, 11.54 39.51, 10.71 42.09 M14.65 22.07 C13.75 24.83, 13.45 30.73, 12.54 42.68" stroke="#c9d1d9" stroke-width="2" fill="none"></path></g></g><g stroke-linecap="round"><g transform="translate(439.9244095425317 611) rotate(0 3.1315802316075576 21.5)"><path d="M0.93 1.11 C1.8 8.28, 5.36 35.25, 6.12 42.23 M-0.04 0.65 C0.58 8.02, 3.77 36.09, 5.09 43.36" stroke="#c9d1d9" stroke-width="2" fill="none"></path></g><g transform="translate(439.9244095425317 611) rotate(0 3.1315802316075576 21.5)"><path d="M-3.29 23.96 C-2.72 29.94, 2.37 38.44, 6.24 41.41 M-4.15 24.23 C-3.61 28.66, -1.3 32.11, 5.65 43.44" stroke="#c9d1d9" stroke-width="2" fill="none"></path></g><g transform="translate(439.9244095425317 611) rotate(0 3.1315802316075576 21.5)"><path d="M11.42 21.86 C6.47 28.74, 6.06 38.03, 6.24 41.41 M10.56 22.13 C7.91 27.15, 7.04 31.06, 5.65 43.44" stroke="#c9d1d9" stroke-width="2" fill="none"></path></g></g><g stroke-linecap="round"><g transform="translate(546.3721361943356 611) rotate(0 -2.5283817561082174 21.499999999999943)"><path d="M-0.24 -0.22 C-1.02 6.96, -4.18 36.7, -5.15 44.04 M-1.83 -1.38 C-2.72 5.41, -5.84 35.25, -6.15 42.46" stroke="#c9d1d9" stroke-width="2" fill="none"></path></g><g transform="translate(546.3721361943356 611) rotate(0 -2.5283817561082174 21.499999999999943)"><path d="M-12.28 21.45 C-8.53 25.34, -7.44 33.17, -6.59 42.83 M-12.65 20.63 C-10.12 29.51, -6.92 35.34, -6 42.35" stroke="#c9d1d9" stroke-width="2" fill="none"></path></g><g transform="translate(546.3721361943356 611) rotate(0 -2.5283817561082174 21.499999999999943)"><path d="M2.48 22.61 C2.41 26.18, -0.3 33.7, -6.59 42.83 M2.11 21.79 C-0.43 30.34, -2.28 35.77, -6 42.35" stroke="#c9d1d9" stroke-width="2" fill="none"></path></g></g><g stroke-linecap="round"><g transform="translate(645.3346438361824 611) rotate(0 -5.883032985458215 21.5)"><path d="M0.38 0.26 C-1.44 7.57, -8.61 36.4, -10.8 43.51 M-0.88 -0.64 C-2.78 6.33, -9.65 34.18, -11.23 41.65" stroke="#c9d1d9" stroke-width="2" fill="none"></path></g><g transform="translate(645.3346438361824 611) rotate(0 -5.883032985458215 21.5)"><path d="M-13.49 21.15 C-12.31 24.75, -12.42 33.01, -13.14 39.99 M-13.98 18.8 C-12.95 24.8, -11.77 30.52, -11.38 41.75" stroke="#c9d1d9" stroke-width="2" fill="none"></path></g><g transform="translate(645.3346438361824 611) rotate(0 -5.883032985458215 21.5)"><path d="M1.36 24.59 C-2.06 27.17, -6.79 34.36, -13.14 39.99 M0.87 22.24 C-2.03 27.37, -4.78 32.19, -11.38 41.75" stroke="#c9d1d9" stroke-width="2" fill="none"></path></g></g><g stroke-linecap="round"><g transform="translate(739.7730387100465 611.0000000000001) rotate(0 -7.877183021391318 21.499999999999943)"><path d="M-1.12 0.21 C-3.57 7.27, -12.42 35.17, -14.69 42.38 M0.49 -0.73 C-2.02 6.48, -12.5 36.58, -15.08 43.59" stroke="#c9d1d9" stroke-width="2" fill="none"></path></g><g transform="translate(739.7730387100465 611.0000000000001) rotate(0 -7.877183021391318 21.499999999999943)"><path d="M-14.89 22.48 C-16.21 29.24, -14.35 34.53, -14.75 42.63 M-15.43 21.11 C-14.76 27.5, -14.48 35.81, -16 42.94" stroke="#c9d1d9" stroke-width="2" fill="none"></path></g><g transform="translate(739.7730387100465 611.0000000000001) rotate(0 -7.877183021391318 21.499999999999943)"><path d="M-0.13 27.73 C-5.88 32.78, -8.43 36.5, -14.75 42.63 M-0.68 26.36 C-4.85 31.16, -9.46 37.72, -16 42.94" stroke="#c9d1d9" stroke-width="2" fill="none"></path></g></g><g stroke-linecap="round"><g transform="translate(809.0069700223097 611) rotate(0 -0.002974086723668279 21.5)"><path d="M1.14 -0.22 C0.98 6.82, -1.01 35.87, -1.1 42.9 M0.28 -1.38 C0.49 5.8, 1.06 37.03, 1.04 44.39" stroke="#c9d1d9" stroke-width="2" fill="none"></path></g><g transform="translate(809.0069700223097 611) rotate(0 -0.002974086723668279 21.5)"><path d="M-6.88 22.44 C-4.38 31.06, -3.74 35.59, -0.38 46.14 M-6.13 24.2 C-4.43 30.41, -3.2 35.8, 0.05 44.09" stroke="#c9d1d9" stroke-width="2" fill="none"></path></g><g transform="translate(809.0069700223097 611) rotate(0 -0.002974086723668279 21.5)"><path d="M7.82 22.29 C6.07 31.09, 2.46 35.67, -0.38 46.14 M8.58 24.05 C5.96 30.42, 2.89 35.85, 0.05 44.09" stroke="#c9d1d9" stroke-width="2" fill="none"></path></g></g><g stroke-linecap="round"><g transform="translate(899.0069570624208 611) rotate(0 -0.0030205263251446013 21.5)"><path d="M-0.52 1.1 C-0.4 8.32, -0.57 36.28, -0.29 43.35 M1.41 0.64 C1.44 7.48, -1.33 34.61, -1.39 41.41" stroke="#c9d1d9" stroke-width="2" fill="none"></path></g><g transform="translate(899.0069570624208 611) rotate(0 -0.0030205263251446013 21.5)"><path d="M-5.67 20.32 C-5.62 27.18, -4.08 31.09, -1.57 39.64 M-6.97 21.49 C-6.3 27.06, -2.8 34.48, -1.17 42.19" stroke="#c9d1d9" stroke-width="2" fill="none"></path></g><g transform="translate(899.0069570624208 611) rotate(0 -0.0030205263251446013 21.5)"><path d="M9.01 21.21 C5.94 27.82, 4.36 31.54, -1.57 39.64 M7.71 22.38 C3.32 27.56, 1.75 34.67, -1.17 42.19" stroke="#c9d1d9" stroke-width="2" fill="none"></path></g></g><g stroke-linecap="round" transform="translate(300 740) rotate(0 200 30)"><path d="M-0.47 1.14 L401 -0.3 L399.87 60.51 L-0.49 61.45" stroke="none" stroke-width="0" fill="#3a5d1d"></path><path d="M-0.62 0.68 C88.36 -2.42, 176.3 -1.18, 399.87 -0.28 M-0.37 -0.04 C127.93 -1.57, 256.56 -1.13, 399.47 0.4 M398.28 -1.17 C402.18 17.8, 400.82 36.69, 401.4 60.45 M399.49 0.74 C400.29 21.24, 398.74 42.46, 400.29 60.22 M400.72 59.1 C307.78 60.66, 212.73 60.83, 0.31 60.42 M400.47 60.35 C280.89 61.58, 161.62 60.64, 0.23 60.53 M-1.7 61.51 C-1.61 42.73, 0.16 20.69, 0.77 0.69 M-0.27 59.6 C0.42 46.12, -0.21 32.86, -0.86 -0.17" stroke="#6dbf3a" stroke-width="2" fill="none"></path></g><g transform="translate(324.78515625 760.625) rotate(0 175.21484375 9.375)"><text x="175.21484375" y="NaN" font-family="Virgil, Segoe UI Emoji" font-size="15px" fill="#ffffff" text-anchor="middle" style="white-space: pre;" direction="ltr">SELECT * FROM venues WHERE id IN (12 IDs)</text></g><g stroke-linecap="round"><g transform="translate(500.06092588888714 696) rotate(0 -0.02630890656490692 19)"><path d="M-0.68 1.14 C-0.37 7.44, 0.79 32.13, 1.06 38.32 M1.16 0.69 C1.48 6.57, 0.78 29.86, 0.7 36.36" stroke="#3fb950" stroke-width="3" fill="none"></path></g><g transform="translate(500.06092588888714 696) rotate(0 -0.02630890656490692 19)"><path d="M-3.63 20.14 C-3.43 24.15, -2.11 26.06, 0.63 34.83 M-6.02 19.14 C-3.43 22.25, -3.28 26.57, -0.08 36.34" stroke="#3fb950" stroke-width="3" fill="none"></path></g><g transform="translate(500.06092588888714 696) rotate(0 -0.02630890656490692 19)"><path d="M9.36 20.41 C6.55 24.28, 4.86 26.13, 0.63 34.83 M6.98 19.4 C6.68 22.38, 3.95 26.64, -0.08 36.34" stroke="#3fb950" stroke-width="3" fill="none"></path></g></g><g stroke-linecap="round" transform="translate(790.8124812599992 729.4809098362202) rotate(0 110 40)"><path d="M-0.45 -0.03 L220.96 -0.59 L218.61 79.38 L0.33 79.6" stroke="none" stroke-width="0" fill="#3a1d6e"></path><path d="M1.46 -0.33 C76.42 0.4, 151.35 -1.04, 221.19 0.91 M0.61 0.81 C78.94 2.4, 158.88 1.15, 220.54 0.51 M220.58 1.99 C218.09 30.49, 217.67 59.67, 220.44 79.2 M219.77 -0.46 C219.15 32.39, 219.1 62.73, 220.67 80.68 M218.62 80.45 C148.25 78.8, 77.55 78.96, 0.24 79.4 M219.74 79.44 C140.42 81.06, 60.61 82.1, 0.45 79.77 M-0.56 80.75 C-0.83 65.12, 1.11 47.03, -0.83 -0.74 M-0.45 79.06 C0.41 57.05, 0.74 33.83, -0.52 0.55" stroke="#a371f7" stroke-width="2" fill="none"></path></g><g transform="translate(844.6075175759172 746.9809098362202) rotate(0 56.20496368408203 22.5)"><text x="56.20496368408203" y="NaN" font-family="Virgil, Segoe UI Emoji" font-size="18px" fill="#ffffff" text-anchor="middle" style="white-space: pre;" direction="ltr">Database</text><text x="56.20496368408203" y="NaN" font-family="Virgil, Segoe UI Emoji" font-size="18px" fill="#ffffff" text-anchor="middle" style="white-space: pre;" direction="ltr">venues table</text></g><g stroke-linecap="round"><g transform="translate(705.9999999999999 771.1604056589913) rotate(0 39.406240629999616 -0.9211040884349586)"><path d="M-0.98 0.58 C12.18 0.47, 64.63 -1.07, 77.92 -1.46 M0.71 -0.17 C14.34 -0.58, 67.29 -3.34, 80.16 -3.38" stroke="#3fb950" stroke-width="3" fill="none"></path></g><g transform="translate(705.9999999999999 771.1604056589913) rotate(0 39.406240629999616 -0.9211040884349586)"><path d="M53.27 6.27 C58.91 5.54, 64.3 1.54, 81.42 -2.28 M53.2 7.7 C62.21 2.68, 73.5 -0.9, 80.03 -3.62" stroke="#3fb950" stroke-width="3" fill="none"></path></g><g transform="translate(705.9999999999999 771.1604056589913) rotate(0 39.406240629999616 -0.9211040884349586)"><path d="M52.63 -14.24 C58.27 -10.63, 63.79 -10.29, 81.42 -2.28 M52.56 -12.81 C61.93 -9.84, 73.48 -5.43, 80.03 -3.62" stroke="#3fb950" stroke-width="3" fill="none"></path></g></g><g stroke-linecap="round" transform="translate(1065.8826815657098 702.400736966919) rotate(0 100 55)"><path d="M-1.46 1.91 L201.74 -0.47 L201.76 108.8 L0.67 109.9" stroke="none" stroke-width="0" fill="#3a5d1d"></path><path d="M-1.21 0.12 C60.05 2.46, 118.11 1.86, 199.78 -0.93 M0.45 -0.71 C77.08 0.98, 153.42 1.29, 199.16 -0.69 M198.16 -1.22 C198.79 36.73, 199.69 71.97, 200.16 110.73 M199.61 -0.16 C200.15 33.9, 198.44 68.02, 199.16 110.8 M198.94 111.28 C128.98 107.43, 56.67 109.31, -0.88 110.95 M200.47 109.29 C158.38 109.38, 115.2 109.88, 0.09 109.24 M-1.95 111.41 C0.69 79.59, 0.07 44.68, 1.87 -1.37 M-0.75 110.31 C1.7 83.57, 0.71 56.23, -0.78 -0.27" stroke="#6dbf3a" stroke-width="3" fill="none"></path></g><g transform="translate(1113.3459655792049 708.8475373804048) rotate(0 37.848968505859375 8.75)"><text x="0" y="NaN" font-family="Virgil, Segoe UI Emoji" font-size="14px" fill="#8b949e" text-anchor="start" style="white-space: pre;" direction="ltr">DB queries</text></g><g transform="translate(1129.301176190606 731.3929613080574) rotate(0 23.836990356445312 13.75)"><text x="0" y="NaN" font-family="Virgil, Segoe UI Emoji" font-size="22px" fill="#c9d1d9" text-anchor="start" style="white-space: pre;" direction="ltr">1 + 1</text></g><g transform="translate(1116.0816125731515 755.6923316440249) rotate(0 32.92198944091797 22.5)"><text x="0" y="NaN" font-family="Virgil, Segoe UI Emoji" font-size="36px" fill="#3fb950" text-anchor="start" style="white-space: pre;" direction="ltr">= 2</text></g><g stroke-linecap="round" transform="translate(1100 545) rotate(0 130 65)"><path d="M1 1.7 L261.75 -1.75 L261.66 128.53 L1.15 130.19" stroke="none" stroke-width="0" fill="#21262d"></path><path d="M-1.53 0.63 C94.9 -0.85, 186.11 -1.21, 259.63 0.01 M0.58 -0.18 C88.79 0.34, 179.25 1.18, 260.43 0.28 M259.78 -0.64 C257.62 29.08, 258.6 57.61, 259.88 129.63 M260.76 -0.46 C261.29 48.91, 260.81 98.39, 259.48 129.89 M259.01 129.79 C205.88 129.37, 152.87 129.53, 0.33 128.43 M259.62 130.77 C168.64 131.36, 75.73 131.49, -0.23 130.04 M0.45 130.3 C0.97 102.17, -1.97 76.34, 0.15 0.21 M-0.52 129.63 C1.52 92, 0.19 52.73, 0.25 -0.26" stroke="#3fb950" stroke-width="2" fill="none"></path></g><g transform="translate(1112 555) rotate(0 67.80741882324219 9.375)"><text x="0" y="NaN" font-family="Virgil, Segoe UI Emoji" font-size="15px" fill="#3fb950" text-anchor="start" style="white-space: pre;" direction="ltr">Per-request dedup</text></g><g transform="translate(1112 583) rotate(0 84.1294174194336 32.5)"><text x="0" y="NaN" font-family="Virgil, Segoe UI Emoji" font-size="13px" fill="#c9d1d9" text-anchor="start" style="white-space: pre;" direction="ltr">100 events -&gt;</text><text x="0" y="NaN" font-family="Virgil, Segoe UI Emoji" font-size="13px" fill="#c9d1d9" text-anchor="start" style="white-space: pre;" direction="ltr">  88 duplicate venue IDs</text><text x="0" y="NaN" font-family="Virgil, Segoe UI Emoji" font-size="13px" fill="#c9d1d9" text-anchor="start" style="white-space: pre;" direction="ltr">  12 distinct IDs</text><text x="0" y="NaN" font-family="Virgil, Segoe UI Emoji" font-size="13px" fill="#c9d1d9" text-anchor="start" style="white-space: pre;" direction="ltr">  1 row each in batch</text></g></svg>