<svg version="1.1" xmlns="http://www.w3.org/2000/svg" viewBox="0 0 1440 592.5" width="1440" height="592.5">
  <!-- svg-source:excalidraw -->
  
  <defs>
    <style>
      @font-face {
        font-family: "Virgil";
        src: url("https://excalidraw.com/Virgil.woff2");
      }
      @font-face {
        font-family: "Cascadia";
        src: url("https://excalidraw.com/Cascadia.woff2");
      }
    </style>
  </defs>
  <rect x="0" y="0" width="1440" height="592.5" fill="#0d1117"></rect><g transform="translate(10 10) rotate(0 477.6898193359375 18.75)"><text x="0" y="NaN" font-family="Virgil, Segoe UI Emoji" font-size="30px" fill="#ff8c42" text-anchor="start" style="white-space: pre;" direction="ltr">Query Cost Attack -- one HTTP request, 1,000,000 resolutions</text></g><g transform="translate(10 53) rotate(0 511.046630859375 11.25)"><text x="0" y="NaN" font-family="Virgil, Segoe UI Emoji" font-size="18px" fill="#c9d1d9" text-anchor="start" style="white-space: pre;" direction="ltr">Self-referential types let a 200-byte query explode into 10^6 resolver calls. Depth limits + cost analysis stop it.</text></g><g stroke-linecap="round" transform="translate(10 115) rotate(0 131.91731832945078 150)"><path d="M-0.95 -1.56 L264.07 -0.65 L265.4 301.31 L-1.04 301.39" stroke="none" stroke-width="0" fill="#21262d"></path><path d="M-1.52 0.43 C104.57 -0.36, 212 -0.59, 262.76 1.58 M-0.68 0.71 C56.13 -1.63, 111.63 -1.4, 263.97 -0.26 M264.82 0.94 C264.28 91.22, 264.65 183.96, 265.11 300.74 M264.12 -0.3 C263.41 89.8, 263.27 180.22, 263.6 299.57 M262.86 298.48 C179.94 300.5, 97.84 301.5, 0.49 299.22 M263.36 300.38 C203.5 299.68, 144.61 301.15, -0.66 300.34 M1.15 298.92 C0.5 227.57, 0.66 154.48, 1.1 -1.37 M-0.25 300.51 C1.18 209.8, 1.22 119.47, 0.07 -0.52" stroke="#f85149" stroke-width="2" fill="none"></path></g><g transform="translate(26 125) rotate(0 110.06238555908203 9.375)"><text x="0" y="NaN" font-family="Virgil, Segoe UI Emoji" font-size="15px" fill="#f85149" text-anchor="start" style="white-space: pre;" direction="ltr">Malicious query (~200 bytes)</text></g><g transform="translate(26 155) rotate(0 102.13494110107422 84.375)"><text x="0" y="NaN" font-family="Virgil, Segoe UI Emoji" font-size="15px" fill="#f85149" text-anchor="start" style="white-space: pre;" direction="ltr">query {</text><text x="0" y="NaN" font-family="Virgil, Segoe UI Emoji" font-size="15px" fill="#f85149" text-anchor="start" style="white-space: pre;" direction="ltr">  user(id:"1") {</text><text x="0" y="NaN" font-family="Virgil, Segoe UI Emoji" font-size="15px" fill="#f85149" text-anchor="start" style="white-space: pre;" direction="ltr">    friends {</text><text x="0" y="NaN" font-family="Virgil, Segoe UI Emoji" font-size="15px" fill="#f85149" text-anchor="start" style="white-space: pre;" direction="ltr">      friends {</text><text x="0" y="NaN" font-family="Virgil, Segoe UI Emoji" font-size="15px" fill="#f85149" text-anchor="start" style="white-space: pre;" direction="ltr">        friends {</text><text x="0" y="NaN" font-family="Virgil, Segoe UI Emoji" font-size="15px" fill="#f85149" text-anchor="start" style="white-space: pre;" direction="ltr">          friends {</text><text x="0" y="NaN" font-family="Virgil, Segoe UI Emoji" font-size="15px" fill="#f85149" text-anchor="start" style="white-space: pre;" direction="ltr">            friends {</text><text x="0" y="NaN" font-family="Virgil, Segoe UI Emoji" font-size="15px" fill="#f85149" text-anchor="start" style="white-space: pre;" direction="ltr">              friends { id }</text><text x="0" y="NaN" font-family="Virgil, Segoe UI Emoji" font-size="15px" fill="#f85149" text-anchor="start" style="white-space: pre;" direction="ltr">}}}}}}}</text></g><g transform="translate(26 375) rotate(0 110.13088989257812 17.5)"><text x="0" y="NaN" font-family="Virgil, Segoe UI Emoji" font-size="14px" fill="#8b949e" text-anchor="start" style="white-space: pre;" direction="ltr">Assume avg 10 friends per user.</text><text x="0" y="NaN" font-family="Virgil, Segoe UI Emoji" font-size="14px" fill="#8b949e" text-anchor="start" style="white-space: pre;" direction="ltr">Depth 6 =&gt; 10^6 resolutions.</text></g><g stroke-linecap="round" transform="translate(748 115) rotate(0 22.5 42.5)"><path d="M1.09 1.3 L46.64 -1.16 L46.8 84.17 L-0.39 84.59" stroke="none" stroke-width="0" fill="#0d2c5a"></path><path d="M-1.42 0.22 C9.6 -1.74, 21.83 -1.66, 44.32 -1 M-0.34 -0.26 C17.86 -0.37, 35.37 0.65, 45.6 -0.44 M44.97 1.75 C47.56 31.9, 44.17 62.06, 44.93 85.7 M45.89 -0.59 C44.76 30.89, 45.34 60.85, 44.35 85.13 M46.75 85.67 C29.56 85.06, 12.86 85.33, 1 83.9 M44.46 85.82 C31.21 85.2, 18.74 85.06, 0.07 84.14 M1.05 84.63 C1.18 60.05, 1.81 37.32, -1.64 1.64 M-0.39 85.21 C0.26 54.46, -0.36 21.2, 0.91 -0.89" stroke="#58a6ff" stroke-width="2" fill="none"></path></g><g transform="translate(753.9200210571289 120) rotate(0 16.579978942871094 37.5)"><text x="16.579978942871094" y="NaN" font-family="Virgil, Segoe UI Emoji" font-size="20px" fill="#ffffff" text-anchor="middle" style="white-space: pre;" direction="ltr">1</text><text x="16.579978942871094" y="NaN" font-family="Virgil, Segoe UI Emoji" font-size="20px" fill="#ffffff" text-anchor="middle" style="white-space: pre;" direction="ltr">use</text><text x="16.579978942871094" y="NaN" font-family="Virgil, Segoe UI Emoji" font-size="20px" fill="#ffffff" text-anchor="middle" style="white-space: pre;" direction="ltr">r</text></g><g transform="translate(340 131) rotate(0 28.919967651367188 9.375)"><text x="0" y="NaN" font-family="Virgil, Segoe UI Emoji" font-size="15px" fill="#8b949e" text-anchor="start" style="white-space: pre;" direction="ltr">depth 0</text></g><g stroke-linecap="round" transform="translate(710 175) rotate(0 60.5 25)"><path d="M-1.04 1.05 L119.99 0.5 L120.56 49.37 L1.08 48.98" stroke="none" stroke-width="0" fill="#0d2c5a"></path><path d="M1.45 -1.77 C34.67 1.86, 73.31 -0.79, 122.15 1.65 M-0.12 -0.06 C27.02 -1.76, 55.33 -1.02, 120.19 -0.57 M120.11 1.83 C120.56 12.57, 121.24 22.95, 119.59 48.25 M121.22 -0.66 C119.66 16.69, 120.83 31.89, 120.96 50.56 M119.19 51.14 C85.31 50.42, 48.81 51.34, 0.31 51.96 M120.43 49.53 C78.49 49.03, 36.44 48.37, 0.55 49.52 M1.79 51.33 C-0.36 38.33, -0.66 26.93, 1.5 -1.15 M-0.47 49.82 C0.22 32.79, -0.29 14.36, -0.41 -0.93" stroke="#58a6ff" stroke-width="2" fill="none"></path></g><g transform="translate(760.9100036621094 187.5) rotate(0 9.589996337890625 12.5)"><text x="9.589996337890625" y="NaN" font-family="Virgil, Segoe UI Emoji" font-size="20px" fill="#ffffff" text-anchor="middle" style="white-space: pre;" direction="ltr">10</text></g><g transform="translate(340 191) rotate(0 25.792465209960938 9.375)"><text x="0" y="NaN" font-family="Virgil, Segoe UI Emoji" font-size="15px" fill="#8b949e" text-anchor="start" style="white-space: pre;" direction="ltr">depth 1</text></g><g stroke-linecap="round" transform="translate(664 235) rotate(0 106.5 25)"><path d="M-0.63 -1.96 L214.15 1.51 L214 49.22 L-0.34 50.31" stroke="none" stroke-width="0" fill="#0d2c5a"></path><path d="M0.48 -0.87 C45.15 -2.76, 87.13 -0.83, 212.26 -0.1 M-0.7 -0.3 C45.94 0.19, 93.66 0.08, 213.09 0.11 M214.39 -1.12 C211.43 10.24, 214.92 24.47, 213.87 51.31 M212.31 0.47 C212.74 18.62, 213.2 37.12, 212.32 49.79 M211.78 48.62 C140.8 50.23, 70.99 52.94, 1.23 49.8 M213.1 49.42 C131.58 50.74, 49.77 50.49, 0.28 50.33 M-0.41 49.05 C0.5 37.82, 1.3 24.86, -0.66 0.6 M-0.48 49.43 C0.82 38.27, 0.07 26.65, 0.76 -0.76" stroke="#58a6ff" stroke-width="2" fill="none"></path></g><g transform="translate(754.0300064086914 247.5) rotate(0 16.469993591308594 12.5)"><text x="16.469993591308594" y="NaN" font-family="Virgil, Segoe UI Emoji" font-size="20px" fill="#ffffff" text-anchor="middle" style="white-space: pre;" direction="ltr">100</text></g><g transform="translate(340 251) rotate(0 29.09996795654297 9.375)"><text x="0" y="NaN" font-family="Virgil, Segoe UI Emoji" font-size="15px" fill="#8b949e" text-anchor="start" style="white-space: pre;" direction="ltr">depth 2</text></g><g stroke-linecap="round" transform="translate(611 295) rotate(0 159.5 25)"><path d="M-0.21 1.19 L318.58 -1.05 L319.78 48.72 L1.55 48.57" stroke="none" stroke-width="0" fill="#5c3a10"></path><path d="M0.46 -1.11 C107.85 -1.44, 213.93 -1.17, 319.22 -0.62 M-0.42 -0.12 C91.53 0.51, 182.3 0.96, 319.33 -0.02 M319.1 -0.08 C320.75 10.02, 320.93 21.74, 319.71 48.56 M319.63 -0.93 C320.28 16.72, 318.68 34.58, 319.09 49.53 M317.68 51.12 C249.85 51.21, 182.17 50.6, 0.75 49.93 M318.6 50.66 C211.48 50.6, 103.16 51.05, 0.25 49.55 M1.74 49.76 C1.1 38.42, -0.09 24.92, -1.14 -0.03 M-0.57 50.44 C-0.61 30.36, -0.68 12.85, 0.16 -0.34" stroke="#f0883e" stroke-width="2" fill="none"></path></g><g transform="translate(744.5800094604492 307.5) rotate(0 25.91999053955078 12.5)"><text x="25.91999053955078" y="NaN" font-family="Virgil, Segoe UI Emoji" font-size="20px" fill="#ffffff" text-anchor="middle" style="white-space: pre;" direction="ltr">1,000</text></g><g transform="translate(340 311) rotate(0 28.867469787597656 9.375)"><text x="0" y="NaN" font-family="Virgil, Segoe UI Emoji" font-size="15px" fill="#8b949e" text-anchor="start" style="white-space: pre;" direction="ltr">depth 3</text></g><g stroke-linecap="round" transform="translate(552 355) rotate(0 218.5 25)"><path d="M0.38 -0.71 L436.31 -1.67 L436.17 50.13 L1.51 48.06" stroke="none" stroke-width="0" fill="#5c3a10"></path><path d="M-0.66 0.81 C125.18 0.28, 249.08 -0.22, 437.67 0.57 M-0.48 0.2 C98.34 0.51, 195.67 0.06, 436.99 0.04 M437.65 0.39 C437.56 14.54, 436.32 28.68, 436.36 51.57 M436.94 0.06 C436.69 10.61, 436.33 22.2, 437.63 49.4 M437.12 49.35 C315.5 50.86, 192.93 51.06, -0.11 50.59 M436.68 50.16 C264.49 50.25, 92.05 50.76, -0.35 49.94 M-1.31 49.33 C2.11 40.88, -0.31 28.23, -1.03 1.51 M-0.38 49.3 C-0.37 36.74, 0.13 23.85, -0.73 0.86" stroke="#f0883e" stroke-width="2" fill="none"></path></g><g transform="translate(737.7000122070312 367.5) rotate(0 32.79998779296875 12.5)"><text x="32.79998779296875" y="NaN" font-family="Virgil, Segoe UI Emoji" font-size="20px" fill="#ffffff" text-anchor="middle" style="white-space: pre;" direction="ltr">10,000</text></g><g transform="translate(340 371) rotate(0 28.559967041015625 9.375)"><text x="0" y="NaN" font-family="Virgil, Segoe UI Emoji" font-size="15px" fill="#8b949e" text-anchor="start" style="white-space: pre;" direction="ltr">depth 4</text></g><g stroke-linecap="round" transform="translate(488 415) rotate(0 282 25)"><path d="M-0.09 1.94 L565.24 -0.81 L565.87 49.14 L-1.43 49.74" stroke="none" stroke-width="0" fill="#4a1219"></path><path d="M-0.62 -0.67 C190.75 1.58, 379.88 1.63, 563.97 0.17 M-0.09 0.35 C164.73 -1.69, 329.03 -2.18, 563.63 -0.37 M565.61 0.77 C563.24 19.98, 565.79 40.86, 563.28 50.86 M563.17 -0.11 C564.12 13.74, 565.01 26.96, 563.97 49.7 M563.44 49.35 C344.17 48.62, 124.98 49.06, -0.33 50.11 M563.89 49.61 C443.61 50.19, 323.45 50.16, -0.24 49.74 M1.34 49.79 C-0.08 38.82, -0.8 25.96, 1.3 -2 M-0.68 50.84 C-0.81 34.67, 0.47 20.39, 0.71 0.17" stroke="#f85149" stroke-width="2" fill="none"></path></g><g transform="translate(730.3200149536133 427.5) rotate(0 39.67998504638672 12.5)"><text x="39.67998504638672" y="NaN" font-family="Virgil, Segoe UI Emoji" font-size="20px" fill="#ffffff" text-anchor="middle" style="white-space: pre;" direction="ltr">100,000</text></g><g transform="translate(340 431) rotate(0 28.39496612548828 9.375)"><text x="0" y="NaN" font-family="Virgil, Segoe UI Emoji" font-size="15px" fill="#8b949e" text-anchor="start" style="white-space: pre;" direction="ltr">depth 5</text></g><g stroke-linecap="round" transform="translate(420 475) rotate(0 350 25)"><path d="M1.71 1.37 L701.05 1.89 L701.01 48.18 L0.58 48.96" stroke="none" stroke-width="0" fill="#4a1219"></path><path d="M0.27 -0.54 C232.29 -2.08, 463.76 -1.12, 699.42 -0.21 M-0.3 -0.38 C276.75 -0.6, 553.86 -0.52, 700.2 0.33 M700.01 1.16 C698.51 15.08, 700.82 35.5, 699.09 49.38 M699.49 -0.14 C698.52 18.9, 699.65 35.15, 700.29 49.44 M700.31 50.57 C552.53 51.13, 406.39 51.13, -0.63 49.55 M700.1 49.91 C535.62 47.07, 370.99 47.18, 0.2 50.21 M0.47 50.09 C0.63 34.31, 0.05 21.72, -1.35 1.81 M0.91 50.54 C0.29 34.59, 0.28 20.14, -0.79 -0.02" stroke="#f85149" stroke-width="2" fill="none"></path></g><g transform="translate(720.8700180053711 487.5) rotate(0 49.129981994628906 12.5)"><text x="49.129981994628906" y="NaN" font-family="Virgil, Segoe UI Emoji" font-size="20px" fill="#ffffff" text-anchor="middle" style="white-space: pre;" direction="ltr">1,000,000</text></g><g transform="translate(340 491) rotate(0 28.559967041015625 9.375)"><text x="0" y="NaN" font-family="Virgil, Segoe UI Emoji" font-size="15px" fill="#8b949e" text-anchor="start" style="white-space: pre;" direction="ltr">depth 6</text></g><g transform="translate(620 555) rotate(0 196.701904296875 13.75)"><text x="0" y="NaN" font-family="Virgil, Segoe UI Emoji" font-size="22px" fill="#f85149" text-anchor="start" style="white-space: pre;" direction="ltr">Server OOM / CPU pegged / outage</text></g><g stroke-linecap="round" transform="translate(1210 265) rotate(0 110 125)"><path d="M1.26 1.73 L219.14 1.82 L220.52 249.76 L0.47 250.06" stroke="none" stroke-width="0" fill="#3a5d1d"></path><path d="M-1.65 0.04 C65.83 -1.97, 132.59 0.4, 219.16 0.37 M-0.37 -0.24 C63.15 0.99, 124.55 0.21, 219.79 -0.82 M220.01 -1.33 C218.61 82.24, 218.06 162.61, 221.17 251 M219.23 -0.13 C221.47 52.31, 222.03 105.41, 220.56 250.66 M221.23 250.53 C161.34 250.89, 100.4 250.18, -0.12 251.34 M219.35 249.73 C144.33 249.55, 70.86 250.35, 0.84 249.47 M-0.72 248.75 C0.04 159.49, 1.55 68.36, 0.77 1.03 M-0.33 249.33 C-1.8 187.64, -1.59 125.92, 0.43 -0.02" stroke="#6dbf3a" stroke-width="3" fill="none"></path></g><g transform="translate(1226 275) rotate(0 87.44793701171875 10)"><text x="0" y="NaN" font-family="Virgil, Segoe UI Emoji" font-size="16px" fill="#3fb950" text-anchor="start" style="white-space: pre;" direction="ltr">Defenses (apply all 4)</text></g><g transform="translate(1226 315) rotate(0 55.76243591308594 9.375)"><text x="0" y="NaN" font-family="Virgil, Segoe UI Emoji" font-size="15px" fill="#c9d1d9" text-anchor="start" style="white-space: pre;" direction="ltr">1. max depth: 5</text></g><g transform="translate(1226 353) rotate(0 82.98741149902344 9.375)"><text x="0" y="NaN" font-family="Virgil, Segoe UI Emoji" font-size="15px" fill="#c9d1d9" text-anchor="start" style="white-space: pre;" direction="ltr">2. cost analysis: 1000</text></g><g transform="translate(1226 391) rotate(0 94.67991638183594 9.375)"><text x="0" y="NaN" font-family="Virgil, Segoe UI Emoji" font-size="15px" fill="#c9d1d9" text-anchor="start" style="white-space: pre;" direction="ltr">3. wall-clock timeout: 2 s</text></g><g transform="translate(1226 429) rotate(0 90.1723861694336 9.375)"><text x="0" y="NaN" font-family="Virgil, Segoe UI Emoji" font-size="15px" fill="#c9d1d9" text-anchor="start" style="white-space: pre;" direction="ltr">4. persisted queries only</text></g><g stroke-linecap="round" transform="translate(400 415) rotate(0 370 60)"><path d="M0.01 0.58 C221.67 0.55, 442.35 0.49, 739.92 -0.13 M738.93 1.23 C742.13 32.84, 741.75 68.09, 738.51 120.68 M739.91 119.4 C544.84 122.4, 350.22 122.63, -0.53 119.6 M0.96 121.34 C2.04 89.18, 2.23 60.98, -0.99 0.87" stroke="#6dbf3a" stroke-width="4.5" fill="none" stroke-dasharray="8 12"></path></g><g transform="translate(1230 460) rotate(0 97.02896118164062 11.25)"><text x="0" y="NaN" font-family="Virgil, Segoe UI Emoji" font-size="18px" fill="#3fb950" text-anchor="start" style="white-space: pre;" direction="ltr">BLOCKED at depth 5</text></g><g stroke-linecap="round"><g transform="translate(1203.5 400.199272249905) rotate(0 -32.88470453666537 3.9003638750475034)"><path d="M0.98 0.93 C-10.15 2.2, -55.82 7.39, -66.76 8.66 M0.04 0.38 C-10.73 1.83, -53.75 5.94, -64.57 6.99" stroke="#3fb950" stroke-width="3" fill="none"></path></g><g transform="translate(1203.5 400.199272249905) rotate(0 -32.88470453666537 3.9003638750475034)"><path d="M-35.95 -7.59 C-44.14 0, -52.44 1.2, -65.68 8.81 M-36.94 -5.42 C-46.93 -0.8, -56.77 3.84, -65.16 7.38" stroke="#3fb950" stroke-width="3" fill="none"></path></g><g transform="translate(1203.5 400.199272249905) rotate(0 -32.88470453666537 3.9003638750475034)"><path d="M-33.97 12.83 C-42.94 14.25, -51.84 9.27, -65.68 8.81 M-34.96 15.01 C-45.81 12.02, -56.39 9.04, -65.16 7.38" stroke="#3fb950" stroke-width="3" fill="none"></path></g></g></svg>