<svg version="1.1" xmlns="http://www.w3.org/2000/svg" viewBox="0 0 1437.019719641291 835" width="1437.019719641291" height="835">
  <!-- svg-source:excalidraw -->
  
  <defs>
    <style>
      @font-face {
        font-family: "Virgil";
        src: url("https://excalidraw.com/Virgil.woff2");
      }
      @font-face {
        font-family: "Cascadia";
        src: url("https://excalidraw.com/Cascadia.woff2");
      }
    </style>
  </defs>
  <rect x="0" y="0" width="1437.019719641291" height="835" fill="#0d1117"></rect><g transform="translate(10.128909809574111 10) rotate(0 445.87481689453125 18.75)"><text x="0" y="NaN" font-family="Virgil, Segoe UI Emoji" font-size="30px" fill="#ff8c42" text-anchor="start" style="white-space: pre;" direction="ltr">GraphQL Caching -- HTTP breaks; persisted queries restore</text></g><g transform="translate(10.128909809574111 53) rotate(0 448.75775146484375 11.25)"><text x="0" y="NaN" font-family="Virgil, Segoe UI Emoji" font-size="18px" fill="#c9d1d9" text-anchor="start" style="white-space: pre;" direction="ltr">POST + opaque body is uncacheable. Replace the body with a stable hash and CDN caching returns.</text></g><g stroke-opacity="0.5" fill-opacity="0.5" stroke-linecap="round" transform="translate(10 114.86693180947191) rotate(0 705.3993908670509 160)"><path d="M0.3 1.64 L1411.13 -1.22 L1408.89 319.03 L0.19 320.34" stroke="none" stroke-width="0" fill="#161b22"></path><path d="M-0.77 0.21 C562.27 -0.23, 1125.98 -0.35, 1410.26 0.8 M1409.6 1.25 C1410.2 67.23, 1410.13 134.99, 1411.04 319.53 M1411.34 320.51 C977.44 314.12, 544.19 314.43, 0.7 320.41 M0.55 319.42 C1.6 224.36, 1.32 129.91, -0.45 -0.81" stroke="#30363d" stroke-width="2.5" fill="none" stroke-dasharray="8 10"></path></g><g transform="translate(30.12890980957411 131) rotate(0 254.39688110351562 13.75)"><text x="0" y="NaN" font-family="Virgil, Segoe UI Emoji" font-size="22px" fill="#f85149" text-anchor="start" style="white-space: pre;" direction="ltr">Naive GraphQL HTTP request -- CDN gives up</text></g><g stroke-linecap="round" transform="translate(30.12890980957411 175) rotate(0 65 30)"><path d="M0.33 -0.03 L131.22 0.21 L130.91 61.24 L-1.34 59.53" stroke="none" stroke-width="0" fill="#1f4d2b"></path><path d="M-0.21 -1.58 C49.28 1.42, 95.87 2.56, 129.91 -1.96 M0.36 -0.69 C28.74 1.8, 57.3 2.02, 130.42 -0.49 M130.27 -0.13 C129.26 12.89, 130.12 25.74, 129.5 58.55 M130.19 -0.28 C130.96 17.47, 129.65 35.31, 130.15 60.09 M130.74 59.61 C81.9 60.69, 38.22 61.71, -1.95 59.45 M129.87 60.02 C95.17 60.38, 58.57 60.17, 0.76 59.72 M1.97 59.96 C1.96 42.99, 0.57 25.48, 0.7 0.09 M0.83 59.53 C-0.46 46.6, 0.36 31.69, 0.47 -0.03" stroke="#3fb950" stroke-width="2" fill="none"></path></g><g transform="translate(70.78393147705458 193.75) rotate(0 24.34497833251953 11.25)"><text x="24.34497833251953" y="NaN" font-family="Virgil, Segoe UI Emoji" font-size="18px" fill="#ffffff" text-anchor="middle" style="white-space: pre;" direction="ltr">Client</text></g><g stroke-linecap="round" transform="translate(226.08642991883903 175) rotate(0 165 30)"><path d="M1.09 1.3 L331.64 -1.16 L331.8 59.17 L-0.39 59.59" stroke="none" stroke-width="0" fill="#21262d"></path><path d="M-0.97 0.15 C80.49 -2.21, 162.78 -2.15, 329.54 -0.68 M-0.23 -0.18 C130.46 -0.44, 260.67 0.26, 330.41 -0.3 M329.97 1.75 C332.34 22.62, 328.96 43.5, 329.93 60.7 M330.89 -0.59 C329.91 21.97, 330.49 42.99, 329.35 60.13 M331.2 60.46 C214.68 61.31, 98.5 61.5, 0.68 59.25 M329.63 60.56 C230.83 61.76, 132.56 61.67, 0.05 59.41 M1.05 59.63 C1.1 42, 1.73 26.21, -1.64 1.64 M-0.39 60.21 C0.08 38.73, -0.54 14.73, 0.91 -0.89" stroke="#58a6ff" stroke-width="2" fill="none"></path></g><g transform="translate(297.1289098095741 181) rotate(0 17.965988159179688 8.125)"><text x="0" y="NaN" font-family="Virgil, Segoe UI Emoji" font-size="13px" fill="#8b949e" text-anchor="start" style="white-space: pre;" direction="ltr">REST</text></g><g transform="translate(297.1289098095741 199) rotate(0 69.74996185302734 11.25)"><text x="0" y="NaN" font-family="Virgil, Segoe UI Emoji" font-size="18px" fill="#58a6ff" text-anchor="start" style="white-space: pre;" direction="ltr">GET /users/42</text></g><g stroke-linecap="round" transform="translate(632.1992499212238 174.70891333321975) rotate(0 90 30)"><path d="M-1.04 1.05 L178.99 0.5 L179.56 59.37 L1.08 58.98" stroke="none" stroke-width="0" fill="#5c3a10"></path><path d="M1.45 -1.77 C52.19 2.09, 108.33 -0.56, 181.15 1.65 M-0.12 -0.06 C40.32 -2.23, 81.92 -1.49, 179.19 -0.57 M179.11 1.83 C179.55 15.04, 180.23 27.89, 178.59 58.25 M180.22 -0.66 C178.57 19.94, 179.75 38.39, 179.96 60.56 M178.19 61.14 C126.24 60.4, 71.68 61.31, 0.31 61.96 M179.43 59.53 C116.91 58.54, 54.3 57.88, 0.55 59.52 M1.79 61.33 C-0.44 45.86, -0.74 32.01, 1.5 -1.15 M-0.47 59.82 C0.2 39.16, -0.31 17.12, -0.41 -0.93" stroke="#f0883e" stroke-width="2" fill="none"></path></g><g transform="translate(679.6112753728839 193.45891333321975) rotate(0 42.587974548339844 11.25)"><text x="42.587974548339844" y="NaN" font-family="Virgil, Segoe UI Emoji" font-size="18px" fill="#ffffff" text-anchor="middle" style="white-space: pre;" direction="ltr">CDN edge</text></g><g stroke-linecap="round"><g transform="translate(166.1289098095741 205.0020609127647) rotate(0 26.978760054632474 -0.0014970584664126818)"><path d="M1 1.02 C10.1 0.72, 45.8 -0.49, 54.48 -0.81 M0.07 0.51 C9.07 0.26, 44.56 0.4, 53.81 0.31" stroke="#58a6ff" stroke-width="2" fill="none"></path></g><g transform="translate(166.1289098095741 205.0020609127647) rotate(0 26.978760054632474 -0.0014970584664126818)"><path d="M30.18 10.48 C34.39 5.28, 41.58 3.01, 52.93 0.59 M28.34 8.94 C32.86 7.52, 38.38 7, 53.98 -0.5" stroke="#58a6ff" stroke-width="2" fill="none"></path></g><g transform="translate(166.1289098095741 205.0020609127647) rotate(0 26.978760054632474 -0.0014970584664126818)"><path d="M30.13 -7.98 C34.5 -7.84, 41.71 -4.78, 52.93 0.59 M28.29 -9.51 C32.78 -7.21, 38.31 -4.02, 53.98 -0.5" stroke="#58a6ff" stroke-width="2" fill="none"></path></g></g><g stroke-linecap="round"><g transform="translate(562.0864299188389 204.84880819862863) rotate(0 32.05641000119243 -0.026804263554851104)"><path d="M0.88 0.33 C11.66 0.3, 53.14 0.94, 63.52 0.8 M-0.11 -0.55 C11.16 -0.99, 54.98 -1.06, 65.92 -0.87" stroke="#58a6ff" stroke-width="2" fill="none"></path></g><g transform="translate(562.0864299188389 204.84880819862863) rotate(0 32.05641000119243 -0.026804263554851104)"><path d="M38.22 8.24 C44.84 5.36, 48.48 5.48, 65.08 -0.98 M36.88 8.89 C42.98 7.33, 50.31 4.99, 66.02 -0.74" stroke="#58a6ff" stroke-width="2" fill="none"></path></g><g transform="translate(562.0864299188389 204.84880819862863) rotate(0 32.05641000119243 -0.026804263554851104)"><path d="M38.33 -12.28 C45.1 -10.93, 48.71 -6.58, 65.08 -0.98 M37 -11.64 C43.07 -8.69, 50.37 -6.52, 66.02 -0.74" stroke="#58a6ff" stroke-width="2" fill="none"></path></g></g><g stroke-linecap="round" transform="translate(895.1936567990394 175.87741838129466) rotate(0 99.99999999999994 30)"><path d="M-1.83 -0.98 L199.95 0.17 L201.14 60.48 L-1.95 61.6" stroke="none" stroke-width="0" fill="#3a5d1d"></path><path d="M0.05 1.04 C73 1.41, 145.29 -0.27, 198.72 -0.37 M-0.21 -0.57 C74.03 1.3, 150.29 1.55, 199.33 -0.71 M201.79 0.92 C199.03 18.7, 201.8 40.39, 199.05 58.32 M199.03 -0.5 C201.17 20.15, 201.23 40.31, 199.29 60.81 M198.78 60.45 C127.48 62, 58.23 61.08, 1.71 58.68 M200.18 60.23 C141.05 57.96, 82.17 59.27, -0.17 59.77 M-0.2 60.58 C2.12 42.26, 1.93 25.09, 0.8 -0.74 M-0.75 59.43 C-0.57 35.51, -0.57 13.37, 0.88 0.49" stroke="#6dbf3a" stroke-width="2" fill="none"></path></g><g transform="translate(974.2936705319496 192.12741838129466) rotate(0 20.899986267089787 13.75)"><text x="20.899986267089844" y="NaN" font-family="Virgil, Segoe UI Emoji" font-size="22px" fill="#ffffff" text-anchor="middle" style="white-space: pre;" direction="ltr">HIT</text></g><g stroke-linecap="round"><g transform="translate(818.1992499212239 205.12574457018368) rotate(0 35.49720343890783 0.15193848844124602)"><path d="M0.19 0.39 C11.79 0.48, 58.4 1.18, 70.05 1.21 M-1.18 -0.44 C10.76 -0.74, 59.99 -0.86, 72.26 -0.44" stroke="#3fb950" stroke-width="2" fill="none"></path></g><g transform="translate(818.1992499212239 205.12574457018368) rotate(0 35.49720343890783 0.15193848844124602)"><path d="M44.6 7.89 C54.88 4.54, 63.33 1.61, 72.58 -1.33 M43.35 9.3 C52.26 6.36, 59.58 4.18, 72.73 -0.47" stroke="#3fb950" stroke-width="2" fill="none"></path></g><g transform="translate(818.1992499212239 205.12574457018368) rotate(0 35.49720343890783 0.15193848844124602)"><path d="M44.86 -12.63 C55.16 -9.11, 63.53 -5.17, 72.58 -1.33 M43.61 -11.22 C52.64 -8.28, 59.88 -4.6, 72.73 -0.47" stroke="#3fb950" stroke-width="2" fill="none"></path></g></g><g transform="translate(1099.871090190426 192.70891333321975) rotate(0 79.60392761230469 17.5)"><text x="0" y="NaN" font-family="Virgil, Segoe UI Emoji" font-size="14px" fill="#3fb950" text-anchor="start" style="white-space: pre;" direction="ltr">URL is the cache key.</text><text x="0" y="NaN" font-family="Virgil, Segoe UI Emoji" font-size="14px" fill="#3fb950" text-anchor="start" style="white-space: pre;" direction="ltr">Idempotent. Cacheable.</text></g><g stroke-linecap="round" transform="translate(30.12890980957411 295) rotate(0 65 30)"><path d="M0.58 -1.6 L130.05 1.83 L129.24 61.32 L-1.44 58.8" stroke="none" stroke-width="0" fill="#1f4d2b"></path><path d="M-1.82 -0.69 C34.74 -2.32, 69.14 0.62, 131 -0.5 M0.9 0.65 C36.02 -1.74, 70.71 -0.69, 130.67 0.9 M128.25 -0.6 C131.47 21.58, 129.63 39.35, 131.13 61.74 M130.46 0.03 C130.46 21.34, 129.64 40.2, 129.33 60.83 M130.75 59.76 C97.07 60.86, 64.97 59.93, 1.8 58.34 M129.01 60.24 C94.03 60.53, 57.99 60.47, 0.33 59.45 M-1.7 58.77 C1.65 42.54, 1.16 25.44, 0.8 -0.78 M0.61 60.54 C0.58 40.23, 0.71 20.83, -0.69 0.08" stroke="#3fb950" stroke-width="2" fill="none"></path></g><g transform="translate(70.78393147705458 313.75) rotate(0 24.34497833251953 11.25)"><text x="24.34497833251953" y="NaN" font-family="Virgil, Segoe UI Emoji" font-size="18px" fill="#ffffff" text-anchor="middle" style="white-space: pre;" direction="ltr">Client</text></g><g stroke-linecap="round" transform="translate(227.44206210984407 295.7651420955366) rotate(0 165 50)"><path d="M-1.82 -1.43 L331.65 0.04 L329.72 99.29 L-1.32 100.66" stroke="none" stroke-width="0" fill="#21262d"></path><path d="M-0.9 0.99 C110.02 1.37, 221.38 0.29, 331.14 1.19 M0.67 -0.03 C94.94 -0.46, 189.97 0.17, 329.41 0.43 M331.71 1.13 C330.74 28.67, 330.24 58.94, 331.43 101.12 M329.9 0.86 C330.78 37.61, 331.24 75.53, 329.53 99.56 M329.34 98.78 C251.42 99.75, 174.6 100.47, -1 99.58 M330.03 100.67 C225.18 101.04, 119.76 100.76, -0.68 99.71 M-1.84 99.85 C-1.82 60.07, -0.95 22.76, -1.9 0.58 M-0.49 99.49 C-0.56 72.46, -1.49 45.48, -0.56 0.3" stroke="#f85149" stroke-width="2" fill="none"></path></g><g transform="translate(287.2578196191482 301) rotate(0 27.150474548339844 8.125)"><text x="0" y="NaN" font-family="Virgil, Segoe UI Emoji" font-size="13px" fill="#8b949e" text-anchor="start" style="white-space: pre;" direction="ltr">GraphQL</text></g><g transform="translate(287.2578196191482 319) rotate(0 64.73696899414062 11.25)"><text x="0" y="NaN" font-family="Virgil, Segoe UI Emoji" font-size="18px" fill="#f85149" text-anchor="start" style="white-space: pre;" direction="ltr">POST /graphql</text></g><g transform="translate(287.1289098095741 345) rotate(0 85.68291473388672 16.25)"><text x="0" y="NaN" font-family="Virgil, Segoe UI Emoji" font-size="13px" fill="#c9d1d9" text-anchor="start" style="white-space: pre;" direction="ltr">body: 2 KB query +</text><text x="0" y="NaN" font-family="Virgil, Segoe UI Emoji" font-size="13px" fill="#c9d1d9" text-anchor="start" style="white-space: pre;" direction="ltr">variables (opaque to CDN)</text></g><g stroke-linecap="round" transform="translate(636.507332589571 294.70891333321975) rotate(0 90 30)"><path d="M-1.44 -0.76 L180.55 -0.6 L180.96 59.9 L1.55 61.11" stroke="none" stroke-width="0" fill="#5c3a10"></path><path d="M-1.62 0.75 C40.1 0.51, 81.69 -1.96, 178.38 -0.15 M-0.89 -0.93 C39.21 -0.66, 77.66 -2.08, 180.79 -0.8 M181.73 1.28 C177.97 15.83, 180.26 33.42, 181.84 59.57 M179.08 -0.94 C179.51 14.64, 180.54 28.77, 179.15 59.5 M181.55 61.53 C110.91 60.3, 40.79 60.18, 0.15 58.64 M179.74 60.19 C127.65 60.92, 72.62 61.57, 0.62 59.48 M-1.08 60.55 C-1.43 40.42, 1.48 24.35, -0.97 -1.97 M0.63 59.43 C0.38 35.92, 0.37 12.66, -0.94 0.06" stroke="#f0883e" stroke-width="2" fill="none"></path></g><g transform="translate(683.9193580412311 313.45891333321975) rotate(0 42.587974548339844 11.25)"><text x="42.587974548339844" y="NaN" font-family="Virgil, Segoe UI Emoji" font-size="18px" fill="#ffffff" text-anchor="middle" style="white-space: pre;" direction="ltr">CDN edge</text></g><g stroke-linecap="round"><g transform="translate(166.12890980957408 321.219779332148) rotate(0 27.656576150134995 0.7831697780937645)"><path d="M0.32 0.8 C9.5 0.91, 47.21 1.03, 56.2 0.97 M-0.97 0.17 C8.03 0.41, 46.12 2.03, 55.71 2.2" stroke="#f85149" stroke-width="2" fill="none"></path></g><g transform="translate(166.12890980957408 321.219779332148) rotate(0 27.656576150134995 0.7831697780937645)"><path d="M30.76 12.31 C38.76 5.6, 48.22 5.62, 54.68 3.69 M29.05 10.46 C38.94 8.3, 47.68 4.09, 55.32 2.25" stroke="#f85149" stroke-width="2" fill="none"></path></g><g transform="translate(166.12890980957408 321.219779332148) rotate(0 27.656576150134995 0.7831697780937645)"><path d="M31.36 -6.6 C39.17 -5.88, 48.39 1.59, 54.68 3.69 M29.64 -8.46 C39.51 -4.13, 48.05 -1.84, 55.32 2.25" stroke="#f85149" stroke-width="2" fill="none"></path></g></g><g stroke-linecap="round"><g transform="translate(563.4420621098441 322.3096464301464) rotate(0 33.53263523986345 -1.1021327534721763)"><path d="M0.07 -0.67 C11.02 -1.28, 55.24 -2.53, 66.47 -2.63 M-1.35 1.6 C9.94 1.67, 57.49 -0.52, 68.86 -1.32" stroke="#f85149" stroke-width="2" fill="none"></path></g><g transform="translate(563.4420621098441 322.3096464301464) rotate(0 33.53263523986345 -1.1021327534721763)"><path d="M40.17 9.48 C50.5 6.81, 62.74 1.72, 66.93 -0.91 M40.76 10.76 C51.06 5.8, 59.25 1.97, 68.32 -0.78" stroke="#f85149" stroke-width="2" fill="none"></path></g><g transform="translate(563.4420621098441 322.3096464301464) rotate(0 33.53263523986345 -1.1021327534721763)"><path d="M39.04 -11.01 C49.95 -6.23, 62.6 -3.87, 66.93 -0.91 M39.63 -9.73 C50.3 -7.89, 58.87 -4.92, 68.32 -0.78" stroke="#f85149" stroke-width="2" fill="none"></path></g></g><g stroke-linecap="round" transform="translate(880.4521963170984 296.2516726671549) rotate(0 100 30)"><path d="M-1.62 0.19 L200.78 1.92 L201.38 59.78 L0.12 58.2" stroke="none" stroke-width="0" fill="#4a1219"></path><path d="M-0.09 -1.64 C42.45 -1.04, 86.98 -0.51, 201.62 -0.99 M0.15 -0.2 C47.19 0.07, 94.37 -0.85, 199.2 0.33 M198.31 0.61 C199.27 16.98, 200.82 30.54, 201.67 60.35 M200.64 -0.62 C199.86 19.59, 199.15 38.56, 200.59 59.51 M199.52 60.63 C125.22 58.56, 53.07 58.63, 0.36 58.6 M199.77 59.16 C144.78 60, 90.1 60.23, -0.4 59.4 M0.77 58.93 C-0.36 39.69, -0.12 13.8, -0.62 0.58 M-0.77 59.88 C-1.21 38.91, 0.13 17.77, 0.59 -0.34" stroke="#f85149" stroke-width="2" fill="none"></path></g><g transform="translate(903.4742376378991 312.5016726671549) rotate(0 76.97795867919922 13.75)"><text x="76.97795867919922" y="NaN" font-family="Virgil, Segoe UI Emoji" font-size="22px" fill="#ffffff" text-anchor="middle" style="white-space: pre;" direction="ltr">MISS (always)</text></g><g stroke-linecap="round"><g transform="translate(822.5073325895709 325.29801612967185) rotate(0 25.97243186376369 0.15778581036468609)"><path d="M-0.07 1.14 C8.5 1.43, 42.44 0.68, 51.08 0.73 M-1.57 0.69 C7.41 0.71, 44.6 -1.01, 53.34 -1.18" stroke="#f85149" stroke-width="2" fill="none"></path></g><g transform="translate(822.5073325895709 325.29801612967185) rotate(0 25.97243186376369 0.15778581036468609)"><path d="M31.14 7.1 C36.59 5.58, 44.31 3.77, 53.75 -1.02 M28.89 7.67 C38.4 4.62, 48.23 1.9, 53.53 -1.08" stroke="#f85149" stroke-width="2" fill="none"></path></g><g transform="translate(822.5073325895709 325.29801612967185) rotate(0 25.97243186376369 0.15778581036468609)"><path d="M30.53 -10.66 C35.99 -7.34, 43.88 -4.31, 53.75 -1.02 M28.28 -10.08 C37.86 -6.48, 47.91 -2.54, 53.53 -1.08" stroke="#f85149" stroke-width="2" fill="none"></path></g></g><g transform="translate(1100 299) rotate(0 108.3319091796875 26.25)"><text x="0" y="NaN" font-family="Virgil, Segoe UI Emoji" font-size="14px" fill="#f85149" text-anchor="start" style="white-space: pre;" direction="ltr">POST is not cached.</text><text x="0" y="NaN" font-family="Virgil, Segoe UI Emoji" font-size="14px" fill="#f85149" text-anchor="start" style="white-space: pre;" direction="ltr">Body is opaque, large, variable.</text><text x="0" y="NaN" font-family="Virgil, Segoe UI Emoji" font-size="14px" fill="#f85149" text-anchor="start" style="white-space: pre;" direction="ltr">No key, no sharing.</text></g><g stroke-opacity="0.5" fill-opacity="0.5" stroke-linecap="round" transform="translate(10.128909809574111 465) rotate(0 708.4454049158584 180)"><path d="M0.77 0.49 L1417.27 -1.77 L1416.24 358.33 L-1.51 358.51" stroke="none" stroke-width="0" fill="#161b22"></path><path d="M0.59 0.68 C390.32 -3.99, 780.19 -3.14, 1416.13 0.47 M1417.85 -1.24 C1416.99 110.76, 1417.44 220.39, 1418 360.39 M1417.14 360.65 C972.63 364.93, 528.63 364.2, 0.41 360.37 M0.21 360.04 C-2.53 241.74, -1.85 123.91, -1.03 -0.46" stroke="#6dbf3a" stroke-width="2.5" fill="none" stroke-dasharray="8 10"></path></g><g transform="translate(30.12890980957411 481) rotate(0 252.98887634277344 13.75)"><text x="0" y="NaN" font-family="Virgil, Segoe UI Emoji" font-size="22px" fill="#3fb950" text-anchor="start" style="white-space: pre;" direction="ltr">With Persisted Queries -- CDN caching returns</text></g><g stroke-linecap="round" transform="translate(30.12890980957411 535) rotate(0 65 30)"><path d="M1.84 -0.29 L130.7 -0.12 L130.46 59.88 L-1.44 60.72" stroke="none" stroke-width="0" fill="#1f4d2b"></path><path d="M0.76 1.64 C46.26 -2.73, 91.42 -2.68, 129.03 -1.4 M-0.49 -0.8 C50.62 -0.98, 100.19 -1.13, 129.04 -0.88 M128.96 -0.67 C130.49 18.28, 132.19 36.26, 129.87 61.34 M130.97 -0.41 C130.36 19.46, 130.29 38.41, 129.1 59.5 M131.83 61.18 C91.64 59.05, 55.14 58.7, -0.43 58.7 M129.67 59.81 C86.18 60.32, 41.41 59.79, -0.19 60.14 M-0.18 59.26 C2.08 46.35, 1.87 29.08, -0.56 -1.03 M-0.13 59.94 C-0.75 43.79, 0.46 26.68, -0.26 -0.48" stroke="#3fb950" stroke-width="2" fill="none"></path></g><g transform="translate(70.78393147705458 553.75) rotate(0 24.34497833251953 11.25)"><text x="24.34497833251953" y="NaN" font-family="Virgil, Segoe UI Emoji" font-size="18px" fill="#ffffff" text-anchor="middle" style="white-space: pre;" direction="ltr">Client</text></g><g stroke-linecap="round" transform="translate(190.1289098095741 535) rotate(0 165 40)"><path d="M-0.29 -1.32 L329.26 -1.8 L329.21 78.83 L0.62 80.64" stroke="none" stroke-width="0" fill="#21262d"></path><path d="M-1.19 -1.35 C131.11 1.22, 263.71 1.21, 329.79 -0.46 M-0.46 -0.59 C85.43 -1.4, 169.94 -2.39, 329.84 0.24 M328.4 0.55 C331.5 23.72, 329.01 47, 328.14 78.84 M329.3 -0.8 C330.19 26.57, 330.53 53.38, 329.25 80.33 M330.78 80.54 C259.49 78.97, 189.28 80.66, 1.33 79.7 M330.22 80.04 C201.51 82.34, 72.22 81.77, 0.12 79.74 M0.92 78.48 C-0.17 57.06, 1.99 32.42, -0.57 0.77 M-0.53 80.97 C0.37 57.43, -0.09 34.01, 0.05 0.83" stroke="#6dbf3a" stroke-width="2" fill="none"></path></g><g transform="translate(202.1289098095741 541) rotate(0 49.94593811035156 8.125)"><text x="0" y="NaN" font-family="Virgil, Segoe UI Emoji" font-size="13px" fill="#8b949e" text-anchor="start" style="white-space: pre;" direction="ltr">Persisted query</text></g><g transform="translate(202.1289098095741 559) rotate(0 105.04792785644531 10)"><text x="0" y="NaN" font-family="Virgil, Segoe UI Emoji" font-size="16px" fill="#3fb950" text-anchor="start" style="white-space: pre;" direction="ltr">GET /graphql?id=abc12345</text></g><g transform="translate(202.1289098095741 585) rotate(0 84.95491790771484 8.125)"><text x="0" y="NaN" font-family="Virgil, Segoe UI Emoji" font-size="13px" fill="#c9d1d9" text-anchor="start" style="white-space: pre;" direction="ltr">  &amp;vars={"userId":"u_42"}</text></g><g stroke-linecap="round" transform="translate(550.1289098095741 535) rotate(0 90 30)"><path d="M1.92 0.44 L180.96 1.29 L179.08 61.51 L0.89 59.74" stroke="none" stroke-width="0" fill="#5c3a10"></path><path d="M-0.9 -0.66 C70.44 1.3, 141.07 0.99, 179.38 0.39 M0.57 -0.99 C61.44 -1.24, 123.37 -2.17, 179.4 -0.3 M179.05 0.57 C181.17 20.69, 181.37 40.55, 180.26 59.07 M179.6 0.32 C179.53 13.98, 179.72 30.21, 179.66 60.02 M181.76 58.52 C136.77 63, 91.55 60.71, 1.48 58.96 M179.82 59.56 C126.04 59.54, 71.13 59.76, 0.58 59.99 M-1.04 59.79 C-2.31 40.67, -1.31 21.12, -0.79 1.26 M1 60.03 C0.07 44.76, 0.42 27.6, 0.22 -0.86" stroke="#f0883e" stroke-width="2" fill="none"></path></g><g transform="translate(597.5409352612343 553.75) rotate(0 42.587974548339844 11.25)"><text x="42.587974548339844" y="NaN" font-family="Virgil, Segoe UI Emoji" font-size="18px" fill="#ffffff" text-anchor="middle" style="white-space: pre;" direction="ltr">CDN edge</text></g><g stroke-linecap="round"><g transform="translate(166.1289098095741 562.9082026689288) rotate(0 9 0.12697079947577095)"><path d="M-0.48 -0.97 C2.52 -1.02, 14.65 -0.98, 17.57 -0.8 M1.46 1.13 C4.3 1.24, 13.41 0.14, 16.4 0.18" stroke="#3fb950" stroke-width="2" fill="none"></path></g><g transform="translate(166.1289098095741 562.9082026689288) rotate(0 9 0.12697079947577095)"><path d="M7.39 3.38 C9.53 2.07, 12.42 1.71, 15.67 0.05 M8.06 3.9 C11.08 2.62, 14.66 0.93, 15.99 0.48" stroke="#3fb950" stroke-width="2" fill="none"></path></g><g transform="translate(166.1289098095741 562.9082026689288) rotate(0 9 0.12697079947577095)"><path d="M7.07 -2.77 C9.27 -2.44, 12.25 -1.18, 15.67 0.05 M7.74 -2.24 C10.88 -1.23, 14.58 -0.61, 15.99 0.48" stroke="#3fb950" stroke-width="2" fill="none"></path></g></g><g stroke-linecap="round"><g transform="translate(526.1289098095741 562.7560105870471) rotate(0 9 -0.15525393642508334)"><path d="M0.79 0.53 C3.63 0.38, 14.97 0.18, 17.96 0.02 M-0.26 -0.23 C2.34 -0.85, 13.88 -2.11, 16.99 -1.93" stroke="#3fb950" stroke-width="2" fill="none"></path></g><g transform="translate(526.1289098095741 562.7560105870471) rotate(0 9 -0.15525393642508334)"><path d="M9.05 1.43 C12.02 0.68, 14.86 -1.21, 17.32 -2.3 M8.61 1.65 C11.21 0.23, 13.47 -0.86, 16.76 -1.65" stroke="#3fb950" stroke-width="2" fill="none"></path></g><g transform="translate(526.1289098095741 562.7560105870471) rotate(0 9 -0.15525393642508334)"><path d="M8.82 -4.72 C11.93 -3.15, 14.85 -2.71, 17.32 -2.3 M8.38 -4.5 C11.08 -4.05, 13.42 -3.26, 16.76 -1.65" stroke="#3fb950" stroke-width="2" fill="none"></path></g></g><g stroke-linecap="round" transform="translate(760.1289098095741 535) rotate(0 100 30)"><path d="M0.95 -0.23 L200.82 -0.13 L200.51 60.33 L1.72 59.34" stroke="none" stroke-width="0" fill="#3a5d1d"></path><path d="M1.57 0.77 C71.66 -0.49, 140.4 -2.66, 198.43 1.38 M-0.52 0.82 C68.59 0.65, 137.14 0.55, 199.35 0.15 M198.87 0.83 C198.04 21.17, 199.62 41.45, 200.36 60.75 M199.94 0.73 C200.7 16.56, 200.74 30.98, 199.89 59.82 M199 59.71 C145.96 60.88, 90.74 59.01, -1.34 58.59 M199.38 60.43 C125.82 59.92, 52.47 59.67, -0.17 60.87 M1.77 60.51 C-0.28 42.4, 1.51 25.51, 1.28 0.34 M-0.09 59.32 C0.68 44.46, 1.1 27.78, 0.55 -0.76" stroke="#6dbf3a" stroke-width="2" fill="none"></path></g><g transform="translate(839.2289235424843 551.25) rotate(0 20.899986267089844 13.75)"><text x="20.899986267089844" y="NaN" font-family="Virgil, Segoe UI Emoji" font-size="22px" fill="#ffffff" text-anchor="middle" style="white-space: pre;" direction="ltr">HIT</text></g><g stroke-linecap="round"><g transform="translate(736.1289098095741 565.006) rotate(0 9 0)"><path d="M0.43 0.84 C3.46 1.03, 15.06 0.8, 17.93 0.63 M-0.81 0.24 C2.09 0.12, 14.03 -1.29, 16.95 -1.16" stroke="#3fb950" stroke-width="2" fill="none"></path></g><g transform="translate(736.1289098095741 565.006) rotate(0 9 0)"><path d="M9.28 2.27 C11.42 1.09, 13.1 -0.03, 16.52 -0.73 M8.94 2.28 C11.3 1.05, 14.07 0.02, 16.51 -0.79" stroke="#3fb950" stroke-width="2" fill="none"></path></g><g transform="translate(736.1289098095741 565.006) rotate(0 9 0)"><path d="M8.99 -3.87 C11.19 -3.37, 12.94 -2.79, 16.52 -0.73 M8.64 -3.87 C11.04 -3.26, 13.91 -2.46, 16.51 -0.79" stroke="#3fb950" stroke-width="2" fill="none"></path></g></g><g stroke-linecap="round" transform="translate(980.1289098095741 535) rotate(0 212.75927205844778 120)"><path d="M-1.32 -1.4 L426.03 0.94 L427.31 241.27 L-1.09 238.47" stroke="none" stroke-width="0" fill="#21262d"></path><path d="M-0.37 -0.6 C139.77 -1.26, 279.24 -0.19, 425.53 0.96 M0.25 0.23 C123.63 -0.67, 247.64 -0.75, 425.28 0.13 M426.71 0.12 C425.91 55.88, 427.33 113.82, 424.25 239.48 M426.23 0.09 C424.12 70.51, 424.37 138.64, 426.1 239.54 M426.2 240.9 C290.03 239.53, 154 239.38, -1 240.01 M425.66 240.26 C260.61 239.9, 94.76 239.35, 0.17 239.99 M1.34 239.8 C0.28 177.07, -0.2 115.22, 1.24 -1.65 M-0.77 239.31 C0.74 183.52, 1.1 127.7, -0.47 -0.76" stroke="#3fb950" stroke-width="2" fill="none"></path></g><g transform="translate(992.1289098095741 545) rotate(0 123.50086975097656 8.75)"><text x="0" y="NaN" font-family="Virgil, Segoe UI Emoji" font-size="14px" fill="#3fb950" text-anchor="start" style="white-space: pre;" direction="ltr">Persisted-query registry (build time)</text></g><g transform="translate(992.1289098095741 573) rotate(0 35.749969482421875 8.125)"><text x="0" y="NaN" font-family="Virgil, Segoe UI Emoji" font-size="13px" fill="#8b949e" text-anchor="start" style="white-space: pre;" direction="ltr">Hash (8 B)</text></g><g transform="translate(1110.128909809574 573) rotate(0 42.405967712402344 8.125)"><text x="0" y="NaN" font-family="Virgil, Segoe UI Emoji" font-size="13px" fill="#8b949e" text-anchor="start" style="white-space: pre;" direction="ltr">Query (2 KB)</text></g><g transform="translate(992.1289098095741 605) rotate(0 34.492469787597656 9.375)"><text x="0" y="NaN" font-family="Virgil, Segoe UI Emoji" font-size="15px" fill="#58a6ff" text-anchor="start" style="white-space: pre;" direction="ltr">abc12345</text></g><g transform="translate(1110.128909809574 605) rotate(0 136.2838592529297 7.5)"><text x="0" y="NaN" font-family="Virgil, Segoe UI Emoji" font-size="12px" fill="#c9d1d9" text-anchor="start" style="white-space: pre;" direction="ltr">query getUserFeed($u){ user(... 8 fields ...) }</text></g><g transform="translate(992.1289098095741 655) rotate(0 36.314964294433594 9.375)"><text x="0" y="NaN" font-family="Virgil, Segoe UI Emoji" font-size="15px" fill="#58a6ff" text-anchor="start" style="white-space: pre;" direction="ltr">def67890</text></g><g transform="translate(1110.128909809574 655) rotate(0 140.47784423828125 7.5)"><text x="0" y="NaN" font-family="Virgil, Segoe UI Emoji" font-size="12px" fill="#c9d1d9" text-anchor="start" style="white-space: pre;" direction="ltr">query searchPosts($q){ posts(... 14 fields ...) }</text></g><g transform="translate(992.1289098095741 705) rotate(0 34.124969482421875 9.375)"><text x="0" y="NaN" font-family="Virgil, Segoe UI Emoji" font-size="15px" fill="#58a6ff" text-anchor="start" style="white-space: pre;" direction="ltr">a1b2c3d4</text></g><g transform="translate(1110.128909809574 705) rotate(0 136.4218292236328 7.5)"><text x="0" y="NaN" font-family="Virgil, Segoe UI Emoji" font-size="12px" fill="#c9d1d9" text-anchor="start" style="white-space: pre;" direction="ltr">query topicGraph($t){ topic(... 22 fields ...) }</text></g><g stroke-linecap="round" transform="translate(62.27532899779408 665) rotate(0 448.92679040589 70)"><path d="M-0.45 0.52 L899.6 -0.29 L899.17 141.12 L-1.54 140.75" stroke="none" stroke-width="0" fill="#3a5d1d"></path><path d="M0.57 -0.05 C294.39 2.75, 589.29 4.06, 898.34 -0.24 M-0.24 -0.2 C318.17 2.11, 636.43 1.95, 897.89 0.27 M897.4 0.93 C895.37 48.47, 895.28 100.21, 896.31 139.19 M897.1 -0.65 C898.15 46.75, 898.58 94.03, 897.76 139.12 M898.64 139.91 C549.12 140.1, 199.05 139.76, 0.41 139.23 M897.65 140.15 C654.41 137.01, 410.79 136.46, -0.32 139.85 M0.89 141.91 C-0.97 105.34, 0.57 72.96, 1.4 1.14 M-0.5 140.06 C0.22 99.48, 0.37 58.37, -0.07 0.81" stroke="#6dbf3a" stroke-width="2" fill="none"></path></g><g transform="translate(91.12890980957411 675.120593047666) rotate(0 71.02396392822266 10)"><text x="0" y="NaN" font-family="Virgil, Segoe UI Emoji" font-size="16px" fill="#3fb950" text-anchor="start" style="white-space: pre;" direction="ltr">Why it caches now</text></g><g stroke-linecap="round" transform="translate(91.12890980957411 715.120593047666) rotate(0 350 10)"><path d="M0.02 0.1 L701.53 1.6 L700.08 18.95 L0.9 19.8" stroke="none" stroke-width="0" fill="#4a1219"></path><path d="M-0.13 -0.74 C160.16 0.87, 320.55 2.04, 700.23 -0.21 M0.35 0.33 C240.61 -0.59, 480.84 -0.82, 700.34 0.15 M701.03 0.38 C698.32 8.3, 699.15 15.45, 698.18 20.92 M700.84 -0.51 C700.74 3.85, 700.28 9.59, 699.47 19.33 M699.67 20.44 C437.08 16.71, 174.61 16.77, 0.58 19.77 M699.93 20.18 C553.31 21.46, 407.23 21.85, -0.28 19.81 M-0.32 20.08 C1.99 15.08, 0.22 10.08, 0.73 -1.49 M0.99 19.75 C0.72 12.24, 0.79 6.49, -0.12 0.41" stroke="#f85149" stroke-width="1" fill="none"></path></g><g transform="translate(805.1289098095741 715.120593047666) rotate(0 71.95995330810547 8.75)"><text x="0" y="NaN" font-family="Virgil, Segoe UI Emoji" font-size="14px" fill="#f85149" text-anchor="start" style="white-space: pre;" direction="ltr">2 KB body  (opaque)</text></g><g stroke-linecap="round" transform="translate(91.12890980957411 760.2453444762862) rotate(0 15 10)"><path d="M0.27 -0.66 L29.07 -0.23 L29.63 21.78 L1.56 19.66" stroke="none" stroke-width="0" fill="#3a5d1d"></path><path d="M-1.49 -0.19 C8.26 1.04, 15 0.04, 29.42 -0.22 M0.95 0.82 C8.72 -0.11, 18.88 0.33, 29.97 0.35 M28.18 0.2 C29.54 5.79, 28.93 9.52, 31.5 18.16 M29.01 0.71 C30.32 4.18, 29.88 7.62, 30.39 19.85 M30.98 18.9 C20.07 18.43, 8.71 21.53, -0.29 20.77 M29.54 19.71 C22.15 19.36, 13.9 19.63, 0.66 19.37 M0.99 18.62 C-0.73 10.41, 0.15 5.19, -1.7 -0.3 M0.49 19.85 C0.55 12.12, -0.21 3.7, -0.28 -0.35" stroke="#3fb950" stroke-width="1" fill="none"></path></g><g transform="translate(135.1289098095741 760.2453444762862) rotate(0 149.04388427734375 8.75)"><text x="0" y="NaN" font-family="Virgil, Segoe UI Emoji" font-size="14px" fill="#3fb950" text-anchor="start" style="white-space: pre;" direction="ltr">8 B hash  (URL-safe -&gt; stable cache key)</text></g></svg>