<svg version="1.1" xmlns="http://www.w3.org/2000/svg" viewBox="0 0 1435 845" width="1435" height="845">
  <!-- svg-source:excalidraw -->
  
  <defs>
    <style>
      @font-face {
        font-family: "Virgil";
        src: url("https://excalidraw.com/Virgil.woff2");
      }
      @font-face {
        font-family: "Cascadia";
        src: url("https://excalidraw.com/Cascadia.woff2");
      }
    </style>
  </defs>
  <rect x="0" y="0" width="1435" height="845" fill="#0d1117"></rect><g transform="translate(10 10) rotate(0 377.0098876953125 18.75)"><text x="0" y="NaN" font-family="Virgil, Segoe UI Emoji" font-size="30px" fill="#ff8c42" text-anchor="start" style="white-space: pre;" direction="ltr">Why GraphQL Exists -- the REST pains it removes</text></g><g transform="translate(10 53) rotate(0 354.56378173828125 11.25)"><text x="0" y="NaN" font-family="Virgil, Segoe UI Emoji" font-size="18px" fill="#c9d1d9" text-anchor="start" style="white-space: pre;" direction="ltr">3 round trips and 45 wasted fields collapse to 1 round trip with 6 tight fields.</text></g><g stroke-opacity="0.6" fill-opacity="0.6" stroke-linecap="round" transform="translate(10 115) rotate(0 330 360)"><path d="M0.3 1.64 L660.33 -1.22 L658.09 719.03 L0.19 720.34" stroke="none" stroke-width="0" fill="#161b22"></path><path d="M-0.77 0.21 C262.87 -0.2, 527.18 -0.32, 659.46 0.8 M659.32 0.72 C658.48 151.48, 658.44 303.27, 660.14 719.73 M660.54 720.51 C457.31 716.97, 254.74 717.28, 0.7 720.41 M0.32 719.67 C1.51 504.65, 1.35 289.98, -0.26 -0.46" stroke="#30363d" stroke-width="2.5" fill="none" stroke-dasharray="8 10"></path></g><g transform="translate(30 131) rotate(0 242.23089599609375 13.75)"><text x="0" y="NaN" font-family="Virgil, Segoe UI Emoji" font-size="22px" fill="#f85149" text-anchor="start" style="white-space: pre;" direction="ltr">REST -- 3 round trips, mostly wasted bytes</text></g><g transform="translate(30 163) rotate(0 289.3497314453125 9.375)"><text x="0" y="NaN" font-family="Virgil, Segoe UI Emoji" font-size="15px" fill="#8b949e" text-anchor="start" style="white-space: pre;" direction="ltr">Mobile profile screen needs: name, avatar, last 3 post titles, comment counts</text></g><g stroke-linecap="round" transform="translate(30 205) rotate(0 310 16)"><path d="M-0.94 -0.77 L621.64 1.22 L620.36 30.15 L-0.03 30.71" stroke="none" stroke-width="0" fill="#4a1219"></path><path d="M0.03 -0.39 C163.95 -2.81, 329.97 -2.37, 620.63 -0.31 M0.24 0.02 C191.24 0.56, 382.83 0.36, 620.07 0.25 M619.37 1.58 C621.14 13.89, 621.02 25.94, 621.03 32.05 M620.51 -0.84 C619.45 8.65, 619.77 17.68, 619.74 31.67 M620.59 31.23 C435.41 29.77, 252.81 29.59, 0.12 31.54 M620.25 31.77 C469.55 34.2, 319.41 33.85, -0.21 32.38 M1.85 33.23 C-0.95 21.35, -0.49 11.79, 0.58 0.92 M0.5 32.9 C0.18 24.73, 0.79 19.43, -0.74 0.53" stroke="#f85149" stroke-width="2" fill="none"></path></g><g transform="translate(278.08756256103516 211.625) rotate(0 61.912437438964844 9.375)"><text x="61.912437438964844" y="NaN" font-family="Virgil, Segoe UI Emoji" font-size="15px" fill="#ffffff" text-anchor="middle" style="white-space: pre;" direction="ltr">GET /users/{id}</text></g><g stroke-linecap="round" transform="translate(30 243) rotate(0 310 64)"><path d="M-1.36 -1.41 L620.38 -0.38 L621.98 129.22 L-1.13 127.98" stroke="none" stroke-width="0" fill="#21262d"></path><path d="M-0.58 -0.11 C225.34 0.41, 450.96 -0.73, 620.51 0.79 M0.2 -0.17 C188.01 1.67, 375.69 1.41, 620.4 -0.12 M618.98 1.66 C622.76 27.7, 620.65 50.67, 618.54 129.97 M620.54 0.31 C621.41 30.01, 620.52 59.69, 620.85 128.81 M619.55 127.85 C489.34 130.17, 357.66 129.21, -0.63 127.95 M619.79 128.01 C472.01 126.71, 323.99 126.41, 0.12 127.66 M0.52 127 C-1.87 85.65, -0.38 43.58, 1.85 -1.62 M0.37 128.2 C-0.65 92.61, 0.79 58.48, -0.98 -0.13" stroke="#f85149" stroke-width="1" fill="none"></path></g><g transform="translate(40 249) rotate(0 57.845924377441406 7.5)"><text x="0" y="NaN" font-family="Virgil, Segoe UI Emoji" font-size="12px" fill="#8b949e" text-anchor="start" style="white-space: pre;" direction="ltr">Response (15 fields)</text></g><g transform="translate(40 267) rotate(0 10.727989196777344 7.5)"><text x="0" y="NaN" font-family="Virgil, Segoe UI Emoji" font-size="12px" fill="#f85149" text-anchor="start" style="white-space: pre;" direction="ltr">  id</text></g><g transform="translate(240 267) rotate(0 19.883987426757812 7.5)"><text x="0" y="NaN" font-family="Virgil, Segoe UI Emoji" font-size="12px" fill="#3fb950" text-anchor="start" style="white-space: pre;" direction="ltr">  name</text></g><g transform="translate(440 267) rotate(0 19.973983764648438 7.5)"><text x="0" y="NaN" font-family="Virgil, Segoe UI Emoji" font-size="12px" fill="#f85149" text-anchor="start" style="white-space: pre;" direction="ltr">  email</text></g><g transform="translate(40 287) rotate(0 27.113983154296875 7.5)"><text x="0" y="NaN" font-family="Virgil, Segoe UI Emoji" font-size="12px" fill="#3fb950" text-anchor="start" style="white-space: pre;" direction="ltr">  avatar</text></g><g transform="translate(240 287) rotate(0 36.28797149658203 7.5)"><text x="0" y="NaN" font-family="Virgil, Segoe UI Emoji" font-size="12px" fill="#f85149" text-anchor="start" style="white-space: pre;" direction="ltr">  createdAt</text></g><g transform="translate(440 287) rotate(0 37.1939697265625 7.5)"><text x="0" y="NaN" font-family="Virgil, Segoe UI Emoji" font-size="12px" fill="#f85149" text-anchor="start" style="white-space: pre;" direction="ltr">  updatedAt</text></g><g transform="translate(40 307) rotate(0 13.685989379882812 7.5)"><text x="0" y="NaN" font-family="Virgil, Segoe UI Emoji" font-size="12px" fill="#f85149" text-anchor="start" style="white-space: pre;" direction="ltr">  bio</text></g><g transform="translate(240 307) rotate(0 30.623977661132812 7.5)"><text x="0" y="NaN" font-family="Virgil, Segoe UI Emoji" font-size="12px" fill="#f85149" text-anchor="start" style="white-space: pre;" direction="ltr">  timezone</text></g><g transform="translate(440 307) rotate(0 22.775978088378906 7.5)"><text x="0" y="NaN" font-family="Virgil, Segoe UI Emoji" font-size="12px" fill="#f85149" text-anchor="start" style="white-space: pre;" direction="ltr">  locale</text></g><g transform="translate(40 327) rotate(0 21.329978942871094 7.5)"><text x="0" y="NaN" font-family="Virgil, Segoe UI Emoji" font-size="12px" fill="#f85149" text-anchor="start" style="white-space: pre;" direction="ltr">  phone</text></g><g transform="translate(240 327) rotate(0 29.207969665527344 7.5)"><text x="0" y="NaN" font-family="Virgil, Segoe UI Emoji" font-size="12px" fill="#f85149" text-anchor="start" style="white-space: pre;" direction="ltr">  address</text></g><g transform="translate(440 327) rotate(0 48.281951904296875 7.5)"><text x="0" y="NaN" font-family="Virgil, Segoe UI Emoji" font-size="12px" fill="#f85149" text-anchor="start" style="white-space: pre;" direction="ltr">  followersCount</text></g><g transform="translate(40 347) rotate(0 46.28395080566406 7.5)"><text x="0" y="NaN" font-family="Virgil, Segoe UI Emoji" font-size="12px" fill="#f85149" text-anchor="start" style="white-space: pre;" direction="ltr">  followingCount</text></g><g transform="translate(240 347) rotate(0 38.97596740722656 7.5)"><text x="0" y="NaN" font-family="Virgil, Segoe UI Emoji" font-size="12px" fill="#f85149" text-anchor="start" style="white-space: pre;" direction="ltr">  postsCount</text></g><g transform="translate(440 347) rotate(0 17.339981079101562 7.5)"><text x="0" y="NaN" font-family="Virgil, Segoe UI Emoji" font-size="12px" fill="#f85149" text-anchor="start" style="white-space: pre;" direction="ltr">  plan</text></g><g transform="translate(480 211) rotate(0 44.791481018066406 8.125)"><text x="0" y="NaN" font-family="Virgil, Segoe UI Emoji" font-size="13px" fill="#ffffff" text-anchor="start" style="white-space: pre;" direction="ltr">~200ms RTT</text></g><g stroke-linecap="round" transform="translate(30 399) rotate(0 310 16)"><path d="M-1.23 0.95 L618.42 -0.98 L618.11 31.51 L-0.17 31.2" stroke="none" stroke-width="0" fill="#4a1219"></path><path d="M0.53 0.59 C243.49 -1.37, 487.02 0, 619.59 0.6 M-0.15 -0.15 C213.04 0.54, 425.74 0.05, 619.84 0.02 M619.89 -0.29 C618.78 9.04, 620.61 20.88, 620.57 30.84 M619.34 0.91 C620.18 7.84, 620.87 15.95, 619.62 31.94 M619.68 32.51 C403.71 32.17, 187.16 31.88, 0.15 31.87 M620.27 31.9 C469.7 31.98, 320.04 31.71, -0.26 32.28 M-0.03 30.37 C1.43 23.74, -1.26 12.67, 0.79 0.75 M0.7 31.11 C-0.74 25.31, -0.59 18.27, -0.18 1" stroke="#f85149" stroke-width="2" fill="none"></path></g><g transform="translate(226.63011932373047 405.625) rotate(0 113.36988067626953 9.375)"><text x="113.36988067626953" y="NaN" font-family="Virgil, Segoe UI Emoji" font-size="15px" fill="#ffffff" text-anchor="middle" style="white-space: pre;" direction="ltr">GET /users/{id}/posts?limit=3</text></g><g stroke-linecap="round" transform="translate(30 437) rotate(0 310 64)"><path d="M-1.62 0.19 L620.78 1.92 L621.38 127.78 L0.12 126.2" stroke="none" stroke-width="0" fill="#21262d"></path><path d="M-0.04 -0.73 C133.57 -0.43, 268.06 -0.19, 620.72 -0.44 M0.06 -0.09 C147.28 -0.46, 294.55 -0.87, 619.64 0.15 M618.31 0.61 C619.64 34.86, 621.2 66.31, 621.67 128.35 M620.64 -0.62 C619.21 41.99, 618.51 83.36, 620.59 127.51 M619.79 128.28 C391.38 127.54, 163.94 127.57, 0.16 127.38 M619.9 127.62 C450.2 128.19, 280.63 128.29, -0.18 127.73 M0.77 126.93 C-0.38 82.42, -0.14 31.26, -0.62 0.58 M-0.77 127.88 C-1.86 83.27, -0.51 38.49, 0.59 -0.34" stroke="#f85149" stroke-width="1" fill="none"></path></g><g transform="translate(40 443) rotate(0 57.845924377441406 7.5)"><text x="0" y="NaN" font-family="Virgil, Segoe UI Emoji" font-size="12px" fill="#8b949e" text-anchor="start" style="white-space: pre;" direction="ltr">Response (15 fields)</text></g><g transform="translate(40 461) rotate(0 10.727989196777344 7.5)"><text x="0" y="NaN" font-family="Virgil, Segoe UI Emoji" font-size="12px" fill="#f85149" text-anchor="start" style="white-space: pre;" direction="ltr">  id</text></g><g transform="translate(240 461) rotate(0 18.95398712158203 7.5)"><text x="0" y="NaN" font-family="Virgil, Segoe UI Emoji" font-size="12px" fill="#3fb950" text-anchor="start" style="white-space: pre;" direction="ltr">  title</text></g><g transform="translate(440 461) rotate(0 18.59998321533203 7.5)"><text x="0" y="NaN" font-family="Virgil, Segoe UI Emoji" font-size="12px" fill="#f85149" text-anchor="start" style="white-space: pre;" direction="ltr">  body</text></g><g transform="translate(40 481) rotate(0 32.35197448730469 7.5)"><text x="0" y="NaN" font-family="Virgil, Segoe UI Emoji" font-size="12px" fill="#f85149" text-anchor="start" style="white-space: pre;" direction="ltr">  authorId</text></g><g transform="translate(240 481) rotate(0 36.28797149658203 7.5)"><text x="0" y="NaN" font-family="Virgil, Segoe UI Emoji" font-size="12px" fill="#f85149" text-anchor="start" style="white-space: pre;" direction="ltr">  createdAt</text></g><g transform="translate(440 481) rotate(0 37.1939697265625 7.5)"><text x="0" y="NaN" font-family="Virgil, Segoe UI Emoji" font-size="12px" fill="#f85149" text-anchor="start" style="white-space: pre;" direction="ltr">  updatedAt</text></g><g transform="translate(40 501) rotate(0 19.655990600585938 7.5)"><text x="0" y="NaN" font-family="Virgil, Segoe UI Emoji" font-size="12px" fill="#f85149" text-anchor="start" style="white-space: pre;" direction="ltr">  tags</text></g><g transform="translate(240 501) rotate(0 17.249984741210938 7.5)"><text x="0" y="NaN" font-family="Virgil, Segoe UI Emoji" font-size="12px" fill="#f85149" text-anchor="start" style="white-space: pre;" direction="ltr">  slug</text></g><g transform="translate(440 501) rotate(0 46.19396209716797 7.5)"><text x="0" y="NaN" font-family="Virgil, Segoe UI Emoji" font-size="12px" fill="#f85149" text-anchor="start" style="white-space: pre;" direction="ltr">  commentCount</text></g><g transform="translate(40 521) rotate(0 31.88397216796875 7.5)"><text x="0" y="NaN" font-family="Virgil, Segoe UI Emoji" font-size="12px" fill="#f85149" text-anchor="start" style="white-space: pre;" direction="ltr">  likeCount</text></g><g transform="translate(240 521) rotate(0 38.87397003173828 7.5)"><text x="0" y="NaN" font-family="Virgil, Segoe UI Emoji" font-size="12px" fill="#f85149" text-anchor="start" style="white-space: pre;" direction="ltr">  shareCount</text></g><g transform="translate(440 521) rotate(0 34.17597198486328 7.5)"><text x="0" y="NaN" font-family="Virgil, Segoe UI Emoji" font-size="12px" fill="#f85149" text-anchor="start" style="white-space: pre;" direction="ltr">  viewCount</text></g><g transform="translate(40 541) rotate(0 22.301979064941406 7.5)"><text x="0" y="NaN" font-family="Virgil, Segoe UI Emoji" font-size="12px" fill="#f85149" text-anchor="start" style="white-space: pre;" direction="ltr">  draft</text></g><g transform="translate(240 541) rotate(0 22.57196807861328 7.5)"><text x="0" y="NaN" font-family="Virgil, Segoe UI Emoji" font-size="12px" fill="#f85149" text-anchor="start" style="white-space: pre;" direction="ltr">  pinned</text></g><g transform="translate(440 541) rotate(0 38.69396209716797 7.5)"><text x="0" y="NaN" font-family="Virgil, Segoe UI Emoji" font-size="12px" fill="#f85149" text-anchor="start" style="white-space: pre;" direction="ltr">  coverImage</text></g><g transform="translate(480 405) rotate(0 44.791481018066406 8.125)"><text x="0" y="NaN" font-family="Virgil, Segoe UI Emoji" font-size="13px" fill="#ffffff" text-anchor="start" style="white-space: pre;" direction="ltr">~200ms RTT</text></g><g stroke-linecap="round" transform="translate(30 593) rotate(0 310 16)"><path d="M1.47 1.26 L619.3 -1.56 L619.7 33.4 L-1.81 32.58" stroke="none" stroke-width="0" fill="#4a1219"></path><path d="M0.56 -0.04 C171.02 -1.1, 341.07 -1.24, 619.62 0.38 M0.25 -0.04 C185.2 -2.01, 370.53 -2, 619.61 0.32 M620.44 -1.95 C618.21 5.54, 618.24 12.96, 621.99 30.79 M620.92 -0.2 C620.72 9.29, 619.94 17.48, 620.37 32.31 M619.22 32.19 C476.51 33.24, 332.92 33.97, 0.22 32.24 M619.9 32.24 C479.74 33.76, 339.37 33.8, 0.03 32.36 M1.94 33.58 C1.49 19.72, -0.67 8.2, 1.33 0.45 M0.19 31.58 C-0.29 23.66, 0.13 16.55, -0.49 0.29" stroke="#f85149" stroke-width="2" fill="none"></path></g><g transform="translate(197.74761962890625 599.625) rotate(0 142.25238037109375 9.375)"><text x="142.25238037109375" y="NaN" font-family="Virgil, Segoe UI Emoji" font-size="15px" fill="#ffffff" text-anchor="middle" style="white-space: pre;" direction="ltr">GET /posts/{id}/comments?count_only</text></g><g stroke-linecap="round" transform="translate(30 631) rotate(0 310 64)"><path d="M-1.16 0.47 L620.8 -0.55 L621.78 129.03 L-1.64 126.85" stroke="none" stroke-width="0" fill="#21262d"></path><path d="M-0.28 0.04 C147.27 0.25, 293.8 -0.8, 620.78 -0.72 M-0.13 -0.17 C150.42 -0.64, 300.6 -0.74, 619.79 -0.21 M620.04 -1.04 C619.75 42.04, 621.57 88.59, 621.01 128.37 M620.46 -0.88 C620.66 30.84, 619.77 61.58, 620.77 128.13 M620.23 128.59 C436.87 126.42, 255.36 125.72, 0.68 127.96 M619.6 128.37 C444.46 127.07, 268.54 127.22, -0.23 128.3 M0.29 128.06 C1.58 82.97, -0.09 40.99, 1.26 1.45 M-0.71 127.79 C1.86 90.27, 0.28 54.43, 0.35 -0.27" stroke="#f85149" stroke-width="1" fill="none"></path></g><g transform="translate(40 637) rotate(0 57.845924377441406 7.5)"><text x="0" y="NaN" font-family="Virgil, Segoe UI Emoji" font-size="12px" fill="#8b949e" text-anchor="start" style="white-space: pre;" direction="ltr">Response (15 fields)</text></g><g transform="translate(40 655) rotate(0 10.727989196777344 7.5)"><text x="0" y="NaN" font-family="Virgil, Segoe UI Emoji" font-size="12px" fill="#f85149" text-anchor="start" style="white-space: pre;" direction="ltr">  id</text></g><g transform="translate(240 655) rotate(0 25.613975524902344 7.5)"><text x="0" y="NaN" font-family="Virgil, Segoe UI Emoji" font-size="12px" fill="#f85149" text-anchor="start" style="white-space: pre;" direction="ltr">  postId</text></g><g transform="translate(440 655) rotate(0 32.35197448730469 7.5)"><text x="0" y="NaN" font-family="Virgil, Segoe UI Emoji" font-size="12px" fill="#f85149" text-anchor="start" style="white-space: pre;" direction="ltr">  authorId</text></g><g transform="translate(40 675) rotate(0 18.59998321533203 7.5)"><text x="0" y="NaN" font-family="Virgil, Segoe UI Emoji" font-size="12px" fill="#f85149" text-anchor="start" style="white-space: pre;" direction="ltr">  body</text></g><g transform="translate(240 675) rotate(0 36.28797149658203 7.5)"><text x="0" y="NaN" font-family="Virgil, Segoe UI Emoji" font-size="12px" fill="#f85149" text-anchor="start" style="white-space: pre;" direction="ltr">  createdAt</text></g><g transform="translate(440 675) rotate(0 37.1939697265625 7.5)"><text x="0" y="NaN" font-family="Virgil, Segoe UI Emoji" font-size="12px" fill="#f85149" text-anchor="start" style="white-space: pre;" direction="ltr">  updatedAt</text></g><g transform="translate(40 695) rotate(0 31.697967529296875 7.5)"><text x="0" y="NaN" font-family="Virgil, Segoe UI Emoji" font-size="12px" fill="#f85149" text-anchor="start" style="white-space: pre;" direction="ltr">  parentId</text></g><g transform="translate(240 695) rotate(0 31.421974182128906 7.5)"><text x="0" y="NaN" font-family="Virgil, Segoe UI Emoji" font-size="12px" fill="#f85149" text-anchor="start" style="white-space: pre;" direction="ltr">  editedAt</text></g><g transform="translate(440 695) rotate(0 32.963966369628906 7.5)"><text x="0" y="NaN" font-family="Virgil, Segoe UI Emoji" font-size="12px" fill="#f85149" text-anchor="start" style="white-space: pre;" direction="ltr">  reactions</text></g><g transform="translate(40 715) rotate(0 29.969970703125 7.5)"><text x="0" y="NaN" font-family="Virgil, Segoe UI Emoji" font-size="12px" fill="#f85149" text-anchor="start" style="white-space: pre;" direction="ltr">  mentions</text></g><g transform="translate(240 715) rotate(0 27.20397186279297 7.5)"><text x="0" y="NaN" font-family="Virgil, Segoe UI Emoji" font-size="12px" fill="#f85149" text-anchor="start" style="white-space: pre;" direction="ltr">  flagged</text></g><g transform="translate(440 715) rotate(0 31.655960083007812 7.5)"><text x="0" y="NaN" font-family="Virgil, Segoe UI Emoji" font-size="12px" fill="#f85149" text-anchor="start" style="white-space: pre;" direction="ltr">  approved</text></g><g transform="translate(40 735) rotate(0 49.19996643066406 7.5)"><text x="0" y="NaN" font-family="Virgil, Segoe UI Emoji" font-size="12px" fill="#3fb950" text-anchor="start" style="white-space: pre;" direction="ltr">  totalComments</text></g><g transform="translate(240 735) rotate(0 41.42395782470703 7.5)"><text x="0" y="NaN" font-family="Virgil, Segoe UI Emoji" font-size="12px" fill="#f85149" text-anchor="start" style="white-space: pre;" direction="ltr">  totalReplies</text></g><g transform="translate(440 735) rotate(0 42.41996765136719 7.5)"><text x="0" y="NaN" font-family="Virgil, Segoe UI Emoji" font-size="12px" fill="#f85149" text-anchor="start" style="white-space: pre;" direction="ltr">  threadCount</text></g><g transform="translate(480 599) rotate(0 44.791481018066406 8.125)"><text x="0" y="NaN" font-family="Virgil, Segoe UI Emoji" font-size="13px" fill="#ffffff" text-anchor="start" style="white-space: pre;" direction="ltr">~200ms RTT</text></g><g transform="translate(30 797) rotate(0 274.0313720703125 10.625)"><text x="0" y="NaN" font-family="Virgil, Segoe UI Emoji" font-size="17px" fill="#f85149" text-anchor="start" style="white-space: pre;" direction="ltr">Total: 3 RTT x 200ms = 600 ms     Used 6 / 45 fields (13%)</text></g><g stroke-opacity="0.6" fill-opacity="0.6" stroke-linecap="round" transform="translate(765 115) rotate(0 330 360)"><path d="M-1.01 -1.37 L659.21 -1.86 L658.38 719.38 L0.86 720.51" stroke="none" stroke-width="0" fill="#161b22"></path><path d="M0.38 0.01 C210.84 0.46, 423.61 0.78, 659.64 0.75 M660.74 -0.65 C661.87 225.58, 660.87 450.91, 659.77 720.38 M660.14 719.31 C469.68 719.95, 278.97 720.79, 0.3 720.55 M-0.13 720.07 C-1.39 495.59, -1.13 268.99, 0.25 0.68" stroke="#30363d" stroke-width="2.5" fill="none" stroke-dasharray="8 10"></path></g><g transform="translate(785 131) rotate(0 202.4989013671875 13.75)"><text x="0" y="NaN" font-family="Virgil, Segoe UI Emoji" font-size="22px" fill="#3fb950" text-anchor="start" style="white-space: pre;" direction="ltr">GraphQL -- 1 round trip, exact shape</text></g><g transform="translate(785 163) rotate(0 212.76724243164062 9.375)"><text x="0" y="NaN" font-family="Virgil, Segoe UI Emoji" font-size="15px" fill="#8b949e" text-anchor="start" style="white-space: pre;" direction="ltr">Client describes the shape; server returns precisely that.</text></g><g stroke-linecap="round" transform="translate(785 205) rotate(0 310 18)"><path d="M-0.69 1.12 L621.95 0.08 L621.09 35.83 L-0.23 36.08" stroke="none" stroke-width="0" fill="#3a5d1d"></path><path d="M-0.04 0.49 C233.97 -0.73, 468.19 -0.31, 619.25 -0.62 M0.33 0.31 C125.13 -1.14, 250.19 -0.58, 619.99 -0.38 M620.35 0.94 C621.17 11.1, 620.37 23.3, 621.66 35.93 M620.77 0.37 C619.28 7.76, 619.23 14.65, 619.67 35.54 M619.35 36.19 C389.12 35.57, 157.9 35.2, -0.41 35.5 M620.33 35.9 C466.25 37.71, 312.72 37.85, 0.39 35.77 M0.83 36.73 C1.71 27.85, 0.69 20.56, -1.51 -1.7 M0.14 35.82 C0.35 21.55, -0.43 7.78, 0.31 0.38" stroke="#6dbf3a" stroke-width="2" fill="none"></path></g><g transform="translate(1037.456039428711 213) rotate(0 57.54396057128906 10)"><text x="57.54396057128906" y="NaN" font-family="Virgil, Segoe UI Emoji" font-size="16px" fill="#ffffff" text-anchor="middle" style="white-space: pre;" direction="ltr">POST /graphql</text></g><g transform="translate(1245 213) rotate(0 48.236961364746094 8.75)"><text x="0" y="NaN" font-family="Virgil, Segoe UI Emoji" font-size="14px" fill="#3fb950" text-anchor="start" style="white-space: pre;" direction="ltr">~200ms RTT</text></g><g stroke-linecap="round" transform="translate(785 245) rotate(0 310 113.68512197144767)"><path d="M1.2 1.64 L618.14 1.86 L620.69 227.7 L-1.7 225.38" stroke="none" stroke-width="0" fill="#21262d"></path><path d="M0.18 0.65 C192.91 -1.44, 385.1 -0.89, 619.24 -0.66 M-0.02 -0.29 C164.09 -1, 328.28 -1.05, 619.94 0.04 M620.93 0.33 C622.8 67.73, 620.42 140.04, 619.73 227.31 M619.26 0.11 C621.48 70.84, 621.9 140.71, 620.34 227.81 M620.15 227.22 C471.19 225.72, 323.54 225.26, 0.01 227.33 M620.11 227.4 C386.69 228.17, 153.75 227.87, 0.11 227.52 M-1.29 227.33 C-2.55 172.52, -2.05 119.86, -1.64 0.92 M-0.12 228.22 C0.19 167.92, -0.71 109.14, 0.05 -0.85" stroke="#6dbf3a" stroke-width="1" fill="none"></path></g><g transform="translate(800 260) rotate(0 76.42493438720703 93.75)"><text x="0" y="NaN" font-family="Virgil, Segoe UI Emoji" font-size="15px" fill="#58a6ff" text-anchor="start" style="white-space: pre;" direction="ltr">query {</text><text x="0" y="NaN" font-family="Virgil, Segoe UI Emoji" font-size="15px" fill="#58a6ff" text-anchor="start" style="white-space: pre;" direction="ltr">  user(id: "u_42") {</text><text x="0" y="NaN" font-family="Virgil, Segoe UI Emoji" font-size="15px" fill="#58a6ff" text-anchor="start" style="white-space: pre;" direction="ltr">    name</text><text x="0" y="NaN" font-family="Virgil, Segoe UI Emoji" font-size="15px" fill="#58a6ff" text-anchor="start" style="white-space: pre;" direction="ltr">    avatar</text><text x="0" y="NaN" font-family="Virgil, Segoe UI Emoji" font-size="15px" fill="#58a6ff" text-anchor="start" style="white-space: pre;" direction="ltr">    posts(first: 3) {</text><text x="0" y="NaN" font-family="Virgil, Segoe UI Emoji" font-size="15px" fill="#58a6ff" text-anchor="start" style="white-space: pre;" direction="ltr">      title</text><text x="0" y="NaN" font-family="Virgil, Segoe UI Emoji" font-size="15px" fill="#58a6ff" text-anchor="start" style="white-space: pre;" direction="ltr">      commentCount</text><text x="0" y="NaN" font-family="Virgil, Segoe UI Emoji" font-size="15px" fill="#58a6ff" text-anchor="start" style="white-space: pre;" direction="ltr">    }</text><text x="0" y="NaN" font-family="Virgil, Segoe UI Emoji" font-size="15px" fill="#58a6ff" text-anchor="start" style="white-space: pre;" direction="ltr">  }</text><text x="0" y="NaN" font-family="Virgil, Segoe UI Emoji" font-size="15px" fill="#58a6ff" text-anchor="start" style="white-space: pre;" direction="ltr">}</text></g><g transform="translate(784.8895570312176 520) rotate(0 162.79183959960932 8.75)"><text x="0" y="NaN" font-family="Virgil, Segoe UI Emoji" font-size="14px" fill="#8b949e" text-anchor="start" style="white-space: pre;" direction="ltr">Response (6 fields -- exactly what was asked)</text></g><g stroke-linecap="round" transform="translate(785 545) rotate(0 310 114.0632691544389)"><path d="M-1.9 -1.76 L619.95 -1.86 L621.07 226.58 L0.42 227.73" stroke="none" stroke-width="0" fill="#21262d"></path><path d="M0.74 -0.19 C132.07 1.87, 264 1.68, 619.93 -0.71 M0.22 0.28 C213.83 1.03, 428.49 1.15, 620.09 0.31 M619.99 -1.52 C620.51 64, 619.04 130.18, 618.8 228.94 M620.72 0.81 C620.96 55.42, 621.84 110.46, 619.43 227.41 M620.53 228.39 C484.32 227.22, 349.53 226.43, -0.29 228.64 M620.18 227.9 C478.52 230.39, 337.66 230.64, 0.2 227.73 M-0.53 228 C0.99 157.75, 0.87 84.87, -0.92 0 M0.56 228.14 C1.15 174.86, 0.78 123.02, -0.01 -0.77" stroke="#6dbf3a" stroke-width="1" fill="none"></path></g><g transform="translate(800 554.9418064940228) rotate(0 137.786865234375 105.625)"><text x="0" y="NaN" font-family="Virgil, Segoe UI Emoji" font-size="13px" fill="#3fb950" text-anchor="start" style="white-space: pre;" direction="ltr">{</text><text x="0" y="NaN" font-family="Virgil, Segoe UI Emoji" font-size="13px" fill="#3fb950" text-anchor="start" style="white-space: pre;" direction="ltr">  "data": {</text><text x="0" y="NaN" font-family="Virgil, Segoe UI Emoji" font-size="13px" fill="#3fb950" text-anchor="start" style="white-space: pre;" direction="ltr">    "user": {</text><text x="0" y="NaN" font-family="Virgil, Segoe UI Emoji" font-size="13px" fill="#3fb950" text-anchor="start" style="white-space: pre;" direction="ltr">      "name": "Ada",</text><text x="0" y="NaN" font-family="Virgil, Segoe UI Emoji" font-size="13px" fill="#3fb950" text-anchor="start" style="white-space: pre;" direction="ltr">      "avatar": "...",</text><text x="0" y="NaN" font-family="Virgil, Segoe UI Emoji" font-size="13px" fill="#3fb950" text-anchor="start" style="white-space: pre;" direction="ltr">      "posts": [</text><text x="0" y="NaN" font-family="Virgil, Segoe UI Emoji" font-size="13px" fill="#3fb950" text-anchor="start" style="white-space: pre;" direction="ltr">        { "title": "...", "commentCount": 12 },</text><text x="0" y="NaN" font-family="Virgil, Segoe UI Emoji" font-size="13px" fill="#3fb950" text-anchor="start" style="white-space: pre;" direction="ltr">        { "title": "...", "commentCount": 4 },</text><text x="0" y="NaN" font-family="Virgil, Segoe UI Emoji" font-size="13px" fill="#3fb950" text-anchor="start" style="white-space: pre;" direction="ltr">        { "title": "...", "commentCount": 7 }</text><text x="0" y="NaN" font-family="Virgil, Segoe UI Emoji" font-size="13px" fill="#3fb950" text-anchor="start" style="white-space: pre;" direction="ltr">      ]</text><text x="0" y="NaN" font-family="Virgil, Segoe UI Emoji" font-size="13px" fill="#3fb950" text-anchor="start" style="white-space: pre;" direction="ltr">    }</text><text x="0" y="NaN" font-family="Virgil, Segoe UI Emoji" font-size="13px" fill="#3fb950" text-anchor="start" style="white-space: pre;" direction="ltr">  }</text><text x="0" y="NaN" font-family="Virgil, Segoe UI Emoji" font-size="13px" fill="#3fb950" text-anchor="start" style="white-space: pre;" direction="ltr">}</text></g><g transform="translate(785 800) rotate(0 287.80181884765625 11.25)"><text x="0" y="NaN" font-family="Virgil, Segoe UI Emoji" font-size="18px" fill="#3fb950" text-anchor="start" style="white-space: pre;" direction="ltr">Total: 1 RTT x 200ms = 200 ms     Used 6 / 6 fields (100%)</text></g><g transform="translate(687.8120444442375 425) rotate(0 26.102989196777344 26.25)"><text x="0" y="NaN" font-family="Virgil, Segoe UI Emoji" font-size="42px" fill="#f0b070" text-anchor="start" style="white-space: pre;" direction="ltr">3x</text></g><g transform="translate(688 471) rotate(0 29.14197540283203 11.25)"><text x="0" y="NaN" font-family="Virgil, Segoe UI Emoji" font-size="18px" fill="#f0b070" text-anchor="start" style="white-space: pre;" direction="ltr">faster</text></g></svg>