<svg version="1.1" xmlns="http://www.w3.org/2000/svg" viewBox="0 0 1460 622" width="1460" height="622">
  <!-- svg-source:excalidraw -->
  
  <defs>
    <style>
      @font-face {
        font-family: "Virgil";
        src: url("https://excalidraw.com/Virgil.woff2");
      }
      @font-face {
        font-family: "Cascadia";
        src: url("https://excalidraw.com/Cascadia.woff2");
      }
    </style>
  </defs>
  <rect x="0" y="0" width="1460" height="622" fill="#1e1e2e"></rect><g transform="translate(10 10) rotate(0 313.5 19.950000000000003)"><text x="0" y="NaN" font-family="Virgil, Segoe UI Emoji" font-size="30px" fill="#ffffff" text-anchor="start" style="white-space: pre;" direction="ltr">Complexity Ladder for Platform Choices</text></g><g transform="translate(10 50) rotate(0 389.40000000000003 16)"><text x="0" y="NaN" font-family="Virgil, Segoe UI Emoji" font-size="24px" fill="#cdd6f4" text-anchor="start" style="white-space: pre;" direction="ltr">Each step solves a real pressure and adds operational cost.</text></g><g stroke-linecap="round" transform="translate(30 460) rotate(0 110 45)"><path d="M-1.24 -0.41 L219.43 1.18 L220.06 89.46 L-1.15 91.59" stroke="none" stroke-width="0" fill="#5b21b6"></path><path d="M1.16 0.31 C47.43 -0.61, 96.53 -0.45, 221.43 -0.6 M0.08 -0.24 C69.16 2.62, 138.3 1.28, 219.65 -0.84 M218.5 1.52 C221.84 25.89, 219.44 54.05, 221.14 88.23 M220.2 0.91 C220.01 28.48, 221.26 57.89, 219.54 90.74 M220.41 91.02 C138 89.03, 59.01 88.32, -0.86 89.9 M219.63 90.31 C147.48 91.29, 74.56 90.24, 0.43 89.64 M1.98 90.72 C0.86 64.42, -1.54 42.05, -1.84 1.65 M0.92 89.88 C-0.88 65.42, -0.13 38.43, -0.83 -0.94" stroke="#7c3aed" stroke-width="2" fill="none"></path></g><g transform="translate(48 475) rotate(0 92 30)"><text x="92" y="NaN" font-family="Virgil, Segoe UI Emoji" font-size="24px" fill="#ffffff" text-anchor="middle" style="white-space: pre;" direction="ltr">Single DB</text><text x="92" y="NaN" font-family="Virgil, Segoe UI Emoji" font-size="24px" fill="#ffffff" text-anchor="middle" style="white-space: pre;" direction="ltr">&lt; 5K QPS</text></g><g stroke-linecap="round" transform="translate(270 380) rotate(0 110 55)"><path d="M-0.44 -1.57 L221.52 0.8 L220.57 109.93 L0.7 110.66" stroke="none" stroke-width="0" fill="#1e40af"></path><path d="M-0.82 -1.49 C46.88 0.63, 95.57 -0.75, 220.06 0.08 M0.69 0.21 C79.31 0.65, 157.24 0.06, 220.38 0.46 M221.57 -1.98 C219.18 38.14, 218.16 74.33, 219.92 110.49 M220.79 -0.69 C219.14 28.31, 218.43 57.04, 220.36 109.44 M218.77 110.65 C132.89 108.66, 45.77 110.47, -1.14 109.2 M219.73 110.06 C157.93 110.45, 95.4 110.66, 0.32 109.71 M0.54 110.16 C-0.13 82.84, -1.99 57.36, -0.66 -0.77 M-0.65 109.88 C0.43 86.41, 0.19 63.22, 0.05 -0.96" stroke="#3b82f6" stroke-width="2" fill="none"></path></g><g transform="translate(288 405) rotate(0 92 30)"><text x="92" y="NaN" font-family="Virgil, Segoe UI Emoji" font-size="24px" fill="#ffffff" text-anchor="middle" style="white-space: pre;" direction="ltr">Cache</text><text x="92" y="NaN" font-family="Virgil, Segoe UI Emoji" font-size="24px" fill="#ffffff" text-anchor="middle" style="white-space: pre;" direction="ltr">read pressure</text></g><g stroke-linecap="round" transform="translate(510 300) rotate(0 110 55)"><path d="M0.36 1.28 L219.62 0.42 L221.07 110.4 L-1.44 109.72" stroke="none" stroke-width="0" fill="#2d6a4f"></path><path d="M0.67 0.19 C46.32 -1.59, 94.6 -1.06, 218.68 0.76 M-0.43 0.67 C87.74 -1.32, 176.18 -1.16, 219.38 0.03 M220.65 -1.48 C222.56 40.45, 222.93 78.75, 218.71 108.76 M219.39 -0.29 C220.32 43.63, 219.65 87.18, 219.17 110.15 M220.59 110.28 C168.31 108.28, 117.06 109.16, -1.43 108.5 M219.83 109.81 C168.37 111.35, 117.98 111.09, 0.22 109.79 M-0.9 109.6 C-1 86.68, 1.67 63.52, 0.53 0.82 M-0.21 109.88 C-0.48 73.07, 0.29 35.36, 0.93 -0.99" stroke="#40916c" stroke-width="2" fill="none"></path></g><g transform="translate(528 325) rotate(0 92 30)"><text x="92" y="NaN" font-family="Virgil, Segoe UI Emoji" font-size="24px" fill="#ffffff" text-anchor="middle" style="white-space: pre;" direction="ltr">Replicas</text><text x="92" y="NaN" font-family="Virgil, Segoe UI Emoji" font-size="24px" fill="#ffffff" text-anchor="middle" style="white-space: pre;" direction="ltr">read scale</text></g><g stroke-linecap="round" transform="translate(750 220) rotate(0 110 55)"><path d="M1.16 0.12 L221.71 0.04 L221.58 110.87 L0.41 108.79" stroke="none" stroke-width="0" fill="#b45309"></path><path d="M-1.31 -1.61 C49.24 -0.35, 97.1 -1.36, 220.77 1.44 M0.18 -0.6 C53.89 0.52, 107.12 1.43, 220.1 -0.39 M219.72 -0.98 C219.74 20.76, 221.49 43.17, 221.49 111.02 M219.99 0.11 C221.49 36.96, 220.88 73.33, 219.98 110.85 M218.95 109.91 C163.2 111.37, 103.81 111.3, -1.71 111.27 M219.93 109.56 C134.82 108.43, 50.82 107.7, 0.11 109.86 M1.66 109.03 C-0.08 68.53, -0.87 25.69, 1.71 -1.59 M0.23 109.87 C0.82 79.74, 0.6 51.5, -0.19 0.99" stroke="#d97706" stroke-width="2" fill="none"></path></g><g transform="translate(768 245) rotate(0 92 30)"><text x="92" y="NaN" font-family="Virgil, Segoe UI Emoji" font-size="24px" fill="#ffffff" text-anchor="middle" style="white-space: pre;" direction="ltr">Queue / Stream</text><text x="92" y="NaN" font-family="Virgil, Segoe UI Emoji" font-size="24px" fill="#ffffff" text-anchor="middle" style="white-space: pre;" direction="ltr">async work</text></g><g stroke-linecap="round" transform="translate(990 140) rotate(0 110 55)"><path d="M1.95 -1.04 L219.8 -0.33 L218.09 111.33 L-1.74 111.85" stroke="none" stroke-width="0" fill="#9f1239"></path><path d="M0.17 0.06 C48.69 1.24, 96.13 2.15, 219.4 -1.35 M0.78 -0.14 C62.32 -1.45, 126.06 -1.53, 220.83 -0.82 M218.79 -0.48 C220.93 27.07, 220.06 51.59, 220.27 109.28 M220.58 0.51 C218.47 30.29, 219.9 59.48, 220.8 109.55 M220.77 109.54 C154.63 111, 90.57 109.99, 1.47 110.57 M220.03 109.31 C145.27 109.32, 71.67 108.12, 0 109.93 M0.22 108.47 C-0.95 68.37, -1.21 27.85, -1.11 0 M0.66 109.87 C-0.09 66.4, -1.29 23.65, 0.69 0.96" stroke="#e11d48" stroke-width="2" fill="none"></path></g><g transform="translate(1008 165) rotate(0 92 30)"><text x="92" y="NaN" font-family="Virgil, Segoe UI Emoji" font-size="24px" fill="#ffffff" text-anchor="middle" style="white-space: pre;" direction="ltr">Sharding</text><text x="92" y="NaN" font-family="Virgil, Segoe UI Emoji" font-size="24px" fill="#ffffff" text-anchor="middle" style="white-space: pre;" direction="ltr">write + size</text></g><g stroke-linecap="round" transform="translate(1230 60) rotate(0 110 55)"><path d="M-1.25 1.81 L221.89 -0.71 L218.6 111.8 L0.11 110.92" stroke="none" stroke-width="0" fill="#5b21b6"></path><path d="M1.66 1.73 C48.13 -0.98, 95.16 1.84, 221.49 -0.67 M-0.34 0.31 C72.47 0.4, 145 1.06, 219.82 0.48 M221.87 0.02 C220.31 29.38, 220.82 60.01, 219.05 111.54 M219.18 0.91 C219.65 23.61, 219.13 45.63, 219.61 110.26 M219.13 109.17 C149.52 110.62, 77.33 108.67, 1.19 109.87 M220.12 110.79 C155.71 108.48, 92.51 108.54, -0.1 110 M-1.23 111.91 C2.17 72.22, -1.55 34.01, 0.08 1.59 M-0.9 109.87 C-0.79 75.06, -0.99 39.79, -0.43 0.94" stroke="#7c3aed" stroke-width="2" fill="none"></path></g><g transform="translate(1248 85) rotate(0 92 30)"><text x="92" y="NaN" font-family="Virgil, Segoe UI Emoji" font-size="24px" fill="#ffffff" text-anchor="middle" style="white-space: pre;" direction="ltr">Multi-region</text><text x="92" y="NaN" font-family="Virgil, Segoe UI Emoji" font-size="24px" fill="#ffffff" text-anchor="middle" style="white-space: pre;" direction="ltr">latency / DR</text></g><g stroke-linecap="round"><g transform="translate(250 505) rotate(0 10 -35)"><path d="M0.97 0.21 C4.44 -11.6, 16.96 -58.67, 20.16 -70.39 M0.02 -0.72 C3.4 -12.4, 16.05 -57.7, 19.3 -69.06" stroke="#ff8c42" stroke-width="2" fill="none"></path></g><g transform="translate(250 505) rotate(0 10 -35)"><path d="M21.86 -38.87 C20.2 -46.13, 20.12 -53.12, 20.65 -69.43 M21.48 -39.92 C21.34 -47.95, 20.52 -55.58, 19.27 -69.86" stroke="#ff8c42" stroke-width="2" fill="none"></path></g><g transform="translate(250 505) rotate(0 10 -35)"><path d="M2.11 -44.45 C5.32 -50.5, 10.07 -56.12, 20.65 -69.43 M1.73 -45.5 C6.77 -51.88, 11.09 -58.07, 19.27 -69.86" stroke="#ff8c42" stroke-width="2" fill="none"></path></g></g><g stroke-linecap="round"><g transform="translate(490 435) rotate(0 10 -40)"><path d="M0.01 -0.48 C3.38 -13.81, 16.26 -66.25, 19.54 -79.38 M-1.44 -1.77 C1.78 -15.52, 14.98 -67.94, 18.35 -81.18" stroke="#ff8c42" stroke-width="2" fill="none"></path></g><g transform="translate(490 435) rotate(0 10 -40)"><path d="M20.6 -52.11 C21.51 -59.16, 20.98 -65.03, 16.91 -83.16 M21.71 -50.85 C20.75 -58.91, 19.29 -67.73, 18.74 -80.23" stroke="#ff8c42" stroke-width="2" fill="none"></path></g><g transform="translate(490 435) rotate(0 10 -40)"><path d="M0.71 -57.13 C6.52 -62.96, 10.86 -67.59, 16.91 -83.16 M1.82 -55.88 C6.43 -62.62, 10.57 -70.02, 18.74 -80.23" stroke="#ff8c42" stroke-width="2" fill="none"></path></g></g><g stroke-linecap="round"><g transform="translate(730 355) rotate(0 10 -40)"><path d="M-0.95 -1.16 C2.32 -14.77, 15.56 -67.5, 18.92 -80.78 M0.76 0.84 C4.44 -12.7, 17.58 -66.19, 21.06 -79.65" stroke="#ff8c42" stroke-width="2" fill="none"></path></g><g transform="translate(730 355) rotate(0 10 -40)"><path d="M22.2 -51.61 C21.87 -58.49, 21.1 -63.25, 20.83 -79.23 M24.8 -50.05 C22.62 -58.21, 22.74 -68.24, 21.87 -78.94" stroke="#ff8c42" stroke-width="2" fill="none"></path></g><g transform="translate(730 355) rotate(0 10 -40)"><path d="M2.3 -56.62 C6.88 -62.12, 10.98 -65.64, 20.83 -79.23 M4.9 -55.06 C8.76 -61.69, 14.91 -70.2, 21.87 -78.94" stroke="#ff8c42" stroke-width="2" fill="none"></path></g></g><g stroke-linecap="round"><g transform="translate(970 275) rotate(0 10 -40)"><path d="M0.5 0.55 C4.06 -12.92, 17.27 -66.35, 20.7 -79.77 M-0.7 -0.2 C2.82 -13.54, 16.52 -68.71, 20.11 -81.77" stroke="#ff8c42" stroke-width="2" fill="none"></path></g><g transform="translate(970 275) rotate(0 10 -40)"><path d="M23.88 -50.74 C22.38 -57.4, 21.42 -65.05, 21.09 -82.96 M21.98 -52.89 C22.67 -61.16, 20.44 -70.41, 19.34 -81.31" stroke="#ff8c42" stroke-width="2" fill="none"></path></g><g transform="translate(970 275) rotate(0 10 -40)"><path d="M4.02 -55.9 C7.44 -61.37, 11.34 -67.76, 21.09 -82.96 M2.12 -58.05 C9.3 -64.52, 13.51 -72.09, 19.34 -81.31" stroke="#ff8c42" stroke-width="2" fill="none"></path></g></g><g stroke-linecap="round"><g transform="translate(1210 195) rotate(0 10 -40)"><path d="M-0.46 -0.13 C3 -13.47, 16.57 -68, 20.08 -81.16 M1.5 -1.25 C4.86 -14.38, 16.06 -66.95, 19.17 -80.23" stroke="#ff8c42" stroke-width="2" fill="none"></path></g><g transform="translate(1210 195) rotate(0 10 -40)"><path d="M22.84 -50.36 C20.45 -56.81, 22.99 -63.33, 17.35 -79.03 M22.43 -50.21 C22.15 -60.48, 21.14 -70.89, 18.82 -80.02" stroke="#ff8c42" stroke-width="2" fill="none"></path></g><g transform="translate(1210 195) rotate(0 10 -40)"><path d="M2.8 -54.82 C5.29 -60.1, 12.74 -65.53, 17.35 -79.03 M2.4 -54.67 C9.03 -63.55, 14.95 -72.42, 18.82 -80.02" stroke="#ff8c42" stroke-width="2" fill="none"></path></g></g><g transform="translate(50 580) rotate(0 105.60000000000002 16)"><text x="0" y="NaN" font-family="Virgil, Segoe UI Emoji" font-size="24px" fill="#40916c" text-anchor="start" style="white-space: pre;" direction="ltr">Cheap to reverse</text></g><g transform="translate(1250 190) rotate(0 99 16)"><text x="0" y="NaN" font-family="Virgil, Segoe UI Emoji" font-size="24px" fill="#e11d48" text-anchor="start" style="white-space: pre;" direction="ltr">Hard to reverse</text></g></svg>