<svg version="1.1" xmlns="http://www.w3.org/2000/svg" viewBox="0 0 1360 520" width="1360" height="520">
  <!-- svg-source:excalidraw -->
  
  <defs>
    <style>
      @font-face {
        font-family: "Virgil";
        src: url("https://excalidraw.com/Virgil.woff2");
      }
      @font-face {
        font-family: "Cascadia";
        src: url("https://excalidraw.com/Cascadia.woff2");
      }
    </style>
  </defs>
  <rect x="0" y="0" width="1360" height="520" fill="#1e1e2e"></rect><g transform="translate(10 10) rotate(0 351.92987060546875 18.75)"><text x="0" y="NaN" font-family="Virgil, Segoe UI Emoji" font-size="30px" fill="#ffffff" text-anchor="start" style="white-space: pre;" direction="ltr">Synchronous Request Path vs Background Path</text></g><g transform="translate(10 50) rotate(0 387.86383056640625 15)"><text x="0" y="NaN" font-family="Virgil, Segoe UI Emoji" font-size="24px" fill="#cdd6f4" text-anchor="start" style="white-space: pre;" direction="ltr">Fast paths return now; side effects move to durable async flow.</text></g><g transform="translate(30 140) rotate(0 111.7679443359375 15)"><text x="0" y="NaN" font-family="Virgil, Segoe UI Emoji" font-size="24px" fill="#a6adc8" text-anchor="start" style="white-space: pre;" direction="ltr">Fast request path</text></g><g transform="translate(730 140) rotate(0 144.31192016601562 15)"><text x="0" y="NaN" font-family="Virgil, Segoe UI Emoji" font-size="24px" fill="#a6adc8" text-anchor="start" style="white-space: pre;" direction="ltr">Background side effects</text></g><g stroke-linecap="round" transform="translate(60 230) rotate(0 75 45)"><path d="M-0.44 -1.57 L151.52 0.8 L150.57 89.93 L0.7 90.66" stroke="none" stroke-width="0" fill="#2d6a4f"></path><path d="M-0.95 -1.71 C31.45 0.76, 64.99 -0.84, 150.07 0.09 M0.8 0.25 C54.44 0.67, 107.28 -0.01, 150.44 0.53 M151.57 -1.98 C149.2 31.5, 148.19 61.06, 149.92 90.49 M150.79 -0.69 C149.26 23.07, 148.55 46.56, 150.36 89.44 M148.58 90.75 C90.98 88.48, 31.96 90.57, -1.32 89.08 M149.69 90.07 C107.63 90.08, 64.75 90.32, 0.37 89.67 M0.54 90.16 C-0.12 67.73, -1.99 47.16, -0.66 -0.77 M-0.65 89.88 C0.26 70.64, 0.02 51.68, 0.05 -0.96" stroke="#40916c" stroke-width="2" fill="none"></path></g><g transform="translate(102.5400161743164 260) rotate(0 32.459983825683594 15)"><text x="32.459983825683594" y="NaN" font-family="Virgil, Segoe UI Emoji" font-size="24px" fill="#ffffff" text-anchor="middle" style="white-space: pre;" direction="ltr">Client</text></g><g stroke-linecap="round" transform="translate(260 230) rotate(0 85 45)"><path d="M0.36 1.28 L169.62 0.42 L171.07 90.4 L-1.44 89.72" stroke="none" stroke-width="0" fill="#5b21b6"></path><path d="M0.77 0.21 C35.17 -1.61, 72.59 -1, 168.48 0.87 M-0.5 0.78 C67.72 -1.15, 136.26 -0.97, 169.28 0.04 M170.65 -1.48 C172.37 33.11, 172.74 64.08, 168.71 88.76 M169.39 -0.29 C170.31 35.66, 169.65 71.24, 169.17 90.15 M170.68 90.32 C129.72 88.05, 89.95 89.06, -1.65 88.27 M169.8 89.78 C130.01 91.12, 91.45 90.82, 0.25 89.75 M-0.9 89.6 C-1.11 71.05, 1.57 52.26, 0.53 0.82 M-0.21 89.88 C-0.4 59.85, 0.38 28.92, 0.93 -0.99" stroke="#7c3aed" stroke-width="2" fill="none"></path></g><g transform="translate(304.48802947998047 245) rotate(0 40.51197052001953 30)"><text x="40.51197052001953" y="NaN" font-family="Virgil, Segoe UI Emoji" font-size="24px" fill="#ffffff" text-anchor="middle" style="white-space: pre;" direction="ltr">API /</text><text x="40.51197052001953" y="NaN" font-family="Virgil, Segoe UI Emoji" font-size="24px" fill="#ffffff" text-anchor="middle" style="white-space: pre;" direction="ltr">Service</text></g><g stroke-linecap="round" transform="translate(480 180) rotate(0 55 45)"><path d="M1.16 0.12 L111.71 0.04 L111.58 90.87 L0.41 88.79" stroke="none" stroke-width="0" fill="#1e40af"></path><path d="M-1.52 -1.86 C25.45 0.54, 49.31 -0.63, 110.89 1.66 M0.2 -0.69 C27.31 0.18, 53.86 1.22, 110.12 -0.46 M109.72 -0.98 C109.74 16.72, 111.49 35.1, 111.49 91.02 M109.99 0.11 C111.37 30.25, 110.75 59.92, 109.98 90.85 M108.79 89.89 C82.19 91.67, 51.4 91.59, -1.97 91.47 M109.92 89.49 C67.15 89.18, 25.67 88.34, 0.13 89.84 M1.66 89.03 C0.11 56.37, -0.68 21.37, 1.71 -1.59 M0.23 89.87 C0.75 65.07, 0.53 42.16, -0.19 0.99" stroke="#3b82f6" stroke-width="2" fill="none"></path></g><g transform="translate(500.7520217895508 210) rotate(0 34.24797821044922 15)"><text x="34.24797821044922" y="NaN" font-family="Virgil, Segoe UI Emoji" font-size="24px" fill="#ffffff" text-anchor="middle" style="white-space: pre;" direction="ltr">Cache</text></g><g stroke-linecap="round" transform="translate(480 330) rotate(0 55 45)"><path d="M1.95 -1.04 L109.8 -0.33 L108.09 91.33 L-1.74 91.85" stroke="none" stroke-width="0" fill="#5b21b6"></path><path d="M0.2 0.07 C24.81 0.62, 48.19 1.66, 109.3 -1.56 M0.91 -0.17 C30.89 -1.15, 63.42 -1.24, 110.96 -0.95 M108.79 -0.48 C111.1 22.33, 110.24 42.12, 110.27 89.28 M110.58 0.51 C108.62 24.84, 110.05 48.6, 110.8 89.55 M110.89 89.46 C76.81 91.26, 45.14 90.1, 1.7 90.66 M110.03 89.2 C72.27 89.96, 35.86 88.58, 0.01 89.92 M0.22 88.47 C-0.88 55.69, -1.13 22.48, -1.11 0 M0.66 89.87 C0.09 54.28, -1.12 19.41, 0.69 0.96" stroke="#7c3aed" stroke-width="2" fill="none"></path></g><g transform="translate(492.8920211791992 345) rotate(0 42.10797882080078 30)"><text x="42.10797882080078" y="NaN" font-family="Virgil, Segoe UI Emoji" font-size="24px" fill="#ffffff" text-anchor="middle" style="white-space: pre;" direction="ltr">Primary</text><text x="42.10797882080078" y="NaN" font-family="Virgil, Segoe UI Emoji" font-size="24px" fill="#ffffff" text-anchor="middle" style="white-space: pre;" direction="ltr">DB</text></g><g stroke-linecap="round"><g transform="translate(216 275.009) rotate(0 19 0)"><path d="M0.48 -0.82 C6.76 -0.83, 30.55 -0.24, 37.01 -0.01 M-0.72 1.37 C5.98 1.56, 32.56 2, 39.19 1.52" stroke="#3b82f6" stroke-width="2" fill="none"></path></g><g transform="translate(216 275.009) rotate(0 19 0)"><path d="M20.18 6.82 C25.8 8.53, 31.03 5.08, 38.19 0.43 M20.78 9.05 C24.97 6.28, 29.26 6.01, 38.37 1.24" stroke="#3b82f6" stroke-width="2" fill="none"></path></g><g transform="translate(216 275.009) rotate(0 19 0)"><path d="M19.91 -6.18 C25.6 -1.28, 30.9 -1.55, 38.19 0.43 M20.51 -3.95 C24.88 -3.89, 29.23 -1.32, 38.37 1.24" stroke="#3b82f6" stroke-width="2" fill="none"></path></g></g><g stroke-linecap="round"><g transform="translate(436 263.64677436231756) rotate(0 18.99999999999997 -12.225812370773639)"><path d="M-0.47 0.9 C6.1 -3.05, 32.25 -19.06, 38.78 -23.45 M1.48 0.32 C8.02 -3.97, 32.11 -20.89, 38.25 -25.05" stroke="#3b82f6" stroke-width="2" fill="none"></path></g><g transform="translate(436 263.64677436231756) rotate(0 18.99999999999997 -12.225812370773639)"><path d="M26.67 -5.32 C30.01 -9.93, 29.9 -15.2, 38.4 -23.81 M24.79 -6.67 C27.47 -11.78, 30.7 -15.46, 37.8 -25.6" stroke="#3b82f6" stroke-width="2" fill="none"></path></g><g transform="translate(436 263.64677436231756) rotate(0 18.99999999999997 -12.225812370773639)"><path d="M17.88 -18.03 C23.4 -19.49, 25.45 -21.65, 38.4 -23.81 M16 -19.38 C20.75 -21.42, 26.08 -22.06, 37.8 -25.6" stroke="#3b82f6" stroke-width="2" fill="none"></path></g></g><g stroke-linecap="round"><g transform="translate(436.00000000000006 296.1207271859854) rotate(0 19.078990427191655 26.251729248304088)"><path d="M0.97 0.21 C7.46 8.82, 32.09 43.42, 38.32 52.11 M0.02 -0.72 C6.43 8.02, 31.18 44.38, 37.46 53.44" stroke="#40916c" stroke-width="2" fill="none"></path></g><g transform="translate(436.00000000000006 296.1207271859854) rotate(0 19.078990427191655 26.251729248304088)"><path d="M13.39 36.28 C18.43 40.41, 24.87 45.02, 38.81 53.07 M13.01 35.23 C20.04 39.8, 26.15 44.5, 37.43 52.65" stroke="#40916c" stroke-width="2" fill="none"></path></g><g transform="translate(436.00000000000006 296.1207271859854) rotate(0 19.078990427191655 26.251729248304088)"><path d="M30.31 24.66 C31.25 31.78, 33.54 39.24, 38.81 53.07 M29.92 23.61 C32.61 31.05, 34.31 38.77, 37.43 52.65" stroke="#40916c" stroke-width="2" fill="none"></path></g></g><g stroke-linecap="round" transform="translate(750 230) rotate(0 75 45)"><path d="M-0.05 -1.93 L149.03 -1.28 L151.36 88.5 L0.89 89.52" stroke="none" stroke-width="0" fill="#b45309"></path><path d="M-1.52 -1.11 C33.94 0.71, 64.84 -0.71, 151.34 -1.6 M0.66 0.16 C59.51 0.99, 117.69 0.05, 149.06 -0.19 M150.48 0.78 C151.22 30.36, 149.81 59.67, 151.22 90.93 M149.07 -0.48 C149.34 18.32, 149.89 39.29, 149.83 90.32 M150.16 90.4 C92.46 88.18, 39.72 88.29, 0.88 90.64 M150.31 89.48 C117.41 90.37, 83.99 91.63, -0.3 89.13 M-1.39 89.06 C0.66 54.98, -0.26 19.25, -0.15 -0.03 M0.75 89.86 C-0.86 70.32, -1.53 52.51, -0.1 0.9" stroke="#d97706" stroke-width="2" fill="none"></path></g><g transform="translate(771.2040252685547 245) rotate(0 53.79597473144531 30)"><text x="53.79597473144531" y="NaN" font-family="Virgil, Segoe UI Emoji" font-size="24px" fill="#ffffff" text-anchor="middle" style="white-space: pre;" direction="ltr">Outbox /</text><text x="53.79597473144531" y="NaN" font-family="Virgil, Segoe UI Emoji" font-size="24px" fill="#ffffff" text-anchor="middle" style="white-space: pre;" direction="ltr">Queue</text></g><g stroke-linecap="round" transform="translate(980 230) rotate(0 75 45)"><path d="M0.75 0.91 L151.12 -1.66 L151.86 88.97 L-1.26 88.58" stroke="none" stroke-width="0" fill="#1e40af"></path><path d="M0.2 0.82 C33.3 2.43, 63.72 -0.78, 149.75 -0.81 M-0.64 0.69 C34.79 -0.67, 70.68 -0.76, 149.9 -0.68 M149.55 1.28 C150.39 31.97, 150.36 62.69, 150 89.19 M149.66 -0.08 C150.39 30.91, 150.99 63.96, 150.64 89.02 M148.26 89.97 C119.82 87.76, 90.95 90.79, 0.56 89.84 M150.43 89.2 C94.46 88.24, 40.03 88.95, -0.42 89.21 M1.17 88.5 C-2.13 58.3, 1.49 24.36, 1.04 1.56 M-0.81 89.86 C0.28 59.53, 0.62 27.76, 0.78 0.88" stroke="#3b82f6" stroke-width="2" fill="none"></path></g><g transform="translate(1010.1560287475586 260) rotate(0 44.843971252441406 15)"><text x="44.843971252441406" y="NaN" font-family="Virgil, Segoe UI Emoji" font-size="24px" fill="#ffffff" text-anchor="middle" style="white-space: pre;" direction="ltr">Workers</text></g><g stroke-linecap="round" transform="translate(1210 160) rotate(0 70 45)"><path d="M1.55 -0.24 L139.21 1.96 L138.37 89.44 L0.59 91.65" stroke="none" stroke-width="0" fill="#2d6a4f"></path><path d="M1.91 -1.26 C30.48 0.16, 62.25 -0.84, 138.16 -0.03 M0.07 -0.78 C39.3 0.59, 78.12 1.37, 140.73 0.83 M138.62 1.78 C141.75 33.58, 139.11 69.71, 138.78 91.45 M140.26 0.32 C139.64 25.5, 138.29 52.64, 139.46 89.72 M140.37 89.54 C105.52 91.36, 72.87 89.3, 0.23 89.03 M140.54 90.91 C94.72 89.18, 50.49 89.35, -0.54 89.3 M-0.27 91.94 C0.89 57.62, 1.04 29.47, -1.78 -0.86 M-0.38 89.85 C1.42 66.75, 0.77 41, -0.34 0.86" stroke="#40916c" stroke-width="2" fill="none"></path></g><g transform="translate(1241.024024963379 190) rotate(0 38.975975036621094 15)"><text x="38.975975036621094" y="NaN" font-family="Virgil, Segoe UI Emoji" font-size="24px" fill="#ffffff" text-anchor="middle" style="white-space: pre;" direction="ltr">Search</text></g><g stroke-linecap="round" transform="translate(1210 290) rotate(0 70 45)"><path d="M-1.65 -1.4 L141.3 1.59 L138.88 89.91 L-1.56 90.71" stroke="none" stroke-width="0" fill="#9f1239"></path><path d="M-0.37 0.67 C29.84 -2.08, 61.13 -0.87, 140.58 0.76 M0.77 -0.26 C44.16 -0.99, 90.25 0.65, 139.57 0.33 M141.7 -1.72 C139.12 21.19, 137.86 40.73, 141.56 89.72 M140.86 0.72 C140.69 20.09, 139.39 41.32, 140.27 90.43 M138.47 89.12 C103.2 90.94, 64.73 87.8, -0.1 88.22 M140.65 90.62 C101.28 90.02, 63.57 89.65, -0.67 89.38 M-1.71 91.37 C-0.1 60.93, 0.59 30.58, -0.6 0.73 M0.06 89.85 C-1.24 53.96, -0.87 18.24, 0.54 0.83" stroke="#e11d48" stroke-width="2" fill="none"></path></g><g transform="translate(1217.6720352172852 305) rotate(0 62.327964782714844 30)"><text x="62.327964782714844" y="NaN" font-family="Virgil, Segoe UI Emoji" font-size="24px" fill="#ffffff" text-anchor="middle" style="white-space: pre;" direction="ltr">Notificatio</text><text x="62.327964782714844" y="NaN" font-family="Virgil, Segoe UI Emoji" font-size="24px" fill="#ffffff" text-anchor="middle" style="white-space: pre;" direction="ltr">ns</text></g><g stroke-linecap="round" transform="translate(1210 420) rotate(0 70 45)"><path d="M-0.85 1.44 L139.39 1.21 L139.39 90.38 L0.29 89.78" stroke="none" stroke-width="0" fill="#b45309"></path><path d="M1.34 -1.4 C29.2 -0.33, 60.01 -0.9, 138.99 1.54 M-0.53 0.27 C51.02 2.23, 102.38 0.73, 140.41 -0.16 M140.77 -1.22 C138.29 22.8, 138.41 47.75, 140.35 91.98 M139.45 -0.88 C139.75 32.68, 140.48 66, 139.09 89.13 M140.58 88.69 C96.87 90.53, 56.58 90.3, -0.43 91.41 M140.76 90.33 C107.85 88.87, 76.65 89.96, -0.79 89.47 M0.85 90.81 C1.12 64.25, -1.66 35.69, 0.59 -1.68 M0.49 89.85 C-0.1 61.17, -0.72 31.49, -0.58 0.81" stroke="#d97706" stroke-width="2" fill="none"></path></g><g transform="translate(1227.7880249023438 450) rotate(0 52.21197509765625 15)"><text x="52.21197509765625" y="NaN" font-family="Virgil, Segoe UI Emoji" font-size="24px" fill="#ffffff" text-anchor="middle" style="white-space: pre;" direction="ltr">Analytics</text></g><g stroke-linecap="round"><g transform="translate(436 275.009) rotate(0 154 0)"><path d="M0.04 -0.13 C51.57 0, 257.29 1.11, 308.52 1.1 M-1.39 -1.25 C50.08 -1.45, 256.55 -0.82, 307.85 -0.45" stroke="#d97706" stroke-width="2" fill="none"></path></g><g transform="translate(436 275.009) rotate(0 154 0)"><path d="M279.39 10.55 C288.34 6.3, 293.07 4.34, 306.48 1.5 M279.44 8.81 C288.24 7.42, 296.45 4.32, 308.44 0.04" stroke="#d97706" stroke-width="2" fill="none"></path></g><g transform="translate(436 275.009) rotate(0 154 0)"><path d="M279.49 -9.97 C288.46 -9.19, 293.17 -6.12, 306.48 1.5 M279.54 -11.71 C288.51 -7.04, 296.69 -4.07, 308.44 0.04" stroke="#d97706" stroke-width="2" fill="none"></path></g></g><g stroke-linecap="round"><g transform="translate(906 275.009) rotate(0 34 0)"><path d="M-0.91 -0.82 C10.51 -0.95, 56.59 -0.54, 67.9 -0.29 M0.81 1.37 C12.13 1.37, 55.48 1.54, 66.9 1.09" stroke="#d97706" stroke-width="2" fill="none"></path></g><g transform="translate(906 275.009) rotate(0 34 0)"><path d="M37.51 11.61 C45.21 7.65, 53.65 6.66, 66.73 1.43 M39.05 12.17 C47.61 9.1, 56 5.04, 65.91 1.33" stroke="#d97706" stroke-width="2" fill="none"></path></g><g transform="translate(906 275.009) rotate(0 34 0)"><path d="M37.2 -8.91 C45.05 -7.84, 53.57 -3.8, 66.73 1.43 M38.74 -8.35 C47.34 -4.92, 55.83 -2.48, 65.91 1.33" stroke="#d97706" stroke-width="2" fill="none"></path></g></g><g stroke-linecap="round"><g transform="translate(1136 262.7382464831056) rotate(0 34 -22.539014338976102)"><path d="M0.53 0.9 C11.85 -6.61, 55.89 -36.55, 67.28 -44.36 M-0.65 0.32 C11.12 -7.59, 58.08 -38.54, 69.61 -46.11" stroke="#3b82f6" stroke-width="2" fill="none"></path></g><g transform="translate(1136 262.7382464831056) rotate(0 34 -22.539014338976102)"><path d="M53.2 -23.24 C57.15 -26.58, 58.86 -33.74, 70.65 -47.38 M52.24 -22.38 C56.91 -29.53, 64.12 -38.92, 69.04 -46.12" stroke="#3b82f6" stroke-width="2" fill="none"></path></g><g transform="translate(1136 262.7382464831056) rotate(0 34 -22.539014338976102)"><path d="M41.92 -40.38 C48.73 -39.57, 53.21 -42.53, 70.65 -47.38 M40.96 -39.52 C49.53 -40.84, 60.56 -44.43, 69.04 -46.12" stroke="#3b82f6" stroke-width="2" fill="none"></path></g></g><g stroke-linecap="round"><g transform="translate(1136 285.6935826188143) rotate(0 34 19.129845584423578)"><path d="M-0.43 0.21 C11.19 6.32, 57.59 31.24, 69.06 37.58 M1.55 -0.72 C13.16 5.46, 57.63 32.05, 68.67 38.76" stroke="#e11d48" stroke-width="2" fill="none"></path></g><g transform="translate(1136 285.6935826188143) rotate(0 34 19.129845584423578)"><path d="M39.57 34.8 C45.35 35.15, 53.66 36.39, 66.91 39.89 M40.1 33.96 C50.47 35.76, 59.86 38, 68.51 38.51" stroke="#e11d48" stroke-width="2" fill="none"></path></g><g transform="translate(1136 285.6935826188143) rotate(0 34 19.129845584423578)"><path d="M50.14 17.21 C53.46 21.84, 59.18 27.39, 66.91 39.89 M50.67 16.37 C57.12 24.4, 62.71 32.97, 68.51 38.51" stroke="#e11d48" stroke-width="2" fill="none"></path></g></g><g stroke-linecap="round"><g transform="translate(1135.7151327837232 302.64121523978196) rotate(0 34.333859833620636 66.97204364104002)"><path d="M1.02 -0.47 C12.64 21.72, 57.85 111.73, 69.1 134.27 M0.09 -1.77 C11.66 20.56, 57.12 109.88, 68.39 132.32" stroke="#d97706" stroke-width="2" fill="none"></path></g><g transform="translate(1135.7151327837232 302.64121523978196) rotate(0 34.333859833620636 66.97204364104002)"><path d="M45.71 112.53 C52.6 116.42, 58.82 122.39, 67.84 131.84 M45.73 111.99 C55 119.72, 63.78 127.15, 68.65 131.82" stroke="#d97706" stroke-width="2" fill="none"></path></g><g transform="translate(1135.7151327837232 302.64121523978196) rotate(0 34.333859833620636 66.97204364104002)"><path d="M64.02 103.27 C66.51 109.58, 68.24 117.82, 67.84 131.84 M64.04 102.73 C66.34 114.08, 68.15 125.04, 68.65 131.82" stroke="#d97706" stroke-width="2" fill="none"></path></g></g></svg>