<svg version="1.1" xmlns="http://www.w3.org/2000/svg" viewBox="0 0 1430 863.9523887032644" width="1430" height="863.9523887032644">
  <!-- svg-source:excalidraw -->
  
  <defs>
    <style>
      @font-face {
        font-family: "Virgil";
        src: url("https://excalidraw.com/Virgil.woff2");
      }
      @font-face {
        font-family: "Cascadia";
        src: url("https://excalidraw.com/Cascadia.woff2");
      }
    </style>
  </defs>
  <rect x="0" y="0" width="1430" height="863.9523887032644" fill="#0d1117"></rect><g transform="translate(10 10) rotate(0 433.7548522949219 18.75)"><text x="0" y="NaN" font-family="Virgil, Segoe UI Emoji" font-size="30px" fill="#ff8c42" text-anchor="start" style="white-space: pre;" direction="ltr">HTTP/2 Multiplexing -- one TCP, many concurrent streams</text></g><g transform="translate(10 53) rotate(0 479.2137145996094 11.25)"><text x="0" y="NaN" font-family="Virgil, Segoe UI Emoji" font-size="18px" fill="#c9d1d9" text-anchor="start" style="white-space: pre;" direction="ltr">Same 5 calls. HTTP/1.1 pays 5 TLS handshakes serialized; HTTP/2 pays 1, then runs 5 streams in parallel.</text></g><g transform="translate(10 95) rotate(0 29.29498291015625 8.75)"><text x="0" y="NaN" font-family="Virgil, Segoe UI Emoji" font-size="14px" fill="#8b949e" text-anchor="start" style="white-space: pre;" direction="ltr">TIME -&gt;</text></g><g stroke-linecap="round"><g transform="translate(200 103) rotate(0 600 0)"><path d="M0.49 -0.4 C200.58 -0.68, 999.67 -1.18, 1199.75 -1.13 M-0.71 -1.66 C199.27 -1.89, 998.43 -0.65, 1198.67 -0.18" stroke="#8b949e" stroke-width="1" fill="none"></path></g><g transform="translate(200 103) rotate(0 600 0)"><path d="M1169.79 9.61 C1175.08 9.13, 1183.35 5.32, 1199.26 -1.93 M1169.56 10.09 C1177.89 6.37, 1186.35 3.18, 1199.64 -0.45" stroke="#8b949e" stroke-width="1" fill="none"></path></g><g transform="translate(200 103) rotate(0 600 0)"><path d="M1169.82 -10.91 C1175.2 -6.63, 1183.46 -5.68, 1199.26 -1.93 M1169.6 -10.43 C1178.1 -8.03, 1186.54 -5.1, 1199.64 -0.45" stroke="#8b949e" stroke-width="1" fill="none"></path></g></g><g stroke-opacity="0.6" fill-opacity="0.6" stroke-linecap="round" transform="translate(10 130) rotate(0 705 167.5087695295092)"><path d="M1.2 -1.04 L1411.93 0.74 L1409.61 333.72 L-0.57 336.85" stroke="none" stroke-width="0" fill="#161b22"></path><path d="M-0.08 -0.63 C516.65 3.7, 1032.23 4.16, 1409.96 -0.79 M1410.48 -0.93 C1409.79 73.87, 1410.16 147.06, 1410.56 334.35 M1410.11 334.97 C1114.16 332.9, 819.08 333.02, -0.2 334.44 M0.26 334.63 C-1.08 239.24, -2.85 143.95, 0.2 0.12" stroke="#f85149" stroke-width="2.5" fill="none" stroke-dasharray="8 10"></path></g><g transform="translate(30 144) rotate(0 236.54385375976562 13.75)"><text x="0" y="NaN" font-family="Virgil, Segoe UI Emoji" font-size="22px" fill="#f85149" text-anchor="start" style="white-space: pre;" direction="ltr">HTTP/1.1  --  5 sequential TCP connections</text></g><g transform="translate(30 176) rotate(0 246.69375610351562 8.75)"><text x="0" y="NaN" font-family="Virgil, Segoe UI Emoji" font-size="14px" fill="#8b949e" text-anchor="start" style="white-space: pre;" direction="ltr">Each call: open TCP, TLS handshake, request, response, close. Repeat.</text></g><g transform="translate(40 225) rotate(0 37.58998107910156 8.75)"><text x="0" y="NaN" font-family="Virgil, Segoe UI Emoji" font-size="14px" fill="#f85149" text-anchor="start" style="white-space: pre;" direction="ltr">TCP conn 1</text></g><g stroke-linecap="round"><g transform="translate(200 233) rotate(0 590 0)"><path d="M-0.16 -1.07 C196.62 -1.31, 984.28 -1.11, 1181.15 -0.79" stroke="#8b949e" stroke-width="1.5" fill="none" stroke-dasharray="1.5 7"></path></g></g><g stroke-linecap="round" transform="translate(200 219) rotate(0 65 14)"><path d="M-1.04 1.05 L128.99 0.5 L129.56 27.37 L1.08 26.98" stroke="none" stroke-width="0" fill="#4a1219"></path><path d="M1.45 -1.77 C37.35 1.9, 78.65 -0.75, 131.15 1.65 M-0.12 -0.06 C29.05 -1.83, 59.38 -1.09, 129.19 -0.57 M129.11 1.83 C129.59 7.14, 130.27 12.09, 128.59 26.25 M130.22 -0.66 C128.84 9.55, 130.01 17.6, 129.96 28.56 M128.19 29.14 C91.55 28.42, 52.3 29.33, 0.31 29.96 M129.43 27.53 C84.35 26.96, 39.17 26.3, 0.55 27.52 M1.79 29.33 C-0.19 21.74, -0.49 15.77, 1.5 -1.15 M-0.47 27.82 C0.26 18.76, -0.24 8.3, -0.41 -0.93" stroke="#f85149" stroke-width="2" fill="none"></path></g><g transform="translate(214.3340301513672 224) rotate(0 50.66596984863281 6.875)"><text x="50.66596984863281" y="NaN" font-family="Virgil, Segoe UI Emoji" font-size="11px" fill="#ffffff" text-anchor="middle" style="white-space: pre;" direction="ltr">TCP+TLS  3 RTT</text></g><g stroke-linecap="round" transform="translate(334 219) rotate(0 35 14)"><path d="M0.62 1.32 L70.29 -0.89 L70.63 27.4 L-0.85 28.29" stroke="none" stroke-width="0" fill="#3a5d1d"></path><path d="M1.7 0.88 C18.89 -2, 38.99 -1.59, 69.12 0.29 M-0.14 -0.66 C13.36 0.07, 27.88 1.42, 70.17 -0.81 M69.75 0.71 C70.84 11.24, 68.76 21.09, 70.67 29.9 M70.35 0.77 C70.81 11.16, 69.22 22.66, 70.17 28.29 M70.5 29.95 C43.28 28.54, 17.05 27.65, 1.69 27.98 M70.09 27.53 C55.36 27.77, 41.88 27.78, -0.7 27.62 M0.33 26.15 C-0.58 22.57, 1.48 16.13, -0.94 -0.47 M-0.07 28.67 C0.38 17.13, -0.64 7.54, -0.27 0.19" stroke="#6dbf3a" stroke-width="1" fill="none"></path></g><g transform="translate(346.80201721191406 224) rotate(0 22.197982788085938 6.875)"><text x="22.197982788085938" y="NaN" font-family="Virgil, Segoe UI Emoji" font-size="11px" fill="#ffffff" text-anchor="middle" style="white-space: pre;" direction="ltr">req/resp</text></g><g transform="translate(40 267) rotate(0 40.676979064941406 8.75)"><text x="0" y="NaN" font-family="Virgil, Segoe UI Emoji" font-size="14px" fill="#f85149" text-anchor="start" style="white-space: pre;" direction="ltr">TCP conn 2</text></g><g stroke-linecap="round"><g transform="translate(200 275) rotate(0 590 0)"><path d="M0.43 1.04 C197.12 0.94, 984.04 -0.31, 1180.74 -0.54" stroke="#8b949e" stroke-width="1.5" fill="none" stroke-dasharray="1.5 7"></path></g></g><g stroke-linecap="round" transform="translate(416 261) rotate(0 65 14)"><path d="M-0.21 1.19 L129.58 -1.05 L130.78 26.72 L1.55 26.57" stroke="none" stroke-width="0" fill="#4a1219"></path><path d="M0.66 -1.58 C45.03 -1.76, 87.52 -1.38, 130.32 -0.89 M-0.59 -0.17 C37.51 0.08, 73.94 0.73, 130.47 -0.03 M130.1 -0.08 C131.57 5.36, 131.75 12.43, 130.71 26.56 M130.63 -0.93 C131.09 9.1, 129.49 19.34, 130.09 27.53 M128.12 29.6 C101.16 28.27, 74.43 27.4, 1.06 27.89 M129.43 28.95 C86.71 28.24, 42.28 28.87, 0.35 27.36 M1.74 27.76 C0.89 21.72, -0.3 13.52, -1.14 -0.03 M-0.57 28.44 C-0.49 16.66, -0.57 7.45, 0.16 -0.34" stroke="#f85149" stroke-width="2" fill="none"></path></g><g transform="translate(430.3340301513672 266) rotate(0 50.66596984863281 6.875)"><text x="50.66596984863281" y="NaN" font-family="Virgil, Segoe UI Emoji" font-size="11px" fill="#ffffff" text-anchor="middle" style="white-space: pre;" direction="ltr">TCP+TLS  3 RTT</text></g><g stroke-linecap="round" transform="translate(550 261) rotate(0 35 14)"><path d="M0.58 -1.6 L70.05 1.83 L69.24 29.32 L-1.44 26.8" stroke="none" stroke-width="0" fill="#3a5d1d"></path><path d="M-1.82 -0.69 C18.62 -2.14, 36.9 0.79, 71 -0.5 M0.9 0.65 C19.83 -1.3, 38.32 -0.24, 70.67 0.9 M68.25 -0.6 C71.24 10.81, 69.4 17.81, 71.13 29.74 M70.46 0.03 C70.37 10.43, 69.55 18.38, 69.33 28.83 M70.75 27.76 C52.22 28.36, 35.26 27.43, 1.8 26.34 M69.01 28.24 C50.5 28.17, 30.92 28.12, 0.33 27.45 M-1.7 26.77 C1.77 19.29, 1.28 10.93, 0.8 -0.78 M0.61 28.54 C0.37 18.78, 0.51 9.94, -0.69 0.08" stroke="#6dbf3a" stroke-width="1" fill="none"></path></g><g transform="translate(562.8020172119141 266) rotate(0 22.197982788085938 6.875)"><text x="22.197982788085938" y="NaN" font-family="Virgil, Segoe UI Emoji" font-size="11px" fill="#ffffff" text-anchor="middle" style="white-space: pre;" direction="ltr">req/resp</text></g><g transform="translate(40 309) rotate(0 40.459983825683594 8.75)"><text x="0" y="NaN" font-family="Virgil, Segoe UI Emoji" font-size="14px" fill="#f85149" text-anchor="start" style="white-space: pre;" direction="ltr">TCP conn 3</text></g><g stroke-linecap="round"><g transform="translate(200 317) rotate(0 590 0)"><path d="M0.28 -0.55 C196.94 -0.23, 982.64 0.89, 1179.31 1.17" stroke="#8b949e" stroke-width="1.5" fill="none" stroke-dasharray="1.5 7"></path></g></g><g stroke-linecap="round" transform="translate(632 303) rotate(0 65 14)"><path d="M-0.09 1.94 L131.24 -0.81 L131.87 27.14 L-1.43 27.74" stroke="none" stroke-width="0" fill="#4a1219"></path><path d="M-1.54 -1.67 C45.11 0.82, 86.18 0.94, 129.93 0.43 M-0.24 0.88 C38.79 -0.42, 76.53 -1.66, 129.08 -0.92 M131.61 0.77 C129.29 11.41, 131.83 23.71, 129.28 28.86 M129.17 -0.11 C129.94 7.59, 130.83 14.66, 129.97 27.7 M128.61 26.37 C78.42 27.4, 28.43 28.5, -0.83 28.28 M129.72 27.02 C102.31 28.07, 75.2 28, -0.6 27.34 M1.34 27.79 C-0.1 22.27, -0.82 14.85, 1.3 -2 M-0.68 28.84 C-0.63 19.1, 0.64 11.27, 0.71 0.17" stroke="#f85149" stroke-width="2" fill="none"></path></g><g transform="translate(646.3340301513672 308) rotate(0 50.66596984863281 6.875)"><text x="50.66596984863281" y="NaN" font-family="Virgil, Segoe UI Emoji" font-size="11px" fill="#ffffff" text-anchor="middle" style="white-space: pre;" direction="ltr">TCP+TLS  3 RTT</text></g><g stroke-linecap="round" transform="translate(766 303) rotate(0 35 14)"><path d="M-1.44 -0.76 L70.55 -0.6 L70.96 27.9 L1.55 29.11" stroke="none" stroke-width="0" fill="#3a5d1d"></path><path d="M-1.62 0.75 C14.69 0.88, 30.87 -1.58, 68.38 -0.15 M-0.89 -0.93 C15.49 0.31, 30.21 -1.12, 70.79 -0.8 M71.73 1.28 C68.23 7.05, 70.52 15.86, 71.84 27.57 M69.08 -0.94 C69.72 6.84, 70.75 13.17, 69.15 27.5 M71.55 29.53 C43.8 28.85, 16.58 28.73, 0.15 26.64 M69.74 28.19 C50.2 28.48, 27.72 29.13, 0.62 27.48 M-1.08 28.55 C-1.49 18.29, 1.43 12.09, -0.97 -1.97 M0.63 27.43 C0.21 16.65, 0.2 6.14, -0.94 0.06" stroke="#6dbf3a" stroke-width="1" fill="none"></path></g><g transform="translate(778.8020172119141 308) rotate(0 22.197982788085938 6.875)"><text x="22.197982788085938" y="NaN" font-family="Virgil, Segoe UI Emoji" font-size="11px" fill="#ffffff" text-anchor="middle" style="white-space: pre;" direction="ltr">req/resp</text></g><g transform="translate(40 351) rotate(0 40.17298126220703 8.75)"><text x="0" y="NaN" font-family="Virgil, Segoe UI Emoji" font-size="14px" fill="#f85149" text-anchor="start" style="white-space: pre;" direction="ltr">TCP conn 4</text></g><g stroke-linecap="round"><g transform="translate(200 359) rotate(0 590 0)"><path d="M0.07 -0.67 C196.51 -0.91, 982.68 -0.69, 1179.4 -0.43" stroke="#8b949e" stroke-width="1.5" fill="none" stroke-dasharray="1.5 7"></path></g></g><g stroke-linecap="round" transform="translate(848 345) rotate(0 65 14)"><path d="M-1.62 0.19 L130.78 1.92 L131.38 27.78 L0.12 26.2" stroke="none" stroke-width="0" fill="#4a1219"></path><path d="M-0.1 -1.82 C27.25 -1.16, 56.81 -0.58, 131.8 -1.1 M0.16 -0.22 C30.5 0.29, 60.99 -0.73, 129.11 0.37 M128.31 0.61 C129.09 8.56, 130.65 13.71, 131.67 28.35 M130.64 -0.62 C130.16 9.05, 129.46 17.48, 130.59 27.51 M129.47 28.7 C80.83 26.33, 34.6 26.4, 0.4 26.45 M129.74 27.06 C93.87 27.92, 58.34 28.18, -0.45 27.34 M0.77 26.93 C-0.36 19.58, -0.12 5.58, -0.62 0.58 M-0.77 27.88 C-0.91 18.04, 0.44 8.03, 0.59 -0.34" stroke="#f85149" stroke-width="2" fill="none"></path></g><g transform="translate(862.3340301513672 350) rotate(0 50.66596984863281 6.875)"><text x="50.66596984863281" y="NaN" font-family="Virgil, Segoe UI Emoji" font-size="11px" fill="#ffffff" text-anchor="middle" style="white-space: pre;" direction="ltr">TCP+TLS  3 RTT</text></g><g stroke-linecap="round" transform="translate(982 345) rotate(0 35 14)"><path d="M0.3 1.04 L71.3 1.81 L69.99 29.59 L-0.49 26.55" stroke="none" stroke-width="0" fill="#3a5d1d"></path><path d="M1.89 -1.44 C19.75 -0.29, 39.98 0.55, 70.41 0.16 M-0.36 -0.87 C26.27 -0.43, 53.31 0.49, 70.19 0.1 M70.2 -0.15 C69.23 10.46, 68.05 18.46, 68.12 28.57 M69.78 -0.21 C70.8 8.36, 69.47 15.9, 70.38 28.03 M69.22 29.8 C48.22 27.64, 27.98 27.61, 1.54 26.14 M70.37 27.43 C47.02 27.21, 22.59 27.39, 0.3 28.14 M0.71 26.57 C-1.8 23.74, -0.12 18.02, -0.44 0.72 M0.92 28.77 C0.12 21.73, 0.81 13.49, -0.72 -0.83" stroke="#6dbf3a" stroke-width="1" fill="none"></path></g><g transform="translate(994.8020172119141 350) rotate(0 22.197982788085938 6.875)"><text x="22.197982788085938" y="NaN" font-family="Virgil, Segoe UI Emoji" font-size="11px" fill="#ffffff" text-anchor="middle" style="white-space: pre;" direction="ltr">req/resp</text></g><g transform="translate(40 393) rotate(0 40.01898193359375 8.75)"><text x="0" y="NaN" font-family="Virgil, Segoe UI Emoji" font-size="14px" fill="#f85149" text-anchor="start" style="white-space: pre;" direction="ltr">TCP conn 5</text></g><g stroke-linecap="round"><g transform="translate(200 401) rotate(0 590 0)"><path d="M-0.58 -0.58 C196.24 -0.4, 983.51 1.02, 1180.45 1.08" stroke="#8b949e" stroke-width="1.5" fill="none" stroke-dasharray="1.5 7"></path></g></g><g stroke-linecap="round" transform="translate(1064 387) rotate(0 65 14)"><path d="M1.84 -0.29 L130.7 -0.12 L130.46 27.88 L-1.44 28.72" stroke="none" stroke-width="0" fill="#4a1219"></path><path d="M0.76 1.64 C46.26 -2.73, 91.42 -2.68, 129.03 -1.4 M-0.49 -0.8 C50.62 -0.98, 100.19 -1.13, 129.04 -0.88 M128.96 -0.67 C130.31 8.37, 132.02 16.43, 129.87 29.34 M130.97 -0.41 C130.09 9.18, 130.02 17.87, 129.1 27.5 M131.83 29.18 C91.64 27.05, 55.14 26.7, -0.43 26.7 M129.67 27.81 C86.18 28.32, 41.41 27.79, -0.19 28.14 M-0.18 27.26 C2.01 22.28, 1.81 12.93, -0.56 -1.03 M-0.13 27.94 C-0.72 20.72, 0.5 12.54, -0.26 -0.48" stroke="#f85149" stroke-width="2" fill="none"></path></g><g transform="translate(1078.3340301513672 392) rotate(0 50.66596984863281 6.875)"><text x="50.66596984863281" y="NaN" font-family="Virgil, Segoe UI Emoji" font-size="11px" fill="#ffffff" text-anchor="middle" style="white-space: pre;" direction="ltr">TCP+TLS  3 RTT</text></g><g stroke-linecap="round" transform="translate(1198 387) rotate(0 35 14)"><path d="M-0.29 -1.32 L69.26 -1.8 L69.21 26.83 L0.62 28.64" stroke="none" stroke-width="0" fill="#3a5d1d"></path><path d="M-1.74 -1.97 C27.22 0.88, 56.63 0.88, 69.69 -0.67 M-0.67 -0.86 C18.57 0.15, 35.81 -1.3, 69.76 0.35 M68.4 0.55 C71.52 7.91, 69.03 15.38, 68.14 26.84 M69.3 -0.8 C70.04 9.43, 70.38 19.1, 69.25 28.33 M71.14 28.8 C55.61 26.28, 41.64 28.75, 1.95 27.56 M70.33 28.05 C43.15 28.94, 15.12 28.09, 0.18 27.63 M0.92 26.48 C-0.25 20.01, 1.9 10.33, -0.57 0.77 M-0.53 28.97 C0.33 20.52, -0.13 12.19, 0.05 0.83" stroke="#6dbf3a" stroke-width="1" fill="none"></path></g><g transform="translate(1210.802017211914 392) rotate(0 22.197982788085938 6.875)"><text x="22.197982788085938" y="NaN" font-family="Virgil, Segoe UI Emoji" font-size="11px" fill="#ffffff" text-anchor="middle" style="white-space: pre;" direction="ltr">req/resp</text></g><g stroke-linecap="round"><g transform="translate(200 447) rotate(0 540 0)"><path d="M0.19 0.04 C180.32 -0.13, 899.9 -1.08, 1079.81 -0.89 M-1.17 -0.99 C178.87 -1.04, 898.78 0.11, 1078.77 0.18" stroke="#f85149" stroke-width="4" fill="none"></path></g><g transform="translate(200 447) rotate(0 540 0)"><path d="M1050.63 10.1 C1055.26 7.6, 1064.89 5.05, 1080.11 1.84 M1051.06 11.17 C1057.13 8.41, 1064.23 5.64, 1078.2 0.41" stroke="#f85149" stroke-width="4" fill="none"></path></g><g transform="translate(200 447) rotate(0 540 0)"><path d="M1050.65 -10.42 C1055.3 -8.42, 1064.93 -6.48, 1080.11 1.84 M1051.08 -9.35 C1057.17 -6.8, 1064.26 -4.26, 1078.2 0.41" stroke="#f85149" stroke-width="4" fill="none"></path></g></g><g transform="translate(200 414) rotate(0 226.1697998046875 9.375)"><text x="0" y="NaN" font-family="Virgil, Segoe UI Emoji" font-size="15px" fill="#f85149" text-anchor="start" style="white-space: pre;" direction="ltr">5 TLS handshakes (= 15 RTTs) before the last call returns</text></g><g stroke-opacity="0.6" fill-opacity="0.6" stroke-linecap="round" transform="translate(10 485) rotate(0 705 184.47619435163222)"><path d="M-1.06 0.04 L1411.29 1.76 L1408.52 370.21 L1.84 369.47" stroke="none" stroke-width="0" fill="#161b22"></path><path d="M-0.36 -0.26 C545.84 0.33, 1091.76 0.21, 1409.75 0.16 M1410.71 -1.23 C1408.04 126.09, 1408.53 251.08, 1409.26 368.59 M1409.62 369.18 C934.63 374.35, 458.97 374.19, 0.11 368.58 M-0.49 369.35 C-0.87 277.61, -0.63 189.06, -0.42 0.02" stroke="#6dbf3a" stroke-width="2.5" fill="none" stroke-dasharray="8 10"></path></g><g transform="translate(30 499) rotate(0 290.6638488769531 13.75)"><text x="0" y="NaN" font-family="Virgil, Segoe UI Emoji" font-size="22px" fill="#3fb950" text-anchor="start" style="white-space: pre;" direction="ltr">HTTP/2  --  1 TCP connection multiplexing 5 streams</text></g><g transform="translate(30 531) rotate(0 292.2427062988281 8.75)"><text x="0" y="NaN" font-family="Virgil, Segoe UI Emoji" font-size="14px" fill="#8b949e" text-anchor="start" style="white-space: pre;" direction="ltr">Single TLS handshake. 5 streams share the connection, each independently long-lived.</text></g><g transform="translate(40 585) rotate(0 42.86097717285156 8.75)"><text x="0" y="NaN" font-family="Virgil, Segoe UI Emoji" font-size="14px" fill="#3fb950" text-anchor="start" style="white-space: pre;" direction="ltr">TCP conn (1)</text></g><g stroke-linecap="round"><g transform="translate(200 593) rotate(0 590 0)"><path d="M0.97 1.05 C197.62 1.04, 983.9 0.84, 1180.51 0.52 M0.03 0.55 C196.5 0.14, 983.14 -1.23, 1179.83 -1.34" stroke="#3fb950" stroke-width="3" fill="none"></path></g></g><g stroke-linecap="round" transform="translate(200 579) rotate(0 65 14)"><path d="M1.51 1.27 L129.77 1.72 L130.44 26.32 L1.53 26.24" stroke="none" stroke-width="0" fill="#4a1219"></path><path d="M-1.55 -0.25 C27.39 0.66, 56.49 0.77, 131.17 -0.65 M0.09 0.56 C48.23 0.78, 97.38 0.98, 129.53 0.98 M131.31 -0.08 C128.79 6.44, 129.12 16.01, 129.83 29.28 M130.88 0.19 C129.98 11.43, 129.52 21.8, 129.22 28.55 M129.31 26.71 C93.91 26.01, 55.33 28.68, 1.66 26.5 M129.36 28.78 C96.74 29.15, 64.25 28.78, 0.6 28.4 M0.96 28.59 C0.85 17.53, -1.89 11.54, 1.37 -0.89 M-0.72 28.86 C0.09 21.72, -0.07 16.15, 0.8 0.27" stroke="#f85149" stroke-width="2" fill="none"></path></g><g transform="translate(214.3340301513672 584) rotate(0 50.66596984863281 6.875)"><text x="50.66596984863281" y="NaN" font-family="Virgil, Segoe UI Emoji" font-size="11px" fill="#ffffff" text-anchor="middle" style="white-space: pre;" direction="ltr">TCP+TLS  3 RTT</text></g><g transform="translate(350 585) rotate(0 144.76133728027344 8.125)"><text x="0" y="NaN" font-family="Virgil, Segoe UI Emoji" font-size="13px" fill="#3fb950" text-anchor="start" style="white-space: pre;" direction="ltr">&lt;-- connection stays open the entire time --&gt;</text></g><g transform="translate(40 635) rotate(0 27.01396942138672 8.125)"><text x="0" y="NaN" font-family="Virgil, Segoe UI Emoji" font-size="13px" fill="#3fb950" text-anchor="start" style="white-space: pre;" direction="ltr">stream 1</text></g><g stroke-linecap="round"><g transform="translate(340 645) rotate(0 520 0)"><path d="M-0.87 -1.01 C172.46 -0.96, 866.34 -0.75, 1039.82 -0.63" stroke="#8b949e" stroke-width="1.5" fill="none" stroke-dasharray="1.5 7"></path></g></g><g stroke-linecap="round" transform="translate(340 632) rotate(0 93.5 13)"><path d="M-0.94 1.45 L187.95 0.33 L186.34 26.99 L-1.01 26.48" stroke="none" stroke-width="0" fill="#3a5d1d"></path><path d="M-0.21 0.04 C50.01 -0.25, 100.95 0.73, 188.97 -1.08 M0.33 0.27 C56.01 0.3, 110.27 -0.31, 187.84 0.8 M185.05 -1.84 C186.3 7.88, 187.8 10.59, 186.1 26.13 M186.88 -0.64 C186.31 5.24, 186.9 10.42, 186.47 25.2 M188.42 26.82 C112.24 24.5, 39.55 23.8, -0.98 24.8 M187.75 26.57 C141.31 24.79, 94.44 23.78, -0.3 25.57 M-1.77 26.23 C1.44 18.26, 1.47 5.18, -0.8 -1.74 M0.04 26.44 C-0.41 18.58, -0.59 10.83, -0.56 -0.47" stroke="#6dbf3a" stroke-width="1" fill="none"></path></g><g transform="translate(340 636) rotate(0 50.748451232910156 6.875)"><text x="0" y="NaN" font-family="Virgil, Segoe UI Emoji" font-size="11px" fill="#ffffff" text-anchor="start" style="white-space: pre;" direction="ltr"> GetUser  [unary]</text></g><g transform="translate(40 671) rotate(0 29.880470275878906 8.125)"><text x="0" y="NaN" font-family="Virgil, Segoe UI Emoji" font-size="13px" fill="#3fb950" text-anchor="start" style="white-space: pre;" direction="ltr">stream 2</text></g><g stroke-linecap="round"><g transform="translate(340 681) rotate(0 520 0)"><path d="M0.55 -0.6 C173.78 -0.9, 867 -1.24, 1040.23 -1.14" stroke="#8b949e" stroke-width="1.5" fill="none" stroke-dasharray="1.5 7"></path></g></g><g stroke-linecap="round" transform="translate(392 668) rotate(0 416 13)"><path d="M-1.83 1.78 L832.32 -0.63 L833.22 27.88 L-1.78 25.23" stroke="none" stroke-width="0" fill="#3a1d6e"></path><path d="M-0.07 -0.66 C287.72 1.38, 575.79 1.57, 832 -0.53 M-0.32 0.38 C187.29 -3.51, 375.38 -3.31, 831.93 0.07 M831.74 1.97 C831.86 8.18, 830.67 13.8, 831.58 25.39 M832.65 -0.33 C830.97 5.48, 832.7 9.75, 831.67 26.59 M831.92 25.67 C550.96 26.6, 268.25 25.89, 0.66 25.73 M831.6 25.96 C661.13 26.64, 491.41 26.25, 0.2 26.06 M0.02 24.13 C-0.43 17.28, -1.47 9.41, 0.28 -0.24 M0.06 25.98 C-0.02 16.66, 0.58 7.48, 0.96 0.7" stroke="#a371f7" stroke-width="1" fill="none"></path></g><g transform="translate(392 672) rotate(0 86.12442779541016 6.875)"><text x="0" y="NaN" font-family="Virgil, Segoe UI Emoji" font-size="11px" fill="#ffffff" text-anchor="start" style="white-space: pre;" direction="ltr"> StreamPrices  [server-stream]</text></g><g transform="translate(40 707) rotate(0 29.678970336914062 8.125)"><text x="0" y="NaN" font-family="Virgil, Segoe UI Emoji" font-size="13px" fill="#3fb950" text-anchor="start" style="white-space: pre;" direction="ltr">stream 3</text></g><g stroke-linecap="round"><g transform="translate(340 717) rotate(0 520 0)"><path d="M-1.17 0.85 C172.1 1.06, 866.58 0.15, 1039.92 0.21" stroke="#8b949e" stroke-width="1.5" fill="none" stroke-dasharray="1.5 7"></path></g></g><g stroke-linecap="round" transform="translate(548 704) rotate(0 104 13)"><path d="M-0.11 -0.63 L208.71 -1.7 L208.17 26.68 L0.52 24.79" stroke="none" stroke-width="0" fill="#3a5d1d"></path><path d="M-0.21 0.1 C57.24 -1.16, 109.82 0.16, 207.92 1.29 M0.61 0.4 C57 -1.64, 114.64 -0.81, 208.34 -0.78 M206.53 -1.67 C208.1 7.23, 207.54 14.37, 207.82 24.86 M207.63 -0.95 C208.67 6.74, 209.1 13, 207.77 26.38 M208.11 27.18 C136.86 26.01, 62.94 27.74, 1.47 27.21 M208.1 26.52 C136.03 26.9, 63.43 25.81, -0.37 26.41 M1.26 27.19 C0.91 17.71, 0.02 7.55, 0.57 -1.24 M0.27 26.11 C-0.25 19.75, -0.21 15.26, 0.88 -0.77" stroke="#6dbf3a" stroke-width="1" fill="none"></path></g><g transform="translate(548 708) rotate(0 53.32244873046875 6.875)"><text x="0" y="NaN" font-family="Virgil, Segoe UI Emoji" font-size="11px" fill="#ffffff" text-anchor="start" style="white-space: pre;" direction="ltr"> GetOrder  [unary]</text></g><g transform="translate(40 743) rotate(0 29.41246795654297 8.125)"><text x="0" y="NaN" font-family="Virgil, Segoe UI Emoji" font-size="13px" fill="#3fb950" text-anchor="start" style="white-space: pre;" direction="ltr">stream 4</text></g><g stroke-linecap="round"><g transform="translate(340 753) rotate(0 520 0)"><path d="M0.91 -0.89 C174.27 -0.9, 866.58 0.03, 1039.89 0.05" stroke="#8b949e" stroke-width="1.5" fill="none" stroke-dasharray="1.5 7"></path></g></g><g stroke-linecap="round" transform="translate(652 740) rotate(0 338 13)"><path d="M1.4 1.34 L675.84 0.39 L676.63 26.98 L-0.22 25.07" stroke="none" stroke-width="0" fill="#0d2c5a"></path><path d="M0.35 0.27 C258.26 1.54, 516.18 1.21, 675.34 -0.21 M0.4 -0.33 C190.19 -1.38, 380.13 -1.99, 676.08 -0.1 M675.49 0.28 C677.11 9.13, 677.72 21.45, 674.9 24.8 M676.12 0.84 C675.51 6.69, 676.65 15.62, 676.07 25.06 M675.37 26.46 C507.34 23.9, 338.17 22.89, -0.29 26.32 M675.84 26.37 C513.21 24.03, 350.66 23.98, 0.18 25.8 M1.12 25.42 C0.3 16.08, -1.73 9.11, -0.99 -0.27 M0.15 25.16 C0.28 17.94, -1.09 11.03, -0.45 0.7" stroke="#58a6ff" stroke-width="1" fill="none"></path></g><g transform="translate(652 744) rotate(0 35.067970275878906 6.875)"><text x="0" y="NaN" font-family="Virgil, Segoe UI Emoji" font-size="11px" fill="#ffffff" text-anchor="start" style="white-space: pre;" direction="ltr"> Chat  [bidi]</text></g><g transform="translate(40 779) rotate(0 29.26947021484375 8.125)"><text x="0" y="NaN" font-family="Virgil, Segoe UI Emoji" font-size="13px" fill="#3fb950" text-anchor="start" style="white-space: pre;" direction="ltr">stream 5</text></g><g stroke-linecap="round"><g transform="translate(340 789) rotate(0 520 0)"><path d="M0.15 1.13 C173.37 1.27, 866.99 1, 1040.13 0.9" stroke="#8b949e" stroke-width="1.5" fill="none" stroke-dasharray="1.5 7"></path></g></g><g stroke-linecap="round" transform="translate(860 776) rotate(0 104 13)"><path d="M1.15 0.82 L207.17 -1.74 L209.03 26.2 L0.37 26.8" stroke="none" stroke-width="0" fill="#5c3a10"></path><path d="M1.25 -0.49 C59.62 1.23, 120.72 2.31, 209.74 -0.06 M-0.43 0.1 C65.99 -1.82, 132.47 -1.44, 208 0.28 M208.81 -1.08 C207.58 8.57, 209.49 15.45, 208.2 27.46 M207.61 -0.58 C209.01 7.73, 207.99 16.08, 208.84 26.3 M209.51 25.99 C133.34 23.95, 59.47 25.78, 1.75 25.24 M208.21 25.48 C145.48 25.54, 85.12 25.83, -0.6 26.89 M1.78 25.5 C-1.8 15.61, -1.02 8.09, -1.87 0.93 M0.84 25.32 C0.5 16.34, -0.01 4.58, -0.34 0.72" stroke="#f0883e" stroke-width="1" fill="none"></path></g><g transform="translate(860 780) rotate(0 66.60492706298828 6.875)"><text x="0" y="NaN" font-family="Virgil, Segoe UI Emoji" font-size="11px" fill="#ffffff" text-anchor="start" style="white-space: pre;" direction="ltr"> Upload  [client-stream]</text></g><g stroke-linecap="round"><g transform="translate(200 842) rotate(0 590 0)"><path d="M0.81 -0.37 C197.24 -0.65, 983.34 -0.86, 1179.78 -0.94 M-0.22 -1.61 C195.93 -1.84, 982.27 -0.16, 1178.72 0.11" stroke="#3fb950" stroke-width="4" fill="none"></path></g><g transform="translate(200 842) rotate(0 590 0)"><path d="M1149.88 9.95 C1160.15 5.17, 1171.55 0.44, 1179.77 1.79 M1150.67 10.42 C1157.89 8.52, 1165.68 6, 1178.3 0.51" stroke="#3fb950" stroke-width="4" fill="none"></path></g><g transform="translate(200 842) rotate(0 590 0)"><path d="M1149.92 -10.57 C1160.3 -7.15, 1171.68 -3.68, 1179.77 1.79 M1150.7 -10.1 C1157.82 -6.46, 1165.6 -3.46, 1178.3 0.51" stroke="#3fb950" stroke-width="4" fill="none"></path></g></g><g transform="translate(200 804) rotate(0 253.94227600097656 9.375)"><text x="0" y="NaN" font-family="Virgil, Segoe UI Emoji" font-size="15px" fill="#3fb950" text-anchor="start" style="white-space: pre;" direction="ltr">1 TLS handshake (= 3 RTTs) -- regardless of how many calls follow</text></g><g transform="translate(1116.8772173479215 499.45668861913566) rotate(0 84.27096557617188 13.75)"><text x="0" y="NaN" font-family="Virgil, Segoe UI Emoji" font-size="22px" fill="#f0b070" text-anchor="start" style="white-space: pre;" direction="ltr">12 RTTs saved</text></g><g transform="translate(1110.1900180213865 534.6578436508852) rotate(0 84.74990844726562 9.375)"><text x="0" y="NaN" font-family="Virgil, Segoe UI Emoji" font-size="15px" fill="#f0b070" text-anchor="start" style="white-space: pre;" direction="ltr">(and streaming is free)</text></g></svg>