<svg version="1.1" xmlns="http://www.w3.org/2000/svg" viewBox="0 0 1420 894.7686471572623" width="1420" height="894.7686471572623">
  <!-- svg-source:excalidraw -->
  
  <defs>
    <style>
      @font-face {
        font-family: "Virgil";
        src: url("https://excalidraw.com/Virgil.woff2");
      }
      @font-face {
        font-family: "Cascadia";
        src: url("https://excalidraw.com/Cascadia.woff2");
      }
    </style>
  </defs>
  <rect x="0" y="0" width="1420" height="894.7686471572623" fill="#0d1117"></rect><g transform="translate(10 10) rotate(0 419.92486572265625 18.75)"><text x="0" y="NaN" font-family="Virgil, Segoe UI Emoji" font-size="30px" fill="#ff8c42" text-anchor="start" style="white-space: pre;" direction="ltr">Deadline Propagation -- the budget shrinks at every hop</text></g><g transform="translate(10 53) rotate(0 563.111572265625 10)"><text x="0" y="NaN" font-family="Virgil, Segoe UI Emoji" font-size="16px" fill="#c9d1d9" text-anchor="start" style="white-space: pre;" direction="ltr">Client sets one absolute deadline. Each gRPC hop receives the REMAINING budget. The deepest service knows exactly how much time it has.</text></g><g stroke-opacity="0.6" fill-opacity="0.6" stroke-linecap="round" transform="translate(10 115) rotate(0 700 170)"><path d="M0.3 1.64 L1400.33 -1.22 L1398.09 339.03 L0.19 340.34" stroke="none" stroke-width="0" fill="#161b22"></path><path d="M-0.77 0.21 C557.96 -0.23, 1117.37 -0.35, 1399.46 0.8 M1398.86 1.19 C1399.34 71.44, 1399.26 143.4, 1400.23 339.56 M1400.54 340.51 C969.96 334.16, 540.03 334.47, 0.7 340.41 M0.53 339.45 C1.58 238.37, 1.31 137.88, -0.43 -0.77" stroke="#6dbf3a" stroke-width="2.5" fill="none" stroke-dasharray="8 10"></path></g><g transform="translate(30 129) rotate(0 400.15966796875 12.5)"><text x="0" y="NaN" font-family="Virgil, Segoe UI Emoji" font-size="20px" fill="#3fb950" text-anchor="start" style="white-space: pre;" direction="ltr">Happy path  --  budget propagates, deepest service finishes within remaining time</text></g><g stroke-linecap="round" transform="translate(40 205) rotate(0 110 25)"><path d="M0.33 -0.03 L221.22 0.21 L220.91 51.24 L-1.34 49.53" stroke="none" stroke-width="0" fill="#1f4d2b"></path><path d="M-0.18 -1.37 C81.99 1.71, 161.64 2.7, 219.92 -1.7 M0.31 -0.6 C48.26 2.2, 96.37 2.39, 220.36 -0.43 M220.27 -0.13 C219.21 10.79, 220.07 21.55, 219.5 48.55 M220.19 -0.28 C220.89 14.6, 219.58 29.57, 220.15 50.09 M220.64 49.66 C139.67 51.35, 63.17 52.24, -1.69 49.53 M219.88 50.02 C160.51 50.91, 99.49 50.73, 0.66 49.76 M1.97 49.96 C1.95 35.75, 0.56 21, 0.7 0.09 M0.83 49.53 C-0.53 38.89, 0.28 26.27, 0.47 -0.03" stroke="#3fb950" stroke-width="2" fill="none"></path></g><g transform="translate(125.65502166748047 218.75) rotate(0 24.34497833251953 11.25)"><text x="24.34497833251953" y="NaN" font-family="Virgil, Segoe UI Emoji" font-size="18px" fill="#ffffff" text-anchor="middle" style="white-space: pre;" direction="ltr">Client</text></g><g transform="translate(89.81005096435547 265) rotate(0 60.18994903564453 8.125)"><text x="60.18994903564453" y="NaN" font-family="Virgil, Segoe UI Emoji" font-size="13px" fill="#8b949e" text-anchor="middle" style="white-space: pre;" direction="ltr">deadline = +500ms</text></g><g stroke-linecap="round" transform="translate(50 305) rotate(0 100 12)"><path d="M-1.36 -1.41 L200.38 -0.38 L201.98 25.22 L-1.13 23.98" stroke="none" stroke-width="0" fill="#21262d"></path><path d="M-1.31 -0.26 C72.04 1.27, 144.72 -1.28, 201.14 1.78 M0.45 -0.39 C60.57 1.77, 120.43 1.19, 200.89 -0.27 M198.98 1.66 C202.01 6.82, 199.9 8.9, 198.54 25.97 M200.54 0.31 C201.01 5.82, 200.12 11.32, 200.85 24.81 M198.98 23.66 C158.55 26.37, 114.82 24.2, -1.41 23.88 M199.52 24.03 C151.9 23.15, 103.77 22.47, 0.27 23.23 M0.52 23 C-1.19 15.22, 0.3 6.72, 1.85 -1.62 M0.37 24.2 C-0.5 16.55, 0.95 10.37, -0.98 -0.13" stroke="#8b949e" stroke-width="1" fill="none"></path></g><g stroke-linecap="round" transform="translate(50 305) rotate(0 100 12)"><path d="M0.75 -1.02 L201.08 1.34 L201.17 23.02 L1.64 23.6" stroke="none" stroke-width="0" fill="#3a5d1d"></path><path d="M-1.6 1.72 C67.26 1.82, 138.21 -0.65, 199.02 -0.05 M-0.16 0.63 C42.61 1.59, 87.07 1.41, 200.6 0.19 M199.63 1.11 C199.47 5.29, 198.02 9.92, 201.67 25.87 M200.25 0.63 C199.43 7.53, 200.73 13.07, 200.25 24.74 M200.2 24.76 C134.44 23.74, 65.82 23.44, -0.38 22.29 M200.11 23.77 C123.65 23.99, 47.71 24.03, 0.12 24.37 M1.8 24.39 C1.16 15.76, -1.98 6.62, 0.96 -1.56 M0.59 23.43 C-0.45 18.42, -0.01 10.11, 0.97 0.8" stroke="#6dbf3a" stroke-width="1" fill="none"></path></g><g transform="translate(80.67607879638672 283) rotate(0 69.32392120361328 7.5)"><text x="69.32392120361328" y="NaN" font-family="Virgil, Segoe UI Emoji" font-size="12px" fill="#e6edf3" text-anchor="middle" style="white-space: pre;" direction="ltr">received: 500ms budget</text></g><g stroke-linecap="round" transform="translate(300 205) rotate(0 110 25)"><path d="M-1.24 -0.42 L218.64 -0.05 L219.65 48.1 L-0.53 48.61" stroke="none" stroke-width="0" fill="#3a1d6e"></path><path d="M-0.04 -0.65 C84.6 -0.75, 168.74 0.12, 221.43 1.72 M-0.38 0.49 C82.98 -2.18, 165.55 -1.02, 220.82 0.75 M221.78 -1.24 C220.84 18.64, 222.45 35.56, 219.73 48.23 M220.92 0.16 C219.72 17.41, 219.99 36.08, 219.99 49.07 M220.08 48.27 C133.58 50.96, 49.31 48.89, -0.47 49.6 M220.39 49.63 C172.84 50.33, 126.88 50.08, 0.75 49.86 M-1.56 51.51 C1.57 38.75, 0.44 27.31, -0.35 1.37 M-0.19 49.44 C0.9 37.54, 0.23 26.74, -0.48 -0.36" stroke="#a371f7" stroke-width="2" fill="none"></path></g><g transform="translate(371.18302154541016 218.75) rotate(0 38.816978454589844 11.25)"><text x="38.816978454589844" y="NaN" font-family="Virgil, Segoe UI Emoji" font-size="18px" fill="#ffffff" text-anchor="middle" style="white-space: pre;" direction="ltr">Gateway</text></g><g transform="translate(355.0165557861328 265) rotate(0 54.98344421386719 8.125)"><text x="54.98344421386719" y="NaN" font-family="Virgil, Segoe UI Emoji" font-size="13px" fill="#8b949e" text-anchor="middle" style="white-space: pre;" direction="ltr">AuthN, transform</text></g><g stroke-linecap="round" transform="translate(310 305) rotate(0 100 12)"><path d="M-1.83 -0.98 L199.95 0.17 L201.14 24.48 L-1.95 25.6" stroke="none" stroke-width="0" fill="#21262d"></path><path d="M0.05 1.04 C73 1.41, 145.29 -0.27, 198.72 -0.37 M-0.21 -0.57 C74.03 1.3, 150.29 1.55, 199.33 -0.71 M201.79 0.92 C198.71 6.96, 201.48 16.92, 199.05 22.32 M199.03 -0.5 C201.01 7.99, 201.06 16, 199.29 24.81 M198.78 24.45 C127.48 26, 58.23 25.08, 1.71 22.68 M200.18 24.23 C141.05 21.96, 82.17 23.27, -0.17 23.77 M-0.2 24.58 C1.88 16.21, 1.7 8.99, 0.8 -0.74 M-0.75 23.43 C-0.73 13.7, -0.73 5.75, 0.88 0.49" stroke="#8b949e" stroke-width="1" fill="none"></path></g><g stroke-linecap="round" transform="translate(310 305) rotate(0 100 12)"><path d="M0.53 0.07 L201.47 -1.75 L200.83 22.68 L0.2 22.57" stroke="none" stroke-width="0" fill="#3a5d1d"></path><path d="M1.55 1.12 C68.73 0.31, 138.56 0.04, 198.79 1.3 M0.02 -0.21 C50.36 1.86, 99.33 1.35, 200.19 -0.09 M201.04 -1.91 C199.39 5.61, 200.91 13.44, 200.28 22.99 M200.76 -0.75 C199.05 6.56, 199.21 12.83, 200.19 24.75 M200.9 24.81 C136.89 25.91, 73.81 24.69, -0.01 22.66 M199.79 23.19 C159.67 25.94, 117.83 24.35, -0.71 24.12 M0.97 23.96 C0.17 14.99, 0.36 3.73, -1.79 0.46 M-0.61 24.31 C0.17 19.26, 0.31 13.47, 0.98 0.08" stroke="#6dbf3a" stroke-width="1" fill="none"></path></g><g transform="translate(340.6760787963867 283) rotate(0 69.32392120361328 7.5)"><text x="69.32392120361328" y="NaN" font-family="Virgil, Segoe UI Emoji" font-size="12px" fill="#e6edf3" text-anchor="middle" style="white-space: pre;" direction="ltr">received: 500ms budget</text></g><g transform="translate(356.2970428466797 337) rotate(0 53.70295715332031 8.125)"><text x="53.70295715332031" y="NaN" font-family="Virgil, Segoe UI Emoji" font-size="13px" fill="#f85149" text-anchor="middle" style="white-space: pre;" direction="ltr">spent 80ms here</text></g><g stroke-linecap="round" transform="translate(560 205) rotate(0 110 25)"><path d="M0.58 -1.6 L220.05 1.83 L219.24 51.32 L-1.44 48.8" stroke="none" stroke-width="0" fill="#3a1d6e"></path><path d="M-1.58 -0.6 C58.94 -2.23, 117.58 0.31, 220.87 -0.43 M0.78 0.56 C60.19 -2.09, 119.22 -1.18, 220.58 0.78 M218.25 -0.6 C221.4 18.22, 219.56 32.62, 221.13 51.74 M220.46 0.03 C220.43 17.93, 219.61 33.38, 219.33 50.83 M220.65 49.79 C164.37 51.39, 109.46 50.59, 1.56 48.56 M219.14 50.21 C159.37 50.92, 98.68 50.88, 0.29 49.52 M-1.7 48.77 C1.68 35.28, 1.2 20.9, 0.8 -0.78 M0.61 50.54 C0.51 33.52, 0.65 17.43, -0.69 0.08" stroke="#a371f7" stroke-width="2" fill="none"></path></g><g transform="translate(619.5100479125977 218.75) rotate(0 50.489952087402344 11.25)"><text x="50.489952087402344" y="NaN" font-family="Virgil, Segoe UI Emoji" font-size="18px" fill="#ffffff" text-anchor="middle" style="white-space: pre;" direction="ltr">UserService</text></g><g transform="translate(643.8700408935547 265) rotate(0 26.129959106445312 8.125)"><text x="26.129959106445312" y="NaN" font-family="Virgil, Segoe UI Emoji" font-size="13px" fill="#8b949e" text-anchor="middle" style="white-space: pre;" direction="ltr">validate</text></g><g stroke-linecap="round" transform="translate(570 305) rotate(0 100 12)"><path d="M-1.38 0.7 L200.79 -0.55 L200.08 22.38 L-0.14 25.62" stroke="none" stroke-width="0" fill="#21262d"></path><path d="M-0.83 -1.03 C50.82 0.08, 99.84 -1.71, 198.92 -1.14 M-0.74 -0.78 C56.48 0.57, 111.22 0.64, 199.82 -0.31 M200.44 0.23 C199.63 7.16, 199.8 13.77, 198.84 23.13 M199.6 -0.72 C199.4 9.31, 199.29 16.45, 199.63 23.67 M200.52 24.22 C135.7 25.03, 72.85 22.19, 0.52 23.58 M200.42 24.02 C150.32 25.18, 101.6 24.96, -0.82 24.84 M-1.79 22.7 C-1.02 17.36, 1.34 9.5, -1.54 1.1 M-0.96 24.08 C0.6 15.77, -0.77 9.39, 0.75 -0.71" stroke="#8b949e" stroke-width="1" fill="none"></path></g><g stroke-linecap="round" transform="translate(570 305) rotate(0 84 12)"><path d="M-0.09 1.94 L169.24 -0.81 L169.87 23.14 L-1.43 23.74" stroke="none" stroke-width="0" fill="#3a5d1d"></path><path d="M-1.54 -1.67 C57.93 1.09, 111.81 1.21, 167.93 0.43 M-0.24 0.88 C49.86 -0.75, 98.68 -1.99, 167.08 -0.92 M169.61 0.77 C167.29 9.85, 169.84 20.59, 167.28 24.86 M167.17 -0.11 C167.91 6.47, 168.8 12.42, 167.97 23.7 M166.61 22.37 C101.64 23.15, 36.86 24.25, -0.83 24.28 M167.72 23.02 C132.19 24.11, 96.97 24.04, -0.6 23.34 M1.34 23.79 C-0.11 19.26, -0.83 12.83, 1.3 -2 M-0.68 24.84 C-0.6 16.28, 0.67 9.61, 0.71 0.17" stroke="#6dbf3a" stroke-width="1" fill="none"></path></g><g transform="translate(600.4000778198242 283) rotate(0 69.59992218017578 7.5)"><text x="69.59992218017578" y="NaN" font-family="Virgil, Segoe UI Emoji" font-size="12px" fill="#e6edf3" text-anchor="middle" style="white-space: pre;" direction="ltr">received: 420ms budget</text></g><g transform="translate(617.2525405883789 337) rotate(0 52.747459411621094 8.125)"><text x="52.747459411621094" y="NaN" font-family="Virgil, Segoe UI Emoji" font-size="13px" fill="#f85149" text-anchor="middle" style="white-space: pre;" direction="ltr">spent 50ms here</text></g><g stroke-linecap="round" transform="translate(820 205) rotate(0 110 25)"><path d="M1.71 1.37 L221.05 1.89 L221.01 48.18 L0.58 48.96" stroke="none" stroke-width="0" fill="#3a1d6e"></path><path d="M0.6 -1.18 C74.09 -2.46, 146.38 -0.38, 218.74 -0.45 M-0.65 -0.83 C86.62 -0.44, 174.01 -0.25, 220.43 0.71 M220.01 1.16 C218.51 15.08, 220.82 35.5, 219.09 49.38 M219.49 -0.14 C218.52 18.9, 219.65 35.15, 220.29 49.44 M220.67 51.24 C172.67 49.8, 128.25 49.8, -1.36 49.03 M220.22 49.81 C168.88 47.5, 117.23 47.73, 0.43 50.46 M0.47 50.09 C0.63 34.31, 0.05 21.72, -1.35 1.81 M0.91 50.54 C0.29 34.59, 0.28 20.14, -0.79 -0.02" stroke="#a371f7" stroke-width="2" fill="none"></path></g><g transform="translate(875.2980499267578 218.75) rotate(0 54.70195007324219 11.25)"><text x="54.70195007324219" y="NaN" font-family="Virgil, Segoe UI Emoji" font-size="18px" fill="#ffffff" text-anchor="middle" style="white-space: pre;" direction="ltr">OrderService</text></g><g transform="translate(897.9810256958008 265) rotate(0 32.01897430419922 8.125)"><text x="32.01897430419922" y="NaN" font-family="Virgil, Segoe UI Emoji" font-size="13px" fill="#8b949e" text-anchor="middle" style="white-space: pre;" direction="ltr">DB lookup</text></g><g stroke-linecap="round" transform="translate(830 305) rotate(0 100 12)"><path d="M-1.62 0.19 L200.78 1.92 L201.38 23.78 L0.12 22.2" stroke="none" stroke-width="0" fill="#21262d"></path><path d="M-0.09 -1.64 C42.45 -1.04, 86.98 -0.51, 201.62 -0.99 M0.15 -0.2 C47.19 0.07, 94.37 -0.85, 199.2 0.33 M198.31 0.61 C199.07 7.51, 200.63 11.61, 201.67 24.35 M200.64 -0.62 C200.2 7.74, 199.5 14.85, 200.59 23.51 M199.52 24.63 C125.22 22.56, 53.07 22.63, 0.36 22.6 M199.77 23.16 C144.78 24, 90.1 24.23, -0.4 23.4 M0.77 22.93 C-0.36 17.07, -0.12 4.55, -0.62 0.58 M-0.77 23.88 C-0.87 15.43, 0.48 6.81, 0.59 -0.34" stroke="#8b949e" stroke-width="1" fill="none"></path></g><g stroke-linecap="round" transform="translate(830 305) rotate(0 74 12)"><path d="M1.26 1.73 L147.14 1.82 L148.52 23.76 L0.47 24.06" stroke="none" stroke-width="0" fill="#3a5d1d"></path><path d="M-1.9 0.05 C43.73 -2.06, 88.54 0.67, 147.03 0.43 M-0.43 -0.27 C42.84 0.82, 83.66 -0.09, 147.76 -0.95 M148.01 -1.63 C148.02 8.58, 147.35 14.86, 149.44 25.22 M147.06 -0.16 C147.83 4.46, 148.52 9.89, 148.69 24.8 M149.42 24.61 C108.91 24.91, 67.2 24.09, -0.14 25.55 M147.25 23.68 C96.73 23.49, 48 24.42, 0.96 23.39 M-0.88 22.47 C-1.76 15.08, 0.09 5.4, 0.95 1.26 M-0.4 23.18 C-0.02 18.1, 0.23 12.98, 0.53 -0.02" stroke="#6dbf3a" stroke-width="1" fill="none"></path></g><g transform="translate(861.1980743408203 283) rotate(0 68.80192565917969 7.5)"><text x="68.80192565917969" y="NaN" font-family="Virgil, Segoe UI Emoji" font-size="12px" fill="#e6edf3" text-anchor="middle" style="white-space: pre;" direction="ltr">received: 370ms budget</text></g><g transform="translate(872.1695404052734 337) rotate(0 57.83045959472656 8.125)"><text x="57.83045959472656" y="NaN" font-family="Virgil, Segoe UI Emoji" font-size="13px" fill="#f85149" text-anchor="middle" style="white-space: pre;" direction="ltr">spent 200ms here</text></g><g stroke-linecap="round" transform="translate(1080 205) rotate(0 110 25)"><path d="M-0.03 0.94 L220.66 -0.47 L218.54 49.72 L0.21 50.07" stroke="none" stroke-width="0" fill="#3a5d1d"></path><path d="M1.28 1.47 C61.63 -1.8, 122.29 0.05, 218.36 1.02 M0.66 -0.85 C66.82 -0.13, 134.49 -0.54, 220.76 0.27 M220.63 1.62 C219.25 16.87, 219 30.72, 221.02 50.94 M220.16 0.03 C220.02 15.96, 220.55 32.26, 219.18 49.64 M218.47 49.44 C144.12 49.05, 69.83 50.94, -0.07 50.25 M220.71 50.82 C145.03 50.51, 71.5 50.21, -0.35 50.21 M0.46 49.86 C0.15 33.55, 0.64 22.35, 0.21 -1.79 M0.83 50.64 C-0.09 39.16, -0.39 27.81, -0.96 0.81" stroke="#6dbf3a" stroke-width="2" fill="none"></path></g><g transform="translate(1142.8940505981445 218.75) rotate(0 47.10594940185547 11.25)"><text x="47.10594940185547" y="NaN" font-family="Virgil, Segoe UI Emoji" font-size="18px" fill="#ffffff" text-anchor="middle" style="white-space: pre;" direction="ltr">PriceEngine</text></g><g transform="translate(1164.8970336914062 265) rotate(0 25.10296630859375 8.125)"><text x="25.10296630859375" y="NaN" font-family="Virgil, Segoe UI Emoji" font-size="13px" fill="#8b949e" text-anchor="middle" style="white-space: pre;" direction="ltr">compute</text></g><g stroke-linecap="round" transform="translate(1090 305) rotate(0 100 12)"><path d="M-1.06 -0.96 L198.6 -0.05 L199.98 22.83 L0.89 22.85" stroke="none" stroke-width="0" fill="#21262d"></path><path d="M0.02 1.3 C60.93 1.6, 119.62 1.47, 199.81 -0.3 M-0.48 0.56 C56.76 -0.54, 112.7 0.18, 199.33 0.3 M199.77 -1.51 C198.61 5.3, 198.64 12.19, 198.68 23.01 M200.48 0.67 C200.64 5.76, 200.73 12.83, 199.5 24.44 M200.13 23.84 C140.5 23.18, 82.33 23.69, -0.83 25.63 M199.28 23.97 C153.63 24.26, 108.56 24.39, -0.41 24.66 M1.72 25.4 C-1.41 18.8, 1.38 13.43, 1.68 -0.87 M0 23.83 C-0.08 15.72, 0.31 8.47, 0.72 0.48" stroke="#8b949e" stroke-width="1" fill="none"></path></g><g stroke-linecap="round" transform="translate(1090 305) rotate(0 34 12)"><path d="M-0.29 -1.32 L67.26 -1.8 L67.21 22.83 L0.62 24.64" stroke="none" stroke-width="0" fill="#5c3a10"></path><path d="M-1.74 -1.97 C26.42 0.88, 55.03 0.87, 67.69 -0.67 M-0.67 -0.86 C18.05 0.17, 34.78 -1.28, 67.76 0.35 M66.4 0.55 C69.52 6.69, 67.04 12.95, 66.14 22.84 M67.3 -0.8 C68.03 8.11, 68.36 16.46, 67.25 24.33 M69.14 24.8 C54.04 22.28, 40.5 24.75, 1.95 23.56 M68.33 24.05 C41.93 24.92, 14.68 24.07, 0.18 23.63 M0.92 22.48 C-0.26 17.16, 1.9 8.63, -0.57 0.77 M-0.53 24.97 C0.33 17.68, -0.13 10.51, 0.05 0.83" stroke="#f0883e" stroke-width="1" fill="none"></path></g><g transform="translate(1123.658073425293 283) rotate(0 66.34192657470703 7.5)"><text x="66.34192657470703" y="NaN" font-family="Virgil, Segoe UI Emoji" font-size="12px" fill="#e6edf3" text-anchor="middle" style="white-space: pre;" direction="ltr">received: 170ms budget</text></g><g transform="translate(1137.1095428466797 337) rotate(0 52.89045715332031 8.125)"><text x="52.89045715332031" y="NaN" font-family="Virgil, Segoe UI Emoji" font-size="13px" fill="#f85149" text-anchor="middle" style="white-space: pre;" direction="ltr">spent 60ms here</text></g><g stroke-linecap="round"><g transform="translate(260 230) rotate(0 20 0)"><path d="M1.2 0.37 C8.18 0.36, 34.72 -0.84, 41.13 -0.81 M0.36 -0.48 C7.35 -0.29, 34.38 0.47, 40.78 0.31" stroke="#3fb950" stroke-width="3" fill="none"></path></g><g transform="translate(260 230) rotate(0 20 0)"><path d="M22.55 8.92 C25.11 4.74, 31.92 2.13, 41.72 -1.67 M22.37 6.38 C27.05 5.48, 32.42 4.58, 41.48 0.96" stroke="#3fb950" stroke-width="3" fill="none"></path></g><g transform="translate(260 230) rotate(0 20 0)"><path d="M22.64 -4.76 C25.09 -5.69, 31.88 -5.06, 41.72 -1.67 M22.46 -7.3 C27.1 -4.73, 32.45 -2.16, 41.48 0.96" stroke="#3fb950" stroke-width="3" fill="none"></path></g></g><g transform="translate(253.43502044677734 187.84494437135655) rotate(0 26.564979553222656 8.75)"><text x="26.564979553222656" y="NaN" font-family="Virgil, Segoe UI Emoji" font-size="14px" fill="#3fb950" text-anchor="middle" style="white-space: pre;" direction="ltr">+500ms</text></g><g transform="translate(257.5050354003906 169.84494437135655) rotate(0 22.494964599609375 6.875)"><text x="22.494964599609375" y="NaN" font-family="Virgil, Segoe UI Emoji" font-size="11px" fill="#8b949e" text-anchor="middle" style="white-space: pre;" direction="ltr">deadline:</text></g><g stroke-linecap="round"><g transform="translate(520 230) rotate(0 20 0)"><path d="M-0.48 -0.97 C6.18 -1.06, 32.99 -1.2, 39.57 -1.05 M1.46 1.13 C7.97 1.2, 31.74 -0.07, 38.4 -0.07" stroke="#3fb950" stroke-width="3" fill="none"></path></g><g transform="translate(520 230) rotate(0 20 0)"><path d="M18.19 6.59 C23.01 3.81, 29.47 3.11, 36.78 -0.36 M19.68 7.76 C26.46 5.06, 34.49 1.47, 37.48 0.58" stroke="#3fb950" stroke-width="3" fill="none"></path></g><g transform="translate(520 230) rotate(0 20 0)"><path d="M17.8 -7.09 C22.66 -6.24, 29.23 -3.32, 36.78 -0.36 M19.29 -5.91 C26.21 -3.48, 34.39 -1.94, 37.48 0.58" stroke="#3fb950" stroke-width="3" fill="none"></path></g></g><g transform="translate(513.1130218505859 187.84494437135655) rotate(0 26.886978149414062 8.75)"><text x="26.886978149414062" y="NaN" font-family="Virgil, Segoe UI Emoji" font-size="14px" fill="#3fb950" text-anchor="middle" style="white-space: pre;" direction="ltr">+420ms</text></g><g transform="translate(517.5050354003906 169.92370278590556) rotate(0 22.494964599609375 6.875)"><text x="22.494964599609375" y="NaN" font-family="Virgil, Segoe UI Emoji" font-size="11px" fill="#8b949e" text-anchor="middle" style="white-space: pre;" direction="ltr">deadline:</text></g><g stroke-linecap="round"><g transform="translate(780 230) rotate(0 20 0)"><path d="M-0.92 -0.93 C5.89 -1.06, 33.06 -0.65, 39.85 -0.49 M0.8 1.2 C7.53 1.21, 32.47 0.76, 38.82 0.79" stroke="#3fb950" stroke-width="3" fill="none"></path></g><g transform="translate(780 230) rotate(0 20 0)"><path d="M18.53 7.53 C23.31 6.06, 28.27 4.66, 39.99 0.14 M20.18 8.34 C26.61 5.62, 34.09 3.21, 38.36 1.76" stroke="#3fb950" stroke-width="3" fill="none"></path></g><g transform="translate(780 230) rotate(0 20 0)"><path d="M18.43 -6.16 C23.26 -4.65, 28.24 -3.08, 39.99 0.14 M20.07 -5.34 C26.61 -2.94, 34.13 -0.23, 38.36 1.76" stroke="#3fb950" stroke-width="3" fill="none"></path></g></g><g transform="translate(774.0440139770508 187.92370278590556) rotate(0 25.95598602294922 8.75)"><text x="25.95598602294922" y="NaN" font-family="Virgil, Segoe UI Emoji" font-size="14px" fill="#3fb950" text-anchor="middle" style="white-space: pre;" direction="ltr">+370ms</text></g><g transform="translate(777.5050354003906 169.92370278590556) rotate(0 22.494964599609375 6.875)"><text x="22.494964599609375" y="NaN" font-family="Virgil, Segoe UI Emoji" font-size="11px" fill="#8b949e" text-anchor="middle" style="white-space: pre;" direction="ltr">deadline:</text></g><g stroke-linecap="round"><g transform="translate(1040 230) rotate(0 20 0)"><path d="M0.21 -0.42 C7.01 -0.32, 33.25 0.48, 40.06 0.54 M-1.14 -1.69 C5.58 -1.94, 32.14 -1.79, 39.14 -1.3" stroke="#3fb950" stroke-width="3" fill="none"></path></g><g transform="translate(1040 230) rotate(0 20 0)"><path d="M19.43 5.01 C25.53 5.14, 29.05 1.03, 41.08 -3.11 M19.81 4.48 C25.49 3.54, 30.22 1.79, 38.6 -1.83" stroke="#3fb950" stroke-width="3" fill="none"></path></g><g transform="translate(1040 230) rotate(0 20 0)"><path d="M19.88 -8.67 C25.87 -5.3, 29.28 -6.17, 41.08 -3.11 M20.26 -9.19 C25.79 -6.82, 30.41 -5.26, 38.6 -1.83" stroke="#3fb950" stroke-width="3" fill="none"></path></g></g><g transform="translate(1036.9140167236328 187.92370278590556) rotate(0 23.085983276367188 8.75)"><text x="23.085983276367188" y="NaN" font-family="Virgil, Segoe UI Emoji" font-size="14px" fill="#3fb950" text-anchor="middle" style="white-space: pre;" direction="ltr">+170ms</text></g><g transform="translate(1037.5050354003906 169.92370278590556) rotate(0 22.494964599609375 6.875)"><text x="22.494964599609375" y="NaN" font-family="Virgil, Segoe UI Emoji" font-size="11px" fill="#8b949e" text-anchor="middle" style="white-space: pre;" direction="ltr">deadline:</text></g><g transform="translate(30 427) rotate(0 327.1347351074219 9.375)"><text x="0" y="NaN" font-family="Virgil, Segoe UI Emoji" font-size="15px" fill="#3fb950" text-anchor="start" style="white-space: pre;" direction="ltr">Total elapsed: 80 + 50 + 200 + 60 = 390ms.  Last hop finishes with 110ms to spare.</text></g><g stroke-opacity="0.6" fill-opacity="0.6" stroke-linecap="round" transform="translate(10 524.7686471572623) rotate(0 700 180)"><path d="M-0.6 -1.29 L1399.82 1.81 L1399.08 358.91 L0.54 360.73" stroke="none" stroke-width="0" fill="#161b22"></path><path d="M-0.71 -0.33 C452.19 3.74, 903.6 4.32, 1399.5 -0.44 M1399.5 -1.13 C1397.4 83.87, 1398.85 169.74, 1400.32 359.05 M1400.71 360.56 C860.89 354.77, 322.18 354.56, -0.23 359.96 M0.7 360.64 C0.98 263.22, 0.86 164.48, -0.57 1.24" stroke="#f85149" stroke-width="2.5" fill="none" stroke-dasharray="8 10"></path></g><g transform="translate(30 539) rotate(0 339.7096862792969 12.5)"><text x="0" y="NaN" font-family="Virgil, Segoe UI Emoji" font-size="20px" fill="#f85149" text-anchor="start" style="white-space: pre;" direction="ltr">Failure case  --  OrderService DB is slow, deadline expires mid-flight</text></g><g stroke-linecap="round" transform="translate(40 615) rotate(0 110 25)"><path d="M-1.83 1.78 L220.32 -0.63 L221.22 51.88 L-1.78 49.23" stroke="none" stroke-width="0" fill="#1f4d2b"></path><path d="M-0.15 -1.43 C76.04 1.07, 152.85 1.48, 220.01 -1.15 M-0.7 0.82 C48.91 -2.62, 99.55 -2.18, 219.85 0.15 M219.74 1.97 C220.04 15.06, 218.84 27.57, 219.58 49.39 M220.65 -0.33 C218.81 10.39, 220.54 19.56, 219.67 50.59 M219.83 49.29 C146.63 50.54, 69.64 49.01, 1.42 49.42 M219.14 49.92 C174.07 50.77, 130.63 49.92, 0.44 50.12 M0.02 48.13 C-0.4 33.04, -1.44 16.94, 0.28 -0.24 M0.06 49.98 C0.13 32.28, 0.74 14.73, 0.96 0.7" stroke="#3fb950" stroke-width="2" fill="none"></path></g><g transform="translate(125.65502166748047 628.75) rotate(0 24.34497833251953 11.25)"><text x="24.34497833251953" y="NaN" font-family="Virgil, Segoe UI Emoji" font-size="18px" fill="#ffffff" text-anchor="middle" style="white-space: pre;" direction="ltr">Client</text></g><g transform="translate(89.81005096435547 675) rotate(0 60.18994903564453 8.125)"><text x="60.18994903564453" y="NaN" font-family="Virgil, Segoe UI Emoji" font-size="13px" fill="#8b949e" text-anchor="middle" style="white-space: pre;" direction="ltr">deadline = +500ms</text></g><g stroke-linecap="round" transform="translate(50 715) rotate(0 100 12)"><path d="M-0.45 0.52 L201.74 -0.29 L201.32 25.12 L-1.54 24.75" stroke="none" stroke-width="0" fill="#21262d"></path><path d="M1.28 -0.12 C65.86 0.08, 132.88 3.04, 201.09 -0.54 M-0.53 -0.45 C71.18 1.67, 142.57 1.31, 200.09 0.6 M199.55 0.93 C198.09 7.31, 198 17.88, 198.46 23.19 M199.25 -0.65 C199.82 8.14, 200.24 16.81, 199.91 23.12 M201.77 23.8 C123.63 25.1, 44.26 24.34, 0.91 22.26 M199.54 24.35 C146.01 23.17, 91.64 21.92, -0.72 23.66 M0.89 25.91 C-1.82 17.66, -0.28 13.6, 1.4 1.14 M-0.5 24.06 C0 17.08, 0.16 9.56, -0.07 0.81" stroke="#8b949e" stroke-width="1" fill="none"></path></g><g stroke-linecap="round" transform="translate(50 715) rotate(0 100 12)"><path d="M-0.11 -0.63 L200.71 -1.7 L200.17 24.68 L0.52 22.79" stroke="none" stroke-width="0" fill="#3a5d1d"></path><path d="M-0.21 0.1 C55.13 -1.17, 105.51 0.17, 199.92 1.31 M0.62 0.4 C54.8 -1.62, 110.24 -0.77, 200.35 -0.79 M198.53 -1.67 C200.09 6.69, 199.53 13.29, 199.82 22.86 M199.63 -0.95 C200.67 6.27, 201.09 12.07, 199.77 24.38 M200.12 25.2 C131.65 24, 60.48 25.76, 1.49 25.23 M200.1 24.52 C130.79 24.9, 60.94 23.8, -0.37 24.42 M1.26 25.19 C0.91 16.4, 0.01 6.94, 0.57 -1.24 M0.27 24.11 C-0.26 18.19, -0.22 14.13, 0.88 -0.77" stroke="#6dbf3a" stroke-width="1" fill="none"></path></g><g transform="translate(80.67607879638672 693) rotate(0 69.32392120361328 7.5)"><text x="69.32392120361328" y="NaN" font-family="Virgil, Segoe UI Emoji" font-size="12px" fill="#e6edf3" text-anchor="middle" style="white-space: pre;" direction="ltr">received: 500ms budget</text></g><g stroke-linecap="round" transform="translate(300 615) rotate(0 110 25)"><path d="M-1.85 0.45 L221.74 1.15 L220.57 50.6 L1.66 49.5" stroke="none" stroke-width="0" fill="#3a1d6e"></path><path d="M-0.03 1.13 C84.04 2.93, 164.87 1.81, 218.31 0.25 M-0.76 0.86 C50.71 1.42, 100.6 0.98, 220.46 -0.71 M221.39 1.98 C220.14 18.02, 219.75 33.56, 220.65 49.15 M219.25 -0.02 C220.7 12.17, 220.76 25.45, 220.82 50.63 M219.87 48.75 C148.21 50.52, 78.67 51.6, 0.07 51.27 M219.74 49.61 C153.67 49.99, 88.41 49.91, -0.06 50.6 M0.57 49.64 C0.48 31.84, 1.43 12.56, -0.23 1.77 M-0.41 49.13 C0.64 39.16, -0.54 26.97, -0.43 -0.84" stroke="#a371f7" stroke-width="2" fill="none"></path></g><g transform="translate(371.18302154541016 628.75) rotate(0 38.816978454589844 11.25)"><text x="38.816978454589844" y="NaN" font-family="Virgil, Segoe UI Emoji" font-size="18px" fill="#ffffff" text-anchor="middle" style="white-space: pre;" direction="ltr">Gateway</text></g><g transform="translate(355.0165557861328 675) rotate(0 54.98344421386719 8.125)"><text x="54.98344421386719" y="NaN" font-family="Virgil, Segoe UI Emoji" font-size="13px" fill="#8b949e" text-anchor="middle" style="white-space: pre;" direction="ltr">AuthN, transform</text></g><g stroke-linecap="round" transform="translate(310 715) rotate(0 100 12)"><path d="M-1.79 -0.68 L199.05 1.54 L200.32 22.1 L1.92 23.43" stroke="none" stroke-width="0" fill="#21262d"></path><path d="M-0.8 -1.05 C73.47 -0.1, 146.54 0.44, 201.53 0.55 M-0.63 -0.09 C53.19 0.96, 105.22 0.14, 200.17 0.4 M201.87 0.08 C200.34 7.06, 199.99 14.36, 198.19 25.79 M200.22 -0.64 C200.89 5.15, 200.5 11.85, 200.52 24.28 M198.82 23.07 C158.61 23.46, 115.48 22.21, -1.57 24.88 M200.22 23.62 C131.58 23.67, 63.2 23, -0.24 23.97 M-0.02 25.3 C1.96 18.95, 2.1 12.58, -0.35 -1.33 M0.66 24.76 C-0.32 15.89, -0.11 6.8, 0.85 -0.29" stroke="#8b949e" stroke-width="1" fill="none"></path></g><g stroke-linecap="round" transform="translate(310 715) rotate(0 100 12)"><path d="M-0.84 1.56 L201.5 0.59 L199.24 23.47 L-0.59 23.93" stroke="none" stroke-width="0" fill="#3a5d1d"></path><path d="M0.58 0.19 C73.6 2.34, 149.08 -0.04, 200.63 0.11 M-0.07 0.15 C75.75 2.62, 152.12 2.51, 200.03 -0.28 M198.3 -1.09 C201.83 6.39, 198.64 15.52, 201.45 22.62 M200.65 -0.18 C199.21 9.83, 200.23 17.44, 199.37 24.87 M200.79 24.96 C153.45 24.65, 103.49 23.23, -0.44 23.11 M200.05 24.19 C134.37 26.39, 68.71 24.91, -0.57 23.33 M-1.5 22.24 C-1.08 15.05, -1.04 7.24, 1.55 0.83 M0.07 23.44 C-0.08 19.45, -0.99 13.84, 0.45 0.23" stroke="#6dbf3a" stroke-width="1" fill="none"></path></g><g transform="translate(340.6760787963867 693) rotate(0 69.32392120361328 7.5)"><text x="69.32392120361328" y="NaN" font-family="Virgil, Segoe UI Emoji" font-size="12px" fill="#e6edf3" text-anchor="middle" style="white-space: pre;" direction="ltr">received: 500ms budget</text></g><g transform="translate(356.2970428466797 747) rotate(0 53.70295715332031 8.125)"><text x="53.70295715332031" y="NaN" font-family="Virgil, Segoe UI Emoji" font-size="13px" fill="#f85149" text-anchor="middle" style="white-space: pre;" direction="ltr">spent 80ms here</text></g><g stroke-linecap="round" transform="translate(560 615) rotate(0 110 25)"><path d="M-0.36 -0.58 L219.99 -1.49 L221.67 50.42 L-1.24 48.75" stroke="none" stroke-width="0" fill="#3a1d6e"></path><path d="M0.83 0.01 C68.82 0.9, 141.81 1.6, 219.21 1.63 M0.8 -0.7 C69.07 -0.29, 136.84 -0.25, 219.75 0.41 M220.35 -1.72 C221.61 13.24, 221.85 29.78, 220.75 51.37 M219.83 0.09 C220.05 16.54, 220.38 30.36, 220.31 50.85 M218.39 48.59 C164.55 49.99, 110.61 47.69, 1.54 49.2 M220.6 50.31 C169 49.79, 118.39 50.41, -0.42 49.19 M-0.25 50.51 C1.35 37.27, 0.07 28.54, 1.31 0.96 M-0.59 50.26 C-0.8 40.05, 0.1 29.7, -0.79 0.96" stroke="#a371f7" stroke-width="2" fill="none"></path></g><g transform="translate(619.5100479125977 628.75) rotate(0 50.489952087402344 11.25)"><text x="50.489952087402344" y="NaN" font-family="Virgil, Segoe UI Emoji" font-size="18px" fill="#ffffff" text-anchor="middle" style="white-space: pre;" direction="ltr">UserService</text></g><g transform="translate(643.8700408935547 675) rotate(0 26.129959106445312 8.125)"><text x="26.129959106445312" y="NaN" font-family="Virgil, Segoe UI Emoji" font-size="13px" fill="#8b949e" text-anchor="middle" style="white-space: pre;" direction="ltr">validate</text></g><g stroke-linecap="round" transform="translate(570 715) rotate(0 100 12)"><path d="M-0.69 1.12 L201.95 0.08 L201.09 23.83 L-0.23 24.08" stroke="none" stroke-width="0" fill="#21262d"></path><path d="M-0.09 1.1 C74.72 -0.38, 150.03 0.58, 198.32 -1.39 M0.74 0.69 C40.48 -1.42, 80.78 -0.17, 199.97 -0.86 M200.35 0.94 C201.2 7.19, 200.4 15.49, 201.66 23.93 M200.77 0.37 C199.3 5.33, 199.25 9.79, 199.67 23.54 M198.53 24.43 C125.25 23.07, 49.74 22.24, -0.91 22.88 M200.73 23.77 C149.79 24.92, 100.11 25.25, 0.87 23.48 M0.83 24.73 C1.66 18.4, 0.64 13.65, -1.51 -1.7 M0.14 23.82 C0.47 14.11, -0.32 4.9, 0.31 0.38" stroke="#8b949e" stroke-width="1" fill="none"></path></g><g stroke-linecap="round" transform="translate(570 715) rotate(0 84 12)"><path d="M-0.57 -1.45 L168.63 1.44 L168.71 22.17 L1.04 22.67" stroke="none" stroke-width="0" fill="#3a5d1d"></path><path d="M1.86 -0.24 C61.56 -2.66, 125.67 -1.32, 169.14 -1.95 M1 0.03 C35.75 -1.15, 72.16 -1.84, 168.56 0.08 M166.13 -1.63 C168.13 4.34, 167.14 9.29, 167.79 25.22 M168.38 -0.56 C168.18 6.13, 167.07 13.58, 167.61 24.21 M168.58 22.76 C106.67 24.57, 43.48 23.4, 1.21 25.09 M168.89 24.25 C131.81 24.83, 95.17 25.51, 0.81 24.99 M1.5 22.99 C-0.32 16.09, -0.71 4.29, 1.72 1.79 M-0.02 24.92 C-0.71 15.11, -0.25 6.13, 0.69 0.51" stroke="#6dbf3a" stroke-width="1" fill="none"></path></g><g transform="translate(600.4000778198242 693) rotate(0 69.59992218017578 7.5)"><text x="69.59992218017578" y="NaN" font-family="Virgil, Segoe UI Emoji" font-size="12px" fill="#e6edf3" text-anchor="middle" style="white-space: pre;" direction="ltr">received: 420ms budget</text></g><g transform="translate(617.2525405883789 747) rotate(0 52.747459411621094 8.125)"><text x="52.747459411621094" y="NaN" font-family="Virgil, Segoe UI Emoji" font-size="13px" fill="#f85149" text-anchor="middle" style="white-space: pre;" direction="ltr">spent 50ms here</text></g><g stroke-linecap="round" transform="translate(820 615) rotate(0 110 25)"><path d="M-1.18 -1.54 L220.62 -0.87 L220.5 50.02 L0.33 49.75" stroke="none" stroke-width="0" fill="#4a1219"></path><path d="M0.3 1.54 C64.95 3.24, 132.36 1.89, 220.28 -0.83 M-0.17 0.35 C73.47 -2.58, 146.6 -1.96, 219.2 -0.57 M220.45 0.32 C220.49 12.73, 219.9 22.81, 221.14 49.18 M219.05 -0.96 C219.85 10.72, 220.23 20.14, 219.36 49.81 M219.04 50.36 C141.07 50.15, 57.94 49.15, -1.68 49.42 M220.8 49.92 C138.76 48.65, 58.27 49.46, -0.21 50.16 M-0.49 48.41 C-0.82 32.69, -2.06 17.6, -0.99 -1.7 M-0.45 50.48 C-0.73 35.35, 0.42 18.97, -0.62 -0.03" stroke="#f85149" stroke-width="2" fill="none"></path></g><g transform="translate(875.2980499267578 628.75) rotate(0 54.70195007324219 11.25)"><text x="54.70195007324219" y="NaN" font-family="Virgil, Segoe UI Emoji" font-size="18px" fill="#ffffff" text-anchor="middle" style="white-space: pre;" direction="ltr">OrderService</text></g><g transform="translate(877.7335433959961 675) rotate(0 52.266456604003906 8.125)"><text x="52.266456604003906" y="NaN" font-family="Virgil, Segoe UI Emoji" font-size="13px" fill="#f85149" text-anchor="middle" style="white-space: pre;" direction="ltr">DB slow! 480ms</text></g><g stroke-linecap="round" transform="translate(830 715) rotate(0 100 12)"><path d="M-0.47 1.14 L201 -0.3 L199.87 24.51 L-0.49 25.45" stroke="none" stroke-width="0" fill="#21262d"></path><path d="M-0.99 1.08 C44.62 -2.77, 88.58 -0.79, 199.8 -0.44 M-0.59 -0.06 C63.67 -1.65, 128.47 -0.96, 199.15 0.64 M198.28 -1.17 C201.9 7.2, 200.54 15.48, 201.4 24.45 M199.49 0.74 C200.46 8.63, 198.91 17.23, 200.29 24.22 M201.14 22.58 C154.92 25.13, 105.35 25.39, 0.5 24.67 M200.74 24.56 C140.72 25.57, 81.19 24.09, 0.36 24.84 M-1.7 25.51 C-1.35 18.17, 0.42 7.58, 0.77 0.69 M-0.27 23.6 C0.45 18.03, -0.18 12.66, -0.86 -0.17" stroke="#8b949e" stroke-width="1" fill="none"></path></g><g stroke-linecap="round" transform="translate(830 715) rotate(0 74 12)"><path d="M1.93 1.13 L149.56 1.12 L147.46 23.23 L1.48 22.01" stroke="none" stroke-width="0" fill="#4a1219"></path><path d="M0.13 -1.09 C32.34 2.34, 66.35 -0.97, 147.88 1.44 M-0.31 0.95 C38.8 0.62, 78.23 0.17, 148.08 -0.78 M147.51 -1.78 C146.11 6.79, 148.67 14.18, 146.1 24.46 M147.61 -0.6 C147.62 7.32, 146.97 14.47, 148.51 23.92 M148.83 22.43 C106.92 23.52, 64.45 25.03, 0.12 25.34 M148.31 23.01 C101.81 22.99, 56.29 23.34, -0.92 24.95 M-1.42 24.41 C-0.39 18.07, -1.12 11.89, -0.94 -0.91 M0.22 24.74 C-0.32 15, -0.36 4.75, -0.14 0.7" stroke="#f85149" stroke-width="1" fill="none"></path></g><g transform="translate(861.1980743408203 693) rotate(0 68.80192565917969 7.5)"><text x="68.80192565917969" y="NaN" font-family="Virgil, Segoe UI Emoji" font-size="12px" fill="#e6edf3" text-anchor="middle" style="white-space: pre;" direction="ltr">received: 370ms budget</text></g><g transform="translate(841.9510726928711 747) rotate(0 88.0489273071289 8.125)"><text x="88.0489273071289" y="NaN" font-family="Virgil, Segoe UI Emoji" font-size="13px" fill="#f85149" text-anchor="middle" style="white-space: pre;" direction="ltr">spent 480ms here  (OVER!)</text></g><g stroke-linecap="round" transform="translate(1080 615) rotate(0 110 25)"><path d="M-0.33 1.97 L220.56 0.11 L218.95 49.56 L1.33 50.49" stroke="none" stroke-width="0" fill="#4a1219"></path><path d="M-1.11 1.29 C66.97 -0.73, 135.57 -1.9, 218.87 -0.28 M0.39 0.67 C81.42 0.01, 161.08 1.43, 219.6 0.14 M221.03 1.93 C219.05 10.23, 218.34 24.35, 219.21 51.24 M220.32 0.63 C219.25 10.74, 219.16 24.2, 220.7 50.32 M220.93 51.18 C134.57 51.65, 49.59 51.99, -1.71 50.18 M219.58 49.63 C144.53 51.16, 69.65 51.14, 0.49 50.29 M-1.3 51.47 C1.17 31.83, -1.66 10.58, 0.94 -0.76 M-0.26 49.16 C0.05 33.29, -0.82 17.66, -0.49 0.14" stroke="#f85149" stroke-width="2" fill="none"></path></g><g transform="translate(1142.8940505981445 628.75) rotate(0 47.10594940185547 11.25)"><text x="47.10594940185547" y="NaN" font-family="Virgil, Segoe UI Emoji" font-size="18px" fill="#ffffff" text-anchor="middle" style="white-space: pre;" direction="ltr">PriceEngine</text></g><g transform="translate(1109.7315979003906 675) rotate(0 80.26840209960938 8.125)"><text x="80.26840209960938" y="NaN" font-family="Virgil, Segoe UI Emoji" font-size="13px" fill="#f85149" text-anchor="middle" style="white-space: pre;" direction="ltr">&lt;-- aborted, never called</text></g><g stroke-linecap="round" transform="translate(1090 715) rotate(0 100 12)"><path d="M1.96 -1.44 L200.93 0.74 L198.2 25.29 L-0.95 22.28" stroke="none" stroke-width="0" fill="#4a1219"></path><path d="M-0.77 1.01 C52.83 -1.83, 106.39 0.12, 198.26 1.49 M-0.27 -0.12 C48.26 -0.09, 96.01 -0.53, 199.89 0.66 M198.12 -1.06 C202.15 7.04, 198.7 15.07, 199.44 25.02 M199.22 -0.3 C199.38 4.58, 199.29 11.26, 199.86 24.87 M199.94 24.95 C132.75 26.56, 61.15 25.22, -1.76 24.08 M200.09 24.42 C157.57 25.69, 114.72 25.69, -0.24 24.76 M-1.76 23.32 C-1.47 16.68, -0.97 7.15, -1.68 -1.89 M-0.78 23.72 C-0.38 17.39, 0.16 9.31, 0.53 -0.52" stroke="#f85149" stroke-width="2" fill="none"></path></g><g transform="translate(1107.5020751953125 720) rotate(0 82.4979248046875 8.125)"><text x="82.4979248046875" y="NaN" font-family="Virgil, Segoe UI Emoji" font-size="13px" fill="#ffffff" text-anchor="middle" style="white-space: pre;" direction="ltr">ABORTED -- never called</text></g><g stroke-linecap="round"><g transform="translate(260 640) rotate(0 20 0)"><path d="M-0.71 -0.76 C5.89 -0.58, 32.72 0.4, 39.42 0.5 M1.12 1.46 C8.14 1.32, 35.61 -1.3, 41.82 -1.36" stroke="#3fb950" stroke-width="3" fill="none"></path></g><g transform="translate(260 640) rotate(0 20 0)"><path d="M22.2 5.62 C29.56 3.53, 33.71 2.32, 43.5 -2.86 M24.45 7.45 C30.29 2.77, 36.3 0.45, 40.96 -0.51" stroke="#3fb950" stroke-width="3" fill="none"></path></g><g transform="translate(260 640) rotate(0 20 0)"><path d="M21.39 -8.04 C28.91 -6.24, 33.29 -3.58, 43.5 -2.86 M23.64 -6.2 C29.69 -5.76, 36.01 -2.96, 40.96 -0.51" stroke="#3fb950" stroke-width="3" fill="none"></path></g></g><g transform="translate(253.35872323268313 597.8277159681741) rotate(0 26.564979553222656 8.75)"><text x="26.564979553222656" y="NaN" font-family="Virgil, Segoe UI Emoji" font-size="14px" fill="#3fb950" text-anchor="middle" style="white-space: pre;" direction="ltr">+500ms</text></g><g transform="translate(257.4287381862964 579.8277159681741) rotate(0 22.494964599609375 6.875)"><text x="22.494964599609375" y="NaN" font-family="Virgil, Segoe UI Emoji" font-size="11px" fill="#8b949e" text-anchor="middle" style="white-space: pre;" direction="ltr">deadline:</text></g><g stroke-linecap="round"><g transform="translate(520 640) rotate(0 20 0)"><path d="M-0.31 1.15 C6.49 1.45, 34.13 1.41, 40.8 1.17 M1.73 0.71 C8.44 0.76, 34.1 -0.37, 40.28 -0.34" stroke="#3fb950" stroke-width="3" fill="none"></path></g><g transform="translate(520 640) rotate(0 20 0)"><path d="M23.57 8.27 C29.23 4.3, 32.39 0.83, 40.33 -1.93 M21.88 7.82 C29.3 4.32, 36.41 0.92, 40.2 0.62" stroke="#3fb950" stroke-width="3" fill="none"></path></g><g transform="translate(520 640) rotate(0 20 0)"><path d="M23.25 -5.41 C28.94 -5.27, 32.19 -4.62, 40.33 -1.93 M21.57 -5.85 C29.11 -4.07, 36.34 -2.18, 40.2 0.62" stroke="#3fb950" stroke-width="3" fill="none"></path></g></g><g transform="translate(513.0367246364917 598) rotate(0 26.886978149414062 8.75)"><text x="26.886978149414062" y="NaN" font-family="Virgil, Segoe UI Emoji" font-size="14px" fill="#3fb950" text-anchor="middle" style="white-space: pre;" direction="ltr">+420ms</text></g><g transform="translate(517.4287381862964 580) rotate(0 22.494964599609375 6.875)"><text x="22.494964599609375" y="NaN" font-family="Virgil, Segoe UI Emoji" font-size="11px" fill="#8b949e" text-anchor="middle" style="white-space: pre;" direction="ltr">deadline:</text></g><g stroke-linecap="round"><g transform="translate(780 640) rotate(0 20 0)"><path d="M-0.24 0.18 C6.69 0.17, 34.24 0.75, 41.07 0.64 M1.83 -0.77 C8.75 -1.19, 34.27 -1.37, 40.69 -1.15" stroke="#3fb950" stroke-width="3" fill="none"></path></g><g transform="translate(780 640) rotate(0 20 0)"><path d="M22.13 7.3 C27.64 5.05, 30.52 1.36, 39.68 -1.76 M21.52 5.87 C25.97 4.33, 29.74 3.19, 39.7 -1.17" stroke="#3fb950" stroke-width="3" fill="none"></path></g><g transform="translate(780 640) rotate(0 20 0)"><path d="M22.26 -6.38 C27.82 -5.16, 30.67 -5.37, 39.68 -1.76 M21.65 -7.81 C26.2 -6.31, 29.94 -4.42, 39.7 -1.17" stroke="#3fb950" stroke-width="3" fill="none"></path></g></g><g transform="translate(774.0440139770508 598) rotate(0 25.95598602294922 8.75)"><text x="25.95598602294922" y="NaN" font-family="Virgil, Segoe UI Emoji" font-size="14px" fill="#3fb950" text-anchor="middle" style="white-space: pre;" direction="ltr">+370ms</text></g><g transform="translate(777.4287381862964 580) rotate(0 22.494964599609375 6.875)"><text x="22.494964599609375" y="NaN" font-family="Virgil, Segoe UI Emoji" font-size="11px" fill="#8b949e" text-anchor="middle" style="white-space: pre;" direction="ltr">deadline:</text></g><g stroke-linecap="round"><g transform="translate(1080 815) rotate(0 -20 0)"><path d="M-0.66 0.59 C-7.28 0.85, -32.54 1.14, -39.18 1.19" stroke="#f85149" stroke-width="3.5" fill="none" stroke-dasharray="8 11"></path></g><g transform="translate(1080 815) rotate(0 -20 0)"><path d="M-19.48 -4.48 C-24.97 -4.4, -32 -1.67, -37.72 0.18" stroke="#f85149" stroke-width="3.5" fill="none"></path></g><g transform="translate(1080 815) rotate(0 -20 0)"><path d="M-19.34 9.2 C-24.84 4.55, -31.91 2.55, -37.72 0.18" stroke="#f85149" stroke-width="3.5" fill="none"></path></g></g><g stroke-linecap="round"><g transform="translate(820 815) rotate(0 -20 0)"><path d="M0.2 0.84 C-6.3 0.9, -32.41 0.55, -39.04 0.5" stroke="#f85149" stroke-width="3.5" fill="none" stroke-dasharray="8 11"></path></g><g transform="translate(820 815) rotate(0 -20 0)"><path d="M-18.77 -4.53 C-24.92 -3.44, -30.48 -1.27, -39.95 2.19" stroke="#f85149" stroke-width="3.5" fill="none"></path></g><g transform="translate(820 815) rotate(0 -20 0)"><path d="M-18.91 9.15 C-25.04 6.19, -30.56 4.3, -39.95 2.19" stroke="#f85149" stroke-width="3.5" fill="none"></path></g></g><g stroke-linecap="round"><g transform="translate(560 815) rotate(0 -20 0)"><path d="M0.19 0.61 C-6.55 0.68, -33.9 -0.14, -40.57 -0.4" stroke="#f85149" stroke-width="3.5" fill="none" stroke-dasharray="8 11"></path></g><g transform="translate(560 815) rotate(0 -20 0)"><path d="M-20.54 -7.57 C-27.74 -4.56, -34.12 -4.02, -39.14 0.07" stroke="#f85149" stroke-width="3.5" fill="none"></path></g><g transform="translate(560 815) rotate(0 -20 0)"><path d="M-20.99 6.1 C-27.97 5.18, -34.22 1.79, -39.14 0.07" stroke="#f85149" stroke-width="3.5" fill="none"></path></g></g><g stroke-linecap="round"><g transform="translate(300 815) rotate(0 -20 0)"><path d="M-1.1 0.3 C-7.77 0.24, -32.85 -0.76, -39.25 -0.88" stroke="#f85149" stroke-width="3.5" fill="none" stroke-dasharray="8 11"></path></g><g transform="translate(300 815) rotate(0 -20 0)"><path d="M-19.77 -5.9 C-28.64 -4.29, -34.77 -1.86, -39.16 -0.33" stroke="#f85149" stroke-width="3.5" fill="none"></path></g><g transform="translate(300 815) rotate(0 -20 0)"><path d="M-20.18 7.77 C-28.84 4.43, -34.82 1.9, -39.16 -0.33" stroke="#f85149" stroke-width="3.5" fill="none"></path></g></g><g transform="translate(40 835) rotate(0 429.6145324707031 9.375)"><text x="0" y="NaN" font-family="Virgil, Segoe UI Emoji" font-size="15px" fill="#f85149" text-anchor="start" style="white-space: pre;" direction="ltr">DEADLINE_EXCEEDED bubbles back up the tree. Cancellation flows to in-flight handlers; downstream work aborts.</text></g><g transform="translate(40 855) rotate(0 414.3926086425781 8.75)"><text x="0" y="NaN" font-family="Virgil, Segoe UI Emoji" font-size="14px" fill="#c9d1d9" text-anchor="start" style="white-space: pre;" direction="ltr">Without propagation: every hop times out independently, downstream services keep working after the client has given up.</text></g></svg>