<svg version="1.1" xmlns="http://www.w3.org/2000/svg" viewBox="0 0 1380 785" width="1380" height="785">
  <!-- svg-source:excalidraw -->
  
  <defs>
    <style>
      @font-face {
        font-family: "Virgil";
        src: url("https://excalidraw.com/Virgil.woff2");
      }
      @font-face {
        font-family: "Cascadia";
        src: url("https://excalidraw.com/Cascadia.woff2");
      }
    </style>
  </defs>
  <rect x="0" y="0" width="1380" height="785" fill="#0d1117"></rect><g transform="translate(10 10) rotate(0 436.4398193359375 18.75)"><text x="0" y="NaN" font-family="Virgil, Segoe UI Emoji" font-size="30px" fill="#ff8c42" text-anchor="start" style="white-space: pre;" direction="ltr">Protobuf Wire Format -- the same payload, half the bytes</text></g><g transform="translate(10 53) rotate(0 504.2247314453125 11.25)"><text x="0" y="NaN" font-family="Virgil, Segoe UI Emoji" font-size="18px" fill="#c9d1d9" text-anchor="start" style="white-space: pre;" direction="ltr">Same logical record. JSON repeats keys, quotes, commas. Protobuf encodes tag-varint-value with no keys at all.</text></g><g stroke-linecap="round" transform="translate(10 95) rotate(0 680 25)"><path d="M-0.95 -1.56 L1360.23 -0.65 L1361.56 51.31 L-1.04 51.39" stroke="none" stroke-width="0" fill="#21262d"></path><path d="M-0.77 0.21 C542.01 -0.23, 1085.46 -0.35, 1359.46 0.8 M-0.34 0.36 C286.58 -4.07, 572.84 -3.95, 1360.07 -0.13 M1361.34 1.29 C1360.29 14.07, 1360.8 30.19, 1361.74 51.01 M1360.39 -0.41 C1360.36 15.02, 1360.16 30.9, 1359.68 49.42 M1359.51 49.24 C931.09 50.99, 503.09 51.49, 0.25 49.61 M1359.76 50.19 C1050.99 50.76, 742.72 51.5, -0.33 50.17 M1.57 48.52 C0.43 37.55, 0.66 24.2, 1.5 -1.86 M-0.34 50.7 C0.97 35.03, 1.02 19.88, 0.1 -0.71" stroke="#8b949e" stroke-width="1" fill="none"></path></g><g transform="translate(26 110) rotate(0 348.90277099609375 11.25)"><text x="0" y="NaN" font-family="Virgil, Segoe UI Emoji" font-size="18px" fill="#e6edf3" text-anchor="start" style="white-space: pre;" direction="ltr">Logical payload:   User { id = 42, name = "Ada", email = "ada@example.com" }</text></g><g stroke-opacity="0.6" fill-opacity="0.6" stroke-linecap="round" transform="translate(10 185) rotate(0 680 130)"><path d="M1.2 -1.04 L1361.93 0.74 L1359.61 258.71 L-0.57 261.83" stroke="none" stroke-width="0" fill="#161b22"></path><path d="M-0.08 -0.63 C498.36 3.58, 995.63 4.03, 1359.96 -0.79 M1360.57 -1.1 C1359.97 57.73, 1360.41 114.66, 1360.67 259.21 M1360.11 259.95 C1074.64 257.97, 790.04 258.08, -0.2 259.42 M0.3 259.55 C-0.82 185.81, -2.91 112.2, 0.24 0.14" stroke="#f85149" stroke-width="2.5" fill="none" stroke-dasharray="8 10"></path></g><g transform="translate(30 199) rotate(0 117.77996063232422 15)"><text x="0" y="NaN" font-family="Virgil, Segoe UI Emoji" font-size="24px" fill="#f85149" text-anchor="start" style="white-space: pre;" direction="ltr">JSON  --  49 bytes</text></g><g stroke-linecap="round" transform="translate(61 270) rotate(0 629 25)"><path d="M1.09 1.3 L1259.64 -1.16 L1259.8 49.17 L-0.39 49.59" stroke="none" stroke-width="0" fill="#4a1219"></path><path d="M-0.57 0.09 C310.2 -3.24, 621.46 -3.2, 1257.73 -0.4 M-0.14 -0.1 C497.14 -0.61, 994.13 -0.2, 1258.24 -0.18 M1257.97 1.75 C1260.25 18.9, 1256.87 36.08, 1257.93 50.7 M1258.89 -0.59 C1257.97 18.39, 1258.55 35.85, 1257.35 50.13 M1258.7 50.27 C817.7 53.18, 376.89 53.29, 0.4 49.56 M1257.79 50.33 C880.6 54.14, 503.73 54.08, 0.03 49.65 M1.05 49.63 C1.07 34.78, 1.7 21.77, -1.64 1.64 M-0.39 50.21 C0 32.43, -0.62 12.14, 0.91 -0.89" stroke="#f85149" stroke-width="2" fill="none"></path></g><g transform="translate(73.84300231933594 283) rotate(0 5.1569976806640625 11.25)"><text x="5.1569976806640625" y="NaN" font-family="Virgil, Segoe UI Emoji" font-size="18px" fill="#f85149" text-anchor="middle" style="white-space: pre;" direction="ltr">{</text></g><g transform="translate(102.04800415039062 283) rotate(0 2.951995849609375 11.25)"><text x="2.951995849609375" y="NaN" font-family="Virgil, Segoe UI Emoji" font-size="18px" fill="#f85149" text-anchor="middle" style="white-space: pre;" direction="ltr">"</text></g><g transform="translate(129.0290069580078 283) rotate(0 1.9709930419921875 11.25)"><text x="1.9709930419921875" y="NaN" font-family="Virgil, Segoe UI Emoji" font-size="18px" fill="#ffffff" text-anchor="middle" style="white-space: pre;" direction="ltr">i</text></g><g transform="translate(151.8790054321289 283) rotate(0 5.120994567871094 11.25)"><text x="5.120994567871094" y="NaN" font-family="Virgil, Segoe UI Emoji" font-size="18px" fill="#ffffff" text-anchor="middle" style="white-space: pre;" direction="ltr">d</text></g><g transform="translate(180.04800415039062 283) rotate(0 2.951995849609375 11.25)"><text x="2.951995849609375" y="NaN" font-family="Virgil, Segoe UI Emoji" font-size="18px" fill="#f85149" text-anchor="middle" style="white-space: pre;" direction="ltr">"</text></g><g transform="translate(206.82200622558594 283) rotate(0 2.1779937744140625 11.25)"><text x="2.1779937744140625" y="NaN" font-family="Virgil, Segoe UI Emoji" font-size="18px" fill="#f85149" text-anchor="middle" style="white-space: pre;" direction="ltr">:</text></g><g transform="translate(229.24000549316406 283) rotate(0 5.7599945068359375 11.25)"><text x="5.7599945068359375" y="NaN" font-family="Virgil, Segoe UI Emoji" font-size="18px" fill="#ffffff" text-anchor="middle" style="white-space: pre;" direction="ltr">4</text></g><g transform="translate(254.59200286865234 283) rotate(0 6.407997131347656 11.25)"><text x="6.407997131347656" y="NaN" font-family="Virgil, Segoe UI Emoji" font-size="18px" fill="#ffffff" text-anchor="middle" style="white-space: pre;" direction="ltr">2</text></g><g transform="translate(284.68700408935547 283) rotate(0 2.3129959106445312 11.25)"><text x="2.3129959106445312" y="NaN" font-family="Virgil, Segoe UI Emoji" font-size="18px" fill="#f85149" text-anchor="middle" style="white-space: pre;" direction="ltr">,</text></g><g transform="translate(310.0480041503906 283) rotate(0 2.951995849609375 11.25)"><text x="2.951995849609375" y="NaN" font-family="Virgil, Segoe UI Emoji" font-size="18px" fill="#f85149" text-anchor="middle" style="white-space: pre;" direction="ltr">"</text></g><g transform="translate(334.79700469970703 283) rotate(0 4.202995300292969 11.25)"><text x="4.202995300292969" y="NaN" font-family="Virgil, Segoe UI Emoji" font-size="18px" fill="#ffffff" text-anchor="middle" style="white-space: pre;" direction="ltr">n</text></g><g transform="translate(358.9970016479492 283) rotate(0 6.002998352050781 11.25)"><text x="6.002998352050781" y="NaN" font-family="Virgil, Segoe UI Emoji" font-size="18px" fill="#ffffff" text-anchor="middle" style="white-space: pre;" direction="ltr">a</text></g><g transform="translate(385.3030014038086 283) rotate(0 5.696998596191406 11.25)"><text x="5.696998596191406" y="NaN" font-family="Virgil, Segoe UI Emoji" font-size="18px" fill="#ffffff" text-anchor="middle" style="white-space: pre;" direction="ltr">m</text></g><g transform="translate(412.0770034790039 283) rotate(0 4.922996520996094 11.25)"><text x="4.922996520996094" y="NaN" font-family="Virgil, Segoe UI Emoji" font-size="18px" fill="#ffffff" text-anchor="middle" style="white-space: pre;" direction="ltr">e</text></g><g transform="translate(440.0480041503906 283) rotate(0 2.951995849609375 11.25)"><text x="2.951995849609375" y="NaN" font-family="Virgil, Segoe UI Emoji" font-size="18px" fill="#f85149" text-anchor="middle" style="white-space: pre;" direction="ltr">"</text></g><g transform="translate(466.82200622558594 283) rotate(0 2.1779937744140625 11.25)"><text x="2.1779937744140625" y="NaN" font-family="Virgil, Segoe UI Emoji" font-size="18px" fill="#f85149" text-anchor="middle" style="white-space: pre;" direction="ltr">:</text></g><g transform="translate(492.0480041503906 283) rotate(0 2.951995849609375 11.25)"><text x="2.951995849609375" y="NaN" font-family="Virgil, Segoe UI Emoji" font-size="18px" fill="#f85149" text-anchor="middle" style="white-space: pre;" direction="ltr">"</text></g><g transform="translate(515.0960006713867 283) rotate(0 5.903999328613281 11.25)"><text x="5.903999328613281" y="NaN" font-family="Virgil, Segoe UI Emoji" font-size="18px" fill="#ffffff" text-anchor="middle" style="white-space: pre;" direction="ltr">A</text></g><g transform="translate(541.8790054321289 283) rotate(0 5.120994567871094 11.25)"><text x="5.120994567871094" y="NaN" font-family="Virgil, Segoe UI Emoji" font-size="18px" fill="#ffffff" text-anchor="middle" style="white-space: pre;" direction="ltr">d</text></g><g transform="translate(566.9970016479492 283) rotate(0 6.002998352050781 11.25)"><text x="6.002998352050781" y="NaN" font-family="Virgil, Segoe UI Emoji" font-size="18px" fill="#ffffff" text-anchor="middle" style="white-space: pre;" direction="ltr">a</text></g><g transform="translate(596.0480041503906 283) rotate(0 2.951995849609375 11.25)"><text x="2.951995849609375" y="NaN" font-family="Virgil, Segoe UI Emoji" font-size="18px" fill="#f85149" text-anchor="middle" style="white-space: pre;" direction="ltr">"</text></g><g transform="translate(622.6870040893555 283) rotate(0 2.3129959106445312 11.25)"><text x="2.3129959106445312" y="NaN" font-family="Virgil, Segoe UI Emoji" font-size="18px" fill="#f85149" text-anchor="middle" style="white-space: pre;" direction="ltr">,</text></g><g transform="translate(648.0480041503906 283) rotate(0 2.951995849609375 11.25)"><text x="2.951995849609375" y="NaN" font-family="Virgil, Segoe UI Emoji" font-size="18px" fill="#f85149" text-anchor="middle" style="white-space: pre;" direction="ltr">"</text></g><g transform="translate(672.0770034790039 283) rotate(0 4.922996520996094 11.25)"><text x="4.922996520996094" y="NaN" font-family="Virgil, Segoe UI Emoji" font-size="18px" fill="#ffffff" text-anchor="middle" style="white-space: pre;" direction="ltr">e</text></g><g transform="translate(697.3030014038086 283) rotate(0 5.696998596191406 11.25)"><text x="5.696998596191406" y="NaN" font-family="Virgil, Segoe UI Emoji" font-size="18px" fill="#ffffff" text-anchor="middle" style="white-space: pre;" direction="ltr">m</text></g><g transform="translate(722.9970016479492 283) rotate(0 6.002998352050781 11.25)"><text x="6.002998352050781" y="NaN" font-family="Virgil, Segoe UI Emoji" font-size="18px" fill="#ffffff" text-anchor="middle" style="white-space: pre;" direction="ltr">a</text></g><g transform="translate(753.0290069580078 283) rotate(0 1.9709930419921875 11.25)"><text x="1.9709930419921875" y="NaN" font-family="Virgil, Segoe UI Emoji" font-size="18px" fill="#ffffff" text-anchor="middle" style="white-space: pre;" direction="ltr">i</text></g><g transform="translate(778.6330032348633 283) rotate(0 2.3669967651367188 11.25)"><text x="2.3669967651367188" y="NaN" font-family="Virgil, Segoe UI Emoji" font-size="18px" fill="#ffffff" text-anchor="middle" style="white-space: pre;" direction="ltr">l</text></g><g transform="translate(804.0480041503906 283) rotate(0 2.951995849609375 11.25)"><text x="2.951995849609375" y="NaN" font-family="Virgil, Segoe UI Emoji" font-size="18px" fill="#f85149" text-anchor="middle" style="white-space: pre;" direction="ltr">"</text></g><g transform="translate(830.8220062255859 283) rotate(0 2.1779937744140625 11.25)"><text x="2.1779937744140625" y="NaN" font-family="Virgil, Segoe UI Emoji" font-size="18px" fill="#f85149" text-anchor="middle" style="white-space: pre;" direction="ltr">:</text></g><g transform="translate(856.0480041503906 283) rotate(0 2.951995849609375 11.25)"><text x="2.951995849609375" y="NaN" font-family="Virgil, Segoe UI Emoji" font-size="18px" fill="#f85149" text-anchor="middle" style="white-space: pre;" direction="ltr">"</text></g><g transform="translate(878.9970016479492 283) rotate(0 6.002998352050781 11.25)"><text x="6.002998352050781" y="NaN" font-family="Virgil, Segoe UI Emoji" font-size="18px" fill="#ffffff" text-anchor="middle" style="white-space: pre;" direction="ltr">a</text></g><g transform="translate(905.8790054321289 283) rotate(0 5.120994567871094 11.25)"><text x="5.120994567871094" y="NaN" font-family="Virgil, Segoe UI Emoji" font-size="18px" fill="#ffffff" text-anchor="middle" style="white-space: pre;" direction="ltr">d</text></g><g transform="translate(930.9970016479492 283) rotate(0 6.002998352050781 11.25)"><text x="6.002998352050781" y="NaN" font-family="Virgil, Segoe UI Emoji" font-size="18px" fill="#ffffff" text-anchor="middle" style="white-space: pre;" direction="ltr">a</text></g><g transform="translate(955.7550048828125 283) rotate(0 7.2449951171875 11.25)"><text x="7.2449951171875" y="NaN" font-family="Virgil, Segoe UI Emoji" font-size="18px" fill="#ffffff" text-anchor="middle" style="white-space: pre;" direction="ltr">@</text></g><g transform="translate(984.0770034790039 283) rotate(0 4.922996520996094 11.25)"><text x="4.922996520996094" y="NaN" font-family="Virgil, Segoe UI Emoji" font-size="18px" fill="#ffffff" text-anchor="middle" style="white-space: pre;" direction="ltr">e</text></g><g transform="translate(1009.9420013427734 283) rotate(0 5.0579986572265625 11.25)"><text x="5.0579986572265625" y="NaN" font-family="Virgil, Segoe UI Emoji" font-size="18px" fill="#ffffff" text-anchor="middle" style="white-space: pre;" direction="ltr">x</text></g><g transform="translate(1034.9970016479492 283) rotate(0 6.002998352050781 11.25)"><text x="6.002998352050781" y="NaN" font-family="Virgil, Segoe UI Emoji" font-size="18px" fill="#ffffff" text-anchor="middle" style="white-space: pre;" direction="ltr">a</text></g><g transform="translate(1061.3030014038086 283) rotate(0 5.696998596191406 11.25)"><text x="5.696998596191406" y="NaN" font-family="Virgil, Segoe UI Emoji" font-size="18px" fill="#ffffff" text-anchor="middle" style="white-space: pre;" direction="ltr">m</text></g><g transform="translate(1088.563003540039 283) rotate(0 4.4369964599609375 11.25)"><text x="4.4369964599609375" y="NaN" font-family="Virgil, Segoe UI Emoji" font-size="18px" fill="#ffffff" text-anchor="middle" style="white-space: pre;" direction="ltr">p</text></g><g transform="translate(1116.6330032348633 283) rotate(0 2.3669967651367188 11.25)"><text x="2.3669967651367188" y="NaN" font-family="Virgil, Segoe UI Emoji" font-size="18px" fill="#ffffff" text-anchor="middle" style="white-space: pre;" direction="ltr">l</text></g><g transform="translate(1140.077003479004 283) rotate(0 4.922996520996094 11.25)"><text x="4.922996520996094" y="NaN" font-family="Virgil, Segoe UI Emoji" font-size="18px" fill="#ffffff" text-anchor="middle" style="white-space: pre;" direction="ltr">e</text></g><g transform="translate(1168.5340042114258 283) rotate(0 2.4659957885742188 11.25)"><text x="2.4659957885742188" y="NaN" font-family="Virgil, Segoe UI Emoji" font-size="18px" fill="#ffffff" text-anchor="middle" style="white-space: pre;" direction="ltr">.</text></g><g transform="translate(1192.4820022583008 283) rotate(0 4.517997741699219 11.25)"><text x="4.517997741699219" y="NaN" font-family="Virgil, Segoe UI Emoji" font-size="18px" fill="#ffffff" text-anchor="middle" style="white-space: pre;" direction="ltr">c</text></g><g transform="translate(1218.0139999389648 283) rotate(0 4.986000061035156 11.25)"><text x="4.986000061035156" y="NaN" font-family="Virgil, Segoe UI Emoji" font-size="18px" fill="#ffffff" text-anchor="middle" style="white-space: pre;" direction="ltr">o</text></g><g transform="translate(1243.3030014038086 283) rotate(0 5.696998596191406 11.25)"><text x="5.696998596191406" y="NaN" font-family="Virgil, Segoe UI Emoji" font-size="18px" fill="#ffffff" text-anchor="middle" style="white-space: pre;" direction="ltr">m</text></g><g transform="translate(1272.0480041503906 283) rotate(0 2.951995849609375 11.25)"><text x="2.951995849609375" y="NaN" font-family="Virgil, Segoe UI Emoji" font-size="18px" fill="#f85149" text-anchor="middle" style="white-space: pre;" direction="ltr">"</text></g><g transform="translate(1296.536003112793 283) rotate(0 4.463996887207031 11.25)"><text x="4.463996887207031" y="NaN" font-family="Virgil, Segoe UI Emoji" font-size="18px" fill="#f85149" text-anchor="middle" style="white-space: pre;" direction="ltr">}</text></g><g transform="translate(40 345) rotate(0 378.2798156738281 10)"><text x="0" y="NaN" font-family="Virgil, Segoe UI Emoji" font-size="16px" fill="#f85149" text-anchor="start" style="white-space: pre;" direction="ltr">Bytes spent on keys, quotes, colons, commas:  "id" "name" "email" {} : , = 21 of 49 bytes (43%)</text></g><g transform="translate(40 371) rotate(0 309.2107238769531 8.75)"><text x="0" y="NaN" font-family="Virgil, Segoe UI Emoji" font-size="14px" fill="#8b949e" text-anchor="start" style="white-space: pre;" direction="ltr">Decoder must tokenize every byte, validate UTF-8, allocate strings, convert "42" -&gt; int.</text></g><g stroke-opacity="0.6" fill-opacity="0.6" stroke-linecap="round" transform="translate(10 495) rotate(0 680 140)"><path d="M0.94 -1.92 L1360.19 0.13 L1361.33 281.18 L-0.19 279.23" stroke="none" stroke-width="0" fill="#161b22"></path><path d="M-0.09 0.04 C364.89 -1.03, 727.66 -0.44, 1359.96 0.58 M1361.06 0.69 C1359.04 76.19, 1359.83 154.61, 1360.59 278.65 M1359.41 279.33 C993.36 275.03, 626.51 275.08, -0.07 279.54 M-0.56 278.54 C0.08 216.07, 0.72 151.4, -0.36 0.58" stroke="#6dbf3a" stroke-width="2.5" fill="none" stroke-dasharray="8 10"></path></g><g transform="translate(30 509) rotate(0 188.11190795898438 15)"><text x="0" y="NaN" font-family="Virgil, Segoe UI Emoji" font-size="24px" fill="#3fb950" text-anchor="start" style="white-space: pre;" direction="ltr">Protocol Buffers  --  24 bytes</text></g><g stroke-linecap="round" transform="translate(61 580) rotate(0 629 28)"><path d="M-1.85 0.45 L1259.74 1.15 L1258.57 56.6 L1.66 55.5" stroke="none" stroke-width="0" fill="#3a5d1d"></path><path d="M-0.02 0.52 C474.34 4.67, 947.19 4.16, 1257.22 0.12 M-0.35 0.4 C286.52 1.89, 572.66 1.69, 1258.21 -0.33 M1259.39 1.98 C1258.12 19.99, 1257.72 37.51, 1258.65 55.15 M1257.25 -0.02 C1258.75 13.7, 1258.82 28.51, 1258.82 56.63 M1257.94 55.42 C855.25 56.42, 453.55 56.92, 0.03 56.59 M1257.88 55.82 C880.79 54.4, 504.08 54.37, -0.03 56.28 M0.57 55.64 C0.47 35.63, 1.42 14.14, -0.23 1.77 M-0.41 55.13 C0.69 43.8, -0.5 30.25, -0.43 -0.84" stroke="#6dbf3a" stroke-width="2" fill="none"></path></g><g transform="translate(78.92301177978516 597) rotate(0 13.076988220214844 11.25)"><text x="13.076988220214844" y="NaN" font-family="Virgil, Segoe UI Emoji" font-size="18px" fill="#58a6ff" text-anchor="middle" style="white-space: pre;" direction="ltr">08</text></g><g transform="translate(131.68800354003906 597) rotate(0 12.311996459960938 11.25)"><text x="12.311996459960938" y="NaN" font-family="Virgil, Segoe UI Emoji" font-size="18px" fill="#ffffff" text-anchor="middle" style="white-space: pre;" direction="ltr">2A</text></g><g transform="translate(187.15300750732422 597) rotate(0 8.846992492675781 11.25)"><text x="8.846992492675781" y="NaN" font-family="Virgil, Segoe UI Emoji" font-size="18px" fill="#58a6ff" text-anchor="middle" style="white-space: pre;" direction="ltr">12</text></g><g transform="translate(235.67900848388672 597) rotate(0 12.320991516113281 11.25)"><text x="12.320991516113281" y="NaN" font-family="Virgil, Segoe UI Emoji" font-size="18px" fill="#f0b070" text-anchor="middle" style="white-space: pre;" direction="ltr">03</text></g><g transform="translate(291.80101013183594 597) rotate(0 8.198989868164062 11.25)"><text x="8.198989868164062" y="NaN" font-family="Virgil, Segoe UI Emoji" font-size="18px" fill="#ffffff" text-anchor="middle" style="white-space: pre;" direction="ltr">41</text></g><g transform="translate(340.4800109863281 597) rotate(0 11.519989013671875 11.25)"><text x="11.519989013671875" y="NaN" font-family="Virgil, Segoe UI Emoji" font-size="18px" fill="#ffffff" text-anchor="middle" style="white-space: pre;" direction="ltr">64</text></g><g transform="translate(395.80101013183594 597) rotate(0 8.198989868164062 11.25)"><text x="8.198989868164062" y="NaN" font-family="Virgil, Segoe UI Emoji" font-size="18px" fill="#ffffff" text-anchor="middle" style="white-space: pre;" direction="ltr">61</text></g><g transform="translate(447.6570053100586 597) rotate(0 8.342994689941406 11.25)"><text x="8.342994689941406" y="NaN" font-family="Virgil, Segoe UI Emoji" font-size="18px" fill="#58a6ff" text-anchor="middle" style="white-space: pre;" direction="ltr">1A</text></g><g transform="translate(496.6420135498047 597) rotate(0 11.357986450195312 11.25)"><text x="11.357986450195312" y="NaN" font-family="Virgil, Segoe UI Emoji" font-size="18px" fill="#f0b070" text-anchor="middle" style="white-space: pre;" direction="ltr">0F</text></g><g transform="translate(551.8010101318359 597) rotate(0 8.198989868164062 11.25)"><text x="8.198989868164062" y="NaN" font-family="Virgil, Segoe UI Emoji" font-size="18px" fill="#ffffff" text-anchor="middle" style="white-space: pre;" direction="ltr">61</text></g><g transform="translate(600.4800109863281 597) rotate(0 11.519989013671875 11.25)"><text x="11.519989013671875" y="NaN" font-family="Virgil, Segoe UI Emoji" font-size="18px" fill="#ffffff" text-anchor="middle" style="white-space: pre;" direction="ltr">64</text></g><g transform="translate(655.8010101318359 597) rotate(0 8.198989868164062 11.25)"><text x="8.198989868164062" y="NaN" font-family="Virgil, Segoe UI Emoji" font-size="18px" fill="#ffffff" text-anchor="middle" style="white-space: pre;" direction="ltr">61</text></g><g transform="translate(704.0480117797852 597) rotate(0 11.951988220214844 11.25)"><text x="11.951988220214844" y="NaN" font-family="Virgil, Segoe UI Emoji" font-size="18px" fill="#ffffff" text-anchor="middle" style="white-space: pre;" direction="ltr">40</text></g><g transform="translate(756.6780090332031 597) rotate(0 11.321990966796875 11.25)"><text x="11.321990966796875" y="NaN" font-family="Virgil, Segoe UI Emoji" font-size="18px" fill="#ffffff" text-anchor="middle" style="white-space: pre;" direction="ltr">65</text></g><g transform="translate(808.2730102539062 597) rotate(0 11.72698974609375 11.25)"><text x="11.72698974609375" y="NaN" font-family="Virgil, Segoe UI Emoji" font-size="18px" fill="#ffffff" text-anchor="middle" style="white-space: pre;" direction="ltr">78</text></g><g transform="translate(863.8010101318359 597) rotate(0 8.198989868164062 11.25)"><text x="8.198989868164062" y="NaN" font-family="Virgil, Segoe UI Emoji" font-size="18px" fill="#ffffff" text-anchor="middle" style="white-space: pre;" direction="ltr">61</text></g><g transform="translate(911.2200088500977 597) rotate(0 12.779991149902344 11.25)"><text x="12.779991149902344" y="NaN" font-family="Virgil, Segoe UI Emoji" font-size="18px" fill="#ffffff" text-anchor="middle" style="white-space: pre;" direction="ltr">6D</text></g><g transform="translate(964.9660110473633 597) rotate(0 11.033988952636719 11.25)"><text x="11.033988952636719" y="NaN" font-family="Virgil, Segoe UI Emoji" font-size="18px" fill="#ffffff" text-anchor="middle" style="white-space: pre;" direction="ltr">70</text></g><g transform="translate(1016.4440078735352 597) rotate(0 11.555992126464844 11.25)"><text x="11.555992126464844" y="NaN" font-family="Virgil, Segoe UI Emoji" font-size="18px" fill="#ffffff" text-anchor="middle" style="white-space: pre;" direction="ltr">6C</text></g><g transform="translate(1068.6780090332031 597) rotate(0 11.321990966796875 11.25)"><text x="11.321990966796875" y="NaN" font-family="Virgil, Segoe UI Emoji" font-size="18px" fill="#ffffff" text-anchor="middle" style="white-space: pre;" direction="ltr">65</text></g><g transform="translate(1119.526008605957 597) rotate(0 12.473991394042969 11.25)"><text x="12.473991394042969" y="NaN" font-family="Virgil, Segoe UI Emoji" font-size="18px" fill="#ffffff" text-anchor="middle" style="white-space: pre;" direction="ltr">2E</text></g><g transform="translate(1172.1110076904297 597) rotate(0 11.888992309570312 11.25)"><text x="11.888992309570312" y="NaN" font-family="Virgil, Segoe UI Emoji" font-size="18px" fill="#ffffff" text-anchor="middle" style="white-space: pre;" direction="ltr">63</text></g><g transform="translate(1225.0740127563477 597) rotate(0 10.925987243652344 11.25)"><text x="10.925987243652344" y="NaN" font-family="Virgil, Segoe UI Emoji" font-size="18px" fill="#ffffff" text-anchor="middle" style="white-space: pre;" direction="ltr">6F</text></g><g transform="translate(1275.2200088500977 597) rotate(0 12.779991149902344 11.25)"><text x="12.779991149902344" y="NaN" font-family="Virgil, Segoe UI Emoji" font-size="18px" fill="#ffffff" text-anchor="middle" style="white-space: pre;" direction="ltr">6D</text></g><g stroke-linecap="round"><g transform="translate(70 655) rotate(0 48 0)"><path d="M-0.85 0.65 C15.26 0.98, 79.41 1.26, 95.44 1.03 M0.91 -0.05 C16.91 0.05, 78.65 -0.6, 94.21 -0.55" stroke="#58a6ff" stroke-width="2" fill="none"></path></g></g><g stroke-linecap="round"><g transform="translate(70 655) rotate(0 0 4)"><path d="M-0.71 -0.76 C-0.78 0.75, -0.61 7.06, -0.58 8.5 M1.12 1.46 C1.47 2.66, 2.27 5.37, 1.82 6.64" stroke="#58a6ff" stroke-width="2" fill="none"></path></g></g><g stroke-linecap="round"><g transform="translate(166 655) rotate(0 0 4)"><path d="M0.66 -1.14 C0.62 0.43, 0.54 7.55, 0.47 8.91 M-0.46 0.87 C-0.68 2.16, -0.23 6.1, -0.23 7.27" stroke="#58a6ff" stroke-width="2" fill="none"></path></g></g><g transform="translate(91.7010269165039 669) rotate(0 26.298973083496094 8.75)"><text x="26.298973083496094" y="NaN" font-family="Virgil, Segoe UI Emoji" font-size="14px" fill="#58a6ff" text-anchor="middle" style="white-space: pre;" direction="ltr">id = 42</text></g><g stroke-linecap="round"><g transform="translate(174 655) rotate(0 126 0)"><path d="M-0.31 1.15 C41.82 1.45, 210.8 1.41, 252.8 1.17 M1.73 0.71 C43.77 0.76, 210.77 -0.37, 252.28 -0.34" stroke="#3fb950" stroke-width="2" fill="none"></path></g></g><g stroke-linecap="round"><g transform="translate(174 655) rotate(0 0 4)"><path d="M0.35 -0.87 C0.34 0.27, -0.82 5.58, -0.71 7.15 M-0.93 1.29 C-0.49 2.53, 1.35 7.37, 1.62 8.24" stroke="#3fb950" stroke-width="2" fill="none"></path></g></g><g stroke-linecap="round"><g transform="translate(426 655) rotate(0 0 4)"><path d="M-1.09 0.72 C-1.14 2.15, -0.96 6.1, -0.79 7.38 M0.54 0.05 C0.92 1.73, 1.74 7.55, 1.51 8.59" stroke="#3fb950" stroke-width="2" fill="none"></path></g></g><g transform="translate(254.64703369140625 669) rotate(0 45.35296630859375 8.75)"><text x="45.35296630859375" y="NaN" font-family="Virgil, Segoe UI Emoji" font-size="14px" fill="#3fb950" text-anchor="middle" style="white-space: pre;" direction="ltr">name = "Ada"</text></g><g stroke-linecap="round"><g transform="translate(434 655) rotate(0 438 0)"><path d="M0.63 1.03 C146.47 0.8, 729.91 -0.39, 875.94 -0.67 M-0.5 0.53 C145.1 0.38, 728.8 0.54, 874.96 0.51" stroke="#f0b070" stroke-width="2" fill="none"></path></g></g><g stroke-linecap="round"><g transform="translate(434 655) rotate(0 0 4)"><path d="M1.1 -0.34 C1.25 0.92, 0.36 6.3, 0.15 7.87 M0.21 -1.56 C0.29 -0.14, -0.51 7.86, -0.73 9.34" stroke="#f0b070" stroke-width="2" fill="none"></path></g></g><g stroke-linecap="round"><g transform="translate(1310 655) rotate(0 0 4)"><path d="M-0.66 0.59 C-0.62 2.19, 0.8 7.81, 0.82 9.19 M1.19 -0.15 C1.1 1.18, 0.76 6.5, 0.3 7.69" stroke="#f0b070" stroke-width="2" fill="none"></path></g></g><g transform="translate(781.1050643920898 669) rotate(0 90.89493560791016 8.75)"><text x="90.89493560791016" y="NaN" font-family="Virgil, Segoe UI Emoji" font-size="14px" fill="#f0b070" text-anchor="middle" style="white-space: pre;" direction="ltr">email = "ada@example.com"</text></g><g transform="translate(40 715) rotate(0 107.79289245605469 8.75)"><text x="0" y="NaN" font-family="Virgil, Segoe UI Emoji" font-size="14px" fill="#58a6ff" text-anchor="start" style="white-space: pre;" direction="ltr">tag (field# + wire-type, 1 byte)</text></g><g transform="translate(360 715) rotate(0 71.38591766357422 8.75)"><text x="0" y="NaN" font-family="Virgil, Segoe UI Emoji" font-size="14px" fill="#f0b070" text-anchor="start" style="white-space: pre;" direction="ltr">length prefix (varint)</text></g><g transform="translate(610 715) rotate(0 39.89996337890625 8.75)"><text x="0" y="NaN" font-family="Virgil, Segoe UI Emoji" font-size="14px" fill="#ffffff" text-anchor="start" style="white-space: pre;" direction="ltr">value bytes</text></g><g transform="translate(860 715) rotate(0 132.92987060546875 9.375)"><text x="0" y="NaN" font-family="Virgil, Segoe UI Emoji" font-size="15px" fill="#3fb950" text-anchor="start" style="white-space: pre;" direction="ltr">No keys. No quotes. No separators.</text></g><g transform="translate(1290 395) rotate(0 26.753990173339844 26.25)"><text x="0" y="NaN" font-family="Virgil, Segoe UI Emoji" font-size="42px" fill="#f0b070" text-anchor="start" style="white-space: pre;" direction="ltr">2x</text></g><g transform="translate(1290 445) rotate(0 28.50397491455078 10)"><text x="0" y="NaN" font-family="Virgil, Segoe UI Emoji" font-size="16px" fill="#f0b070" text-anchor="start" style="white-space: pre;" direction="ltr">shorter</text></g></svg>