<svg version="1.1" xmlns="http://www.w3.org/2000/svg" viewBox="0 0 1400 875" width="1400" height="875">
  <!-- svg-source:excalidraw -->
  
  <defs>
    <style>
      @font-face {
        font-family: "Virgil";
        src: url("https://excalidraw.com/Virgil.woff2");
      }
      @font-face {
        font-family: "Cascadia";
        src: url("https://excalidraw.com/Cascadia.woff2");
      }
    </style>
  </defs>
  <rect x="0" y="0" width="1400" height="875" fill="#0d1117"></rect><g transform="translate(10 10) rotate(0 428.099853515625 18.75)"><text x="0" y="NaN" font-family="Virgil, Segoe UI Emoji" font-size="30px" fill="#ff8c42" text-anchor="start" style="white-space: pre;" direction="ltr">The L4 Load Balancer Trap -- why gRPC pins to one pod</text></g><g transform="translate(10 53) rotate(0 494.6936950683594 11.25)"><text x="0" y="NaN" font-family="Virgil, Segoe UI Emoji" font-size="18px" fill="#c9d1d9" text-anchor="start" style="white-space: pre;" direction="ltr">HTTP/2 multiplexes thousands of calls over one TCP connection. L4 LBs distribute connections, not requests.</text></g><g stroke-opacity="0.6" fill-opacity="0.6" stroke-linecap="round" transform="translate(10 115) rotate(0 690 180)"><path d="M0.3 1.64 L1380.33 -1.22 L1378.09 359.03 L0.19 360.34" stroke="none" stroke-width="0" fill="#161b22"></path><path d="M-0.77 0.21 C549.99 -0.23, 1101.41 -0.35, 1379.46 0.8 M1378.92 1.13 C1379.28 75.66, 1379.2 151.8, 1380.22 359.58 M1380.54 360.51 C956.1 354.24, 532.31 354.55, 0.7 360.41 M0.5 359.48 C1.54 252.38, 1.29 145.84, -0.4 -0.73" stroke="#f85149" stroke-width="2.5" fill="none" stroke-dasharray="8 10"></path></g><g transform="translate(30 129) rotate(0 225.17990112304688 15)"><text x="0" y="NaN" font-family="Virgil, Segoe UI Emoji" font-size="24px" fill="#f85149" text-anchor="start" style="white-space: pre;" direction="ltr">L4 (TCP) Load Balancer  --  the bug</text></g><g transform="translate(30 163) rotate(0 383.9566345214844 8.75)"><text x="0" y="NaN" font-family="Virgil, Segoe UI Emoji" font-size="14px" fill="#8b949e" text-anchor="start" style="white-space: pre;" direction="ltr">1 long-lived HTTP/2 connection. LB picks one pod for the connection. Every request on that stream pins there.</text></g><g stroke-linecap="round" transform="translate(40 245) rotate(0 80 35)"><path d="M-0.94 -0.77 L161.64 1.22 L160.36 68.15 L-0.03 68.71" stroke="none" stroke-width="0" fill="#1f4d2b"></path><path d="M0.07 -0.98 C40.83 -3.26, 86.83 -2.14, 161.57 -0.78 M0.61 0.05 C48.71 0.4, 98.28 -0.11, 160.18 0.62 M159.37 1.58 C160.92 28.29, 160.79 54.75, 161.03 70.05 M160.51 -0.84 C159.34 19.57, 159.67 39.53, 159.74 69.67 M161.47 68.08 C110.68 68.37, 66.35 67.92, 0.3 68.85 M160.63 69.43 C120.67 71.36, 82.13 70.49, -0.52 70.96 M1.85 71.23 C-1.29 47.82, -0.82 26.73, 0.58 0.92 M0.5 70.9 C-0.03 54.77, 0.58 41.52, -0.74 0.53" stroke="#3fb950" stroke-width="2" fill="none"></path></g><g transform="translate(70.07703399658203 268.75) rotate(0 49.92296600341797 11.25)"><text x="49.92296600341797" y="NaN" font-family="Virgil, Segoe UI Emoji" font-size="18px" fill="#ffffff" text-anchor="middle" style="white-space: pre;" direction="ltr">gRPC client</text></g><g transform="translate(85.09502410888672 325) rotate(0 34.90497589111328 8.125)"><text x="34.90497589111328" y="NaN" font-family="Virgil, Segoe UI Emoji" font-size="13px" fill="#8b949e" text-anchor="middle" style="white-space: pre;" direction="ltr">1 TCP conn</text></g><g stroke-linecap="round" transform="translate(290 245) rotate(0 90 35)"><path d="M0.75 -1.02 L181.08 1.34 L181.17 69.02 L1.64 69.6" stroke="none" stroke-width="0" fill="#5c3a10"></path><path d="M-1.78 1.91 C60.28 1.99, 124.68 -0.75, 178.91 -0.05 M-0.18 0.7 C38.19 1.58, 78.42 1.38, 180.66 0.22 M179.63 1.11 C179.28 16.5, 177.83 32.34, 181.67 71.87 M180.25 0.63 C179.33 20.64, 180.64 39.29, 180.25 70.74 M180.22 70.85 C121.23 69.63, 59.06 69.29, -0.42 68.1 M180.12 69.74 C111.21 69.91, 42.89 69.95, 0.13 70.41 M1.8 70.39 C1.07 46.64, -2.07 22.38, 0.96 -1.56 M0.59 69.43 C-0.09 51.91, 0.34 31.1, 0.97 0.8" stroke="#f0883e" stroke-width="2" fill="none"></path></g><g transform="translate(349.35001373291016 267.5) rotate(0 30.649986267089844 12.5)"><text x="30.649986267089844" y="NaN" font-family="Virgil, Segoe UI Emoji" font-size="20px" fill="#ffffff" text-anchor="middle" style="white-space: pre;" direction="ltr">L4 LB</text></g><g transform="translate(349.69053649902344 325) rotate(0 30.309463500976562 8.125)"><text x="30.309463500976562" y="NaN" font-family="Virgil, Segoe UI Emoji" font-size="13px" fill="#8b949e" text-anchor="middle" style="white-space: pre;" direction="ltr">TCP-level</text></g><g stroke-linecap="round"><g transform="translate(206 280.007) rotate(0 39 0)"><path d="M1 1.02 C14.11 0.72, 65.83 -0.49, 78.53 -0.81 M0.07 0.51 C13.08 0.26, 64.6 0.4, 77.85 0.31" stroke="#f85149" stroke-width="6" fill="none"></path></g><g transform="translate(206 280.007) rotate(0 39 0)"><path d="M51.38 11.5 C56.4 5.99, 64.41 3.42, 76.97 0.59 M49.54 9.96 C54.63 8.35, 60.73 7.62, 78.02 -0.5" stroke="#f85149" stroke-width="6" fill="none"></path></g><g transform="translate(206 280.007) rotate(0 39 0)"><path d="M51.34 -9.03 C56.54 -8.6, 64.56 -5.24, 76.97 0.59 M49.5 -10.56 C54.56 -8.03, 60.66 -4.63, 78.02 -0.5" stroke="#f85149" stroke-width="6" fill="none"></path></g></g><g stroke-linecap="round" transform="translate(560 205) rotate(0 32 25)"><path d="M0.53 0.07 L65.47 -1.75 L64.83 48.68 L0.2 48.57" stroke="none" stroke-width="0" fill="#4a1219"></path><path d="M1.73 1.24 C21.35 0.83, 43.92 0.53, 62.65 1.44 M0.02 -0.23 C16.62 0.87, 31.7 0.3, 64.21 -0.1 M65.04 -1.91 C63.45 13.82, 64.97 29.85, 64.28 48.99 M64.76 -0.75 C62.9 13.06, 63.06 25.84, 64.19 50.75 M65 50.9 C43.78 51.45, 23.61 50.1, -0.02 48.51 M63.76 49.1 C51.58 51.37, 37.48 49.6, -0.79 50.13 M0.97 49.96 C0.14 30.66, 0.33 9.07, -1.79 0.46 M-0.61 50.31 C0.09 40.04, 0.22 29.01, 0.98 0.08" stroke="#f85149" stroke-width="2" fill="none"></path></g><g transform="translate(582.5570068359375 221.25) rotate(0 9.4429931640625 8.75)"><text x="9.4429931640625" y="NaN" font-family="Virgil, Segoe UI Emoji" font-size="14px" fill="#ffffff" text-anchor="middle" style="white-space: pre;" direction="ltr">P0</text></g><g stroke-linecap="round" transform="translate(560 261) rotate(0 32 25)"><path d="M-1.56 -1.23 L62.58 -1.45 L64.3 48.56 L-1.88 51.87" stroke="none" stroke-width="0" fill="#21262d"></path><path d="M1.46 -1.99 C20.09 1.42, 39.85 -0.89, 65.22 0.24 M-0.37 0.54 C16.55 0.84, 33.32 0.42, 64.91 -0.42 M62.8 -0.21 C65.94 15.68, 65.16 34.09, 64.74 51.63 M63.57 0.31 C64.12 14.19, 64.91 27.21, 63.81 49.16 M65.62 51.99 C49.23 49.27, 33.27 49.54, 1.27 50.03 M64.56 50.77 C44.16 51.01, 22.92 50.44, 0.64 49.93 M1.77 49.04 C1.08 31.65, -1.79 14.57, 0.07 1.84 M0.43 50.13 C0.24 38.15, 0.47 26.13, -0.94 0.52" stroke="#8b949e" stroke-width="1" fill="none"></path></g><g stroke-linecap="round" transform="translate(560 261) rotate(0 32 25)"><path d="M0.58 -1.6 L64.05 1.83 L63.24 51.32 L-1.44 48.8" stroke="none" stroke-width="0" fill="#4a1219"></path><path d="M-1.82 -0.69 C17.01 -2.13, 33.68 0.81, 65 -0.5 M0.9 0.65 C18.21 -1.25, 35.09 -0.2, 64.67 0.9 M62.25 -0.6 C65.4 18.22, 63.56 32.62, 65.13 51.74 M64.46 0.03 C64.43 17.93, 63.61 33.38, 63.33 50.83 M64.75 49.76 C47.73 50.31, 32.28 49.38, 1.8 48.34 M63.01 50.24 C46.14 50.13, 28.21 50.08, 0.33 49.45 M-1.7 48.77 C1.68 35.28, 1.2 20.9, 0.8 -0.78 M0.61 50.54 C0.51 33.52, 0.65 17.43, -0.69 0.08" stroke="#f85149" stroke-width="2" fill="none"></path></g><g transform="translate(575.1910095214844 315) rotate(0 16.808990478515625 8.125)"><text x="16.808990478515625" y="NaN" font-family="Virgil, Segoe UI Emoji" font-size="13px" fill="#f85149" text-anchor="middle" style="white-space: pre;" direction="ltr">100%</text></g><g stroke-linecap="round" transform="translate(638 205) rotate(0 32 25)"><path d="M-1.82 -1.43 L65.65 0.04 L63.72 49.29 L-1.32 50.66" stroke="none" stroke-width="0" fill="#21262d"></path><path d="M-1.32 1.45 C20.22 0.27, 42.41 -1.31, 65.67 1.74 M0.98 -0.05 C18.48 -0.65, 37.07 0.28, 63.14 0.63 M65.71 1.13 C64.97 13.79, 64.48 29.18, 65.43 51.12 M63.9 0.86 C64.62 18.95, 65.09 38.21, 63.53 49.56 M63.03 48.22 C48.3 49.54, 35.18 50.59, -1.47 49.38 M64.04 50.97 C44.15 51.09, 23.42 50.68, -1 49.58 M-1.84 49.85 C-1.46 29.57, -0.59 11.76, -1.9 0.58 M-0.49 49.49 C-0.27 35.97, -1.2 22.5, -0.56 0.3" stroke="#8b949e" stroke-width="2" fill="none"></path></g><g transform="translate(663.4760055541992 221.25) rotate(0 6.523994445800781 8.75)"><text x="6.523994445800781" y="NaN" font-family="Virgil, Segoe UI Emoji" font-size="14px" fill="#ffffff" text-anchor="middle" style="white-space: pre;" direction="ltr">P1</text></g><g stroke-linecap="round" transform="translate(638 261) rotate(0 32 25)"><path d="M-0.09 1.94 L65.24 -0.81 L65.87 49.14 L-1.43 49.74" stroke="none" stroke-width="0" fill="#21262d"></path><path d="M-1.54 -1.67 C22.85 0.34, 41.65 0.46, 63.93 0.43 M-0.24 0.88 C19.56 0.16, 38.06 -1.08, 63.08 -0.92 M65.61 0.77 C63.24 19.98, 65.79 40.86, 63.28 50.86 M63.17 -0.11 C64.12 13.74, 65.01 26.96, 63.97 49.7 M62.61 48.37 C38.1 49.83, 13.79 50.93, -0.83 50.28 M63.72 49.02 C50.4 50.01, 37.38 49.94, -0.6 49.34 M1.34 49.79 C-0.08 38.82, -0.8 25.96, 1.3 -2 M-0.68 50.84 C-0.81 34.67, 0.47 20.39, 0.71 0.17" stroke="#8b949e" stroke-width="1" fill="none"></path></g><g stroke-linecap="round" transform="translate(638 309) rotate(0 32 1)"><path d="M0.34 -0.03 L63.25 -1.51 L64.9 3.79 L1.23 0.22" stroke="none" stroke-width="0" fill="#21262d"></path><path d="M-1.55 1.24 C21.23 0.17, 41.23 0.69, 63.44 1.94 M0.99 0.27 C15.25 -1.06, 30.25 -1.33, 63.36 0.3 M64.16 0.15 C64.1 0.74, 64.01 1.17, 63.87 2.05 M63.97 0.1 C64.04 0.71, 64.07 1.2, 64.09 1.9 M64.23 3.05 C46.32 3.53, 31.66 3.05, -0.89 1.06 M64.84 1.76 C50.91 2.54, 35.35 2.38, 0.8 2.71 M-0.12 1.96 C0.08 1.1, 0.12 0.46, -0.09 -0.09 M0.1 1.92 C-0.06 1.24, -0.08 0.66, -0.03 0.06" stroke="#8b949e" stroke-width="2" fill="none"></path></g><g transform="translate(659.879508972168 315) rotate(0 10.120491027832031 8.125)"><text x="10.120491027832031" y="NaN" font-family="Virgil, Segoe UI Emoji" font-size="13px" fill="#8b949e" text-anchor="middle" style="white-space: pre;" direction="ltr">5%</text></g><g stroke-linecap="round" transform="translate(716 205) rotate(0 32 25)"><path d="M1.71 1.37 L65.05 1.89 L65.01 48.18 L0.58 48.96" stroke="none" stroke-width="0" fill="#21262d"></path><path d="M0.69 -1.36 C22.64 -2.07, 43.22 0.32, 62.55 -0.52 M-0.75 -0.96 C24.84 -0.18, 50.56 0.03, 64.5 0.82 M64.01 1.16 C62.51 15.08, 64.82 35.5, 63.09 49.38 M63.49 -0.14 C62.52 18.9, 63.65 35.15, 64.29 49.44 M64.77 51.44 C49.24 48.78, 37.84 48.78, -1.57 48.88 M64.26 49.78 C49.67 48.56, 34.74 48.82, 0.49 50.54 M0.47 50.09 C0.63 34.31, 0.05 21.72, -1.35 1.81 M0.91 50.54 C0.29 34.59, 0.28 20.14, -0.79 -0.02" stroke="#8b949e" stroke-width="2" fill="none"></path></g><g transform="translate(738.3890075683594 221.25) rotate(0 9.610992431640625 8.75)"><text x="9.610992431640625" y="NaN" font-family="Virgil, Segoe UI Emoji" font-size="14px" fill="#ffffff" text-anchor="middle" style="white-space: pre;" direction="ltr">P2</text></g><g stroke-linecap="round" transform="translate(716 261) rotate(0 32 25)"><path d="M-1.85 1.7 L62.2 -1.7 L62.99 48.19 L-0.7 48.66" stroke="none" stroke-width="0" fill="#21262d"></path><path d="M-1.11 -1 C22.56 0.59, 48.04 -0.2, 62.07 0.41 M-0.53 0.28 C21.87 -0.96, 42.15 -0.87, 63.45 0.53 M65.29 -0.54 C64.76 15.86, 63.94 29.56, 63.26 49.25 M63.61 -0.77 C64.38 9.76, 64 20.5, 63.66 50.11 M63.65 48.74 C39.18 51.74, 14.92 49.72, -1.01 49.27 M64.72 49.9 C45.4 49.86, 24.03 49.42, -0.42 50.74 M-1.74 51.9 C-1.42 37.49, 0.75 23.41, 1.3 1.19 M-0.04 50.37 C-0.25 34.18, 0.54 19.14, 0.9 0.73" stroke="#8b949e" stroke-width="1" fill="none"></path></g><g stroke-linecap="round" transform="translate(716 309) rotate(0 32 1)"><path d="M-1.62 0.19 L64.78 1.92 L65.38 1.78 L0.12 0.2" stroke="none" stroke-width="0" fill="#21262d"></path><path d="M-0.1 -1.82 C13 -1.18, 28.3 -0.6, 65.8 -1.1 M0.16 -0.22 C14.81 0.48, 29.6 -0.54, 63.11 0.37 M63.83 0.06 C63.9 0.65, 64.06 0.95, 64.17 2.03 M64.06 -0.06 C64.02 0.64, 63.95 1.22, 64.06 1.95 M63.47 2.7 C39.11 0.26, 17.16 0.33, 0.4 0.45 M63.74 1.06 C45.92 1.85, 28.44 2.11, -0.45 1.34 M0.08 1.89 C-0.04 1.46, -0.01 0.35, -0.06 0.06 M-0.08 1.99 C-0.08 1.28, 0.05 0.56, 0.06 -0.03" stroke="#8b949e" stroke-width="2" fill="none"></path></g><g transform="translate(737.879508972168 315) rotate(0 10.120491027832031 8.125)"><text x="10.120491027832031" y="NaN" font-family="Virgil, Segoe UI Emoji" font-size="13px" fill="#8b949e" text-anchor="middle" style="white-space: pre;" direction="ltr">5%</text></g><g stroke-linecap="round" transform="translate(794 205) rotate(0 32 25)"><path d="M0.3 1.04 L65.3 1.81 L63.99 51.59 L-0.49 48.55" stroke="none" stroke-width="0" fill="#21262d"></path><path d="M1.89 -1.44 C18.12 -0.29, 36.71 0.55, 64.41 0.16 M-0.36 -0.87 C24.03 -0.41, 48.81 0.51, 64.19 0.1 M64.2 -0.15 C63.04 17.64, 61.85 32.83, 62.12 50.57 M63.78 -0.21 C64.88 14.94, 63.55 29.06, 64.38 50.03 M63.22 51.8 C44.08 49.58, 25.71 49.55, 1.54 48.14 M64.37 49.43 C43.06 49.23, 20.68 49.41, 0.3 50.14 M0.71 48.57 C-1.94 41.17, -0.26 30.88, -0.44 0.72 M0.92 50.77 C0.14 38.08, 0.83 24.2, -0.72 -0.83" stroke="#8b949e" stroke-width="2" fill="none"></path></g><g transform="translate(816.6060028076172 221.25) rotate(0 9.393997192382812 8.75)"><text x="9.393997192382812" y="NaN" font-family="Virgil, Segoe UI Emoji" font-size="14px" fill="#ffffff" text-anchor="middle" style="white-space: pre;" direction="ltr">P3</text></g><g stroke-linecap="round" transform="translate(794 261) rotate(0 32 25)"><path d="M-0.03 0.94 L64.66 -0.47 L62.54 49.72 L0.21 50.07" stroke="none" stroke-width="0" fill="#21262d"></path><path d="M1.47 1.7 C18.88 -1.05, 36.64 1.08, 62.1 1.18 M0.76 -0.98 C18.96 0.25, 38.91 -0.23, 64.87 0.31 M64.63 1.62 C63.25 16.87, 63 30.72, 65.02 50.94 M64.16 0.03 C64.02 15.96, 64.55 32.26, 63.18 49.64 M62.23 49.35 C40.68 48.61, 19.2 50.79, -0.08 50.29 M64.82 50.94 C41.7 50.76, 21.06 50.41, -0.41 50.24 M0.46 49.86 C0.15 33.55, 0.64 22.35, 0.21 -1.79 M0.83 50.64 C-0.09 39.16, -0.39 27.81, -0.96 0.81" stroke="#8b949e" stroke-width="1" fill="none"></path></g><g stroke-linecap="round" transform="translate(794 309) rotate(0 32 1)"><path d="M1.31 -0.05 L63.86 1.36 L63.46 2.46 L0.3 0.97" stroke="none" stroke-width="0" fill="#21262d"></path><path d="M-0.97 0.76 C18.61 2.14, 33.26 0.4, 64.84 0.6 M-0.21 0.61 C22.5 0.49, 43.69 0.43, 64.96 -0.67 M64.06 0 C64.12 0.56, 63.83 1.41, 63.9 1.86 M64.06 -0.08 C64 0.67, 64 1.4, 64.03 2.05 M65.81 3.05 C50.66 1.36, 36.03 1.7, -1.59 3.61 M64.03 2.71 C44.48 2.56, 25.59 1.85, -0.02 1.84 M0.05 1.87 C-0.03 1.34, 0.1 0.88, -0.14 0.17 M-0.09 1.99 C0.09 1.38, 0.04 0.62, -0.05 -0.02" stroke="#8b949e" stroke-width="2" fill="none"></path></g><g transform="translate(815.879508972168 315) rotate(0 10.120491027832031 8.125)"><text x="10.120491027832031" y="NaN" font-family="Virgil, Segoe UI Emoji" font-size="13px" fill="#8b949e" text-anchor="middle" style="white-space: pre;" direction="ltr">5%</text></g><g stroke-linecap="round" transform="translate(872 205) rotate(0 32 25)"><path d="M-1.06 -0.96 L62.6 -0.05 L63.98 48.83 L0.89 48.85" stroke="none" stroke-width="0" fill="#21262d"></path><path d="M0.03 1.44 C20.41 1.88, 38.34 1.73, 63.79 -0.33 M-0.53 0.62 C18.68 -0.47, 36.45 0.32, 63.26 0.34 M63.77 -1.51 C62.5 12.14, 62.53 25.87, 62.68 49.01 M64.48 0.67 C64.52 12.31, 64.61 25.94, 63.5 50.44 M64.15 49.82 C43.91 49.3, 25.31 49.87, -0.92 51.81 M63.2 49.96 C48.74 49.81, 34.92 49.95, -0.45 50.73 M1.72 51.4 C-1.31 38.06, 1.48 25.95, 1.68 -0.87 M0 49.83 C0.02 33.02, 0.42 17.06, 0.72 0.48" stroke="#8b949e" stroke-width="2" fill="none"></path></g><g transform="translate(894.8930053710938 221.25) rotate(0 9.10699462890625 8.75)"><text x="9.10699462890625" y="NaN" font-family="Virgil, Segoe UI Emoji" font-size="14px" fill="#ffffff" text-anchor="middle" style="white-space: pre;" direction="ltr">P4</text></g><g stroke-linecap="round" transform="translate(872 261) rotate(0 32 25)"><path d="M-0.85 0.07 L62.33 -1.5 L65.34 50.33 L1.47 49.44" stroke="none" stroke-width="0" fill="#21262d"></path><path d="M1.55 -1.65 C20.82 1.27, 40.09 -1.44, 62.89 1.81 M0.57 0.52 C24.43 0.33, 48.53 0.14, 63.41 0.39 M62.35 -1.72 C63.03 19.56, 62.93 39.33, 62.87 48.99 M64.89 -0.12 C65.03 14.94, 63.96 29.69, 63.97 49.54 M62.95 51.58 C45.7 51.25, 28.86 51.78, 0.88 49.24 M64.91 50.91 C44.45 50.19, 24.03 50.47, 0.48 50.43 M-1.42 48.82 C-0.1 29.93, -0.72 9.74, 1.13 0.18 M0.59 49.84 C-0.91 38.91, 0.66 26.59, 0.84 0.12" stroke="#8b949e" stroke-width="1" fill="none"></path></g><g stroke-linecap="round" transform="translate(872 309) rotate(0 32 1)"><path d="M1.53 1.34 L62.89 -0.35 L62.68 1.74 L-0.84 1.46" stroke="none" stroke-width="0" fill="#21262d"></path><path d="M0.06 -0.31 C12.55 -0.63, 30.03 -0.94, 65.34 1.65 M0.49 0.75 C15.84 0.5, 32.2 0.37, 63.44 0.23 M63.91 0.16 C63.85 0.84, 63.94 1.1, 64.06 2.04 M64.02 -0.1 C63.98 0.44, 64.06 0.99, 64.09 2.06 M63.71 2.43 C50.62 0.44, 38.73 2.11, 1.78 0.76 M64.16 1.92 C40.35 1.2, 15.44 1.26, -0.49 1.31 M-0.17 2.1 C0.02 1.56, 0.13 1.05, -0.08 0.02 M0.03 2.06 C-0.05 1.55, -0.03 1.05, 0.03 0.09" stroke="#8b949e" stroke-width="2" fill="none"></path></g><g transform="translate(893.879508972168 315) rotate(0 10.120491027832031 8.125)"><text x="10.120491027832031" y="NaN" font-family="Virgil, Segoe UI Emoji" font-size="13px" fill="#8b949e" text-anchor="middle" style="white-space: pre;" direction="ltr">5%</text></g><g stroke-linecap="round" transform="translate(560 345) rotate(0 32 25)"><path d="M1.92 0.44 L64.96 1.29 L63.08 51.51 L0.89 49.74" stroke="none" stroke-width="0" fill="#21262d"></path><path d="M-0.9 -0.66 C25.56 1.34, 51.31 1.04, 63.38 0.39 M0.57 -0.99 C21.78 -0.47, 44.06 -1.39, 63.4 -0.3 M63.05 0.57 C65.13 17.32, 65.33 33.8, 64.26 49.07 M63.6 0.32 C63.52 11.53, 63.71 25.31, 63.66 50.02 M65.76 48.52 C49.44 52.26, 32.88 49.96, 1.48 48.96 M63.82 49.56 C45.1 49.54, 25.24 49.76, 0.58 49.99 M-1.04 49.79 C-2.21 33.95, -1.21 17.69, -0.79 1.26 M1 50.03 C0 37.38, 0.35 22.84, 0.22 -0.86" stroke="#8b949e" stroke-width="2" fill="none"></path></g><g transform="translate(583.047004699707 361.25) rotate(0 8.952995300292969 8.75)"><text x="8.952995300292969" y="NaN" font-family="Virgil, Segoe UI Emoji" font-size="14px" fill="#ffffff" text-anchor="middle" style="white-space: pre;" direction="ltr">P5</text></g><g stroke-linecap="round" transform="translate(560 401) rotate(0 32 25)"><path d="M-0.54 -0.04 L65.8 0.03 L64.68 48.79 L1.17 51.92" stroke="none" stroke-width="0" fill="#21262d"></path><path d="M-1.62 -0.71 C15.19 -1.35, 33.68 -0.1, 62.37 -0.29 M-0.13 0.46 C23.69 0.39, 48.76 -0.44, 63.07 0.65 M65.38 1.89 C64.84 14.49, 63.06 31.76, 64.53 48.81 M64.98 0.64 C64.37 9.82, 65.2 21.61, 64.74 50.11 M62.23 48.81 C39.17 50.4, 15.34 52.06, 0.55 48.45 M64.31 49.86 C38.86 50.67, 15.34 49.88, 0.21 49.59 M1.53 49.02 C0.25 33.28, 1.69 17.16, -1.48 1.17 M0.38 49.92 C0.86 30.7, -0.69 10.68, -0.98 -0.42" stroke="#8b949e" stroke-width="1" fill="none"></path></g><g stroke-linecap="round" transform="translate(560 449) rotate(0 32 1)"><path d="M-1.29 0.31 L65.51 0.4 L64.34 3.17 L0.7 2.95" stroke="none" stroke-width="0" fill="#21262d"></path><path d="M0.89 -0.07 C24.76 0.81, 48.25 -0.55, 64.73 -0.83 M-0.09 0.43 C19.6 -0.86, 38.5 -0.98, 63.5 0.6 M63.86 -0.12 C63.86 0.56, 63.89 0.89, 64 1.96 M64.02 -0.05 C64.02 0.48, 64.07 0.87, 64.04 2.06 M64.52 1.98 C45.68 2.41, 26.09 2.05, 0.84 1.82 M63.71 2.07 C49.54 1.86, 35.63 1.26, 0.55 1.1 M0.19 1.82 C-0.15 1.25, -0.14 0.72, 0.09 0 M-0.05 2.09 C-0.01 1.59, -0.08 1.06, 0.09 -0.07" stroke="#8b949e" stroke-width="2" fill="none"></path></g><g transform="translate(581.879508972168 455) rotate(0 10.120491027832031 8.125)"><text x="10.120491027832031" y="NaN" font-family="Virgil, Segoe UI Emoji" font-size="13px" fill="#8b949e" text-anchor="middle" style="white-space: pre;" direction="ltr">5%</text></g><g stroke-linecap="round" transform="translate(638 345) rotate(0 32 25)"><path d="M1.51 1.27 L63.77 1.72 L64.44 48.32 L1.53 48.24" stroke="none" stroke-width="0" fill="#21262d"></path><path d="M-1.55 -0.25 C13.07 0.15, 27.85 0.26, 65.17 -0.65 M0.09 0.56 C23.51 0.59, 47.94 0.79, 63.53 0.98 M65.31 -0.08 C62.77 12.88, 63.1 28.88, 63.83 51.28 M64.88 0.19 C64.16 19.72, 63.69 38.37, 63.22 50.55 M63.31 48.71 C47.14 48.51, 27.81 51.18, 1.66 48.5 M63.36 50.78 C47.5 50.94, 31.77 50.57, 0.6 50.4 M0.96 50.59 C0.79 32.85, -1.96 20.18, 1.37 -0.89 M-0.72 50.86 C-0.09 38.77, -0.24 28.25, 0.8 0.27" stroke="#8b949e" stroke-width="2" fill="none"></path></g><g transform="translate(660.8930053710938 361.25) rotate(0 9.10699462890625 8.75)"><text x="9.10699462890625" y="NaN" font-family="Virgil, Segoe UI Emoji" font-size="14px" fill="#ffffff" text-anchor="middle" style="white-space: pre;" direction="ltr">P6</text></g><g stroke-linecap="round" transform="translate(638 401) rotate(0 32 25)"><path d="M-1.32 -1.4 L64.51 0.94 L65.79 51.27 L-1.09 48.47" stroke="none" stroke-width="0" fill="#21262d"></path><path d="M-0.71 -1.15 C20.4 -0.96, 40.23 1.09, 64.02 1.84 M0.48 0.44 C18.44 -0.63, 37.59 -0.78, 63.54 0.24 M65.43 0.14 C63.05 10.44, 64.75 23.33, 62.47 49.38 M64.86 0.11 C63.13 15.47, 63.43 28.08, 64.69 49.44 M65.29 51.73 C43.28 49, 21.53 48.73, -1.91 50.03 M64.28 50.49 C39.9 50.81, 14.01 49.76, 0.33 49.98 M1.61 49.76 C-0.18 36.61, -0.75 24.5, 1.49 -1.99 M-0.92 49.17 C-0.28 37.56, 0.15 25.9, -0.57 -0.92" stroke="#8b949e" stroke-width="1" fill="none"></path></g><g stroke-linecap="round" transform="translate(638 449) rotate(0 32 1)"><path d="M-1.16 0.47 L64.8 -0.55 L65.78 3.03 L-1.64 0.85" stroke="none" stroke-width="0" fill="#21262d"></path><path d="M-0.7 0.09 C16.06 1.62, 30.24 -1.02, 65.95 -1.8 M-0.32 -0.43 C16.24 0, 31.86 -0.24, 63.46 -0.52 M64 -0.1 C63.96 0.53, 64.14 1.52, 64.1 2.04 M64.05 -0.09 C64.02 0.48, 63.93 0.95, 64.08 2.01 M64.58 3.47 C43.39 3.3, 26.84 1.55, 1.71 1.9 M63 2.92 C46.6 0.89, 28.22 1.26, -0.57 2.75 M0.03 2.01 C0.07 1.18, -0.1 0.67, 0.13 0.14 M-0.07 1.98 C0.1 1.35, -0.06 0.89, 0.04 -0.03" stroke="#8b949e" stroke-width="2" fill="none"></path></g><g transform="translate(659.879508972168 455) rotate(0 10.120491027832031 8.125)"><text x="10.120491027832031" y="NaN" font-family="Virgil, Segoe UI Emoji" font-size="13px" fill="#8b949e" text-anchor="middle" style="white-space: pre;" direction="ltr">5%</text></g><g stroke-linecap="round" transform="translate(716 345) rotate(0 32 25)"><path d="M-0.94 1.45 L64.95 0.33 L63.34 50.99 L-1.01 50.48" stroke="none" stroke-width="0" fill="#21262d"></path><path d="M-0.21 0.04 C17.06 -0.54, 35.05 0.45, 65.97 -1.08 M0.33 0.27 C19.52 -0.12, 37.28 -0.73, 64.84 0.8 M62.05 -1.84 C63.34 13.39, 64.84 21.61, 63.1 50.13 M63.88 -0.64 C63.44 10.18, 64.03 20.29, 63.47 49.2 M65.42 50.82 C37.18 48.98, 12.44 48.28, -0.98 48.8 M64.75 50.57 C48.53 50.01, 31.87 49, -0.3 49.57 M-1.77 50.23 C1.47 33.53, 1.49 11.73, -0.8 -1.74 M0.04 50.44 C-0.55 35.55, -0.72 20.76, -0.56 -0.47" stroke="#8b949e" stroke-width="2" fill="none"></path></g><g transform="translate(739.6070022583008 361.25) rotate(0 8.392997741699219 8.75)"><text x="8.392997741699219" y="NaN" font-family="Virgil, Segoe UI Emoji" font-size="14px" fill="#ffffff" text-anchor="middle" style="white-space: pre;" direction="ltr">P7</text></g><g stroke-linecap="round" transform="translate(716 401) rotate(0 32 25)"><path d="M0.89 1.19 L63.66 -0.01 L62.12 49.33 L-1.23 51.93" stroke="none" stroke-width="0" fill="#21262d"></path><path d="M-1.77 -0.82 C22.32 0.91, 42.66 2.36, 62.74 -1.1 M-0.39 -0.89 C14.36 -0.64, 30.55 0.35, 64.25 -0.75 M65.78 1.39 C62.53 17.82, 62.05 36.52, 63.42 49.91 M64.55 0.51 C64.68 14.52, 64.58 27.48, 63.55 50.98 M65.81 49.08 C45.64 50.48, 30.18 49.76, -0.6 50.42 M64.42 50.61 C48.25 50.58, 33.45 51.18, -0.52 49.7 M-0.14 49.59 C-0.23 37.68, -1.54 21.44, 0.51 -1.65 M-0.82 49.54 C1.11 32.24, -0.44 14.42, -0.14 -0.23" stroke="#8b949e" stroke-width="1" fill="none"></path></g><g stroke-linecap="round" transform="translate(716 449) rotate(0 32 1)"><path d="M-0.44 -1.99 L64.8 -0.6 L65.54 0.49 L-1.81 0.61" stroke="none" stroke-width="0" fill="#21262d"></path><path d="M-1 0.38 C21.7 -0.42, 47.13 0.55, 62.75 -0.62 M0.31 -0.62 C23.61 -0.85, 47.24 0.46, 64.7 0.43 M64.11 -0.01 C64.19 0.78, 64.13 1.46, 64.15 1.94 M63.94 0.1 C63.92 0.78, 63.96 1.54, 63.92 1.93 M63.46 0.03 C48.14 3.36, 33.59 1.42, 1.54 0.59 M64.94 1.41 C39.86 3.14, 14.08 1.36, 0.31 2.42 M0.01 2.17 C0.14 1.72, -0.06 1.25, 0.2 -0.09 M-0.03 1.9 C-0.05 1.15, -0.04 0.33, 0.06 0.02" stroke="#8b949e" stroke-width="2" fill="none"></path></g><g transform="translate(737.879508972168 455) rotate(0 10.120491027832031 8.125)"><text x="10.120491027832031" y="NaN" font-family="Virgil, Segoe UI Emoji" font-size="13px" fill="#8b949e" text-anchor="middle" style="white-space: pre;" direction="ltr">5%</text></g><g stroke-linecap="round" transform="translate(794 345) rotate(0 32 25)"><path d="M-0.76 -1.84 L63.08 1.66 L65.53 49.36 L1.96 49.99" stroke="none" stroke-width="0" fill="#21262d"></path><path d="M-0.6 0.41 C21.88 -0.44, 44.52 -0.73, 63.77 -0.92 M0.57 -0.46 C14.25 -0.27, 29.18 0.22, 63.81 0.63 M64.04 -0.4 C65.67 17.16, 63.41 33.72, 65.35 50.03 M63.67 0.6 C62.69 9.74, 63.39 21.24, 64.88 49.19 M64.48 51.05 C41.04 49.44, 18.55 49.34, 0.54 51.73 M63.42 50.04 C39.25 50.53, 15.57 49.81, 0.44 50.43 M0.94 50.76 C-1.21 32.44, 1.58 15.06, -1.38 -1.54 M-0.59 50.58 C0.78 33.88, -0.88 16.58, 0.26 0.73" stroke="#8b949e" stroke-width="2" fill="none"></path></g><g transform="translate(816.0180053710938 361.25) rotate(0 9.98199462890625 8.75)"><text x="9.98199462890625" y="NaN" font-family="Virgil, Segoe UI Emoji" font-size="14px" fill="#ffffff" text-anchor="middle" style="white-space: pre;" direction="ltr">P8</text></g><g stroke-linecap="round" transform="translate(794 401) rotate(0 32 25)"><path d="M-0.45 0.52 L65.74 -0.29 L65.32 51.12 L-1.54 50.75" stroke="none" stroke-width="0" fill="#21262d"></path><path d="M1.42 -0.14 C21.32 -1.23, 43.94 2.05, 65.21 -0.6 M-0.59 -0.5 C23.05 1.19, 46.33 0.79, 64.1 0.67 M63.55 0.93 C61.96 16.53, 61.87 36.34, 62.46 49.19 M63.25 -0.65 C63.93 16.79, 64.35 34.11, 63.91 49.12 M65.97 49.78 C40.72 51.41, 14.1 50.57, 1.01 48.07 M63.49 50.39 C46.94 50.35, 29.45 48.96, -0.8 49.62 M0.89 51.91 C-1.63 37.32, -0.09 26.9, 1.4 1.14 M-0.5 50.06 C0.05 35.55, 0.2 20.5, -0.07 0.81" stroke="#8b949e" stroke-width="1" fill="none"></path></g><g stroke-linecap="round" transform="translate(794 449) rotate(0 32 1)"><path d="M-0.11 -0.63 L64.71 -1.7 L64.17 2.68 L0.52 0.79" stroke="none" stroke-width="0" fill="#21262d"></path><path d="M-0.24 0.11 C18.88 -1.15, 32.49 0.34, 63.91 1.46 M0.69 0.45 C17.39 -0.93, 35.49 0.01, 64.38 -0.88 M63.85 -0.17 C64.01 0.56, 63.95 1.11, 63.98 1.89 M63.96 -0.09 C64.07 0.53, 64.11 1.02, 63.98 2.04 M64.13 3.33 C42.97 1.87, 18.81 3.82, 1.66 3.37 M64.11 2.58 C41.76 2.87, 18.81 1.64, -0.41 2.46 M0.13 2.12 C0.09 1.38, 0 0.57, 0.06 -0.12 M0.03 2.01 C-0.03 1.51, -0.02 1.19, 0.09 -0.08" stroke="#8b949e" stroke-width="2" fill="none"></path></g><g transform="translate(815.879508972168 455) rotate(0 10.120491027832031 8.125)"><text x="10.120491027832031" y="NaN" font-family="Virgil, Segoe UI Emoji" font-size="13px" fill="#8b949e" text-anchor="middle" style="white-space: pre;" direction="ltr">5%</text></g><g stroke-linecap="round" transform="translate(872 345) rotate(0 32 25)"><path d="M-1.85 0.45 L65.74 1.15 L64.57 50.6 L1.66 49.5" stroke="none" stroke-width="0" fill="#21262d"></path><path d="M-0.04 1.3 C25.47 2.13, 47.24 0.84, 62.05 0.29 M-0.88 0.99 C15.32 1.17, 29.69 0.66, 64.53 -0.82 M65.39 1.98 C64.14 18.02, 63.75 33.56, 64.65 49.15 M63.25 -0.02 C64.7 12.17, 64.76 25.45, 64.82 50.63 M63.85 48.56 C41.84 50.53, 22.28 51.77, 0.08 51.47 M63.7 49.55 C44.36 50.58, 25.96 50.49, -0.07 50.69 M0.57 49.64 C0.48 31.84, 1.43 12.56, -0.23 1.77 M-0.41 49.13 C0.64 39.16, -0.54 26.97, -0.43 -0.84" stroke="#8b949e" stroke-width="2" fill="none"></path></g><g transform="translate(895.1100082397461 361.25) rotate(0 8.889991760253906 8.75)"><text x="8.889991760253906" y="NaN" font-family="Virgil, Segoe UI Emoji" font-size="14px" fill="#ffffff" text-anchor="middle" style="white-space: pre;" direction="ltr">P9</text></g><g stroke-linecap="round" transform="translate(872 401) rotate(0 32 25)"><path d="M1.4 1.34 L63.84 0.39 L64.63 50.98 L-0.22 49.07" stroke="none" stroke-width="0" fill="#21262d"></path><path d="M0.87 0.67 C24.38 1.6, 47.88 0.78, 62.34 -0.53 M0.99 -0.82 C17.86 0.55, 35.09 -0.98, 64.2 -0.25 M63.49 0.28 C65.24 18.67, 65.85 40.53, 62.9 48.8 M64.12 0.84 C63.5 13.45, 64.64 29.13, 64.07 49.06 M62.42 51.14 C49.05 50.31, 32.84 47.78, -0.72 50.79 M63.61 50.93 C47.91 49.53, 32.41 49.41, 0.46 49.51 M1.12 49.42 C0.48 31.48, -1.55 15.92, -0.99 -0.27 M0.15 49.16 C0.1 35.03, -1.27 21.2, -0.45 0.7" stroke="#8b949e" stroke-width="1" fill="none"></path></g><g stroke-linecap="round" transform="translate(872 449) rotate(0 32 1)"><path d="M-1.79 -0.68 L63.05 1.54 L64.32 0.1 L1.92 1.43" stroke="none" stroke-width="0" fill="#21262d"></path><path d="M-0.88 -1.17 C23.71 -1.36, 46.97 -0.76, 65.7 0.61 M-0.7 -0.1 C17.71 1, 34.13 0.08, 64.18 0.44 M64.19 0.01 C64.04 0.58, 64 1.18, 63.82 2.18 M64.02 -0.06 C64.09 0.42, 64.05 1, 64.05 2.03 M62.69 0.96 C51.54 2.11, 37.14 0.72, -1.74 2.98 M64.25 1.57 C42.34 1.97, 20.72 1.22, -0.27 1.96 M0 2.13 C0.19 1.59, 0.21 1.04, -0.03 -0.13 M0.07 2.08 C-0.03 1.33, -0.01 0.57, 0.08 -0.03" stroke="#8b949e" stroke-width="2" fill="none"></path></g><g transform="translate(893.879508972168 455) rotate(0 10.120491027832031 8.125)"><text x="10.120491027832031" y="NaN" font-family="Virgil, Segoe UI Emoji" font-size="13px" fill="#8b949e" text-anchor="middle" style="white-space: pre;" direction="ltr">5%</text></g><g stroke-linecap="round"><g transform="translate(476 276.8153829787234) rotate(0 44 -23.405191489361698)"><path d="M0.15 1.13 C14.7 -6.53, 73.66 -38, 88.13 -45.91 M-1.22 0.68 C13.1 -7.31, 72.15 -39.38, 87.26 -47.56" stroke="#f85149" stroke-width="5" fill="none"></path></g><g transform="translate(476 276.8153829787234) rotate(0 44 -23.405191489361698)"><path d="M69.26 -24.87 C76.24 -35.09, 82.95 -41.05, 89.18 -49.41 M67.19 -25.55 C71.74 -31.54, 76.94 -36.35, 86.67 -47.02" stroke="#f85149" stroke-width="5" fill="none"></path></g><g transform="translate(476 276.8153829787234) rotate(0 44 -23.405191489361698)"><path d="M59.47 -42.91 C70.09 -46.45, 80.43 -45.72, 89.18 -49.41 M57.41 -43.59 C64.66 -44.89, 72.39 -45.04, 86.67 -47.02" stroke="#f85149" stroke-width="5" fill="none"></path></g></g><g transform="translate(230 347) rotate(0 113.28788757324219 8.75)"><text x="0" y="NaN" font-family="Virgil, Segoe UI Emoji" font-size="14px" fill="#f85149" text-anchor="start" style="white-space: pre;" direction="ltr">ALL requests pinned to ONE pod</text></g><g transform="translate(970 205) rotate(0 77.06394958496094 10)"><text x="0" y="NaN" font-family="Virgil, Segoe UI Emoji" font-size="16px" fill="#f85149" text-anchor="start" style="white-space: pre;" direction="ltr">Hot pod: 100% CPU</text></g><g transform="translate(970 235) rotate(0 88.1999282836914 10)"><text x="0" y="NaN" font-family="Virgil, Segoe UI Emoji" font-size="16px" fill="#8b949e" text-anchor="start" style="white-space: pre;" direction="ltr">9 idle pods: ~5% CPU</text></g><g transform="translate(970 271) rotate(0 113.01490020751953 8.75)"><text x="0" y="NaN" font-family="Virgil, Segoe UI Emoji" font-size="14px" fill="#f85149" text-anchor="start" style="white-space: pre;" direction="ltr">Add capacity = still one hot pod</text></g><g transform="translate(970 347) rotate(0 76.17595672607422 10)"><text x="0" y="NaN" font-family="Virgil, Segoe UI Emoji" font-size="16px" fill="#f85149" text-anchor="start" style="white-space: pre;" direction="ltr">Outage during peak</text></g><g stroke-opacity="0.6" fill-opacity="0.6" stroke-linecap="round" transform="translate(10 505) rotate(0 690 180)"><path d="M1.31 1.88 L1380.64 0.58 L1378.76 360.09 L0.04 358.33" stroke="none" stroke-width="0" fill="#161b22"></path><path d="M0.74 -0.1 C515.74 -4.83, 1032.5 -4.29, 1380.46 -0.78 M1381.26 0.03 C1378.1 78.36, 1378.21 155.32, 1380.7 360.1 M1379.25 359.35 C1099.24 361.4, 818.03 361.43, -0.08 360.49 M0.48 359.29 C0.92 254.11, -0.49 149.89, -0.49 0.26" stroke="#6dbf3a" stroke-width="2.5" fill="none" stroke-dasharray="8 10"></path></g><g transform="translate(30 519) rotate(0 450.11981201171875 13.75)"><text x="0" y="NaN" font-family="Virgil, Segoe UI Emoji" font-size="22px" fill="#3fb950" text-anchor="start" style="white-space: pre;" direction="ltr">L7 (HTTP/2-aware) proxy  OR  client-side LB  OR  service mesh xDS  --  the fix</text></g><g transform="translate(30 553) rotate(0 287.9657287597656 8.75)"><text x="0" y="NaN" font-family="Virgil, Segoe UI Emoji" font-size="14px" fill="#8b949e" text-anchor="start" style="white-space: pre;" direction="ltr">Terminates HTTP/2 stream and distributes each request across all healthy pods.</text></g><g stroke-linecap="round" transform="translate(40 635) rotate(0 80 35)"><path d="M-1.18 -1.54 L160.62 -0.87 L160.5 70.02 L0.33 69.75" stroke="none" stroke-width="0" fill="#1f4d2b"></path><path d="M0.35 1.78 C46.85 3.18, 96.55 1.62, 160.33 -0.96 M-0.2 0.41 C53.66 -2.38, 106.93 -1.66, 159.07 -0.65 M160.45 0.32 C160.47 17.29, 159.89 31.93, 161.14 69.18 M159.05 -0.96 C159.81 14.72, 160.19 28.15, 159.36 69.81 M158.89 70.41 C103.22 69.96, 41.59 68.81, -1.94 69.33 M160.92 69.9 C100.69 68.88, 42.24 69.81, -0.24 70.19 M-0.49 68.41 C-0.97 45.95, -2.21 24.12, -0.99 -1.7 M-0.45 70.48 C-0.85 49.21, 0.29 26.69, -0.62 -0.03" stroke="#3fb950" stroke-width="2" fill="none"></path></g><g transform="translate(70.07703399658203 658.75) rotate(0 49.92296600341797 11.25)"><text x="49.92296600341797" y="NaN" font-family="Virgil, Segoe UI Emoji" font-size="18px" fill="#ffffff" text-anchor="middle" style="white-space: pre;" direction="ltr">gRPC client</text></g><g transform="translate(87.66903686523438 715) rotate(0 32.330963134765625 8.125)"><text x="32.330963134765625" y="NaN" font-family="Virgil, Segoe UI Emoji" font-size="13px" fill="#8b949e" text-anchor="middle" style="white-space: pre;" direction="ltr">many calls</text></g><g stroke-linecap="round" transform="translate(290 635) rotate(0 90 35)"><path d="M-0.47 1.14 L181 -0.3 L179.87 70.51 L-0.49 71.45" stroke="none" stroke-width="0" fill="#3a5d1d"></path><path d="M-1.1 1.2 C40.29 -2.96, 79.86 -0.76, 179.78 -0.49 M-0.66 -0.07 C57.22 -1.74, 115.68 -0.97, 179.06 0.71 M178.28 -1.17 C182.26 20.75, 180.9 42.58, 181.4 70.45 M179.49 0.74 C180.24 24.74, 178.69 49.46, 180.29 70.22 M181.27 68.42 C139.75 71.26, 94.5 71.56, 0.55 70.74 M180.82 70.62 C126.73 71.65, 73.19 70, 0.4 70.93 M-1.7 71.51 C-1.68 49.55, 0.09 24.33, 0.77 0.69 M-0.27 69.6 C0.41 53.93, -0.22 38.47, -0.86 -0.17" stroke="#6dbf3a" stroke-width="2" fill="none"></path></g><g transform="translate(326.76002502441406 657.5) rotate(0 53.23997497558594 12.5)"><text x="53.23997497558594" y="NaN" font-family="Virgil, Segoe UI Emoji" font-size="20px" fill="#ffffff" text-anchor="middle" style="white-space: pre;" direction="ltr">L7 / Envoy</text></g><g transform="translate(339.05005645751953 715) rotate(0 40.94994354248047 8.125)"><text x="40.94994354248047" y="NaN" font-family="Virgil, Segoe UI Emoji" font-size="13px" fill="#3fb950" text-anchor="middle" style="white-space: pre;" direction="ltr">request-level</text></g><g stroke-linecap="round"><g transform="translate(206 670.007) rotate(0 39 0)"><path d="M0.01 1.01 C12.87 0.91, 64.72 0.29, 77.77 -0.08 M-1.45 0.49 C11.19 0.55, 63.52 1.58, 76.7 1.41" stroke="#3fb950" stroke-width="4" fill="none"></path></g><g transform="translate(206 670.007) rotate(0 39 0)"><path d="M50.13 11.13 C58.11 8.47, 66.08 3.3, 78.07 2.46 M49.15 12.45 C58.13 8.95, 68.88 3.86, 77.33 2" stroke="#3fb950" stroke-width="4" fill="none"></path></g><g transform="translate(206 670.007) rotate(0 39 0)"><path d="M50.25 -9.39 C58.27 -4.91, 66.2 -2.94, 78.07 2.46 M49.27 -8.08 C58.04 -4.16, 68.74 -1.84, 77.33 2" stroke="#3fb950" stroke-width="4" fill="none"></path></g></g><g stroke-linecap="round" transform="translate(560 595) rotate(0 32 25)"><path d="M-0.33 1.97 L64.56 0.11 L62.95 49.56 L1.33 50.49" stroke="none" stroke-width="0" fill="#3a5d1d"></path><path d="M-1.28 1.49 C18.88 0.4, 39.64 -0.94, 62.7 -0.32 M0.44 0.77 C24.36 -0.63, 46.71 1, 63.53 0.17 M65.03 1.93 C63.05 10.23, 62.34 24.35, 63.21 51.24 M64.32 0.63 C63.25 10.74, 63.16 24.2, 64.7 50.32 M65.08 51.37 C38.75 51.1, 14.04 51.49, -1.98 50.21 M63.52 49.57 C41.97 50.83, 20.63 50.81, 0.57 50.34 M-1.3 51.47 C1.17 31.83, -1.66 10.58, 0.94 -0.76 M-0.26 49.16 C0.05 33.29, -0.82 17.66, -0.49 0.14" stroke="#6dbf3a" stroke-width="2" fill="none"></path></g><g transform="translate(582.5570068359375 611.25) rotate(0 9.4429931640625 8.75)"><text x="9.4429931640625" y="NaN" font-family="Virgil, Segoe UI Emoji" font-size="14px" fill="#ffffff" text-anchor="middle" style="white-space: pre;" direction="ltr">P0</text></g><g stroke-linecap="round" transform="translate(560 651) rotate(0 32 25)"><path d="M-1.46 1.91 L65.74 -0.47 L65.76 48.8 L0.67 49.9" stroke="none" stroke-width="0" fill="#21262d"></path><path d="M-1.34 0.13 C20.5 2.06, 38.79 1.39, 63.76 -1.04 M0.5 -0.79 C24.91 0.77, 49 1.12, 63.07 -0.77 M62.16 -1.22 C63.39 16.74, 64.28 31.99, 64.16 50.73 M63.61 -0.16 C64.6 15.35, 62.89 30.92, 63.16 50.8 M62.82 51.42 C42.23 48.2, 19.04 50.29, -0.98 51.06 M64.52 49.21 C51.25 50.07, 36.77 50.62, 0.1 49.15 M-1.95 51.41 C0.83 36.96, 0.21 19.42, 1.87 -1.37 M-0.75 50.31 C1.1 38.01, 0.11 25.1, -0.78 -0.27" stroke="#8b949e" stroke-width="1" fill="none"></path></g><g stroke-linecap="round" transform="translate(560 689) rotate(0 32 6)"><path d="M1.96 -1.44 L64.93 0.74 L62.2 13.29 L-0.95 10.28" stroke="none" stroke-width="0" fill="#3a5d1d"></path><path d="M-0.86 1.12 C16.5 -0.93, 33.82 1.24, 62.06 1.65 M-0.3 -0.13 C15.86 -0.35, 31.17 -0.83, 63.88 0.73 M62.87 -0.63 C65.27 3.45, 63.2 7.5, 63.67 12.61 M63.53 -0.18 C63.65 2.23, 63.6 5.72, 63.92 12.52 M63.93 13.05 C43.61 13.5, 18.4 12.01, -1.95 12.09 M64.1 12.46 C50.33 12.61, 36.18 12.61, -0.27 12.85 M-1.06 11.59 C-0.87 8.48, -0.57 3.63, -1.01 -1.13 M-0.47 11.83 C-0.21 8.79, 0.12 4.69, 0.32 -0.31" stroke="#6dbf3a" stroke-width="2" fill="none"></path></g><g transform="translate(577.2515106201172 705) rotate(0 14.748489379882812 8.125)"><text x="14.748489379882812" y="NaN" font-family="Virgil, Segoe UI Emoji" font-size="13px" fill="#3fb950" text-anchor="middle" style="white-space: pre;" direction="ltr">25%</text></g><g stroke-linecap="round" transform="translate(638 595) rotate(0 32 25)"><path d="M1.91 0.77 L62.96 0.06 L64.72 51.45 L0.99 49.04" stroke="none" stroke-width="0" fill="#3a5d1d"></path><path d="M-1.26 -0.97 C19.01 -0.53, 36.13 0.51, 65.68 -1.5 M0.99 0.86 C23.91 -0.87, 47.05 -0.22, 63.14 0.85 M63.08 -0.5 C64.97 9.94, 62.85 22.95, 65.95 51.28 M64.16 0.01 C64.06 17.66, 62.56 33.38, 63.1 49.28 M64.22 49.67 C51.1 50.5, 36 50.3, -0.63 49.72 M64.03 49.96 C37.79 51.34, 13.56 49.69, -0.81 50.47 M-0.71 50.13 C-1.48 35.18, -1.67 22.28, -1.44 -1.68 M0.41 50.95 C-0.57 34.33, 0.71 17.36, -0.15 0.78" stroke="#6dbf3a" stroke-width="2" fill="none"></path></g><g transform="translate(663.4760055541992 611.25) rotate(0 6.523994445800781 8.75)"><text x="6.523994445800781" y="NaN" font-family="Virgil, Segoe UI Emoji" font-size="14px" fill="#ffffff" text-anchor="middle" style="white-space: pre;" direction="ltr">P1</text></g><g stroke-linecap="round" transform="translate(638 651) rotate(0 32 25)"><path d="M-1.11 -1.21 L63.63 -0.04 L62.06 49.89 L-0.59 50.9" stroke="none" stroke-width="0" fill="#21262d"></path><path d="M1.29 -0.11 C20.31 1, 44.18 -0.6, 63.62 1.9 M-0.45 -0.23 C20.81 -0.97, 42.91 -0.92, 64.58 -0.82 M62.61 -1.83 C65.91 14.26, 62.57 27.7, 64.92 49.05 M63.45 0.18 C63.37 12.73, 62.96 24.64, 63.14 50.15 M65.14 48.54 C49.11 48.88, 37.91 48.4, -0.17 51.53 M63.61 49.38 C51.95 49.73, 38.35 49.69, -0.88 50.68 M-0.22 49.52 C-0.42 36.7, 0.85 21.42, 0.32 -0.17 M-0.42 50.88 C-0.59 35.68, 0.65 19.02, -0.96 0.8" stroke="#8b949e" stroke-width="1" fill="none"></path></g><g stroke-linecap="round" transform="translate(638 690) rotate(0 32 5.5)"><path d="M-1.53 -0.65 L62.24 1.74 L64.61 11.05 L-0.51 11.51" stroke="none" stroke-width="0" fill="#3a5d1d"></path><path d="M1.92 1.34 C21.19 -0.33, 37.99 -1.61, 64.06 -1.58 M0.24 0.89 C25.2 0.45, 49.84 -0.13, 63.92 0.97 M63.03 -0.99 C64.72 3.76, 63.64 7.56, 64.11 10.33 M63.96 -0.34 C63.79 3.74, 63.43 6.22, 63.64 10.68 M62.06 12.79 C42.6 9.39, 18.64 12.7, -0.8 11.38 M63.03 10.41 C45.17 9.86, 26.75 10.94, -0.93 10.42 M-1.05 10.17 C-0.65 7.63, 0.01 4.81, -1 0.73 M0.01 10.84 C-0.09 7.04, -0.34 2.04, -0.05 -0.13" stroke="#6dbf3a" stroke-width="2" fill="none"></path></g><g transform="translate(654.640510559082 705) rotate(0 15.359489440917969 8.125)"><text x="15.359489440917969" y="NaN" font-family="Virgil, Segoe UI Emoji" font-size="13px" fill="#3fb950" text-anchor="middle" style="white-space: pre;" direction="ltr">22%</text></g><g stroke-linecap="round" transform="translate(716 595) rotate(0 32 25)"><path d="M1.28 0.02 L62.79 1.44 L63.55 49.92 L1.3 49.46" stroke="none" stroke-width="0" fill="#3a5d1d"></path><path d="M1.2 -1.32 C15.59 0.49, 33.94 -0.08, 63.9 1.48 M0.96 0.47 C13.8 -0.19, 27.3 -1.07, 64.59 -0.13 M65.28 1.66 C65.46 11.19, 63.75 24.22, 63.33 48.59 M63.13 0.58 C64.36 20.05, 63.48 38.8, 64.29 49.39 M64.78 51.73 C49.51 49.01, 32.66 51.92, 1.79 49.33 M63.57 50.1 C44.63 49.53, 24.45 50.2, -0.48 50.58 M0.24 49.4 C-0.21 35.35, 1.25 17.61, -0.78 -1.32 M0.21 49.74 C-0.62 31.41, -0.28 12.61, 0.22 0.92" stroke="#6dbf3a" stroke-width="2" fill="none"></path></g><g transform="translate(738.3890075683594 611.25) rotate(0 9.610992431640625 8.75)"><text x="9.610992431640625" y="NaN" font-family="Virgil, Segoe UI Emoji" font-size="14px" fill="#ffffff" text-anchor="middle" style="white-space: pre;" direction="ltr">P2</text></g><g stroke-linecap="round" transform="translate(716 651) rotate(0 32 25)"><path d="M-1.94 0.58 L62.55 1 L64.27 51.61 L-1.46 51.74" stroke="none" stroke-width="0" fill="#21262d"></path><path d="M1.72 -0.1 C22.78 1.01, 46.72 -0.27, 65.08 -1.1 M-0.01 0.61 C24.78 -0.01, 49.25 0.43, 64 -0.53 M64.83 -0.29 C63.77 10.01, 62.72 22.5, 64.2 50.51 M64.88 -0.65 C64.12 11.1, 63.1 21.75, 63.79 50.81 M64.55 48.82 C50.76 51.19, 34.36 49.4, -1.26 51.42 M64.7 49.74 C47.5 50.92, 31.61 49.98, -0.56 50.52 M-0.36 50.68 C-1.41 31.66, 1.22 11.24, 0.74 -0.28 M0.28 49.46 C0.05 35.13, 0.07 17.56, -0.13 0.02" stroke="#8b949e" stroke-width="1" fill="none"></path></g><g stroke-linecap="round" transform="translate(716 687) rotate(0 32 7)"><path d="M1.22 0.2 L63.36 0.8 L65.18 14.43 L-1.25 15.38" stroke="none" stroke-width="0" fill="#3a5d1d"></path><path d="M-0.57 0.24 C14.8 -0.93, 31.87 -1.28, 63.12 -1.06 M-0.49 -0.39 C13.95 0.14, 28.57 0.08, 63.11 -0.4 M62.84 0.02 C64.58 5.08, 62.63 9.69, 64.93 13.51 M64.36 0.23 C63.29 3.47, 64.4 8.1, 64.44 14.53 M64.87 15.45 C41.45 12.95, 21.77 12.16, 1.67 14.35 M63.78 13.32 C45.05 14.4, 23.97 12.81, -0.94 13.45 M-0.15 15 C0.93 10.29, -0.61 3.99, -0.77 0.69 M0.45 13.53 C0.11 10.05, -0.71 6.07, 0.19 -0.6" stroke="#6dbf3a" stroke-width="2" fill="none"></path></g><g transform="translate(732.296012878418 705) rotate(0 15.703987121582031 8.125)"><text x="15.703987121582031" y="NaN" font-family="Virgil, Segoe UI Emoji" font-size="13px" fill="#3fb950" text-anchor="middle" style="white-space: pre;" direction="ltr">28%</text></g><g stroke-linecap="round" transform="translate(794 595) rotate(0 32 25)"><path d="M0.86 0.75 L65.16 0.55 L64.67 50.72 L0.03 50.68" stroke="none" stroke-width="0" fill="#3a5d1d"></path><path d="M1.4 1.6 C19.8 0.59, 38.79 0.8, 63.09 1.69 M-0.44 -0.83 C21.05 -1.13, 41.48 -1.29, 64.82 0.55 M63.03 -1.91 C62.45 19.83, 62.51 39.91, 64.78 50.78 M64.38 0.61 C64.27 11.64, 63.34 24.34, 64.35 50.25 M62.36 50.58 C41.71 50.04, 20.2 48.42, 0.28 51.77 M63.73 49.32 C47.12 50.81, 30.81 50.52, -0.06 50.08 M1.33 50.41 C0.15 32.88, 2.19 12.18, -1.69 1.16 M-0.7 49.73 C1.34 37.24, 0.56 22.53, -0.96 -0.76" stroke="#6dbf3a" stroke-width="2" fill="none"></path></g><g transform="translate(816.6060028076172 611.25) rotate(0 9.393997192382812 8.75)"><text x="9.393997192382812" y="NaN" font-family="Virgil, Segoe UI Emoji" font-size="14px" fill="#ffffff" text-anchor="middle" style="white-space: pre;" direction="ltr">P3</text></g><g stroke-linecap="round" transform="translate(794 651) rotate(0 32 25)"><path d="M-1.51 1.78 L62.8 0.15 L62.99 49.68 L-0.29 50.32" stroke="none" stroke-width="0" fill="#21262d"></path><path d="M0.49 1.25 C21.77 1.34, 45.76 1.5, 64.09 0.55 M-0.83 0.29 C15.7 -0.39, 30.89 0.07, 63.51 0.37 M62.7 1.05 C64.12 12.48, 65.4 28.48, 65.88 49.98 M64.37 0.1 C64.18 17.7, 63.91 32.8, 64.31 50.17 M65.62 48.07 C40.39 50.65, 18.48 52.27, -1.4 51.22 M64.28 49.66 C45.99 51.14, 27.24 50.1, -0.79 49.22 M1.63 48.67 C1.77 37.34, 0.62 19.7, 0.7 -0.11 M0.15 50.77 C0.33 37.81, -0.17 24.31, -0.85 -0.53" stroke="#8b949e" stroke-width="1" fill="none"></path></g><g stroke-linecap="round" transform="translate(794 689) rotate(0 32 6)"><path d="M-1.68 -1.03 L65.02 -0.49 L63.53 12.82 L-1.39 13.36" stroke="none" stroke-width="0" fill="#3a5d1d"></path><path d="M-1.33 -0.4 C21.77 1.73, 39.25 -1.71, 65.17 -1.87 M0.33 -0.55 C13.6 1.51, 28.6 1.5, 63.27 -0.99 M63.02 -0.84 C65 5.58, 64.28 8.23, 65.05 12.63 M63.91 0.57 C63.39 3.29, 63.81 7.55, 63.7 12.5 M64.75 10.44 C40.39 13.06, 18.86 12.52, -0.24 12.76 M64.51 12.21 C49.94 11.64, 36.94 10.78, 0.07 11.93 M1.15 11.58 C-0.54 7.17, -0.74 3.33, 0.17 -1.07 M-0.04 11.42 C0.44 7.65, -0.62 2.52, -0.14 0.02" stroke="#6dbf3a" stroke-width="2" fill="none"></path></g><g transform="translate(811.108512878418 705) rotate(0 14.891487121582031 8.125)"><text x="14.891487121582031" y="NaN" font-family="Virgil, Segoe UI Emoji" font-size="13px" fill="#3fb950" text-anchor="middle" style="white-space: pre;" direction="ltr">24%</text></g><g stroke-linecap="round" transform="translate(872 595) rotate(0 32 25)"><path d="M1.17 -0.05 L63.77 0.71 L63.07 48.06 L1.62 49.68" stroke="none" stroke-width="0" fill="#3a5d1d"></path><path d="M0.47 -1.73 C21.94 -0.71, 47.06 1.23, 65.24 0.8 M0.36 0.06 C22.05 -0.44, 44.52 0.84, 64.48 -0.92 M63.08 1.88 C64.27 11.18, 64.73 25.59, 64.49 50.22 M63.83 -0.98 C63.89 14.04, 64.08 28.93, 64.09 49.01 M65.27 51.55 C46.07 52.25, 23.9 51.34, 1.35 51.06 M64.51 49.3 C41.03 49.96, 17.01 50.73, -0.38 49.19 M-0.78 48.02 C-1.25 30.35, -0.01 12.93, -1.89 -1.67 M0.82 49.28 C0.82 36.74, -0.25 22.32, -0.93 0.51" stroke="#6dbf3a" stroke-width="2" fill="none"></path></g><g transform="translate(894.8930053710938 611.25) rotate(0 9.10699462890625 8.75)"><text x="9.10699462890625" y="NaN" font-family="Virgil, Segoe UI Emoji" font-size="14px" fill="#ffffff" text-anchor="middle" style="white-space: pre;" direction="ltr">P4</text></g><g stroke-linecap="round" transform="translate(872 651) rotate(0 32 25)"><path d="M-0.81 1.22 L62.6 -1.82 L63.52 50.41 L1.71 49" stroke="none" stroke-width="0" fill="#21262d"></path><path d="M-1.9 -1.94 C13.73 -1.31, 28 1.12, 62.12 -1.64 M0.53 -0.61 C14.16 0.76, 26.57 -0.42, 63.62 0.85 M63.17 -0.44 C62.49 19.11, 64.27 34.18, 62.79 50.98 M63.24 -0.95 C64.6 12.87, 64.25 27.44, 64.24 50.75 M65.61 49.51 C37.87 50.32, 17.05 50.07, -0.02 48.66 M63.01 50.75 C49.32 50.81, 35.46 49.51, -0.65 50.99 M1.94 49.07 C-1.04 41.15, 1.19 30.49, -0.14 0.8 M0.22 49.45 C0.7 38.92, -0.13 27.01, 0.22 0.41" stroke="#8b949e" stroke-width="1" fill="none"></path></g><g stroke-linecap="round" transform="translate(872 688) rotate(0 32 6.5)"><path d="M1.41 0.17 L63.08 1.38 L62.62 13.68 L-1.77 14.15" stroke="none" stroke-width="0" fill="#3a5d1d"></path><path d="M-1.09 -1.81 C15.28 0.65, 27.14 -1.63, 64.04 -1.2 M-0.57 -0.42 C23.62 0.66, 45.87 -0.1, 64.23 -0.24 M62.8 -0.86 C64.53 4.18, 62.94 6.34, 63.17 13.38 M64.09 -0.32 C64.28 4.63, 63.78 9.23, 63.99 12.91 M65.09 13.44 C38.07 11.39, 13.47 14.36, 1.16 13.44 M64.86 13.26 C43.21 13.26, 23.84 12.61, -0.87 13.37 M-0.41 14.16 C-0.16 8.32, 0.23 2.07, 1.05 0.1 M0.04 12.51 C-0.3 7.58, 0.59 2.62, -0.56 0.59" stroke="#6dbf3a" stroke-width="2" fill="none"></path></g><g transform="translate(889.108512878418 705) rotate(0 14.891487121582031 8.125)"><text x="14.891487121582031" y="NaN" font-family="Virgil, Segoe UI Emoji" font-size="13px" fill="#3fb950" text-anchor="middle" style="white-space: pre;" direction="ltr">26%</text></g><g stroke-linecap="round" transform="translate(560 735) rotate(0 32 25)"><path d="M0.57 -0.31 L62.01 -1.33 L62.31 48.29 L0.88 50.19" stroke="none" stroke-width="0" fill="#3a5d1d"></path><path d="M1.61 1.14 C22.23 0.88, 42.36 0.89, 62.31 1.41 M-0.55 -0.89 C13.74 0.99, 26.83 1.05, 64.07 -0.08 M63.2 1.48 C63.67 18.82, 63.27 38.04, 65.84 48.12 M64.79 0.26 C63.57 11, 63.93 22.28, 64.28 49.22 M65.95 49.02 C43.19 49.57, 19.92 50.31, -1.58 51.92 M63.04 50.92 C44.86 49.47, 28.35 49.28, -0.34 50.85 M1.63 51.05 C-0.53 36.62, 0.48 20.81, 0.88 -0.58 M-0.3 49.57 C-0.17 34.23, 0.27 19.41, 0.66 -0.12" stroke="#6dbf3a" stroke-width="2" fill="none"></path></g><g transform="translate(583.047004699707 751.25) rotate(0 8.952995300292969 8.75)"><text x="8.952995300292969" y="NaN" font-family="Virgil, Segoe UI Emoji" font-size="14px" fill="#ffffff" text-anchor="middle" style="white-space: pre;" direction="ltr">P5</text></g><g stroke-linecap="round" transform="translate(560 791) rotate(0 32 25)"><path d="M0.54 1.01 L65.33 1.96 L62.22 51.14 L0.76 51.17" stroke="none" stroke-width="0" fill="#21262d"></path><path d="M-1.37 0.78 C22.94 1.18, 47.43 -0.53, 62.08 1.15 M-0.28 -0.94 C23.8 -0.28, 47.55 1.22, 64.01 -0.37 M63.73 1.24 C64.71 18.23, 65.49 36.79, 65.71 50 M63.49 0.37 C63.72 12.71, 65 25.53, 63.3 50.09 M63.32 51.72 C44.84 50.78, 22.18 48.71, 1.64 48.92 M63.37 49.28 C41.73 50.86, 18.9 51.11, 0.89 49.65 M0.5 48.62 C1.49 29.89, -2.13 12.6, -1.68 -1.55 M0.84 50.19 C-0.39 36.92, 0.96 23.98, -0.14 0.38" stroke="#8b949e" stroke-width="1" fill="none"></path></g><g stroke-linecap="round" transform="translate(560 830) rotate(0 32 5.5)"><path d="M0.29 -0.59 L64.54 -0.54 L65.01 12.34 L-1.96 10.45" stroke="none" stroke-width="0" fill="#3a5d1d"></path><path d="M-0.41 -0.75 C14.89 -0.85, 30.05 -2.27, 63.25 0.98 M0.61 0.29 C18.07 -1.01, 35.44 0.37, 64.75 0.78 M63.95 0.59 C63.86 3.9, 64.51 7.5, 64.35 11.29 M64.34 0.32 C63.67 2.97, 63.58 6.86, 64.45 11.09 M63.59 11.57 C38.21 11.42, 15.44 10.75, -0.08 11.69 M63.66 10.48 C49.78 11.95, 34.67 11.01, -0.89 11.34 M-0.44 12.1 C0.51 7.86, -1.07 3.95, 0.49 -0.51 M-0.53 10.79 C-0.03 8.27, -0.04 4.82, -0.13 -0.12" stroke="#6dbf3a" stroke-width="2" fill="none"></path></g><g transform="translate(576.8420104980469 845) rotate(0 15.157989501953125 8.125)"><text x="15.157989501953125" y="NaN" font-family="Virgil, Segoe UI Emoji" font-size="13px" fill="#3fb950" text-anchor="middle" style="white-space: pre;" direction="ltr">23%</text></g><g stroke-linecap="round" transform="translate(638 735) rotate(0 32 25)"><path d="M-1.29 1.38 L65.34 -0.65 L63.35 51.23 L1.3 49.47" stroke="none" stroke-width="0" fill="#3a5d1d"></path><path d="M-1.15 -1.61 C17.8 -0.86, 38.5 1.48, 62.18 -1.17 M-0.68 -0.2 C24.26 -0.17, 49.71 0.09, 64.32 0.57 M63.95 -0.23 C65.63 14.69, 65.92 30.11, 64.89 48.4 M63.38 0.86 C63.96 18.26, 63.61 36.38, 64.45 50.67 M63.71 48.77 C39.05 51.33, 15.72 49.75, 0.88 51.05 M63.71 49.93 C45.07 50.69, 27.29 51.25, 0.05 50.59 M-1.56 49.63 C0.91 29.78, -0.65 12.08, -1.4 -1.94 M0.78 50.21 C0.29 36.16, -0.08 19.44, 0.58 -0.51" stroke="#6dbf3a" stroke-width="2" fill="none"></path></g><g transform="translate(660.8930053710938 751.25) rotate(0 9.10699462890625 8.75)"><text x="9.10699462890625" y="NaN" font-family="Virgil, Segoe UI Emoji" font-size="14px" fill="#ffffff" text-anchor="middle" style="white-space: pre;" direction="ltr">P6</text></g><g stroke-linecap="round" transform="translate(638 791) rotate(0 32 25)"><path d="M-0.48 -1.19 L62.68 0.73 L63.77 49.16 L-0.13 51.7" stroke="none" stroke-width="0" fill="#21262d"></path><path d="M0.16 -0.76 C19.91 -2.04, 38.45 1.11, 65.27 -0.27 M0.55 0.52 C22.33 0.83, 43.87 0.33, 63.72 -0.93 M62.52 -1.51 C62.6 12.6, 62.1 20.62, 65.63 50.55 M63.14 -0.12 C63.9 15.82, 63.85 30.3, 63.74 49.73 M62.29 49.87 C46.13 48.13, 22.72 50.65, 0.88 48.37 M64.08 50.47 C39.31 48.95, 15.78 50.57, 0.23 49.93 M0 50.83 C1 33.54, 0.4 18.73, 1.86 1.83 M-0.08 50.38 C-0.37 38.72, 1.02 25.6, 0.81 -0.04" stroke="#8b949e" stroke-width="1" fill="none"></path></g><g stroke-linecap="round" transform="translate(638 828) rotate(0 32 6.5)"><path d="M-0.68 -1.41 L64.15 -1.81 L63.79 13.71 L-0.53 12.26" stroke="none" stroke-width="0" fill="#3a5d1d"></path><path d="M1.76 -1.88 C13.66 1.47, 28.25 1.21, 62.52 0.8 M-0.85 -0.28 C17.81 0.06, 35.83 -0.22, 63.59 0.04 M65.03 -0.52 C65.3 3.68, 65.01 8.85, 64.92 12.07 M63.83 -0.19 C64.19 4.95, 64.26 9.34, 64.03 12.43 M65.95 12.65 C38.81 13.08, 15.42 12.81, 0.53 13.38 M63.44 13.17 C42.05 12.72, 19.92 13.02, -0.99 13.19 M-1.02 14.12 C0.77 10.47, 0.31 5.54, 0.21 -1.27 M0.05 13.43 C0.3 8.92, 0.1 4.68, -0.55 -0.03" stroke="#6dbf3a" stroke-width="2" fill="none"></path></g><g transform="translate(655.7715148925781 845) rotate(0 14.228485107421875 8.125)"><text x="14.228485107421875" y="NaN" font-family="Virgil, Segoe UI Emoji" font-size="13px" fill="#3fb950" text-anchor="middle" style="white-space: pre;" direction="ltr">27%</text></g><g stroke-linecap="round" transform="translate(716 735) rotate(0 32 25)"><path d="M-0.57 1.18 L63.64 0.64 L63.63 51.15 L0.41 51.86" stroke="none" stroke-width="0" fill="#3a5d1d"></path><path d="M-0.48 0.73 C19.74 0.65, 43.44 -2.02, 63.65 1.34 M-0.68 -0.97 C15.02 0.17, 28.98 0.12, 64.01 -0.6 M63.63 -0.39 C63.17 11.84, 64.62 24.95, 63.45 48.22 M63.48 -0.16 C63.1 15.44, 63.59 31.48, 64.61 50.66 M64.38 49.89 C45.69 50.63, 32.38 49.64, 0.56 50.6 M63.77 50 C41.96 49.45, 19.94 49.16, -0.72 49.29 M0.63 48.01 C-1.6 34.41, 0.38 19.56, -0.28 -0.58 M-0.7 49.02 C-0.73 30.41, 0.4 10.01, 0.86 -0.84" stroke="#6dbf3a" stroke-width="2" fill="none"></path></g><g transform="translate(739.6070022583008 751.25) rotate(0 8.392997741699219 8.75)"><text x="8.392997741699219" y="NaN" font-family="Virgil, Segoe UI Emoji" font-size="14px" fill="#ffffff" text-anchor="middle" style="white-space: pre;" direction="ltr">P7</text></g><g stroke-linecap="round" transform="translate(716 791) rotate(0 32 25)"><path d="M0.35 0.61 L63.3 0.4 L64.17 49.4 L-2 50.25" stroke="none" stroke-width="0" fill="#21262d"></path><path d="M0.96 -1.74 C14.31 1.26, 29.85 -1.9, 64.14 1.61 M-0.63 -0.71 C20.28 -0.99, 39.55 -0.65, 64.4 -0.99 M63.37 -0.39 C62.1 20.7, 63.82 37.28, 63.1 51.76 M63.8 -0.32 C62.74 16.68, 63.87 31.15, 63.32 49.37 M65.56 49.41 C43.4 50.77, 20.85 48.21, -0.57 48.44 M63.63 49 C40.88 51.13, 17.37 50.48, -0.37 49.77 M-0.78 50.14 C1.05 34.88, -1.3 20.1, -0.1 0.58 M-0.57 49.34 C0.92 31.91, 0.76 13.64, -0.96 -0.85" stroke="#8b949e" stroke-width="1" fill="none"></path></g><g stroke-linecap="round" transform="translate(716 829) rotate(0 32 6)"><path d="M1.57 -1.26 L65.18 -1.8 L63.92 12.55 L0.74 10.8" stroke="none" stroke-width="0" fill="#3a5d1d"></path><path d="M1.84 0.42 C16.03 -1.04, 36.03 -1.53, 64.67 0.52 M0.95 -0.38 C14.79 -0.29, 31.34 0.81, 64.64 -0.32 M64.97 -0.47 C64.84 3.21, 63.79 5.55, 64.16 10.98 M63.74 0.36 C63.66 4.8, 64.33 9.7, 63.96 11.58 M62.49 12.94 C41.7 14.02, 16.64 12.17, -0.57 13.78 M63.01 11.72 C43.42 12.15, 25.05 12.27, -0.1 11.84 M0.88 11.51 C-0.48 9.76, -0.1 6.56, 0.89 -0.14 M0.14 12.36 C-0.16 8.13, -0.61 4, -0.35 -0.18" stroke="#6dbf3a" stroke-width="2" fill="none"></path></g><g transform="translate(733.108512878418 845) rotate(0 14.891487121582031 8.125)"><text x="14.891487121582031" y="NaN" font-family="Virgil, Segoe UI Emoji" font-size="13px" fill="#3fb950" text-anchor="middle" style="white-space: pre;" direction="ltr">24%</text></g><g stroke-linecap="round" transform="translate(794 735) rotate(0 32 25)"><path d="M1.61 -1.38 L63.57 -1.2 L64.38 49.07 L1.49 51.09" stroke="none" stroke-width="0" fill="#3a5d1d"></path><path d="M-1.34 1.92 C26.04 -0.66, 47.54 0.6, 64.67 -0.84 M0.41 -0.46 C22.38 -0.01, 44.01 -0.34, 64.65 -0.26 M62.56 -1.85 C65.6 15.02, 63.41 32.84, 63.99 48.02 M63.28 -0.02 C65.12 18.82, 63.4 36.17, 64.68 49.95 M63.89 48.76 C40.69 48.66, 17.1 48.88, -0.68 50.3 M64.54 50.78 C46.91 50.14, 28.96 50.64, -0.51 49.92 M1.7 49.11 C-2.12 29.49, 1.39 11.92, -0.53 -1.05 M-0.98 50.45 C-0.85 36.91, -0.89 25.24, 0.16 0.5" stroke="#6dbf3a" stroke-width="2" fill="none"></path></g><g transform="translate(816.0180053710938 751.25) rotate(0 9.98199462890625 8.75)"><text x="9.98199462890625" y="NaN" font-family="Virgil, Segoe UI Emoji" font-size="14px" fill="#ffffff" text-anchor="middle" style="white-space: pre;" direction="ltr">P8</text></g><g stroke-linecap="round" transform="translate(794 791) rotate(0 32 25)"><path d="M-0.45 -0.7 L63.51 0.2 L64.37 50.14 L1.09 51.97" stroke="none" stroke-width="0" fill="#21262d"></path><path d="M0.18 -0.17 C22.72 0.87, 46.84 0.69, 63.66 1.93 M0.57 0.5 C16.55 0.23, 30.93 0.12, 63.13 -0.24 M64.17 0.92 C62.04 10.83, 62.49 20.34, 65.51 51.12 M63.26 0.18 C64.13 15.38, 63.77 30.35, 64.27 50.63 M64.1 50.31 C45.49 50.38, 24.49 50.73, 0.35 51.39 M63.61 50.08 C44.1 51.37, 25.22 51.31, -0.2 49.35 M-1.92 49.85 C-0.05 33.69, 0.65 20.21, -0.38 -0.28 M-0.29 49.76 C-0.53 37.26, -1.01 24.96, -0.94 0.5" stroke="#8b949e" stroke-width="1" fill="none"></path></g><g stroke-linecap="round" transform="translate(794 829) rotate(0 32 6)"><path d="M-1.84 -1.66 L65.33 -1.93 L64.78 10.22 L-1.12 12.64" stroke="none" stroke-width="0" fill="#3a5d1d"></path><path d="M0.37 -1.23 C22.33 0.15, 48.9 -2.08, 62.55 -1.36 M0.01 0.47 C14.56 0.46, 29.52 -1.23, 63.64 0.9 M63.97 1 C63.53 2.69, 64.83 5.79, 62.81 11.36 M63.72 -0.5 C64.43 3.32, 63.97 6.11, 63.82 11.96 M64.08 11.15 C48.88 9.89, 34.2 10.55, -1.78 12.55 M64.74 11.06 C42.49 12.14, 20.13 13.41, -0.73 11.79 M-0.41 12.18 C0.6 9.05, 0.45 6.97, -0.86 -0.96 M-0.08 11.43 C0.46 7.99, 0.12 3.03, 0.01 0.2" stroke="#6dbf3a" stroke-width="2" fill="none"></path></g><g transform="translate(811.2515106201172 845) rotate(0 14.748489379882812 8.125)"><text x="14.748489379882812" y="NaN" font-family="Virgil, Segoe UI Emoji" font-size="13px" fill="#3fb950" text-anchor="middle" style="white-space: pre;" direction="ltr">25%</text></g><g stroke-linecap="round" transform="translate(872 735) rotate(0 32 25)"><path d="M0.24 -0.58 L63.22 0.8 L62.41 48.9 L0.06 48.43" stroke="none" stroke-width="0" fill="#3a5d1d"></path><path d="M-1.92 -0.82 C21.66 0.39, 44.07 0.98, 63.92 0.51 M0.16 -0.87 C13.65 0.72, 26.85 -0.28, 63.42 -0.71 M63.09 -0.23 C64.04 12.41, 64.17 24.43, 65.71 51.36 M64.16 -0.09 C63.64 16.91, 64.01 32.68, 64.41 49.79 M63.1 48.03 C44.27 48.44, 22.65 50.91, 1.52 49.25 M64.46 49.49 C42.56 50.66, 20.13 51.05, 0.36 49.43 M-1.55 48.7 C-0.29 29.47, -1.54 13.85, 1.14 -1.3 M-0.67 49.75 C0.42 30.11, -0.22 10.78, -0.31 -0.69" stroke="#6dbf3a" stroke-width="2" fill="none"></path></g><g transform="translate(895.1100082397461 751.25) rotate(0 8.889991760253906 8.75)"><text x="8.889991760253906" y="NaN" font-family="Virgil, Segoe UI Emoji" font-size="14px" fill="#ffffff" text-anchor="middle" style="white-space: pre;" direction="ltr">P9</text></g><g stroke-linecap="round" transform="translate(872 791) rotate(0 32 25)"><path d="M0.96 -0.1 L63.06 -0.93 L62.3 51.48 L1.23 48.57" stroke="none" stroke-width="0" fill="#21262d"></path><path d="M-0.06 0.92 C15.72 -0.52, 29.8 -0.74, 65.17 -1.86 M0.33 0.3 C23.76 -0.24, 45.73 -0.32, 63.81 -0.43 M64.26 0.43 C62.01 14.45, 65.58 29.8, 63.73 51.35 M64.47 0.7 C65.22 13.36, 64.36 27.95, 64.41 49.66 M62.03 48.51 C47.04 49.52, 34.65 48.95, -1.45 49.41 M64.08 50.72 C42.59 51, 19.73 49.63, 0.37 49.43 M-1.79 49.95 C-1.77 32.93, -0.71 12.36, 1.14 -1.63 M-0.05 49.12 C0.71 38.33, -0.2 26.59, -0.92 -0.66" stroke="#8b949e" stroke-width="1" fill="none"></path></g><g stroke-linecap="round" transform="translate(872 828) rotate(0 32 6.5)"><path d="M-1.84 -0.27 L64.74 0.95 L64.49 14.34 L-1.56 13.56" stroke="none" stroke-width="0" fill="#3a5d1d"></path><path d="M1.87 1.05 C14.6 -1.31, 33.16 -0.97, 64.16 0.33 M0.98 0.06 C17.77 -0.26, 38 -0.06, 63.23 -0.04 M65.21 -0.08 C64.15 2.63, 63.74 7.95, 64.41 13.29 M64.11 0.28 C63.39 3.33, 64.16 7.75, 63.41 12.55 M64.04 14.95 C44.41 11.62, 26.19 11.29, 1.37 11.41 M63.39 12.56 C48.45 13.42, 33.07 11.9, -0.98 12.19 M1.27 12.67 C0.7 9.19, -1.04 3.97, -1.04 -0.35 M0.07 13.15 C0.05 9.13, -0.07 4.67, 0.31 0.39" stroke="#6dbf3a" stroke-width="2" fill="none"></path></g><g transform="translate(889.108512878418 845) rotate(0 14.891487121582031 8.125)"><text x="14.891487121582031" y="NaN" font-family="Virgil, Segoe UI Emoji" font-size="13px" fill="#3fb950" text-anchor="middle" style="white-space: pre;" direction="ltr">26%</text></g><g stroke-linecap="round"><g transform="translate(476 666.8153829787234) rotate(0 44 -23.405191489361698)"><path d="M-1.07 -0.08 C13.61 -8.16, 74.1 -40.15, 88.88 -47.82 M0.57 -1.17 C15.1 -9.19, 74.05 -39, 88.39 -46.82" stroke="#3fb950" stroke-width="1" fill="none"></path></g><g transform="translate(476 666.8153829787234) rotate(0 44 -23.405191489361698)"><path d="M68.02 -23.2 C73.79 -33.27, 84.08 -40.32, 89.21 -46.14 M67.21 -24.75 C74.75 -31.26, 81.84 -38.65, 87.82 -47.09" stroke="#3fb950" stroke-width="1" fill="none"></path></g><g transform="translate(476 666.8153829787234) rotate(0 44 -23.405191489361698)"><path d="M58.52 -41.38 C67.88 -44.68, 81.67 -45.05, 89.21 -46.14 M57.7 -42.94 C68.05 -43.79, 78.09 -45.54, 87.82 -47.09" stroke="#3fb950" stroke-width="1" fill="none"></path></g></g><g stroke-linecap="round"><g transform="translate(476 668.2627441860465) rotate(0 83 -24.128872093023233)"><path d="M-0.63 -0.84 C27.36 -8.93, 139.48 -39.83, 167.12 -47.74 M1.24 1.34 C29.24 -7.19, 139.02 -41.53, 166.76 -49.59" stroke="#3fb950" stroke-width="1" fill="none"></path></g><g transform="translate(476 668.2627441860465) rotate(0 83 -24.128872093023233)"><path d="M141.37 -29.72 C149.05 -36.9, 153.64 -40.73, 165.29 -49.48 M143.2 -32.56 C150.77 -38.25, 158.74 -44.57, 166.72 -49.59" stroke="#3fb950" stroke-width="1" fill="none"></path></g><g transform="translate(476 668.2627441860465) rotate(0 83 -24.128872093023233)"><path d="M135.41 -49.36 C144.61 -51.97, 150.57 -51.26, 165.29 -49.48 M137.24 -52.2 C146.96 -50.93, 157.03 -50.29, 166.72 -49.59" stroke="#3fb950" stroke-width="1" fill="none"></path></g></g><g stroke-linecap="round"><g transform="translate(476 668.806952) rotate(0 122 -24.400976000000014)"><path d="M-0.57 0.17 C40.13 -7.91, 203.33 -40.65, 243.97 -48.9 M1.33 -0.78 C41.89 -8.63, 202.26 -39.5, 243 -47.42" stroke="#3fb950" stroke-width="1" fill="none"></path></g><g transform="translate(476 668.806952) rotate(0 122 -24.400976000000014)"><path d="M217.56 -32.05 C224.41 -37.43, 230.91 -41.66, 244.19 -48.69 M217.46 -31.52 C224.21 -35.09, 229.79 -38.8, 243.35 -47.43" stroke="#3fb950" stroke-width="1" fill="none"></path></g><g transform="translate(476 668.806952) rotate(0 122 -24.400976000000014)"><path d="M213.66 -52.19 C221.54 -51.88, 229.14 -50.43, 244.19 -48.69 M213.57 -51.67 C221.3 -50.14, 227.86 -48.77, 243.35 -47.43" stroke="#3fb950" stroke-width="1" fill="none"></path></g></g><g stroke-linecap="round"><g transform="translate(476 669.0923292682926) rotate(0 161 -24.543664634146296)"><path d="M0.33 0.56 C53.69 -7.65, 267.69 -40.19, 321.12 -48.48 M-0.95 -0.2 C52.7 -8.81, 269.34 -42.33, 323.37 -50.29" stroke="#3fb950" stroke-width="1" fill="none"></path></g><g transform="translate(476 669.0923292682926) rotate(0 161 -24.543664634146296)"><path d="M297.96 -37.39 C307.99 -43.28, 316.8 -46.71, 325.35 -48.74 M296.65 -35.25 C303.67 -39.23, 308.36 -42.23, 323.86 -50.58" stroke="#3fb950" stroke-width="1" fill="none"></path></g><g transform="translate(476 669.0923292682926) rotate(0 161 -24.543664634146296)"><path d="M294.88 -57.68 C306.21 -55.85, 316.19 -51.55, 325.35 -48.74 M293.57 -55.54 C301.43 -54.86, 306.83 -53.22, 323.86 -50.58" stroke="#3fb950" stroke-width="1" fill="none"></path></g></g><g stroke-linecap="round"><g transform="translate(476 669.2680541871922) rotate(0 200 -24.631527093596105)"><path d="M-0.94 -0.54 C65.99 -8.53, 334.07 -40.42, 400.75 -48.37 M0.76 1.8 C67.68 -6.49, 333.39 -41.39, 400.2 -50.02" stroke="#3fb950" stroke-width="1" fill="none"></path></g><g transform="translate(476 669.2680541871922) rotate(0 200 -24.631527093596105)"><path d="M372.67 -34.95 C381.19 -40.6, 387.53 -42.22, 399.35 -48.22 M372.67 -35.45 C381.21 -39.33, 389.07 -43.83, 400.7 -49.36" stroke="#3fb950" stroke-width="1" fill="none"></path></g><g transform="translate(476 669.2680541871922) rotate(0 200 -24.631527093596105)"><path d="M370.02 -55.3 C379.08 -56.28, 386.03 -53.26, 399.35 -48.22 M370.02 -55.8 C379.34 -53.52, 388 -51.87, 400.7 -49.36" stroke="#3fb950" stroke-width="1" fill="none"></path></g></g><g stroke-linecap="round"><g transform="translate(476 675.7515531914893) rotate(0 44 42.12672340425536)"><path d="M1.14 0.54 C15.67 14.6, 72.38 69.84, 86.93 83.84 M0.28 -0.22 C15.18 14.05, 74.47 70.79, 89.08 85.16" stroke="#3fb950" stroke-width="1" fill="none"></path></g><g transform="translate(476 675.7515531914893) rotate(0 44 42.12672340425536)"><path d="M62.59 71.14 C68.69 76.89, 77.59 81.35, 87.35 84.93 M62.62 73.23 C69.66 77.41, 78.17 80.08, 90.04 84.93" stroke="#3fb950" stroke-width="1" fill="none"></path></g><g transform="translate(476 675.7515531914893) rotate(0 44 42.12672340425536)"><path d="M76.86 56.4 C78.87 66.45, 83.73 75.08, 87.35 84.93 M76.9 58.49 C79.66 67.29, 83.76 74.52, 90.04 84.93" stroke="#3fb950" stroke-width="1" fill="none"></path></g></g><g stroke-linecap="round"><g transform="translate(476 673.146465116279) rotate(0 83 43.429267441860475)"><path d="M-0.26 0.32 C27.35 14.75, 137.96 73.24, 165.79 87.73 M1.8 -0.56 C29.23 14.05, 137.31 71.78, 164.73 86.06" stroke="#3fb950" stroke-width="1" fill="none"></path></g><g transform="translate(476 673.146465116279) rotate(0 83 43.429267441860475)"><path d="M135.54 81.62 C145.68 84.5, 154.1 83.92, 163.75 85.44 M134.65 82.21 C140.26 81.84, 147.51 83.04, 165.59 86.58" stroke="#3fb950" stroke-width="1" fill="none"></path></g><g transform="translate(476 673.146465116279) rotate(0 83 43.429267441860475)"><path d="M145.13 63.47 C152.48 71.94, 157.94 76.96, 163.75 85.44 M144.23 64.07 C147.89 67.54, 153.13 72.52, 165.59 86.58" stroke="#3fb950" stroke-width="1" fill="none"></path></g></g><g stroke-linecap="round"><g transform="translate(476 672.166952) rotate(0 122 43.91902399999998)"><path d="M-0.97 0.46 C39.94 15.04, 203.67 73.52, 244.34 88.01 M0.73 -0.34 C41.6 14.41, 202.79 74.84, 243.57 89.64" stroke="#3fb950" stroke-width="1" fill="none"></path></g><g transform="translate(476 672.166952) rotate(0 122 43.91902399999998)"><path d="M214.34 90.06 C220.16 88.17, 225.41 88.62, 245.49 88.11 M214.43 89.65 C223.39 90.42, 232.93 88.74, 243.69 89.04" stroke="#3fb950" stroke-width="1" fill="none"></path></g><g transform="translate(476 672.166952) rotate(0 122 43.91902399999998)"><path d="M221.46 70.81 C225.87 72.91, 229.63 77.4, 245.49 88.11 M221.54 70.4 C228.17 77.51, 235.35 82.19, 243.69 89.04" stroke="#3fb950" stroke-width="1" fill="none"></path></g></g><g stroke-linecap="round"><g transform="translate(476 671.6533048780487) rotate(0 161 44.175847560975626)"><path d="M0.57 1.06 C54.23 15.72, 268.19 72.96, 321.73 87.57 M-0.6 0.57 C52.9 15.41, 267.05 74.37, 320.64 88.7" stroke="#3fb950" stroke-width="1" fill="none"></path></g><g transform="translate(476 671.6533048780487) rotate(0 161 44.175847560975626)"><path d="M292.51 90.75 C297.85 90.03, 308.14 91.27, 321.69 87.56 M290.4 91.96 C301.22 89.51, 310.04 89.93, 321.1 87.78" stroke="#3fb950" stroke-width="1" fill="none"></path></g><g transform="translate(476 671.6533048780487) rotate(0 161 44.175847560975626)"><path d="M297.9 70.95 C301.66 75.81, 310.43 82.62, 321.69 87.56 M295.79 72.16 C304.9 76.43, 311.9 83.53, 321.1 87.78" stroke="#3fb950" stroke-width="1" fill="none"></path></g></g><g stroke-linecap="round"><g transform="translate(476 671.3370197044334) rotate(0 200 44.33399014778331)"><path d="M0.57 -0.81 C67.27 13.93, 333.33 73.83, 399.83 88.75 M-0.59 1.38 C65.97 16.31, 332.26 75.55, 398.79 90.33" stroke="#3fb950" stroke-width="1" fill="none"></path></g><g transform="translate(476 671.3370197044334) rotate(0 200 44.33399014778331)"><path d="M367.7 93.94 C377.19 92.31, 385.15 93.53, 396.83 91.12 M368.85 94.78 C379.35 92.65, 390.39 91.8, 399.58 91.19" stroke="#3fb950" stroke-width="1" fill="none"></path></g><g transform="translate(476 671.3370197044334) rotate(0 200 44.33399014778331)"><path d="M372.15 73.91 C380.49 77.7, 387.26 84.31, 396.83 91.12 M373.3 74.75 C382.25 79.5, 391.75 85.53, 399.58 91.19" stroke="#3fb950" stroke-width="1" fill="none"></path></g></g><g transform="translate(970 595) rotate(0 86.5919418334961 10)"><text x="0" y="NaN" font-family="Virgil, Segoe UI Emoji" font-size="16px" fill="#3fb950" text-anchor="start" style="white-space: pre;" direction="ltr">Each pod: ~25% CPU</text></g><g transform="translate(970 625) rotate(0 108.87994384765625 10)"><text x="0" y="NaN" font-family="Virgil, Segoe UI Emoji" font-size="16px" fill="#3fb950" text-anchor="start" style="white-space: pre;" direction="ltr">Linear scale with pod count</text></g><g transform="translate(970 661) rotate(0 97.62889099121094 8.75)"><text x="0" y="NaN" font-family="Virgil, Segoe UI Emoji" font-size="14px" fill="#8b949e" text-anchor="start" style="white-space: pre;" direction="ltr">Adopt before first prod ship</text></g></svg>