<svg version="1.1" xmlns="http://www.w3.org/2000/svg" viewBox="0 0 1422.9432373046875 692.5" width="1422.9432373046875" height="692.5">
  <!-- svg-source:excalidraw -->
  
  <defs>
    <style>
      @font-face {
        font-family: "Virgil";
        src: url("https://excalidraw.com/Virgil.woff2");
      }
      @font-face {
        font-family: "Cascadia";
        src: url("https://excalidraw.com/Cascadia.woff2");
      }
    </style>
  </defs>
  <rect x="0" y="0" width="1422.9432373046875" height="692.5" fill="#0d1117"></rect><g transform="translate(10 10) rotate(0 550.1697998046875 18.75)"><text x="0" y="NaN" font-family="Virgil, Segoe UI Emoji" font-size="30px" fill="#ff8c42" text-anchor="start" style="white-space: pre;" direction="ltr">Why Tag Reuse is Catastrophic -- one byte sequence, two interpretations</text></g><g transform="translate(10 53) rotate(0 701.4716186523438 10)"><text x="0" y="NaN" font-family="Virgil, Segoe UI Emoji" font-size="16px" fill="#c9d1d9" text-anchor="start" style="white-space: pre;" direction="ltr">The same message in Kafka is read by schema v1 as $50 USD. Six months later, schema v2 reuses the same tag for a different field. Replay corrupts everything downstream.</text></g><g stroke-linecap="round"><g transform="translate(30 115) rotate(0 670 0)"><path d="M0.01 -1.15 C223.2 -1.09, 1117.03 -0.88, 1340.32 -0.48 M-1.44 0.86 C221.52 1.15, 1116.16 1.03, 1339.54 0.8" stroke="#8b949e" stroke-width="2" fill="none"></path></g></g><g stroke-linecap="round"><g transform="translate(30 115) rotate(0 670 0)"><path d="M0.49 -0.4 C223.92 -0.68, 1116.34 -1.18, 1339.75 -1.13 M-0.71 -1.66 C222.6 -1.89, 1115.1 -0.65, 1338.67 -0.18" stroke="#8b949e" stroke-width="2" fill="none"></path></g><g transform="translate(30 115) rotate(0 670 0)"><path d="M1309.79 9.61 C1315.08 9.14, 1323.35 5.32, 1339.26 -1.93 M1309.56 10.09 C1317.9 6.37, 1326.35 3.18, 1339.64 -0.45" stroke="#8b949e" stroke-width="2" fill="none"></path></g><g transform="translate(30 115) rotate(0 670 0)"><path d="M1309.82 -10.91 C1315.2 -6.62, 1323.46 -5.68, 1339.26 -1.93 M1309.59 -10.43 C1318.1 -8.03, 1326.54 -5.09, 1339.64 -0.45" stroke="#8b949e" stroke-width="2" fill="none"></path></g></g><g transform="translate(30 89) rotate(0 32.17198181152344 8.75)"><text x="0" y="NaN" font-family="Virgil, Segoe UI Emoji" font-size="14px" fill="#8b949e" text-anchor="start" style="white-space: pre;" direction="ltr">TIME --&gt;</text></g><g stroke-linecap="round"><g transform="translate(80 107) rotate(0 0 8)"><path d="M0.99 0.04 C0.96 2.5, -0.23 12.17, -0.59 15.01 M0.04 -0.98 C0.45 1.57, 1.63 13.31, 1.81 16.03" stroke="#8b949e" stroke-width="2" fill="none"></path></g></g><g transform="translate(51.74903106689453 129) rotate(0 48.25096893310547 8.75)"><text x="48.25096893310547" y="NaN" font-family="Virgil, Segoe UI Emoji" font-size="14px" fill="#e6edf3" text-anchor="middle" style="white-space: pre;" direction="ltr">T0   month 0</text></g><g transform="translate(44.46406555175781 151) rotate(0 55.53593444824219 7.5)"><text x="55.53593444824219" y="NaN" font-family="Virgil, Segoe UI Emoji" font-size="12px" fill="#8b949e" text-anchor="middle" style="white-space: pre;" direction="ltr">Schema v1 deployed</text></g><g stroke-linecap="round"><g transform="translate(430 107) rotate(0 0 8)"><path d="M-0.16 -1.07 C-0.05 1.36, 0.95 12.22, 1.15 15.21 M-1.7 0.99 C-1.69 3.49, 0.38 14, 0.8 16.34" stroke="#8b949e" stroke-width="2" fill="none"></path></g></g><g transform="translate(393.5100402832031 129) rotate(0 56.489959716796875 8.75)"><text x="56.489959716796875" y="NaN" font-family="Virgil, Segoe UI Emoji" font-size="14px" fill="#e6edf3" text-anchor="middle" style="white-space: pre;" direction="ltr">T1   months 0-6</text></g><g transform="translate(373.3980712890625 151) rotate(0 76.6019287109375 7.5)"><text x="76.6019287109375" y="NaN" font-family="Virgil, Segoe UI Emoji" font-size="12px" fill="#8b949e" text-anchor="middle" style="white-space: pre;" direction="ltr">1M PaymentEvents written</text></g><g stroke-linecap="round"><g transform="translate(780 107) rotate(0 0 8)"><path d="M1 1.02 C1.11 3.39, 0.83 12.84, 0.53 15.19 M0.07 0.51 C0.08 2.93, -0.4 13.73, -0.15 16.31" stroke="#8b949e" stroke-width="2" fill="none"></path></g></g><g transform="translate(751.9170303344727 129) rotate(0 48.082969665527344 8.75)"><text x="48.082969665527344" y="NaN" font-family="Virgil, Segoe UI Emoji" font-size="14px" fill="#e6edf3" text-anchor="middle" style="white-space: pre;" direction="ltr">T2   month 6</text></g><g transform="translate(689.6241149902344 151) rotate(0 110.37588500976562 7.5)"><text x="110.37588500976562" y="NaN" font-family="Virgil, Segoe UI Emoji" font-size="12px" fill="#8b949e" text-anchor="middle" style="white-space: pre;" direction="ltr">Schema v2 deployed -- TAG REUSED</text></g><g stroke-linecap="round"><g transform="translate(1130 107) rotate(0 0 8)"><path d="M0.43 1.04 C0.46 3.61, 0.71 13.02, 0.74 15.46 M-0.81 0.53 C-0.92 3.26, 0.02 14, 0.19 16.71" stroke="#8b949e" stroke-width="2" fill="none"></path></g></g><g transform="translate(1102.8480224609375 129) rotate(0 47.1519775390625 8.75)"><text x="47.1519775390625" y="NaN" font-family="Virgil, Segoe UI Emoji" font-size="14px" fill="#e6edf3" text-anchor="middle" style="white-space: pre;" direction="ltr">T3   month 7</text></g><g transform="translate(1104.910057067871 151) rotate(0 45.089942932128906 7.5)"><text x="45.089942932128906" y="NaN" font-family="Virgil, Segoe UI Emoji" font-size="12px" fill="#8b949e" text-anchor="middle" style="white-space: pre;" direction="ltr">Replay job runs</text></g><g stroke-opacity="0.6" fill-opacity="0.6" stroke-linecap="round" transform="translate(10 185) rotate(0 160 140)"><path d="M-0.95 -1.22 L321.67 0.75 L319.76 279.89 L-0.23 280.59" stroke="none" stroke-width="0" fill="#161b22"></path><path d="M-1.28 -0.48 C85.84 -2.01, 171.43 0.05, 320.7 -0.35 M321.38 1 C323.22 74.38, 322.62 151.56, 321.02 281.39 M318.77 279.58 C213.01 279.94, 104 278.25, 0.79 281.22 M0.71 280.04 C-0.16 185.88, -1.41 87.95, -1.03 1.27" stroke="#a371f7" stroke-width="2.5" fill="none" stroke-dasharray="8 10"></path></g><g transform="translate(26 197) rotate(0 77.03096771240234 11.25)"><text x="0" y="NaN" font-family="Virgil, Segoe UI Emoji" font-size="18px" fill="#a371f7" text-anchor="start" style="white-space: pre;" direction="ltr">T0  -- Schema v1</text></g><g transform="translate(26 229) rotate(0 90.88093566894531 43.75)"><text x="0" y="NaN" font-family="Virgil, Segoe UI Emoji" font-size="14px" fill="#e6edf3" text-anchor="start" style="white-space: pre;" direction="ltr">message PaymentEvent {</text><text x="0" y="NaN" font-family="Virgil, Segoe UI Emoji" font-size="14px" fill="#e6edf3" text-anchor="start" style="white-space: pre;" direction="ltr">  string customer_id = 1;</text><text x="0" y="NaN" font-family="Virgil, Segoe UI Emoji" font-size="14px" fill="#e6edf3" text-anchor="start" style="white-space: pre;" direction="ltr">  int64  timestamp   = 2;</text><text x="0" y="NaN" font-family="Virgil, Segoe UI Emoji" font-size="14px" fill="#e6edf3" text-anchor="start" style="white-space: pre;" direction="ltr">  int32  price_cents = 3;</text><text x="0" y="NaN" font-family="Virgil, Segoe UI Emoji" font-size="14px" fill="#e6edf3" text-anchor="start" style="white-space: pre;" direction="ltr">}</text></g><g stroke-linecap="round" transform="translate(26 315) rotate(0 144 15)"><path d="M-1.38 0.7 L288.79 -0.55 L288.08 28.38 L-0.14 31.62" stroke="none" stroke-width="0" fill="#3a1d6e"></path><path d="M-0.7 -0.86 C72.12 -0.09, 142.74 -1.58, 287.1 -0.95 M-0.62 -0.65 C80.86 0.49, 160.27 0.55, 287.85 -0.26 M288.44 0.23 C287.66 8.83, 287.84 17.11, 286.84 29.13 M287.6 -0.72 C287.39 11.48, 287.29 20.79, 287.63 29.67 M288.44 30.18 C195.5 30.6, 104.2 28.22, 0.43 29.65 M288.35 30.02 C216.75 31.28, 146.31 31.09, -0.68 30.7 M-1.79 28.7 C-1.04 21.75, 1.32 12.27, -1.54 1.1 M-0.96 30.08 C0.61 19.92, -0.77 11.7, 0.75 -0.71" stroke="#a371f7" stroke-width="2" fill="none"></path></g><g transform="translate(71.51708221435547 321) rotate(0 98.48291778564453 8.75)"><text x="98.48291778564453" y="NaN" font-family="Virgil, Segoe UI Emoji" font-size="14px" fill="#ffffff" text-anchor="middle" style="white-space: pre;" direction="ltr">tag 3 = price_cents (int32)</text></g><g transform="translate(26 365) rotate(0 99.69691467285156 8.125)"><text x="0" y="NaN" font-family="Virgil, Segoe UI Emoji" font-size="13px" fill="#8b949e" text-anchor="start" style="white-space: pre;" direction="ltr">writer encodes price = $50.00:</text></g><g transform="translate(26 389) rotate(0 102.11491394042969 8.125)"><text x="0" y="NaN" font-family="Virgil, Segoe UI Emoji" font-size="13px" fill="#3fb950" text-anchor="start" style="white-space: pre;" direction="ltr">price_cents = 5000  -&gt;  bytes:</text></g><g transform="translate(26 413) rotate(0 116.92790985107422 8.75)"><text x="0" y="NaN" font-family="Virgil, Segoe UI Emoji" font-size="14px" fill="#3fb950" text-anchor="start" style="white-space: pre;" direction="ltr">18 88 27   (tag-3, varint 5000)</text></g><g stroke-opacity="0.6" fill-opacity="0.6" stroke-linecap="round" transform="translate(350 185) rotate(0 160 140)"><path d="M0.99 1.17 L319.83 -0.79 L321.27 281 L0.95 281.36" stroke="none" stroke-width="0" fill="#161b22"></path><path d="M0.93 1.03 C125.18 -1.84, 250.44 0.56, 319.28 1.04 M319.41 -0.58 C322.96 96.69, 322.54 190.9, 319.39 280.08 M319.92 279.8 C208.93 277.89, 100.03 278.47, 0.4 279.19 M-1.01 281.4 C-0.1 211.9, 0.94 144.22, -0.59 -0.1" stroke="#f0883e" stroke-width="2.5" fill="none" stroke-dasharray="8 10"></path></g><g transform="translate(366 197) rotate(0 94.8509521484375 11.25)"><text x="0" y="NaN" font-family="Virgil, Segoe UI Emoji" font-size="18px" fill="#f0883e" text-anchor="start" style="white-space: pre;" direction="ltr">T1  -- 6 months pass</text></g><g transform="translate(366 229) rotate(0 89.18690490722656 8.75)"><text x="0" y="NaN" font-family="Virgil, Segoe UI Emoji" font-size="14px" fill="#e6edf3" text-anchor="start" style="white-space: pre;" direction="ltr">1,000,000 PaymentEvents</text></g><g transform="translate(366 253) rotate(0 91.13990783691406 8.75)"><text x="0" y="NaN" font-family="Virgil, Segoe UI Emoji" font-size="14px" fill="#e6edf3" text-anchor="start" style="white-space: pre;" direction="ltr">sit in Kafka with v1 bytes.</text></g><g stroke-linecap="round" transform="translate(380 285) rotate(0 130 6)"><path d="M0.3 1.04 L261.3 1.81 L259.99 13.59 L-0.49 10.55" stroke="none" stroke-width="0" fill="#5c3a10"></path><path d="M1.51 -1.15 C71.35 -0.14, 143.09 0.53, 260.33 0.12 M-0.29 -0.69 C97.5 -0.86, 195.6 -0.12, 260.15 0.08 M260.12 -0.09 C259.58 4.71, 258.87 7.94, 258.87 12.34 M259.87 -0.12 C260.47 3.58, 259.66 6.67, 260.23 12.02 M259.38 13.44 C179.14 13.22, 99.51 13.2, 1.23 10.51 M260.3 11.54 C172.1 10.89, 83.04 11.03, 0.24 12.11 M0.42 11.14 C-1.05 10.44, -0.04 8, -0.26 0.43 M0.55 12.46 C0.07 9.47, 0.48 5.76, -0.43 -0.5" stroke="#f0883e" stroke-width="1" fill="none"></path></g><g transform="translate(388 284) rotate(0 30.689964294433594 6.25)"><text x="0" y="NaN" font-family="Virgil, Segoe UI Emoji" font-size="10px" fill="#3fb950" text-anchor="start" style="white-space: pre;" direction="ltr">18 88 27 ...</text></g><g stroke-linecap="round" transform="translate(380 301) rotate(0 130 6)"><path d="M-0.03 0.94 L260.66 -0.47 L258.54 11.72 L0.21 12.07" stroke="none" stroke-width="0" fill="#5c3a10"></path><path d="M1.18 1.36 C72.55 -1.88, 144.2 -0.17, 258.48 0.94 M0.61 -0.78 C79.11 -0.2, 159.01 -0.58, 260.7 0.25 M260.38 0.97 C259.5 4.48, 259.35 7.15, 260.61 12.56 M260.1 0.02 C259.86 3.69, 260.17 7.58, 259.51 11.78 M258.59 11.48 C170.7 11.18, 82.86 12.93, -0.06 12.23 M260.66 12.75 C171.55 12.44, 84.42 12.16, -0.32 12.19 M0.28 11.92 C0.21 7.41, 0.5 5.97, 0.12 -1.07 M0.5 12.38 C-0.01 9.66, -0.18 7.03, -0.57 0.49" stroke="#f0883e" stroke-width="1" fill="none"></path></g><g transform="translate(388 300) rotate(0 30.689964294433594 6.25)"><text x="0" y="NaN" font-family="Virgil, Segoe UI Emoji" font-size="10px" fill="#3fb950" text-anchor="start" style="white-space: pre;" direction="ltr">18 88 27 ...</text></g><g stroke-linecap="round" transform="translate(380 317) rotate(0 130 6)"><path d="M1.84 -0.29 L260.7 -0.12 L260.46 11.88 L-1.44 12.72" stroke="none" stroke-width="0" fill="#5c3a10"></path><path d="M0.6 1.31 C92.11 -2.81, 183.34 -2.77, 259.22 -1.12 M-0.39 -0.64 C100.64 -1.3, 200.44 -1.43, 259.23 -0.7 M259.37 -0.4 C260.16 3.54, 261.18 6.89, 259.92 12.8 M260.58 -0.25 C260.01 3.97, 259.97 7.64, 259.46 11.7 M261.47 12.94 C184.96 11.54, 111.41 11.27, -0.35 10.96 M259.73 11.85 C171.31 12.21, 81.85 11.79, -0.15 12.11 M-0.11 11.56 C1.2 9.76, 1.08 5.33, -0.33 -0.62 M-0.08 11.96 C-0.43 8.97, 0.3 5.4, -0.15 -0.29" stroke="#f0883e" stroke-width="1" fill="none"></path></g><g transform="translate(388 316) rotate(0 30.689964294433594 6.25)"><text x="0" y="NaN" font-family="Virgil, Segoe UI Emoji" font-size="10px" fill="#3fb950" text-anchor="start" style="white-space: pre;" direction="ltr">18 88 27 ...</text></g><g stroke-linecap="round" transform="translate(380 333) rotate(0 130 6)"><path d="M-0.29 -1.32 L259.26 -1.8 L259.21 10.83 L0.62 12.64" stroke="none" stroke-width="0" fill="#5c3a10"></path><path d="M-1.39 -1.58 C103.12 1.23, 207.98 1.23, 259.76 -0.53 M-0.54 -0.69 C67.44 -1.17, 133.82 -2.32, 259.81 0.28 M259.04 0.33 C260.91 3.28, 259.42 6.31, 258.88 11.3 M259.58 -0.48 C260.01 4.07, 260.21 8.3, 259.55 12.2 M260.91 12.64 C204.62 10.75, 149.59 12.73, 1.56 11.65 M260.26 12.04 C158.89 14.21, 56.84 13.53, 0.14 11.7 M0.55 11.09 C-0.16 8.58, 1.13 4.16, -0.34 0.46 M-0.32 12.58 C0.2 8.9, -0.08 5.3, 0.03 0.5" stroke="#f0883e" stroke-width="1" fill="none"></path></g><g transform="translate(388 332) rotate(0 30.689964294433594 6.25)"><text x="0" y="NaN" font-family="Virgil, Segoe UI Emoji" font-size="10px" fill="#3fb950" text-anchor="start" style="white-space: pre;" direction="ltr">18 88 27 ...</text></g><g stroke-linecap="round" transform="translate(380 349) rotate(0 130 6)"><path d="M1.53 1.34 L258.89 -0.35 L258.68 11.74 L-0.84 11.46" stroke="none" stroke-width="0" fill="#5c3a10"></path><path d="M0.05 -0.25 C55.79 -0.75, 115.54 -1, 261.07 1.32 M0.39 0.6 C66.7 -0.24, 133.82 -0.34, 259.55 0.18 M259.44 0.98 C259.11 5.02, 259.62 6.6, 260.33 12.26 M260.11 -0.59 C259.87 2.65, 260.36 5.94, 260.51 12.33 M259.76 12.35 C205.13 9.56, 151.46 10.9, 1.42 11 M260.13 11.93 C161.47 10.1, 61.94 10.15, -0.4 11.45 M-1.02 12.59 C0.1 9.34, 0.79 6.29, -0.5 0.1 M0.18 12.38 C-0.31 9.31, -0.2 6.31, 0.16 0.57" stroke="#f0883e" stroke-width="1" fill="none"></path></g><g transform="translate(388 348) rotate(0 30.689964294433594 6.25)"><text x="0" y="NaN" font-family="Virgil, Segoe UI Emoji" font-size="10px" fill="#3fb950" text-anchor="start" style="white-space: pre;" direction="ltr">18 88 27 ...</text></g><g stroke-linecap="round" transform="translate(380 365) rotate(0 130 6)"><path d="M1.92 0.44 L260.96 1.29 L259.08 13.51 L0.89 11.74" stroke="none" stroke-width="0" fill="#5c3a10"></path><path d="M-0.72 -0.53 C101.23 1.01, 202.62 0.77, 259.51 0.31 M0.46 -0.8 C88.81 -1.42, 178.01 -2.16, 259.52 -0.24 M259.43 0.34 C260.61 4.32, 260.73 8.13, 260.16 11.44 M259.76 0.19 C259.7 2.51, 259.81 6.36, 259.8 12.01 M261.41 10.81 C196.75 14.82, 131.91 12.98, 1.19 11.17 M259.85 11.65 C181.78 11.64, 102.79 11.81, 0.46 11.99 M-0.63 11.88 C-1.15 8.28, -0.55 4.43, -0.48 0.76 M0.6 12.02 C-0.12 9.14, 0.09 5.13, 0.13 -0.52" stroke="#f0883e" stroke-width="1" fill="none"></path></g><g transform="translate(388 364) rotate(0 30.689964294433594 6.25)"><text x="0" y="NaN" font-family="Virgil, Segoe UI Emoji" font-size="10px" fill="#3fb950" text-anchor="start" style="white-space: pre;" direction="ltr">18 88 27 ...</text></g><g stroke-linecap="round" transform="translate(380 381) rotate(0 130 6)"><path d="M-0.54 -0.04 L261.8 0.03 L260.68 10.79 L1.17 13.92" stroke="none" stroke-width="0" fill="#5c3a10"></path><path d="M-1.3 -0.57 C67.44 -0.45, 137.52 0.55, 258.7 -0.23 M-0.11 0.37 C97.32 -0.18, 195.74 -0.84, 259.26 0.52 M260.83 1.13 C260.42 3.09, 259.36 7.85, 260.32 11.29 M260.59 0.38 C260.13 2.06, 260.62 5.3, 260.45 12.07 M258.58 11.05 C163.06 12.89, 66.91 14.22, 0.44 10.76 M260.25 11.89 C160.41 12.96, 62.13 12.33, 0.17 11.67 M0.92 11.41 C0.09 8.12, 0.95 4.61, -0.89 0.7 M0.23 11.95 C0.42 7.37, -0.51 2.32, -0.59 -0.25" stroke="#f0883e" stroke-width="1" fill="none"></path></g><g transform="translate(388 380) rotate(0 30.689964294433594 6.25)"><text x="0" y="NaN" font-family="Virgil, Segoe UI Emoji" font-size="10px" fill="#3fb950" text-anchor="start" style="white-space: pre;" direction="ltr">18 88 27 ...</text></g><g stroke-linecap="round" transform="translate(380 397) rotate(0 130 6)"><path d="M0.95 -0.23 L260.82 -0.13 L260.51 12.33 L1.72 11.34" stroke="none" stroke-width="0" fill="#5c3a10"></path><path d="M1.39 0.68 C92.84 -0.83, 183.08 -2.75, 258.6 1.23 M-0.46 0.73 C89.23 0.67, 178.44 0.58, 259.42 0.14 M259.32 0.5 C258.83 4.38, 259.77 8.23, 260.21 12.45 M259.96 0.44 C260.27 3.68, 260.29 6.09, 259.94 11.89 M259.11 11.74 C189.42 12.98, 117.79 11.32, -1.19 10.74 M259.45 12.39 C163.74 12, 68.22 11.77, -0.15 12.77 M1.06 12.31 C-0.13 8.65, 0.95 5.73, 0.77 0.2 M-0.05 11.59 C0.35 9.27, 0.6 5.86, 0.33 -0.46" stroke="#f0883e" stroke-width="1" fill="none"></path></g><g transform="translate(388 396) rotate(0 30.689964294433594 6.25)"><text x="0" y="NaN" font-family="Virgil, Segoe UI Emoji" font-size="10px" fill="#3fb950" text-anchor="start" style="white-space: pre;" direction="ltr">18 88 27 ...</text></g><g transform="translate(366 425) rotate(0 111.34488677978516 16.25)"><text x="0" y="NaN" font-family="Virgil, Segoe UI Emoji" font-size="13px" fill="#8b949e" text-anchor="start" style="white-space: pre;" direction="ltr">All encode price_cents = 5000.</text><text x="0" y="NaN" font-family="Virgil, Segoe UI Emoji" font-size="13px" fill="#8b949e" text-anchor="start" style="white-space: pre;" direction="ltr">The bytes themselves are correct.</text></g><g stroke-opacity="0.6" fill-opacity="0.6" stroke-linecap="round" transform="translate(690 185) rotate(0 160 140)"><path d="M0.36 -0.27 L320.05 1.29 L321.73 279.63 L-1.02 278.23" stroke="none" stroke-width="0" fill="#161b22"></path><path d="M-0.5 -0.81 C104.9 -1.39, 209.41 0.05, 320.02 1.29 M320.74 0.68 C319.85 80.63, 320.68 161.81, 319.3 280.37 M321 280.1 C242.94 281.22, 167.99 281.92, -1.07 279.56 M1.32 280.17 C-0.1 200.1, 0.37 115.83, 1.06 -0.85" stroke="#f85149" stroke-width="2.5" fill="none" stroke-dasharray="8 10"></path></g><g transform="translate(706 197) rotate(0 135.32394409179688 11.25)"><text x="0" y="NaN" font-family="Virgil, Segoe UI Emoji" font-size="18px" fill="#f85149" text-anchor="start" style="white-space: pre;" direction="ltr">T2  -- Schema v2 (THE BUG)</text></g><g transform="translate(706 229) rotate(0 101.38093566894531 52.5)"><text x="0" y="NaN" font-family="Virgil, Segoe UI Emoji" font-size="14px" fill="#e6edf3" text-anchor="start" style="white-space: pre;" direction="ltr">message PaymentEvent {</text><text x="0" y="NaN" font-family="Virgil, Segoe UI Emoji" font-size="14px" fill="#e6edf3" text-anchor="start" style="white-space: pre;" direction="ltr">  string customer_id    = 1;</text><text x="0" y="NaN" font-family="Virgil, Segoe UI Emoji" font-size="14px" fill="#e6edf3" text-anchor="start" style="white-space: pre;" direction="ltr">  int64  timestamp      = 2;</text><text x="0" y="NaN" font-family="Virgil, Segoe UI Emoji" font-size="14px" fill="#e6edf3" text-anchor="start" style="white-space: pre;" direction="ltr">  // price_cents removed</text><text x="0" y="NaN" font-family="Virgil, Segoe UI Emoji" font-size="14px" fill="#e6edf3" text-anchor="start" style="white-space: pre;" direction="ltr">  string currency_code  = 3;</text><text x="0" y="NaN" font-family="Virgil, Segoe UI Emoji" font-size="14px" fill="#e6edf3" text-anchor="start" style="white-space: pre;" direction="ltr">}</text></g><g stroke-linecap="round" transform="translate(706 341) rotate(0 144 15)"><path d="M-0.94 1.45 L288.95 0.33 L287.34 30.99 L-1.01 30.48" stroke="none" stroke-width="0" fill="#4a1219"></path><path d="M-0.16 0.03 C77.09 -0.02, 154.88 0.72, 289.48 -0.82 M0.25 0.21 C85.84 0.49, 170.37 0.03, 288.63 0.61 M286.05 -1.84 C287.31 8.8, 288.81 12.42, 287.1 30.13 M287.88 -0.64 C287.33 6.07, 287.92 12.07, 287.47 29.2 M289.07 30.62 C174.33 28.57, 62.22 28.04, -0.74 29.1 M288.56 30.43 C217.44 28.34, 145.98 27.58, -0.23 29.68 M-1.77 30.23 C1.45 20.8, 1.47 6.27, -0.8 -1.74 M0.04 30.44 C-0.44 21.41, -0.61 12.48, -0.56 -0.47" stroke="#f85149" stroke-width="2" fill="none"></path></g><g transform="translate(742.0460891723633 347) rotate(0 107.95391082763672 8.75)"><text x="107.95391082763672" y="NaN" font-family="Virgil, Segoe UI Emoji" font-size="14px" fill="#ffffff" text-anchor="middle" style="white-space: pre;" direction="ltr">tag 3 = currency_code (string)</text></g><g transform="translate(706 385) rotate(0 153.56881713867188 16.25)"><text x="0" y="NaN" font-family="Virgil, Segoe UI Emoji" font-size="13px" fill="#f85149" text-anchor="start" style="white-space: pre;" direction="ltr">Reviewer missed: tag 3 used to be price_cents.</text><text x="0" y="NaN" font-family="Virgil, Segoe UI Emoji" font-size="13px" fill="#f85149" text-anchor="start" style="white-space: pre;" direction="ltr">No `reserved 3;`. No `buf breaking` gate.</text></g><g stroke-opacity="0.6" fill-opacity="0.6" stroke-linecap="round" transform="translate(1030 185) rotate(0 180 140)"><path d="M-1.02 1.56 L361.63 -0.54 L358.03 280.09 L0.84 281.47" stroke="none" stroke-width="0" fill="#161b22"></path><path d="M-0.64 0.24 C131.58 -1.13, 265.53 -0.51, 359.21 -0.39 M360.48 -0.94 C362.08 100.97, 362.53 205.04, 361.07 280.66 M360.71 279.93 C238.07 279.3, 114.65 279.23, 0.93 279.62 M-0.88 281.46 C0.35 176.34, 1 72.51, -1.27 -1.11" stroke="#f85149" stroke-width="2.5" fill="none" stroke-dasharray="8 10"></path></g><g transform="translate(1046 197) rotate(0 103.58094787597656 11.25)"><text x="0" y="NaN" font-family="Virgil, Segoe UI Emoji" font-size="18px" fill="#f85149" text-anchor="start" style="white-space: pre;" direction="ltr">T3  -- Replay corrupts</text></g><g transform="translate(1046 229) rotate(0 147.27685546875 8.125)"><text x="0" y="NaN" font-family="Virgil, Segoe UI Emoji" font-size="13px" fill="#8b949e" text-anchor="start" style="white-space: pre;" direction="ltr">Replay job reads v1 bytes through v2 schema:</text></g><g transform="translate(1046 261) rotate(0 31.07396697998047 7.5)"><text x="0" y="NaN" font-family="Virgil, Segoe UI Emoji" font-size="12px" fill="#8b949e" text-anchor="start" style="white-space: pre;" direction="ltr">wire bytes:</text></g><g transform="translate(1160 261) rotate(0 33.71197509765625 8.75)"><text x="0" y="NaN" font-family="Virgil, Segoe UI Emoji" font-size="14px" fill="#3fb950" text-anchor="start" style="white-space: pre;" direction="ltr">18 88 27</text></g><g transform="translate(1046 287) rotate(0 85.03291320800781 8.125)"><text x="0" y="NaN" font-family="Virgil, Segoe UI Emoji" font-size="13px" fill="#f85149" text-anchor="start" style="white-space: pre;" direction="ltr">v2 reads tag 3 as string:</text></g><g transform="translate(1046 309) rotate(0 97.76193237304688 8.75)"><text x="0" y="NaN" font-family="Virgil, Segoe UI Emoji" font-size="14px" fill="#f85149" text-anchor="start" style="white-space: pre;" direction="ltr">currency_code = '\x88\x27'</text></g><g transform="translate(1046 331) rotate(0 119.63388061523438 7.5)"><text x="0" y="NaN" font-family="Virgil, Segoe UI Emoji" font-size="12px" fill="#8b949e" text-anchor="start" style="white-space: pre;" direction="ltr">(2 garbled bytes interpreted as UTF-8)</text></g><g stroke-linecap="round" transform="translate(1046 363) rotate(0 164 45)"><path d="M0.27 -0.66 L327.07 -0.23 L327.63 91.78 L1.56 89.66" stroke="none" stroke-width="0" fill="#4a1219"></path><path d="M-1.02 -0.13 C89.47 -0.83, 177.9 -1.51, 327.6 -0.15 M0.65 0.57 C97.75 0.86, 196.49 1.16, 327.98 0.24 M326.18 0.2 C327 25.56, 326.39 49.07, 329.5 88.16 M327.01 0.71 C328.94 18.47, 328.5 36.21, 328.39 89.85 M328.68 89.24 C205.66 88.49, 82.33 90.62, -0.2 90.53 M327.68 89.8 C241.27 88.6, 154.25 88.79, 0.45 89.57 M0.99 88.62 C-0.42 53.35, 0.45 21.05, -1.7 -0.3 M0.49 89.85 C0.66 54.74, -0.1 18.96, -0.28 -0.35" stroke="#f85149" stroke-width="2" fill="none"></path></g><g transform="translate(1123.3890914916992 371) rotate(0 86.61090850830078 8.75)"><text x="86.61090850830078" y="NaN" font-family="Virgil, Segoe UI Emoji" font-size="14px" fill="#ffffff" text-anchor="middle" style="white-space: pre;" direction="ltr">Downstream OrderService</text></g><g transform="translate(1060 395) rotate(0 90.01841735839844 8.125)"><text x="0" y="NaN" font-family="Virgil, Segoe UI Emoji" font-size="13px" fill="#ffffff" text-anchor="start" style="white-space: pre;" direction="ltr">lookup_currency('\x88\x27')</text></g><g transform="translate(1060 415) rotate(0 99.462890625 8.125)"><text x="0" y="NaN" font-family="Virgil, Segoe UI Emoji" font-size="13px" fill="#ffffff" text-anchor="start" style="white-space: pre;" direction="ltr">  -&gt; defaults to ISK (Iceland)</text></g><g transform="translate(1060 435) rotate(0 128.38790893554688 8.125)"><text x="0" y="NaN" font-family="Virgil, Segoe UI Emoji" font-size="13px" fill="#ffffff" text-anchor="start" style="white-space: pre;" direction="ltr">  -&gt; charges 50 ISK ($0.35) NOT $50</text></g><g transform="translate(10 495) rotate(0 267.1738586425781 11.25)"><text x="0" y="NaN" font-family="Virgil, Segoe UI Emoji" font-size="18px" fill="#e6edf3" text-anchor="start" style="white-space: pre;" direction="ltr">The SAME 3 bytes (18 88 27) interpreted by two schemas:</text></g><g stroke-linecap="round" transform="translate(10 531) rotate(0 120 35)"><path d="M-0.36 -0.58 L239.99 -1.49 L241.67 70.42 L-1.24 68.75" stroke="none" stroke-width="0" fill="#3a5d1d"></path><path d="M0.8 0.01 C75.3 0.87, 154.61 1.54, 239.24 1.57 M0.77 -0.67 C75.32 -0.33, 149.39 -0.29, 239.76 0.39 M240.35 -1.72 C241.77 19.03, 242.01 41.34, 240.75 71.37 M239.83 0.09 C240.13 22.8, 240.46 42.87, 240.31 70.85 M238.45 68.65 C179.58 69.92, 120.61 67.71, 1.48 69.23 M240.57 70.3 C184.41 69.84, 129.19 70.44, -0.4 69.22 M-0.25 70.51 C1.51 52.78, 0.23 39.56, 1.31 0.96 M-0.59 70.26 C-0.77 55.97, 0.13 41.55, -0.79 0.96" stroke="#6dbf3a" stroke-width="3" fill="none"></path></g><g transform="translate(97.90953826904297 545) rotate(0 32.09046173095703 8.125)"><text x="32.09046173095703" y="NaN" font-family="Virgil, Segoe UI Emoji" font-size="13px" fill="#ffffff" text-anchor="middle" style="white-space: pre;" direction="ltr">wire bytes</text></g><g transform="translate(77.02403259277344 567) rotate(0 52.97596740722656 13.75)"><text x="52.97596740722656" y="NaN" font-family="Virgil, Segoe UI Emoji" font-size="22px" fill="#ffffff" text-anchor="middle" style="white-space: pre;" direction="ltr">18 88 27</text></g><g stroke-linecap="round" transform="translate(390 517) rotate(0 130 25)"><path d="M-0.69 1.12 L261.95 0.08 L261.09 49.83 L-0.23 50.08" stroke="none" stroke-width="0" fill="#3a1d6e"></path><path d="M-0.08 0.98 C97.49 -0.5, 195.52 0.35, 258.51 -1.24 M0.66 0.61 C52.57 -1.41, 104.98 -0.3, 259.97 -0.77 M260.35 0.94 C261.14 15.65, 260.34 32.42, 261.66 49.93 M260.77 0.37 C259.25 10.59, 259.21 20.31, 259.67 49.54 M258.7 50.38 C162.96 49.17, 65.24 48.43, -0.81 49 M260.65 49.79 C195.02 51.19, 130.51 51.48, 0.77 49.54 M0.83 50.73 C1.76 38.88, 0.75 28.61, -1.51 -1.7 M0.14 49.82 C0.22 30.23, -0.57 11.14, 0.31 0.38" stroke="#a371f7" stroke-width="2" fill="none"></path></g><g transform="translate(429.49708557128906 529) rotate(0 90.50291442871094 8.75)"><text x="90.50291442871094" y="NaN" font-family="Virgil, Segoe UI Emoji" font-size="14px" fill="#ffffff" text-anchor="middle" style="white-space: pre;" direction="ltr">v1 decoder: tag 3 = int32</text></g><g stroke-linecap="round" transform="translate(690 517) rotate(0 140 25)"><path d="M-1.17 -0.07 L281.63 0.71 L281.96 49.63 L1.42 51.48" stroke="none" stroke-width="0" fill="#3a5d1d"></path><path d="M-0.28 -0.12 C73.53 -0.83, 145.43 1.04, 279.66 0.28 M-0.56 -0.75 C95.63 -0.31, 192.49 -1.32, 280.11 -0.09 M279.64 1.31 C278.28 11.1, 279.39 20.87, 279.54 51.55 M280.25 -0.52 C278.9 14.99, 279.74 29.62, 280.29 50.62 M278.74 50.19 C210.8 53.3, 141.38 50.9, -0.63 50.07 M280.12 50.51 C221.21 47.86, 162.52 47.28, 0.55 49.28 M0.29 51.93 C-1.92 35.86, -0.08 18.54, -1.46 -0.22 M-0.37 49.03 C-0.3 32.01, 0.29 12.1, 0.97 0.68" stroke="#3fb950" stroke-width="3" fill="none"></path></g><g transform="translate(760.4200668334961 523) rotate(0 69.5799331665039 8.75)"><text x="69.5799331665039" y="NaN" font-family="Virgil, Segoe UI Emoji" font-size="14px" fill="#ffffff" text-anchor="middle" style="white-space: pre;" direction="ltr">price_cents = 5000</text></g><g transform="translate(721.1150970458984 545) rotate(0 108.88490295410156 8.75)"><text x="108.88490295410156" y="NaN" font-family="Virgil, Segoe UI Emoji" font-size="14px" fill="#3fb950" text-anchor="middle" style="white-space: pre;" direction="ltr">Customer charged $50.00 USD</text></g><g stroke-linecap="round" transform="translate(1010 517) rotate(0 190 25)"><path d="M-0.66 -1.6 L378.57 -0.95 L380.03 50.2 L1.48 50.83" stroke="none" stroke-width="0" fill="#3a5d1d"></path><path d="M-0.22 -1.09 C109.88 -1.54, 218.94 -2.31, 379.15 1.05 M0.23 -0.03 C111.38 -1.57, 222.13 -1.88, 379.41 -0.18 M381.15 0.82 C380.01 19.11, 381.31 35.16, 378.64 50.88 M379.36 0.11 C379.34 17.25, 380.71 35.5, 380.37 50.78 M379.76 51.06 C259.11 47.4, 136.11 48.32, 0.97 48.95 M379.76 49.79 C281.34 49.09, 183.03 49.29, -0.46 49.4 M-1.11 48.38 C-0.34 28.98, 1.85 12.86, -1.99 0.29 M-0.67 50.55 C0.59 32.41, -0.14 12.72, 0.25 0.57" stroke="#3fb950" stroke-width="3" fill="none"></path></g><g transform="translate(1035.192138671875 531) rotate(0 164.807861328125 8.75)"><text x="164.807861328125" y="NaN" font-family="Virgil, Segoe UI Emoji" font-size="14px" fill="#3fb950" text-anchor="middle" style="white-space: pre;" direction="ltr">CORRECT  --  customer sees $50 USD charge</text></g><g stroke-linecap="round"><g transform="translate(250 551) rotate(0 70 -4.5)"><path d="M0.72 -0.66 C24.33 -2.05, 117.69 -7.25, 140.72 -8.57 M-0.37 1.61 C23.24 -0.13, 116.56 -8.42, 140.15 -10.47" stroke="#3fb950" stroke-width="2" fill="none"></path></g><g transform="translate(250 551) rotate(0 70 -4.5)"><path d="M111.86 3.42 C119.68 -2.62, 125.65 -3.21, 139.93 -10.96 M112.31 2.15 C121.24 -2.88, 130.72 -6.17, 139.21 -9.76" stroke="#3fb950" stroke-width="2" fill="none"></path></g><g transform="translate(250 551) rotate(0 70 -4.5)"><path d="M110.07 -17.03 C118.24 -18.58, 124.6 -14.67, 139.93 -10.96 M110.51 -18.3 C119.97 -16.78, 130.03 -13.52, 139.21 -9.76" stroke="#3fb950" stroke-width="2" fill="none"></path></g></g><g stroke-linecap="round"><g transform="translate(650 542) rotate(0 20 0)"><path d="M-0.72 0.08 C5.98 0, 32.42 -0.61, 39.35 -0.68 M1.1 -0.93 C8.28 -0.84, 35.14 0.22, 41.72 0.5" stroke="#3fb950" stroke-width="2" fill="none"></path></g><g transform="translate(650 542) rotate(0 20 0)"><path d="M22.79 5.49 C25.85 6.77, 30.71 2.08, 41.6 1.94 M22.36 7.52 C27.4 5.56, 32.78 3.5, 41.79 -0.27" stroke="#3fb950" stroke-width="2" fill="none"></path></g><g transform="translate(650 542) rotate(0 20 0)"><path d="M23.34 -8.18 C26.26 -3.81, 30.99 -5.41, 41.6 1.94 M22.91 -6.15 C27.83 -4.5, 33.06 -2.95, 41.79 -0.27" stroke="#3fb950" stroke-width="2" fill="none"></path></g></g><g stroke-linecap="round"><g transform="translate(970 542) rotate(0 20 0)"><path d="M-0.68 1.14 C6.3 1.11, 34.17 0.47, 41.11 0.32 M1.16 0.69 C8.16 0.24, 34.15 -1.81, 40.75 -1.64" stroke="#3fb950" stroke-width="2" fill="none"></path></g><g transform="translate(970 542) rotate(0 20 0)"><path d="M24.09 7.69 C27 5.85, 31.2 1.74, 40.68 -3.25 M21.58 6.63 C26.86 4.12, 29.71 2.81, 39.93 -1.66" stroke="#3fb950" stroke-width="2" fill="none"></path></g><g transform="translate(970 542) rotate(0 20 0)"><path d="M23.63 -5.98 C26.7 -4.65, 31.01 -5.59, 40.68 -3.25 M21.12 -7.04 C26.57 -6.51, 29.52 -4.79, 39.93 -1.66" stroke="#3fb950" stroke-width="2" fill="none"></path></g></g><g stroke-linecap="round" transform="translate(390 585) rotate(0 130 25)"><path d="M-0.45 -0.03 L260.96 -0.59 L258.61 49.38 L0.33 49.6" stroke="none" stroke-width="0" fill="#4a1219"></path><path d="M1.34 -0.31 C90.34 0.37, 179.31 -0.96, 261.1 0.84 M0.56 0.74 C93.43 2.5, 187.78 1.34, 260.5 0.47 M260.58 1.99 C258.22 19.26, 257.8 37.21, 260.44 49.2 M259.77 -0.46 C259.16 20.49, 259.1 38.94, 260.67 50.68 M258.73 50.41 C175.13 48.59, 91.24 48.75, 0.22 49.45 M259.76 49.49 C165.87 51.3, 71.53 52.26, 0.42 49.79 M-0.56 50.75 C-0.66 41.4, 1.28 29.59, -0.83 -0.74 M-0.45 49.06 C0.43 35.64, 0.76 21, -0.52 0.55" stroke="#f85149" stroke-width="2" fill="none"></path></g><g transform="translate(425.8430938720703 597) rotate(0 94.15690612792969 8.75)"><text x="94.15690612792969" y="NaN" font-family="Virgil, Segoe UI Emoji" font-size="14px" fill="#ffffff" text-anchor="middle" style="white-space: pre;" direction="ltr">v2 decoder: tag 3 = string</text></g><g stroke-linecap="round" transform="translate(690 585) rotate(0 140 25)"><path d="M0.19 1.77 L279.68 -1.86 L280.75 49.45 L1.5 49.03" stroke="none" stroke-width="0" fill="#4a1219"></path><path d="M0.74 -1.14 C59.69 1.69, 118.51 0.42, 280.96 0.85 M0.68 -0.04 C108.41 -0.69, 217.84 -0.11, 279.9 -0.18 M279.72 -1.19 C279.67 15.7, 281.42 25.66, 280.94 49.75 M280.2 -0.15 C279.63 17.31, 279.3 35.19, 279.12 50.92 M280.36 50.39 C182.02 48.29, 84.84 47.04, -1.18 49.46 M279.64 49.77 C187.97 49.74, 95.48 49.91, -0.7 49.32 M1.13 48.85 C0.12 36.29, -1.4 24.57, -0.27 0.68 M-0.78 49.9 C1.18 38.14, 0.4 28.2, 0.88 -0.38" stroke="#f85149" stroke-width="3" fill="none"></path></g><g transform="translate(732.2380676269531 591) rotate(0 97.76193237304688 8.75)"><text x="97.76193237304688" y="NaN" font-family="Virgil, Segoe UI Emoji" font-size="14px" fill="#ffffff" text-anchor="middle" style="white-space: pre;" direction="ltr">currency_code = '\x88\x27'</text></g><g transform="translate(727.3031158447266 613) rotate(0 102.69688415527344 8.75)"><text x="102.69688415527344" y="NaN" font-family="Virgil, Segoe UI Emoji" font-size="14px" fill="#f85149" text-anchor="middle" style="white-space: pre;" direction="ltr">OrderService defaults to ISK</text></g><g stroke-linecap="round" transform="translate(1010 585) rotate(0 190 25)"><path d="M1.17 -0.04 L381.91 0.62 L380.8 48.42 L-0.36 49.08" stroke="none" stroke-width="0" fill="#4a1219"></path><path d="M0.65 -0.56 C77.22 0.96, 151.7 2.49, 378.99 1.02 M-0.09 -0.43 C140.18 -1.58, 280.72 -1.23, 379.62 0.19 M378.67 1.25 C379.2 15.38, 381.52 25.72, 379.6 48.42 M379.04 -0.45 C380.53 19.27, 380.19 37.12, 379.59 49.57 M379.55 49.43 C274.18 50.33, 168.86 49.86, -0.48 50.2 M379.8 49.78 C290.08 48, 201.28 48.4, 0.34 50.41 M-0.91 50.6 C0.74 31.7, -1.41 11.72, 1.72 -0.87 M0.26 49.36 C0.17 37.81, 0.44 26.09, 0.95 0.36" stroke="#f85149" stroke-width="3" fill="none"></path></g><g transform="translate(1051.2221069335938 591) rotate(0 148.77789306640625 8.75)"><text x="148.77789306640625" y="NaN" font-family="Virgil, Segoe UI Emoji" font-size="14px" fill="#f85149" text-anchor="middle" style="white-space: pre;" direction="ltr">CORRUPTED  --  charges 50 ISK ($0.35)</text></g><g transform="translate(1072.2036209106445 613) rotate(0 127.79637908935547 8.125)"><text x="127.79637908935547" y="NaN" font-family="Virgil, Segoe UI Emoji" font-size="13px" fill="#f85149" text-anchor="middle" style="white-space: pre;" direction="ltr">1M events x 6 months of finance impact</text></g><g stroke-linecap="round"><g transform="translate(250 570) rotate(0 70 20)"><path d="M0.24 0.77 C23.49 7.42, 116.52 32.64, 139.93 39.3 M-1.1 0.13 C21.95 6.98, 115.39 34.03, 138.95 40.47" stroke="#f85149" stroke-width="2" fill="none"></path></g><g transform="translate(250 570) rotate(0 70 20)"><path d="M110.32 42.56 C117.91 43.01, 130.35 40.66, 138.56 42.37 M108.58 42.44 C118.42 41.09, 129.11 40.4, 139.53 39.65" stroke="#f85149" stroke-width="2" fill="none"></path></g><g transform="translate(250 570) rotate(0 70 20)"><path d="M115.9 22.81 C121.53 29.9, 132.09 34.18, 138.56 42.37 M114.16 22.7 C122.19 27.97, 131.01 33.9, 139.53 39.65" stroke="#f85149" stroke-width="2" fill="none"></path></g></g><g stroke-linecap="round"><g transform="translate(650 610) rotate(0 20 0)"><path d="M-0.31 1.15 C6.49 1.45, 34.13 1.41, 40.8 1.17 M1.73 0.71 C8.44 0.76, 34.1 -0.37, 40.28 -0.34" stroke="#f85149" stroke-width="2" fill="none"></path></g><g transform="translate(650 610) rotate(0 20 0)"><path d="M23.57 8.27 C29.23 4.3, 32.39 0.83, 40.33 -1.93 M21.88 7.82 C29.3 4.32, 36.41 0.92, 40.2 0.62" stroke="#f85149" stroke-width="2" fill="none"></path></g><g transform="translate(650 610) rotate(0 20 0)"><path d="M23.25 -5.41 C28.94 -5.27, 32.19 -4.62, 40.33 -1.93 M21.57 -5.85 C29.11 -4.07, 36.34 -2.18, 40.2 0.62" stroke="#f85149" stroke-width="2" fill="none"></path></g></g><g stroke-linecap="round"><g transform="translate(970 610) rotate(0 20 0)"><path d="M0.35 -0.87 C7.01 -1.06, 32.51 -1.09, 39.29 -0.85 M-0.93 1.29 C6.18 1.2, 34.68 0.71, 41.62 0.24" stroke="#f85149" stroke-width="2" fill="none"></path></g><g transform="translate(970 610) rotate(0 20 0)"><path d="M21.66 6.6 C26.22 7.54, 33.1 2.38, 41.82 1.86 M23.15 8.56 C28.4 5.55, 33.96 3.79, 42.35 0.63" stroke="#f85149" stroke-width="2" fill="none"></path></g><g transform="translate(970 610) rotate(0 20 0)"><path d="M21.14 -7.07 C25.87 -2.77, 32.87 -4.57, 41.82 1.86 M22.63 -5.11 C28.04 -3.83, 33.76 -1.31, 42.35 0.63" stroke="#f85149" stroke-width="2" fill="none"></path></g></g><g transform="translate(10 665) rotate(0 597.575439453125 8.75)"><text x="0" y="NaN" font-family="Virgil, Segoe UI Emoji" font-size="14px" fill="#c9d1d9" text-anchor="start" style="white-space: pre;" direction="ltr">The wire format has no way to know which schema produced the bytes. Tag numbers are the only contract -- reuse one and old messages decode as the new type, silently.</text></g></svg>