<svg version="1.1" xmlns="http://www.w3.org/2000/svg" viewBox="0 0 1395 753" width="1395" height="753">
  <!-- svg-source:excalidraw -->
  
  <defs>
    <style>
      @font-face {
        font-family: "Virgil";
        src: url("https://excalidraw.com/Virgil.woff2");
      }
      @font-face {
        font-family: "Cascadia";
        src: url("https://excalidraw.com/Cascadia.woff2");
      }
    </style>
  </defs>
  <rect x="0" y="0" width="1395" height="753" fill="#0d1117"></rect><g transform="translate(10 10) rotate(0 538.8297729492188 18.75)"><text x="0" y="NaN" font-family="Virgil, Segoe UI Emoji" font-size="30px" fill="#ff8c42" text-anchor="start" style="white-space: pre;" direction="ltr">Why Protobuf Decode is Fast -- the pipeline shrinks from 5 stages to 2</text></g><g transform="translate(10 53) rotate(0 507.6086730957031 11.25)"><text x="0" y="NaN" font-family="Virgil, Segoe UI Emoji" font-size="18px" fill="#c9d1d9" text-anchor="start" style="white-space: pre;" direction="ltr">JSON's decoder has work at every stage. Protobuf's decoder skips most of it because the schema is compiled in.</text></g><g transform="translate(10 95) rotate(0 85.80741119384766 9.375)"><text x="0" y="NaN" font-family="Virgil, Segoe UI Emoji" font-size="15px" fill="#8b949e" text-anchor="start" style="white-space: pre;" direction="ltr">Same input on the wire:</text></g><g transform="translate(230 95) rotate(0 124.557861328125 8.75)"><text x="0" y="NaN" font-family="Virgil, Segoe UI Emoji" font-size="14px" fill="#f85149" text-anchor="start" style="white-space: pre;" direction="ltr">{"id":42,"name":"Ada","email":"ada@..."}</text></g><g transform="translate(720 95) rotate(0 7.4619903564453125 8.75)"><text x="0" y="NaN" font-family="Virgil, Segoe UI Emoji" font-size="14px" fill="#8b949e" text-anchor="start" style="white-space: pre;" direction="ltr">vs</text></g><g transform="translate(770 95) rotate(0 110.50191497802734 8.75)"><text x="0" y="NaN" font-family="Virgil, Segoe UI Emoji" font-size="14px" fill="#3fb950" text-anchor="start" style="white-space: pre;" direction="ltr">08 2A 12 03 41 64 61 1A 0F ...</text></g><g transform="translate(10 160) rotate(0 116.35794067382812 13.75)"><text x="0" y="NaN" font-family="Virgil, Segoe UI Emoji" font-size="22px" fill="#f85149" text-anchor="start" style="white-space: pre;" direction="ltr">JSON decoder pipeline</text></g><g stroke-linecap="round" transform="translate(87 211) rotate(0 30 49.5)"><path d="M-1.36 -1.41 L60.38 -0.38 L61.98 100.22 L-1.13 98.98" stroke="none" stroke-width="0" fill="#4a1219"></path><path d="M-1.45 -0.29 C20.99 1.54, 42.7 -1.29, 61.27 1.98 M0.5 -0.43 C18.1 1.23, 35.4 0.59, 60.99 -0.3 M58.98 1.66 C62.55 21.88, 60.44 39.02, 58.54 100.97 M60.54 0.31 C61.29 23.26, 60.41 46.2, 60.85 99.81 M58.86 98.62 C48.23 100.7, 33.92 98.29, -1.57 98.87 M59.47 99.04 C45.23 98.81, 30.42 98.06, 0.3 98.14 M0.52 98 C-1.68 66.01, -0.19 33.3, 1.85 -1.62 M0.37 99.2 C-0.61 71.4, 0.84 45.06, -0.98 -0.13" stroke="#f85149" stroke-width="2" fill="none"></path></g><g transform="translate(88.64703369140625 189) rotate(0 28.35296630859375 8.125)"><text x="28.35296630859375" y="NaN" font-family="Virgil, Segoe UI Emoji" font-size="13px" fill="#f85149" text-anchor="middle" style="white-space: pre;" direction="ltr">18 cycles</text></g><g stroke-linecap="round" transform="translate(10 330) rotate(0 107.5 25)"><path d="M-1.04 1.05 L213.99 0.5 L214.56 49.37 L1.08 48.98" stroke="none" stroke-width="0" fill="#4a1219"></path><path d="M1.27 -1.55 C62.73 1.94, 128.93 -0.38, 216 1.45 M-0.1 -0.05 C48.24 -2.19, 97.6 -1.55, 214.29 -0.5 M214.11 1.83 C214.56 12.57, 215.24 22.95, 213.59 48.25 M215.22 -0.66 C213.66 16.69, 214.83 31.89, 214.96 50.56 M213.42 50.99 C150.36 50.34, 85.01 51.14, 0.27 51.72 M214.5 49.59 C139.75 48.47, 64.91 47.89, 0.48 49.58 M1.79 51.33 C-0.36 38.33, -0.66 26.93, 1.5 -1.15 M-0.47 49.82 C0.22 32.79, -0.29 14.36, -0.41 -0.93" stroke="#f85149" stroke-width="2" fill="none"></path></g><g transform="translate(81.82551574707031 344.375) rotate(0 35.67448425292969 10.625)"><text x="35.67448425292969" y="NaN" font-family="Virgil, Segoe UI Emoji" font-size="17px" fill="#ffffff" text-anchor="middle" style="white-space: pre;" direction="ltr">Tokenize</text></g><g transform="translate(80.67803955078125 388) rotate(0 36.82196044921875 7.5)"><text x="36.82196044921875" y="NaN" font-family="Virgil, Segoe UI Emoji" font-size="12px" fill="#8b949e" text-anchor="middle" style="white-space: pre;" direction="ltr">find { } : , "</text></g><g stroke-linecap="round" transform="translate(324 255) rotate(0 30 27.5)"><path d="M-0.63 -1.96 L61.15 1.51 L61 54.22 L-0.34 55.31" stroke="none" stroke-width="0" fill="#4a1219"></path><path d="M0.54 -0.99 C13.79 -2.02, 23.98 0.18, 59.16 -0.11 M-0.79 -0.34 C12.27 0.3, 26.56 0.18, 60.1 0.13 M61.39 -1.12 C58.46 11.37, 61.95 26.73, 60.87 56.31 M59.31 0.47 C59.78 20.51, 60.25 40.91, 59.32 54.79 M58.61 53.43 C38.37 53.83, 19.47 56.92, 1.41 54.77 M60.12 54.34 C37.13 55.61, 13.81 55.33, 0.32 55.37 M-0.41 54.05 C0.55 41.53, 1.35 27.27, -0.66 0.6 M-0.48 54.43 C0.83 42.07, 0.08 29.24, 0.76 -0.76" stroke="#f85149" stroke-width="2" fill="none"></path></g><g transform="translate(326.1475296020508 233) rotate(0 27.85247039794922 8.125)"><text x="27.85247039794922" y="NaN" font-family="Virgil, Segoe UI Emoji" font-size="13px" fill="#f85149" text-anchor="middle" style="white-space: pre;" direction="ltr">10 cycles</text></g><g stroke-linecap="round" transform="translate(247 330) rotate(0 107.5 25)"><path d="M0.53 0.07 L216.47 -1.75 L215.83 48.68 L0.2 48.57" stroke="none" stroke-width="0" fill="#4a1219"></path><path d="M1.51 1.09 C73.97 0.26, 149.01 -0.01, 213.82 1.26 M0.02 -0.21 C54.07 1.93, 106.79 1.43, 215.19 -0.09 M216.04 -1.91 C214.45 13.82, 215.97 29.85, 215.28 48.99 M215.76 -0.75 C213.9 13.06, 214.06 25.84, 215.19 50.75 M215.88 50.79 C147.15 51.92, 79.35 50.74, -0.01 48.7 M214.79 49.22 C171.58 51.96, 126.7 50.41, -0.69 50.11 M0.97 49.96 C0.14 30.66, 0.33 9.07, -1.79 0.46 M-0.61 50.31 C0.09 40.04, 0.22 29.01, 0.98 0.08" stroke="#f85149" stroke-width="2" fill="none"></path></g><g transform="translate(288.3530502319336 344.375) rotate(0 66.1469497680664 10.625)"><text x="66.1469497680664" y="NaN" font-family="Virgil, Segoe UI Emoji" font-size="17px" fill="#ffffff" text-anchor="middle" style="white-space: pre;" direction="ltr">Validate UTF-8</text></g><g transform="translate(305.6780548095703 388) rotate(0 48.82194519042969 7.5)"><text x="48.82194519042969" y="NaN" font-family="Virgil, Segoe UI Emoji" font-size="12px" fill="#8b949e" text-anchor="middle" style="white-space: pre;" direction="ltr">check every byte</text></g><g stroke-linecap="round"><g transform="translate(230 355) rotate(0 6 0)"><path d="M0.35 -1.09 C2.34 -1.26, 9.84 -0.22, 11.59 -0.11 M-0.93 0.95 C0.9 0.89, 8.08 1.42, 10.42 1.37" stroke="#f85149" stroke-width="2" fill="none"></path></g><g transform="translate(230 355) rotate(0 6 0)"><path d="M4.19 3.07 C6.19 2.16, 7.56 2.53, 10.72 1.22 M5 3.47 C6.53 2.48, 7.95 2.29, 10.62 1.64" stroke="#f85149" stroke-width="2" fill="none"></path></g><g transform="translate(230 355) rotate(0 6 0)"><path d="M4.29 -1.03 C6.3 -0.84, 7.64 0.63, 10.72 1.22 M5.11 -0.63 C6.65 -0.51, 8.03 0.4, 10.62 1.64" stroke="#f85149" stroke-width="2" fill="none"></path></g></g><g stroke-linecap="round" transform="translate(561 233) rotate(0 30 38.5)"><path d="M0.38 -0.71 L59.31 -1.67 L59.17 77.13 L1.51 75.06" stroke="none" stroke-width="0" fill="#4a1219"></path><path d="M-1.3 1.61 C17.5 -0.64, 32.48 -1.63, 61.33 1.13 M-0.95 0.4 C14.08 0.54, 26.14 -0.36, 59.98 0.07 M60.65 0.39 C60.36 22.71, 59.12 45.02, 59.36 78.57 M59.94 0.06 C59.77 16.63, 59.42 34.24, 60.63 76.4 M60.24 75.71 C44.77 78.04, 27.43 78.43, -0.22 78.16 M59.37 77.32 C36.46 77.03, 13.04 78.05, -0.7 76.88 M-1.31 76.33 C2.17 62.07, -0.25 43.61, -1.03 1.51 M-0.38 76.3 C-0.5 56.63, 0 36.64, -0.73 0.86" stroke="#f85149" stroke-width="2" fill="none"></path></g><g transform="translate(563.4595336914062 211) rotate(0 27.54046630859375 8.125)"><text x="27.54046630859375" y="NaN" font-family="Virgil, Segoe UI Emoji" font-size="13px" fill="#f85149" text-anchor="middle" style="white-space: pre;" direction="ltr">14 cycles</text></g><g stroke-linecap="round" transform="translate(484 330) rotate(0 107.5 25)"><path d="M-1.38 0.7 L215.79 -0.55 L215.08 48.38 L-0.14 51.62" stroke="none" stroke-width="0" fill="#4a1219"></path><path d="M-0.81 -1 C54.45 0.04, 107.15 -1.69, 213.95 -1.11 M-0.72 -0.76 C60.63 0.55, 119.58 0.63, 214.82 -0.3 M215.44 0.23 C214.78 14.41, 214.96 28.27, 213.84 49.13 M214.6 -0.72 C214.37 18.72, 214.26 35.26, 214.63 49.67 M215.51 50.21 C145.9 50.95, 78.19 48.19, 0.5 49.59 M215.41 50.02 C161.64 51.21, 109.22 50.99, -0.79 50.82 M-1.79 48.7 C-1.11 36.37, 1.24 21.51, -1.54 1.1 M-0.96 50.08 C0.63 33.77, -0.75 19.38, 0.75 -0.71" stroke="#f85149" stroke-width="2" fill="none"></path></g><g transform="translate(525.3275451660156 344.375) rotate(0 66.17245483398438 10.625)"><text x="66.17245483398438" y="NaN" font-family="Virgil, Segoe UI Emoji" font-size="17px" fill="#ffffff" text-anchor="middle" style="white-space: pre;" direction="ltr">Allocate strings</text></g><g transform="translate(496.7660903930664 388) rotate(0 94.7339096069336 7.5)"><text x="94.7339096069336" y="NaN" font-family="Virgil, Segoe UI Emoji" font-size="12px" fill="#8b949e" text-anchor="middle" style="white-space: pre;" direction="ltr">new String for each key + value</text></g><g stroke-linecap="round"><g transform="translate(467 355) rotate(0 6 0)"><path d="M0.41 -0.97 C2.63 -1.07, 10.41 -0.9, 12.45 -0.89 M-0.83 1.13 C1.34 1.18, 9.56 0.38, 11.74 0.19" stroke="#f85149" stroke-width="2" fill="none"></path></g><g transform="translate(467 355) rotate(0 6 0)"><path d="M5.83 2.97 C7.13 2.47, 8.38 1.14, 11.25 0.14 M6.04 2.46 C7.6 2.42, 8.66 1.44, 11.98 -0.06" stroke="#f85149" stroke-width="2" fill="none"></path></g><g transform="translate(467 355) rotate(0 6 0)"><path d="M5.45 -1.12 C6.83 -0.67, 8.17 -1.06, 11.25 0.14 M5.67 -1.62 C7.31 -0.79, 8.44 -0.89, 11.98 -0.06" stroke="#f85149" stroke-width="2" fill="none"></path></g></g><g stroke-linecap="round" transform="translate(798 244) rotate(0 30 33)"><path d="M1.71 1.37 L61.05 1.89 L61.01 64.18 L0.58 64.96" stroke="none" stroke-width="0" fill="#4a1219"></path><path d="M0.69 -1.36 C21.32 -2.05, 40.57 0.34, 58.55 -0.52 M-0.75 -0.96 C23.25 -0.17, 47.4 0.04, 60.5 0.82 M60.01 1.16 C58.38 20.48, 60.69 46.28, 59.09 65.38 M59.49 -0.14 C58.37 24.66, 59.49 46.66, 60.29 65.44 M60.77 67.44 C46.08 64.75, 35.52 64.75, -1.57 64.88 M60.26 65.78 C46.62 64.59, 32.62 64.86, 0.49 66.54 M0.47 66.09 C0.56 45.82, -0.02 28.75, -1.35 1.81 M0.91 66.54 C0.3 45.77, 0.29 26.49, -0.79 -0.02" stroke="#f85149" stroke-width="2" fill="none"></path></g><g transform="translate(799.9915313720703 222) rotate(0 28.008468627929688 8.125)"><text x="28.008468627929688" y="NaN" font-family="Virgil, Segoe UI Emoji" font-size="13px" fill="#f85149" text-anchor="middle" style="white-space: pre;" direction="ltr">12 cycles</text></g><g stroke-linecap="round" transform="translate(721 330) rotate(0 107.5 25)"><path d="M-1.85 1.7 L213.2 -1.7 L213.99 48.19 L-0.7 48.66" stroke="none" stroke-width="0" fill="#4a1219"></path><path d="M-0.97 -0.87 C77.55 0.44, 157.66 -0.26, 213.31 0.36 M-0.46 0.25 C71.93 -1.55, 142.48 -1.47, 214.52 0.47 M216.29 -0.54 C215.76 15.86, 214.94 29.56, 214.26 49.25 M214.61 -0.77 C215.38 9.76, 215 20.5, 214.66 50.11 M214.7 48.9 C133.88 52.25, 53.24 50.49, -0.88 49.36 M215.63 49.91 C150.23 49.39, 83.03 49.01, -0.37 50.64 M-1.74 51.9 C-1.42 37.49, 0.75 23.41, 1.3 1.19 M-0.04 50.37 C-0.25 34.18, 0.54 19.14, 0.9 0.73" stroke="#f85149" stroke-width="2" fill="none"></path></g><g transform="translate(766.5265502929688 344.375) rotate(0 61.97344970703125 10.625)"><text x="61.97344970703125" y="NaN" font-family="Virgil, Segoe UI Emoji" font-size="17px" fill="#ffffff" text-anchor="middle" style="white-space: pre;" direction="ltr">Parse decimals</text></g><g transform="translate(786.4580459594727 388) rotate(0 42.041954040527344 7.5)"><text x="42.041954040527344" y="NaN" font-family="Virgil, Segoe UI Emoji" font-size="12px" fill="#8b949e" text-anchor="middle" style="white-space: pre;" direction="ltr">"42" -&gt; int 42</text></g><g stroke-linecap="round"><g transform="translate(704 355) rotate(0 6 0)"><path d="M-0.07 1.14 C1.84 1.38, 9.16 0.42, 11.14 0.41 M-1.57 0.69 C0.75 0.65, 11.31 -1.27, 13.39 -1.49" stroke="#f85149" stroke-width="2" fill="none"></path></g><g transform="translate(704 355) rotate(0 6 0)"><path d="M8.69 0.95 C9.79 0.5, 11.58 -0.03, 13.52 -1.45 M8.02 1.12 C10.14 0.23, 12.35 -0.57, 13.45 -1.46" stroke="#f85149" stroke-width="2" fill="none"></path></g><g transform="translate(704 355) rotate(0 6 0)"><path d="M8.08 -3.11 C9.31 -2.45, 11.26 -1.87, 13.52 -1.45 M7.4 -2.94 C9.72 -2.31, 12.16 -1.59, 13.45 -1.46" stroke="#f85149" stroke-width="2" fill="none"></path></g></g><g stroke-linecap="round" transform="translate(1035 250) rotate(0 30 30)"><path d="M-0.33 -1.62 L59.31 -0.21 L61.96 61.54 L-1.57 61.23" stroke="none" stroke-width="0" fill="#4a1219"></path><path d="M1.44 -1.78 C17.51 2.04, 36.72 1.52, 59.55 0.3 M-0.44 0.59 C21.84 0.5, 45.99 -0.35, 60.21 -0.94 M58.86 1.66 C59.07 19.92, 60.12 39.78, 60.86 60.32 M59.18 0.24 C60.18 21.86, 60.62 42.29, 60.63 59.45 M59.68 61.52 C46.33 60.97, 34.46 59.9, 0.22 60.31 M59.25 59.96 C36.41 59.88, 13.93 59.93, 0.67 60.57 M-0.05 59.59 C-1.96 39.74, 1.21 23.09, 0.68 -1.6 M-0.41 59.67 C0.95 45.72, 0.71 29.81, 0.2 -0.4" stroke="#f85149" stroke-width="2" fill="none"></path></g><g transform="translate(1039.8580322265625 228) rotate(0 25.1419677734375 8.125)"><text x="25.1419677734375" y="NaN" font-family="Virgil, Segoe UI Emoji" font-size="13px" fill="#f85149" text-anchor="middle" style="white-space: pre;" direction="ltr">11 cycles</text></g><g stroke-linecap="round" transform="translate(958 330) rotate(0 107.5 25)"><path d="M1.31 -0.05 L214.86 1.36 L214.46 50.46 L0.3 48.97" stroke="none" stroke-width="0" fill="#4a1219"></path><path d="M-0.85 0.66 C58.04 2.51, 112.62 0.99, 215.74 0.53 M-0.18 0.53 C73.59 1.64, 146.03 1.58, 215.84 -0.58 M215.57 0 C216.28 16.2, 213.44 35.33, 213.96 48.56 M215.59 -0.83 C215.17 17.68, 215.2 35.96, 215.26 50.55 M216.58 50.92 C169.99 49.97, 123.87 50.27, -1.4 51.41 M215.03 50.62 C149.06 49.82, 83.67 49.2, -0.02 49.86 M0.46 48.74 C-0.12 34.6, 1.21 21.14, -1.36 1.74 M-0.89 49.85 C1.01 34.17, 0.53 16.92, -0.51 -0.25" stroke="#f85149" stroke-width="2" fill="none"></path></g><g transform="translate(1003.1355514526367 344.375) rotate(0 62.36444854736328 10.625)"><text x="62.36444854736328" y="NaN" font-family="Virgil, Segoe UI Emoji" font-size="17px" fill="#ffffff" text-anchor="middle" style="white-space: pre;" direction="ltr">Build hash map</text></g><g transform="translate(1011.9920501708984 388) rotate(0 53.50794982910156 7.5)"><text x="53.50794982910156" y="NaN" font-family="Virgil, Segoe UI Emoji" font-size="12px" fill="#8b949e" text-anchor="middle" style="white-space: pre;" direction="ltr">hash(key) -&gt; value</text></g><g stroke-linecap="round"><g transform="translate(941 355) rotate(0 6 0)"><path d="M-0.42 -1.04 C1.19 -1.29, 8.68 -0.67, 10.82 -0.41 M1.57 1.03 C3.42 1.46, 11.2 1.35, 12.91 0.91" stroke="#f85149" stroke-width="2" fill="none"></path></g><g transform="translate(941 355) rotate(0 6 0)"><path d="M6.99 2.95 C9.43 2.7, 12.03 1.65, 12.81 0.71 M7.31 3.28 C9.08 3.04, 10.23 1.93, 12.83 1.01" stroke="#f85149" stroke-width="2" fill="none"></path></g><g transform="translate(941 355) rotate(0 6 0)"><path d="M6.56 -1.13 C9.21 0.25, 11.98 0.82, 12.81 0.71 M6.88 -0.8 C8.73 0.01, 9.99 -0.06, 12.83 1.01" stroke="#f85149" stroke-width="2" fill="none"></path></g></g><g stroke-linecap="round" transform="translate(1205 200) rotate(0 90 90)"><path d="M-0.85 0.07 L178.33 -1.5 L181.34 180.33 L1.47 179.44" stroke="none" stroke-width="0" fill="#4a1219"></path><path d="M1.55 -1.65 C55.93 0.32, 110.32 -2.4, 178.89 1.81 M0.57 0.52 C67.66 0.33, 134.99 0.14, 179.41 0.39 M178.35 -1.72 C177.94 69.98, 177.85 140.16, 178.87 178.99 M180.89 -0.12 C181.25 52.68, 180.18 105.17, 179.97 179.54 M178.95 181.58 C129.04 182.22, 79.54 182.74, 0.88 179.24 M180.91 180.91 C123.55 180.36, 66.23 180.64, 0.48 180.43 M-1.42 178.82 C-1.24 108.99, -1.86 37.86, 1.13 0.18 M0.59 179.84 C-1.62 138.91, -0.05 96.58, 0.84 0.12" stroke="#f85149" stroke-width="3" fill="none"></path></g><g transform="translate(1269.8770217895508 212) rotate(0 25.12297821044922 8.75)"><text x="25.12297821044922" y="NaN" font-family="Virgil, Segoe UI Emoji" font-size="14px" fill="#ffffff" text-anchor="middle" style="white-space: pre;" direction="ltr">TOTAL</text></g><g transform="translate(1250.921012878418 234) rotate(0 44.07898712158203 26.25)"><text x="44.07898712158203" y="NaN" font-family="Virgil, Segoe UI Emoji" font-size="42px" fill="#ffffff" text-anchor="middle" style="white-space: pre;" direction="ltr">~65</text></g><g transform="translate(1252.9790267944336 290) rotate(0 42.020973205566406 8.75)"><text x="42.020973205566406" y="NaN" font-family="Virgil, Segoe UI Emoji" font-size="14px" fill="#ffffff" text-anchor="middle" style="white-space: pre;" direction="ltr">cycles / msg</text></g><g transform="translate(10 500) rotate(0 135.2119140625 13.75)"><text x="0" y="NaN" font-family="Virgil, Segoe UI Emoji" font-size="22px" fill="#3fb950" text-anchor="start" style="white-space: pre;" direction="ltr">Protobuf decoder pipeline</text></g><g stroke-linecap="round" transform="translate(87 638) rotate(0 30 6)"><path d="M-0.54 -0.04 L61.8 0.03 L60.68 10.79 L1.17 13.92" stroke="none" stroke-width="0" fill="#3a5d1d"></path><path d="M-1.62 -0.71 C14.13 -1.37, 31.56 -0.11, 58.37 -0.29 M-0.13 0.46 C22.19 0.4, 45.76 -0.42, 59.07 0.65 M60.83 1.13 C60.42 3.09, 59.36 7.85, 60.32 11.29 M60.59 0.38 C60.13 2.06, 60.62 5.3, 60.45 12.07 M58.23 10.81 C36.64 12.39, 14.29 14.05, 0.55 10.45 M60.31 11.86 C36.38 12.66, 14.39 11.87, 0.21 11.59 M0.92 11.41 C0.09 8.12, 0.95 4.61, -0.89 0.7 M0.23 11.95 C0.42 7.37, -0.51 2.32, -0.59 -0.25" stroke="#6dbf3a" stroke-width="2" fill="none"></path></g><g transform="translate(90.7530288696289 616) rotate(0 26.246971130371094 8.125)"><text x="26.246971130371094" y="NaN" font-family="Virgil, Segoe UI Emoji" font-size="13px" fill="#3fb950" text-anchor="middle" style="white-space: pre;" direction="ltr">2 cycles</text></g><g stroke-linecap="round" transform="translate(10 670) rotate(0 107.5 25)"><path d="M0.95 -0.23 L215.82 -0.13 L215.51 50.33 L1.72 49.34" stroke="none" stroke-width="0" fill="#3a5d1d"></path><path d="M1.52 0.75 C76.95 -0.59, 151.07 -2.69, 213.47 1.34 M-0.5 0.8 C73.75 0.66, 147.47 0.56, 214.36 0.15 M213.87 0.83 C213.04 17.7, 214.62 34.52, 215.36 50.75 M214.94 0.73 C215.64 13.95, 215.68 25.77, 214.89 49.82 M214.03 49.71 C156.82 50.91, 97.5 49.09, -1.3 48.63 M214.4 50.42 C135.3 49.94, 56.41 49.69, -0.16 50.84 M1.77 50.51 C-0.27 35.41, 1.53 21.52, 1.28 0.34 M-0.09 49.32 C0.65 37.21, 1.08 23.27, 0.55 -0.76" stroke="#6dbf3a" stroke-width="2" fill="none"></path></g><g transform="translate(55.59454345703125 684.375) rotate(0 61.90545654296875 10.625)"><text x="61.90545654296875" y="NaN" font-family="Virgil, Segoe UI Emoji" font-size="17px" fill="#ffffff" text-anchor="middle" style="white-space: pre;" direction="ltr">Read tag byte</text></g><g transform="translate(43.11207580566406 728) rotate(0 74.38792419433594 7.5)"><text x="74.38792419433594" y="NaN" font-family="Virgil, Segoe UI Emoji" font-size="12px" fill="#8b949e" text-anchor="middle" style="white-space: pre;" direction="ltr">1 byte: field# + wire-type</text></g><g stroke-linecap="round" transform="translate(324 638) rotate(0 30 6)"><path d="M-1.32 -1.4 L60.51 0.94 L61.79 13.27 L-1.09 10.47" stroke="none" stroke-width="0" fill="#3a5d1d"></path><path d="M-0.71 -1.15 C19.09 -0.95, 37.6 1.11, 60.02 1.84 M0.48 0.44 C17.27 -0.62, 35.26 -0.77, 59.54 0.24 M60.86 0.08 C59.29 1.98, 60.31 5.43, 59.08 11.63 M60.51 0.07 C59.55 4.05, 59.74 6.39, 60.42 11.67 M61.29 13.73 C40.55 11, 20.07 10.73, -1.91 12.03 M60.28 12.49 C37.45 12.83, 13.12 11.77, 0.33 11.98 M0.96 11.86 C-0.16 8.66, -0.5 6.1, 0.89 -1.19 M-0.55 11.5 C-0.28 8.72, -0.02 5.91, -0.34 -0.55" stroke="#6dbf3a" stroke-width="2" fill="none"></path></g><g transform="translate(327.7530288696289 616) rotate(0 26.246971130371094 8.125)"><text x="26.246971130371094" y="NaN" font-family="Virgil, Segoe UI Emoji" font-size="13px" fill="#3fb950" text-anchor="middle" style="white-space: pre;" direction="ltr">2 cycles</text></g><g stroke-linecap="round" transform="translate(247 670) rotate(0 107.5 25)"><path d="M-0.9 -1.56 L213.83 -0.48 L213.83 48.49 L-0.4 48.07" stroke="none" stroke-width="0" fill="#3a5d1d"></path><path d="M-1.48 -0.27 C60.72 1.35, 122.84 2.12, 213.67 -1.63 M0.8 0.36 C73.32 1.44, 146.57 0.62, 214.3 -0.76 M216.11 -0.29 C215.13 13.49, 216.76 29.39, 213.91 49.34 M215.46 0.55 C215.59 10.38, 213.89 20.54, 214.58 50.82 M216.22 51.71 C155.81 51.37, 97.47 51.29, -0.39 50.38 M214.95 50.3 C155.13 49.22, 94.74 50.43, 0.14 50.56 M1.7 50.55 C0.56 31.2, 0.5 17.01, 0.28 -1.39 M-0.58 49.91 C-0.66 32.91, -0.75 14.2, -0.17 -0.56" stroke="#6dbf3a" stroke-width="2" fill="none"></path></g><g transform="translate(289.4920425415039 684.375) rotate(0 65.0079574584961 10.625)"><text x="65.0079574584961" y="NaN" font-family="Virgil, Segoe UI Emoji" font-size="17px" fill="#ffffff" text-anchor="middle" style="white-space: pre;" direction="ltr">memcpy / varint</text></g><g transform="translate(270.02608489990234 728) rotate(0 84.47391510009766 7.5)"><text x="84.47391510009766" y="NaN" font-family="Virgil, Segoe UI Emoji" font-size="12px" fill="#8b949e" text-anchor="middle" style="white-space: pre;" direction="ltr">jump to known struct offset</text></g><g stroke-linecap="round"><g transform="translate(230 695) rotate(0 6 0)"><path d="M-0.76 -1.06 C1.12 -0.78, 9.33 0.69, 11.51 1.01 M1.05 0.99 C2.69 1.02, 8.53 -0.24, 10.3 -0.59" stroke="#3fb950" stroke-width="2" fill="none"></path></g><g transform="translate(230 695) rotate(0 6 0)"><path d="M4.65 2.29 C7.36 1.71, 8.92 1.14, 9.92 -0.92 M5.06 2.27 C6.21 1.62, 7.75 1.18, 10.38 -0.82" stroke="#3fb950" stroke-width="2" fill="none"></path></g><g transform="translate(230 695) rotate(0 6 0)"><path d="M3.84 -1.73 C6.78 -1.01, 8.61 -0.28, 9.92 -0.92 M4.25 -1.75 C5.55 -1.46, 7.29 -0.95, 10.38 -0.82" stroke="#3fb950" stroke-width="2" fill="none"></path></g></g><g stroke-linecap="round" transform="translate(504 670) rotate(0 329.5 25)"><path d="M-0.4 0.15 C242.32 -1.26, 486.12 -0.87, 658.5 -0.25 M659.63 -1.23 C659.95 16.79, 660.54 37.63, 660.4 50.87 M659.45 49.96 C434.43 48.86, 208.91 48.82, 0.59 49.76 M-1.14 51.9 C-0.99 32.06, -0.14 13.88, -1.66 -1.45" stroke="#3fb950" stroke-width="2.5" fill="none" stroke-dasharray="8 10"></path></g><g transform="translate(633.9091796875 678) rotate(0 199.5908203125 8.75)"><text x="199.5908203125" y="NaN" font-family="Virgil, Segoe UI Emoji" font-size="14px" fill="#3fb950" text-anchor="middle" style="white-space: pre;" direction="ltr">skipped: no tokenizer, no UTF-8 validation, no string alloc</text></g><g transform="translate(632.38623046875 700) rotate(0 201.11376953125 7.5)"><text x="201.11376953125" y="NaN" font-family="Virgil, Segoe UI Emoji" font-size="12px" fill="#8b949e" text-anchor="middle" style="white-space: pre;" direction="ltr">(schema known at compile time -&gt; branches hard-coded into decoder)</text></g><g stroke-linecap="round" transform="translate(1205 540) rotate(0 90 90)"><path d="M-1.35 1.84 L179.81 1.55 L179.24 178.45 L-0.79 180.4" stroke="none" stroke-width="0" fill="#3a5d1d"></path><path d="M0.41 -0.62 C56.42 2.63, 111.87 0.66, 178.39 1.09 M0.69 -0.7 C53.52 -0.15, 104.95 -0.23, 179.36 0.79 M179.73 1.69 C177.13 54.24, 177.33 106.73, 179.86 180.61 M179.44 0.78 C178.53 50.01, 178.95 98.86, 179.2 180.44 M179.63 181.65 C110.87 180.96, 39.8 181.75, 0.56 181.62 M180.95 179.08 C132.98 177.41, 85.76 178.21, 0.07 179.07 M-0.59 181.87 C1.43 126, 2.15 69.55, -1.56 -0.28 M-0.13 180.31 C-0.36 115.04, 0.41 49.22, 0.64 0.65" stroke="#6dbf3a" stroke-width="3" fill="none"></path></g><g transform="translate(1269.8770217895508 552) rotate(0 25.12297821044922 8.75)"><text x="25.12297821044922" y="NaN" font-family="Virgil, Segoe UI Emoji" font-size="14px" fill="#ffffff" text-anchor="middle" style="white-space: pre;" direction="ltr">TOTAL</text></g><g transform="translate(1263.8990097045898 574) rotate(0 31.100990295410156 26.25)"><text x="31.100990295410156" y="NaN" font-family="Virgil, Segoe UI Emoji" font-size="42px" fill="#ffffff" text-anchor="middle" style="white-space: pre;" direction="ltr">~4</text></g><g transform="translate(1252.9790267944336 630) rotate(0 42.020973205566406 8.75)"><text x="42.020973205566406" y="NaN" font-family="Virgil, Segoe UI Emoji" font-size="14px" fill="#ffffff" text-anchor="middle" style="white-space: pre;" direction="ltr">cycles / msg</text></g><g transform="translate(1287.1550064086914 310) rotate(0 7.844993591308594 18.75)"><text x="7.844993591308594" y="NaN" font-family="Virgil, Segoe UI Emoji" font-size="30px" fill="#f0b070" text-anchor="middle" style="white-space: pre;" direction="ltr">v</text></g><g transform="translate(1264.0670166015625 380) rotate(0 30.9329833984375 26.25)"><text x="30.9329833984375" y="NaN" font-family="Virgil, Segoe UI Emoji" font-size="42px" fill="#f0b070" text-anchor="middle" style="white-space: pre;" direction="ltr">16x</text></g><g transform="translate(1247.4400329589844 440) rotate(0 47.559967041015625 10)"><text x="47.559967041015625" y="NaN" font-family="Virgil, Segoe UI Emoji" font-size="16px" fill="#f0b070" text-anchor="middle" style="white-space: pre;" direction="ltr">fewer cycles</text></g></svg>