<svg version="1.1" xmlns="http://www.w3.org/2000/svg" viewBox="0 0 1200 768.4" width="1200" height="768.4">
  <!-- svg-source:excalidraw -->
  
  <defs>
    <style>
      @font-face {
        font-family: "Virgil";
        src: url("https://excalidraw.com/Virgil.woff2");
      }
      @font-face {
        font-family: "Cascadia";
        src: url("https://excalidraw.com/Cascadia.woff2");
      }
    </style>
  </defs>
  <rect x="0" y="0" width="1200" height="768.4" fill="#0d1117"></rect><g transform="translate(10 10) rotate(0 211.20000000000002 16.799999999999997)"><text x="0" y="NaN" font-family="Virgil, Segoe UI Emoji" font-size="24px" fill="#c9d1d9" text-anchor="start" style="white-space: pre;" direction="ltr">Lakehouse Medallion Architecture</text></g><g transform="translate(10 42) rotate(0 352 11.200000000000003)"><text x="0" y="NaN" font-family="Virgil, Segoe UI Emoji" font-size="16px" fill="#c9d1d9" text-anchor="start" style="white-space: pre;" direction="ltr">(bronze raw → silver cleaned → gold business-ready; each boundary is a contract)</text></g><g stroke-opacity="0.6" fill-opacity="0.6" stroke-linecap="round" transform="translate(10 100) rotate(0 110 190)"><path d="M-0.59 -0.57 L219.35 -1.01 L220.64 380.03 L1.05 379.91" stroke="none" stroke-width="0" fill="#161b22"></path><path d="M0.15 0 C66.48 0.66, 134.2 1.35, 221.69 1.24 M220.23 0.14 C217.65 124.66, 217.52 245.98, 219.74 380.81 M218.36 380.66 C135.28 378.68, 47.55 378.49, -1.18 379.23 M0.14 379.83 C0.24 279.22, 1.32 179.68, -0.93 -0.53" stroke="#30363d" stroke-width="2.5" fill="none" stroke-dasharray="8 10"></path></g><g transform="translate(26 114) rotate(0 38.5 12)"><text x="0" y="NaN" font-family="Virgil, Segoe UI Emoji" font-size="18px" fill="#8b949e" text-anchor="start" style="white-space: pre;" direction="ltr">Sources</text></g><g stroke-linecap="round" transform="translate(40 170) rotate(0 80 30)"><path d="M1.44 -1.43 L159.33 -1.55 L161.75 61.24 L1.3 60.57" stroke="none" stroke-width="0" fill="#1f4d2b"></path><path d="M-1.62 -1.57 C42.94 0.69, 85.88 -0.47, 160.57 1.82 M0.42 -0.84 C60.66 -1.69, 120.96 -0.88, 160.23 0.98 M161.94 -1.85 C158.6 17.92, 158.6 33.23, 161.07 58 M159.34 0 C159.9 13.51, 160.12 27.64, 160.81 60.13 M159.92 60.41 C102.46 60.94, 42.55 59.32, 1.66 61.68 M160.73 59.25 C113.54 60.2, 68.52 60.91, 0.58 59.86 M1.7 59.14 C-0.56 40.52, -2.03 20.37, -0.36 0.12 M0.76 59.8 C-0.55 44.17, -0.76 26.61, 0.59 -0.48" stroke="#3fb950" stroke-width="2" fill="none"></path></g><g transform="translate(48 191.25) rotate(0 72 8.75)"><text x="72" y="NaN" font-family="Virgil, Segoe UI Emoji" font-size="14px" fill="#ffffff" text-anchor="middle" style="white-space: pre;" direction="ltr">OLTP DB</text><text x="72" y="NaN" font-family="Virgil, Segoe UI Emoji" font-size="14px" fill="#ffffff" text-anchor="middle" style="white-space: pre;" direction="ltr">(MySQL / PG)</text></g><g stroke-linecap="round" transform="translate(40 250) rotate(0 80 30)"><path d="M1.37 0 L159.5 -1.12 L159.23 58.34 L-1 59.26" stroke="none" stroke-width="0" fill="#1f4d2b"></path><path d="M-1.06 0.86 C40.03 0.36, 82.45 -0.34, 159.99 1.92 M-0.88 0.89 C53.08 -0.71, 104.82 -0.89, 159.89 -0.57 M160.27 -1.35 C159.86 16.63, 159.87 37.22, 158.89 58.68 M159.08 0.33 C159.01 24.89, 158.85 48.96, 160.62 59.81 M158.72 60.56 C114.56 59.02, 70.02 59.65, -1.01 58.81 M160.42 59 C122.8 59.65, 86.35 59.96, 0.68 59.29 M0.75 59.2 C0.9 39.65, 1.47 20.17, -1.87 -1.32 M0.1 59.14 C0.86 39.68, 1.13 18.02, -0.47 -0.97" stroke="#3fb950" stroke-width="2" fill="none"></path></g><g transform="translate(48 271.25) rotate(0 72 8.75)"><text x="72" y="NaN" font-family="Virgil, Segoe UI Emoji" font-size="14px" fill="#ffffff" text-anchor="middle" style="white-space: pre;" direction="ltr">Kafka events</text></g><g stroke-linecap="round" transform="translate(40 330) rotate(0 80 30)"><path d="M0.69 1.66 L158.15 0.15 L159.9 58.24 L-1.05 60.38" stroke="none" stroke-width="0" fill="#1f4d2b"></path><path d="M-1.1 -0.37 C53.61 -1.33, 107.14 -1.95, 159.67 -1.54 M-0.78 0.57 C43.26 -2.11, 87.27 -1.86, 159.99 0.9 M160.97 1.92 C161.09 23.57, 158.81 42.83, 161.97 60.19 M160.02 -0.41 C159.97 14.07, 159.19 28.8, 159.35 60.38 M158.22 59.83 C103.4 59.62, 45.91 59.85, -2 58.18 M159.06 59.81 C118.19 59.57, 77.29 60.19, -0.77 60.47 M-0.07 60.19 C-1.19 36.99, -0.06 15.82, 0.86 -1.23 M-0.28 59.22 C0.09 36.66, -0.59 14.52, -0.18 0.2" stroke="#3fb950" stroke-width="2" fill="none"></path></g><g transform="translate(48 351.25) rotate(0 72 8.75)"><text x="72" y="NaN" font-family="Virgil, Segoe UI Emoji" font-size="14px" fill="#ffffff" text-anchor="middle" style="white-space: pre;" direction="ltr">Partner files</text><text x="72" y="NaN" font-family="Virgil, Segoe UI Emoji" font-size="14px" fill="#ffffff" text-anchor="middle" style="white-space: pre;" direction="ltr">(S3 drops)</text></g><g stroke-linecap="round" transform="translate(40 410) rotate(0 80 30)"><path d="M-1.91 -1.8 L158.13 -0.1 L160.24 58.58 L-0.18 58.1" stroke="none" stroke-width="0" fill="#1f4d2b"></path><path d="M-1.3 -1.15 C58.11 0.61, 116.82 0.97, 159.89 -0.49 M0.13 -0.37 C61.95 0.14, 124.15 -0.03, 159.32 0.7 M161.34 -1.21 C157.97 20.29, 160.06 40.01, 159.72 60.38 M159.93 0.87 C159.24 13.14, 159.84 23.89, 159.61 59.36 M158.51 61.98 C120.2 60.79, 81.35 57.63, -1.54 59.76 M160.33 60.51 C97.28 61.55, 33.65 62.25, 0.41 60.45 M1.67 58.14 C1.84 38.7, 1.01 14.12, -0.63 -0.57 M0.37 59.45 C-1.41 40.73, -1.05 20.98, -0.83 -0.44" stroke="#3fb950" stroke-width="2" fill="none"></path></g><g transform="translate(48 431.25) rotate(0 72 8.75)"><text x="72" y="NaN" font-family="Virgil, Segoe UI Emoji" font-size="14px" fill="#ffffff" text-anchor="middle" style="white-space: pre;" direction="ltr">SaaS APIs</text></g><g stroke-opacity="0.6" fill-opacity="0.6" stroke-linecap="round" transform="translate(270 100) rotate(0 100 190)"><path d="M-0.91 -1.69 L199.97 1.89 L200.63 380.03 L-0.02 381.01" stroke="none" stroke-width="0" fill="#161b22"></path><path d="M-0.07 -0.11 C44.46 -0.33, 84.8 0.26, 201.75 0.9 M200.82 -0.33 C199.72 122.74, 199.66 246.6, 199.4 379.55 M200.79 380.82 C135.65 379.03, 72.24 380.32, 1.22 379.12 M0.22 379.43 C2.11 230.05, 1.43 82.81, 0.68 -0.81" stroke="#30363d" stroke-width="2.5" fill="none" stroke-dasharray="8 10"></path></g><g transform="translate(286 114) rotate(0 33 12)"><text x="0" y="NaN" font-family="Virgil, Segoe UI Emoji" font-size="18px" fill="#8b949e" text-anchor="start" style="white-space: pre;" direction="ltr">Ingest</text></g><g stroke-linecap="round" transform="translate(300 190) rotate(0 70 30)"><path d="M0.18 -0.27 L139.7 0.68 L141.02 60.33 L-1.26 58.29" stroke="none" stroke-width="0" fill="#5c3a10"></path><path d="M0.66 1.1 C43.97 -1.59, 93.25 2.13, 138.66 1.53 M-0.13 -0.59 C51.1 1.1, 100.98 0.67, 140.91 0.89 M141.01 -0.25 C138.49 15.77, 140.4 33.18, 141.84 61.63 M140.89 0.68 C140.22 14.17, 139.56 29.05, 139.41 60.19 M141.54 60.22 C91.37 60.14, 39.57 62.66, 0.54 60.69 M139.5 60.65 C91.44 61.34, 44.82 62.11, 0.25 59.63 M-0.93 61.12 C1.67 41.09, -0.17 20.99, 1.49 -0.35 M-0.62 60.88 C-0.31 37.72, -0.37 13.8, -0.45 0.21" stroke="#f0883e" stroke-width="2" fill="none"></path></g><g transform="translate(308 211.25) rotate(0 62 8.75)"><text x="62" y="NaN" font-family="Virgil, Segoe UI Emoji" font-size="14px" fill="#ffffff" text-anchor="middle" style="white-space: pre;" direction="ltr">Debezium</text><text x="62" y="NaN" font-family="Virgil, Segoe UI Emoji" font-size="14px" fill="#ffffff" text-anchor="middle" style="white-space: pre;" direction="ltr">CDC</text></g><g stroke-linecap="round" transform="translate(300 280) rotate(0 70 30)"><path d="M1.81 -0.36 L140.73 -0.24 L138.86 61.44 L0.64 58.45" stroke="none" stroke-width="0" fill="#5c3a10"></path><path d="M-1.53 1.65 C30.45 -0.74, 61.05 -1.69, 140.28 0.83 M0.82 0.34 C37.47 -0.17, 76.15 0, 140 -0.61 M141.08 1.62 C138.94 19.87, 139.41 40.04, 139.19 59.99 M140.14 0.14 C139.82 11.87, 141.24 24.08, 140.89 60.43 M139.15 58.29 C102.99 61.18, 65.32 57.94, 0.32 58.33 M139.16 59.53 C100.7 60.16, 62.77 60.11, 0.15 60.55 M-0.59 61.54 C0.25 40.28, -2.06 22.04, 1.54 0.63 M0.04 60.66 C1.46 40.8, 0.95 20.44, -0.15 -0.25" stroke="#f0883e" stroke-width="2" fill="none"></path></g><g transform="translate(308 301.25) rotate(0 62 8.75)"><text x="62" y="NaN" font-family="Virgil, Segoe UI Emoji" font-size="14px" fill="#ffffff" text-anchor="middle" style="white-space: pre;" direction="ltr">Flink /</text><text x="62" y="NaN" font-family="Virgil, Segoe UI Emoji" font-size="14px" fill="#ffffff" text-anchor="middle" style="white-space: pre;" direction="ltr">Spark Stream</text></g><g stroke-linecap="round" transform="translate(300 370) rotate(0 70 30)"><path d="M-1.64 -0.76 L141.24 -0.33 L139.32 61.73 L-0.82 60.19" stroke="none" stroke-width="0" fill="#5c3a10"></path><path d="M0.31 0.32 C34.98 0.57, 69.53 1.66, 138.01 1.4 M-0.63 0.72 C28.94 0.56, 58.97 1.14, 140.61 0.12 M141.58 0.12 C139.48 17.32, 138.97 31.75, 138.14 60.84 M139.15 0.77 C139.35 14.64, 138.91 30.56, 140.81 59.13 M141.91 59.88 C106.92 59.48, 74.81 61.03, 0.46 58.91 M140.87 59.65 C109.14 60.66, 77.54 60.22, -0.6 60.37 M1.66 58.96 C2.12 38.25, 0.7 20.26, 0.55 -1.42 M0.22 59.51 C0.41 43.78, -0.15 28.61, 0.81 0.03" stroke="#f0883e" stroke-width="2" fill="none"></path></g><g transform="translate(308 391.25) rotate(0 62 8.75)"><text x="62" y="NaN" font-family="Virgil, Segoe UI Emoji" font-size="14px" fill="#ffffff" text-anchor="middle" style="white-space: pre;" direction="ltr">Batch loader</text></g><g stroke-opacity="0.6" fill-opacity="0.6" stroke-linecap="round" transform="translate(510 100) rotate(0 100 190)"><path d="M-1.64 -1.78 L199.35 -0.52 L198.45 378.88 L-0.87 381.72" stroke="none" stroke-width="0" fill="#161b22"></path><path d="M-0.81 1.31 C60.63 -0.2, 120.54 -3.07, 201.77 -0.52 M200.36 0.92 C197.89 93.15, 197.44 184.58, 200.66 381.06 M201.46 378.28 C153.81 380.17, 105.78 376.84, 0.55 378.66 M-0.11 379.17 C0.93 267.02, -1.17 155.99, 0.94 -0.62" stroke="#30363d" stroke-width="2.5" fill="none" stroke-dasharray="8 10"></path></g><g transform="translate(526 114) rotate(0 66 12)"><text x="0" y="NaN" font-family="Virgil, Segoe UI Emoji" font-size="18px" fill="#8b949e" text-anchor="start" style="white-space: pre;" direction="ltr">Bronze (raw)</text></g><g stroke-linecap="round" transform="translate(540 230) rotate(0 70 110)"><path d="M-0.49 -0.3 L139.86 -0.5 L138.04 219.91 L1.81 218.99" stroke="none" stroke-width="0" fill="#4a1219"></path><path d="M-1.14 -1.96 C33.18 1.1, 69.35 1.13, 139.92 -1.25 M0.39 -0.81 C44.71 -0.43, 89.21 -0.31, 140.2 -0.09 M139.67 -1.58 C139.89 85.23, 140.05 167.21, 140.87 219.63 M139.65 0.86 C141.58 77.83, 140.79 155.32, 139.91 220.5 M138.2 220.66 C102.65 220.09, 65.64 220.91, 0.24 219.16 M139.09 220 C108.82 221.21, 75.06 221.41, 0.89 220.64 M1.7 221.52 C2.49 159.92, 2.98 99.09, -1.46 -0.82 M0.68 220.3 C0.03 141.81, -0.43 61.59, -0.12 -0.71" stroke="#f85149" stroke-width="2" fill="none"></path></g><g transform="translate(548 331.25) rotate(0 62 8.75)"><text x="62" y="NaN" font-family="Virgil, Segoe UI Emoji" font-size="14px" fill="#ffffff" text-anchor="middle" style="white-space: pre;" direction="ltr">Append-only.</text><text x="62" y="NaN" font-family="Virgil, Segoe UI Emoji" font-size="14px" fill="#ffffff" text-anchor="middle" style="white-space: pre;" direction="ltr">Source fidelity.</text><text x="62" y="NaN" font-family="Virgil, Segoe UI Emoji" font-size="14px" fill="#ffffff" text-anchor="middle" style="white-space: pre;" direction="ltr">Long retention.</text><text x="62" y="NaN" font-family="Virgil, Segoe UI Emoji" font-size="14px" fill="#ffffff" text-anchor="middle" style="white-space: pre;" direction="ltr">No logic.</text></g><g stroke-opacity="0.6" fill-opacity="0.6" stroke-linecap="round" transform="translate(750 100) rotate(0 100 190)"><path d="M-0.55 0.15 L199.9 -1.29 L198.74 379.87 L-1.53 380.93" stroke="none" stroke-width="0" fill="#161b22"></path><path d="M1.16 -1.33 C60.89 -0.43, 121.16 -0.85, 201.02 1.04 M199.41 -0.29 C201.85 124.15, 201.57 247.46, 200.21 380.23 M199.13 379.42 C142.66 379.05, 82.61 381.85, -0.71 379.73 M-0.02 380.16 C1.89 243.78, 2.84 108.17, 0.89 1.11" stroke="#30363d" stroke-width="2.5" fill="none" stroke-dasharray="8 10"></path></g><g transform="translate(766 114) rotate(0 77 12)"><text x="0" y="NaN" font-family="Virgil, Segoe UI Emoji" font-size="18px" fill="#8b949e" text-anchor="start" style="white-space: pre;" direction="ltr">Silver (clean)</text></g><g stroke-linecap="round" transform="translate(780 230) rotate(0 70 110)"><path d="M0.71 -0.98 L138.71 -1.8 L141.91 218.89 L0.89 221.81" stroke="none" stroke-width="0" fill="#0d2c5a"></path><path d="M1.54 1.32 C49.7 0.32, 99.14 -0.88, 139.97 -1.43 M-0.42 -0.83 C42.29 -0.62, 86.18 0.23, 139.97 0.37 M140.23 1.05 C138.74 55.91, 139.27 111.69, 138.94 220.51 M140.54 -0.86 C139.54 83.17, 140.29 164.49, 139.49 219.19 M138.97 220.69 C97.42 219.57, 50.74 220.66, 0.34 219.21 M139.96 219.68 C98.73 220.37, 54.84 220.86, 0.21 219.57 M0.62 221.7 C0.2 152.67, 0.2 83.33, -1.67 -0.14 M0.56 220.21 C-2.67 152.3, -1.54 84.73, 0.82 -0.53" stroke="#58a6ff" stroke-width="2" fill="none"></path></g><g transform="translate(788 331.25) rotate(0 62 8.75)"><text x="62" y="NaN" font-family="Virgil, Segoe UI Emoji" font-size="14px" fill="#ffffff" text-anchor="middle" style="white-space: pre;" direction="ltr">Deduped.</text><text x="62" y="NaN" font-family="Virgil, Segoe UI Emoji" font-size="14px" fill="#ffffff" text-anchor="middle" style="white-space: pre;" direction="ltr">Typed.</text><text x="62" y="NaN" font-family="Virgil, Segoe UI Emoji" font-size="14px" fill="#ffffff" text-anchor="middle" style="white-space: pre;" direction="ltr">Joined.</text><text x="62" y="NaN" font-family="Virgil, Segoe UI Emoji" font-size="14px" fill="#ffffff" text-anchor="middle" style="white-space: pre;" direction="ltr">Quality-gated.</text><text x="62" y="NaN" font-family="Virgil, Segoe UI Emoji" font-size="14px" fill="#ffffff" text-anchor="middle" style="white-space: pre;" direction="ltr">Stable schema.</text></g><g stroke-opacity="0.6" fill-opacity="0.6" stroke-linecap="round" transform="translate(990 100) rotate(0 100 190)"><path d="M-1.76 -0.6 L201.83 0.23 L201.22 379.25 L-0.48 381.16" stroke="none" stroke-width="0" fill="#161b22"></path><path d="M0.86 -0.64 C67.38 -2.69, 130.67 -0.3, 198.71 0 M200.66 -0.01 C201.5 110.84, 202.21 223.71, 199.09 379.33 M198.71 381.4 C126.04 379.97, 48 378.8, -1.37 381.51 M-1.01 380.94 C2.68 234.88, 2.94 89.14, -0.36 -0.39" stroke="#30363d" stroke-width="2.5" fill="none" stroke-dasharray="8 10"></path></g><g transform="translate(1006 114) rotate(0 66 12)"><text x="0" y="NaN" font-family="Virgil, Segoe UI Emoji" font-size="18px" fill="#8b949e" text-anchor="start" style="white-space: pre;" direction="ltr">Gold (serve)</text></g><g stroke-linecap="round" transform="translate(1020 230) rotate(0 70 110)"><path d="M-0.6 -1.92 L140.98 -0.67 L141.17 219.96 L-0.06 219.74" stroke="none" stroke-width="0" fill="#3a1d6e"></path><path d="M-0.71 -0.95 C47.3 -0.04, 94.08 2.76, 139.33 0.83 M0.61 0.94 C34.03 0.16, 68.89 1.98, 140.6 -0.12 M140.2 1.29 C140.79 57.64, 138.74 117.77, 138.88 220.24 M140.38 -0.11 C138.86 58.28, 139.32 116.41, 139.5 219.6 M139.19 218.03 C108.4 219.29, 78.71 221.96, -1.06 221.27 M139.74 220.93 C100.69 219.39, 61.76 219.07, 0.93 220.49 M-0.67 220.12 C0.41 168.3, -1.48 116.63, -0.31 0.28 M0.58 220.56 C0.07 154.68, 0.23 88.61, 0.47 -0.44" stroke="#a371f7" stroke-width="2" fill="none"></path></g><g transform="translate(1028 331.25) rotate(0 62 8.75)"><text x="62" y="NaN" font-family="Virgil, Segoe UI Emoji" font-size="14px" fill="#ffffff" text-anchor="middle" style="white-space: pre;" direction="ltr">Aggregated.</text><text x="62" y="NaN" font-family="Virgil, Segoe UI Emoji" font-size="14px" fill="#ffffff" text-anchor="middle" style="white-space: pre;" direction="ltr">Denormalized.</text><text x="62" y="NaN" font-family="Virgil, Segoe UI Emoji" font-size="14px" fill="#ffffff" text-anchor="middle" style="white-space: pre;" direction="ltr">Domain-owned.</text><text x="62" y="NaN" font-family="Virgil, Segoe UI Emoji" font-size="14px" fill="#ffffff" text-anchor="middle" style="white-space: pre;" direction="ltr">Dashboard-shaped.</text></g><g stroke-linecap="round"><g transform="translate(230 240) rotate(0 20 0)"><path d="M-0.88 -1.1 C5.81 -0.94, 33.27 0.58, 39.93 0.58 M0.85 0.93 C7.4 0.77, 32.17 -1.02, 38.94 -1.23" stroke="#3fb950" stroke-width="2" fill="none"></path></g><g transform="translate(230 240) rotate(0 20 0)"><path d="M18.7 6.48 C26.7 2.99, 29.08 3.79, 39.42 -2.63 M21.07 6.8 C28.14 3.65, 35.75 0.23, 38.57 -2.17" stroke="#3fb950" stroke-width="2" fill="none"></path></g><g transform="translate(230 240) rotate(0 20 0)"><path d="M17.97 -7.19 C26.13 -6.84, 28.72 -2.19, 39.42 -2.63 M20.34 -6.87 C27.57 -4.74, 35.46 -2.88, 38.57 -2.17" stroke="#3fb950" stroke-width="2" fill="none"></path></g></g><g stroke-linecap="round"><g transform="translate(470 270) rotate(0 20 0)"><path d="M-0.54 0.89 C6.27 0.61, 33.36 -0.46, 40.14 -0.79 M1.38 0.32 C8.1 0.09, 32.92 0.45, 39.27 0.33" stroke="#3fb950" stroke-width="2" fill="none"></path></g><g transform="translate(470 270) rotate(0 20 0)"><path d="M21.97 7.43 C23.69 5.87, 27.69 4.07, 39.56 2.15 M20.8 6.75 C26.38 4.59, 33.34 1.31, 39.7 0.96" stroke="#3fb950" stroke-width="2" fill="none"></path></g><g transform="translate(470 270) rotate(0 20 0)"><path d="M21.96 -6.26 C23.78 -4.47, 27.78 -2.94, 39.56 2.15 M20.78 -6.93 C26.27 -4.16, 33.23 -2.5, 39.7 0.96" stroke="#3fb950" stroke-width="2" fill="none"></path></g></g><g stroke-linecap="round"><g transform="translate(710 290) rotate(0 20 0)"><path d="M0.1 0.57 C6.78 0.51, 34.43 -0.25, 40.89 -0.49 M-1.3 -0.18 C5.21 -0.06, 33.33 0.76, 40.41 0.79" stroke="#3fb950" stroke-width="2" fill="none"></path></g><g transform="translate(710 290) rotate(0 20 0)"><path d="M22.44 8.77 C27.73 2.99, 34.18 1.98, 41.68 0.39 M22.01 6.95 C28.24 5.45, 34.88 2.4, 41.28 1.63" stroke="#3fb950" stroke-width="2" fill="none"></path></g><g transform="translate(710 290) rotate(0 20 0)"><path d="M22.7 -4.91 C27.87 -5.59, 34.23 -1.51, 41.68 0.39 M22.27 -6.73 C28.44 -3.2, 34.99 -1.22, 41.28 1.63" stroke="#3fb950" stroke-width="2" fill="none"></path></g></g><g stroke-linecap="round"><g transform="translate(950 340) rotate(0 20 0)"><path d="M-0.84 0.86 C5.86 0.99, 32.48 0.59, 39.13 0.54 M0.92 0.27 C8.09 0.06, 34.63 -1, 41.38 -1.3" stroke="#3fb950" stroke-width="2" fill="none"></path></g><g transform="translate(950 340) rotate(0 20 0)"><path d="M24.33 4.86 C27.73 3.2, 31.67 4.34, 39.66 0.01 M23.82 6.11 C27.15 3.48, 31.16 2.83, 42.04 -1.5" stroke="#3fb950" stroke-width="2" fill="none"></path></g><g transform="translate(950 340) rotate(0 20 0)"><path d="M23.76 -8.81 C27.26 -7.56, 31.31 -3.52, 39.66 0.01 M23.25 -7.56 C26.84 -6.78, 30.99 -4.01, 42.04 -1.5" stroke="#3fb950" stroke-width="2" fill="none"></path></g></g><g stroke-opacity="0.6" fill-opacity="0.6" stroke-linecap="round" transform="translate(10 520) rotate(0 590 85)"><path d="M0.8 0.68 L1179.12 -0.33 L1181.37 169.78 L1.06 168.38" stroke="none" stroke-width="0" fill="#161b22"></path><path d="M-0.26 0.69 C261.49 1.86, 522.81 1.86, 1179.53 0.35 M1179.76 -1.78 C1181.15 63.14, 1182.58 128.72, 1181.39 171.35 M1179.93 169.81 C855.59 172.6, 531.41 171.19, -0.54 169.29 M-1.15 171.58 C0.27 114.73, -2.65 57.53, -0.44 1.83" stroke="#30363d" stroke-width="2.5" fill="none" stroke-dasharray="8 10"></path></g><g transform="translate(26 534) rotate(0 49.5 12)"><text x="0" y="NaN" font-family="Virgil, Segoe UI Emoji" font-size="18px" fill="#8b949e" text-anchor="start" style="white-space: pre;" direction="ltr">Consumers</text></g><g stroke-linecap="round" transform="translate(50 590) rotate(0 100 35)"><path d="M0.18 -0.47 L201.55 1.7 L199.11 71.59 L1.66 71.6" stroke="none" stroke-width="0" fill="#1f4d2b"></path><path d="M1.67 0.91 C41.76 -2.17, 79.23 -1.51, 198.51 -0.58 M0.42 -0.48 C46.55 -1.35, 94.52 -1.98, 199.7 -0.54 M201.3 0.25 C200.62 27.69, 201.13 51.28, 199.28 68.07 M199.52 0.29 C199.58 21.63, 200.06 44.14, 200.82 70.16 M200.98 71.32 C121.64 69.11, 45.35 71.57, 1.01 70.96 M200.01 70.49 C157.44 68.28, 116.82 69.07, 0.49 69.66 M-1.5 68.54 C0.41 52.33, 0.14 32.01, 1.87 0.97 M0.19 69.43 C0.06 50.86, 0.35 33.06, -0.47 0.04" stroke="#3fb950" stroke-width="2" fill="none"></path></g><g transform="translate(58 615) rotate(0 92 10)"><text x="92" y="NaN" font-family="Virgil, Segoe UI Emoji" font-size="16px" fill="#ffffff" text-anchor="middle" style="white-space: pre;" direction="ltr">BI / Dashboards</text></g><g stroke-linecap="round" transform="translate(280 590) rotate(0 100 35)"><path d="M0.23 0.81 L199.57 -0.44 L198.64 70.06 L1.48 68.6" stroke="none" stroke-width="0" fill="#1f4d2b"></path><path d="M1.27 1.48 C70.84 2.56, 138.05 2.06, 199.4 -0.91 M0.78 0.64 C76 2.41, 149.88 1.89, 200.89 -0.64 M198.89 -1.01 C201.98 25.53, 201.52 55.3, 200.3 70.38 M200.33 -0.22 C199.59 19.78, 199.62 41.28, 199.55 69.74 M198.38 68.24 C142.33 68.09, 87.52 67.62, -0.62 71.28 M200.03 69.57 C137.1 70.76, 73.93 69.47, -0.3 69.8 M1.07 68.02 C1.18 47.96, -0.18 22.4, -0.69 0.92 M0.51 69.72 C0.01 44.13, -1.06 19.56, -0.6 -0.73" stroke="#3fb950" stroke-width="2" fill="none"></path></g><g transform="translate(288 615) rotate(0 92 10)"><text x="92" y="NaN" font-family="Virgil, Segoe UI Emoji" font-size="16px" fill="#ffffff" text-anchor="middle" style="white-space: pre;" direction="ltr">ML Training</text></g><g stroke-linecap="round" transform="translate(510 590) rotate(0 100 35)"><path d="M0.2 -1.61 L198.3 1.41 L198.52 68.3 L2 68.21" stroke="none" stroke-width="0" fill="#1f4d2b"></path><path d="M-0.42 -0.57 C68.69 -1.01, 141.06 -1.77, 199.06 -0.09 M-0.59 -0.9 C65.6 -1.23, 132.24 -1.6, 199.84 -0.79 M198.51 0.28 C198.25 20.32, 199.01 45.29, 201.31 68.23 M199.04 0.95 C200.81 20.82, 199.2 40.09, 200.1 69.54 M201.52 68.79 C152.72 69.87, 103.89 70.86, 0.8 70.21 M199.53 70.34 C147.92 69.11, 96.57 69.97, -0.88 70.65 M-1.09 68.32 C-2.01 53, 0.03 36.11, 0.97 1.65 M0.86 69.2 C-0.69 47.69, -0.22 25.53, -0.23 0.42" stroke="#3fb950" stroke-width="2" fill="none"></path></g><g transform="translate(518 616.25) rotate(0 92 8.75)"><text x="92" y="NaN" font-family="Virgil, Segoe UI Emoji" font-size="14px" fill="#ffffff" text-anchor="middle" style="white-space: pre;" direction="ltr">Reverse ETL</text><text x="92" y="NaN" font-family="Virgil, Segoe UI Emoji" font-size="14px" fill="#ffffff" text-anchor="middle" style="white-space: pre;" direction="ltr">→ Salesforce</text></g><g stroke-linecap="round" transform="translate(740 590) rotate(0 100 35)"><path d="M-0.99 0.99 L199.17 0.39 L198.05 71.92 L0.79 68.66" stroke="none" stroke-width="0" fill="#1f4d2b"></path><path d="M0.26 1.39 C43 0.47, 85.34 -0.64, 201.1 -1.08 M-0.74 -0.42 C50.47 1.45, 101.3 0.85, 199.73 -0.36 M199.27 1.88 C200.79 17.43, 200.21 32.18, 198.43 69.2 M200.79 0.94 C198.81 26.82, 198.83 52.69, 200.54 69.93 M199.43 70.11 C158.4 70.94, 118.86 70.51, -0.85 69.84 M200.88 69.73 C123.33 69.27, 48.6 68.48, -0.83 69.95 M1.6 68.34 C-0.49 46.33, 0.89 19.38, -0.39 -0.15 M0.94 69.28 C1.35 54.13, 0.37 39.72, 0.79 0.82" stroke="#3fb950" stroke-width="2" fill="none"></path></g><g transform="translate(748 616.25) rotate(0 92 8.75)"><text x="92" y="NaN" font-family="Virgil, Segoe UI Emoji" font-size="14px" fill="#ffffff" text-anchor="middle" style="white-space: pre;" direction="ltr">Realtime APIs</text><text x="92" y="NaN" font-family="Virgil, Segoe UI Emoji" font-size="14px" fill="#ffffff" text-anchor="middle" style="white-space: pre;" direction="ltr">(Flink → Kafka)</text></g><g stroke-linecap="round" transform="translate(970 590) rotate(0 90 35)"><path d="M-1.16 -0.18 L178.39 0.99 L181.2 68.87 L0.53 70.38" stroke="none" stroke-width="0" fill="#1f4d2b"></path><path d="M0.33 -0.34 C70.93 2.24, 140.33 1.79, 180.93 1.1 M-0.81 -0.97 C42.07 2.47, 84.92 1.33, 179.22 0.11 M179.46 1.24 C179.24 16.77, 180.82 33.27, 178.2 71.91 M179.65 -0.24 C180.57 19.89, 180.19 41.8, 179.93 69.17 M180.97 69.51 C137.05 71.23, 91.18 69.87, 0.44 71.62 M180.48 70.83 C118.64 69.79, 56.05 70.43, -0.94 70.08 M1.54 71.97 C0.07 53.18, 0.72 36.53, 0.03 -1.01 M0.35 69.62 C-0.4 47.85, -0.73 26.85, -0.51 -0.24" stroke="#3fb950" stroke-width="2" fill="none"></path></g><g transform="translate(978 616.25) rotate(0 82 8.75)"><text x="82" y="NaN" font-family="Virgil, Segoe UI Emoji" font-size="14px" fill="#ffffff" text-anchor="middle" style="white-space: pre;" direction="ltr">Notebooks /</text><text x="82" y="NaN" font-family="Virgil, Segoe UI Emoji" font-size="14px" fill="#ffffff" text-anchor="middle" style="white-space: pre;" direction="ltr">Ad-hoc SQL</text></g><g stroke-linecap="round"><g transform="translate(1090 450) rotate(0 0 70)"><path d="M-0.92 -0.49 C-1 22.81, -0.53 115.71, -0.25 139.3 M0.8 -1.8 C0.51 21.69, -1.26 116.97, -1.33 140.48" stroke="#58a6ff" stroke-width="2" fill="none"></path></g><g transform="translate(1090 450) rotate(0 0 70)"><path d="M-12.08 111.74 C-9.34 122.58, -3.25 128.83, -2.87 139.31 M-10.71 112.15 C-9.8 118.88, -7.37 124.95, -0.69 141.38" stroke="#58a6ff" stroke-width="2" fill="none"></path></g><g transform="translate(1090 450) rotate(0 0 70)"><path d="M8.44 111.99 C4.56 122.59, 4.03 128.76, -2.87 139.31 M9.81 112.4 C6.36 118.91, 4.43 124.93, -0.69 141.38" stroke="#58a6ff" stroke-width="2" fill="none"></path></g></g><g stroke-linecap="round"><g transform="translate(1060 450) rotate(0 -120 70)"><path d="M-0.89 -0.09 C-40.92 22.99, -200.36 115.61, -240.31 138.89 M0.85 -1.18 C-39.37 21.96, -201 116.2, -241.41 139.84" stroke="#58a6ff" stroke-width="2" fill="none"></path></g><g transform="translate(1060 450) rotate(0 -120 70)"><path d="M-222.38 116.26 C-229.61 122.44, -234.07 128.96, -242.73 140.44 M-222.72 116.35 C-225.66 121.63, -230.68 127.67, -240.58 139.13" stroke="#58a6ff" stroke-width="2" fill="none"></path></g><g transform="translate(1060 450) rotate(0 -120 70)"><path d="M-212.04 133.98 C-222.35 134.91, -229.84 136.25, -242.73 140.44 M-212.38 134.08 C-217.85 135.17, -225.3 137.04, -240.58 139.13" stroke="#58a6ff" stroke-width="2" fill="none"></path></g></g><g stroke-linecap="round"><g transform="translate(1050 450) rotate(0 -220 70)"><path d="M1.13 0.99 C-72.06 24.55, -365.99 117.42, -439.41 140.69 M0.27 0.47 C-73.01 23.74, -366.7 115.9, -440.04 138.94" stroke="#58a6ff" stroke-width="2" fill="none"></path></g><g transform="translate(1050 450) rotate(0 -220 70)"><path d="M-414.57 121.69 C-421.81 127.08, -428.51 130.03, -438.72 138.37 M-416.2 120.59 C-423.9 125.83, -432.64 132.18, -439.35 138.17" stroke="#58a6ff" stroke-width="2" fill="none"></path></g><g transform="translate(1050 450) rotate(0 -220 70)"><path d="M-408.42 141.27 C-417.27 141.25, -425.69 138.75, -438.72 138.37 M-410.06 140.17 C-419.62 139.03, -430.35 139.05, -439.35 138.17" stroke="#58a6ff" stroke-width="2" fill="none"></path></g></g><g stroke-linecap="round"><g transform="translate(1040 450) rotate(0 -335 70)"><path d="M0.79 0.27 C-110.87 23.75, -558.09 117.8, -670.07 141.11 M-0.25 -0.64 C-112.07 22.52, -559.64 115.87, -671.06 139.57" stroke="#58a6ff" stroke-width="2" fill="none"></path></g><g transform="translate(1040 450) rotate(0 -335 70)"><path d="M-645.14 123.61 C-651.17 126.72, -660.25 134.88, -671.36 139.39 M-644.91 123.48 C-653.61 128.79, -663.17 135.35, -670.37 138.81" stroke="#58a6ff" stroke-width="2" fill="none"></path></g><g transform="translate(1040 450) rotate(0 -335 70)"><path d="M-640.92 143.69 C-648.22 140.94, -658.53 143.21, -671.36 139.39 M-640.68 143.56 C-650.88 142.28, -661.82 142.2, -670.37 138.81" stroke="#58a6ff" stroke-width="2" fill="none"></path></g></g><g stroke-linecap="round"><g transform="translate(1030 450) rotate(0 -440 70)"><path d="M0.29 -0.22 C-146.37 23.25, -733.69 117.67, -880.55 141.11 M-1.02 -1.38 C-147.83 21.75, -735.55 116.29, -881.78 139.57" stroke="#58a6ff" stroke-width="2" fill="none"></path></g><g transform="translate(1030 450) rotate(0 -440 70)"><path d="M-855.94 124.06 C-860.26 127.25, -868.03 132.6, -880.58 141.16 M-855.81 124.66 C-863.11 130.21, -871.6 134.2, -881.66 139.85" stroke="#58a6ff" stroke-width="2" fill="none"></path></g><g transform="translate(1030 450) rotate(0 -440 70)"><path d="M-852.69 144.33 C-857.89 142.43, -866.47 142.7, -880.58 141.16 M-852.56 144.92 C-860.67 144.5, -870.11 142.52, -881.66 139.85" stroke="#58a6ff" stroke-width="2" fill="none"></path></g></g><g transform="translate(10 710) rotate(0 475.20000000000005 11.199999999999989)"><text x="0" y="NaN" font-family="Virgil, Segoe UI Emoji" font-size="16px" fill="#8b949e" text-anchor="start" style="white-space: pre;" direction="ltr">Governance spans every layer: catalog (Unity / Polaris / Glue) · lineage · quality · access control · audit.</text></g><g transform="translate(10 736) rotate(0 413.6 11.199999999999989)"><text x="0" y="NaN" font-family="Virgil, Segoe UI Emoji" font-size="16px" fill="#8b949e" text-anchor="start" style="white-space: pre;" direction="ltr">Each layer is a contract: upstream changes stop at the next boundary so consumers don't churn.</text></g></svg>