<svg version="1.1" xmlns="http://www.w3.org/2000/svg" viewBox="0 0 990 576" width="990" height="576">
  <!-- svg-source:excalidraw -->
  
  <defs>
    <style>
      @font-face {
        font-family: "Virgil";
        src: url("https://excalidraw.com/Virgil.woff2");
      }
      @font-face {
        font-family: "Cascadia";
        src: url("https://excalidraw.com/Cascadia.woff2");
      }
    </style>
  </defs>
  <rect x="0" y="0" width="990" height="576" fill="#1e1e2e"></rect><g transform="translate(10 10) rotate(0 342.0148620605469 18.75)"><text x="0" y="NaN" font-family="Virgil, Segoe UI Emoji" font-size="30px" fill="#ffffff" text-anchor="start" style="white-space: pre;" direction="ltr">Which Data Structure Fits Which Query Shape</text></g><g transform="translate(10 50) rotate(0 296.71185302734375 15)"><text x="0" y="NaN" font-family="Virgil, Segoe UI Emoji" font-size="24px" fill="#cdd6f4" text-anchor="start" style="white-space: pre;" direction="ltr">Start from the query, then choose the structure.</text></g><g stroke-linecap="round" transform="translate(50 260) rotate(0 90 50)"><path d="M-1.24 -0.41 L179.43 1.18 L180.06 99.46 L-1.15 101.59" stroke="none" stroke-width="0" fill="#9f1239"></path><path d="M1.34 0.36 C38.63 -0.85, 79.19 -0.66, 181.65 -0.7 M0.09 -0.28 C56.59 2.63, 113.16 1.09, 179.6 -0.97 M178.5 1.52 C181.92 28.86, 179.52 59.98, 181.14 98.23 M180.2 0.91 C180.09 31.73, 181.33 64.39, 179.54 100.74 M180.47 101.17 C112.58 98.89, 48.63 98.07, -0.99 99.89 M179.58 100.35 C120.69 101.33, 60.91 100.12, 0.49 99.59 M1.98 100.72 C0.8 71.7, -1.59 46.62, -1.84 1.65 M0.92 99.88 C-0.87 72.59, -0.13 42.76, -0.83 -0.94" stroke="#e11d48" stroke-width="2" fill="none"></path></g><g transform="translate(73.61603546142578 265) rotate(0 66.38396453857422 45)"><text x="66.38396453857422" y="NaN" font-family="Virgil, Segoe UI Emoji" font-size="24px" fill="#ffffff" text-anchor="middle" style="white-space: pre;" direction="ltr">What query</text><text x="66.38396453857422" y="NaN" font-family="Virgil, Segoe UI Emoji" font-size="24px" fill="#ffffff" text-anchor="middle" style="white-space: pre;" direction="ltr">do</text><text x="66.38396453857422" y="NaN" font-family="Virgil, Segoe UI Emoji" font-size="24px" fill="#ffffff" text-anchor="middle" style="white-space: pre;" direction="ltr">I need?</text></g><g stroke-linecap="round" transform="translate(330 80) rotate(0 110 48)"><path d="M-0.44 -1.57 L221.52 0.8 L220.57 95.93 L0.7 96.66" stroke="none" stroke-width="0" fill="#2d6a4f"></path><path d="M-0.82 -1.49 C46.88 0.63, 95.57 -0.75, 220.06 0.08 M0.69 0.21 C79.31 0.65, 157.24 0.06, 220.38 0.46 M221.57 -1.98 C219.2 33.49, 218.18 65.05, 219.92 96.49 M220.79 -0.69 C219.23 24.64, 218.52 49.71, 220.36 95.44 M218.77 96.65 C132.89 94.66, 45.77 96.47, -1.14 95.2 M219.73 96.06 C157.93 96.45, 95.4 96.66, 0.32 95.71 M0.54 96.16 C-0.13 72.26, -1.99 50.22, -0.66 -0.77 M-0.65 95.88 C0.31 75.37, 0.07 55.14, 0.05 -0.96" stroke="#40916c" stroke-width="2" fill="none"></path></g><g transform="translate(363.33204650878906 98) rotate(0 76.66795349121094 30)"><text x="76.66795349121094" y="NaN" font-family="Virgil, Segoe UI Emoji" font-size="24px" fill="#ffffff" text-anchor="middle" style="white-space: pre;" direction="ltr">Exact lookup</text><text x="76.66795349121094" y="NaN" font-family="Virgil, Segoe UI Emoji" font-size="24px" fill="#ffffff" text-anchor="middle" style="white-space: pre;" direction="ltr">Hashing</text></g><g stroke-linecap="round" transform="translate(330 210) rotate(0 110 48)"><path d="M0.36 1.28 L219.62 0.42 L221.07 96.4 L-1.44 95.72" stroke="none" stroke-width="0" fill="#5b21b6"></path><path d="M0.67 0.19 C46.32 -1.59, 94.6 -1.06, 218.68 0.76 M-0.43 0.67 C87.74 -1.32, 176.18 -1.16, 219.38 0.03 M220.65 -1.48 C222.43 35.31, 222.8 68.49, 218.71 94.76 M219.39 -0.29 C220.32 38.05, 219.65 76.02, 219.17 96.15 M220.59 96.28 C168.31 94.28, 117.06 95.16, -1.43 94.5 M219.83 95.81 C168.37 97.35, 117.98 97.09, 0.22 95.79 M-0.9 95.6 C-1.08 75.74, 1.6 55.64, 0.53 0.82 M-0.21 95.88 C-0.42 63.82, 0.35 30.85, 0.93 -0.99" stroke="#7c3aed" stroke-width="2" fill="none"></path></g><g transform="translate(346.2080383300781 228) rotate(0 93.79196166992188 30)"><text x="93.79196166992188" y="NaN" font-family="Virgil, Segoe UI Emoji" font-size="24px" fill="#ffffff" text-anchor="middle" style="white-space: pre;" direction="ltr">Order / range</text><text x="93.79196166992188" y="NaN" font-family="Virgil, Segoe UI Emoji" font-size="24px" fill="#ffffff" text-anchor="middle" style="white-space: pre;" direction="ltr">B-tree, skip list</text></g><g stroke-linecap="round" transform="translate(330 340) rotate(0 110 48)"><path d="M1.16 0.12 L221.71 0.04 L221.58 96.87 L0.41 94.79" stroke="none" stroke-width="0" fill="#1e40af"></path><path d="M-1.31 -1.61 C49.24 -0.35, 97.1 -1.36, 220.77 1.44 M0.18 -0.6 C53.89 0.52, 107.12 1.43, 220.1 -0.39 M219.72 -0.98 C219.74 17.93, 221.49 37.52, 221.49 97.02 M219.99 0.11 C221.4 32.26, 220.79 63.94, 219.98 96.85 M218.95 95.91 C163.2 97.37, 103.81 97.3, -1.71 97.27 M219.93 95.56 C134.82 94.43, 50.82 93.7, 0.11 95.86 M1.66 95.03 C0.05 60.02, -0.74 22.67, 1.71 -1.59 M0.23 95.87 C0.77 69.47, 0.55 44.97, -0.19 0.99" stroke="#3b82f6" stroke-width="2" fill="none"></path></g><g transform="translate(355.31605529785156 358) rotate(0 84.68394470214844 30)"><text x="84.68394470214844" y="NaN" font-family="Virgil, Segoe UI Emoji" font-size="24px" fill="#ffffff" text-anchor="middle" style="white-space: pre;" direction="ltr">Text search</text><text x="84.68394470214844" y="NaN" font-family="Virgil, Segoe UI Emoji" font-size="24px" fill="#ffffff" text-anchor="middle" style="white-space: pre;" direction="ltr">Inverted index</text></g><g stroke-linecap="round" transform="translate(330 470) rotate(0 110 48)"><path d="M1.95 -1.04 L219.8 -0.33 L218.09 97.33 L-1.74 97.85" stroke="none" stroke-width="0" fill="#b45309"></path><path d="M0.17 0.06 C48.69 1.24, 96.13 2.15, 219.4 -1.35 M0.78 -0.14 C62.32 -1.45, 126.06 -1.53, 220.83 -0.82 M218.79 -0.48 C221.05 23.75, 220.18 44.96, 220.27 95.28 M220.58 0.51 C218.57 26.48, 220 51.86, 220.8 95.55 M220.77 95.54 C154.63 97, 90.57 95.99, 1.47 96.57 M220.03 95.31 C145.27 95.32, 71.67 94.12, 0 95.93 M0.22 94.47 C-0.9 59.49, -1.16 24.09, -1.11 0 M0.66 95.87 C0.03 57.92, -1.17 20.68, 0.69 0.96" stroke="#d97706" stroke-width="2" fill="none"></path></g><g transform="translate(346.06404876708984 488) rotate(0 93.93595123291016 30)"><text x="93.93595123291016" y="NaN" font-family="Virgil, Segoe UI Emoji" font-size="24px" fill="#ffffff" text-anchor="middle" style="white-space: pre;" direction="ltr">Geo / multi-dim</text><text x="93.93595123291016" y="NaN" font-family="Virgil, Segoe UI Emoji" font-size="24px" fill="#ffffff" text-anchor="middle" style="white-space: pre;" direction="ltr">R-tree, KD-tree</text></g><g stroke-linecap="round"><g transform="translate(235.85538267794374 281.10380578479806) rotate(0 44.08294947193147 -63.803348565272785)"><path d="M0.48 -0.82 C15.12 -22.09, 72.36 -106.58, 87.17 -127.62 M-0.72 1.37 C14.34 -19.71, 74.37 -104.34, 89.36 -126.08" stroke="#3b82f6" stroke-width="2" fill="none"></path></g><g transform="translate(235.85538267794374 281.10380578479806) rotate(0 44.08294947193147 -63.803348565272785)"><path d="M80.22 -98.77 C83.47 -102.24, 86.31 -111.21, 88.3 -127.24 M80.85 -96.42 C82.68 -104.05, 84.83 -109.06, 88.49 -126.38" stroke="#3b82f6" stroke-width="2" fill="none"></path></g><g transform="translate(235.85538267794374 281.10380578479806) rotate(0 44.08294947193147 -63.803348565272785)"><path d="M63.41 -110.54 C70.78 -111.2, 77.74 -117.28, 88.3 -127.24 M64.04 -108.2 C69.65 -113.3, 75.46 -115.74, 88.49 -126.38" stroke="#3b82f6" stroke-width="2" fill="none"></path></g></g><g stroke-linecap="round"><g transform="translate(236 299.89754629961186) rotate(0 44 -16.446783510181888)"><path d="M-0.47 0.9 C14.43 -4.46, 73.92 -26.1, 88.78 -31.89 M1.48 0.32 C16.35 -5.37, 73.78 -27.93, 88.25 -33.49" stroke="#3b82f6" stroke-width="2" fill="none"></path></g><g transform="translate(236 299.89754629961186) rotate(0 44 -16.446783510181888)"><path d="M67.19 -12.4 C72.85 -17.31, 75.07 -22.92, 88.4 -32.25 M65.31 -13.75 C70.26 -19.16, 75.76 -23.16, 87.8 -34.04" stroke="#3b82f6" stroke-width="2" fill="none"></path></g><g transform="translate(236 299.89754629961186) rotate(0 44 -16.446783510181888)"><path d="M59.75 -31.53 C67.27 -31.71, 71.31 -32.64, 88.4 -32.25 M57.87 -32.88 C64.55 -33.68, 71.82 -33.11, 87.8 -34.04" stroke="#3b82f6" stroke-width="2" fill="none"></path></g></g><g stroke-linecap="round"><g transform="translate(236 324.48597347823545) rotate(0 44 25.34119191728604)"><path d="M0.97 0.21 C15.77 8.52, 73.62 41.9, 88.16 50.29 M0.02 -0.72 C14.73 7.71, 72.71 42.86, 87.3 51.62" stroke="#3b82f6" stroke-width="2" fill="none"></path></g><g transform="translate(236 324.48597347823545) rotate(0 44 25.34119191728604)"><path d="M58.21 46.12 C64.44 47.35, 72.11 49.11, 88.65 51.25 M57.83 45.07 C66.11 46.64, 73.53 48.3, 87.27 50.82" stroke="#3b82f6" stroke-width="2" fill="none"></path></g><g transform="translate(236 324.48597347823545) rotate(0 44 25.34119191728604)"><path d="M68.81 28.54 C72.51 34.17, 77.58 40.23, 88.65 51.25 M68.42 27.49 C74.04 33.55, 78.7 39.79, 87.27 50.82" stroke="#3b82f6" stroke-width="2" fill="none"></path></g></g><g stroke-linecap="round"><g transform="translate(235.57528527049396 341.52129246363836) rotate(0 44.29218418200878 74.23362739525567)"><path d="M0.01 -0.48 C14.81 24.26, 73.41 124.13, 88.12 149.08 M-1.44 -1.77 C13.21 22.56, 72.14 122.44, 86.93 147.28" stroke="#3b82f6" stroke-width="2" fill="none"></path></g><g transform="translate(235.57528527049396 341.52129246363836) rotate(0 44.29218418200878 74.23362739525567)"><path d="M62.94 127.5 C70.55 132.41, 76.45 138.52, 85.5 145.31 M64.05 128.75 C70.13 134.34, 76.07 139.29, 87.33 148.24" stroke="#3b82f6" stroke-width="2" fill="none"></path></g><g transform="translate(235.57528527049396 341.52129246363836) rotate(0 44.29218418200878 74.23362739525567)"><path d="M80.6 117.03 C83.93 124.51, 85.51 133.19, 85.5 145.31 M81.71 118.28 C82.73 126.91, 83.69 134.81, 87.33 148.24" stroke="#3b82f6" stroke-width="2" fill="none"></path></g></g><g stroke-linecap="round" transform="translate(730 80) rotate(0 125 48)"><path d="M0.35 -0.51 L248.07 -1.47 L249.61 94.74 L-0.19 95.05" stroke="none" stroke-width="0" fill="#1e40af"></path><path d="M1.1 1.51 C53.63 -1.96, 109.74 -2.22, 248.81 0.65 M-0.81 -0.47 C53.44 2.12, 105.98 2.52, 249.57 -0.35 M250.01 1.03 C250.82 33.22, 250.11 67.28, 250.61 94.06 M250.37 -0.28 C249.92 26.31, 249.49 54.02, 249.24 95.67 M249.35 94.52 C154.13 95.84, 57.5 95.49, 0.59 94.56 M250.3 96.28 C152.52 96.26, 54.33 95.43, -0.29 96.14 M-0.11 96.78 C-1.68 69.92, -0.33 40.37, -1.55 0.76 M-0.03 95.86 C-0.32 59.66, -0.49 24.62, -0.66 0.89" stroke="#3b82f6" stroke-width="2" fill="none"></path></g><g transform="translate(752.6760635375977 98) rotate(0 102.32393646240234 30)"><text x="102.32393646240234" y="NaN" font-family="Virgil, Segoe UI Emoji" font-size="24px" fill="#ffffff" text-anchor="middle" style="white-space: pre;" direction="ltr">Fast point reads</text><text x="102.32393646240234" y="NaN" font-family="Virgil, Segoe UI Emoji" font-size="24px" fill="#ffffff" text-anchor="middle" style="white-space: pre;" direction="ltr">No range ordering</text></g><g stroke-linecap="round" transform="translate(730 210) rotate(0 125 48)"><path d="M1.15 -1.66 L250.16 -1.85 L250.12 95.21 L1.66 94.11" stroke="none" stroke-width="0" fill="#9f1239"></path><path d="M-0.77 -0.18 C53.11 -0.89, 108.83 -2.61, 250.78 1.29 M-0.23 -0.04 C63.2 0.05, 127.48 -0.48, 250.26 -0.76 M249.09 1.53 C248.14 35.04, 248.8 70.72, 249.39 96.32 M250.96 0.12 C249.01 20.52, 250.63 41.94, 250.05 96.37 M251.07 97.43 C194.71 95.48, 139.07 94.24, 0.32 97.17 M250.39 96.04 C164.42 97.16, 78.08 95.88, -0.39 96.21 M-1.55 96.22 C1.37 69.4, -0.74 45.79, -0.37 -1.65 M0.4 95.85 C0.86 67.31, -0.29 36.73, 0.22 0.87" stroke="#e11d48" stroke-width="2" fill="none"></path></g><g transform="translate(776.712043762207 228) rotate(0 78.28795623779297 30)"><text x="78.28795623779297" y="NaN" font-family="Virgil, Segoe UI Emoji" font-size="24px" fill="#ffffff" text-anchor="middle" style="white-space: pre;" direction="ltr">Sorted pages</text><text x="78.28795623779297" y="NaN" font-family="Virgil, Segoe UI Emoji" font-size="24px" fill="#ffffff" text-anchor="middle" style="white-space: pre;" direction="ltr">Slower writes</text></g><g stroke-linecap="round" transform="translate(730 340) rotate(0 125 48)"><path d="M1.95 1.18 L248.25 1.78 L250.63 95.67 L-0.49 97.18" stroke="none" stroke-width="0" fill="#5b21b6"></path><path d="M0.63 1.4 C55.85 1, 107.92 1.09, 249.48 -1.33 M0.34 0.39 C74.6 -2.02, 148.97 -1.85, 249.31 0.47 M248.16 -1.97 C251.37 21.66, 249.42 39.76, 248.17 94.59 M249.56 0.52 C250.09 33.93, 249.76 68.25, 250.87 95.08 M249.53 97.09 C188.56 95.12, 123.92 96.26, 0.05 96.51 M250.49 95.81 C176.32 96.42, 101.84 96.34, -0.49 96.28 M1.01 95.65 C0.42 72.87, -1.16 51.22, 0.81 -0.06 M0.84 95.85 C0.05 72.96, 1.91 50.84, -0.9 0.84" stroke="#7c3aed" stroke-width="2" fill="none"></path></g><g transform="translate(756.6600494384766 358) rotate(0 98.33995056152344 30)"><text x="98.33995056152344" y="NaN" font-family="Virgil, Segoe UI Emoji" font-size="24px" fill="#ffffff" text-anchor="middle" style="white-space: pre;" direction="ltr">Term -&gt; postings</text><text x="98.33995056152344" y="NaN" font-family="Virgil, Segoe UI Emoji" font-size="24px" fill="#ffffff" text-anchor="middle" style="white-space: pre;" direction="ltr">Update heavy</text></g><g stroke-linecap="round" transform="translate(730 470) rotate(0 125 48)"><path d="M-1.25 0.02 L250.34 1.4 L251.13 96.14 L1.36 96.24" stroke="none" stroke-width="0" fill="#b45309"></path><path d="M-1.24 -0.3 C55.33 2.07, 110.27 0.7, 251.45 -0.69 M-0.72 -0.81 C85.99 0, 170.46 0.87, 249.99 0.07 M251.23 -1.47 C248.68 23.48, 248.11 47.2, 250.95 96.85 M250.15 0.92 C249.26 28.15, 248.98 56.17, 249.68 95.78 M251.25 96.74 C179.14 94.76, 108.76 95.01, -0.21 95.85 M250.58 95.57 C188.22 97.32, 125.59 96.79, -0.59 96.35 M-0.43 95.09 C-0.53 76.35, 2.42 56.64, 2 1.52 M-0.72 95.85 C-0.68 61.41, 0.19 26.56, -0.02 0.82" stroke="#d97706" stroke-width="2" fill="none"></path></g><g transform="translate(775.6680603027344 488) rotate(0 79.33193969726562 30)"><text x="79.33193969726562" y="NaN" font-family="Virgil, Segoe UI Emoji" font-size="24px" fill="#ffffff" text-anchor="middle" style="white-space: pre;" direction="ltr">Region pruning</text><text x="79.33193969726562" y="NaN" font-family="Virgil, Segoe UI Emoji" font-size="24px" fill="#ffffff" text-anchor="middle" style="white-space: pre;" direction="ltr">Skew hurts</text></g></svg>