<svg version="1.1" xmlns="http://www.w3.org/2000/svg" viewBox="0 0 1380 480" width="1380" height="480">
  <!-- svg-source:excalidraw -->
  
  <defs>
    <style>
      @font-face {
        font-family: "Virgil";
        src: url("https://excalidraw.com/Virgil.woff2");
      }
      @font-face {
        font-family: "Cascadia";
        src: url("https://excalidraw.com/Cascadia.woff2");
      }
    </style>
  </defs>
  <rect x="0" y="0" width="1380" height="480" fill="#1e1e2e"></rect><g transform="translate(10 10) rotate(0 379.50000000000006 19.950000000000003)"><text x="0" y="NaN" font-family="Virgil, Segoe UI Emoji" font-size="30px" fill="#ffffff" text-anchor="start" style="white-space: pre;" direction="ltr">Scale and Reliability Primitives Work Together</text></g><g transform="translate(10 50) rotate(0 396.00000000000006 16)"><text x="0" y="NaN" font-family="Virgil, Segoe UI Emoji" font-size="24px" fill="#cdd6f4" text-anchor="start" style="white-space: pre;" direction="ltr">Partitioning spreads load; coordination decides correctness.</text></g><g transform="translate(50 170) rotate(0 79.2 16)"><text x="0" y="NaN" font-family="Virgil, Segoe UI Emoji" font-size="24px" fill="#a6adc8" text-anchor="start" style="white-space: pre;" direction="ltr">Scaling data</text></g><g transform="translate(570 170) rotate(0 118.80000000000001 16)"><text x="0" y="NaN" font-family="Virgil, Segoe UI Emoji" font-size="24px" fill="#a6adc8" text-anchor="start" style="white-space: pre;" direction="ltr">Keeping it correct</text></g><g transform="translate(1060 170) rotate(0 138.60000000000002 16)"><text x="0" y="NaN" font-family="Virgil, Segoe UI Emoji" font-size="24px" fill="#a6adc8" text-anchor="start" style="white-space: pre;" direction="ltr">Protecting the system</text></g><g stroke-linecap="round" transform="translate(90 240) rotate(0 75 45)"><path d="M-0.04 -0.14 L150.57 0.61 L148.82 90.16 L-0.37 90.19" stroke="none" stroke-width="0" fill="#5b21b6"></path><path d="M1.91 1.25 C33.13 1.12, 66.43 0.63, 151.27 -1.52 M-0.85 -0.49 C57.08 1.33, 112.78 0.08, 150.86 0.29 M151.11 -1.73 C148.79 32.31, 148.46 64.57, 149.32 91.63 M150.09 -0.49 C149.69 29.37, 150 59.9, 149.76 90.79 M151.63 88.53 C117.66 90.27, 83.57 91.82, -1.48 90.68 M149.75 90.92 C112.16 90.01, 71.77 89.98, 0.31 90.71 M1.82 91.88 C-0.62 60.39, -0.21 29.71, 1.94 0.03 M0.57 89.88 C-0.97 56.25, -0.7 22.3, -0.51 -0.98" stroke="#7c3aed" stroke-width="2" fill="none"></path></g><g transform="translate(108 270) rotate(0 57 16)"><text x="57" y="NaN" font-family="Virgil, Segoe UI Emoji" font-size="24px" fill="#ffffff" text-anchor="middle" style="white-space: pre;" direction="ltr">Partitioning</text></g><g stroke-linecap="round" transform="translate(290 240) rotate(0 75 45)"><path d="M0.76 -1.3 L148.66 0.23 L149.33 90.63 L1.48 89.26" stroke="none" stroke-width="0" fill="#1e40af"></path><path d="M-0.37 -0.82 C32.49 -1.16, 65.31 0.56, 149.69 -0.73 M-0.15 0.04 C32.37 -0.34, 65.76 -0.72, 149.7 -0.21 M150.18 -1.23 C150.15 33.92, 151.21 67.59, 148.1 89.89 M150.69 -0.09 C148.94 23.96, 149.3 48.58, 150.58 89.5 M149.73 88.1 C111.02 89.85, 74.8 90.31, -1.81 89.87 M149.86 90.63 C119.21 90.88, 87.81 90.31, 0.19 90.8 M0.38 91.31 C2.4 63.71, -0.66 34.82, -0.88 1.62 M-0.99 89.87 C0.17 63.46, -0.55 35.54, 0.37 -1" stroke="#3b82f6" stroke-width="2" fill="none"></path></g><g transform="translate(308 270) rotate(0 57 16)"><text x="57" y="NaN" font-family="Virgil, Segoe UI Emoji" font-size="24px" fill="#ffffff" text-anchor="middle" style="white-space: pre;" direction="ltr">Replication</text></g><g stroke-linecap="round" transform="translate(190 380) rotate(0 75 45)"><path d="M1.56 1.54 L150.75 -0.15 L149.83 91.1 L-0.67 88.32" stroke="none" stroke-width="0" fill="#2d6a4f"></path><path d="M1.34 1.11 C31.85 0.56, 64.19 0.49, 148.1 0.05 M0.55 0.57 C39.65 1, 78.74 1.47, 150.54 -0.7 M149.26 -0.73 C149.32 21.53, 151.76 38.61, 150.88 88.15 M149.28 0.31 C149.99 18.55, 150.4 37.26, 149.39 90.2 M151.84 91.68 C108.38 89.43, 66.03 88.81, 1.86 89.06 M149.97 90.35 C96.26 89.76, 41.86 90.64, 0.07 90.88 M-1.06 90.75 C-0.39 63.03, 1.09 39.93, 0.3 -0.8 M-0.56 89.87 C1.32 68.67, 1.61 48.79, -0.75 0.98" stroke="#40916c" stroke-width="2" fill="none"></path></g><g transform="translate(208 410) rotate(0 57 16)"><text x="57" y="NaN" font-family="Virgil, Segoe UI Emoji" font-size="24px" fill="#ffffff" text-anchor="middle" style="white-space: pre;" direction="ltr">Quorums</text></g><g stroke-linecap="round"><g transform="translate(240 285) rotate(0 25 0)"><path d="M-0.17 0.63 C8.19 0.5, 41.39 -0.7, 49.56 -0.87 M-1.72 -0.09 C6.49 -0.09, 39.58 0.07, 48.38 0.21" stroke="#3b82f6" stroke-width="2" fill="none"></path></g></g><g stroke-linecap="round"><g transform="translate(365 330) rotate(0 -50 25)"><path d="M-1.13 -0.06 C-17.87 8.28, -84.7 41.72, -101.06 50.14 M0.48 -1.14 C-15.85 7.41, -82.22 43.49, -98.91 51.75" stroke="#3b82f6" stroke-width="2" fill="none"></path></g></g><g stroke-linecap="round" transform="translate(590 240) rotate(0 70 45)"><path d="M-0.85 -0.77 L140.93 -0.9 L140.85 88.04 L-0.97 90.45" stroke="none" stroke-width="0" fill="#b45309"></path><path d="M0.77 0.96 C32.4 0.08, 61.6 0.44, 138.92 1.62 M-0.04 -0.37 C48.73 -0.26, 97.73 -2.07, 140.22 0.31 M141.4 0.28 C139.85 24.75, 141.06 52.65, 138.44 88.67 M140.47 -0.88 C138.29 25.73, 138.79 50.61, 139.02 89.61 M138.05 90.82 C92.51 88.61, 45.3 89.81, 1.21 91.45 M140.2 89.77 C103.01 91.43, 65.24 91.23, -0.18 89.05 M0.05 89.62 C1.64 69.66, 0.19 50.14, -1.33 -1.62 M0.31 89.86 C-0.2 65.1, 0.11 39.27, -0.99 0.93" stroke="#d97706" stroke-width="2" fill="none"></path></g><g transform="translate(608 255) rotate(0 52 30)"><text x="52" y="NaN" font-family="Virgil, Segoe UI Emoji" font-size="24px" fill="#ffffff" text-anchor="middle" style="white-space: pre;" direction="ltr">Leader</text><text x="52" y="NaN" font-family="Virgil, Segoe UI Emoji" font-size="24px" fill="#ffffff" text-anchor="middle" style="white-space: pre;" direction="ltr">election</text></g><g stroke-linecap="round" transform="translate(790 240) rotate(0 70 45)"><path d="M-0.05 -1.93 L139.03 -1.28 L141.36 88.5 L0.89 89.52" stroke="none" stroke-width="0" fill="#9f1239"></path><path d="M-1.52 -1.11 C31.76 0.64, 60.48 -0.79, 141.34 -1.6 M0.66 0.16 C55.59 0.96, 109.86 0.01, 139.06 -0.19 M140.48 0.78 C141.22 30.36, 139.81 59.67, 141.22 90.93 M139.07 -0.48 C139.34 18.32, 139.89 39.29, 139.83 90.32 M140.16 90.4 C86.18 88.19, 37.16 88.31, 0.88 90.64 M140.31 89.48 C109.58 90.28, 78.33 91.54, -0.3 89.13 M-1.39 89.06 C0.66 54.98, -0.26 19.25, -0.15 -0.03 M0.75 89.86 C-0.86 70.32, -1.53 52.51, -0.1 0.9" stroke="#e11d48" stroke-width="2" fill="none"></path></g><g transform="translate(808 270) rotate(0 52 16)"><text x="52" y="NaN" font-family="Virgil, Segoe UI Emoji" font-size="24px" fill="#ffffff" text-anchor="middle" style="white-space: pre;" direction="ltr">Consensus</text></g><g stroke-linecap="round" transform="translate(690 380) rotate(0 70 45)"><path d="M0.75 0.91 L141.12 -1.66 L141.86 88.97 L-1.26 88.58" stroke="none" stroke-width="0" fill="#2d6a4f"></path><path d="M0.2 0.82 C31.12 2.4, 59.36 -0.81, 139.75 -0.81 M-0.64 0.69 C32.44 -0.62, 65.99 -0.71, 139.9 -0.68 M139.55 1.28 C140.39 31.97, 140.36 62.69, 140 89.19 M139.66 -0.08 C140.39 30.91, 140.99 63.96, 140.64 89.02 M138.26 89.97 C111.85 87.78, 85.02 90.81, 0.56 89.84 M140.43 89.2 C88.15 88.33, 37.41 89.04, -0.42 89.21 M1.17 88.5 C-2.13 58.3, 1.49 24.36, 1.04 1.56 M-0.81 89.86 C0.28 59.53, 0.62 27.76, 0.78 0.88" stroke="#40916c" stroke-width="2" fill="none"></path></g><g transform="translate(708 410) rotate(0 52 16)"><text x="52" y="NaN" font-family="Virgil, Segoe UI Emoji" font-size="24px" fill="#ffffff" text-anchor="middle" style="white-space: pre;" direction="ltr">CRDTs</text></g><g stroke-linecap="round"><g transform="translate(730 285) rotate(0 30 0)"><path d="M-0.63 -0.06 C9.37 0.08, 49.35 0.1, 59.38 0 M1.24 -1.14 C11.69 -0.72, 52.21 1.29, 61.77 1.53" stroke="#e11d48" stroke-width="2" fill="none"></path></g></g><g stroke-linecap="round"><g transform="translate(660 330) rotate(0 50 25)"><path d="M0.82 -0.75 C17.78 7.86, 84.78 42.51, 101.16 51 M-0.22 1.48 C16.74 9.83, 83.87 41.05, 100.82 49.41" stroke="#3b82f6" stroke-width="2" fill="none"></path></g></g><g stroke-linecap="round" transform="translate(1080 240) rotate(0 60 45)"><path d="M-1.65 -1.4 L121.3 1.59 L118.88 89.91 L-1.56 90.71" stroke="none" stroke-width="0" fill="#b45309"></path><path d="M-0.37 0.67 C25.48 -1.99, 52.4 -0.77, 120.58 0.76 M0.77 -0.26 C37.76 -0.94, 77.45 0.69, 119.57 0.33 M121.7 -1.72 C119.12 21.19, 117.86 40.73, 121.56 89.72 M120.86 0.72 C120.69 20.09, 119.39 41.32, 120.27 90.43 M118.47 89.12 C88.52 90.99, 55.37 87.84, -0.1 88.22 M120.65 90.62 C86.73 90.11, 54.46 89.73, -0.67 89.38 M-1.71 91.37 C-0.1 60.93, 0.59 30.58, -0.6 0.73 M0.06 89.85 C-1.24 53.96, -0.87 18.24, 0.54 0.83" stroke="#d97706" stroke-width="2" fill="none"></path></g><g transform="translate(1098 270) rotate(0 42 16)"><text x="42" y="NaN" font-family="Virgil, Segoe UI Emoji" font-size="24px" fill="#ffffff" text-anchor="middle" style="white-space: pre;" direction="ltr">Retries</text></g><g stroke-linecap="round" transform="translate(1250 240) rotate(0 60 45)"><path d="M-0.85 1.44 L119.39 1.21 L119.39 90.38 L0.29 89.78" stroke="none" stroke-width="0" fill="#9f1239"></path><path d="M1.34 -1.4 C24.84 -0.15, 51.29 -0.72, 118.99 1.54 M-0.53 0.27 C43.76 2.05, 87.87 0.55, 120.41 -0.16 M120.77 -1.22 C118.29 22.8, 118.41 47.75, 120.35 91.98 M119.45 -0.88 C119.75 32.68, 120.48 66, 119.09 89.13 M120.58 88.69 C82.82 90.58, 48.48 90.35, -0.43 91.41 M120.76 90.33 C92.33 88.91, 65.61 89.99, -0.79 89.47 M0.85 90.81 C1.12 64.25, -1.66 35.69, 0.59 -1.68 M0.49 89.85 C-0.1 61.17, -0.72 31.49, -0.58 0.81" stroke="#e11d48" stroke-width="2" fill="none"></path></g><g transform="translate(1268 270) rotate(0 42 16)"><text x="42" y="NaN" font-family="Virgil, Segoe UI Emoji" font-size="24px" fill="#ffffff" text-anchor="middle" style="white-space: pre;" direction="ltr">Backpressure</text></g><g stroke-linecap="round" transform="translate(1165 380) rotate(0 60 45)"><path d="M-0.05 0.29 L121.48 0.83 L119.89 90.85 L-1.86 88.84" stroke="none" stroke-width="0" fill="#2d6a4f"></path><path d="M-0.94 0.53 C24.2 0.09, 54.17 1.74, 121.4 -1.67 M0.18 0.8 C23.77 0.64, 50.29 0, 119.25 -0.66 M119.84 -0.72 C119.65 28.42, 121.16 54.77, 119.13 90.24 M120.05 -0.48 C120.8 27.28, 121.58 52.67, 119.9 89.84 M118.68 88.26 C81.12 90.16, 41.59 88.85, -0.75 90.61 M120.88 90.05 C73.94 89.71, 30.77 90.25, -0.91 89.55 M-0.59 90.25 C0.14 67.57, -2.11 40.8, 1.77 -0.09 M0.93 89.84 C1.04 68.39, 1.43 44.73, 0.3 0.79" stroke="#40916c" stroke-width="2" fill="none"></path></g><g transform="translate(1183 410) rotate(0 42 16)"><text x="42" y="NaN" font-family="Virgil, Segoe UI Emoji" font-size="24px" fill="#ffffff" text-anchor="middle" style="white-space: pre;" direction="ltr">Rate limit</text></g><g stroke-linecap="round"><g transform="translate(1200 285) rotate(0 25 0)"><path d="M-1.08 -0.74 C7.22 -0.73, 40.64 0.9, 49.21 0.86 M0.55 1.48 C9.29 1.09, 43.3 -0.54, 51.51 -0.81" stroke="#e11d48" stroke-width="2" fill="none"></path></g></g><g stroke-linecap="round"><g transform="translate(1310 330) rotate(0 -42.5 25)"><path d="M0.36 0.97 C-13.54 9.05, -69.76 41.31, -84.01 49.47 M-0.91 0.43 C-14.83 8.59, -70.26 42.27, -84.44 50.73" stroke="#e11d48" stroke-width="2" fill="none"></path></g></g></svg>