<svg version="1.1" xmlns="http://www.w3.org/2000/svg" viewBox="0 0 1280 570" width="1280" height="570">
  <!-- svg-source:excalidraw -->
  
  <defs>
    <style>
      @font-face {
        font-family: "Virgil";
        src: url("https://excalidraw.com/Virgil.woff2");
      }
      @font-face {
        font-family: "Cascadia";
        src: url("https://excalidraw.com/Cascadia.woff2");
      }
    </style>
  </defs>
  <rect x="0" y="0" width="1280" height="570" fill="#1e1e2e"></rect><g transform="translate(10 10) rotate(0 198.00000000000003 19.950000000000003)"><text x="0" y="NaN" font-family="Virgil, Segoe UI Emoji" font-size="30px" fill="#ffffff" text-anchor="start" style="white-space: pre;" direction="ltr">Three Persistence Shapes</text></g><g transform="translate(10 50) rotate(0 349.8 16)"><text x="0" y="NaN" font-family="Virgil, Segoe UI Emoji" font-size="24px" fill="#cdd6f4" text-anchor="start" style="white-space: pre;" direction="ltr">Durability is easy to say and expensive to implement.</text></g><g transform="translate(120 130) rotate(0 107.25 17.289999999999992)"><text x="0" y="NaN" font-family="Virgil, Segoe UI Emoji" font-size="26px" fill="#cdd6f4" text-anchor="start" style="white-space: pre;" direction="ltr">Append-only log</text></g><g stroke-linecap="round"><g transform="translate(30 170) rotate(0 0 180)"><path d="M0.28 -1.09 C0.34 58.91, -0.29 300.5, -0.27 360.67" stroke="#a6adc8" stroke-width="2.5" fill="none" stroke-dasharray="8 10"></path></g></g><g transform="translate(570 130) rotate(0 85.80000000000001 17.289999999999992)"><text x="0" y="NaN" font-family="Virgil, Segoe UI Emoji" font-size="26px" fill="#cdd6f4" text-anchor="start" style="white-space: pre;" direction="ltr">WAL + B-tree</text></g><g stroke-linecap="round"><g transform="translate(480 170) rotate(0 0 180)"><path d="M0.77 -0.06 C1.02 59.81, 1.11 300.4, 0.89 360.28" stroke="#a6adc8" stroke-width="2.5" fill="none" stroke-dasharray="8 10"></path></g></g><g transform="translate(1020 130) rotate(0 57.200000000000045 17.289999999999992)"><text x="0" y="NaN" font-family="Virgil, Segoe UI Emoji" font-size="26px" fill="#cdd6f4" text-anchor="start" style="white-space: pre;" direction="ltr">LSM tree</text></g><g stroke-linecap="round"><g transform="translate(930 170) rotate(0 0 180)"><path d="M-1.15 0.97 C-1.1 61.1, -0.68 299.9, -0.36 359.9" stroke="#a6adc8" stroke-width="2.5" fill="none" stroke-dasharray="8 10"></path></g></g><g stroke-linecap="round" transform="translate(90 230) rotate(0 140 45)"><path d="M1.16 0.12 L281.71 0.04 L281.58 90.87 L0.41 88.79" stroke="none" stroke-width="0" fill="#b45309"></path><path d="M-1.16 -1.42 C62.17 -0.7, 123.13 -1.6, 280.68 1.27 M0.16 -0.53 C68.38 0.64, 136.16 1.44, 280.09 -0.35 M279.72 -0.98 C279.74 16.72, 281.49 35.1, 281.49 91.02 M279.99 0.11 C281.37 30.25, 280.75 59.92, 279.98 90.85 M279.07 89.92 C207.36 91.18, 132.43 91.12, -1.51 91.12 M279.94 89.61 C171.74 88.19, 64.54 87.55, 0.1 89.88 M1.66 89.03 C0.11 56.37, -0.68 21.37, 1.71 -1.59 M0.23 89.87 C0.75 65.07, 0.53 42.16, -0.19 0.99" stroke="#d97706" stroke-width="2" fill="none"></path></g><g transform="translate(108 245) rotate(0 122 30)"><text x="122" y="NaN" font-family="Virgil, Segoe UI Emoji" font-size="24px" fill="#ffffff" text-anchor="middle" style="white-space: pre;" direction="ltr">Write</text><text x="122" y="NaN" font-family="Virgil, Segoe UI Emoji" font-size="24px" fill="#ffffff" text-anchor="middle" style="white-space: pre;" direction="ltr">append once</text></g><g stroke-linecap="round" transform="translate(90 380) rotate(0 140 45)"><path d="M1.95 -1.04 L279.8 -0.33 L278.09 91.33 L-1.74 91.85" stroke="none" stroke-width="0" fill="#2d6a4f"></path><path d="M0.15 0.05 C61.69 1.44, 122.27 2.24, 279.47 -1.19 M0.69 -0.13 C79.47 -1.5, 160.21 -1.57, 280.73 -0.73 M278.79 -0.48 C281.1 22.33, 280.24 42.12, 280.27 89.28 M280.58 0.51 C278.62 24.84, 280.05 48.6, 280.8 89.55 M280.68 89.59 C197.1 90.83, 115.36 89.94, 1.3 90.51 M280.02 89.39 C185.1 89.09, 91.2 88.03, 0 89.94 M0.22 88.47 C-0.88 55.69, -1.13 22.48, -1.11 0 M0.66 89.87 C0.09 54.28, -1.12 19.41, 0.69 0.96" stroke="#40916c" stroke-width="2" fill="none"></path></g><g transform="translate(108 395) rotate(0 122 30)"><text x="122" y="NaN" font-family="Virgil, Segoe UI Emoji" font-size="24px" fill="#ffffff" text-anchor="middle" style="white-space: pre;" direction="ltr">Replay / compact</text><text x="122" y="NaN" font-family="Virgil, Segoe UI Emoji" font-size="24px" fill="#ffffff" text-anchor="middle" style="white-space: pre;" direction="ltr">later</text></g><g stroke-linecap="round"><g transform="translate(230 320) rotate(0 0 30)"><path d="M-1.13 -0.06 C-1.21 9.94, -1.37 50.05, -1.06 60.14 M0.48 -1.14 C0.81 9.07, 1.12 51.83, 1.09 61.75" stroke="#d97706" stroke-width="2" fill="none"></path></g></g><g stroke-linecap="round" transform="translate(540 210) rotate(0 140 45)"><path d="M-0.85 -0.77 L280.93 -0.9 L280.85 88.04 L-0.97 90.45" stroke="none" stroke-width="0" fill="#5b21b6"></path><path d="M0.59 0.74 C62.49 -0.87, 122.53 -0.59, 279.17 1.24 M-0.03 -0.29 C97.65 -1.03, 195.51 -2.41, 280.17 0.24 M281.4 0.28 C279.85 24.75, 281.06 52.65, 278.44 88.67 M280.47 -0.88 C278.29 25.73, 278.79 50.61, 279.02 89.61 M278.51 90.63 C184.77 88.79, 89.76 89.71, 0.93 91.11 M280.15 89.83 C205.9 91.81, 131.2 91.66, -0.14 89.27 M0.05 89.62 C1.64 69.66, 0.19 50.14, -1.33 -1.62 M0.31 89.86 C-0.2 65.1, 0.11 39.27, -0.99 0.93" stroke="#7c3aed" stroke-width="2" fill="none"></path></g><g transform="translate(558 225) rotate(0 122 30)"><text x="122" y="NaN" font-family="Virgil, Segoe UI Emoji" font-size="24px" fill="#ffffff" text-anchor="middle" style="white-space: pre;" direction="ltr">Write WAL</text><text x="122" y="NaN" font-family="Virgil, Segoe UI Emoji" font-size="24px" fill="#ffffff" text-anchor="middle" style="white-space: pre;" direction="ltr">first</text></g><g stroke-linecap="round" transform="translate(540 350) rotate(0 140 45)"><path d="M-0.05 -1.93 L279.03 -1.28 L281.36 88.5 L0.89 89.52" stroke="none" stroke-width="0" fill="#1e40af"></path><path d="M-1.16 -0.85 C62 1.27, 121.67 0.18, 281.02 -1.22 M0.51 0.12 C110.28 1.13, 219.56 0.4, 279.28 -0.14 M280.48 0.78 C281.22 30.36, 279.81 59.67, 281.22 90.93 M279.07 -0.48 C279.34 18.32, 279.89 39.29, 279.83 90.32 M280.12 90.3 C174.5 88.45, 72.69 88.54, 0.68 90.49 M280.24 89.61 C219.25 91.18, 157.86 92.14, -0.23 89.33 M-1.39 89.06 C0.66 54.98, -0.26 19.25, -0.15 -0.03 M0.75 89.86 C-0.86 70.32, -1.53 52.51, -0.1 0.9" stroke="#3b82f6" stroke-width="2" fill="none"></path></g><g transform="translate(558 365) rotate(0 122 30)"><text x="122" y="NaN" font-family="Virgil, Segoe UI Emoji" font-size="24px" fill="#ffffff" text-anchor="middle" style="white-space: pre;" direction="ltr">Mutate tree</text><text x="122" y="NaN" font-family="Virgil, Segoe UI Emoji" font-size="24px" fill="#ffffff" text-anchor="middle" style="white-space: pre;" direction="ltr">pages</text></g><g stroke-linecap="round" transform="translate(540 490) rotate(0 140 35)"><path d="M0.75 0.91 L281.12 -1.66 L281.86 68.97 L-1.26 68.58" stroke="none" stroke-width="0" fill="#2d6a4f"></path><path d="M0.15 0.63 C61.51 2.18, 120.82 -0.28, 279.81 -0.62 M-0.49 0.53 C65.38 -1.01, 131.61 -1.08, 279.92 -0.52 M279.55 1.28 C280.21 24.79, 280.19 48.32, 280 69.19 M279.66 -0.08 C280.3 23.89, 280.9 49.93, 280.64 69.02 M278.67 69.98 C223.31 68.1, 167.62 70.43, 0.43 69.87 M280.33 69.38 C176.6 67.78, 74.06 68.33, -0.32 69.4 M1.17 68.5 C-2.03 45.77, 1.58 19.3, 1.04 1.56 M-0.81 69.86 C0.32 46.34, 0.66 21.37, 0.78 0.88" stroke="#40916c" stroke-width="2" fill="none"></path></g><g transform="translate(558 510) rotate(0 122 16)"><text x="122" y="NaN" font-family="Virgil, Segoe UI Emoji" font-size="24px" fill="#ffffff" text-anchor="middle" style="white-space: pre;" direction="ltr">Balanced reads</text></g><g stroke-linecap="round"><g transform="translate(680 300) rotate(0 0 25)"><path d="M-0.63 -0.06 C-0.63 8.42, -0.65 41.76, -0.62 50 M1.24 -1.14 C1.69 7.62, 2.21 42.96, 1.77 51.53" stroke="#40916c" stroke-width="2" fill="none"></path></g></g><g stroke-linecap="round"><g transform="translate(680 440) rotate(0 0 25)"><path d="M0.82 -0.75 C1.11 7.86, 1.45 42.51, 1.16 51 M-0.22 1.48 C0.08 9.83, 0.54 41.05, 0.82 49.41" stroke="#3b82f6" stroke-width="2" fill="none"></path></g></g><g stroke-linecap="round" transform="translate(990 210) rotate(0 140 45)"><path d="M-1.65 -1.4 L281.3 1.59 L278.88 89.91 L-1.56 90.71" stroke="none" stroke-width="0" fill="#1e40af"></path><path d="M-0.29 0.52 C60.54 -2.12, 122.18 -1.19, 280.44 0.58 M0.59 -0.2 C89.11 -1, 179.7 0.26, 279.67 0.25 M281.7 -1.72 C279.12 21.19, 277.86 40.73, 281.56 89.72 M280.86 0.72 C280.69 20.09, 279.39 41.32, 280.27 90.43 M278.83 89.32 C205.85 90.49, 130.42 88.08, -0.08 88.64 M280.5 90.48 C203.31 89.57, 127.39 89.29, -0.51 89.53 M-1.71 91.37 C-0.1 60.93, 0.59 30.58, -0.6 0.73 M0.06 89.85 C-1.24 53.96, -0.87 18.24, 0.54 0.83" stroke="#3b82f6" stroke-width="2" fill="none"></path></g><g transform="translate(1008 225) rotate(0 122 30)"><text x="122" y="NaN" font-family="Virgil, Segoe UI Emoji" font-size="24px" fill="#ffffff" text-anchor="middle" style="white-space: pre;" direction="ltr">Memtable</text><text x="122" y="NaN" font-family="Virgil, Segoe UI Emoji" font-size="24px" fill="#ffffff" text-anchor="middle" style="white-space: pre;" direction="ltr">absorbs writes</text></g><g stroke-linecap="round" transform="translate(990 350) rotate(0 140 45)"><path d="M-0.85 1.44 L279.39 1.21 L279.39 90.38 L0.29 89.78" stroke="none" stroke-width="0" fill="#5b21b6"></path><path d="M1.03 -1.07 C60.05 -1.21, 121.32 -1.65, 279.22 1.18 M-0.4 0.21 C101.74 2.69, 203.75 1.54, 280.32 -0.13 M280.77 -1.22 C278.29 22.8, 278.41 47.75, 280.35 91.98 M279.45 -0.88 C279.75 32.68, 280.48 66, 279.09 89.13 M280.44 89 C195.58 90.14, 113.35 89.97, -0.33 91.08 M280.59 90.26 C216.67 88.93, 154.06 89.77, -0.6 89.59 M0.85 90.81 C1.12 64.25, -1.66 35.69, 0.59 -1.68 M0.49 89.85 C-0.1 61.17, -0.72 31.49, -0.58 0.81" stroke="#7c3aed" stroke-width="2" fill="none"></path></g><g transform="translate(1008 365) rotate(0 122 30)"><text x="122" y="NaN" font-family="Virgil, Segoe UI Emoji" font-size="24px" fill="#ffffff" text-anchor="middle" style="white-space: pre;" direction="ltr">Flush immutable</text><text x="122" y="NaN" font-family="Virgil, Segoe UI Emoji" font-size="24px" fill="#ffffff" text-anchor="middle" style="white-space: pre;" direction="ltr">SSTables</text></g><g stroke-linecap="round" transform="translate(990 490) rotate(0 140 35)"><path d="M-0.05 0.29 L281.48 0.83 L279.89 70.85 L-1.86 68.84" stroke="none" stroke-width="0" fill="#9f1239"></path><path d="M-0.72 0.4 C59.56 0.93, 123.54 2.19, 281.07 -1.28 M0.13 0.62 C56.84 0.55, 115.79 0.06, 279.43 -0.5 M279.84 -0.72 C279.82 22.43, 281.32 42.8, 279.13 70.24 M280.05 -0.48 C280.6 21.31, 281.38 40.75, 279.9 69.84 M278.99 68.67 C188.39 69.8, 96.28 68.79, -0.58 70.47 M280.67 70.04 C174.02 69.83, 70.25 70.24, -0.7 69.65 M-0.59 70.25 C0.19 52.93, -2.05 31.51, 1.77 -0.09 M0.93 69.84 C0.87 53.4, 1.25 34.75, 0.3 0.79" stroke="#e11d48" stroke-width="2" fill="none"></path></g><g transform="translate(1008 495) rotate(0 122 30)"><text x="122" y="NaN" font-family="Virgil, Segoe UI Emoji" font-size="24px" fill="#ffffff" text-anchor="middle" style="white-space: pre;" direction="ltr">Compaction pays</text><text x="122" y="NaN" font-family="Virgil, Segoe UI Emoji" font-size="24px" fill="#ffffff" text-anchor="middle" style="white-space: pre;" direction="ltr">later</text></g><g stroke-linecap="round"><g transform="translate(1130 300) rotate(0 0 25)"><path d="M-1.08 -0.74 C-1.11 7.6, -1.03 42.56, -0.79 50.86 M0.55 1.48 C0.95 9.43, 1.63 41.13, 1.51 49.19" stroke="#40916c" stroke-width="2" fill="none"></path></g></g><g stroke-linecap="round"><g transform="translate(1130 440) rotate(0 0 25)"><path d="M0.36 0.97 C0.63 9.05, 1.07 41.31, 0.99 49.47" stroke="#d97706" stroke-width="2.5" fill="none" stroke-dasharray="8 10"></path></g></g></svg>