<svg version="1.1" xmlns="http://www.w3.org/2000/svg" viewBox="0 0 1220 560" width="1220" height="560">
  <!-- svg-source:excalidraw -->
  
  <defs>
    <style>
      @font-face {
        font-family: "Virgil";
        src: url("https://excalidraw.com/Virgil.woff2");
      }
      @font-face {
        font-family: "Cascadia";
        src: url("https://excalidraw.com/Cascadia.woff2");
      }
    </style>
  </defs>
  <rect x="0" y="0" width="1220" height="560" fill="#0d1117"></rect><g transform="translate(10 10) rotate(0 156.75 19.950000000000003)"><text x="0" y="NaN" font-family="Virgil, Segoe UI Emoji" font-size="30px" fill="#ffffff" text-anchor="start" style="white-space: pre;" direction="ltr">Performance Toolbox</text></g><g transform="translate(10 50) rotate(0 330 16)"><text x="0" y="NaN" font-family="Virgil, Segoe UI Emoji" font-size="24px" fill="#c9d1d9" text-anchor="start" style="white-space: pre;" direction="ltr">Most serving wins come from a small set of levers.</text></g><g stroke-linecap="round" transform="translate(570 250) rotate(0 120 55)"><path d="M-1.24 -0.41 L239.43 1.18 L240.06 109.46 L-1.15 111.59" stroke="none" stroke-width="0" fill="#4a1219"></path><path d="M1.12 0.3 C51.81 -0.53, 105.23 -0.37, 241.38 -0.58 M0.08 -0.24 C75.44 2.68, 150.88 1.4, 239.67 -0.81 M238.5 1.52 C242 31.82, 239.6 65.92, 241.14 108.23 M240.2 0.91 C240.16 34.98, 241.41 70.89, 239.54 110.74 M240.39 110.98 C150.67 109.07, 64.24 108.39, -0.83 109.91 M239.65 110.29 C160.88 111.31, 81.38 110.3, 0.41 109.66 M1.98 110.72 C0.75 78.99, -1.65 51.19, -1.84 1.65 M0.92 109.88 C-0.87 79.75, -0.12 47.08, -0.83 -0.94" stroke="#f85149" stroke-width="2" fill="none"></path></g><g transform="translate(588 260) rotate(0 102 45)"><text x="102" y="NaN" font-family="Virgil, Segoe UI Emoji" font-size="24px" fill="#ffffff" text-anchor="middle" style="white-space: pre;" direction="ltr">Latency /</text><text x="102" y="NaN" font-family="Virgil, Segoe UI Emoji" font-size="24px" fill="#ffffff" text-anchor="middle" style="white-space: pre;" direction="ltr">Throughput /</text><text x="102" y="NaN" font-family="Virgil, Segoe UI Emoji" font-size="24px" fill="#ffffff" text-anchor="middle" style="white-space: pre;" direction="ltr">Cost</text></g><g stroke-linecap="round" transform="translate(90 110) rotate(0 110 45)"><path d="M-0.44 -1.57 L221.52 0.8 L220.57 89.93 L0.7 90.66" stroke="none" stroke-width="0" fill="#0d2c5a"></path><path d="M-0.82 -1.49 C46.88 0.63, 95.57 -0.75, 220.06 0.08 M0.69 0.21 C79.31 0.65, 157.24 0.06, 220.38 0.46 M221.57 -1.98 C219.2 31.5, 218.19 61.06, 219.92 90.49 M220.79 -0.69 C219.26 23.07, 218.55 46.56, 220.36 89.44 M218.77 90.65 C132.89 88.66, 45.77 90.47, -1.14 89.2 M219.73 90.06 C157.93 90.45, 95.4 90.66, 0.32 89.71 M0.54 90.16 C-0.12 67.73, -1.99 47.16, -0.66 -0.77 M-0.65 89.88 C0.26 70.64, 0.02 51.68, 0.05 -0.96" stroke="#58a6ff" stroke-width="2" fill="none"></path></g><g transform="translate(108 125) rotate(0 92 30)"><text x="92" y="NaN" font-family="Virgil, Segoe UI Emoji" font-size="24px" fill="#ffffff" text-anchor="middle" style="white-space: pre;" direction="ltr">Batching</text><text x="92" y="NaN" font-family="Virgil, Segoe UI Emoji" font-size="24px" fill="#ffffff" text-anchor="middle" style="white-space: pre;" direction="ltr">better GPU use</text></g><g stroke-linecap="round" transform="translate(90 400) rotate(0 110 45)"><path d="M0.36 1.28 L219.62 0.42 L221.07 90.4 L-1.44 89.72" stroke="none" stroke-width="0" fill="#3a1d6e"></path><path d="M0.67 0.19 C46.32 -1.59, 94.6 -1.06, 218.68 0.76 M-0.43 0.67 C87.74 -1.32, 176.18 -1.16, 219.38 0.03 M220.65 -1.48 C222.37 33.11, 222.74 64.08, 218.71 88.76 M219.39 -0.29 C220.31 35.66, 219.65 71.24, 219.17 90.15 M220.59 90.28 C168.31 88.28, 117.06 89.16, -1.43 88.5 M219.83 89.81 C168.37 91.35, 117.98 91.09, 0.22 89.79 M-0.9 89.6 C-1.11 71.05, 1.57 52.26, 0.53 0.82 M-0.21 89.88 C-0.4 59.85, 0.38 28.92, 0.93 -0.99" stroke="#a371f7" stroke-width="2" fill="none"></path></g><g transform="translate(108 415) rotate(0 92 30)"><text x="92" y="NaN" font-family="Virgil, Segoe UI Emoji" font-size="24px" fill="#ffffff" text-anchor="middle" style="white-space: pre;" direction="ltr">Quantization</text><text x="92" y="NaN" font-family="Virgil, Segoe UI Emoji" font-size="24px" fill="#ffffff" text-anchor="middle" style="white-space: pre;" direction="ltr">smaller + faster</text></g><g stroke-linecap="round" transform="translate(990 110) rotate(0 110 45)"><path d="M1.16 0.12 L221.71 0.04 L221.58 90.87 L0.41 88.79" stroke="none" stroke-width="0" fill="#5c3a10"></path><path d="M-1.31 -1.61 C49.24 -0.35, 97.1 -1.36, 220.77 1.44 M0.18 -0.6 C53.89 0.52, 107.12 1.43, 220.1 -0.39 M219.72 -0.98 C219.74 16.72, 221.49 35.1, 221.49 91.02 M219.99 0.11 C221.37 30.25, 220.75 59.92, 219.98 90.85 M218.95 89.91 C163.2 91.37, 103.81 91.3, -1.71 91.27 M219.93 89.56 C134.82 88.43, 50.82 87.7, 0.11 89.86 M1.66 89.03 C0.11 56.37, -0.68 21.37, 1.71 -1.59 M0.23 89.87 C0.75 65.07, 0.53 42.16, -0.19 0.99" stroke="#f0883e" stroke-width="2" fill="none"></path></g><g transform="translate(1008 125) rotate(0 92 30)"><text x="92" y="NaN" font-family="Virgil, Segoe UI Emoji" font-size="24px" fill="#ffffff" text-anchor="middle" style="white-space: pre;" direction="ltr">Compilation</text><text x="92" y="NaN" font-family="Virgil, Segoe UI Emoji" font-size="24px" fill="#ffffff" text-anchor="middle" style="white-space: pre;" direction="ltr">fused kernels</text></g><g stroke-linecap="round" transform="translate(990 400) rotate(0 110 45)"><path d="M1.95 -1.04 L219.8 -0.33 L218.09 91.33 L-1.74 91.85" stroke="none" stroke-width="0" fill="#1f4d2b"></path><path d="M0.17 0.06 C48.69 1.24, 96.13 2.15, 219.4 -1.35 M0.78 -0.14 C62.32 -1.45, 126.06 -1.53, 220.83 -0.82 M218.79 -0.48 C221.1 22.33, 220.24 42.12, 220.27 89.28 M220.58 0.51 C218.62 24.84, 220.05 48.6, 220.8 89.55 M220.77 89.54 C154.63 91, 90.57 89.99, 1.47 90.57 M220.03 89.31 C145.27 89.32, 71.67 88.12, 0 89.93 M0.22 88.47 C-0.88 55.69, -1.13 22.48, -1.11 0 M0.66 89.87 C0.09 54.28, -1.12 19.41, 0.69 0.96" stroke="#3fb950" stroke-width="2" fill="none"></path></g><g transform="translate(1008 415) rotate(0 92 30)"><text x="92" y="NaN" font-family="Virgil, Segoe UI Emoji" font-size="24px" fill="#ffffff" text-anchor="middle" style="white-space: pre;" direction="ltr">Caching +</text><text x="92" y="NaN" font-family="Virgil, Segoe UI Emoji" font-size="24px" fill="#ffffff" text-anchor="middle" style="white-space: pre;" direction="ltr">fallbacks</text></g><g stroke-linecap="round"><g transform="translate(310 155) rotate(0 130 75)"><path d="M0.48 -0.82 C43.76 24.17, 215.55 124.76, 259.01 149.99 M-0.72 1.37 C42.98 26.56, 217.56 127, 261.19 151.52" stroke="#58a6ff" stroke-width="2" fill="none"></path></g><g transform="translate(310 155) rotate(0 130 75)"><path d="M230.26 144.83 C238.85 149.6, 247.04 148.96, 260.14 150.37 M230.88 147.18 C237.79 146.91, 244.69 149.31, 260.33 151.22" stroke="#58a6ff" stroke-width="2" fill="none"></path></g><g transform="translate(310 155) rotate(0 130 75)"><path d="M240.42 127 C246.53 136.18, 252.22 139.91, 260.14 150.37 M241.04 129.34 C245.9 132.98, 250.59 139.26, 260.33 151.22" stroke="#58a6ff" stroke-width="2" fill="none"></path></g></g><g stroke-linecap="round"><g transform="translate(310 445) rotate(0 130 -70)"><path d="M-0.47 0.9 C43.1 -22.31, 217.25 -115.35, 260.78 -139 M1.48 0.32 C45.02 -23.23, 217.11 -117.18, 260.25 -140.6" stroke="#3fb950" stroke-width="2" fill="none"></path></g><g transform="translate(310 445) rotate(0 130 -70)"><path d="M241.89 -116.8 C246.88 -122.38, 248.44 -128.65, 260.4 -139.36 M240.01 -118.15 C244.32 -124.21, 249.17 -128.86, 259.8 -141.15" stroke="#3fb950" stroke-width="2" fill="none"></path></g><g transform="translate(310 445) rotate(0 130 -70)"><path d="M232.08 -134.82 C239.51 -135.95, 243.47 -137.8, 260.4 -139.36 M230.2 -136.17 C236.81 -137.89, 244 -138.23, 259.8 -141.15" stroke="#3fb950" stroke-width="2" fill="none"></path></g></g><g stroke-linecap="round"><g transform="translate(990 155) rotate(0 -90 75)"><path d="M0.97 0.21 C-28.89 25.07, -149.71 124.66, -179.84 149.61 M0.02 -0.72 C-29.93 24.27, -150.62 125.63, -180.7 150.94" stroke="#f0883e" stroke-width="2" fill="none"></path></g><g transform="translate(990 155) rotate(0 -90 75)"><path d="M-165.37 125.22 C-169.95 131.76, -173.17 138.47, -179.35 150.57 M-165.76 124.17 C-168.94 130.59, -173.09 137.52, -180.73 150.14" stroke="#f0883e" stroke-width="2" fill="none"></path></g><g transform="translate(990 155) rotate(0 -90 75)"><path d="M-152.17 140.93 C-160.04 143.73, -166.49 146.59, -179.35 150.57 M-152.55 139.88 C-159.25 142.09, -166.85 144.92, -180.73 150.14" stroke="#f0883e" stroke-width="2" fill="none"></path></g></g><g stroke-linecap="round"><g transform="translate(990 445) rotate(0 -90 -70)"><path d="M0.01 -0.48 C-29.96 -23.81, -150.41 -116.25, -180.46 -139.38 M-1.44 -1.77 C-31.55 -25.52, -151.68 -117.94, -181.65 -141.18" stroke="#ff8c42" stroke-width="2" fill="none"></path></g><g transform="translate(990 445) rotate(0 -90 -70)"><path d="M-153.86 -132.84 C-159.09 -134.82, -165.88 -135.6, -183.09 -143.16 M-152.75 -131.59 C-161.06 -133.67, -169.72 -136.65, -181.26 -140.23" stroke="#ff8c42" stroke-width="2" fill="none"></path></g><g transform="translate(990 445) rotate(0 -90 -70)"><path d="M-166.4 -116.6 C-168.65 -122.56, -172.37 -127.32, -183.09 -143.16 M-165.29 -115.35 C-169.95 -122.07, -175.07 -129.63, -181.26 -140.23" stroke="#ff8c42" stroke-width="2" fill="none"></path></g></g><g stroke-linecap="round" transform="translate(440 460) rotate(0 250 45)"><path d="M0.35 -0.51 L498.07 -1.47 L499.61 88.74 L-0.19 89.05" stroke="none" stroke-width="0" fill="#1f4d2b"></path><path d="M0.54 0.74 C108.6 -1.44, 218.41 -1.57, 499.42 0.32 M-0.39 -0.23 C106.69 1.97, 212.94 2.17, 499.79 -0.17 M500.01 1.03 C500.8 31.17, 500.09 63.18, 500.61 88.06 M500.37 -0.28 C499.97 24.62, 499.54 50.63, 499.24 89.67 M499.68 89.27 C306.68 89.75, 112.97 89.58, 0.29 89.3 M500.15 90.14 C304 90.14, 107.65 89.73, -0.14 90.07 M-0.11 90.78 C-1.63 65.64, -0.28 37.81, -1.55 0.76 M-0.03 89.86 C-0.29 55.92, -0.46 23.14, -0.66 0.89" stroke="#3fb950" stroke-width="2" fill="none"></path></g><g transform="translate(458 475) rotate(0 232 30)"><text x="232" y="NaN" font-family="Virgil, Segoe UI Emoji" font-size="24px" fill="#ffffff" text-anchor="middle" style="white-space: pre;" direction="ltr">Distillation cuts serving cost</text><text x="232" y="NaN" font-family="Virgil, Segoe UI Emoji" font-size="24px" fill="#ffffff" text-anchor="middle" style="white-space: pre;" direction="ltr">by giving up some accuracy</text></g></svg>