<svg version="1.1" xmlns="http://www.w3.org/2000/svg" viewBox="0 0 1360 440" width="1360" height="440">
  <!-- svg-source:excalidraw -->
  
  <defs>
    <style>
      @font-face {
        font-family: "Virgil";
        src: url("https://excalidraw.com/Virgil.woff2");
      }
      @font-face {
        font-family: "Cascadia";
        src: url("https://excalidraw.com/Cascadia.woff2");
      }
    </style>
  </defs>
  <rect x="0" y="0" width="1360" height="440" fill="#0d1117"></rect><g transform="translate(10 10) rotate(0 305.25 19.950000000000003)"><text x="0" y="NaN" font-family="Virgil, Segoe UI Emoji" font-size="30px" fill="#ffffff" text-anchor="start" style="white-space: pre;" direction="ltr">One Model Can Be Served in Four Modes</text></g><g transform="translate(10 50) rotate(0 435.6 16)"><text x="0" y="NaN" font-family="Virgil, Segoe UI Emoji" font-size="24px" fill="#c9d1d9" text-anchor="start" style="white-space: pre;" direction="ltr">The same artifact meets very different latency and request shapes.</text></g><g stroke-linecap="round" transform="translate(30 210) rotate(0 150 110)"><path d="M-1.24 -0.41 L299.43 1.18 L300.06 219.46 L-1.15 221.59" stroke="none" stroke-width="0" fill="#1f4d2b"></path><path d="M0.98 0.26 C64.95 -0.31, 131.32 -0.17, 301.21 -0.51 M0.07 -0.21 C94.3 2.79, 188.6 1.66, 299.71 -0.71 M298.7 1.32 C302.5 64.57, 300.42 131.11, 300.99 218.47 M300.17 0.79 C300.86 70.83, 301.93 142.47, 299.6 220.64 M300.34 220.86 C188.69 219.17, 79.93 218.57, -0.73 219.92 M299.69 220.26 C201.08 221.34, 101.82 220.44, 0.36 219.7 M1.72 220.62 C0.11 159.3, -1.97 101.39, -1.59 1.43 M0.8 219.9 C-0.72 158.39, -0.07 94.68, -0.72 -0.81" stroke="#3fb950" stroke-width="2" fill="none"></path></g><g transform="translate(48 260) rotate(0 132 60)"><text x="132" y="NaN" font-family="Virgil, Segoe UI Emoji" font-size="24px" fill="#ffffff" text-anchor="middle" style="white-space: pre;" direction="ltr">Online</text><text x="132" y="NaN" font-family="Virgil, Segoe UI Emoji" font-size="24px" fill="#ffffff" text-anchor="middle" style="white-space: pre;" direction="ltr"></text><text x="132" y="NaN" font-family="Virgil, Segoe UI Emoji" font-size="24px" fill="#ffffff" text-anchor="middle" style="white-space: pre;" direction="ltr">single request</text><text x="132" y="NaN" font-family="Virgil, Segoe UI Emoji" font-size="24px" fill="#ffffff" text-anchor="middle" style="white-space: pre;" direction="ltr">single prediction</text></g><g stroke-linecap="round" transform="translate(370 210) rotate(0 150 110)"><path d="M-0.44 -1.57 L301.52 0.8 L300.57 219.93 L0.7 220.66" stroke="none" stroke-width="0" fill="#0d2c5a"></path><path d="M-0.69 -1.26 C64.48 0.51, 130.5 -0.66, 300.05 0.06 M0.58 0.18 C107.76 0.61, 214.35 0.12, 300.32 0.39 M301.36 -1.72 C299.18 74.41, 298.3 147.14, 299.93 220.43 M300.69 -0.6 C298.66 57.17, 298.05 114.7, 300.31 219.52 M298.96 220.55 C180.8 218.84, 61.58 220.38, -0.97 219.33 M299.77 220.05 C215.4 220.76, 130.43 220.94, 0.27 219.76 M0.47 220.14 C-0.13 165.92, -1.74 113.31, -0.57 -0.66 M-0.56 219.9 C1.14 173.2, 0.93 126.74, 0.04 -0.83" stroke="#58a6ff" stroke-width="2" fill="none"></path></g><g transform="translate(388 260) rotate(0 132 60)"><text x="132" y="NaN" font-family="Virgil, Segoe UI Emoji" font-size="24px" fill="#ffffff" text-anchor="middle" style="white-space: pre;" direction="ltr">Streaming</text><text x="132" y="NaN" font-family="Virgil, Segoe UI Emoji" font-size="24px" fill="#ffffff" text-anchor="middle" style="white-space: pre;" direction="ltr"></text><text x="132" y="NaN" font-family="Virgil, Segoe UI Emoji" font-size="24px" fill="#ffffff" text-anchor="middle" style="white-space: pre;" direction="ltr">event stream</text><text x="132" y="NaN" font-family="Virgil, Segoe UI Emoji" font-size="24px" fill="#ffffff" text-anchor="middle" style="white-space: pre;" direction="ltr">continuous output</text></g><g stroke-linecap="round" transform="translate(710 210) rotate(0 150 110)"><path d="M0.36 1.28 L299.62 0.42 L301.07 220.4 L-1.44 219.72" stroke="none" stroke-width="0" fill="#5c3a10"></path><path d="M0.56 0.16 C64.02 -1.61, 129.69 -1.16, 298.88 0.64 M-0.37 0.57 C119.75 -1.56, 240.09 -1.42, 299.47 0.03 M300.56 -1.28 C303.13 80.77, 303.45 159.7, 298.88 218.92 M299.47 -0.25 C300.28 87.5, 299.71 174.94, 299.28 220.13 M300.5 220.23 C229.97 218.51, 160.31 219.25, -1.21 218.73 M299.86 219.84 C229.73 221.65, 160.5 221.43, 0.18 219.82 M-0.78 219.65 C-0.36 172.54, 1.95 125.23, 0.46 0.71 M-0.18 219.89 C-0.82 145.74, -0.15 70.8, 0.81 -0.86" stroke="#f0883e" stroke-width="2" fill="none"></path></g><g transform="translate(728 260) rotate(0 132 60)"><text x="132" y="NaN" font-family="Virgil, Segoe UI Emoji" font-size="24px" fill="#ffffff" text-anchor="middle" style="white-space: pre;" direction="ltr">Batch</text><text x="132" y="NaN" font-family="Virgil, Segoe UI Emoji" font-size="24px" fill="#ffffff" text-anchor="middle" style="white-space: pre;" direction="ltr"></text><text x="132" y="NaN" font-family="Virgil, Segoe UI Emoji" font-size="24px" fill="#ffffff" text-anchor="middle" style="white-space: pre;" direction="ltr">hours of data</text><text x="132" y="NaN" font-family="Virgil, Segoe UI Emoji" font-size="24px" fill="#ffffff" text-anchor="middle" style="white-space: pre;" direction="ltr">precompute</text></g><g stroke-linecap="round" transform="translate(1050 210) rotate(0 150 110)"><path d="M1.16 0.12 L301.71 0.04 L301.58 220.87 L0.41 218.79" stroke="none" stroke-width="0" fill="#3a1d6e"></path><path d="M-1.11 -1.36 C66.49 -0.8, 131.8 -1.65, 300.65 1.22 M0.15 -0.51 C73.2 0.67, 145.84 1.43, 300.09 -0.33 M299.76 -0.85 C299.81 43.14, 301.33 87.72, 301.29 220.88 M299.99 0.1 C301.9 73.84, 301.37 147.17, 299.99 220.74 M299.11 219.92 C222.08 221.11, 141.96 221.06, -1.45 221.08 M299.94 219.63 C184.05 218.14, 69.11 217.52, 0.09 219.88 M1.44 219.16 C-0.95 135.16, -1.63 49.15, 1.48 -1.38 M0.2 219.89 C1.04 160.55, 0.85 102.86, -0.16 0.86" stroke="#a371f7" stroke-width="2" fill="none"></path></g><g transform="translate(1068 260) rotate(0 132 60)"><text x="132" y="NaN" font-family="Virgil, Segoe UI Emoji" font-size="24px" fill="#ffffff" text-anchor="middle" style="white-space: pre;" direction="ltr">Edge</text><text x="132" y="NaN" font-family="Virgil, Segoe UI Emoji" font-size="24px" fill="#ffffff" text-anchor="middle" style="white-space: pre;" direction="ltr"></text><text x="132" y="NaN" font-family="Virgil, Segoe UI Emoji" font-size="24px" fill="#ffffff" text-anchor="middle" style="white-space: pre;" direction="ltr">on-device</text><text x="132" y="NaN" font-family="Virgil, Segoe UI Emoji" font-size="24px" fill="#ffffff" text-anchor="middle" style="white-space: pre;" direction="ltr">privacy / offline</text></g></svg>