<svg version="1.1" xmlns="http://www.w3.org/2000/svg" viewBox="0 0 1230 520" width="1230" height="520">
  <!-- svg-source:excalidraw -->
  
  <defs>
    <style>
      @font-face {
        font-family: "Virgil";
        src: url("https://excalidraw.com/Virgil.woff2");
      }
      @font-face {
        font-family: "Cascadia";
        src: url("https://excalidraw.com/Cascadia.woff2");
      }
    </style>
  </defs>
  <rect x="0" y="0" width="1230" height="520" fill="#0d1117"></rect><g transform="translate(10 10) rotate(0 165 19.950000000000003)"><text x="0" y="NaN" font-family="Virgil, Segoe UI Emoji" font-size="30px" fill="#ffffff" text-anchor="start" style="white-space: pre;" direction="ltr">Serving Stack Layers</text></g><g transform="translate(10 50) rotate(0 442.20000000000005 16)"><text x="0" y="NaN" font-family="Virgil, Segoe UI Emoji" font-size="24px" fill="#c9d1d9" text-anchor="start" style="white-space: pre;" direction="ltr">Runtime, server, request plane, and control plane must all line up.</text></g><g stroke-linecap="round" transform="translate(70 240) rotate(0 95 45)"><path d="M-1.24 -0.41 L189.43 1.18 L190.06 89.46 L-1.15 91.59" stroke="none" stroke-width="0" fill="#3a1d6e"></path><path d="M1.34 0.36 C40.81 -0.81, 83.55 -0.62, 191.65 -0.7 M0.09 -0.28 C59.73 2.73, 119.45 1.19, 189.6 -0.97 M188.5 1.52 C191.84 25.89, 189.44 54.05, 191.14 88.23 M190.2 0.91 C190.01 28.48, 191.26 57.89, 189.54 90.74 M190.47 91.17 C118.89 88.89, 51.27 88.07, -0.99 89.89 M189.58 90.35 C127.39 91.37, 64.31 90.16, 0.49 89.59 M1.98 90.72 C0.86 64.42, -1.54 42.05, -1.84 1.65 M0.92 89.88 C-0.88 65.42, -0.13 38.43, -0.83 -0.94" stroke="#a371f7" stroke-width="2" fill="none"></path></g><g transform="translate(88 255) rotate(0 77 30)"><text x="77" y="NaN" font-family="Virgil, Segoe UI Emoji" font-size="24px" fill="#ffffff" text-anchor="middle" style="white-space: pre;" direction="ltr">Runtime</text><text x="77" y="NaN" font-family="Virgil, Segoe UI Emoji" font-size="24px" fill="#ffffff" text-anchor="middle" style="white-space: pre;" direction="ltr">ONNX / TensorRT</text></g><g stroke-linecap="round" transform="translate(310 240) rotate(0 95 45)"><path d="M-0.44 -1.57 L191.52 0.8 L190.57 89.93 L0.7 90.66" stroke="none" stroke-width="0" fill="#0d2c5a"></path><path d="M-0.95 -1.71 C40.17 0.74, 82.43 -0.86, 190.07 0.09 M0.8 0.25 C68.72 0.71, 135.85 0.03, 190.44 0.53 M191.57 -1.98 C189.2 31.5, 188.19 61.06, 189.92 90.49 M190.79 -0.69 C189.26 23.07, 188.55 46.56, 190.36 89.44 M188.58 90.75 C115 88.46, 39.99 90.56, -1.32 89.08 M189.69 90.07 C136.36 90.33, 82.21 90.58, 0.37 89.67 M0.54 90.16 C-0.12 67.73, -1.99 47.16, -0.66 -0.77 M-0.65 89.88 C0.26 70.64, 0.02 51.68, 0.05 -0.96" stroke="#58a6ff" stroke-width="2" fill="none"></path></g><g transform="translate(328 255) rotate(0 77 30)"><text x="77" y="NaN" font-family="Virgil, Segoe UI Emoji" font-size="24px" fill="#ffffff" text-anchor="middle" style="white-space: pre;" direction="ltr">Model server</text><text x="77" y="NaN" font-family="Virgil, Segoe UI Emoji" font-size="24px" fill="#ffffff" text-anchor="middle" style="white-space: pre;" direction="ltr">Triton / KServe</text></g><g stroke-linecap="round" transform="translate(550 240) rotate(0 95 45)"><path d="M0.36 1.28 L189.62 0.42 L191.07 90.4 L-1.44 89.72" stroke="none" stroke-width="0" fill="#5c3a10"></path><path d="M0.77 0.21 C39.53 -1.7, 81.31 -1.09, 188.48 0.87 M-0.5 0.78 C75.71 -1.3, 152.25 -1.12, 189.28 0.04 M190.65 -1.48 C192.37 33.11, 192.74 64.08, 188.71 88.76 M189.39 -0.29 C190.31 35.66, 189.65 71.24, 189.17 90.15 M190.68 90.32 C145.11 88.03, 100.71 89.04, -1.65 88.27 M189.8 89.78 C145.34 91.3, 102.11 91, 0.25 89.75 M-0.9 89.6 C-1.11 71.05, 1.57 52.26, 0.53 0.82 M-0.21 89.88 C-0.4 59.85, 0.38 28.92, 0.93 -0.99" stroke="#f0883e" stroke-width="2" fill="none"></path></g><g transform="translate(568 255) rotate(0 77 30)"><text x="77" y="NaN" font-family="Virgil, Segoe UI Emoji" font-size="24px" fill="#ffffff" text-anchor="middle" style="white-space: pre;" direction="ltr">Pre / post</text><text x="77" y="NaN" font-family="Virgil, Segoe UI Emoji" font-size="24px" fill="#ffffff" text-anchor="middle" style="white-space: pre;" direction="ltr">processing</text></g><g stroke-linecap="round" transform="translate(790 240) rotate(0 95 45)"><path d="M1.16 0.12 L191.71 0.04 L191.58 90.87 L0.41 88.79" stroke="none" stroke-width="0" fill="#1f4d2b"></path><path d="M-1.52 -1.86 C42.89 -0.14, 84.2 -1.32, 190.89 1.66 M0.2 -0.69 C46.71 0.49, 92.65 1.53, 190.12 -0.46 M189.72 -0.98 C189.74 16.72, 191.49 35.1, 191.49 91.02 M189.99 0.11 C191.37 30.25, 190.75 59.92, 189.98 90.85 M188.79 89.89 C141.21 91.61, 89.43 91.53, -1.97 91.47 M189.92 89.49 C116.32 88.46, 44.01 87.62, 0.13 89.84 M1.66 89.03 C0.11 56.37, -0.68 21.37, 1.71 -1.59 M0.23 89.87 C0.75 65.07, 0.53 42.16, -0.19 0.99" stroke="#3fb950" stroke-width="2" fill="none"></path></g><g transform="translate(808 255) rotate(0 77 30)"><text x="77" y="NaN" font-family="Virgil, Segoe UI Emoji" font-size="24px" fill="#ffffff" text-anchor="middle" style="white-space: pre;" direction="ltr">gRPC / HTTP</text><text x="77" y="NaN" font-family="Virgil, Segoe UI Emoji" font-size="24px" fill="#ffffff" text-anchor="middle" style="white-space: pre;" direction="ltr">batching</text></g><g stroke-linecap="round" transform="translate(1030 240) rotate(0 95 45)"><path d="M1.95 -1.04 L189.8 -0.33 L188.09 91.33 L-1.74 91.85" stroke="none" stroke-width="0" fill="#4a1219"></path><path d="M0.2 0.07 C42.26 1.21, 83.08 2.25, 189.3 -1.56 M0.91 -0.17 C53.7 -1.53, 109.05 -1.62, 190.96 -0.95 M188.79 -0.48 C191.1 22.33, 190.24 42.12, 190.27 89.28 M190.58 0.51 C188.62 24.84, 190.05 48.6, 190.8 89.55 M190.89 89.46 C133.32 91.18, 78.15 90.02, 1.7 90.66 M190.03 89.2 C125.3 89.42, 61.9 88.03, 0.01 89.92 M0.22 88.47 C-0.88 55.69, -1.13 22.48, -1.11 0 M0.66 89.87 C0.09 54.28, -1.12 19.41, 0.69 0.96" stroke="#f85149" stroke-width="2" fill="none"></path></g><g transform="translate(1048 255) rotate(0 77 30)"><text x="77" y="NaN" font-family="Virgil, Segoe UI Emoji" font-size="24px" fill="#ffffff" text-anchor="middle" style="white-space: pre;" direction="ltr">Registry +</text><text x="77" y="NaN" font-family="Virgil, Segoe UI Emoji" font-size="24px" fill="#ffffff" text-anchor="middle" style="white-space: pre;" direction="ltr">rollouts</text></g><g stroke-linecap="round"><g transform="translate(260 285) rotate(0 25 0)"><path d="M0.48 -0.82 C8.76 -0.83, 40.55 -0.24, 49.01 -0.01 M-0.72 1.37 C7.98 1.56, 42.56 2, 51.19 1.52" stroke="#58a6ff" stroke-width="2" fill="none"></path></g><g transform="translate(260 285) rotate(0 25 0)"><path d="M26.48 8.79 C33.55 10.16, 40.2 6.11, 50.14 0.37 M27.1 11.14 C32.52 7.84, 38.06 7.2, 50.33 1.22" stroke="#58a6ff" stroke-width="2" fill="none"></path></g><g transform="translate(260 285) rotate(0 25 0)"><path d="M26.21 -8.31 C33.35 -2.75, 40.07 -2.61, 50.14 0.37 M26.83 -5.96 C32.47 -5.53, 38.07 -2.45, 50.33 1.22" stroke="#58a6ff" stroke-width="2" fill="none"></path></g></g><g stroke-linecap="round"><g transform="translate(500 285) rotate(0 25 0)"><path d="M-0.47 0.9 C8.1 1.02, 42.25 1.31, 50.78 1 M1.48 0.32 C10.02 0.11, 42.11 -0.51, 50.25 -0.6" stroke="#58a6ff" stroke-width="2" fill="none"></path></g><g transform="translate(500 285) rotate(0 25 0)"><path d="M28.38 9.62 C34.26 7.39, 36.68 4.44, 50.4 0.64 M26.51 8.27 C31.62 5.47, 37.31 4.07, 49.8 -1.15" stroke="#58a6ff" stroke-width="2" fill="none"></path></g><g transform="translate(500 285) rotate(0 25 0)"><path d="M28.12 -7.48 C34.09 -5.52, 36.58 -4.28, 50.4 0.64 M26.24 -8.83 C31.37 -7.54, 37.12 -4.85, 49.8 -1.15" stroke="#58a6ff" stroke-width="2" fill="none"></path></g></g><g stroke-linecap="round"><g transform="translate(740 285) rotate(0 25 0)"><path d="M0.97 0.21 C9.44 0.07, 41.96 -0.34, 50.16 -0.39 M0.02 -0.72 C8.4 -0.73, 41.05 0.63, 49.3 0.94" stroke="#58a6ff" stroke-width="2" fill="none"></path></g><g transform="translate(740 285) rotate(0 25 0)"><path d="M25.84 8.83 C30.64 6.83, 36.93 5.3, 50.65 0.57 M25.46 7.78 C32.21 5.81, 38.16 3.99, 49.27 0.14" stroke="#58a6ff" stroke-width="2" fill="none"></path></g><g transform="translate(740 285) rotate(0 25 0)"><path d="M26.51 -8.26 C31.21 -6.07, 37.33 -3.41, 50.65 0.57 M26.12 -9.31 C32.79 -6.83, 38.57 -4.2, 49.27 0.14" stroke="#58a6ff" stroke-width="2" fill="none"></path></g></g><g stroke-linecap="round"><g transform="translate(980 285) rotate(0 25 0)"><path d="M0.01 -0.48 C8.38 -0.48, 41.26 0.41, 49.54 0.62 M-1.44 -1.77 C6.78 -2.18, 39.98 -1.28, 48.35 -1.18" stroke="#58a6ff" stroke-width="2" fill="none"></path></g><g transform="translate(980 285) rotate(0 25 0)"><path d="M23.91 6.15 C31.48 4.42, 37.49 3.88, 46.91 -3.16 M25.02 7.4 C31.42 5.34, 37.49 2.65, 48.74 -0.23" stroke="#58a6ff" stroke-width="2" fill="none"></path></g><g transform="translate(980 285) rotate(0 25 0)"><path d="M24.23 -10.95 C31.82 -8.49, 37.75 -4.84, 46.91 -3.16 M25.34 -9.7 C31.53 -6.93, 37.5 -4.81, 48.74 -0.23" stroke="#58a6ff" stroke-width="2" fill="none"></path></g></g><g stroke-linecap="round" transform="translate(400 420) rotate(0 230 45)"><path d="M0.35 -0.51 L458.07 -1.47 L459.61 88.74 L-0.19 89.05" stroke="none" stroke-width="0" fill="#4a1219"></path><path d="M0.63 0.86 C99.8 -1.59, 201.02 -1.74, 459.32 0.37 M-0.46 -0.27 C98.17 2.13, 195.82 2.35, 459.76 -0.2 M460.01 1.03 C460.8 31.17, 460.09 63.18, 460.61 88.06 M460.37 -0.28 C459.97 24.62, 459.54 50.63, 459.24 89.67 M459.63 89.15 C282.27 89.74, 104.1 89.54, 0.34 89.18 M460.17 90.16 C279.76 90.16, 99.12 89.68, -0.17 90.08 M-0.11 90.78 C-1.63 65.64, -0.28 37.81, -1.55 0.76 M-0.03 89.86 C-0.29 55.92, -0.46 23.14, -0.66 0.89" stroke="#f85149" stroke-width="2" fill="none"></path></g><g transform="translate(418 450) rotate(0 212 16)"><text x="212" y="NaN" font-family="Virgil, Segoe UI Emoji" font-size="24px" fill="#ffffff" text-anchor="middle" style="white-space: pre;" direction="ltr">Prediction logs, drift monitors, fallbacks</text></g></svg>