<svg version="1.1" xmlns="http://www.w3.org/2000/svg" viewBox="0 0 1200 780" width="1200" height="780">
  <!-- svg-source:excalidraw -->
  
  <defs>
    <style>
      @font-face {
        font-family: "Virgil";
        src: url("https://excalidraw.com/Virgil.woff2");
      }
      @font-face {
        font-family: "Cascadia";
        src: url("https://excalidraw.com/Cascadia.woff2");
      }
    </style>
  </defs>
  <rect x="0" y="0" width="1200" height="780" fill="#0d1117"></rect><g transform="translate(10 10) rotate(0 138.3479461669922 17.5)"><text x="0" y="NaN" font-family="Virgil, Segoe UI Emoji" font-size="28px" fill="#f5e0dc" text-anchor="start" style="white-space: pre;" direction="ltr">ML Inference Modes</text></g><g transform="translate(10 54) rotate(0 257.4478454589844 10)"><text x="0" y="NaN" font-family="Virgil, Segoe UI Emoji" font-size="16px" fill="#8b949e" text-anchor="start" style="white-space: pre;" direction="ltr">online vs streaming vs batch — same model, three serving shapes</text></g><g stroke-opacity="0.6" fill-opacity="0.6" stroke-linecap="round" transform="translate(10 90) rotate(0 590 100)"><path d="M1.16 -1.32 L1180.31 0.63 L1178.62 198.43 L-0.46 199.39" stroke="none" stroke-width="0" fill="#161b22"></path><path d="M0.05 0.18 C252.27 -1.41, 505.66 -1.8, 1179.56 0.33 M1178.51 -0.17 C1181.02 48.67, 1177.92 96.36, 1180.42 201.7 M1179.38 199.5 C753.5 196.73, 326.1 197.01, -0.34 200.57 M1.32 199.21 C-1.33 129.77, -2.54 60.62, -0.34 -0.4" stroke="#30363d" stroke-width="2.5" fill="none" stroke-dasharray="8 10"></path></g><g transform="translate(30 104) rotate(0 102.26692199707031 11.25)"><text x="0" y="NaN" font-family="Virgil, Segoe UI Emoji" font-size="18px" fill="#8b949e" text-anchor="start" style="white-space: pre;" direction="ltr">1. Online (request-path)</text></g><g stroke-linecap="round" transform="translate(70 170) rotate(0 88.5 30)"><path d="M0.3 1.13 L175.59 -0.57 L178.69 59 L-1.33 59.7" stroke="none" stroke-width="0" fill="#1f4d2b"></path><path d="M1.19 0.29 C62.14 0.39, 118.7 0.16, 175.87 -1.48 M-0.45 -0.05 C68.23 0.4, 137.43 0.26, 176.2 -0.79 M177.7 -1.3 C176.41 12.54, 174.94 23.94, 177.59 60.47 M177.26 -0.56 C177.62 20.94, 176.3 41.34, 177.66 59.65 M178.9 61.77 C124.78 57.9, 68.67 58.3, -1.39 58.89 M177.32 59.51 C123.83 60.83, 69.33 61.66, -0.46 60.39 M0.82 59.94 C0.32 38.01, -0.24 13.35, 1 -0.6 M-0.16 60.13 C0 37.6, -0.47 15.1, 0.23 0.24" stroke="#3fb950" stroke-width="2" fill="none"></path></g><g transform="translate(70 187.4) rotate(0 88.5 11.25)"><text x="88.5" y="NaN" font-family="Virgil, Segoe UI Emoji" font-size="18px" fill="#ffffff" text-anchor="middle" style="white-space: pre;" direction="ltr">User request</text></g><g stroke-linecap="round" transform="translate(407 170) rotate(0 94 30)"><path d="M1.54 1.63 L187.29 0.8 L188.75 59.46 L1.21 59.2" stroke="none" stroke-width="0" fill="#5c3a10"></path><path d="M0.44 -1.81 C68.19 0.4, 135.55 0.24, 188.82 -0.43 M-0.03 0.2 C61.76 1.22, 123.94 1.62, 188.64 0.09 M186.62 0.55 C190.28 21.4, 189.55 40.22, 186.57 61 M187.99 0.45 C188.97 22.81, 187.17 46.53, 187.9 59.54 M186.44 58.37 C124.3 60.18, 55.7 57.24, -1.38 60.82 M188.26 60.22 C135.33 58.72, 84.51 57.65, 0.49 60.27 M0.64 59.08 C-1.17 40.98, -1.01 22.13, -1.76 0.18 M-0.47 60 C0.72 42.94, 0.15 24.03, 0.85 -0.78" stroke="#f0883e" stroke-width="2" fill="none"></path></g><g transform="translate(407 187.4) rotate(0 94 11.25)"><text x="94" y="NaN" font-family="Virgil, Segoe UI Emoji" font-size="18px" fill="#ffffff" text-anchor="middle" style="white-space: pre;" direction="ltr">Feature fetch</text></g><g stroke-linecap="round" transform="translate(755 170) rotate(0 85 30)"><path d="M-1.92 0.19 L170.63 1.8 L169.01 61.92 L0.68 59.68" stroke="none" stroke-width="0" fill="#3a1d6e"></path><path d="M1.34 0.69 C48.45 -2.65, 95.25 -1.83, 171.12 0.51 M-0.23 0.87 C38.96 1.53, 79.09 1.16, 169.49 0.21 M170.32 0.65 C171.68 14.59, 169.52 28.06, 169.64 59.11 M169.21 -0.2 C171.3 15.29, 170.72 29.39, 169.58 59.7 M170.24 59.81 C118.97 62.43, 67.99 60.08, 1.05 58.67 M170.62 60.14 C127.44 61.8, 83.58 60.59, -0.66 59.05 M-0.88 60.72 C-0.06 41.61, 0.36 19.37, 1.96 1.34 M0.94 59.74 C-0.13 47.09, 0.28 35.78, -0.46 0.97" stroke="#a371f7" stroke-width="2" fill="none"></path></g><g transform="translate(755 187.4) rotate(0 85 11.25)"><text x="85" y="NaN" font-family="Virgil, Segoe UI Emoji" font-size="18px" fill="#ffffff" text-anchor="middle" style="white-space: pre;" direction="ltr">Model</text></g><g stroke-linecap="round"><g transform="translate(247 200) rotate(0 80 0)"><path d="M-1.05 -0.71 C25.55 -0.88, 133.37 -0.56, 160.24 -0.59 M0.6 1.53 C27.01 1.48, 132.94 0.91, 159.42 0.64" stroke="#58a6ff" stroke-width="2" fill="none"></path></g><g transform="translate(247 200) rotate(0 80 0)"><path d="M130.13 11.51 C140.21 7.96, 149.59 2.84, 158.54 2.04 M130.66 11.96 C138.88 9.01, 146.06 6.54, 158.95 1.17" stroke="#58a6ff" stroke-width="2" fill="none"></path></g><g transform="translate(247 200) rotate(0 80 0)"><path d="M129.97 -9.01 C140.19 -5.31, 149.62 -3.19, 158.54 2.04 M130.51 -8.56 C138.95 -5.96, 146.17 -2.9, 158.95 1.17" stroke="#58a6ff" stroke-width="2" fill="none"></path></g></g><g transform="translate(306 172) rotate(0 18.444984436035156 8.75)"><text x="0" y="NaN" font-family="Virgil, Segoe UI Emoji" font-size="14px" fill="#58a6ff" text-anchor="start" style="white-space: pre;" direction="ltr">10 ms</text></g><g stroke-linecap="round"><g transform="translate(595 200) rotate(0 80 0)"><path d="M0.13 -0.53 C27.1 -0.43, 134.12 0.67, 160.92 0.77 M-1.26 1.81 C25.72 1.55, 133.47 -0.88, 160.45 -0.95" stroke="#58a6ff" stroke-width="2" fill="none"></path></g><g transform="translate(595 200) rotate(0 80 0)"><path d="M131.53 11.23 C139.96 8.81, 145.06 4.23, 160.63 0.42 M132.2 9.96 C137.48 8.11, 144.58 4.76, 161.29 -1.65" stroke="#58a6ff" stroke-width="2" fill="none"></path></g><g transform="translate(595 200) rotate(0 80 0)"><path d="M131.25 -9.29 C139.78 -7.11, 144.93 -7.09, 160.63 0.42 M131.92 -10.56 C137.31 -8.01, 144.48 -6.97, 161.29 -1.65" stroke="#58a6ff" stroke-width="2" fill="none"></path></g></g><g transform="translate(654 172) rotate(0 21.531982421875 8.75)"><text x="0" y="NaN" font-family="Virgil, Segoe UI Emoji" font-size="14px" fill="#58a6ff" text-anchor="start" style="white-space: pre;" direction="ltr">20 ms</text></g><g transform="translate(70 250) rotate(0 202.77587890625 10)"><text x="0" y="NaN" font-family="Virgil, Segoe UI Emoji" font-size="16px" fill="#8b949e" text-anchor="start" style="white-space: pre;" direction="ltr">p99 &lt; 50 ms · uses request context (session, geo)</text></g><g stroke-opacity="0.6" fill-opacity="0.6" stroke-linecap="round" transform="translate(10 330) rotate(0 590 100)"><path d="M1.52 -1.94 L1179.26 0.79 L1180.85 198.87 L1.7 199.32" stroke="none" stroke-width="0" fill="#161b22"></path><path d="M0.26 -0.49 C285.25 -3.71, 568.64 -3.8, 1179.68 0.53 M1178.53 -0.77 C1178.27 69.68, 1178.72 139.03, 1179.45 198.9 M1180.51 200.56 C880.75 200.47, 582.38 200.89, -0.8 200.64 M-0.77 199.16 C1.1 121.62, 1.32 40.94, 0.4 -0.85" stroke="#30363d" stroke-width="2.5" fill="none" stroke-dasharray="8 10"></path></g><g transform="translate(30 344) rotate(0 127.61991119384766 11.25)"><text x="0" y="NaN" font-family="Virgil, Segoe UI Emoji" font-size="18px" fill="#8b949e" text-anchor="start" style="white-space: pre;" direction="ltr">2. Streaming (near-real-time)</text></g><g stroke-linecap="round" transform="translate(70 410) rotate(0 88.5 30)"><path d="M1.03 1.13 L175.29 0.45 L176.89 60.42 L0.9 61.2" stroke="none" stroke-width="0" fill="#5c3a10"></path><path d="M1.75 -0.26 C46.47 -0.18, 98.09 -1.8, 175.2 -0.21 M-0.11 -0.61 C53.06 -0.95, 106.92 -0.54, 177.02 -0.8 M178.65 -0.41 C177.61 19.73, 176.97 39.34, 176.52 59.71 M176.1 -0.47 C176.26 21.72, 177.36 42.2, 177.27 60.23 M175.32 58.84 C141.39 57.86, 106.61 59.78, -0.16 60.15 M176.93 60.56 C125.9 60.85, 75.34 61.05, -0.56 60.27 M0.54 58.5 C1.2 35.94, 0.01 11.34, 0.51 0.68 M-0.48 60.41 C-0.13 40.06, -0.57 20.43, -0.61 -0.57" stroke="#f0883e" stroke-width="2" fill="none"></path></g><g transform="translate(70 427.4) rotate(0 88.5 11.25)"><text x="88.5" y="NaN" font-family="Virgil, Segoe UI Emoji" font-size="18px" fill="#ffffff" text-anchor="middle" style="white-space: pre;" direction="ltr">Kafka events</text></g><g stroke-linecap="round" transform="translate(407 410) rotate(0 94 30)"><path d="M-0.5 -1.22 L186.56 -1.13 L187.75 61.98 L0.02 60.29" stroke="none" stroke-width="0" fill="#3a1d6e"></path><path d="M1.62 -0.87 C45.06 0.5, 91.16 0.93, 189.71 -0.81 M0.79 -0.57 C39.6 -1.3, 81.48 -2.19, 187.25 -0.01 M186.84 0.7 C189.23 18.85, 188.86 37.46, 187.25 60.3 M187.6 -0.41 C187.01 23.45, 188.91 45.36, 188.27 60.49 M187.32 61.53 C119.63 59.41, 56.47 57.95, 0.26 59.16 M187.79 59.81 C119.39 57.74, 49.26 59.38, 0.79 60.05 M-1.13 58.19 C-0.05 42.08, 0.13 22.71, 1.38 -0.65 M0.14 60.54 C-0.13 37.96, 0.32 16.08, -0.93 -0.04" stroke="#a371f7" stroke-width="2" fill="none"></path></g><g transform="translate(407 427.4) rotate(0 94 11.25)"><text x="94" y="NaN" font-family="Virgil, Segoe UI Emoji" font-size="18px" fill="#ffffff" text-anchor="middle" style="white-space: pre;" direction="ltr">Flink + Model</text></g><g stroke-linecap="round" transform="translate(755 410) rotate(0 85 30)"><path d="M-0.14 0.2 L168.55 0.83 L170.87 60.14 L1.62 59.7" stroke="none" stroke-width="0" fill="#0d2c5a"></path><path d="M2 -0.75 C43.75 -0.76, 88.21 -2.8, 171.07 1.4 M-0.77 -0.5 C41.36 -0.63, 83.27 -0.52, 169.6 0.43 M168.31 1.56 C170.4 15.89, 171.02 32.98, 171.81 61.6 M170.47 -0.67 C171.23 14.87, 170.18 28.54, 170.74 59.61 M171.25 58.86 C127.64 60.68, 85.66 58.85, 1.57 59.02 M169.33 59.99 C115.82 59.94, 62.5 59.84, -0.27 60.63 M-1.41 59.01 C-0.8 45.58, 0.99 27.97, 1.17 0.97 M-0.06 59.23 C0.71 47.25, 0.54 32.24, 0.53 0.45" stroke="#58a6ff" stroke-width="2" fill="none"></path></g><g transform="translate(755 427.4) rotate(0 85 11.25)"><text x="85" y="NaN" font-family="Virgil, Segoe UI Emoji" font-size="18px" fill="#ffffff" text-anchor="middle" style="white-space: pre;" direction="ltr">Online KV</text></g><g stroke-linecap="round"><g transform="translate(247 440) rotate(0 80 0)"><path d="M0.73 -0.62 C27.2 -0.8, 133.08 -0.73, 159.73 -0.56" stroke="#f0883e" stroke-width="2.5" fill="none" stroke-dasharray="8 10"></path></g><g transform="translate(247 440) rotate(0 80 0)"><path d="M130.48 9.18 C141.07 6.79, 153.19 3.17, 159.1 -1.67" stroke="#f0883e" stroke-width="2.5" fill="none"></path></g><g transform="translate(247 440) rotate(0 80 0)"><path d="M130.54 -11.34 C141.2 -6.07, 153.3 -2.03, 159.1 -1.67" stroke="#f0883e" stroke-width="2.5" fill="none"></path></g></g><g transform="translate(302 412) rotate(0 23.694976806640625 8.75)"><text x="0" y="NaN" font-family="Virgil, Segoe UI Emoji" font-size="14px" fill="#f0883e" text-anchor="start" style="white-space: pre;" direction="ltr">stream</text></g><g stroke-linecap="round"><g transform="translate(595 440) rotate(0 80 0)"><path d="M-0.44 -0.92 C25.92 -0.65, 132.28 1.12, 158.86 1.19 M1.52 1.21 C28.18 1.21, 134.32 -0.19, 160.97 -0.31" stroke="#3fb950" stroke-width="2" fill="none"></path></g><g transform="translate(595 440) rotate(0 80 0)"><path d="M131.34 8.31 C144.92 4.91, 152.07 1.69, 161.01 -0.3 M132.11 9.92 C144.33 7.15, 154.94 3.29, 161.52 0.54" stroke="#3fb950" stroke-width="2" fill="none"></path></g><g transform="translate(595 440) rotate(0 80 0)"><path d="M131.15 -12.21 C144.72 -8.29, 151.94 -4.18, 161.01 -0.3 M131.92 -10.61 C144.3 -5.54, 154.98 -1.56, 161.52 0.54" stroke="#3fb950" stroke-width="2" fill="none"></path></g></g><g transform="translate(654 412) rotate(0 16.58997344970703 8.75)"><text x="0" y="NaN" font-family="Virgil, Segoe UI Emoji" font-size="14px" fill="#3fb950" text-anchor="start" style="white-space: pre;" direction="ltr">write</text></g><g transform="translate(70 490) rotate(0 193.8558807373047 10)"><text x="0" y="NaN" font-family="Virgil, Segoe UI Emoji" font-size="16px" fill="#8b949e" text-anchor="start" style="white-space: pre;" direction="ltr">seconds-fresh predictions · cache read on serving</text></g><g stroke-opacity="0.6" fill-opacity="0.6" stroke-linecap="round" transform="translate(10 570) rotate(0 590 100)"><path d="M-1.84 0.77 L1181.25 -0.45 L1178.96 201.92 L0.33 199.29" stroke="none" stroke-width="0" fill="#161b22"></path><path d="M0.47 -0.14 C380.12 0.91, 761.03 0.43, 1180.37 -0.02 M1181.27 1.32 C1177.99 66.25, 1179.85 134.45, 1181.08 201.61 M1179.91 200.16 C806.26 203.22, 434.25 202.94, -0.08 199.33 M0.1 199.66 C-2.73 144.28, -2.53 90.95, 0.33 1.29" stroke="#30363d" stroke-width="2.5" fill="none" stroke-dasharray="8 10"></path></g><g transform="translate(30 584) rotate(0 130.25692749023438 11.25)"><text x="0" y="NaN" font-family="Virgil, Segoe UI Emoji" font-size="18px" fill="#8b949e" text-anchor="start" style="white-space: pre;" direction="ltr">3. Batch (precompute nightly)</text></g><g stroke-linecap="round" transform="translate(70 650) rotate(0 85 30)"><path d="M-0.2 0.06 L169.35 0.86 L171.41 60.47 L-0.86 59.01" stroke="none" stroke-width="0" fill="#0d2c5a"></path><path d="M0.2 -1.29 C47.7 2.21, 94.02 1.98, 170.12 0.32 M0.27 0.43 C65.08 0.6, 130.41 0.1, 169.32 0.7 M169.33 1.21 C171.03 19.18, 169.8 39.74, 169.41 58.94 M170.99 0.44 C169.14 17.12, 169.56 35.05, 169.79 59.04 M169.09 59.22 C118.8 58.85, 66.43 60.81, 0.78 61.25 M169.3 59.05 C128.16 61.89, 87.33 60.95, 0.74 60.86 M-1.07 60.86 C1.97 34.93, -0.29 13.62, 0.43 -0.16 M-0.55 59.69 C0.51 43.75, -0.11 27.31, 0.1 -0.2" stroke="#58a6ff" stroke-width="2" fill="none"></path></g><g transform="translate(70 667.4) rotate(0 85 11.25)"><text x="85" y="NaN" font-family="Virgil, Segoe UI Emoji" font-size="18px" fill="#ffffff" text-anchor="middle" style="white-space: pre;" direction="ltr">Warehouse</text></g><g stroke-linecap="round" transform="translate(400 650) rotate(0 94 30)"><path d="M-0.54 0.34 L189.18 0.02 L187.75 59.91 L1.48 59.23" stroke="none" stroke-width="0" fill="#3a1d6e"></path><path d="M0.34 1.42 C38.63 -1.53, 78.91 -2.09, 188.3 1.41 M0.41 0.32 C73.79 -1.03, 147.2 -0.41, 188.8 -0.6 M188.92 -1.05 C189.56 24.16, 187 44.07, 189.7 58.57 M188.99 -0.98 C188.15 17.47, 188.22 33.51, 188.36 59.53 M188.66 59.21 C124.64 60.03, 61.77 60.98, -0.07 60.6 M187.05 60.83 C117.84 59.83, 48.59 60.82, 0.98 59.19 M-0.92 61.15 C-1.39 38.34, 0.73 13.75, -0.22 0.53 M-0.89 59.67 C-0.39 37.02, -0.58 14.38, 0.1 0.69" stroke="#a371f7" stroke-width="2" fill="none"></path></g><g transform="translate(400 667.4) rotate(0 94 11.25)"><text x="94" y="NaN" font-family="Virgil, Segoe UI Emoji" font-size="18px" fill="#ffffff" text-anchor="middle" style="white-space: pre;" direction="ltr">Spark + Model</text></g><g stroke-linecap="round" transform="translate(748 650) rotate(0 85 30)"><path d="M1.62 0.89 L170.48 1.93 L171.42 60.6 L1.1 59.64" stroke="none" stroke-width="0" fill="#0d2c5a"></path><path d="M-0.69 -1.64 C36.55 -0.5, 72.12 -1.83, 169.6 -0.53 M0.3 -0.38 C62.72 1.55, 126.86 0.74, 169.78 0.73 M169 -1.99 C168.48 14.25, 169.26 26.64, 169.45 61.71 M169.71 -0.73 C169.51 14.67, 170.32 30.19, 169.03 59.47 M169.51 58.55 C108.97 60.45, 43.93 57.89, 0.2 61.66 M169.47 59.87 C113.49 60.33, 56.47 60.98, 0.92 60.22 M-1.84 60.97 C0.04 39.6, 1.92 21.8, -1.16 1.93 M0.45 59.33 C-0.9 46.23, -0.22 34.37, 0.21 -0.16" stroke="#58a6ff" stroke-width="2" fill="none"></path></g><g transform="translate(748 667.4) rotate(0 85 11.25)"><text x="85" y="NaN" font-family="Virgil, Segoe UI Emoji" font-size="18px" fill="#ffffff" text-anchor="middle" style="white-space: pre;" direction="ltr">Online KV</text></g><g stroke-linecap="round"><g transform="translate(240 680) rotate(0 80 0)"><path d="M1.09 -0.98 C27.47 -0.92, 132.67 -0.12, 159.35 0.05 M0.21 1.13 C26.88 1.41, 134.91 1.57, 161.71 1.62" stroke="#58a6ff" stroke-width="2" fill="none"></path></g><g transform="translate(240 680) rotate(0 80 0)"><path d="M131.88 10.74 C144.61 9.53, 155.67 5.25, 162.18 1 M132.89 12.58 C144.28 8.02, 155.81 3.54, 161.81 2.03" stroke="#58a6ff" stroke-width="2" fill="none"></path></g><g transform="translate(240 680) rotate(0 80 0)"><path d="M131.92 -9.78 C144.59 -2.99, 155.63 0.72, 162.18 1 M132.93 -7.94 C144.1 -4.66, 155.62 -1.31, 161.81 2.03" stroke="#58a6ff" stroke-width="2" fill="none"></path></g></g><g transform="translate(300 652) rotate(0 15.490982055664062 8.75)"><text x="0" y="NaN" font-family="Virgil, Segoe UI Emoji" font-size="14px" fill="#58a6ff" text-anchor="start" style="white-space: pre;" direction="ltr">read</text></g><g stroke-linecap="round"><g transform="translate(588 680) rotate(0 80 0)"><path d="M-0.48 -1.18 C26.14 -1.22, 133.24 -0.75, 160.07 -0.45 M1.46 0.82 C27.9 0.97, 132.73 1.22, 159.16 0.85" stroke="#3fb950" stroke-width="2" fill="none"></path></g><g transform="translate(588 680) rotate(0 80 0)"><path d="M129.06 11.35 C139.58 8.8, 150.64 4.31, 158.7 2.44 M131.48 10.42 C139.91 9.21, 147.66 4.59, 159.22 1.02" stroke="#3fb950" stroke-width="2" fill="none"></path></g><g transform="translate(588 680) rotate(0 80 0)"><path d="M128.96 -9.17 C139.48 -4.94, 150.57 -2.66, 158.7 2.44 M131.39 -10.1 C139.71 -5.22, 147.49 -3.76, 159.22 1.02" stroke="#3fb950" stroke-width="2" fill="none"></path></g></g><g transform="translate(647 652) rotate(0 16.58997344970703 8.75)"><text x="0" y="NaN" font-family="Virgil, Segoe UI Emoji" font-size="14px" fill="#3fb950" text-anchor="start" style="white-space: pre;" direction="ltr">write</text></g><g transform="translate(70 730) rotate(0 228.5518341064453 10)"><text x="0" y="NaN" font-family="Virgil, Segoe UI Emoji" font-size="16px" fill="#8b949e" text-anchor="start" style="white-space: pre;" direction="ltr">hours-stale · arbitrarily expensive models · sub-ms serving</text></g></svg>