<svg version="1.1" xmlns="http://www.w3.org/2000/svg" viewBox="0 0 1460 811.5" width="1460" height="811.5">
  <!-- svg-source:excalidraw -->
  
  <defs>
    <style>
      @font-face {
        font-family: "Virgil";
        src: url("https://excalidraw.com/Virgil.woff2");
      }
      @font-face {
        font-family: "Cascadia";
        src: url("https://excalidraw.com/Cascadia.woff2");
      }
    </style>
  </defs>
  <rect x="0" y="0" width="1460" height="811.5" fill="#1e1e2e"></rect><g transform="translate(10 10) rotate(0 515.997802734375 17.5)"><text x="0" y="NaN" font-family="Virgil, Segoe UI Emoji" font-size="28px" fill="#ff8c42" text-anchor="start" style="white-space: pre;" direction="ltr">Strangler Fig Lifecycle  —  the monolith shrinks as carve-outs accumulate</text></g><g transform="translate(10 50) rotate(0 357.3907775878906 10.625)"><text x="0" y="NaN" font-family="Virgil, Segoe UI Emoji" font-size="17px" fill="#c9d1d9" text-anchor="start" style="white-space: pre;" direction="ltr">Five stages over months-to-years.  Both systems run simultaneously the entire time.</text></g><g stroke-opacity="0.7" fill-opacity="0.7" stroke-linecap="round" transform="translate(30 100) rotate(0 140 302.5)"><path d="M0.3 1.64 L280.33 -1.22 L278.09 604.03 L0.19 605.34" stroke="none" stroke-width="0" fill="#181825"></path><path d="M-1.47 0.41 C111.04 -0.34, 224.84 -0.58, 278.96 1.53 M279.32 0.72 C278.82 127.28, 278.78 254.86, 280.14 604.73 M281.03 605.99 C194.15 601.97, 108.51 602.56, 1.34 605.78 M0.32 604.67 C1.34 424.05, 1.18 243.79, -0.26 -0.46" stroke="#45475a" stroke-width="2.5" fill="none" stroke-dasharray="8 10"></path></g><g transform="translate(46 110) rotate(0 40.759971618652344 12.5)"><text x="0" y="NaN" font-family="Virgil, Segoe UI Emoji" font-size="20px" fill="#e6edf3" text-anchor="start" style="white-space: pre;" direction="ltr">Stage 0</text></g><g transform="translate(46 138) rotate(0 46.012451171875 9.375)"><text x="0" y="NaN" font-family="Virgil, Segoe UI Emoji" font-size="15px" fill="#8b949e" text-anchor="start" style="white-space: pre;" direction="ltr">Monolith only</text></g><g stroke-linecap="round" transform="translate(70 185) rotate(0 100 130)"><path d="M-0.94 -0.77 L201.64 1.22 L200.36 258.15 L-0.03 258.71" stroke="none" stroke-width="0" fill="#4a1219"></path><path d="M0.07 -0.88 C51.62 -3.23, 107.88 -2.22, 201.41 -0.71 M0.55 0.05 C61.14 0.44, 123.05 -0.02, 200.16 0.56 M199.5 1.26 C199.82 99.95, 199.72 198.44, 200.83 260.04 M200.41 -0.67 C199.05 74.31, 199.31 148.92, 199.8 259.73 M201.32 258.27 C139.01 258.23, 82.5 257.82, 0.27 258.97 M200.57 259.48 C151.04 261.55, 102.78 260.77, -0.47 260.86 M1.48 260.98 C-2.38 180.35, -2.01 101.57, 0.47 0.73 M0.4 260.72 C-0.87 205.09, -0.38 151.76, -0.6 0.42" stroke="#f85149" stroke-width="2" fill="none"></path></g><g transform="translate(129.7925262451172 305.625) rotate(0 40.20747375488281 9.375)"><text x="40.20747375488281" y="NaN" font-family="Virgil, Segoe UI Emoji" font-size="15px" fill="#ffffff" text-anchor="middle" style="white-space: pre;" direction="ltr">MONOLITH</text></g><g transform="translate(100 485) rotate(0 34.082969665527344 8.75)"><text x="0" y="NaN" font-family="Virgil, Segoe UI Emoji" font-size="14px" fill="#8b949e" text-anchor="start" style="white-space: pre;" direction="ltr">(none yet)</text></g><g transform="translate(46 455) rotate(0 35.86195373535156 7.5)"><text x="0" y="NaN" font-family="Virgil, Segoe UI Emoji" font-size="12px" fill="#8b949e" text-anchor="start" style="white-space: pre;" direction="ltr">new services</text></g><g stroke-linecap="round" transform="translate(46 625) rotate(0 124 8)"><path d="M-1.04 1.05 L246.99 0.5 L247.56 15.37 L1.08 14.98" stroke="none" stroke-width="0" fill="#4a1219"></path><path d="M1.19 -1.45 C72.6 1.92, 148.44 -0.25, 248.94 1.36 M-0.1 -0.05 C55.69 -2.27, 112.44 -1.66, 247.33 -0.47 M247.29 1.47 C247.68 4.14, 248.22 6.52, 246.87 14.6 M248.18 -0.52 C247.12 5.56, 248.06 9.92, 247.97 16.45 M246.52 16.93 C173.18 16.31, 97.7 17.06, 0.26 17.61 M247.53 15.61 C161.26 14.34, 74.91 13.8, 0.45 15.61 M1.43 17.06 C-0.1 12.57, -0.34 9.37, 1.2 -0.92 M-0.38 15.86 C0.22 10.92, -0.18 4.88, -0.33 -0.74" stroke="#f85149" stroke-width="1" fill="none"></path></g><g transform="translate(46 647) rotate(0 78.55244445800781 8.125)"><text x="0" y="NaN" font-family="Virgil, Segoe UI Emoji" font-size="13px" fill="#e6edf3" text-anchor="start" style="white-space: pre;" direction="ltr">100% monolith   0% new</text></g><g transform="translate(46 671) rotate(0 37.823951721191406 7.5)"><text x="0" y="NaN" font-family="Virgil, Segoe UI Emoji" font-size="12px" fill="#8b949e" text-anchor="start" style="white-space: pre;" direction="ltr">Pre-migration</text></g><g stroke-opacity="0.7" fill-opacity="0.7" stroke-linecap="round" transform="translate(315 100) rotate(0 140 302.5)"><path d="M0.64 -0.05 L281.87 -1.39 L278.43 603.29 L-1.73 604.31" stroke="none" stroke-width="0" fill="#1e1e2e"></path><path d="M0.42 -0.76 C58.8 -2.79, 114.83 -1.1, 279.35 -0.09 M279.36 -0.28 C279.31 132.98, 280.21 265.59, 280.08 605.1 M281.07 604.14 C215.31 602.93, 154.72 605.18, 0.66 606 M-0.55 605.38 C-2.64 375.52, -2.27 145.95, -0.54 -0.16" stroke="#45475a" stroke-width="2.5" fill="none" stroke-dasharray="8 10"></path></g><g transform="translate(331 110) rotate(0 36.58997344970703 12.5)"><text x="0" y="NaN" font-family="Virgil, Segoe UI Emoji" font-size="20px" fill="#e6edf3" text-anchor="start" style="white-space: pre;" direction="ltr">Stage 1</text></g><g transform="translate(331 138) rotate(0 59.34742736816406 9.375)"><text x="0" y="NaN" font-family="Virgil, Segoe UI Emoji" font-size="15px" fill="#8b949e" text-anchor="start" style="white-space: pre;" direction="ltr">Facade inserted</text></g><g stroke-linecap="round" transform="translate(366 225) rotate(0 89 110)"><path d="M-0.21 1.19 L177.58 -1.05 L178.78 218.72 L1.55 218.57" stroke="none" stroke-width="0" fill="#4a1219"></path><path d="M0.66 -1.58 C61.1 -1.84, 119.66 -1.45, 178.32 -0.89 M-0.59 -0.17 C51.26 0.24, 101.43 0.89, 178.47 -0.03 M178.09 -0.07 C180.78 46.07, 180.93 93.61, 178.61 218.76 M178.55 -0.81 C180.35 75.7, 178.96 152.39, 178.08 219.59 M176.12 221.6 C138.85 220.64, 101.81 219.77, 1.06 219.89 M177.43 220.95 C118.45 220.39, 57.77 221.03, 0.35 219.36 M1.51 219.79 C2.39 167.43, 1.36 113.19, -0.99 -0.03 M-0.49 220.38 C-1.27 136.32, -1.34 54.49, 0.14 -0.29" stroke="#f85149" stroke-width="2" fill="none"></path></g><g transform="translate(414.7925262451172 325.625) rotate(0 40.20747375488281 9.375)"><text x="40.20747375488281" y="NaN" font-family="Virgil, Segoe UI Emoji" font-size="15px" fill="#ffffff" text-anchor="middle" style="white-space: pre;" direction="ltr">MONOLITH</text></g><g stroke-linecap="round" transform="translate(430 455) rotate(0 25 16)"><path d="M0.58 -1.6 L50.05 1.83 L49.24 33.32 L-1.44 30.8" stroke="none" stroke-width="0" fill="#1f4d2b"></path><path d="M-1.82 -0.69 C13.25 -2.09, 26.15 0.85, 51 -0.5 M0.9 0.65 C14.43 -1.15, 27.53 -0.1, 50.67 0.9 M48.25 -0.6 C51.27 12.16, 49.43 20.5, 51.13 33.74 M50.46 0.03 C50.38 11.79, 49.56 21.1, 49.33 32.83 M50.75 31.76 C37.27 32.19, 25.35 31.26, 1.8 30.34 M49.01 32.24 C35.98 32.05, 21.9 32, 0.33 31.45 M-1.7 30.77 C1.75 22.19, 1.27 12.74, 0.8 -0.78 M0.61 32.54 C0.4 21.46, 0.53 11.3, -0.69 0.08" stroke="#3fb950" stroke-width="2" fill="none"></path></g><g transform="translate(331 455) rotate(0 35.86195373535156 7.5)"><text x="0" y="NaN" font-family="Virgil, Segoe UI Emoji" font-size="12px" fill="#8b949e" text-anchor="start" style="white-space: pre;" direction="ltr">new services</text></g><g stroke-linecap="round" transform="translate(331 625) rotate(0 117.5 8)"><path d="M-1.82 -1.43 L236.65 0.04 L234.72 15.29 L-1.32 16.66" stroke="none" stroke-width="0" fill="#4a1219"></path><path d="M-1.11 1.22 C77.89 1.17, 157.44 -0.16, 236.41 1.46 M0.82 -0.04 C67.64 -0.56, 135.37 0.22, 234.27 0.53 M236.37 0.91 C235.89 3.89, 235.5 9.06, 236.15 16.9 M234.92 0.69 C235.43 6.2, 235.8 12.66, 234.62 15.65 M234.19 14.5 C178.85 15.67, 124.88 16.55, -1.23 15.48 M235.03 16.82 C160.55 17.15, 85.36 16.8, -0.84 15.65 M-1.48 15.88 C-0.99 9.02, -0.3 4.13, -1.52 0.47 M-0.39 15.59 C-0.08 11.26, -0.83 6.96, -0.45 0.24" stroke="#f85149" stroke-width="1" fill="none"></path></g><g stroke-linecap="round" transform="translate(566 625) rotate(0 6.5 8)"><path d="M-1.38 0.7 L13.79 -0.55 L13.08 14.38 L-0.14 17.62" stroke="none" stroke-width="0" fill="#1f4d2b"></path><path d="M-0.6 -0.75 C4.46 0.33, 7.62 -0.96, 12.22 -0.82 M-0.54 -0.56 C4.18 0.38, 7.11 0.44, 12.87 -0.22 M13.35 0.18 C12.68 4.83, 12.82 9.23, 12.07 15.31 M12.68 -0.57 C12.53 6.29, 12.44 10.84, 12.7 15.74 M13.38 16.16 C8.73 17.21, 5.5 15.15, 0.37 15.7 M13.3 16.02 C9.45 16.34, 6.6 16.18, -0.59 16.61 M-1.43 14.96 C-0.8 11.55, 1.08 6.12, -1.23 0.88 M-0.77 16.07 C0.48 10.4, -0.62 6.28, 0.6 -0.57" stroke="#3fb950" stroke-width="1" fill="none"></path></g><g transform="translate(331 647) rotate(0 75.36743927001953 8.125)"><text x="0" y="NaN" font-family="Virgil, Segoe UI Emoji" font-size="13px" fill="#e6edf3" text-anchor="start" style="white-space: pre;" direction="ltr">95% monolith   5% new</text></g><g transform="translate(331 671) rotate(0 46.91993713378906 7.5)"><text x="0" y="NaN" font-family="Virgil, Segoe UI Emoji" font-size="12px" fill="#8b949e" text-anchor="start" style="white-space: pre;" direction="ltr">1 service carved</text></g><g stroke-opacity="0.7" fill-opacity="0.7" stroke-linecap="round" transform="translate(600 100) rotate(0 140 302.5)"><path d="M1.8 0.82 L279 1.55 L281.53 606.1 L1.2 606.18" stroke="none" stroke-width="0" fill="#181825"></path><path d="M-1.24 0.58 C63.55 0.12, 128.23 -1.77, 278.76 -0.11 M279.29 -0.74 C280.29 131.22, 279.99 260.56, 280.63 604.36 M281.33 605.98 C201.98 603.78, 126.91 604.64, 1.41 604.67 M-0.73 604.25 C1.52 457.62, 2.35 309.83, -0.68 -0.4" stroke="#45475a" stroke-width="2.5" fill="none" stroke-dasharray="8 10"></path></g><g transform="translate(616 110) rotate(0 40.999969482421875 12.5)"><text x="0" y="NaN" font-family="Virgil, Segoe UI Emoji" font-size="20px" fill="#e6edf3" text-anchor="start" style="white-space: pre;" direction="ltr">Stage 2</text></g><g transform="translate(616 138) rotate(0 68.83493041992188 9.375)"><text x="0" y="NaN" font-family="Virgil, Segoe UI Emoji" font-size="15px" fill="#8b949e" text-anchor="start" style="white-space: pre;" direction="ltr">Carving in progress</text></g><g stroke-linecap="round" transform="translate(667 285) rotate(0 73 80)"><path d="M-1.85 1.7 L144.2 -1.7 L144.99 158.19 L-0.7 158.66" stroke="none" stroke-width="0" fill="#4a1219"></path><path d="M-1.11 -1 C52.37 0.54, 107.67 -0.25, 144.07 0.41 M-0.53 0.28 C49.1 -1.4, 96.61 -1.31, 145.45 0.53 M147.29 -0.54 C146.17 49.26, 145.35 96.36, 145.26 159.25 M145.61 -0.77 C146.69 32.03, 146.32 65.04, 145.66 160.11 M145.65 158.74 C90.54 162.19, 35.64 160.18, -1.01 159.27 M146.72 159.9 C102.39 159.56, 56.01 159.12, -0.42 160.74 M-1.74 161.9 C-2.29 119.06, -0.12 76.55, 1.3 1.19 M-0.04 160.37 C-0.1 110.34, 0.69 61.44, 0.9 0.73" stroke="#f85149" stroke-width="2" fill="none"></path></g><g transform="translate(699.7925262451172 355.625) rotate(0 40.20747375488281 9.375)"><text x="40.20747375488281" y="NaN" font-family="Virgil, Segoe UI Emoji" font-size="15px" fill="#ffffff" text-anchor="middle" style="white-space: pre;" direction="ltr">MONOLITH</text></g><g stroke-linecap="round" transform="translate(631 480) rotate(0 25 16)"><path d="M1.26 1.73 L49.14 1.82 L50.52 31.76 L0.47 32.06" stroke="none" stroke-width="0" fill="#1f4d2b"></path><path d="M-1.9 0.05 C13.9 -1.77, 28.88 0.96, 49.03 0.43 M-0.43 -0.27 C15.05 0.38, 28.06 -0.53, 49.76 -0.95 M50.01 -1.63 C49.95 11.19, 49.29 20.09, 51.44 33.22 M49.06 -0.16 C49.9 6.15, 50.59 13.27, 50.69 32.8 M51.42 32.61 C37.39 32.75, 22.15 31.94, -0.14 33.55 M49.25 31.68 C32.09 31.5, 16.73 32.43, 0.96 31.39 M-0.88 30.47 C-1.7 20.19, 0.15 7.62, 0.95 1.26 M-0.4 31.18 C-0.1 24.1, 0.15 16.99, 0.53 -0.02" stroke="#3fb950" stroke-width="2" fill="none"></path></g><g stroke-linecap="round" transform="translate(687 480) rotate(0 25 16)"><path d="M0.3 1.04 L51.3 1.81 L49.99 33.59 L-0.49 30.55" stroke="none" stroke-width="0" fill="#1f4d2b"></path><path d="M1.89 -1.44 C14.31 -0.3, 29.09 0.54, 50.41 0.16 M-0.36 -0.87 C18.78 -0.36, 38.31 0.56, 50.19 0.1 M50.2 -0.15 C49.2 11.76, 48.01 21.07, 48.12 32.57 M49.78 -0.21 C50.82 9.56, 49.48 18.3, 50.38 32.03 M49.22 33.8 C34.44 31.44, 20.42 31.41, 1.54 30.14 M50.37 31.43 C33.83 31.28, 16.22 31.45, 0.3 32.14 M0.71 30.57 C-1.82 26.91, -0.15 20.36, -0.44 0.72 M0.92 32.77 C0.13 24.7, 0.82 15.44, -0.72 -0.83" stroke="#3fb950" stroke-width="2" fill="none"></path></g><g stroke-linecap="round" transform="translate(743 480) rotate(0 25 16)"><path d="M-0.33 -1.62 L49.31 -0.21 L51.96 33.54 L-1.57 33.23" stroke="none" stroke-width="0" fill="#1f4d2b"></path><path d="M1.44 -1.78 C14.34 2.01, 30.38 1.49, 49.55 0.3 M-0.44 0.59 C18.06 0.57, 38.44 -0.28, 50.21 -0.94 M48.86 1.66 C49.03 10.37, 50.08 20.68, 50.86 32.32 M49.18 0.24 C49.9 12.06, 50.34 22.69, 50.63 31.45 M49.68 33.52 C38.59 32.89, 28.98 31.81, 0.22 32.31 M49.25 31.96 C30.21 31.91, 11.52 31.96, 0.67 32.57 M-0.05 31.59 C-1.72 20.52, 1.44 12.65, 0.68 -1.6 M-0.41 31.67 C0.68 24.56, 0.45 15.51, 0.2 -0.4" stroke="#3fb950" stroke-width="2" fill="none"></path></g><g stroke-linecap="round" transform="translate(799 480) rotate(0 25 16)"><path d="M-0.03 0.94 L50.66 -0.47 L48.54 31.72 L0.21 32.07" stroke="none" stroke-width="0" fill="#1f4d2b"></path><path d="M1.47 1.7 C15.03 -0.96, 28.94 1.18, 48.1 1.18 M0.76 -0.98 C14.67 0.29, 30.34 -0.19, 50.87 0.31 M50.63 1.62 C49.21 11.23, 48.95 19.44, 51.02 32.94 M50.16 0.03 C49.86 10.07, 50.4 20.48, 49.18 31.64 M48.23 31.35 C31.42 30.58, 14.67 32.77, -0.08 32.29 M50.82 32.94 C32.44 32.77, 16.53 32.42, -0.41 32.24 M0.46 31.86 C0.27 20.83, 0.76 14.91, 0.21 -1.79 M0.83 32.64 C-0.04 25.33, -0.34 18.15, -0.96 0.81" stroke="#3fb950" stroke-width="2" fill="none"></path></g><g transform="translate(616 455) rotate(0 35.86195373535156 7.5)"><text x="0" y="NaN" font-family="Virgil, Segoe UI Emoji" font-size="12px" fill="#8b949e" text-anchor="start" style="white-space: pre;" direction="ltr">new services</text></g><g stroke-linecap="round" transform="translate(616 625) rotate(0 86.5 8)"><path d="M1.84 -0.29 L173.7 -0.12 L173.46 15.88 L-1.44 16.72" stroke="none" stroke-width="0" fill="#4a1219"></path><path d="M0.76 1.64 C61.45 -2.99, 121.8 -2.94, 172.03 -1.4 M-0.49 -0.8 C67.2 -1.19, 133.35 -1.35, 172.04 -0.88 M172.17 -0.54 C173.21 4.71, 174.58 9.18, 172.9 17.07 M173.78 -0.33 C173.02 5.29, 172.96 10.18, 172.28 15.6 M174.83 17.18 C122.41 15.17, 73.69 14.83, -0.43 14.7 M172.67 15.81 C114.39 16.3, 54.84 15.77, -0.19 16.14 M-0.14 15.41 C1.6 13.01, 1.44 7.11, -0.44 -0.82 M-0.1 15.95 C-0.57 11.96, 0.4 7.2, -0.21 -0.38" stroke="#f85149" stroke-width="1" fill="none"></path></g><g stroke-linecap="round" transform="translate(789 625) rotate(0 37.5 8)"><path d="M-1.06 -0.96 L73.6 -0.05 L74.98 14.83 L0.89 14.85" stroke="none" stroke-width="0" fill="#1f4d2b"></path><path d="M0.03 1.44 C23.7 1.87, 44.91 1.72, 74.79 -0.33 M-0.53 0.62 C21.77 -0.48, 42.62 0.31, 74.26 0.34 M74.82 -1.21 C73.9 3.4, 73.92 8.07, 73.94 15.2 M75.38 0.54 C75.52 3.8, 75.6 8.65, 74.6 16.35 M75.15 15.82 C51.71 15.28, 29.92 15.85, -0.92 17.81 M74.2 15.96 C57.21 15.85, 40.88 15.99, -0.45 16.73 M1.38 17.12 C-1.14 12.67, 1.09 9.21, 1.35 -0.7 M0 15.86 C-0.08 10.45, 0.23 5.72, 0.58 0.39" stroke="#3fb950" stroke-width="1" fill="none"></path></g><g transform="translate(616 647) rotate(0 80.24243927001953 8.125)"><text x="0" y="NaN" font-family="Virgil, Segoe UI Emoji" font-size="13px" fill="#e6edf3" text-anchor="start" style="white-space: pre;" direction="ltr">70% monolith   30% new</text></g><g transform="translate(616 671) rotate(0 52.391929626464844 7.5)"><text x="0" y="NaN" font-family="Virgil, Segoe UI Emoji" font-size="12px" fill="#8b949e" text-anchor="start" style="white-space: pre;" direction="ltr">4 services carved</text></g><g stroke-opacity="0.7" fill-opacity="0.7" stroke-linecap="round" transform="translate(885 100) rotate(0 140 302.5)"><path d="M-1.77 0.59 L278.49 -0.29 L280.43 605.16 L-1.08 606.8" stroke="none" stroke-width="0" fill="#1e1e2e"></path><path d="M0.05 -0.24 C60.23 -0.74, 124.24 -0.98, 281.03 1.27 M280.39 0.6 C279.6 157.16, 279.44 313.62, 279.55 605.18 M279.28 606.25 C188.69 604.46, 99.24 601.56, 0.42 605.33 M0.14 604.21 C-1.31 443.67, -0.66 283.21, 0.68 0.44" stroke="#45475a" stroke-width="2.5" fill="none" stroke-dasharray="8 10"></path></g><g transform="translate(901 110) rotate(0 40.689971923828125 12.5)"><text x="0" y="NaN" font-family="Virgil, Segoe UI Emoji" font-size="20px" fill="#e6edf3" text-anchor="start" style="white-space: pre;" direction="ltr">Stage 3</text></g><g transform="translate(901 138) rotate(0 61.589935302734375 9.375)"><text x="0" y="NaN" font-family="Virgil, Segoe UI Emoji" font-size="15px" fill="#8b949e" text-anchor="start" style="white-space: pre;" direction="ltr">Mostly strangled</text></g><g stroke-linecap="round" transform="translate(973 365) rotate(0 51.5 40)"><path d="M-0.46 -1.93 L103.7 0.48 L104.24 79.29 L1.27 79.17" stroke="none" stroke-width="0" fill="#4a1219"></path><path d="M-0.41 0.51 C37.75 0.52, 80.12 1.42, 103.56 -0.69 M-0.66 0 C24.81 0.55, 48.03 1.03, 102.11 0.73 M102.99 -1.26 C104.86 21.8, 101.83 42.84, 101.85 80.32 M103.19 -0.08 C102.79 25.51, 103.28 50.2, 102.51 79.86 M103.16 79.08 C67.11 81.4, 29.04 79.68, -0.98 79.52 M103.26 79.22 C64.15 80.89, 24.9 81.46, 0.97 79.08 M0.67 81.57 C-1.36 54.4, -1.48 24.84, -0.51 -0.49 M0.65 79.92 C0.29 62.66, 0.78 43.86, 0.75 -0.92" stroke="#f85149" stroke-width="2" fill="none"></path></g><g transform="translate(984.2925262451172 395.625) rotate(0 40.20747375488281 9.375)"><text x="40.20747375488281" y="NaN" font-family="Virgil, Segoe UI Emoji" font-size="15px" fill="#ffffff" text-anchor="middle" style="white-space: pre;" direction="ltr">MONOLITH</text></g><g stroke-linecap="round" transform="translate(916 480) rotate(0 25 16)"><path d="M-1.29 0.31 L51.51 0.4 L50.34 33.17 L0.7 32.95" stroke="none" stroke-width="0" fill="#1f4d2b"></path><path d="M0.89 -0.07 C19.47 0.9, 37.66 -0.46, 50.73 -0.83 M-0.09 0.43 C15.33 -0.73, 29.96 -0.85, 49.5 0.6 M48.62 -1.21 C48.53 8.76, 48.84 15.26, 50 31.65 M50.23 -0.53 C50.1 7.3, 50.6 13.63, 50.44 32.57 M50.52 31.98 C35.84 32.45, 20.41 32.09, 0.84 31.82 M49.71 32.07 C38.69 31.96, 27.93 31.36, 0.55 31.1 M1.93 30.19 C-1.56 20.53, -1.5 11.27, 0.87 0.02 M-0.54 32.86 C-0.16 24.89, -0.83 16.59, 0.94 -0.66" stroke="#3fb950" stroke-width="2" fill="none"></path></g><g stroke-linecap="round" transform="translate(972 480) rotate(0 25 16)"><path d="M0.95 -0.23 L50.82 -0.13 L50.51 32.33 L1.72 31.34" stroke="none" stroke-width="0" fill="#1f4d2b"></path><path d="M1.74 0.86 C18.58 0.67, 33.92 -1.73, 48.25 1.53 M-0.58 0.91 C17 0.42, 33.97 0.31, 49.27 0.17 M48.87 0.83 C48.04 11.46, 49.62 22.04, 50.36 32.75 M49.94 0.73 C50.53 9.26, 50.56 16.39, 49.89 31.82 M48.89 31.67 C37.17 32.35, 23.03 30.28, -1.48 30.43 M49.31 32.48 C31.09 31.71, 13.11 31.43, -0.19 32.96 M1.77 32.51 C-0.24 22.81, 1.56 14.34, 1.28 0.34 M-0.09 31.32 C0.61 24.16, 1.03 15.17, 0.55 -0.76" stroke="#3fb950" stroke-width="2" fill="none"></path></g><g stroke-linecap="round" transform="translate(1028 480) rotate(0 25 16)"><path d="M1.51 1.27 L49.77 1.72 L50.44 30.32 L1.53 30.24" stroke="none" stroke-width="0" fill="#1f4d2b"></path><path d="M-1.55 -0.25 C10.03 0.04, 21.77 0.16, 51.17 -0.65 M0.09 0.56 C18.27 0.55, 37.46 0.75, 49.53 0.98 M51.31 -0.08 C48.78 7.61, 49.11 18.35, 49.83 33.28 M50.88 0.19 C50.01 12.94, 49.55 24.81, 49.22 32.55 M49.31 30.71 C37.22 30.62, 21.97 33.29, 1.66 30.5 M49.36 32.78 C37.06 32.9, 24.88 32.53, 0.6 32.4 M0.96 32.59 C0.84 20.31, -1.91 13.11, 1.37 -0.89 M-0.72 32.86 C0.05 24.82, -0.1 18.35, 0.8 0.27" stroke="#3fb950" stroke-width="2" fill="none"></path></g><g stroke-linecap="round" transform="translate(1084 480) rotate(0 25 16)"><path d="M1.47 1.26 L49.3 -1.56 L49.7 33.4 L-1.81 32.58" stroke="none" stroke-width="0" fill="#1f4d2b"></path><path d="M1.41 -0.11 C14.81 -0.74, 27.21 -1.08, 49.05 0.95 M0.64 -0.1 C15.24 -0.76, 30.83 -0.73, 49.02 0.8 M50.44 -1.95 C48.21 5.54, 48.24 12.96, 51.99 30.79 M50.92 -0.2 C50.72 9.29, 49.94 17.48, 50.37 32.31 M48.06 32.47 C39.45 32.21, 28.62 34.04, 0.55 32.61 M49.75 32.61 C38.49 32.98, 26.74 33.06, 0.08 32.91 M1.94 33.58 C1.49 19.72, -0.67 8.2, 1.33 0.45 M0.19 31.58 C-0.29 23.66, 0.13 16.55, -0.49 0.29" stroke="#3fb950" stroke-width="2" fill="none"></path></g><g stroke-linecap="round" transform="translate(916 518) rotate(0 25 16)"><path d="M-1.32 -1.4 L50.51 0.94 L51.79 33.27 L-1.09 30.47" stroke="none" stroke-width="0" fill="#1f4d2b"></path><path d="M-0.71 -1.15 C15.79 -0.91, 31.01 1.15, 50.02 1.84 M0.48 0.44 C14.37 -0.6, 29.45 -0.76, 49.54 0.24 M51.43 0.14 C48.91 6.15, 50.61 14.77, 48.47 31.38 M50.86 0.11 C49.2 10.24, 49.51 17.62, 50.69 31.44 M51.29 33.73 C33.73 31, 16.43 30.73, -1.91 32.03 M50.28 32.49 C31.34 32.85, 10.89 31.8, 0.33 31.98 M1.61 31.76 C-0.23 23.31, -0.8 15.9, 1.49 -1.99 M-0.92 31.17 C-0.39 23.75, 0.04 16.27, -0.57 -0.92" stroke="#3fb950" stroke-width="2" fill="none"></path></g><g stroke-linecap="round" transform="translate(972 518) rotate(0 25 16)"><path d="M-1.16 0.47 L50.8 -0.55 L51.78 33.03 L-1.64 30.85" stroke="none" stroke-width="0" fill="#1f4d2b"></path><path d="M-0.7 0.09 C12.74 1.64, 23.61 -0.99, 51.95 -1.8 M-0.32 -0.43 C12.85 0.04, 25.08 -0.2, 49.46 -0.52 M50.04 -1.04 C49.61 9.4, 51.43 23.32, 51.01 32.37 M50.46 -0.88 C50.23 7.67, 49.34 15.24, 50.77 32.13 M50.58 33.47 C33.51 33.44, 21.08 31.69, 1.71 31.9 M49 32.92 C36.57 30.92, 22.16 31.29, -0.57 32.75 M0.29 32.06 C0.8 19.74, -0.86 10.55, 1.26 1.45 M-0.71 31.79 C1.11 22.03, -0.47 13.95, 0.35 -0.27" stroke="#3fb950" stroke-width="2" fill="none"></path></g><g stroke-linecap="round" transform="translate(1028 518) rotate(0 25 16)"><path d="M-0.9 -1.56 L48.83 -0.48 L48.83 30.49 L-0.4 30.07" stroke="none" stroke-width="0" fill="#1f4d2b"></path><path d="M-1.69 -0.31 C13.28 0.35, 28.18 1.23, 48.48 -1.86 M0.91 0.41 C17.08 0.92, 34.07 -0.02, 49.2 -0.86 M51.11 -0.29 C50.1 8.49, 51.74 19.39, 48.91 31.34 M50.46 0.55 C50.72 6.64, 49.02 13.06, 49.58 32.82 M51.39 33.95 C35.24 33.67, 21.45 33.58, -0.45 32.43 M49.94 32.34 C35.92 31.25, 21.24 32.63, 0.16 32.64 M1.7 32.55 C0.41 19.37, 0.35 11.36, 0.28 -1.39 M-0.58 31.91 C-0.53 21.32, -0.62 9.03, -0.17 -0.56" stroke="#3fb950" stroke-width="2" fill="none"></path></g><g stroke-linecap="round" transform="translate(1084 518) rotate(0 25 16)"><path d="M-0.94 1.45 L50.95 0.33 L49.34 32.99 L-1.01 32.48" stroke="none" stroke-width="0" fill="#1f4d2b"></path><path d="M-0.21 0.04 C13.31 -0.57, 27.55 0.42, 51.97 -1.08 M0.33 0.27 C15.36 -0.17, 28.98 -0.78, 50.84 0.8 M48.05 -1.84 C49.31 9.25, 50.81 13.34, 49.1 32.13 M49.88 -0.64 C49.34 6.48, 49.93 12.89, 49.47 31.2 M51.42 32.82 C28.64 31.03, 9.36 30.33, -0.98 30.8 M50.75 32.57 C37.97 32.15, 24.75 31.13, -0.3 31.57 M-1.77 32.23 C1.45 22.08, 1.47 6.82, -0.8 -1.74 M0.04 32.44 C-0.45 22.82, -0.62 13.31, -0.56 -0.47" stroke="#3fb950" stroke-width="2" fill="none"></path></g><g transform="translate(901 455) rotate(0 35.86195373535156 7.5)"><text x="0" y="NaN" font-family="Virgil, Segoe UI Emoji" font-size="12px" fill="#8b949e" text-anchor="start" style="white-space: pre;" direction="ltr">new services</text></g><g stroke-linecap="round" transform="translate(901 625) rotate(0 37 8)"><path d="M0.89 1.19 L73.66 -0.01 L72.12 15.33 L-1.23 17.93" stroke="none" stroke-width="0" fill="#4a1219"></path><path d="M-1.77 -0.82 C25.54 0.98, 49.11 2.42, 72.74 -1.1 M-0.39 -0.89 C16.71 -0.65, 35.25 0.34, 74.25 -0.75 M75.42 1.11 C72.81 5.03, 72.43 10.75, 73.54 15.92 M74.44 0.4 C74.55 5.08, 74.47 8.93, 73.64 16.78 M75.81 15.08 C52.94 16.47, 34.79 15.75, -0.6 16.42 M74.42 16.61 C55.81 16.65, 38.57 17.25, -0.52 15.7 M-0.11 15.68 C-0.37 12.86, -1.42 6.58, 0.41 -1.32 M-0.65 15.63 C0.81 10.4, -0.43 4.75, -0.11 -0.18" stroke="#f85149" stroke-width="1" fill="none"></path></g><g stroke-linecap="round" transform="translate(975 625) rotate(0 87 8)"><path d="M-0.44 -1.99 L174.8 -0.6 L175.54 14.49 L-1.81 14.61" stroke="none" stroke-width="0" fill="#1f4d2b"></path><path d="M-1 0.38 C62.28 -0.93, 128.28 0.04, 172.75 -0.62 M0.31 -0.62 C63.71 -1.07, 127.44 0.23, 174.7 0.43 M174.89 -0.08 C175.49 6.27, 175.05 11.66, 175.18 15.52 M173.54 0.76 C173.38 6.22, 173.72 12.34, 173.34 15.42 M173.46 14.03 C130.75 18.25, 88.79 16.31, 1.54 14.59 M174.94 15.41 C106.96 17.68, 38.29 15.91, 0.31 16.42 M0.11 17.36 C1.13 13.73, -0.51 9.97, 1.6 -0.73 M-0.28 15.22 C-0.42 9.19, -0.34 2.68, 0.46 0.14" stroke="#3fb950" stroke-width="1" fill="none"></path></g><g transform="translate(901 647) rotate(0 80.24243927001953 8.125)"><text x="0" y="NaN" font-family="Virgil, Segoe UI Emoji" font-size="13px" fill="#e6edf3" text-anchor="start" style="white-space: pre;" direction="ltr">30% monolith   70% new</text></g><g transform="translate(901 671) rotate(0 53.141929626464844 7.5)"><text x="0" y="NaN" font-family="Virgil, Segoe UI Emoji" font-size="12px" fill="#8b949e" text-anchor="start" style="white-space: pre;" direction="ltr">8 services carved</text></g><g stroke-opacity="0.7" fill-opacity="0.7" stroke-linecap="round" transform="translate(1170 100) rotate(0 140 302.5)"><path d="M1.84 0.32 L280.29 -0.37 L281.65 606.38 L0.7 605.83" stroke="none" stroke-width="0" fill="#181825"></path><path d="M0.32 -0.47 C87.97 2.57, 175.19 1.05, 278.76 0.83 M280.55 -0.56 C281.91 178.25, 280.8 355.74, 279.49 605.63 M279.8 606.29 C194.9 604.66, 110.92 603.44, -0.1 605.47 M-0.45 605.62 C1.86 437.97, 2.2 270.03, -0.64 0.35" stroke="#45475a" stroke-width="2.5" fill="none" stroke-dasharray="8 10"></path></g><g transform="translate(1186 110) rotate(0 40.27996826171875 12.5)"><text x="0" y="NaN" font-family="Virgil, Segoe UI Emoji" font-size="20px" fill="#e6edf3" text-anchor="start" style="white-space: pre;" direction="ltr">Stage 4</text></g><g transform="translate(1186 138) rotate(0 57.66743469238281 9.375)"><text x="0" y="NaN" font-family="Virgil, Segoe UI Emoji" font-size="15px" fill="#8b949e" text-anchor="start" style="white-space: pre;" direction="ltr">Monolith retired</text></g><g stroke-opacity="0.6" fill-opacity="0.6" stroke-linecap="round" transform="translate(1210 345) rotate(0 100 50)"><path d="M-0.29 -1.67 C45.22 -0.32, 90.93 2.32, 200.52 -0.47 M201.76 1.63 C202.27 34.27, 201.95 67.48, 201.68 100.77 M200.92 100.34 C126.56 101.59, 55.23 101.54, -1.63 100.83 M1.68 98.99 C0.84 74.32, -0.09 52.43, -1.06 -1.33" stroke="#8b949e" stroke-width="2.5" fill="none" stroke-dasharray="8 10"></path></g><g transform="translate(1240 381) rotate(0 24.802467346191406 9.375)"><text x="0" y="NaN" font-family="Virgil, Segoe UI Emoji" font-size="15px" fill="#8b949e" text-anchor="start" style="white-space: pre;" direction="ltr">retired</text></g><g stroke-linecap="round"><g transform="translate(1220 355) rotate(0 90 40)"><path d="M0.91 -0.89 C30.94 12.43, 149.91 66.7, 179.89 80.05 M-0.08 1.25 C29.82 14.77, 148.8 68.47, 178.88 81.61" stroke="#f85149" stroke-width="3" fill="none"></path></g></g><g stroke-linecap="round"><g transform="translate(1400 355) rotate(0 -90 40)"><path d="M-0.44 0.52 C-30.54 13.94, -149.81 66.81, -179.6 79.95 M1.53 -0.25 C-28.78 13.41, -150.16 68.03, -180.34 81.47" stroke="#f85149" stroke-width="3" fill="none"></path></g></g><g stroke-linecap="round" transform="translate(1201 480) rotate(0 25 16)"><path d="M-1.79 -0.68 L49.05 1.54 L50.32 30.1 L1.92 31.43" stroke="none" stroke-width="0" fill="#1f4d2b"></path><path d="M-0.88 -1.17 C18.59 -1.49, 36.71 -0.89, 51.7 0.61 M-0.7 -0.1 C14.04 0.99, 26.8 0.08, 50.18 0.44 M51.87 0.08 C50.33 9.61, 49.97 19.47, 48.19 33.79 M50.22 -0.64 C50.9 6.99, 50.51 15.53, 50.52 32.28 M48.69 30.96 C40.51 32.19, 29.07 30.8, -1.74 32.98 M50.25 31.57 C33.15 32, 16.34 31.25, -0.27 31.96 M-0.02 33.3 C2.02 25.14, 2.17 16.95, -0.35 -1.33 M0.66 32.76 C-0.37 20.99, -0.17 9.01, 0.85 -0.29" stroke="#3fb950" stroke-width="2" fill="none"></path></g><g stroke-linecap="round" transform="translate(1257 480) rotate(0 25 16)"><path d="M-0.84 1.56 L51.5 0.59 L49.24 31.47 L-0.59 31.93" stroke="none" stroke-width="0" fill="#1f4d2b"></path><path d="M0.64 0.21 C17.8 1.26, 37.69 -1.38, 50.7 0.13 M-0.08 0.17 C18.52 1.42, 37.71 1.29, 50.04 -0.31 M48.3 -1.09 C51.78 9.11, 48.59 20.96, 51.45 30.62 M50.65 -0.18 C49.17 12.83, 50.19 23.44, 49.37 32.87 M50.87 33.06 C39.83 33.64, 25.87 32.07, -0.48 31.01 M50.06 32.21 C33.41 33.19, 16.78 31.54, -0.63 31.26 M-1.5 30.24 C-1.1 20.34, -1.06 9.81, 1.55 0.83 M0.07 31.44 C-0.1 25.75, -1 18.44, 0.45 0.23" stroke="#3fb950" stroke-width="2" fill="none"></path></g><g stroke-linecap="round" transform="translate(1312.886302499784 480) rotate(0 25 16)"><path d="M1.36 -0.48 L51.7 1.02 L49.61 30.59 L-0.01 31.79" stroke="none" stroke-width="0" fill="#1f4d2b"></path><path d="M1.89 0.22 C20.05 -1.7, 37.93 0.67, 51.92 -1.85 M-0.18 -0.46 C12.37 -0.58, 25.36 0.42, 49.42 0.54 M48.76 0.54 C48.61 11.56, 51.74 20.43, 49.95 30.62 M50.59 -0.88 C50.68 10.14, 50.1 22.28, 49.3 32.18 M50.73 30.5 C30.87 33.07, 13.33 33.58, 1.11 32.29 M49.12 32.7 C36.34 32.46, 23.13 33.12, 0.2 32.1 M1.81 33.7 C0.52 24.56, -0.27 16.57, 1.59 -1.57 M-0.91 32.87 C0.1 20.74, 0.67 8.58, -0.02 0.68" stroke="#3fb950" stroke-width="2" fill="none"></path></g><g stroke-linecap="round" transform="translate(1368.886302499784 479.8826348384868) rotate(0 25 16.00000000000003)"><path d="M1.15 0.82 L49.17 -1.74 L51.03 32.2 L0.37 32.8" stroke="none" stroke-width="0" fill="#1f4d2b"></path><path d="M1.41 -0.55 C14.03 0.61, 29.71 1.84, 51.96 -0.07 M-0.49 0.11 C15.39 -0.5, 31.34 -0.07, 49.99 0.32 M50.81 -1.08 C49.55 10.32, 51.46 18.94, 50.2 33.46 M49.61 -0.58 C51.01 9.66, 50 19.93, 50.84 32.3 M51.7 31.99 C31.93 30.92, 14.74 32.99, 1.98 31.14 M50.24 31.41 C34.34 31.8, 21.11 32.13, -0.68 33 M1.78 31.5 C-1.81 19.59, -1.03 10.06, -1.87 0.93 M0.84 31.32 C0.55 19.99, 0.04 5.87, -0.34 0.72" stroke="#3fb950" stroke-width="2" fill="none"></path></g><g stroke-linecap="round" transform="translate(1200.886302499784 517.8826348384869) rotate(0 25 16)"><path d="M-0.36 -0.58 L49.99 -1.49 L51.67 32.42 L-1.24 30.75" stroke="none" stroke-width="0" fill="#1f4d2b"></path><path d="M0.96 0.02 C14.04 0.99, 32.89 1.8, 49.09 1.88 M0.92 -0.81 C15.91 0.2, 30.32 0.25, 49.71 0.47 M50.35 -1.72 C51.47 8.04, 51.71 19.37, 50.75 33.37 M49.83 0.09 C49.97 10.92, 50.3 19.1, 50.31 32.85 M48.14 30.38 C36.9 32.66, 25.55 30, 1.78 31.08 M50.69 32.36 C38.1 31.23, 26.63 31.95, -0.48 31.07 M-0.25 32.51 C1.21 23.32, -0.07 18.63, 1.31 0.96 M-0.59 32.26 C-0.83 25.71, 0.07 19.03, -0.79 0.96" stroke="#3fb950" stroke-width="2" fill="none"></path></g><g stroke-linecap="round" transform="translate(1256.886302499784 517.8826348384869) rotate(0 25 16)"><path d="M-0.15 0.05 L50.53 0.03 L48.6 33.4 L1.47 33.18" stroke="none" stroke-width="0" fill="#1f4d2b"></path><path d="M-0.62 -0.37 C18.42 -1.21, 38.52 -1.86, 51.06 1.69 M0.16 0.11 C13.21 1.16, 26.88 1.38, 49.58 0.41 M50.99 0.11 C49.42 5.41, 50.96 16.36, 51.61 32.13 M49.26 0.73 C49.32 6.52, 50.04 14.58, 50.15 31.44 M49.71 30.51 C40.84 33.35, 25.89 32.73, 1.85 31.19 M50.39 31.55 C31.03 31.9, 13.28 32.31, 0.55 32.62 M-0.49 33.5 C0.89 20.02, 0.78 11.55, 1.66 0.12 M-0.8 32.98 C0.1 20.21, 0.44 7.86, 0.23 -0.71" stroke="#3fb950" stroke-width="2" fill="none"></path></g><g stroke-linecap="round" transform="translate(1312.886302499784 517.8826348384869) rotate(0 25 16)"><path d="M-1.85 0.72 L48.67 -0.87 L48.82 31.59 L-0.59 33.84" stroke="none" stroke-width="0" fill="#1f4d2b"></path><path d="M-1.38 0.14 C8.69 0.4, 21.04 0.27, 50.8 1.04 M-0.74 -0.17 C17.75 -0.23, 34.31 0.83, 49.52 0.06 M50.8 -1.67 C51.09 13.94, 50.8 25.87, 51.22 33.65 M49.67 -0.22 C50.57 13.25, 49.79 25.3, 49.61 31.52 M49.42 32.43 C34.1 30.66, 19.32 31.23, -1.61 32.82 M50.22 32.35 C38.34 32.11, 25.52 31.54, 0.43 32.78 M-1.59 31.67 C-1.03 17.78, -1.24 5.66, 1.13 -1.37 M-0.68 31.47 C-0.13 24.63, 0.83 18.37, 0.18 -0.61" stroke="#3fb950" stroke-width="2" fill="none"></path></g><g stroke-linecap="round" transform="translate(1368.886302499784 517.8826348384869) rotate(0 25 16)"><path d="M-0.69 1.12 L51.95 0.08 L51.09 31.83 L-0.23 32.08" stroke="none" stroke-width="0" fill="#1f4d2b"></path><path d="M-0.1 1.22 C17.92 0.08, 36.5 1.14, 48.13 -1.55 M0.82 0.77 C10.23 -1.13, 20.28 0.26, 49.97 -0.96 M50.35 0.94 C51.18 9.79, 50.38 20.7, 51.66 31.93 M50.77 0.37 C49.28 6.95, 49.24 13.03, 49.67 31.54 M48.37 32.48 C31.04 30.99, 11.24 30.06, -1.01 30.75 M50.81 31.74 C36.84 31.87, 24.25 32.23, 0.96 31.42 M0.83 32.73 C1.69 24.7, 0.67 18.25, -1.51 -1.7 M0.14 31.82 C0.39 19.07, -0.39 6.82, 0.31 0.38" stroke="#3fb950" stroke-width="2" fill="none"></path></g><g stroke-linecap="round" transform="translate(1200.7689373382707 555.8826348384869) rotate(0 25 16)"><path d="M-0.57 -1.45 L50.63 1.44 L50.71 30.17 L1.04 30.67" stroke="none" stroke-width="0" fill="#1f4d2b"></path><path d="M1.86 -0.24 C17.42 -1.74, 37.38 -0.4, 51.14 -1.95 M1 0.03 C10.23 -0.05, 21.13 -0.74, 50.56 0.08 M48.13 -1.63 C50.13 5.96, 49.14 12.55, 49.79 33.22 M50.38 -0.56 C50.16 8.46, 49.05 18.24, 49.61 32.21 M50.58 30.76 C31.81 32.19, 11.77 31.03, 1.21 33.09 M50.89 32.25 C39.48 32.39, 28.49 33.07, 0.81 32.99 M1.5 30.99 C-0.25 20.93, -0.65 5.99, 1.72 1.79 M-0.02 32.92 C-0.64 20.29, -0.18 8.49, 0.69 0.51" stroke="#3fb950" stroke-width="2" fill="none"></path></g><g stroke-linecap="round" transform="translate(1256.7689373382707 555.8826348384869) rotate(0 25 16)"><path d="M-1.17 -0.07 L51.63 0.71 L51.96 31.63 L1.42 33.48" stroke="none" stroke-width="0" fill="#1f4d2b"></path><path d="M-0.36 -0.15 C14.63 -1.55, 27.13 0.9, 49.55 0.36 M-0.73 -0.97 C16.74 0.57, 35.1 -0.75, 50.14 -0.11 M49.64 1.31 C48.31 7.12, 49.42 12.91, 49.54 33.55 M50.25 -0.52 C48.99 9.83, 49.83 19.29, 50.29 32.62 M48.36 32.25 C37.61 34.22, 24.94 31.08, -0.82 32.09 M50.16 32.67 C39.85 31.45, 29.83 30.7, 0.72 31.06 M0.29 33.93 C-1.85 23.27, -0.01 11.37, -1.46 -0.22 M-0.37 31.03 C-0.21 20.67, 0.38 7.41, 0.97 0.68" stroke="#3fb950" stroke-width="2" fill="none"></path></g><g stroke-linecap="round" transform="translate(1312.7689373382707 555.8826348384869) rotate(0 25 16)"><path d="M1.2 1.64 L48.14 1.86 L50.69 32.33 L-1.7 30.01" stroke="none" stroke-width="0" fill="#1f4d2b"></path><path d="M0.44 1.62 C16.38 -1.8, 30.95 -0.42, 48.1 -1.66 M-0.05 -0.72 C13.45 -0.73, 27.14 -0.86, 49.85 0.1 M51.09 0.39 C51.96 7.87, 49.17 21.09, 49.68 31.92 M49.13 0.13 C49.79 10.36, 50.28 19.6, 50.4 32.51 M50.39 31.63 C36.55 31.15, 26.01 30.01, 0.02 31.9 M50.28 32.07 C30.91 32.73, 12.75 31.95, 0.28 32.38 M-1.51 31.96 C-1.94 23.44, -1.35 17.46, -1.92 1.07 M-0.14 32.99 C0.43 23, -0.62 14.77, 0.06 -0.99" stroke="#3fb950" stroke-width="2" fill="none"></path></g><g stroke-linecap="round" transform="translate(1368.7689373382707 555.8826348384869) rotate(0 25 16)"><path d="M-1.18 -1.54 L50.62 -0.87 L50.5 32.02 L0.33 31.75" stroke="none" stroke-width="0" fill="#1f4d2b"></path><path d="M0.35 1.78 C13.93 2.15, 30.71 0.59, 50.33 -0.96 M-0.2 0.41 C17.19 -1.28, 34 -0.57, 49.07 -0.65 M50.45 0.32 C50.5 8.63, 49.92 14.61, 51.14 31.18 M49.05 -0.96 C49.89 7.11, 50.27 12.93, 49.36 31.81 M48.89 32.41 C33.42 31.58, 11.98 30.43, -1.94 31.33 M50.92 31.9 C31.04 31.69, 12.94 32.62, -0.24 32.19 M-0.49 30.41 C-0.69 20.75, -1.92 11.72, -0.99 -1.7 M-0.45 32.48 C-0.61 22.87, 0.53 12.03, -0.62 -0.03" stroke="#3fb950" stroke-width="2" fill="none"></path></g><g transform="translate(1186 455) rotate(0 35.86195373535156 7.5)"><text x="0" y="NaN" font-family="Virgil, Segoe UI Emoji" font-size="12px" fill="#8b949e" text-anchor="start" style="white-space: pre;" direction="ltr">new services</text></g><g stroke-linecap="round" transform="translate(1186 625) rotate(0 124 8)"><path d="M-1.9 -1.76 L247.95 -1.86 L249.07 14.45 L0.42 15.61" stroke="none" stroke-width="0" fill="#1f4d2b"></path><path d="M1.51 -0.39 C53.21 2.5, 106.14 2.12, 247.85 -1.45 M0.44 0.57 C85.07 0.4, 171.85 0.65, 248.18 0.64 M247.99 -1.43 C249.18 3.89, 247.8 9.82, 246.87 16.77 M248.68 0.76 C247.72 4.32, 248.54 8.27, 247.47 15.33 M249.09 16.54 C193.41 15.55, 140.65 13.93, -0.59 17.06 M248.37 15.54 C191.04 17.86, 135.34 18.38, 0.41 15.19 M-0.49 15.88 C-0.65 11.49, -0.76 4.63, -0.86 0 M0.52 16.01 C0.67 11.63, 0.32 8.59, -0.01 -0.72" stroke="#3fb950" stroke-width="1" fill="none"></path></g><g transform="translate(1186 647) rotate(0 78.55244445800781 8.125)"><text x="0" y="NaN" font-family="Virgil, Segoe UI Emoji" font-size="13px" fill="#e6edf3" text-anchor="start" style="white-space: pre;" direction="ltr">0% monolith   100% new</text></g><g transform="translate(1186 671) rotate(0 41.68794250488281 7.5)"><text x="0" y="NaN" font-family="Virgil, Segoe UI Emoji" font-size="12px" fill="#8b949e" text-anchor="start" style="white-space: pre;" direction="ltr">11 services live</text></g><g stroke-linecap="round"><g transform="translate(30 730) rotate(0 700 0)"><path d="M-0.68 1.14 C232.97 1.11, 1167.5 0.47, 1401.11 0.32 M1.16 0.69 C234.82 0.24, 1167.49 -1.81, 1400.75 -1.64" stroke="#c9d1d9" stroke-width="2" fill="none"></path></g><g transform="translate(30 730) rotate(0 700 0)"><path d="M1374.46 10.51 C1379.59 8.07, 1386.02 3.31, 1400.68 -3.25 M1371.95 9.45 C1379.36 6.37, 1384.34 4.44, 1399.93 -1.66" stroke="#c9d1d9" stroke-width="2" fill="none"></path></g><g transform="translate(30 730) rotate(0 700 0)"><path d="M1374.44 -10.02 C1379.66 -7.69, 1386.1 -7.69, 1400.68 -3.25 M1371.93 -11.07 C1379.44 -9.59, 1384.42 -6.98, 1399.93 -1.66" stroke="#c9d1d9" stroke-width="2" fill="none"></path></g></g><g transform="translate(620 738) rotate(0 129.93739318847656 9.375)"><text x="0" y="NaN" font-family="Virgil, Segoe UI Emoji" font-size="15px" fill="#c9d1d9" text-anchor="start" style="white-space: pre;" direction="ltr">time / accumulated carve-outs  →</text></g><g stroke-linecap="round" transform="translate(30 785) rotate(0 8 8)"><path d="M-0.33 1.97 L16.56 0.11 L14.95 15.56 L1.33 16.49" stroke="none" stroke-width="0" fill="#4a1219"></path><path d="M-1.02 1.19 C4.28 0.6, 10.05 -0.47, 14.96 -0.26 M0.36 0.62 C6.59 -0.65, 11.56 0.65, 15.63 0.13 M16.82 1.54 C15.4 2.34, 14.84 7.78, 15.37 16.99 M16.26 0.5 C15.36 2.99, 15.29 8.14, 16.56 16.26 M16.86 17.09 C9.4 16.7, 3.22 17.01, -1.58 16.17 M15.62 15.65 C10.44 16.55, 5.43 16.53, 0.45 16.27 M-1.04 17.17 C0.8 10.87, -1.46 3.28, 0.75 -0.61 M-0.21 15.33 C0.13 10.32, -0.56 5.5, -0.39 0.11" stroke="#f85149" stroke-width="1" fill="none"></path></g><g transform="translate(52 784) rotate(0 53.227943420410156 8.75)"><text x="0" y="NaN" font-family="Virgil, Segoe UI Emoji" font-size="14px" fill="#8b949e" text-anchor="start" style="white-space: pre;" direction="ltr">monolith traffic</text></g><g stroke-linecap="round" transform="translate(210 785) rotate(0 8 8)"><path d="M-1.46 1.91 L17.74 -0.47 L17.76 14.8 L0.67 15.9" stroke="none" stroke-width="0" fill="#1f4d2b"></path><path d="M-1.07 0.11 C6.11 1.48, 10.46 0.94, 15.8 -0.83 M0.4 -0.63 C6.41 0.54, 12.18 0.81, 15.26 -0.62 M14.53 -0.98 C15.75 5.39, 16.46 9.6, 16.13 16.58 M15.68 -0.13 C16.66 4.86, 15.29 9.9, 15.33 16.64 M15.06 17.14 C11.3 14.83, 5.46 16.51, -0.78 16.85 M16.42 15.36 C13.25 16.25, 9.12 16.69, 0.08 15.32 M-1.56 17.13 C0.72 12.52, 0.22 5.43, 1.49 -1.1 M-0.6 16.25 C0.64 12.18, -0.15 7.63, -0.62 -0.21" stroke="#3fb950" stroke-width="1" fill="none"></path></g><g transform="translate(232 784) rotate(0 64.3999252319336 8.75)"><text x="0" y="NaN" font-family="Virgil, Segoe UI Emoji" font-size="14px" fill="#8b949e" text-anchor="start" style="white-space: pre;" direction="ltr">new-service traffic</text></g><g transform="translate(430 784) rotate(0 252.5107421875 8.75)"><text x="0" y="NaN" font-family="Virgil, Segoe UI Emoji" font-size="14px" fill="#f0b070" text-anchor="start" style="white-space: pre;" direction="ltr">Anchor: the monolith's height shrinks 260 → 0; new services grow 0 → 11.</text></g></svg>