<svg version="1.1" xmlns="http://www.w3.org/2000/svg" viewBox="0 0 1080 570" width="1080" height="570">
  <!-- svg-source:excalidraw -->
  
  <defs>
    <style>
      @font-face {
        font-family: "Virgil";
        src: url("https://excalidraw.com/Virgil.woff2");
      }
      @font-face {
        font-family: "Cascadia";
        src: url("https://excalidraw.com/Cascadia.woff2");
      }
    </style>
  </defs>
  <rect x="0" y="0" width="1080" height="570" fill="#1e1e2e"></rect><g transform="translate(10 10) rotate(0 156.75 19.950000000000003)"><text x="0" y="NaN" font-family="Virgil, Segoe UI Emoji" font-size="30px" fill="#ffffff" text-anchor="start" style="white-space: pre;" direction="ltr">Break-Even Triggers</text></g><g transform="translate(10 50) rotate(0 455.40000000000003 16)"><text x="0" y="NaN" font-family="Virgil, Segoe UI Emoji" font-size="24px" fill="#cdd6f4" text-anchor="start" style="white-space: pre;" direction="ltr">QPS, dataset size, and geography force different architectural moves.</text></g><g transform="translate(90 130) rotate(0 50 17.289999999999992)"><text x="0" y="NaN" font-family="Virgil, Segoe UI Emoji" font-size="26px" fill="#cdd6f4" text-anchor="start" style="white-space: pre;" direction="ltr">QPS</text></g><g transform="translate(490 130) rotate(0 50.05000000000001 17.289999999999992)"><text x="0" y="NaN" font-family="Virgil, Segoe UI Emoji" font-size="26px" fill="#cdd6f4" text-anchor="start" style="white-space: pre;" direction="ltr">Storage</text></g><g transform="translate(890 130) rotate(0 50.05000000000001 17.289999999999992)"><text x="0" y="NaN" font-family="Virgil, Segoe UI Emoji" font-size="26px" fill="#cdd6f4" text-anchor="start" style="white-space: pre;" direction="ltr">Latency</text></g><g stroke-linecap="round" transform="translate(50 200) rotate(0 110 45)"><path d="M-0.04 -0.14 L220.57 0.61 L218.82 90.16 L-0.37 90.19" stroke="none" stroke-width="0" fill="#2d6a4f"></path><path d="M1.66 1.08 C48.33 1.43, 96.82 1, 221.1 -1.32 M-0.74 -0.42 C83.53 1.57, 165.85 0.49, 220.75 0.25 M221.11 -1.73 C218.79 32.31, 218.46 64.57, 219.32 91.63 M220.09 -0.49 C219.69 29.37, 220 59.9, 219.76 90.79 M221.41 88.73 C172.6 90.2, 123.68 91.55, -1.28 90.59 M219.78 90.8 C164.02 89.86, 105.83 89.84, 0.27 90.62 M1.82 91.88 C-0.62 60.39, -0.21 29.71, 1.94 0.03 M0.57 89.88 C-0.97 56.25, -0.7 22.3, -0.51 -0.98" stroke="#40916c" stroke-width="2" fill="none"></path></g><g transform="translate(68 215) rotate(0 92 30)"><text x="92" y="NaN" font-family="Virgil, Segoe UI Emoji" font-size="24px" fill="#ffffff" text-anchor="middle" style="white-space: pre;" direction="ltr">&lt; 10K</text><text x="92" y="NaN" font-family="Virgil, Segoe UI Emoji" font-size="24px" fill="#ffffff" text-anchor="middle" style="white-space: pre;" direction="ltr">stay simple</text></g><g stroke-linecap="round" transform="translate(50 330) rotate(0 110 45)"><path d="M0.76 -1.3 L218.66 0.23 L219.33 90.63 L1.48 89.26" stroke="none" stroke-width="0" fill="#1e40af"></path><path d="M-0.32 -0.71 C47.78 -0.8, 95.85 0.7, 219.73 -0.64 M-0.13 0.04 C47.95 -0.4, 96.79 -0.74, 219.74 -0.18 M220.18 -1.23 C220.15 33.92, 221.21 67.59, 218.1 89.89 M220.69 -0.09 C218.94 23.96, 219.3 48.58, 220.58 89.5 M219.77 88.36 C164.02 89.83, 110.43 90.23, -1.57 89.89 M219.88 90.55 C174.46 90.76, 128.4 90.26, 0.16 90.69 M0.38 91.31 C2.4 63.71, -0.66 34.82, -0.88 1.62 M-0.99 89.87 C0.17 63.46, -0.55 35.54, 0.37 -1" stroke="#3b82f6" stroke-width="2" fill="none"></path></g><g transform="translate(68 345) rotate(0 92 30)"><text x="92" y="NaN" font-family="Virgil, Segoe UI Emoji" font-size="24px" fill="#ffffff" text-anchor="middle" style="white-space: pre;" direction="ltr">&gt; 10K</text><text x="92" y="NaN" font-family="Virgil, Segoe UI Emoji" font-size="24px" fill="#ffffff" text-anchor="middle" style="white-space: pre;" direction="ltr">add cache</text></g><g stroke-linecap="round" transform="translate(50 460) rotate(0 110 45)"><path d="M1.56 1.54 L220.75 -0.15 L219.83 91.1 L-0.67 88.32" stroke="none" stroke-width="0" fill="#9f1239"></path><path d="M1.16 0.96 C47.23 0.45, 94.88 0.39, 218.35 0.04 M0.48 0.49 C58.11 1.44, 115.73 1.85, 220.47 -0.61 M219.26 -0.73 C219.32 21.53, 221.76 38.61, 220.88 88.15 M219.28 0.31 C219.99 18.55, 220.4 37.26, 219.39 90.2 M221.59 91.45 C158.91 89.45, 97.19 88.91, 1.62 89.19 M219.98 90.3 C140.91 89.92, 61.25 90.68, 0.06 90.76 M-1.06 90.75 C-0.39 63.03, 1.09 39.93, 0.3 -0.8 M-0.56 89.87 C1.32 68.67, 1.61 48.79, -0.75 0.98" stroke="#e11d48" stroke-width="2" fill="none"></path></g><g transform="translate(68 475) rotate(0 92 30)"><text x="92" y="NaN" font-family="Virgil, Segoe UI Emoji" font-size="24px" fill="#ffffff" text-anchor="middle" style="white-space: pre;" direction="ltr">&gt; 100K</text><text x="92" y="NaN" font-family="Virgil, Segoe UI Emoji" font-size="24px" fill="#ffffff" text-anchor="middle" style="white-space: pre;" direction="ltr">shard writes</text></g><g stroke-linecap="round" transform="translate(450 200) rotate(0 110 45)"><path d="M-1.65 0.38 L218.84 -0.52 L220.34 91.57 L1.18 91.39" stroke="none" stroke-width="0" fill="#2d6a4f"></path><path d="M-0.82 -0.84 C46.68 -1.78, 97.38 0.09, 220.44 0.72 M-0.64 -0.78 C68.26 -0.53, 134.67 0.63, 219.46 0.7 M218.33 -0.23 C220.69 23.14, 220.51 45.63, 219.66 90.41 M219.88 0.71 C221.04 31.14, 221.5 61.93, 220.2 90.91 M219.95 91.08 C150.34 89.07, 83.95 91.06, 1.33 88.49 M220.07 90.05 C151.36 90.81, 82.09 91.11, -0.05 90.83 M1.5 90.19 C-1.37 66.35, 0.64 45.04, 1.49 0.79 M-0.12 89.87 C-1.34 57.89, -0.04 26.03, 0.13 0.95" stroke="#40916c" stroke-width="2" fill="none"></path></g><g transform="translate(468 215) rotate(0 92 30)"><text x="92" y="NaN" font-family="Virgil, Segoe UI Emoji" font-size="24px" fill="#ffffff" text-anchor="middle" style="white-space: pre;" direction="ltr">&lt; 5 TB</text><text x="92" y="NaN" font-family="Virgil, Segoe UI Emoji" font-size="24px" fill="#ffffff" text-anchor="middle" style="white-space: pre;" direction="ltr">single cluster</text></g><g stroke-linecap="round" transform="translate(450 330) rotate(0 110 45)"><path d="M-0.85 -0.77 L220.93 -0.9 L220.85 88.04 L-0.97 90.45" stroke="none" stroke-width="0" fill="#5b21b6"></path><path d="M0.67 0.83 C49.59 -0.53, 96.41 -0.22, 219.07 1.4 M-0.04 -0.32 C76.69 -0.76, 153.61 -2.33, 220.19 0.27 M221.4 0.28 C219.85 24.75, 221.06 52.65, 218.44 88.67 M220.47 -0.88 C218.29 25.73, 218.79 50.61, 219.02 89.61 M218.31 90.71 C145.23 88.7, 70.7 89.74, 1.05 91.26 M220.17 89.8 C161.8 91.7, 102.93 91.53, -0.15 89.17 M0.05 89.62 C1.64 69.66, 0.19 50.14, -1.33 -1.62 M0.31 89.86 C-0.2 65.1, 0.11 39.27, -0.99 0.93" stroke="#7c3aed" stroke-width="2" fill="none"></path></g><g transform="translate(468 345) rotate(0 92 30)"><text x="92" y="NaN" font-family="Virgil, Segoe UI Emoji" font-size="24px" fill="#ffffff" text-anchor="middle" style="white-space: pre;" direction="ltr">&gt; 5 TB</text><text x="92" y="NaN" font-family="Virgil, Segoe UI Emoji" font-size="24px" fill="#ffffff" text-anchor="middle" style="white-space: pre;" direction="ltr">partition data</text></g><g stroke-linecap="round" transform="translate(450 460) rotate(0 110 45)"><path d="M-0.05 -1.93 L219.03 -1.28 L221.36 88.5 L0.89 89.52" stroke="none" stroke-width="0" fill="#9f1239"></path><path d="M-1.31 -0.96 C49.04 1.06, 95.45 -0.18, 221.16 -1.38 M0.57 0.14 C86.84 1.08, 172.54 0.26, 219.18 -0.16 M220.48 0.78 C221.22 30.36, 219.81 59.67, 221.22 90.93 M219.07 -0.48 C219.34 18.32, 219.89 39.29, 219.83 90.32 M220.14 90.34 C136.65 88.32, 57.46 88.43, 0.76 90.56 M220.27 89.55 C172.25 90.86, 123.78 91.95, -0.26 89.25 M-1.39 89.06 C0.66 54.98, -0.26 19.25, -0.15 -0.03 M0.75 89.86 C-0.86 70.32, -1.53 52.51, -0.1 0.9" stroke="#e11d48" stroke-width="2" fill="none"></path></g><g transform="translate(468 475) rotate(0 92 30)"><text x="92" y="NaN" font-family="Virgil, Segoe UI Emoji" font-size="24px" fill="#ffffff" text-anchor="middle" style="white-space: pre;" direction="ltr">&gt; 10 TB</text><text x="92" y="NaN" font-family="Virgil, Segoe UI Emoji" font-size="24px" fill="#ffffff" text-anchor="middle" style="white-space: pre;" direction="ltr">working set split</text></g><g stroke-linecap="round" transform="translate(850 200) rotate(0 110 45)"><path d="M0.75 0.91 L221.12 -1.66 L221.86 88.97 L-1.26 88.58" stroke="none" stroke-width="0" fill="#2d6a4f"></path><path d="M0.17 0.71 C48.49 2.3, 94.48 -0.48, 219.78 -0.7 M-0.55 0.59 C51.27 -0.89, 103.48 -0.96, 219.91 -0.59 M219.55 1.28 C220.39 31.97, 220.36 62.69, 220 89.19 M219.66 -0.08 C220.39 30.91, 220.99 63.96, 220.64 89.02 M218.49 89.97 C175.54 87.95, 132.22 90.57, 0.48 89.86 M220.37 89.3 C138.69 87.94, 58.35 88.56, -0.37 89.32 M1.17 88.5 C-2.13 58.3, 1.49 24.36, 1.04 1.56 M-0.81 89.86 C0.28 59.53, 0.62 27.76, 0.78 0.88" stroke="#40916c" stroke-width="2" fill="none"></path></g><g transform="translate(868 215) rotate(0 92 30)"><text x="92" y="NaN" font-family="Virgil, Segoe UI Emoji" font-size="24px" fill="#ffffff" text-anchor="middle" style="white-space: pre;" direction="ltr">One region</text><text x="92" y="NaN" font-family="Virgil, Segoe UI Emoji" font-size="24px" fill="#ffffff" text-anchor="middle" style="white-space: pre;" direction="ltr">cheap writes</text></g><g stroke-linecap="round" transform="translate(850 330) rotate(0 110 45)"><path d="M1.55 -0.24 L219.21 1.96 L218.37 89.44 L0.59 91.65" stroke="none" stroke-width="0" fill="#b45309"></path><path d="M1.66 -1.09 C47.93 0.08, 96.98 -0.79, 218.41 -0.02 M0.06 -0.68 C61.42 0.96, 122.42 1.63, 220.64 0.72 M218.62 1.78 C221.75 33.58, 219.11 69.71, 218.78 91.45 M220.26 0.32 C219.64 25.5, 218.29 52.64, 219.46 89.72 M220.32 89.6 C166.96 91.04, 115.51 89.26, 0.2 89.16 M220.47 90.79 C149.14 88.84, 79.2 88.99, -0.47 89.39 M-0.27 91.94 C0.89 57.62, 1.04 29.47, -1.78 -0.86 M-0.38 89.85 C1.42 66.75, 0.77 41, -0.34 0.86" stroke="#d97706" stroke-width="2" fill="none"></path></g><g transform="translate(868 345) rotate(0 92 30)"><text x="92" y="NaN" font-family="Virgil, Segoe UI Emoji" font-size="24px" fill="#ffffff" text-anchor="middle" style="white-space: pre;" direction="ltr">Global users</text><text x="92" y="NaN" font-family="Virgil, Segoe UI Emoji" font-size="24px" fill="#ffffff" text-anchor="middle" style="white-space: pre;" direction="ltr">need CDN</text></g><g stroke-linecap="round" transform="translate(850 460) rotate(0 110 45)"><path d="M-1.65 -1.4 L221.3 1.59 L218.88 89.91 L-1.56 90.71" stroke="none" stroke-width="0" fill="#9f1239"></path><path d="M-0.32 0.58 C47.38 -2.15, 96.01 -1.09, 220.5 0.66 M0.67 -0.22 C69.85 -1.01, 141.36 0.41, 219.63 0.29 M221.7 -1.72 C219.12 21.19, 217.86 40.73, 221.56 89.72 M220.86 0.72 C220.69 20.09, 219.39 41.32, 220.27 90.43 M218.68 89.23 C161.85 90.66, 102.26 87.94, -0.09 88.46 M220.56 90.54 C159.59 89.73, 100.04 89.41, -0.58 89.46 M-1.71 91.37 C-0.1 60.93, 0.59 30.58, -0.6 0.73 M0.06 89.85 C-1.24 53.96, -0.87 18.24, 0.54 0.83" stroke="#e11d48" stroke-width="2" fill="none"></path></g><g transform="translate(868 475) rotate(0 92 30)"><text x="92" y="NaN" font-family="Virgil, Segoe UI Emoji" font-size="24px" fill="#ffffff" text-anchor="middle" style="white-space: pre;" direction="ltr">Strict DR</text><text x="92" y="NaN" font-family="Virgil, Segoe UI Emoji" font-size="24px" fill="#ffffff" text-anchor="middle" style="white-space: pre;" direction="ltr">multi-region</text></g><g stroke-linecap="round"><g transform="translate(330 170) rotate(0 0 195)"><path d="M0.34 -0.4 C0.33 64.48, -0.64 324.1, -0.7 389.23" stroke="#a6adc8" stroke-width="2.5" fill="none" stroke-dasharray="8 10"></path></g></g><g stroke-linecap="round"><g transform="translate(730 170) rotate(0 0 195)"><path d="M-0.61 -1.09 C-0.33 63.92, 1.06 325.25, 1.08 390.24" stroke="#a6adc8" stroke-width="2.5" fill="none" stroke-dasharray="8 10"></path></g></g></svg>