<svg version="1.1" xmlns="http://www.w3.org/2000/svg" viewBox="0 0 1211.6 622" width="1211.6" height="622">
  <!-- svg-source:excalidraw -->
  
  <defs>
    <style>
      @font-face {
        font-family: "Virgil";
        src: url("https://excalidraw.com/Virgil.woff2");
      }
      @font-face {
        font-family: "Cascadia";
        src: url("https://excalidraw.com/Cascadia.woff2");
      }
    </style>
  </defs>
  <rect x="0" y="0" width="1211.6" height="622" fill="#1e1e2e"></rect><g transform="translate(10 10) rotate(0 305.25 19.950000000000003)"><text x="0" y="NaN" font-family="Virgil, Segoe UI Emoji" font-size="30px" fill="#ffffff" text-anchor="start" style="white-space: pre;" direction="ltr">Scaling Stairs Are Economic Decisions</text></g><g transform="translate(10 50) rotate(0 396.00000000000006 16)"><text x="0" y="NaN" font-family="Virgil, Segoe UI Emoji" font-size="24px" fill="#cdd6f4" text-anchor="start" style="white-space: pre;" direction="ltr">Every extra lever buys headroom and adds operational burden.</text></g><g stroke-linecap="round" transform="translate(50 460) rotate(0 90 45)"><path d="M-1.24 -0.41 L179.43 1.18 L180.06 89.46 L-1.15 91.59" stroke="none" stroke-width="0" fill="#5b21b6"></path><path d="M1.34 0.36 C38.63 -0.85, 79.19 -0.66, 181.65 -0.7 M0.09 -0.28 C56.59 2.63, 113.16 1.09, 179.6 -0.97 M178.5 1.52 C181.84 25.89, 179.44 54.05, 181.14 88.23 M180.2 0.91 C180.01 28.48, 181.26 57.89, 179.54 90.74 M180.47 91.17 C112.58 88.89, 48.63 88.07, -0.99 89.89 M179.58 90.35 C120.69 91.33, 60.91 90.12, 0.49 89.59 M1.98 90.72 C0.86 64.42, -1.54 42.05, -1.84 1.65 M0.92 89.88 C-0.88 65.42, -0.13 38.43, -0.83 -0.94" stroke="#7c3aed" stroke-width="2" fill="none"></path></g><g transform="translate(68 490) rotate(0 72 16)"><text x="72" y="NaN" font-family="Virgil, Segoe UI Emoji" font-size="24px" fill="#ffffff" text-anchor="middle" style="white-space: pre;" direction="ltr">Single DB</text></g><g stroke-linecap="round" transform="translate(280 380) rotate(0 90 45)"><path d="M-0.44 -1.57 L181.52 0.8 L180.57 89.93 L0.7 90.66" stroke="none" stroke-width="0" fill="#1e40af"></path><path d="M-0.95 -1.71 C37.99 0.75, 78.07 -0.85, 180.07 0.09 M0.8 0.25 C65.15 0.7, 128.71 0.02, 180.44 0.53 M181.57 -1.98 C179.2 31.5, 178.19 61.06, 179.92 90.49 M180.79 -0.69 C179.26 23.07, 178.55 46.56, 180.36 89.44 M178.58 90.75 C109 88.46, 37.98 90.56, -1.32 89.08 M179.69 90.07 C129.18 90.27, 77.84 90.51, 0.37 89.67 M0.54 90.16 C-0.12 67.73, -1.99 47.16, -0.66 -0.77 M-0.65 89.88 C0.26 70.64, 0.02 51.68, 0.05 -0.96" stroke="#3b82f6" stroke-width="2" fill="none"></path></g><g transform="translate(298 410) rotate(0 72 16)"><text x="72" y="NaN" font-family="Virgil, Segoe UI Emoji" font-size="24px" fill="#ffffff" text-anchor="middle" style="white-space: pre;" direction="ltr">Cache</text></g><g stroke-linecap="round" transform="translate(510 300) rotate(0 90 45)"><path d="M0.36 1.28 L179.62 0.42 L181.07 90.4 L-1.44 89.72" stroke="none" stroke-width="0" fill="#1e40af"></path><path d="M0.77 0.21 C37.35 -1.66, 76.95 -1.04, 178.48 0.87 M-0.5 0.78 C71.72 -1.23, 144.25 -1.04, 179.28 0.04 M180.65 -1.48 C182.37 33.11, 182.74 64.08, 178.71 88.76 M179.39 -0.29 C180.31 35.66, 179.65 71.24, 179.17 90.15 M180.68 90.32 C137.41 88.04, 95.33 89.05, -1.65 88.27 M179.8 89.78 C137.68 91.21, 96.78 90.91, 0.25 89.75 M-0.9 89.6 C-1.11 71.05, 1.57 52.26, 0.53 0.82 M-0.21 89.88 C-0.4 59.85, 0.38 28.92, 0.93 -0.99" stroke="#3b82f6" stroke-width="2" fill="none"></path></g><g transform="translate(528 330) rotate(0 72 16)"><text x="72" y="NaN" font-family="Virgil, Segoe UI Emoji" font-size="24px" fill="#ffffff" text-anchor="middle" style="white-space: pre;" direction="ltr">Replicas</text></g><g stroke-linecap="round" transform="translate(740 220) rotate(0 90 45)"><path d="M1.16 0.12 L181.71 0.04 L181.58 90.87 L0.41 88.79" stroke="none" stroke-width="0" fill="#5b21b6"></path><path d="M-1.52 -1.86 C40.71 -0.06, 79.84 -1.23, 180.89 1.66 M0.2 -0.69 C44.28 0.45, 87.8 1.49, 180.12 -0.46 M179.72 -0.98 C179.74 16.72, 181.49 35.1, 181.49 91.02 M179.99 0.11 C181.37 30.25, 180.75 59.92, 179.98 90.85 M178.79 89.89 C133.83 91.62, 84.68 91.54, -1.97 91.47 M179.92 89.49 C110.17 88.55, 41.71 87.71, 0.13 89.84 M1.66 89.03 C0.11 56.37, -0.68 21.37, 1.71 -1.59 M0.23 89.87 C0.75 65.07, 0.53 42.16, -0.19 0.99" stroke="#7c3aed" stroke-width="2" fill="none"></path></g><g transform="translate(758 250) rotate(0 72 16)"><text x="72" y="NaN" font-family="Virgil, Segoe UI Emoji" font-size="24px" fill="#ffffff" text-anchor="middle" style="white-space: pre;" direction="ltr">Sharding</text></g><g stroke-linecap="round" transform="translate(970 140) rotate(0 90 45)"><path d="M1.95 -1.04 L179.8 -0.33 L178.09 91.33 L-1.74 91.85" stroke="none" stroke-width="0" fill="#5b21b6"></path><path d="M0.2 0.07 C40.08 1.14, 78.72 2.18, 179.3 -1.56 M0.91 -0.17 C50.85 -1.48, 103.34 -1.58, 180.96 -0.95 M178.79 -0.48 C181.1 22.33, 180.24 42.12, 180.27 89.28 M180.58 0.51 C178.62 24.84, 180.05 48.6, 180.8 89.55 M180.89 89.46 C126.25 91.19, 74.03 90.03, 1.7 90.66 M180.03 89.2 C118.67 89.49, 58.65 88.1, 0.01 89.92 M0.22 88.47 C-0.88 55.69, -1.13 22.48, -1.11 0 M0.66 89.87 C0.09 54.28, -1.12 19.41, 0.69 0.96" stroke="#7c3aed" stroke-width="2" fill="none"></path></g><g transform="translate(988 170) rotate(0 72 16)"><text x="72" y="NaN" font-family="Virgil, Segoe UI Emoji" font-size="24px" fill="#ffffff" text-anchor="middle" style="white-space: pre;" direction="ltr">Multi-region</text></g><g stroke-linecap="round"><g transform="translate(230 505) rotate(0 25 -40)"><path d="M0.48 -0.82 C8.76 -14.16, 40.55 -66.9, 49.01 -80.01 M-0.72 1.37 C7.98 -11.77, 42.56 -64.67, 51.19 -78.48" stroke="#ff8c42" stroke-width="2" fill="none"></path></g><g transform="translate(230 505) rotate(0 25 -40)"><path d="M43.25 -50.87 C46.2 -54.41, 48.75 -63.45, 50.14 -79.63 M43.87 -48.52 C45.44 -56.21, 47.33 -61.29, 50.33 -78.78" stroke="#ff8c42" stroke-width="2" fill="none"></path></g><g transform="translate(230 505) rotate(0 25 -40)"><path d="M25.97 -61.95 C33.16 -62.84, 39.94 -69.17, 50.14 -79.63 M26.6 -59.6 C32.04 -64.91, 37.69 -67.58, 50.33 -78.78" stroke="#ff8c42" stroke-width="2" fill="none"></path></g></g><g stroke-linecap="round"><g transform="translate(460 425) rotate(0 25 -40)"><path d="M-0.47 0.9 C8.1 -12.31, 42.25 -65.35, 50.78 -79 M1.48 0.32 C10.02 -13.23, 42.11 -67.18, 50.25 -80.6" stroke="#ff8c42" stroke-width="2" fill="none"></path></g><g transform="translate(460 425) rotate(0 25 -40)"><path d="M46.03 -49.84 C47.54 -57.18, 45.64 -65.16, 50.4 -79.36 M44.15 -51.19 C45.1 -58.97, 46.57 -65.29, 49.8 -81.15" stroke="#ff8c42" stroke-width="2" fill="none"></path></g><g transform="translate(460 425) rotate(0 25 -40)"><path d="M28.43 -60.4 C34.28 -65.09, 36.68 -70.48, 50.4 -79.36 M26.55 -61.75 C31.68 -66.94, 37.36 -70.73, 49.8 -81.15" stroke="#ff8c42" stroke-width="2" fill="none"></path></g></g><g stroke-linecap="round"><g transform="translate(690 345) rotate(0 25 -40)"><path d="M0.97 0.21 C9.44 -13.26, 41.96 -67, 50.16 -80.39 M0.02 -0.72 C8.4 -14.07, 41.05 -66.04, 49.3 -79.06" stroke="#ff8c42" stroke-width="2" fill="none"></path></g><g transform="translate(690 345) rotate(0 25 -40)"><path d="M43.29 -49.47 C43.74 -56.65, 45.75 -63.49, 50.65 -79.43 M42.91 -50.52 C45.01 -58.31, 46.42 -65.79, 49.27 -79.86" stroke="#ff8c42" stroke-width="2" fill="none"></path></g><g transform="translate(690 345) rotate(0 25 -40)"><path d="M25.93 -60.42 C30.67 -65.06, 36.94 -69.21, 50.65 -79.43 M25.55 -61.47 C32.23 -66.24, 38.16 -70.87, 49.27 -79.86" stroke="#ff8c42" stroke-width="2" fill="none"></path></g></g><g stroke-linecap="round"><g transform="translate(920 265) rotate(0 25 -40)"><path d="M0.01 -0.48 C8.38 -13.81, 41.26 -66.25, 49.54 -79.38 M-1.44 -1.77 C6.78 -15.52, 39.98 -67.94, 48.35 -81.18" stroke="#ff8c42" stroke-width="2" fill="none"></path></g><g transform="translate(920 265) rotate(0 25 -40)"><path d="M41.17 -52.64 C44.39 -59.57, 46.18 -65.3, 46.91 -83.16 M42.28 -51.39 C43.97 -59.34, 45.17 -68.01, 48.74 -80.23" stroke="#ff8c42" stroke-width="2" fill="none"></path></g><g transform="translate(920 265) rotate(0 25 -40)"><path d="M23.82 -63.6 C31.36 -67.85, 37.39 -70.89, 46.91 -83.16 M24.93 -62.35 C31.44 -67.3, 37.52 -72.88, 48.74 -80.23" stroke="#ff8c42" stroke-width="2" fill="none"></path></g></g><g transform="translate(50 580) rotate(0 79.2 16)"><text x="0" y="NaN" font-family="Virgil, Segoe UI Emoji" font-size="24px" fill="#40916c" text-anchor="start" style="white-space: pre;" direction="ltr">Low ops cost</text></g><g transform="translate(1030 270) rotate(0 85.79999999999995 16)"><text x="0" y="NaN" font-family="Virgil, Segoe UI Emoji" font-size="24px" fill="#e11d48" text-anchor="start" style="white-space: pre;" direction="ltr">High ops cost</text></g></svg>