<svg version="1.1" xmlns="http://www.w3.org/2000/svg" viewBox="0 0 1494 679.5" width="1494" height="679.5">
  <!-- svg-source:excalidraw -->
  
  <defs>
    <style>
      @font-face {
        font-family: "Virgil";
        src: url("https://excalidraw.com/Virgil.woff2");
      }
      @font-face {
        font-family: "Cascadia";
        src: url("https://excalidraw.com/Cascadia.woff2");
      }
    </style>
  </defs>
  <rect x="0" y="0" width="1494" height="679.5" fill="#1e1e2e"></rect><g transform="translate(10 10) rotate(0 556.6257934570312 17.5)"><text x="0" y="NaN" font-family="Virgil, Segoe UI Emoji" font-size="28px" fill="#ff8c42" text-anchor="start" style="white-space: pre;" direction="ltr">Data Strangulation  —  five steps to migrate a data domain without downtime</text></g><g transform="translate(10 50) rotate(0 438.7697448730469 10.625)"><text x="0" y="NaN" font-family="Virgil, Segoe UI Emoji" font-size="17px" fill="#c9d1d9" text-anchor="start" style="white-space: pre;" direction="ltr">Same two stores in every panel.  What changes is who writes, who reads, and which direction CDC flows.</text></g><g stroke-opacity="0.7" fill-opacity="0.7" stroke-linecap="round" transform="translate(10 94.89142417411762) rotate(0 145 229.33419005964353)"><path d="M0.3 1.64 L290.33 -1.22 L288.09 457.7 L0.19 459.01" stroke="none" stroke-width="0" fill="#181825"></path><path d="M-1.44 0.4 C115.04 -0.34, 232.78 -0.56, 288.98 1.5 M289.2 0.84 C289.12 96.46, 289.07 193.28, 290.16 458.36 M291.01 459.63 C201.07 455.63, 112.35 456.21, 1.31 459.43 M0.37 458.28 C1.32 321.51, 1.13 185.15, -0.3 -0.54" stroke="#45475a" stroke-width="2.5" fill="none" stroke-dasharray="8 10"></path></g><g transform="translate(26 103) rotate(0 26.855987548828125 11.25)"><text x="0" y="NaN" font-family="Virgil, Segoe UI Emoji" font-size="18px" fill="#e6edf3" text-anchor="start" style="white-space: pre;" direction="ltr">Step 1</text></g><g transform="translate(26 127) rotate(0 42.929969787597656 12.5)"><text x="0" y="NaN" font-family="Virgil, Segoe UI Emoji" font-size="20px" fill="#ff8c42" text-anchor="start" style="white-space: pre;" direction="ltr">CDC tap</text></g><g stroke-linecap="round" transform="translate(27.952102453886567 155) rotate(0 129.61519046133208 25)"><path d="M-0.94 -0.77 L260.87 1.22 L259.59 48.15 L-0.03 48.71" stroke="none" stroke-width="0" fill="#1f4d2b"></path><path d="M0.06 -0.79 C67.51 -3.26, 139.15 -2.36, 260.49 -0.63 M0.49 0.04 C79.51 0.49, 159.7 0.08, 259.38 0.49 M258.6 1.58 C260.27 20.71, 260.14 39.59, 260.27 50.05 M259.74 -0.84 C258.63 13.82, 258.95 28.03, 258.97 49.67 M260.41 48.46 C180.86 48.02, 106.48 47.65, 0.24 49.08 M259.74 49.54 C195.97 51.8, 133.34 51.11, -0.42 50.77 M1.85 51.23 C-1.11 33.89, -0.65 18.86, 0.58 0.92 M0.5 50.9 C0.08 38.96, 0.69 29.89, -0.74 0.53" stroke="#3fb950" stroke-width="2" fill="none"></path></g><g transform="translate(116.78332685076552 170) rotate(0 40.783966064453125 10)"><text x="40.783966064453125" y="NaN" font-family="Virgil, Segoe UI Emoji" font-size="16px" fill="#ffffff" text-anchor="middle" style="white-space: pre;" direction="ltr">Application</text></g><g stroke-linecap="round" transform="translate(28 325) rotate(0 55 45)"><path d="M-1.36 -1.41 L110.38 -0.38 L111.98 91.22 L-1.13 89.98" stroke="none" stroke-width="0" fill="#3a1d6e"></path><path d="M-1.45 -0.29 C39.19 1.5, 79.1 -1.34, 111.27 1.98 M0.5 -0.43 C33.27 1.5, 65.73 0.85, 110.99 -0.3 M108.98 1.66 C112.49 20.07, 110.38 35.41, 108.54 91.97 M110.54 0.31 C111.26 21.17, 110.37 42.01, 110.85 90.81 M108.86 89.62 C87.67 92.03, 62.79 89.63, -1.57 89.87 M109.47 90.04 C83.31 89.54, 56.58 88.79, 0.3 89.14 M0.52 89 C-1.62 59.91, -0.13 30.11, 1.85 -1.62 M0.37 90.2 C-0.6 64.82, 0.85 40.9, -0.98 -0.13" stroke="#a371f7" stroke-width="2" fill="none"></path></g><g transform="translate(41.77703094482422 361.25) rotate(0 41.22296905517578 8.75)"><text x="41.22296905517578" y="NaN" font-family="Virgil, Segoe UI Emoji" font-size="14px" fill="#ffffff" text-anchor="middle" style="white-space: pre;" direction="ltr">Monolith DB</text></g><g stroke-linecap="round" transform="translate(182 325) rotate(0 55 45)"><path d="M-1.04 1.05 L108.99 0.5 L109.56 89.37 L1.08 88.98" stroke="none" stroke-width="0" fill="#0d2c5a"></path><path d="M1.45 -1.77 C31.41 1.82, 66.78 -0.83, 111.15 1.65 M-0.12 -0.06 C24.54 -1.67, 50.37 -0.93, 109.19 -0.57 M109.11 1.83 C109.52 22.45, 110.19 42.7, 108.59 88.25 M110.22 -0.66 C108.32 29.68, 109.49 57.87, 109.96 90.56 M108.19 91.14 C77.67 90.43, 44.55 91.34, 0.31 91.96 M109.43 89.53 C71.32 89.12, 33.11 88.46, 0.55 89.52 M1.79 91.33 C-0.68 68.47, -0.98 47.23, 1.5 -1.15 M-0.47 89.82 C0.14 58.29, -0.36 25.38, -0.41 -0.93" stroke="#58a6ff" stroke-width="2" fill="none"></path></g><g transform="translate(187.060546875 361.875) rotate(0 49.939453125 8.125)"><text x="49.939453125" y="NaN" font-family="Virgil, Segoe UI Emoji" font-size="13px" fill="#ffffff" text-anchor="middle" style="white-space: pre;" direction="ltr">New Service DB</text></g><g stroke-linecap="round"><g transform="translate(81.27822083027172 211.00000000000003) rotate(0 0.8207901330291847 53.999999999999986)"><path d="M1 1.02 C1.38 18.72, 2.2 89.51, 2.17 107.19 M0.07 0.51 C0.35 18.26, 0.97 90.4, 1.49 108.31" stroke="#3fb950" stroke-width="2" fill="none"></path></g><g transform="translate(81.27822083027172 211.00000000000003) rotate(0 0.8207901330291847 53.999999999999986)"><path d="M-7.56 81.18 C-7.27 86.89, -4.29 95.39, 0.61 108.59 M-9.4 79.65 C-7.9 85.65, -5.32 92.64, 1.66 107.5" stroke="#3fb950" stroke-width="2" fill="none"></path></g><g transform="translate(81.27822083027172 211.00000000000003) rotate(0 0.8207901330291847 53.999999999999986)"><path d="M12.96 80.82 C7.32 86.8, 4.37 95.41, 0.61 108.59 M11.12 79.29 C8.48 85.23, 6.93 92.3, 1.66 107.5" stroke="#3fb950" stroke-width="2" fill="none"></path></g></g><g transform="translate(55 227) rotate(0 26.82398223876953 8.75)"><text x="0" y="NaN" font-family="Virgil, Segoe UI Emoji" font-size="14px" fill="#3fb950" text-anchor="start" style="white-space: pre;" direction="ltr">W 100%</text></g><g stroke-linecap="round"><g transform="translate(118.74425240093407 319.10938951528345) rotate(0 5.979229848167847 -54.05469475764171)"><path d="M-0.43 0.04 C1.55 -18.2, 10.5 -90.21, 12.65 -108.41 M1.55 -0.99 C3.35 -18.53, 10.33 -89.12, 12.07 -107.03" stroke="#58a6ff" stroke-width="2" fill="none"></path></g><g transform="translate(118.74425240093407 319.10938951528345) rotate(0 5.979229848167847 -54.05469475764171)"><path d="M19.59 -76.81 C16.05 -87.81, 12.02 -100.35, 10.65 -107.44 M19.3 -78.61 C15.73 -88.85, 14.53 -99.45, 11.33 -107.82" stroke="#58a6ff" stroke-width="2" fill="none"></path></g><g transform="translate(118.74425240093407 319.10938951528345) rotate(0 5.979229848167847 -54.05469475764171)"><path d="M-0.83 -78.82 C3.14 -89.01, 6.61 -100.81, 10.65 -107.44 M-1.12 -80.61 C2.96 -89.96, 9.4 -99.81, 11.33 -107.82" stroke="#58a6ff" stroke-width="2" fill="none"></path></g></g><g transform="translate(136 289) rotate(0 26.347976684570312 8.75)"><text x="0" y="NaN" font-family="Virgil, Segoe UI Emoji" font-size="14px" fill="#58a6ff" text-anchor="start" style="white-space: pre;" direction="ltr">R 100%</text></g><g stroke-linecap="round"><g transform="translate(144 370.009) rotate(0 16 0)"><path d="M0.19 0.39 C5.29 0.43, 25.91 0.92, 31.05 0.9" stroke="#f0883e" stroke-width="2.5" fill="none" stroke-dasharray="8 10"></path></g><g transform="translate(144 370.009) rotate(0 16 0)"><path d="M16.48 4.94 C22.19 3.15, 26.42 1.69, 31.31 0.19" stroke="#f0883e" stroke-width="2.5" fill="none"></path></g><g transform="translate(144 370.009) rotate(0 16 0)"><path d="M16.61 -6.01 C22.33 -4.13, 26.52 -1.93, 31.31 0.19" stroke="#f0883e" stroke-width="2.5" fill="none"></path></g></g><g transform="translate(164 427) rotate(0 13.441993713378906 8.125)"><text x="0" y="NaN" font-family="Virgil, Segoe UI Emoji" font-size="13px" fill="#f0883e" text-anchor="start" style="white-space: pre;" direction="ltr">CDC</text></g><g transform="translate(27.492041994383555 492.1296586454489) rotate(0 116.41688537597656 17.5)"><text x="0" y="NaN" font-family="Virgil, Segoe UI Emoji" font-size="14px" fill="#c9d1d9" text-anchor="start" style="white-space: pre;" direction="ltr">CDC streams every monolith write</text><text x="0" y="NaN" font-family="Virgil, Segoe UI Emoji" font-size="14px" fill="#c9d1d9" text-anchor="start" style="white-space: pre;" direction="ltr">into the new store.</text></g><g stroke-opacity="0.7" fill-opacity="0.7" stroke-linecap="round" transform="translate(306 95) rotate(0 145 229.29391193068722)"><path d="M-0.4 -1.42 L290.35 0.24 L288.71 460.15 L0.93 459.6" stroke="none" stroke-width="0" fill="#1e1e2e"></path><path d="M-0.98 1.21 C83.21 0.06, 164.53 -0.67, 290.99 0.85 M289.11 0.37 C290.33 103.31, 289.02 205.34, 289.98 458.65 M290.49 458.88 C202.95 460.17, 114.27 459.43, -0.48 459.77 M-0.06 458.64 C-1.12 355.8, -1.45 253.92, 0.6 -0.56" stroke="#45475a" stroke-width="2.5" fill="none" stroke-dasharray="8 10"></path></g><g transform="translate(322 103) rotate(0 30.824989318847656 11.25)"><text x="0" y="NaN" font-family="Virgil, Segoe UI Emoji" font-size="18px" fill="#e6edf3" text-anchor="start" style="white-space: pre;" direction="ltr">Step 2</text></g><g transform="translate(322 127) rotate(0 50.58995056152344 12.5)"><text x="0" y="NaN" font-family="Virgil, Segoe UI Emoji" font-size="20px" fill="#ff8c42" text-anchor="start" style="white-space: pre;" direction="ltr">Dual-write</text></g><g stroke-linecap="round" transform="translate(329.4684548979101 155) rotate(0 126.11974935711908 25)"><path d="M-0.09 1.94 L253.48 -0.81 L254.11 49.14 L-1.43 49.74" stroke="none" stroke-width="0" fill="#1f4d2b"></path><path d="M-1.26 -1.36 C86.11 1.38, 168.93 1.48, 252.19 0.35 M-0.19 0.71 C74.24 -1.21, 147.64 -2.22, 251.49 -0.75 M253.85 0.77 C251.48 19.98, 254.03 40.86, 251.52 50.86 M251.41 -0.11 C252.36 13.74, 253.25 26.96, 252.21 49.7 M251.11 48.68 C153.29 48.85, 55.63 49.75, -0.67 50.23 M252.01 49.21 C198.44 50.15, 145.11 50.09, -0.49 49.47 M1.34 49.79 C-0.08 38.82, -0.8 25.96, 1.3 -2 M-0.68 50.84 C-0.81 34.67, 0.47 20.39, 0.71 0.17" stroke="#3fb950" stroke-width="2" fill="none"></path></g><g transform="translate(414.80423819057603 170) rotate(0 40.783966064453125 10)"><text x="40.783966064453125" y="NaN" font-family="Virgil, Segoe UI Emoji" font-size="16px" fill="#ffffff" text-anchor="middle" style="white-space: pre;" direction="ltr">Application</text></g><g stroke-linecap="round" transform="translate(324 325) rotate(0 55 45)"><path d="M-1.44 -0.76 L110.55 -0.6 L110.96 89.9 L1.55 91.11" stroke="none" stroke-width="0" fill="#3a1d6e"></path><path d="M-1.62 0.75 C23.93 0.75, 49.35 -1.72, 108.38 -0.15 M-0.89 -0.93 C24.12 -0.04, 47.46 -1.47, 110.79 -0.8 M111.73 1.28 C107.73 24.07, 110.02 49.88, 111.84 89.57 M109.08 -0.94 C109.31 21.95, 110.34 43.38, 109.15 89.5 M111.55 91.53 C68.2 90.65, 25.39 90.53, 0.15 88.64 M109.74 90.19 C78.37 90.64, 44.05 91.29, 0.62 89.48 M-1.08 90.55 C-1.37 61.16, 1.54 35.84, -0.97 -1.97 M0.63 89.43 C0.53 53.97, 0.52 18.78, -0.94 0.06" stroke="#a371f7" stroke-width="2" fill="none"></path></g><g transform="translate(337.7770309448242 361.25) rotate(0 41.22296905517578 8.75)"><text x="41.22296905517578" y="NaN" font-family="Virgil, Segoe UI Emoji" font-size="14px" fill="#ffffff" text-anchor="middle" style="white-space: pre;" direction="ltr">Monolith DB</text></g><g stroke-linecap="round" transform="translate(478 325) rotate(0 55 45)"><path d="M-1.23 0.95 L108.42 -0.98 L108.11 89.51 L-0.17 89.2" stroke="none" stroke-width="0" fill="#0d2c5a"></path><path d="M1.33 1.48 C42.28 -2.06, 84.67 1.36, 108.97 1.49 M-0.38 -0.38 C38.32 0.56, 75.8 -0.68, 109.6 0.05 M109.89 -0.29 C108.86 29.01, 110.68 60.83, 110.57 88.84 M109.34 0.91 C110.27 21.96, 110.95 44.19, 109.62 89.94 M109.21 91.27 C72.55 90.86, 34.47 90.12, 0.37 89.68 M110.67 89.74 C82.94 90.7, 57.47 90.03, -0.65 90.69 M-0.03 88.37 C0.88 64.85, -1.82 36.89, 0.79 0.75 M0.7 89.11 C-0.47 70.49, -0.32 50.63, -0.18 1" stroke="#58a6ff" stroke-width="2" fill="none"></path></g><g transform="translate(483.060546875 361.875) rotate(0 49.939453125 8.125)"><text x="49.939453125" y="NaN" font-family="Virgil, Segoe UI Emoji" font-size="13px" fill="#ffffff" text-anchor="middle" style="white-space: pre;" direction="ltr">New Service DB</text></g><g stroke-linecap="round"><g transform="translate(380.8538377241056 211.00000000000003) rotate(0 -0.8729231324710724 54.000000000000014)"><path d="M-0.02 -0.06 C-0.33 17.68, -2.43 89.43, -2.84 107.51 M-1.5 -1.13 C-1.36 17.28, -0.96 90.89, -0.7 108.79" stroke="#3fb950" stroke-width="2" fill="none"></path></g><g transform="translate(380.8538377241056 211.00000000000003) rotate(0 -0.8729231324710724 54.000000000000014)"><path d="M-11.32 78.87 C-9.52 85.57, -5.77 92.22, 1.1 107.68 M-11.06 80.47 C-9.2 88.01, -7.13 93.67, -1.59 109.15" stroke="#3fb950" stroke-width="2" fill="none"></path></g><g transform="translate(380.8538377241056 211.00000000000003) rotate(0 -0.8729231324710724 54.000000000000014)"><path d="M9.2 78.68 C6.57 85.42, 5.89 92.11, 1.1 107.68 M9.46 80.28 C6.44 87.93, 3.63 93.64, -1.59 109.15" stroke="#3fb950" stroke-width="2" fill="none"></path></g></g><g transform="translate(351 227) rotate(0 26.82398223876953 8.75)"><text x="0" y="NaN" font-family="Virgil, Segoe UI Emoji" font-size="14px" fill="#3fb950" text-anchor="start" style="white-space: pre;" direction="ltr">W 100%</text></g><g stroke-linecap="round"><g transform="translate(530.4259616369465 211.00000000000003) rotate(0 1.2244918561831923 53.999999999999986)"><path d="M-0.07 1.14 C0.25 19.38, 1.2 90.42, 1.59 108.41 M-1.57 0.69 C-0.84 18.65, 3.35 88.73, 3.84 106.51" stroke="#3fb950" stroke-width="2" fill="none"></path></g><g transform="translate(530.4259616369465 211.00000000000003) rotate(0 1.2244918561831923 53.999999999999986)"><path d="M-5.8 77.38 C-4.11 86.04, 0.2 94.42, 4.25 106.66 M-8.06 77.95 C-3.59 88.97, 1.53 100.27, 4.04 106.6" stroke="#3fb950" stroke-width="2" fill="none"></path></g><g transform="translate(530.4259616369465 211.00000000000003) rotate(0 1.2244918561831923 53.999999999999986)"><path d="M14.7 76.44 C10.8 85.34, 9.53 93.98, 4.25 106.66 M12.44 77.01 C9.22 88.45, 6.65 100.1, 4.04 106.6" stroke="#3fb950" stroke-width="2" fill="none"></path></g></g><g transform="translate(475 227) rotate(0 26.82398223876953 8.75)"><text x="0" y="NaN" font-family="Virgil, Segoe UI Emoji" font-size="14px" fill="#3fb950" text-anchor="start" style="white-space: pre;" direction="ltr">W 100%</text></g><g stroke-linecap="round"><g transform="translate(415.14164536507815 319.1388500286154) rotate(0 6.8916600728257436 -54.06942501430771)"><path d="M0.79 0.88 C3.31 -17.1, 12.7 -89.35, 14.8 -107.37 M-0.25 0.3 C2.22 -18.07, 12.28 -90.85, 14.39 -109.09" stroke="#58a6ff" stroke-width="2" fill="none"></path></g><g transform="translate(415.14164536507815 319.1388500286154) rotate(0 6.8916600728257436 -54.06942501430771)"><path d="M22.44 -78.12 C20.3 -88.46, 18.64 -94.38, 12.49 -107.91 M21.73 -80.8 C18.2 -88.36, 16.54 -97.8, 15.26 -108.79" stroke="#58a6ff" stroke-width="2" fill="none"></path></g><g transform="translate(415.14164536507815 319.1388500286154) rotate(0 6.8916600728257436 -54.06942501430771)"><path d="M2.09 -80.74 C5.56 -90.5, 9.5 -95.69, 12.49 -107.91 M1.38 -83.42 C4.09 -90.22, 8.67 -98.86, 15.26 -108.79" stroke="#58a6ff" stroke-width="2" fill="none"></path></g></g><g transform="translate(432 289) rotate(0 26.347976684570312 8.75)"><text x="0" y="NaN" font-family="Virgil, Segoe UI Emoji" font-size="14px" fill="#58a6ff" text-anchor="start" style="white-space: pre;" direction="ltr">R 100%</text></g><g stroke-linecap="round"><g transform="translate(440 370.009) rotate(0 16 0)"><path d="M0.73 0.45 C6.12 0.39, 27.97 0.33, 32.99 0.21" stroke="#f0883e" stroke-width="2.5" fill="none" stroke-dasharray="8 10"></path></g><g transform="translate(440 370.009) rotate(0 16 0)"><path d="M18.62 7.17 C23.55 2.21, 28.24 0.26, 32.21 -0.91" stroke="#f0883e" stroke-width="2.5" fill="none"></path></g><g transform="translate(440 370.009) rotate(0 16 0)"><path d="M18.49 -3.78 C23.53 -4.86, 28.25 -2.95, 32.21 -0.91" stroke="#f0883e" stroke-width="2.5" fill="none"></path></g></g><g transform="translate(460 427) rotate(0 13.441993713378906 8.125)"><text x="0" y="NaN" font-family="Virgil, Segoe UI Emoji" font-size="13px" fill="#f0883e" text-anchor="start" style="white-space: pre;" direction="ltr">CDC</text></g><g transform="translate(318.90383773935434 492.9817863841936) rotate(0 97.56590270996094 17.5)"><text x="0" y="NaN" font-family="Virgil, Segoe UI Emoji" font-size="14px" fill="#c9d1d9" text-anchor="start" style="white-space: pre;" direction="ltr">App writes to BOTH stores.</text><text x="0" y="NaN" font-family="Virgil, Segoe UI Emoji" font-size="14px" fill="#c9d1d9" text-anchor="start" style="white-space: pre;" direction="ltr">CDC kept as safety net.</text></g><g stroke-opacity="0.7" fill-opacity="0.7" stroke-linecap="round" transform="translate(602 95) rotate(0 145 228.67748143535505)"><path d="M-0.37 -1.41 L291.66 -1.05 L291.58 457.07 L0.72 458.26" stroke="none" stroke-width="0" fill="#181825"></path><path d="M1.16 -1.24 C88.88 -0.44, 176.6 -2.47, 289.17 1.36 M290.53 0.49 C291.85 170.75, 292.08 341.03, 289.44 457.72 M288.76 456.07 C177.12 456.99, 64.58 457.27, -0.85 456.6 M0.84 457.25 C0.53 324.99, -0.48 192.45, -0.03 -0.44" stroke="#45475a" stroke-width="2.5" fill="none" stroke-dasharray="8 10"></path></g><g transform="translate(618 103) rotate(0 30.545989990234375 11.25)"><text x="0" y="NaN" font-family="Virgil, Segoe UI Emoji" font-size="18px" fill="#e6edf3" text-anchor="start" style="white-space: pre;" direction="ltr">Step 3</text></g><g transform="translate(618 127) rotate(0 36.13996887207031 12.5)"><text x="0" y="NaN" font-family="Virgil, Segoe UI Emoji" font-size="20px" fill="#ff8c42" text-anchor="start" style="white-space: pre;" direction="ltr">Backfill</text></g><g stroke-linecap="round" transform="translate(619.4092233244746 155) rotate(0 128.74658385427313 25)"><path d="M1.92 0.44 L258.45 1.29 L256.58 51.51 L0.89 49.74" stroke="none" stroke-width="0" fill="#1f4d2b"></path><path d="M-0.72 -0.53 C100.27 1.02, 200.68 0.77, 257 0.32 M0.46 -0.8 C87.95 -1.42, 176.3 -2.16, 257.01 -0.24 M256.55 0.57 C258.63 17.32, 258.82 33.8, 257.76 49.07 M257.09 0.32 C257.01 11.53, 257.21 25.31, 257.15 50.02 M258.91 48.81 C194.87 52.82, 130.64 50.97, 1.19 49.17 M257.35 49.65 C180.03 49.64, 101.8 49.81, 0.47 49.99 M-1.04 49.79 C-2.21 33.95, -1.21 17.69, -0.79 1.26 M1 50.03 C0 37.38, 0.35 22.84, 0.22 -0.86" stroke="#3fb950" stroke-width="2" fill="none"></path></g><g transform="translate(707.3718411142946 170) rotate(0 40.783966064453125 10)"><text x="40.783966064453125" y="NaN" font-family="Virgil, Segoe UI Emoji" font-size="16px" fill="#ffffff" text-anchor="middle" style="white-space: pre;" direction="ltr">Application</text></g><g stroke-linecap="round" transform="translate(620 325) rotate(0 55 45)"><path d="M-0.54 -0.04 L111.8 0.03 L110.68 88.79 L1.17 91.92" stroke="none" stroke-width="0" fill="#3a1d6e"></path><path d="M-1.62 -0.71 C27.37 -1.16, 58.04 0.09, 108.37 -0.29 M-0.13 0.46 C40.95 0.25, 83.29 -0.58, 109.07 0.65 M111.38 1.89 C111.01 26.95, 109.23 56.66, 110.53 88.81 M110.98 0.64 C110.59 18.34, 111.41 38.65, 110.74 90.11 M108.23 88.81 C68.19 90.57, 27.37 92.23, 0.55 88.45 M110.31 89.86 C67.35 90.79, 26.33 90.01, 0.21 89.59 M1.53 89.02 C0.39 59.6, 1.83 29.82, -1.48 1.17 M0.38 89.92 C1.08 55.25, -0.47 19.78, -0.98 -0.42" stroke="#a371f7" stroke-width="2" fill="none"></path></g><g transform="translate(633.7770309448242 361.25) rotate(0 41.22296905517578 8.75)"><text x="41.22296905517578" y="NaN" font-family="Virgil, Segoe UI Emoji" font-size="14px" fill="#ffffff" text-anchor="middle" style="white-space: pre;" direction="ltr">Monolith DB</text></g><g stroke-linecap="round" transform="translate(773.7828483482351 325) rotate(0 55 45)"><path d="M0.95 -0.23 L110.82 -0.13 L110.51 90.33 L1.72 89.34" stroke="none" stroke-width="0" fill="#0d2c5a"></path><path d="M1.74 0.86 C39.85 0.18, 76.45 -2.22, 108.25 1.53 M-0.58 0.91 C37.63 0.54, 75.22 0.43, 109.27 0.17 M108.87 0.83 C108.04 31.57, 109.61 62.25, 110.36 90.75 M109.94 0.73 C110.9 24.37, 110.93 46.61, 109.89 89.82 M108.89 89.67 C80.72 90.6, 50.13 88.53, -1.48 88.43 M109.31 90.48 C68.96 89.79, 28.86 89.51, -0.19 90.96 M1.77 90.51 C-0.34 63.39, 1.46 37.48, 1.28 0.34 M-0.09 89.32 C0.75 66.22, 1.17 41.29, 0.55 -0.76" stroke="#58a6ff" stroke-width="2" fill="none"></path></g><g transform="translate(778.8433952232351 361.875) rotate(0 49.939453125 8.125)"><text x="49.939453125" y="NaN" font-family="Virgil, Segoe UI Emoji" font-size="13px" fill="#ffffff" text-anchor="middle" style="white-space: pre;" direction="ltr">New Service DB</text></g><g stroke-linecap="round"><g transform="translate(672.4916690515179 211) rotate(0 1.1933672913863234 54)"><path d="M0.43 0.84 C0.86 19.03, 2.05 90.8, 2.32 108.63 M-0.81 0.24 C-0.51 18.12, 1.02 88.71, 1.34 106.84" stroke="#3fb950" stroke-width="2" fill="none"></path></g><g transform="translate(672.4916690515179 211) rotate(0 1.1933672913863234 54)"><path d="M-8.07 78.75 C-5.56 85.96, -3.94 93.32, 0.38 107.79 M-8.84 78.76 C-6.15 86.75, -2.26 95.13, 0.36 107.65" stroke="#3fb950" stroke-width="2" fill="none"></path></g><g transform="translate(672.4916690515179 211) rotate(0 1.1933672913863234 54)"><path d="M12.44 78.35 C9.31 85.74, 5.28 93.21, 0.38 107.79 M11.67 78.36 C8.24 86.62, 6 95.12, 0.36 107.65" stroke="#3fb950" stroke-width="2" fill="none"></path></g></g><g transform="translate(647 227) rotate(0 26.82398223876953 8.75)"><text x="0" y="NaN" font-family="Virgil, Segoe UI Emoji" font-size="14px" fill="#3fb950" text-anchor="start" style="white-space: pre;" direction="ltr">W 100%</text></g><g stroke-linecap="round"><g transform="translate(824.7521169409665 211.00000000000003) rotate(0 1.9145043508113417 53.999999999999986)"><path d="M0.21 -0.42 C0.99 17.68, 3.11 90.48, 3.88 108.54 M-1.14 -1.69 C-0.45 16.06, 2 88.21, 2.97 106.7" stroke="#3fb950" stroke-width="2" fill="none"></path></g><g transform="translate(824.7521169409665 211.00000000000003) rotate(0 1.9145043508113417 53.999999999999986)"><path d="M-9.17 79.05 C-4.87 87.24, -3.15 91.18, 4.91 104.89 M-8.79 78.53 C-5.05 85.83, -2.15 92.31, 2.43 106.17" stroke="#3fb950" stroke-width="2" fill="none"></path></g><g transform="translate(824.7521169409665 211.00000000000003) rotate(0 1.9145043508113417 53.999999999999986)"><path d="M11.34 78.19 C10.77 86.62, 7.64 90.76, 4.91 104.89 M11.72 77.67 C10.49 85.23, 8.42 91.92, 2.43 106.17" stroke="#3fb950" stroke-width="2" fill="none"></path></g></g><g transform="translate(771 227) rotate(0 26.82398223876953 8.75)"><text x="0" y="NaN" font-family="Virgil, Segoe UI Emoji" font-size="14px" fill="#3fb950" text-anchor="start" style="white-space: pre;" direction="ltr">W 100%</text></g><g stroke-linecap="round"><g transform="translate(710.5567448085345 319.09676933931934) rotate(0 5.551728132947289 -54.04838466965967)"><path d="M-0.28 -0.13 C1.64 -17.95, 9.3 -90.23, 11.13 -108.15 M1.78 -1.24 C3.58 -18.76, 8.87 -88.56, 10.19 -106.64" stroke="#58a6ff" stroke-width="2" fill="none"></path></g><g transform="translate(710.5567448085345 319.09676933931934) rotate(0 5.551728132947289 -54.04838466965967)"><path d="M18.1 -77.72 C16.34 -86.2, 15.01 -92.95, 12.16 -107.72 M18.64 -77.49 C16.35 -86.69, 12.72 -95.87, 11.04 -105.84" stroke="#58a6ff" stroke-width="2" fill="none"></path></g><g transform="translate(710.5567448085345 319.09676933931934) rotate(0 5.551728132947289 -54.04838466965967)"><path d="M-2.36 -79.25 C1.34 -87.28, 5.5 -93.62, 12.16 -107.72 M-1.82 -79.02 C1.96 -87.71, 4.4 -96.43, 11.04 -105.84" stroke="#58a6ff" stroke-width="2" fill="none"></path></g></g><g transform="translate(728 289) rotate(0 26.347976684570312 8.75)"><text x="0" y="NaN" font-family="Virgil, Segoe UI Emoji" font-size="14px" fill="#58a6ff" text-anchor="start" style="white-space: pre;" direction="ltr">R 100%</text></g><g stroke-linecap="round"><g transform="translate(735.8969744095391 395.65120054942145) rotate(0 15.994472749156557 0.0003413935763774134)"><path d="M-0.76 -1.06 C4.45 -0.78, 25.99 0.69, 31.5 1.01" stroke="#f0883e" stroke-width="3.5" fill="none" stroke-dasharray="8 11"></path></g><g transform="translate(735.8969744095391 395.65120054942145) rotate(0 15.994472749156557 0.0003413935763774134)"><path d="M14.73 4.86 C22.47 4.57, 27.18 4.27, 30.49 0.13" stroke="#f0883e" stroke-width="3.5" fill="none"></path></g><g transform="translate(735.8969744095391 395.65120054942145) rotate(0 15.994472749156557 0.0003413935763774134)"><path d="M15.42 -6.06 C22.87 -2.84, 27.36 0.39, 30.49 0.13" stroke="#f0883e" stroke-width="3.5" fill="none"></path></g></g><g stroke-linecap="round"><g transform="translate(735.8965872833282 344.34305437288754) rotate(0 15.994859934260319 -0.00034159760517127324)"><path d="M0.55 -0.6 C5.78 -0.9, 26.99 -1.24, 32.22 -1.14" stroke="#f0883e" stroke-width="2.5" fill="none" stroke-dasharray="8 10"></path></g><g transform="translate(735.8965872833282 344.34305437288754) rotate(0 15.994859934260319 -0.00034159760517127324)"><path d="M16.4 4.66 C21.18 2.16, 28.18 0.9, 31.21 -1.64" stroke="#f0883e" stroke-width="2.5" fill="none"></path></g><g transform="translate(735.8965872833282 344.34305437288754) rotate(0 15.994859934260319 -0.00034159760517127324)"><path d="M16.37 -6.28 C21.23 -4.75, 28.24 -1.97, 31.21 -1.64" stroke="#f0883e" stroke-width="2.5" fill="none"></path></g></g><g transform="translate(746 427) rotate(0 51.89995574951172 7.5)"><text x="0" y="NaN" font-family="Virgil, Segoe UI Emoji" font-size="12px" fill="#f85149" text-anchor="start" style="white-space: pre;" direction="ltr">BACKFILL + CDC</text></g><g transform="translate(616.4764359916506 493.63324133948777) rotate(0 100.23291015625 17.5)"><text x="0" y="NaN" font-family="Virgil, Segoe UI Emoji" font-size="14px" fill="#c9d1d9" text-anchor="start" style="white-space: pre;" direction="ltr">One-time job copies historical</text><text x="0" y="NaN" font-family="Virgil, Segoe UI Emoji" font-size="14px" fill="#c9d1d9" text-anchor="start" style="white-space: pre;" direction="ltr">rows CDC missed.</text></g><g stroke-opacity="0.7" fill-opacity="0.7" stroke-linecap="round" transform="translate(898 95) rotate(0 145 228.98044301402683)"><path d="M1.84 0.32 L290.29 -0.37 L291.65 459.34 L0.7 458.79" stroke="none" stroke-width="0" fill="#1e1e2e"></path><path d="M0.31 -0.46 C91.12 2.56, 181.51 1.08, 288.79 0.82 M290.65 -0.66 C291.86 135.21, 290.55 269.54, 289.4 458.7 M289.8 459.23 C201.91 457.61, 114.93 456.41, -0.1 458.42 M-0.53 458.69 C1.64 331.61, 2.04 204.18, -0.75 0.41" stroke="#45475a" stroke-width="2.5" fill="none" stroke-dasharray="8 10"></path></g><g transform="translate(914 103) rotate(0 30.176986694335938 11.25)"><text x="0" y="NaN" font-family="Virgil, Segoe UI Emoji" font-size="18px" fill="#e6edf3" text-anchor="start" style="white-space: pre;" direction="ltr">Step 4</text></g><g transform="translate(914 127) rotate(0 66.49994659423828 12.5)"><text x="0" y="NaN" font-family="Virgil, Segoe UI Emoji" font-size="20px" fill="#ff8c42" text-anchor="start" style="white-space: pre;" direction="ltr">Read cutover</text></g><g stroke-linecap="round" transform="translate(912.2465145899012 155) rotate(0 132.61503545708217 25)"><path d="M0.02 0.1 L266.76 1.6 L265.31 48.95 L0.9 49.8" stroke="none" stroke-width="0" fill="#1f4d2b"></path><path d="M-0.26 -1.47 C60.24 -0.02, 120.92 2.3, 265.69 -0.41 M0.7 0.64 C91.67 -0.46, 182.59 -0.9, 265.89 0.31 M266.26 0.38 C263.29 19.11, 264.13 37.07, 263.41 50.92 M266.07 -0.51 C266.11 11, 265.65 23.89, 264.7 49.33 M264.58 50.87 C165.59 46.79, 66.84 46.92, 1.15 49.55 M265.09 50.36 C209.38 50.63, 154.75 51.42, -0.54 49.62 M-0.32 50.08 C2.12 38.37, 0.35 26.67, 0.73 -1.49 M0.99 49.75 C0.79 31.68, 0.86 15.37, -0.12 0.41" stroke="#3fb950" stroke-width="2" fill="none"></path></g><g transform="translate(1004.0775839825301 170) rotate(0 40.783966064453125 10)"><text x="40.783966064453125" y="NaN" font-family="Virgil, Segoe UI Emoji" font-size="16px" fill="#ffffff" text-anchor="middle" style="white-space: pre;" direction="ltr">Application</text></g><g stroke-linecap="round" transform="translate(911 325) rotate(0 55 45)"><path d="M0.27 -0.66 L109.07 -0.23 L109.63 91.78 L1.56 89.66" stroke="none" stroke-width="0" fill="#3a1d6e"></path><path d="M-1.49 -0.19 C30.07 0.44, 58.62 -0.56, 109.42 -0.22 M0.95 0.82 C32.6 0.26, 66.64 0.7, 109.97 0.35 M108.18 0.2 C109 25.56, 108.39 49.07, 111.5 88.16 M109.01 0.71 C110.94 18.47, 110.5 36.21, 110.39 89.85 M110.98 88.9 C70.01 88.26, 28.58 91.36, -0.29 90.77 M109.54 89.71 C80.98 88.99, 51.56 89.26, 0.66 89.37 M0.99 88.62 C-0.42 53.35, 0.45 21.05, -1.7 -0.3 M0.49 89.85 C0.66 54.74, -0.1 18.96, -0.28 -0.35" stroke="#a371f7" stroke-width="2" fill="none"></path></g><g transform="translate(924.7770309448242 361.25) rotate(0 41.22296905517578 8.75)"><text x="41.22296905517578" y="NaN" font-family="Virgil, Segoe UI Emoji" font-size="14px" fill="#ffffff" text-anchor="middle" style="white-space: pre;" direction="ltr">Monolith DB</text></g><g stroke-linecap="round" transform="translate(1065 325) rotate(0 55 45)"><path d="M-1.79 -0.68 L109.05 1.54 L110.32 88.1 L1.92 89.43" stroke="none" stroke-width="0" fill="#0d2c5a"></path><path d="M-0.88 -1.17 C40.55 -0.94, 80.65 -0.33, 111.7 0.61 M-0.7 -0.1 C29.74 1.02, 58.2 0.11, 110.18 0.44 M111.87 0.08 C110.18 28.13, 109.83 56.5, 108.19 91.79 M110.22 -0.64 C111.01 20.31, 110.62 42.18, 110.52 90.28 M108.69 88.96 C87.8 89.87, 63.64 88.48, -1.74 90.98 M110.25 89.57 C72.54 89.86, 35.11 89.11, -0.27 89.96 M-0.02 91.3 C2.49 69.96, 2.64 48.6, -0.35 -1.33 M0.66 90.76 C-0.77 58, -0.56 25.03, 0.85 -0.29" stroke="#58a6ff" stroke-width="2" fill="none"></path></g><g transform="translate(1070.060546875 361.875) rotate(0 49.939453125 8.125)"><text x="49.939453125" y="NaN" font-family="Virgil, Segoe UI Emoji" font-size="13px" fill="#ffffff" text-anchor="middle" style="white-space: pre;" direction="ltr">New Service DB</text></g><g stroke-linecap="round"><g transform="translate(966.4865626574733 211) rotate(0 -0.22526652196108898 54.00000000000003)"><path d="M0.15 1.13 C-0.04 19.27, -0.05 91, -0.32 108.9 M-1.22 0.68 C-1.64 18.49, -1.56 89.63, -1.19 107.25" stroke="#3fb950" stroke-width="2" fill="none"></path></g><g transform="translate(966.4865626574733 211) rotate(0 -0.22526652196108898 54.00000000000003)"><path d="M-9.82 79.37 C-6.3 87.93, -3.06 100.72, 0.73 105.4 M-11.88 78.7 C-9.27 85.76, -6.5 94.03, -1.78 107.79" stroke="#3fb950" stroke-width="2" fill="none"></path></g><g transform="translate(966.4865626574733 211) rotate(0 -0.22526652196108898 54.00000000000003)"><path d="M10.7 79.19 C6.61 87.84, 2.23 100.7, 0.73 105.4 M8.64 78.51 C5.94 85.58, 3.41 93.9, -1.78 107.79" stroke="#3fb950" stroke-width="2" fill="none"></path></g></g><g transform="translate(943 227) rotate(0 26.82398223876953 8.75)"><text x="0" y="NaN" font-family="Virgil, Segoe UI Emoji" font-size="14px" fill="#3fb950" text-anchor="start" style="white-space: pre;" direction="ltr">W 100%</text></g><g stroke-linecap="round"><g transform="translate(1122.7729291665378 210.99999999999997) rotate(0 -1.3082822367809968 54.000000000000014)"><path d="M-0.03 0.58 C-0.5 18.3, -2.27 88.82, -2.61 106.8 M-1.5 -0.17 C-2.16 17.62, -3.39 89.95, -3.55 107.71" stroke="#3fb950" stroke-width="2" fill="none"></path></g><g transform="translate(1122.7729291665378 210.99999999999997) rotate(0 -1.3082822367809968 54.000000000000014)"><path d="M-12.45 79.4 C-12.14 89.45, -6.16 99.34, -4.46 109.6 M-12.49 78.57 C-9.9 88.57, -8.05 97.48, -3.84 108.18" stroke="#3fb950" stroke-width="2" fill="none"></path></g><g transform="translate(1122.7729291665378 210.99999999999997) rotate(0 -1.3082822367809968 54.000000000000014)"><path d="M8.07 79.69 C1.8 89.64, 1.2 99.44, -4.46 109.6 M8.03 78.86 C4.2 88.83, -0.37 97.65, -3.84 108.18" stroke="#3fb950" stroke-width="2" fill="none"></path></g></g><g transform="translate(1067 227) rotate(0 26.82398223876953 8.75)"><text x="0" y="NaN" font-family="Virgil, Segoe UI Emoji" font-size="14px" fill="#3fb950" text-anchor="start" style="white-space: pre;" direction="ltr">W 100%</text></g><g stroke-linecap="round"><g transform="translate(1084.2466946413506 319.11001935291824) rotate(0 -5.984153235318786 -54.05500967645912)"><path d="M-0.93 -0.83 C-2.73 -19.1, -10.04 -91.28, -11.88 -109.14 M0.78 1.35 C-1.07 -16.86, -10.53 -90.16, -12.78 -108.15" stroke="#58a6ff" stroke-width="2" fill="none"></path></g><g transform="translate(1084.2466946413506 319.11001935291824) rotate(0 -5.984153235318786 -54.05500967645912)"><path d="M-0.43 -81.33 C-3.75 -87.12, -4.67 -92.81, -11.99 -107.11 M0.2 -81.64 C-3.51 -90.75, -9.07 -98.94, -13.26 -108.09" stroke="#58a6ff" stroke-width="2" fill="none"></path></g><g transform="translate(1084.2466946413506 319.11001935291824) rotate(0 -5.984153235318786 -54.05500967645912)"><path d="M-20.79 -78.74 C-19.88 -84.92, -16.56 -91.15, -11.99 -107.11 M-20.16 -79.06 C-16.82 -89.13, -15.31 -98.22, -13.26 -108.09" stroke="#58a6ff" stroke-width="2" fill="none"></path></g></g><g transform="translate(1074 289) rotate(0 26.347976684570312 8.75)"><text x="0" y="NaN" font-family="Virgil, Segoe UI Emoji" font-size="14px" fill="#58a6ff" text-anchor="start" style="white-space: pre;" direction="ltr">R 100%</text></g><g stroke-linecap="round"><g transform="translate(1027 370.009) rotate(0 16 0)"><path d="M0.93 1.11 C6.09 1.11, 26.81 -0.58, 31.85 -0.77" stroke="#f0883e" stroke-width="2.5" fill="none" stroke-dasharray="8 10"></path></g><g transform="translate(1027 370.009) rotate(0 16 0)"><path d="M18.67 5.42 C21.68 2.03, 28.17 0.71, 32.77 -2.33" stroke="#f0883e" stroke-width="2.5" fill="none"></path></g><g transform="translate(1027 370.009) rotate(0 16 0)"><path d="M18 -5.5 C21.19 -4.81, 27.94 -2.04, 32.77 -2.33" stroke="#f0883e" stroke-width="2.5" fill="none"></path></g></g><g transform="translate(1052 427) rotate(0 13.441993713378906 8.125)"><text x="0" y="NaN" font-family="Virgil, Segoe UI Emoji" font-size="13px" fill="#f0883e" text-anchor="start" style="white-space: pre;" direction="ltr">CDC</text></g><g transform="translate(914.9526653109679 496.21104159269487) rotate(0 103.6138916015625 17.5)"><text x="0" y="NaN" font-family="Virgil, Segoe UI Emoji" font-size="14px" fill="#c9d1d9" text-anchor="start" style="white-space: pre;" direction="ltr">Reads served from new store.</text><text x="0" y="NaN" font-family="Virgil, Segoe UI Emoji" font-size="14px" fill="#c9d1d9" text-anchor="start" style="white-space: pre;" direction="ltr">Writes still dual; CDC running.</text></g><g stroke-opacity="0.7" fill-opacity="0.7" stroke-linecap="round" transform="translate(1194 95) rotate(0 145 232.4793865642361)"><path d="M1.31 -0.99 L290.7 -1.11 L290.41 466.64 L-0.59 463.47" stroke="none" stroke-width="0" fill="#181825"></path><path d="M0.26 1.33 C86.02 3.29, 174.16 2.12, 290.25 -0.72 M289.82 0.37 C288.69 153.41, 288.9 308.2, 289.15 464.36 M290.34 465.2 C224.27 465.85, 157.71 464.86, 0.86 464.35 M-0.87 464.08 C0.39 372.48, 0.74 278.81, -0.59 -0.18" stroke="#45475a" stroke-width="2.5" fill="none" stroke-dasharray="8 10"></path></g><g transform="translate(1210 103) rotate(0 29.978988647460938 11.25)"><text x="0" y="NaN" font-family="Virgil, Segoe UI Emoji" font-size="18px" fill="#e6edf3" text-anchor="start" style="white-space: pre;" direction="ltr">Step 5</text></g><g transform="translate(1210 127) rotate(0 66.9599380493164 12.5)"><text x="0" y="NaN" font-family="Virgil, Segoe UI Emoji" font-size="20px" fill="#ff8c42" text-anchor="start" style="white-space: pre;" direction="ltr">Write cutover</text></g><g stroke-linecap="round" transform="translate(1234 155) rotate(0 105 25)"><path d="M-0.47 1.14 L211 -0.3 L209.87 50.51 L-0.49 51.45" stroke="none" stroke-width="0" fill="#1f4d2b"></path><path d="M-0.97 1.06 C46.81 -2.77, 92.97 -0.83, 209.8 -0.43 M-0.58 -0.06 C66.89 -1.66, 134.87 -0.98, 209.17 0.62 M208.28 -1.17 C212.1 14.86, 210.75 30.8, 211.4 50.45 M209.49 0.74 C210.33 17.74, 208.79 35.45, 210.29 50.22 M211.12 48.6 C162.57 51.1, 110.72 51.36, 0.49 50.65 M210.73 50.55 C147.73 51.59, 85.21 50.13, 0.36 50.82 M-1.7 51.51 C-1.54 35.91, 0.23 17.05, 0.77 0.69 M-0.27 49.6 C0.43 38.32, -0.2 27.25, -0.86 -0.17" stroke="#3fb950" stroke-width="2" fill="none"></path></g><g transform="translate(1298.2160339355469 170) rotate(0 40.783966064453125 10)"><text x="40.783966064453125" y="NaN" font-family="Virgil, Segoe UI Emoji" font-size="16px" fill="#ffffff" text-anchor="middle" style="white-space: pre;" direction="ltr">Application</text></g><g stroke-opacity="0.55" fill-opacity="0.55" stroke-linecap="round" transform="translate(1207 325) rotate(0 55 45)"><path d="M1.9 1.86 C26.05 2.27, 51.46 -0.11, 109.93 -1.61 M108.77 1.59 C111.6 19.64, 109.05 40.3, 108.37 89.96 M109.85 89.16 C75.62 88.02, 42.17 88.05, -0.73 89.19 M0.58 91.17 C-1.07 57.28, -1.36 26.5, -1.44 1.7" stroke="#8b949e" stroke-width="2.5" fill="none" stroke-dasharray="8 10"></path></g><g transform="translate(1223.721534729004 353.75) rotate(0 38.278465270996094 16.25)"><text x="38.278465270996094" y="NaN" font-family="Virgil, Segoe UI Emoji" font-size="13px" fill="#8b949e" text-anchor="middle" style="white-space: pre;" direction="ltr">Monolith DB</text><text x="38.278465270996094" y="NaN" font-family="Virgil, Segoe UI Emoji" font-size="13px" fill="#8b949e" text-anchor="middle" style="white-space: pre;" direction="ltr">(retiring)</text></g><g stroke-linecap="round" transform="translate(1346 325) rotate(0 55 45)"><path d="M-0.33 1.97 L110.56 0.11 L108.95 89.56 L1.33 90.49" stroke="none" stroke-width="0" fill="#0d2c5a"></path><path d="M-1.28 1.49 C33.03 0.03, 67.93 -1.31, 108.7 -0.32 M0.44 0.77 C41.22 -0.44, 80.42 1.19, 109.53 0.17 M111.03 1.93 C108.77 19.98, 108.06 43.85, 109.21 91.24 M110.32 0.63 C109.31 20.09, 109.23 42.89, 110.7 90.32 M111.08 91.37 C66.99 91.34, 24.5 91.73, -1.98 90.21 M109.52 89.57 C72.21 90.98, 35.1 90.96, 0.57 90.34 M-1.3 91.47 C1.39 56.15, -1.43 19.22, 0.94 -0.76 M-0.26 89.16 C-0.11 60.48, -0.97 32.04, -0.49 0.14" stroke="#58a6ff" stroke-width="2" fill="none"></path></g><g transform="translate(1351.060546875 361.875) rotate(0 49.939453125 8.125)"><text x="49.939453125" y="NaN" font-family="Virgil, Segoe UI Emoji" font-size="13px" fill="#ffffff" text-anchor="middle" style="white-space: pre;" direction="ltr">New Service DB</text></g><g stroke-linecap="round"><g transform="translate(1401.0005200314902 211) rotate(0 0.004964195609886701 54)"><path d="M-0.6 -0.81 C-0.57 17.48, -0.18 90.81, 0.09 109.08 M1.29 1.39 C1.18 19.41, -0.74 89.93, -0.81 107.52" stroke="#3fb950" stroke-width="2" fill="none"></path></g><g transform="translate(1401.0005200314902 211) rotate(0 0.004964195609886701 54)"><path d="M-11.93 79.3 C-6.08 89.24, -3.63 96.86, -1.06 106.49 M-10.09 78.37 C-6.4 90.7, -3.11 101.93, -1.75 106.75" stroke="#3fb950" stroke-width="2" fill="none"></path></g><g transform="translate(1401.0005200314902 211) rotate(0 0.004964195609886701 54)"><path d="M8.58 79.65 C8.45 89.39, 4.9 96.9, -1.06 106.49 M10.43 78.72 C6.24 90.86, 1.65 101.96, -1.75 106.75" stroke="#3fb950" stroke-width="2" fill="none"></path></g></g><g transform="translate(1363 227) rotate(0 26.82398223876953 8.75)"><text x="0" y="NaN" font-family="Virgil, Segoe UI Emoji" font-size="14px" fill="#3fb950" text-anchor="start" style="white-space: pre;" direction="ltr">W 100%</text></g><g stroke-linecap="round"><g transform="translate(1366.4517424772794 319.042652715759) rotate(0 -3.237764355401282 -54.0213263578795)"><path d="M-0.85 0.65 C-1.82 -17.02, -5.98 -88.78, -7.03 -107.01 M0.91 -0.05 C-0.16 -17.96, -6.75 -90.64, -8.27 -108.59" stroke="#58a6ff" stroke-width="2" fill="none"></path></g><g transform="translate(1366.4517424772794 319.042652715759) rotate(0 -3.237764355401282 -54.0213263578795)"><path d="M5.49 -82.33 C3.81 -88.02, -1.59 -90.92, -9.95 -106.9 M4.27 -82.12 C-0.85 -91.88, -5.26 -101.33, -8.9 -108.27" stroke="#58a6ff" stroke-width="2" fill="none"></path></g><g transform="translate(1366.4517424772794 319.042652715759) rotate(0 -3.237764355401282 -54.0213263578795)"><path d="M-14.95 -80.54 C-12.52 -86.44, -13.82 -89.71, -9.95 -106.9 M-16.17 -80.33 C-13.76 -90.86, -10.62 -100.97, -8.9 -108.27" stroke="#58a6ff" stroke-width="2" fill="none"></path></g></g><g transform="translate(1370 289) rotate(0 26.347976684570312 8.75)"><text x="0" y="NaN" font-family="Virgil, Segoe UI Emoji" font-size="14px" fill="#58a6ff" text-anchor="start" style="white-space: pre;" direction="ltr">R 100%</text></g><g stroke-linecap="round"><g transform="translate(1340 370.009) rotate(0 -8.5 0)"><path d="M0.66 -1.14 C-2.22 -0.91, -13.62 0.88, -16.53 0.91" stroke="#f0883e" stroke-width="2.5" fill="none" stroke-dasharray="8 10"></path></g><g transform="translate(1340 370.009) rotate(0 -8.5 0)"><path d="M-9.66 -2.39 C-10.98 -1.21, -15.07 -0.1, -16.73 0.91" stroke="#f0883e" stroke-width="2.5" fill="none"></path></g><g transform="translate(1340 370.009) rotate(0 -8.5 0)"><path d="M-9.12 3.4 C-10.61 2.49, -14.9 1.52, -16.73 0.91" stroke="#f0883e" stroke-width="2.5" fill="none"></path></g></g><g transform="translate(1338 427) rotate(0 33.74247741699219 13.75)"><text x="0" y="NaN" font-family="Virgil, Segoe UI Emoji" font-size="11px" fill="#f0883e" text-anchor="start" style="white-space: pre;" direction="ltr">CDC reverse</text><text x="0" y="NaN" font-family="Virgil, Segoe UI Emoji" font-size="11px" fill="#f0883e" text-anchor="start" style="white-space: pre;" direction="ltr">(optional)</text></g><g transform="translate(1206.0877678222387 499.14959378351136) rotate(0 106.86188507080078 17.5)"><text x="0" y="NaN" font-family="Virgil, Segoe UI Emoji" font-size="14px" fill="#c9d1d9" text-anchor="start" style="white-space: pre;" direction="ltr">New store is source of truth.</text><text x="0" y="NaN" font-family="Virgil, Segoe UI Emoji" font-size="14px" fill="#c9d1d9" text-anchor="start" style="white-space: pre;" direction="ltr">CDC reverses; monolith retired.</text></g><g stroke-linecap="round"><g transform="translate(40 580) rotate(0 677 0)"><path d="M0.35 -0.87 C226.01 -1.06, 1127.51 -1.09, 1353.29 -0.85 M-0.93 1.29 C225.18 1.2, 1129.68 0.71, 1355.62 0.24" stroke="#c9d1d9" stroke-width="2" fill="none"></path></g><g transform="translate(40 580) rotate(0 677 0)"><path d="M1326 9.34 C1332.93 9.58, 1342.18 3.74, 1355.82 1.86 M1327.49 11.3 C1335.77 7.5, 1344.35 4.88, 1356.35 0.63" stroke="#c9d1d9" stroke-width="2" fill="none"></path></g><g transform="translate(40 580) rotate(0 677 0)"><path d="M1325.98 -11.18 C1332.97 -5.9, 1342.22 -6.68, 1355.82 1.86 M1327.46 -9.22 C1335.75 -6.59, 1344.34 -2.78, 1356.35 0.63" stroke="#c9d1d9" stroke-width="2" fill="none"></path></g></g><g transform="translate(567 588) rotate(0 272.69171142578125 8.75)"><text x="0" y="NaN" font-family="Virgil, Segoe UI Emoji" font-size="14px" fill="#8b949e" text-anchor="start" style="white-space: pre;" direction="ltr">weeks of soak per step, no step is irreversible until the previous is stable  →</text></g><g stroke-linecap="round" transform="translate(10 660) rotate(0 8 2)"><path d="M-0.45 -0.84 L16.17 -0.73 L15.13 4.23 L1.64 4.16" stroke="none" stroke-width="0" fill="#3fb950"></path><path d="M0.24 1.43 C4.91 0.98, 7.45 -0.61, 15.2 -0.49 M-0.24 0.28 C3.57 0.24, 6.79 0.51, 15.21 -0.01 M16.25 -0.28 C16.18 1.01, 15.94 2.38, 15.9 3.65 M16.02 0.14 C16.13 0.9, 16.03 2.13, 15.8 3.97 M16.14 5.07 C11.43 4.6, 5.61 5.51, -1.34 3.44 M16.14 3.69 C12.05 4.26, 8.47 4.31, 0.39 3.81 M-0.1 4.34 C0.07 2.95, -0.1 1.65, -0.18 0.16 M0.08 3.84 C-0.06 3.07, -0.1 2.13, 0.13 -0.19" stroke="#3fb950" stroke-width="1" fill="none"></path></g><g transform="translate(32 652) rotate(0 28.398468017578125 8.125)"><text x="0" y="NaN" font-family="Virgil, Segoe UI Emoji" font-size="13px" fill="#3fb950" text-anchor="start" style="white-space: pre;" direction="ltr">write (W)</text></g><g stroke-linecap="round" transform="translate(130 660) rotate(0 8 2)"><path d="M1.22 0.2 L15.36 0.8 L17.18 4.43 L-1.25 5.38" stroke="none" stroke-width="0" fill="#58a6ff"></path><path d="M-0.45 0.19 C3.58 -0.43, 8.98 -0.7, 15.29 -0.85 M-0.39 -0.31 C3.41 0.44, 7.34 0.4, 15.29 -0.32 M15.67 0.01 C16.16 1.45, 15.61 2.77, 16.27 3.86 M16.1 0.07 C15.8 0.99, 16.11 2.31, 16.13 4.15 M16.7 5.16 C9.89 3.41, 6.08 2.78, 1.34 4.28 M15.83 3.46 C11.68 4.53, 5.65 3.25, -0.75 3.56 M-0.04 4.29 C0.27 2.94, -0.18 1.14, -0.22 0.2 M0.13 3.87 C0.03 2.87, -0.2 1.73, 0.06 -0.17" stroke="#58a6ff" stroke-width="1" fill="none"></path></g><g transform="translate(152 652) rotate(0 26.93597412109375 8.125)"><text x="0" y="NaN" font-family="Virgil, Segoe UI Emoji" font-size="13px" fill="#58a6ff" text-anchor="start" style="white-space: pre;" direction="ltr">read (R)</text></g><g stroke-linecap="round" transform="translate(250 660) rotate(0 8 2)"><path d="M0.86 0.75 L17.16 0.55 L16.67 4.72 L0.03 4.68" stroke="none" stroke-width="0" fill="#f0883e"></path><path d="M1.12 1.28 C5.41 0.53, 10.17 0.7, 15.27 1.35 M-0.35 -0.66 C5.41 -0.63, 10.33 -0.76, 16.65 0.44 M15.81 -0.38 C15.73 1.61, 15.74 3.27, 16.16 4.16 M16.08 0.12 C16.04 0.87, 15.85 1.95, 16.07 4.05 M14.69 4.46 C10.23 4.32, 5.09 3.02, 0.23 5.42 M15.78 3.46 C11.38 4.41, 7.21 4.18, -0.05 4.06 M0.27 4.08 C-0.01 2.86, 0.4 1.01, -0.34 0.23 M-0.14 3.95 C0.21 3.08, 0.06 1.77, -0.19 -0.15" stroke="#f0883e" stroke-width="1" fill="none"></path></g><g transform="translate(272 652) rotate(0 65.7474365234375 8.125)"><text x="0" y="NaN" font-family="Virgil, Segoe UI Emoji" font-size="13px" fill="#f0883e" text-anchor="start" style="white-space: pre;" direction="ltr">CDC (async, dashed)</text></g><g transform="translate(510 652) rotate(0 380.505615234375 8.75)"><text x="0" y="NaN" font-family="Virgil, Segoe UI Emoji" font-size="14px" fill="#f0b070" text-anchor="start" style="white-space: pre;" direction="ltr">Anchor: read traffic flips 100/0 → 0/100; write traffic flips 100/0 → 0/100 — but the steps never overlap.</text></g></svg>