<svg version="1.1" xmlns="http://www.w3.org/2000/svg" viewBox="0 0 1535.1300048828125 904.8494404220603" width="1535.1300048828125" height="904.8494404220603">
  <!-- svg-source:excalidraw -->
  
  <defs>
    <style>
      @font-face {
        font-family: "Virgil";
        src: url("https://excalidraw.com/Virgil.woff2");
      }
      @font-face {
        font-family: "Cascadia";
        src: url("https://excalidraw.com/Cascadia.woff2");
      }
    </style>
  </defs>
  <rect x="0" y="0" width="1535.1300048828125" height="904.8494404220603" fill="#0d1117"></rect><g transform="translate(25 10) rotate(0 524.8347778320312 18.75)"><text x="0" y="NaN" font-family="Virgil, Segoe UI Emoji" font-size="30px" fill="#ff8c42" text-anchor="start" style="white-space: pre;" direction="ltr">BFF + GraphQL hybrid  —  one REST call out, one federated query in</text></g><g transform="translate(25 52) rotate(0 750.0650024414062 10.625)"><text x="0" y="NaN" font-family="Virgil, Segoe UI Emoji" font-size="17px" fill="#c9d1d9" text-anchor="start" style="white-space: pre;" direction="ltr">Mobile client always speaks REST.  The BFF either orchestrates 12 service calls by hand (top) or delegates orchestration to an internal GraphQL federation gateway (bottom).</text></g><g stroke-linecap="round" transform="translate(10 100) rotate(0 750 195)"><path d="M-0.95 -1.56 L1500.23 -0.65 L1501.56 391.31 L-1.04 391.39" stroke="none" stroke-width="0" fill="#161b22"></path><path d="M-0.77 0.21 C597.84 -0.24, 1197.12 -0.36, 1499.46 0.8 M-0.34 0.36 C316.05 -4.48, 631.78 -4.37, 1500.07 -0.13 M1500.78 0.75 C1500.42 119.07, 1500.71 239.34, 1501.02 390.59 M1500.23 -0.24 C1499.47 116.71, 1499.35 233.93, 1499.81 389.66 M1499.51 389.24 C1026.98 391.08, 554.86 391.58, 0.25 389.61 M1499.76 390.19 C1159.21 390.88, 819.15 391.62, -0.33 390.17 M0.91 389.14 C0.44 296, 0.58 201.48, 0.87 -1.09 M-0.2 390.41 C1.08 272.71, 1.1 155.32, 0.06 -0.42" stroke="#30363d" stroke-width="2" fill="none"></path></g><g transform="translate(30 114) rotate(0 365.56781005859375 13.125)"><text x="0" y="NaN" font-family="Virgil, Segoe UI Emoji" font-size="21px" fill="#f0b070" text-anchor="start" style="white-space: pre;" direction="ltr">(a)  Hand-coded fan-out  —  BFF maintains 12 service call signatures</text></g><g transform="translate(30 146) rotate(0 444.0521240234375 9.375)"><text x="0" y="NaN" font-family="Virgil, Segoe UI Emoji" font-size="15px" fill="#8b949e" text-anchor="start" style="white-space: pre;" direction="ltr">BFF speaks gRPC/REST to each service.  N call signatures to maintain, N+1 risks, per-call retries, manual error merge.</text></g><g stroke-linecap="round" transform="translate(55 265) rotate(0 65 35)"><path d="M1.09 1.3 L131.64 -1.16 L131.8 69.17 L-0.39 69.59" stroke="none" stroke-width="0" fill="#1f4d2b"></path><path d="M-1.42 0.22 C30.6 -2.19, 63.83 -2.1, 129.32 -1 M-0.34 -0.26 C51.45 -0.45, 102.54 0.57, 130.6 -0.44 M129.97 1.75 C132.42 26.33, 129.04 50.93, 129.93 70.7 M130.89 -0.59 C129.85 25.54, 130.43 50.14, 129.35 70.13 M131.75 70.67 C84.81 70.61, 38.34 70.89, 1 68.9 M129.46 70.82 C90.71 70.91, 52.76 70.77, 0.07 69.14 M1.05 69.63 C1.13 49.22, 1.76 30.66, -1.64 1.64 M-0.39 70.21 C0.15 45.02, -0.47 17.32, 0.91 -0.89" stroke="#3fb950" stroke-width="2" fill="none"></path></g><g transform="translate(94.28701782226562 277.5) rotate(0 25.712982177734375 22.5)"><text x="25.712982177734375" y="NaN" font-family="Virgil, Segoe UI Emoji" font-size="18px" fill="#ffffff" text-anchor="middle" style="white-space: pre;" direction="ltr">Mobile</text><text x="25.712982177734375" y="NaN" font-family="Virgil, Segoe UI Emoji" font-size="18px" fill="#ffffff" text-anchor="middle" style="white-space: pre;" direction="ltr">Client</text></g><g stroke-linecap="round" transform="translate(375.4597377774092 234.39776168824113) rotate(0 119.99999999999997 65)"><path d="M0.75 -1.02 L241.08 1.34 L241.17 129.02 L1.64 129.6" stroke="none" stroke-width="0" fill="#3a1d6e"></path><path d="M-1.48 1.59 C81.03 1.72, 165.49 -0.56, 239.09 -0.04 M-0.15 0.58 C51.35 1.78, 104.41 1.61, 240.55 0.18 M239.63 1.11 C239.02 31.12, 237.57 61.58, 241.67 131.87 M240.25 0.63 C239.21 37.73, 240.51 73.48, 240.25 130.74 M240.19 130.71 C161.02 129.9, 79.22 129.62, -0.35 128.41 M240.1 129.78 C148.46 130.12, 57.31 130.16, 0.11 130.34 M1.8 130.39 C0.96 86.91, -2.19 42.92, 0.96 -1.56 M0.59 129.43 C0.38 95.6, 0.81 58.48, 0.97 0.8" stroke="#a371f7" stroke-width="2" fill="none"></path></g><g transform="translate(401.36480522125686 254.39776168824113) rotate(0 94.09493255615232 45)"><text x="94.09493255615234" y="NaN" font-family="Virgil, Segoe UI Emoji" font-size="18px" fill="#ffffff" text-anchor="middle" style="white-space: pre;" direction="ltr">Mobile BFF</text><text x="94.09493255615234" y="NaN" font-family="Virgil, Segoe UI Emoji" font-size="18px" fill="#ffffff" text-anchor="middle" style="white-space: pre;" direction="ltr"> </text><text x="94.09493255615234" y="NaN" font-family="Virgil, Segoe UI Emoji" font-size="18px" fill="#ffffff" text-anchor="middle" style="white-space: pre;" direction="ltr">6 hand-coded calls</text><text x="94.09493255615234" y="NaN" font-family="Virgil, Segoe UI Emoji" font-size="18px" fill="#ffffff" text-anchor="middle" style="white-space: pre;" direction="ltr">retries + error merge</text></g><g stroke-linecap="round"><g transform="translate(191.00000000000003 299.89427438711374) rotate(0 89.22986888870462 -0.14169484072075988)"><path d="M-0.18 -0.03 C29.33 -0.09, 148.36 -0.02, 178.01 -0.02 M-1.73 -1.09 C27.49 -1.56, 146.49 -2.42, 176.82 -2.01" stroke="#58a6ff" stroke-width="2" fill="none"></path></g><g transform="translate(191.00000000000003 299.89427438711374) rotate(0 89.22986888870462 -0.14169484072075988)"><path d="M148.57 7.46 C159.82 3.15, 170.52 0.23, 178.47 -0.03 M148.19 8.77 C159.3 3.71, 169.56 1.19, 177.77 -1.14" stroke="#58a6ff" stroke-width="2" fill="none"></path></g><g transform="translate(191.00000000000003 299.89427438711374) rotate(0 89.22986888870462 -0.14169484072075988)"><path d="M148.6 -13.07 C159.9 -9.52, 170.59 -4.58, 178.47 -0.03 M148.22 -11.75 C159.4 -9.08, 169.65 -3.87, 177.77 -1.14" stroke="#58a6ff" stroke-width="2" fill="none"></path></g></g><g transform="translate(190 265) rotate(0 70.20995330810547 8.75)"><text x="0" y="NaN" font-family="Virgil, Segoe UI Emoji" font-size="14px" fill="#58a6ff" text-anchor="start" style="white-space: pre;" direction="ltr">1 REST  GET /home</text></g><g stroke-linecap="round" transform="translate(1225 145) rotate(0 100 22)"><path d="M-0.63 -1.96 L201.15 1.51 L201 43.22 L-0.34 44.31" stroke="none" stroke-width="0" fill="#0d2c5a"></path><path d="M0.49 -0.89 C42.5 -2.74, 81.76 -0.77, 199.24 -0.1 M-0.71 -0.31 C43.07 0.2, 87.96 0.09, 200.09 0.12 M201.39 -1.12 C198.4 8.88, 201.88 21.76, 200.87 45.31 M199.31 0.47 C199.69 16.34, 200.15 32.57, 199.32 43.79 M198.75 42.58 C132.07 44.13, 66.6 46.91, 1.27 43.79 M200.11 43.4 C123.56 44.74, 46.71 44.48, 0.29 44.33 M-0.41 43.05 C0.45 33.37, 1.25 21.96, -0.66 0.6 M-0.48 43.43 C0.81 33.72, 0.06 23.54, 0.76 -0.76" stroke="#58a6ff" stroke-width="2" fill="none"></path></g><g transform="translate(1290.4305267333984 156.375) rotate(0 34.56947326660156 10.625)"><text x="34.56947326660156" y="NaN" font-family="Virgil, Segoe UI Emoji" font-size="17px" fill="#ffffff" text-anchor="middle" style="white-space: pre;" direction="ltr">user-svc</text></g><g stroke-linecap="round" transform="translate(1225 200) rotate(0 100 22)"><path d="M0.53 0.07 L201.47 -1.75 L200.83 42.68 L0.2 42.57" stroke="none" stroke-width="0" fill="#0d2c5a"></path><path d="M1.55 1.12 C68.73 0.31, 138.56 0.04, 198.79 1.3 M0.02 -0.21 C50.36 1.86, 99.33 1.35, 200.19 -0.09 M201.04 -1.91 C199.44 11.92, 200.95 26.06, 200.28 42.99 M200.76 -0.75 C198.93 11.56, 199.09 22.84, 200.19 44.75 M200.9 44.81 C136.89 45.91, 73.81 44.69, -0.01 42.66 M199.79 43.19 C159.67 45.94, 117.83 44.35, -0.71 44.12 M0.97 43.96 C0.15 27.05, 0.33 7.84, -1.79 0.46 M-0.61 44.31 C0.11 35.24, 0.24 25.43, 0.98 0.08" stroke="#58a6ff" stroke-width="2" fill="none"></path></g><g transform="translate(1276.5670318603516 211.375) rotate(0 48.43296813964844 10.625)"><text x="48.43296813964844" y="NaN" font-family="Virgil, Segoe UI Emoji" font-size="17px" fill="#ffffff" text-anchor="middle" style="white-space: pre;" direction="ltr">catalog-svc</text></g><g stroke-linecap="round" transform="translate(1225 255) rotate(0 100 22)"><path d="M-1.56 -1.23 L198.58 -1.45 L200.3 42.56 L-1.88 45.87" stroke="none" stroke-width="0" fill="#0d2c5a"></path><path d="M1.32 -1.79 C62.13 0.89, 123.97 -1.19, 201.1 0.21 M-0.34 0.48 C53.04 0.48, 106.27 0.11, 200.82 -0.38 M198.8 -0.21 C201.93 13.67, 201.14 30.07, 200.74 45.63 M199.57 0.31 C200.09 12.6, 200.88 24.02, 199.81 43.16 M201.46 45.79 C154.4 43.72, 107.72 43.96, 1.14 44.03 M200.5 44.69 C136.1 45.4, 70.93 44.89, 0.57 43.94 M1.77 43.04 C1.12 27.87, -1.76 13.02, 0.07 1.84 M0.43 44.13 C0.3 33.54, 0.53 22.92, -0.94 0.52" stroke="#58a6ff" stroke-width="2" fill="none"></path></g><g transform="translate(1290.9915237426758 266.375) rotate(0 34.00847625732422 10.625)"><text x="34.00847625732422" y="NaN" font-family="Virgil, Segoe UI Emoji" font-size="17px" fill="#ffffff" text-anchor="middle" style="white-space: pre;" direction="ltr">recs-svc</text></g><g stroke-linecap="round" transform="translate(1225 310) rotate(0 100 22)"><path d="M0.38 -0.71 L199.31 -1.67 L199.17 44.13 L1.51 42.06" stroke="none" stroke-width="0" fill="#0d2c5a"></path><path d="M-1.17 1.45 C57.51 -0.18, 112.76 -1.07, 201.19 1.02 M-0.86 0.36 C45.42 0.64, 89.03 -0.17, 199.98 0.06 M200.65 0.39 C200.6 12.72, 199.37 25.05, 199.36 45.57 M199.94 0.06 C199.67 9.27, 199.32 19.52, 200.63 43.4 M200.21 42.84 C145.44 45.15, 88.97 45.51, -0.19 45.05 M199.43 44.29 C121.15 44.18, 42.42 45.1, -0.63 43.89 M-1.31 43.33 C2.1 36.17, -0.33 24.82, -1.03 1.51 M-0.38 43.3 C-0.34 32.32, 0.15 21.01, -0.73 0.86" stroke="#58a6ff" stroke-width="2" fill="none"></path></g><g transform="translate(1278.58154296875 321.375) rotate(0 46.41845703125 10.625)"><text x="46.41845703125" y="NaN" font-family="Virgil, Segoe UI Emoji" font-size="17px" fill="#ffffff" text-anchor="middle" style="white-space: pre;" direction="ltr">playlist-svc</text></g><g stroke-linecap="round" transform="translate(1225 365) rotate(0 100 22)"><path d="M-1.38 0.7 L200.79 -0.55 L200.08 42.38 L-0.14 45.62" stroke="none" stroke-width="0" fill="#0d2c5a"></path><path d="M-0.83 -1.03 C50.82 0.08, 99.84 -1.71, 198.92 -1.14 M-0.74 -0.78 C56.48 0.57, 111.22 0.64, 199.82 -0.31 M200.44 0.23 C199.75 12.74, 199.92 24.93, 198.84 43.13 M199.6 -0.72 C199.37 16.55, 199.27 30.92, 199.63 43.67 M200.52 44.22 C135.7 45.03, 72.85 42.19, 0.52 43.58 M200.42 44.02 C150.32 45.18, 101.6 44.96, -0.82 44.84 M-1.79 42.7 C-1.09 31.99, 1.26 18.74, -1.54 1.1 M-0.96 44.08 C0.62 29.61, -0.75 17.07, 0.75 -0.71" stroke="#58a6ff" stroke-width="2" fill="none"></path></g><g transform="translate(1287.4385375976562 376.375) rotate(0 37.56146240234375 10.625)"><text x="37.56146240234375" y="NaN" font-family="Virgil, Segoe UI Emoji" font-size="17px" fill="#ffffff" text-anchor="middle" style="white-space: pre;" direction="ltr">billing-svc</text></g><g stroke-linecap="round" transform="translate(1225 420) rotate(0 100 22)"><path d="M0.34 -0.03 L199.25 -1.51 L200.9 45.79 L1.23 42.22" stroke="none" stroke-width="0" fill="#0d2c5a"></path><path d="M-1.39 1.12 C65.54 -0.71, 129.99 -0.24, 199.5 1.75 M0.89 0.24 C47.32 -1.69, 94.42 -1.93, 199.42 0.27 M201.64 1.48 C200.92 15.03, 200.01 26.91, 198.7 44.54 M199.68 0.97 C200.26 14.67, 200.61 27.02, 200.9 43.05 M200.21 44.94 C148.56 45.55, 99.83 45.12, -0.8 43.15 M200.76 43.79 C157.15 44.4, 112.09 44.26, 0.72 44.64 M-1.18 43.62 C0.73 25.83, 1.13 10.29, -0.91 -0.89 M0.99 43.19 C-0.41 28.41, -0.62 14.57, -0.32 0.57" stroke="#58a6ff" stroke-width="2" fill="none"></path></g><g transform="translate(1284.8205337524414 431.375) rotate(0 40.179466247558594 10.625)"><text x="40.179466247558594" y="NaN" font-family="Virgil, Segoe UI Emoji" font-size="17px" fill="#ffffff" text-anchor="middle" style="white-space: pre;" direction="ltr">social-svc</text></g><g stroke-linecap="round"><g transform="translate(621.4597377774091 294.2680427454971) rotate(0 298.7701311112954 -61.6787933463787)"><path d="M0.59 0.41 C99.98 -19.81, 497.41 -101.94, 596.73 -122.48 M-0.56 -0.42 C99.18 -20.87, 499.11 -103.4, 599.01 -124.15" stroke="#58a6ff" stroke-width="2" fill="none"></path></g><g transform="translate(621.4597377774091 294.2680427454971) rotate(0 298.7701311112954 -61.6787933463787)"><path d="M574.17 -109.74 C583.54 -115.49, 591.38 -118.31, 597.56 -124.67 M572.74 -109.35 C583.12 -114.72, 593.62 -120.75, 599.51 -123.33" stroke="#58a6ff" stroke-width="2" fill="none"></path></g><g transform="translate(621.4597377774091 294.2680427454971) rotate(0 298.7701311112954 -61.6787933463787)"><path d="M570.01 -129.84 C580.57 -128.95, 589.78 -125.12, 597.56 -124.67 M568.58 -129.44 C580.58 -126.88, 592.73 -124.95, 599.51 -123.33" stroke="#58a6ff" stroke-width="2" fill="none"></path></g></g><g stroke-linecap="round"><g transform="translate(621.459737777409 296.2597821913792) rotate(0 298.7701311112955 -35.85812010223138)"><path d="M0.32 0.8 C99.87 -11.3, 499.07 -60.04, 598.43 -72.31 M-0.97 0.17 C98.4 -11.8, 497.98 -59.04, 597.94 -71.08" stroke="#58a6ff" stroke-width="2" fill="none"></path></g><g transform="translate(621.459737777409 296.2597821913792) rotate(0 298.7701311112955 -35.85812010223138)"><path d="M572.5 -56.08 C580.68 -64.72, 590.33 -66.62, 596.91 -69.59 M570.78 -57.94 C580.79 -61.78, 589.71 -67.66, 597.54 -71.03" stroke="#58a6ff" stroke-width="2" fill="none"></path></g><g transform="translate(621.459737777409 296.2597821913792) rotate(0 298.7701311112955 -35.85812010223138)"><path d="M570.07 -76.46 C579.25 -77.09, 589.86 -70.97, 596.91 -69.59 M568.35 -78.31 C579.39 -75.16, 589.14 -74.04, 597.54 -71.03" stroke="#58a6ff" stroke-width="2" fill="none"></path></g></g><g stroke-linecap="round"><g transform="translate(621.4597377774091 298.4835593193775) rotate(0 298.7701311112953 -10.333442274199086)"><path d="M0.07 -0.67 C99.44 -4.35, 497.3 -17.91, 596.94 -21.09 M-1.35 1.6 C98.35 -1.4, 499.56 -15.91, 599.34 -19.78" stroke="#58a6ff" stroke-width="2" fill="none"></path></g><g transform="translate(621.4597377774091 298.4835593193775) rotate(0 298.7701311112953 -10.333442274199086)"><path d="M570.44 -9.48 C580.84 -11.97, 593.16 -16.88, 597.41 -19.37 M571.02 -8.2 C581.4 -12.99, 589.65 -16.66, 598.79 -19.25" stroke="#58a6ff" stroke-width="2" fill="none"></path></g><g transform="translate(621.4597377774091 298.4835593193775) rotate(0 298.7701311112953 -10.333442274199086)"><path d="M569.68 -29.99 C580.54 -25.02, 593.13 -22.47, 597.41 -19.37 M570.26 -28.7 C580.89 -26.7, 589.4 -23.55, 598.79 -19.25" stroke="#58a6ff" stroke-width="2" fill="none"></path></g></g><g stroke-linecap="round"><g transform="translate(621.4597377774091 300.86753442623365) rotate(0 298.7701311112954 14.929939899020866)"><path d="M-0.02 -0.06 C99.55 4.66, 496.97 24.32, 596.45 29.37 M-1.5 -1.13 C98.52 4.26, 498.44 25.77, 598.58 30.65" stroke="#58a6ff" stroke-width="2" fill="none"></path></g><g transform="translate(621.4597377774091 300.86753442623365) rotate(0 298.7701311112954 14.929939899020866)"><path d="M569.81 37.62 C575.2 36.36, 582.87 35.04, 600.39 29.54 M570.06 39.22 C576.33 37.94, 582.73 34.82, 597.69 31.01" stroke="#58a6ff" stroke-width="2" fill="none"></path></g><g transform="translate(621.4597377774091 300.86753442623365) rotate(0 298.7701311112954 14.929939899020866)"><path d="M570.86 17.12 C576.21 20.29, 583.66 23.39, 600.39 29.54 M571.12 18.73 C577.09 22.32, 583.23 24.08, 597.69 31.01" stroke="#58a6ff" stroke-width="2" fill="none"></path></g></g><g stroke-linecap="round"><g transform="translate(621.4597377774091 303.0397963260879) rotate(0 298.77013111129554 40.52855387629191)"><path d="M0.36 -1.14 C99.94 12.17, 498.2 66.72, 597.57 80.27 M-0.92 0.87 C98.51 14.29, 496.66 68.04, 596.64 81.39" stroke="#58a6ff" stroke-width="2" fill="none"></path></g><g transform="translate(621.4597377774091 303.0397963260879) rotate(0 298.77013111129554 40.52855387629191)"><path d="M565.42 87.85 C574.91 84.14, 583.59 84.92, 595.67 81.81 M566.9 87.53 C576.56 86.27, 583.71 83.54, 596.4 80.44" stroke="#58a6ff" stroke-width="2" fill="none"></path></g><g transform="translate(621.4597377774091 303.0397963260879) rotate(0 298.77013111129554 40.52855387629191)"><path d="M568.16 67.51 C576.88 70, 584.73 76.98, 595.67 81.81 M569.63 67.19 C578.34 71.68, 584.71 74.72, 596.4 80.44" stroke="#58a6ff" stroke-width="2" fill="none"></path></g></g><g stroke-linecap="round"><g transform="translate(621.4597377774091 304.9864666217713) rotate(0 298.77013111129554 66.40064860538689)"><path d="M-0.07 1.14 C99.43 23.51, 497.11 111.09, 596.68 133.22 M-1.57 0.69 C98.34 22.79, 499.26 109.4, 598.93 131.31" stroke="#58a6ff" stroke-width="2" fill="none"></path></g><g transform="translate(621.4597377774091 304.9864666217713) rotate(0 298.77013111129554 66.40064860538689)"><path d="M571.1 133.9 C578.03 133.93, 587.29 133.67, 599.35 131.46 M568.85 134.47 C580.42 133.54, 592.36 132.95, 599.13 131.4" stroke="#58a6ff" stroke-width="2" fill="none"></path></g><g transform="translate(621.4597377774091 304.9864666217713) rotate(0 298.77013111129554 66.40064860538689)"><path d="M575.46 113.85 C581.03 119.34, 589.1 124.54, 599.35 131.46 M573.21 114.42 C582.97 121.02, 593.27 127.94, 599.13 131.4" stroke="#58a6ff" stroke-width="2" fill="none"></path></g></g><g stroke-linecap="round" transform="translate(525 395) rotate(0 160 37.5)"><path d="M-0.33 -1.62 L319.31 -0.21 L321.96 76.54 L-1.57 76.23" stroke="none" stroke-width="0" fill="#4a1219"></path><path d="M1.01 -1.25 C100.36 1.97, 201.91 1.61, 319.68 0.21 M-0.31 0.41 C120.19 -0.9, 242 -1.5, 320.15 -0.66 M318.86 1.66 C319.09 25.03, 320.15 50.01, 320.86 75.32 M319.18 0.24 C320.33 27.11, 320.77 52.79, 320.63 74.45 M319.78 76.06 C247.53 77.21, 176.32 76.46, 0.15 75.21 M319.47 74.97 C197.96 74.29, 76.7 74.33, 0.47 75.4 M-0.05 74.59 C-2.08 50.03, 1.08 28.68, 0.68 -1.6 M-0.41 74.67 C1.09 57.05, 0.86 37.48, 0.2 -0.4" stroke="#f85149" stroke-width="2" fill="none"></path></g><g transform="translate(549.8020935058594 406.25) rotate(0 135.19790649414062 26.25)"><text x="135.19790649414062" y="NaN" font-family="Virgil, Segoe UI Emoji" font-size="14px" fill="#ffffff" text-anchor="middle" style="white-space: pre;" direction="ltr">Anti-pattern risk:</text><text x="135.19790649414062" y="NaN" font-family="Virgil, Segoe UI Emoji" font-size="14px" fill="#ffffff" text-anchor="middle" style="white-space: pre;" direction="ltr">N+1 calls  •  partial-failure cascade  •</text><text x="135.19790649414062" y="NaN" font-family="Virgil, Segoe UI Emoji" font-size="14px" fill="#ffffff" text-anchor="middle" style="white-space: pre;" direction="ltr">per-service glue code</text></g><g stroke-linecap="round" transform="translate(10 504.8494404220603) rotate(0 750 195)"><path d="M1.31 -0.05 L1499.86 1.36 L1499.46 390.46 L0.3 388.97" stroke="none" stroke-width="0" fill="#161b22"></path><path d="M-0.39 0.3 C394.64 3.62, 787.69 2.93, 1500.34 0.24 M-0.08 0.24 C508.83 5.44, 1017.13 5.42, 1500.38 -0.27 M1500.33 0 C1501.54 136.86, 1499.89 275.42, 1499.39 389.16 M1500.34 -0.48 C1501.4 142.32, 1501.42 285, 1500.15 390.32 M1500.72 390.42 C1185.58 392.05, 870.64 392.18, -0.64 390.64 M1500.01 390.28 C1039.13 387.29, 578.51 387.01, -0.01 389.93 M0.27 389.26 C1.35 274.91, 2.13 160.96, -0.79 1.02 M-0.52 389.91 C1.55 264.83, 1.27 138.84, -0.3 -0.14" stroke="#30363d" stroke-width="2" fill="none"></path></g><g transform="translate(30 519) rotate(0 437.6817932128906 13.125)"><text x="0" y="NaN" font-family="Virgil, Segoe UI Emoji" font-size="21px" fill="#3fb950" text-anchor="start" style="white-space: pre;" direction="ltr">(b)  Federated GraphQL  —  BFF sends ONE query, gateway resolves all subgraphs</text></g><g transform="translate(30 551) rotate(0 484.6195068359375 9.375)"><text x="0" y="NaN" font-family="Virgil, Segoe UI Emoji" font-size="15px" fill="#8b949e" text-anchor="start" style="white-space: pre;" direction="ltr">BFF builds one GraphQL query.  Gateway plans dependency order, fans out in parallel to all subgraphs, assembles one JSON tree.</text></g><g stroke-linecap="round" transform="translate(55 670) rotate(0 65 35)"><path d="M-0.85 0.07 L128.33 -1.5 L131.34 70.33 L1.47 69.44" stroke="none" stroke-width="0" fill="#1f4d2b"></path><path d="M1.55 -1.65 C40.8 0.73, 80.05 -1.99, 128.89 1.81 M0.57 0.52 C49.03 0.33, 97.73 0.14, 129.41 0.39 M128.35 -1.72 C128.86 27.32, 128.77 54.84, 128.87 68.99 M130.89 -0.12 C131.06 20.75, 129.99 41.3, 129.97 69.54 M128.95 71.58 C93.12 71.8, 57.69 72.33, 0.88 69.24 M130.91 70.91 C89.46 70.29, 48.04 70.57, 0.48 70.43 M-1.42 68.82 C-0.28 42.1, -0.9 14.07, 1.13 0.18 M0.59 69.84 C-1.02 54.3, 0.55 37.36, 0.84 0.12" stroke="#3fb950" stroke-width="2" fill="none"></path></g><g transform="translate(94.28701782226562 682.5) rotate(0 25.712982177734375 22.5)"><text x="25.712982177734375" y="NaN" font-family="Virgil, Segoe UI Emoji" font-size="18px" fill="#ffffff" text-anchor="middle" style="white-space: pre;" direction="ltr">Mobile</text><text x="25.712982177734375" y="NaN" font-family="Virgil, Segoe UI Emoji" font-size="18px" fill="#ffffff" text-anchor="middle" style="white-space: pre;" direction="ltr">Client</text></g><g stroke-linecap="round" transform="translate(355.5128749061238 638.9871446574965) rotate(0 100 65)"><path d="M1.87 -0.1 L199.75 0.61 L198.86 128.51 L1.34 131.04" stroke="none" stroke-width="0" fill="#3a1d6e"></path><path d="M0.55 1.7 C46.26 -2.25, 95.84 -3.16, 200.85 -1.78 M0.39 -0.58 C50.97 0.76, 102.2 1.48, 200.63 0.58 M201.2 -1.76 C198.18 34.35, 200.14 69.52, 201.56 129.33 M199.84 -0.21 C200.36 40.92, 199.57 83.5, 199.08 129.92 M200.08 131.58 C144.01 133.28, 89.56 133.29, 0.06 129.9 M200.78 129.91 C125.14 128.51, 49.93 128.43, -0.5 129.65 M1.27 130.5 C-0.45 80.36, 0.93 32.47, -1.11 0.27 M0.86 129.47 C0.89 80.56, 1.24 33.48, -0.01 0.43" stroke="#a371f7" stroke-width="2" fill="none"></path></g><g transform="translate(402.1969111610066 658.9871446574965) rotate(0 53.31596374511719 45)"><text x="53.31596374511719" y="NaN" font-family="Virgil, Segoe UI Emoji" font-size="18px" fill="#ffffff" text-anchor="middle" style="white-space: pre;" direction="ltr">Mobile BFF</text><text x="53.31596374511719" y="NaN" font-family="Virgil, Segoe UI Emoji" font-size="18px" fill="#ffffff" text-anchor="middle" style="white-space: pre;" direction="ltr"> </text><text x="53.31596374511719" y="NaN" font-family="Virgil, Segoe UI Emoji" font-size="18px" fill="#ffffff" text-anchor="middle" style="white-space: pre;" direction="ltr">build + send</text><text x="53.31596374511719" y="NaN" font-family="Virgil, Segoe UI Emoji" font-size="18px" fill="#ffffff" text-anchor="middle" style="white-space: pre;" direction="ltr">1 GQL query</text></g><g stroke-linecap="round"><g transform="translate(191 704.7939764340538) rotate(0 79.25643745306189 -0.2378391667549522)"><path d="M0.48 -0.24 C26.78 -0.49, 132.39 -1.57, 158.82 -1.49 M-0.73 -1.42 C25.36 -1.54, 131.48 -0.44, 158.03 -0.48" stroke="#58a6ff" stroke-width="2" fill="none"></path></g><g transform="translate(191 704.7939764340538) rotate(0 79.25643745306189 -0.2378391667549522)"><path d="M129.38 10.15 C138.92 6.59, 152.67 3.61, 158.59 -1.17 M129.13 9.64 C137.14 7.66, 142.83 5.77, 157.14 0.25" stroke="#58a6ff" stroke-width="2" fill="none"></path></g><g transform="translate(191 704.7939764340538) rotate(0 79.25643745306189 -0.2378391667549522)"><path d="M129.48 -10.37 C138.98 -6.08, 152.69 -1.2, 158.59 -1.17 M129.24 -10.88 C137.07 -8.05, 142.74 -5.12, 157.14 0.25" stroke="#58a6ff" stroke-width="2" fill="none"></path></g></g><g transform="translate(190 670) rotate(0 70.20995330810547 8.75)"><text x="0" y="NaN" font-family="Virgil, Segoe UI Emoji" font-size="14px" fill="#58a6ff" text-anchor="start" style="white-space: pre;" direction="ltr">1 REST  GET /home</text></g><g stroke-linecap="round" transform="translate(636.2399101358241 642.0667723880814) rotate(0 120 65)"><path d="M-1.29 0.31 L241.51 0.4 L240.34 131.17 L0.7 130.95" stroke="none" stroke-width="0" fill="#5c3a10"></path><path d="M0.74 -0.06 C91.24 -0.29, 181.42 -1.42, 240.61 -0.69 M-0.08 0.35 C73.27 -2.04, 145.95 -2.15, 239.58 0.5 M238.62 -1.21 C237.64 34.62, 237.95 66.99, 240 129.65 M240.23 -0.53 C239.13 27.52, 239.64 54.07, 240.44 130.57 M240.43 129.99 C169.28 129.9, 97.51 129.6, 0.7 129.85 M239.76 130.06 C185.96 128.79, 132.39 128.29, 0.46 129.25 M1.93 128.19 C-1.98 86.31, -1.91 44.84, 0.87 0.02 M-0.54 130.86 C-0.47 98.3, -1.14 65.41, 0.94 -0.66" stroke="#f0883e" stroke-width="2" fill="none"></path></g><g transform="translate(664.1789817910975 662.0667723880814) rotate(0 92.06092834472656 45)"><text x="92.06092834472656" y="NaN" font-family="Virgil, Segoe UI Emoji" font-size="18px" fill="#ffffff" text-anchor="middle" style="white-space: pre;" direction="ltr">GraphQL</text><text x="92.06092834472656" y="NaN" font-family="Virgil, Segoe UI Emoji" font-size="18px" fill="#ffffff" text-anchor="middle" style="white-space: pre;" direction="ltr">Federation Gateway</text><text x="92.06092834472656" y="NaN" font-family="Virgil, Segoe UI Emoji" font-size="18px" fill="#ffffff" text-anchor="middle" style="white-space: pre;" direction="ltr"> </text><text x="92.06092834472656" y="NaN" font-family="Virgil, Segoe UI Emoji" font-size="18px" fill="#ffffff" text-anchor="middle" style="white-space: pre;" direction="ltr">plans  •  parallelizes</text></g><g stroke-linecap="round"><g transform="translate(561.5128749061237 705.0854298746942) rotate(0 34.363517614850196 0.35189863821773315)"><path d="M-0.92 -0.93 C10.68 -0.94, 57 -0.07, 68.58 0.21 M0.8 1.2 C12.31 1.32, 56.41 1.34, 67.55 1.49" stroke="#3fb950" stroke-width="2" fill="none"></path></g><g transform="translate(561.5128749061237 705.0854298746942) rotate(0 34.363517614850196 0.35189863821773315)"><path d="M37.75 11.33 C44.59 9.27, 51.61 7.19, 68.72 0.84 M39.39 12.14 C49.38 8.29, 60.41 4.72, 67.08 2.47" stroke="#3fb950" stroke-width="2" fill="none"></path></g><g transform="translate(561.5128749061237 705.0854298746942) rotate(0 34.363517614850196 0.35189863821773315)"><path d="M37.87 -9.19 C44.73 -6.8, 51.73 -4.42, 68.72 0.84 M39.51 -8.38 C49.55 -4.55, 60.55 -0.43, 67.08 2.47" stroke="#3fb950" stroke-width="2" fill="none"></path></g></g><g transform="translate(674.7116453763865 607.1941169565781) rotate(0 61.305931091308594 8.75)"><text x="0" y="NaN" font-family="Virgil, Segoe UI Emoji" font-size="14px" fill="#3fb950" text-anchor="start" style="white-space: pre;" direction="ltr">1 federated query</text></g><g stroke-linecap="round" transform="translate(1225 550) rotate(0 100 22)"><path d="M-1.32 -1.4 L200.51 0.94 L201.79 45.27 L-1.09 42.47" stroke="none" stroke-width="0" fill="#0d2c5a"></path><path d="M-0.64 -1.04 C65.25 -1.36, 129.99 0.49, 200.02 1.65 M0.43 0.4 C58 -0.79, 116.64 -0.93, 199.59 0.22 M201.43 0.14 C199 9.01, 200.7 20.48, 198.47 43.38 M200.86 0.11 C199.15 13.72, 199.46 24.6, 200.69 43.44 M201.16 45.55 C136.07 43.13, 71.22 42.89, -1.72 44.02 M200.25 44.44 C122.99 44.39, 44.37 43.45, 0.3 43.98 M1.61 43.76 C-0.19 32.17, -0.77 21.63, 1.49 -1.99 M-0.92 43.17 C-0.32 32.96, 0.11 22.69, -0.57 -0.92" stroke="#58a6ff" stroke-width="2" fill="none"></path></g><g transform="translate(1236.716079711914 563.25) rotate(0 88.28392028808594 8.75)"><text x="88.28392028808594" y="NaN" font-family="Virgil, Segoe UI Emoji" font-size="14px" fill="#ffffff" text-anchor="middle" style="white-space: pre;" direction="ltr">user-svc  (user subgraph)</text></g><g stroke-linecap="round" transform="translate(1225 605) rotate(0 100 22.5)"><path d="M-0.9 -1.56 L198.83 -0.48 L198.83 43.49 L-0.4 43.07" stroke="none" stroke-width="0" fill="#0d2c5a"></path><path d="M-1.52 -0.28 C56.39 1.29, 114.23 2.08, 198.64 -1.67 M0.82 0.37 C68.21 1.42, 136.34 0.58, 199.28 -0.78 M201.11 -0.29 C200.12 12.1, 201.76 26.61, 198.91 44.34 M200.46 0.55 C200.62 9.34, 198.93 18.47, 199.58 45.82 M201.25 46.76 C144.83 46.42, 90.53 46.34, -0.4 45.39 M199.95 45.31 C144.29 44.21, 88.04 45.45, 0.14 45.57 M1.7 45.55 C0.52 27.91, 0.46 15.44, 0.28 -1.39 M-0.58 44.91 C-0.62 29.69, -0.71 12.77, -0.17 -0.56" stroke="#58a6ff" stroke-width="2" fill="none"></path></g><g transform="translate(1249.1760482788086 610) rotate(0 75.8239517211914 17.5)"><text x="75.8239517211914" y="NaN" font-family="Virgil, Segoe UI Emoji" font-size="14px" fill="#ffffff" text-anchor="middle" style="white-space: pre;" direction="ltr">catalog-svc  (catalog</text><text x="75.8239517211914" y="NaN" font-family="Virgil, Segoe UI Emoji" font-size="14px" fill="#ffffff" text-anchor="middle" style="white-space: pre;" direction="ltr">subgraph)</text></g><g stroke-linecap="round" transform="translate(1225 660) rotate(0 100 22)"><path d="M0.91 0.57 L201.16 1.37 L199.58 44.91 L0.47 43.64" stroke="none" stroke-width="0" fill="#0d2c5a"></path><path d="M-0.1 0.51 C53.09 -1.81, 105.65 0.15, 200.64 -0.79 M-0.56 -0.83 C41.55 1.82, 81.86 1.55, 199.27 -0.42 M198.63 0.24 C198.11 18.95, 198.4 34.8, 198.51 44.54 M199.56 -0.95 C199.42 11.06, 200.06 21.63, 199.39 43.77 M200.32 42.82 C137.34 44.11, 73.29 42.87, 0.04 45 M199.54 44.41 C142.36 43.23, 84.08 43.16, -0.85 44.5 M-0.82 42.25 C1.55 28.94, 1.46 18.88, 1.76 0.08 M-0.97 43.29 C0.07 30.62, -0.23 17.55, 0.33 -0.77" stroke="#58a6ff" stroke-width="2" fill="none"></path></g><g transform="translate(1237.6400756835938 673.25) rotate(0 87.35992431640625 8.75)"><text x="87.35992431640625" y="NaN" font-family="Virgil, Segoe UI Emoji" font-size="14px" fill="#ffffff" text-anchor="middle" style="white-space: pre;" direction="ltr">recs-svc  (recs subgraph)</text></g><g stroke-linecap="round" transform="translate(1225 715) rotate(0 100 22.5)"><path d="M-0.44 -1.99 L200.8 -0.6 L201.54 43.49 L-1.81 43.61" stroke="none" stroke-width="0" fill="#0d2c5a"></path><path d="M-0.9 0.34 C72.06 -0.94, 147.47 -0.07, 198.87 -0.56 M0.28 -0.55 C73.16 -1.01, 146.34 0.16, 200.63 0.39 M201.12 -0.1 C201.93 16.39, 201.38 31.66, 201.47 44.4 M199.43 0.95 C199.06 17.07, 199.49 34.02, 199.17 44.27 M199.52 43.23 C150.26 47.22, 101.7 45.47, 1.39 43.73 M200.84 44.47 C122.74 46.63, 44.02 45.03, 0.28 45.38 M0.14 46.69 C1.63 36.42, -0.43 25.98, 1.99 -0.91 M-0.34 44.03 C-0.67 26.7, -0.57 8.77, 0.58 0.17" stroke="#58a6ff" stroke-width="2" fill="none"></path></g><g transform="translate(1252.4940719604492 720) rotate(0 72.50592803955078 17.5)"><text x="72.50592803955078" y="NaN" font-family="Virgil, Segoe UI Emoji" font-size="14px" fill="#ffffff" text-anchor="middle" style="white-space: pre;" direction="ltr">playlist-svc  (playlist</text><text x="72.50592803955078" y="NaN" font-family="Virgil, Segoe UI Emoji" font-size="14px" fill="#ffffff" text-anchor="middle" style="white-space: pre;" direction="ltr">subgraph)</text></g><g stroke-linecap="round" transform="translate(1225 770) rotate(0 100 22)"><path d="M-0.76 -1.84 L199.08 1.66 L201.53 43.36 L1.96 43.99" stroke="none" stroke-width="0" fill="#0d2c5a"></path><path d="M-0.54 0.37 C70.6 -1.09, 141.89 -1.35, 199.79 -0.83 M0.51 -0.41 C46.21 -0.95, 93.03 -0.5, 199.83 0.56 M200.04 -0.4 C201.69 15.17, 199.42 29.74, 201.35 44.03 M199.67 0.6 C198.74 8.52, 199.44 18.81, 200.88 43.19 M200.43 44.95 C127.4 44.39, 55.22 44.3, 0.49 45.56 M199.48 44.04 C123.23 43.94, 47.43 43.29, 0.39 44.39 M0.94 44.76 C-1.25 28.55, 1.55 13.28, -1.38 -1.54 M-0.59 44.58 C0.8 29.88, -0.86 14.59, 0.26 0.73" stroke="#58a6ff" stroke-width="2" fill="none"></path></g><g transform="translate(1231.7880859375 783.25) rotate(0 93.2119140625 8.75)"><text x="93.2119140625" y="NaN" font-family="Virgil, Segoe UI Emoji" font-size="14px" fill="#ffffff" text-anchor="middle" style="white-space: pre;" direction="ltr">billing-svc  (billing subgraph)</text></g><g stroke-linecap="round" transform="translate(1225 825) rotate(0 100 22.5)"><path d="M-0.45 0.52 L201.74 -0.29 L201.32 46.12 L-1.54 45.75" stroke="none" stroke-width="0" fill="#0d2c5a"></path><path d="M1.28 -0.12 C65.86 0.08, 132.88 3.04, 201.09 -0.54 M-0.53 -0.45 C71.18 1.67, 142.57 1.31, 200.09 0.6 M199.55 0.93 C197.99 14.76, 197.9 32.79, 198.46 44.19 M199.25 -0.65 C199.91 15.13, 200.33 30.79, 199.91 44.12 M201.77 44.8 C123.63 46.1, 44.26 45.34, 0.91 43.26 M199.54 45.35 C146.01 44.17, 91.64 42.92, -0.72 44.66 M0.89 46.91 C-1.67 33.54, -0.12 24.35, 1.4 1.14 M-0.5 45.06 C0.04 32, 0.19 18.4, -0.07 0.81" stroke="#58a6ff" stroke-width="2" fill="none"></path></g><g transform="translate(1262.7700424194336 830) rotate(0 62.229957580566406 17.5)"><text x="62.229957580566406" y="NaN" font-family="Virgil, Segoe UI Emoji" font-size="14px" fill="#ffffff" text-anchor="middle" style="white-space: pre;" direction="ltr">social-svc  (social</text><text x="62.229957580566406" y="NaN" font-family="Virgil, Segoe UI Emoji" font-size="14px" fill="#ffffff" text-anchor="middle" style="white-space: pre;" direction="ltr">subgraph)</text></g><g stroke-linecap="round"><g transform="translate(882.2399101358241 696.2931351495276) rotate(0 168.38004493208797 -58.35953489976663)"><path d="M-0.6 -0.2 C55.48 -19.72, 279.55 -97.63, 335.64 -117.13" stroke="#f0883e" stroke-width="2.5" fill="none" stroke-dasharray="8 10"></path></g><g transform="translate(882.2399101358241 696.2931351495276) rotate(0 168.38004493208797 -58.35953489976663)"><path d="M312.06 -100.04 C317.03 -103.77, 322.22 -105.18, 336.22 -117.66" stroke="#f0883e" stroke-width="2.5" fill="none"></path></g><g transform="translate(882.2399101358241 696.2931351495276) rotate(0 168.38004493208797 -58.35953489976663)"><path d="M305.32 -119.43 C311.83 -118.68, 318.57 -115.65, 336.22 -117.66" stroke="#f0883e" stroke-width="2.5" fill="none"></path></g></g><g stroke-linecap="round"><g transform="translate(882.2399101358242 700.2162149458549) rotate(0 168.38004493208803 -33.86929696057729)"><path d="M-0.96 -0.02 C55.14 -11.27, 281.09 -55.53, 337.54 -66.92" stroke="#f0883e" stroke-width="2.5" fill="none" stroke-dasharray="8 10"></path></g><g transform="translate(882.2399101358242 700.2162149458549) rotate(0 168.38004493208803 -33.86929696057729)"><path d="M311.85 -50.06 C322.85 -55.4, 330.17 -62.55, 335.59 -66.63" stroke="#f0883e" stroke-width="2.5" fill="none"></path></g><g transform="translate(882.2399101358242 700.2162149458549) rotate(0 168.38004493208803 -33.86929696057729)"><path d="M307.86 -70.19 C320.45 -67.92, 329.28 -67.48, 335.59 -66.63" stroke="#f0883e" stroke-width="2.5" fill="none"></path></g></g><g stroke-linecap="round"><g transform="translate(882.2399101358241 704.5818367259454) rotate(0 168.38004493208797 -10.243921929187195)"><path d="M0.91 -0.89 C57.07 -4.32, 280.54 -17.04, 336.65 -20.44" stroke="#f0883e" stroke-width="2.5" fill="none" stroke-dasharray="8 10"></path></g><g transform="translate(882.2399101358241 704.5818367259454) rotate(0 168.38004493208797 -10.243921929187195)"><path d="M307.62 -8.74 C316.68 -10.73, 322.75 -14.97, 336.06 -20.66" stroke="#f0883e" stroke-width="2.5" fill="none"></path></g><g transform="translate(882.2399101358241 704.5818367259454) rotate(0 168.38004493208797 -10.243921929187195)"><path d="M306.42 -29.23 C315.83 -25.64, 322.22 -24.3, 336.06 -20.66" stroke="#f0883e" stroke-width="2.5" fill="none"></path></g></g><g stroke-linecap="round"><g transform="translate(882.2399101358241 709.5626211130624) rotate(0 168.38004493208797 12.958424321802738)"><path d="M-0.44 0.52 C55.59 4.92, 280.82 21.74, 337.16 25.87" stroke="#f0883e" stroke-width="2.5" fill="none" stroke-dasharray="8 10"></path></g><g transform="translate(882.2399101358241 709.5626211130624) rotate(0 168.38004493208797 12.958424321802738)"><path d="M309.16 34.69 C319.28 32.38, 329.36 28.45, 335.5 25.34" stroke="#f0883e" stroke-width="2.5" fill="none"></path></g><g transform="translate(882.2399101358241 709.5626211130624) rotate(0 168.38004493208797 12.958424321802738)"><path d="M310.68 14.22 C320.13 19.72, 329.63 23.62, 335.5 25.34" stroke="#f0883e" stroke-width="2.5" fill="none"></path></g></g><g stroke-linecap="round"><g transform="translate(882.2399101358241 713.8290918107754) rotate(0 168.38004493208797 36.534510434363995)"><path d="M-1.1 -0.53 C54.77 11.61, 279.94 60.96, 336.06 73.24" stroke="#f0883e" stroke-width="2.5" fill="none" stroke-dasharray="8 10"></path></g><g transform="translate(882.2399101358241 713.8290918107754) rotate(0 168.38004493208797 36.534510434363995)"><path d="M305.44 76.06 C317.48 74.1, 328.19 73.23, 337.75 73.84" stroke="#f0883e" stroke-width="2.5" fill="none"></path></g><g transform="translate(882.2399101358241 713.8290918107754) rotate(0 168.38004493208797 36.534510434363995)"><path d="M309.83 56.01 C320.32 61.35, 329.42 67.83, 337.75 73.84" stroke="#f0883e" stroke-width="2.5" fill="none"></path></g></g><g stroke-linecap="round"><g transform="translate(882.239910135824 717.8068140126138) rotate(0 168.38004493208803 61.206514286923436)"><path d="M-1.07 0.39 C54.94 20.77, 280.5 101.56, 336.89 121.95" stroke="#f0883e" stroke-width="2.5" fill="none" stroke-dasharray="8 10"></path></g><g transform="translate(882.239910135824 717.8068140126138) rotate(0 168.38004493208803 61.206514286923436)"><path d="M307.53 122.27 C317.26 123.11, 329.71 120.42, 337.59 122.08" stroke="#f0883e" stroke-width="2.5" fill="none"></path></g><g transform="translate(882.239910135824 717.8068140126138) rotate(0 168.38004493208803 61.206514286923436)"><path d="M314.48 102.96 C321.57 110.91, 331.44 115.39, 337.59 122.08" stroke="#f0883e" stroke-width="2.5" fill="none"></path></g></g><g transform="translate(1225 470) rotate(0 115.17787170410156 8.75)"><text x="0" y="NaN" font-family="Virgil, Segoe UI Emoji" font-size="14px" fill="#8b949e" text-anchor="start" style="white-space: pre;" direction="ltr">real fleet: 12 services  (6 shown)</text></g><g transform="translate(1225 875) rotate(0 115.17787170410156 8.75)"><text x="0" y="NaN" font-family="Virgil, Segoe UI Emoji" font-size="14px" fill="#8b949e" text-anchor="start" style="white-space: pre;" direction="ltr">real fleet: 12 services  (6 shown)</text></g></svg>