<svg version="1.1" xmlns="http://www.w3.org/2000/svg" viewBox="0 0 1197.685546875 754.4237421431595" width="1197.685546875" height="754.4237421431595">
  <!-- svg-source:excalidraw -->
  
  <defs>
    <style>
      @font-face {
        font-family: "Virgil";
        src: url("https://excalidraw.com/Virgil.woff2");
      }
      @font-face {
        font-family: "Cascadia";
        src: url("https://excalidraw.com/Cascadia.woff2");
      }
    </style>
  </defs>
  <rect x="0" y="0" width="1197.685546875" height="754.4237421431595" fill="#0d1117"></rect><g transform="translate(10 10) rotate(0 588.8427734375 16.875)"><text x="0" y="NaN" font-family="Virgil, Segoe UI Emoji" font-size="27px" fill="#ff8c42" text-anchor="start" style="white-space: pre;" direction="ltr">Anatomy of a BFF  —  five responsibility layers, one client request, seven internal calls</text></g><g transform="translate(10 47) rotate(0 478.3270263671875 9.375)"><text x="0" y="NaN" font-family="Virgil, Segoe UI Emoji" font-size="15px" fill="#c9d1d9" text-anchor="start" style="white-space: pre;" direction="ltr">The client sees one request and one response.  Behind the BFF: parallel fan-out, shape translation, auth swap, protocol switch.</text></g><g stroke-linecap="round" transform="translate(465.79927154184554 89.00031275185825) rotate(0 140 35)"><path d="M-0.95 -1.56 L280.23 -0.65 L281.56 71.31 L-1.04 71.39" stroke="none" stroke-width="0" fill="#1f4d2b"></path><path d="M-1.47 0.41 C111.04 -0.34, 224.84 -0.58, 278.96 1.53 M-0.66 0.69 C59.52 -1.66, 118.41 -1.44, 280.13 -0.26 M281.34 1.29 C280.31 20.21, 280.82 42.48, 281.74 71.01 M280.39 -0.41 C280.28 21.01, 280.09 42.87, 279.68 69.42 M279.06 68.54 C191.03 70.51, 103.81 71.47, 0.47 69.25 M279.55 70.37 C216.01 69.72, 153.42 71.14, -0.64 70.33 M1.57 68.52 C0.45 52.75, 0.68 34.59, 1.5 -1.86 M-0.34 70.7 C1.03 49.01, 1.07 27.85, 0.1 -0.71" stroke="#3fb950" stroke-width="3" fill="none"></path></g><g transform="translate(565.807305294287 104.00031275185825) rotate(0 39.991966247558594 20)"><text x="39.991966247558594" y="NaN" font-family="Virgil, Segoe UI Emoji" font-size="16px" fill="#ffffff" text-anchor="middle" style="white-space: pre;" direction="ltr">Mobile App</text><text x="39.991966247558594" y="NaN" font-family="Virgil, Segoe UI Emoji" font-size="16px" fill="#ffffff" text-anchor="middle" style="white-space: pre;" direction="ltr">(iPhone)</text></g><g transform="translate(405 190.14770646734007) rotate(0 31.61896514892578 8.75)"><text x="0" y="NaN" font-family="Virgil, Segoe UI Emoji" font-size="14px" fill="#3fb950" text-anchor="start" style="white-space: pre;" direction="ltr">1 request</text></g><g transform="translate(405 210.14770646734007) rotate(0 38.46497344970703 8.75)"><text x="0" y="NaN" font-family="Virgil, Segoe UI Emoji" font-size="14px" fill="#c9d1d9" text-anchor="start" style="white-space: pre;" direction="ltr">GET /home</text></g><g transform="translate(405 230.14770646734007) rotate(0 42.74395751953125 7.5)"><text x="0" y="NaN" font-family="Virgil, Segoe UI Emoji" font-size="12px" fill="#8b949e" text-anchor="start" style="white-space: pre;" direction="ltr">JWT in header</text></g><g transform="translate(723 195.14770646734007) rotate(0 34.26496124267578 8.75)"><text x="0" y="NaN" font-family="Virgil, Segoe UI Emoji" font-size="14px" fill="#3fb950" text-anchor="start" style="white-space: pre;" direction="ltr">1 response</text></g><g transform="translate(723 215.02947330587045) rotate(0 45.53495788574219 8.75)"><text x="0" y="NaN" font-family="Virgil, Segoe UI Emoji" font-size="14px" fill="#c9d1d9" text-anchor="start" style="white-space: pre;" direction="ltr">~2 KB JSON</text></g><g transform="translate(723 235.02947330587045) rotate(0 71.41792297363281 15)"><text x="0" y="NaN" font-family="Virgil, Segoe UI Emoji" font-size="12px" fill="#8b949e" text-anchor="start" style="white-space: pre;" direction="ltr">exactly the shape</text><text x="0" y="NaN" font-family="Virgil, Segoe UI Emoji" font-size="12px" fill="#8b949e" text-anchor="start" style="white-space: pre;" direction="ltr">the home screen renders</text></g><g stroke-opacity="0.8" fill-opacity="0.8" stroke-linecap="round" transform="translate(316 289.1477064673401) rotate(0 334 190)"><path d="M-0.02 -0.3 C255.9 -0.08, 511.6 0.32, 668.66 0.79 M667.48 0.68 C669.09 142.73, 668.64 287.51, 669.13 381.04 M668.71 379.5 C420.76 377.8, 174.02 377.16, -0.11 379.29 M1.1 380.19 C1.03 243.8, 1.35 109.12, -0.01 -1.12" stroke="#a371f7" stroke-width="3.5" fill="none" stroke-dasharray="8 11"></path></g><g transform="translate(330 297.1477064673401) rotate(0 52.31996154785156 12.5)"><text x="0" y="NaN" font-family="Virgil, Segoe UI Emoji" font-size="20px" fill="#a371f7" text-anchor="start" style="white-space: pre;" direction="ltr">Mobile BFF</text></g><g transform="translate(529.8854616248262 299.1477064673401) rotate(0 157.7743682861328 8.125)"><text x="0" y="NaN" font-family="Virgil, Segoe UI Emoji" font-size="13px" fill="#8b949e" text-anchor="start" style="white-space: pre;" direction="ltr">owned by the iOS team  •  deployed with the app</text></g><g stroke-linecap="round" transform="translate(330 325.1477064673401) rotate(0 320 30)"><path d="M-1.83 -0.98 L639.95 0.17 L641.14 60.48 L-1.95 61.6" stroke="none" stroke-width="0" fill="#5c3a10"></path><path d="M0.02 0.46 C234.85 1.26, 469.38 0.51, 639.43 -0.16 M-0.09 -0.25 C239.1 1.81, 479.2 1.92, 639.7 -0.32 M641.79 0.92 C639.03 18.7, 641.8 40.39, 639.05 58.32 M639.03 -0.5 C641.17 20.15, 641.23 40.31, 639.29 60.81 M639.46 60.2 C412.07 61.38, 185.58 60.97, 0.76 59.41 M640.08 60.1 C451.95 57.87, 263.93 58.45, -0.08 59.9 M-0.2 60.58 C2.12 42.26, 1.93 25.09, 0.8 -0.74 M-0.75 59.43 C-0.57 35.51, -0.57 13.37, 0.88 0.49" stroke="#f0883e" stroke-width="2" fill="none"></path></g><g transform="translate(346 335.1477064673401) rotate(0 67.35746002197266 9.375)"><text x="0" y="NaN" font-family="Virgil, Segoe UI Emoji" font-size="15px" fill="#ffffff" text-anchor="start" style="white-space: pre;" direction="ltr">EDGE PROTOCOL</text></g><g transform="translate(346 355.1477064673401) rotate(0 185.2628173828125 8.125)"><text x="0" y="NaN" font-family="Virgil, Segoe UI Emoji" font-size="13px" fill="#c9d1d9" text-anchor="start" style="white-space: pre;" direction="ltr">JSON over HTTP/2  •  client-tailored timeouts &amp; retries</text></g><g stroke-linecap="round" transform="translate(330 391.1477064673401) rotate(0 320 30)"><path d="M-1.56 -1.23 L638.58 -1.45 L640.3 58.56 L-1.88 61.87" stroke="none" stroke-width="0" fill="#4a1219"></path><path d="M0.58 -0.79 C198.09 -0.17, 396.05 -1.09, 640.49 0.09 M-0.15 0.22 C171.19 -0.17, 342.47 -0.34, 640.36 -0.17 M638.8 -0.21 C641.97 19.03, 641.19 40.78, 640.74 61.63 M639.57 0.31 C640.18 16.86, 640.97 32.54, 639.81 59.16 M640.65 60.8 C494.7 60.42, 348.91 60.52, 0.51 60.01 M640.22 60.31 C433.39 61.33, 226.22 61.11, 0.25 59.97 M1.77 59.04 C1.03 37.94, -1.85 17.15, 0.07 1.84 M0.43 60.13 C0.14 45.83, 0.37 31.49, -0.94 0.52" stroke="#f85149" stroke-width="2" fill="none"></path></g><g transform="translate(346 401.1477064673401) rotate(0 79.4174575805664 9.375)"><text x="0" y="NaN" font-family="Virgil, Segoe UI Emoji" font-size="15px" fill="#ffffff" text-anchor="start" style="white-space: pre;" direction="ltr">AUTH TRANSLATION</text></g><g transform="translate(346 421.1477064673401) rotate(0 166.14633178710938 8.125)"><text x="0" y="NaN" font-family="Virgil, Segoe UI Emoji" font-size="13px" fill="#c9d1d9" text-anchor="start" style="white-space: pre;" direction="ltr">JWT (client)  →  service-to-service token (internal)</text></g><g stroke-linecap="round" transform="translate(330 457.1477064673401) rotate(0 320 30)"><path d="M-1.82 -1.43 L641.65 0.04 L639.72 59.29 L-1.32 60.66" stroke="none" stroke-width="0" fill="#3a1d6e"></path><path d="M-0.53 0.58 C214.56 1.62, 429.9 0.98, 640.67 0.7 M0.39 -0.02 C184.06 -0.29, 368.17 0.09, 639.66 0.25 M641.71 1.13 C640.93 16.77, 640.43 35.13, 641.43 61.12 M639.9 0.86 C640.66 22.68, 641.12 45.68, 639.53 59.56 M639.61 59.29 C488.09 59.9, 337.21 60.32, -0.59 59.75 M640.02 60.39 C436.2 60.81, 232.05 60.65, -0.4 59.83 M-1.84 59.85 C-1.53 35.67, -0.66 13.96, -1.9 0.58 M-0.49 59.49 C-0.33 43.27, -1.26 27.09, -0.56 0.3" stroke="#a371f7" stroke-width="2" fill="none"></path></g><g transform="translate(346 467.1477064673401) rotate(0 94.46991729736328 9.375)"><text x="0" y="NaN" font-family="Virgil, Segoe UI Emoji" font-size="15px" fill="#ffffff" text-anchor="start" style="white-space: pre;" direction="ltr">AGGREGATION (parallel)</text></g><g transform="translate(346 487.1477064673401) rotate(0 157.3778076171875 8.125)"><text x="0" y="NaN" font-family="Virgil, Segoe UI Emoji" font-size="13px" fill="#c9d1d9" text-anchor="start" style="white-space: pre;" direction="ltr">Fan out 7 downstream calls in parallel; await all</text></g><g stroke-linecap="round" transform="translate(330 523.1477064673401) rotate(0 320 30)"><path d="M0.34 -0.03 L639.25 -1.51 L640.9 61.79 L1.23 58.22" stroke="none" stroke-width="0" fill="#0d2c5a"></path><path d="M-0.62 0.5 C208.86 -1.55, 417.22 -1.34, 639.78 0.78 M0.4 0.11 C151.05 -1.8, 302.01 -1.91, 639.74 0.12 M641.64 1.48 C640.87 20.1, 639.96 37.06, 638.7 60.54 M639.68 0.97 C640.2 19.68, 640.55 37.05, 640.9 59.05 M640.09 60.42 C479.64 60.94, 320.48 60.75, -0.36 59.62 M640.34 59.91 C500.73 60.05, 360.48 59.99, 0.32 60.28 M-1.18 59.62 C0.66 35.72, 1.06 14.07, -0.91 -0.89 M0.99 59.19 C-0.29 39.07, -0.5 19.9, -0.32 0.57" stroke="#58a6ff" stroke-width="2" fill="none"></path></g><g transform="translate(346 533.1477064673401) rotate(0 98.69244384765625 9.375)"><text x="0" y="NaN" font-family="Virgil, Segoe UI Emoji" font-size="15px" fill="#ffffff" text-anchor="start" style="white-space: pre;" direction="ltr">SHAPE TRANSFORMATION</text></g><g transform="translate(346 553.1477064673401) rotate(0 206.16676330566406 8.125)"><text x="0" y="NaN" font-family="Virgil, Segoe UI Emoji" font-size="13px" fill="#c9d1d9" text-anchor="start" style="white-space: pre;" direction="ltr">Drop unused fields, flatten nesting, rename per client convention</text></g><g stroke-linecap="round" transform="translate(330 589.1477064673401) rotate(0 320 30)"><path d="M-1.23 0.95 L638.42 -0.98 L638.11 59.51 L-0.17 59.2" stroke="none" stroke-width="0" fill="#3a5d1d"></path><path d="M0.53 0.59 C251.35 -1.39, 502.76 -0.02, 639.59 0.6 M-0.15 -0.15 C219.9 0.56, 439.47 0.06, 639.84 0.02 M639.89 -0.29 C638.82 18.68, 640.64 40.17, 640.57 58.84 M639.34 0.91 C640.23 14.65, 640.91 29.58, 639.62 59.94 M639.68 60.51 C416.72 60.16, 193.18 59.87, 0.15 59.87 M640.27 59.9 C484.86 59.97, 330.36 59.7, -0.26 60.28 M-0.03 58.37 C1.16 43.59, -1.53 24.36, 0.79 0.75 M0.7 59.11 C-0.61 47.12, -0.46 33.89, -0.18 1" stroke="#6dbf3a" stroke-width="2" fill="none"></path></g><g transform="translate(346 599.1477064673401) rotate(0 81.95243835449219 9.375)"><text x="0" y="NaN" font-family="Virgil, Segoe UI Emoji" font-size="15px" fill="#ffffff" text-anchor="start" style="white-space: pre;" direction="ltr">RESPONSE ASSEMBLY</text></g><g transform="translate(346 619.1477064673401) rotate(0 164.33935546875 8.125)"><text x="0" y="NaN" font-family="Virgil, Segoe UI Emoji" font-size="13px" fill="#c9d1d9" text-anchor="start" style="white-space: pre;" direction="ltr">Compose JSON  •  compress  •  add cache headers</text></g><g stroke-linecap="round"><g transform="translate(514.8359157635219 165.50031275185825) rotate(0 -9.215395368611325 76.82369685774091)"><path d="M0.36 -1.14 C-2.72 24.27, -15.11 127.21, -18.4 152.86 M-0.92 0.87 C-4.15 26.38, -16.65 128.53, -19.34 153.98" stroke="#3fb950" stroke-width="3" fill="none"></path></g><g transform="translate(514.8359157635219 165.50031275185825) rotate(0 -9.215395368611325 76.82369685774091)"><path d="M-28.2 124.85 C-25.4 132.04, -23.52 143.66, -20.3 154.4 M-26.73 124.53 C-23.72 133.26, -22.91 140.62, -19.58 153.03" stroke="#3fb950" stroke-width="3" fill="none"></path></g><g transform="translate(514.8359157635219 165.50031275185825) rotate(0 -9.215395368611325 76.82369685774091)"><path d="M-7.82 127.2 C-11.23 133.74, -15.56 144.64, -20.3 154.4 M-6.35 126.88 C-9.1 134.85, -14.07 141.55, -19.58 153.03" stroke="#3fb950" stroke-width="3" fill="none"></path></g></g><g stroke-linecap="round"><g transform="translate(715.6370247951858 319.1477064673401) rotate(0 -9.68504585777606 -76.82369685774093)"><path d="M-0.07 1.14 C-3.39 -24.23, -16.98 -127.62, -20.23 -153.23 M-1.57 0.69 C-4.48 -24.95, -14.83 -129.31, -17.98 -155.14" stroke="#58a6ff" stroke-width="3" fill="none"></path></g><g transform="translate(715.6370247951858 319.1477064673401) rotate(0 -9.68504585777606 -76.82369685774093)"><path d="M-2.83 -129.67 C-7.4 -135.89, -9.85 -142.38, -17.56 -154.98 M-5.08 -129.09 C-9.41 -138.46, -13.59 -147.63, -17.78 -155.04" stroke="#58a6ff" stroke-width="3" fill="none"></path></g><g transform="translate(715.6370247951858 319.1477064673401) rotate(0 -9.68504585777606 -76.82369685774093)"><path d="M-23.23 -127.44 C-22.23 -134.26, -19.12 -141.36, -17.56 -154.98 M-25.48 -126.87 C-22.14 -137.14, -18.67 -147.14, -17.78 -155.04" stroke="#58a6ff" stroke-width="3" fill="none"></path></g></g><g transform="translate(178.2397094143031 691.9237421431595) rotate(0 428.5597839355468 13.75)"><text x="0" y="NaN" font-family="Virgil, Segoe UI Emoji" font-size="22px" fill="#f0b070" text-anchor="start" style="white-space: pre;" direction="ltr">Anchor:  1 client request  →  7 parallel internal calls  →  1 response (~2 KB)</text></g><g transform="translate(178.2397094143031 726.9237421431595) rotate(0 438.4446411132812 8.75)"><text x="0" y="NaN" font-family="Virgil, Segoe UI Emoji" font-size="14px" fill="#f85149" text-anchor="start" style="white-space: pre;" direction="ltr">Forbidden inside the BFF:  business logic, durable state, source-of-truth ownership.  Strip them out — BFF is translation only.</text></g></svg>