<svg version="1.1" xmlns="http://www.w3.org/2000/svg" viewBox="0 0 1450.040869960923 843.898115156536" width="1450.040869960923" height="843.898115156536">
  <!-- svg-source:excalidraw -->
  
  <defs>
    <style>
      @font-face {
        font-family: "Virgil";
        src: url("https://excalidraw.com/Virgil.woff2");
      }
      @font-face {
        font-family: "Cascadia";
        src: url("https://excalidraw.com/Cascadia.woff2");
      }
    </style>
  </defs>
  <rect x="0" y="0" width="1450.040869960923" height="843.898115156536" fill="#1e1e2e"></rect><g transform="translate(14.806404824525657 10) rotate(0 571.792236328125 16.875)"><text x="0" y="NaN" font-family="Virgil, Segoe UI Emoji" font-size="27px" fill="#ff8c42" text-anchor="start" style="white-space: pre;" direction="ltr">Shared API vs Backend-for-Frontend  —  same four clients, two response strategies</text></g><g transform="translate(14.806404824525657 47) rotate(0 455.415771484375 10)"><text x="0" y="NaN" font-family="Virgil, Segoe UI Emoji" font-size="16px" fill="#c9d1d9" text-anchor="start" style="white-space: pre;" direction="ltr">Drama:  one fat 12 KB response is sent to every client (left) vs. four tailored responses fitted per client (right).</text></g><g stroke-opacity="0.7" fill-opacity="0.7" stroke-linecap="round" transform="translate(9.999999999999972 107.8349943034431) rotate(0 345 344.27740342245477)"><path d="M0.3 1.64 L690.33 -1.22 L688.09 687.59 L0.19 688.9" stroke="none" stroke-width="0" fill="#181825"></path><path d="M-0.77 0.21 C274.83 -0.2, 551.11 -0.32, 689.46 0.8 M689.32 0.72 C688.58 144.86, 688.53 290.04, 690.14 688.29 M690.54 689.07 C478.1 685.42, 266.3 685.72, 0.7 688.96 M0.32 688.22 C1.47 482.61, 1.31 277.35, -0.26 -0.46" stroke="#45475a" stroke-width="2.5" fill="none" stroke-dasharray="8 10"></path></g><g stroke-opacity="0.7" fill-opacity="0.7" stroke-linecap="round" transform="translate(48.07374045010576 556.3580151839678) rotate(0 305.50084999707906 76.99558771074987)"><path d="M-0.06 -1.76 L609.71 0.22 L609.13 154.97 L-0.33 155.1" stroke="none" stroke-width="0" fill="#181825"></path><path d="M0.24 -0.3 C180.75 -0.51, 359.47 -1, 610.44 0.06 M612.97 1.26 C613.32 60.38, 612.75 120.07, 610.75 152.21 M610.87 154.33 C411.98 152.56, 213.53 151.62, 0.72 154.68 M0.87 155.05 C0.25 106.53, -0.9 57.42, 1.94 1.67" stroke="#45475a" stroke-width="2.5" fill="none" stroke-dasharray="8 10"></path></g><g stroke-opacity="0.7" fill-opacity="0.7" stroke-linecap="round" transform="translate(780.085564627335 544.6396184308492) rotate(0 305.50084999707906 76.99558771074987)"><path d="M-0.73 -1.2 L610.16 0.58 L610.99 152.02 L0.97 153.77" stroke="none" stroke-width="0" fill="#181825"></path><path d="M-0.79 0.61 C136.15 -0.69, 271.73 -1.13, 610.77 -0.55 M612.86 0.96 C613.74 36.97, 612.35 74.23, 610.4 153.7 M610.67 154.17 C455.92 151.6, 300.51 152.76, -0.46 153.31 M1.42 155.68 C-0.17 98.27, 0.34 44.11, -0.8 -1.18" stroke="#45475a" stroke-width="2.5" fill="none" stroke-dasharray="8 10"></path></g><g transform="translate(34.65828966798972 127.148115156536) rotate(0 89.7159652709961 13.75)"><text x="0" y="NaN" font-family="Virgil, Segoe UI Emoji" font-size="22px" fill="#f85149" text-anchor="start" style="white-space: pre;" direction="ltr">ONE shared API</text></g><g transform="translate(34.80640482452566 167.148115156536) rotate(0 247.07225036621094 18.75)"><text x="0" y="NaN" font-family="Virgil, Segoe UI Emoji" font-size="15px" fill="#8b949e" text-anchor="start" style="white-space: pre;" direction="ltr">Same response shape for every client; over-fetch on small clients; </text><text x="0" y="NaN" font-family="Virgil, Segoe UI Emoji" font-size="15px" fill="#8b949e" text-anchor="start" style="white-space: pre;" direction="ltr">cross-team coordination on every change.</text></g><g stroke-linecap="round" transform="translate(49.80640482452566 230.148115156536) rotate(0 70 27)"><path d="M-0.94 -0.77 L141.64 1.22 L140.36 52.15 L-0.03 52.71" stroke="none" stroke-width="0" fill="#1f4d2b"></path><path d="M0.07 -0.98 C35.52 -3.09, 76.21 -1.97, 141.57 -0.78 M0.61 0.05 C42.53 0.35, 85.92 -0.16, 140.18 0.62 M139.37 1.58 C141.01 22.22, 140.89 42.62, 141.03 54.05 M140.51 -0.84 C139.39 14.97, 139.71 30.33, 139.74 53.67 M141.47 52.08 C96.61 52.55, 58.21 52.09, 0.3 52.85 M140.63 53.43 C105.52 55.18, 71.82 54.31, -0.52 54.96 M1.85 55.23 C-1.14 36.68, -0.68 20.44, 0.58 0.92 M0.5 54.9 C0.06 42.12, 0.67 32.22, -0.74 0.53" stroke="#3fb950" stroke-width="2" fill="none"></path></g><g transform="translate(82.31394266632253 247.773115156536) rotate(0 37.492462158203125 9.375)"><text x="37.492462158203125" y="NaN" font-family="Virgil, Segoe UI Emoji" font-size="15px" fill="#ffffff" text-anchor="middle" style="white-space: pre;" direction="ltr">Mobile App</text></g><g transform="translate(53.10462025902376 293.6338402989874) rotate(0 22.054489135742188 16.25)"><text x="0" y="NaN" font-family="Virgil, Segoe UI Emoji" font-size="13px" fill="#8b949e" text-anchor="start" style="white-space: pre;" direction="ltr">needs </text><text x="0" y="NaN" font-family="Virgil, Segoe UI Emoji" font-size="13px" fill="#8b949e" text-anchor="start" style="white-space: pre;" direction="ltr">~2 KB</text></g><g stroke-linecap="round" transform="translate(209.80640482452566 230.148115156536) rotate(0 70 27)"><path d="M0.75 -1.02 L141.08 1.34 L141.17 53.02 L1.64 53.6" stroke="none" stroke-width="0" fill="#1f4d2b"></path><path d="M-1.78 1.91 C46.59 1.94, 97.3 -0.8, 138.91 -0.05 M-0.18 0.7 C29.5 1.21, 61.05 1, 140.66 0.22 M139.63 1.11 C139.35 12.6, 137.89 24.54, 141.67 55.87 M140.25 0.63 C139.37 16.08, 140.67 30.17, 140.25 54.74 M140.22 54.85 C94.56 53.47, 45.73 53.13, -0.42 52.1 M140.12 53.74 C86.42 53.75, 33.31 53.79, 0.13 54.41 M1.8 54.39 C1.1 35.9, -2.04 16.9, 0.96 -1.56 M0.59 53.43 C-0.21 40.26, 0.22 23.8, 0.97 0.8" stroke="#3fb950" stroke-width="2" fill="none"></path></g><g transform="translate(248.11142801788503 247.773115156536) rotate(0 31.694976806640625 9.375)"><text x="31.694976806640625" y="NaN" font-family="Virgil, Segoe UI Emoji" font-size="15px" fill="#ffffff" text-anchor="middle" style="white-space: pre;" direction="ltr">Web SPA</text></g><g transform="translate(213.6278475002797 291.60234298199845) rotate(0 23.659988403320312 16.25)"><text x="0" y="NaN" font-family="Virgil, Segoe UI Emoji" font-size="13px" fill="#8b949e" text-anchor="start" style="white-space: pre;" direction="ltr">needs </text><text x="0" y="NaN" font-family="Virgil, Segoe UI Emoji" font-size="13px" fill="#8b949e" text-anchor="start" style="white-space: pre;" direction="ltr">~10 KB</text></g><g stroke-linecap="round" transform="translate(369.80640482452566 230.148115156536) rotate(0 70 27)"><path d="M0.62 1.32 L140.29 -0.89 L140.63 53.4 L-0.85 54.29" stroke="none" stroke-width="0" fill="#1f4d2b"></path><path d="M1.7 0.88 C39.12 -2.59, 79.45 -2.18, 139.12 0.29 M-0.14 -0.66 C27.46 0.51, 56.1 1.86, 140.17 -0.81 M139.75 0.71 C140.62 20.55, 138.54 39.71, 140.67 55.9 M140.35 0.77 C140.65 21.23, 139.05 42.8, 140.17 54.29 M140.5 55.95 C86.01 54.22, 32.5 53.32, 1.69 53.98 M140.09 53.53 C111.11 54.21, 83.37 54.22, -0.7 53.62 M0.33 52.15 C-0.32 42.52, 1.74 30.02, -0.94 -0.47 M-0.07 54.67 C0.23 33.86, -0.79 14.99, -0.27 0.19" stroke="#3fb950" stroke-width="2" fill="none"></path></g><g transform="translate(391.9789435818499 247.773115156536) rotate(0 47.82746124267578 9.375)"><text x="47.82746124267578" y="NaN" font-family="Virgil, Segoe UI Emoji" font-size="15px" fill="#ffffff" text-anchor="middle" style="white-space: pre;" direction="ltr">Smart Watch</text></g><g transform="translate(368.19550949811514 293.95563733468947) rotate(0 27.696487426757812 16.25)"><text x="0" y="NaN" font-family="Virgil, Segoe UI Emoji" font-size="13px" fill="#8b949e" text-anchor="start" style="white-space: pre;" direction="ltr">needs </text><text x="0" y="NaN" font-family="Virgil, Segoe UI Emoji" font-size="13px" fill="#8b949e" text-anchor="start" style="white-space: pre;" direction="ltr">~0.5 KB</text></g><g stroke-linecap="round" transform="translate(529.8064048245257 230.148115156536) rotate(0 70 27)"><path d="M0.53 0.07 L141.47 -1.75 L140.83 52.68 L0.2 52.57" stroke="none" stroke-width="0" fill="#1f4d2b"></path><path d="M1.73 1.24 C47.78 0.56, 96.78 0.26, 138.65 1.44 M0.02 -0.23 C35.51 1.54, 69.49 0.97, 140.21 -0.1 M141.04 -1.91 C139.46 15.08, 140.98 32.37, 140.28 52.99 M140.76 -0.75 C138.87 14.07, 139.03 27.85, 140.19 54.75 M141 54.9 C95.81 55.82, 51.66 54.47, -0.02 52.51 M139.76 53.1 C112.02 55.8, 82.36 54.04, -0.79 54.13 M0.97 53.96 C0.13 33.07, 0.32 9.89, -1.79 0.46 M-0.61 54.31 C0.07 43.23, 0.2 31.41, 0.98 0.08" stroke="#3fb950" stroke-width="2" fill="none"></path></g><g transform="translate(553.8389441922014 247.773115156536) rotate(0 45.96746063232422 9.375)"><text x="45.96746063232422" y="NaN" font-family="Virgil, Segoe UI Emoji" font-size="15px" fill="#ffffff" text-anchor="middle" style="white-space: pre;" direction="ltr">Partner API</text></g><g transform="translate(502.5961318132962 291.4254774356585) rotate(0 45.460968017578125 16.25)"><text x="0" y="NaN" font-family="Virgil, Segoe UI Emoji" font-size="13px" fill="#8b949e" text-anchor="start" style="white-space: pre;" direction="ltr">needs ~6 KB </text><text x="0" y="NaN" font-family="Virgil, Segoe UI Emoji" font-size="13px" fill="#8b949e" text-anchor="start" style="white-space: pre;" direction="ltr">(stable)</text></g><g stroke-linecap="round" transform="translate(59.80640482452566 435.148115156536) rotate(0 300 30)"><path d="M0.58 -1.6 L600.05 1.83 L599.24 61.32 L-1.44 58.8" stroke="none" stroke-width="0" fill="#4a1219"></path><path d="M-0.73 -0.27 C161.11 -1.47, 322.08 -0.3, 600.4 -0.2 M0.36 0.26 C162.31 -2.09, 324.09 -1.67, 600.27 0.36 M598.25 -0.6 C601.47 21.58, 599.63 39.35, 601.13 61.74 M600.46 0.03 C600.46 21.34, 599.64 40.2, 599.33 60.83 M600.3 59.9 C448.52 61.91, 297.37 61.54, 0.72 59.34 M599.6 60.1 C435.23 61.33, 270.44 61.31, 0.13 59.78 M-1.7 58.77 C1.65 42.54, 1.16 25.44, 0.8 -0.78 M0.61 60.54 C0.58 40.23, 0.71 20.83, -0.69 0.08" stroke="#f85149" stroke-width="3" fill="none"></path></g><g transform="translate(204.7324912503069 454.523115156536) rotate(0 155.07391357421875 10.625)"><text x="155.07391357421875" y="NaN" font-family="Virgil, Segoe UI Emoji" font-size="17px" fill="#ffffff" text-anchor="middle" style="white-space: pre;" direction="ltr">Shared REST API  (general purpose)</text></g><g stroke-linecap="round"><g transform="translate(119.80677891282514 428.648115156536) rotate(0 0.006530064949913594 -69.25)"><path d="M-0.78 -0.79 C-0.71 -24.08, 0.77 -116.26, 0.89 -139.27 M1 1.41 C0.96 -21.78, 0.71 -114.95, 0.4 -138.14" stroke="#f85149" stroke-width="4" fill="none"></path></g><g transform="translate(119.80677891282514 428.648115156536) rotate(0 0.006530064949913594 -69.25)"><path d="M9.55 -108.57 C5.95 -119.68, 3.12 -130.71, 2.07 -136.4 M11.84 -110.07 C8.06 -118.75, 5.24 -125.9, -0.47 -137.51" stroke="#f85149" stroke-width="4" fill="none"></path></g><g transform="translate(119.80677891282514 428.648115156536) rotate(0 0.006530064949913594 -69.25)"><path d="M-10.97 -108.42 C-7.67 -119.45, -3.61 -130.53, 2.07 -136.4 M-8.68 -109.92 C-6.56 -118.64, -3.48 -125.84, -0.47 -137.51" stroke="#f85149" stroke-width="4" fill="none"></path></g></g><g transform="translate(55.80640482452566 350.148115156536) rotate(0 21.1724853515625 9.375)"><text x="0" y="NaN" font-family="Virgil, Segoe UI Emoji" font-size="15px" fill="#f85149" text-anchor="start" style="white-space: pre;" direction="ltr">12 KB</text></g><g stroke-linecap="round"><g transform="translate(279.8069638007251 428.648115156536) rotate(0 0.006441459503065516 -69.25)"><path d="M-0.87 -0.93 C-1.11 -24.03, -1.12 -114.66, -0.99 -137.74 M0.88 1.2 C0.96 -22.32, 1.49 -116.17, 1.2 -139.47" stroke="#f85149" stroke-width="4" fill="none"></path></g><g transform="translate(279.8069638007251 428.648115156536) rotate(0 0.006441459503065516 -69.25)"><path d="M9.97 -112.97 C9.09 -121, 2.82 -130.38, 1.13 -139.04 M11.28 -110.42 C9.16 -118.7, 6.01 -128.15, 0.28 -140.39" stroke="#f85149" stroke-width="4" fill="none"></path></g><g transform="translate(279.8069638007251 428.648115156536) rotate(0 0.006441459503065516 -69.25)"><path d="M-10.55 -112.92 C-4.51 -120.82, -3.86 -130.22, 1.13 -139.04 M-9.24 -110.38 C-5.38 -118.85, -2.55 -128.31, 0.28 -140.39" stroke="#f85149" stroke-width="4" fill="none"></path></g></g><g transform="translate(215.80640482452566 350.148115156536) rotate(0 21.1724853515625 9.375)"><text x="0" y="NaN" font-family="Virgil, Segoe UI Emoji" font-size="15px" fill="#f85149" text-anchor="start" style="white-space: pre;" direction="ltr">12 KB</text></g><g stroke-linecap="round"><g transform="translate(439.80696380511284 428.648115156536) rotate(0 0.0064414574002569225 -69.25)"><path d="M0.41 -0.97 C0.63 -24.16, 0.42 -116.32, 0.46 -139.39 M-0.83 1.13 C-0.66 -21.9, -0.43 -115.04, -0.25 -138.31" stroke="#f85149" stroke-width="4" fill="none"></path></g><g transform="translate(439.80696380511284 428.648115156536) rotate(0 0.0064414574002569225 -69.25)"><path d="M8.26 -109.32 C6.12 -115.44, 3.79 -124.43, -1.87 -138.46 M8.99 -111 C8.09 -115.16, 5.52 -122.67, 0.54 -139.12" stroke="#f85149" stroke-width="4" fill="none"></path></g><g transform="translate(439.80696380511284 428.648115156536) rotate(0 0.0064414574002569225 -69.25)"><path d="M-12.26 -109.42 C-9.66 -115.58, -7.25 -124.55, -1.87 -138.46 M-11.53 -111.1 C-8.01 -115.42, -6.14 -122.91, 0.54 -139.12" stroke="#f85149" stroke-width="4" fill="none"></path></g></g><g transform="translate(375.80640482452566 350.148115156536) rotate(0 21.1724853515625 9.375)"><text x="0" y="NaN" font-family="Virgil, Segoe UI Emoji" font-size="15px" fill="#f85149" text-anchor="start" style="white-space: pre;" direction="ltr">12 KB</text></g><g stroke-linecap="round"><g transform="translate(599.8067789148743 428.648115156536) rotate(0 0.006530063968000377 -69.25)"><path d="M0.32 0.8 C0.28 -22.43, 1.13 -115.69, 0.9 -139.09 M-0.97 0.17 C-1.19 -22.93, 0.04 -114.69, 0.41 -137.87" stroke="#f85149" stroke-width="4" fill="none"></path></g><g transform="translate(599.8067789148743 428.648115156536) rotate(0 0.006530063968000377 -69.25)"><path d="M11.61 -108.06 C5.34 -122.43, 0.58 -130.15, -0.62 -136.38 M9.89 -109.91 C7.18 -118.89, 3.52 -129.86, 0.02 -137.81" stroke="#f85149" stroke-width="4" fill="none"></path></g><g transform="translate(599.8067789148743 428.648115156536) rotate(0 0.006530063968000377 -69.25)"><path d="M-8.91 -108.35 C-7.11 -122.66, -3.79 -130.26, -0.62 -136.38 M-10.63 -110.2 C-6.29 -119.05, -2.91 -129.92, 0.02 -137.81" stroke="#f85149" stroke-width="4" fill="none"></path></g></g><g transform="translate(535.8064048245257 350.148115156536) rotate(0 21.1724853515625 9.375)"><text x="0" y="NaN" font-family="Virgil, Segoe UI Emoji" font-size="15px" fill="#f85149" text-anchor="start" style="white-space: pre;" direction="ltr">12 KB</text></g><g transform="translate(44.80640482452566 399.148115156536) rotate(0 122.11488342285156 8.75)"><text x="0" y="NaN" font-family="Virgil, Segoe UI Emoji" font-size="14px" fill="#f85149" text-anchor="start" style="white-space: pre;" direction="ltr">OVER-FETCH for every small client.</text></g><g stroke-opacity="0.85" fill-opacity="0.85" stroke-linecap="round" transform="translate(72.80640482452566 605.148115156536) rotate(0 65 25)"><path d="M1.26 1.73 L129.14 1.82 L130.52 49.76 L0.47 50.06" stroke="none" stroke-width="0" fill="#0d2c5a"></path><path d="M-1.9 0.05 C38.25 -2.01, 77.59 0.73, 129.03 0.43 M-0.43 -0.27 C37.74 0.74, 73.45 -0.17, 129.76 -0.95 M130.01 -1.63 C129.82 17.07, 129.15 31.85, 131.44 51.22 M129.06 -0.16 C130.06 9.95, 130.74 20.87, 130.69 50.8 M131.42 50.61 C95.78 50.88, 58.92 50.07, -0.14 51.55 M129.25 49.68 C84.85 49.49, 42.25 50.42, 0.96 49.39 M-0.88 48.47 C-1.55 31.69, 0.29 12.62, 0.95 1.26 M-0.4 49.18 C-0.27 37.61, -0.02 25.99, 0.53 -0.02" stroke="#58a6ff" stroke-width="2" fill="none"></path></g><g transform="translate(109.33743357208425 621.398115156536) rotate(0 28.468971252441406 8.75)"><text x="28.468971252441406" y="NaN" font-family="Virgil, Segoe UI Emoji" font-size="14px" fill="#ffffff" text-anchor="middle" style="white-space: pre;" direction="ltr">user-svc</text></g><g stroke-linecap="round"><g transform="translate(137.80695411705952 501.64811515653594) rotate(0 0.005864463661580999 48.75000000000003)"><path d="M-0.36 0.86 C-0.57 16.99, -1.31 80.62, -1.06 96.6 M1.65 0.27 C1.78 16.54, 1.21 81.43, 1.09 97.66" stroke="#c9d1d9" stroke-width="1.5" fill="none"></path></g><g transform="translate(137.80695411705952 501.64811515653594) rotate(0 0.005864463661580999 48.75000000000003)"><path d="M-7.51 67.61 C-7.31 80.24, -3.93 88.68, 0.64 97.96 M-9.38 69.98 C-5.71 80.9, -0.41 90.71, 1.3 96.71" stroke="#c9d1d9" stroke-width="1.5" fill="none"></path></g><g transform="translate(137.80695411705952 501.64811515653594) rotate(0 0.005864463661580999 48.75000000000003)"><path d="M13.02 67.77 C6.71 80.29, 3.58 88.67, 0.64 97.96 M11.14 70.14 C7.07 81.14, 4.62 90.89, 1.3 96.71" stroke="#c9d1d9" stroke-width="1.5" fill="none"></path></g></g><g stroke-opacity="0.85" fill-opacity="0.85" stroke-linecap="round" transform="translate(220.80640482452566 605.148115156536) rotate(0 65 25)"><path d="M-0.03 0.94 L130.66 -0.47 L128.54 49.72 L0.21 50.07" stroke="none" stroke-width="0" fill="#0d2c5a"></path><path d="M1.47 1.7 C37.04 -1.49, 72.96 0.65, 128.1 1.18 M0.76 -0.98 C39.17 0.08, 79.33 -0.4, 130.87 0.31 M130.63 1.62 C129.25 16.87, 129 30.72, 131.02 50.94 M130.16 0.03 C130.02 15.96, 130.55 32.26, 129.18 49.64 M128.23 49.35 C84.35 48.73, 40.54 50.92, -0.08 50.29 M130.82 50.94 C85.38 50.69, 42.42 50.34, -0.41 50.24 M0.46 49.86 C0.15 33.55, 0.64 22.35, 0.21 -1.79 M0.83 50.64 C-0.09 39.16, -0.39 27.81, -0.96 0.81" stroke="#58a6ff" stroke-width="2" fill="none"></path></g><g transform="translate(245.92043375518972 621.398115156536) rotate(0 39.88597106933594 8.75)"><text x="39.88597106933594" y="NaN" font-family="Virgil, Segoe UI Emoji" font-size="14px" fill="#ffffff" text-anchor="middle" style="white-space: pre;" direction="ltr">catalog-svc</text></g><g stroke-linecap="round"><g transform="translate(285.8071974453344 501.64811515653605) rotate(0 0.0057498525176242765 48.74999999999997)"><path d="M0.73 0.45 C0.79 16.64, 1.31 81.58, 1 97.71 M-0.35 -0.35 C-0.42 15.4, 0.32 79.23, 0.57 95.7" stroke="#c9d1d9" stroke-width="1.5" fill="none"></path></g><g transform="translate(285.8071974453344 501.64811515653605) rotate(0 0.0057498525176242765 48.74999999999997)"><path d="M-9.3 69.28 C-5.82 75.54, -2.82 85.5, -0.4 94.3 M-10.54 66.84 C-5.36 78.08, -1.82 88.74, -0.4 94.82" stroke="#c9d1d9" stroke-width="1.5" fill="none"></path></g><g transform="translate(285.8071974453344 501.64811515653605) rotate(0 0.0057498525176242765 48.74999999999997)"><path d="M11.22 69.02 C7.45 75.5, 3.2 85.55, -0.4 94.3 M9.98 66.58 C7.24 78.02, 2.87 88.78, -0.4 94.82" stroke="#c9d1d9" stroke-width="1.5" fill="none"></path></g></g><g stroke-opacity="0.85" fill-opacity="0.85" stroke-linecap="round" transform="translate(368.80640482452566 605.148115156536) rotate(0 65 25)"><path d="M-1.06 -0.96 L128.6 -0.05 L129.98 48.83 L0.89 48.85" stroke="none" stroke-width="0" fill="#0d2c5a"></path><path d="M0.03 1.44 C40.14 1.83, 77.79 1.68, 129.79 -0.33 M-0.53 0.62 C37.2 -0.53, 73.48 0.26, 129.26 0.34 M129.77 -1.51 C128.5 12.14, 128.53 25.87, 128.68 49.01 M130.48 0.67 C130.52 12.31, 130.61 25.94, 129.5 50.44 M130.15 49.82 C90.71 49.2, 52.92 49.77, -0.92 51.81 M129.2 49.96 C99.61 50.05, 70.67 50.19, -0.45 50.73 M1.72 51.4 C-1.31 38.06, 1.48 25.95, 1.68 -0.87 M0 49.83 C0.02 33.02, 0.42 17.06, 0.72 0.48" stroke="#58a6ff" stroke-width="2" fill="none"></path></g><g transform="translate(402.8734366848772 621.398115156536) rotate(0 30.932968139648438 8.75)"><text x="30.932968139648438" y="NaN" font-family="Virgil, Segoe UI Emoji" font-size="14px" fill="#ffffff" text-anchor="middle" style="white-space: pre;" direction="ltr">billing-svc</text></g><g stroke-linecap="round"><g transform="translate(433.80719745304515 501.64811515653594) rotate(0 0.005749848885784559 48.75000000000003)"><path d="M0.98 0.93 C0.81 17.15, -1 82.14, -0.98 98.36 M0.04 0.38 C0.23 16.78, 1.07 80.69, 1.21 96.69" stroke="#c9d1d9" stroke-width="1.5" fill="none"></path></g><g transform="translate(433.80719745304515 501.64811515653594) rotate(0 0.005749848885784559 48.75000000000003)"><path d="M-7.81 66.97 C-4.48 78.83, -1.38 84.61, 0.1 98.51 M-8.8 69.14 C-4.68 79.41, -0.49 89.68, 0.62 97.08" stroke="#c9d1d9" stroke-width="1.5" fill="none"></path></g><g transform="translate(433.80719745304515 501.64811515653594) rotate(0 0.005749848885784559 48.75000000000003)"><path d="M12.71 66.74 C9.83 78.84, 6.72 84.69, 0.1 98.51 M11.72 68.91 C8.2 79.26, 4.74 89.62, 0.62 97.08" stroke="#c9d1d9" stroke-width="1.5" fill="none"></path></g></g><g stroke-opacity="0.85" fill-opacity="0.85" stroke-linecap="round" transform="translate(516.8064048245257 605.148115156536) rotate(0 65 25)"><path d="M1.53 1.34 L128.89 -0.35 L128.68 49.74 L-0.84 49.46" stroke="none" stroke-width="0" fill="#0d2c5a"></path><path d="M0.06 -0.31 C27.01 -0.73, 58.95 -1.04, 131.34 1.65 M0.49 0.75 C32.92 0.23, 66.36 0.1, 129.44 0.23 M129.07 1.63 C128.7 18.01, 129.54 30.31, 130.55 50.43 M130.18 -0.99 C129.91 12.38, 130.73 25.83, 130.85 50.55 M129.71 50.43 C102.66 47.94, 76.81 49.61, 1.78 48.76 M130.16 49.92 C81.19 48.67, 31.12 48.73, -0.49 49.31 M-1.7 50.99 C0.44 38.5, 1.58 26.35, -0.84 0.17 M0.3 50.64 C-0.3 39.11, -0.12 27.7, 0.26 0.95" stroke="#58a6ff" stroke-width="2" fill="none"></path></g><g transform="translate(553.7994315579241 621.398115156536) rotate(0 28.006973266601562 8.75)"><text x="28.006973266601562" y="NaN" font-family="Virgil, Segoe UI Emoji" font-size="14px" fill="#ffffff" text-anchor="middle" style="white-space: pre;" direction="ltr">recs-svc</text></g><g stroke-linecap="round"><g transform="translate(581.8069541213935 501.648115156536) rotate(0 0.00586446162020593 48.75)"><path d="M0.05 -0.54 C-0.19 15.86, -0.52 81.46, -0.39 97.98 M-1.39 1.79 C-1.91 17.86, -1.86 80.27, -1.54 96.11" stroke="#c9d1d9" stroke-width="1.5" fill="none"></path></g><g transform="translate(581.8069541213935 501.648115156536) rotate(0 0.00586446162020593 48.75)"><path d="M-12.94 67.34 C-7.27 80.24, -2.22 90.81, -2.16 96.5 M-11.47 67.01 C-8.77 77.5, -4.79 86.19, -2.14 95.81" stroke="#c9d1d9" stroke-width="1.5" fill="none"></path></g><g transform="translate(581.8069541213935 501.648115156536) rotate(0 0.00586446162020593 48.75)"><path d="M7.58 67.17 C5.31 80.14, 2.42 90.78, -2.16 96.5 M9.05 66.84 C4.73 77.53, 1.7 86.27, -2.14 95.81" stroke="#c9d1d9" stroke-width="1.5" fill="none"></path></g></g><g stroke-opacity="0.7" fill-opacity="0.7" stroke-linecap="round" transform="translate(740.040869960923 104.34987345637182) rotate(0 350 346.1355753862699)"><path d="M1.38 -1.84 L700.73 -1.77 L698.81 691.06 L0.17 690.86" stroke="none" stroke-width="0" fill="#181825"></path><path d="M-0.65 -0.28 C184.65 0.49, 370.62 0.99, 699.35 -0.12 M699.89 0.37 C699.71 260.29, 700.55 519.45, 699.26 692.79 M700.55 693.03 C482.36 692.21, 263.76 692.89, 0.21 691.8 M0.79 692.78 C-1.39 544.18, -0.73 397.66, 0.6 0.09" stroke="#45475a" stroke-width="2.5" fill="none" stroke-dasharray="8 10"></path></g><g transform="translate(44.80640482452566 735.148115156536) rotate(0 242.2977752685547 17.5)"><text x="0" y="NaN" font-family="Virgil, Segoe UI Emoji" font-size="14px" fill="#c9d1d9" text-anchor="start" style="white-space: pre;" direction="ltr">Pain:  every schema change must be reviewed by every consumer team.</text><text x="0" y="NaN" font-family="Virgil, Segoe UI Emoji" font-size="14px" fill="#c9d1d9" text-anchor="start" style="white-space: pre;" direction="ltr">Bottleneck is cross-team coordination, not bandwidth.</text></g><g transform="translate(754.8064048245257 127.148115156536) rotate(0 75.98795318603516 13.75)"><text x="0" y="NaN" font-family="Virgil, Segoe UI Emoji" font-size="22px" fill="#3fb950" text-anchor="start" style="white-space: pre;" direction="ltr">BFF per client</text></g><g transform="translate(754.6672663441433 167.148115156536) rotate(0 228.16477966308594 18.75)"><text x="0" y="NaN" font-family="Virgil, Segoe UI Emoji" font-size="15px" fill="#8b949e" text-anchor="start" style="white-space: pre;" direction="ltr">Each client gets its own backend, owned by the same team.  </text><text x="0" y="NaN" font-family="Virgil, Segoe UI Emoji" font-size="15px" fill="#8b949e" text-anchor="start" style="white-space: pre;" direction="ltr">Tailored shape, no cross-team coordination.</text></g><g stroke-linecap="round" transform="translate(774.8064048245257 230.148115156536) rotate(0 70 27)"><path d="M1.51 1.27 L139.77 1.72 L140.44 52.32 L1.53 52.24" stroke="none" stroke-width="0" fill="#1f4d2b"></path><path d="M-1.55 -0.25 C29.56 0.73, 60.83 0.84, 141.17 -0.65 M0.09 0.56 C51.98 0.8, 104.87 1.01, 139.53 0.98 M141.31 -0.08 C138.76 14.05, 139.09 31.22, 139.83 55.28 M140.88 0.19 C140.19 21.23, 139.72 41.39, 139.22 54.55 M139.31 52.71 C100.99 51.94, 59.5 54.61, 1.66 52.5 M139.36 54.78 C104.2 55.18, 69.17 54.81, 0.6 54.4 M0.96 54.59 C0.78 35.63, -1.97 21.75, 1.37 -0.89 M-0.72 54.86 C-0.12 41.87, -0.28 30.46, 0.8 0.27" stroke="#3fb950" stroke-width="2" fill="none"></path></g><g transform="translate(807.3139426663225 247.773115156536) rotate(0 37.492462158203125 9.375)"><text x="37.492462158203125" y="NaN" font-family="Virgil, Segoe UI Emoji" font-size="15px" fill="#ffffff" text-anchor="middle" style="white-space: pre;" direction="ltr">Mobile App</text></g><g transform="translate(774.8064048245257 290.148115156536) rotate(0 22.054489135742188 16.25)"><text x="0" y="NaN" font-family="Virgil, Segoe UI Emoji" font-size="13px" fill="#8b949e" text-anchor="start" style="white-space: pre;" direction="ltr">needs </text><text x="0" y="NaN" font-family="Virgil, Segoe UI Emoji" font-size="13px" fill="#8b949e" text-anchor="start" style="white-space: pre;" direction="ltr">~2 KB</text></g><g stroke-linecap="round" transform="translate(934.8064048245257 230.148115156536) rotate(0 70 27)"><path d="M-1.16 0.47 L140.8 -0.55 L141.78 55.03 L-1.64 52.85" stroke="none" stroke-width="0" fill="#1f4d2b"></path><path d="M-0.7 0.09 C34.07 1.48, 66.26 -1.15, 141.95 -1.8 M-0.32 -0.43 C34.64 -0.22, 68.66 -0.46, 139.46 -0.52 M140.04 -1.04 C139.65 16.88, 141.47 38.28, 141.01 54.37 M140.46 -0.88 C140.33 12.98, 139.44 25.86, 140.77 54.13 M140.58 55.47 C97.03 54.59, 58.12 52.84, 1.71 53.9 M139 54.92 C101.05 52.72, 61.11 53.09, -0.57 54.75 M0.29 54.06 C0.98 34.23, -0.69 17.52, 1.26 1.45 M-0.71 53.79 C1.28 37.67, -0.3 23.22, 0.35 -0.27" stroke="#3fb950" stroke-width="2" fill="none"></path></g><g transform="translate(973.111428017885 247.773115156536) rotate(0 31.694976806640625 9.375)"><text x="31.694976806640625" y="NaN" font-family="Virgil, Segoe UI Emoji" font-size="15px" fill="#ffffff" text-anchor="middle" style="white-space: pre;" direction="ltr">Web SPA</text></g><g transform="translate(934.8064048245257 290.148115156536) rotate(0 23.659988403320312 16.25)"><text x="0" y="NaN" font-family="Virgil, Segoe UI Emoji" font-size="13px" fill="#8b949e" text-anchor="start" style="white-space: pre;" direction="ltr">needs </text><text x="0" y="NaN" font-family="Virgil, Segoe UI Emoji" font-size="13px" fill="#8b949e" text-anchor="start" style="white-space: pre;" direction="ltr">~10 KB</text></g><g stroke-linecap="round" transform="translate(1094.8064048245255 230.148115156536) rotate(0 70 27)"><path d="M0.91 0.57 L141.16 1.37 L139.58 54.91 L0.47 53.64" stroke="none" stroke-width="0" fill="#1f4d2b"></path><path d="M-0.11 0.57 C37.41 -1.64, 74.21 0.54, 140.71 -0.87 M-0.62 -0.92 C29.17 1.64, 56.97 1.34, 139.19 -0.47 M138.63 0.24 C138.05 22.86, 138.34 42.62, 138.51 54.54 M139.56 -0.95 C139.39 13.49, 140.04 26.5, 139.39 53.77 M140.35 52.68 C96.62 54.49, 51.69 53.11, 0.04 55.12 M139.49 54.46 C99.79 53.57, 58.87 53.49, -0.94 54.56 M-0.82 52.25 C1.62 35.97, 1.52 22.94, 1.76 0.08 M-0.97 53.29 C0.14 37.51, -0.16 21.33, 0.33 -0.77" stroke="#3fb950" stroke-width="2" fill="none"></path></g><g transform="translate(1116.9789435818498 247.773115156536) rotate(0 47.82746124267578 9.375)"><text x="47.82746124267578" y="NaN" font-family="Virgil, Segoe UI Emoji" font-size="15px" fill="#ffffff" text-anchor="middle" style="white-space: pre;" direction="ltr">Smart Watch</text></g><g transform="translate(1094.7517873828465 290.09349771485705) rotate(0 27.696487426757812 16.25)"><text x="0" y="NaN" font-family="Virgil, Segoe UI Emoji" font-size="13px" fill="#8b949e" text-anchor="start" style="white-space: pre;" direction="ltr">needs </text><text x="0" y="NaN" font-family="Virgil, Segoe UI Emoji" font-size="13px" fill="#8b949e" text-anchor="start" style="white-space: pre;" direction="ltr">~0.5 KB</text></g><g stroke-linecap="round" transform="translate(1254.8064048245255 230.148115156536) rotate(0 70 27)"><path d="M-1.83 1.78 L140.32 -0.63 L141.22 55.88 L-1.78 53.23" stroke="none" stroke-width="0" fill="#1f4d2b"></path><path d="M-0.17 -1.65 C48.37 0.95, 97.62 1.42, 140.01 -1.33 M-0.81 0.95 C30.76 -2.28, 63.52 -1.77, 139.83 0.18 M139.74 1.97 C140.06 16.21, 138.87 29.86, 139.58 53.39 M140.65 -0.33 C138.79 11.2, 140.52 21.2, 139.67 54.59 M139.8 53.19 C93.87 54.51, 43.56 52.74, 1.64 53.33 M139.01 53.9 C110.33 54.8, 83.53 53.82, 0.5 54.14 M0.02 52.13 C-0.4 35.66, -1.44 18.19, 0.28 -0.24 M0.06 53.98 C0.16 34.89, 0.76 15.94, 0.96 0.7" stroke="#3fb950" stroke-width="2" fill="none"></path></g><g transform="translate(1278.8389441922013 247.773115156536) rotate(0 45.96746063232422 9.375)"><text x="45.96746063232422" y="NaN" font-family="Virgil, Segoe UI Emoji" font-size="15px" fill="#ffffff" text-anchor="middle" style="white-space: pre;" direction="ltr">Partner API</text></g><g transform="translate(1226.794704655027 289.688271534658) rotate(0 45.460968017578125 16.25)"><text x="0" y="NaN" font-family="Virgil, Segoe UI Emoji" font-size="13px" fill="#8b949e" text-anchor="start" style="white-space: pre;" direction="ltr">needs ~6 KB </text><text x="0" y="NaN" font-family="Virgil, Segoe UI Emoji" font-size="13px" fill="#8b949e" text-anchor="start" style="white-space: pre;" direction="ltr">(stable)</text></g><g stroke-linecap="round" transform="translate(774.8064048245257 405.148115156536) rotate(0 70 28)"><path d="M-0.45 0.52 L141.74 -0.29 L141.32 57.12 L-1.54 56.75" stroke="none" stroke-width="0" fill="#3a1d6e"></path><path d="M1.42 -0.14 C46.23 -0.49, 93.75 2.79, 141.21 -0.6 M-0.59 -0.5 C49.97 1.57, 100.17 1.16, 140.1 0.67 M139.55 0.93 C137.93 18.66, 137.84 40.59, 138.46 55.19 M139.25 -0.65 C139.95 18.79, 140.38 38.11, 139.91 55.12 M141.97 55.78 C87.14 57.3, 30.95 56.46, 1.01 54.07 M139.49 56.39 C102.32 55.64, 64.21 54.25, -0.8 55.62 M0.89 57.91 C-1.59 41.85, -0.04 29.97, 1.4 1.14 M-0.5 56.06 C0.06 39.81, 0.22 23.03, -0.07 0.81" stroke="#a371f7" stroke-width="2" fill="none"></path></g><g transform="translate(808.1824271633928 424.398115156536) rotate(0 36.62397766113281 8.75)"><text x="36.62397766113281" y="NaN" font-family="Virgil, Segoe UI Emoji" font-size="14px" fill="#ffffff" text-anchor="middle" style="white-space: pre;" direction="ltr">Mobile BFF</text></g><g stroke-linecap="round"><g transform="translate(844.8204048245257 399.148115156536) rotate(0 0 -54.5)"><path d="M-0.6 -0.2 C-0.65 -18.43, -1.08 -91.2, -1.12 -109.42 M1.28 -1.34 C1.66 -19.41, 0.95 -90.25, 1.01 -108.1" stroke="#3fb950" stroke-width="3" fill="none"></path></g><g transform="translate(844.8204048245257 399.148115156536) rotate(0 0 -54.5)"><path d="M11.05 -81.8 C8.31 -87.81, 5.8 -91.33, 1.59 -108.62 M12.26 -79.13 C8.41 -89.62, 4.69 -99.84, 1.85 -107.71" stroke="#3fb950" stroke-width="3" fill="none"></path></g><g transform="translate(844.8204048245257 399.148115156536) rotate(0 0 -54.5)"><path d="M-9.47 -81.73 C-7.51 -87.65, -5.32 -91.19, 1.59 -108.62 M-8.26 -79.05 C-5.06 -89.61, -1.74 -99.86, 1.85 -107.71" stroke="#3fb950" stroke-width="3" fill="none"></path></g></g><g transform="translate(792.8064048245257 335.148115156536) rotate(0 19.139991760253906 9.375)"><text x="0" y="NaN" font-family="Virgil, Segoe UI Emoji" font-size="15px" fill="#3fb950" text-anchor="start" style="white-space: pre;" direction="ltr">2 KB</text></g><g stroke-linecap="round" transform="translate(934.8064048245257 405.148115156536) rotate(0 70 28)"><path d="M0.27 -0.66 L139.07 -0.23 L139.63 57.78 L1.56 55.66" stroke="none" stroke-width="0" fill="#3a1d6e"></path><path d="M-1.49 -0.19 C38.24 0.21, 74.97 -0.79, 139.42 -0.22 M0.95 0.82 C41.55 0.4, 84.55 0.83, 139.97 0.35 M138.18 0.2 C139.26 15.96, 138.65 29.86, 141.5 54.16 M139.01 0.71 C140.64 11.53, 140.2 22.32, 140.39 55.85 M140.98 54.9 C88.73 54.2, 36.03 57.3, -0.29 56.77 M139.54 55.71 C103.04 54.85, 65.68 55.12, 0.66 55.37 M0.99 54.62 C-0.57 32.49, 0.3 13.35, -1.7 -0.3 M0.49 55.85 C0.6 34.04, -0.15 11.55, -0.28 -0.35" stroke="#a371f7" stroke-width="2" fill="none"></path></g><g transform="translate(975.5744178250139 424.398115156536) rotate(0 29.23198699951172 8.75)"><text x="29.23198699951172" y="NaN" font-family="Virgil, Segoe UI Emoji" font-size="14px" fill="#ffffff" text-anchor="middle" style="white-space: pre;" direction="ltr">Web BFF</text></g><g stroke-linecap="round"><g transform="translate(1004.8204048245256 399.148115156536) rotate(0 0 -54.5)"><path d="M-1.1 -0.53 C-1.35 -18.73, -0.69 -90.76, -0.7 -108.83 M0.52 1.81 C0.59 -16.21, 1.54 -88.97, 1.64 -107.21" stroke="#3fb950" stroke-width="3" fill="none"></path></g><g transform="translate(1004.8204048245256 399.148115156536) rotate(0 0 -54.5)"><path d="M10.74 -80.09 C8.16 -91.31, 4.33 -101.07, 3.34 -106.6 M10.93 -79.02 C9.96 -85.36, 7.03 -93.67, 1.82 -106.77" stroke="#3fb950" stroke-width="3" fill="none"></path></g><g transform="translate(1004.8204048245256 399.148115156536) rotate(0 0 -54.5)"><path d="M-9.78 -80.29 C-4.84 -91.25, -1.17 -100.93, 3.34 -106.6 M-9.59 -79.22 C-5.19 -85.5, -2.75 -93.76, 1.82 -106.77" stroke="#3fb950" stroke-width="3" fill="none"></path></g></g><g transform="translate(952.8064048245257 335.148115156536) rotate(0 20.99248504638672 9.375)"><text x="0" y="NaN" font-family="Virgil, Segoe UI Emoji" font-size="15px" fill="#3fb950" text-anchor="start" style="white-space: pre;" direction="ltr">10 KB</text></g><g stroke-linecap="round" transform="translate(1094.8064048245255 405.148115156536) rotate(0 70 28)"><path d="M1.36 -0.48 L141.7 1.02 L139.61 54.59 L-0.01 55.79" stroke="none" stroke-width="0" fill="#3a1d6e"></path><path d="M1.89 0.22 C53.43 -1.81, 104.7 0.56, 141.92 -1.85 M-0.18 -0.46 C35.64 -0.39, 71.9 0.61, 139.42 0.54 M138.76 0.54 C138.83 19.36, 141.95 36.02, 139.95 54.62 M140.59 -0.88 C140.5 18.27, 139.92 38.54, 139.3 56.18 M140.73 54.5 C88.98 57.88, 39.56 58.4, 1.11 56.29 M139.12 56.7 C102.15 57.09, 64.75 57.76, 0.2 56.1 M1.81 57.7 C0.72 42.28, -0.07 28.02, 1.59 -1.57 M-0.91 56.87 C0.08 35.86, 0.65 14.83, -0.02 0.68" stroke="#a371f7" stroke-width="2" fill="none"></path></g><g transform="translate(1127.363426919252 424.398115156536) rotate(0 37.44297790527344 8.75)"><text x="37.44297790527344" y="NaN" font-family="Virgil, Segoe UI Emoji" font-size="14px" fill="#ffffff" text-anchor="middle" style="white-space: pre;" direction="ltr">Watch BFF</text></g><g stroke-linecap="round"><g transform="translate(1164.8204048245257 399.148115156536) rotate(0 0 -54.5)"><path d="M-0.03 0.58 C-0.07 -17.86, -0.09 -92.02, 0.01 -110.2 M-1.5 -0.17 C-1.72 -18.54, -1.21 -90.88, -0.93 -109.29" stroke="#3fb950" stroke-width="3" fill="none"></path></g><g transform="translate(1164.8204048245257 399.148115156536) rotate(0 0 -54.5)"><path d="M10 -80.98 C3.75 -89.09, 3.37 -97.35, -1.84 -107.4 M9.96 -81.8 C6.03 -89.46, 1.67 -98.27, -1.22 -108.82" stroke="#3fb950" stroke-width="3" fill="none"></path></g><g transform="translate(1164.8204048245257 399.148115156536) rotate(0 0 -54.5)"><path d="M-10.52 -81.19 C-10.19 -89.22, -3.99 -97.42, -1.84 -107.4 M-10.56 -82.01 C-8.07 -89.67, -6.01 -98.41, -1.22 -108.82" stroke="#3fb950" stroke-width="3" fill="none"></path></g></g><g transform="translate(1107.8064048245255 335.148115156536) rotate(0 25.649978637695312 9.375)"><text x="0" y="NaN" font-family="Virgil, Segoe UI Emoji" font-size="15px" fill="#3fb950" text-anchor="start" style="white-space: pre;" direction="ltr">0.5 KB</text></g><g stroke-linecap="round" transform="translate(1254.8064048245255 405.148115156536) rotate(0 70 28)"><path d="M-1.85 0.72 L138.67 -0.87 L138.82 55.59 L-0.59 57.84" stroke="none" stroke-width="0" fill="#3a1d6e"></path><path d="M-1.38 0.14 C27.43 1.1, 58.52 0.96, 140.8 1.04 M-0.74 -0.17 C48.98 -0.53, 96.76 0.53, 139.52 0.06 M140.8 -1.67 C140.88 23.19, 140.58 44.38, 141.22 57.65 M139.67 -0.22 C140.6 22.62, 139.81 44.04, 139.61 55.52 M139.42 56.43 C98.28 55.52, 57.68 56.09, -1.61 56.82 M140.22 56.35 C106.58 56.12, 72.01 55.55, 0.43 56.78 M-1.59 55.67 C-1.05 32.4, -1.26 10.91, 1.13 -1.37 M-0.68 55.47 C-0.16 43.26, 0.79 31.63, 0.18 -0.61" stroke="#a371f7" stroke-width="2" fill="none"></path></g><g transform="translate(1281.8124396755998 424.398115156536) rotate(0 42.99396514892578 8.75)"><text x="42.99396514892578" y="NaN" font-family="Virgil, Segoe UI Emoji" font-size="14px" fill="#ffffff" text-anchor="middle" style="white-space: pre;" direction="ltr">Partner BFF</text></g><g stroke-linecap="round"><g transform="translate(1324.8204048245257 399.148115156536) rotate(0 0 -54.5)"><path d="M0.93 1.11 C0.76 -17.06, 0.14 -91.42, -0.15 -109.77 M-0.04 0.65 C-0.46 -17.32, -1.45 -90.58, -1.17 -108.64" stroke="#3fb950" stroke-width="3" fill="none"></path></g><g transform="translate(1324.8204048245257 399.148115156536) rotate(0 0 -54.5)"><path d="M10.99 -80.71 C4.16 -92.28, 1.57 -101.48, -0.03 -110.59 M10.13 -80.44 C6.47 -86.04, 4.34 -92.83, -0.61 -108.56" stroke="#3fb950" stroke-width="3" fill="none"></path></g><g transform="translate(1324.8204048245257 399.148115156536) rotate(0 0 -54.5)"><path d="M-9.53 -80.68 C-8.68 -92.42, -3.6 -101.63, -0.03 -110.59 M-10.39 -80.41 C-9.61 -86.21, -7.31 -93, -0.61 -108.56" stroke="#3fb950" stroke-width="3" fill="none"></path></g></g><g transform="translate(1272.8064048245255 335.148115156536) rotate(0 18.599990844726562 9.375)"><text x="0" y="NaN" font-family="Virgil, Segoe UI Emoji" font-size="15px" fill="#3fb950" text-anchor="start" style="white-space: pre;" direction="ltr">6 KB</text></g><g transform="translate(764.8064048245257 369.148115156536) rotate(0 104.65690612792969 8.75)"><text x="0" y="NaN" font-family="Virgil, Segoe UI Emoji" font-size="14px" fill="#3fb950" text-anchor="start" style="white-space: pre;" direction="ltr">TAILORED payload per client.</text></g><g stroke-linecap="round" transform="translate(797.8064048245257 591.148115156536) rotate(0 65 25)"><path d="M-1.18 -1.54 L130.62 -0.87 L130.5 50.02 L0.33 49.75" stroke="none" stroke-width="0" fill="#0d2c5a"></path><path d="M0.35 1.78 C37.87 2.9, 78.59 1.34, 130.33 -0.96 M-0.2 0.41 C43.71 -2.08, 87.04 -1.37, 129.07 -0.65 M130.45 0.32 C130.49 12.73, 129.9 22.81, 131.14 49.18 M129.05 -0.96 C129.85 10.72, 130.23 20.14, 129.36 49.81 M128.89 50.41 C84.18 49.86, 33.51 48.71, -1.94 49.33 M130.92 49.9 C81.7 49.1, 34.25 50.03, -0.24 50.19 M-0.49 48.41 C-0.82 32.69, -2.06 17.6, -0.99 -1.7 M-0.45 50.48 C-0.73 35.35, 0.42 18.97, -0.62 -0.03" stroke="#58a6ff" stroke-width="2" fill="none"></path></g><g transform="translate(834.3374335720843 607.398115156536) rotate(0 28.468971252441406 8.75)"><text x="28.468971252441406" y="NaN" font-family="Virgil, Segoe UI Emoji" font-size="14px" fill="#ffffff" text-anchor="middle" style="white-space: pre;" direction="ltr">user-svc</text></g><g stroke-linecap="round" transform="translate(945.8064048245257 591.148115156536) rotate(0 65 25)"><path d="M-1.9 -1.76 L129.95 -1.86 L131.07 48.45 L0.42 49.61" stroke="none" stroke-width="0" fill="#0d2c5a"></path><path d="M1.84 -0.47 C28.22 2.54, 56.11 2.07, 129.82 -1.77 M0.54 0.69 C44.19 -0.16, 90.47 0.14, 130.22 0.78 M129.98 -1.79 C131.35 13.37, 129.63 29.29, 128.59 50.96 M130.85 0.95 C129.86 12.62, 130.89 24.79, 129.33 49.16 M131.34 50.66 C101.11 50, 74.46 48.02, -0.72 51.29 M130.45 49.44 C99.82 51.19, 71.18 51.83, 0.5 49.02 M-0.62 49.85 C-0.52 35.04, -0.66 17.15, -1.07 0 M0.65 50.02 C0.91 37.63, 0.48 26.92, -0.01 -0.9" stroke="#58a6ff" stroke-width="2" fill="none"></path></g><g transform="translate(970.9204337551897 607.398115156536) rotate(0 39.88597106933594 8.75)"><text x="39.88597106933594" y="NaN" font-family="Virgil, Segoe UI Emoji" font-size="14px" fill="#ffffff" text-anchor="middle" style="white-space: pre;" direction="ltr">catalog-svc</text></g><g stroke-linecap="round" transform="translate(1093.8064048245255 591.148115156536) rotate(0 65 25)"><path d="M1.93 1.13 L131.56 1.12 L129.46 49.23 L1.48 48.01" stroke="none" stroke-width="0" fill="#0d2c5a"></path><path d="M0.13 -1.09 C28.27 2.24, 58.21 -1.08, 129.88 1.44 M-0.31 0.95 C34.04 0.62, 68.72 0.16, 130.08 -0.78 M129.51 -1.78 C127.88 15.46, 130.44 31.53, 128.1 50.46 M129.61 -0.6 C129.36 15.03, 128.72 29.9, 130.51 49.92 M130.83 48.43 C93.93 49.5, 56.47 51.02, 0.12 51.34 M130.31 49.01 C89.39 49.09, 49.45 49.43, -0.92 50.95 M-1.42 50.41 C-0.61 37.58, -1.34 24.92, -0.94 -0.91 M0.22 50.74 C-0.44 31.01, -0.49 10.77, -0.14 0.7" stroke="#58a6ff" stroke-width="2" fill="none"></path></g><g transform="translate(1127.873436684877 607.398115156536) rotate(0 30.932968139648438 8.75)"><text x="30.932968139648438" y="NaN" font-family="Virgil, Segoe UI Emoji" font-size="14px" fill="#ffffff" text-anchor="middle" style="white-space: pre;" direction="ltr">billing-svc</text></g><g stroke-linecap="round" transform="translate(1241.8064048245255 591.148115156536) rotate(0 65 25)"><path d="M-0.45 -0.03 L130.96 -0.59 L128.61 49.38 L0.33 49.6" stroke="none" stroke-width="0" fill="#0d2c5a"></path><path d="M1.68 -0.38 C45.09 0.47, 88.46 -1.19, 131.37 1.05 M0.7 0.93 C46.35 1.98, 93.85 0.53, 130.63 0.59 M130.58 1.99 C128.22 19.26, 127.8 37.21, 130.44 49.2 M129.77 -0.46 C129.16 20.49, 129.1 38.94, 130.67 50.68 M128.41 50.52 C87.75 49.44, 46.71 49.63, 0.28 49.31 M129.7 49.36 C83.14 50.33, 36.02 51.53, 0.52 49.73 M-0.56 50.75 C-0.66 41.4, 1.28 29.59, -0.83 -0.74 M-0.45 49.06 C0.43 35.64, 0.76 21, -0.52 0.55" stroke="#58a6ff" stroke-width="2" fill="none"></path></g><g transform="translate(1278.799431557924 607.398115156536) rotate(0 28.006973266601562 8.75)"><text x="28.006973266601562" y="NaN" font-family="Virgil, Segoe UI Emoji" font-size="14px" fill="#ffffff" text-anchor="middle" style="white-space: pre;" direction="ltr">recs-svc</text></g><g stroke-linecap="round"><g transform="translate(845.6511279014487 467.148115156536) rotate(0 8.168776923076962 59)"><path d="M-0.98 0.58 C1.77 20.44, 12.57 98.8, 15.44 118.38 M0.71 -0.17 C3.92 19.4, 15.22 96.53, 17.69 116.46" stroke="#c9d1d9" stroke-width="1.3" fill="none"></path></g><g transform="translate(845.6511279014487 467.148115156536) rotate(0 8.168776923076962 59)"><path d="M4.66 88.43 C7.12 95.56, 9.57 99.52, 18.95 117.56 M4.59 89.87 C8.41 99.53, 14.3 110.63, 17.55 116.23" stroke="#c9d1d9" stroke-width="1.3" fill="none"></path></g><g transform="translate(845.6511279014487 467.148115156536) rotate(0 8.168776923076962 59)"><path d="M24.99 85.65 C23.13 93.2, 21.29 97.75, 18.95 117.56 M24.92 87.09 C20.84 97.85, 18.81 110.03, 17.55 116.23" stroke="#c9d1d9" stroke-width="1.3" fill="none"></path></g></g><g stroke-linecap="round"><g transform="translate(852.481897132218 467.148115156536) rotate(0 75.33800769230777 59)"><path d="M-0.6 -0.81 C24.55 19.14, 125.37 99.14, 150.76 119.08 M1.29 1.39 C26.29 21.08, 124.82 98.27, 149.85 117.52" stroke="#c9d1d9" stroke-width="1.3" fill="none"></path></g><g transform="translate(852.481897132218 467.148115156536) rotate(0 75.33800769230777 59)"><path d="M119.96 108.46 C131.39 112.9, 139.33 114.92, 149.61 116.49 M121.8 107.53 C132.63 112.55, 143.12 116.42, 148.92 116.75" stroke="#c9d1d9" stroke-width="1.3" fill="none"></path></g><g transform="translate(852.481897132218 467.148115156536) rotate(0 75.33800769230777 59)"><path d="M132.55 92.26 C140.23 101.37, 144.48 108.12, 149.61 116.49 M134.39 91.33 C140.45 102.53, 146.11 112.63, 148.92 116.75" stroke="#c9d1d9" stroke-width="1.3" fill="none"></path></g></g><g stroke-linecap="round"><g transform="translate(866.1434355937565 467.148115156536) rotate(0 209.67646923076921 59)"><path d="M0.98 -0.52 C71.05 19.19, 350.34 97.94, 420.03 117.66 M0.04 1.83 C70.04 21.76, 349.74 99.49, 419.43 119.02" stroke="#c9d1d9" stroke-width="1.3" fill="none"></path></g><g transform="translate(866.1434355937565 467.148115156536) rotate(0 209.67646923076921 59)"><path d="M388.66 122.45 C396.94 120.06, 405.17 121.62, 417.5 120.67 M389.22 121.2 C397.24 120.36, 404.41 119.33, 419.31 119.75" stroke="#c9d1d9" stroke-width="1.3" fill="none"></path></g><g transform="translate(866.1434355937565 467.148115156536) rotate(0 209.67646923076921 59)"><path d="M394.18 102.68 C400.89 105.61, 407.64 112.44, 417.5 120.67 M394.74 101.43 C401.53 105.3, 407.39 108.99, 419.31 119.75" stroke="#c9d1d9" stroke-width="1.3" fill="none"></path></g></g><g stroke-linecap="round"><g transform="translate(998.2665125168332 467.148115156536) rotate(0 -64.44660769230768 59)"><path d="M-0.85 0.65 C-22.22 20.65, -108 99.59, -129.45 119.03 M0.91 -0.05 C-20.57 19.72, -108.76 97.73, -130.69 117.45" stroke="#c9d1d9" stroke-width="1.3" fill="none"></path></g><g transform="translate(998.2665125168332 467.148115156536) rotate(0 -64.44660769230768 59)"><path d="M-115.39 90.11 C-117.82 95.15, -123.53 103, -132.37 119.15 M-116.62 90.32 C-121.78 100.37, -126.76 110.72, -131.32 117.78" stroke="#c9d1d9" stroke-width="1.3" fill="none"></path></g><g transform="translate(998.2665125168332 467.148115156536) rotate(0 -64.44660769230768 59)"><path d="M-101.73 105.43 C-106.77 107.3, -115.22 112.08, -132.37 119.15 M-102.96 105.64 C-113.32 110.11, -123.34 114.8, -131.32 117.78" stroke="#c9d1d9" stroke-width="1.3" fill="none"></path></g></g><g stroke-linecap="round"><g transform="translate(1005.0972817476023 467.148115156536) rotate(0 2.7226230769232416 59)"><path d="M-0.71 -0.76 C0.13 19.09, 3.93 98.73, 4.86 118.5 M1.12 1.46 C2.38 20.99, 6.81 97.03, 7.27 116.64" stroke="#c9d1d9" stroke-width="1.3" fill="none"></path></g><g transform="translate(1005.0972817476023 467.148115156536) rotate(0 2.7226230769232416 59)"><path d="M-5.47 87.95 C-0.24 95.95, 1.96 104.87, 8.95 115.14 M-3.22 89.79 C-0.2 98.5, 3.22 109.57, 6.4 117.49" stroke="#c9d1d9" stroke-width="1.3" fill="none"></path></g><g transform="translate(1005.0972817476023 467.148115156536) rotate(0 2.7226230769232416 59)"><path d="M15.04 87.06 C14.44 95.2, 10.81 104.36, 8.95 115.14 M17.29 88.9 C12.6 97.97, 8.32 109.36, 6.4 117.49" stroke="#c9d1d9" stroke-width="1.3" fill="none"></path></g></g><g stroke-linecap="round"><g transform="translate(1011.9280509783717 467.148115156536) rotate(0 69.89185384615394 59)"><path d="M0.66 -1.14 C23.91 18.76, 117.03 99.21, 140.25 118.91 M-0.46 0.87 C22.62 20.49, 116.25 97.77, 139.55 117.27" stroke="#c9d1d9" stroke-width="1.3" fill="none"></path></g><g transform="translate(1011.9280509783717 467.148115156536) rotate(0 69.89185384615394 59)"><path d="M109.41 107.93 C122.97 111.01, 130.04 114.21, 139.08 117.27 M112.04 106.92 C120.35 110.11, 131.57 114.64, 140.09 117.62" stroke="#c9d1d9" stroke-width="1.3" fill="none"></path></g><g transform="translate(1011.9280509783717 467.148115156536) rotate(0 69.89185384615394 59)"><path d="M122.52 92.15 C131.29 100.98, 133.64 109.87, 139.08 117.27 M125.15 91.14 C128.82 99.69, 135.53 109.63, 140.09 117.62" stroke="#c9d1d9" stroke-width="1.3" fill="none"></path></g></g><g stroke-linecap="round"><g transform="translate(1018.7588202091409 467.148115156536) rotate(0 137.06108461538474 59)"><path d="M0.24 0.77 C45.84 20.42, 228.29 97.64, 274.05 117.3 M-1.1 0.13 C44.31 19.98, 227.15 99.03, 273.07 118.47" stroke="#c9d1d9" stroke-width="1.3" fill="none"></path></g><g transform="translate(1018.7588202091409 467.148115156536) rotate(0 137.06108461538474 59)"><path d="M244.41 116.68 C251.99 118.43, 264.44 117.39, 272.69 120.37 M242.67 116.57 C252.53 116.51, 263.23 117.12, 273.65 117.65" stroke="#c9d1d9" stroke-width="1.3" fill="none"></path></g><g transform="translate(1018.7588202091409 467.148115156536) rotate(0 137.06108461538474 59)"><path d="M252.49 97.82 C257.27 105.91, 267.01 111.2, 272.69 120.37 M250.75 97.7 C257.96 103.99, 265.95 110.92, 273.65 117.65" stroke="#c9d1d9" stroke-width="1.3" fill="none"></path></g></g><g stroke-linecap="round"><g transform="translate(1150.881897132218 467.148115156536) rotate(0 -137.06199230769232 59)"><path d="M-0.31 1.15 C-45.86 21.12, -227.64 99.74, -273.32 119.17 M1.73 0.71 C-43.91 20.43, -227.67 97.96, -273.85 117.66" stroke="#c9d1d9" stroke-width="1.3" fill="none"></path></g><g transform="translate(1150.881897132218 467.148115156536) rotate(0 -137.06199230769232 59)"><path d="M-249.98 98.54 C-256.66 102.81, -265.71 107.68, -273.79 116.07 M-251.66 98.1 C-259.92 105.09, -268.5 112.41, -273.93 118.62" stroke="#c9d1d9" stroke-width="1.3" fill="none"></path></g><g transform="translate(1150.881897132218 467.148115156536) rotate(0 -137.06199230769232 59)"><path d="M-241.97 117.44 C-250.96 116, -262.42 115.19, -273.79 116.07 M-243.65 116.99 C-255.01 116.63, -266.68 116.65, -273.93 118.62" stroke="#c9d1d9" stroke-width="1.3" fill="none"></path></g></g><g stroke-linecap="round"><g transform="translate(1157.712666362987 467.148115156536) rotate(0 -69.89276153846151 59)"><path d="M0.35 -0.87 C-22.96 18.6, -117.31 97.25, -140.5 117.15 M-0.93 1.29 C-23.79 20.86, -115.14 99.04, -138.16 118.24" stroke="#c9d1d9" stroke-width="1.3" fill="none"></path></g><g transform="translate(1157.712666362987 467.148115156536) rotate(0 -69.89276153846151 59)"><path d="M-124.72 91.01 C-128.28 100.3, -129.63 103.41, -137.96 119.86 M-123.23 92.96 C-128.45 100.27, -133.36 109.03, -137.43 118.63" stroke="#c9d1d9" stroke-width="1.3" fill="none"></path></g><g transform="translate(1157.712666362987 467.148115156536) rotate(0 -69.89276153846151 59)"><path d="M-111.46 106.67 C-118.33 112.15, -122.93 111.4, -137.96 119.86 M-109.97 108.62 C-119.35 110.93, -128.42 114.79, -137.43 118.63" stroke="#c9d1d9" stroke-width="1.3" fill="none"></path></g></g><g stroke-linecap="round"><g transform="translate(1303.4972817476023 467.148115156536) rotate(0 -209.6773769230768 59)"><path d="M-1.09 0.72 C-71.03 20.48, -350.43 97.76, -420.15 117.38 M0.54 0.05 C-68.98 20.07, -347.73 99.22, -417.85 118.59" stroke="#c9d1d9" stroke-width="1.3" fill="none"></path></g><g transform="translate(1303.4972817476023 467.148115156536) rotate(0 -209.6773769230768 59)"><path d="M-392.28 99.77 C-401.02 105.33, -405.61 109.3, -417.95 120.07 M-392.52 101.56 C-398.87 104.88, -404.62 107.81, -417.26 118.46" stroke="#c9d1d9" stroke-width="1.3" fill="none"></path></g><g transform="translate(1303.4972817476023 467.148115156536) rotate(0 -209.6773769230768 59)"><path d="M-386.74 119.53 C-396.72 119.9, -402.75 118.75, -417.95 120.07 M-386.98 121.31 C-394.6 120.35, -401.55 118.97, -417.26 118.46" stroke="#c9d1d9" stroke-width="1.3" fill="none"></path></g></g><g stroke-linecap="round"><g transform="translate(1317.1588202091407 467.148115156536) rotate(0 -75.33891538461523 59)"><path d="M-0.24 0.18 C-25.09 19.84, -124.65 99.09, -149.61 118.64 M1.83 -0.77 C-23.03 18.47, -124.63 96.96, -149.99 116.85" stroke="#c9d1d9" stroke-width="1.3" fill="none"></path></g><g transform="translate(1317.1588202091407 467.148115156536) rotate(0 -75.33891538461523 59)"><path d="M-133.73 93.23 C-136.88 99.06, -142.84 103.52, -151 116.24 M-134.34 91.8 C-137.32 97.29, -141.28 103.26, -150.98 116.83" stroke="#c9d1d9" stroke-width="1.3" fill="none"></path></g><g transform="translate(1317.1588202091407 467.148115156536) rotate(0 -75.33891538461523 59)"><path d="M-121.14 109.43 C-127.58 111.12, -136.74 111.46, -151 116.24 M-121.74 108 C-127.67 109.86, -134.43 112.23, -150.98 116.83" stroke="#c9d1d9" stroke-width="1.3" fill="none"></path></g></g><g transform="translate(764.8064048245257 735.148115156536) rotate(0 334.375732421875 8.75)"><text x="0" y="NaN" font-family="Virgil, Segoe UI Emoji" font-size="14px" fill="#c9d1d9" text-anchor="start" style="white-space: pre;" direction="ltr">Win:  each team ships independently.  BFFs are TRANSLATION ONLY — never own business logic.</text></g><g transform="translate(14.806404824525657 815.148115156536) rotate(0 566.279541015625 9.375)"><text x="0" y="NaN" font-family="Virgil, Segoe UI Emoji" font-size="15px" fill="#f0b070" text-anchor="start" style="white-space: pre;" direction="ltr">Anchor:  Watch payload shrinks 12 KB → 0.5 KB  (24×).  Mobile shrinks 12 KB → 2 KB  (6×).  Web stays ~the same but is no longer coupled to mobile.</text></g><g transform="translate(81.70335272598652 677.353549542082) rotate(0 67.07996368408203 10)"><text x="0" y="NaN" font-family="Virgil, Segoe UI Emoji" font-size="16px" fill="#c9d1d9" text-anchor="start" style="white-space: pre;" direction="ltr">Backend Services</text></g><g transform="translate(809.0477022639651 659.6888589911725) rotate(0 67.07996368408203 10)"><text x="0" y="NaN" font-family="Virgil, Segoe UI Emoji" font-size="16px" fill="#c9d1d9" text-anchor="start" style="white-space: pre;" direction="ltr">Backend Services</text></g></svg>