<svg version="1.1" xmlns="http://www.w3.org/2000/svg" viewBox="0 0 1301.5083911801353 657.4653509869087" width="1301.5083911801353" height="657.4653509869087">
  <!-- svg-source:excalidraw -->
  
  <defs>
    <style>
      @font-face {
        font-family: "Virgil";
        src: url("https://excalidraw.com/Virgil.woff2");
      }
      @font-face {
        font-family: "Cascadia";
        src: url("https://excalidraw.com/Cascadia.woff2");
      }
    </style>
  </defs>
  <rect x="0" y="0" width="1301.5083911801353" height="657.4653509869087" fill="#1e1e2e"></rect><g transform="translate(10 10) rotate(0 362.8948974609375 18.75)"><text x="0" y="NaN" font-family="Virgil, Segoe UI Emoji" font-size="30px" fill="#ffffff" text-anchor="start" style="white-space: pre;" direction="ltr">RPO and RTO Choose the Recovery Architecture</text></g><g transform="translate(10 50) rotate(0 367.0318298339844 15)"><text x="0" y="NaN" font-family="Virgil, Segoe UI Emoji" font-size="24px" fill="#cdd6f4" text-anchor="start" style="white-space: pre;" direction="ltr">Zero loss and zero downtime force the most expensive shape.</text></g><g transform="translate(225.161918744317 617.4653509869087) rotate(0 77.09996032714844 15)"><text x="0" y="NaN" font-family="Virgil, Segoe UI Emoji" font-size="24px" fill="#cdd6f4" text-anchor="start" style="white-space: pre;" direction="ltr">Low downtime</text></g><g transform="translate(1122.3457181675117 614.0737415309029) rotate(0 77.13595581054688 15)"><text x="0" y="NaN" font-family="Virgil, Segoe UI Emoji" font-size="24px" fill="#cdd6f4" text-anchor="start" style="white-space: pre;" direction="ltr">High downtime</text></g><g transform="translate(10 250) rotate(0 85.5959701538086 15)"><text x="0" y="NaN" font-family="Virgil, Segoe UI Emoji" font-size="24px" fill="#cdd6f4" text-anchor="start" style="white-space: pre;" direction="ltr">Low data loss</text></g><g transform="translate(10 510) rotate(0 85.63196563720703 15)"><text x="0" y="NaN" font-family="Virgil, Segoe UI Emoji" font-size="24px" fill="#cdd6f4" text-anchor="start" style="white-space: pre;" direction="ltr">High data loss</text></g><g stroke-linecap="round"><g transform="translate(190 160) rotate(0 0 225)"><path d="M-0.19 -0.75 C-0.04 74.25, 0.42 373.75, 0.27 448.89" stroke="#a6adc8" stroke-width="2.5" fill="none" stroke-dasharray="8 10"></path></g></g><g stroke-linecap="round"><g transform="translate(191.50839118013516 598.8443159295159) rotate(0 550 0)"><path d="M-1.15 0.97 C182.23 1.1, 915.98 -0.1, 1099.64 -0.1" stroke="#a6adc8" stroke-width="2.5" fill="none" stroke-dasharray="8 10"></path></g></g><g stroke-linecap="round" transform="translate(270 200) rotate(0 210 60)"><path d="M1.16 0.12 L421.71 0.04 L421.58 120.87 L0.41 118.79" stroke="none" stroke-width="0" fill="#5b21b6"></path><path d="M-0.81 -0.99 C92.36 -1.13, 183.86 -1.75, 420.48 0.88 M0.11 -0.37 C102.17 0.74, 203.93 1.29, 420.06 -0.24 M419.72 -0.98 C419.75 22.78, 421.5 47.21, 421.49 121.02 M419.99 0.11 C421.56 40.31, 420.94 80.04, 419.98 120.85 M419.35 119.94 C310.39 120.76, 199.19 120.72, -1.05 120.78 M419.96 119.73 C257.9 118.07, 96.53 117.62, 0.07 119.91 M1.66 119.03 C-0.17 74.6, -0.96 27.84, 1.71 -1.59 M0.23 119.87 C0.85 87.07, 0.63 56.17, -0.19 0.99" stroke="#7c3aed" stroke-width="2" fill="none"></path></g><g transform="translate(376.83605194091797 230) rotate(0 103.16394805908203 30)"><text x="103.16394805908203" y="NaN" font-family="Virgil, Segoe UI Emoji" font-size="24px" fill="#ffffff" text-anchor="middle" style="white-space: pre;" direction="ltr">Sync replication +</text><text x="103.16394805908203" y="NaN" font-family="Virgil, Segoe UI Emoji" font-size="24px" fill="#ffffff" text-anchor="middle" style="white-space: pre;" direction="ltr">warm standby</text></g><g stroke-linecap="round" transform="translate(810 200) rotate(0 210 60)"><path d="M1.95 -1.04 L419.8 -0.33 L418.09 121.33 L-1.74 121.85" stroke="none" stroke-width="0" fill="#b45309"></path><path d="M0.11 0.04 C92.02 1.55, 183.27 2.11, 419.63 -0.83 M0.48 -0.09 C119.51 -1.4, 239.89 -1.45, 420.51 -0.51 M418.79 -0.48 C420.84 29.44, 419.97 56.33, 420.27 119.28 M420.58 0.51 C418.4 33.01, 419.83 64.92, 420.8 119.55 M420.48 119.71 C296.19 120.5, 173.2 119.88, 0.91 120.35 M420.02 119.58 C278.04 118.86, 136.78 118.12, 0 119.96 M0.22 118.47 C-0.99 74.71, -1.25 30.53, -1.11 0 M0.66 119.87 C-0.18 72.46, -1.38 25.77, 0.69 0.96" stroke="#d97706" stroke-width="2" fill="none"></path></g><g transform="translate(906.5880584716797 230) rotate(0 113.41194152832031 30)"><text x="113.41194152832031" y="NaN" font-family="Virgil, Segoe UI Emoji" font-size="24px" fill="#ffffff" text-anchor="middle" style="white-space: pre;" direction="ltr">Backups +</text><text x="113.41194152832031" y="NaN" font-family="Virgil, Segoe UI Emoji" font-size="24px" fill="#ffffff" text-anchor="middle" style="white-space: pre;" direction="ltr">automated restore</text></g><g stroke-linecap="round" transform="translate(270 420) rotate(0 210 60)"><path d="M-1.25 1.81 L421.89 -0.71 L418.6 121.8 L0.11 120.92" stroke="none" stroke-width="0" fill="#1e40af"></path><path d="M1.02 1.07 C91.68 -0.25, 182.68 1.49, 420.92 -0.41 M-0.21 0.19 C137.91 0.95, 275.85 1.36, 419.89 0.3 M421.87 0.02 C420.33 32.1, 420.84 65.45, 419.05 121.54 M419.18 0.91 C419.64 25.7, 419.11 49.81, 419.61 120.26 M419.47 119.49 C284.13 120.25, 147.2 119.05, 0.73 119.92 M420.08 120.49 C298.18 118.59, 177.03 118.63, -0.06 120 M-1.23 121.91 C2.19 78.82, -1.53 37.23, 0.08 1.59 M-0.9 119.87 C-0.81 81.85, -1 43.36, -0.43 0.94" stroke="#3b82f6" stroke-width="2" fill="none"></path></g><g transform="translate(390.5520553588867 450) rotate(0 89.44794464111328 30)"><text x="89.44794464111328" y="NaN" font-family="Virgil, Segoe UI Emoji" font-size="24px" fill="#ffffff" text-anchor="middle" style="white-space: pre;" direction="ltr">Async replica +</text><text x="89.44794464111328" y="NaN" font-family="Virgil, Segoe UI Emoji" font-size="24px" fill="#ffffff" text-anchor="middle" style="white-space: pre;" direction="ltr">manual failover</text></g><g stroke-linecap="round" transform="translate(810 420) rotate(0 210 60)"><path d="M-0.45 0.65 L419.98 -1.09 L419.1 118.27 L1.96 119.98" stroke="none" stroke-width="0" fill="#9f1239"></path><path d="M-0.2 -0.04 C91.34 0.09, 184.23 0.87, 420.07 0.01 M0.17 0.48 C155.25 -0.12, 310.75 -0.32, 420.34 0.03 M420.94 0.53 C417.42 38.76, 419.32 74.57, 421.83 119.8 M419.77 -0.68 C420.88 42.4, 420.4 82.69, 420.42 120.96 M420.59 119.26 C269.93 119.99, 121.21 120.35, 0.56 119.49 M420.14 120.34 C318.32 119.38, 217.27 119.13, -0.13 120.05 M1.33 121.34 C1.37 82.93, 2.18 43.92, 1.26 -0.83 M-0.47 119.86 C0.57 89.24, 1.39 60.95, 0.45 0.92" stroke="#e11d48" stroke-width="2" fill="none"></path></g><g transform="translate(931.4280471801758 450) rotate(0 88.57195281982422 30)"><text x="88.57195281982422" y="NaN" font-family="Virgil, Segoe UI Emoji" font-size="24px" fill="#ffffff" text-anchor="middle" style="white-space: pre;" direction="ltr">Daily backup +</text><text x="88.57195281982422" y="NaN" font-family="Virgil, Segoe UI Emoji" font-size="24px" fill="#ffffff" text-anchor="middle" style="white-space: pre;" direction="ltr">manual restore</text></g></svg>