<svg version="1.1" xmlns="http://www.w3.org/2000/svg" viewBox="0 0 1420 540" width="1420" height="540">
  <!-- svg-source:excalidraw -->
  
  <defs>
    <style>
      @font-face {
        font-family: "Virgil";
        src: url("https://excalidraw.com/Virgil.woff2");
      }
      @font-face {
        font-family: "Cascadia";
        src: url("https://excalidraw.com/Cascadia.woff2");
      }
    </style>
  </defs>
  <rect x="0" y="0" width="1420" height="540" fill="#1e1e2e"></rect><g transform="translate(10 10) rotate(0 338.25 19.950000000000003)"><text x="0" y="NaN" font-family="Virgil, Segoe UI Emoji" font-size="30px" fill="#ffffff" text-anchor="start" style="white-space: pre;" direction="ltr">Operations Stack for a Production Service</text></g><g transform="translate(10 50) rotate(0 481.8 16)"><text x="0" y="NaN" font-family="Virgil, Segoe UI Emoji" font-size="24px" fill="#cdd6f4" text-anchor="start" style="white-space: pre;" direction="ltr">Observe the system, turn it into SLOs, then route incidents with context.</text></g><g stroke-linecap="round" transform="translate(30 270) rotate(0 90 45)"><path d="M-1.24 -0.41 L179.43 1.18 L180.06 89.46 L-1.15 91.59" stroke="none" stroke-width="0" fill="#5b21b6"></path><path d="M1.34 0.36 C38.63 -0.85, 79.19 -0.66, 181.65 -0.7 M0.09 -0.28 C56.59 2.63, 113.16 1.09, 179.6 -0.97 M178.5 1.52 C181.84 25.89, 179.44 54.05, 181.14 88.23 M180.2 0.91 C180.01 28.48, 181.26 57.89, 179.54 90.74 M180.47 91.17 C112.58 88.89, 48.63 88.07, -0.99 89.89 M179.58 90.35 C120.69 91.33, 60.91 90.12, 0.49 89.59 M1.98 90.72 C0.86 64.42, -1.54 42.05, -1.84 1.65 M0.92 89.88 C-0.88 65.42, -0.13 38.43, -0.83 -0.94" stroke="#7c3aed" stroke-width="2" fill="none"></path></g><g transform="translate(48 300) rotate(0 72 16)"><text x="72" y="NaN" font-family="Virgil, Segoe UI Emoji" font-size="24px" fill="#ffffff" text-anchor="middle" style="white-space: pre;" direction="ltr">Service</text></g><g stroke-linecap="round" transform="translate(270 270) rotate(0 90 45)"><path d="M-0.44 -1.57 L181.52 0.8 L180.57 89.93 L0.7 90.66" stroke="none" stroke-width="0" fill="#2d6a4f"></path><path d="M-0.95 -1.71 C37.99 0.75, 78.07 -0.85, 180.07 0.09 M0.8 0.25 C65.15 0.7, 128.71 0.02, 180.44 0.53 M181.57 -1.98 C179.2 31.5, 178.19 61.06, 179.92 90.49 M180.79 -0.69 C179.26 23.07, 178.55 46.56, 180.36 89.44 M178.58 90.75 C109 88.46, 37.98 90.56, -1.32 89.08 M179.69 90.07 C129.18 90.27, 77.84 90.51, 0.37 89.67 M0.54 90.16 C-0.12 67.73, -1.99 47.16, -0.66 -0.77 M-0.65 89.88 C0.26 70.64, 0.02 51.68, 0.05 -0.96" stroke="#40916c" stroke-width="2" fill="none"></path></g><g transform="translate(288 300) rotate(0 72 16)"><text x="72" y="NaN" font-family="Virgil, Segoe UI Emoji" font-size="24px" fill="#ffffff" text-anchor="middle" style="white-space: pre;" direction="ltr">RED metrics</text></g><g stroke-linecap="round" transform="translate(510 270) rotate(0 90 45)"><path d="M0.36 1.28 L179.62 0.42 L181.07 90.4 L-1.44 89.72" stroke="none" stroke-width="0" fill="#1e40af"></path><path d="M0.77 0.21 C37.35 -1.66, 76.95 -1.04, 178.48 0.87 M-0.5 0.78 C71.72 -1.23, 144.25 -1.04, 179.28 0.04 M180.65 -1.48 C182.37 33.11, 182.74 64.08, 178.71 88.76 M179.39 -0.29 C180.31 35.66, 179.65 71.24, 179.17 90.15 M180.68 90.32 C137.41 88.04, 95.33 89.05, -1.65 88.27 M179.8 89.78 C137.68 91.21, 96.78 90.91, 0.25 89.75 M-0.9 89.6 C-1.11 71.05, 1.57 52.26, 0.53 0.82 M-0.21 89.88 C-0.4 59.85, 0.38 28.92, 0.93 -0.99" stroke="#3b82f6" stroke-width="2" fill="none"></path></g><g transform="translate(528 285) rotate(0 72 30)"><text x="72" y="NaN" font-family="Virgil, Segoe UI Emoji" font-size="24px" fill="#ffffff" text-anchor="middle" style="white-space: pre;" direction="ltr">DB / Cache /</text><text x="72" y="NaN" font-family="Virgil, Segoe UI Emoji" font-size="24px" fill="#ffffff" text-anchor="middle" style="white-space: pre;" direction="ltr">Queue metrics</text></g><g stroke-linecap="round" transform="translate(750 270) rotate(0 90 45)"><path d="M1.16 0.12 L181.71 0.04 L181.58 90.87 L0.41 88.79" stroke="none" stroke-width="0" fill="#9f1239"></path><path d="M-1.52 -1.86 C40.71 -0.06, 79.84 -1.23, 180.89 1.66 M0.2 -0.69 C44.28 0.45, 87.8 1.49, 180.12 -0.46 M179.72 -0.98 C179.74 16.72, 181.49 35.1, 181.49 91.02 M179.99 0.11 C181.37 30.25, 180.75 59.92, 179.98 90.85 M178.79 89.89 C133.83 91.62, 84.68 91.54, -1.97 91.47 M179.92 89.49 C110.17 88.55, 41.71 87.71, 0.13 89.84 M1.66 89.03 C0.11 56.37, -0.68 21.37, 1.71 -1.59 M0.23 89.87 C0.75 65.07, 0.53 42.16, -0.19 0.99" stroke="#e11d48" stroke-width="2" fill="none"></path></g><g transform="translate(768 285) rotate(0 72 30)"><text x="72" y="NaN" font-family="Virgil, Segoe UI Emoji" font-size="24px" fill="#ffffff" text-anchor="middle" style="white-space: pre;" direction="ltr">SLOs + error</text><text x="72" y="NaN" font-family="Virgil, Segoe UI Emoji" font-size="24px" fill="#ffffff" text-anchor="middle" style="white-space: pre;" direction="ltr">budget</text></g><g stroke-linecap="round" transform="translate(990 270) rotate(0 90 45)"><path d="M1.95 -1.04 L179.8 -0.33 L178.09 91.33 L-1.74 91.85" stroke="none" stroke-width="0" fill="#b45309"></path><path d="M0.2 0.07 C40.08 1.14, 78.72 2.18, 179.3 -1.56 M0.91 -0.17 C50.85 -1.48, 103.34 -1.58, 180.96 -0.95 M178.79 -0.48 C181.1 22.33, 180.24 42.12, 180.27 89.28 M180.58 0.51 C178.62 24.84, 180.05 48.6, 180.8 89.55 M180.89 89.46 C126.25 91.19, 74.03 90.03, 1.7 90.66 M180.03 89.2 C118.67 89.49, 58.65 88.1, 0.01 89.92 M0.22 88.47 C-0.88 55.69, -1.13 22.48, -1.11 0 M0.66 89.87 C0.09 54.28, -1.12 19.41, 0.69 0.96" stroke="#d97706" stroke-width="2" fill="none"></path></g><g transform="translate(1008 285) rotate(0 72 30)"><text x="72" y="NaN" font-family="Virgil, Segoe UI Emoji" font-size="24px" fill="#ffffff" text-anchor="middle" style="white-space: pre;" direction="ltr">Alerts +</text><text x="72" y="NaN" font-family="Virgil, Segoe UI Emoji" font-size="24px" fill="#ffffff" text-anchor="middle" style="white-space: pre;" direction="ltr">runbooks</text></g><g stroke-linecap="round" transform="translate(1230 270) rotate(0 90 45)"><path d="M-1.25 1.81 L181.89 -0.71 L178.6 91.8 L0.11 90.92" stroke="none" stroke-width="0" fill="#9f1239"></path><path d="M1.91 2 C39.44 -1.27, 77.6 1.99, 181.72 -0.77 M-0.39 0.36 C59.41 0.19, 118.89 0.96, 179.8 0.56 M181.87 0.02 C180.27 23.94, 180.79 49.14, 179.05 91.54 M179.18 0.91 C179.67 19.43, 179.15 37.27, 179.61 90.26 M179 89.04 C122.67 90.77, 63.38 88.51, 1.37 89.85 M180.14 90.92 C127.16 88.43, 75.58 88.5, -0.12 90.01 M-1.23 91.91 C2.14 59, -1.58 27.59, 0.08 1.59 M-0.9 89.87 C-0.77 61.5, -0.96 32.65, -0.43 0.94" stroke="#e11d48" stroke-width="2" fill="none"></path></g><g transform="translate(1248 270) rotate(0 72 45)"><text x="72" y="NaN" font-family="Virgil, Segoe UI Emoji" font-size="24px" fill="#ffffff" text-anchor="middle" style="white-space: pre;" direction="ltr">Triage,</text><text x="72" y="NaN" font-family="Virgil, Segoe UI Emoji" font-size="24px" fill="#ffffff" text-anchor="middle" style="white-space: pre;" direction="ltr">rollback,</text><text x="72" y="NaN" font-family="Virgil, Segoe UI Emoji" font-size="24px" fill="#ffffff" text-anchor="middle" style="white-space: pre;" direction="ltr">recovery</text></g><g stroke-linecap="round" transform="translate(630 440) rotate(0 120 45)"><path d="M-0.45 0.65 L239.98 -1.09 L239.1 88.27 L1.96 89.98" stroke="none" stroke-width="0" fill="#5b21b6"></path><path d="M-0.31 -0.06 C51.96 0.24, 106.32 1.46, 240.11 0.01 M0.26 0.74 C88.33 0.12, 177.06 -0.19, 240.53 0.05 M240.94 0.53 C237.64 29.56, 239.54 56.16, 241.83 89.8 M239.77 -0.68 C240.72 32.03, 240.24 61.95, 240.42 90.96 M240.92 88.84 C153.84 90.21, 69.8 90.76, 0.87 89.21 M240.21 90.52 C181.37 89.36, 123.75 88.97, -0.2 90.07 M1.33 91.34 C1.15 62.32, 1.97 32.7, 1.26 -0.83 M-0.47 89.86 C0.37 66.71, 1.19 45.89, 0.45 0.92" stroke="#7c3aed" stroke-width="2" fill="none"></path></g><g transform="translate(648 455) rotate(0 102 30)"><text x="102" y="NaN" font-family="Virgil, Segoe UI Emoji" font-size="24px" fill="#ffffff" text-anchor="middle" style="white-space: pre;" direction="ltr">Logs + traces</text><text x="102" y="NaN" font-family="Virgil, Segoe UI Emoji" font-size="24px" fill="#ffffff" text-anchor="middle" style="white-space: pre;" direction="ltr">add context</text></g><g stroke-linecap="round"><g transform="translate(210 315) rotate(0 30 0)"><path d="M-0.95 -1.16 C8.98 -1.43, 48.9 -0.84, 58.92 -0.78 M0.76 0.84 C11.1 0.63, 50.91 0.48, 61.06 0.35" stroke="#3b82f6" stroke-width="2" fill="none"></path></g><g transform="translate(210 315) rotate(0 30 0)"><path d="M31.02 9.03 C38.47 7.14, 45.33 7.13, 60.83 0.77 M33.62 10.58 C40.91 8.32, 50.48 4.16, 61.87 1.06" stroke="#3b82f6" stroke-width="2" fill="none"></path></g><g transform="translate(210 315) rotate(0 30 0)"><path d="M30.86 -11.49 C38.5 -8.36, 45.4 -3.34, 60.83 0.77 M33.46 -9.94 C40.81 -5.98, 50.42 -3.92, 61.87 1.06" stroke="#3b82f6" stroke-width="2" fill="none"></path></g></g><g stroke-linecap="round"><g transform="translate(450 315) rotate(0 30 0)"><path d="M0.5 0.55 C10.72 0.42, 50.6 0.31, 60.7 0.23 M-0.7 -0.2 C9.49 -0.21, 49.85 -2.04, 60.11 -1.77" stroke="#3b82f6" stroke-width="2" fill="none"></path></g><g transform="translate(450 315) rotate(0 30 0)"><path d="M32.99 10.04 C39.23 7.97, 45.84 5.02, 61.09 -2.96 M31.09 7.89 C41.96 6.06, 49.75 3.05, 59.34 -1.31" stroke="#3b82f6" stroke-width="2" fill="none"></path></g><g transform="translate(450 315) rotate(0 30 0)"><path d="M32.71 -10.48 C39.2 -7.52, 45.88 -5.44, 61.09 -2.96 M30.8 -12.63 C41.94 -7.8, 49.82 -4.14, 59.34 -1.31" stroke="#3b82f6" stroke-width="2" fill="none"></path></g></g><g stroke-linecap="round"><g transform="translate(690 315) rotate(0 30 0)"><path d="M-0.46 -0.13 C9.66 -0.14, 49.9 -1.34, 60.08 -1.16 M1.5 -1.25 C11.53 -1.05, 49.4 -0.29, 59.17 -0.23" stroke="#3b82f6" stroke-width="2" fill="none"></path></g><g transform="translate(690 315) rotate(0 30 0)"><path d="M30.62 9.76 C35.94 8.3, 46.37 6.66, 57.35 0.97 M30.21 9.92 C40.99 6.27, 51.13 2.73, 58.82 -0.02" stroke="#3b82f6" stroke-width="2" fill="none"></path></g><g transform="translate(690 315) rotate(0 30 0)"><path d="M30.9 -10.76 C35.96 -7.19, 46.33 -3.81, 57.35 0.97 M30.49 -10.6 C41.09 -7.15, 51.13 -3.59, 58.82 -0.02" stroke="#3b82f6" stroke-width="2" fill="none"></path></g></g><g stroke-linecap="round"><g transform="translate(930 315) rotate(0 30 0)"><path d="M0.98 -0.82 C11 -0.69, 49.6 -0.19, 59.45 -0.15 M0.04 1.37 C9.91 1.77, 48.33 1.47, 58.22 1.31" stroke="#3b82f6" stroke-width="2" fill="none"></path></g><g transform="translate(930 315) rotate(0 30 0)"><path d="M28.78 10.96 C36.85 9.19, 42.98 4.48, 57.61 0.9 M29.86 11.41 C40.17 8.01, 50.47 3.44, 58.29 1.27" stroke="#3b82f6" stroke-width="2" fill="none"></path></g><g transform="translate(930 315) rotate(0 30 0)"><path d="M28.56 -9.56 C36.52 -6.31, 42.71 -5.99, 57.61 0.9 M29.64 -9.11 C40.1 -4.98, 50.48 -2.01, 58.29 1.27" stroke="#3b82f6" stroke-width="2" fill="none"></path></g></g><g stroke-linecap="round"><g transform="translate(1170 315) rotate(0 30 0)"><path d="M0.03 0.9 C9.94 1.16, 48.91 0.96, 58.83 0.86 M-1.42 0.32 C8.91 0.32, 50.93 -1.05, 60.93 -0.82" stroke="#3b82f6" stroke-width="2" fill="none"></path></g><g transform="translate(1170 315) rotate(0 30 0)"><path d="M34.33 7.75 C41.21 6.42, 47.11 2.82, 61.52 1.17 M32.91 10.5 C43.04 5.6, 55.59 2.26, 61.42 -1.1" stroke="#3b82f6" stroke-width="2" fill="none"></path></g><g transform="translate(1170 315) rotate(0 30 0)"><path d="M34.14 -12.77 C40.95 -9.08, 46.89 -7.64, 61.52 1.17 M32.72 -10.02 C42.75 -6.94, 55.37 -2.31, 61.42 -1.1" stroke="#3b82f6" stroke-width="2" fill="none"></path></g></g><g stroke-linecap="round"><g transform="translate(600 360) rotate(0 75 40)"><path d="M-0.14 0.97 C25.05 14.31, 125.35 66.26, 150.54 79.61 M-1.68 0.43 C23.46 13.99, 124.48 67.81, 149.88 80.95" stroke="#d97706" stroke-width="2" fill="none"></path></g></g><g stroke-linecap="round"><g transform="translate(750 440) rotate(0 45 -40)"><path d="M-1.1 0.28 C13.99 -12.91, 74.66 -65.92, 89.92 -79.38 M0.53 -0.61 C15.5 -14.13, 74.02 -68.04, 88.93 -81.18" stroke="#d97706" stroke-width="2" fill="none"></path></g></g></svg>