<svg version="1.1" xmlns="http://www.w3.org/2000/svg" viewBox="0 0 1260 560" width="1260" height="560">
  <!-- svg-source:excalidraw -->
  
  <defs>
    <style>
      @font-face {
        font-family: "Virgil";
        src: url("https://excalidraw.com/Virgil.woff2");
      }
      @font-face {
        font-family: "Cascadia";
        src: url("https://excalidraw.com/Cascadia.woff2");
      }
    </style>
  </defs>
  <rect x="0" y="0" width="1260" height="560" fill="#1e1e2e"></rect><g transform="translate(10 10) rotate(0 321.1348876953125 18.75)"><text x="0" y="NaN" font-family="Virgil, Segoe UI Emoji" font-size="30px" fill="#ffffff" text-anchor="start" style="white-space: pre;" direction="ltr">Blast Radius Depends on Which Layer Fails</text></g><g transform="translate(10 50) rotate(0 424.47576904296875 15)"><text x="0" y="NaN" font-family="Virgil, Segoe UI Emoji" font-size="24px" fill="#cdd6f4" text-anchor="start" style="white-space: pre;" direction="ltr">Some failures hit one flow; others pull the whole dependency chain down.</text></g><g stroke-linecap="round" transform="translate(580 240) rotate(0 110 50)"><path d="M-1.24 -0.41 L219.43 1.18 L220.06 99.46 L-1.15 101.59" stroke="none" stroke-width="0" fill="#2d6a4f"></path><path d="M1.16 0.31 C47.43 -0.61, 96.53 -0.45, 221.43 -0.6 M0.08 -0.24 C69.16 2.62, 138.3 1.28, 219.65 -0.84 M218.5 1.52 C221.92 28.86, 219.52 59.98, 221.14 98.23 M220.2 0.91 C220.09 31.73, 221.33 64.39, 219.54 100.74 M220.41 101.02 C138 99.03, 59.01 98.32, -0.86 99.9 M219.63 100.31 C147.48 101.29, 74.56 100.24, 0.43 99.64 M1.98 100.72 C0.8 71.7, -1.59 46.62, -1.84 1.65 M0.92 99.88 C-0.87 72.59, -0.13 42.76, -0.83 -0.94" stroke="#40916c" stroke-width="2" fill="none"></path></g><g transform="translate(616.9320449829102 275) rotate(0 73.06795501708984 15)"><text x="73.06795501708984" y="NaN" font-family="Virgil, Segoe UI Emoji" font-size="24px" fill="#ffffff" text-anchor="middle" style="white-space: pre;" direction="ltr">User traffic</text></g><g stroke-linecap="round" transform="translate(130 130) rotate(0 110 50)"><path d="M-0.44 -1.57 L221.52 0.8 L220.57 99.93 L0.7 100.66" stroke="none" stroke-width="0" fill="#9f1239"></path><path d="M-0.82 -1.49 C46.88 0.63, 95.57 -0.75, 220.06 0.08 M0.69 0.21 C79.31 0.65, 157.24 0.06, 220.38 0.46 M221.57 -1.98 C219.19 34.82, 218.18 67.7, 219.92 100.49 M220.79 -0.69 C219.2 25.69, 218.49 51.8, 220.36 99.44 M218.77 100.65 C132.89 98.66, 45.77 100.47, -1.14 99.2 M219.73 100.06 C157.93 100.45, 95.4 100.66, 0.32 99.71 M0.54 100.16 C-0.13 75.28, -1.99 52.26, -0.66 -0.77 M-0.65 99.88 C0.34 78.52, 0.1 57.45, 0.05 -0.96" stroke="#e11d48" stroke-width="2" fill="none"></path></g><g transform="translate(175.82403564453125 150) rotate(0 64.17596435546875 30)"><text x="64.17596435546875" y="NaN" font-family="Virgil, Segoe UI Emoji" font-size="24px" fill="#ffffff" text-anchor="middle" style="white-space: pre;" direction="ltr">DB primary</text><text x="64.17596435546875" y="NaN" font-family="Virgil, Segoe UI Emoji" font-size="24px" fill="#ffffff" text-anchor="middle" style="white-space: pre;" direction="ltr">failure</text></g><g stroke-linecap="round" transform="translate(130 350) rotate(0 110 50)"><path d="M0.36 1.28 L219.62 0.42 L221.07 100.4 L-1.44 99.72" stroke="none" stroke-width="0" fill="#1e40af"></path><path d="M0.67 0.19 C46.32 -1.59, 94.6 -1.06, 218.68 0.76 M-0.43 0.67 C87.74 -1.32, 176.18 -1.16, 219.38 0.03 M220.65 -1.48 C222.47 36.78, 222.83 71.42, 218.71 98.76 M219.39 -0.29 C220.32 39.65, 219.65 79.21, 219.17 100.15 M220.59 100.28 C168.31 98.28, 117.06 99.16, -1.43 98.5 M219.83 99.81 C168.37 101.35, 117.98 101.09, 0.22 99.79 M-0.9 99.6 C-1.06 78.87, 1.62 57.89, 0.53 0.82 M-0.21 99.88 C-0.44 66.46, 0.33 32.14, 0.93 -0.99" stroke="#3b82f6" stroke-width="2" fill="none"></path></g><g transform="translate(158.73604583740234 370) rotate(0 81.26395416259766 30)"><text x="81.26395416259766" y="NaN" font-family="Virgil, Segoe UI Emoji" font-size="24px" fill="#ffffff" text-anchor="middle" style="white-space: pre;" direction="ltr">Cache cluster</text><text x="81.26395416259766" y="NaN" font-family="Virgil, Segoe UI Emoji" font-size="24px" fill="#ffffff" text-anchor="middle" style="white-space: pre;" direction="ltr">failure</text></g><g stroke-linecap="round" transform="translate(1030 130) rotate(0 110 50)"><path d="M1.16 0.12 L221.71 0.04 L221.58 100.87 L0.41 98.79" stroke="none" stroke-width="0" fill="#b45309"></path><path d="M-1.31 -1.61 C49.24 -0.35, 97.1 -1.36, 220.77 1.44 M0.18 -0.6 C53.89 0.52, 107.12 1.43, 220.1 -0.39 M219.72 -0.98 C219.74 18.74, 221.49 39.14, 221.49 101.02 M219.99 0.11 C221.43 33.61, 220.81 66.63, 219.98 100.85 M218.95 99.91 C163.2 101.37, 103.81 101.3, -1.71 101.27 M219.93 99.56 C134.82 98.43, 50.82 97.7, 0.11 99.86 M1.66 99.03 C0.01 62.45, -0.78 23.53, 1.71 -1.59 M0.23 99.87 C0.78 72.4, 0.56 46.83, -0.19 0.99" stroke="#d97706" stroke-width="2" fill="none"></path></g><g transform="translate(1062.5040435791016 150) rotate(0 77.49595642089844 30)"><text x="77.49595642089844" y="NaN" font-family="Virgil, Segoe UI Emoji" font-size="24px" fill="#ffffff" text-anchor="middle" style="white-space: pre;" direction="ltr">Queue leader</text><text x="77.49595642089844" y="NaN" font-family="Virgil, Segoe UI Emoji" font-size="24px" fill="#ffffff" text-anchor="middle" style="white-space: pre;" direction="ltr">failure</text></g><g stroke-linecap="round" transform="translate(1030 350) rotate(0 110 50)"><path d="M1.95 -1.04 L219.8 -0.33 L218.09 101.33 L-1.74 101.85" stroke="none" stroke-width="0" fill="#5b21b6"></path><path d="M0.17 0.06 C48.69 1.24, 96.13 2.15, 219.4 -1.35 M0.78 -0.14 C62.32 -1.45, 126.06 -1.53, 220.83 -0.82 M218.79 -0.48 C221.02 24.7, 220.15 46.86, 220.27 99.28 M220.58 0.51 C218.54 27.56, 219.97 54.04, 220.8 99.55 M220.77 99.54 C154.63 101, 90.57 99.99, 1.47 100.57 M220.03 99.31 C145.27 99.32, 71.67 98.12, 0 99.93 M0.22 98.47 C-0.92 62.03, -1.17 25.17, -1.11 0 M0.66 99.87 C0 60.34, -1.21 21.53, 0.69 0.96" stroke="#7c3aed" stroke-width="2" fill="none"></path></g><g transform="translate(1081.800033569336 370) rotate(0 58.19996643066406 30)"><text x="58.19996643066406" y="NaN" font-family="Virgil, Segoe UI Emoji" font-size="24px" fill="#ffffff" text-anchor="middle" style="white-space: pre;" direction="ltr">Split-brain</text><text x="58.19996643066406" y="NaN" font-family="Virgil, Segoe UI Emoji" font-size="24px" fill="#ffffff" text-anchor="middle" style="white-space: pre;" direction="ltr">risk</text></g><g stroke-linecap="round" transform="translate(580 450) rotate(0 110 50)"><path d="M-1.25 1.81 L221.89 -0.71 L218.6 101.8 L0.11 100.92" stroke="none" stroke-width="0" fill="#5b21b6"></path><path d="M1.66 1.73 C48.13 -0.98, 95.16 1.84, 221.49 -0.67 M-0.34 0.31 C72.47 0.4, 145 1.06, 219.82 0.48 M221.87 0.02 C220.29 26.66, 220.81 54.58, 219.05 101.54 M219.18 0.91 C219.66 21.52, 219.14 41.45, 219.61 100.26 M219.13 99.17 C149.52 100.62, 77.33 98.67, 1.19 99.87 M220.12 100.79 C155.71 98.48, 92.51 98.54, -0.1 100 M-1.23 101.91 C2.15 65.61, -1.57 30.8, 0.08 1.59 M-0.9 99.87 C-0.78 68.28, -0.97 36.22, -0.43 0.94" stroke="#7c3aed" stroke-width="2" fill="none"></path></g><g transform="translate(588.9120559692383 470) rotate(0 101.08794403076172 30)"><text x="101.08794403076172" y="NaN" font-family="Virgil, Segoe UI Emoji" font-size="24px" fill="#ffffff" text-anchor="middle" style="white-space: pre;" direction="ltr">App pools,</text><text x="101.08794403076172" y="NaN" font-family="Virgil, Segoe UI Emoji" font-size="24px" fill="#ffffff" text-anchor="middle" style="white-space: pre;" direction="ltr">retries, fallbacks</text></g><g stroke-linecap="round"><g transform="translate(240 180) rotate(0 225 55)"><path d="M-0.64 0.97 C74.47 19.17, 375.04 91.62, 450.09 109.76 M1.22 0.43 C76.24 18.77, 374.6 92.73, 449.19 111.16" stroke="#e11d48" stroke-width="2" fill="none"></path></g></g><g stroke-linecap="round"><g transform="translate(240 400) rotate(0 225 -55)"><path d="M0.8 0.28 C75.81 -18.04, 374.74 -90.97, 449.47 -109.24 M-0.24 -0.61 C74.62 -19.34, 372.93 -92.51, 448.25 -110.96" stroke="#3b82f6" stroke-width="2" fill="none"></path></g></g><g stroke-linecap="round"><g transform="translate(1140 180) rotate(0 -225 55)"><path d="M-0.16 -0.4 C-75.25 17.67, -376.36 91.12, -451.15 109.37 M-1.7 -1.66 C-76.39 16.48, -374.48 91.97, -449.04 110.58" stroke="#d97706" stroke-width="2" fill="none"></path></g></g><g stroke-linecap="round"><g transform="translate(1140 400) rotate(0 -225 -55)"><path d="M-1.11 -1.09 C-75.91 -19.55, -374.66 -91.47, -449.37 -109.62 M0.5 0.95 C-74.34 -17.37, -374.93 -93.27, -449.99 -111.54" stroke="#e11d48" stroke-width="2" fill="none"></path></g></g><g stroke-linecap="round"><g transform="translate(690 340) rotate(0 0 55)"><path d="M0.33 0.63 C0.43 18.97, 0.05 90.61, 0.01 108.99 M-0.96 -0.09 C-0.96 18.46, -0.99 91.82, -0.94 109.99" stroke="#ff8c42" stroke-width="2" fill="none"></path></g></g></svg>