<svg version="1.1" xmlns="http://www.w3.org/2000/svg" viewBox="0 0 1350 452" width="1350" height="452">
  <!-- svg-source:excalidraw -->
  
  <defs>
    <style>
      @font-face {
        font-family: "Virgil";
        src: url("https://excalidraw.com/Virgil.woff2");
      }
      @font-face {
        font-family: "Cascadia";
        src: url("https://excalidraw.com/Cascadia.woff2");
      }
    </style>
  </defs>
  <rect x="0" y="0" width="1350" height="452" fill="#1e1e2e"></rect><g transform="translate(10 10) rotate(0 305.25 19.950000000000003)"><text x="0" y="NaN" font-family="Virgil, Segoe UI Emoji" font-size="30px" fill="#ffffff" text-anchor="start" style="white-space: pre;" direction="ltr">How a Slow Query Turns Into an Outage</text></g><g transform="translate(10 50) rotate(0 277.20000000000005 16)"><text x="0" y="NaN" font-family="Virgil, Segoe UI Emoji" font-size="24px" fill="#cdd6f4" text-anchor="start" style="white-space: pre;" direction="ltr">Latency spreads faster than people expect.</text></g><g stroke-linecap="round" transform="translate(30 250) rotate(0 115 55)"><path d="M-1.24 -0.41 L229.43 1.18 L230.06 109.46 L-1.15 111.59" stroke="none" stroke-width="0" fill="#9f1239"></path><path d="M1.14 0.3 C49.62 -0.57, 100.88 -0.41, 231.41 -0.59 M0.08 -0.24 C72.3 2.65, 144.59 1.34, 229.66 -0.83 M228.5 1.52 C232 31.82, 229.6 65.92, 231.14 108.23 M230.2 0.91 C230.16 34.98, 231.41 70.89, 229.54 110.74 M230.4 111 C144.33 109.05, 61.62 108.35, -0.84 109.91 M229.64 110.3 C154.18 111.3, 77.97 110.27, 0.42 109.65 M1.98 110.72 C0.75 78.99, -1.65 51.19, -1.84 1.65 M0.92 109.88 C-0.87 79.75, -0.12 47.08, -0.83 -0.94" stroke="#e11d48" stroke-width="2" fill="none"></path></g><g transform="translate(48 275) rotate(0 97 30)"><text x="97" y="NaN" font-family="Virgil, Segoe UI Emoji" font-size="24px" fill="#ffffff" text-anchor="middle" style="white-space: pre;" direction="ltr">T+0</text><text x="97" y="NaN" font-family="Virgil, Segoe UI Emoji" font-size="24px" fill="#ffffff" text-anchor="middle" style="white-space: pre;" direction="ltr">bad query</text></g><g stroke-linecap="round" transform="translate(300 250) rotate(0 115 55)"><path d="M-0.44 -1.57 L231.52 0.8 L230.57 109.93 L0.7 110.66" stroke="none" stroke-width="0" fill="#5b21b6"></path><path d="M-0.8 -1.46 C49.08 0.62, 99.93 -0.74, 230.06 0.08 M0.68 0.21 C82.87 0.64, 164.38 0.07, 230.37 0.45 M231.57 -1.98 C229.18 38.14, 228.16 74.33, 229.92 110.49 M230.79 -0.69 C229.14 28.31, 228.43 57.04, 230.36 109.44 M228.79 110.63 C138.88 108.68, 47.74 110.46, -1.12 109.22 M229.74 110.06 C165.11 110.5, 99.78 110.71, 0.32 109.72 M0.54 110.16 C-0.13 82.84, -1.99 57.36, -0.66 -0.77 M-0.65 109.88 C0.43 86.41, 0.19 63.22, 0.05 -0.96" stroke="#7c3aed" stroke-width="2" fill="none"></path></g><g transform="translate(318 275) rotate(0 97 30)"><text x="97" y="NaN" font-family="Virgil, Segoe UI Emoji" font-size="24px" fill="#ffffff" text-anchor="middle" style="white-space: pre;" direction="ltr">T+10s</text><text x="97" y="NaN" font-family="Virgil, Segoe UI Emoji" font-size="24px" fill="#ffffff" text-anchor="middle" style="white-space: pre;" direction="ltr">DB CPU 100%</text></g><g stroke-linecap="round" transform="translate(570 250) rotate(0 115 55)"><path d="M0.36 1.28 L229.62 0.42 L231.07 110.4 L-1.44 109.72" stroke="none" stroke-width="0" fill="#1e40af"></path><path d="M0.65 0.18 C48.54 -1.6, 98.99 -1.08, 228.71 0.74 M-0.43 0.66 C91.74 -1.36, 184.17 -1.21, 229.39 0.03 M230.65 -1.48 C232.56 40.45, 232.93 78.75, 228.71 108.76 M229.39 -0.29 C230.32 43.63, 229.65 87.18, 229.17 110.15 M230.58 110.27 C176.02 108.31, 122.46 109.17, -1.4 108.53 M229.83 109.81 C176.04 111.4, 123.3 111.14, 0.21 109.79 M-0.9 109.6 C-1 86.68, 1.67 63.52, 0.53 0.82 M-0.21 109.88 C-0.48 73.07, 0.29 35.36, 0.93 -0.99" stroke="#3b82f6" stroke-width="2" fill="none"></path></g><g transform="translate(588 275) rotate(0 97 30)"><text x="97" y="NaN" font-family="Virgil, Segoe UI Emoji" font-size="24px" fill="#ffffff" text-anchor="middle" style="white-space: pre;" direction="ltr">T+20s</text><text x="97" y="NaN" font-family="Virgil, Segoe UI Emoji" font-size="24px" fill="#ffffff" text-anchor="middle" style="white-space: pre;" direction="ltr">threads wait</text></g><g stroke-linecap="round" transform="translate(840 250) rotate(0 115 55)"><path d="M1.16 0.12 L231.71 0.04 L231.58 110.87 L0.41 108.79" stroke="none" stroke-width="0" fill="#b45309"></path><path d="M-1.29 -1.58 C51.39 -0.41, 101.44 -1.41, 230.76 1.41 M0.17 -0.59 C56.31 0.54, 111.96 1.43, 230.1 -0.39 M229.72 -0.98 C229.74 20.76, 231.49 43.17, 231.49 111.02 M229.99 0.11 C231.49 36.96, 230.88 73.33, 229.98 110.85 M228.97 109.91 C170.56 111.34, 108.58 111.27, -1.68 111.25 M229.93 109.57 C140.97 108.38, 53.11 107.67, 0.11 109.86 M1.66 109.03 C-0.08 68.53, -0.87 25.69, 1.71 -1.59 M0.23 109.87 C0.82 79.74, 0.6 51.5, -0.19 0.99" stroke="#d97706" stroke-width="2" fill="none"></path></g><g transform="translate(858 275) rotate(0 97 30)"><text x="97" y="NaN" font-family="Virgil, Segoe UI Emoji" font-size="24px" fill="#ffffff" text-anchor="middle" style="white-space: pre;" direction="ltr">T+40s</text><text x="97" y="NaN" font-family="Virgil, Segoe UI Emoji" font-size="24px" fill="#ffffff" text-anchor="middle" style="white-space: pre;" direction="ltr">LB ejects nodes</text></g><g stroke-linecap="round" transform="translate(1110 250) rotate(0 115 55)"><path d="M1.95 -1.04 L229.8 -0.33 L228.09 111.33 L-1.74 111.85" stroke="none" stroke-width="0" fill="#9f1239"></path><path d="M0.17 0.06 C50.85 1.28, 100.49 2.17, 229.41 -1.32 M0.77 -0.14 C65.18 -1.46, 131.75 -1.54, 230.81 -0.81 M228.79 -0.48 C230.93 27.07, 230.06 51.59, 230.27 109.28 M230.58 0.51 C228.47 30.29, 229.9 59.48, 230.8 109.55 M230.76 109.54 C161.7 110.97, 94.7 109.98, 1.45 110.56 M230.02 109.32 C151.9 109.28, 74.92 108.1, 0 109.93 M0.22 108.47 C-0.95 68.37, -1.21 27.85, -1.11 0 M0.66 109.87 C-0.09 66.4, -1.29 23.65, 0.69 0.96" stroke="#e11d48" stroke-width="2" fill="none"></path></g><g transform="translate(1128 275) rotate(0 97 30)"><text x="97" y="NaN" font-family="Virgil, Segoe UI Emoji" font-size="24px" fill="#ffffff" text-anchor="middle" style="white-space: pre;" direction="ltr">T+60s</text><text x="97" y="NaN" font-family="Virgil, Segoe UI Emoji" font-size="24px" fill="#ffffff" text-anchor="middle" style="white-space: pre;" direction="ltr">full outage</text></g><g stroke-linecap="round"><g transform="translate(260 305) rotate(0 20 0)"><path d="M0.48 -0.82 C7.09 -0.83, 32.22 -0.24, 39.01 -0.01 M-0.72 1.37 C6.31 1.56, 34.23 2, 41.19 1.52" stroke="#e11d48" stroke-width="2" fill="none"></path></g><g transform="translate(260 305) rotate(0 20 0)"><path d="M21.18 7.08 C27.09 8.89, 32.6 5.25, 40.14 0.37 M21.8 9.42 C26.21 6.51, 30.73 6.24, 40.33 1.22" stroke="#e11d48" stroke-width="2" fill="none"></path></g><g transform="translate(260 305) rotate(0 20 0)"><path d="M20.91 -6.6 C26.89 -1.44, 32.47 -1.72, 40.14 0.37 M21.53 -4.25 C26.13 -4.19, 30.71 -1.48, 40.33 1.22" stroke="#e11d48" stroke-width="2" fill="none"></path></g></g><g stroke-linecap="round"><g transform="translate(530 305) rotate(0 20 0)"><path d="M-0.47 0.9 C6.43 1.02, 33.92 1.31, 40.78 1 M1.48 0.32 C8.35 0.11, 33.78 -0.51, 40.25 -0.6" stroke="#e11d48" stroke-width="2" fill="none"></path></g><g transform="translate(530 305) rotate(0 20 0)"><path d="M23.08 7.92 C27.81 6.08, 29.08 3.55, 40.4 0.64 M21.21 6.57 C25.19 4.15, 29.76 3.16, 39.8 -1.15" stroke="#e11d48" stroke-width="2" fill="none"></path></g><g transform="translate(530 305) rotate(0 20 0)"><path d="M22.82 -5.76 C27.64 -4.25, 28.97 -3.43, 40.4 0.64 M20.94 -7.11 C24.95 -6.25, 29.58 -3.97, 39.8 -1.15" stroke="#e11d48" stroke-width="2" fill="none"></path></g></g><g stroke-linecap="round"><g transform="translate(800 305) rotate(0 20 0)"><path d="M0.97 0.21 C7.77 0.07, 33.62 -0.34, 40.16 -0.39 M0.02 -0.72 C6.73 -0.73, 32.71 0.63, 39.3 0.94" stroke="#e11d48" stroke-width="2" fill="none"></path></g><g transform="translate(800 305) rotate(0 20 0)"><path d="M20.54 7.12 C24.2 5.57, 29.33 4.47, 40.65 0.57 M20.16 6.07 C25.7 4.5, 30.42 3.12, 39.27 0.14" stroke="#e11d48" stroke-width="2" fill="none"></path></g><g transform="translate(800 305) rotate(0 20 0)"><path d="M21.21 -6.55 C24.75 -4.74, 29.73 -2.5, 40.65 0.57 M20.83 -7.6 C26.26 -5.61, 30.81 -3.43, 39.27 0.14" stroke="#e11d48" stroke-width="2" fill="none"></path></g></g><g stroke-linecap="round"><g transform="translate(1070 305) rotate(0 20 0)"><path d="M0.01 -0.48 C6.71 -0.48, 32.93 0.41, 39.54 0.62 M-1.44 -1.77 C5.12 -2.18, 31.65 -1.28, 38.35 -1.18" stroke="#e11d48" stroke-width="2" fill="none"></path></g><g transform="translate(1070 305) rotate(0 20 0)"><path d="M18.61 4.44 C25.03 3.12, 29.89 3.01, 36.91 -3.16 M19.72 5.69 C24.78 4.14, 29.52 1.93, 38.74 -0.23" stroke="#e11d48" stroke-width="2" fill="none"></path></g><g transform="translate(1070 305) rotate(0 20 0)"><path d="M18.93 -9.24 C25.35 -7.2, 30.13 -3.96, 36.91 -3.16 M20.04 -7.99 C24.92 -5.68, 29.56 -4.04, 38.74 -0.23" stroke="#e11d48" stroke-width="2" fill="none"></path></g></g><g transform="translate(50 410) rotate(0 369.6 16)"><text x="0" y="NaN" font-family="Virgil, Segoe UI Emoji" font-size="24px" fill="#cdd6f4" text-anchor="start" style="white-space: pre;" direction="ltr">Timeouts and circuit breakers must cut this chain early.</text></g></svg>