<svg version="1.1" xmlns="http://www.w3.org/2000/svg" viewBox="0 0 1493.5275324386214 747.5" width="1493.5275324386214" height="747.5">
  <!-- svg-source:excalidraw -->
  
  <defs>
    <style>
      @font-face {
        font-family: "Virgil";
        src: url("https://excalidraw.com/Virgil.woff2");
      }
      @font-face {
        font-family: "Cascadia";
        src: url("https://excalidraw.com/Cascadia.woff2");
      }
    </style>
  </defs>
  <rect x="0" y="0" width="1493.5275324386214" height="747.5" fill="#1e1e2e"></rect><g transform="translate(10 10) rotate(0 494.101806640625 17.5)"><text x="0" y="NaN" font-family="Virgil, Segoe UI Emoji" font-size="28px" fill="#ff8c42" text-anchor="start" style="white-space: pre;" direction="ltr">Multi-Tenancy Patterns  —  same three tenants, three ways to share</text></g><g transform="translate(10 47) rotate(0 406.4237365722656 10)"><text x="0" y="NaN" font-family="Virgil, Segoe UI Emoji" font-size="16px" fill="#c9d1d9" text-anchor="start" style="white-space: pre;" direction="ltr">Visual overlap encodes how much is shared.  Cost per tenant flips from highest (Silo) to lowest (Pool).</text></g><g stroke-opacity="0.7" fill-opacity="0.7" stroke-linecap="round" transform="translate(10 90) rotate(0 240 300)"><path d="M0.3 1.64 L480.33 -1.22 L478.09 599.03 L0.19 600.34" stroke="none" stroke-width="0" fill="#181825"></path><path d="M-0.83 0.23 C191.06 -0.2, 383.69 -0.34, 479.41 0.87 M479.32 0.72 C478.84 126.22, 478.79 252.75, 480.14 599.73 M480.58 600.56 C332.62 597.46, 185.37 597.8, 0.76 600.44 M0.32 599.67 C1.33 420.55, 1.18 241.78, -0.26 -0.46" stroke="#45475a" stroke-width="2.5" fill="none" stroke-dasharray="8 10"></path></g><g transform="translate(30 102) rotate(0 29.735984802246094 15)"><text x="0" y="NaN" font-family="Virgil, Segoe UI Emoji" font-size="24px" fill="#f85149" text-anchor="start" style="white-space: pre;" direction="ltr">SILO</text></g><g transform="translate(30 136) rotate(0 96.36190795898438 8.75)"><text x="0" y="NaN" font-family="Virgil, Segoe UI Emoji" font-size="14px" fill="#8b949e" text-anchor="start" style="white-space: pre;" direction="ltr">dedicated stack per tenant</text></g><g stroke-opacity="0.7" fill-opacity="0.7" stroke-linecap="round" transform="translate(510 90) rotate(0 240 300)"><path d="M-0.07 0.4 L478.28 1.47 L478.08 598.13 L-0.25 601.23" stroke="none" stroke-width="0" fill="#181825"></path><path d="M0.03 -0.43 C126.73 -2.55, 255.69 -2.06, 480.68 -0.34 M480.49 0.04 C477.08 185.39, 477.19 370.34, 480.15 600.49 M479.73 600.68 C298.65 600.51, 116.67 600.48, 0.45 600.02 M0.41 599.33 C0.3 427.06, 0.56 254.42, -0.2 -0.27" stroke="#45475a" stroke-width="2.5" fill="none" stroke-dasharray="8 10"></path></g><g transform="translate(530 102) rotate(0 50.31597137451172 15)"><text x="0" y="NaN" font-family="Virgil, Segoe UI Emoji" font-size="24px" fill="#a371f7" text-anchor="start" style="white-space: pre;" direction="ltr">BRIDGE</text></g><g transform="translate(530 136) rotate(0 106.847900390625 8.75)"><text x="0" y="NaN" font-family="Virgil, Segoe UI Emoji" font-size="14px" fill="#8b949e" text-anchor="start" style="white-space: pre;" direction="ltr">shared compute, isolated data</text></g><g stroke-opacity="0.7" fill-opacity="0.7" stroke-linecap="round" transform="translate(1009.8672305729717 89.93361528648597) rotate(0 236.83015093282484 300)"><path d="M0.67 1.4 L474.48 0.22 L474.51 601.23 L-1.11 599.07" stroke="none" stroke-width="0" fill="#181825"></path><path d="M-0.79 0.85 C161.5 1.05, 324.82 -0.16, 473.18 -0.02 M473.52 0.56 C473.59 130.14, 474.52 260.2, 474.19 600.17 M473.5 600.49 C358.06 598.06, 242 597.52, 0.74 600.83 M0.2 600.5 C0.08 429.61, 1.12 257.63, 0.2 0.59" stroke="#45475a" stroke-width="2.5" fill="none" stroke-dasharray="8 10"></path></g><g transform="translate(1030 102) rotate(0 32.54399108886719 15)"><text x="0" y="NaN" font-family="Virgil, Segoe UI Emoji" font-size="24px" fill="#3fb950" text-anchor="start" style="white-space: pre;" direction="ltr">POOL</text></g><g transform="translate(1030 136) rotate(0 63.44093322753906 8.75)"><text x="0" y="NaN" font-family="Virgil, Segoe UI Emoji" font-size="14px" fill="#8b949e" text-anchor="start" style="white-space: pre;" direction="ltr">fully shared stack</text></g><g stroke-opacity="0.9" fill-opacity="0.9" stroke-linecap="round" transform="translate(40 200) rotate(0 60 180)"><path d="M1.7 0.88 C33.34 -2.42, 67.89 -2.01, 119.12 0.29 M119.82 -0.83 C118.54 72.09, 119.07 146.34, 120.21 358.98 M119.75 360.71 C78.11 361.25, 33.06 361.07, 0.67 361.9 M0.45 360.98 C2.67 220.99, 0.65 82.41, 0.22 0.37" stroke="#3fb950" stroke-width="2.5" fill="none" stroke-dasharray="8 10"></path></g><g transform="translate(70.11251831054688 208) rotate(0 29.887481689453125 9.375)"><text x="29.887481689453125" y="NaN" font-family="Virgil, Segoe UI Emoji" font-size="15px" fill="#3fb950" text-anchor="middle" style="white-space: pre;" direction="ltr">Stack A</text></g><g stroke-opacity="0.8" fill-opacity="0.8" stroke-linecap="round" transform="translate(75 238) rotate(0 25 25)"><path d="M-1.83 -0.98 L49.95 0.17 L51.14 50.48 L-1.95 51.6" stroke="none" stroke-width="0" fill="#3fb950"></path><path d="M0.06 1.16 C17.86 1.03, 34.94 -0.83, 48.58 -0.41 M-0.23 -0.64 C17.81 0.39, 38.11 0.67, 49.25 -0.79 M51.79 0.92 C48.94 15.44, 51.71 33.87, 49.05 48.32 M49.03 -0.5 C51.13 16.77, 51.18 33.56, 49.29 50.81 M48.65 50.5 C30.58 51.81, 14.79 50.78, 1.91 48.53 M50.2 50.25 C35.08 48.78, 20.24 50.23, -0.19 49.74 M-0.2 50.58 C2.05 35.02, 1.87 20.62, 0.8 -0.74 M-0.75 49.43 C-0.62 29.45, -0.62 11.25, 0.88 0.49" stroke="#3fb950" stroke-width="1" fill="none"></path></g><g transform="translate(89.05000305175781 256) rotate(0 10.949996948242188 9.375)"><text x="10.949996948242188" y="NaN" font-family="Virgil, Segoe UI Emoji" font-size="15px" fill="#ffffff" text-anchor="middle" style="white-space: pre;" direction="ltr">TA</text></g><g stroke-linecap="round" transform="translate(54 310) rotate(0 46 40)"><path d="M-0.21 1.19 L91.58 -1.05 L92.78 78.72 L1.55 78.57" stroke="none" stroke-width="0" fill="#3a1d6e"></path><path d="M0.66 -1.58 C32.31 -1.7, 62.08 -1.32, 92.32 -0.89 M-0.59 -0.17 C26.64 -0.05, 52.19 0.6, 92.47 -0.03 M92.1 -0.08 C94.01 16.36, 94.19 34.44, 92.71 78.56 M92.63 -0.93 C93.53 27.12, 91.93 55.37, 92.09 79.53 M90.12 81.6 C71.32 79.98, 52.75 79.11, 1.06 79.89 M91.43 80.95 C61.58 80.11, 30.02 80.75, 0.35 79.36 M1.74 79.76 C1.39 61.2, 0.2 40.48, -1.14 -0.03 M-0.57 80.44 C-0.76 49.04, -0.83 20.21, 0.16 -0.34" stroke="#a371f7" stroke-width="2" fill="none"></path></g><g transform="translate(73.97402954101562 341.875) rotate(0 26.025970458984375 8.125)"><text x="26.025970458984375" y="NaN" font-family="Virgil, Segoe UI Emoji" font-size="13px" fill="#ffffff" text-anchor="middle" style="white-space: pre;" direction="ltr">Compute</text></g><g stroke-linecap="round" transform="translate(54 420) rotate(0 46 10)"><path d="M54.02 0.06 C62.52 0.18, 71.59 1.06, 77.99 2.38 C84.4 3.71, 90.86 6.11, 92.44 8 C94.02 9.89, 91.73 11.98, 87.47 13.74 C83.21 15.5, 75.01 17.65, 66.88 18.57 C58.74 19.48, 47.58 19.38, 38.65 19.22 C29.73 19.06, 19.59 18.87, 13.32 17.61 C7.05 16.35, 2.39 13.65, 1.04 11.66 C-0.31 9.68, 1.08 7.59, 5.23 5.7 C9.38 3.82, 17.27 1.21, 25.92 0.36 C34.57 -0.5, 51.56 0.52, 57.12 0.58 C62.68 0.64, 59.33 0.66, 59.28 0.71 M59.48 1.83 C67.87 2.66, 77.92 4.01, 83.09 5.46 C88.27 6.92, 90.75 8.61, 90.54 10.57 C90.32 12.53, 87.07 15.78, 81.78 17.21 C76.49 18.65, 67.21 18.94, 58.79 19.16 C50.38 19.39, 39.67 19.04, 31.3 18.58 C22.92 18.13, 13.88 18.14, 8.53 16.44 C3.19 14.74, -0.92 10.45, -0.78 8.38 C-0.65 6.32, 3.7 5.26, 9.36 4.04 C15.01 2.82, 24.47 1.55, 33.15 1.07 C41.83 0.58, 56.94 1.02, 61.45 1.15 C65.97 1.28, 60.74 1.8, 60.26 1.84" stroke="none" stroke-width="0" fill="#0d2c5a"></path><path d="M37.78 0.64 C46.21 0.31, 58.68 -0.15, 66.78 0.77 C74.88 1.7, 82.12 4.24, 86.37 6.17 C90.62 8.09, 93.4 10.36, 92.28 12.32 C91.16 14.27, 86.18 16.55, 79.65 17.9 C73.12 19.24, 62.03 20.1, 53.08 20.39 C44.14 20.68, 33.81 20.53, 26 19.64 C18.19 18.75, 10.36 16.96, 6.23 15.04 C2.09 13.12, 0.21 10.17, 1.19 8.12 C2.17 6.07, 5.57 3.96, 12.12 2.73 C18.68 1.51, 35.61 1.28, 40.52 0.78 C45.42 0.28, 41.44 -0.48, 41.55 -0.28 M56.06 0.25 C64.57 0.68, 74.66 3.33, 80.48 4.6 C86.29 5.86, 90.19 5.9, 90.93 7.83 C91.67 9.77, 89.39 14.47, 84.93 16.2 C80.47 17.93, 72.02 17.51, 64.19 18.2 C56.35 18.9, 46.63 20.61, 37.89 20.35 C29.16 20.09, 18.07 18.11, 11.78 16.64 C5.48 15.17, 1.2 13.24, 0.1 11.53 C-1 9.82, 0.9 8.23, 5.19 6.39 C9.49 4.55, 17.33 1.38, 25.85 0.5 C34.38 -0.38, 51.7 1.06, 56.34 1.1 C60.98 1.15, 54.07 0.82, 53.68 0.77" stroke="#58a6ff" stroke-width="2" fill="none"></path></g><g stroke-linecap="round" transform="translate(54 430) rotate(0 46 35)"><path d="M0.38 -0.71 L91.31 -1.67 L91.17 70.13 L1.51 68.06" stroke="none" stroke-width="0" fill="#0d2c5a"></path><path d="M-1.3 1.61 C26.65 -0.54, 50.78 -1.52, 93.33 1.13 M-0.95 0.4 C21.26 0.58, 40.49 -0.32, 91.98 0.07 M92.65 0.39 C92.41 20.59, 91.17 40.78, 91.36 71.57 M91.94 0.06 C91.75 15.07, 91.4 31.12, 92.63 69.4 M92.24 68.71 C67.82 71.09, 41.52 71.49, -0.22 71.16 M91.37 70.32 C55.82 70.07, 19.77 71.09, -0.7 69.88 M-1.31 69.33 C2.16 56.57, -0.27 39.62, -1.03 1.51 M-0.38 69.3 C-0.47 51.48, 0.03 33.33, -0.73 0.86" stroke="#58a6ff" stroke-width="2" fill="none"></path></g><g stroke-linecap="round" transform="translate(54 490) rotate(0 46 10)"><path d="M24.68 0.81 C31.81 -0.36, 42.24 -0.24, 50.97 0.01 C59.7 0.25, 70.35 0.84, 77.04 2.27 C83.72 3.69, 89.5 6.48, 91.1 8.53 C92.69 10.58, 90.51 12.77, 86.62 14.57 C82.73 16.38, 75.48 18.53, 67.75 19.34 C60.01 20.15, 49.19 19.77, 40.21 19.43 C31.24 19.09, 20.56 18.7, 13.91 17.28 C7.25 15.86, 1.93 12.94, 0.26 10.93 C-1.4 8.91, -1.44 7.06, 3.94 5.16 C9.32 3.26, 26.47 0.22, 32.56 -0.45 C38.66 -1.13, 40.3 0.8, 40.48 1.08 M37.79 1.18 C46.12 0.44, 56.98 -0.8, 65.12 -0.17 C73.26 0.45, 82.09 2.78, 86.63 4.94 C91.17 7.1, 93.82 10.91, 92.37 12.8 C90.92 14.69, 84.41 15.1, 77.95 16.29 C71.49 17.49, 62.14 19.52, 53.6 19.98 C45.07 20.44, 34.57 20.07, 26.75 19.05 C18.93 18.04, 11.17 15.55, 6.67 13.91 C2.16 12.27, -1.12 10.96, -0.28 9.2 C0.56 7.43, 5.42 5.07, 11.72 3.33 C18.03 1.6, 33.29 -0.61, 37.55 -1.2 C41.81 -1.79, 37.31 -0.59, 37.28 -0.21" stroke="none" stroke-width="0" fill="#0d2c5a"></path><path d="M62.05 -0.21 C70.52 0.48, 80.38 3.69, 85.34 5.4 C90.3 7.1, 92.4 8.05, 91.82 10.02 C91.24 12, 87.49 15.63, 81.85 17.24 C76.21 18.86, 66.8 19.33, 57.99 19.72 C49.19 20.12, 37.37 20.46, 29 19.61 C20.64 18.76, 12.51 16.3, 7.79 14.61 C3.07 12.92, 0.36 11.41, 0.68 9.48 C1 7.56, 4 4.49, 9.69 3.06 C15.38 1.63, 25.56 1.37, 34.81 0.91 C44.07 0.46, 59.89 0.3, 65.22 0.31 C70.54 0.32, 67.05 0.64, 66.76 0.97 M62.31 1.95 C70.57 2.72, 80.1 3.33, 85.27 4.98 C90.44 6.63, 94.04 10.08, 93.34 11.85 C92.64 13.63, 87.12 14.26, 81.06 15.63 C75 17, 65.56 19.57, 56.98 20.07 C48.41 20.57, 38.07 19.45, 29.59 18.61 C21.11 17.78, 11.08 16.38, 6.1 15.05 C1.12 13.72, -1.06 12.7, -0.3 10.62 C0.46 8.55, 5.01 4.28, 10.67 2.61 C16.32 0.95, 25.17 0.91, 33.61 0.62 C42.05 0.34, 56.57 0.62, 61.33 0.91 C66.09 1.19, 62.14 1.95, 62.19 2.31" stroke="#58a6ff" stroke-width="2" fill="none"></path></g><g transform="translate(89.45100402832031 457) rotate(0 10.548995971679688 8.75)"><text x="10.548995971679688" y="NaN" font-family="Virgil, Segoe UI Emoji" font-size="14px" fill="#ffffff" text-anchor="middle" style="white-space: pre;" direction="ltr">DB</text></g><g stroke-opacity="0.9" fill-opacity="0.9" stroke-linecap="round" transform="translate(190 200) rotate(0 60 180)"><path d="M-1.54 -1.67 C41.74 0.75, 79.43 0.86, 119.93 0.43 M119.7 1.11 C123.19 105.82, 123.01 209.17, 118.84 358.84 M121.61 360.77 C72.56 359.89, 28.32 361.27, -0.72 360.86 M-1.05 359.87 C-2.17 259.06, -1.05 157.46, -0.03 -0.38" stroke="#58a6ff" stroke-width="2.5" fill="none" stroke-dasharray="8 10"></path></g><g transform="translate(219.58001708984375 208) rotate(0 30.41998291015625 9.375)"><text x="30.41998291015625" y="NaN" font-family="Virgil, Segoe UI Emoji" font-size="15px" fill="#58a6ff" text-anchor="middle" style="white-space: pre;" direction="ltr">Stack B</text></g><g stroke-opacity="0.8" fill-opacity="0.8" stroke-linecap="round" transform="translate(225 238) rotate(0 25 25)"><path d="M-1.44 -0.76 L50.55 -0.6 L50.96 49.9 L1.55 51.11" stroke="none" stroke-width="0" fill="#58a6ff"></path><path d="M-1.62 0.75 C10.07 0.95, 21.63 -1.51, 48.38 -0.15 M-0.89 -0.93 C11.18 0.48, 21.58 -0.94, 50.79 -0.8 M51.73 1.28 C48.05 13.09, 50.34 27.93, 51.84 49.57 M49.08 -0.94 C49.57 12.2, 50.6 23.89, 49.15 49.5 M51.55 51.53 C31.6 50.95, 12.18 50.83, 0.15 48.64 M49.74 50.19 C36.12 50.4, 19.56 51.05, 0.62 49.48 M-1.08 50.55 C-1.45 33.5, 1.46 20.52, -0.97 -1.97 M0.63 49.43 C0.33 29.9, 0.32 10.62, -0.94 0.06" stroke="#58a6ff" stroke-width="1" fill="none"></path></g><g transform="translate(238.5175018310547 256) rotate(0 11.482498168945312 9.375)"><text x="11.482498168945312" y="NaN" font-family="Virgil, Segoe UI Emoji" font-size="15px" fill="#ffffff" text-anchor="middle" style="white-space: pre;" direction="ltr">TB</text></g><g stroke-linecap="round" transform="translate(204 310) rotate(0 46 40)"><path d="M-1.23 0.95 L90.42 -0.98 L90.11 79.51 L-0.17 79.2" stroke="none" stroke-width="0" fill="#3a1d6e"></path><path d="M1.33 1.48 C35.2 -2.02, 70.51 1.41, 90.97 1.49 M-0.38 -0.38 C32.15 0.53, 63.45 -0.71, 91.6 0.05 M91.89 -0.29 C90.84 25.57, 92.67 53.94, 92.57 78.84 M91.34 0.91 C92.26 19.52, 92.94 39.32, 91.62 79.94 M91.21 81.27 C60.85 80.87, 29.05 80.14, 0.37 79.68 M92.67 79.74 C69.29 80.72, 48.18 80.06, -0.65 80.69 M-0.03 78.37 C0.97 57.76, -1.72 32.72, 0.79 0.75 M0.7 79.11 C-0.51 62.7, -0.36 45.05, -0.18 1" stroke="#a371f7" stroke-width="2" fill="none"></path></g><g transform="translate(223.97402954101562 341.875) rotate(0 26.025970458984375 8.125)"><text x="26.025970458984375" y="NaN" font-family="Virgil, Segoe UI Emoji" font-size="13px" fill="#ffffff" text-anchor="middle" style="white-space: pre;" direction="ltr">Compute</text></g><g stroke-linecap="round" transform="translate(204 420) rotate(0 46 10)"><path d="M35.86 0.25 C44.25 -0.5, 56.28 -0.66, 64.53 0.28 C72.78 1.22, 80.82 4.24, 85.35 5.88 C89.89 7.52, 92.6 8.27, 91.75 10.11 C90.91 11.94, 86.14 15.11, 80.28 16.88 C74.43 18.65, 65.49 20.45, 56.64 20.71 C47.78 20.96, 35.53 19.45, 27.15 18.42 C18.77 17.38, 10.89 15.91, 6.35 14.48 C1.82 13.04, -0.79 11.54, -0.03 9.79 C0.72 8.05, 4.21 5.76, 10.9 4 C17.6 2.24, 34.4 -0.17, 40.12 -0.74 C45.85 -1.31, 44.95 0.18, 45.26 0.59 M44.63 0.81 C53.25 1.03, 64.06 2.31, 71.61 3.01 C79.15 3.72, 86.74 3.24, 89.89 5.03 C93.05 6.82, 93.25 11.62, 90.53 13.77 C87.81 15.92, 80.39 16.79, 73.59 17.94 C66.79 19.08, 58.45 20.66, 49.72 20.63 C40.99 20.6, 28.92 18.68, 21.21 17.76 C13.49 16.84, 6.77 16.61, 3.42 15.1 C0.07 13.59, -1.01 11.06, 1.11 8.7 C3.23 6.33, 9.23 2.16, 16.12 0.9 C23.01 -0.35, 38.06 1.05, 42.43 1.14 C46.8 1.23, 42.15 1.58, 42.33 1.46" stroke="none" stroke-width="0" fill="#0d2c5a"></path><path d="M26.09 0.71 C33.73 -0.22, 46.09 -0.75, 54.81 -0.4 C63.53 -0.06, 72.24 1.26, 78.41 2.79 C84.58 4.32, 90.5 6.84, 91.84 8.75 C93.17 10.67, 90.59 12.7, 86.43 14.27 C82.28 15.83, 75.02 17.36, 66.91 18.14 C58.79 18.93, 46.67 19.22, 37.74 18.96 C28.81 18.7, 19.45 17.89, 13.33 16.59 C7.21 15.29, 2.48 13.01, 1.01 11.18 C-0.46 9.35, -0.39 7.3, 4.5 5.63 C9.39 3.95, 24.98 2.11, 30.33 1.15 C35.68 0.2, 36.14 -0.17, 36.62 -0.08 M53.7 -0.82 C62.6 -0.85, 72.62 1.32, 78.83 2.6 C85.04 3.89, 89.4 5.04, 90.94 6.89 C92.48 8.74, 91.85 11.66, 88.08 13.71 C84.31 15.76, 76.43 18.23, 68.32 19.19 C60.21 20.15, 48.43 20, 39.43 19.49 C30.43 18.98, 21.02 17.41, 14.33 16.13 C7.64 14.86, 1.09 13.56, -0.72 11.85 C-2.52 10.14, -0.54 7.7, 3.5 5.85 C7.54 4, 15.08 1.67, 23.53 0.74 C31.99 -0.19, 49.43 0.58, 54.21 0.28 C58.99 -0.03, 52.71 -1.18, 52.21 -1.1" stroke="#58a6ff" stroke-width="2" fill="none"></path></g><g stroke-linecap="round" transform="translate(204 430) rotate(0 46 35)"><path d="M1.26 1.73 L91.14 1.82 L92.52 69.76 L0.47 70.06" stroke="none" stroke-width="0" fill="#0d2c5a"></path><path d="M-1.9 0.05 C26.69 -1.89, 54.45 0.84, 91.03 0.43 M-0.43 -0.27 C26.96 0.57, 51.89 -0.34, 91.76 -0.95 M92.01 -1.63 C91.66 23.6, 91 44.91, 93.44 71.22 M91.06 -0.16 C92.23 14.17, 92.92 29.32, 92.69 70.8 M93.42 70.61 C68.04 70.82, 41.45 70, -0.14 71.55 M91.25 69.68 C59.79 69.49, 30.13 70.42, 0.96 69.39 M-0.88 68.47 C-1.39 44.47, 0.45 18.17, 0.95 1.26 M-0.4 69.18 C-0.47 52.61, -0.21 36, 0.53 -0.02" stroke="#58a6ff" stroke-width="2" fill="none"></path></g><g stroke-linecap="round" transform="translate(204 490) rotate(0 46 10)"><path d="M53.62 0.77 C62.21 0.95, 72.55 0.78, 78.71 2.18 C84.88 3.58, 89.19 6.97, 90.59 9.16 C91.99 11.35, 91.08 13.64, 87.12 15.32 C83.17 17, 74.96 18.5, 66.87 19.25 C58.78 19.99, 47.49 20, 38.6 19.79 C29.71 19.59, 19.73 19.37, 13.53 18.02 C7.32 16.68, 2.66 13.67, 1.37 11.71 C0.09 9.76, 1.92 8.18, 5.82 6.29 C9.72 4.41, 16.33 1.36, 24.78 0.39 C33.23 -0.58, 50.35 0.29, 56.52 0.46 C62.7 0.63, 61.73 1.3, 61.83 1.43 M62.57 1.08 C70.63 1.7, 79.84 2.08, 84.54 3.86 C89.24 5.65, 91.15 9.9, 90.77 11.81 C90.38 13.71, 88 14.1, 82.25 15.29 C76.51 16.48, 65.11 18.13, 56.29 18.95 C47.47 19.76, 37.8 20.68, 29.33 20.17 C20.85 19.65, 10.38 17.54, 5.46 15.86 C0.54 14.17, -1.02 11.93, -0.2 10.05 C0.61 8.18, 4.39 6.28, 10.36 4.61 C16.33 2.93, 26.83 0.64, 35.63 0 C44.43 -0.63, 58.48 0.63, 63.18 0.8 C67.89 0.96, 63.97 1.04, 63.87 1" stroke="none" stroke-width="0" fill="#0d2c5a"></path><path d="M30.73 0.9 C38.5 0.15, 49.74 0.11, 58.4 0.44 C67.06 0.76, 77.04 1.38, 82.69 2.84 C88.34 4.3, 92.15 7.07, 92.29 9.18 C92.44 11.3, 88.59 13.7, 83.55 15.53 C78.5 17.37, 70.18 19.47, 62.01 20.18 C53.84 20.9, 43.17 20.45, 34.53 19.83 C25.89 19.22, 16.05 17.99, 10.16 16.51 C4.26 15.03, -0.44 12.96, -0.85 10.94 C-1.26 8.93, 1.07 6.12, 7.69 4.42 C14.3 2.73, 32.16 1.46, 38.84 0.77 C45.53 0.08, 47.8 0.2, 47.8 0.3 M45.47 -0.31 C54.11 -0.3, 66.72 0.88, 73.93 1.86 C81.14 2.85, 85.99 3.72, 88.73 5.59 C91.48 7.47, 92.94 11.24, 90.38 13.09 C87.82 14.94, 80.48 15.62, 73.36 16.67 C66.25 17.73, 56.5 19.18, 47.69 19.41 C38.87 19.65, 28.17 18.96, 20.47 18.1 C12.78 17.25, 4.7 15.93, 1.52 14.26 C-1.66 12.6, -1.27 10.06, 1.38 8.11 C4.02 6.15, 10.17 3.98, 17.41 2.55 C24.64 1.12, 39.96 0.06, 44.79 -0.47 C49.61 -1.01, 45.98 -0.76, 46.37 -0.65" stroke="#58a6ff" stroke-width="2" fill="none"></path></g><g transform="translate(239.4510040283203 457) rotate(0 10.548995971679688 8.75)"><text x="10.548995971679688" y="NaN" font-family="Virgil, Segoe UI Emoji" font-size="14px" fill="#ffffff" text-anchor="middle" style="white-space: pre;" direction="ltr">DB</text></g><g stroke-opacity="0.9" fill-opacity="0.9" stroke-linecap="round" transform="translate(340 200) rotate(0 60 180)"><path d="M1.47 1.7 C34.29 -1.42, 67.45 0.71, 118.1 1.18 M120.96 -1.24 C120.1 110.76, 120.55 220.39, 121.1 360.39 M120.63 361.62 C81.53 362.15, 43.68 360.33, 1.02 360.94 M0.21 360.04 C-2.53 241.74, -1.85 123.91, -1.03 -0.46" stroke="#f0883e" stroke-width="2.5" fill="none" stroke-dasharray="8 10"></path></g><g transform="translate(370.20252227783203 208) rotate(0 29.79747772216797 9.375)"><text x="29.79747772216797" y="NaN" font-family="Virgil, Segoe UI Emoji" font-size="15px" fill="#f0883e" text-anchor="middle" style="white-space: pre;" direction="ltr">Stack C</text></g><g stroke-opacity="0.8" fill-opacity="0.8" stroke-linecap="round" transform="translate(375 238) rotate(0 25 25)"><path d="M1.84 -0.29 L50.7 -0.12 L50.46 49.88 L-1.44 50.72" stroke="none" stroke-width="0" fill="#f0883e"></path><path d="M0.76 1.64 C18.01 -2.24, 34.91 -2.19, 49.03 -1.4 M-0.49 -0.8 C19.78 -0.58, 38.5 -0.73, 49.04 -0.88 M48.96 -0.67 C50.43 15.19, 52.14 30.06, 49.87 51.34 M50.97 -0.41 C50.28 16.25, 50.2 31.99, 49.1 49.5 M51.83 51.18 C34.38 48.81, 20.62 48.47, -0.43 48.7 M49.67 49.81 C33.68 50.35, 16.42 49.82, -0.19 50.14 M-0.18 49.26 C2.06 38.83, 1.85 24.03, -0.56 -1.03 M-0.13 49.94 C-0.74 36.58, 0.47 22.26, -0.26 -0.48" stroke="#f0883e" stroke-width="1" fill="none"></path></g><g transform="translate(389.14000701904297 256) rotate(0 10.859992980957031 9.375)"><text x="10.859992980957031" y="NaN" font-family="Virgil, Segoe UI Emoji" font-size="15px" fill="#ffffff" text-anchor="middle" style="white-space: pre;" direction="ltr">TC</text></g><g stroke-linecap="round" transform="translate(354 310) rotate(0 46 40)"><path d="M-0.29 -1.32 L91.26 -1.8 L91.21 78.83 L0.62 80.64" stroke="none" stroke-width="0" fill="#3a1d6e"></path><path d="M-1.74 -1.97 C35.99 0.96, 74.17 0.95, 91.69 -0.67 M-0.67 -0.86 C24.24 -0.03, 47.15 -1.48, 91.76 0.35 M90.4 0.55 C93.5 23.72, 91.01 47, 90.14 78.84 M91.3 -0.8 C92.19 26.57, 92.53 53.38, 91.25 80.33 M93.14 80.8 C72.88 78.3, 54.18 80.77, 1.95 79.56 M92.33 80.05 C56.56 81.15, 19.94 80.3, 0.18 79.63 M0.92 78.48 C-0.17 57.06, 1.99 32.42, -0.57 0.77 M-0.53 80.97 C0.37 57.43, -0.09 34.01, 0.05 0.83" stroke="#a371f7" stroke-width="2" fill="none"></path></g><g transform="translate(373.9740295410156 341.875) rotate(0 26.025970458984375 8.125)"><text x="26.025970458984375" y="NaN" font-family="Virgil, Segoe UI Emoji" font-size="13px" fill="#ffffff" text-anchor="middle" style="white-space: pre;" direction="ltr">Compute</text></g><g stroke-linecap="round" transform="translate(354 420) rotate(0 46 10)"><path d="M33.87 0.31 C41.99 -0.09, 53.74 0.46, 62.25 1.21 C70.77 1.96, 79.9 3.25, 84.94 4.81 C89.97 6.38, 93.14 8.67, 92.47 10.62 C91.8 12.56, 86.92 15.1, 80.91 16.49 C74.9 17.88, 65.02 18.46, 56.4 18.98 C47.78 19.49, 37.31 20.3, 29.2 19.58 C21.08 18.86, 12.58 16.46, 7.7 14.67 C2.82 12.88, -0.44 10.66, -0.1 8.85 C0.24 7.05, 2.94 5.19, 9.75 3.86 C16.56 2.52, 34.77 1.56, 40.76 0.86 C46.75 0.16, 45.74 -0.28, 45.66 -0.35 M44.25 -0.98 C53.02 -1.37, 64.36 -0.87, 71.54 0.33 C78.73 1.52, 84.19 4.2, 87.34 6.21 C90.48 8.21, 92.35 10.26, 90.42 12.37 C88.49 14.48, 82.67 17.37, 75.73 18.87 C68.79 20.37, 57.64 21.64, 48.77 21.37 C39.9 21.1, 30.02 18.43, 22.52 17.23 C15.03 16.04, 7.5 15.66, 3.8 14.21 C0.1 12.77, -1.92 10.65, 0.34 8.56 C2.6 6.47, 10.01 3.34, 17.33 1.67 C24.66 0, 39.87 -1.01, 44.31 -1.44 C48.76 -1.87, 43.99 -1.38, 44.01 -0.92" stroke="none" stroke-width="0" fill="#0d2c5a"></path><path d="M43.42 -0.39 C52.14 -0.49, 63.29 1.2, 70.74 2.3 C78.19 3.41, 84.7 4.5, 88.1 6.25 C91.5 8.01, 93.05 11.06, 91.13 12.83 C89.21 14.61, 83.4 15.85, 76.6 16.89 C69.8 17.92, 59.33 18.87, 50.33 19.05 C41.32 19.23, 30.33 18.79, 22.56 17.96 C14.79 17.12, 7.16 15.91, 3.71 14.04 C0.26 12.16, -0.13 8.53, 1.87 6.72 C3.86 4.92, 8.02 4.16, 15.69 3.21 C23.36 2.25, 41.45 1.61, 47.89 0.98 C54.33 0.35, 54.21 -0.59, 54.34 -0.55 M38.37 -1.34 C46.51 -2.22, 57.61 -1.26, 65.78 -0.33 C73.95 0.6, 82.91 2.15, 87.41 4.25 C91.92 6.34, 94.44 10.04, 92.82 12.24 C91.2 14.43, 84.38 16.17, 77.7 17.4 C71.03 18.63, 61.37 19.35, 52.77 19.63 C44.17 19.91, 34.12 19.7, 26.08 19.1 C18.04 18.5, 8.73 17.56, 4.53 16.03 C0.34 14.5, -0.35 11.89, 0.9 9.92 C2.15 7.96, 5.81 6.09, 12.04 4.26 C18.27 2.43, 33.87 -0.38, 38.28 -1.05 C42.69 -1.72, 38.21 -0.07, 38.49 0.22" stroke="#58a6ff" stroke-width="2" fill="none"></path></g><g stroke-linecap="round" transform="translate(354 430) rotate(0 46 35)"><path d="M1.87 -0.1 L91.75 0.61 L90.86 68.51 L1.34 71.04" stroke="none" stroke-width="0" fill="#0d2c5a"></path><path d="M0.61 1.89 C20.49 -1.42, 44.67 -2.44, 92.95 -1.98 M0.43 -0.64 C23.64 0.43, 47.55 1.24, 92.7 0.65 M93.2 -1.76 C90.76 18.29, 92.72 37.41, 93.56 69.33 M91.84 -0.21 C92.23 21.82, 91.44 45.31, 91.08 69.92 M92.09 71.76 C66.17 72.59, 42.06 72.59, 0.07 69.89 M92.87 69.9 C57.81 69.23, 23.23 69.15, -0.55 69.61 M1.27 70.5 C-0.73 43.09, 0.64 17.92, -1.11 0.27 M0.86 69.47 C0.5 43.04, 0.85 18.42, -0.01 0.43" stroke="#58a6ff" stroke-width="2" fill="none"></path></g><g stroke-linecap="round" transform="translate(354 490) rotate(0 46 10)"><path d="M60.16 -0.17 C68.46 0.17, 76.88 2.14, 82.04 3.83 C87.2 5.51, 90.89 7.93, 91.13 9.95 C91.37 11.97, 88.54 14.25, 83.49 15.94 C78.44 17.63, 69.36 19.57, 60.85 20.07 C52.35 20.56, 41.14 19.43, 32.45 18.93 C23.75 18.43, 14.09 18.57, 8.69 17.07 C3.29 15.56, 0.06 12.03, 0.05 9.91 C0.04 7.79, 3.67 5.86, 8.62 4.34 C13.58 2.82, 20.77 1.23, 29.77 0.79 C38.78 0.35, 56.36 1.54, 62.63 1.71 C68.91 1.89, 67.47 1.91, 67.43 1.83 M63.02 -0.39 C71.24 0, 81.19 1.64, 85.78 3.45 C90.38 5.26, 91.31 8.18, 90.57 10.46 C89.83 12.75, 86.84 15.55, 81.33 17.15 C75.81 18.74, 66.22 19.89, 57.5 20.04 C48.77 20.19, 37.2 18.99, 28.98 18.07 C20.75 17.15, 12.77 15.95, 8.13 14.53 C3.49 13.11, 0.94 11.3, 1.13 9.52 C1.33 7.75, 3.56 5.51, 9.28 3.89 C15.01 2.27, 26.48 0.21, 35.48 -0.18 C44.47 -0.57, 58.57 1.41, 63.25 1.53 C67.93 1.65, 64.12 0.45, 63.55 0.52" stroke="none" stroke-width="0" fill="#0d2c5a"></path><path d="M39.32 0.67 C47.55 0.15, 58.25 0.6, 66.24 1.25 C74.22 1.9, 82.91 2.78, 87.23 4.58 C91.55 6.38, 93.73 10, 92.16 12.05 C90.59 14.11, 84.24 15.56, 77.8 16.92 C71.36 18.27, 62.42 19.92, 53.53 20.16 C44.65 20.4, 32.6 19.21, 24.49 18.35 C16.39 17.48, 8.82 16.47, 4.89 14.99 C0.96 13.5, -0.4 11.39, 0.91 9.44 C2.21 7.49, 5.76 4.81, 12.73 3.27 C19.71 1.74, 37.08 0.76, 42.74 0.26 C48.4 -0.25, 46.7 0.18, 46.71 0.23 M32.94 0.85 C40.86 0.09, 52.68 -1.27, 61.15 -0.47 C69.62 0.33, 78.71 3.83, 83.76 5.64 C88.81 7.46, 91.86 8.66, 91.45 10.42 C91.05 12.18, 86.65 14.47, 81.32 16.23 C75.98 17.98, 68.16 20.27, 59.43 20.95 C50.7 21.63, 37.33 21.16, 28.95 20.32 C20.56 19.48, 14 17.54, 9.12 15.94 C4.25 14.34, -0.3 12.73, -0.31 10.72 C-0.31 8.7, 3.41 5.56, 9.11 3.84 C14.82 2.12, 29.85 1.03, 33.91 0.38 C37.98 -0.28, 33.26 -0.14, 33.51 -0.09" stroke="#58a6ff" stroke-width="2" fill="none"></path></g><g transform="translate(389.4510040283203 457) rotate(0 10.548995971679688 8.75)"><text x="10.548995971679688" y="NaN" font-family="Virgil, Segoe UI Emoji" font-size="14px" fill="#ffffff" text-anchor="middle" style="white-space: pre;" direction="ltr">DB</text></g><g transform="translate(30 620) rotate(0 89.06395721435547 10)"><text x="0" y="NaN" font-family="Virgil, Segoe UI Emoji" font-size="16px" fill="#f0b070" text-anchor="start" style="white-space: pre;" direction="ltr">Stacks per tenant:   1</text></g><g transform="translate(30 644) rotate(0 112.6019058227539 8.75)"><text x="0" y="NaN" font-family="Virgil, Segoe UI Emoji" font-size="14px" fill="#c9d1d9" text-anchor="start" style="white-space: pre;" direction="ltr">Cost / tenant / yr:   ~$1,000+</text></g><g transform="translate(30 666) rotate(0 86.44291687011719 8.75)"><text x="0" y="NaN" font-family="Virgil, Segoe UI Emoji" font-size="14px" fill="#3fb950" text-anchor="start" style="white-space: pre;" direction="ltr">Blast radius: one tenant</text></g><g stroke-opacity="0.8" fill-opacity="0.8" stroke-linecap="round" transform="translate(645 180) rotate(0 25 25)"><path d="M1.51 1.27 L49.77 1.72 L50.44 48.32 L1.53 48.24" stroke="none" stroke-width="0" fill="#3fb950"></path><path d="M-1.55 -0.25 C10.03 0.04, 21.77 0.16, 51.17 -0.65 M0.09 0.56 C18.27 0.55, 37.46 0.75, 49.53 0.98 M51.31 -0.08 C48.77 12.88, 49.1 28.88, 49.83 51.28 M50.88 0.19 C50.16 19.72, 49.69 38.37, 49.22 50.55 M49.31 48.71 C37.22 48.62, 21.97 51.29, 1.66 48.5 M49.36 50.78 C37.06 50.9, 24.88 50.53, 0.6 50.4 M0.96 50.59 C0.79 32.85, -1.96 20.18, 1.37 -0.89 M-0.72 50.86 C-0.09 38.77, -0.24 28.25, 0.8 0.27" stroke="#3fb950" stroke-width="1" fill="none"></path></g><g transform="translate(659.0500030517578 198) rotate(0 10.949996948242188 9.375)"><text x="10.949996948242188" y="NaN" font-family="Virgil, Segoe UI Emoji" font-size="15px" fill="#ffffff" text-anchor="middle" style="white-space: pre;" direction="ltr">TA</text></g><g stroke-opacity="0.8" fill-opacity="0.8" stroke-linecap="round" transform="translate(725 180) rotate(0 25 25)"><path d="M-1.32 -1.4 L50.51 0.94 L51.79 51.27 L-1.09 48.47" stroke="none" stroke-width="0" fill="#58a6ff"></path><path d="M-0.71 -1.15 C15.79 -0.91, 31.01 1.15, 50.02 1.84 M0.48 0.44 C14.37 -0.6, 29.45 -0.76, 49.54 0.24 M51.43 0.14 C49.05 10.44, 50.75 23.33, 48.47 49.38 M50.86 0.11 C49.13 15.47, 49.43 28.08, 50.69 49.44 M51.29 51.73 C33.73 49, 16.43 48.73, -1.91 50.03 M50.28 50.49 C31.34 50.85, 10.89 49.8, 0.33 49.98 M1.61 49.76 C-0.18 36.61, -0.75 24.5, 1.49 -1.99 M-0.92 49.17 C-0.28 37.56, 0.15 25.9, -0.57 -0.92" stroke="#58a6ff" stroke-width="1" fill="none"></path></g><g transform="translate(738.5175018310547 198) rotate(0 11.482498168945312 9.375)"><text x="11.482498168945312" y="NaN" font-family="Virgil, Segoe UI Emoji" font-size="15px" fill="#ffffff" text-anchor="middle" style="white-space: pre;" direction="ltr">TB</text></g><g stroke-opacity="0.8" fill-opacity="0.8" stroke-linecap="round" transform="translate(805 180) rotate(0 25 25)"><path d="M-0.9 -1.56 L48.83 -0.48 L48.83 48.49 L-0.4 48.07" stroke="none" stroke-width="0" fill="#f0883e"></path><path d="M-1.69 -0.31 C13.28 0.35, 28.18 1.23, 48.48 -1.86 M0.91 0.41 C17.08 0.92, 34.07 -0.02, 49.2 -0.86 M51.11 -0.29 C50.13 13.49, 51.76 29.39, 48.91 49.34 M50.46 0.55 C50.59 10.38, 48.89 20.54, 49.58 50.82 M51.39 51.95 C35.24 51.67, 21.45 51.58, -0.45 50.43 M49.94 50.34 C35.92 49.25, 21.24 50.63, 0.16 50.64 M1.7 50.55 C0.56 31.2, 0.5 17.01, 0.28 -1.39 M-0.58 49.91 C-0.66 32.91, -0.75 14.2, -0.17 -0.56" stroke="#f0883e" stroke-width="1" fill="none"></path></g><g transform="translate(819.140007019043 198) rotate(0 10.859992980957031 9.375)"><text x="10.859992980957031" y="NaN" font-family="Virgil, Segoe UI Emoji" font-size="15px" fill="#ffffff" text-anchor="middle" style="white-space: pre;" direction="ltr">TC</text></g><g stroke-linecap="round" transform="translate(540 260) rotate(0 210 40)"><path d="M0.91 0.57 L421.16 1.37 L419.58 80.91 L0.47 79.64" stroke="none" stroke-width="0" fill="#3a1d6e"></path><path d="M-0.06 0.3 C110.62 -1.79, 220.92 -0.63, 420.38 -0.47 M-0.33 -0.49 C86.93 1.82, 173.13 1.67, 419.57 -0.25 M418.63 0.24 C417.9 33.02, 418.18 62.95, 418.51 80.54 M419.56 -0.95 C419.33 19.81, 419.97 39.13, 419.39 79.77 M420.19 79.3 C286.64 79.35, 152.46 78.61, 0.02 80.6 M419.73 80.24 C298.44 78.71, 176.5 78.67, -0.5 80.3 M-0.82 78.25 C1.78 54.24, 1.68 33.49, 1.76 0.08 M-0.97 79.29 C0.32 55.43, 0.02 31.18, 0.33 -0.77" stroke="#a371f7" stroke-width="3" fill="none"></path></g><g transform="translate(588.4051513671875 290.625) rotate(0 161.5948486328125 9.375)"><text x="161.5948486328125" y="NaN" font-family="Virgil, Segoe UI Emoji" font-size="15px" fill="#ffffff" text-anchor="middle" style="white-space: pre;" direction="ltr">SHARED Compute (one fleet, tenant-aware)</text></g><g stroke-linecap="round"><g transform="translate(670 230) rotate(0 0 13)"><path d="M0.55 -0.6 C0.45 3.43, 0.33 20.43, 0.23 24.86 M-0.62 1.7 C-0.93 5.77, -0.56 21.54, -0.6 25.79" stroke="#3fb950" stroke-width="2" fill="none"></path></g><g transform="translate(670 230) rotate(0 0 13)"><path d="M-5.78 13.85 C-4.63 18, -1.77 23.12, -1.42 25.39 M-4.93 13.21 C-3.2 17.57, -1.36 22.86, -0.15 26.08" stroke="#3fb950" stroke-width="2" fill="none"></path></g><g transform="translate(670 230) rotate(0 0 13)"><path d="M3.11 13.79 C0.98 18, 0.56 23.15, -1.42 25.39 M3.96 13.15 C2.45 17.55, 1.05 22.87, -0.15 26.08" stroke="#3fb950" stroke-width="2" fill="none"></path></g></g><g stroke-linecap="round"><g transform="translate(750 230) rotate(0 0 13)"><path d="M-0.43 -0.1 C-0.69 4.18, -1.11 21.54, -0.99 25.97 M1.54 -1.2 C1.6 3.26, 1.52 23.23, 1.2 27.49" stroke="#58a6ff" stroke-width="2" fill="none"></path></g><g transform="translate(750 230) rotate(0 0 13)"><path d="M-2.97 14.07 C-1.46 19.72, 0.48 24.29, 1.21 26.63 M-3.39 15.76 C-2.55 17.26, -0.86 20.38, 1.09 27.61" stroke="#58a6ff" stroke-width="2" fill="none"></path></g><g transform="translate(750 230) rotate(0 0 13)"><path d="M5.91 14.35 C4.35 19.86, 3.22 24.35, 1.21 26.63 M5.5 16.04 C4.33 17.56, 4.02 20.61, 1.09 27.61" stroke="#58a6ff" stroke-width="2" fill="none"></path></g></g><g stroke-linecap="round"><g transform="translate(830 230) rotate(0 0 13)"><path d="M0.68 -0.36 C0.61 3.76, 0.37 21.13, 0.25 25.4 M-0.42 -1.6 C-0.69 2.62, -0.5 21.99, -0.57 26.62" stroke="#f0883e" stroke-width="2" fill="none"></path></g><g transform="translate(830 230) rotate(0 0 13)"><path d="M-5.39 14.66 C-4 18.69, -2.57 22.87, -0.72 26.02 M-4.63 14.1 C-4.57 17.29, -3.58 20.48, -0.7 27.03" stroke="#f0883e" stroke-width="2" fill="none"></path></g><g transform="translate(830 230) rotate(0 0 13)"><path d="M3.5 14.68 C1.71 18.75, -0.04 22.93, -0.72 26.02 M4.26 14.11 C2.24 17.36, 1.14 20.54, -0.7 27.03" stroke="#f0883e" stroke-width="2" fill="none"></path></g></g><g stroke-linecap="round" transform="translate(547 390) rotate(0 55 10)"><path d="M58.21 0.33 C67.78 0.03, 79.89 0.33, 87.77 1.31 C95.64 2.3, 101.84 4.45, 105.47 6.23 C109.09 8, 111.52 10.19, 109.53 11.96 C107.53 13.73, 100.44 15.6, 93.49 16.83 C86.53 18.06, 77.25 18.85, 67.79 19.34 C58.33 19.83, 46.19 20.22, 36.71 19.79 C27.24 19.36, 16.92 18.36, 10.94 16.75 C4.97 15.15, 1.46 12.11, 0.85 10.19 C0.24 8.27, 2.62 6.79, 7.26 5.24 C11.91 3.7, 19.85 1.84, 28.71 0.92 C37.56 -0.01, 54.49 -0.25, 60.41 -0.33 C66.34 -0.42, 64.25 0.1, 64.25 0.39 M79.26 1.25 C88.03 1.83, 97 3.18, 102.07 4.59 C107.14 5.99, 109.89 8.03, 109.66 9.69 C109.43 11.35, 105.95 12.89, 100.68 14.55 C95.41 16.21, 87.03 18.99, 78.04 19.65 C69.06 20.3, 56.81 19.01, 46.75 18.5 C36.68 17.98, 24.92 17.59, 17.67 16.56 C10.41 15.52, 5.7 13.97, 3.21 12.28 C0.73 10.58, -0.16 7.86, 2.75 6.39 C5.67 4.92, 13.02 4.56, 20.7 3.46 C28.37 2.36, 39.14 0.36, 48.8 -0.22 C58.46 -0.81, 73.74 -0.35, 78.65 -0.04 C83.55 0.26, 78.39 1.41, 78.25 1.6" stroke="none" stroke-width="0" fill="#0d2c5a"></path><path d="M45.83 -0.2 C54.9 -0.62, 67.31 0.52, 76.48 1.4 C85.65 2.28, 95.19 3.53, 100.87 5.06 C106.55 6.59, 110.56 8.75, 110.56 10.58 C110.57 12.4, 106.12 14.71, 100.9 16 C95.69 17.3, 87.99 17.8, 79.27 18.35 C70.54 18.9, 58.4 19.4, 48.56 19.28 C38.73 19.16, 28.08 18.73, 20.24 17.63 C12.39 16.54, 4.57 14.29, 1.52 12.71 C-1.54 11.12, -0.8 9.82, 1.92 8.13 C4.65 6.45, 9.67 4.07, 17.88 2.6 C26.1 1.12, 44.72 -0.35, 51.21 -0.7 C57.71 -1.05, 56.75 0.36, 56.85 0.51 M42.48 0.64 C51.71 -0.24, 64.91 -1.04, 74.06 -0.39 C83.2 0.27, 91.18 2.93, 97.37 4.56 C103.56 6.18, 110.1 7.75, 111.18 9.39 C112.26 11.03, 108.51 12.66, 103.85 14.39 C99.2 16.12, 91.84 18.71, 83.26 19.75 C74.68 20.78, 62.28 20.81, 52.36 20.61 C42.45 20.4, 31.68 19.77, 23.77 18.51 C15.87 17.25, 8.92 15.01, 4.95 13.03 C0.99 11.05, -2 8.52, 0 6.63 C2.01 4.73, 9.92 2.95, 16.99 1.66 C24.06 0.36, 38.21 -0.9, 42.41 -1.14 C46.62 -1.37, 41.96 0.1, 42.21 0.26" stroke="#3fb950" stroke-width="2" fill="none"></path></g><g stroke-linecap="round" transform="translate(547 400) rotate(0 55 45)"><path d="M-0.45 0.52 L111.74 -0.29 L111.32 91.12 L-1.54 90.75" stroke="none" stroke-width="0" fill="#0d2c5a"></path><path d="M1.42 -0.14 C36.4 -0.78, 74.09 2.5, 111.21 -0.6 M-0.59 -0.5 C39.34 1.42, 78.92 1.01, 110.1 0.67 M109.55 0.93 C107.77 30.73, 107.67 64.73, 108.46 89.19 M109.25 -0.65 C110.09 30.1, 110.52 60.74, 109.91 89.12 M111.97 89.78 C68.82 91.34, 24.3 90.5, 1.01 88.07 M109.49 90.39 C80.46 89.92, 50.49 88.53, -0.8 89.62 M0.89 91.91 C-1.34 67.55, 0.21 47.37, 1.4 1.14 M-0.5 90.06 C0.12 63.96, 0.28 37.33, -0.07 0.81" stroke="#3fb950" stroke-width="2" fill="none"></path></g><g stroke-linecap="round" transform="translate(547 480) rotate(0 55 10)"><path d="M33.99 1.15 C42.26 0.22, 54.59 -0.22, 64.34 -0.07 C74.08 0.07, 85.3 0.83, 92.47 2.01 C99.65 3.2, 105.05 5.13, 107.38 7.02 C109.71 8.91, 109.35 11.63, 106.44 13.36 C103.54 15.08, 97.55 16.34, 89.93 17.38 C82.31 18.42, 70.47 19.2, 60.71 19.61 C50.94 20.02, 40.29 20.61, 31.36 19.86 C22.43 19.11, 12.41 16.74, 7.13 15.11 C1.86 13.48, -0.56 11.85, -0.29 10.07 C-0.02 8.29, 2.24 6, 8.75 4.44 C15.25 2.89, 33.03 1.27, 38.73 0.73 C44.43 0.19, 42.63 1.25, 42.96 1.2 M75.57 0.11 C84.99 0.47, 95.54 3.08, 101.12 4.86 C106.69 6.64, 109.01 8.98, 109.04 10.78 C109.06 12.59, 106.13 14.55, 101.26 15.66 C96.39 16.77, 88.6 16.87, 79.83 17.44 C71.07 18.01, 58.43 19.2, 48.66 19.09 C38.9 18.97, 29.01 17.75, 21.26 16.75 C13.51 15.75, 5.2 14.58, 2.14 13.1 C-0.92 11.63, 0.61 9.79, 2.92 7.92 C5.23 6.05, 8.91 3.41, 15.97 1.89 C23.04 0.36, 35.54 -0.95, 45.28 -1.23 C55.03 -1.5, 69.38 -0.31, 74.45 0.23 C79.51 0.76, 75.96 1.9, 75.69 1.99" stroke="none" stroke-width="0" fill="#0d2c5a"></path><path d="M55.59 0.21 C64.87 0.33, 77.63 1.53, 85.93 2.46 C94.22 3.39, 101.39 4.14, 105.38 5.8 C109.36 7.45, 111.41 10.59, 109.85 12.38 C108.29 14.17, 102.91 15.28, 96.03 16.54 C89.15 17.81, 78.14 19.41, 68.55 19.97 C58.97 20.53, 48.01 20.56, 38.51 19.9 C29.02 19.24, 17.88 17.65, 11.6 16.04 C5.32 14.43, 1.97 12.11, 0.85 10.23 C-0.28 8.35, 0.59 6.21, 4.87 4.77 C9.15 3.32, 16.97 2.3, 26.51 1.55 C36.05 0.8, 55.22 0.54, 62.12 0.27 C69.02 -0.01, 68.09 -0.28, 67.91 -0.08 M49.75 1.12 C59.36 1.25, 72.23 1.7, 80.91 2.42 C89.59 3.14, 96.87 4.35, 101.83 5.42 C106.79 6.5, 110.91 7.15, 110.68 8.88 C110.45 10.6, 106.03 13.89, 100.46 15.76 C94.89 17.64, 86.46 19.52, 77.27 20.11 C68.08 20.69, 55.03 19.53, 45.32 19.27 C35.61 19.02, 26.1 19.6, 19.01 18.59 C11.93 17.58, 5.49 15.12, 2.79 13.2 C0.1 11.27, -0.1 8.71, 2.84 7.03 C5.79 5.35, 12.83 4.07, 20.47 3.12 C28.11 2.16, 44.18 1.86, 48.69 1.28 C53.2 0.7, 47.53 -0.44, 47.56 -0.37" stroke="#3fb950" stroke-width="2" fill="none"></path></g><g transform="translate(583.3590087890625 427) rotate(0 18.6409912109375 8.75)"><text x="18.6409912109375" y="NaN" font-family="Virgil, Segoe UI Emoji" font-size="14px" fill="#ffffff" text-anchor="middle" style="white-space: pre;" direction="ltr">DB A</text></g><g transform="translate(561.89404296875 445) rotate(0 40.10595703125 13.75)"><text x="40.10595703125" y="NaN" font-family="Virgil, Segoe UI Emoji" font-size="11px" fill="#8b949e" text-anchor="middle" style="white-space: pre;" direction="ltr">(schema or DB</text><text x="40.10595703125" y="NaN" font-family="Virgil, Segoe UI Emoji" font-size="11px" fill="#8b949e" text-anchor="middle" style="white-space: pre;" direction="ltr">per tenant)</text></g><g stroke-linecap="round"><g transform="translate(602 344) rotate(0 0 21)"><path d="M0.91 -0.89 C0.94 6.1, -0.09 35.03, -0.11 42.05 M-0.08 1.25 C-0.18 8.44, -1.2 36.81, -1.12 43.61" stroke="#3fb950" stroke-width="2" fill="none"></path></g><g transform="translate(602 344) rotate(0 0 21)"><path d="M-9.48 23.57 C-6.02 30.39, -5.59 34.8, -1.71 43.39 M-7.04 24.59 C-6.13 29.48, -2.87 35.84, -1.15 43.96" stroke="#3fb950" stroke-width="2" fill="none"></path></g><g transform="translate(602 344) rotate(0 0 21)"><path d="M4.88 23.8 C4.43 30.67, 0.95 35.01, -1.71 43.39 M7.32 24.82 C3.95 29.57, 2.92 35.86, -1.15 43.96" stroke="#3fb950" stroke-width="2" fill="none"></path></g></g><g stroke-linecap="round" transform="translate(694 390) rotate(0 55 10)"><path d="M67.98 -0.03 C77.06 0.43, 87.06 2.63, 93.82 3.96 C100.57 5.29, 106.48 6.22, 108.5 7.97 C110.53 9.72, 109.41 12.74, 105.95 14.46 C102.5 16.18, 95.97 17.29, 87.78 18.29 C79.58 19.29, 66.94 20.55, 56.8 20.46 C46.67 20.37, 35.4 18.82, 26.96 17.76 C18.52 16.71, 10.47 15.48, 6.13 14.14 C1.8 12.81, -0.1 11.49, 0.95 9.75 C2 8.02, 6.38 5.22, 12.42 3.74 C18.46 2.26, 27.37 1.44, 37.18 0.87 C46.98 0.3, 65.34 0.2, 71.26 0.31 C77.19 0.42, 73.1 1.3, 72.73 1.51 M67.51 1.42 C76.86 1.73, 87.57 2.72, 94.68 3.92 C101.8 5.12, 108.35 6.95, 110.21 8.62 C112.07 10.3, 109.49 12.56, 105.85 13.98 C102.21 15.39, 96.49 16.09, 88.37 17.11 C80.24 18.14, 67.19 19.94, 57.09 20.13 C47 20.32, 36.06 19.15, 27.78 18.26 C19.5 17.37, 12.21 16.4, 7.42 14.8 C2.62 13.2, -1.45 10.67, -0.99 8.65 C-0.53 6.63, 3.96 4.15, 10.17 2.69 C16.38 1.23, 26.9 0.42, 36.25 -0.11 C45.61 -0.64, 61.33 -0.49, 66.31 -0.47 C71.3 -0.46, 65.92 -0.35, 66.16 -0.02" stroke="none" stroke-width="0" fill="#0d2c5a"></path><path d="M63.64 0.41 C72.92 0.4, 83.81 1.19, 91.19 2.34 C98.58 3.49, 105.14 5.36, 107.95 7.31 C110.76 9.26, 111.16 12.33, 108.03 14.04 C104.9 15.75, 96.77 16.74, 89.17 17.56 C81.58 18.39, 72.26 18.72, 62.46 19 C52.66 19.27, 39.49 19.67, 30.38 19.2 C21.26 18.72, 12.74 17.68, 7.77 16.17 C2.79 14.67, 0.3 12.12, 0.55 10.18 C0.79 8.24, 3.66 6.19, 9.22 4.53 C14.77 2.87, 23.43 0.82, 33.87 0.2 C44.31 -0.41, 64.71 0.79, 71.85 0.83 C78.99 0.88, 77.12 0.39, 76.69 0.47 M44.28 -0.78 C53.53 -1.2, 67.51 1.6, 76.82 2.21 C86.13 2.81, 94.75 1.51, 100.15 2.85 C105.55 4.19, 109.06 8.42, 109.21 10.26 C109.36 12.1, 105.81 12.31, 101.06 13.88 C96.3 15.46, 89.19 18.6, 80.68 19.71 C72.17 20.83, 60.22 21, 50.01 20.59 C39.81 20.18, 27.19 18.66, 19.44 17.27 C11.68 15.89, 6.43 14.1, 3.48 12.3 C0.52 10.5, -0.5 7.84, 1.72 6.47 C3.93 5.1, 9.74 5.15, 16.77 4.1 C23.81 3.05, 39.41 0.82, 43.95 0.16 C48.48 -0.49, 43.52 0.13, 43.98 0.17" stroke="#58a6ff" stroke-width="2" fill="none"></path></g><g stroke-linecap="round" transform="translate(694 400) rotate(0 55 45)"><path d="M-1.79 -0.68 L109.05 1.54 L110.32 88.1 L1.92 89.43" stroke="none" stroke-width="0" fill="#0d2c5a"></path><path d="M-0.88 -1.17 C40.55 -0.94, 80.65 -0.33, 111.7 0.61 M-0.7 -0.1 C29.74 1.02, 58.2 0.11, 110.18 0.44 M111.87 0.08 C110.18 28.13, 109.83 56.5, 108.19 91.79 M110.22 -0.64 C111.01 20.31, 110.62 42.18, 110.52 90.28 M108.69 88.96 C87.8 89.87, 63.64 88.48, -1.74 90.98 M110.25 89.57 C72.54 89.86, 35.11 89.11, -0.27 89.96 M-0.02 91.3 C2.49 69.96, 2.64 48.6, -0.35 -1.33 M0.66 90.76 C-0.77 58, -0.56 25.03, 0.85 -0.29" stroke="#58a6ff" stroke-width="2" fill="none"></path></g><g stroke-linecap="round" transform="translate(694 480) rotate(0 55 10)"><path d="M78.61 0.61 C87.46 1.34, 96.17 2.9, 101.53 4.58 C106.88 6.26, 111.07 8.8, 110.75 10.67 C110.44 12.54, 105.26 14.37, 99.61 15.8 C93.97 17.24, 85.93 18.61, 76.86 19.27 C67.79 19.94, 54.95 20.29, 45.22 19.82 C35.49 19.34, 25.7 17.58, 18.48 16.44 C11.26 15.31, 4.5 14.67, 1.89 13.02 C-0.71 11.36, -0.29 8.18, 2.87 6.52 C6.03 4.85, 13.18 4.16, 20.85 3.03 C28.51 1.89, 37.98 -0.06, 48.87 -0.31 C59.76 -0.57, 78.97 0.82, 86.2 1.51 C93.44 2.19, 92.87 3.65, 92.26 3.82 M73.74 0.99 C82.82 1.61, 94.34 3.3, 100.18 4.82 C106.01 6.33, 108.3 8.33, 108.73 10.06 C109.16 11.79, 107.23 13.79, 102.76 15.18 C98.29 16.58, 90.5 17.53, 81.92 18.43 C73.34 19.33, 61.13 20.55, 51.29 20.59 C41.46 20.64, 30.71 19.74, 22.91 18.7 C15.1 17.66, 8.26 16.33, 4.46 14.35 C0.65 12.37, -1.72 8.58, 0.09 6.81 C1.9 5.05, 8.25 5.07, 15.32 3.78 C22.39 2.48, 32.54 -0.54, 42.51 -0.94 C52.49 -1.34, 69.9 1.2, 75.17 1.36 C80.44 1.52, 74.67 -0.17, 74.15 0.04" stroke="none" stroke-width="0" fill="#0d2c5a"></path><path d="M58.17 -0.9 C67.74 -1.01, 79.35 0.64, 87.49 1.95 C95.62 3.26, 103.57 5.31, 106.98 6.96 C110.39 8.61, 109.99 10.29, 107.96 11.87 C105.92 13.44, 101.33 15.15, 94.77 16.39 C88.21 17.63, 78.15 18.8, 68.61 19.32 C59.07 19.83, 47.09 19.93, 37.53 19.47 C27.98 19.01, 17.6 17.87, 11.28 16.54 C4.96 15.21, 0.62 13.45, -0.37 11.5 C-1.35 9.55, 0.55 6.67, 5.4 4.83 C10.25 2.98, 19.25 1.28, 28.73 0.43 C38.22 -0.42, 55.7 -0.18, 62.29 -0.29 C68.89 -0.39, 68.21 -0.36, 68.31 -0.22 M56.86 1.26 C66.23 1.11, 79.57 -0.02, 87.62 1.04 C95.68 2.1, 101.79 5.63, 105.2 7.62 C108.61 9.62, 110 11.33, 108.08 12.99 C106.17 14.65, 100.31 16.23, 93.72 17.59 C87.13 18.95, 77.79 20.84, 68.55 21.15 C59.3 21.46, 47.7 20.33, 38.26 19.44 C28.83 18.54, 18.38 17.14, 11.91 15.79 C5.45 14.43, 0.28 12.81, -0.52 11.32 C-1.31 9.83, 2.41 8.46, 7.13 6.85 C11.85 5.24, 19.39 2.61, 27.78 1.64 C36.17 0.68, 52.61 1.54, 57.48 1.06 C62.35 0.59, 57.16 -1.02, 57.02 -1.22" stroke="#58a6ff" stroke-width="2" fill="none"></path></g><g transform="translate(729.8620071411133 427) rotate(0 19.13799285888672 8.75)"><text x="19.13799285888672" y="NaN" font-family="Virgil, Segoe UI Emoji" font-size="14px" fill="#ffffff" text-anchor="middle" style="white-space: pre;" direction="ltr">DB B</text></g><g transform="translate(708.89404296875 445) rotate(0 40.10595703125 13.75)"><text x="40.10595703125" y="NaN" font-family="Virgil, Segoe UI Emoji" font-size="11px" fill="#8b949e" text-anchor="middle" style="white-space: pre;" direction="ltr">(schema or DB</text><text x="40.10595703125" y="NaN" font-family="Virgil, Segoe UI Emoji" font-size="11px" fill="#8b949e" text-anchor="middle" style="white-space: pre;" direction="ltr">per tenant)</text></g><g stroke-linecap="round"><g transform="translate(749 344) rotate(0 0 21)"><path d="M-0.03 0.58 C-0.07 7.3, -0.09 33.82, 0.01 40.8 M-1.5 -0.17 C-1.72 6.62, -1.21 34.95, -0.93 41.71" stroke="#58a6ff" stroke-width="2" fill="none"></path></g><g transform="translate(749 344) rotate(0 0 21)"><path d="M-7.68 22.19 C-8.09 29.42, -2.8 36.5, -1.84 43.6 M-7.72 21.37 C-5.85 28.62, -4.67 34.78, -1.22 42.18" stroke="#58a6ff" stroke-width="2" fill="none"></path></g><g transform="translate(749 344) rotate(0 0 21)"><path d="M6.68 21.81 C1.67 29.16, 2.35 36.36, -1.84 43.6 M6.64 20.99 C4.02 28.41, 0.7 34.68, -1.22 42.18" stroke="#58a6ff" stroke-width="2" fill="none"></path></g></g><g stroke-linecap="round" transform="translate(841 390) rotate(0 55 10)"><path d="M38.6 -0.4 C47.43 -1.18, 59.88 -0.27, 69.53 0.35 C79.19 0.97, 89.78 2.07, 96.53 3.34 C103.28 4.6, 108.5 6.33, 110.01 7.96 C111.51 9.6, 109.42 11.42, 105.55 13.14 C101.68 14.85, 94.97 17.07, 86.8 18.26 C78.64 19.46, 66.64 20.23, 56.56 20.31 C46.49 20.4, 34.96 19.77, 26.34 18.77 C17.71 17.77, 9.14 15.91, 4.82 14.29 C0.5 12.68, -0.88 10.97, 0.41 9.08 C1.71 7.18, 5.62 4.27, 12.61 2.93 C19.59 1.59, 36.79 1.38, 42.33 1.03 C47.87 0.68, 45.61 0.94, 45.85 0.82 M65.76 0.56 C75.06 0.86, 86.64 2.62, 93.92 3.81 C101.19 5, 107.27 6.04, 109.39 7.69 C111.5 9.34, 110.18 11.86, 106.6 13.72 C103.02 15.57, 95.99 17.58, 87.91 18.82 C79.83 20.05, 67.88 20.98, 58.13 21.13 C48.37 21.28, 37.91 20.91, 29.38 19.73 C20.85 18.55, 12.02 15.84, 6.94 14.06 C1.85 12.28, -1.91 10.56, -1.11 9.06 C-0.31 7.56, 5.65 6.66, 11.74 5.03 C17.83 3.4, 26.35 0.14, 35.44 -0.7 C44.54 -1.54, 60.91 -0.36, 66.3 -0.03 C71.69 0.3, 67.95 1.15, 67.79 1.29" stroke="none" stroke-width="0" fill="#0d2c5a"></path><path d="M49.22 -0.72 C58.75 -0.8, 72.02 1.09, 80.88 1.97 C89.75 2.85, 97.72 3.11, 102.41 4.56 C107.1 6.01, 109.46 8.84, 109.02 10.67 C108.59 12.5, 105.31 14.13, 99.81 15.55 C94.3 16.98, 85.06 18.57, 75.99 19.21 C66.91 19.85, 55.13 19.85, 45.35 19.4 C35.58 18.94, 24.66 17.71, 17.33 16.47 C9.99 15.22, 3.64 13.56, 1.34 11.94 C-0.95 10.33, 0.32 8.54, 3.57 6.76 C6.83 4.97, 12.08 2.19, 20.88 1.23 C29.67 0.26, 49.43 1.13, 56.36 0.98 C63.28 0.83, 62.65 0.43, 62.43 0.34 M66.78 -0.69 C76.37 -0.55, 87.76 2.14, 94.82 3.45 C101.89 4.76, 107.44 5.38, 109.15 7.19 C110.85 8.99, 108.45 12.49, 105.05 14.27 C101.66 16.05, 96.79 16.69, 88.77 17.88 C80.75 19.07, 67 21.53, 56.96 21.42 C46.92 21.31, 36.95 18.13, 28.54 17.24 C20.13 16.34, 11.32 17.24, 6.5 16.05 C1.67 14.85, -1.31 11.93, -0.4 10.06 C0.51 8.19, 5.69 6.51, 11.95 4.82 C18.21 3.13, 28.12 0.77, 37.16 -0.09 C46.2 -0.95, 61.31 -0.44, 66.2 -0.35 C71.08 -0.26, 66.31 0.04, 66.46 0.46" stroke="#f0883e" stroke-width="2" fill="none"></path></g><g stroke-linecap="round" transform="translate(841 400) rotate(0 55 45)"><path d="M-1.85 0.72 L108.67 -0.87 L108.82 89.59 L-0.59 91.84" stroke="none" stroke-width="0" fill="#0d2c5a"></path><path d="M-1.38 0.14 C21.19 0.87, 46.03 0.73, 110.8 1.04 M-0.74 -0.17 C38.57 -0.43, 75.94 0.63, 109.52 0.06 M110.8 -1.67 C110.58 36.3, 110.28 70.6, 111.22 91.65 M109.67 -0.22 C110.64 35.89, 109.85 70.59, 109.61 89.52 M109.42 90.43 C76.89 89.23, 44.89 89.8, -1.61 90.82 M110.22 90.35 C83.83 90.11, 56.52 89.55, 0.43 90.78 M-1.59 89.67 C-1.09 53.12, -1.3 18.34, 1.13 -1.37 M-0.68 89.47 C-0.21 69.65, 0.74 50.42, 0.18 -0.61" stroke="#f0883e" stroke-width="2" fill="none"></path></g><g stroke-linecap="round" transform="translate(841 480) rotate(0 55 10)"><path d="M75.87 0.44 C84.89 0.86, 94.3 2.7, 99.85 4.06 C105.4 5.42, 108.53 6.63, 109.16 8.6 C109.79 10.58, 108.26 14.17, 103.62 15.91 C98.98 17.64, 90.27 18.21, 81.33 19 C72.39 19.79, 60.1 20.86, 49.97 20.66 C39.83 20.47, 28.48 18.99, 20.53 17.82 C12.58 16.65, 5.4 15.39, 2.28 13.64 C-0.83 11.9, -0.67 9.01, 1.84 7.36 C4.35 5.72, 10.26 4.89, 17.33 3.78 C24.4 2.68, 34.17 1.24, 44.26 0.74 C54.35 0.24, 71.86 0.74, 77.86 0.8 C83.86 0.86, 80.79 0.9, 80.25 1.11 M58.68 0.45 C67.99 0.46, 80.71 0.51, 88.73 1.58 C96.76 2.65, 103.68 4.88, 106.83 6.87 C109.98 8.87, 109.95 11.92, 107.62 13.54 C105.29 15.16, 99.86 15.27, 92.85 16.57 C85.84 17.86, 75.28 20.74, 65.55 21.3 C55.82 21.86, 43.51 20.86, 34.47 19.94 C25.43 19.02, 17.29 17.24, 11.32 15.79 C5.35 14.34, -0.86 13.15, -1.34 11.24 C-1.82 9.33, 3.05 6.16, 8.43 4.36 C13.8 2.56, 22.4 1.27, 30.9 0.44 C39.39 -0.4, 54.45 -0.47, 59.41 -0.65 C64.37 -0.83, 60.56 -0.85, 60.65 -0.63" stroke="none" stroke-width="0" fill="#0d2c5a"></path><path d="M70.87 1.12 C80.01 1.35, 90.04 1.53, 96.33 2.83 C102.62 4.12, 107.18 6.82, 108.6 8.88 C110.02 10.93, 108.87 13.52, 104.87 15.15 C100.87 16.78, 93.25 17.84, 84.59 18.66 C75.94 19.49, 62.91 20.17, 52.94 20.1 C42.97 20.04, 33 19.25, 24.78 18.27 C16.55 17.29, 7.62 15.75, 3.57 14.23 C-0.48 12.71, -1.31 10.88, 0.48 9.13 C2.27 7.39, 7.54 5.29, 14.32 3.77 C21.1 2.26, 30.54 0.53, 41.17 0.04 C51.8 -0.45, 70.93 0.57, 78.09 0.83 C85.24 1.1, 84.68 1.49, 84.09 1.62 M58.69 0.74 C67.77 0.67, 79.57 1.32, 87.51 2.19 C95.44 3.06, 102.6 4.27, 106.29 5.94 C109.98 7.61, 111.82 10.53, 109.66 12.19 C107.5 13.86, 100.56 14.72, 93.33 15.95 C86.11 17.17, 76.14 19.17, 66.31 19.54 C56.47 19.91, 43.85 18.9, 34.32 18.16 C24.78 17.42, 14.93 16.52, 9.07 15.12 C3.21 13.73, -0.59 11.27, -0.85 9.79 C-1.1 8.31, 2.31 7.75, 7.54 6.25 C12.77 4.74, 22.04 1.94, 30.53 0.77 C39.02 -0.4, 53.9 -0.62, 58.49 -0.74 C63.09 -0.87, 57.73 -0.16, 58.09 -0.01" stroke="#f0883e" stroke-width="2" fill="none"></path></g><g transform="translate(877.4430084228516 427) rotate(0 18.556991577148438 8.75)"><text x="18.556991577148438" y="NaN" font-family="Virgil, Segoe UI Emoji" font-size="14px" fill="#ffffff" text-anchor="middle" style="white-space: pre;" direction="ltr">DB C</text></g><g transform="translate(855.89404296875 445) rotate(0 40.10595703125 13.75)"><text x="40.10595703125" y="NaN" font-family="Virgil, Segoe UI Emoji" font-size="11px" fill="#8b949e" text-anchor="middle" style="white-space: pre;" direction="ltr">(schema or DB</text><text x="40.10595703125" y="NaN" font-family="Virgil, Segoe UI Emoji" font-size="11px" fill="#8b949e" text-anchor="middle" style="white-space: pre;" direction="ltr">per tenant)</text></g><g stroke-linecap="round"><g transform="translate(896 344) rotate(0 0 21)"><path d="M0.38 0.26 C0.52 7.4, 1.2 35.56, 0.97 42.51 M-0.88 -0.64 C-0.82 6.16, 0.15 33.34, 0.53 40.65" stroke="#f0883e" stroke-width="2" fill="none"></path></g><g transform="translate(896 344) rotate(0 0 21)"><path d="M-7.04 22.86 C-4.2 25.61, -2.66 33.02, -1.37 38.99 M-7.53 20.52 C-5.09 25.78, -2.51 30.79, 0.38 40.75" stroke="#f0883e" stroke-width="2" fill="none"></path></g><g transform="translate(896 344) rotate(0 0 21)"><path d="M7.31 22.25 C5.7 25.23, 2.77 32.83, -1.37 38.99 M6.82 19.91 C5.46 25.37, 4.25 30.54, 0.38 40.75" stroke="#f0883e" stroke-width="2" fill="none"></path></g></g><g transform="translate(530 620) rotate(0 179.01589965820312 10)"><text x="0" y="NaN" font-family="Virgil, Segoe UI Emoji" font-size="16px" fill="#f0b070" text-anchor="start" style="white-space: pre;" direction="ltr">Stacks per tenant:   shared compute + 1 DB</text></g><g transform="translate(530 644) rotate(0 104.69891357421875 8.75)"><text x="0" y="NaN" font-family="Virgil, Segoe UI Emoji" font-size="14px" fill="#c9d1d9" text-anchor="start" style="white-space: pre;" direction="ltr">Cost / tenant / yr:   ~$200</text></g><g transform="translate(530 666) rotate(0 155.8688507080078 8.75)"><text x="0" y="NaN" font-family="Virgil, Segoe UI Emoji" font-size="14px" fill="#3fb950" text-anchor="start" style="white-space: pre;" direction="ltr">Blast radius: data isolated, compute shared</text></g><g stroke-opacity="0.8" fill-opacity="0.8" stroke-linecap="round" transform="translate(1145 180) rotate(0 25 25)"><path d="M-0.47 1.14 L51 -0.3 L49.87 50.51 L-0.49 51.45" stroke="none" stroke-width="0" fill="#3fb950"></path><path d="M-1.1 1.2 C11.71 -2.18, 22.69 0.01, 49.78 -0.49 M-0.66 -0.07 C15.55 -1.14, 32.35 -0.36, 49.06 0.71 M48.28 -1.17 C52.1 14.86, 50.75 30.8, 51.4 50.45 M49.49 0.74 C50.33 17.74, 48.79 35.45, 50.29 50.22 M51.27 48.42 C40.03 51.32, 25.06 51.61, 0.55 50.74 M50.82 50.62 C35.53 50.97, 20.78 49.32, 0.4 50.93 M-1.7 51.51 C-1.54 35.91, 0.23 17.05, 0.77 0.69 M-0.27 49.6 C0.43 38.32, -0.2 27.25, -0.86 -0.17" stroke="#3fb950" stroke-width="1" fill="none"></path></g><g transform="translate(1159.0500030517578 198) rotate(0 10.949996948242188 9.375)"><text x="10.949996948242188" y="NaN" font-family="Virgil, Segoe UI Emoji" font-size="15px" fill="#ffffff" text-anchor="middle" style="white-space: pre;" direction="ltr">TA</text></g><g stroke-opacity="0.8" fill-opacity="0.8" stroke-linecap="round" transform="translate(1225 180) rotate(0 25 25)"><path d="M0 -0.28 L50.64 0.93 L49.65 49.18 L0.82 48.63" stroke="none" stroke-width="0" fill="#58a6ff"></path><path d="M1.9 1.86 C12.13 1.93, 23.62 -0.45, 49.93 -1.61 M-0.62 0.8 C11.68 0.14, 21.5 0.49, 49.18 -0.02 M49.85 -0.84 C48.21 13.5, 47.84 28.57, 49.27 49.19 M50.29 0.59 C48.81 18, 48.66 36.96, 49.28 50.85 M49.23 49.52 C37.04 49.26, 26.04 48.93, -1.64 51.33 M50.7 49.8 C30.81 49.97, 9.9 50.67, 0.48 50.66 M1.71 51.91 C0.63 38.39, -0.74 28.06, 0.62 0.85 M-0.83 50.11 C0.28 36.75, 1.03 25.71, 0.42 0.09" stroke="#58a6ff" stroke-width="1" fill="none"></path></g><g transform="translate(1238.5175018310547 198) rotate(0 11.482498168945312 9.375)"><text x="11.482498168945312" y="NaN" font-family="Virgil, Segoe UI Emoji" font-size="15px" fill="#ffffff" text-anchor="middle" style="white-space: pre;" direction="ltr">TB</text></g><g stroke-opacity="0.8" fill-opacity="0.8" stroke-linecap="round" transform="translate(1305 180) rotate(0 25 25)"><path d="M-0.33 1.97 L50.56 0.11 L48.95 49.56 L1.33 50.49" stroke="none" stroke-width="0" fill="#f0883e"></path><path d="M-1.28 1.49 C14.58 0.51, 31.02 -0.83, 48.7 -0.32 M0.44 0.77 C19.23 -0.69, 36.44 0.94, 49.53 0.17 M51.03 1.93 C49.05 10.23, 48.34 24.35, 49.21 51.24 M50.32 0.63 C49.25 10.74, 49.16 24.2, 50.7 50.32 M51.08 51.37 C30.16 51.03, 10.85 51.42, -1.98 50.21 M49.52 49.57 C32.77 50.78, 16.22 50.76, 0.57 50.34 M-1.3 51.47 C1.17 31.83, -1.66 10.58, 0.94 -0.76 M-0.26 49.16 C0.05 33.29, -0.82 17.66, -0.49 0.14" stroke="#f0883e" stroke-width="1" fill="none"></path></g><g transform="translate(1319.140007019043 198) rotate(0 10.859992980957031 9.375)"><text x="10.859992980957031" y="NaN" font-family="Virgil, Segoe UI Emoji" font-size="15px" fill="#ffffff" text-anchor="middle" style="white-space: pre;" direction="ltr">TC</text></g><g stroke-linecap="round" transform="translate(1040 260) rotate(0 210 40)"><path d="M-1.46 1.91 L421.74 -0.47 L421.76 78.8 L0.67 79.9" stroke="none" stroke-width="0" fill="#3a1d6e"></path><path d="M-0.72 0.07 C123.67 2.04, 246.15 1.69, 419.87 -0.55 M0.27 -0.42 C161.4 0.86, 322.36 1.04, 419.5 -0.41 M418.16 -1.22 C419.09 26.73, 419.99 51.98, 420.16 80.73 M419.61 -0.16 C420.38 24.62, 418.66 49.47, 419.16 80.8 M419.37 80.76 C269.02 77.56, 117.28 78.68, -0.52 80.56 M420.28 79.58 C331.51 78.98, 242.1 79.27, 0.05 79.55 M-1.95 81.41 C0.76 58.28, 0.14 32.05, 1.87 -1.37 M-0.75 80.31 C1.4 60.79, 0.41 40.67, -0.78 -0.27" stroke="#a371f7" stroke-width="3" fill="none"></path></g><g transform="translate(1143.6500930786133 290.625) rotate(0 106.34990692138672 9.375)"><text x="106.34990692138672" y="NaN" font-family="Virgil, Segoe UI Emoji" font-size="15px" fill="#ffffff" text-anchor="middle" style="white-space: pre;" direction="ltr">SHARED Compute (one fleet)</text></g><g stroke-linecap="round"><g transform="translate(1170 230) rotate(0 0 13)"><path d="M-0.85 0.65 C-0.74 5.32, -0.59 22.92, -0.56 27.03 M0.91 -0.05 C0.91 4.38, -1.35 21.06, -1.79 25.45" stroke="#3fb950" stroke-width="2" fill="none"></path></g><g transform="translate(1170 230) rotate(0 0 13)"><path d="M-4.07 12.2 C-3.16 14.66, -4.42 18.85, -2.89 26.55 M-4.87 12.33 C-3.76 17.13, -2.48 22.19, -2.2 25.66" stroke="#3fb950" stroke-width="2" fill="none"></path></g><g transform="translate(1170 230) rotate(0 0 13)"><path d="M4.76 13.24 C3.91 15.43, 0.88 19.41, -2.89 26.55 M3.96 13.38 C1.8 17.84, -0.18 22.51, -2.2 25.66" stroke="#3fb950" stroke-width="2" fill="none"></path></g></g><g stroke-linecap="round"><g transform="translate(1250 230) rotate(0 0 13)"><path d="M-0.71 -0.76 C-0.78 3.75, -0.61 22.06, -0.58 26.5 M1.12 1.46 C1.47 5.66, 2.27 20.37, 1.82 24.64" stroke="#58a6ff" stroke-width="2" fill="none"></path></g><g transform="translate(1250 230) rotate(0 0 13)"><path d="M-3.22 11.71 C-0.71 15.27, -0.2 19.44, 2.92 23.67 M-1.75 12.91 C-0.97 16.43, 0.04 21.47, 1.26 25.2" stroke="#58a6ff" stroke-width="2" fill="none"></path></g><g transform="translate(1250 230) rotate(0 0 13)"><path d="M5.67 11.88 C5.66 15.34, 3.64 19.46, 2.92 23.67 M7.14 13.07 C4.58 16.54, 2.25 21.52, 1.26 25.2" stroke="#58a6ff" stroke-width="2" fill="none"></path></g></g><g stroke-linecap="round"><g transform="translate(1330 230) rotate(0 0 13)"><path d="M0.66 -1.14 C0.62 3.43, 0.54 22.55, 0.47 26.91 M-0.46 0.87 C-0.68 5.16, -0.23 21.1, -0.23 25.27" stroke="#f0883e" stroke-width="2" fill="none"></path></g><g transform="translate(1330 230) rotate(0 0 13)"><path d="M-6.1 13.63 C-2.25 17.71, -2.6 21.8, -0.53 25.27 M-4.38 12.97 C-3.75 16.9, -1.17 21.75, 0.12 25.49" stroke="#f0883e" stroke-width="2" fill="none"></path></g><g transform="translate(1330 230) rotate(0 0 13)"><path d="M2.8 13.5 C3.44 17.67, -0.12 21.81, -0.53 25.27 M4.51 12.84 C2.09 16.78, 1.62 21.68, 0.12 25.49" stroke="#f0883e" stroke-width="2" fill="none"></path></g></g><g stroke-linecap="round" transform="translate(1040.5310777081127 376.7166329700716) rotate(0 209.73446114594367 18.6416835149642)"><path d="M236.59 0.78 C257.43 0.77, 280.69 1.88, 300.05 2.65 C319.4 3.42, 337.15 4.25, 352.72 5.39 C368.29 6.52, 382.87 7.71, 393.48 9.46 C404.09 11.22, 412.3 13.93, 416.39 15.94 C420.47 17.94, 420.96 19.57, 418.01 21.5 C415.07 23.42, 408.11 25.91, 398.71 27.52 C389.3 29.12, 376.14 30, 361.59 31.11 C347.03 32.23, 330.13 33.3, 311.37 34.2 C292.61 35.11, 270.2 36.11, 249.01 36.53 C227.82 36.96, 205.75 36.94, 184.23 36.74 C162.71 36.54, 139.52 36.17, 119.88 35.34 C100.24 34.51, 82.01 33.09, 66.36 31.75 C50.71 30.41, 36.46 28.89, 25.98 27.27 C15.5 25.66, 7.37 23.93, 3.47 22.06 C-0.43 20.19, -0.33 18.07, 2.56 16.06 C5.45 14.04, 11.81 11.61, 20.8 9.97 C29.79 8.33, 41.98 7.56, 56.52 6.2 C71.06 4.84, 88.96 2.93, 108.02 1.79 C127.09 0.66, 148.69 -0.36, 170.92 -0.62 C193.15 -0.87, 228.77 0.18, 241.41 0.25 C254.06 0.32, 247.15 -0.46, 246.79 -0.19 M133.42 1.79 C151.47 0.73, 176.18 -0.77, 198.05 -1.14 C219.91 -1.51, 243.65 -0.95, 264.6 -0.45 C285.55 0.06, 305.55 0.5, 323.75 1.9 C341.94 3.29, 360.29 6.05, 373.76 7.93 C387.23 9.81, 397.24 11.63, 404.57 13.19 C411.91 14.75, 416.3 15.75, 417.77 17.29 C419.23 18.84, 418.75 20.5, 413.37 22.46 C408 24.42, 397.44 27.11, 385.51 29.07 C373.59 31.02, 358.79 33.01, 341.82 34.21 C324.85 35.41, 304.1 35.89, 283.69 36.26 C263.29 36.62, 240.67 36.25, 219.38 36.39 C198.09 36.53, 176.31 37.38, 155.93 37.12 C135.54 36.86, 115.2 35.97, 97.06 34.82 C78.92 33.66, 60.8 31.53, 47.08 30.19 C33.36 28.85, 22.7 28.4, 14.75 26.77 C6.79 25.13, 0.66 22.74, -0.64 20.38 C-1.95 18.01, 1.22 14.45, 6.91 12.56 C12.59 10.67, 21.49 10.61, 33.46 9.06 C45.43 7.5, 61.67 4.49, 78.72 3.23 C95.77 1.97, 126.17 1.64, 135.78 1.51 C145.39 1.37, 135.44 2.41, 136.38 2.43" stroke="none" stroke-width="0" fill="#0d2c5a"></path><path d="M204.35 -0.23 C224.84 -0.51, 247.94 1.08, 268.63 1.71 C289.31 2.33, 310.53 2.67, 328.46 3.52 C346.39 4.37, 363.09 5.43, 376.18 6.81 C389.28 8.18, 399.96 9.87, 407.04 11.76 C414.12 13.66, 418.1 16.05, 418.64 18.17 C419.19 20.29, 416.39 22.69, 410.29 24.47 C404.19 26.25, 394.14 27.22, 382.05 28.83 C369.95 30.45, 354.81 33.11, 337.72 34.19 C320.63 35.26, 299.69 34.69, 279.53 35.28 C259.36 35.87, 238.3 37.44, 216.71 37.73 C195.11 38.02, 170.78 37.72, 149.96 37.02 C129.14 36.32, 109.64 34.79, 91.82 33.55 C73.99 32.32, 56.16 31.15, 43.02 29.61 C29.88 28.08, 20.1 26.16, 12.98 24.35 C5.85 22.54, 0.87 20.71, 0.27 18.75 C-0.34 16.78, 3.15 14.47, 9.36 12.55 C15.57 10.64, 25.43 8.85, 37.51 7.26 C49.58 5.66, 64.98 3.95, 81.81 3 C98.64 2.05, 114.54 2.18, 138.48 1.56 C162.43 0.95, 207.79 -0.41, 225.46 -0.68 C243.13 -0.95, 244.77 -0.34, 244.51 -0.07 M200.08 0.2 C220.16 -0.07, 244.42 -0.64, 265.58 -0.24 C286.73 0.16, 308.9 1.48, 326.99 2.6 C345.08 3.72, 361.13 4.71, 374.13 6.47 C387.13 8.24, 397.57 11.24, 405.01 13.17 C412.45 15.09, 417.68 16.3, 418.77 18.02 C419.86 19.74, 417.34 21.71, 411.55 23.49 C405.77 25.27, 395.98 26.94, 384.05 28.68 C372.12 30.42, 357.1 32.66, 339.98 33.93 C322.86 35.21, 301.59 35.78, 281.32 36.35 C261.05 36.92, 239.8 37.55, 218.36 37.35 C196.92 37.16, 173.57 35.51, 152.68 35.2 C131.79 34.88, 111.11 36.07, 93.02 35.49 C74.93 34.9, 57.35 33.5, 44.15 31.67 C30.95 29.85, 21.38 26.38, 13.81 24.53 C6.24 22.69, -0.1 22.59, -1.25 20.62 C-2.4 18.65, 0.9 14.77, 6.9 12.72 C12.91 10.66, 22.92 9.76, 34.78 8.3 C46.63 6.84, 61.12 5.03, 78.03 3.95 C94.93 2.88, 115.93 2.64, 136.21 1.84 C156.49 1.05, 188.77 -0.74, 199.7 -0.83 C210.63 -0.91, 201.6 0.75, 201.77 1.34" stroke="#58a6ff" stroke-width="2" fill="none"></path></g><g stroke-linecap="round" transform="translate(1040.3034712225074 395.05937581210276) rotate(359.4940916109678 209.8332410752472 61.40218675984221)"><path d="M-1.53 -0.65 L417.91 1.74 L420.27 122.85 L-0.51 123.31" stroke="none" stroke-width="0" fill="#0d2c5a"></path><path d="M1.03 0.71 C127.24 0.31, 252.15 -0.37, 419.7 -0.84 M0.13 0.48 C162.46 1.3, 324.63 0.99, 419.62 0.52 M417.91 -1.8 C420.45 43.21, 418.49 86.48, 419.87 121.58 M419.59 -0.62 C419.06 37.87, 418.42 73.44, 419.01 122.22 M418.63 123.76 C271.38 122.39, 121.72 124.16, -0.43 123 M419.15 122.49 C295.5 121.72, 171.55 122.29, -0.49 122.49 M-1.91 121.29 C-2.03 91.55, -0.82 61.29, -1.82 1.33 M0.01 122.51 C-0.29 75.96, -0.74 27.23, -0.09 -0.23" stroke="#58a6ff" stroke-width="2" fill="none"></path></g><g stroke-linecap="round" transform="translate(1040 506) rotate(0 210 12)"><path d="M264.17 0.44 C285.07 0.32, 305.65 0.81, 323.76 1.49 C341.86 2.17, 359.03 3.49, 372.79 4.53 C386.54 5.58, 398.54 6.63, 406.3 7.75 C414.06 8.88, 418.12 10.17, 419.33 11.27 C420.54 12.37, 418.98 13.3, 413.55 14.36 C408.13 15.42, 398.49 16.31, 386.76 17.62 C375.03 18.92, 359.88 21.13, 343.16 22.17 C326.44 23.21, 306.68 23.49, 286.45 23.86 C266.21 24.24, 243.42 24.45, 221.74 24.42 C200.06 24.39, 177.39 23.96, 156.37 23.66 C135.35 23.36, 113.78 23.27, 95.63 22.61 C77.49 21.96, 61.04 20.83, 47.48 19.72 C33.92 18.6, 22.24 17.07, 14.29 15.93 C6.34 14.79, 1 13.86, -0.23 12.87 C-1.46 11.87, 1.34 11, 6.93 9.94 C12.53 8.87, 21.59 7.65, 33.36 6.46 C45.13 5.26, 60.69 3.78, 77.57 2.77 C94.44 1.75, 114.4 0.99, 134.61 0.37 C154.83 -0.26, 176.4 -1.08, 198.88 -0.97 C221.36 -0.86, 257.13 0.75, 269.51 1.04 C281.88 1.34, 274.08 0.54, 273.15 0.8 M305 1.5 C324.83 1.97, 344.2 1.9, 359.62 2.84 C375.04 3.77, 387.75 5.83, 397.52 7.09 C407.28 8.36, 415.02 9.37, 418.21 10.44 C421.41 11.51, 420.17 12.33, 416.68 13.51 C413.19 14.68, 406.89 16.13, 397.27 17.48 C387.65 18.83, 374.7 20.81, 358.97 21.61 C343.25 22.41, 322.54 22.12, 302.92 22.28 C283.3 22.43, 262.19 22.06, 241.27 22.54 C220.35 23.02, 198.52 25.4, 177.41 25.17 C156.3 24.94, 134.16 21.73, 114.62 21.17 C95.07 20.62, 75.6 22.49, 60.14 21.82 C44.68 21.14, 31.3 18.44, 21.85 17.11 C12.4 15.78, 6.86 15.19, 3.45 13.84 C0.04 12.49, -2.1 10.17, 1.37 9.01 C4.85 7.84, 13.96 7.63, 24.29 6.84 C34.62 6.05, 48.22 5.1, 63.37 4.28 C78.52 3.46, 95.86 2.38, 115.2 1.93 C134.54 1.48, 158.12 2.03, 179.4 1.57 C200.68 1.1, 221.51 -0.64, 242.88 -0.86 C264.25 -1.08, 297.24 -0.25, 307.63 0.26 C318.03 0.77, 307.32 1.7, 305.26 2.2" stroke="none" stroke-width="0" fill="#0d2c5a"></path><path d="M148.99 -0.3 C167.8 -0.82, 192.12 0.66, 213.7 0.81 C235.27 0.97, 258.11 0.37, 278.44 0.65 C298.77 0.92, 318.29 1.8, 335.68 2.46 C353.06 3.12, 370.23 3.73, 382.75 4.6 C395.27 5.48, 404.51 6.34, 410.81 7.73 C417.12 9.12, 420.89 11.73, 420.58 12.93 C420.27 14.14, 415.98 14.05, 408.97 14.96 C401.96 15.87, 391.74 17.42, 378.51 18.4 C365.29 19.39, 347.44 20.08, 329.62 20.88 C311.8 21.69, 292.11 22.6, 271.6 23.24 C251.09 23.88, 228.12 24.74, 206.55 24.73 C184.99 24.71, 162.7 23.59, 142.18 23.15 C121.66 22.71, 100.92 22.78, 83.46 22.07 C66 21.37, 49.84 19.91, 37.4 18.92 C24.97 17.94, 15.19 17.42, 8.83 16.17 C2.48 14.92, -1.09 12.7, -0.72 11.43 C-0.35 10.17, 3.85 9.85, 11.06 8.61 C18.27 7.36, 29.62 5.19, 42.54 3.98 C55.46 2.78, 69.94 2.02, 88.57 1.38 C107.2 0.74, 142.16 0.15, 154.32 0.16 C166.47 0.16, 160.48 1.24, 161.48 1.42 M205.55 -0.6 C226.16 -0.89, 249.94 -1.16, 270.83 -0.95 C291.72 -0.73, 313.31 -0.13, 330.89 0.7 C348.47 1.52, 363.25 2.98, 376.31 4.01 C389.38 5.03, 402.2 5.3, 409.27 6.83 C416.33 8.36, 418.44 11.68, 418.71 13.2 C418.99 14.71, 417.15 14.84, 410.92 15.89 C404.69 16.94, 393.87 18.32, 381.33 19.49 C368.78 20.66, 352.65 22.08, 335.67 22.91 C318.69 23.74, 299.61 24.05, 279.46 24.47 C259.31 24.89, 236.27 25.66, 214.77 25.41 C193.27 25.16, 171.29 23.39, 150.44 22.95 C129.58 22.51, 107.54 23.26, 89.64 22.79 C71.74 22.32, 56.25 21.41, 43.05 20.14 C29.85 18.88, 17.61 16.53, 10.45 15.21 C3.28 13.88, 0.06 13.43, 0.06 12.18 C0.07 10.94, 4.11 8.94, 10.48 7.74 C16.84 6.54, 25.95 5.95, 38.24 5 C50.53 4.05, 67.16 2.9, 84.21 2.03 C101.27 1.17, 120.2 0.2, 140.57 -0.19 C160.94 -0.57, 195.34 -0.19, 206.46 -0.28 C217.58 -0.37, 207.39 -1.11, 207.29 -0.71" stroke="#58a6ff" stroke-width="2" fill="none"></path></g><g transform="translate(1053.4903367156016 400.5838099555896) rotate(0 41.67797088623047 8.75)"><text x="0" y="NaN" font-family="Virgil, Segoe UI Emoji" font-size="14px" fill="#ffffff" text-anchor="start" style="white-space: pre;" direction="ltr">SHARED DB</text></g><g stroke-opacity="0.8" fill-opacity="0.8" stroke-linecap="round" transform="translate(1070 440) rotate(0 180 5)"><path d="M-0.45 -0.84 L360.17 -0.73 L359.13 10.23 L1.64 10.16" stroke="none" stroke-width="0" fill="#3fb950"></path><path d="M0.19 1.13 C92.14 1.22, 182.39 -0.04, 359.36 -0.38 M-0.19 0.23 C79.92 0.8, 159.55 1.02, 359.38 -0.01 M360.64 -0.69 C360.44 2.52, 359.84 5.95, 359.74 9.12 M360.04 0.36 C360.32 2.26, 360.06 5.33, 359.51 9.92 M360.11 10.85 C242.86 10.69, 124.72 11.41, -1.06 9.56 M360.11 9.75 C278.65 11.04, 197.58 11.08, 0.31 9.85 M-0.26 10.84 C0.17 7.38, -0.25 4.12, -0.44 0.39 M0.21 9.59 C-0.14 7.66, -0.26 5.33, 0.33 -0.49" stroke="#3fb950" stroke-width="1" fill="none"></path></g><g stroke-opacity="0.8" fill-opacity="0.8" stroke-linecap="round" transform="translate(1070 452) rotate(0 180 5)"><path d="M-1.94 0.58 L358.55 1 L360.27 11.61 L-1.46 11.74" stroke="none" stroke-width="0" fill="#58a6ff"></path><path d="M1.09 -0.07 C133.72 -0.34, 268.19 -1.15, 360.68 -0.69 M-0.01 0.38 C139.34 -0.64, 278.48 -0.36, 360 -0.33 M360.41 -0.14 C359.83 1.51, 359.3 4.27, 360.1 10.25 M360.44 -0.32 C360.18 2.26, 359.67 4.3, 359.89 10.4 M360.35 9.25 C276.93 11.69, 191.85 10.55, -0.8 10.9 M360.44 9.83 C270.95 10.73, 182.29 10.14, -0.36 10.33 M-0.18 10.34 C-0.79 6.66, 0.53 2.28, 0.37 -0.14 M0.14 9.73 C0.01 7.28, 0.02 3.21, -0.06 0.01" stroke="#58a6ff" stroke-width="1" fill="none"></path></g><g stroke-opacity="0.8" fill-opacity="0.8" stroke-linecap="round" transform="translate(1070 464) rotate(0 180 5)"><path d="M1.22 0.2 L359.36 0.8 L361.18 10.43 L-1.25 11.38" stroke="none" stroke-width="0" fill="#3fb950"></path><path d="M-0.36 0.15 C84.29 -2.31, 170.02 -2.52, 359.44 -0.67 M-0.31 -0.25 C79.23 -1.7, 158.88 -1.73, 359.44 -0.25 M359.17 0.02 C360.41 3.63, 359.02 6.92, 360.67 9.65 M360.25 0.16 C359.5 2.48, 360.29 5.78, 360.31 10.38 M360.55 10.92 C237.44 8, 116.7 7.5, 1.06 10.22 M359.86 9.57 C249.65 9.14, 137.95 8.13, -0.6 9.65 M-0.11 10.72 C0.67 7.35, -0.44 2.85, -0.55 0.49 M0.32 9.67 C0.08 7.18, -0.51 4.33, 0.14 -0.43" stroke="#3fb950" stroke-width="1" fill="none"></path></g><g stroke-opacity="0.8" fill-opacity="0.8" stroke-linecap="round" transform="translate(1070 476) rotate(0 180 5)"><path d="M-1.17 -0.06 L360.03 -1.84 L360.27 9.38 L0.96 8.08" stroke="none" stroke-width="0" fill="#f0883e"></path><path d="M0.62 0.86 C125.7 0.7, 249.79 0.89, 360.93 -0.64 M0.1 -0.4 C76.03 -1.06, 152.25 -1.41, 360.23 -0.41 M360.88 -0.58 C359.81 2.07, 359.07 6.43, 359.39 9.37 M360.05 -0.37 C360.31 3.75, 360.27 7.57, 359.99 9.55 M361.03 8.8 C250.02 9.11, 140.53 10.11, 0.63 10.57 M359.65 10.34 C279.34 11.3, 199.65 10.58, -0.5 9.77 M0.8 9.23 C-0.28 5.73, -0.75 3.38, -0.05 -0.73 M0.06 10.47 C0.33 6.51, 0.08 2.42, -0.33 -0.43" stroke="#f0883e" stroke-width="1" fill="none"></path></g><g stroke-opacity="0.8" fill-opacity="0.8" stroke-linecap="round" transform="translate(1070 488) rotate(0 180 5)"><path d="M0.86 0.75 L361.16 0.55 L360.67 10.72 L0.03 10.68" stroke="none" stroke-width="0" fill="#58a6ff"></path><path d="M0.89 1.02 C107.19 0.06, 213.88 0.19, 359.42 1.07 M-0.28 -0.52 C117.04 -2.17, 233.69 -2.27, 360.52 0.35 M359.51 -0.95 C359.33 4.02, 359.36 8.18, 360.39 10.39 M360.19 0.31 C360.09 2.17, 359.62 4.88, 360.18 10.12 M358.96 10.37 C236.39 8.49, 113.28 7.46, 0.18 11.12 M359.83 9.57 C268.71 11.8, 177.79 11.62, -0.04 10.05 M0.67 10.2 C-0.01 7.16, 1.01 2.53, -0.85 0.58 M-0.35 9.87 C0.53 7.7, 0.14 4.42, -0.48 -0.38" stroke="#58a6ff" stroke-width="1" fill="none"></path></g><g stroke-opacity="0.8" fill-opacity="0.8" stroke-linecap="round" transform="translate(1070 500) rotate(0 180 5)"><path d="M0.82 1.28 L359.55 1.16 L360.9 11.94 L0.75 9.02" stroke="none" stroke-width="0" fill="#f0883e"></path><path d="M0.65 -0.61 C103.04 -0.21, 205.92 -1, 360.91 0.29 M0.18 0.62 C100.63 0.34, 199.97 0.82, 360.32 0.31 M360.64 -0.88 C360.27 3.02, 360.08 6.82, 360.11 10.6 M359.84 -0.03 C360.14 2.83, 360.22 5.53, 360.32 9.76 M360.7 9.45 C274.08 7.6, 188.29 9.29, -0.41 10.13 M360.55 10.57 C282.38 12, 203.71 11.75, 0.23 10.21 M-0.63 10.95 C0.34 7.35, -0.02 5.03, -0.47 0.4 M-0.22 10.12 C-0.14 5.63, 0.02 2.45, 0.01 -0.05" stroke="#f0883e" stroke-width="1" fill="none"></path></g><g stroke-opacity="0.8" fill-opacity="0.8" stroke-linecap="round" transform="translate(1070 512) rotate(0 180 5)"><path d="M-1.51 1.78 L358.8 0.15 L358.99 9.68 L-0.29 10.32" stroke="none" stroke-width="0" fill="#3fb950"></path><path d="M0.31 0.79 C129.73 2.57, 260.86 2.68, 360.06 0.35 M-0.52 0.18 C86.26 0.49, 172.21 0.78, 359.69 0.24 M359.35 0.53 C360.04 2.06, 360.68 5.88, 360.94 9.99 M360.18 0.05 C360.13 3.82, 359.99 6.33, 360.15 10.08 M361.02 8.78 C233.59 12.07, 108.25 13.1, -0.89 10.77 M360.17 9.79 C257.92 11.78, 155.37 11.13, -0.5 9.5 M0.82 9.34 C0.8 7.94, 0.22 3.39, 0.35 -0.06 M0.08 10.39 C0.01 7.68, -0.23 4.71, -0.43 -0.26" stroke="#3fb950" stroke-width="1" fill="none"></path></g><g transform="translate(1053.1091599734887 417.42143133596943) rotate(0 168.73983764648438 6.875)"><text x="0" y="NaN" font-family="Virgil, Segoe UI Emoji" font-size="11px" fill="#8b949e" text-anchor="start" style="white-space: pre;" direction="ltr">rows of all tenants mixed; isolated by  WHERE tenant_id = ?</text></g><g transform="translate(1030 620) rotate(0 158.39190673828125 10)"><text x="0" y="NaN" font-family="Virgil, Segoe UI Emoji" font-size="16px" fill="#f0b070" text-anchor="start" style="white-space: pre;" direction="ltr">Stacks per tenant:   shared  (1 for all)</text></g><g transform="translate(1030 644) rotate(0 91.97992706298828 8.75)"><text x="0" y="NaN" font-family="Virgil, Segoe UI Emoji" font-size="14px" fill="#c9d1d9" text-anchor="start" style="white-space: pre;" direction="ltr">Cost / tenant / yr:   ~$1</text></g><g transform="translate(1030 666) rotate(0 167.95083618164062 8.75)"><text x="0" y="NaN" font-family="Virgil, Segoe UI Emoji" font-size="14px" fill="#f85149" text-anchor="start" style="white-space: pre;" direction="ltr">Blast radius:  ALL tenants  (noisy-neighbor risk)</text></g><g transform="translate(10 715) rotate(0 425.97869873046875 11.25)"><text x="0" y="NaN" font-family="Virgil, Segoe UI Emoji" font-size="18px" fill="#f0b070" text-anchor="start" style="white-space: pre;" direction="ltr">Anchor:   1,000× cost spread end-to-end.  Pick the pattern per customer tier, not per company.</text></g></svg>