<svg version="1.1" xmlns="http://www.w3.org/2000/svg" viewBox="0 0 1400 950" width="1400" height="950">
  <!-- svg-source:excalidraw -->
  
  <defs>
    <style>
      @font-face {
        font-family: "Virgil";
        src: url("https://excalidraw.com/Virgil.woff2");
      }
      @font-face {
        font-family: "Cascadia";
        src: url("https://excalidraw.com/Cascadia.woff2");
      }
    </style>
  </defs>
  <rect x="0" y="0" width="1400" height="950" fill="#0d1117"></rect><g transform="translate(10 10) rotate(0 110.5 18)"><text x="0" y="NaN" font-family="Virgil, Segoe UI Emoji" font-size="28px" fill="#f5e0dc" text-anchor="start" style="white-space: pre;" direction="ltr">RAG Pipeline</text></g><g transform="translate(10 54) rotate(0 312 11)"><text x="0" y="NaN" font-family="Virgil, Segoe UI Emoji" font-size="16px" fill="#8b949e" text-anchor="start" style="white-space: pre;" direction="ltr">six independently-tuneable stages — retrieval quality dominates</text></g><g stroke-opacity="0.6" fill-opacity="0.6" stroke-linecap="round" transform="translate(10 100) rotate(0 690 100)"><path d="M-0.32 1.79 L1381.99 1.73 L1378.92 200.78 L0.92 199.22" stroke="none" stroke-width="0" fill="#161b22"></path><path d="M0.28 -0.11 C427.73 5.13, 856.61 5.06, 1379.89 -0.08 M1379.42 0.41 C1381.17 66.42, 1382.07 129.99, 1380.54 200.32 M1380.09 200.54 C986.73 203.25, 591.4 203.06, -0.08 199.23 M1.39 199.86 C1.67 139.78, -1.48 77.6, 0.65 0.34" stroke="#30363d" stroke-width="2.5" fill="none" stroke-dasharray="8 10"></path></g><g transform="translate(30 114) rotate(0 183 12)"><text x="0" y="NaN" font-family="Virgil, Segoe UI Emoji" font-size="18px" fill="#8b949e" text-anchor="start" style="white-space: pre;" direction="ltr">Ingestion (batch / on doc change)</text></g><g stroke-linecap="round" transform="translate(50 190) rotate(0 85 30)"><path d="M-0.44 1.15 L171.93 1.53 L170.57 58.79 L-1.54 58.01" stroke="none" stroke-width="0" fill="#0d2c5a"></path><path d="M-1.5 0.84 C44.79 0.97, 91.22 1.93, 170.22 -0.57 M-0.53 0.33 C63.52 -0.87, 128.09 0.63, 169.83 0.9 M170.11 0.98 C169.11 18.81, 168.26 37.87, 171.06 61.67 M170.67 -0.98 C169.75 24.4, 169.78 47.08, 169.96 60.92 M168.17 59.36 C121.58 59.57, 75.29 58.86, -0.47 60.8 M170.77 60.11 C112.4 60.69, 53.28 61.55, -0.43 59.04 M-1.52 59.33 C0.12 42.92, -1.54 21.24, 1.71 -1.81 M-0.34 59.66 C0.16 45.4, -1.35 31.04, -0.74 0.27" stroke="#58a6ff" stroke-width="2" fill="none"></path></g><g transform="translate(50 207.4) rotate(0 85 12.599999999999994)"><text x="85" y="NaN" font-family="Virgil, Segoe UI Emoji" font-size="18px" fill="#ffffff" text-anchor="middle" style="white-space: pre;" direction="ltr">Documents</text></g><g stroke-linecap="round" transform="translate(280 190) rotate(0 85 30)"><path d="M1.97 -1.94 L170.76 1.09 L170.2 61.26 L-0.07 58.28" stroke="none" stroke-width="0" fill="#3a1d6e"></path><path d="M1.91 0.18 C37.2 0.46, 79.08 -1.48, 168.88 1.41 M-0.99 -0.56 C64.9 0.65, 129.91 1.81, 170.31 -0.4 M168.77 0.72 C169.9 13.45, 171.14 26.11, 168.42 60.73 M169.9 0.61 C168.78 15.83, 168.82 31.12, 170.62 60.63 M169.6 61.09 C112.17 58.84, 49.6 59.68, 0.17 61.59 M170.42 59.31 C116.75 60.58, 62.64 59.46, -0.26 59.3 M0.2 58.47 C0.11 44.66, -1.6 33.66, -0.14 -0.88 M0.89 60.75 C0.08 47.04, 0.22 34.31, -0.64 -0.46" stroke="#a371f7" stroke-width="2" fill="none"></path></g><g transform="translate(280 207.4) rotate(0 85 12.599999999999994)"><text x="85" y="NaN" font-family="Virgil, Segoe UI Emoji" font-size="18px" fill="#ffffff" text-anchor="middle" style="white-space: pre;" direction="ltr">Chunker</text></g><g stroke-linecap="round" transform="translate(500 190) rotate(0 85 30)"><path d="M1.02 -1.78 L170.26 -1.35 L169.41 60.76 L0.47 61.14" stroke="none" stroke-width="0" fill="#3a1d6e"></path><path d="M-0.42 -1.66 C50.74 1.2, 106.31 -1.01, 170.47 1 M-0.94 -0.81 C36.3 2.14, 71.62 1.46, 169.83 0.11 M169.27 1.2 C171.77 22.57, 170.18 42.43, 168.93 59.2 M169.07 0.18 C170.67 15.73, 170.84 29.65, 169.42 60.03 M169.97 59.91 C130.59 60.93, 89.31 60.89, 1.38 60.77 M169.75 60.52 C121.91 59.43, 74.55 58.17, -0.22 60.75 M-1.79 59.93 C-0.22 40.42, -0.06 17.9, 0.6 -0.49 M-0.63 60.2 C-0.4 42.62, -1.39 26.23, -0.92 0.29" stroke="#a371f7" stroke-width="2" fill="none"></path></g><g transform="translate(500 207.4) rotate(0 85 12.599999999999994)"><text x="85" y="NaN" font-family="Virgil, Segoe UI Emoji" font-size="18px" fill="#ffffff" text-anchor="middle" style="white-space: pre;" direction="ltr">Embed model</text></g><g stroke-linecap="round" transform="translate(770 190) rotate(0 85 30)"><path d="M0.15 -1.15 L168.38 1.66 L171.76 58.85 L-0.31 61.52" stroke="none" stroke-width="0" fill="#5c3a10"></path><path d="M-1.28 -0.93 C43.37 0.39, 82.93 0.11, 168.09 0.68 M-0.49 0.92 C67.08 -1.58, 133.41 -0.57, 169.63 0.96 M168.18 0.91 C168.57 23.3, 169.85 45.08, 171.73 60.13 M170.59 0.81 C170.3 16.02, 170.89 30.58, 169.25 59.01 M170.13 59.75 C134.45 60.1, 101.3 60.22, 0.57 58.38 M169.08 59.04 C119.37 59.49, 69.9 58.18, -0.85 60.49 M-0.92 59.15 C-0.64 42.62, -1.7 28.5, 1.18 1.6 M-0.76 59.38 C-0.27 36.9, -0.34 16.32, -0.16 0.08" stroke="#f0883e" stroke-width="2" fill="none"></path></g><g transform="translate(770 207.4) rotate(0 85 12.599999999999994)"><text x="85" y="NaN" font-family="Virgil, Segoe UI Emoji" font-size="18px" fill="#ffffff" text-anchor="middle" style="white-space: pre;" direction="ltr">Vector DB</text></g><g stroke-linecap="round" transform="translate(1020 190) rotate(0 85 30)"><path d="M-1.98 0.02 L171.58 -0.88 L171.38 59.11 L0.93 61.69" stroke="none" stroke-width="0" fill="#5c3a10"></path><path d="M1.01 -1.04 C65.83 0.09, 127.72 -0.19, 168.03 0.16 M-0.98 -0.4 C51.34 0.39, 102.83 0.91, 169.09 0.77 M171.15 0.04 C167.83 17.93, 171.04 37.98, 168.82 59.64 M169.32 0.59 C170.79 24.45, 169.56 47.39, 170.49 60.68 M169.33 58.73 C107.06 60.42, 47.8 61.72, 0.06 58.58 M169.66 59.2 C107.97 59.13, 48.14 58.4, -0.17 59.8 M-1.64 60.26 C1.92 39.88, 0.4 23.05, -1.39 -0.51 M0.89 60.12 C0.03 42.7, 0.16 24.7, 0.1 -0.76" stroke="#f0883e" stroke-width="2" fill="none"></path></g><g transform="translate(1020 207.4) rotate(0 85 12.599999999999994)"><text x="85" y="NaN" font-family="Virgil, Segoe UI Emoji" font-size="18px" fill="#ffffff" text-anchor="middle" style="white-space: pre;" direction="ltr">BM25 index</text></g><g stroke-linecap="round"><g transform="translate(220 220) rotate(0 30 0)"><path d="M0.41 -0.98 C10.39 -1.14, 50.31 -1.02, 60.39 -0.74 M-0.83 1.12 C8.98 1.08, 49.4 0.82, 59.65 0.41" stroke="#3fb950" stroke-width="2" fill="none"></path></g><g transform="translate(220 220) rotate(0 30 0)"><path d="M30.04 11.91 C40.05 8.97, 52.01 3.45, 57.75 -0.48 M31.02 12.1 C40.37 8.05, 50.33 3.83, 59.96 1.34" stroke="#3fb950" stroke-width="2" fill="none"></path></g><g transform="translate(220 220) rotate(0 30 0)"><path d="M29.62 -8.61 C39.81 -4.48, 51.92 -2.94, 57.75 -0.48 M30.6 -8.42 C40.16 -5.36, 50.27 -2.48, 59.96 1.34" stroke="#3fb950" stroke-width="2" fill="none"></path></g></g><g stroke-linecap="round"><g transform="translate(450 220) rotate(0 25 0)"><path d="M-0.27 -0.46 C8.05 -0.34, 41.32 0.97, 49.73 1.08 M1.79 -1.74 C9.94 -1.97, 40.68 -1.03, 48.64 -0.48" stroke="#3fb950" stroke-width="2" fill="none"></path></g><g transform="translate(450 220) rotate(0 25 0)"><path d="M24.01 6.53 C33.35 5.24, 38.63 4.71, 50.45 -1.31 M25.2 6.8 C32.22 5.46, 40.27 2.49, 48.38 -1.28" stroke="#3fb950" stroke-width="2" fill="none"></path></g><g transform="translate(450 220) rotate(0 25 0)"><path d="M24.81 -10.56 C33.97 -6.98, 39.02 -2.65, 50.45 -1.31 M25.99 -10.28 C32.7 -6.34, 40.51 -4.03, 48.38 -1.28" stroke="#3fb950" stroke-width="2" fill="none"></path></g></g><g stroke-linecap="round"><g transform="translate(670 220) rotate(0 50 0)"><path d="M-1.08 0.15 C15.45 0.38, 82.89 0.9, 99.89 0.71 M0.55 -0.82 C16.86 -0.87, 82.2 -1.14, 98.88 -1.04" stroke="#3fb950" stroke-width="2" fill="none"></path></g><g transform="translate(670 220) rotate(0 50 0)"><path d="M70.94 9.03 C81.99 7.35, 89.15 0.16, 97.38 -1.49 M70.11 8.32 C78.99 6.81, 85.95 2.72, 98.97 -1.38" stroke="#3fb950" stroke-width="2" fill="none"></path></g><g transform="translate(670 220) rotate(0 50 0)"><path d="M70.94 -11.49 C81.88 -5.85, 89.04 -5.71, 97.38 -1.49 M70.12 -12.21 C78.86 -7.95, 85.82 -6.27, 98.97 -1.38" stroke="#3fb950" stroke-width="2" fill="none"></path></g></g><g transform="translate(691 192) rotate(0 33 10)"><text x="0" y="NaN" font-family="Virgil, Segoe UI Emoji" font-size="14px" fill="#3fb950" text-anchor="start" style="white-space: pre;" direction="ltr">vectors</text></g><g stroke-linecap="round"><g transform="translate(450 190) rotate(0 327.5 0)"><path d="M-0.03 -0.84 C109.09 -0.52, 546.58 0.99, 655.58 1.02" stroke="#3fb950" stroke-width="2.5" fill="none" stroke-dasharray="8 10"></path></g><g transform="translate(450 190) rotate(0 327.5 0)"><path d="M625.97 12.19 C639.76 5.7, 647.63 5.41, 656.06 2.8" stroke="#3fb950" stroke-width="2.5" fill="none"></path></g><g transform="translate(450 190) rotate(0 327.5 0)"><path d="M626.02 -8.33 C639.64 -7.1, 647.5 0.33, 656.06 2.8" stroke="#3fb950" stroke-width="2.5" fill="none"></path></g></g><g transform="translate(757.5 162) rotate(0 24 10)"><text x="0" y="NaN" font-family="Virgil, Segoe UI Emoji" font-size="14px" fill="#3fb950" text-anchor="start" style="white-space: pre;" direction="ltr">text</text></g><g stroke-opacity="0.6" fill-opacity="0.6" stroke-linecap="round" transform="translate(10 350) rotate(0 690 180)"><path d="M1.18 -0.19 L1379.89 -0.08 L1378.04 359.28 L-0.94 361.93" stroke="none" stroke-width="0" fill="#161b22"></path><path d="M-0.05 0.34 C414.16 1.62, 828.31 2.99, 1380.58 0.05 M1379.06 -1.12 C1382.4 99.82, 1381.98 199.71, 1379.58 359 M1380.78 360.31 C1013 364.71, 644.58 364.87, 0.51 359.37 M-0.16 360.59 C-1.96 216.49, 0.46 74.03, -0.41 -0.64" stroke="#30363d" stroke-width="2.5" fill="none" stroke-dasharray="8 10"></path></g><g transform="translate(30 364) rotate(0 134.5 12)"><text x="0" y="NaN" font-family="Virgil, Segoe UI Emoji" font-size="18px" fill="#8b949e" text-anchor="start" style="white-space: pre;" direction="ltr">Query path (per request)</text></g><g stroke-linecap="round" transform="translate(50 420) rotate(0 85 30)"><path d="M-1.71 0.27 L168.51 1.92 L170.5 59.46 L-1.41 58.48" stroke="none" stroke-width="0" fill="#1f4d2b"></path><path d="M-0.39 1.08 C32.07 -2.48, 69.24 -3.26, 168.62 -0.65 M-0.52 -0.27 C64.21 1.74, 129.82 2.04, 169.97 -0.78 M169.42 -1.72 C168.73 21.28, 171.3 42.43, 169.04 58.49 M170.83 -0.51 C170 18.15, 170.36 36.99, 169.05 59.54 M170.77 58.96 C102.9 62.31, 38.55 62.57, 1.78 58.02 M170.6 59.19 C115.83 59.98, 62 61.26, 0.69 60.93 M1.02 61.77 C-1.47 40.79, 0.41 20.6, -0.39 -1.5 M-0.45 60.14 C0.18 44.15, 0.7 29.23, 0.07 -0.15" stroke="#3fb950" stroke-width="2" fill="none"></path></g><g transform="translate(50 437.4) rotate(0 85 12.599999999999994)"><text x="85" y="NaN" font-family="Virgil, Segoe UI Emoji" font-size="18px" fill="#ffffff" text-anchor="middle" style="white-space: pre;" direction="ltr">User query</text></g><g stroke-linecap="round" transform="translate(280 420) rotate(0 85 30)"><path d="M0.46 1.26 L170.76 -0.9 L169.2 59.19 L-0.83 61.54" stroke="none" stroke-width="0" fill="#3a1d6e"></path><path d="M-0.23 -1.77 C59.67 0.44, 115.57 -2.35, 171.56 1.07 M0.28 0.39 C36.5 -1.16, 71.99 0.03, 169.55 0.55 M170.57 -0.83 C168.69 16.74, 170.13 36.7, 171.46 58.22 M169.54 -0.81 C169.88 12.15, 171 25.14, 169.89 59.32 M168 58.8 C127.1 59.8, 82.26 60.36, -1.95 58.42 M170.05 59.47 C105.97 60.84, 40.76 60.55, -0.19 59.13 M1.4 60.27 C1.14 41.98, 2 22.56, -1.67 -0.62 M0.45 59.14 C-0.32 39.6, -0.21 19.34, 0.11 0.93" stroke="#a371f7" stroke-width="2" fill="none"></path></g><g transform="translate(280 437.4) rotate(0 85 12.599999999999994)"><text x="85" y="NaN" font-family="Virgil, Segoe UI Emoji" font-size="18px" fill="#ffffff" text-anchor="middle" style="white-space: pre;" direction="ltr">Embed query</text></g><g stroke-linecap="round" transform="translate(530 420) rotate(0 110 30)"><path d="M0.77 0.28 L220.8 0.9 L220.36 61.39 L-1.93 61.15" stroke="none" stroke-width="0" fill="#5c3a10"></path><path d="M0.78 -1.06 C64.83 1.81, 126.18 0.75, 219.48 0.22 M-0.71 -0.5 C55.17 -1.94, 108.79 -1.18, 219.61 -0.5 M221.42 0.71 C220.56 14.9, 219.45 28.15, 219.05 60.28 M219.56 0.41 C218.81 13.8, 220.4 27.65, 220.54 59.84 M220.52 59.15 C145.06 61.21, 71.83 60.07, 0.77 59.66 M219.16 59.87 C155.19 61.06, 88.77 60.82, 0.75 60.43 M0.81 59.97 C-1.87 44.79, 1.25 27.67, -0.83 0.34 M0.05 59.89 C-0.43 40.94, -1 21.17, -0.76 0.66" stroke="#f0883e" stroke-width="2" fill="none"></path></g><g transform="translate(530 437.4) rotate(0 110 12.599999999999994)"><text x="110" y="NaN" font-family="Virgil, Segoe UI Emoji" font-size="18px" fill="#ffffff" text-anchor="middle" style="white-space: pre;" direction="ltr">Hybrid retrieval</text></g><g stroke-linecap="round" transform="translate(800 420) rotate(0 85 30)"><path d="M1.32 -1.9 L170.79 0.39 L168.39 59.75 L1.91 61.22" stroke="none" stroke-width="0" fill="#3a1d6e"></path><path d="M-1.6 0.45 C54.98 -1.79, 107.42 0.41, 169.09 0.95 M-0.27 0.9 C36.71 -0.03, 72.8 -0.35, 170.08 0.01 M169.52 -0.46 C170.56 21.21, 172.1 43.81, 170.13 61.13 M170.28 0.11 C170.08 14.14, 171.14 28.23, 169.89 59.95 M169.37 61.79 C129.33 61.52, 89.29 62.83, -1.07 59.82 M169.36 60.43 C119.64 60.24, 67.76 60.58, -0.02 59.88 M0.63 61.26 C1.89 48.33, 1.24 36.9, -1.47 0.73 M0.84 59.22 C-1.09 37.51, -1.39 14.76, -0.52 -0.37" stroke="#a371f7" stroke-width="2" fill="none"></path></g><g transform="translate(800 437.4) rotate(0 85 12.599999999999994)"><text x="85" y="NaN" font-family="Virgil, Segoe UI Emoji" font-size="18px" fill="#ffffff" text-anchor="middle" style="white-space: pre;" direction="ltr">Reranker</text></g><g stroke-linecap="round" transform="translate(1050 420) rotate(0 85 30)"><path d="M0.96 -1.95 L169.79 0.06 L171.62 60.16 L1.95 60.45" stroke="none" stroke-width="0" fill="#5c3a10"></path><path d="M-1.21 -0.43 C58.51 0.32, 119.05 -1.39, 168.16 1.04 M0.74 -0.44 C45.96 -0.08, 90.48 -0.19, 169.49 -0.61 M170.82 1.1 C168.47 13.65, 168.69 27.1, 168.44 60.5 M169.91 0.36 C169.76 16.88, 169.79 33.04, 169.52 60.18 M168.79 58.55 C134.5 58.46, 97.08 59.14, -0.66 60.55 M169.22 59.53 C103.84 59.48, 38.57 59.48, 0.13 60.48 M-1.89 60.23 C-0.93 39.12, 0.06 14.38, -0.18 1.51 M-0.41 60.17 C0.12 40.55, -0.96 22.78, 0.55 -0.24" stroke="#f0883e" stroke-width="2" fill="none"></path></g><g transform="translate(1050 437.4) rotate(0 85 12.599999999999994)"><text x="85" y="NaN" font-family="Virgil, Segoe UI Emoji" font-size="18px" fill="#ffffff" text-anchor="middle" style="white-space: pre;" direction="ltr">Prompt asm.</text></g><g stroke-linecap="round"><g transform="translate(220 450) rotate(0 30 0)"><path d="M0.47 0.75 C10.31 0.71, 50.1 -0.09, 60.21 -0.19 M-0.75 0.1 C8.86 0.24, 49.09 1.01, 59.37 1.25" stroke="#58a6ff" stroke-width="2" fill="none"></path></g><g transform="translate(220 450) rotate(0 30 0)"><path d="M32.22 11.26 C41.84 8.86, 53.59 3.9, 59.62 -0.03 M30.7 11.73 C37.36 8.92, 43.42 7.77, 59.82 0.98" stroke="#58a6ff" stroke-width="2" fill="none"></path></g><g transform="translate(220 450) rotate(0 30 0)"><path d="M32.65 -9.25 C42.11 -3.57, 53.69 -0.45, 59.62 -0.03 M31.13 -8.79 C37.54 -7.32, 43.51 -4.18, 59.82 0.98" stroke="#58a6ff" stroke-width="2" fill="none"></path></g></g><g stroke-linecap="round"><g transform="translate(450 450) rotate(0 40 0)"><path d="M0.45 1.03 C14.04 0.94, 67.29 0.25, 80.57 0.25 M-0.77 0.53 C12.8 -0.02, 66.56 -1.53, 79.92 -1.74" stroke="#58a6ff" stroke-width="2" fill="none"></path></g><g transform="translate(450 450) rotate(0 40 0)"><path d="M53.69 10.12 C58.42 6.9, 65.9 2.78, 79.03 -1.07 M52.64 8.68 C61.64 4.47, 71.58 0.37, 79.67 -2.25" stroke="#58a6ff" stroke-width="2" fill="none"></path></g><g transform="translate(450 450) rotate(0 40 0)"><path d="M53.22 -10.4 C58.19 -9.14, 65.78 -8.78, 79.03 -1.07 M52.17 -11.83 C61.44 -8.7, 71.55 -5.46, 79.67 -2.25" stroke="#58a6ff" stroke-width="2" fill="none"></path></g></g><g stroke-linecap="round"><g transform="translate(750 450) rotate(0 25 0)"><path d="M0.55 -0.71 C8.8 -0.43, 41.24 0.76, 49.36 0.96 M-0.61 1.53 C8.03 1.56, 43.01 -0.13, 51.73 -0.66" stroke="#58a6ff" stroke-width="2" fill="none"></path></g><g transform="translate(750 450) rotate(0 25 0)"><path d="M27.54 8.04 C37.09 4.87, 42.99 4.95, 51.6 1.28 M27.75 9.71 C36.78 5.63, 46.95 2.25, 52.32 -0.44" stroke="#58a6ff" stroke-width="2" fill="none"></path></g><g transform="translate(750 450) rotate(0 25 0)"><path d="M26.64 -9.04 C36.35 -7.22, 42.51 -2.16, 51.6 1.28 M26.85 -7.37 C36.15 -4.75, 46.68 -1.45, 52.32 -0.44" stroke="#58a6ff" stroke-width="2" fill="none"></path></g></g><g transform="translate(750 422) rotate(0 29 10)"><text x="0" y="NaN" font-family="Virgil, Segoe UI Emoji" font-size="14px" fill="#58a6ff" text-anchor="start" style="white-space: pre;" direction="ltr">top-50</text></g><g stroke-linecap="round"><g transform="translate(970 450) rotate(0 40 0)"><path d="M-0.05 0.55 C13.61 0.6, 67.64 -0.28, 80.91 -0.22 M-1.54 -0.21 C12.14 0.08, 67.09 1.33, 80.44 1.2" stroke="#58a6ff" stroke-width="2" fill="none"></path></g><g transform="translate(970 450) rotate(0 40 0)"><path d="M53.07 12.72 C57.78 8.35, 65.59 7.09, 81.17 1.13 M51.64 10.48 C58.71 9.14, 65.03 7.5, 81.17 0.72" stroke="#58a6ff" stroke-width="2" fill="none"></path></g><g transform="translate(970 450) rotate(0 40 0)"><path d="M53.26 -7.8 C57.83 -7.86, 65.61 -4.81, 81.17 1.13 M51.83 -10.04 C58.82 -6.96, 65.1 -4.16, 81.17 0.72" stroke="#58a6ff" stroke-width="2" fill="none"></path></g></g><g transform="translate(989 422) rotate(0 25 10)"><text x="0" y="NaN" font-family="Virgil, Segoe UI Emoji" font-size="14px" fill="#58a6ff" text-anchor="start" style="white-space: pre;" direction="ltr">top-5</text></g><g stroke-linecap="round" transform="translate(1050 590) rotate(0 85 30)"><path d="M-1.1 0.28 L168.74 0.54 L168.38 58.73 L1.96 59.45" stroke="none" stroke-width="0" fill="#3a1d6e"></path><path d="M0.82 -0.42 C65.64 -1.86, 132.46 -1.61, 170.68 -1.92 M-0.1 -0.07 C50.55 0.06, 101.33 1.28, 169.12 0.37 M171.44 -1.75 C168.02 19.52, 171.45 38.89, 169.19 59.06 M170.28 -0.48 C169.74 16.71, 168.62 30.92, 170.02 60.63 M170.58 61.89 C121.71 62.56, 78.96 61.62, 1.56 60.66 M169.51 59.57 C135.79 58.68, 100.83 59.74, 0.81 59.06 M-0.27 61.35 C-1.63 48.63, -2.08 32.15, 1.09 -0.53 M-0.11 59.46 C-0.25 37.05, 1.11 14.68, 0.98 0.55" stroke="#a371f7" stroke-width="2" fill="none"></path></g><g transform="translate(1050 607.4) rotate(0 85 12.600000000000023)"><text x="85" y="NaN" font-family="Virgil, Segoe UI Emoji" font-size="18px" fill="#ffffff" text-anchor="middle" style="white-space: pre;" direction="ltr">LLM</text></g><g stroke-linecap="round" transform="translate(530 590) rotate(0 99.5 30)"><path d="M1.68 0.57 L197.32 -0.61 L200.84 61.13 L1.55 61.1" stroke="none" stroke-width="0" fill="#1f4d2b"></path><path d="M-1.4 1.05 C40.39 2.12, 85.28 0.7, 199.02 -0.75 M0.94 -0.55 C62.86 -0.08, 124.63 -0.61, 198.73 -0.37 M199.08 -0.84 C199.17 24.12, 198.64 48.38, 199.51 58.17 M199.54 0.99 C199.4 12.86, 198.38 24.18, 198.14 60.3 M198.39 59.41 C134.33 60.15, 66.33 61.37, -1.22 61.32 M198.87 60.94 C126.78 60.29, 56.2 61.22, 0.18 59.95 M-1.98 58.68 C-0.02 38.43, -1.86 12.85, -0.98 -0.94 M0.6 61 C-0.83 38.85, -0.77 17.44, -0.67 -0.8" stroke="#3fb950" stroke-width="2" fill="none"></path></g><g transform="translate(530 607.4) rotate(0 99.5 12.600000000000023)"><text x="99.5" y="NaN" font-family="Virgil, Segoe UI Emoji" font-size="18px" fill="#ffffff" text-anchor="middle" style="white-space: pre;" direction="ltr">Answer + cites</text></g><g stroke-linecap="round"><g transform="translate(1135 480) rotate(0 0 55)"><path d="M-0.95 -0.11 C-1.15 18.44, -0.57 92.5, -0.53 111.01 M0.75 -1.21 C0.29 17.04, -1.93 91.04, -1.76 109.42" stroke="#58a6ff" stroke-width="2" fill="none"></path></g><g transform="translate(1135 480) rotate(0 0 55)"><path d="M-11.83 80.21 C-6.5 90.07, -3.1 103.09, -1.84 108.69 M-12.22 80.81 C-10.14 87.27, -7.13 94.99, -2.07 110.01" stroke="#58a6ff" stroke-width="2" fill="none"></path></g><g transform="translate(1135 480) rotate(0 0 55)"><path d="M8.69 80.48 C6.7 90.08, 2.78 103, -1.84 108.69 M8.3 81.08 C5.43 87.42, 3.49 95.07, -2.07 110.01" stroke="#58a6ff" stroke-width="2" fill="none"></path></g></g><g stroke-linecap="round"><g transform="translate(1050 620) rotate(0 -160.5 0)"><path d="M0.19 -0.34 C-53.11 -0.38, -266.79 0.57, -320.41 0.57 M-1.17 -1.56 C-54.52 -2.03, -267.47 -1.64, -321.05 -1.25" stroke="#3fb950" stroke-width="2" fill="none"></path></g><g transform="translate(1050 620) rotate(0 -160.5 0)"><path d="M-293.47 -10.65 C-298.88 -9.97, -307.42 -7, -322.73 -3.02 M-292.69 -10.63 C-299.1 -8.3, -308.02 -6.28, -320.82 -0.8" stroke="#3fb950" stroke-width="2" fill="none"></path></g><g transform="translate(1050 620) rotate(0 -160.5 0)"><path d="M-293.39 9.87 C-298.96 5.45, -307.52 3.32, -322.73 -3.02 M-292.6 9.89 C-298.92 7.09, -307.87 3.99, -320.82 -0.8" stroke="#3fb950" stroke-width="2" fill="none"></path></g></g><g transform="translate(864.5 592) rotate(0 29 10)"><text x="0" y="NaN" font-family="Virgil, Segoe UI Emoji" font-size="14px" fill="#3fb950" text-anchor="start" style="white-space: pre;" direction="ltr">stream</text></g><g stroke-linecap="round"><g transform="translate(855 250) rotate(0 -122.5 85)"><path d="M-0.16 -0.36 C-40.68 27.87, -203.4 141.92, -244.18 170.34" stroke="#58a6ff" stroke-width="2.5" fill="none" stroke-dasharray="8 10"></path></g><g transform="translate(855 250) rotate(0 -122.5 85)"><path d="M-227.55 147.14 C-229.76 151.12, -233.55 155.7, -242.73 169.39" stroke="#58a6ff" stroke-width="2.5" fill="none"></path></g><g transform="translate(855 250) rotate(0 -122.5 85)"><path d="M-215.79 163.96 C-220.57 164.44, -226.8 165.53, -242.73 169.39" stroke="#58a6ff" stroke-width="2.5" fill="none"></path></g></g><g stroke-linecap="round"><g transform="translate(1105 250) rotate(0 -217.5 85)"><path d="M-0.84 0.38 C-73.49 28.76, -363.73 141.77, -436.03 169.95" stroke="#58a6ff" stroke-width="2.5" fill="none" stroke-dasharray="8 10"></path></g><g transform="translate(1105 250) rotate(0 -217.5 85)"><path d="M-412.84 148.44 C-420.19 156.4, -427.57 163.31, -436.93 170.3" stroke="#58a6ff" stroke-width="2.5" fill="none"></path></g><g transform="translate(1105 250) rotate(0 -217.5 85)"><path d="M-405.39 167.56 C-414.86 169.9, -424.41 171.24, -436.93 170.3" stroke="#58a6ff" stroke-width="2.5" fill="none"></path></g></g><g stroke-opacity="0.6" fill-opacity="0.6" stroke-linecap="round" transform="translate(10 760) rotate(0 690 90)"><path d="M-0.12 -0.54 L1380.45 -1.55 L1379.41 180.02 L0.06 178.2" stroke="none" stroke-width="0" fill="#161b22"></path><path d="M-0.6 -0.39 C548.97 -1.28, 1095.9 -0.91, 1379.91 0.14 M1379.02 -1.84 C1381.67 63.76, 1379.45 131.34, 1378.12 181.86 M1379.81 180.73 C889.46 175.39, 399.45 174.75, -0.69 180.53 M-1.76 180.8 C-0.99 130.23, -3.24 78.21, 0.64 1.64" stroke="#30363d" stroke-width="2.5" fill="none" stroke-dasharray="8 10"></path></g><g transform="translate(30 774) rotate(0 118 12)"><text x="0" y="NaN" font-family="Virgil, Segoe UI Emoji" font-size="18px" fill="#8b949e" text-anchor="start" style="white-space: pre;" direction="ltr">Continuous evaluation</text></g><g stroke-linecap="round" transform="translate(50 840) rotate(0 88.5 30)"><path d="M0.22 1.89 L176.19 -1.41 L175.96 59.4 L0.99 60.83" stroke="none" stroke-width="0" fill="#0d2c5a"></path><path d="M-1.45 -1.99 C40.59 -2, 79.63 0.24, 178.8 1.74 M0.3 -0.61 C44.42 1.79, 86.13 0.7, 176.03 0.68 M176.19 -0.47 C177.58 18.47, 177.29 37.5, 178.11 58.93 M176.77 0.07 C176.9 12.3, 176.3 25.53, 176.04 60.65 M177.96 60.65 C134.44 59.74, 88.25 62.05, 0.87 59.64 M177.15 59.85 C115.69 59.34, 55.3 59.72, 0.93 59.16 M-1.35 59.61 C-1.17 39.36, -0.18 20.96, -0.9 1.75 M0.7 59.73 C0.61 37.56, 1.22 17.3, -0.87 -0.4" stroke="#58a6ff" stroke-width="2" fill="none"></path></g><g transform="translate(50 857.4) rotate(0 88.5 12.600000000000023)"><text x="88.5" y="NaN" font-family="Virgil, Segoe UI Emoji" font-size="18px" fill="#ffffff" text-anchor="middle" style="white-space: pre;" direction="ltr">Gold Q-A set</text></g><g stroke-linecap="round" transform="translate(330 840) rotate(0 148 30)"><path d="M-0.26 -0.63 L296.38 -1.94 L297.16 59.63 L1.96 59.37" stroke="none" stroke-width="0" fill="#3a1d6e"></path><path d="M-0.99 -1.47 C71.84 0.42, 145.36 -1.41, 294.81 -0.04 M0.17 0.6 C91.49 -0.65, 182.67 -0.08, 296.16 0.13 M297.51 -0.96 C295.53 16.84, 293.91 35.28, 295.13 58.03 M296.72 -0.24 C296.28 20.32, 295.65 43.02, 296.06 60.05 M294.56 61.32 C223.87 60.21, 152.97 58.58, 0.76 59.77 M295.3 60.03 C181.08 62.14, 65.97 61.95, 0.08 59.51 M1.47 61.81 C1.78 38.01, 0.08 13.97, -0.46 -1.91 M0.62 59.57 C-0.76 37.56, -0.45 14.71, -0.67 0.14" stroke="#a371f7" stroke-width="2" fill="none"></path></g><g transform="translate(330 857.4) rotate(0 148 12.600000000000023)"><text x="148" y="NaN" font-family="Virgil, Segoe UI Emoji" font-size="18px" fill="#ffffff" text-anchor="middle" style="white-space: pre;" direction="ltr">Recall@K · Faithfulness</text></g><g stroke-linecap="round" transform="translate(770 840) rotate(0 126.5 30)"><path d="M-1.14 1.54 L254.72 1.34 L251.47 61.6 L-0.25 59" stroke="none" stroke-width="0" fill="#5c3a10"></path><path d="M1.52 -1.32 C72.72 -1.43, 147.76 -1.71, 252.04 -0.17 M-0.05 -0.73 C97.32 2.26, 192.43 1.62, 252.44 0.22 M251.18 1.37 C252.49 23.23, 253.86 43.81, 254.23 61.54 M252.35 0.05 C251.88 18.72, 253.14 34.98, 252.94 60.57 M253.41 59.77 C158.74 62.76, 64.24 61.15, -1.16 59.6 M253.08 59.98 C202 60.45, 150.36 61.73, 0.52 59.78 M1.08 58.25 C-2.17 48.95, -1.32 34.89, 0.98 1.52 M-0.46 59.24 C1.1 45.01, -0.34 30.72, -0.34 -0.19" stroke="#f0883e" stroke-width="2" fill="none"></path></g><g transform="translate(770 857.4) rotate(0 126.5 12.600000000000023)"><text x="126.5" y="NaN" font-family="Virgil, Segoe UI Emoji" font-size="18px" fill="#ffffff" text-anchor="middle" style="white-space: pre;" direction="ltr">Block on regression</text></g><g stroke-linecap="round" transform="translate(1100 840) rotate(0 85 30)"><path d="M1.42 0.38 L168.55 1.61 L168.77 58.61 L0.95 60.54" stroke="none" stroke-width="0" fill="#4a1219"></path><path d="M-0.68 -1.87 C46.38 3.02, 94.59 0.62, 169.52 0.46 M0.96 0.82 C45.09 -1.03, 90.31 -1.98, 170.15 0.09 M171.79 -1.52 C168.12 16.03, 169.7 30.79, 168.28 60.29 M170.09 -0.28 C170.09 21.71, 170.95 44.97, 170.61 59.04 M170.78 59.24 C134.44 60.66, 97.35 61.36, -0.07 60.31 M169.18 59.41 C115.47 58.97, 58.31 58.67, 0.42 59.25 M0.95 59.22 C-1.32 35.27, 1.21 13.27, -1.77 1.9 M0.39 60.8 C1.06 48.52, -0.29 36.48, 0.99 -0.93" stroke="#f85149" stroke-width="2" fill="none"></path></g><g transform="translate(1100 857.4) rotate(0 85 12.600000000000023)"><text x="85" y="NaN" font-family="Virgil, Segoe UI Emoji" font-size="18px" fill="#ffffff" text-anchor="middle" style="white-space: pre;" direction="ltr">Prod sample</text></g><g stroke-linecap="round"><g transform="translate(227 870) rotate(0 51.5 0)"><path d="M0.77 -0.35 C17.79 -0.34, 85.86 -0.99, 103.02 -1.08 M-0.29 -1.59 C16.5 -1.36, 84.81 -0.36, 102.08 -0.11" stroke="#58a6ff" stroke-width="2" fill="none"></path></g><g transform="translate(227 870) rotate(0 51.5 0)"><path d="M73.15 9.77 C82.64 7.07, 93.5 3.44, 101.28 1.57 M72.98 9.63 C79.46 7.76, 86.1 4.4, 101.37 0.87" stroke="#58a6ff" stroke-width="2" fill="none"></path></g><g transform="translate(227 870) rotate(0 51.5 0)"><path d="M73.45 -10.75 C82.63 -5.77, 93.38 -1.72, 101.28 1.57 M73.27 -10.89 C79.78 -8.15, 86.36 -6.89, 101.37 0.87" stroke="#58a6ff" stroke-width="2" fill="none"></path></g></g><g stroke-linecap="round"><g transform="translate(626 870) rotate(0 72 0)"><path d="M1.14 0.73 C25.14 0.68, 119.7 0.94, 143.57 0.75 M0.28 0.07 C24.12 0.2, 118.48 -1.09, 142.4 -0.98" stroke="#58a6ff" stroke-width="2" fill="none"></path></g><g transform="translate(626 870) rotate(0 72 0)"><path d="M115.49 8.72 C122.94 7.04, 128.51 4.45, 144.07 -2.47 M114.61 10.41 C122.03 6.25, 129.7 3.31, 142.45 -0.6" stroke="#58a6ff" stroke-width="2" fill="none"></path></g><g transform="translate(626 870) rotate(0 72 0)"><path d="M115.37 -11.8 C123.03 -8, 128.63 -5.11, 144.07 -2.47 M114.49 -10.11 C121.77 -8.9, 129.46 -6.48, 142.45 -0.6" stroke="#58a6ff" stroke-width="2" fill="none"></path></g></g><g stroke-linecap="round"><g transform="translate(1185 840) rotate(0 -523.25 0)"><path d="M-0.58 -0.08 C-175.04 -0.2, -871.7 0.04, -1046.02 0.13" stroke="#f0883e" stroke-width="2.5" fill="none" stroke-dasharray="8 10"></path></g><g transform="translate(1185 840) rotate(0 -523.25 0)"><path d="M-1017.97 -9.34 C-1027.65 -6.61, -1037.22 -1.6, -1046.51 1.54" stroke="#f0883e" stroke-width="2.5" fill="none"></path></g><g transform="translate(1185 840) rotate(0 -523.25 0)"><path d="M-1017.96 11.18 C-1027.79 6.56, -1037.35 4.21, -1046.51 1.54" stroke="#f0883e" stroke-width="2.5" fill="none"></path></g></g><g transform="translate(615.75 812) rotate(0 50 10)"><text x="0" y="NaN" font-family="Virgil, Segoe UI Emoji" font-size="14px" fill="#f0883e" text-anchor="start" style="white-space: pre;" direction="ltr">label &amp; add</text></g></svg>