<svg version="1.1" xmlns="http://www.w3.org/2000/svg" viewBox="0 0 1180 820" width="1180" height="820">
  <!-- svg-source:excalidraw -->
  
  <defs>
    <style>
      @font-face {
        font-family: "Virgil";
        src: url("https://excalidraw.com/Virgil.woff2");
      }
      @font-face {
        font-family: "Cascadia";
        src: url("https://excalidraw.com/Cascadia.woff2");
      }
    </style>
  </defs>
  <rect x="0" y="0" width="1180" height="820" fill="#0d1117"></rect><g transform="translate(10 10) rotate(0 208.75393676757812 17.5)"><text x="0" y="NaN" font-family="Virgil, Segoe UI Emoji" font-size="28px" fill="#f5e0dc" text-anchor="start" style="white-space: pre;" direction="ltr">TCP+TLS vs QUIC Handshake</text></g><g transform="translate(10 54) rotate(0 309.2638244628906 10)"><text x="0" y="NaN" font-family="Virgil, Segoe UI Emoji" font-size="16px" fill="#8b949e" text-anchor="start" style="white-space: pre;" direction="ltr">Two RTT timelines, side by side — fewer round trips is the QUIC headline win</text></g><g stroke-opacity="0.6" fill-opacity="0.6" stroke-linecap="round" transform="translate(10 90) rotate(0 270 360)"><path d="M1.45 1.53 L540.9 -0.29 L539.51 718.25 L-1.5 718.53" stroke="none" stroke-width="0" fill="#161b22"></path><path d="M-0.41 0.18 C167.85 0.43, 336.54 0.39, 540.14 0.07 M540.3 -0.77 C538.4 154.74, 539.46 308.91, 539.76 719.47 M540.25 719.22 C327.21 720.49, 112.85 721.28, -0.75 719.78 M0.55 720.46 C0.39 482.28, 0.1 244.11, 0.09 0.61" stroke="#30363d" stroke-width="2.5" fill="none" stroke-dasharray="8 10"></path></g><g transform="translate(26 106) rotate(0 123.93742370605469 11.25)"><text x="0" y="NaN" font-family="Virgil, Segoe UI Emoji" font-size="18px" fill="#8b949e" text-anchor="start" style="white-space: pre;" direction="ltr">TCP + TLS 1.3  (≈ 2 RTT)</text></g><g stroke-opacity="0.6" fill-opacity="0.6" stroke-linecap="round" transform="translate(630 90) rotate(0 270 360)"><path d="M1.95 -0.2 L541.58 0.45 L539.1 720.42 L-1.79 721.17" stroke="none" stroke-width="0" fill="#161b22"></path><path d="M0.78 -0.02 C111.93 1.38, 223.78 1.41, 539.25 0.28 M540.54 -0.32 C537.89 155.85, 538.5 312.1, 540.26 719.7 M539.9 719.44 C388.43 718.88, 237.56 718.07, -0.72 720.26 M0.15 719.7 C-1.75 436.74, -0.94 154.04, -0.52 0.69" stroke="#30363d" stroke-width="2.5" fill="none" stroke-dasharray="8 10"></path></g><g transform="translate(646 106) rotate(0 150.83993530273438 11.25)"><text x="0" y="NaN" font-family="Virgil, Segoe UI Emoji" font-size="18px" fill="#8b949e" text-anchor="start" style="white-space: pre;" direction="ltr">QUIC  (1-RTT, 0-RTT on resume)</text></g><g stroke-linecap="round" transform="translate(30 150) rotate(0 60 24)"><path d="M0.01 -1.55 L121.62 -1.07 L119.35 48.91 L1.9 46.85" stroke="none" stroke-width="0" fill="#1f4d2b"></path><path d="M-1.21 -1.37 C46.68 -1.3, 89.53 -0.6, 119.92 -1.27 M-0.71 0.11 C42.59 0.54, 87.07 0.37, 120.76 -0.29 M121.53 0.33 C120.17 16.58, 121.45 34.1, 118.11 46.4 M120.32 -0.76 C119.41 18.06, 119.4 36.44, 120.87 47.93 M118.58 46.28 C89.99 47.63, 60.64 47.86, 0.32 49.78 M119.92 47.14 C93.08 46.84, 66.25 47.17, -0.54 48.96 M-1.95 49.85 C0.52 31.95, -1.97 14.28, 0.26 1.49 M0.61 47.84 C0.2 34.61, -0.3 20.92, 0.07 0.39" stroke="#3fb950" stroke-width="2" fill="none"></path></g><g transform="translate(71.06502532958984 165.25) rotate(0 18.934974670410156 8.75)"><text x="18.934974670410156" y="NaN" font-family="Virgil, Segoe UI Emoji" font-size="14px" fill="#ffffff" text-anchor="middle" style="white-space: pre;" direction="ltr">Client</text></g><g stroke-linecap="round" transform="translate(410 150) rotate(0 60 24)"><path d="M-1.74 0.36 L121.02 -1.67 L121.78 46.02 L1.17 48.72" stroke="none" stroke-width="0" fill="#3a1d6e"></path><path d="M1.17 -1.39 C32.49 1, 63.36 1.98, 118.58 1.76 M0.61 -0.3 C42.59 -1.13, 83.23 -0.49, 119.49 0.54 M120.02 2 C118.96 16.19, 121.98 31.78, 118.08 49.33 M119.12 0.97 C120.75 13.2, 119.15 27.75, 120.09 47.12 M119.31 48.6 C82.82 46.99, 45.81 48.51, -1.91 49.59 M120.49 48.73 C93.41 48.36, 65.96 47.46, 0.45 47.67 M0.39 47.59 C-1.71 36.6, 0.2 25.66, -1.78 -0.9 M-0.04 47.71 C1.28 32.83, 1.35 15.81, -0.96 0.6" stroke="#a371f7" stroke-width="2" fill="none"></path></g><g transform="translate(448.405029296875 165.25) rotate(0 21.594970703125 8.75)"><text x="21.594970703125" y="NaN" font-family="Virgil, Segoe UI Emoji" font-size="14px" fill="#ffffff" text-anchor="middle" style="white-space: pre;" direction="ltr">Server</text></g><g stroke-linecap="round"><g transform="translate(90 192) rotate(0 0 274)"><path d="M1.2 0.97 C1.33 92.35, -0.02 456.68, -0.3 547.9" stroke="#30363d" stroke-width="2.5" fill="none" stroke-dasharray="8 10"></path></g></g><g stroke-linecap="round"><g transform="translate(470 192) rotate(0 0 274)"><path d="M-0.58 -0.82 C-0.56 90.52, -0.91 457.21, -0.69 548.6" stroke="#30363d" stroke-width="2.5" fill="none" stroke-dasharray="8 10"></path></g></g><g stroke-linecap="round"><g transform="translate(90 350) rotate(0 190 9)"><path d="M0.8 0.59 C64.31 3.67, 317.71 14.99, 380.85 18.02 M-0.24 -0.15 C63.2 3.19, 317.2 16.75, 380.35 19.58" stroke="#3fb950" stroke-width="2" fill="none"></path></g><g transform="translate(90 350) rotate(0 190 9)"><path d="M352.66 29.84 C359.9 25.08, 369.27 24, 382.26 19.63 M350.92 27.43 C363.49 25.71, 373.99 20.68, 380.35 20.06" stroke="#3fb950" stroke-width="2" fill="none"></path></g><g transform="translate(90 350) rotate(0 190 9)"><path d="M353.68 9.34 C360.54 10.41, 369.63 15.15, 382.26 19.63 M351.93 6.93 C364.19 13.31, 374.29 16.37, 380.35 20.06" stroke="#3fb950" stroke-width="2" fill="none"></path></g></g><g transform="translate(267 331) rotate(0 12.375991821289062 8.75)"><text x="0" y="NaN" font-family="Virgil, Segoe UI Emoji" font-size="14px" fill="#c9d1d9" text-anchor="start" style="white-space: pre;" direction="ltr">SYN</text></g><g stroke-linecap="round"><g transform="translate(470 400) rotate(0 -190 9)"><path d="M0.06 0.29 C-63.49 3.54, -317.7 15.67, -380.99 18.69 M-1.38 -0.6 C-64.59 2.37, -315.65 14.12, -378.8 16.93" stroke="#58a6ff" stroke-width="2" fill="none"></path></g><g transform="translate(470 400) rotate(0 -190 9)"><path d="M-350.63 3.73 C-359.05 9.7, -368.56 12.77, -378.91 17.26 M-351.77 6.02 C-359.62 10.21, -370.33 13.14, -379.71 17.51" stroke="#58a6ff" stroke-width="2" fill="none"></path></g><g transform="translate(470 400) rotate(0 -190 9)"><path d="M-349.69 24.23 C-358.28 23.53, -368.09 19.93, -378.91 17.26 M-350.83 26.52 C-359.17 23.86, -370.2 19.94, -379.71 17.51" stroke="#58a6ff" stroke-width="2" fill="none"></path></g></g><g transform="translate(250 381) rotate(0 28.64397430419922 8.75)"><text x="0" y="NaN" font-family="Virgil, Segoe UI Emoji" font-size="14px" fill="#c9d1d9" text-anchor="start" style="white-space: pre;" direction="ltr">SYN-ACK</text></g><g stroke-linecap="round"><g transform="translate(90 450) rotate(0 190 9)"><path d="M0.02 -0.52 C63.45 2.5, 317.18 16.06, 380.54 19.09 M-1.43 1.83 C61.89 4.45, 316.39 14.71, 379.88 17.55" stroke="#3fb950" stroke-width="2" fill="none"></path></g><g transform="translate(90 450) rotate(0 190 9)"><path d="M350.42 27.51 C361.51 24.22, 367.66 21.69, 381.45 18.91 M351.34 25.88 C360.32 23.84, 370.66 20.23, 378.99 16.59" stroke="#3fb950" stroke-width="2" fill="none"></path></g><g transform="translate(90 450) rotate(0 190 9)"><path d="M351.28 7.01 C362.29 9.8, 368.18 13.35, 381.45 18.91 M352.2 5.38 C360.9 10.32, 370.94 13.69, 378.99 16.59" stroke="#3fb950" stroke-width="2" fill="none"></path></g></g><g transform="translate(267 431) rotate(0 13.390983581542969 8.75)"><text x="0" y="NaN" font-family="Virgil, Segoe UI Emoji" font-size="14px" fill="#c9d1d9" text-anchor="start" style="white-space: pre;" direction="ltr">ACK</text></g><g stroke-linecap="round"><g transform="translate(90 510) rotate(0 190 9)"><path d="M0.91 1.03 C64.43 3.98, 317.76 14.89, 380.95 17.88 M-0.08 0.53 C63.38 3.66, 317.28 16.59, 380.5 19.36" stroke="#3fb950" stroke-width="2" fill="none"></path></g><g transform="translate(90 510) rotate(0 190 9)"><path d="M353.57 29.84 C359.82 25.55, 369.83 23.98, 380.47 19.63 M352.16 28.54 C359.88 26.34, 368.75 22.39, 381.43 19.62" stroke="#3fb950" stroke-width="2" fill="none"></path></g><g transform="translate(90 510) rotate(0 190 9)"><path d="M354.55 9.35 C360.55 10.91, 370.29 15.19, 380.47 19.63 M353.14 8.04 C360.68 11.6, 369.27 13.4, 381.43 19.62" stroke="#3fb950" stroke-width="2" fill="none"></path></g></g><g transform="translate(180.5 491) rotate(0 78.34391784667969 8.75)"><text x="0" y="NaN" font-family="Virgil, Segoe UI Emoji" font-size="14px" fill="#c9d1d9" text-anchor="start" style="white-space: pre;" direction="ltr">ClientHello + key share</text></g><g stroke-linecap="round"><g transform="translate(470 570) rotate(0 -190 9)"><path d="M0.44 0.59 C-63.17 3.34, -317 14.29, -380.48 17.13 M-0.79 -0.15 C-64.71 2.68, -318.23 15.06, -381.69 18.22" stroke="#58a6ff" stroke-width="2" fill="none"></path></g><g transform="translate(470 570) rotate(0 -190 9)"><path d="M-353.05 5.78 C-366.46 10.52, -376.6 14.95, -380.67 17.23 M-354.47 7.51 C-360.94 9.21, -365.88 11.7, -381.2 17.99" stroke="#58a6ff" stroke-width="2" fill="none"></path></g><g transform="translate(470 570) rotate(0 -190 9)"><path d="M-352.05 26.27 C-365.96 22.84, -376.51 19.08, -380.67 17.23 M-353.47 28.01 C-360.13 25.04, -365.3 22.85, -381.2 17.99" stroke="#58a6ff" stroke-width="2" fill="none"></path></g></g><g transform="translate(154.5 551) rotate(0 99.3228988647461 8.75)"><text x="0" y="NaN" font-family="Virgil, Segoe UI Emoji" font-size="14px" fill="#c9d1d9" text-anchor="start" style="white-space: pre;" direction="ltr">ServerHello + cert + Finished</text></g><g stroke-linecap="round"><g transform="translate(90 640) rotate(0 190 9)"><path d="M0.48 -0.6 C63.88 2.59, 316 14.82, 379.29 17.96 M-0.72 1.7 C63.16 5.19, 318.24 16.47, 381.63 19.48" stroke="#3fb950" stroke-width="2" fill="none"></path></g><g transform="translate(90 640) rotate(0 190 9)"><path d="M352 27.26 C359 26.84, 365.48 23.28, 380.18 19.52 M352.69 27.84 C362.82 24.64, 371.92 22.31, 381.09 18.82" stroke="#3fb950" stroke-width="2" fill="none"></path></g><g transform="translate(90 640) rotate(0 190 9)"><path d="M352.94 6.76 C359.54 10.63, 365.83 11.35, 380.18 19.52 M353.63 7.34 C363.45 10.91, 372.23 15.36, 381.09 18.82" stroke="#3fb950" stroke-width="2" fill="none"></path></g></g><g transform="translate(180.5 621) rotate(0 86.26092529296875 8.75)"><text x="0" y="NaN" font-family="Virgil, Segoe UI Emoji" font-size="14px" fill="#c9d1d9" text-anchor="start" style="white-space: pre;" direction="ltr">Finished + HTTP request</text></g><g stroke-linecap="round"><g transform="translate(470 700) rotate(0 -190 9)"><path d="M0.89 -0.56 C-62.65 2.52, -317.42 14.59, -380.92 17.8 M-0.09 1.77 C-63.3 5.09, -315.21 16.73, -378.69 19.23" stroke="#58a6ff" stroke-width="2" fill="none"></path></g><g transform="translate(470 700) rotate(0 -190 9)"><path d="M-351.9 6.22 C-360.51 11.53, -368.13 16.92, -378.07 20.33 M-351.7 7.25 C-359.33 11.36, -367.99 13.95, -378.12 19.07" stroke="#58a6ff" stroke-width="2" fill="none"></path></g><g transform="translate(470 700) rotate(0 -190 9)"><path d="M-351.01 26.72 C-359.8 25.28, -367.71 23.91, -378.07 20.33 M-350.81 27.75 C-358.59 25.38, -367.53 21.48, -378.12 19.07" stroke="#58a6ff" stroke-width="2" fill="none"></path></g></g><g transform="translate(224 681) rotate(0 52.10795593261719 8.75)"><text x="0" y="NaN" font-family="Virgil, Segoe UI Emoji" font-size="14px" fill="#c9d1d9" text-anchor="start" style="white-space: pre;" direction="ltr">HTTP response</text></g><g transform="translate(40 760) rotate(0 213.638671875 8.75)"><text x="0" y="NaN" font-family="Virgil, Segoe UI Emoji" font-size="14px" fill="#fab387" text-anchor="start" style="white-space: pre;" direction="ltr">≈ 2 RTT before first HTTP byte  ·  3 if no TLS resumption</text></g><g stroke-linecap="round" transform="translate(650 150) rotate(0 60 24)"><path d="M0.86 0.37 L119.42 0.81 L119.85 47.27 L1.74 47.73" stroke="none" stroke-width="0" fill="#1f4d2b"></path><path d="M-0.82 1.97 C29.03 1.7, 61.59 -1.01, 119.36 0.02 M0.35 0.76 C44.67 -0.77, 90.27 0.67, 119.95 -0.79 M120.85 1.45 C119.81 15.42, 118.13 35.44, 121.18 46.17 M119.51 -0.88 C120.58 16.39, 120.07 34.64, 120.9 47.8 M119.75 46.67 C87.41 46.31, 50.94 49.13, 0.84 49.1 M120.68 48.59 C92.37 49.37, 64.19 49.75, -0.56 48.63 M0.91 46.42 C0.56 36.94, 1.32 28.87, 1.35 1.95 M0.56 48.22 C-0.68 34.77, -0.98 22.36, 0.5 0.87" stroke="#3fb950" stroke-width="2" fill="none"></path></g><g transform="translate(691.0650253295898 165.25) rotate(0 18.934974670410156 8.75)"><text x="18.934974670410156" y="NaN" font-family="Virgil, Segoe UI Emoji" font-size="14px" fill="#ffffff" text-anchor="middle" style="white-space: pre;" direction="ltr">Client</text></g><g stroke-linecap="round" transform="translate(1030 150) rotate(0 60 24)"><path d="M0.74 -1.85 L120.76 -0.13 L118.67 46.61 L1.16 49.92" stroke="none" stroke-width="0" fill="#3a1d6e"></path><path d="M-1.1 -0.16 C40.93 0.18, 82.7 -1.45, 120.45 1.11 M-0.99 -0.43 C47.09 -0.17, 95.5 0.22, 119.08 0.29 M121.59 0.72 C120.64 14.15, 118.93 26.75, 121.7 47.61 M120.39 0.64 C120.73 15.35, 119.32 31.78, 119.42 48.37 M120.81 47.29 C74.7 49.6, 25.58 47.2, -1.84 46.36 M119.56 47.94 C92.32 47.17, 63.66 48.29, -0.66 48.68 M-0.92 46.47 C0.08 30.01, 0.01 13.14, 1.31 0 M-0.78 48.5 C0.45 34.18, 0.58 21.83, -0.06 -0.75" stroke="#a371f7" stroke-width="2" fill="none"></path></g><g transform="translate(1068.405029296875 165.25) rotate(0 21.594970703125 8.75)"><text x="21.594970703125" y="NaN" font-family="Virgil, Segoe UI Emoji" font-size="14px" fill="#ffffff" text-anchor="middle" style="white-space: pre;" direction="ltr">Server</text></g><g stroke-linecap="round"><g transform="translate(710 192) rotate(0 0 274)"><path d="M0.81 -0.87 C0.85 90.3, 1.17 455.39, 1.1 546.8" stroke="#30363d" stroke-width="2.5" fill="none" stroke-dasharray="8 10"></path></g></g><g stroke-linecap="round"><g transform="translate(1090 192) rotate(0 0 274)"><path d="M0.03 0.66 C-0.05 91.65, -0.53 455.72, -0.52 547.04" stroke="#30363d" stroke-width="2.5" fill="none" stroke-dasharray="8 10"></path></g></g><g stroke-linecap="round"><g transform="translate(710 350) rotate(0 190 9)"><path d="M-0.98 0.84 C62.14 3.93, 316.01 15.6, 379.46 18.56 M0.71 0.24 C63.56 2.97, 315.21 14.01, 378.23 16.73" stroke="#3fb950" stroke-width="2" fill="none"></path></g><g transform="translate(710 350) rotate(0 190 9)"><path d="M351.02 24.85 C360.85 22.24, 371.2 18.55, 377.35 17.66 M348.85 25.3 C360.37 23.03, 369.78 18.83, 378.23 17.72" stroke="#3fb950" stroke-width="2" fill="none"></path></g><g transform="translate(710 350) rotate(0 190 9)"><path d="M351.91 4.35 C361.43 9.12, 371.45 12.81, 377.35 17.66 M349.74 4.8 C360.77 9.58, 369.88 12.45, 378.23 17.72" stroke="#3fb950" stroke-width="2" fill="none"></path></g></g><g transform="translate(700.5 331) rotate(0 163.4988555908203 8.75)"><text x="0" y="NaN" font-family="Virgil, Segoe UI Emoji" font-size="14px" fill="#c9d1d9" text-anchor="start" style="white-space: pre;" direction="ltr">Initial:  ClientHello + key share + 0-RTT data</text></g><g stroke-linecap="round"><g transform="translate(1090 420) rotate(0 -190 9)"><path d="M0.41 1.14 C-62.93 4.03, -316.31 14.86, -379.68 17.86 M-0.84 0.7 C-64.34 3.73, -317.19 16.54, -380.47 19.32" stroke="#58a6ff" stroke-width="2" fill="none"></path></g><g transform="translate(1090 420) rotate(0 -190 9)"><path d="M-350.89 8.25 C-362.16 11.98, -369.2 15.07, -379.77 20.85 M-353.01 8.59 C-359.77 10.43, -366.32 13.12, -381.01 19.37" stroke="#58a6ff" stroke-width="2" fill="none"></path></g><g transform="translate(1090 420) rotate(0 -190 9)"><path d="M-349.92 28.75 C-361.59 25.68, -368.96 21.98, -379.77 20.85 M-352.04 29.08 C-359.21 25.61, -366.01 23, -381.01 19.37" stroke="#58a6ff" stroke-width="2" fill="none"></path></g></g><g transform="translate(726.5 401) rotate(0 139.46084594726562 8.75)"><text x="0" y="NaN" font-family="Virgil, Segoe UI Emoji" font-size="14px" fill="#c9d1d9" text-anchor="start" style="white-space: pre;" direction="ltr">Handshake: ServerHello + cert + Finished</text></g><g stroke-linecap="round"><g transform="translate(710 500) rotate(0 190 9)"><path d="M0.71 -0.73 C64.28 2.2, 317.56 14.56, 380.58 17.6 M-0.38 1.5 C63.16 4.6, 316.36 16.08, 379.94 18.93" stroke="#3fb950" stroke-width="2" fill="none"></path></g><g transform="translate(710 500) rotate(0 190 9)"><path d="M350.1 28.88 C357.22 23.74, 363.63 22.13, 380.21 18.91 M350.84 27.56 C358.28 25.33, 363.62 23.82, 380.29 19.11" stroke="#3fb950" stroke-width="2" fill="none"></path></g><g transform="translate(710 500) rotate(0 190 9)"><path d="M351.03 8.38 C357.93 7.95, 364.13 11.04, 380.21 18.91 M351.76 7.06 C358.95 9.3, 364.09 12.29, 380.29 19.11" stroke="#3fb950" stroke-width="2" fill="none"></path></g></g><g transform="translate(744 481) rotate(0 136.58389282226562 8.75)"><text x="0" y="NaN" font-family="Virgil, Segoe UI Emoji" font-size="14px" fill="#c9d1d9" text-anchor="start" style="white-space: pre;" direction="ltr">Finished + HTTP request (1-RTT data)</text></g><g stroke-linecap="round"><g transform="translate(1090 560) rotate(0 -190 9)"><path d="M-1.11 -0.26 C-64.37 2.88, -315.82 15.57, -378.89 18.58 M0.5 -1.44 C-62.87 1.36, -315.83 13.35, -379.26 16.76" stroke="#58a6ff" stroke-width="2" fill="none"></path></g><g transform="translate(1090 560) rotate(0 -190 9)"><path d="M-352.05 6.95 C-360.45 9.73, -371.52 13.46, -379.24 15.06 M-351.68 5.81 C-358.99 8.48, -366.62 11.28, -379.44 17.57" stroke="#58a6ff" stroke-width="2" fill="none"></path></g><g transform="translate(1090 560) rotate(0 -190 9)"><path d="M-351.02 27.45 C-359.74 22.97, -371.18 19.46, -379.24 15.06 M-350.65 26.3 C-358.21 23.25, -366.13 20.31, -379.44 17.57" stroke="#58a6ff" stroke-width="2" fill="none"></path></g></g><g transform="translate(844 541) rotate(0 52.10795593261719 8.75)"><text x="0" y="NaN" font-family="Virgil, Segoe UI Emoji" font-size="14px" fill="#c9d1d9" text-anchor="start" style="white-space: pre;" direction="ltr">HTTP response</text></g><g transform="translate(660 760) rotate(0 227.18484497070312 8.75)"><text x="0" y="NaN" font-family="Virgil, Segoe UI Emoji" font-size="14px" fill="#a6e3a1" text-anchor="start" style="white-space: pre;" direction="ltr">1 RTT to first HTTP byte  ·  0 RTT on resumption (replay risk)</text></g></svg>