<svg version="1.1" xmlns="http://www.w3.org/2000/svg" viewBox="0 0 1200 779" width="1200" height="779">
  <!-- svg-source:excalidraw -->
  
  <defs>
    <style>
      @font-face {
        font-family: "Virgil";
        src: url("https://excalidraw.com/Virgil.woff2");
      }
      @font-face {
        font-family: "Cascadia";
        src: url("https://excalidraw.com/Cascadia.woff2");
      }
    </style>
  </defs>
  <rect x="0" y="0" width="1200" height="779" fill="#0d1117"></rect><g transform="translate(10 10) rotate(0 401.44989013671875 17.5)"><text x="0" y="NaN" font-family="Virgil, Segoe UI Emoji" font-size="28px" fill="#f5e0dc" text-anchor="start" style="white-space: pre;" direction="ltr">Head-of-Line Blocking: TCP byte stream vs QUIC streams</text></g><g transform="translate(10 54) rotate(0 309.7438049316406 10)"><text x="0" y="NaN" font-family="Virgil, Segoe UI Emoji" font-size="16px" fill="#8b949e" text-anchor="start" style="white-space: pre;" direction="ltr">Same packet loss; TCP stalls everything, QUIC isolates the affected stream</text></g><g stroke-opacity="0.6" fill-opacity="0.6" stroke-linecap="round" transform="translate(10 100) rotate(0 590 120)"><path d="M-1.36 -0.75 L1180.21 0.89 L1181.69 241.08 L-0.04 240.76" stroke="none" stroke-width="0" fill="#161b22"></path><path d="M0.03 -0.08 C265.51 -3.95, 530.92 -3.26, 1179.57 0.37 M1180.74 -1.09 C1179.53 88.77, 1180.27 175.97, 1180.71 240.39 M1179.95 239.26 C780.87 237.43, 380.91 237.36, 0.39 239.87 M1.4 239.68 C0.18 152.69, 0.98 64.21, -1.29 0.1" stroke="#30363d" stroke-width="2.5" fill="none" stroke-dasharray="8 10"></path></g><g transform="translate(26 116) rotate(0 144.09890747070312 11.25)"><text x="0" y="NaN" font-family="Virgil, Segoe UI Emoji" font-size="18px" fill="#8b949e" text-anchor="start" style="white-space: pre;" direction="ltr">TCP: single ordered byte stream</text></g><g stroke-linecap="round" transform="translate(50 210) rotate(0 70 30)"><path d="M-1.3 0.04 L139.37 0.45 L141.24 61.08 L-0.62 61.09" stroke="none" stroke-width="0" fill="#0d2c5a"></path><path d="M-1.5 0.93 C54.27 -2.44, 103.35 0.02, 141.07 0.21 M0.9 0.45 C31.64 0.19, 64.7 -0.33, 139.31 0.67 M140.17 -0.08 C138.84 12.8, 139.2 29.28, 139.48 59.5 M140.21 0.94 C139.28 14.34, 140.04 29.91, 139.46 59.62 M139.26 58.41 C93.41 59.86, 48.51 62.47, -0.11 60.81 M139.59 59.84 C107.69 60.21, 76.64 60.13, -0.06 60.61 M-0.12 58.25 C-1.69 40.05, -1.4 20.64, -1.77 -0.87 M0.44 60.37 C-0.86 41.11, -0.33 19.57, -0.68 0.46" stroke="#58a6ff" stroke-width="2" fill="none"></path></g><g transform="translate(101.10401153564453 230) rotate(0 18.89598846435547 10)"><text x="18.89598846435547" y="NaN" font-family="Virgil, Segoe UI Emoji" font-size="16px" fill="#ffffff" text-anchor="middle" style="white-space: pre;" direction="ltr">seg 1</text></g><g transform="translate(60 278) rotate(0 25.283958435058594 7.5)"><text x="0" y="NaN" font-family="Virgil, Segoe UI Emoji" font-size="12px" fill="#8b949e" text-anchor="start" style="white-space: pre;" direction="ltr">delivered</text></g><g stroke-linecap="round" transform="translate(204 210) rotate(0 70 30)"><path d="M-1.73 0.27 L140.11 0.64 L140.65 61.28 L0.62 58.33" stroke="none" stroke-width="0" fill="#0d2c5a"></path><path d="M0.79 0.23 C29.59 -0.44, 58.17 0.11, 140.35 -1.23 M0.19 0.78 C44.94 1.98, 87.92 1.99, 139.44 -0.94 M139.86 0.51 C140.95 24.02, 138.54 46.47, 139.4 58.05 M139.99 0.05 C139.66 17.82, 139.5 36.12, 139.12 59.87 M139.09 59.17 C91.1 59.14, 37.94 58.15, 0.81 60.04 M140.81 59.65 C104.61 58.72, 67.75 60.52, 0.36 59.15 M-0.47 60.03 C0.38 35.45, 2.29 14.88, 0.49 1.37 M-0.81 60.42 C-0.09 38.57, -0.16 15.94, 0.06 0.05" stroke="#58a6ff" stroke-width="2" fill="none"></path></g><g transform="translate(251.57601165771484 230) rotate(0 22.423988342285156 10)"><text x="22.423988342285156" y="NaN" font-family="Virgil, Segoe UI Emoji" font-size="16px" fill="#ffffff" text-anchor="middle" style="white-space: pre;" direction="ltr">seg 2</text></g><g transform="translate(214 278) rotate(0 25.283958435058594 7.5)"><text x="0" y="NaN" font-family="Virgil, Segoe UI Emoji" font-size="12px" fill="#8b949e" text-anchor="start" style="white-space: pre;" direction="ltr">delivered</text></g><g stroke-linecap="round" transform="translate(358 210) rotate(0 70 30)"><path d="M-1.77 1.2 L141.69 -1.57 L139.24 60.59 L0.83 60.95" stroke="none" stroke-width="0" fill="#4a1219"></path><path d="M-1.5 -1.84 C28 0.13, 60.45 -2.52, 141.62 0.83 M-0.81 0.96 C31.71 1.92, 63.67 0.32, 140.02 0.05 M140.56 1.44 C139.75 20.6, 141.97 39.69, 139.89 61.12 M140.81 0.44 C140.32 14.36, 139.06 29.68, 140.93 60.91 M141.46 59.32 C91.04 57.8, 39.76 60.06, -0.81 58.51 M140.42 60.05 C84.46 61.19, 28.61 59.5, -0.46 60.71 M1.79 58.82 C-0.01 43.31, -1.52 26.74, -0.28 0.22 M0.09 60.1 C-0.57 40.44, -0.82 20.81, -0.84 -0.64" stroke="#f85149" stroke-width="2" fill="none"></path></g><g transform="translate(397.25760650634766 230) rotate(0 30.742393493652344 10)"><text x="30.742393493652344" y="NaN" font-family="Virgil, Segoe UI Emoji" font-size="16px" fill="#ffffff" text-anchor="middle" style="white-space: pre;" direction="ltr">seg 3 ✗</text></g><g transform="translate(368 278) rotate(0 16.421981811523438 7.5)"><text x="0" y="NaN" font-family="Virgil, Segoe UI Emoji" font-size="12px" fill="#8b949e" text-anchor="start" style="white-space: pre;" direction="ltr">LOST</text></g><g stroke-linecap="round" transform="translate(512 210) rotate(0 70 30)"><path d="M1.74 1.09 L139.38 -0.66 L138.23 58.69 L-0.77 61.29" stroke="none" stroke-width="0" fill="#21262d"></path><path d="M1.83 -1.27 C50.35 0.78, 101.09 -0.8, 139.47 -1.25 M0.97 -0.89 C53.37 -0.8, 107.24 -0.57, 139.64 0.07 M138.59 -0.02 C138.97 21.97, 141.41 40.78, 141.57 60.52 M139.88 -0.42 C140.05 14.74, 139.94 27.14, 139.3 59.19 M142 60.4 C88.97 59.5, 39.26 62.35, 0.3 58.49 M139.94 60.78 C90.07 59, 38.95 58.25, -0.3 59.13 M-1.7 58.45 C0.3 41.76, 1.62 24.15, -0.37 -1.36 M-0.61 59.79 C-0.04 37.21, 0.5 13.53, -0.87 0.3" stroke="#30363d" stroke-width="2" fill="none"></path></g><g transform="translate(560.1520156860352 230) rotate(0 21.847984313964844 10)"><text x="21.847984313964844" y="NaN" font-family="Virgil, Segoe UI Emoji" font-size="16px" fill="#ffffff" text-anchor="middle" style="white-space: pre;" direction="ltr">seg 4</text></g><g transform="translate(522 278) rotate(0 24.845962524414062 15)"><text x="0" y="NaN" font-family="Virgil, Segoe UI Emoji" font-size="12px" fill="#8b949e" text-anchor="start" style="white-space: pre;" direction="ltr">buffered</text><text x="0" y="NaN" font-family="Virgil, Segoe UI Emoji" font-size="12px" fill="#8b949e" text-anchor="start" style="white-space: pre;" direction="ltr">(waiting)</text></g><g stroke-linecap="round" transform="translate(666 210) rotate(0 70 30)"><path d="M1.83 0.78 L139.44 0.35 L141.72 60.84 L0.37 61.66" stroke="none" stroke-width="0" fill="#21262d"></path><path d="M0.65 1.81 C45.41 -2.34, 87.76 -2.06, 138.84 -0.13 M0.94 -0.1 C51.15 1.15, 102.12 1.7, 140.13 -0.07 M140.98 -1.35 C140.15 12.14, 138.92 29.76, 141.44 58.21 M139.57 -0.52 C139.42 18.12, 139.29 36.54, 139.99 60.22 M138.47 58.54 C109.14 61.09, 73.94 58.95, 0.6 61.36 M139.73 60.54 C89.72 59.72, 38.33 60.55, 0.33 59.78 M-0.86 59.23 C0.69 38.3, 1.26 14.83, 0.25 0.78 M0.08 60.1 C0.08 39.92, -0.94 18.53, -0.2 0.86" stroke="#30363d" stroke-width="2" fill="none"></path></g><g transform="translate(714.3280181884766 230) rotate(0 21.671981811523438 10)"><text x="21.671981811523438" y="NaN" font-family="Virgil, Segoe UI Emoji" font-size="16px" fill="#ffffff" text-anchor="middle" style="white-space: pre;" direction="ltr">seg 5</text></g><g transform="translate(676 278) rotate(0 24.845962524414062 15)"><text x="0" y="NaN" font-family="Virgil, Segoe UI Emoji" font-size="12px" fill="#8b949e" text-anchor="start" style="white-space: pre;" direction="ltr">buffered</text><text x="0" y="NaN" font-family="Virgil, Segoe UI Emoji" font-size="12px" fill="#8b949e" text-anchor="start" style="white-space: pre;" direction="ltr">(waiting)</text></g><g stroke-linecap="round" transform="translate(820 210) rotate(0 70 30)"><path d="M-1.05 -1.86 L141.3 -0.18 L139.1 59.93 L1.82 61.41" stroke="none" stroke-width="0" fill="#21262d"></path><path d="M1.62 -0.78 C42.2 0.81, 82.49 0.25, 140.53 0.31 M0.9 0.54 C43.21 1.86, 88.11 1.52, 140.98 0.89 M139.32 1.87 C138.73 24.02, 139.1 45.06, 138.39 60.5 M139.36 -0.29 C139.8 13.22, 140.41 27.24, 140.33 60.63 M141.58 60.11 C95.58 59.5, 48.57 57.86, 0.75 61.27 M140.57 59.64 C96.1 58.84, 52.58 58.09, -0.68 60.62 M1.27 59.89 C-1.25 43.54, -1.44 28.67, 0.3 1.29 M0.28 59.04 C0.26 46.19, -1.24 32.84, 0.55 0.49" stroke="#30363d" stroke-width="2" fill="none"></path></g><g transform="translate(868.1520156860352 230) rotate(0 21.847984313964844 10)"><text x="21.847984313964844" y="NaN" font-family="Virgil, Segoe UI Emoji" font-size="16px" fill="#ffffff" text-anchor="middle" style="white-space: pre;" direction="ltr">seg 6</text></g><g transform="translate(830 278) rotate(0 24.845962524414062 15)"><text x="0" y="NaN" font-family="Virgil, Segoe UI Emoji" font-size="12px" fill="#8b949e" text-anchor="start" style="white-space: pre;" direction="ltr">buffered</text><text x="0" y="NaN" font-family="Virgil, Segoe UI Emoji" font-size="12px" fill="#8b949e" text-anchor="start" style="white-space: pre;" direction="ltr">(waiting)</text></g><g transform="translate(50 340) rotate(0 155.4978790283203 17.5)"><text x="0" y="NaN" font-family="Virgil, Segoe UI Emoji" font-size="14px" fill="#fab387" text-anchor="start" style="white-space: pre;" direction="ltr">App receives bytes only in order →</text><text x="0" y="NaN" font-family="Virgil, Segoe UI Emoji" font-size="14px" fill="#fab387" text-anchor="start" style="white-space: pre;" direction="ltr">  seg 3 retransmit blocks delivery of 4, 5, 6</text></g><g stroke-opacity="0.6" fill-opacity="0.6" stroke-linecap="round" transform="translate(10 370) rotate(0 590 160)"><path d="M-0.1 0.65 L1180.49 1.05 L1178.22 320.79 L-0.47 321.9" stroke="none" stroke-width="0" fill="#161b22"></path><path d="M-0.78 -0.06 C263.68 3.43, 528.33 3.69, 1180.33 0.51 M1181.11 1.4 C1179.95 88.52, 1181.31 178.99, 1181.18 319.44 M1179.68 319.49 C767.71 317.44, 356.54 317.63, 0.05 320.2 M0.81 319.36 C2.32 226.08, 2.97 129.14, -1.25 0.61" stroke="#30363d" stroke-width="2.5" fill="none" stroke-dasharray="8 10"></path></g><g transform="translate(26 386) rotate(0 165.99588012695312 11.25)"><text x="0" y="NaN" font-family="Virgil, Segoe UI Emoji" font-size="18px" fill="#8b949e" text-anchor="start" style="white-space: pre;" direction="ltr">QUIC: independent streams over UDP</text></g><g transform="translate(40 478) rotate(0 54.032958984375 8.75)"><text x="0" y="NaN" font-family="Virgil, Segoe UI Emoji" font-size="14px" fill="#c9d1d9" text-anchor="start" style="white-space: pre;" direction="ltr">Stream A (CSS)</text></g><g stroke-linecap="round" transform="translate(250 460) rotate(0 70 30)"><path d="M-0.33 -0.8 L139.77 0.9 L139.82 61.03 L0.17 59.87" stroke="none" stroke-width="0" fill="#0d2c5a"></path><path d="M-1.92 -1.36 C51.12 0.72, 100.5 0.87, 138.2 -0.82 M-0.65 0.58 C27.57 -0.96, 56.74 -0.11, 139.49 -0.3 M140.57 -0.73 C141.06 14.74, 139.15 28.34, 139.27 61.99 M139.77 -0.91 C139.9 19.11, 139.59 37.4, 140.42 59.07 M141.34 58.31 C86.58 62.48, 31.93 59.94, 0.55 58.26 M140.41 60.32 C97.69 59.92, 54.33 60.39, -0.74 60.62 M-1.41 61.04 C0.2 42.47, 0.46 27.86, -1.79 -1.77 M0.77 59.03 C-0.54 38.69, 0.16 18.9, 0.19 -0.52" stroke="#58a6ff" stroke-width="2" fill="none"></path></g><g transform="translate(313.4340057373047 481.25) rotate(0 6.5659942626953125 8.75)"><text x="6.5659942626953125" y="NaN" font-family="Virgil, Segoe UI Emoji" font-size="14px" fill="#ffffff" text-anchor="middle" style="white-space: pre;" direction="ltr">a1</text></g><g stroke-linecap="round" transform="translate(404 460) rotate(0 70 30)"><path d="M1.95 -1.43 L139.04 1.2 L139.84 60.17 L-1.74 61.94" stroke="none" stroke-width="0" fill="#0d2c5a"></path><path d="M-1.13 1.82 C34.41 -0.85, 70.43 -1.46, 141.72 -1.93 M-0.51 -0.73 C39.67 0.74, 80.59 -0.85, 139.25 -0.93 M139.6 1.6 C140.07 23.78, 140.67 47.19, 138.55 58.94 M139.08 -0.02 C140.25 19.15, 138.92 35.92, 140.56 60.13 M141.55 60.81 C103.99 58.38, 70.46 59.17, 0.6 60.03 M139.87 60.6 C97.44 60.83, 56.33 60.52, 0.09 59.19 M0.39 58.9 C-1.46 36.91, -0.57 15.43, 1.73 -1.22 M0.6 59.41 C-0.21 43.77, 0.17 26.8, -0.41 -0.8" stroke="#58a6ff" stroke-width="2" fill="none"></path></g><g transform="translate(464.34700775146484 481.25) rotate(0 9.652992248535156 8.75)"><text x="9.652992248535156" y="NaN" font-family="Virgil, Segoe UI Emoji" font-size="14px" fill="#ffffff" text-anchor="middle" style="white-space: pre;" direction="ltr">a2</text></g><g stroke-linecap="round" transform="translate(558 460) rotate(0 70 30)"><path d="M0.64 1.8 L139.98 -1.99 L141.65 61.19 L-0.85 58.02" stroke="none" stroke-width="0" fill="#0d2c5a"></path><path d="M1.2 -0.97 C27.99 -1.26, 57.74 0.89, 140.24 -0.28 M-0.38 0.75 C56.34 -0.14, 110.19 0.01, 140 -0.6 M139.12 -0.02 C139.76 24.8, 139.31 46.09, 141.19 61.28 M139.79 -0.64 C140.31 17.62, 139.56 34.52, 139.85 60.12 M140.7 58.77 C85.11 58.79, 30.74 58.06, -1.12 58.09 M140.27 59.94 C90.08 59.68, 38.46 59.57, -0.15 60.56 M-0.38 58.31 C-1.83 45.62, 0.83 29.37, -0.99 -1.36 M0.86 59.47 C1.14 43.61, -0.55 28.64, -0.27 -0.01" stroke="#58a6ff" stroke-width="2" fill="none"></path></g><g transform="translate(618.5640029907227 481.25) rotate(0 9.435997009277344 8.75)"><text x="9.435997009277344" y="NaN" font-family="Virgil, Segoe UI Emoji" font-size="14px" fill="#ffffff" text-anchor="middle" style="white-space: pre;" direction="ltr">a3</text></g><g stroke-linecap="round" transform="translate(712 460) rotate(0 70 30)"><path d="M-1.09 0.2 L141.06 -1.62 L140.69 61.04 L0.36 61.74" stroke="none" stroke-width="0" fill="#0d2c5a"></path><path d="M1.37 -1.22 C40.35 -0.18, 84.38 2.38, 141.06 1.73 M0.32 -0.27 C47.76 -0.76, 93 -1, 140.14 -0.66 M141.89 -1.25 C140.26 16.01, 141.64 34.34, 140.54 59.94 M140.85 -0.02 C139.78 19.45, 141.29 39.26, 139.25 59.49 M138.81 61.45 C109.46 57.35, 81.21 57.63, -1.39 60.23 M140.23 60.61 C108.45 61.29, 75.95 60.12, 1 60.59 M-0.86 59.54 C-1.87 37.37, -0.02 17.39, -0.48 1.54 M0.54 59.85 C0.38 36.12, -0.18 12.43, 0.09 0.48" stroke="#58a6ff" stroke-width="2" fill="none"></path></g><g transform="translate(772.8510055541992 481.25) rotate(0 9.148994445800781 8.75)"><text x="9.148994445800781" y="NaN" font-family="Virgil, Segoe UI Emoji" font-size="14px" fill="#ffffff" text-anchor="middle" style="white-space: pre;" direction="ltr">a4</text></g><g transform="translate(40 568) rotate(0 103.38292694091797 8.75)"><text x="0" y="NaN" font-family="Virgil, Segoe UI Emoji" font-size="14px" fill="#c9d1d9" text-anchor="start" style="white-space: pre;" direction="ltr">Stream B (JS) — packet lost</text></g><g stroke-linecap="round" transform="translate(250 550) rotate(0 70 30)"><path d="M0.48 0.17 L140.94 -1.22 L138.29 61.01 L-1.47 61.6" stroke="none" stroke-width="0" fill="#0d2c5a"></path><path d="M-1.8 0.97 C52.29 0.41, 109.91 2.3, 140.37 -1.43 M0.03 0.51 C40.65 0.64, 81.95 0.73, 139.3 -0.89 M141.84 -0.44 C138.7 22.71, 139.78 44.53, 139.28 62 M139.77 -0.86 C139.45 16.29, 140.45 32.65, 140.35 59.83 M141.15 59.59 C105.33 57.13, 72.76 58.31, -0.86 58.1 M139.4 59.47 C92.49 59.62, 47.09 59.52, 0.93 60.72 M1.53 58.6 C1.08 41.59, -0.31 18.08, 0.07 -0.51 M-0.71 59.33 C-0.85 45.82, 0.04 29.29, 0.08 0.79" stroke="#58a6ff" stroke-width="2" fill="none"></path></g><g transform="translate(314.54700469970703 571.25) rotate(0 5.452995300292969 8.75)"><text x="5.452995300292969" y="NaN" font-family="Virgil, Segoe UI Emoji" font-size="14px" fill="#ffffff" text-anchor="middle" style="white-space: pre;" direction="ltr">b1</text></g><g stroke-linecap="round" transform="translate(404 550) rotate(0 70 30)"><path d="M0.08 1.03 L138.65 1.74 L140.32 60.64 L-1.24 60.13" stroke="none" stroke-width="0" fill="#0d2c5a"></path><path d="M1.22 -1.29 C56.26 1.01, 109.91 1.76, 140.07 0.99 M-0.08 -0.91 C28.3 0.64, 55.82 -0.64, 139.27 0.26 M139.26 -0.2 C142.11 17.66, 141.99 38.81, 141.79 61.69 M140.79 0.75 C139.88 17.6, 140.78 33.47, 139.61 59.84 M140.74 58.21 C86.83 60.44, 33.3 58.42, -0.09 61.51 M139.5 60.08 C110.02 58.8, 79.55 58.69, 0.75 60.32 M0.02 61.4 C1.31 41.75, -0.57 26.18, -0.57 1.04 M-0.34 59.65 C1.23 41.37, 0.28 22.83, -0.39 -0.94" stroke="#58a6ff" stroke-width="2" fill="none"></path></g><g transform="translate(465.4600067138672 571.25) rotate(0 8.539993286132812 8.75)"><text x="8.539993286132812" y="NaN" font-family="Virgil, Segoe UI Emoji" font-size="14px" fill="#ffffff" text-anchor="middle" style="white-space: pre;" direction="ltr">b2</text></g><g stroke-linecap="round" transform="translate(558 550) rotate(0 70 30)"><path d="M-1 1.19 L140.9 0.24 L141.14 59.85 L0.69 61.25" stroke="none" stroke-width="0" fill="#4a1219"></path><path d="M-1.87 -0.21 C44.82 0.54, 91.16 1.4, 138.29 -0.4 M0.89 -0.71 C38.87 0.88, 75.72 0.11, 140 0.2 M141.02 0.85 C140.5 13.56, 139.51 25.29, 140.96 58.97 M139.11 0.6 C139.87 22.03, 139.5 43.92, 139.77 59.93 M141.57 59.69 C105.61 60.95, 67.44 60.28, -1.4 59.74 M140.68 60.79 C104.52 61.06, 69.57 60.16, -0.83 60.71 M-1.53 59.28 C-0.35 38.26, 1.29 13.42, -1.25 -1.3 M0.77 60.83 C0.56 47.65, 0.17 33.28, 0.78 0.49" stroke="#f85149" stroke-width="2" fill="none"></path></g><g transform="translate(612.181396484375 571.25) rotate(0 15.818603515625 8.75)"><text x="15.818603515625" y="NaN" font-family="Virgil, Segoe UI Emoji" font-size="14px" fill="#ffffff" text-anchor="middle" style="white-space: pre;" direction="ltr">b3 ✗</text></g><g stroke-linecap="round" transform="translate(712 550) rotate(0 70 30)"><path d="M1.1 -1.61 L140.18 1.29 L138.03 60.29 L1.86 58.16" stroke="none" stroke-width="0" fill="#21262d"></path><path d="M1.31 -0.22 C47.89 -0.68, 95.33 -0.28, 141.89 0.6 M0.58 0.03 C28.41 -0.23, 58.66 -0.59, 140.7 -0.63 M140.54 0 C138.93 13.42, 140.06 29.19, 140.58 61.33 M140.97 -0.56 C138.9 13.83, 140.31 27.42, 141 59.12 M140.51 60.58 C89.93 62.15, 42.03 60.81, -0.09 60.86 M139.32 59.36 C98.5 61.59, 58.01 61.33, 0.94 59.64 M0.77 58.55 C-1.6 37.25, 1.03 13.85, 0.76 0.91 M-0.34 60.22 C0.54 45.35, 1.2 32.11, -0.25 0.65" stroke="#30363d" stroke-width="2" fill="none"></path></g><g transform="translate(756.0440216064453 571.25) rotate(0 25.955978393554688 8.75)"><text x="25.955978393554688" y="NaN" font-family="Virgil, Segoe UI Emoji" font-size="14px" fill="#ffffff" text-anchor="middle" style="white-space: pre;" direction="ltr">b4 wait</text></g><g transform="translate(40 658) rotate(0 58.89795684814453 8.75)"><text x="0" y="NaN" font-family="Virgil, Segoe UI Emoji" font-size="14px" fill="#c9d1d9" text-anchor="start" style="white-space: pre;" direction="ltr">Stream C (image)</text></g><g stroke-linecap="round" transform="translate(250 640) rotate(0 70 30)"><path d="M-1.81 0.29 L141.16 -1.02 L141.28 61.48 L-1.92 61.74" stroke="none" stroke-width="0" fill="#0d2c5a"></path><path d="M-0.27 0.59 C41.09 -0.9, 79.69 0.57, 140.08 -1.52 M0.98 0.53 C30.84 0.55, 64.41 0.29, 140.68 0.58 M141.07 1.77 C138.51 15.48, 140.21 33.07, 140.25 60.22 M139.42 -0.48 C139.82 19.74, 138.71 37.92, 139.37 59.99 M139.04 59.35 C98.47 59.79, 58.72 61.61, 0.45 59.99 M140.17 59.2 C91.18 61.92, 43.08 61.81, 0.16 60.92 M-0.58 60.61 C-1.41 46.19, 1.39 36.52, -1.95 -1.57 M0.05 59.74 C-0.54 47.04, 0.32 33.38, 0.75 0.69" stroke="#58a6ff" stroke-width="2" fill="none"></path></g><g transform="translate(314.58900451660156 661.25) rotate(0 5.4109954833984375 8.75)"><text x="5.4109954833984375" y="NaN" font-family="Virgil, Segoe UI Emoji" font-size="14px" fill="#ffffff" text-anchor="middle" style="white-space: pre;" direction="ltr">c1</text></g><g stroke-linecap="round" transform="translate(404 640) rotate(0 70 30)"><path d="M1.1 -1.52 L141.95 -0.06 L140.29 61.86 L-1.51 58.78" stroke="none" stroke-width="0" fill="#0d2c5a"></path><path d="M-1.12 0.09 C32.75 -0.22, 68.29 -0.98, 138.88 0.43 M0.85 -0.9 C45.74 1.53, 90.28 0.91, 140.66 -0.01 M139.28 -0.54 C138.46 16.2, 140.24 35.94, 141.55 61.34 M139.11 0.79 C139.82 24.06, 141.27 48.78, 140.86 60.28 M138.9 59.93 C98.96 58.85, 57.44 60.83, -1.75 59.98 M139.5 60.03 C90.17 60.93, 41.79 60.97, 0.93 60.32 M1.17 59.8 C-0.46 42.68, -1.83 20.99, -1.88 -1.22 M0.47 60.29 C-0.85 44.04, 0.24 30.22, 0.92 0.58" stroke="#58a6ff" stroke-width="2" fill="none"></path></g><g transform="translate(465.5020065307617 661.25) rotate(0 8.497993469238281 8.75)"><text x="8.497993469238281" y="NaN" font-family="Virgil, Segoe UI Emoji" font-size="14px" fill="#ffffff" text-anchor="middle" style="white-space: pre;" direction="ltr">c2</text></g><g stroke-linecap="round" transform="translate(558 640) rotate(0 70 30)"><path d="M1.29 -0.66 L141.65 -0.21 L140.53 60.88 L0.32 60.7" stroke="none" stroke-width="0" fill="#0d2c5a"></path><path d="M0.89 -1.03 C44.4 -2.98, 89.6 -1.34, 138.43 -1.91 M0.86 0.42 C30.26 -0.88, 61.42 -1.06, 139.31 -0.76 M138.8 1.95 C141.44 19.99, 141.59 38.66, 140.37 61.68 M140.95 -0.53 C140.37 21.66, 140.12 41.02, 139.07 60.7 M141.43 58.65 C84.73 59.6, 30.18 62.17, 1.21 58.39 M139.58 60.69 C108.16 60.03, 75.13 60.21, -0.43 59.2 M0.81 59.47 C-1.79 35.48, 0.84 14.25, 1.02 -0.93 M-0.18 60.66 C0.13 45.76, -0.85 32.36, 0.63 0.34" stroke="#58a6ff" stroke-width="2" fill="none"></path></g><g transform="translate(619.7190017700195 661.25) rotate(0 8.280998229980469 8.75)"><text x="8.280998229980469" y="NaN" font-family="Virgil, Segoe UI Emoji" font-size="14px" fill="#ffffff" text-anchor="middle" style="white-space: pre;" direction="ltr">c3</text></g><g stroke-linecap="round" transform="translate(712 640) rotate(0 70 30)"><path d="M0.33 -1.45 L141.54 1.01 L141.15 58.56 L-0.45 60.76" stroke="none" stroke-width="0" fill="#0d2c5a"></path><path d="M-0.09 0.09 C55.7 0.5, 111.1 -0.37, 139.14 1.99 M0.46 0.52 C53.53 -0.57, 107.2 0.05, 139.11 0.39 M141.99 -0.26 C138.22 15.56, 139.48 30.74, 140.53 60.97 M139.88 -0.59 C140.39 19.14, 139.44 40.88, 139.33 59.01 M140.46 58.52 C91.79 58.22, 40.29 58.22, 1.81 60.79 M139.33 60.05 C88.37 59.31, 35.57 59.9, 0.65 60.54 M1.37 58.73 C-0.31 45.68, 0.59 32.02, -1.1 -1.16 M-0.89 59.36 C0.26 38.64, 1.38 19, 0.67 -0.13" stroke="#58a6ff" stroke-width="2" fill="none"></path></g><g transform="translate(774.0060043334961 661.25) rotate(0 7.993995666503906 8.75)"><text x="7.993995666503906" y="NaN" font-family="Virgil, Segoe UI Emoji" font-size="14px" fill="#ffffff" text-anchor="middle" style="white-space: pre;" direction="ltr">c4</text></g><g transform="translate(250 734) rotate(0 221.71780395507812 17.5)"><text x="0" y="NaN" font-family="Virgil, Segoe UI Emoji" font-size="14px" fill="#a6e3a1" text-anchor="start" style="white-space: pre;" direction="ltr">Only Stream B blocks while b3 is retransmitted.</text><text x="0" y="NaN" font-family="Virgil, Segoe UI Emoji" font-size="14px" fill="#a6e3a1" text-anchor="start" style="white-space: pre;" direction="ltr">Streams A and C deliver immediately — no HOL across streams.</text></g></svg>