<svg version="1.1" xmlns="http://www.w3.org/2000/svg" viewBox="0 0 780 1020" width="780" height="1020">
  <!-- svg-source:excalidraw -->
  
  <defs>
    <style>
      @font-face {
        font-family: "Virgil";
        src: url("https://excalidraw.com/Virgil.woff2");
      }
      @font-face {
        font-family: "Cascadia";
        src: url("https://excalidraw.com/Cascadia.woff2");
      }
    </style>
  </defs>
  <rect x="0" y="0" width="780" height="1020" fill="#0d1117"></rect><g stroke-linecap="round" transform="translate(10 10) rotate(0 100 25)"><path d="M0.58 -0.7 L200.12 -0.44 L199.16 48.93 L-1.65 51.46" stroke="none" stroke-width="0" fill="#3a1d6e"></path><path d="M-0.68 -1.36 C61.49 0.93, 124.79 0.35, 198.97 -1.31 M-0.29 0.39 C60.01 1.19, 120.39 0.24, 200.28 0.55 M198.68 -0.51 C197.95 11.61, 199.09 24.04, 200.23 50.11 M199.22 -0.31 C199.93 12.35, 200.14 21.85, 200.62 49.49 M201.57 48.98 C137.57 49.46, 76.27 51.42, -0.89 50.58 M200.13 50.66 C135.74 51.36, 70.43 50.62, 0.07 49.13 M-1.85 51.53 C0.08 33.93, 0.97 17.94, 0.64 0.8 M-0.29 49.99 C-0.38 33.3, 0.54 15.76, 0.88 0.24" stroke="#a371f7" stroke-width="2" fill="none"></path></g><g transform="translate(82.95002746582031 22.5) rotate(0 27.049972534179688 12.5)"><text x="27.049972534179688" y="NaN" font-family="Virgil, Segoe UI Emoji" font-size="20px" fill="#ffffff" text-anchor="middle" style="white-space: pre;" direction="ltr">Client</text></g><g stroke-linecap="round"><g transform="translate(110 60) rotate(0 0 450)"><path d="M-0.72 -0.06 C-0.44 149.86, 0.61 749.46, 0.84 899.4" stroke="#30363d" stroke-width="1.5" fill="none" stroke-dasharray="8 9"></path></g></g><g stroke-linecap="round" transform="translate(10 960) rotate(0 100 25)"><path d="M-0.92 0.36 L201.05 -0.54 L199.74 49.62 L-0.1 49.54" stroke="none" stroke-width="0" fill="#3a1d6e"></path><path d="M-0.23 1.63 C45.53 -0.63, 89.92 -1.05, 198.31 0.13 M-0.13 0.62 C44.38 0.18, 89.9 -0.86, 199.62 -0.82 M200.73 -0.68 C198.82 15.17, 200.31 28.6, 200.75 48.22 M199.1 -0.15 C199.09 10.86, 199.01 21.75, 200.16 49.03 M200.58 48.98 C127.03 48.4, 57.5 49.34, 1.21 49.17 M200.09 50.11 C130.89 50.09, 63.6 50.04, 0.06 50.46 M-1.49 50.8 C0.76 32.81, -0.23 16.28, 1.9 0.22 M-0.95 50.94 C-0.08 31.15, -0.34 10.36, -0.71 -0.61" stroke="#a371f7" stroke-width="2" fill="none"></path></g><g transform="translate(82.95002746582031 972.5) rotate(0 27.049972534179688 12.5)"><text x="27.049972534179688" y="NaN" font-family="Virgil, Segoe UI Emoji" font-size="20px" fill="#ffffff" text-anchor="middle" style="white-space: pre;" direction="ltr">Client</text></g><g stroke-linecap="round" transform="translate(290 10) rotate(0 100 25)"><path d="M0.31 -0.28 L201.07 -0.91 L200.59 51.06 L0.5 51.84" stroke="none" stroke-width="0" fill="#3a1d6e"></path><path d="M0.1 0.76 C42.91 2.63, 84.85 2.2, 199.56 1.24 M-0.52 0.03 C72.32 1.11, 143.76 0.88, 200.51 0.37 M198.97 1.21 C199.31 8.95, 201.71 20.98, 198.09 51.15 M200.25 -0.83 C200.47 10.93, 199.24 22.18, 200.22 50.92 M201.64 49.88 C127.33 48.98, 52.46 49.34, 0.98 50 M200.77 50.35 C148.47 47.72, 97.79 48.97, 0.14 50.05 M1.91 48.26 C-0.11 40.84, -0.19 29.59, -0.09 0.87 M-0.92 50.24 C-0.65 31.23, 0.77 13.09, 0.48 0.01" stroke="#a371f7" stroke-width="2" fill="none"></path></g><g transform="translate(359.15003204345703 22.5) rotate(0 30.84996795654297 12.5)"><text x="30.84996795654297" y="NaN" font-family="Virgil, Segoe UI Emoji" font-size="20px" fill="#ffffff" text-anchor="middle" style="white-space: pre;" direction="ltr">Server</text></g><g stroke-linecap="round"><g transform="translate(390 60) rotate(0 0 450)"><path d="M0.52 0.34 C0.75 150.23, 0.67 749.97, 0.48 899.84" stroke="#30363d" stroke-width="1.5" fill="none" stroke-dasharray="8 9"></path></g></g><g stroke-linecap="round" transform="translate(290 960) rotate(0 100 25)"><path d="M0.04 -1.39 L201.15 1.53 L198.27 50.31 L0.15 50.66" stroke="none" stroke-width="0" fill="#3a1d6e"></path><path d="M1.43 1.63 C74.69 -3.16, 149.25 -3.07, 201.05 -1.34 M-0.32 0.19 C72.36 -0.03, 147.21 -0.72, 199.37 0.43 M198.83 1.38 C199.98 10.25, 198.38 20.35, 199.23 50.56 M200.68 -0.66 C199.19 11.57, 200.75 24.1, 199.42 49.71 M198.66 51.11 C135.65 50.46, 67.88 48.44, 0.71 49.59 M199.6 50.23 C129.93 49.25, 60.7 47.84, 0.14 49.56 M-0.98 51.61 C-1.54 35.87, 0.65 16.51, -1.37 1.6 M-0.96 49.78 C-0.34 30.48, 0.01 11.27, 0.47 0.44" stroke="#a371f7" stroke-width="2" fill="none"></path></g><g transform="translate(359.15003204345703 972.5) rotate(0 30.84996795654297 12.5)"><text x="30.84996795654297" y="NaN" font-family="Virgil, Segoe UI Emoji" font-size="20px" fill="#ffffff" text-anchor="middle" style="white-space: pre;" direction="ltr">Server</text></g><g stroke-linecap="round" transform="translate(570 10) rotate(0 100 25)"><path d="M-1.93 -1.33 L199.96 1.56 L201.54 48.09 L1.23 48.71" stroke="none" stroke-width="0" fill="#3a1d6e"></path><path d="M-0.88 1.54 C52.3 -2.31, 100.44 -2.34, 201.71 -0.09 M-0.19 0.67 C74.77 1.96, 147.79 1.01, 200.72 -0.77 M199.19 -0.65 C200.15 18.84, 198.72 36.16, 199.28 48.21 M199.71 -0.74 C200.8 11.13, 199.5 20.05, 200.17 49.79 M200.83 48.75 C145.75 49.53, 96.26 49.03, -1.33 49.35 M200.19 50.65 C150.19 51.35, 102.09 50.57, 0.72 49.69 M-1.71 48.11 C-1.45 33.15, 1.68 16.55, 1.11 0.85 M0.86 49.72 C0.04 40.23, 0.86 29.62, 0.73 0.36" stroke="#a371f7" stroke-width="2" fill="none"></path></g><g transform="translate(620.5600357055664 22.5) rotate(0 49.439964294433594 12.5)"><text x="49.439964294433594" y="NaN" font-family="Virgil, Segoe UI Emoji" font-size="20px" fill="#ffffff" text-anchor="middle" style="white-space: pre;" direction="ltr">Database</text></g><g stroke-linecap="round"><g transform="translate(670 60) rotate(0 0 450)"><path d="M0.08 0.54 C0.26 150.72, -0.09 750.47, -0.02 900.57" stroke="#30363d" stroke-width="1.5" fill="none" stroke-dasharray="8 9"></path></g></g><g stroke-linecap="round" transform="translate(570 960) rotate(0 100 25)"><path d="M0.87 -1.41 L201.71 0.66 L199.33 51.71 L1.09 50.7" stroke="none" stroke-width="0" fill="#3a1d6e"></path><path d="M-0.02 -1.79 C70.04 -0.49, 141.77 -0.24, 198.39 -0.53 M-0.34 -0.28 C68.62 -0.68, 139.62 0.13, 199.85 -0.14 M200.22 -1.94 C199.95 15.18, 200.51 28.98, 200.26 50.8 M200.4 -0.98 C200.09 19.24, 200.13 36.93, 200.15 50.57 M201.39 49.74 C122.76 50.08, 49.81 50, 0.25 48.61 M199.75 50.63 C158.23 47.64, 118.02 48.04, -0.72 49.98 M0.13 50.27 C1.53 33.06, 1.98 16.31, 0 -0.55 M0.08 49.92 C1.38 35.36, -0.47 20.62, -0.61 -0.83" stroke="#a371f7" stroke-width="2" fill="none"></path></g><g transform="translate(620.5600357055664 972.5) rotate(0 49.439964294433594 12.5)"><text x="49.439964294433594" y="NaN" font-family="Virgil, Segoe UI Emoji" font-size="20px" fill="#ffffff" text-anchor="middle" style="white-space: pre;" direction="ltr">Database</text></g><g stroke-linecap="round"><g transform="translate(110 140) rotate(0 140 0)"><path d="M0.21 -0.9 C46.89 -0.8, 234.45 0.5, 280.95 0.6 M-1.14 1.24 C45.4 0.99, 233.36 -1.14, 280.5 -1.21" stroke="#c9d1d9" stroke-width="2" fill="none"></path></g><g transform="translate(110 140) rotate(0 140 0)"><path d="M250.88 10.83 C263.76 4.05, 272.6 0.74, 278.85 -2.79 M252.18 8.64 C261.42 6.85, 268.32 3.79, 280.37 -1.32" stroke="#c9d1d9" stroke-width="2" fill="none"></path></g><g transform="translate(110 140) rotate(0 140 0)"><path d="M250.74 -9.69 C263.67 -8.9, 272.56 -4.63, 278.85 -2.79 M252.03 -11.88 C261.19 -7.61, 268.12 -4.6, 280.37 -1.32" stroke="#c9d1d9" stroke-width="2" fill="none"></path></g></g><g transform="translate(153.15106201171875 117.5) rotate(0 96.84893798828125 33.75)"><text x="96.84893798828125" y="NaN" font-family="Virgil, Segoe UI Emoji" font-size="18px" fill="#c9d1d9" text-anchor="middle" style="white-space: pre;" direction="ltr">POST /payments</text><text x="96.84893798828125" y="NaN" font-family="Virgil, Segoe UI Emoji" font-size="18px" fill="#c9d1d9" text-anchor="middle" style="white-space: pre;" direction="ltr">Idempotency-Key: abc-</text><text x="96.84893798828125" y="NaN" font-family="Virgil, Segoe UI Emoji" font-size="18px" fill="#c9d1d9" text-anchor="middle" style="white-space: pre;" direction="ltr">123</text></g><g stroke-linecap="round"><g transform="translate(390 220) rotate(0 140 0)"><path d="M0.58 -1.11 C47.27 -1.41, 234.18 -0.97, 280.63 -0.69 M-0.57 0.92 C45.97 1.27, 232.95 0.88, 280.01 0.48" stroke="#c9d1d9" stroke-width="2" fill="none"></path></g><g transform="translate(390 220) rotate(0 140 0)"><path d="M250.02 11.92 C260.22 6.01, 271.95 4.43, 280.73 1.87 M251.12 10.36 C260.53 7.09, 268.77 4.87, 279.97 0.81" stroke="#c9d1d9" stroke-width="2" fill="none"></path></g><g transform="translate(390 220) rotate(0 140 0)"><path d="M249.93 -8.6 C260.35 -7.52, 272.11 -2.09, 280.73 1.87 M251.02 -10.16 C260.27 -7, 268.54 -2.8, 279.97 0.81" stroke="#c9d1d9" stroke-width="2" fill="none"></path></g></g><g transform="translate(446.8490524291992 197.5) rotate(0 83.15094757080078 22.5)"><text x="83.15094757080078" y="NaN" font-family="Virgil, Segoe UI Emoji" font-size="18px" fill="#c9d1d9" text-anchor="middle" style="white-space: pre;" direction="ltr">Check idempotency </text><text x="83.15094757080078" y="NaN" font-family="Virgil, Segoe UI Emoji" font-size="18px" fill="#c9d1d9" text-anchor="middle" style="white-space: pre;" direction="ltr">key "abc-123"</text></g><g stroke-linecap="round"><g transform="translate(670 300) rotate(0 -140 0)"><path d="M0.16 -1.13 C-46.71 -1.18, -234.27 0.17, -281.1 0.2" stroke="#c9d1d9" stroke-width="2.5" fill="none" stroke-dasharray="8 10"></path></g><g transform="translate(670 300) rotate(0 -140 0)"><path d="M-254.84 -12 C-261.23 -8.23, -271.79 -2.88, -280.25 0.74" stroke="#c9d1d9" stroke-width="2.5" fill="none"></path></g><g transform="translate(670 300) rotate(0 -140 0)"><path d="M-254.75 8.52 C-261.26 5.97, -271.84 5, -280.25 0.74" stroke="#c9d1d9" stroke-width="2.5" fill="none"></path></g></g><g transform="translate(468.26903533935547 288.75) rotate(0 61.73096466064453 11.25)"><text x="61.73096466064453" y="NaN" font-family="Virgil, Segoe UI Emoji" font-size="18px" fill="#c9d1d9" text-anchor="middle" style="white-space: pre;" direction="ltr">Key not found</text></g><g stroke-linecap="round"><g transform="translate(390 380) rotate(0 140 0)"><path d="M0.83 -0.22 C47.7 -0.37, 234.25 0.05, 280.94 0.25 M-0.19 -1.37 C46.63 -1.41, 233.67 -1.83, 280.48 -1.74" stroke="#c9d1d9" stroke-width="2" fill="none"></path></g><g transform="translate(390 380) rotate(0 140 0)"><path d="M251.94 10.1 C260.4 7.12, 269.39 1.19, 280.04 -3.3 M253.1 7.63 C259.93 6.58, 266.1 4.61, 281.37 -1.47" stroke="#c9d1d9" stroke-width="2" fill="none"></path></g><g transform="translate(390 380) rotate(0 140 0)"><path d="M251.93 -10.42 C260.59 -7.74, 269.59 -8, 280.04 -3.3 M253.09 -12.89 C259.95 -9.09, 266.12 -6.21, 281.37 -1.47" stroke="#c9d1d9" stroke-width="2" fill="none"></path></g></g><g transform="translate(453.3740539550781 368.75) rotate(0 76.62594604492188 22.5)"><text x="76.62594604492188" y="NaN" font-family="Virgil, Segoe UI Emoji" font-size="18px" fill="#c9d1d9" text-anchor="middle" style="white-space: pre;" direction="ltr">Lock key, process</text><text x="76.62594604492188" y="NaN" font-family="Virgil, Segoe UI Emoji" font-size="18px" fill="#c9d1d9" text-anchor="middle" style="white-space: pre;" direction="ltr">payment</text></g><g stroke-linecap="round"><g transform="translate(670 460) rotate(0 -140 0)"><path d="M-0.21 -0.03 C-47.05 -0.05, -234.26 -0.81, -280.73 -0.69" stroke="#c9d1d9" stroke-width="2.5" fill="none" stroke-dasharray="8 10"></path></g><g transform="translate(670 460) rotate(0 -140 0)"><path d="M-252.57 -12.14 C-262.88 -6.05, -269.65 -2.47, -282.3 -2.27" stroke="#c9d1d9" stroke-width="2.5" fill="none"></path></g><g transform="translate(670 460) rotate(0 -140 0)"><path d="M-252.6 8.38 C-262.8 7.81, -269.57 4.72, -282.3 -2.27" stroke="#c9d1d9" stroke-width="2.5" fill="none"></path></g></g><g transform="translate(454.9760437011719 448.75) rotate(0 75.02395629882812 11.25)"><text x="75.02395629882812" y="NaN" font-family="Virgil, Segoe UI Emoji" font-size="18px" fill="#c9d1d9" text-anchor="middle" style="white-space: pre;" direction="ltr">Payment created</text></g><g stroke-linecap="round"><g transform="translate(390 540) rotate(0 -140 0)"><path d="M0.92 1.12 C-45.79 1.11, -232.85 0.91, -279.67 0.59" stroke="#c9d1d9" stroke-width="2.5" fill="none" stroke-dasharray="8 10"></path></g><g transform="translate(390 540) rotate(0 -140 0)"><path d="M-249.57 -9.01 C-260.22 -5.76, -272.3 -2.64, -279.25 2.27" stroke="#c9d1d9" stroke-width="2.5" fill="none"></path></g><g transform="translate(390 540) rotate(0 -140 0)"><path d="M-249.64 11.51 C-260.39 7.62, -272.45 3.59, -279.25 2.27" stroke="#c9d1d9" stroke-width="2.5" fill="none"></path></g></g><g transform="translate(194.74003601074222 528.75) rotate(0 55.2599639892578 11.25)"><text x="55.25996398925781" y="NaN" font-family="Virgil, Segoe UI Emoji" font-size="18px" fill="#c9d1d9" text-anchor="middle" style="white-space: pre;" direction="ltr">201 Created</text></g><g stroke-opacity="0.85" fill-opacity="0.85" stroke-linecap="round" transform="translate(128.28205913808335 563) rotate(0 121.60000000000002 22)"><path d="M1.75 -0.93 L243.07 0.18 L243.6 44.72 L-0.56 43.19" stroke="none" stroke-width="0" fill="#1f4d2b"></path><path d="M-1.5 -0.05 C65.98 0.1, 132.87 0.14, 244.1 -1.51 M0.76 -0.01 C97.11 -0.04, 194.08 0.18, 243.51 0.21 M241.83 -1.72 C241.58 15.96, 243.74 32, 241.27 42.47 M244.15 -0.38 C242.06 16.33, 243.61 33.93, 242.21 43.85 M244.05 44.06 C176.12 42.96, 104.56 45.72, -1.16 45.07 M243.48 43.88 C151.81 43.82, 60.42 43.58, 0.31 44.08 M0.8 43.36 C1.45 29, -0.45 11.71, -0.53 -0.42 M0.4 44.71 C-0.23 28.29, -1.05 12.79, 0.92 0.48" stroke="#3fb950" stroke-width="2" fill="none"></path></g><g transform="translate(150.29011730458728 575) rotate(0 99.5919418334961 10)"><text x="99.5919418334961" y="NaN" font-family="Virgil, Segoe UI Emoji" font-size="16px" fill="#ffffff" text-anchor="middle" style="white-space: pre;" direction="ltr">Network timeout on retry</text></g><g stroke-linecap="round"><g transform="translate(110 650) rotate(0 140 0)"><path d="M0.3 -1.09 C47.06 -1.22, 233.06 -0.37, 279.56 -0.29 M-1.01 0.95 C45.66 0.95, 231.85 1.19, 278.39 1.09" stroke="#c9d1d9" stroke-width="2" fill="none"></path></g><g transform="translate(110 650) rotate(0 140 0)"><path d="M248.38 10.63 C255.66 7.98, 261.12 8.07, 277.66 0.34 M249.58 11.28 C260.82 7.29, 272.38 2.23, 278.99 0.68" stroke="#c9d1d9" stroke-width="2" fill="none"></path></g><g transform="translate(110 650) rotate(0 140 0)"><path d="M248.37 -9.89 C255.74 -8.18, 261.2 -3.73, 277.66 0.34 M249.57 -9.25 C260.76 -5.11, 272.33 -2.04, 278.99 0.68" stroke="#c9d1d9" stroke-width="2" fill="none"></path></g></g><g transform="translate(153.15106201171875 627.5) rotate(0 96.84893798828125 33.75)"><text x="96.84893798828125" y="NaN" font-family="Virgil, Segoe UI Emoji" font-size="18px" fill="#c9d1d9" text-anchor="middle" style="white-space: pre;" direction="ltr">POST /payments</text><text x="96.84893798828125" y="NaN" font-family="Virgil, Segoe UI Emoji" font-size="18px" fill="#c9d1d9" text-anchor="middle" style="white-space: pre;" direction="ltr">Idempotency-Key: abc-</text><text x="96.84893798828125" y="NaN" font-family="Virgil, Segoe UI Emoji" font-size="18px" fill="#c9d1d9" text-anchor="middle" style="white-space: pre;" direction="ltr">123</text></g><g stroke-linecap="round"><g transform="translate(390 700) rotate(0 140 0)"><path d="M0.29 -0.98 C46.87 -0.67, 234.06 0.63, 280.5 0.73 M-1.02 1.11 C45.36 1.19, 232.76 -0.94, 279.81 -1.01" stroke="#c9d1d9" stroke-width="2" fill="none"></path></g><g transform="translate(390 700) rotate(0 140 0)"><path d="M250.05 10.28 C263.83 3.61, 272.78 1.4, 279.65 -1.43 M250.71 9.74 C262.04 5.38, 271.71 2.59, 279.67 -0.11" stroke="#c9d1d9" stroke-width="2" fill="none"></path></g><g transform="translate(390 700) rotate(0 140 0)"><path d="M249.91 -10.24 C263.54 -9.02, 272.54 -3.33, 279.65 -1.43 M250.57 -10.78 C261.98 -8.04, 271.69 -3.72, 279.67 -0.11" stroke="#c9d1d9" stroke-width="2" fill="none"></path></g></g><g transform="translate(446.8490524291992 677.5) rotate(0 83.15094757080078 22.5)"><text x="83.15094757080078" y="NaN" font-family="Virgil, Segoe UI Emoji" font-size="18px" fill="#c9d1d9" text-anchor="middle" style="white-space: pre;" direction="ltr">Check idempotency </text><text x="83.15094757080078" y="NaN" font-family="Virgil, Segoe UI Emoji" font-size="18px" fill="#c9d1d9" text-anchor="middle" style="white-space: pre;" direction="ltr">key "abc-1</text></g><g stroke-linecap="round"><g transform="translate(670 780) rotate(0 -140 0)"><path d="M-0.76 -0.71 C-47.42 -1.05, -234.29 -1.42, -280.95 -1.17" stroke="#c9d1d9" stroke-width="2.5" fill="none" stroke-dasharray="8 10"></path></g><g transform="translate(670 780) rotate(0 -140 0)"><path d="M-253.96 -13.04 C-260.73 -10.64, -263.51 -6.8, -282.18 -0.11" stroke="#c9d1d9" stroke-width="2.5" fill="none"></path></g><g transform="translate(670 780) rotate(0 -140 0)"><path d="M-253.94 7.48 C-260.85 5.45, -263.64 4.87, -282.18 -0.11" stroke="#c9d1d9" stroke-width="2.5" fill="none"></path></g></g><g transform="translate(451.35805511474604 768.75) rotate(0 78.64194488525393 22.5)"><text x="78.6419448852539" y="NaN" font-family="Virgil, Segoe UI Emoji" font-size="18px" fill="#c9d1d9" text-anchor="middle" style="white-space: pre;" direction="ltr">Key found, stored</text><text x="78.6419448852539" y="NaN" font-family="Virgil, Segoe UI Emoji" font-size="18px" fill="#c9d1d9" text-anchor="middle" style="white-space: pre;" direction="ltr">result</text></g><g stroke-linecap="round"><g transform="translate(390 860) rotate(0 -140 0)"><path d="M0.24 0.62 C-46.67 0.67, -234.41 -0.7, -281.03 -0.72" stroke="#c9d1d9" stroke-width="2.5" fill="none" stroke-dasharray="8 10"></path></g><g transform="translate(390 860) rotate(0 -140 0)"><path d="M-251.75 -12.58 C-263.66 -6.46, -271.24 -5.33, -280.96 -2.68" stroke="#c9d1d9" stroke-width="2.5" fill="none"></path></g><g transform="translate(390 860) rotate(0 -140 0)"><path d="M-251.84 7.94 C-263.55 7.1, -271.1 1.27, -280.96 -2.68" stroke="#c9d1d9" stroke-width="2.5" fill="none"></path></g></g><g transform="translate(156.9760589599609 848.75) rotate(0 93.02394104003908 22.5)"><text x="93.02394104003906" y="NaN" font-family="Virgil, Segoe UI Emoji" font-size="18px" fill="#c9d1d9" text-anchor="middle" style="white-space: pre;" direction="ltr">201 Created (cached</text><text x="93.02394104003906" y="NaN" font-family="Virgil, Segoe UI Emoji" font-size="18px" fill="#c9d1d9" text-anchor="middle" style="white-space: pre;" direction="ltr">result)</text></g></svg>