<svg version="1.1" xmlns="http://www.w3.org/2000/svg" viewBox="0 0 958.1507663083664 723.3603208710949" width="958.1507663083664" height="723.3603208710949">
  <!-- svg-source:excalidraw -->
  
  <defs>
    <style>
      @font-face {
        font-family: "Virgil";
        src: url("https://excalidraw.com/Virgil.woff2");
      }
      @font-face {
        font-family: "Cascadia";
        src: url("https://excalidraw.com/Cascadia.woff2");
      }
    </style>
  </defs>
  <rect x="0" y="0" width="958.1507663083664" height="723.3603208710949" fill="#1e1e2e"></rect><g stroke-linecap="round" transform="translate(388.1507663083664 10) rotate(0 146 36.5)"><path d="M145.37 -1.21 L292.49 35.62 L145.37 74.7 L1.48 35.34" stroke="none" stroke-width="0" fill="#5b21b6" fill-rule="evenodd"></path><path d="M148.08 1.4 C186.9 8.91, 227.78 17.73, 292.79 37.66 M146.58 -0.42 C198.56 13.97, 250.43 26.78, 291.9 36.23 M292.95 35.09 C255.69 46.27, 220.11 52.87, 147.19 74.89 M291.32 37.93 C251.33 47.4, 210.19 56.95, 147.4 73.49 M148.7 73.22 C113.37 66.58, 75.94 59.08, -1.06 38.61 M147.79 73.77 C92.49 59.05, 38.64 45.87, 0.17 36.31 M-1.57 35.65 C31.3 26.69, 64.39 21.72, 147.85 -0.25 M0.03 36.79 C38.51 26.84, 76.74 17.35, 147.94 0.54" stroke="#7c3aed" stroke-width="2" fill="none"></path></g><g transform="translate(430.4308566403977 34) rotate(0 103.71990966796875 12.5)"><text x="103.71990966796875" y="NaN" font-family="Virgil, Segoe UI Emoji" font-size="20px" fill="#fff" text-anchor="middle" style="white-space: pre;" direction="ltr">Who is the consumer?</text></g><g stroke-linecap="round" transform="translate(140.15076630836643 250) rotate(0 173.5 36.5)"><path d="M-1.14 1.61 L347.82 -0.6 L347.19 74.22 L-0.79 74.98" stroke="none" stroke-width="0" fill="#2d6a4f"></path><path d="M-1.2 0.33 C104.69 0.49, 207.18 0.74, 345.79 0.77 M-0.24 -0.47 C94.91 -0.33, 189.98 -0.5, 347.61 0.1 M348.16 -1.41 C346.29 26.7, 347.58 53.11, 345.33 71.76 M346.04 -0.01 C347.92 22.94, 346.54 44.21, 347.73 73.74 M346.58 73.88 C264.93 72.61, 181.94 70.66, -0.66 73.29 M347.52 73.61 C223.46 72.33, 100.54 72.32, 0.16 72.68 M0.55 71.01 C1.98 55.43, 2.37 37.67, -1.89 -0.93 M-0.99 73.28 C-1.05 56.06, -1.09 40.84, 1 -0.16" stroke="#40916c" stroke-width="2" fill="none"></path></g><g transform="translate(195.31086152321018 274) rotate(0 118.33990478515625 12.5)"><text x="118.33990478515625" y="NaN" font-family="Virgil, Segoe UI Emoji" font-size="20px" fill="#fff" text-anchor="middle" style="white-space: pre;" direction="ltr">External / public clients</text></g><g stroke-linecap="round" transform="translate(557.1507663083664 250) rotate(0 195.5 36.5)"><path d="M-0.63 0.55 L390.56 1.68 L390.82 71.05 L-1.65 71.19" stroke="none" stroke-width="0" fill="#2d6a4f"></path><path d="M-0.53 -0.03 C88.18 2.06, 175.79 2.11, 391.59 -0.05 M-0.41 0.28 C103.42 1.24, 206.69 1.6, 391.55 0.26 M391.2 -1.63 C391.39 24.44, 392.66 49.12, 390.54 71.68 M391.56 0.78 C390.26 21.54, 389.71 41.95, 390.53 72.6 M390.92 72.59 C273.18 71.27, 156.68 72.52, 0 73.61 M391.14 72.47 C256.65 72.38, 122.29 71.74, -0.12 72.77 M1.74 71.92 C-1.37 53.87, 1.23 32.14, -1.5 1.33 M-0.98 73.13 C0.31 58.85, -0.85 43.46, -0.05 0.41" stroke="#40916c" stroke-width="2" fill="none"></path></g><g transform="translate(610.3408908200852 274) rotate(0 142.30987548828125 12.5)"><text x="142.30987548828125" y="NaN" font-family="Virgil, Segoe UI Emoji" font-size="20px" fill="#fff" text-anchor="middle" style="white-space: pre;" direction="ltr">Internal services you control</text></g><g stroke-linecap="round" transform="translate(141.65076630836643 405) rotate(0 162.5 36.5)"><path d="M162.91 1.24 L325.67 37.82 L161.99 73.73 L1.65 37.14" stroke="none" stroke-width="0" fill="#5b21b6" fill-rule="evenodd"></path><path d="M164.51 0.86 C195.19 9.05, 230.35 18.52, 323.72 35.78 M163.94 -0.53 C209.58 10.57, 257.69 22.36, 324.67 36.05 M325.6 36.4 C269.95 50.27, 210.14 62.37, 164.44 73.12 M324.98 38 C292.25 43.96, 258.82 52, 163.9 73.39 M164.93 71.65 C127.36 67.6, 93.76 56.09, -0.13 35.38 M162.63 73.65 C97.7 59.34, 33.77 45.87, -0.69 36.74 M1.43 38.27 C55.47 21.51, 112.99 11.74, 161.75 -1.23 M-0.32 37.76 C45.52 26.48, 89.69 17.2, 162.01 0.94" stroke="#7c3aed" stroke-width="2" fill="none"></path></g><g transform="translate(194.15087311988987 429) rotate(0 109.99989318847656 12.5)"><text x="109.99989318847656" y="NaN" font-family="Virgil, Segoe UI Emoji" font-size="20px" fill="#fff" text-anchor="middle" style="white-space: pre;" direction="ltr">Multiple client shapes?</text></g><g stroke-linecap="round" transform="translate(409.4269322523892 640.3603208710949) rotate(0 90 36.5)"><path d="M0.27 1.48 L179.29 0.5 L180.38 73.46 L0.39 71.21" stroke="none" stroke-width="0" fill="#1e40af"></path><path d="M1.36 -0.59 C52.18 -2.5, 104.17 -2.21, 181.68 -0.83 M-0.91 0.84 C69.09 -1.19, 135.69 -0.39, 179.17 0.9 M181.17 -1.5 C181.63 15.97, 179.72 30.7, 180.92 72.03 M179.56 0.1 C181.33 25.2, 180.15 50.31, 179.14 72.09 M179.09 71.81 C122.4 74.12, 66.56 74.58, -0.75 72.89 M179.61 72.03 C141.2 71.28, 101.58 70.65, -0.19 73.68 M-0.72 71.52 C0.46 43.24, 1.14 18.73, -0.61 0.04 M0.07 73.72 C-0.07 56.48, -0.27 41.3, 1 0.91" stroke="#3b82f6" stroke-width="2" fill="none"></path></g><g transform="translate(471.7869481215298 664.3603208710949) rotate(0 27.639984130859375 12.5)"><text x="27.639984130859375" y="NaN" font-family="Virgil, Segoe UI Emoji" font-size="20px" fill="#fff" text-anchor="middle" style="white-space: pre;" direction="ltr">REST</text></g><g stroke-linecap="round" transform="translate(10 635.8185262349773) rotate(0 90 36.5)"><path d="M0.53 0.84 L180.41 -1.96 L180.75 73.13 L0.2 73.07" stroke="none" stroke-width="0" fill="#1e40af"></path><path d="M-1.41 -0.66 C39.77 0.49, 83.67 -2.29, 179.42 -0.99 M-0.99 0.82 C41.19 0.69, 83.15 0.96, 179.99 -0.27 M180.73 -0.27 C178.92 21.97, 180.06 40.62, 180.74 72.92 M180.89 0.4 C180.71 18.03, 180.18 38.43, 180.72 73.57 M178.32 71.08 C113.85 70.82, 43.46 71.86, -1.84 72.34 M180.67 73.01 C131.17 70.58, 80.31 71.46, 0.74 72.52 M-0.62 72.02 C1.22 57.91, 1.49 41.87, 1.05 -0.26 M0.66 72.95 C0.07 49.82, -0.73 25.71, 0.73 -0.55" stroke="#3b82f6" stroke-width="2" fill="none"></path></g><g transform="translate(58.23002624511719 659.8185262349773) rotate(0 41.76997375488281 12.5)"><text x="41.76997375488281" y="NaN" font-family="Virgil, Segoe UI Emoji" font-size="20px" fill="#fff" text-anchor="middle" style="white-space: pre;" direction="ltr">GraphQL</text></g><g stroke-linecap="round" transform="translate(667.1639623177689 520.1358326009674) rotate(0 90 36.5)"><path d="M-0.98 1.85 L179.34 -0.64 L181 74.29 L-1.7 74.15" stroke="none" stroke-width="0" fill="#b45309"></path><path d="M-1.8 0.14 C50.42 1.95, 100.59 -0.69, 179.87 -0.63 M0.52 0.36 C67.95 -0.23, 134.88 -0.07, 179.27 0.26 M178.02 1.45 C180.64 19.66, 181.53 36.54, 181.04 73.1 M179 0.93 C179.65 20.72, 179.94 41.49, 180.66 72.12 M180.6 74.97 C112.28 72.45, 43.5 69.53, 1.85 72.45 M180.28 72.18 C139.52 73.85, 98.6 72.44, 0.83 73.27 M1.95 73.85 C-0.57 55.34, -1.26 40.54, 0.26 -1.82 M-0.63 72.89 C-0.28 52.74, -0.88 33.7, -0.08 -0.93" stroke="#d97706" stroke-width="2" fill="none"></path></g><g transform="translate(732.3239812386673 544.1358326009674) rotate(0 24.839981079101562 12.5)"><text x="24.839981079101562" y="NaN" font-family="Virgil, Segoe UI Emoji" font-size="20px" fill="#fff" text-anchor="middle" style="white-space: pre;" direction="ltr">gRPC</text></g><g stroke-linecap="round"><g transform="translate(528.4164006686768 86.32458092189245) rotate(0 -94.18322067427195 78.83770953905378)"><path d="M-0.13 0.07 C-31.61 26.37, -156.91 132.38, -188.17 158.78 M-1.66 -0.94 C-33.35 24.97, -157.95 130.99, -189.01 157.24" stroke="#40916c" stroke-width="2" fill="none"></path></g><g transform="translate(528.4164006686768 86.32458092189245) rotate(0 -94.18322067427195 78.83770953905378)"><path d="M-174.02 131.51 C-177.44 141.72, -183.31 149.26, -189.42 157.31 M-174.1 131.48 C-177.75 137.04, -181.43 143.46, -188.96 156.53" stroke="#40916c" stroke-width="2" fill="none"></path></g><g transform="translate(528.4164006686768 86.32458092189245) rotate(0 -94.18322067427195 78.83770953905378)"><path d="M-160.75 147.17 C-169.07 151.73, -179.72 153.64, -189.42 157.31 M-160.83 147.13 C-167.52 148.98, -174.37 151.66, -188.96 156.53" stroke="#40916c" stroke-width="2" fill="none"></path></g></g><g transform="translate(391.32579224830783 65.25) rotate(0 37.574974060058594 11.25)"><text x="37.574974060058594" y="NaN" font-family="Virgil, Segoe UI Emoji" font-size="18px" fill="#cdd6f4" text-anchor="middle" style="white-space: pre;" direction="ltr">External</text></g><g stroke-linecap="round"><g transform="translate(541.7280513435684 86.34088297505616) rotate(0 91.70377503689159 78.82955851247195)"><path d="M-0.31 0.58 C30.49 26.73, 152.93 131.55, 183.67 157.74 M1.74 -0.17 C32.49 26.13, 152.52 132.79, 182.85 159.31" stroke="#40916c" stroke-width="2" fill="none"></path></g><g transform="translate(541.7280513435684 86.34088297505616) rotate(0 91.70377503689159 78.82955851247195)"><path d="M155.89 148.79 C160.93 151.87, 166.62 154.53, 183.98 158.86 M154.67 148.95 C164.09 152.3, 172.22 155.48, 183.76 158.95" stroke="#40916c" stroke-width="2" fill="none"></path></g><g transform="translate(541.7280513435684 86.34088297505616) rotate(0 91.70377503689159 78.82955851247195)"><path d="M169.46 133.4 C171.79 139.64, 174.66 145.5, 183.98 158.86 M168.24 133.56 C173.63 141.41, 177.75 149.13, 183.76 158.95" stroke="#40916c" stroke-width="2" fill="none"></path></g></g><g transform="translate(612.8417910886399 65.25) rotate(0 35.558975219726555 11.25)"><text x="35.55897521972656" y="NaN" font-family="Virgil, Segoe UI Emoji" font-size="18px" fill="#cdd6f4" text-anchor="middle" style="white-space: pre;" direction="ltr">Internal</text></g><g stroke-linecap="round"><g transform="translate(304.32494034772446 329.00000000000006) rotate(0 0.1504223986125055 36.15625212935399)"><path d="M0.85 -0.01 C1.09 12.24, 0.27 60.83, 0.35 72.72 M-0.17 -1.06 C0.02 10.89, -0.78 58.61, -0.57 70.81" stroke="#3b82f6" stroke-width="2" fill="none"></path></g><g transform="translate(304.32494034772446 329.00000000000006) rotate(0 0.1504223986125055 36.15625212935399)"><path d="M-10.81 42.69 C-8.17 50.11, -8.36 53.29, -0.81 69.64 M-11.77 42.62 C-6.92 51.41, -4.06 61.58, 0.06 69.89" stroke="#3b82f6" stroke-width="2" fill="none"></path></g><g transform="translate(304.32494034772446 329.00000000000006) rotate(0 0.1504223986125055 36.15625212935399)"><path d="M9.72 42.72 C8.09 50.28, 3.63 53.45, -0.81 69.64 M8.75 42.65 C6.54 51.56, 2.34 61.71, 0.06 69.89" stroke="#3b82f6" stroke-width="2" fill="none"></path></g></g><g stroke-linecap="round"><g transform="translate(310.9783822762891 481.4202558412585) rotate(0 84.39223190691183 76.47003251491822)"><path d="M0.9 1.12 C29.01 26.61, 141.11 128.84, 169.04 154.06 M-0.09 0.67 C27.85 26.36, 140.29 127.05, 168.22 152.53" stroke="#3b82f6" stroke-width="2" fill="none"></path></g><g transform="translate(310.9783822762891 481.4202558412585) rotate(0 84.39223190691183 76.47003251491822)"><path d="M142.29 141.67 C151.61 144.23, 158.15 149.98, 169.37 153.14 M139.67 141.55 C146.98 144.75, 152.62 147.26, 167.73 152.01" stroke="#3b82f6" stroke-width="2" fill="none"></path></g><g transform="translate(310.9783822762891 481.4202558412585) rotate(0 84.39223190691183 76.47003251491822)"><path d="M156.05 126.44 C160.94 134.15, 162.93 144.95, 169.37 153.14 M153.42 126.32 C157.71 132.87, 160.26 138.8, 167.73 152.01" stroke="#3b82f6" stroke-width="2" fill="none"></path></g></g><g transform="translate(328.18197410953485 535.2214729869766) rotate(0 62.66694641113281 22.5)"><text x="62.66694641113281" y="NaN" font-family="Virgil, Segoe UI Emoji" font-size="18px" fill="#cdd6f4" text-anchor="middle" style="white-space: pre;" direction="ltr">No -- </text><text x="62.66694641113281" y="NaN" font-family="Virgil, Segoe UI Emoji" font-size="18px" fill="#cdd6f4" text-anchor="middle" style="white-space: pre;" direction="ltr">uniform clients</text></g><g stroke-linecap="round"><g transform="translate(298.6568944276003 481.4471920507832) rotate(0 -77.20171830040081 74.18566709209705)"><path d="M0.37 -0.95 C-25.29 23.98, -129.17 123.48, -155.12 148.55 M-0.89 1.16 C-26.07 26.4, -127.45 125.76, -152.78 150.18" stroke="#3b82f6" stroke-width="2" fill="none"></path></g><g transform="translate(298.6568944276003 481.4471920507832) rotate(0 -77.20171830040081 74.18566709209705)"><path d="M-141.33 121.97 C-142.36 127.29, -143.54 135.14, -152.24 149.72 M-139.45 122.84 C-144.23 133.82, -148.84 142.81, -152.38 150.17" stroke="#3b82f6" stroke-width="2" fill="none"></path></g><g transform="translate(298.6568944276003 481.4471920507832) rotate(0 -77.20171830040081 74.18566709209705)"><path d="M-127.01 136.67 C-130.86 139.01, -134.98 143.85, -152.24 149.72 M-125.13 137.54 C-135.25 143.23, -145.14 146.8, -152.38 150.17" stroke="#3b82f6" stroke-width="2" fill="none"></path></g></g><g transform="translate(160.4617104993007 535.2656619689658) rotate(0 76.55392456054688 22.5)"><text x="76.55392456054688" y="NaN" font-family="Virgil, Segoe UI Emoji" font-size="18px" fill="#cdd6f4" text-anchor="middle" style="white-space: pre;" direction="ltr">Yes -- </text><text x="76.55392456054688" y="NaN" font-family="Virgil, Segoe UI Emoji" font-size="18px" fill="#cdd6f4" text-anchor="middle" style="white-space: pre;" direction="ltr">diverse frontends</text></g><g stroke-linecap="round"><g transform="translate(754.0726260349385 329) rotate(0 0.8363098831395348 92.56791630048372)"><path d="M-0.88 0.18 C-0.66 30.82, 1.11 153.32, 1.64 183.97 M0.86 -0.77 C0.89 29.95, 0.51 153.95, 0.67 184.89" stroke="#d97706" stroke-width="2" fill="none"></path></g><g transform="translate(754.0726260349385 329) rotate(0 0.8363098831395348 92.56791630048372)"><path d="M-9.3 156.65 C-8.16 166.99, -4.59 175.36, 1.47 184.95 M-10.37 156.44 C-5.67 166.87, -2.34 178.87, 1.23 185.65" stroke="#d97706" stroke-width="2" fill="none"></path></g><g transform="translate(754.0726260349385 329) rotate(0 0.8363098831395348 92.56791630048372)"><path d="M11.22 156.64 C5.67 166.83, 2.54 175.21, 1.47 184.95 M10.15 156.43 C7 166.87, 2.48 178.88, 1.23 185.65" stroke="#d97706" stroke-width="2" fill="none"></path></g></g></svg>