<svg version="1.1" xmlns="http://www.w3.org/2000/svg" viewBox="0 0 1942 406" width="1942" height="406">
  <!-- svg-source:excalidraw -->
  
  <defs>
    <style>
      @font-face {
        font-family: "Virgil";
        src: url("https://excalidraw.com/Virgil.woff2");
      }
      @font-face {
        font-family: "Cascadia";
        src: url("https://excalidraw.com/Cascadia.woff2");
      }
    </style>
  </defs>
  <rect x="0" y="0" width="1942" height="406" fill="#1e1e2e"></rect><g stroke-opacity="0.6" fill-opacity="0.6" stroke-linecap="round" transform="translate(790 10) rotate(0 150 193)"><path d="M-1.72 1.41 L298.08 -1.35 L298.77 387.28 L0.41 387.79" stroke="none" stroke-width="0" fill="#181825"></path><path d="M1.05 -0.96 C105.67 -2.16, 214.46 -1.89, 299.66 -0.25 M299.85 -0.32 C298.99 79.31, 299.3 159.25, 299.05 386.92 M300.84 386.36 C204.09 386.78, 109.08 386.44, -1.08 386.12 M1.12 386.8 C0.25 240.41, -0.59 94.9, 0.02 0.23" stroke="#45475a" stroke-width="2.5" fill="none" stroke-dasharray="8 10"></path></g><g transform="translate(806 20) rotate(0 134 13)"><text x="0" y="NaN" font-family="Virgil, Segoe UI Emoji" font-size="18px" fill="#a6adc8" text-anchor="start" style="white-space: pre;" direction="ltr">Gateway Tier</text></g><g stroke-opacity="0.6" fill-opacity="0.6" stroke-linecap="round" transform="translate(1630 10) rotate(0 151 193)"><path d="M-1.22 1.33 L303.82 1.37 L300.63 387.53 L-1.88 386.82" stroke="none" stroke-width="0" fill="#181825"></path><path d="M-0.47 -0.54 C118.39 0.48, 236.68 0.63, 303.17 1.18 M303.03 0.77 C302.69 122.83, 301.39 244.85, 303.18 385.22 M302.65 385.19 C222.18 385.61, 145.74 387.26, -0.07 386.07 M-0.36 385.27 C0.31 257.39, -0.91 127.73, -0.58 -0.51" stroke="#45475a" stroke-width="2.5" fill="none" stroke-dasharray="8 10"></path></g><g transform="translate(1646 20) rotate(0 135 13)"><text x="0" y="NaN" font-family="Virgil, Segoe UI Emoji" font-size="18px" fill="#a6adc8" text-anchor="start" style="white-space: pre;" direction="ltr">Service Tier</text></g><g stroke-linecap="round" transform="translate(10 191.5) rotate(0 90 36.5)"><path d="M0.82 -0.45 L181.23 -0.62 L178.19 74.26 L-1.94 71.3" stroke="none" stroke-width="0" fill="#2d6a4f"></path><path d="M-0.78 1.14 C37.35 0.53, 77.29 0.25, 178.78 -1.38 M0.6 -0.8 C51.41 -0.78, 101.5 0.86, 179.2 -0.77 M181.44 0.78 C181.72 22.64, 180.83 41.7, 180.04 71.01 M179.78 -0.89 C179.86 27.7, 180.5 54.93, 180.66 73.44 M180.76 72.53 C111.61 70.33, 39.92 71.47, 1.9 73.83 M180.31 72.76 C128.71 71.5, 76.77 71.89, -0.66 72.33 M0.6 74.81 C0.94 50.55, -0.89 30.02, -0.34 1.01 M0.42 72.29 C-1.15 49.82, -0.36 28.21, 0.52 0.03" stroke="#40916c" stroke-width="2" fill="none"></path></g><g transform="translate(67 215.5) rotate(0 33 12.5)"><text x="33" y="NaN" font-family="Virgil, Segoe UI Emoji" font-size="20px" fill="#fff" text-anchor="middle" style="white-space: pre;" direction="ltr">Client</text></g><g stroke-linecap="round" transform="translate(430 191.5) rotate(0 107.5 36.5)"><path d="M1.26 -1.86 L216.39 0.55 L215.42 75 L-1.06 72.27" stroke="none" stroke-width="0" fill="#b45309"></path><path d="M-1.64 -0.35 C80.57 0.66, 160.01 -0.19, 214.41 -0.66 M0.28 0.06 C83.81 1.45, 167.47 1.22, 214.56 0.73 M215.26 0.89 C215.74 17.97, 216.6 36.87, 216.33 73.52 M214.23 0.15 C215.15 19.22, 214.63 38.74, 214.13 72.69 M213.77 71.64 C142.52 73.18, 73.58 73.68, 0.99 74.17 M214.58 72.43 C131.55 73.43, 48.48 73.99, -0.51 72.43 M0 74.49 C-0.85 53.24, 0.35 32.41, 0.8 0.35 M-0.83 72.09 C0.37 53.35, -0.08 34.36, -0.41 -0.6" stroke="#d97706" stroke-width="2" fill="none"></path></g><g transform="translate(466 215.5) rotate(0 71.5 12.5)"><text x="71.5" y="NaN" font-family="Virgil, Segoe UI Emoji" font-size="20px" fill="#fff" text-anchor="middle" style="white-space: pre;" direction="ltr">Load Balancer</text></g><g stroke-linecap="round" transform="translate(850 120) rotate(0 90 36.5)"><path d="M0.07 -0.27 L178.98 0.24 L180.54 73.42 L-1.28 71.8" stroke="none" stroke-width="0" fill="#b45309"></path><path d="M1.97 -0.55 C49.05 0.26, 95.76 0.74, 179.68 -0.9 M-0.2 -0.61 C49.85 1.61, 99.83 1.68, 180.77 0.21 M181.73 -1.59 C179.24 24.98, 180.25 52.28, 180.15 71.67 M180.73 0.8 C180.19 26.61, 178.98 53.13, 179.94 72.84 M179.19 73.41 C140.38 71.62, 103.22 73.67, -1.75 72.23 M180.05 73.89 C111.17 72.63, 42.87 73.81, -0.52 73.22 M0.8 72.99 C0.99 45.99, -2.02 17.63, 1.81 0.5 M0.45 73.07 C0.66 52.46, 1.15 33.19, -0.01 0.08" stroke="#d97706" stroke-width="2" fill="none"></path></g><g transform="translate(890.5 144) rotate(0 49.5 12.5)"><text x="49.5" y="NaN" font-family="Virgil, Segoe UI Emoji" font-size="20px" fill="#fff" text-anchor="middle" style="white-space: pre;" direction="ltr">Gateway 1</text></g><g stroke-linecap="round" transform="translate(850 263) rotate(0 90 36.5)"><path d="M0.16 0.69 L180.9 0.9 L178.37 74.64 L-1.9 73.59" stroke="none" stroke-width="0" fill="#b45309"></path><path d="M-1.21 0.17 C66.06 1.01, 133.54 0.37, 181.36 0.25 M-0.3 0.08 C67.65 1.1, 134.88 2.11, 179.23 0.7 M181.82 0.24 C178.44 21.78, 178.97 45.3, 179.61 72.16 M180.29 -0.39 C180.7 25.86, 179.79 51.16, 180.17 73.25 M181.32 72.78 C123.67 69.95, 71.39 70.83, 0.53 72.89 M180.66 73.97 C141.74 71.22, 102.88 71.62, -0.72 72.28 M0.58 72.89 C-1.91 57.36, 0.6 39.16, -1.69 1.39 M0.12 73.46 C-1.15 44.88, 0.2 14.68, 0.54 -0.94" stroke="#d97706" stroke-width="2" fill="none"></path></g><g transform="translate(890.5 287) rotate(0 49.5 12.5)"><text x="49.5" y="NaN" font-family="Virgil, Segoe UI Emoji" font-size="20px" fill="#fff" text-anchor="middle" style="white-space: pre;" direction="ltr">Gateway 2</text></g><g stroke-linecap="round" transform="translate(1270 191.5) rotate(0 107.5 36.5)"><path d="M0.26 1.21 L213.87 0.82 L215.89 71.95 L-0.87 73" stroke="none" stroke-width="0" fill="#b45309"></path><path d="M0.27 1.41 C72.25 -0.23, 146.68 -1.77, 214.33 -1.14 M-0.87 -0.56 C75.14 -0.03, 152.16 -0.19, 214.89 -0.83 M214.34 -0.74 C216.07 14.91, 216.35 33.23, 214.61 72.92 M215.41 0.4 C215.15 14.14, 214.48 28.88, 214.6 72.34 M215.22 73.34 C134.31 75.14, 56.65 75.09, -1.51 71.25 M214.33 73.3 C171.5 72.48, 129.19 71.18, -0.55 73.82 M1.03 73.18 C-2.07 54.09, -0.77 39.2, -1.1 1.4 M0.98 72.23 C-0.53 47.57, -0.84 21.71, -0.05 0.44" stroke="#d97706" stroke-width="2" fill="none"></path></g><g transform="translate(1306 215.5) rotate(0 71.5 12.5)"><text x="71.5" y="NaN" font-family="Virgil, Segoe UI Emoji" font-size="20px" fill="#fff" text-anchor="middle" style="white-space: pre;" direction="ltr">Load Balancer</text></g><g stroke-linecap="round" transform="translate(1690 120) rotate(0 91 36.5)"><path d="M1.75 -0.34 L183.52 1.95 L180.05 73.94 L-1.22 73.52" stroke="none" stroke-width="0" fill="#5b21b6"></path><path d="M-1.57 0.82 C61.46 -2.86, 123.76 0.23, 181.13 -1.28 M-0.19 -0.84 C72.56 1.92, 145.45 2.14, 181.96 0.75 M182.92 -1.48 C182.02 21.73, 182.46 43.68, 183.52 72.44 M181.19 0.11 C180.99 17.75, 181.67 36.53, 182.89 72.95 M181.26 72.58 C132.78 73.52, 86.63 72.26, 0.96 71.87 M182.92 73.11 C123.93 73.79, 65.92 73.52, -0.32 73.7 M1.43 71.49 C0.68 43.24, -1.95 16.88, 1 -0.72 M-0.95 73.26 C0.3 53.51, 0.1 34.58, -0.66 0.99" stroke="#7c3aed" stroke-width="2" fill="none"></path></g><g transform="translate(1726 144) rotate(0 55 12.5)"><text x="55" y="NaN" font-family="Virgil, Segoe UI Emoji" font-size="20px" fill="#fff" text-anchor="middle" style="white-space: pre;" direction="ltr">Instance 1</text></g><g stroke-linecap="round" transform="translate(1690 263) rotate(0 91 36.5)"><path d="M-1.32 -1.44 L180.61 1.55 L180.8 71.7 L-1.07 71.78" stroke="none" stroke-width="0" fill="#5b21b6"></path><path d="M-1.37 -1.27 C66.69 -2.43, 129.21 -2.02, 181.24 1.68 M0.03 0.57 C36.53 -2.48, 74.27 -2.43, 181.41 0.52 M180.69 -1.12 C180.6 16.09, 180.65 33.19, 183.03 74.74 M182.65 0.28 C182.53 17.35, 182.36 33.93, 182.09 72.54 M180.03 73.2 C129.08 70.01, 72.52 70.43, -0.5 71.37 M181.7 73.53 C145.71 73.4, 107.81 73.39, 0.58 73.45 M1.59 74.72 C-2.57 46.53, 0.59 17.8, -0.36 1.34 M-0.3 72.24 C-0.52 48.35, -0.96 21.78, 0.92 0.98" stroke="#7c3aed" stroke-width="2" fill="none"></path></g><g transform="translate(1726 287) rotate(0 55 12.5)"><text x="55" y="NaN" font-family="Virgil, Segoe UI Emoji" font-size="20px" fill="#fff" text-anchor="middle" style="white-space: pre;" direction="ltr">Instance 2</text></g><g stroke-linecap="round"><g transform="translate(190 228) rotate(0 120 0)"><path d="M-0.85 1.04 C39.16 0.84, 199.81 -0.76, 239.8 -0.77 M0.91 0.54 C40.77 0.45, 198.65 0.6, 238.74 0.36" stroke="#40916c" stroke-width="2" fill="none"></path></g><g transform="translate(190 228) rotate(0 120 0)"><path d="M212.3 10.34 C217.07 6.44, 227.73 6.76, 238.02 1.54 M209.88 9.76 C219.54 6.67, 230.32 3.9, 239.69 1.18" stroke="#40916c" stroke-width="2" fill="none"></path></g><g transform="translate(190 228) rotate(0 120 0)"><path d="M212.26 -10.18 C217.11 -8.38, 227.77 -2.36, 238.02 1.54 M209.84 -10.77 C219.36 -6.76, 230.16 -2.44, 239.69 1.18" stroke="#40916c" stroke-width="2" fill="none"></path></g></g><g stroke-linecap="round"><g transform="translate(645 228) rotate(0 102.5 -35.75)"><path d="M-0.88 -0.24 C32.97 -12.28, 169.59 -60.5, 204.01 -72.38 M0.85 -1.41 C35 -13.31, 172.14 -59.84, 206.2 -71.31" stroke="#40916c" stroke-width="2" fill="none"></path></g><g transform="translate(645 228) rotate(0 102.5 -35.75)"><path d="M182.38 -54.2 C190.1 -58.29, 200.31 -66.79, 206.33 -73.12 M183.26 -52.31 C192.23 -59.4, 200.45 -68.39, 206.2 -71.44" stroke="#40916c" stroke-width="2" fill="none"></path></g><g transform="translate(645 228) rotate(0 102.5 -35.75)"><path d="M175.81 -73.64 C185.95 -70.41, 198.63 -71.64, 206.33 -73.12 M176.68 -71.75 C188.42 -71.06, 199.27 -72.28, 206.2 -71.44" stroke="#40916c" stroke-width="2" fill="none"></path></g></g><g stroke-linecap="round"><g transform="translate(645 228) rotate(0 102.5 35.75)"><path d="M-0.65 -0.32 C33.39 11.41, 170.11 58.97, 204.58 70.89 M1.21 -1.54 C35.02 10.31, 169.28 59.79, 203.41 72.11" stroke="#40916c" stroke-width="2" fill="none"></path></g><g transform="translate(645 228) rotate(0 102.5 35.75)"><path d="M172.87 71.39 C182.31 74.2, 192.76 72.75, 204.91 70.69 M173.86 72.88 C183.43 72.45, 194.98 71.26, 203.21 73.07" stroke="#40916c" stroke-width="2" fill="none"></path></g><g transform="translate(645 228) rotate(0 102.5 35.75)"><path d="M179.91 52.11 C187.1 61.25, 195.23 66.17, 204.91 70.69 M180.89 53.6 C187.82 60.05, 196.88 65.68, 203.21 73.07" stroke="#40916c" stroke-width="2" fill="none"></path></g></g><g stroke-linecap="round"><g transform="translate(1030 156.5) rotate(0 120 35.75)"><path d="M0.65 -0.56 C40.79 11.27, 199.7 58.86, 239.66 70.98 M-0.47 1.76 C39.58 13.76, 198.47 60.85, 238.53 72.24" stroke="#3b82f6" stroke-width="2" fill="none"></path></g><g transform="translate(1030 156.5) rotate(0 120 35.75)"><path d="M207.67 73.64 C213.74 74.36, 221.64 74.15, 237.29 73.13 M209.54 73.65 C216.58 73.41, 226.56 73.08, 238.95 72.36" stroke="#3b82f6" stroke-width="2" fill="none"></path></g><g transform="translate(1030 156.5) rotate(0 120 35.75)"><path d="M213.4 53.94 C218.32 58.65, 225.07 62.39, 237.29 73.13 M215.28 53.95 C220.73 59.51, 229.03 64.98, 238.95 72.36" stroke="#3b82f6" stroke-width="2" fill="none"></path></g></g><g stroke-linecap="round"><g transform="translate(1030 299.5) rotate(0 120 -35.75)"><path d="M-0.27 0.71 C40.01 -11.05, 200.77 -59.2, 240.96 -71.43 M1.8 0.04 C42.05 -11.43, 200.71 -57.86, 240.52 -69.85" stroke="#3b82f6" stroke-width="2" fill="none"></path></g><g transform="translate(1030 299.5) rotate(0 120 -35.75)"><path d="M217.59 -50.4 C222.54 -54.78, 226.39 -60, 240.81 -71.21 M215.66 -51.53 C225.15 -58.3, 233.95 -63.93, 240.38 -69.86" stroke="#3b82f6" stroke-width="2" fill="none"></path></g><g transform="translate(1030 299.5) rotate(0 120 -35.75)"><path d="M211.76 -70.08 C217.98 -69.65, 223.26 -70.08, 240.81 -71.21 M209.83 -71.2 C221.21 -71.3, 232.01 -70.2, 240.38 -69.86" stroke="#3b82f6" stroke-width="2" fill="none"></path></g></g><g stroke-linecap="round"><g transform="translate(1485 228) rotate(0 102.5 -35.75)"><path d="M-0.47 0.76 C33.66 -10.81, 170.41 -58.61, 204.85 -70.57 M1.49 0.11 C35.44 -11.68, 169.73 -60.01, 203.82 -72.2" stroke="#3b82f6" stroke-width="2" fill="none"></path></g><g transform="translate(1485 228) rotate(0 102.5 -35.75)"><path d="M182.01 -53.28 C189.52 -56.85, 195.86 -64.22, 202.84 -72.09 M180.88 -53.17 C189.58 -60.3, 196.59 -65.44, 204.15 -71.37" stroke="#3b82f6" stroke-width="2" fill="none"></path></g><g transform="translate(1485 228) rotate(0 102.5 -35.75)"><path d="M175.08 -72.6 C184.51 -70.25, 192.97 -71.74, 202.84 -72.09 M173.95 -72.48 C184.85 -73.06, 194.22 -71.62, 204.15 -71.37" stroke="#3b82f6" stroke-width="2" fill="none"></path></g></g><g stroke-linecap="round"><g transform="translate(1485 228) rotate(0 102.5 35.75)"><path d="M0.38 -0.08 C34.72 11.83, 170.97 59.12, 204.94 71.14 M-0.88 -1.17 C33.4 10.94, 169.36 60.64, 203.96 72.49" stroke="#3b82f6" stroke-width="2" fill="none"></path></g><g transform="translate(1485 228) rotate(0 102.5 35.75)"><path d="M173.83 72.61 C179.62 71.26, 187.32 74.45, 204.95 71.78 M173.43 71.98 C186.06 72.67, 197.37 72.68, 203.88 71.94" stroke="#3b82f6" stroke-width="2" fill="none"></path></g><g transform="translate(1485 228) rotate(0 102.5 35.75)"><path d="M180.7 53.28 C185.01 55.98, 191.28 63.2, 204.95 71.78 M180.3 52.64 C190.18 61.03, 198.74 68.77, 203.88 71.94" stroke="#3b82f6" stroke-width="2" fill="none"></path></g></g></svg>