<svg version="1.1" xmlns="http://www.w3.org/2000/svg" viewBox="0 0 1570.4905613602605 549" width="1570.4905613602605" height="549">
  <!-- svg-source:excalidraw -->
  
  <defs>
    <style>
      @font-face {
        font-family: "Virgil";
        src: url("https://excalidraw.com/Virgil.woff2");
      }
      @font-face {
        font-family: "Cascadia";
        src: url("https://excalidraw.com/Cascadia.woff2");
      }
    </style>
  </defs>
  <rect x="0" y="0" width="1570.4905613602605" height="549" fill="#0d1117"></rect><g stroke-opacity="0.6" fill-opacity="0.6" stroke-linecap="round" transform="translate(260.38487162109175 153) rotate(0 417.05284486958436 121.5)"><path d="M0.32 0.13 L832.3 -1.05 L832.48 244.27 L-1.05 241.95" stroke="none" stroke-width="0" fill="#161b22"></path><path d="M-0.18 -0.17 C258.8 1.47, 516.41 1.05, 834.71 0.2 M833.87 1.32 C832.47 66, 832.6 128.1, 835.32 242.44 M834.37 243 C566.38 239.9, 300.2 239.45, 0.15 243.08 M0.14 242.99 C1.36 151.08, -0.8 60.77, -0.31 1" stroke="#30363d" stroke-width="2.5" fill="none" stroke-dasharray="8 10"></path></g><g transform="translate(295.21804482855543 179.8768122499497) rotate(0 60.074974060058594 11.25)"><text x="0" y="NaN" font-family="Virgil, Segoe UI Emoji" font-size="18px" fill="#8b949e" text-anchor="start" style="white-space: pre;" direction="ltr">API Gateway</text></g><g stroke-opacity="0.6" fill-opacity="0.6" stroke-linecap="round" transform="translate(1214.4905613602605 10) rotate(0 173 264.5)"><path d="M1 -1.28 L346.89 0.82 L344.58 527.49 L1.47 527.17" stroke="none" stroke-width="0" fill="#161b22"></path><path d="M-0.05 1.11 C81.6 0.96, 161.11 2.16, 346.71 -0.57 M345.78 -0.6 C346.95 194.15, 346.7 387.48, 346.63 529.41 M346.93 529.91 C235.29 531.82, 124.88 531.34, 1.16 529.27 M-0.41 528.59 C1.07 400.84, 1.54 273.4, 0.65 0.22" stroke="#30363d" stroke-width="2.5" fill="none" stroke-dasharray="8 10"></path></g><g transform="translate(1230.4905613602605 20) rotate(0 75.4649429321289 11.25)"><text x="0" y="NaN" font-family="Virgil, Segoe UI Emoji" font-size="18px" fill="#8b949e" text-anchor="start" style="white-space: pre;" direction="ltr">Backend Services</text></g><g stroke-linecap="round" transform="translate(10 259.08141326742134) rotate(0 90 36.5)"><path d="M0.07 -1.11 L181.41 0.16 L178.16 71.46 L1.99 74.48" stroke="none" stroke-width="0" fill="#1f4d2b"></path><path d="M-0.06 0.15 C65.55 0.89, 135.05 -0.62, 178.5 -0.75 M0.76 -0.91 C69.48 -0.98, 139.83 -1.36, 180.02 -0.4 M179.51 1.58 C179.4 29.4, 178.88 57.73, 179.41 72.73 M179.35 -0.76 C179.06 18.38, 180.84 35.76, 179.92 72.29 M180.69 74.19 C118.37 71.74, 60.35 73.67, 0.87 72.08 M179.57 73.29 C143.27 72.79, 106.36 71.35, 0.18 73.29 M-0.75 71.04 C1.08 58.44, -1.7 44.1, -1.85 -1.99 M-0.81 72.27 C1.29 46.07, -0.27 17.83, 0.01 0.64" stroke="#3fb950" stroke-width="2" fill="none"></path></g><g transform="translate(72.95002746582031 283.08141326742134) rotate(0 27.049972534179688 12.5)"><text x="27.049972534179688" y="NaN" font-family="Virgil, Segoe UI Emoji" font-size="20px" fill="#fff" text-anchor="middle" style="white-space: pre;" direction="ltr">Client</text></g><g stroke-linecap="round" transform="translate(314.80920734782785 260.9690847708946) rotate(0 90 36.5)"><path d="M1.71 -1.66 L181.58 1.15 L178.75 72.87 L0.07 73.22" stroke="none" stroke-width="0" fill="#5c3a10"></path><path d="M1.06 1.77 C51.24 -0.96, 107.45 -0.18, 180.5 1.22 M-0.87 -0.39 C55.31 0.75, 109.69 0.42, 180.74 0.79 M179.93 1.46 C177.61 17.83, 177.72 33.15, 178.64 74.89 M179.34 -0.69 C180.35 17.97, 179.58 36.69, 179.53 72.56 M180.11 73.71 C119.04 76.45, 55.54 75.25, 0.64 72.15 M179.09 73.89 C136.2 70.98, 91.72 71.46, -0.85 72.4 M-1.02 73.82 C-1.69 45.86, 0.18 16.05, 0.35 -1.02 M-0.09 73.83 C-0.39 53.42, -0.16 35.08, 0.51 0.58" stroke="#f0883e" stroke-width="2" fill="none"></path></g><g transform="translate(381.97922840495676 284.9690847708946) rotate(0 22.829978942871094 12.5)"><text x="22.829978942871094" y="NaN" font-family="Virgil, Segoe UI Emoji" font-size="20px" fill="#fff" text-anchor="middle" style="white-space: pre;" direction="ltr">Auth</text></g><g stroke-linecap="round" transform="translate(573.0186182379521 262.3894369486246) rotate(0 91 36.5)"><path d="M-1.63 1.79 L180.44 -0.83 L183.6 72.83 L-0.47 71.45" stroke="none" stroke-width="0" fill="#5c3a10"></path><path d="M1.36 -0.39 C61.85 0.26, 129.27 2.59, 183.13 -0.26 M-0.49 0.97 C42.02 0.65, 83.86 1.15, 182.97 -0.39 M181.17 -1.89 C183.2 29.31, 180.29 59.63, 183.21 72.21 M182.15 -0.92 C181 19.36, 181.42 37.44, 181.25 72.37 M180.86 72.77 C138.51 72.74, 90.75 72.56, -0.07 74.72 M181.18 73.01 C117.12 72.1, 52.41 71.32, 0.96 72.14 M1.56 74.11 C-1.89 46.05, -2.02 17.41, -0.51 -0.8 M-0.92 73.22 C-0.51 48.2, -0.58 22.21, 0.4 0.6" stroke="#f0883e" stroke-width="2" fill="none"></path></g><g transform="translate(612.0986582159794 286.3894369486246) rotate(0 51.919960021972656 12.5)"><text x="51.919960021972656" y="NaN" font-family="Virgil, Segoe UI Emoji" font-size="20px" fill="#fff" text-anchor="middle" style="white-space: pre;" direction="ltr">Rate Limit</text></g><g stroke-linecap="round" transform="translate(854.4905613602605 263) rotate(0 90 36.5)"><path d="M1.17 0.64 L179.78 0.38 L179.42 72.09 L0.28 72.42" stroke="none" stroke-width="0" fill="#5c3a10"></path><path d="M0.32 -1.22 C52.41 -1.37, 102.44 -0.84, 178.75 0.05 M0.28 0.97 C67.67 0.25, 134.03 -0.87, 179.33 0.25 M180.91 -0.05 C178.63 22.59, 180.25 45.8, 180.48 73.46 M179.76 -0.2 C180.77 25.39, 179.29 52.54, 180.4 72.56 M181.46 74.72 C140.46 72.23, 101.41 73.03, -0.41 72.19 M180.04 72.64 C130.82 71.55, 81.92 72.48, 0.76 73.43 M1.52 73.69 C-1.52 56.48, 1.1 42.84, 1.69 -0.75 M0.15 72.17 C-0.7 54.55, 0.23 36.86, 0.71 -0.8" stroke="#f0883e" stroke-width="2" fill="none"></path></g><g transform="translate(911.0705937088933 287) rotate(0 33.41996765136719 12.5)"><text x="33.41996765136719" y="NaN" font-family="Virgil, Segoe UI Emoji" font-size="20px" fill="#fff" text-anchor="middle" style="white-space: pre;" direction="ltr">Router</text></g><g stroke-linecap="round" transform="translate(1274.4905613602605 120) rotate(0 102 36.5)"><path d="M0.84 0.28 L204.52 -1.36 L202.24 72.61 L-1.97 72.03" stroke="none" stroke-width="0" fill="#3a1d6e"></path><path d="M0.31 1.33 C43.82 -0.4, 86.59 -0.43, 203.11 1.56 M-0.34 0.58 C58.07 0.7, 116.63 0.83, 204.61 0.06 M205.98 -1.11 C202.5 14.24, 205.53 31.56, 202.6 74.98 M203.79 0.86 C203.07 15.37, 203.97 32.26, 203.34 72.66 M202.56 74.76 C160.19 73.43, 120.75 73.28, 1.16 71.93 M203.9 73.38 C122.46 71.81, 40.7 71.01, -0.47 72.19 M-0.31 74.31 C0.04 46.7, 1.97 21.19, -0.65 0.3 M0.29 73.34 C-0.89 45.8, 0.15 19.88, -0.24 0.98" stroke="#a371f7" stroke-width="2" fill="none"></path></g><g transform="translate(1315.390616291901 144) rotate(0 61.099945068359375 12.5)"><text x="61.099945068359375" y="NaN" font-family="Virgil, Segoe UI Emoji" font-size="20px" fill="#fff" text-anchor="middle" style="white-space: pre;" direction="ltr">User Service</text></g><g stroke-linecap="round" transform="translate(1274.4905613602605 263) rotate(0 107.5 36.5)"><path d="M1.39 1.5 L215.87 -1.94 L215.44 72.15 L-1.78 72.44" stroke="none" stroke-width="0" fill="#3a1d6e"></path><path d="M0.55 -0.37 C59.73 -0.46, 118.02 -0.38, 215.47 -1.04 M0.62 0.1 C59.12 0.03, 118.79 -0.37, 215.85 -0.2 M215.04 -0.24 C216.05 23.49, 214.28 46.46, 215.26 73.11 M215.88 0.22 C214.61 29.19, 214.56 58.74, 214.44 73.21 M216 71.79 C158.13 70.54, 104.38 70.75, 1.43 74.25 M215.75 72.61 C163.26 73.91, 109.55 73.78, -0.3 73.01 M0.54 72.73 C2.2 54.06, -0.78 33.54, 1.17 1.96 M0.88 72.15 C0.92 51.08, 1.21 28.78, 0 -0.18" stroke="#a371f7" stroke-width="2" fill="none"></path></g><g transform="translate(1316.2106236161198 287) rotate(0 65.77993774414062 12.5)"><text x="65.77993774414062" y="NaN" font-family="Virgil, Segoe UI Emoji" font-size="20px" fill="#fff" text-anchor="middle" style="white-space: pre;" direction="ltr">Order Service</text></g><g stroke-linecap="round" transform="translate(1274.4905613602605 406) rotate(0 113 36.5)"><path d="M-0.96 1.54 L226.12 -1.9 L226.95 72.66 L0.06 74.15" stroke="none" stroke-width="0" fill="#3a1d6e"></path><path d="M1.42 0.01 C73.16 -1.67, 147.8 -1.13, 224.44 1.09 M0.29 -0.48 C46.04 -0.16, 92.36 -0.68, 226.75 0.84 M227.32 -1.41 C227.73 15.18, 225.56 32.71, 227.43 74.43 M225.12 -0.46 C227.57 28.66, 226.82 56.61, 225.24 72.41 M224.54 72.27 C155.41 75.28, 80.79 73.68, -1.27 71.63 M225.83 72.22 C144.87 73.32, 66.01 72.9, 0.54 72.24 M1.1 73.99 C-1.24 43.15, 2.01 17.01, -0.67 1.74 M-0.27 72.52 C-0.95 50.34, 0.14 27.06, -0.9 0.79" stroke="#a371f7" stroke-width="2" fill="none"></path></g><g transform="translate(1316.2506245316472 430) rotate(0 71.23993682861328 12.5)"><text x="71.23993682861328" y="NaN" font-family="Virgil, Segoe UI Emoji" font-size="20px" fill="#fff" text-anchor="middle" style="white-space: pre;" direction="ltr">Search Service</text></g><g stroke-linecap="round"><g transform="translate(196 296.1831260406537) rotate(0 56.404603673913925 0.3493115052080764)"><path d="M-1.03 1.16 C18.01 1.33, 94.45 1.72, 113.37 1.51 M0.62 0.72 C19.64 0.51, 94.22 -0.2, 112.71 -0.18" stroke="#3fb950" stroke-width="2" fill="none"></path></g><g transform="translate(196 296.1831260406537) rotate(0 56.404603673913925 0.3493115052080764)"><path d="M86.51 11.15 C92.22 7.6, 95.89 4.56, 112.33 -0.58 M84.68 10.55 C93.45 6.55, 101.78 4.71, 112.79 -0.86" stroke="#3fb950" stroke-width="2" fill="none"></path></g><g transform="translate(196 296.1831260406537) rotate(0 56.404603673913925 0.3493115052080764)"><path d="M86.4 -9.37 C92.23 -8.3, 95.92 -6.72, 112.33 -0.58 M84.57 -9.97 C93.23 -7.87, 101.59 -3.61, 112.79 -0.86" stroke="#3fb950" stroke-width="2" fill="none"></path></g></g><g stroke-linecap="round"><g transform="translate(500.80920734782785 298.00232299615845) rotate(0 33.10470544506211 0.1813989084376051)"><path d="M0.55 -0.89 C11.48 -0.64, 55.48 1.05, 66.41 1.26 M-0.61 1.26 C10.09 1.19, 54.58 -0.46, 65.57 -0.39" stroke="#3fb950" stroke-width="2" fill="none"></path></g><g transform="translate(500.80920734782785 298.00232299615845) rotate(0 33.10470544506211 0.1813989084376051)"><path d="M36.09 10.72 C49.51 6.11, 58.45 1.55, 65.46 -1.83 M37.88 9.67 C45.65 6.37, 54.63 4.5, 65.85 -0.89" stroke="#3fb950" stroke-width="2" fill="none"></path></g><g transform="translate(500.80920734782785 298.00232299615845) rotate(0 33.10470544506211 0.1813989084376051)"><path d="M35.71 -9.8 C49.24 -6.77, 58.32 -3.68, 65.46 -1.83 M37.5 -10.85 C45.38 -7.97, 54.47 -3.67, 65.85 -0.89" stroke="#3fb950" stroke-width="2" fill="none"></path></g></g><g stroke-linecap="round"><g transform="translate(761.0186182379521 299.10785805150897) rotate(0 43.7359715611542 0.09520947798153123)"><path d="M0.46 -0.68 C14.84 -0.72, 71.67 -0.18, 86.3 -0.09 M-0.76 1.58 C13.97 1.71, 73.62 1.4, 88.4 1.3" stroke="#3fb950" stroke-width="2" fill="none"></path></g><g transform="translate(761.0186182379521 299.10785805150897) rotate(0 43.7359715611542 0.09520947798153123)"><path d="M59.14 9.77 C68.32 9.77, 76.74 6.58, 87.13 0.17 M60.35 12.4 C69.68 8.56, 79.56 5.29, 88.57 0.74" stroke="#3fb950" stroke-width="2" fill="none"></path></g><g transform="translate(761.0186182379521 299.10785805150897) rotate(0 43.7359715611542 0.09520947798153123)"><path d="M59.03 -10.75 C68.27 -4.54, 76.73 -1.51, 87.13 0.17 M60.24 -8.12 C69.6 -5.03, 79.52 -1.38, 88.57 0.74" stroke="#3fb950" stroke-width="2" fill="none"></path></g></g><g stroke-linecap="round"><g transform="translate(1040.4905613602605 290.388384027447) rotate(0 114 -62.62207932088829)"><path d="M-0.19 0.5 C37.97 -20.6, 190.26 -105.45, 228.31 -126.34 M-1.74 -0.29 C36.33 -21.29, 189.33 -104.27, 227.52 -125.38" stroke="#58a6ff" stroke-width="2" fill="none"></path></g><g transform="translate(1040.4905613602605 290.388384027447) rotate(0 114 -62.62207932088829)"><path d="M208.54 -102.34 C210.78 -108.29, 218.25 -113.26, 227.08 -124.47 M208.55 -103.48 C214.83 -110.5, 222.12 -117.61, 226.52 -124.62" stroke="#58a6ff" stroke-width="2" fill="none"></path></g><g transform="translate(1040.4905613602605 290.388384027447) rotate(0 114 -62.62207932088829)"><path d="M198.69 -120.34 C203.43 -121.78, 213.35 -122.26, 227.08 -124.47 M198.7 -121.48 C208.24 -122.24, 218.96 -123.08, 226.52 -124.62" stroke="#58a6ff" stroke-width="2" fill="none"></path></g></g><g stroke-linecap="round"><g transform="translate(1040.4905613602605 299.5073) rotate(0 114 0)"><path d="M-0.24 -0.71 C37.52 -0.84, 188.97 -0.16, 227.02 -0.16 M-1.82 1.53 C36.27 1.54, 191.02 1.51, 229.22 1.29" stroke="#58a6ff" stroke-width="2" fill="none"></path></g><g transform="translate(1040.4905613602605 299.5073) rotate(0 114 0)"><path d="M199.87 9.99 C210.27 8.33, 218.92 3.16, 230.72 0.68 M201.99 10.77 C207.31 8.73, 212.16 7.67, 229.29 1.27" stroke="#58a6ff" stroke-width="2" fill="none"></path></g><g transform="translate(1040.4905613602605 299.5073) rotate(0 114 0)"><path d="M199.82 -10.53 C210.34 -5.24, 219.01 -3.46, 230.72 0.68 M201.94 -9.75 C207.42 -7.38, 212.28 -4.04, 229.29 1.27" stroke="#58a6ff" stroke-width="2" fill="none"></path></g></g><g stroke-linecap="round"><g transform="translate(1040.4905613602605 309.14772395983795) rotate(0 114 62.305078201061434)"><path d="M0.12 -0.46 C38.37 20.43, 190.68 104.93, 228.52 125.75 M-1.27 -1.75 C36.95 18.8, 189.36 102.98, 227.84 124.23" stroke="#58a6ff" stroke-width="2" fill="none"></path></g><g transform="translate(1040.4905613602605 309.14772395983795) rotate(0 114 62.305078201061434)"><path d="M197.43 120.45 C206.59 119.17, 210.9 121.59, 227.12 125.21 M197.82 120.44 C207.4 120.85, 217.28 123.33, 227.54 124.23" stroke="#58a6ff" stroke-width="2" fill="none"></path></g><g transform="translate(1040.4905613602605 309.14772395983795) rotate(0 114 62.305078201061434)"><path d="M207.35 102.49 C214.4 105.13, 216.55 111.47, 227.12 125.21 M207.74 102.47 C214.25 108.74, 220.93 117.04, 227.54 124.23" stroke="#58a6ff" stroke-width="2" fill="none"></path></g></g></svg>