<svg version="1.1" xmlns="http://www.w3.org/2000/svg" viewBox="0 0 860 357" width="860" height="357">
  <!-- svg-source:excalidraw -->
  
  <defs>
    <style>
      @font-face {
        font-family: "Virgil";
        src: url("https://excalidraw.com/Virgil.woff2");
      }
      @font-face {
        font-family: "Cascadia";
        src: url("https://excalidraw.com/Cascadia.woff2");
      }
    </style>
  </defs>
  <rect x="0" y="0" width="860" height="357" fill="#ffffff"></rect><g transform="translate(201.10772705078125 10) rotate(0 228.89227294921875 9.375)"><text x="228.89227294921875" y="NaN" font-family="Virgil, Segoe UI Emoji" font-size="15px" fill="#374151" text-anchor="middle" style="white-space: pre;" direction="ltr">Refresh Token Families — Normal Rotation vs. Replay Attack</text></g><g stroke-linecap="round"><g transform="translate(430 37) rotate(0 0 155)"><path d="M-0.03 0.66 C-0.04 52.45, 1.01 258.4, 1.09 309.9" stroke="#94a3b8" stroke-width="1.5" fill="none" stroke-dasharray="8 9"></path></g></g><g transform="translate(10 39) rotate(0 55.71995544433594 8.75)"><text x="0" y="NaN" font-family="Virgil, Segoe UI Emoji" font-size="14px" fill="#047857" text-anchor="start" style="white-space: pre;" direction="ltr">Normal Rotation</text></g><g stroke-linecap="round" transform="translate(10 68) rotate(0 200 32.5)"><path d="M-0.52 -0.09 L398.74 1.45 L398.03 65.03 L0.26 66.37" stroke="none" stroke-width="0" fill="#a7f3d0"></path><path d="M-0.68 -0.14 C158.84 -1.35, 317.63 -0.25, 400.55 1 M0.1 -0.28 C96.73 2.22, 193.87 2.6, 400.55 0.2 M401.84 1.63 C400.58 23.69, 401.7 50.17, 398.66 65.55 M399.27 0.18 C400.72 24.95, 399.4 48.97, 399.37 64.9 M399.35 65.62 C299.51 67.37, 198.45 67.35, -0.01 64.43 M400.34 64.79 C264.87 62.73, 130.15 63.39, 0.36 65.51 M1.47 66.7 C1.9 46.72, 1.61 30.5, 0.5 0.87 M0.64 65.21 C0.49 42.4, 0.29 17.25, 0.99 0.98" stroke="#047857" stroke-width="2" fill="none"></path></g><g transform="translate(95.57408905029297 84.25) rotate(0 114.42591094970703 16.25)"><text x="114.42591094970703" y="NaN" font-family="Virgil, Segoe UI Emoji" font-size="13px" fill="#374151" text-anchor="middle" style="white-space: pre;" direction="ltr">Client uses Token 1</text><text x="114.42591094970703" y="NaN" font-family="Virgil, Segoe UI Emoji" font-size="13px" fill="#374151" text-anchor="middle" style="white-space: pre;" direction="ltr">→ Token 2 issued, Token 1 revoked</text></g><g stroke-linecap="round"><g transform="translate(210.04000000000002 139) rotate(0 -1.4210854715202004e-14 22.25325000000001)"><path d="M0.95 0.31 C0.92 7.59, 1.02 36.16, 1.01 43.64 M-0.02 -0.57 C-0.22 6.84, 0.49 37.42, 0.59 44.72" stroke="#047857" stroke-width="2" fill="none"></path></g><g transform="translate(210.04000000000002 139) rotate(0 -1.4210854715202004e-14 22.25325000000001)"><path d="M-6.88 25.63 C-5.67 33.64, 0.12 42.06, -0.04 43.27 M-6.52 23.98 C-4.59 29.54, -2.52 34.99, 0.39 44.59" stroke="#047857" stroke-width="2" fill="none"></path></g><g transform="translate(210.04000000000002 139) rotate(0 -1.4210854715202004e-14 22.25325000000001)"><path d="M8.34 25.35 C3.48 33.59, 3.22 42.12, -0.04 43.27 M8.7 23.7 C6.29 29.32, 4.03 34.85, 0.39 44.59" stroke="#047857" stroke-width="2" fill="none"></path></g></g><g stroke-linecap="round" transform="translate(10 151) rotate(0 200 32.5)"><path d="M0.68 0.17 L399.87 0.88 L400.79 65.74 L1.03 64.97" stroke="none" stroke-width="0" fill="#a7f3d0"></path><path d="M-0.35 0.36 C159.44 0.39, 317.82 1.09, 400.33 0.54 M-0.43 -0.4 C122.53 1.23, 244.7 1.78, 400.13 -0.22 M400.45 -1.62 C401.62 15.79, 400.82 32.08, 400.84 64.94 M399.17 0.78 C400.41 25.7, 400.16 48.72, 399.59 64.95 M400.01 64.12 C279.06 65.84, 159.11 67.15, -0.29 64.88 M400.44 65.11 C294.19 65.66, 188.75 65.86, 0.26 65.02 M1.31 63.85 C-1.09 44.21, -2.57 21.18, 0.28 -0.75 M0.29 65.2 C-1.39 48.5, -0.07 31.68, -0.69 0.95" stroke="#047857" stroke-width="2" fill="none"></path></g><g transform="translate(92.90908813476562 167.25) rotate(0 117.09091186523438 16.25)"><text x="117.09091186523438" y="NaN" font-family="Virgil, Segoe UI Emoji" font-size="13px" fill="#374151" text-anchor="middle" style="white-space: pre;" direction="ltr">Client uses Token 2</text><text x="117.09091186523438" y="NaN" font-family="Virgil, Segoe UI Emoji" font-size="13px" fill="#374151" text-anchor="middle" style="white-space: pre;" direction="ltr">→ Token 3 issued, Token 2 revoked</text></g><g transform="translate(10 230) rotate(0 162.46783447265625 7.5)"><text x="0" y="NaN" font-family="Virgil, Segoe UI Emoji" font-size="12px" fill="#047857" text-anchor="start" style="white-space: pre;" direction="ltr">Each token is single-use. Old tokens cannot be reused.</text></g><g transform="translate(450 39) rotate(0 85.26692199707031 8.75)"><text x="0" y="NaN" font-family="Virgil, Segoe UI Emoji" font-size="14px" fill="#b91c1c" text-anchor="start" style="white-space: pre;" direction="ltr">Replay Attack Detected</text></g><g stroke-linecap="round" transform="translate(450 68) rotate(0 200 32.5)"><path d="M-1.72 1.86 L400.06 0.12 L401.81 66.67 L0.74 63.1" stroke="none" stroke-width="0" fill="#fecaca"></path><path d="M-0.67 0.28 C158.72 -1.08, 318.84 -2.4, 400.8 -0.84 M0.36 0.2 C156.56 2.56, 313.22 1.82, 399.94 0.36 M398.6 -0.62 C402.12 21.27, 400.08 42.61, 398.4 65.46 M400.36 -0.41 C400.2 16.04, 400.04 32.4, 399.21 64.36 M400.13 65.9 C254.05 65.3, 109.67 65.39, -0.66 63.96 M400.56 64.78 C252.53 67.3, 105.36 66.88, 0.12 65.11 M-1.57 66.73 C0.67 45.52, 0.26 28.76, -1.36 -1.57 M-0.84 65.2 C0.51 44.31, -0.15 24.92, -0.92 0.9" stroke="#b91c1c" stroke-width="2" fill="none"></path></g><g transform="translate(567.7620697021484 84.25) rotate(0 82.23793029785156 16.25)"><text x="82.23793029785156" y="NaN" font-family="Virgil, Segoe UI Emoji" font-size="13px" fill="#374151" text-anchor="middle" style="white-space: pre;" direction="ltr">Attacker replays Token 1</text><text x="82.23793029785156" y="NaN" font-family="Virgil, Segoe UI Emoji" font-size="13px" fill="#374151" text-anchor="middle" style="white-space: pre;" direction="ltr">(Token 1 already revoked)</text></g><g stroke-linecap="round"><g transform="translate(650.04 139) rotate(0 0 22.25325000000001)"><path d="M-0.95 0.31 C-1.31 7.73, -1.07 36.2, -0.94 43.49 M0.75 -0.57 C0.66 7.05, 1.58 36.88, 1.27 44.5" stroke="#b91c1c" stroke-width="2" fill="none"></path></g><g transform="translate(650.04 139) rotate(0 0 22.25325000000001)"><path d="M-5.8 22.01 C-5.16 31.6, -1.2 39.82, 1.09 43.8 M-6.98 24.47 C-3.64 28.85, -2.54 33.3, 2.01 44.64" stroke="#b91c1c" stroke-width="2" fill="none"></path></g><g transform="translate(650.04 139) rotate(0 0 22.25325000000001)"><path d="M9.42 22.02 C4 31.49, 1.9 39.71, 1.09 43.8 M8.24 24.48 C8.02 28.85, 5.55 33.29, 2.01 44.64" stroke="#b91c1c" stroke-width="2" fill="none"></path></g></g><g stroke-linecap="round" transform="translate(450 151) rotate(0 200 32.5)"><path d="M-0.52 -1.88 L401.19 -0.44 L400.57 63.38 L1.51 65.7" stroke="none" stroke-width="0" fill="#fecaca"></path><path d="M-0.35 0.79 C159.32 -1.62, 319.03 -1.05, 400.58 0.96 M-0.17 0.08 C102.36 1.58, 204.05 1, 399.52 -0.06 M401.21 0.14 C399.16 22.37, 399.2 46.52, 400.57 64.85 M400.25 0.19 C399.89 16.8, 400.8 34.15, 399.43 64.42 M400.78 64.41 C315.86 66.04, 232.6 65.2, -0.93 64.41 M399.53 65.1 C281.85 65.69, 162.83 65.94, 0.02 64.62 M-1.74 63.88 C-1.01 43.01, 1.38 19.45, -1.58 0.81 M0.82 65.19 C0.63 39.41, -0.51 13.35, -0.6 0.86" stroke="#b91c1c" stroke-width="2" fill="none"></path></g><g transform="translate(534.469123840332 167.25) rotate(0 115.53087615966797 16.25)"><text x="115.53087615966797" y="NaN" font-family="Virgil, Segoe UI Emoji" font-size="13px" fill="#374151" text-anchor="middle" style="white-space: pre;" direction="ltr">Auth Service detects revoked token</text><text x="115.53087615966797" y="NaN" font-family="Virgil, Segoe UI Emoji" font-size="13px" fill="#374151" text-anchor="middle" style="white-space: pre;" direction="ltr">Token 1 is a member of Family A</text></g><g stroke-linecap="round"><g transform="translate(650.0399999999998 222) rotate(0 5.684341886080802e-14 26.00399999999999)"><path d="M0.98 0.66 C0.71 9.32, -0.36 43.11, -0.41 51.62 M0.03 -0.04 C-0.53 8.83, -1.61 44.13, -1.57 52.95" stroke="#dc2626" stroke-width="2" fill="none"></path></g><g transform="translate(650.0399999999998 222) rotate(0 5.684341886080802e-14 26.00399999999999)"><path d="M-8.97 27.69 C-7.41 39.21, -3.81 48.21, -2.13 51.43 M-9.67 29.05 C-8.69 35.49, -5.89 42.67, -1.57 52.35" stroke="#dc2626" stroke-width="2" fill="none"></path></g><g transform="translate(650.0399999999998 222) rotate(0 5.684341886080802e-14 26.00399999999999)"><path d="M8.82 27.99 C3.3 39.53, -0.19 48.42, -2.13 51.43 M8.12 29.35 C3.79 35.74, 1.28 42.82, -1.57 52.35" stroke="#dc2626" stroke-width="2" fill="none"></path></g></g><g stroke-linecap="round" transform="translate(450 234) rotate(0 200 40)"><path d="M0.68 -1.61 L398.33 -1.01 L399.33 79.08 L-1.71 79.29" stroke="none" stroke-width="0" fill="#fee2e2"></path><path d="M-0.03 -0.97 C159.91 0.12, 319.22 0.3, 400.37 0.49 M0.42 -0.03 C128.17 0.59, 256 1.31, 400.24 -0.48 M399.82 0.89 C400.13 17.77, 398.24 35.02, 398.74 79.25 M400.14 0.79 C399.71 21.53, 399.69 41.85, 399.66 79.48 M399.17 80.18 C297.67 81.77, 193.26 80, 1.05 79.86 M399.62 80.43 C310.04 79.08, 221.42 78.88, -0.09 80.25 M-1.9 80.04 C-0.03 65.45, 1.17 49.05, -1.81 -0.81 M0.47 80.18 C-1.37 56.15, -0.99 34.04, -0.28 0.83" stroke="#dc2626" stroke-width="3" fill="none"></path></g><g transform="translate(536.2176208496094 249.625) rotate(0 113.78237915039062 24.375)"><text x="113.78237915039062" y="NaN" font-family="Virgil, Segoe UI Emoji" font-size="13px" fill="#b91c1c" text-anchor="middle" style="white-space: pre;" direction="ltr">ENTIRE FAMILY A REVOKED</text><text x="113.78237915039062" y="NaN" font-family="Virgil, Segoe UI Emoji" font-size="13px" fill="#b91c1c" text-anchor="middle" style="white-space: pre;" direction="ltr">All sessions terminated</text><text x="113.78237915039062" y="NaN" font-family="Virgil, Segoe UI Emoji" font-size="13px" fill="#b91c1c" text-anchor="middle" style="white-space: pre;" direction="ltr">User force-logged out + alert sent</text></g></svg>