<svg version="1.1" xmlns="http://www.w3.org/2000/svg" viewBox="0 0 1564.5454170318255 439.35289437616274" width="1564.5454170318255" height="439.35289437616274">
  <!-- svg-source:excalidraw -->
  
  <defs>
    <style>
      @font-face {
        font-family: "Virgil";
        src: url("https://excalidraw.com/Virgil.woff2");
      }
      @font-face {
        font-family: "Cascadia";
        src: url("https://excalidraw.com/Cascadia.woff2");
      }
    </style>
  </defs>
  <rect x="0" y="0" width="1564.5454170318255" height="439.35289437616274" fill="#0d1117"></rect><g stroke-linecap="round" transform="translate(10 184.5707116659267) rotate(0 90 36.5)"><path d="M0.03 -0.69 L179.7 0.96 L179.43 71.09 L-0.51 74.24" stroke="none" stroke-width="0" fill="#1f4d2b"></path><path d="M-0.42 -1.68 C39.5 -1.15, 76.79 -2.83, 180.74 -0.19 M0.92 -0.15 C68.89 -1.38, 136.22 -0.55, 180.79 -0.95 M181.13 1.46 C178.33 13.53, 179.56 27.3, 179.38 71.54 M179.52 -0.16 C179.38 18.53, 180.3 36.58, 180.54 72.66 M180.97 71.22 C133.25 71.59, 85.98 72.55, -0.59 74.85 M180.33 72.39 C118.61 74.03, 57.4 73.04, 0.81 73 M-0.69 72.96 C1.02 45.56, 0.7 19.67, -1.33 1.48 M-0.64 73.23 C0.14 56.42, -0.19 39.4, -0.24 0.6" stroke="#3fb950" stroke-width="2" fill="none"></path></g><g transform="translate(72.95002746582031 208.5707116659267) rotate(0 27.049972534179688 12.5)"><text x="27.049972534179688" y="NaN" font-family="Virgil, Segoe UI Emoji" font-size="20px" fill="#fff" text-anchor="middle" style="white-space: pre;" direction="ltr">Client</text></g><g stroke-linecap="round" transform="translate(366.83250778024205 160.231841770445) rotate(0 124 61.5)"><path d="M1.93 1.52 L246.37 0.26 L249.59 122.71 L0.62 124.36" stroke="none" stroke-width="0" fill="#5c3a10"></path><path d="M-0.66 1.22 C57.81 -1.72, 113.01 -2.73, 247.41 1.46 M-0.77 0.57 C50.49 2.29, 99.38 1.58, 248.28 0.32 M247.64 1.36 C247.3 24.69, 250.23 53, 249.29 124.78 M248.64 0.34 C249.29 24.54, 248.09 50.63, 247.35 122.42 M249.26 123.84 C168.43 122.77, 89.86 122.05, 0.18 121.83 M248.45 123.66 C190.08 124.19, 131.24 124.08, 0.18 123.22 M-0.95 122.21 C-0.29 77.97, 1.65 35.31, 0.18 -1.69 M0.68 123.64 C-1.01 89.5, -0.18 55.89, -0.4 -0.39" stroke="#f0883e" stroke-width="2" fill="none"></path></g><g transform="translate(405.96258132760533 184.231841770445) rotate(0 84.86992645263672 37.5)"><text x="84.86992645263672" y="NaN" font-family="Virgil, Segoe UI Emoji" font-size="20px" fill="#fff" text-anchor="middle" style="white-space: pre;" direction="ltr">API Gateway</text><text x="84.86992645263672" y="NaN" font-family="Virgil, Segoe UI Emoji" font-size="20px" fill="#fff" text-anchor="middle" style="white-space: pre;" direction="ltr">(Token validation</text><text x="84.86992645263672" y="NaN" font-family="Virgil, Segoe UI Emoji" font-size="20px" fill="#fff" text-anchor="middle" style="white-space: pre;" direction="ltr">Coarse auth)</text></g><g stroke-linecap="round" transform="translate(849.8783666045127 172.0707116659267) rotate(0 135.00000000000006 49)"><path d="M-0.83 0.63 L269.06 1.35 L269.45 98.5 L-0.42 99.39" stroke="none" stroke-width="0" fill="#3a1d6e"></path><path d="M0.11 -0.47 C89.23 -0.77, 175.34 -0.98, 271.18 1.39 M0.24 -0.7 C61.67 -1.08, 123.76 -0.21, 270.55 0.28 M269.86 1.76 C270.17 37.02, 270.38 73.16, 268.45 96.47 M270.05 0.89 C270.16 22.44, 269.26 45.14, 269.09 98.88 M269.35 99.4 C164.27 96.75, 58.36 99.15, 1.54 98.65 M269.51 98.55 C169.81 99.26, 70.82 99.73, -0.68 98.28 M-1.44 96.8 C-1.5 69.82, 0.37 37.15, -1.17 -0.45 M0.78 98.5 C1.84 77.47, 1.54 56.26, 0.93 0.74" stroke="#a371f7" stroke-width="2" fill="none"></path></g><g transform="translate(893.2284490019737 196.0707116659267) rotate(0 91.64991760253912 25)"><text x="91.64991760253906" y="NaN" font-family="Virgil, Segoe UI Emoji" font-size="20px" fill="#fff" text-anchor="middle" style="white-space: pre;" direction="ltr">Service A</text><text x="91.64991760253906" y="NaN" font-family="Virgil, Segoe UI Emoji" font-size="20px" fill="#fff" text-anchor="middle" style="white-space: pre;" direction="ltr">(Fine-grained auth)</text></g><g stroke-linecap="round" transform="translate(1284.5454170318255 331.35289437616274) rotate(0 135 49)"><path d="M0.23 -1.21 L270.27 0.39 L271.27 98.29 L-0.4 99.15" stroke="none" stroke-width="0" fill="#3a1d6e"></path><path d="M1.1 -0.23 C71.63 -1.17, 144.58 -2.22, 268.65 -0.96 M-0.12 0.18 C105.88 -1.01, 212.13 -1, 269.79 0.61 M268.2 0.45 C272.04 32.75, 271.28 61.45, 271.07 97.3 M270.07 0.19 C270.2 37.9, 271.3 74.49, 269.55 98.54 M270.79 98.67 C191.27 99.54, 110.9 100.41, -0.02 98.77 M270.57 98.76 C211.88 99.61, 152.76 100.51, -0.34 97.48 M1.58 96.05 C-1.39 69.19, -0.46 36.28, 1.29 1.19 M0.46 98.75 C-1.5 65.49, -1.23 30.67, 0.31 0.13" stroke="#a371f7" stroke-width="2" fill="none"></path></g><g transform="translate(1329.7054969878802 355.35289437616274) rotate(0 89.83992004394531 25)"><text x="89.83992004394531" y="NaN" font-family="Virgil, Segoe UI Emoji" font-size="20px" fill="#fff" text-anchor="middle" style="white-space: pre;" direction="ltr">Service B</text><text x="89.83992004394531" y="NaN" font-family="Virgil, Segoe UI Emoji" font-size="20px" fill="#fff" text-anchor="middle" style="white-space: pre;" direction="ltr">Fine-grained authz</text></g><g stroke-linecap="round" transform="translate(1325.3530134698522 10) rotate(0 107.5 49)"><path d="M-0.39 0.13 L214.96 0.8 L214.98 99.67 L0.34 99.48" stroke="none" stroke-width="0" fill="#0d2c5a"></path><path d="M-1.48 -0.34 C46.22 -2.47, 90.66 -0.31, 213.6 -0.65 M0.31 -0.56 C82.64 0.42, 167 -0.75, 214.27 0.1 M214.31 1.95 C213.18 22.67, 215.18 46.6, 214.83 96.16 M214.35 0.66 C215.59 34.6, 214.93 66.49, 215.42 98.72 M213.59 98.37 C144.28 97.82, 76.24 97.24, -0.37 96.92 M214.15 98.6 C142.99 98.34, 72.18 96.99, -0.41 98.6 M-1.14 96.5 C-0.52 67.1, -0.18 37.05, -1.46 1.08 M0.1 97.29 C0.56 63.51, -0.13 28, -0.86 -0.11" stroke="#58a6ff" stroke-width="2" fill="none"></path></g><g transform="translate(1338.953095867313 34) rotate(0 93.89991760253906 25)"><text x="93.89991760253906" y="NaN" font-family="Virgil, Segoe UI Emoji" font-size="20px" fill="#fff" text-anchor="middle" style="white-space: pre;" direction="ltr">Policy Engine</text><text x="93.89991760253906" y="NaN" font-family="Virgil, Segoe UI Emoji" font-size="20px" fill="#fff" text-anchor="middle" style="white-space: pre;" direction="ltr">(Open Policy Agent)</text></g><g stroke-linecap="round"><g transform="translate(195.99999999999997 221.24159935636396) rotate(0 82.41625389012104 0.14046680240438042)"><path d="M1.13 0.91 C28.68 0.67, 137.67 -0.68, 165.11 -0.82 M0.26 0.34 C27.7 0.15, 136.77 -0.02, 164.31 0.13" stroke="#3fb950" stroke-width="2" fill="none"></path></g><g transform="translate(195.99999999999997 221.24159935636396) rotate(0 82.41625389012104 0.14046680240438042)"><path d="M137.62 10.82 C142.09 8.75, 151.48 5.44, 164.38 -1.85 M135.46 10.59 C142.92 8.31, 149.12 6.57, 163.92 -0.09" stroke="#3fb950" stroke-width="2" fill="none"></path></g><g transform="translate(195.99999999999997 221.24159935636396) rotate(0 82.41625389012104 0.14046680240438042)"><path d="M137.65 -9.7 C142.22 -6.03, 151.6 -3.61, 164.38 -1.85 M135.49 -9.93 C143.07 -7.35, 149.27 -4.23, 163.92 -0.09" stroke="#3fb950" stroke-width="2" fill="none"></path></g></g><g transform="translate(258.7602632895351 210.13206615876834) rotate(0 19.655990600585938 11.25)"><text x="19.655990600585938" y="NaN" font-family="Virgil, Segoe UI Emoji" font-size="18px" fill="#c9d1d9" text-anchor="middle" style="white-space: pre;" direction="ltr">JWT</text></g><g stroke-linecap="round"><g transform="translate(620.832507780242 221.56955257002173) rotate(0 111.52292941213534 -0.14980318610721655)"><path d="M0.4 1.14 C37.48 1.2, 185.38 -0.21, 222.42 -0.51 M-0.84 0.7 C36.63 1.02, 187.72 0.96, 224.81 0.91" stroke="#58a6ff" stroke-width="2" fill="none"></path></g><g transform="translate(620.832507780242 221.56955257002173) rotate(0 111.52292941213534 -0.14980318610721655)"><path d="M198.53 10.15 C204.78 7.38, 212.9 6.52, 224.48 2.72 M196.03 11.65 C207.56 6.47, 217.36 4.45, 225.39 0.27" stroke="#58a6ff" stroke-width="2" fill="none"></path></g><g transform="translate(620.832507780242 221.56955257002173) rotate(0 111.52292941213534 -0.14980318610721655)"><path d="M198.52 -10.37 C204.62 -7, 212.75 -1.72, 224.48 2.72 M196.02 -8.87 C207.75 -6.57, 217.56 -1.1, 225.39 0.27" stroke="#58a6ff" stroke-width="2" fill="none"></path></g></g><g transform="translate(686.6692827597499 198.9197475569226) rotate(0 45.746971130371094 22.5)"><text x="45.746971130371094" y="NaN" font-family="Virgil, Segoe UI Emoji" font-size="18px" fill="#c9d1d9" text-anchor="middle" style="white-space: pre;" direction="ltr">Validated </text><text x="45.746971130371094" y="NaN" font-family="Virgil, Segoe UI Emoji" font-size="18px" fill="#c9d1d9" text-anchor="middle" style="white-space: pre;" direction="ltr">identity</text></g><g stroke-linecap="round"><g transform="translate(1125.576536461682 251.06600936787194) rotate(0 76.63543481087117 49.64510530811182)"><path d="M0.24 0.59 C25.77 17, 128.44 82.78, 153.95 99.21 M-1.1 -0.15 C24.27 16.39, 127.76 83.94, 153.36 100.7" stroke="#58a6ff" stroke-width="2" fill="none"></path></g><g transform="translate(1125.576536461682 251.06600936787194) rotate(0 76.63543481087117 49.64510530811182)"><path d="M125.13 95 C134.67 96.31, 145.23 98.65, 152.7 102.26 M124.73 94.02 C131.88 94.9, 137.1 97.92, 154.01 101.56" stroke="#58a6ff" stroke-width="2" fill="none"></path></g><g transform="translate(1125.576536461682 251.06600936787194) rotate(0 76.63543481087117 49.64510530811182)"><path d="M136.36 77.82 C141.92 85.4, 148.41 93.97, 152.7 102.26 M135.95 76.84 C140.6 81.76, 143.16 88.86, 154.01 101.56" stroke="#58a6ff" stroke-width="2" fill="none"></path></g></g><g transform="translate(1178.476790657876 289.46111470061675) rotate(0 23.795997619628906 11.25)"><text x="23.795997619628906" y="NaN" font-family="Virgil, Segoe UI Emoji" font-size="18px" fill="#c9d1d9" text-anchor="middle" style="white-space: pre;" direction="ltr">mTLS</text></g><g stroke-linecap="round"><g transform="translate(1125.8783666045128 198.13579782416576) rotate(0 96.73732343266965 -57.869752760802726)"><path d="M0.58 -0.67 C32.55 -19.73, 160.82 -95.86, 192.8 -115.02" stroke="#f0883e" stroke-width="2.5" fill="none" stroke-dasharray="8 10"></path></g><g transform="translate(1125.8783666045128 198.13579782416576) rotate(0 96.73732343266965 -57.869752760802726)"><path d="M172.71 -92.9 C182.44 -102.47, 188.66 -108.21, 191.67 -116.78" stroke="#f0883e" stroke-width="2.5" fill="none"></path></g><g transform="translate(1125.8783666045128 198.13579782416576) rotate(0 96.73732343266965 -57.869752760802726)"><path d="M162.21 -110.53 C175.86 -113.39, 186.11 -112.37, 191.67 -116.78" stroke="#f0883e" stroke-width="2.5" fill="none"></path></g></g><g transform="translate(1171.4393745510142 129.0160656164711) rotate(0 51.299964904785156 11.25)"><text x="51.299964904785156" y="NaN" font-family="Virgil, Segoe UI Emoji" font-size="18px" fill="#c9d1d9" text-anchor="middle" style="white-space: pre;" direction="ltr">Policy check</text></g><g stroke-linecap="round"><g transform="translate(1428.777104201663 325.35289437616274) rotate(0 -2.494456537411679 -105.67644718808135)"><path d="M0.58 -1.03 C-0.4 -36.46, -5 -176.76, -5.73 -211.94" stroke="#f0883e" stroke-width="2.5" fill="none" stroke-dasharray="8 10"></path></g><g transform="translate(1428.777104201663 325.35289437616274) rotate(0 -2.494456537411679 -105.67644718808135)"><path d="M3.59 -185.28 C0.74 -190.67, -3.02 -200.51, -5.79 -210.28" stroke="#f0883e" stroke-width="2.5" fill="none"></path></g><g transform="translate(1428.777104201663 325.35289437616274) rotate(0 -2.494456537411679 -105.67644718808135)"><path d="M-16.93 -184.72 C-13.4 -190.38, -10.78 -200.4, -5.79 -210.28" stroke="#f0883e" stroke-width="2.5" fill="none"></path></g></g><g transform="translate(1375.0456929681066 208.42644718808137) rotate(0 51.299964904785156 11.25)"><text x="51.299964904785156" y="NaN" font-family="Virgil, Segoe UI Emoji" font-size="18px" fill="#c9d1d9" text-anchor="middle" style="white-space: pre;" direction="ltr">Policy check</text></g></svg>