<svg version="1.1" xmlns="http://www.w3.org/2000/svg" viewBox="0 0 851.1934874395232 500.0703055708243" width="851.1934874395232" height="500.0703055708243">
  <!-- svg-source:excalidraw -->
  
  <defs>
    <style>
      @font-face {
        font-family: "Virgil";
        src: url("https://excalidraw.com/Virgil.woff2");
      }
      @font-face {
        font-family: "Cascadia";
        src: url("https://excalidraw.com/Cascadia.woff2");
      }
    </style>
  </defs>
  <rect x="0" y="0" width="851.1934874395232" height="500.0703055708243" fill="#0d1117"></rect><g stroke-linecap="round" transform="translate(10 10) rotate(0 90 32)"><path d="M0.27 1.68 L179.7 -0.83 L178.98 62.24 L0.13 62.67" stroke="none" stroke-width="0" fill="#1f4d2b"></path><path d="M-0.16 0.29 C51.77 -2.74, 107.86 -0.62, 179.79 1.3 M0.14 0.11 C59.52 1.26, 117.85 0.7, 180.25 0.5 M179 0.57 C180.71 18.98, 178.35 34.09, 181.64 62.09 M180.85 -0.95 C179.55 13.1, 179.04 26.2, 180.86 63.16 M181.23 65.37 C110.29 61.74, 39.33 61.49, 0.06 64.01 M180.13 63.34 C115.03 65.44, 50.7 66.09, -0.59 64.92 M0.83 62.24 C1.9 44.63, 0.49 23.85, -1.37 1.91 M-0.52 63.53 C-0.83 47.89, -0.34 30.77, -0.1 0.3" stroke="#3fb950" stroke-width="2" fill="none"></path></g><g transform="translate(60.060035705566406 29.5) rotate(0 39.939964294433594 12.5)"><text x="39.939964294433594" y="NaN" font-family="Virgil, Segoe UI Emoji" font-size="20px" fill="#ffffff" text-anchor="middle" style="white-space: pre;" direction="ltr">Request</text></g><g stroke-linecap="round" transform="translate(290 10) rotate(0 100 32)"><path d="M1.16 1.89 L199.21 1.47 L199.96 62.96 L-0.31 63.5" stroke="none" stroke-width="0" fill="#5c3a10"></path><path d="M0.42 -0.78 C68.99 -0.21, 136.33 -3.13, 199.86 0.59 M-0.46 0.09 C50.34 0.09, 98.6 -1.06, 200.45 0.59 M198.05 -1.76 C202.26 19.04, 199.26 37.14, 199.12 64.54 M199.62 0.31 C199.84 22.01, 200.64 45.49, 199.63 63.6 M201.12 63.07 C137.82 64.49, 74.06 64.93, 0.57 64.7 M199.88 64.01 C142.02 63.04, 85.24 63.05, 0.81 63.43 M-1.21 63.56 C0.7 51.65, -1.03 37.48, 0.63 1.1 M-0.95 63.76 C0.73 44.5, -0.23 23.85, -0.69 0.6" stroke="#f0883e" stroke-width="2" fill="none"></path></g><g transform="translate(323.75006103515625 17) rotate(0 66.24993896484375 25)"><text x="66.24993896484375" y="NaN" font-family="Virgil, Segoe UI Emoji" font-size="20px" fill="#ffffff" text-anchor="middle" style="white-space: pre;" direction="ltr">PEP</text><text x="66.24993896484375" y="NaN" font-family="Virgil, Segoe UI Emoji" font-size="20px" fill="#ffffff" text-anchor="middle" style="white-space: pre;" direction="ltr">(Enforcement)</text></g><g stroke-linecap="round" transform="translate(292.28876018848297 241.07030557082436) rotate(0 99.99999999999997 32)"><path d="M-1.94 -1.91 L198.73 -0.22 L200.93 63.69 L-0.74 64.34" stroke="none" stroke-width="0" fill="#3a1d6e"></path><path d="M0.99 1.78 C76.6 2.11, 153.2 1.57, 199.91 0.01 M0.75 0.08 C72.8 0.7, 146.1 0.7, 200.69 0.73 M201.09 -0.1 C198.53 19.1, 198.88 40.18, 200.6 62.99 M200.4 -0.43 C200.12 20.12, 200.23 41.18, 200.4 64.04 M201.14 64.51 C153.12 63.49, 104.21 64.61, 1.07 65.39 M199.64 64.63 C158 64.28, 116.01 63.7, 0.36 63.83 M0.74 64.89 C0.79 45.88, -1.28 25.52, -1.36 0.29 M0.62 63.99 C1.01 39.1, 0.59 14.92, 0.71 0.9" stroke="#a371f7" stroke-width="2" fill="none"></path></g><g transform="translate(346.44880962695953 248.07030557082436) rotate(0 45.83995056152344 25)"><text x="45.83995056152344" y="NaN" font-family="Virgil, Segoe UI Emoji" font-size="20px" fill="#ffffff" text-anchor="middle" style="white-space: pre;" direction="ltr">PDP</text><text x="45.83995056152344" y="NaN" font-family="Virgil, Segoe UI Emoji" font-size="20px" fill="#ffffff" text-anchor="middle" style="white-space: pre;" direction="ltr">(Decision)</text></g><g stroke-linecap="round" transform="translate(680.4882423058218 237.3948923365403) rotate(0 80.33157528045945 32)"><path d="M-1.04 -1.7 L158.9 -1.92 L162.57 64.42 L-1.18 65.17" stroke="none" stroke-width="0" fill="#0d2c5a"></path><path d="M1.74 0.83 C35 0.97, 71.83 -0.99, 160.62 -0.64 M0.17 0.07 C45.78 -0.29, 90.98 -1.02, 159.68 0.98 M160.79 1.57 C160.74 23.15, 160.45 43.23, 158.74 65.44 M159.84 0.83 C161.06 18.22, 160.49 34.87, 159.83 64.47 M161.94 62.17 C103.44 62.62, 43.46 64.62, 1.76 62.31 M160 63.37 C106.07 65.52, 52.2 64.24, -0.1 64.25 M-1.3 62.21 C0.88 40.11, -1.53 13.55, 0.64 -0.51 M0.19 64.22 C1.28 48.5, -0.59 33.6, 0.12 -0.8" stroke="#58a6ff" stroke-width="2" fill="none"></path></g><g transform="translate(701.6298838094258 244.3948923365403) rotate(0 59.18993377685547 25)"><text x="59.18993377685547" y="NaN" font-family="Virgil, Segoe UI Emoji" font-size="20px" fill="#ffffff" text-anchor="middle" style="white-space: pre;" direction="ltr">PIP</text><text x="59.18993377685547" y="NaN" font-family="Virgil, Segoe UI Emoji" font-size="20px" fill="#ffffff" text-anchor="middle" style="white-space: pre;" direction="ltr">(Attributes)</text></g><g stroke-linecap="round" transform="translate(292.28876018848297 426.0703055708243) rotate(0 99.99999999999997 32)"><path d="M-0.14 -1.5 L201.75 0.39 L198.89 65.15 L-1.62 66" stroke="none" stroke-width="0" fill="#1f4d2b"></path><path d="M-1.46 -0.29 C55.41 -0.43, 110.54 0.17, 200.01 -1.15 M-0.43 0.05 C41.31 0.13, 82.89 0.61, 199.35 -0.78 M199.17 -0.76 C200.34 23.21, 199.42 46.27, 199.55 63.89 M199.95 0.09 C198.68 14.33, 199.43 30.57, 199.93 64.91 M201.16 63.79 C143.73 65.1, 84.52 63.98, -1.51 63.17 M199.16 64.05 C148.14 64.94, 93.96 65.01, -0.54 64.62 M0.66 63.53 C-0.32 47.14, 0.94 27.18, -1.36 -1.32 M-0.24 64.45 C-0.44 45.1, 0.23 24.67, -0.47 -0.5" stroke="#3fb950" stroke-width="2" fill="none"></path></g><g transform="translate(317.0288343461978 433.0703055708243) rotate(0 75.25992584228513 25)"><text x="75.25992584228516" y="NaN" font-family="Virgil, Segoe UI Emoji" font-size="20px" fill="#ffffff" text-anchor="middle" style="white-space: pre;" direction="ltr">PAP</text><text x="75.25992584228516" y="NaN" font-family="Virgil, Segoe UI Emoji" font-size="20px" fill="#ffffff" text-anchor="middle" style="white-space: pre;" direction="ltr">(Administration)</text></g><g stroke-linecap="round" transform="translate(641.1934874395232 10.620401377338709) rotate(0 100 32)"><path d="M0.75 -1.29 L201.27 -1.31 L199.86 65.87 L1.95 62.83" stroke="none" stroke-width="0" fill="#1f4d2b"></path><path d="M-0.89 -1.33 C63.02 1.89, 127.41 1.27, 200.06 -1.73 M0.78 0.04 C65.57 -1.06, 130.39 -1.23, 199.58 -0.64 M198.22 0.9 C201.89 23.27, 200.32 49.32, 201.03 62.34 M200.73 -0.65 C198.97 25.24, 199.03 49.86, 200.7 63.35 M201.18 65.23 C159.03 64.11, 114.67 63.67, -1 63.86 M200.73 64.66 C122.32 62.58, 44.73 63.86, 0.8 63.22 M-1.38 64.85 C-0.23 41.37, 0.69 15.22, 0.65 1.87 M-0.68 64.68 C-0.16 39.71, -0.94 17.75, 0.93 -0.2" stroke="#3fb950" stroke-width="2" fill="none"></path></g><g transform="translate(680.1135237554412 30.12040137733871) rotate(0 61.07996368408203 12.5)"><text x="61.07996368408203" y="NaN" font-family="Virgil, Segoe UI Emoji" font-size="20px" fill="#ffffff" text-anchor="middle" style="white-space: pre;" direction="ltr">Allow / Deny</text></g><g stroke-linecap="round"><g transform="translate(196 42.006399999999985) rotate(0 44 0)"><path d="M-0.61 0.93 C14.25 0.99, 74.44 0.83, 89.15 0.55 M1.27 0.37 C16.07 0.06, 74.56 -1.25, 88.8 -1.28" stroke="#3fb950" stroke-width="2" fill="none"></path></g><g transform="translate(196 42.006399999999985) rotate(0 44 0)"><path d="M62.3 11.28 C70.05 5.74, 76.22 4.41, 89.08 -1.79 M61 9.36 C72.84 5.93, 83.66 0.58, 89.36 -1.36" stroke="#3fb950" stroke-width="2" fill="none"></path></g><g transform="translate(196 42.006399999999985) rotate(0 44 0)"><path d="M62.02 -9.23 C69.87 -8.64, 76.14 -3.83, 89.08 -1.79 M60.71 -11.16 C72.81 -6.38, 83.74 -3.53, 89.36 -1.36" stroke="#3fb950" stroke-width="2" fill="none"></path></g></g><g stroke-linecap="round"><g transform="translate(366.43214581921603 80.00000000000003) rotate(0 -14.00207444626946 77.53515278541214)"><path d="M-0.13 -0.44 C-4.81 12.12, -27.04 49.9, -28.1 75.98 C-29.16 102.06, -10.1 142.97, -6.49 156.02 M-1.65 -1.72 C-6.5 11.01, -28.26 51.62, -29.1 77.6 C-29.94 103.59, -10.01 141.28, -6.71 154.18" stroke="#f0883e" stroke-width="2" fill="none"></path></g><g transform="translate(366.43214581921603 80.00000000000003) rotate(0 -14.00207444626946 77.53515278541214)"><path d="M-26.9 131.18 C-19.96 139.93, -12.83 146.84, -8.02 154.45 M-25.22 131.86 C-21.57 137.12, -15.96 142.43, -7.31 153.61" stroke="#f0883e" stroke-width="2" fill="none"></path></g><g transform="translate(366.43214581921603 80.00000000000003) rotate(0 -14.00207444626946 77.53515278541214)"><path d="M-7.68 124.02 C-6.45 134.89, -5.07 143.94, -8.02 154.45 M-6 124.69 C-6.99 131.78, -6.04 138.82, -7.31 153.61" stroke="#f0883e" stroke-width="2" fill="none"></path></g></g><g stroke-opacity="0.8" fill-opacity="0.8" transform="translate(294.29201822794664 135.81375777962984) rotate(0 44.13597869873047 20)"><text x="0" y="NaN" font-family="Virgil, Segoe UI Emoji" font-size="16px" fill="#8b949e" text-anchor="start" style="white-space: pre;" direction="ltr">Evaluates </text><text x="0" y="NaN" font-family="Virgil, Segoe UI Emoji" font-size="16px" fill="#8b949e" text-anchor="start" style="white-space: pre;" direction="ltr">policies</text></g><g stroke-linecap="round"><g transform="translate(498.2887601884829 272.9595294810838) rotate(0 88.09974105866945 -1.7205305274014506)"><path d="M0.85 -0.79 C30.18 -1.29, 146.95 -3.53, 176.02 -4.04" stroke="#58a6ff" stroke-width="2.5" fill="none" stroke-dasharray="8 10"></path></g><g transform="translate(498.2887601884829 272.9595294810838) rotate(0 88.09974105866945 -1.7205305274014506)"><path d="M146.71 6.43 C155.48 1.71, 164.2 -1.02, 175.53 -2.2" stroke="#58a6ff" stroke-width="2.5" fill="none"></path></g><g transform="translate(498.2887601884829 272.9595294810838) rotate(0 88.09974105866945 -1.7205305274014506)"><path d="M146.33 -14.09 C155.05 -12.67, 163.88 -9.26, 175.53 -2.2" stroke="#58a6ff" stroke-width="2.5" fill="none"></path></g></g><g stroke-opacity="0.8" fill-opacity="0.8" transform="translate(509.1393793912191 232.26503788305007) rotate(0 36.23896026611328 17.5)"><text x="36.23896026611328" y="NaN" font-family="Virgil, Segoe UI Emoji" font-size="14px" fill="#8b949e" text-anchor="middle" style="white-space: pre;" direction="ltr">Fetches </text><text x="36.23896026611328" y="NaN" font-family="Virgil, Segoe UI Emoji" font-size="14px" fill="#8b949e" text-anchor="middle" style="white-space: pre;" direction="ltr">attributes</text></g><g stroke-linecap="round"><g transform="translate(392.3427729612614 420.0703055708243) rotate(0 0.8095285630673459 -54.49999999999994)"><path d="M-0.58 -1.13 C-0.35 -8.9, 1.36 -28.92, 1.36 -46.79 C1.36 -64.65, -0.35 -98, -0.58 -108.34" stroke="#8b949e" stroke-width="2.5" fill="none" stroke-dasharray="8 10"></path></g><g transform="translate(392.3427729612614 420.0703055708243) rotate(0 0.8095285630673459 -54.49999999999994)"><path d="M8.81 -80.98 C9.08 -89.86, 5.09 -97.25, -0.24 -108.92" stroke="#8b949e" stroke-width="2.5" fill="none"></path></g><g transform="translate(392.3427729612614 420.0703055708243) rotate(0 0.8095285630673459 -54.49999999999994)"><path d="M-11.7 -80.25 C-5.3 -89.24, -3.15 -96.86, -0.24 -108.92" stroke="#8b949e" stroke-width="2.5" fill="none"></path></g></g><g stroke-opacity="0.8" fill-opacity="0.8" transform="translate(360 284.5) rotate(0 28.063980102539062 10)"><text x="0" y="NaN" font-family="Virgil, Segoe UI Emoji" font-size="16px" fill="#8b949e" text-anchor="start" style="white-space: pre;" direction="ltr">Policies</text></g><g stroke-linecap="round"><g transform="translate(403.82190610251007 235.07030557082436) rotate(0 17.432402301543448 -77.53515278541217)"><path d="M0.39 0.93 C6.36 -11.98, 36.14 -50.7, 35.82 -76.82 C35.51 -102.93, 4.59 -142.83, -1.49 -155.75 M-0.86 0.37 C4.92 -12.98, 34.93 -52.94, 34.69 -78.8 C34.44 -104.66, 3.44 -141.83, -2.35 -154.79" stroke="#3fb950" stroke-width="2" fill="none"></path></g><g transform="translate(403.82190610251007 235.07030557082436) rotate(0 17.432402301543448 -77.53515278541217)"><path d="M22.63 -136.66 C14.41 -141.89, 5.82 -146.14, -1.19 -153.81 M20.24 -136.37 C13.28 -141.65, 6.94 -148.31, -1.92 -154.33" stroke="#3fb950" stroke-width="2" fill="none"></path></g><g transform="translate(403.82190610251007 235.07030557082436) rotate(0 17.432402301543448 -77.53515278541217)"><path d="M5.11 -125.98 C2.07 -134.46, -1.27 -141.91, -1.19 -153.81 M2.72 -125.69 C1.05 -134.09, -0.06 -143.94, -1.92 -154.33" stroke="#3fb950" stroke-width="2" fill="none"></path></g></g><g stroke-opacity="0.8" fill-opacity="0.8" transform="translate(360 114.5) rotate(0 30.647987365722656 10)"><text x="0" y="NaN" font-family="Virgil, Segoe UI Emoji" font-size="16px" fill="#8b949e" text-anchor="start" style="white-space: pre;" direction="ltr">Decision</text></g><g stroke-linecap="round"><g transform="translate(496 42.03102016272706) rotate(0 69.5967437197616 0.28558052594229366)"><path d="M-1.04 0.59 C22.09 0.76, 115.34 0.01, 138.75 0.07 M0.62 -0.15 C23.55 0.26, 114.55 1.52, 137.57 1.34" stroke="#3fb950" stroke-width="2" fill="none"></path></g><g transform="translate(496 42.03102016272706) rotate(0 69.5967437197616 0.28558052594229366)"><path d="M110.31 10.73 C117.02 9.03, 126.93 3.78, 139.56 -0.11 M109.89 12.22 C120.98 7.11, 131.07 3.88, 137.69 0.82" stroke="#3fb950" stroke-width="2" fill="none"></path></g><g transform="translate(496 42.03102016272706) rotate(0 69.5967437197616 0.28558052594229366)"><path d="M110.41 -9.79 C116.93 -5.35, 126.81 -4.46, 139.56 -0.11 M109.99 -8.3 C121.15 -5.53, 131.21 -0.88, 137.69 0.82" stroke="#3fb950" stroke-width="2" fill="none"></path></g></g></svg>