<svg version="1.1" xmlns="http://www.w3.org/2000/svg" viewBox="0 0 1275.7492405572907 688.9308308799646" width="1275.7492405572907" height="688.9308308799646">
  <!-- svg-source:excalidraw -->
  
  <defs>
    <style>
      @font-face {
        font-family: "Virgil";
        src: url("https://excalidraw.com/Virgil.woff2");
      }
      @font-face {
        font-family: "Cascadia";
        src: url("https://excalidraw.com/Cascadia.woff2");
      }
    </style>
  </defs>
  <rect x="0" y="0" width="1275.7492405572907" height="688.9308308799646" fill="#1e1e2e"></rect><g stroke-linecap="round" transform="translate(52.00149211403516 54.515582822336725) rotate(0 90 36.5)"><path d="M1.43 0.03 L179.79 -0.32 L180.11 72.61 L0.75 72.08" stroke="none" stroke-width="0" fill="#2d6a4f"></path><path d="M-0.09 0.17 C61.14 0.59, 119.64 2.82, 180.07 0.9 M-0.39 -0.79 C36.07 1.47, 73.46 0.55, 180.94 0.88 M178.5 -0.32 C179.67 16.69, 179.29 36.03, 180.91 73.68 M180.81 -0.02 C179.03 29.69, 179.18 57.75, 180.34 73.95 M180.89 74.11 C132.59 74.38, 82.59 71.67, 1.21 71.2 M179.89 73.45 C121.81 73.2, 65.9 73.12, 0.17 72.17 M-0.37 74.93 C-0.74 48.2, -1.28 25.83, -1.88 -1.73 M-0.87 73.83 C-0.36 54.93, -0.04 37.56, 0.77 0.8" stroke="#40916c" stroke-width="2" fill="none"></path></g><g transform="translate(103.00153789040235 78.51558282233673) rotate(0 38.99995422363281 12.5)"><text x="38.99995422363281" y="NaN" font-family="Virgil, Segoe UI Emoji" font-size="20px" fill="#fff" text-anchor="middle" style="white-space: pre;" direction="ltr">user:bob</text></g><g stroke-linecap="round" transform="translate(31.205858802400883 232.3115068368952) rotate(0 113 36.5)"><path d="M-1.28 0.16 L224.81 0.19 L225.09 72.03 L0.33 72.05" stroke="none" stroke-width="0" fill="#b45309"></path><path d="M-0.43 -1.22 C68.59 -3.49, 137.47 -1.79, 224.39 -1.51 M-0.43 -0.67 C49.19 -0.49, 99.07 -0.31, 225.21 0.65 M227.08 -0.72 C226.18 23.35, 226.5 45.4, 224.22 74.9 M226.11 0.83 C227.1 15.73, 225.62 31.85, 225.23 72.06 M224.68 72.68 C176.46 75.5, 124.1 75.09, 1.12 74.02 M225.31 73.16 C149.04 72.75, 71.15 72.42, 0.59 72.32 M-1.65 74.3 C0.16 55.28, -0.84 37.29, 1.42 0.03 M0.37 73.41 C-0.21 57.14, 0.93 40.91, 0.97 -0.07" stroke="#d97706" stroke-width="2" fill="none"></path></g><g transform="translate(72.94593296011573 256.3115068368952) rotate(0 71.25992584228516 12.5)"><text x="71.25992584228516" y="NaN" font-family="Virgil, Segoe UI Emoji" font-size="20px" fill="#fff" text-anchor="middle" style="white-space: pre;" direction="ltr">group:eng-team</text></g><g stroke-linecap="round" transform="translate(10 413.58521729358506) rotate(0 135 36.5)"><path d="M-1.43 0.68 L271.38 1.92 L270.04 71.25 L-1.93 72.54" stroke="none" stroke-width="0" fill="#1e40af"></path><path d="M0.58 -0.88 C87.23 0.03, 177.62 -1.73, 271.23 -0.59 M-0.72 -0.15 C80.09 0.94, 158.71 0.4, 270.41 0.08 M268.45 1.72 C269.63 28.4, 268.23 53.33, 269.86 73.44 M269.56 0.3 C270.31 23.88, 270.06 48.24, 269.32 72.36 M269.45 73.06 C209.31 72.3, 148.19 73.1, -0.08 71.7 M270.06 73.33 C192.75 73.42, 116.16 73.8, -0.65 73.05 M1.97 73.04 C1.71 49.46, 1.11 27.52, 1.96 -0.44 M0.68 72.72 C0.2 50.97, -0.86 26.7, 0.02 -0.22" stroke="#3b82f6" stroke-width="2" fill="none"></path></g><g transform="translate(64.97008514404297 437.58521729358506) rotate(0 80.02991485595703 12.5)"><text x="80.02991485595703" y="NaN" font-family="Virgil, Segoe UI Emoji" font-size="20px" fill="#fff" text-anchor="middle" style="white-space: pre;" direction="ltr">folder:engineering</text></g><g stroke-linecap="round" transform="translate(57.393340312903774 605.9308308799646) rotate(0 91 36.5)"><path d="M0.01 0 L183.24 -0.96 L180.19 74.36 L-1.67 73.76" stroke="none" stroke-width="0" fill="#5b21b6"></path><path d="M-1.93 -0.29 C66.28 0.46, 130.35 1.36, 183.67 -0.34 M-0.48 -0.91 C41.7 1.78, 82.86 1.83, 182.54 0.04 M181.31 -0.74 C181.33 18.53, 180.79 38.29, 183.79 74.61 M182.75 0.56 C181.4 28.12, 181.41 56.24, 182.24 73.01 M183.09 72.83 C144.51 73.75, 101.33 73.71, 1.47 71.1 M182.82 73.08 C124.69 73.55, 66.85 73.73, 0.59 72.03 M-0.69 74.34 C0.59 47.76, -0.14 23.83, -1.21 0.27 M-0.48 73.99 C-0.42 53.45, -1.12 34.96, 0.45 0.97" stroke="#7c3aed" stroke-width="2" fill="none"></path></g><g transform="translate(95.79338761514987 629.9308308799646) rotate(0 52.599952697753906 12.5)"><text x="52.599952697753906" y="NaN" font-family="Virgil, Segoe UI Emoji" font-size="20px" fill="#fff" text-anchor="middle" style="white-space: pre;" direction="ltr">doc:readme</text></g><g stroke-linecap="round"><g transform="translate(142.54742861943578 133.5155828223367) rotate(0 0.5764561423452292 46.39796200727923)"><path d="M0.46 -0.7 C0.34 15.05, -0.02 78.05, 0.12 93.76 M-0.76 1.55 C-0.59 17.04, 2.05 77.13, 2.29 92.14" stroke="#40916c" stroke-width="2" fill="none"></path></g><g transform="translate(142.54742861943578 133.5155828223367) rotate(0 0.5764561423452292 46.39796200727923)"><path d="M-10.02 62.57 C-3.29 74.85, 0.51 84.75, 1.5 90.37 M-8.7 63.86 C-5.45 72.83, -0.65 82.32, 3.27 92.04" stroke="#40916c" stroke-width="2" fill="none"></path></g><g transform="translate(142.54742861943578 133.5155828223367) rotate(0 0.5764561423452292 46.39796200727923)"><path d="M10.49 61.92 C9.63 74.52, 5.85 84.66, 1.5 90.37 M11.81 63.22 C8.51 72.21, 6.76 81.91, 3.27 92.04" stroke="#40916c" stroke-width="2" fill="none"></path></g></g><g transform="translate(322.5462757745759 10) rotate(0 29.681983947753906 11.25)"><text x="29.681983947753906" y="NaN" font-family="Virgil, Segoe UI Emoji" font-size="18px" fill="#cdd6f4" text-anchor="middle" style="white-space: pre;" direction="ltr">member</text></g><g stroke-linecap="round"><g transform="translate(144.41564629617332 311.31150683689515) rotate(0 0.21205094729873508 48.13685522834493)"><path d="M-0.75 -1.07 C-0.53 14.87, 0.64 78.86, 0.66 95.22 M1.06 0.98 C1.2 17.07, -0.27 80.51, -0.17 96.2" stroke="#3b82f6" stroke-width="2" fill="none"></path></g><g transform="translate(144.41564629617332 311.31150683689515) rotate(0 0.21205094729873508 48.13685522834493)"><path d="M-11.93 68.3 C-9.55 73.12, -4 81.82, 0.44 97.01 M-10.99 67.05 C-6.1 76.1, -3.14 85.11, -1.12 97.17" stroke="#3b82f6" stroke-width="2" fill="none"></path></g><g transform="translate(144.41564629617332 311.31150683689515) rotate(0 0.21205094729873508 48.13685522834493)"><path d="M8.59 68.5 C5.94 73.15, 6.46 81.79, 0.44 97.01 M9.53 67.26 C8.17 76.11, 4.9 85.07, -1.12 97.17" stroke="#3b82f6" stroke-width="2" fill="none"></path></g></g><g transform="translate(769.3532902399079 10) rotate(0 25.874969482421875 11.25)"><text x="25.874969482421875" y="NaN" font-family="Virgil, Segoe UI Emoji" font-size="18px" fill="#cdd6f4" text-anchor="middle" style="white-space: pre;" direction="ltr">viewer</text></g><g stroke-linecap="round"><g transform="translate(145.77470749107584 492.58521729358495) rotate(0 0.9444342135552191 53.67280679318981)"><path d="M-0.32 0.3 C-0.37 18.17, 0.37 88.57, 0.87 106.25 M1.71 -0.59 C1.92 17.48, 2.94 89.24, 3.04 107.21" stroke="#d97706" stroke-width="2" fill="none"></path></g><g transform="translate(145.77470749107584 492.58521729358495) rotate(0 0.9444342135552191 53.67280679318981)"><path d="M-7.01 77.43 C-5.39 91.58, -0.94 101.51, 4.26 109.16 M-6.71 78.44 C-3.9 87.75, -0.03 98.35, 2.19 106.44" stroke="#d97706" stroke-width="2" fill="none"></path></g><g transform="translate(145.77470749107584 492.58521729358495) rotate(0 0.9444342135552191 53.67280679318981)"><path d="M13.51 77.21 C7 91.39, 3.32 101.41, 4.26 109.16 M13.81 78.22 C9.93 87.78, 7.11 98.44, 2.19 106.44" stroke="#d97706" stroke-width="2" fill="none"></path></g></g><g transform="translate(1208.7072788873688 10) rotate(0 28.520980834960938 11.25)"><text x="28.520980834960938" y="NaN" font-family="Virgil, Segoe UI Emoji" font-size="18px" fill="#cdd6f4" text-anchor="middle" style="white-space: pre;" direction="ltr">parent</text></g></svg>