<svg version="1.1" xmlns="http://www.w3.org/2000/svg" viewBox="0 0 880.1399825075632 318" width="880.1399825075632" height="318">
  <!-- svg-source:excalidraw -->
  
  <defs>
    <style>
      @font-face {
        font-family: "Virgil";
        src: url("https://excalidraw.com/Virgil.woff2");
      }
      @font-face {
        font-family: "Cascadia";
        src: url("https://excalidraw.com/Cascadia.woff2");
      }
    </style>
  </defs>
  <rect x="0" y="0" width="880.1399825075632" height="318" fill="#ffffff"></rect><g transform="translate(119.33920125756322 10) rotate(0 268.94232177734375 9.375)"><text x="268.94232177734375" y="NaN" font-family="Segoe UI Emoji" font-size="15px" fill="#374151" text-anchor="middle" style="white-space: pre;" direction="ltr">JWT  =  base64url(header)  .  base64url(payload)  .  base64url(signature)</text></g><g stroke-linecap="round" transform="translate(10.139982507563218 38) rotate(0 110 85)"><path d="M1.81 -1.04 L221.98 0.27 L221.09 171.39 L-1.39 169.47" stroke="none" stroke-width="0" fill="#fef3c7"></path><path d="M0.58 -0.14 C56.92 -2.31, 113.55 -1.84, 219.94 1.46 M-0.74 0.54 C50.47 0.8, 101.16 1.68, 219.23 -0.6 M221.23 -1.73 C220.25 44.16, 219.6 91.21, 221.25 170.38 M219.06 0.07 C221.67 66.17, 220.58 130.91, 220.35 170.03 M221.63 170.99 C145.76 170.12, 70.96 170.65, 1.4 168.52 M220.02 169.82 C168.53 171.05, 118.99 170.91, 0.36 170.68 M0.45 168.46 C-0.04 131.14, 0.19 93.05, 0.19 -1.79 M0.75 169.02 C-0.41 116.62, 0.17 60.55, -0.39 0.42" stroke="#b45309" stroke-width="2" fill="none"></path></g><g transform="translate(15.139982507563218 82.375) rotate(0 60.9375 40.625)"><text x="0" y="NaN" font-family="Segoe UI Emoji" font-size="13px" fill="#374151" text-anchor="start" style="white-space: pre;" direction="ltr">HEADER</text><text x="0" y="NaN" font-family="Segoe UI Emoji" font-size="13px" fill="#374151" text-anchor="start" style="white-space: pre;" direction="ltr"></text><text x="0" y="NaN" font-family="Segoe UI Emoji" font-size="13px" fill="#374151" text-anchor="start" style="white-space: pre;" direction="ltr">alg: RS256</text><text x="0" y="NaN" font-family="Segoe UI Emoji" font-size="13px" fill="#374151" text-anchor="start" style="white-space: pre;" direction="ltr">typ: JWT</text><text x="0" y="NaN" font-family="Segoe UI Emoji" font-size="13px" fill="#374151" text-anchor="start" style="white-space: pre;" direction="ltr">kid: key-q1-2024</text></g><g transform="translate(237.93685750756322 110) rotate(0 3.83599853515625 17.5)"><text x="3.83599853515625" y="NaN" font-family="Segoe UI Emoji" font-size="28px" fill="#374151" text-anchor="middle" style="white-space: pre;" direction="ltr">.</text></g><g stroke-linecap="round" transform="translate(262.0313831896175 33.525936616232286) rotate(0 152.5 86.5)"><path d="M1.09 1.39 L303.61 -0.53 L306.29 171.07 L-1.69 171.93" stroke="none" stroke-width="0" fill="#93c5fd"></path><path d="M-0.8 -0.69 C88.92 2.89, 176.92 0.24, 304.24 -1.24 M0.5 0.56 C109.79 0.02, 220.65 0.98, 305.68 0.45 M303.53 -0.77 C305.55 37.29, 306.02 74.82, 303.5 171.12 M304.73 -0.41 C306.77 53.11, 306.85 105.36, 305.52 173.94 M306.38 172.72 C197.25 170.66, 86.15 173.29, 0.85 173.04 M305.29 172.82 C220.1 173.39, 134.05 172.16, -0.44 173.16 M-1.36 172.45 C1.57 132.65, 1.76 95.5, -1.42 1.5 M-0.14 172.03 C0.85 138.49, 2.15 102.63, 0.99 0.14" stroke="#1e3a5f" stroke-width="2" fill="none"></path></g><g transform="translate(267.0313831896175 71.27593661623229) rotate(0 55.86743927001953 48.75)"><text x="0" y="NaN" font-family="Segoe UI Emoji" font-size="13px" fill="#374151" text-anchor="start" style="white-space: pre;" direction="ltr">PAYLOAD</text><text x="0" y="NaN" font-family="Segoe UI Emoji" font-size="13px" fill="#374151" text-anchor="start" style="white-space: pre;" direction="ltr"></text><text x="0" y="NaN" font-family="Segoe UI Emoji" font-size="13px" fill="#374151" text-anchor="start" style="white-space: pre;" direction="ltr">sub: "usr_abc123"</text><text x="0" y="NaN" font-family="Segoe UI Emoji" font-size="13px" fill="#374151" text-anchor="start" style="white-space: pre;" direction="ltr">roles: ["editor"]</text><text x="0" y="NaN" font-family="Segoe UI Emoji" font-size="13px" fill="#374151" text-anchor="start" style="white-space: pre;" direction="ltr">exp: 1700000900</text><text x="0" y="NaN" font-family="Segoe UI Emoji" font-size="13px" fill="#374151" text-anchor="start" style="white-space: pre;" direction="ltr">jti: "jti_xyz789"</text></g><g transform="translate(574.9368575075632 110) rotate(0 3.83599853515625 17.5)"><text x="3.83599853515625" y="NaN" font-family="Segoe UI Emoji" font-size="28px" fill="#374151" text-anchor="middle" style="white-space: pre;" direction="ltr">.</text></g><g stroke-linecap="round" transform="translate(600.1399825075632 38) rotate(0 135 85)"><path d="M1.29 -1.93 L268.31 -1.07 L268.55 169.82 L1.68 168.29" stroke="none" stroke-width="0" fill="#ddd6fe"></path><path d="M-1.12 -1.54 C67.27 -3.12, 137.17 -1.45, 269.63 1.08 M-0.23 0.49 C102.76 1.96, 203.37 1.15, 269.28 -0.58 M271.72 0.99 C269.56 42.6, 271.2 90.6, 271.03 169.46 M270.42 -0.82 C271.11 44.97, 271.16 88.69, 269.5 170.95 M268.91 171.51 C195.2 168.24, 118.23 166.76, -0.13 170.63 M269.41 169.28 C195.05 171.84, 120.45 171.04, -0.26 169.47 M0.38 169.63 C-1.59 125.15, -2.13 75.87, 1.71 -0.27 M0.91 169.48 C1.65 135.71, 1.2 101.84, -0.69 -0.27" stroke="#6d28d9" stroke-width="2" fill="none"></path></g><g transform="translate(605.1399825075632 66.125) rotate(0 64.74609375 56.875)"><text x="0" y="NaN" font-family="Segoe UI Emoji" font-size="13px" fill="#374151" text-anchor="start" style="white-space: pre;" direction="ltr">SIGNATURE</text><text x="0" y="NaN" font-family="Segoe UI Emoji" font-size="13px" fill="#374151" text-anchor="start" style="white-space: pre;" direction="ltr"></text><text x="0" y="NaN" font-family="Segoe UI Emoji" font-size="13px" fill="#374151" text-anchor="start" style="white-space: pre;" direction="ltr">RS256(</text><text x="0" y="NaN" font-family="Segoe UI Emoji" font-size="13px" fill="#374151" text-anchor="start" style="white-space: pre;" direction="ltr">  header.payload,</text><text x="0" y="NaN" font-family="Segoe UI Emoji" font-size="13px" fill="#374151" text-anchor="start" style="white-space: pre;" direction="ltr">  private_key</text><text x="0" y="NaN" font-family="Segoe UI Emoji" font-size="13px" fill="#374151" text-anchor="start" style="white-space: pre;" direction="ltr">)</text><text x="0" y="NaN" font-family="Segoe UI Emoji" font-size="13px" fill="#374151" text-anchor="start" style="white-space: pre;" direction="ltr">→ unforgeable</text></g><g transform="translate(10.139982507563218 224) rotate(0 147.0348358154297 8.75)"><text x="0" y="NaN" font-family="Segoe UI Emoji" font-size="14px" fill="#1e40af" text-anchor="start" style="white-space: pre;" direction="ltr">API Gateway verification — every request:</text></g><g stroke-linecap="round" transform="translate(10 250) rotate(0 79 29)"><path d="M-1.45 -0.18 L159.68 -1.71 L157.43 59.55 L-1.28 56.24" stroke="none" stroke-width="0" fill="#60a5fa"></path><path d="M1.24 0.43 C31.43 2.73, 65.37 -0.42, 156.61 -0.59 M-0.87 -0.41 C56.44 -1.71, 114.32 -0.35, 158.19 0.86 M158.14 1.65 C158.59 19.74, 156.74 41.25, 158.05 58.85 M158.57 0.64 C157.8 13.59, 158.11 26.09, 157.15 57.3 M157.59 56.17 C95.24 58.85, 32.32 58.86, 1.57 56.49 M157.23 57.2 C124.75 57.68, 91.88 58.45, -0.89 58.19 M-1.96 56.57 C2.12 41.39, -1.54 24.54, 0.83 1.81 M0.54 58.69 C-1.27 43.36, 0.07 28.29, -0.84 -0.53" stroke="#1e3a5f" stroke-width="2" fill="none"></path></g><g transform="translate(48.566062927246094 264) rotate(0 40.433937072753906 15)"><text x="40.433937072753906" y="NaN" font-family="Segoe UI Emoji" font-size="12px" fill="#374151" text-anchor="middle" style="white-space: pre;" direction="ltr">1. Extract kid</text><text x="40.433937072753906" y="NaN" font-family="Segoe UI Emoji" font-size="12px" fill="#374151" text-anchor="middle" style="white-space: pre;" direction="ltr">from header</text></g><g stroke-linecap="round"><g transform="translate(174 279.0058000000001) rotate(0 43.577891253781615 -2.842170943040401e-14)"><path d="M0.26 -0.29 C15.09 -0.25, 73.68 1.03, 87.98 0.93 M-1.07 -1.48 C13.77 -1.84, 72.55 -0.95, 87.47 -0.7" stroke="#64748b" stroke-width="2" fill="none"></path></g><g transform="translate(174 279.0058000000001) rotate(0 43.577891253781615 -2.842170943040401e-14)"><path d="M58.65 10.51 C66.71 5.19, 69.84 4.26, 88.73 1.17 M58.21 8.4 C69.07 6.32, 79.9 3, 87.97 -1.45" stroke="#64748b" stroke-width="2" fill="none"></path></g><g transform="translate(174 279.0058000000001) rotate(0 43.577891253781615 -2.842170943040401e-14)"><path d="M58.96 -10.01 C67.08 -10.92, 70.15 -7.45, 88.73 1.17 M58.52 -12.12 C69.1 -6.78, 79.8 -2.68, 87.97 -1.45" stroke="#64748b" stroke-width="2" fill="none"></path></g></g><g stroke-linecap="round" transform="translate(182.13998250756322 250) rotate(0 79 29)"><path d="M-0.57 1.55 L156.72 -1.76 L156.88 58.26 L-1.17 56.59" stroke="none" stroke-width="0" fill="#60a5fa"></path><path d="M1.56 -1.77 C49.39 -1.68, 102.83 0.78, 159.23 -1.73 M-0.38 0.63 C41.13 2.02, 82.38 0.41, 157.06 0.07 M157.18 0.69 C158.35 23.02, 156.66 45.39, 159.88 59.14 M157.8 0.81 C156.86 20.39, 158.67 42.77, 158.03 57.79 M157.52 58.82 C126.67 57.13, 90.36 57.42, 0.45 56.46 M157.73 58.1 C122.3 57.11, 88.2 56.21, 0.75 57.02 M-1.95 57.22 C0.33 46.57, -1.54 33.48, 0.27 1.09 M0.64 57.03 C-0.44 36.04, -0.32 15.06, 0.84 -0.86" stroke="#1e3a5f" stroke-width="2" fill="none"></path></g><g transform="translate(194.34310750756322 256.5) rotate(0 66.796875 22.5)"><text x="66.796875" y="NaN" font-family="Segoe UI Emoji" font-size="12px" fill="#374151" text-anchor="middle" style="white-space: pre;" direction="ltr">2. Fetch public key</text><text x="66.796875" y="NaN" font-family="Segoe UI Emoji" font-size="12px" fill="#374151" text-anchor="middle" style="white-space: pre;" direction="ltr">from JWKS (cached</text><text x="66.796875" y="NaN" font-family="Segoe UI Emoji" font-size="12px" fill="#374151" text-anchor="middle" style="white-space: pre;" direction="ltr">1hr)</text></g><g stroke-linecap="round"><g transform="translate(346.1399825075632 279.00579999999997) rotate(0 43.50790000000001 2.842170943040401e-14)"><path d="M-1.06 -0.84 C13.24 -0.87, 71.8 0.49, 86.66 0.76 M0.58 1.34 C14.63 0.89, 70.97 -0.54, 85.53 -0.97" stroke="#64748b" stroke-width="2" fill="none"></path></g><g transform="translate(346.1399825075632 279.00579999999997) rotate(0 43.50790000000001 2.842170943040401e-14)"><path d="M56.23 9.46 C69.09 8.1, 79.36 0.43, 84.71 -2.8 M57.82 10.92 C64.48 6.63, 69.37 4.95, 86.35 -0.46" stroke="#64748b" stroke-width="2" fill="none"></path></g><g transform="translate(346.1399825075632 279.00579999999997) rotate(0 43.50790000000001 2.842170943040401e-14)"><path d="M55.68 -11.05 C68.9 -4.84, 79.37 -4.94, 84.71 -2.8 M57.26 -9.6 C63.97 -9.24, 68.98 -6.27, 86.35 -0.46" stroke="#64748b" stroke-width="2" fill="none"></path></g></g><g stroke-linecap="round" transform="translate(354.1399825075632 250) rotate(0 79 29)"><path d="M-1.12 0.26 L156.83 -1.41 L156.26 59.07 L0.83 58.24" stroke="none" stroke-width="0" fill="#60a5fa"></path><path d="M1.26 1.87 C34.65 -1.27, 66.02 -1.36, 156.53 -0.77 M0.5 -0.75 C56.37 -1.29, 115.45 -0.85, 157.73 -0.41 M156.36 1.04 C159.89 20.55, 159.29 37.82, 159.9 57.61 M158.96 0.59 C157.53 21.88, 156.59 44.1, 158.4 57.76 M156.17 56.78 C104.58 55.27, 48.65 56.15, -1.36 57.45 M157.82 57.29 C109.84 57.32, 59.45 59.16, -0.14 57.03 M-1.04 59.98 C0.03 43.94, 1.15 26.32, -0.53 1.29 M-0.72 57.91 C1.33 45.35, 0.2 35.18, -0.64 -0.88" stroke="#1e3a5f" stroke-width="2" fill="none"></path></g><g transform="translate(380.4056075075632 264) rotate(0 52.734375 15)"><text x="52.734375" y="NaN" font-family="Segoe UI Emoji" font-size="12px" fill="#374151" text-anchor="middle" style="white-space: pre;" direction="ltr">3. Verify RS256</text><text x="52.734375" y="NaN" font-family="Segoe UI Emoji" font-size="12px" fill="#374151" text-anchor="middle" style="white-space: pre;" direction="ltr">signature</text></g><g stroke-linecap="round"><g transform="translate(518.1399825075632 279.0058) rotate(0 46.508500000000026 0)"><path d="M1.12 0.74 C16.51 0.53, 76.84 -0.22, 91.98 -0.49 M0.25 0.08 C16.03 -0.03, 78.48 0.81, 94.14 0.79" stroke="#64748b" stroke-width="2" fill="none"></path></g><g transform="translate(518.1399825075632 279.0058) rotate(0 46.508500000000026 0)"><path d="M67.11 9.12 C72.65 6.04, 79.64 4.38, 95.4 1.17 M64.95 10.93 C77.57 7.69, 87.4 2.88, 94.49 0.82" stroke="#64748b" stroke-width="2" fill="none"></path></g><g transform="translate(518.1399825075632 279.0058) rotate(0 46.508500000000026 0)"><path d="M67.26 -11.4 C72.88 -8.93, 79.83 -5.04, 95.4 1.17 M65.09 -9.6 C77.76 -4.9, 87.53 -1.79, 94.49 0.82" stroke="#64748b" stroke-width="2" fill="none"></path></g></g><g stroke-linecap="round" transform="translate(526.1399825075632 250) rotate(0 85 29)"><path d="M-1.74 1.07 L170.83 0.24 L169.34 57.16 L-1.06 57.18" stroke="none" stroke-width="0" fill="#60a5fa"></path><path d="M-0.82 -1.83 C65.41 0.7, 135.02 1.85, 171.72 0.99 M0.82 0.51 C37.96 -0.53, 76.8 -0.09, 170.42 -0.82 M171.27 -1 C172.44 20.02, 172.16 39.13, 168.61 59.92 M169.08 -0.08 C170.42 20.58, 170.43 42.43, 169.25 57.08 M168.41 57.34 C128.01 56.14, 88.94 54.9, 0.38 57.63 M169.28 58.86 C130.96 55.36, 91.79 56.75, 0.91 57.48 M1.39 56.61 C-0.61 36.15, -2.01 10.05, -1.07 -1.45 M-0.28 58.77 C-1.13 40.25, -1.05 24.4, -0.59 -0.7" stroke="#1e3a5f" stroke-width="2" fill="none"></path></g><g transform="translate(558.4056075075632 264) rotate(0 52.734375 15)"><text x="52.734375" y="NaN" font-family="Segoe UI Emoji" font-size="12px" fill="#374151" text-anchor="middle" style="white-space: pre;" direction="ltr">4. Check exp</text><text x="52.734375" y="NaN" font-family="Segoe UI Emoji" font-size="12px" fill="#374151" text-anchor="middle" style="white-space: pre;" direction="ltr">+ jti blocklist</text></g><g stroke-linecap="round"><g transform="translate(702.1399825075631 279.00579999999997) rotate(0 44.00800000000004 2.842170943040401e-14)"><path d="M-1.1 -0.88 C13.67 -0.68, 72.67 0.43, 87.56 0.75 M0.53 1.27 C15.19 1.18, 71.85 -0.64, 86.37 -0.97" stroke="#64748b" stroke-width="2" fill="none"></path></g><g transform="translate(702.1399825075631 279.00579999999997) rotate(0 44.00800000000004 2.842170943040401e-14)"><path d="M57 9.3 C65.72 8.34, 72.15 6.6, 84.86 -2.85 M58.2 9.66 C67.29 6.56, 75.92 2.33, 86.89 -0.04" stroke="#64748b" stroke-width="2" fill="none"></path></g><g transform="translate(702.1399825075631 279.00579999999997) rotate(0 44.00800000000004 2.842170943040401e-14)"><path d="M56.43 -11.21 C65.19 -7.79, 71.73 -5.15, 84.86 -2.85 M57.63 -10.86 C67.06 -7.66, 75.87 -5.6, 86.89 -0.04" stroke="#64748b" stroke-width="2" fill="none"></path></g></g><g stroke-linecap="round" transform="translate(710.1399825075632 250) rotate(0 80 29)"><path d="M-0.66 -0.84 L158.94 -0.82 L158.29 59.81 L0.78 58.49" stroke="none" stroke-width="0" fill="#a7f3d0"></path><path d="M1.25 0.38 C35.1 1.61, 65.24 -1.26, 160.14 1.65 M0.35 0.03 C56.64 -0.16, 112.95 1.59, 160.57 0.64 M161.62 -1.7 C159.16 16.43, 161.73 29.06, 159.59 56.17 M160.41 0.79 C159.48 16.02, 159.62 34.1, 159.23 57.2 M160.19 56.21 C117.64 57.2, 73.1 59.07, -1.96 56.57 M159.61 58.42 C99.22 55.92, 37.62 56.58, 0.54 58.69 M-1.93 56.31 C-0.91 43.18, -0.03 32.94, -1.71 -0.57 M-0.56 58.13 C-0.21 35.41, -0.5 14.76, 0.41 0.12" stroke="#047857" stroke-width="2" fill="none"></path></g><g transform="translate(740.9212325075632 264) rotate(0 49.21875 15)"><text x="49.21875" y="NaN" font-family="Segoe UI Emoji" font-size="12px" fill="#374151" text-anchor="middle" style="white-space: pre;" direction="ltr">5. Forward</text><text x="49.21875" y="NaN" font-family="Segoe UI Emoji" font-size="12px" fill="#374151" text-anchor="middle" style="white-space: pre;" direction="ltr">user_id, roles</text></g></svg>