<svg version="1.1" xmlns="http://www.w3.org/2000/svg" viewBox="0 0 1060 940" width="1060" height="940">
  <!-- svg-source:excalidraw -->
  
  <defs>
    <style>
      @font-face {
        font-family: "Virgil";
        src: url("https://excalidraw.com/Virgil.woff2");
      }
      @font-face {
        font-family: "Cascadia";
        src: url("https://excalidraw.com/Cascadia.woff2");
      }
    </style>
  </defs>
  <rect x="0" y="0" width="1060" height="940" fill="#0d1117"></rect><g stroke-linecap="round" transform="translate(10 10) rotate(0 100 25)"><path d="M0.33 -1.32 L200.01 -1.3 L198.79 50.36 L0.56 49.07" stroke="none" stroke-width="0" fill="#3a1d6e"></path><path d="M-0.13 -0.17 C70.1 0.62, 140.01 -0.21, 199.39 0.67 M-0.68 0.42 C47.64 -0.08, 96.59 0.02, 199.85 -0.22 M198.61 1.99 C198.84 20.46, 200.36 40.11, 200.83 50.64 M200.43 -0.56 C200.41 10.55, 200.08 22.09, 200.83 50.65 M199.53 48.25 C126.21 48.76, 56.15 49.96, -0.32 50.93 M200.29 49.71 C132.66 50.08, 67.32 51.8, 0.15 49.84 M-1.06 50.56 C0.38 34.34, -1.27 15.31, -1.89 1.48 M0.19 49.67 C0 31.93, 0.9 15.21, -0.04 -0.53" stroke="#a371f7" stroke-width="2" fill="none"></path></g><g transform="translate(44.26005554199219 22.5) rotate(0 65.73994445800781 12.5)"><text x="65.73994445800781" y="NaN" font-family="Virgil, Segoe UI Emoji" font-size="20px" fill="#ffffff" text-anchor="middle" style="white-space: pre;" direction="ltr">User Browser</text></g><g stroke-linecap="round"><g transform="translate(110 60) rotate(0 0 410)"><path d="M-1.17 0.19 C-1.27 137.13, -0.17 683.78, 0.17 820.61" stroke="#30363d" stroke-width="1.5" fill="none" stroke-dasharray="8 9"></path></g></g><g stroke-linecap="round" transform="translate(10 880) rotate(0 100 25)"><path d="M1.14 -1.78 L201.23 0.48 L198.92 48.66 L-0.55 50.63" stroke="none" stroke-width="0" fill="#3a1d6e"></path><path d="M-0.04 -0.67 C42.91 -0.23, 88.93 -0.82, 200.75 -1.12 M-0.17 0.54 C44.16 1.73, 90.37 0.1, 200.42 -0.01 M198.73 1.06 C200.98 13.35, 201.59 21.34, 199.69 51.87 M200.79 0.51 C199.91 9.67, 200.55 21.28, 200.24 50.74 M201.13 49.17 C150.11 49.23, 100.6 49.01, 1.56 51.38 M199.73 49.94 C146.14 48.18, 93.57 48.93, 0.19 50 M1.75 48.76 C-1.54 28.36, -1.62 10.65, -0.35 -0.88 M0.14 50.32 C0.68 37.14, 0.77 25.93, 0.82 0.2" stroke="#a371f7" stroke-width="2" fill="none"></path></g><g transform="translate(44.26005554199219 892.5) rotate(0 65.73994445800781 12.5)"><text x="65.73994445800781" y="NaN" font-family="Virgil, Segoe UI Emoji" font-size="20px" fill="#ffffff" text-anchor="middle" style="white-space: pre;" direction="ltr">User Browser</text></g><g stroke-linecap="round" transform="translate(290 10) rotate(0 100 25)"><path d="M0 1.97 L200.96 -1.96 L199.47 49.4 L1.02 51.35" stroke="none" stroke-width="0" fill="#3a1d6e"></path><path d="M0 -0.92 C51.84 -0.1, 104.81 -0.55, 201.49 -0.3 M-0.09 -0.07 C70.26 0.65, 139.78 0.78, 199.8 -0.19 M201.48 0.9 C201.77 15.2, 198.47 27.2, 200.69 50.22 M200.17 0.1 C199.2 16.22, 199.59 31.58, 200.12 50.03 M201.05 49.91 C149.99 51.76, 101.46 50.27, 1.09 48.38 M199.24 50.43 C150.21 49.88, 99.89 49.78, -0.07 50.88 M-1.48 49.87 C-0.6 39.86, 1.92 28.5, 1.32 -1.61 M-0.19 49.93 C0.4 36.02, 0.12 23.43, -0.72 0.78" stroke="#a371f7" stroke-width="2" fill="none"></path></g><g transform="translate(341.53004455566406 22.5) rotate(0 48.46995544433594 12.5)"><text x="48.46995544433594" y="NaN" font-family="Virgil, Segoe UI Emoji" font-size="20px" fill="#ffffff" text-anchor="middle" style="white-space: pre;" direction="ltr">Client App</text></g><g stroke-linecap="round"><g transform="translate(390 60) rotate(0 0 410)"><path d="M-1.11 -0.87 C-1.38 135.66, -0.66 683.61, -0.52 820.26" stroke="#30363d" stroke-width="1.5" fill="none" stroke-dasharray="8 9"></path></g></g><g stroke-linecap="round" transform="translate(290 880) rotate(0 100 25)"><path d="M-1.82 1.66 L200.1 -0.98 L201.77 49.15 L-1.73 49.31" stroke="none" stroke-width="0" fill="#3a1d6e"></path><path d="M-0.27 -1.79 C50.06 0.44, 96.15 0.9, 201.65 -0.58 M0.3 0.06 C54.65 1.07, 108.39 2.27, 199.64 0.89 M200.9 -1.41 C198.17 15.6, 198.48 29.82, 200.72 49.87 M200.41 0.07 C199.46 13.87, 200.33 29.24, 200.85 49.5 M199.74 50.1 C130.23 48.51, 63.04 50.68, 0.59 50.6 M200.38 50.4 C120.96 49.46, 42.21 49.58, -0.4 49.84 M0.32 50.87 C-0.3 35.72, 1.22 20.81, -1.37 1.44 M-0.48 50.04 C-0.55 39.42, -1.25 28.87, -0.02 -0.95" stroke="#a371f7" stroke-width="2" fill="none"></path></g><g transform="translate(341.53004455566406 892.5) rotate(0 48.46995544433594 12.5)"><text x="48.46995544433594" y="NaN" font-family="Virgil, Segoe UI Emoji" font-size="20px" fill="#ffffff" text-anchor="middle" style="white-space: pre;" direction="ltr">Client App</text></g><g stroke-linecap="round" transform="translate(570 10) rotate(0 100 25)"><path d="M-1.8 -1.5 L201.69 0.98 L198.06 50.75 L-1.96 51.8" stroke="none" stroke-width="0" fill="#3a1d6e"></path><path d="M-1.58 1 C79.47 -2.82, 158.93 -2.25, 201.55 -0.86 M0.61 -0.83 C62.43 0.29, 123.88 1.42, 200.33 -0.4 M199.24 -0.52 C199.71 17.41, 200.92 33.29, 201.06 51.12 M200.85 0.46 C200.48 13.08, 198.98 27.59, 200.68 49.17 M201.6 51.68 C144.97 48.59, 88.22 48.13, 1.58 51.16 M200.03 50.09 C129.24 47.48, 57.55 48.88, -0.03 49.17 M1.75 48.57 C-1.87 31.7, -0.45 9.65, 0.05 1.91 M-0.14 49.81 C0.03 39.98, 0.55 28.57, -0.8 -0.67" stroke="#a371f7" stroke-width="2" fill="none"></path></g><g transform="translate(611.3200531005859 22.5) rotate(0 58.67994689941406 12.5)"><text x="58.67994689941406" y="NaN" font-family="Virgil, Segoe UI Emoji" font-size="20px" fill="#ffffff" text-anchor="middle" style="white-space: pre;" direction="ltr">Auth Server</text></g><g stroke-linecap="round"><g transform="translate(670 60) rotate(0 0 410)"><path d="M1.04 0.6 C1.1 137.07, 0.1 683.22, -0.21 819.93" stroke="#30363d" stroke-width="1.5" fill="none" stroke-dasharray="8 9"></path></g></g><g stroke-linecap="round" transform="translate(570 880) rotate(0 100 25)"><path d="M-0.01 -0.75 L201.15 1.25 L199.66 49.22 L0.57 48.19" stroke="none" stroke-width="0" fill="#3a1d6e"></path><path d="M1.3 -1.46 C46.22 -0.45, 96.21 -0.4, 201.01 0.39 M0.59 -0.51 C64.6 1.9, 126.83 1.92, 200.54 -0.49 M199.4 0.8 C200.57 9.6, 201.16 24.21, 200.28 49.54 M200.71 -0.97 C198.67 18.25, 200.23 35.65, 200.09 49.37 M199.9 48.95 C126.27 49.62, 56.79 51.34, -1.6 49.3 M199.58 50.67 C120.47 50.7, 41.3 50.06, -0.28 50.24 M1.43 50.46 C0.95 34.64, 0.03 24.94, -0.02 0.45 M0.3 50.15 C0.67 35.5, 0.59 20.23, 0.13 -0.33" stroke="#a371f7" stroke-width="2" fill="none"></path></g><g transform="translate(611.3200531005859 892.5) rotate(0 58.67994689941406 12.5)"><text x="58.67994689941406" y="NaN" font-family="Virgil, Segoe UI Emoji" font-size="20px" fill="#ffffff" text-anchor="middle" style="white-space: pre;" direction="ltr">Auth Server</text></g><g stroke-linecap="round" transform="translate(850 10) rotate(0 100 25)"><path d="M-1.81 1.75 L201.97 0.64 L198.72 50.16 L-1.09 49.61" stroke="none" stroke-width="0" fill="#3a1d6e"></path><path d="M0.88 0.76 C79.87 -0.44, 157.09 -0.63, 200.47 -1.64 M0.18 -0.45 C51.38 0.27, 102.16 0.43, 199.22 -0.65 M198.04 -0.29 C201.02 15.48, 200.48 31.18, 201.33 51.97 M200.82 0.54 C199.35 12.65, 198.76 25.46, 200.93 50.38 M199.05 50.71 C126.18 49.11, 51.65 48.34, -0.4 50.37 M199.47 50.11 C131.39 50.75, 62.93 50.24, 0.16 50.35 M0.8 51.18 C-0.42 29.42, 1.6 12.41, -0.06 -0.88 M0.44 50.41 C0.46 34.81, 0.33 17.45, 0.05 -0.85" stroke="#a371f7" stroke-width="2" fill="none"></path></g><g transform="translate(870.460075378418 22.5) rotate(0 79.53992462158203 12.5)"><text x="79.53992462158203" y="NaN" font-family="Virgil, Segoe UI Emoji" font-size="20px" fill="#ffffff" text-anchor="middle" style="white-space: pre;" direction="ltr">Resource Server</text></g><g stroke-linecap="round"><g transform="translate(950 60) rotate(0 0 410)"><path d="M-0.11 0.07 C-0.17 136.76, 0.58 683.59, 0.67 820.09" stroke="#30363d" stroke-width="1.5" fill="none" stroke-dasharray="8 9"></path></g></g><g stroke-linecap="round" transform="translate(850 880) rotate(0 100 25)"><path d="M0.55 -0.5 L201.47 1.65 L199.46 48.94 L1.9 48.7" stroke="none" stroke-width="0" fill="#3a1d6e"></path><path d="M0.58 -0.37 C45.27 1.55, 92.33 1.41, 201.77 1.53 M0.01 -0.21 C66.02 -0.03, 130.7 -0.68, 200.81 -0.53 M201.23 -1.2 C198.47 12.6, 201.26 27.73, 202 50.42 M200.33 0.38 C200.13 19.58, 199.81 37.94, 200.18 50.77 M201.64 48.54 C134.55 49.93, 68.62 49.11, 1.53 49.35 M199.71 50.02 C156.11 49.86, 111 48.94, -0.14 49.78 M-0.86 48.15 C1.07 40.48, 0.45 30.13, 0.56 -0.7 M0.16 50.14 C0.19 33.35, 0.1 17.58, 0.2 0.92" stroke="#a371f7" stroke-width="2" fill="none"></path></g><g transform="translate(870.460075378418 892.5) rotate(0 79.53992462158203 12.5)"><text x="79.53992462158203" y="NaN" font-family="Virgil, Segoe UI Emoji" font-size="20px" fill="#ffffff" text-anchor="middle" style="white-space: pre;" direction="ltr">Resource Server</text></g><g stroke-linecap="round"><g transform="translate(110 140) rotate(0 140 0)"><path d="M-0.38 1.09 C46.15 1.08, 232.18 0.54, 278.95 0.28 M1.63 0.62 C48.54 0.19, 234.78 -1.69, 281.11 -1.69" stroke="#c9d1d9" stroke-width="2" fill="none"></path></g><g transform="translate(110 140) rotate(0 140 0)"><path d="M254.8 6.99 C261.33 6.31, 268 4.77, 282.73 0.28 M252.1 7.77 C257.87 6.82, 265.04 3.65, 280.66 -1.37" stroke="#c9d1d9" stroke-width="2" fill="none"></path></g><g transform="translate(110 140) rotate(0 140 0)"><path d="M254.68 -13.54 C261.3 -8.44, 268.01 -4.21, 282.73 0.28 M251.98 -12.75 C257.78 -9.57, 264.96 -8.61, 280.66 -1.37" stroke="#c9d1d9" stroke-width="2" fill="none"></path></g></g><g transform="translate(180.97005462646484 128.75) rotate(0 69.02994537353516 22.5)"><text x="69.02994537353516" y="NaN" font-family="Virgil, Segoe UI Emoji" font-size="18px" fill="#c9d1d9" text-anchor="middle" style="white-space: pre;" direction="ltr">Click "Login with</text><text x="69.02994537353516" y="NaN" font-family="Virgil, Segoe UI Emoji" font-size="18px" fill="#c9d1d9" text-anchor="middle" style="white-space: pre;" direction="ltr">Google"</text></g><g stroke-linecap="round"><g transform="translate(390 220) rotate(0 -140 0)"><path d="M0.98 1.13 C-45.63 0.92, -232 -0.25, -278.93 -0.64 M0.04 0.68 C-46.7 0.57, -232.36 0.76, -279.31 0.57" stroke="#c9d1d9" stroke-width="2" fill="none"></path></g><g transform="translate(390 220) rotate(0 -140 0)"><path d="M-249.23 -7.87 C-262.26 -6.77, -273.32 -3.76, -278.12 0.77 M-250.43 -10.1 C-260.63 -6.71, -267.54 -4.39, -279.07 1.38" stroke="#c9d1d9" stroke-width="2" fill="none"></path></g><g transform="translate(390 220) rotate(0 -140 0)"><path d="M-249.25 12.65 C-262.38 6.37, -273.43 2, -278.12 0.77 M-250.46 10.42 C-260.84 7.49, -267.75 3.49, -279.07 1.38" stroke="#c9d1d9" stroke-width="2" fill="none"></path></g></g><g transform="translate(173.86903381347656 208.75) rotate(0 76.13096618652344 22.5)"><text x="76.13096618652344" y="NaN" font-family="Virgil, Segoe UI Emoji" font-size="18px" fill="#c9d1d9" text-anchor="middle" style="white-space: pre;" direction="ltr">Redirect to Auth</text><text x="76.13096618652344" y="NaN" font-family="Virgil, Segoe UI Emoji" font-size="18px" fill="#c9d1d9" text-anchor="middle" style="white-space: pre;" direction="ltr">Server</text></g><g stroke-linecap="round"><g transform="translate(110 300) rotate(0 280 0)"><path d="M-0.57 -0.89 C92.84 -1.05, 467.03 -0.51, 560.52 -0.46 M1.33 1.26 C94.63 1.22, 466.77 0.97, 559.85 0.83" stroke="#c9d1d9" stroke-width="2" fill="none"></path></g><g transform="translate(110 300) rotate(0 280 0)"><path d="M530.19 12 C539.48 8.77, 547.9 6.41, 559.17 0.96 M532.56 11.93 C540.7 8.33, 549.31 5.87, 560.31 0.26" stroke="#c9d1d9" stroke-width="2" fill="none"></path></g><g transform="translate(110 300) rotate(0 280 0)"><path d="M530.17 -8.52 C539.55 -5.47, 547.98 -1.56, 559.17 0.96 M532.53 -8.59 C540.62 -6.13, 549.25 -2.54, 560.31 0.26" stroke="#c9d1d9" stroke-width="2" fill="none"></path></g></g><g transform="translate(285.31204986572266 288.75) rotate(0 104.68795013427734 11.25)"><text x="104.68795013427734" y="NaN" font-family="Virgil, Segoe UI Emoji" font-size="18px" fill="#c9d1d9" text-anchor="middle" style="white-space: pre;" direction="ltr">Authenticate + consent</text></g><g stroke-linecap="round"><g transform="translate(670 380) rotate(0 -280 0)"><path d="M0.98 0.72 C-92.47 0.81, -467.52 0.29, -560.98 -0.02 M0.03 0.05 C-93.03 0.4, -465.37 1.58, -558.78 1.5" stroke="#c9d1d9" stroke-width="2" fill="none"></path></g><g transform="translate(670 380) rotate(0 -280 0)"><path d="M-529.41 -10.43 C-538.51 -5.35, -548.17 -1.8, -558.17 -0.23 M-531.16 -7.9 C-540.75 -4.66, -551.94 -1.63, -558.69 1.17" stroke="#c9d1d9" stroke-width="2" fill="none"></path></g><g transform="translate(670 380) rotate(0 -280 0)"><path d="M-529.38 10.09 C-538.39 9.48, -548.06 7.33, -558.17 -0.23 M-531.13 12.62 C-540.91 7.7, -552.12 2.56, -558.69 1.17" stroke="#c9d1d9" stroke-width="2" fill="none"></path></g></g><g transform="translate(258.8340759277344 368.75) rotate(0 131.16592407226562 11.25)"><text x="131.16592407226562" y="NaN" font-family="Virgil, Segoe UI Emoji" font-size="18px" fill="#c9d1d9" text-anchor="middle" style="white-space: pre;" direction="ltr">Redirect back with auth code</text></g><g stroke-linecap="round"><g transform="translate(110 460) rotate(0 140 0)"><path d="M0.42 0.85 C47.08 0.9, 233.31 0.02, 279.9 0.01 M-0.81 0.25 C45.68 0.52, 232.23 1.78, 278.89 1.55" stroke="#c9d1d9" stroke-width="2" fill="none"></path></g><g transform="translate(110 460) rotate(0 140 0)"><path d="M252.1 11.59 C259.07 8.56, 268.76 4.62, 277.43 3.48 M250.45 11.88 C258.69 9.73, 266.18 7.18, 278.62 0.64" stroke="#c9d1d9" stroke-width="2" fill="none"></path></g><g transform="translate(110 460) rotate(0 140 0)"><path d="M252.14 -8.93 C259.06 -5.89, 268.73 -3.76, 277.43 3.48 M250.48 -8.64 C258.9 -5.26, 266.39 -2.29, 278.62 0.64" stroke="#c9d1d9" stroke-width="2" fill="none"></path></g></g><g transform="translate(171.02504730224607 448.75) rotate(0 78.97495269775392 11.25)"><text x="78.9749526977539" y="NaN" font-family="Virgil, Segoe UI Emoji" font-size="18px" fill="#c9d1d9" text-anchor="middle" style="white-space: pre;" direction="ltr">Deliver auth code</text></g><g stroke-linecap="round"><g transform="translate(390 540) rotate(0 140 0)"><path d="M0.86 0.9 C47.46 1.09, 232.7 0.02, 279.39 -0.03 M-0.14 0.33 C46.86 0.83, 234.96 1.79, 281.78 1.49" stroke="#c9d1d9" stroke-width="2" fill="none"></path></g><g transform="translate(390 540) rotate(0 140 0)"><path d="M255.09 10.72 C261.72 10.26, 270.82 5.32, 281.38 1.48 M254.22 12.13 C263.75 8.79, 274.91 3.84, 280.96 1.17" stroke="#c9d1d9" stroke-width="2" fill="none"></path></g><g transform="translate(390 540) rotate(0 140 0)"><path d="M255.1 -9.8 C261.52 -4.38, 270.62 -3.43, 281.38 1.48 M254.23 -8.39 C263.8 -4.21, 274.95 -1.65, 280.96 1.17" stroke="#c9d1d9" stroke-width="2" fill="none"></path></g></g><g transform="translate(456.10103607177734 528.75) rotate(0 73.89896392822266 33.75)"><text x="73.89896392822266" y="NaN" font-family="Virgil, Segoe UI Emoji" font-size="18px" fill="#c9d1d9" text-anchor="middle" style="white-space: pre;" direction="ltr">Exchange code +</text><text x="73.89896392822266" y="NaN" font-family="Virgil, Segoe UI Emoji" font-size="18px" fill="#c9d1d9" text-anchor="middle" style="white-space: pre;" direction="ltr">client secret for</text><text x="73.89896392822266" y="NaN" font-family="Virgil, Segoe UI Emoji" font-size="18px" fill="#c9d1d9" text-anchor="middle" style="white-space: pre;" direction="ltr">token</text></g><g stroke-linecap="round"><g transform="translate(670 620) rotate(0 -140 0)"><path d="M-0.8 0.25 C-47.23 0.21, -233.33 -0.64, -279.74 -0.62 M0.98 -0.67 C-45.49 -0.53, -233.78 0.78, -280.55 0.6" stroke="#c9d1d9" stroke-width="2" fill="none"></path></g><g transform="translate(670 620) rotate(0 -140 0)"><path d="M-251.97 -9.29 C-259.25 -6.56, -263.42 -4.63, -279.18 0.27 M-251.56 -9.72 C-261.96 -6.39, -269.85 -4.03, -279.7 1.55" stroke="#c9d1d9" stroke-width="2" fill="none"></path></g><g transform="translate(670 620) rotate(0 -140 0)"><path d="M-251.92 11.23 C-259.15 9.73, -263.32 7.43, -279.18 0.27 M-251.52 10.8 C-261.77 7.81, -269.67 3.85, -279.7 1.55" stroke="#c9d1d9" stroke-width="2" fill="none"></path></g></g><g transform="translate(462.15803527832026 608.75) rotate(0 67.84196472167972 22.5)"><text x="67.84196472167969" y="NaN" font-family="Virgil, Segoe UI Emoji" font-size="18px" fill="#c9d1d9" text-anchor="middle" style="white-space: pre;" direction="ltr">Access token +</text><text x="67.84196472167969" y="NaN" font-family="Virgil, Segoe UI Emoji" font-size="18px" fill="#c9d1d9" text-anchor="middle" style="white-space: pre;" direction="ltr">refresh token</text></g><g stroke-linecap="round"><g transform="translate(390 700) rotate(0 280 0)"><path d="M0.98 -0.25 C94.28 -0.3, 467.46 0.45, 560.71 0.36 M0.03 -1.42 C93.16 -1.9, 466.81 -1.83, 560.14 -1.57" stroke="#c9d1d9" stroke-width="2" fill="none"></path></g><g transform="translate(390 700) rotate(0 280 0)"><path d="M531.52 9.84 C543.07 5.4, 551.75 -1.22, 559.42 -2.29 M531.3 7.81 C539.37 5.2, 548.57 3.99, 560.7 -1.48" stroke="#c9d1d9" stroke-width="2" fill="none"></path></g><g transform="translate(390 700) rotate(0 280 0)"><path d="M531.54 -10.68 C543.2 -7.42, 551.87 -6.34, 559.42 -2.29 M531.32 -12.71 C539.19 -9.64, 548.38 -5.18, 560.7 -1.48" stroke="#c9d1d9" stroke-width="2" fill="none"></path></g></g><g transform="translate(549.6880645751953 688.75) rotate(0 120.31193542480469 11.25)"><text x="120.31193542480469" y="NaN" font-family="Virgil, Segoe UI Emoji" font-size="18px" fill="#c9d1d9" text-anchor="middle" style="white-space: pre;" direction="ltr">API call with access token</text></g><g stroke-linecap="round"><g transform="translate(950 780) rotate(0 -280 0)"><path d="M-0.31 -0.76 C-93.75 -0.98, -467.91 -0.52, -561.11 -0.5 M1.73 1.46 C-91.31 1.33, -465.36 0.97, -558.98 0.78" stroke="#c9d1d9" stroke-width="2" fill="none"></path></g><g transform="translate(950 780) rotate(0 -280 0)"><path d="M-532.04 -11.29 C-538.9 -6, -546.52 -4.53, -557.88 -0.24 M-530.47 -9.36 C-540.69 -6.49, -549.46 -1.69, -559.94 1.22" stroke="#c9d1d9" stroke-width="2" fill="none"></path></g><g transform="translate(950 780) rotate(0 -280 0)"><path d="M-532.07 9.23 C-539.06 9.16, -546.67 5.27, -557.88 -0.24 M-530.5 11.16 C-540.67 7.16, -549.43 5.08, -559.94 1.22" stroke="#c9d1d9" stroke-width="2" fill="none"></path></g></g><g transform="translate(583.9510498046875 768.75) rotate(0 86.0489501953125 11.25)"><text x="86.0489501953125" y="NaN" font-family="Virgil, Segoe UI Emoji" font-size="18px" fill="#c9d1d9" text-anchor="middle" style="white-space: pre;" direction="ltr">Protected resource</text></g></svg>