<svg version="1.1" xmlns="http://www.w3.org/2000/svg" viewBox="0 0 1228.379824970566 100.83905798424684" width="1228.379824970566" height="100.83905798424684">
  <!-- svg-source:excalidraw -->
  
  <defs>
    <style>
      @font-face {
        font-family: "Virgil";
        src: url("https://excalidraw.com/Virgil.woff2");
      }
      @font-face {
        font-family: "Cascadia";
        src: url("https://excalidraw.com/Cascadia.woff2");
      }
    </style>
  </defs>
  <rect x="0" y="0" width="1228.379824970566" height="100.83905798424684" fill="#1e1e2e"></rect><g stroke-linecap="round" transform="translate(10 17.839057984246836) rotate(0 96.5 36.5)"><path d="M-1.93 1.11 L191.21 -1.52 L194.66 73.31 L1.99 71.71" stroke="none" stroke-width="0" fill="#5b21b6"></path><path d="M1.9 1.14 C43.13 -0.19, 85.76 -1.83, 193.57 0.77 M0.9 0.45 C42.54 -0.3, 84.18 -1.37, 192.48 -0.18 M192.97 -1.74 C193.33 21.02, 191.4 44.29, 192.83 71.96 M193.08 -0.04 C192.71 27.26, 192.51 55.45, 192.41 73.81 M193.71 72.75 C147.78 73.71, 106.84 72.48, -0.63 73.5 M192.6 73.64 C124.26 72.16, 54.14 71.48, -0.41 72.03 M-0.24 72.75 C0.27 45.06, 0.6 16.76, 1.96 0.12 M0.47 73.5 C-0.64 56.75, 0.13 38.3, -0.34 -0.74" stroke="#7c3aed" stroke-width="2" fill="none"></path></g><g transform="translate(49.60005187988281 41.839057984246836) rotate(0 56.89994812011719 12.5)"><text x="56.89994812011719" y="NaN" font-family="Virgil, Segoe UI Emoji" font-size="20px" fill="#fff" text-anchor="middle" style="white-space: pre;" direction="ltr">Super Admin</text></g><g stroke-linecap="round" transform="translate(265.34492860939736 15.080581609814146) rotate(0 90 36.5)"><path d="M0.07 -1.03 L181.78 1.96 L180.15 73.8 L0.65 73.31" stroke="none" stroke-width="0" fill="#5b21b6"></path><path d="M-1.63 -1.8 C41.47 -1.44, 81.38 0, 181.9 -0.55 M-0.15 -0.57 C56.19 -0.81, 111.38 -0.58, 180.45 0.28 M179.12 -0.6 C180.7 25.64, 180.34 52.6, 180.55 72.31 M179.22 0.73 C180.56 16.3, 180 30.74, 180.17 73.03 M180.29 72.75 C126.71 73.16, 74.69 73.95, 0.05 72.14 M180.98 72.98 C119.58 74.34, 61.52 73.87, -0.79 73.56 M0.16 71.45 C-1.21 51.59, -1.28 29.36, -0.36 1.83 M-0.02 73.05 C0.03 57.72, -0.93 43.28, 0.79 -0.19" stroke="#7c3aed" stroke-width="2" fill="none"></path></g><g transform="translate(329.9049490561747 39.080581609814146) rotate(0 25.439979553222656 12.5)"><text x="25.439979553222656" y="NaN" font-family="Virgil, Segoe UI Emoji" font-size="20px" fill="#fff" text-anchor="middle" style="white-space: pre;" direction="ltr">Admin</text></g><g stroke-linecap="round" transform="translate(509.4771021864883 10.38861338565357) rotate(0 90 36.5)"><path d="M0.82 1.41 L178.95 0.28 L179.35 74.72 L1.32 74.73" stroke="none" stroke-width="0" fill="#1e40af"></path><path d="M-0.32 -1.83 C66.95 1.25, 130.76 3.07, 180.48 -0.21 M-0.62 -0.83 C62.86 0.62, 124.81 0.7, 180.31 -0.06 M181.09 -0.2 C181.3 27.15, 180.83 57.01, 178.47 72.75 M179.64 -0.51 C180.72 15.97, 181.04 33.93, 180.61 73.86 M179.06 72.33 C134.04 72.51, 90.53 71.8, -0.97 73.62 M180.08 72.29 C115.32 72.14, 50.95 71.74, -0.36 72.37 M0.41 74.82 C-2.23 52.04, 0.27 28.71, 1.63 1.89 M-0.66 73.61 C0.73 57, -0.12 39.55, -0.53 0.76" stroke="#3b82f6" stroke-width="2" fill="none"></path></g><g transform="translate(559.0271281264297 34.38861338565357) rotate(0 40.449974060058594 12.5)"><text x="40.449974060058594" y="NaN" font-family="Virgil, Segoe UI Emoji" font-size="20px" fill="#fff" text-anchor="middle" style="white-space: pre;" direction="ltr">Manager</text></g><g stroke-linecap="round" transform="translate(778.9762949252236 11.963228914221986) rotate(0 90 36.5)"><path d="M0.34 1.15 L180.91 0.79 L178.58 71.74 L1.57 72.14" stroke="none" stroke-width="0" fill="#b45309"></path><path d="M-0.73 1.81 C35.04 0.03, 75.11 -0.66, 181.56 -1.5 M-0.21 -0.1 C62.16 -0.23, 126.25 -0.44, 179.78 0.42 M180.7 0.09 C181.7 25.3, 181.18 50.91, 179.91 72.59 M180.96 0 C178.59 21.72, 179.99 41.97, 180.22 72.9 M178.38 74.19 C140.48 72.93, 102.82 72.55, -0.25 73.13 M180.12 73.72 C112.9 75.64, 47.87 75.49, 0.81 72.1 M0.43 72.46 C1.01 47.12, 0.92 20.17, 1 1.35 M-0.21 73.38 C-0.77 45.86, -0.44 16.8, 0.47 -0.88" stroke="#d97706" stroke-width="2" fill="none"></path></g><g transform="translate(838.8663248324501 35.963228914221986) rotate(0 30.109970092773438 12.5)"><text x="30.109970092773438" y="NaN" font-family="Virgil, Segoe UI Emoji" font-size="20px" fill="#fff" text-anchor="middle" style="white-space: pre;" direction="ltr">Editor</text></g><g stroke-linecap="round" transform="translate(1038.379824970566 10) rotate(0 90 36.5)"><path d="M-1.85 0.27 L178.47 -0.61 L178.05 71.56 L-0.12 74.81" stroke="none" stroke-width="0" fill="#2d6a4f"></path><path d="M-1.42 -1.84 C55.27 1.1, 109.22 -1.25, 180.01 -0.14 M0.21 0.32 C36.01 -0.13, 72.41 1.32, 180.87 -0.18 M178.55 0.13 C181.27 25.51, 179.65 50.06, 180.83 72.28 M179.78 -0.38 C180.1 18.68, 180 38.5, 180.14 72.76 M178.29 73.83 C119.86 69.69, 59.35 72.7, 0.32 71.14 M179.88 72.32 C141.71 73.5, 104.64 72.9, 0.81 73.46 M0.43 71.13 C1.16 53.2, 1.1 34.82, -1.27 -1.87 M-0.46 73.53 C0.43 46.02, 0.6 18.95, 0.48 0.21" stroke="#40916c" stroke-width="2" fill="none"></path></g><g transform="translate(1099.6898530467379 34) rotate(0 28.689971923828125 12.5)"><text x="28.689971923828125" y="NaN" font-family="Virgil, Segoe UI Emoji" font-size="20px" fill="#fff" text-anchor="middle" style="white-space: pre;" direction="ltr">Viewer</text></g><g stroke-linecap="round"><g transform="translate(209 53.210340994922774) rotate(0 25.17246430469868 -0.2790412937586382)"><path d="M0.66 0.65 C9.03 0.55, 42.41 -1.39, 50.87 -1.56 M-0.46 -0.06 C7.75 0.05, 41.59 -0.73, 50.19 -0.55" stroke="#3b82f6" stroke-width="2" fill="none"></path></g><g transform="translate(209 53.210340994922774) rotate(0 25.17246430469868 -0.2790412937586382)"><path d="M27.65 9.02 C33.31 6.69, 43.57 0.93, 52.13 -2.15 M25.72 8.14 C32.29 6.05, 38.77 3.69, 51.18 -1.52" stroke="#3b82f6" stroke-width="2" fill="none"></path></g><g transform="translate(209 53.210340994922774) rotate(0 25.17246430469868 -0.2790412937586382)"><path d="M27.58 -8.2 C33.12 -4.46, 43.41 -4.14, 52.13 -2.15 M25.65 -9.08 C32.23 -6.82, 38.72 -4.84, 51.18 -1.52" stroke="#3b82f6" stroke-width="2" fill="none"></path></g></g><g stroke-linecap="round"><g transform="translate(451.3449286093973 52.31526182516143) rotate(0 30.042444861340954 0.06933503578184741)"><path d="M0.68 0.9 C10.72 0.98, 51.21 -0.54, 61.17 -0.57 M-0.43 0.32 C9.48 0.64, 50.74 0.87, 60.79 0.59" stroke="#3b82f6" stroke-width="2" fill="none"></path></g><g transform="translate(451.3449286093973 52.31526182516143) rotate(0 30.042444861340954 0.06933503578184741)"><path d="M34.17 12.87 C42.08 7.59, 54.71 4.34, 59.83 1.25 M33.38 10.63 C42.56 7.98, 51.87 4.4, 60.08 0.05" stroke="#3b82f6" stroke-width="2" fill="none"></path></g><g transform="translate(451.3449286093973 52.31526182516143) rotate(0 30.042444861340954 0.06933503578184741)"><path d="M34.01 -7.65 C41.8 -5.27, 54.49 -0.87, 59.83 1.25 M33.22 -9.89 C42.59 -5.28, 51.95 -1.6, 60.08 0.05" stroke="#3b82f6" stroke-width="2" fill="none"></path></g></g><g stroke-linecap="round"><g transform="translate(695.4771021864883 48.72746866909591) rotate(0 38.74959636936768 -0.03628484679063604)"><path d="M0.68 0.4 C13.52 0.38, 64.2 0.22, 76.91 0.01 M-0.42 -0.44 C12.82 -0.25, 66.59 1.5, 79.31 1.59" stroke="#3b82f6" stroke-width="2" fill="none"></path></g><g transform="translate(695.4771021864883 48.72746866909591) rotate(0 38.74959636936768 -0.03628484679063604)"><path d="M51.57 10.26 C59.36 7.34, 66.29 3.7, 80.45 -0.2 M50.21 12.1 C60.1 8.14, 70.85 4.49, 79.73 2.04" stroke="#3b82f6" stroke-width="2" fill="none"></path></g><g transform="translate(695.4771021864883 48.72746866909591) rotate(0 38.74959636936768 -0.03628484679063604)"><path d="M52.01 -10.26 C59.69 -7.16, 66.49 -4.79, 80.45 -0.2 M50.66 -8.42 C60.25 -5.15, 70.84 -1.57, 79.73 2.04" stroke="#3b82f6" stroke-width="2" fill="none"></path></g></g><g stroke-linecap="round"><g transform="translate(964.9762949252236 46.05574537097863) rotate(0 33.70176502267128 -0.36707050208417513)"><path d="M0.47 0.97 C11.58 0.82, 55.19 -0.83, 66.51 -1.26 M-0.74 0.43 C10.75 0.48, 57.28 0.21, 68.75 0" stroke="#3b82f6" stroke-width="2" fill="none"></path></g><g transform="translate(964.9762949252236 46.05574537097863) rotate(0 33.70176502267128 -0.36707050208417513)"><path d="M42.29 9.07 C47.87 9.04, 55.26 2.72, 69.63 -0.95 M41.06 11.48 C52.02 6.4, 62.83 3.11, 69.56 -0.77" stroke="#3b82f6" stroke-width="2" fill="none"></path></g><g transform="translate(964.9762949252236 46.05574537097863) rotate(0 33.70176502267128 -0.36707050208417513)"><path d="M42.06 -11.45 C47.64 -5.6, 55.09 -6.04, 69.63 -0.95 M40.83 -9.04 C51.77 -6.25, 62.67 -1.66, 69.56 -0.77" stroke="#3b82f6" stroke-width="2" fill="none"></path></g></g></svg>