<svg version="1.1" xmlns="http://www.w3.org/2000/svg" viewBox="0 0 1064 454" width="1064" height="454">
  <!-- svg-source:excalidraw -->
  
  <defs>
    <style>
      @font-face {
        font-family: "Virgil";
        src: url("https://excalidraw.com/Virgil.woff2");
      }
      @font-face {
        font-family: "Cascadia";
        src: url("https://excalidraw.com/Cascadia.woff2");
      }
    </style>
  </defs>
  <rect x="0" y="0" width="1064" height="454" fill="#0d1117"></rect><g stroke-linecap="round" transform="translate(10 346) rotate(0 118.5 49)"><path d="M1.75 0.88 L236.02 -0.93 L238.04 96.93 L0.28 96.97" stroke="none" stroke-width="0" fill="#1f4d2b"></path><path d="M-1.38 1.5 C69.03 0.38, 139.45 1.71, 238.22 1.38 M-0.32 0.81 C69.85 -1.52, 138.18 -0.89, 236.7 0.31 M235.01 1.05 C235.3 22.61, 237.83 44.84, 235.88 97.97 M237.5 0.04 C237.71 34.22, 237.58 66.9, 236.34 97.95 M235.72 98.22 C160.35 100.91, 84.67 99.29, -0.56 96.9 M236.63 98.32 C168.85 98.21, 101.05 97.36, -0.47 97.44 M-0.1 97.3 C1.12 66.58, 0.26 37.2, -1.3 -1.38 M0.21 98.93 C0.22 60.56, 0.85 20.7, -0.08 -0.44" stroke="#3fb950" stroke-width="2" fill="none"></path></g><g transform="translate(57.30006408691406 370) rotate(0 71.19993591308594 25)"><text x="71.19993591308594" y="NaN" font-family="Virgil, Segoe UI Emoji" font-size="20px" fill="#fff" text-anchor="middle" style="white-space: pre;" direction="ltr">Subject</text><text x="71.19993591308594" y="NaN" font-family="Virgil, Segoe UI Emoji" font-size="20px" fill="#fff" text-anchor="middle" style="white-space: pre;" direction="ltr">(User, Service)</text></g><g stroke-linecap="round" transform="translate(10 10) rotate(0 151.5 49)"><path d="M1.24 0.89 L301.26 -0.74 L304.12 98.91 L0.75 96.94" stroke="none" stroke-width="0" fill="#5c3a10"></path><path d="M-0.68 -1.3 C66.15 -0.76, 130.59 1.47, 301.92 -0.94 M0.37 -0.08 C116.5 -0.1, 232.87 -0.9, 302.42 0.19 M302.14 1.91 C304.43 27.13, 300.91 52.56, 301.12 98.3 M302.19 0.96 C303.37 34.04, 304.26 68.75, 303.39 98.04 M303.42 98.62 C188.37 97.02, 75.99 95.57, 0.43 99.2 M303.59 97.63 C191.71 98.77, 80.1 98.79, 0.06 98.5 M-0.24 97.76 C1.42 73.48, 1.5 47.3, 0.63 0.42 M0.74 97.86 C0.3 63.53, 0.56 29, 0.78 0.59" stroke="#f0883e" stroke-width="2" fill="none"></path></g><g transform="translate(56.66007995605469 34) rotate(0 104.83992004394531 25)"><text x="104.83992004394531" y="NaN" font-family="Virgil, Segoe UI Emoji" font-size="20px" fill="#fff" text-anchor="middle" style="white-space: pre;" direction="ltr">Action</text><text x="104.83992004394531" y="NaN" font-family="Virgil, Segoe UI Emoji" font-size="20px" fill="#fff" text-anchor="middle" style="white-space: pre;" direction="ltr">(Read, Write, Delete)</text></g><g stroke-linecap="round" transform="translate(10 178) rotate(0 124 49)"><path d="M0.22 -1.82 L247.26 -0.89 L248.96 98.32 L-0.13 96.13" stroke="none" stroke-width="0" fill="#0d2c5a"></path><path d="M-0.71 -0.28 C96.54 0.85, 193.61 -0.1, 249.59 1.43 M0.66 -0.39 C76.67 -1.72, 153.32 -1.07, 247.63 -0.28 M249.65 -0.2 C249.07 30.86, 247.22 60.3, 246.74 99.27 M247.61 -0.16 C247.57 25.98, 247.8 50.66, 248.92 98.35 M248.11 96.94 C178.85 96.47, 107.02 98.7, 0.5 97.04 M248.08 98.06 C180.08 98.13, 111.49 98.22, 0.17 97.29 M-1.72 97.85 C1.65 70.43, 1.43 45.38, 0.56 -0.06 M0.86 98.57 C0.79 71.65, 0.4 46.92, 0.52 0.43" stroke="#58a6ff" stroke-width="2" fill="none"></path></g><g transform="translate(58.270050048828125 202) rotate(0 75.72994995117188 25)"><text x="75.72994995117188" y="NaN" font-family="Virgil, Segoe UI Emoji" font-size="20px" fill="#fff" text-anchor="middle" style="white-space: pre;" direction="ltr">Resource</text><text x="75.72994995117188" y="NaN" font-family="Virgil, Segoe UI Emoji" font-size="20px" fill="#fff" text-anchor="middle" style="white-space: pre;" direction="ltr">(File, API, Row)</text></g><g stroke-linecap="round" transform="translate(430 190.5) rotate(0 107.5 36.5)"><path d="M-1.8 -1.5 L214.65 -0.61 L216.84 72.63 L-1.91 72.5" stroke="none" stroke-width="0" fill="#3a1d6e"></path><path d="M-1.38 0.82 C69.09 0.28, 139.49 -0.02, 214.43 0.32 M0.61 -0.83 C80.72 1.98, 160.54 1.92, 215.3 0.66 M216.53 -1.64 C214.49 22.83, 215.3 45.58, 214 73.33 M215.23 0.91 C215.2 28.75, 214.79 57.25, 215.93 72.72 M215.89 73.57 C170.43 72.48, 127.44 74.88, 0.9 72.12 M214.78 72.32 C148.91 72.96, 83.55 74.45, -0.84 73.7 M0.48 73.39 C-2.09 45.67, 0.2 21.37, 1.98 0.57 M0.63 72.88 C0.21 48.76, -0.25 24.69, 0 0.6" stroke="#a371f7" stroke-width="2" fill="none"></path></g><g transform="translate(477.07005310058594 214.5) rotate(0 60.42994689941406 12.5)"><text x="60.42994689941406" y="NaN" font-family="Virgil, Segoe UI Emoji" font-size="20px" fill="#fff" text-anchor="middle" style="white-space: pre;" direction="ltr">Policy Engine</text></g><g stroke-linecap="round" transform="translate(850 190.5) rotate(0 102 36.5)"><path d="M0.98 -1.05 L202.06 -0.32 L203.62 73.92 L0.62 74.99" stroke="none" stroke-width="0" fill="#1f4d2b"></path><path d="M-1.57 1.54 C53.54 -1.19, 105.16 -1.87, 202.62 0.36 M0.17 -0.48 C69.21 0.29, 139.32 0.55, 204.3 -0.48 M202.71 0.06 C206.29 25.35, 203.85 49.55, 205.97 74.4 M204.19 0.06 C204.82 26.69, 205.14 52.43, 203.44 73.32 M202.37 73.39 C137.85 73.69, 72.7 73.38, -1.05 72.83 M204.55 72.45 C143.53 72.87, 81.69 73.28, -0.04 72.75 M0.69 71.94 C1.46 53.61, -0.74 33.39, 1.91 -0.75 M0.09 73.18 C-0.59 48.98, -0.25 23, -0.87 0.58" stroke="#3fb950" stroke-width="2" fill="none"></path></g><g transform="translate(890.920036315918 214.5) rotate(0 61.07996368408203 12.5)"><text x="61.07996368408203" y="NaN" font-family="Virgil, Segoe UI Emoji" font-size="20px" fill="#fff" text-anchor="middle" style="white-space: pre;" direction="ltr">Allow / Deny</text></g><g stroke-linecap="round"><g transform="translate(253.00000000000003 379.0882930314824) rotate(0 85.49999999999996 -68.63965924785498)"><path d="M0.74 0.79 C29.42 -21.73, 143.05 -112.91, 171.55 -136.11 M-0.33 0.15 C28.28 -22.58, 142.27 -114.64, 170.89 -137.62" stroke="#3fb950" stroke-width="2" fill="none"></path></g><g transform="translate(253.00000000000003 379.0882930314824) rotate(0 85.49999999999996 -68.63965924785498)"><path d="M156.68 -111.03 C161.52 -117.44, 161.67 -127.13, 170.66 -136.33 M155.63 -112.85 C159.85 -118.69, 162.5 -123.01, 169.91 -137.75" stroke="#3fb950" stroke-width="2" fill="none"></path></g><g transform="translate(253.00000000000003 379.0882930314824) rotate(0 85.49999999999996 -68.63965924785498)"><path d="M143.81 -127.01 C151.84 -129.39, 155.3 -134.96, 170.66 -136.33 M142.75 -128.83 C149.81 -131.08, 155.41 -131.73, 169.91 -137.75" stroke="#3fb950" stroke-width="2" fill="none"></path></g></g><g stroke-linecap="round"><g transform="translate(319 83.04375057238957) rotate(0 52.810382303910785 59.48334599655032)"><path d="M-0.7 0.38 C16.89 20.3, 88.84 99.68, 106.4 119.38 M1.13 -0.46 C18.55 19.1, 88.21 97.45, 105.86 117.47" stroke="#f0883e" stroke-width="2" fill="none"></path></g><g transform="translate(319 83.04375057238957) rotate(0 52.810382303910785 59.48334599655032)"><path d="M80.12 104.47 C89.93 106.97, 98.32 114.04, 107.71 118.74 M78.53 103.12 C89.91 109.11, 99.49 113.87, 104.87 117.99" stroke="#f0883e" stroke-width="2" fill="none"></path></g><g transform="translate(319 83.04375057238957) rotate(0 52.810382303910785 59.48334599655032)"><path d="M95.49 90.86 C99.58 98.32, 102.29 110.43, 107.71 118.74 M93.89 89.51 C99.42 100.61, 103.09 110.61, 104.87 117.99" stroke="#f0883e" stroke-width="2" fill="none"></path></g></g><g stroke-linecap="round"><g transform="translate(264 227.00899469477693) rotate(0 79.99999999999999 -0.0004956670029762633)"><path d="M-0.37 -0.72 C26.54 -0.79, 134.44 0.62, 161.04 0.63 M1.63 1.52 C28.52 1.61, 133.96 -0.96, 160.64 -1.16" stroke="#58a6ff" stroke-width="2" fill="none"></path></g><g transform="translate(264 227.00899469477693) rotate(0 79.99999999999999 -0.0004956670029762633)"><path d="M131.43 11.3 C140.95 5.53, 146.18 3.73, 160.41 -0.5 M132.38 10 C141.17 5.76, 149.66 2.78, 160.57 -2.02" stroke="#58a6ff" stroke-width="2" fill="none"></path></g><g transform="translate(264 227.00899469477693) rotate(0 79.99999999999999 -0.0004956670029762633)"><path d="M131.09 -9.22 C140.88 -9.59, 146.2 -5.99, 160.41 -0.5 M132.04 -10.52 C140.83 -8.88, 149.42 -5.99, 160.57 -2.02" stroke="#58a6ff" stroke-width="2" fill="none"></path></g></g><g stroke-linecap="round"><g transform="translate(651 227.0073) rotate(0 96.50000000000006 0)"><path d="M0.15 0.93 C32.57 0.66, 161.76 -0.39, 193.73 -0.7 M-1.24 0.37 C31.16 0.16, 160.57 0.54, 193.17 0.47" stroke="#3fb950" stroke-width="2" fill="none"></path></g><g transform="translate(651 227.0073) rotate(0 96.50000000000006 0)"><path d="M166.51 11.94 C170.28 6.6, 176.51 4.96, 192.31 -0.83 M165.37 11.16 C174.55 7.89, 185.02 3.05, 193.31 -0.13" stroke="#3fb950" stroke-width="2" fill="none"></path></g><g transform="translate(651 227.0073) rotate(0 96.50000000000006 0)"><path d="M166.53 -8.59 C170.45 -9.15, 176.68 -6.02, 192.31 -0.83 M165.39 -9.36 C174.45 -5.47, 184.92 -3.14, 193.31 -0.13" stroke="#3fb950" stroke-width="2" fill="none"></path></g></g></svg>