<svg version="1.1" xmlns="http://www.w3.org/2000/svg" viewBox="0 0 1383.8729245881152 549" width="1383.8729245881152" height="549">
  <!-- svg-source:excalidraw -->
  
  <defs>
    <style>
      @font-face {
        font-family: "Virgil";
        src: url("https://excalidraw.com/Virgil.woff2");
      }
      @font-face {
        font-family: "Cascadia";
        src: url("https://excalidraw.com/Cascadia.woff2");
      }
    </style>
  </defs>
  <rect x="0" y="0" width="1383.8729245881152" height="549" fill="#0d1117"></rect><g stroke-opacity="0.6" fill-opacity="0.6" stroke-linecap="round" transform="translate(10 48.80354049359528) rotate(0 162 193)"><path d="M-0.46 1.15 L324.47 0.68 L325.4 384.48 L1.6 385.09" stroke="none" stroke-width="0" fill="#161b22"></path><path d="M0.62 1.33 C74.9 -1.65, 153.05 -2.43, 324.63 0.99 M323.19 -0.39 C325.37 114.18, 325.88 229.64, 324.91 386.57 M323.56 386.1 C197.76 387.5, 71.56 386.67, -0.6 385.24 M0.23 385.54 C-2.28 246.29, -2.25 108.21, 0.56 1.17" stroke="#30363d" stroke-width="2.5" fill="none" stroke-dasharray="8 10"></path></g><g transform="translate(26 58.80354049359528) rotate(0 33.767982482910156 11.25)"><text x="0" y="NaN" font-family="Virgil, Segoe UI Emoji" font-size="18px" fill="#8b949e" text-anchor="start" style="white-space: pre;" direction="ltr">Sources</text></g><g stroke-opacity="0.6" fill-opacity="0.6" stroke-linecap="round" transform="translate(354.1823532816106 54.97353168858956) rotate(0 298.81410866226486 196.5375057756396)"><path d="M0.6 -0.38 L597.08 0.05 L598.65 393.3 L-0.54 392.25" stroke="none" stroke-width="0" fill="#161b22"></path><path d="M0.53 -0.3 C238.86 -1.24, 477.06 -1.2, 597.79 0.69 M596.85 -0.34 C600.27 112.86, 600.08 226.97, 597.95 393.37 M597.31 392.78 C426.69 391.16, 255.48 390.94, -0.8 392.96 M-0.28 392.81 C0.04 239.39, 1.56 85.1, 0.43 -0.77" stroke="#30363d" stroke-width="2.5" fill="none" stroke-dasharray="8 10"></path></g><g transform="translate(381.82402333358147 82.87602252791368) rotate(0 37.853965759277344 11.25)"><text x="0" y="NaN" font-family="Virgil, Segoe UI Emoji" font-size="18px" fill="#8b949e" text-anchor="start" style="white-space: pre;" direction="ltr">Flink Job</text></g><g stroke-opacity="0.6" fill-opacity="0.6" stroke-linecap="round" transform="translate(1027.8729245881152 10) rotate(0 173 264.5)"><path d="M1.7 0.68 L345.94 1.53 L347.82 528.63 L-0.83 529.02" stroke="none" stroke-width="0" fill="#161b22"></path><path d="M-1.03 -1.07 C78.55 -0.98, 155.45 0.54, 345.3 1.22 M345.72 0.07 C346.26 159.73, 347.41 318.51, 346.49 528.77 M347.03 527.9 C244.1 531.46, 141.07 530.9, 0.39 528.2 M0.3 529 C1.78 409.13, 2.18 287.92, -0.73 -0.64" stroke="#30363d" stroke-width="2.5" fill="none" stroke-dasharray="8 10"></path></g><g transform="translate(1043.8729245881152 20) rotate(0 20.915977478027344 11.25)"><text x="0" y="NaN" font-family="Virgil, Segoe UI Emoji" font-size="18px" fill="#8b949e" text-anchor="start" style="white-space: pre;" direction="ltr">Sinks</text></g><g stroke-linecap="round" transform="translate(70 301.8035404935953) rotate(0 102 36.5)"><path d="M0.44 -1.5 L202.67 1.46 L202 72.21 L-1.79 73.13" stroke="none" stroke-width="0" fill="#5c3a10"></path><path d="M0.94 -0.04 C80.15 -0.58, 158.27 -3.26, 205.43 0.35 M-0.32 -0.67 C46.45 -0.84, 94.09 -1.33, 203.18 0.04 M205.4 1.47 C205.89 25.62, 204.93 51.65, 203.15 74.28 M204.78 0 C202.64 17.52, 204.44 35.93, 204.98 73.36 M203.21 71.46 C138.2 71.42, 73.95 70.19, -1.08 73.68 M204.78 73.7 C156.15 74.7, 106.8 74.07, 0.56 73.6 M-1.44 73.55 C1.36 47.96, 1.58 20.21, -1.57 -0.67 M-0.95 73.68 C0.39 52.9, 1.15 33.72, 0.71 -0.4" stroke="#f0883e" stroke-width="2" fill="none"></path></g><g transform="translate(106.65005493164062 325.8035404935953) rotate(0 65.34994506835938 12.5)"><text x="65.34994506835938" y="NaN" font-family="Virgil, Segoe UI Emoji" font-size="20px" fill="#fff" text-anchor="middle" style="white-space: pre;" direction="ltr">Kafka Topics</text></g><g stroke-linecap="round" transform="translate(70 158.80354049359528) rotate(0 91 36.5)"><path d="M1.14 -0.38 L183.58 0.81 L181.57 72.61 L-0.54 71.39" stroke="none" stroke-width="0" fill="#5c3a10"></path><path d="M-0.21 0.66 C66.84 1.75, 138.12 2.15, 182.82 -0.41 M0.53 0.8 C68.46 -0.15, 138.34 -0.95, 182.45 -0.43 M181.7 0.34 C181.77 17.54, 180.92 34.6, 183.48 72.4 M181.85 -0.49 C181.25 29.49, 182.9 56.33, 182.89 72.63 M181.33 74.65 C145.31 75.48, 108.86 76.24, -1.69 72.2 M182.73 72.27 C113.97 71.91, 46.77 71.65, 0.06 73.86 M0.96 74.35 C0.15 55.22, -1.22 36.2, 0.74 -0.85 M0.69 73.53 C0.51 50.35, 0.35 28.88, 0.08 0.56" stroke="#f0883e" stroke-width="2" fill="none"></path></g><g transform="translate(100.8200454711914 182.80354049359528) rotate(0 60.179954528808594 12.5)"><text x="60.179954528808594" y="NaN" font-family="Virgil, Segoe UI Emoji" font-size="20px" fill="#fff" text-anchor="middle" style="white-space: pre;" direction="ltr">CDC Stream</text></g><g stroke-linecap="round" transform="translate(537.5426747132396 206.12288845960074) rotate(0 90 49)"><path d="M-0.75 1.94 L180.94 1.85 L179.03 96.79 L1.25 99.59" stroke="none" stroke-width="0" fill="#3a1d6e"></path><path d="M1.86 -0.23 C56.43 -1.81, 116.21 -1.43, 179.35 -0.12 M0.95 -0.27 C43.13 -1.39, 85.17 -0.81, 180.12 -0.74 M178.26 1.49 C179.23 32.73, 178.18 65.05, 180.03 98.79 M180.95 -0.95 C180.56 28.03, 181.42 58.12, 179.27 98.23 M179.7 97.96 C115.31 96.83, 53.86 98.43, 0.98 96.8 M179.24 98.92 C121.89 98.85, 65.71 98.64, 0.2 97.56 M-1.82 96.25 C0.49 60.01, 2.73 22.23, -0.37 -1.99 M0.28 97.62 C-0.65 69.76, -0.85 40.4, -0.04 0.9" stroke="#a371f7" stroke-width="2" fill="none"></path></g><g transform="translate(577.9927250672436 230.12288845960074) rotate(0 49.549949645996094 25)"><text x="49.549949645996094" y="NaN" font-family="Virgil, Segoe UI Emoji" font-size="20px" fill="#fff" text-anchor="middle" style="white-space: pre;" direction="ltr">Stateful</text><text x="49.549949645996094" y="NaN" font-family="Virgil, Segoe UI Emoji" font-size="20px" fill="#fff" text-anchor="middle" style="white-space: pre;" direction="ltr">Operators</text></g><g stroke-linecap="round" transform="translate(497.86669502668616 79.2926556443253) rotate(0 135 49)"><path d="M-0.22 0.41 L268.66 1.51 L271.4 98.5 L-0.68 96.21" stroke="none" stroke-width="0" fill="#0d2c5a"></path><path d="M-0.7 1.27 C97.65 -2.01, 192.09 -0.87, 269.22 0.09 M-0.23 -0.03 C91.53 -0.81, 181.99 -0.62, 270.44 -0.05 M270.46 -1.53 C269.3 38.04, 268.22 76.14, 268.62 97.79 M270.45 0.19 C270.23 24.05, 270.17 48.24, 270.74 98.45 M269.62 99.4 C185.36 96.39, 101.73 95.29, 0.47 99.12 M269.36 97.83 C165.79 98.3, 62.45 97.84, -0.33 97.77 M1.85 98.21 C0.47 59.95, 1.7 19.47, 1.68 -1.26 M0.08 98.29 C0.68 70.97, 0.76 46.59, 0.63 -0.98" stroke="#58a6ff" stroke-width="2" fill="none"></path></g><g transform="translate(534.6467624705338 103.2926556443253) rotate(0 98.21993255615234 25)"><text x="98.21993255615234" y="NaN" font-family="Virgil, Segoe UI Emoji" font-size="20px" fill="#fff" text-anchor="middle" style="white-space: pre;" direction="ltr">Checkpoints</text><text x="98.21993255615234" y="NaN" font-family="Virgil, Segoe UI Emoji" font-size="20px" fill="#fff" text-anchor="middle" style="white-space: pre;" direction="ltr">(async to S3/HDFS)</text></g><g stroke-linecap="round" transform="translate(1087.8729245881152 263) rotate(0 107.5 36.5)"><path d="M0.25 0.26 L214.27 0.51 L214.53 73.16 L-0.67 72.43" stroke="none" stroke-width="0" fill="#1f4d2b"></path><path d="M0.32 1.38 C73.21 0.09, 144.61 0.79, 215.62 -1.12 M0.75 0.45 C44.3 1.24, 90.5 0.27, 215.46 -0.72 M214.99 -0.96 C217.26 17.7, 214.11 40.16, 215.57 73.84 M214.24 0.02 C214.61 15.37, 215.76 31.8, 215.73 72.92 M214.01 71.59 C135.85 73, 52.54 74.06, -0.86 74.37 M215.26 72.56 C129.6 71.94, 45.88 72.69, 0.18 72.6 M1.18 74.71 C1.74 49.58, -0.71 27.09, -1.75 -1.47 M0.25 72.54 C-0.26 50.35, -0.94 28.54, -0.33 -0.38" stroke="#3fb950" stroke-width="2" fill="none"></path></g><g transform="translate(1129.212981961162 287) rotate(0 66.15994262695312 12.5)"><text x="66.15994262695312" y="NaN" font-family="Virgil, Segoe UI Emoji" font-size="20px" fill="#fff" text-anchor="middle" style="white-space: pre;" direction="ltr">Elasticsearch</text></g><g stroke-linecap="round" transform="translate(1087.8729245881152 120) rotate(0 113 36.5)"><path d="M1.37 0.69 L225.4 1.71 L225.1 74.72 L0.17 72.78" stroke="none" stroke-width="0" fill="#1f4d2b"></path><path d="M1.39 -1.31 C61.22 -1.6, 120.97 -2.8, 224.7 -1.49 M0.04 -0.03 C73.5 -1.1, 147.76 -0.45, 226.59 0.42 M227.24 1.47 C227.68 23.93, 227.08 50.98, 225.85 71.33 M225.24 -0.78 C224.95 22.25, 225.73 46.01, 226.44 72.58 M227.3 73.04 C176.89 71.82, 127.98 70.83, 1.08 71.44 M225.48 73.64 C139.26 71.79, 51.96 72.35, 0.43 73.73 M-1.85 71.74 C0.47 57.47, 0.85 39.59, -1.21 -1.68 M0.77 72.35 C-0.27 44.78, -1.34 19.45, -0.82 0.38" stroke="#3fb950" stroke-width="2" fill="none"></path></g><g transform="translate(1118.1229856232715 144) rotate(0 82.74993896484375 12.5)"><text x="82.74993896484375" y="NaN" font-family="Virgil, Segoe UI Emoji" font-size="20px" fill="#fff" text-anchor="middle" style="white-space: pre;" direction="ltr">Data Warehouse</text></g><g stroke-linecap="round" transform="translate(1087.8729245881152 406) rotate(0 102 36.5)"><path d="M1.12 -1.88 L204.98 1.26 L204.83 71.61 L-2 71.13" stroke="none" stroke-width="0" fill="#1f4d2b"></path><path d="M-0.5 0.7 C70.41 2.4, 142.92 1.19, 204.35 -0.58 M-0.6 0.8 C74.52 -1.52, 149.1 -0.68, 204.89 -0.07 M204.99 -1.24 C205.63 17.13, 202.65 31.93, 204.57 74.01 M203.48 0.4 C204.11 28.64, 204.67 56.73, 203.9 73.62 M205.18 72.49 C126.18 71.33, 52.03 73.9, -0.23 72.05 M203.87 72.53 C131.05 72.25, 60.3 72.08, -0.12 73.25 M1.98 73.11 C-0.09 45.93, -0.72 19.37, 0.86 1.27 M-0.93 72.9 C-0.82 49.2, -1.19 25.63, -0.24 -0.42" stroke="#3fb950" stroke-width="2" fill="none"></path></g><g transform="translate(1124.5229795197558 430) rotate(0 65.34994506835938 12.5)"><text x="65.34994506835938" y="NaN" font-family="Virgil, Segoe UI Emoji" font-size="20px" fill="#fff" text-anchor="middle" style="white-space: pre;" direction="ltr">Kafka Topics</text></g><g stroke-linecap="round"><g transform="translate(280 345.8322782660822) rotate(0 125.77133735661982 -49.39373441561378)"><path d="M-0.2 0.07 C41.87 -16.49, 209.57 -82.22, 251.72 -98.74 M-1.76 -0.95 C40.23 -17.35, 208.48 -81.03, 250.86 -97.18" stroke="#f0883e" stroke-width="2" fill="none"></path></g><g transform="translate(280 345.8322782660822) rotate(0 125.77133735661982 -49.39373441561378)"><path d="M228.26 -77.29 C233.59 -80.37, 238.57 -85.02, 250.1 -95.83 M227.42 -77.27 C233.41 -83.4, 241.2 -88.47, 251.57 -96.52" stroke="#f0883e" stroke-width="2" fill="none"></path></g><g transform="translate(280 345.8322782660822) rotate(0 125.77133735661982 -49.39373441561378)"><path d="M220.97 -96.47 C228.16 -94.93, 234.89 -94.96, 250.1 -95.83 M220.13 -96.45 C228.24 -97.34, 238.04 -97.15, 251.57 -96.52" stroke="#f0883e" stroke-width="2" fill="none"></path></g></g><g stroke-linecap="round"><g transform="translate(258 212.844607689829) rotate(0 136.77133735661982 11.692656230178045)"><path d="M0.44 0.32 C45.88 4.05, 227.14 18.4, 272.66 22.3 M-0.78 -0.55 C45.03 3.29, 229.31 18.98, 274.91 23.27" stroke="#f0883e" stroke-width="2" fill="none"></path></g><g transform="translate(258 212.844607689829) rotate(0 136.77133735661982 11.692656230178045)"><path d="M246.46 29.53 C252.89 28.62, 263.99 25.83, 275.31 22.14 M246.64 30.53 C256 29.14, 266.99 25.49, 274.9 23.59" stroke="#f0883e" stroke-width="2" fill="none"></path></g><g transform="translate(258 212.844607689829) rotate(0 136.77133735661982 11.692656230178045)"><path d="M248.28 9.08 C254.15 14.37, 264.69 17.76, 275.31 22.14 M248.46 10.09 C257.25 15.93, 267.61 19.51, 274.9 23.59" stroke="#f0883e" stroke-width="2" fill="none"></path></g></g><g stroke-linecap="round"><g transform="translate(723.5426747132396 262.63341198265505) rotate(0 179.1651249374378 14.001250933812582)"><path d="M0.39 -1.1 C60.11 3.73, 299.41 23.46, 358.95 28.12 M-0.87 0.94 C58.69 6.06, 298.77 25.28, 358.33 29.71" stroke="#3fb950" stroke-width="2" fill="none"></path></g><g transform="translate(723.5426747132396 262.63341198265505) rotate(0 179.1651249374378 14.001250933812582)"><path d="M327.6 38.8 C339.87 33.67, 347.96 30.92, 357.09 27.77 M330.25 38.53 C339.2 35.71, 348.89 31.94, 357.63 30.17" stroke="#3fb950" stroke-width="2" fill="none"></path></g><g transform="translate(723.5426747132396 262.63341198265505) rotate(0 179.1651249374378 14.001250933812582)"><path d="M329.2 18.34 C340.75 20.43, 348.29 24.9, 357.09 27.77 M331.84 18.07 C340.3 22.31, 349.44 25.6, 357.63 30.17" stroke="#3fb950" stroke-width="2" fill="none"></path></g></g><g stroke-linecap="round"><g transform="translate(723.5426747132396 258.8200004418081) rotate(0 179.1651249374378 -53.51396692339429)"><path d="M-1 -0.46 C58.7 -18.17, 298.67 -88.28, 358.51 -105.92 M0.68 -1.74 C60.21 -19.79, 298.25 -89.7, 357.65 -107.46" stroke="#3fb950" stroke-width="2" fill="none"></path></g><g transform="translate(723.5426747132396 258.8200004418081) rotate(0 179.1651249374378 -53.51396692339429)"><path d="M332.78 -89.32 C343.24 -95.75, 350.48 -101.24, 356.76 -109.12 M333.58 -89.69 C340.6 -94.28, 348.25 -100.49, 357.84 -106.8" stroke="#3fb950" stroke-width="2" fill="none"></path></g><g transform="translate(723.5426747132396 258.8200004418081) rotate(0 179.1651249374378 -53.51396692339429)"><path d="M326.95 -109 C339.38 -108.93, 348.53 -107.96, 356.76 -109.12 M327.75 -109.37 C336.52 -107.7, 346.01 -107.72, 357.84 -106.8" stroke="#3fb950" stroke-width="2" fill="none"></path></g></g><g stroke-linecap="round"><g transform="translate(723.5426747132396 261.67811294994533) rotate(0 179.16512493743787 87.65364035950066)"><path d="M-0.87 1.07 C58.74 30.49, 297.5 147.15, 357.56 176.38 M0.88 0.59 C60.87 29.71, 300.12 145.8, 359.86 174.82" stroke="#3fb950" stroke-width="2" fill="none"></path></g><g transform="translate(723.5426747132396 261.67811294994533) rotate(0 179.16512493743787 87.65364035950066)"><path d="M331.81 170.45 C340.57 174.8, 349.43 173.31, 359 176.15 M330.74 171.68 C339.29 172.81, 349.37 173.61, 359.51 175.41" stroke="#3fb950" stroke-width="2" fill="none"></path></g><g transform="translate(723.5426747132396 261.67811294994533) rotate(0 179.16512493743787 87.65364035950066)"><path d="M340.77 151.99 C346.87 161.69, 353.11 165.63, 359 176.15 M339.7 153.22 C345.27 160.51, 352.34 167.51, 359.51 175.41" stroke="#3fb950" stroke-width="2" fill="none"></path></g></g></svg>