<svg version="1.1" xmlns="http://www.w3.org/2000/svg" viewBox="0 0 1040.721502105479 895.2419085437499" width="1040.721502105479" height="895.2419085437499">
  <!-- svg-source:excalidraw -->
  
  <defs>
    <style>
      @font-face {
        font-family: "Virgil";
        src: url("https://excalidraw.com/Virgil.woff2");
      }
      @font-face {
        font-family: "Cascadia";
        src: url("https://excalidraw.com/Cascadia.woff2");
      }
    </style>
  </defs>
  <rect x="0" y="0" width="1040.721502105479" height="895.2419085437499" fill="#1e1e2e"></rect><g stroke-opacity="0.6" fill-opacity="0.6" stroke-linecap="round" transform="translate(10 10) rotate(0 510.36075105273943 127.75)"><path d="M-1.23 0.41 L1018.89 1.08 L1022.32 256.83 L1.33 256.79" stroke="none" stroke-width="0" fill="#181825"></path><path d="M-0.22 -0.55 C404.42 -1.11, 808.82 -1.89, 1020.53 -0.04 M1020 -0.06 C1019.59 102.19, 1019.64 201.51, 1020.8 255.43 M1020.01 255.84 C701.54 257.92, 381.69 256.9, -0.58 255.66 M0.36 255.88 C-1.34 163.75, 1.76 71.01, -0.96 -1.28" stroke="#45475a" stroke-width="2.5" fill="none" stroke-dasharray="8 10"></path></g><g transform="translate(26 17.462486914684746) rotate(0 75.7979507446289 11.25)"><text x="0" y="NaN" font-family="Virgil, Segoe UI Emoji" font-size="18px" fill="#a6adc8" text-anchor="start" style="white-space: pre;" direction="ltr">Batch Processing</text></g><g stroke-opacity="0.6" fill-opacity="0.6" stroke-linecap="round" transform="translate(12.521110236018785 301.87683299145596) rotate(0 504.0471144045911 134)"><path d="M-1.97 0 L1009.19 0.68 L1006.54 266.13 L0 268.41" stroke="none" stroke-width="0" fill="#181825"></path><path d="M-0.79 -0.02 C263.11 -1.46, 527.45 -2.13, 1008.87 0.7 M1007.84 -0.23 C1006.26 72.41, 1006.19 147.76, 1007.84 267.34 M1008.21 268.67 C623.02 266.93, 237.8 265.89, 0.77 268.12 M0.02 268.95 C0.36 197.06, -0.76 125.86, -0.73 -1.57" stroke="#45475a" stroke-width="2.5" fill="none" stroke-dasharray="8 10"></path></g><g transform="translate(28.521110236018785 311.87683299145596) rotate(0 52.53297424316406 11.25)"><text x="0" y="NaN" font-family="Virgil, Segoe UI Emoji" font-size="18px" fill="#a6adc8" text-anchor="start" style="white-space: pre;" direction="ltr">Micro-Batch</text></g><g stroke-opacity="0.6" fill-opacity="0.6" stroke-linecap="round" transform="translate(11.976042783805724 604.7419085437499) rotate(0 499.231604658865 140.25)"><path d="M-1.2 -1.89 L996.57 1.68 L998.63 278.93 L-0.77 281.27" stroke="none" stroke-width="0" fill="#181825"></path><path d="M0.74 0.55 C297.87 3.04, 596.68 2.81, 998.78 0.4 M997.62 -0.04 C998.12 58.31, 997.92 118.17, 998.78 279.23 M997.78 280.79 C652.54 278.16, 305.84 277.24, -0.65 280.62 M-1.12 279.3 C-0.62 206.88, 1.99 133.96, 0.96 -1.07" stroke="#45475a" stroke-width="2.5" fill="none" stroke-dasharray="8 10"></path></g><g transform="translate(28.13791503367179 614.7419085437499) rotate(0 67.37396240234375 11.25)"><text x="0" y="NaN" font-family="Virgil, Segoe UI Emoji" font-size="18px" fill="#a6adc8" text-anchor="start" style="white-space: pre;" direction="ltr">True Streaming</text></g><g stroke-linecap="round" transform="translate(70 129.96248691468475) rotate(0 118.5 36.5)"><path d="M-0.93 0.35 L235.15 0.47 L237.46 72.59 L1.48 72.03" stroke="none" stroke-width="0" fill="#1e40af"></path><path d="M-1.05 -1.11 C61.11 -1.8, 121.87 -2.86, 235.51 1.58 M0.74 -0.73 C85.09 1.89, 169.61 0.71, 237.22 0.68 M238.25 1.28 C237.06 16.15, 239.39 34.02, 236.04 73.61 M237.26 0.39 C237.56 24.43, 237.28 46.18, 236.28 72.82 M236.64 73.52 C174.98 71.93, 109.26 73.21, -1.28 73.61 M237.4 73.82 C184.83 74.67, 130.93 75.13, 0.2 73.83 M-0.59 71.61 C-0.27 54.57, 0.77 39.17, -0.69 -1.69 M-0.29 72.06 C-0.3 54.44, 1.3 34.19, 0.66 -0.44" stroke="#3b82f6" stroke-width="2" fill="none"></path></g><g transform="translate(100.15007019042969 153.96248691468475) rotate(0 88.34992980957031 12.5)"><text x="88.34992980957031" y="NaN" font-family="Virgil, Segoe UI Emoji" font-size="20px" fill="#fff" text-anchor="middle" style="white-space: pre;" direction="ltr">Bounded Dataset</text></g><g stroke-linecap="round" transform="translate(421.79495039901565 133.05468506652562) rotate(0 106.79086980135958 36.5)"><path d="M0.36 0.82 L213.25 -1.99 L215.14 71.33 L0.52 72.12" stroke="none" stroke-width="0" fill="#5b21b6"></path><path d="M0.15 -0.87 C75.49 1.14, 149.96 -2.28, 212.6 -1.57 M-0.29 -0.14 C59.67 0.68, 120.2 0.39, 213.29 -0.74 M212.15 -0.59 C212.22 21.25, 213.99 42.81, 211.78 73.67 M213.1 0.88 C214.13 14.67, 214.24 31.53, 214.11 72.54 M212.97 73.9 C155.21 70.29, 97.93 71.49, 1.51 71.64 M213.86 73.12 C153.05 73.68, 94.15 74.03, -0.71 73.82 M0.72 71.11 C-1.21 49.03, -0.94 22.4, 0.41 -1.3 M-0.87 73.88 C1.06 57.88, 0.93 43.5, 0.67 -0.11" stroke="#7c3aed" stroke-width="2" fill="none"></path></g><g transform="translate(469.29588032000413 144.55468506652562) rotate(0 59.289939880371094 25)"><text x="59.289939880371094" y="NaN" font-family="Virgil, Segoe UI Emoji" font-size="20px" fill="#fff" text-anchor="middle" style="white-space: pre;" direction="ltr">Full </text><text x="59.289939880371094" y="NaN" font-family="Virgil, Segoe UI Emoji" font-size="20px" fill="#fff" text-anchor="middle" style="white-space: pre;" direction="ltr">Computation</text></g><g stroke-linecap="round" transform="translate(725.0963015132636 125.49217142058717) rotate(0 113 36.5)"><path d="M-0.07 -1.92 L227.78 0.19 L225.25 71.43 L1.46 73.24" stroke="none" stroke-width="0" fill="#2d6a4f"></path><path d="M-1.21 0.37 C66.69 0.18, 131.52 0.31, 226.82 0.73 M-0.45 0.78 C72.88 0.46, 143.54 0.16, 225.25 -0.1 M224.53 -0.94 C224.29 24.02, 225.8 50.34, 226.66 74 M226.53 -0.78 C227.38 23.41, 227.25 49.25, 226.42 72.1 M226.36 74.45 C175.75 74.49, 127.37 73.89, 0.67 74.69 M226.7 72.6 C173.62 71.98, 119.82 70.55, 0.15 72.51 M-1.13 71.29 C-1.76 57.6, -0.04 40.83, 0.03 -1.98 M0.68 73.76 C0.61 52.5, 0.27 32.95, 0.16 -0.12" stroke="#40916c" stroke-width="2" fill="none"></path></g><g transform="translate(762.0963778072089 149.49217142058717) rotate(0 75.99992370605469 12.5)"><text x="75.99992370605469" y="NaN" font-family="Virgil, Segoe UI Emoji" font-size="20px" fill="#fff" text-anchor="middle" style="white-space: pre;" direction="ltr">Derived Output</text></g><g stroke-linecap="round" transform="translate(72.52111023601879 424.37683299145596) rotate(0 90 36.5)"><path d="M-0.99 0.64 L181.46 1.23 L180.36 72.67 L1.49 74.39" stroke="none" stroke-width="0" fill="#1e40af"></path><path d="M-1.01 1.4 C66.58 1.5, 129.8 1.33, 178.6 -1.69 M-0.27 0.2 C69.8 1.62, 138.16 1.57, 180.48 0.77 M179.23 0.01 C179.82 30.41, 180.84 56.2, 178.59 71.58 M179.43 -0.78 C178.79 27.77, 180.68 55.84, 180.01 72.41 M181.15 74.51 C121.85 70.06, 61.89 72.34, -0.14 72.61 M180.94 72.05 C138.46 74.77, 96.63 74.91, 0.01 73.71 M1.25 71.22 C-0.03 46.66, 1.61 23.06, -0.24 -1.54 M-0.17 72.59 C-0.08 48.52, -0.4 21.77, 0.71 0.6" stroke="#3b82f6" stroke-width="2" fill="none"></path></g><g transform="translate(128.0211407535969 448.37683299145596) rotate(0 34.499969482421875 12.5)"><text x="34.499969482421875" y="NaN" font-family="Virgil, Segoe UI Emoji" font-size="20px" fill="#fff" text-anchor="middle" style="white-space: pre;" direction="ltr">Stream</text></g><g stroke-linecap="round" transform="translate(396.65176969647985 412.5193164265804) rotate(0 102 49)"><path d="M-1.31 -1.6 L203.57 1.81 L203.03 97.41 L-0.51 99.38" stroke="none" stroke-width="0" fill="#b45309"></path><path d="M0.6 0.42 C63.52 -0.9, 127.92 -0.3, 205.49 0.22 M0.87 -0.01 C72.7 -0.21, 146.65 0.18, 203.37 -0.28 M203.05 -1.61 C203.9 20.69, 203.64 38.39, 204.14 99.93 M203.61 0.94 C202.56 26.95, 202.89 52.12, 204.17 98.31 M202.31 98.18 C148.5 98.09, 91.52 96.62, 0.63 98.92 M204.34 98.05 C162.98 98.53, 121.38 99.23, 0.72 97.67 M0.7 99.46 C0.98 61.13, 0.98 20.12, 1.89 1.13 M0.91 98.19 C1.4 72.7, 1.04 47.48, 0.38 0.9" stroke="#d97706" stroke-width="2" fill="none"></path></g><g transform="translate(437.38182645917516 436.5193164265804) rotate(0 61.26994323730469 25)"><text x="61.26994323730469" y="NaN" font-family="Virgil, Segoe UI Emoji" font-size="20px" fill="#fff" text-anchor="middle" style="white-space: pre;" direction="ltr">Chop into</text><text x="61.26994323730469" y="NaN" font-family="Virgil, Segoe UI Emoji" font-size="20px" fill="#fff" text-anchor="middle" style="white-space: pre;" direction="ltr">Mini-Batches</text></g><g stroke-linecap="round" transform="translate(722.3911405269221 425.8129679047527) rotate(0 102 36.5)"><path d="M-0.93 0.25 L203.42 -0.36 L204.76 72.32 L0.85 73.53" stroke="none" stroke-width="0" fill="#5b21b6"></path><path d="M0.27 0.7 C54.66 -0.29, 107.65 -2.12, 203.17 0.4 M-0.44 0.57 C46.13 1.21, 92.83 0.84, 203.93 -0.3 M205.63 -0.59 C202.59 14.15, 204.78 31.45, 205.35 74.26 M204.83 0.08 C203.99 28.78, 202.61 57.21, 203.07 72.73 M203.44 71.65 C136.44 73.26, 68.24 75.17, 0.93 72.08 M204.75 73.24 C147.83 72.19, 91.43 71.77, 0.58 73.82 M-0.08 74.06 C-0.99 49.28, 1.36 21.36, 1.95 -1.7 M0.38 73.11 C0.01 47.2, -1.57 18.86, 0.16 -0.53" stroke="#7c3aed" stroke-width="2" fill="none"></path></g><g transform="translate(761.0911832515314 449.8129679047527) rotate(0 63.299957275390625 12.5)"><text x="63.299957275390625" y="NaN" font-family="Virgil, Segoe UI Emoji" font-size="20px" fill="#fff" text-anchor="middle" style="white-space: pre;" direction="ltr">Batch Engine</text></g><g stroke-linecap="round" transform="translate(72.13791503367179 714.7419085437499) rotate(0 102 49)"><path d="M0.12 1.94 L205.97 -1.78 L205.81 98.1 L0.09 99.21" stroke="none" stroke-width="0" fill="#1e40af"></path><path d="M-0.48 -0.82 C58.68 -1.69, 120.15 -1.28, 203.97 -1.78 M-0.19 0.64 C65.35 0.39, 131.19 1.38, 203.35 0.73 M203.03 -1.18 C204.81 35.93, 202.58 75.09, 204.93 98.87 M204.64 0.27 C203.7 28.78, 204.37 57.42, 204.16 98.65 M205.75 96.49 C150.34 98.42, 93.67 99.23, 0.47 99.44 M204.45 98.42 C148.25 95.97, 91.26 95.8, -0.73 98.59 M-0.89 98.47 C0.02 72.57, -1.61 42.69, 0.76 -1.5 M-0.22 98.41 C0.14 74.16, 1.51 51.52, 0.94 0.53" stroke="#3b82f6" stroke-width="2" fill="none"></path></g><g transform="translate(106.87796630320304 738.7419085437499) rotate(0 67.25994873046875 25)"><text x="67.25994873046875" y="NaN" font-family="Virgil, Segoe UI Emoji" font-size="20px" fill="#fff" text-anchor="middle" style="white-space: pre;" direction="ltr">Unbounded</text><text x="67.25994873046875" y="NaN" font-family="Virgil, Segoe UI Emoji" font-size="20px" fill="#fff" text-anchor="middle" style="white-space: pre;" direction="ltr">Event Stream</text></g><g stroke-linecap="round" transform="translate(399.69161041541804 711.6334808121472) rotate(0 91 49)"><path d="M0.32 -1.92 L183.97 0.01 L183.34 99.1 L-0.19 97.28" stroke="none" stroke-width="0" fill="#b45309"></path><path d="M-0.17 0.29 C53.95 -1.38, 105.14 -0.53, 180.67 0.26 M-0.9 -0.63 C42.91 -0.57, 85.6 0.41, 182.92 -0.31 M183.47 1.41 C181.58 35.1, 183.99 72.08, 183.7 99.16 M182.35 -0.78 C182.4 24.73, 181.68 48.21, 182.9 97.84 M181.3 96.81 C144.34 99.83, 102.82 99.78, 1.67 100 M182.68 98.6 C115.3 97.27, 48.39 98.2, -0.15 98.37 M-0.41 99.01 C-0.97 74.3, -0.23 53.73, -1.19 0.31 M-0.59 97.95 C0.92 61.72, -0.37 24.76, 0.2 0.37" stroke="#d97706" stroke-width="2" fill="none"></path></g><g transform="translate(441.02166565223445 735.6334808121472) rotate(0 49.669944763183594 25)"><text x="49.669944763183594" y="NaN" font-family="Virgil, Segoe UI Emoji" font-size="20px" fill="#fff" text-anchor="middle" style="white-space: pre;" direction="ltr">Per-Event</text><text x="49.669944763183594" y="NaN" font-family="Virgil, Segoe UI Emoji" font-size="20px" fill="#fff" text-anchor="middle" style="white-space: pre;" direction="ltr">Processing</text></g><g stroke-linecap="round" transform="translate(729.0807307273758 714.0723950611931) rotate(0 91 49)"><path d="M-0.84 -0.26 L182.76 1.62 L182.55 97.77 L-0.15 96.66" stroke="none" stroke-width="0" fill="#2d6a4f"></path><path d="M0.25 0.7 C41.96 -0.46, 86.73 -1.51, 183 1.04 M-0.77 0.74 C36.83 0.24, 76.11 0.59, 181.64 -0.83 M181.31 -1.44 C183.17 32.62, 181.83 69.93, 181.99 99.43 M182.75 0.32 C181.93 20.86, 181.98 41.3, 182.71 98.8 M181.63 98.17 C108.2 96.15, 36.05 96.31, 0.14 99.79 M182.75 97.69 C144.62 98.23, 107.69 97.12, -0.84 97.04 M-1.05 99.43 C-0.97 69.75, -1.55 40.88, 0 1.11 M-0.12 97.88 C0.54 72.99, 0.22 48.53, -0.46 0.09" stroke="#40916c" stroke-width="2" fill="none"></path></g><g transform="translate(768.590786269368 738.0723950611931) rotate(0 51.48994445800781 25)"><text x="51.48994445800781" y="NaN" font-family="Virgil, Segoe UI Emoji" font-size="20px" fill="#fff" text-anchor="middle" style="white-space: pre;" direction="ltr">Continuous</text><text x="51.48994445800781" y="NaN" font-family="Virgil, Segoe UI Emoji" font-size="20px" fill="#fff" text-anchor="middle" style="white-space: pre;" direction="ltr">Output</text></g><g stroke-linecap="round"><g transform="translate(313 168.7151197657589) rotate(0 51.39747519950784 -0.9318144233937176)"><path d="M-0.81 -1.02 C16.21 -1.22, 85.61 -2.2, 102.94 -2.22 M0.96 1.06 C17.77 1.12, 85.12 -0.18, 102.06 -0.86" stroke="#94a3b8" stroke-width="2" fill="none"></path></g><g transform="translate(313 168.7151197657589) rotate(0 51.39747519950784 -0.9318144233937176)"><path d="M72.47 10.42 C83.88 6.95, 95.93 0.63, 101.4 -1.75 M73.72 10.78 C83.35 6.13, 90.85 3.89, 101.36 -1.41" stroke="#94a3b8" stroke-width="2" fill="none"></path></g><g transform="translate(313 168.7151197657589) rotate(0 51.39747519950784 -0.9318144233937176)"><path d="M71.9 -10.1 C83.35 -6.05, 95.61 -4.86, 101.4 -1.75 M73.15 -9.73 C82.83 -8.27, 90.51 -4.39, 101.36 -1.41" stroke="#94a3b8" stroke-width="2" fill="none"></path></g></g><g stroke-linecap="round"><g transform="translate(641.3766900017348 165.30635324382962) rotate(0 38.8598057557644 0.19130828572804148)"><path d="M0.31 1.07 C13.1 1.11, 64.75 0.46, 77.77 0.49 M-0.99 0.59 C11.56 0.82, 63.68 2.28, 76.85 2.09" stroke="#94a3b8" stroke-width="2" fill="none"></path></g><g transform="translate(641.3766900017348 165.30635324382962) rotate(0 38.8598057557644 0.19130828572804148)"><path d="M50.35 12.16 C59.61 9.35, 71.82 3.49, 78.8 2.81 M48.42 12.61 C55.31 10.33, 61.56 6.9, 76.81 3.08" stroke="#94a3b8" stroke-width="2" fill="none"></path></g><g transform="translate(641.3766900017348 165.30635324382962) rotate(0 38.8598057557644 0.19130828572804148)"><path d="M50.54 -8.36 C59.77 -3.28, 71.9 -1.23, 78.8 2.81 M48.61 -7.91 C55.31 -5.75, 61.51 -4.75, 76.81 3.08" stroke="#94a3b8" stroke-width="2" fill="none"></path></g></g><g stroke-linecap="round"><g transform="translate(258.5211102360188 461.06830648563556) rotate(0 66.06532973023052 0.12676837970186838)"><path d="M-0.39 -0.21 C21.43 -0.13, 109.51 0.71, 131.45 0.91 M1.61 -1.36 C23.77 -1.67, 111.8 -0.94, 133.8 -0.87" stroke="#94a3b8" stroke-width="2" fill="none"></path></g><g transform="translate(258.5211102360188 461.06830648563556) rotate(0 66.06532973023052 0.12676837970186838)"><path d="M105.2 8.09 C116.37 4.3, 126.26 1.41, 134.75 -1.11 M105.75 8.48 C112.23 6.09, 117.9 4.42, 133.65 -0.7" stroke="#94a3b8" stroke-width="2" fill="none"></path></g><g transform="translate(258.5211102360188 461.06830648563556) rotate(0 66.06532973023052 0.12676837970186838)"><path d="M105.32 -12.43 C116.52 -9.13, 126.37 -4.92, 134.75 -1.11 M105.87 -12.04 C112.32 -9.66, 117.97 -6.56, 133.65 -0.7" stroke="#94a3b8" stroke-width="2" fill="none"></path></g></g><g stroke-linecap="round"><g transform="translate(606.6517696964798 461.79137585176034) rotate(0 54.86968541522111 0.13326676665590043)"><path d="M-0.11 0.11 C18.22 0.03, 91.55 -1, 109.96 -0.84 M-1.63 -0.88 C16.57 -0.82, 90.54 0.12, 109.12 0.11" stroke="#94a3b8" stroke-width="2" fill="none"></path></g><g transform="translate(606.6517696964798 461.79137585176034) rotate(0 54.86968541522111 0.13326676665590043)"><path d="M81.04 10.54 C87.4 8.23, 98.87 4.44, 109.9 -1 M81 10.61 C89.29 7.38, 96.86 3.56, 109.14 0.14" stroke="#94a3b8" stroke-width="2" fill="none"></path></g><g transform="translate(606.6517696964798 461.79137585176034) rotate(0 54.86968541522111 0.13326676665590043)"><path d="M81.19 -9.98 C87.43 -6.22, 98.87 -3.95, 109.9 -1 M81.14 -9.91 C89.4 -7.37, 96.93 -5.42, 109.14 0.14" stroke="#94a3b8" stroke-width="2" fill="none"></path></g></g><g stroke-linecap="round"><g transform="translate(282.1379150336718 761.2517927264871) rotate(0 55.77684769087311 0.7478009942797854)"><path d="M-0.83 1.12 C17.58 1.43, 92.07 1.61, 110.9 1.53 M0.93 0.66 C19.69 1.21, 94.81 2.95, 113.27 3.08" stroke="#94a3b8" stroke-width="2" fill="none"></path></g><g transform="translate(282.1379150336718 761.2517927264871) rotate(0 55.77684769087311 0.7478009942797854)"><path d="M86.77 11.78 C94.53 10.77, 102.53 6.65, 115.12 3.7 M84.68 12.98 C92.48 9.05, 102.26 7.56, 114.08 3.76" stroke="#94a3b8" stroke-width="2" fill="none"></path></g><g transform="translate(282.1379150336718 761.2517927264871) rotate(0 55.77684769087311 0.7478009942797854)"><path d="M87.11 -8.73 C94.7 -2.85, 102.58 -0.06, 115.12 3.7 M85.02 -7.53 C92.74 -5.42, 102.43 -0.86, 114.08 3.76" stroke="#94a3b8" stroke-width="2" fill="none"></path></g></g><g stroke-linecap="round"><g transform="translate(587.6916104154179 762.7077901617957) rotate(0 67.69456015597888 -0.8574437668800527)"><path d="M-0.15 -0.95 C22.23 -1.29, 111.66 -1.68, 134.43 -1.73 M-1.68 1.16 C21.05 1, 113.64 0.55, 136.64 -0.2" stroke="#94a3b8" stroke-width="2" fill="none"></path></g><g transform="translate(587.6916104154179 762.7077901617957) rotate(0 67.69456015597888 -0.8574437668800527)"><path d="M107.03 8.93 C117.37 9, 126.93 4.93, 135.81 -0.64 M109 9.97 C116.64 7.46, 123.55 5.44, 135.99 0.17" stroke="#94a3b8" stroke-width="2" fill="none"></path></g><g transform="translate(587.6916104154179 762.7077901617957) rotate(0 67.69456015597888 -0.8574437668800527)"><path d="M106.69 -11.59 C117.18 -5.07, 126.85 -2.69, 135.81 -0.64 M108.65 -10.55 C116.49 -7.72, 123.5 -4.4, 135.99 0.17" stroke="#94a3b8" stroke-width="2" fill="none"></path></g></g></svg>