<svg version="1.1" xmlns="http://www.w3.org/2000/svg" viewBox="0 0 1028.4639434814453 1600.412516791034" width="1028.4639434814453" height="1600.412516791034">
  <!-- svg-source:excalidraw -->
  
  <defs>
    <style>
      @font-face {
        font-family: "Virgil";
        src: url("https://excalidraw.com/Virgil.woff2");
      }
      @font-face {
        font-family: "Cascadia";
        src: url("https://excalidraw.com/Cascadia.woff2");
      }
    </style>
  </defs>
  <rect x="0" y="0" width="1028.4639434814453" height="1600.412516791034" fill="#0d1117"></rect><g stroke-opacity="0.6" fill-opacity="0.6" stroke-linecap="round" transform="translate(92.36157121141082 10) rotate(0 218.7447931177188 126.42422670555969)"><path d="M1.75 1.01 L438.99 -0.71 L436.48 252.21 L-0.1 251.81" stroke="none" stroke-width="0" fill="#161b22"></path><path d="M0.41 -0.8 C129.41 0.87, 258.13 1, 437.26 -0.99 M438.05 -0.89 C437.05 96.56, 435.15 192.92, 439.04 253.48 M437.61 252.32 C306.8 253.94, 177.1 252.65, -0.51 252.18 M0.51 251.71 C0.79 158.33, -0.49 66.3, 1.47 -0.33" stroke="#30363d" stroke-width="2.5" fill="none" stroke-dasharray="8 10"></path></g><g transform="translate(114.81125312883648 30.55808013137215) rotate(0 42.8770928753101 11.156620284932075)"><text x="0" y="NaN" font-family="Virgil, Segoe UI Emoji" font-size="17.850592455891334px" fill="#8b949e" text-anchor="start" style="white-space: pre;" direction="ltr">Producers</text></g><g stroke-opacity="0.6" fill-opacity="0.6" stroke-linecap="round" transform="translate(88.36263242929112 283.2593480927501) rotate(0 228 134)"><path d="M1.3 1.3 L454.3 1.93 L456.54 267.76 L-0.75 269.31" stroke="none" stroke-width="0" fill="#161b22"></path><path d="M0.81 0.41 C145.31 -1.19, 290.21 0.19, 455.67 -0.54 M454.49 -0.35 C457.6 59.83, 456.98 119.6, 455.56 269.07 M455.16 267.09 C323.08 269.23, 191.26 268.99, -0.83 267.66 M-1.14 267.21 C-0.07 203.82, -0.32 135.82, -0.94 -0.9" stroke="#30363d" stroke-width="2.5" fill="none" stroke-dasharray="8 10"></path></g><g transform="translate(104.46698760986328 293.2593480927501) rotate(0 64.23295593261719 11.25)"><text x="0" y="NaN" font-family="Virgil, Segoe UI Emoji" font-size="18px" fill="#8b949e" text-anchor="start" style="white-space: pre;" direction="ltr">Streaming Tier</text></g><g stroke-opacity="0.6" fill-opacity="0.6" stroke-linecap="round" transform="translate(106.40234913725362 629.7947323062624) rotate(0 211.5 121.5)"><path d="M-1.82 1.83 L422.76 -1.97 L422.26 243.58 L-0.99 243.12" stroke="none" stroke-width="0" fill="#161b22"></path><path d="M-0.5 0.3 C121.54 -0.61, 242.49 0.06, 422.61 0 M423.92 0.1 C420.75 95.51, 421.33 191.76, 423.73 241.56 M423.7 242.5 C326.25 243.31, 230.71 242.91, -0.98 242.16 M-0.61 242.85 C0.54 164.45, -1.19 84.93, -0.69 -0.24" stroke="#30363d" stroke-width="2.5" fill="none" stroke-dasharray="8 10"></path></g><g transform="translate(524.4669876098633 305.7593480927501) rotate(0 44.70295715332031 11.25)"><text x="0" y="NaN" font-family="Virgil, Segoe UI Emoji" font-size="18px" fill="#8b949e" text-anchor="start" style="white-space: pre;" direction="ltr">Processing</text></g><g stroke-opacity="0.6" fill-opacity="0.6" stroke-linecap="round" transform="translate(153.8647730477802 993.2702176346666) rotate(0 150 134)"><path d="M1.14 -0.56 L300.16 1.43 L298.3 268.07 L-1.38 269.16" stroke="none" stroke-width="0" fill="#161b22"></path><path d="M1.14 -1.4 C75.6 -0.95, 151.1 -2.33, 299.89 -0.21 M299.89 0.99 C300.74 71.34, 300.42 143.76, 298.9 269.17 M300.8 268.15 C196.89 268.03, 91.19 269.66, 1.1 267.39 M0.87 268.43 C0.67 169.15, -1.63 68.7, 1.44 0.7" stroke="#30363d" stroke-width="2.5" fill="none" stroke-dasharray="8 10"></path></g><g transform="translate(169.8647730477802 1003.2702176346666) rotate(0 49.31098175048828 11.25)"><text x="0" y="NaN" font-family="Virgil, Segoe UI Emoji" font-size="18px" fill="#8b949e" text-anchor="start" style="white-space: pre;" direction="ltr">Data Lake</text></g><g stroke-opacity="0.6" fill-opacity="0.6" stroke-linecap="round" transform="translate(123.43795552577376 1322.4125167910342) rotate(0 184 133.99999999999994)"><path d="M-1.17 -0.01 L367.3 0.32 L367.99 267.15 L1.62 269.89" stroke="none" stroke-width="0" fill="#161b22"></path><path d="M1.03 0.58 C144.17 1.35, 287.63 1.08, 367.7 -0.77 M366.72 0.77 C366.64 59.29, 364.99 120.86, 368.18 267.83 M368.51 269.16 C275.98 269.33, 184.59 271.04, -0.54 267.61 M-0.56 268.47 C-1.16 175.41, 1.1 83.61, 1.5 0.46" stroke="#30363d" stroke-width="2.5" fill="none" stroke-dasharray="8 10"></path></g><g transform="translate(139.43795552577376 1332.4125167910342) rotate(0 39.158966064453125 11.25)"><text x="0" y="NaN" font-family="Virgil, Segoe UI Emoji" font-size="18px" fill="#8b949e" text-anchor="start" style="white-space: pre;" direction="ltr">Analytics</text></g><g stroke-linecap="round" transform="translate(322.30291677279024 72.8543088030226) rotate(0 95.69900955519523 48.59327946325976)"><path d="M1.59 -1.76 L192.85 1.99 L192.72 96.64 L-0.42 98.19" stroke="none" stroke-width="0" fill="#1f4d2b"></path><path d="M-1.32 -0.73 C74.4 0.03, 150.19 0.07, 192.21 -1.86 M-0.09 0.92 C52.87 -0.5, 105.25 -1.5, 191.94 0.44 M192.59 0.7 C192.68 29.63, 193.11 61.99, 189.51 98.66 M192.38 0.57 C191.91 24.74, 190.58 48.77, 192.07 96.94 M193.33 96.17 C147.23 96.65, 102.68 99.67, -1.32 97.82 M191.11 96.67 C117.73 96.7, 43.3 95.78, -0.28 98.16 M0.15 96.71 C1.35 72.16, 0.33 43.78, 1.59 0.67 M-0.87 97.16 C-0.49 69.17, 0.39 42.09, 0.39 0.02" stroke="#3fb950" stroke-width="2" fill="none"></path></g><g transform="translate(367.45529546861053 96.65509874421105) rotate(0 50.546630859375 24.792489522071293)"><text x="50.546630859375" y="NaN" font-family="Virgil, Segoe UI Emoji" font-size="19.833991617657038px" fill="#fff" text-anchor="middle" style="white-space: pre;" direction="ltr">Application</text><text x="50.546630859375" y="NaN" font-family="Virgil, Segoe UI Emoji" font-size="19.833991617657038px" fill="#fff" text-anchor="middle" style="white-space: pre;" direction="ltr">Events</text></g><g stroke-linecap="round" transform="translate(103.9043723485712 75.41781466342434) rotate(0 90.24466186033953 48.59327946325976)"><path d="M1.57 1.67 L180.51 1.53 L179.6 97.23 L-0.44 95.62" stroke="none" stroke-width="0" fill="#1f4d2b"></path><path d="M-0.36 -1.67 C56.61 2.2, 111.91 2.45, 181.11 0.37 M0.25 -0.88 C59.53 -0.31, 118.74 0.06, 180.1 -0.88 M181.53 1.32 C179.88 27.89, 179.11 56.77, 179.52 98.23 M180.6 -0.99 C180.39 28.27, 179.44 55.08, 180.39 97.99 M182.39 96.24 C143.46 97.42, 105.46 94.16, 1.91 98.17 M180.37 97.13 C134.17 95.56, 87.76 96.77, -0.95 96.96 M0.44 97.42 C0.28 71.19, -1.57 47.6, -1.33 0.66 M0.58 96.76 C-0.1 61.16, 0.94 26.27, 0.58 0.94" stroke="#3fb950" stroke-width="2" fill="none"></path></g><g transform="translate(143.31486672844198 99.21860460461278) rotate(0 50.83416748046875 24.792489522071293)"><text x="50.83416748046875" y="NaN" font-family="Virgil, Segoe UI Emoji" font-size="19.833991617657038px" fill="#fff" text-anchor="middle" style="white-space: pre;" direction="ltr">CDC</text><text x="50.83416748046875" y="NaN" font-family="Virgil, Segoe UI Emoji" font-size="19.833991617657038px" fill="#fff" text-anchor="middle" style="white-space: pre;" direction="ltr">(Debezium)</text></g><g stroke-linecap="round" transform="translate(148.46698760986328 393.2593480927501) rotate(0 168 49)"><path d="M-1.13 1.53 L336.8 1.04 L334.43 98.96 L-1.81 97.72" stroke="none" stroke-width="0" fill="#5c3a10"></path><path d="M-0.99 -0.39 C132.59 -0.09, 262.83 -0.01, 335.76 -0.3 M0.36 -0.35 C75.9 0.1, 152.55 0.75, 335.77 0.17 M337.62 1.39 C333.79 32.39, 334.73 68.32, 335.22 96.52 M336.08 0.19 C336.61 26.27, 336.03 52.37, 335.81 98.98 M335.48 98.88 C202.05 99.91, 68.21 100.08, -0.53 97 M335.68 98.22 C246.53 99.96, 156.71 99.08, 0.5 98.13 M-0.81 99.39 C1.73 62.79, -0.94 26.39, -1.04 1.07 M0.93 98.4 C-0.34 67.48, -0.35 36.82, 0.7 0.29" stroke="#f0883e" stroke-width="2" fill="none"></path></g><g transform="translate(192.02708435058594 417.2593480927501) rotate(0 124.43990325927734 25)"><text x="124.43990325927734" y="NaN" font-family="Virgil, Segoe UI Emoji" font-size="20px" fill="#fff" text-anchor="middle" style="white-space: pre;" direction="ltr">Kafka</text><text x="124.43990325927734" y="NaN" font-family="Virgil, Segoe UI Emoji" font-size="20px" fill="#fff" text-anchor="middle" style="white-space: pre;" direction="ltr">(Avro + Schema Registry)</text></g><g stroke-linecap="round" transform="translate(156.81793256599167 718.1798061388566) rotate(0 151.5 36.5)"><path d="M-0.32 0.92 L302.99 -1.63 L301.04 73.07 L-0.84 74.22" stroke="none" stroke-width="0" fill="#3a1d6e"></path><path d="M-0.53 -0.33 C113.11 2.07, 225.18 -0.53, 301.77 0.35 M0.16 -0.7 C113.03 -0.28, 224.58 0.15, 303.35 -0.21 M302.09 -1.45 C304.58 22.32, 305.17 43.96, 303.73 73.37 M302.44 0.79 C303.72 16.7, 304.16 35.33, 303.49 73.71 M301.85 73.12 C219.87 71.97, 133.81 73.6, 1.24 72.58 M302.97 73.02 C194.01 71.72, 84.94 71.91, 0.62 73.45 M-0.85 74.17 C-0.43 51.41, 0.62 32.73, -0.41 -0.93 M-0.91 72.47 C-0.24 48.4, -0.92 23.58, 0.23 -0.04" stroke="#a371f7" stroke-width="2" fill="none"></path></g><g transform="translate(201.55799909431198 742.1798061388566) rotate(0 106.75993347167969 12.5)"><text x="106.75993347167969" y="NaN" font-family="Virgil, Segoe UI Emoji" font-size="20px" fill="#fff" text-anchor="middle" style="white-space: pre;" direction="ltr">Flink / Kafka Connect</text></g><g stroke-linecap="round" transform="translate(213.8647730477802 1103.2702176346666) rotate(0 90 49)"><path d="M-0.01 1.02 L179.52 0.76 L181.51 96.56 L1.51 99.67" stroke="none" stroke-width="0" fill="#0d2c5a"></path><path d="M0.24 1.02 C55.36 0.3, 112.85 2.1, 178.04 1.37 M-0.87 0.74 C62.29 -1.53, 124.62 -1.55, 179.19 0.34 M181.87 1.31 C181.95 27.66, 178.73 55.76, 179.81 99.58 M180.76 0.11 C179.39 27.69, 180.02 54.55, 180.47 98.79 M178.44 99.95 C145.35 98.05, 106.91 97.66, -1.69 96.55 M179.82 97.3 C119.22 98.96, 59.94 98.73, -0.04 98.01 M0.1 98.03 C0.56 78.6, 1.02 58.53, -1.05 0.5 M0.93 98.83 C-0.08 79.06, 0.31 57.64, 0.33 -0.42" stroke="#58a6ff" stroke-width="2" fill="none"></path></g><g transform="translate(250.8447992928974 1127.2702176346666) rotate(0 53.01997375488281 25)"><text x="53.01997375488281" y="NaN" font-family="Virgil, Segoe UI Emoji" font-size="20px" fill="#fff" text-anchor="middle" style="white-space: pre;" direction="ltr">S3 / HDFS</text><text x="53.01997375488281" y="NaN" font-family="Virgil, Segoe UI Emoji" font-size="20px" fill="#fff" text-anchor="middle" style="white-space: pre;" direction="ltr">(Parquet)</text></g><g stroke-linecap="round" transform="translate(183.43795552577376 1432.4125167910342) rotate(0 124 48.99999999999994)"><path d="M-1.53 0.12 L248.96 -0.36 L247.75 98.17 L-0.12 97.22" stroke="none" stroke-width="0" fill="#1f4d2b"></path><path d="M0.13 0.42 C67.82 1.75, 139.58 0.42, 247.52 0.38 M-0.45 0.7 C50.05 -0.23, 102.26 -0.12, 247.96 0.22 M246.05 0.61 C248.96 32.83, 245.94 66.1, 249.47 99.85 M248.85 -0.91 C247.37 37.38, 248.33 77.14, 247.92 97.12 M248.01 97.5 C162.77 97.9, 77.27 95.75, -0.89 96.5 M247.44 98.26 C155.62 98.39, 65.11 98.51, -0.33 98.32 M-1.78 99.1 C0.18 72.96, -1.8 47.76, -0.06 -1.84 M0.87 97.15 C0.88 66.49, 0.15 34.76, -0.26 -0.29" stroke="#3fb950" stroke-width="2" fill="none"></path></g><g transform="translate(222.58801808680892 1456.4125167910342) rotate(0 84.84993743896484 24.999999999999943)"><text x="84.84993743896484" y="NaN" font-family="Virgil, Segoe UI Emoji" font-size="20px" fill="#fff" text-anchor="middle" style="white-space: pre;" direction="ltr">Spark / Presto /</text><text x="84.84993743896484" y="NaN" font-family="Virgil, Segoe UI Emoji" font-size="20px" fill="#fff" text-anchor="middle" style="white-space: pre;" direction="ltr">Athena</text></g><g stroke-linecap="round"><g transform="translate(428.69495090967325 176.04086772954213) rotate(0 -28.949416008854712 105.60924018160398)"><path d="M-0.23 0.16 C-2.43 9.72, -4.63 23.19, -14.35 58.48 C-24.06 93.77, -51.28 186.45, -58.51 211.9" stroke="#f0883e" stroke-width="2.5" fill="none" stroke-dasharray="8 10"></path></g><g transform="translate(428.69495090967325 176.04086772954213) rotate(0 -28.949416008854712 105.60924018160398)"><path d="M-60.27 183.22 C-61.16 187.07, -58.28 194.43, -58.54 211.26" stroke="#f0883e" stroke-width="2.5" fill="none"></path></g><g transform="translate(428.69495090967325 176.04086772954213) rotate(0 -28.949416008854712 105.60924018160398)"><path d="M-40.56 188.92 C-45.53 191.57, -46.68 197.76, -58.54 211.26" stroke="#f0883e" stroke-width="2.5" fill="none"></path></g></g><g transform="translate(15.500000000000057 390.01282215260636) rotate(0 19.46698760986328 11.25)"><text x="19.46698760986328" y="NaN" font-family="Virgil, Segoe UI Emoji" font-size="18px" fill="#c9d1d9" text-anchor="middle" style="white-space: pre;" direction="ltr">Avro</text></g><g stroke-linecap="round"><g transform="translate(228.72345503979017 178.6043735899438) rotate(0 31.24850770556216 104.32748725140314)"><path d="M0.94 -0.47 C3.34 8.62, 3.15 18.79, 13.6 53.78 C24.05 88.77, 55.52 183.74, 63.64 209.47" stroke="#f0883e" stroke-width="2.5" fill="none" stroke-dasharray="8 10"></path></g><g transform="translate(228.72345503979017 178.6043735899438) rotate(0 31.24850770556216 104.32748725140314)"><path d="M44.42 187.34 C47.83 193.16, 55.11 196.62, 62.76 210.18" stroke="#f0883e" stroke-width="2.5" fill="none"></path></g><g transform="translate(228.72345503979017 178.6043735899438) rotate(0 31.24850770556216 104.32748725140314)"><path d="M63.94 181.02 C62.7 188.49, 65.37 193.44, 62.76 210.18" stroke="#f0883e" stroke-width="2.5" fill="none"></path></g></g><g transform="translate(10 472.02174031859386) rotate(0 19.46698760986328 11.25)"><text x="19.46698760986328" y="NaN" font-family="Virgil, Segoe UI Emoji" font-size="18px" fill="#c9d1d9" text-anchor="middle" style="white-space: pre;" direction="ltr">Avro</text></g><g stroke-linecap="round"><g transform="translate(315.06565206026426 497.2593480927501) rotate(0 -2.8041087828965487 107.4602290230533)"><path d="M-0.92 -0.48 C-2.18 35.4, -5.92 179.63, -6.65 215.46" stroke="#f0883e" stroke-width="2.5" fill="none" stroke-dasharray="8 10"></path></g><g transform="translate(315.06565206026426 497.2593480927501) rotate(0 -2.8041087828965487 107.4602290230533)"><path d="M-17.04 185.3 C-11.69 198.36, -9.65 209.76, -7.71 214.94" stroke="#f0883e" stroke-width="2.5" fill="none"></path></g><g transform="translate(315.06565206026426 497.2593480927501) rotate(0 -2.8041087828965487 107.4602290230533)"><path d="M3.48 185.79 C1.1 198.51, -4.59 209.73, -7.71 214.94" stroke="#f0883e" stroke-width="2.5" fill="none"></path></g></g><g transform="translate(507 431.0178471750474) rotate(0 19.46698760986328 11.25)"><text x="19.46698760986328" y="NaN" font-family="Virgil, Segoe UI Emoji" font-size="18px" fill="#c9d1d9" text-anchor="middle" style="white-space: pre;" direction="ltr">Avro</text></g><g stroke-linecap="round"><g transform="translate(307.47732254562754 797.1798061388567) rotate(0 -1.695605172734588 150.04520574790493)"><path d="M0.53 0.27 C0.22 23.01, -0.89 85.94, -1.67 135.84 C-2.45 185.74, -3.87 272.27, -4.14 299.67 M-0.66 -0.64 C-1.03 22.37, -1.87 87.15, -2.03 137.38 C-2.19 187.61, -1.49 273.42, -1.64 300.77" stroke="#3fb950" stroke-width="2" fill="none"></path></g><g transform="translate(307.47732254562754 797.1798061388567) rotate(0 -1.695605172734588 150.04520574790493)"><path d="M-11.49 274.45 C-8.85 280.12, -6.33 290.42, -1.32 300.99 M-12.76 273.32 C-9.13 280.4, -7.21 286.45, -1.73 301.3" stroke="#3fb950" stroke-width="2" fill="none"></path></g><g transform="translate(307.47732254562754 797.1798061388567) rotate(0 -1.695605172734588 150.04520574790493)"><path d="M9.04 274.43 C5.25 280.19, 1.35 290.5, -1.32 300.99 M7.77 273.29 C6.06 280.39, 2.64 286.46, -1.73 301.3" stroke="#3fb950" stroke-width="2" fill="none"></path></g></g><g transform="translate(841.4700317382812 431.0181123668381) rotate(0 88.49695587158203 11.25)"><text x="88.49695587158203" y="NaN" font-family="Virgil, Segoe UI Emoji" font-size="18px" fill="#c9d1d9" text-anchor="middle" style="white-space: pre;" direction="ltr">Convert to Parquet</text></g><g stroke-linecap="round"><g transform="translate(304.480885028422 1207.2702176346666) rotate(0 1.1917726666821977 109.57114957818374)"><path d="M-1.05 -0.76 C-0.65 35.78, 2.73 182.26, 3.35 218.8 M0.6 1.45 C0.85 38.21, 2.66 183.83, 2.9 220.16" stroke="#58a6ff" stroke-width="2" fill="none"></path></g><g transform="translate(304.480885028422 1207.2702176346666) rotate(0 1.1917726666821977 109.57114957818374)"><path d="M-8.9 193.68 C-4.33 203.2, -0.93 213.5, 3.78 218.58 M-7.78 191.37 C-5.19 201.32, -1.11 211.48, 3.48 219.72" stroke="#58a6ff" stroke-width="2" fill="none"></path></g><g transform="translate(304.480885028422 1207.2702176346666) rotate(0 1.1917726666821977 109.57114957818374)"><path d="M11.62 193.47 C8.45 202.9, 4.13 213.27, 3.78 218.58 M12.74 191.16 C8.36 201.26, 5.47 211.49, 3.48 219.72" stroke="#58a6ff" stroke-width="2" fill="none"></path></g></g></svg>