<svg version="1.1" xmlns="http://www.w3.org/2000/svg" viewBox="0 0 1316.9234866565314 633.4184509049113" width="1316.9234866565314" height="633.4184509049113">
  <!-- svg-source:excalidraw -->
  
  <defs>
    <style>
      @font-face {
        font-family: "Virgil";
        src: url("https://excalidraw.com/Virgil.woff2");
      }
      @font-face {
        font-family: "Cascadia";
        src: url("https://excalidraw.com/Cascadia.woff2");
      }
    </style>
  </defs>
  <rect x="0" y="0" width="1316.9234866565314" height="633.4184509049113" fill="#0d1117"></rect><g stroke-opacity="0.6" fill-opacity="0.6" stroke-linecap="round" transform="translate(10 10) rotate(0 648.4617433282657 306.70922545245566)"><path d="M1.46 -1.58 L1298.32 -0.93 L1295.35 612.86 L1.16 612.96" stroke="none" stroke-width="0" fill="#161b22"></path><path d="M-0.66 -0.7 C464 -4.71, 928.46 -4.25, 1297.01 0.66 M1297.68 -0.05 C1295.25 140.26, 1294.84 278.95, 1297.5 613.61 M1296.31 613 C822.91 614.36, 349.51 614.09, 0.66 614.11 M0.44 612.62 C0.3 403, 0.29 193.14, 0.62 -0.61" stroke="#30363d" stroke-width="2.5" fill="none" stroke-dasharray="8 10"></path></g><g transform="translate(41.83844328069358 53.843011122762164) rotate(0 98.96395874023438 11.25)"><text x="0" y="NaN" font-family="Virgil, Segoe UI Emoji" font-size="18px" fill="#8b949e" text-anchor="start" style="white-space: pre;" direction="ltr">LRU Data Structures</text></g><g stroke-linecap="round" transform="translate(367.2228172463524 150.62797695886138) rotate(0 190 36.5)"><path d="M-0.74 -0.26 L380.99 1.85 L379.33 73.97 L-0.2 72.93" stroke="none" stroke-width="0" fill="#5c3a10"></path><path d="M-1.04 -0.69 C102.82 -1.26, 204.63 -0.42, 379.64 -0.13 M-0.5 -0.13 C144.89 -0.6, 290.17 -0.89, 379.8 -0.58 M379.04 0.12 C380.35 24.21, 379.98 43.86, 380.03 74.4 M379.05 -0.33 C380.03 14.97, 379.76 30.2, 380.69 72.58 M379.67 74.05 C274.51 74.27, 168.72 74.13, -1.13 72.02 M379.81 73.22 C271.21 74.82, 163.09 74.86, 0.03 72.8 M-0.96 71.89 C-1.24 45.87, 1.48 23.55, -1.57 -0.55 M-0.36 72.62 C0.87 47.59, 0.43 20.69, 0.07 0.09" stroke="#f0883e" stroke-width="2" fill="none"></path></g><g transform="translate(414.8829429787743 174.62797695886138) rotate(0 142.33987426757812 12.5)"><text x="142.33987426757812" y="NaN" font-family="Virgil, Segoe UI Emoji" font-size="20px" fill="#fff" text-anchor="middle" style="white-space: pre;" direction="ltr">HashMap: key -&gt; node pointer</text></g><g stroke-linecap="round" transform="translate(34.63546325526431 487.74488754093386) rotate(0 91 36.5)"><path d="M0.49 -0.52 L181.65 -0.16 L181.71 73.74 L0.59 72.66" stroke="none" stroke-width="0" fill="#1f4d2b"></path><path d="M-0.72 0.98 C45.53 -3.04, 92.41 -1.25, 180.91 -0.8 M-0.28 0.07 C52.91 1.65, 104.15 1.77, 182.54 -0.98 M182.19 -1.68 C183.86 25.44, 183.21 48.98, 182.84 72.32 M182.44 0.35 C182.32 27.17, 182.22 54.35, 182.35 73.63 M183.38 73.76 C138.7 70.99, 98.97 71.46, -0.45 74.67 M181.37 73.55 C115.38 74.41, 49.44 74.15, -0.17 72.62 M-0.87 74.27 C1.85 43.9, 1.79 16.12, -0.22 1.24 M-0.76 73.43 C0.58 53.8, -0.87 36.5, 0.41 0.36" stroke="#3fb950" stroke-width="2" fill="none"></path></g><g transform="translate(68.18549682460025 511.74488754093386) rotate(0 57.44996643066406 12.5)"><text x="57.44996643066406" y="NaN" font-family="Virgil, Segoe UI Emoji" font-size="20px" fill="#fff" text-anchor="middle" style="white-space: pre;" direction="ltr">Head (MRU)</text></g><g stroke-linecap="round" transform="translate(314.6810223930752 487.1493034516542) rotate(0 90 36.5)"><path d="M0.53 0.88 L178.84 1.76 L181.57 74.05 L-0.79 74.36" stroke="none" stroke-width="0" fill="#0d2c5a"></path><path d="M0.49 0.02 C46.9 1.89, 90.2 0.49, 180.32 -0.85 M-0.21 0.85 C68.73 -1.28, 137.64 -1.64, 180.9 -0.46 M181.33 -1.34 C180.37 16.6, 178.85 34.87, 181.43 73.36 M179.06 0.31 C180.89 20.28, 181.11 40.36, 179.16 73.54 M180.23 72.61 C141.36 73.08, 102.73 70.75, 0.05 73.66 M179.29 72.84 C111.89 71.83, 41.17 71.43, 0.6 73.07 M-0.6 71.14 C-0.29 45.41, -0.09 17.95, -1.11 -1.68 M0.31 73.85 C0.74 49.14, 0.92 25.91, -0.35 0.49" stroke="#58a6ff" stroke-width="2" fill="none"></path></g><g transform="translate(367.0710446709072 511.1493034516542) rotate(0 37.60997772216797 12.5)"><text x="37.60997772216797" y="NaN" font-family="Virgil, Segoe UI Emoji" font-size="20px" fill="#fff" text-anchor="middle" style="white-space: pre;" direction="ltr">Entry A</text></g><g stroke-linecap="round" transform="translate(618.6943759332548 487.1492069069809) rotate(0 90 36.5)"><path d="M1.23 -0.99 L179.25 1.98 L180.53 72.85 L0.06 72.88" stroke="none" stroke-width="0" fill="#0d2c5a"></path><path d="M-1.57 0.77 C54.31 0.55, 111.06 -0.08, 181.57 -0.02 M-0.92 0.48 C70.01 0.99, 139.87 1.26, 179.79 -0.41 M180.07 1.89 C180.11 22.81, 182.4 46.02, 178.62 74.35 M179.65 0.12 C179.59 18.87, 179.06 37.5, 180.45 73.87 M181.13 71.98 C126.49 71.71, 69.75 72.48, -0.95 72.65 M180.64 73.39 C141.24 72.51, 102.11 71.02, -0.49 73.82 M0.82 72.29 C1.95 45.84, 1.6 16.66, 0.79 0.74 M-0.62 72.49 C1.1 47.24, 0.72 22.2, 0.28 -0.21" stroke="#58a6ff" stroke-width="2" fill="none"></path></g><g transform="translate(670.3743991266142 511.1492069069809) rotate(0 38.319976806640625 12.5)"><text x="38.319976806640625" y="NaN" font-family="Virgil, Segoe UI Emoji" font-size="20px" fill="#fff" text-anchor="middle" style="white-space: pre;" direction="ltr">Entry B</text></g><g stroke-linecap="round" transform="translate(914.7613305075681 487.54861222021646) rotate(0 168 36.5)"><path d="M0.31 0.66 L335.17 0.23 L337.12 74.43 L0.38 71.18" stroke="none" stroke-width="0" fill="#4a1219"></path><path d="M0.95 -0.01 C108.29 -2.19, 215.47 -1, 335.47 1.15 M-0.38 0.18 C102.65 0.96, 205.29 0.7, 335.7 -0.5 M336.31 0.97 C335.1 21.08, 334.9 46.24, 336.81 73.63 M335.2 -0.62 C336.34 22.17, 334.85 44.27, 336.52 73.31 M334.87 73.03 C228.84 75.45, 121.51 75.64, -0.05 73.83 M335.6 72.95 C263.59 75.05, 190.36 75.16, 0.07 72.47 M0.57 74.96 C0.59 46.26, -0.66 17.82, 1.86 -1.99 M-0.5 72.67 C0.31 48.36, 0.7 23.78, -0.63 0.88" stroke="#f85149" stroke-width="2" fill="none"></path></g><g transform="translate(963.8314217551267 511.54861222021646) rotate(0 118.9299087524414 12.5)"><text x="118.9299087524414" y="NaN" font-family="Virgil, Segoe UI Emoji" font-size="20px" fill="#fff" text-anchor="middle" style="white-space: pre;" direction="ltr">Tail (LRU) -- evict here</text></g><g stroke-linecap="round"><g transform="translate(500.3117254208207 229.62797695886138) rotate(0 -46.69250935955597 125.7606632463964)"><path d="M-0.63 -0.46 C-16.02 41.57, -77.61 209.48, -92.97 251.48" stroke="#f0883e" stroke-width="2.5" fill="none" stroke-dasharray="8 10"></path></g><g transform="translate(500.3117254208207 229.62797695886138) rotate(0 -46.69250935955597 125.7606632463964)"><path d="M-93.67 222.18 C-93.15 229.92, -93.04 236.59, -92.78 252.25" stroke="#f0883e" stroke-width="2.5" fill="none"></path></g><g transform="translate(500.3117254208207 229.62797695886138) rotate(0 -46.69250935955597 125.7606632463964)"><path d="M-74.4 229.24 C-78.62 235.13, -83.28 240.05, -92.78 252.25" stroke="#f0883e" stroke-width="2.5" fill="none"></path></g></g><g stroke-linecap="round"><g transform="translate(628.4830514469602 229.62797695886138) rotate(0 39.180028723777355 125.76061497405976)"><path d="M0.13 -0.25 C13.08 41.8, 65.89 210.22, 78.82 252.25" stroke="#f0883e" stroke-width="2.5" fill="none" stroke-dasharray="8 10"></path></g><g transform="translate(628.4830514469602 229.62797695886138) rotate(0 39.180028723777355 125.76061497405976)"><path d="M60.22 229.14 C69 236.66, 75.57 248.52, 77.73 252.95" stroke="#f0883e" stroke-width="2.5" fill="none"></path></g><g transform="translate(628.4830514469602 229.62797695886138) rotate(0 39.180028723777355 125.76061497405976)"><path d="M79.82 223.04 C80.87 232.99, 79.74 247.24, 77.73 252.95" stroke="#f0883e" stroke-width="2.5" fill="none"></path></g></g><g stroke-linecap="round"><g transform="translate(223.43274561220846 506.2501042043245) rotate(0 43.022779568905435 -0.0918262287787126)"><path d="M-0.3 0.02 C13.97 0, 71.34 -1.29, 85.84 -1.24 M1.74 -1.01 C15.81 -0.83, 70.7 -0.14, 84.79 -0.26" stroke="#58a6ff" stroke-width="2" fill="none"></path></g><g transform="translate(223.43274561220846 506.2501042043245) rotate(0 43.022779568905435 -0.0918262287787126)"><path d="M56.6 9.57 C63.86 7.84, 75.44 2.9, 84.43 1.02 M57.07 10.22 C63.67 8.38, 68.74 4.75, 85.02 -0.3" stroke="#58a6ff" stroke-width="2" fill="none"></path></g><g transform="translate(223.43274561220846 506.2501042043245) rotate(0 43.022779568905435 -0.0918262287787126)"><path d="M56.67 -10.96 C63.72 -6.16, 75.28 -4.57, 84.43 1.02 M57.14 -10.3 C63.77 -7.58, 68.82 -6.65, 85.02 -0.3" stroke="#58a6ff" stroke-width="2" fill="none"></path></g></g><g stroke-linecap="round"><g transform="translate(499.8262344121207 504.90393622374927) rotate(0 56.006676770089825 -0.00001778588423029248)"><path d="M-0.32 -0.17 C18.47 0.12, 93.4 1.17, 112.26 1.15 M1.71 -1.3 C20.41 -1.27, 92.98 -0.74, 111.45 -0.37" stroke="#58a6ff" stroke-width="2" fill="none"></path></g><g transform="translate(499.8262344121207 504.90393622374927) rotate(0 56.006676770089825 -0.00001778588423029248)"><path d="M82.85 9.95 C92.44 8.41, 97.4 5.23, 110.03 0.4 M83.98 8.94 C89.23 7.85, 96.02 5.48, 112.32 0.42" stroke="#58a6ff" stroke-width="2" fill="none"></path></g><g transform="translate(499.8262344121207 504.90393622374927) rotate(0 56.006676770089825 -0.00001778588423029248)"><path d="M83.1 -10.57 C92.53 -6.79, 97.42 -4.64, 110.03 0.4 M84.23 -11.58 C89.42 -7.97, 96.15 -5.65, 112.32 0.42" stroke="#58a6ff" stroke-width="2" fill="none"></path></g></g><g stroke-linecap="round"><g transform="translate(803.8230572836248 501.96927874261746) rotate(0 52.03347728715664 0.055555777836955755)"><path d="M-1 1.09 C16.21 1.41, 85.89 1.58, 103.51 1.26 M0.68 0.61 C17.66 0.69, 85 -0.15, 102.28 -0.26" stroke="#58a6ff" stroke-width="2" fill="none"></path></g><g transform="translate(803.8230572836248 501.96927874261746) rotate(0 52.03347728715664 0.055555777836955755)"><path d="M76 9.35 C85.24 8.22, 90.8 3.82, 100.74 -2.23 M73.22 10.78 C85.03 6.16, 95.09 3.26, 102.46 -1.02" stroke="#58a6ff" stroke-width="2" fill="none"></path></g><g transform="translate(803.8230572836248 501.96927874261746) rotate(0 52.03347728715664 0.055555777836955755)"><path d="M75.8 -11.17 C84.99 -5.67, 90.62 -3.43, 100.74 -2.23 M73.03 -9.74 C84.71 -6.89, 94.84 -2.33, 102.46 -1.02" stroke="#58a6ff" stroke-width="2" fill="none"></path></g></g><g stroke-linecap="round"><g transform="translate(909.2054844975853 539.0975129048694) rotate(0 -52.255554282165235 0.4297682513093015)"><path d="M-0.7 0.7 C-18.09 0.73, -88.07 0.3, -105.45 0.28 M1.14 0.02 C-15.79 0.19, -85.38 1.22, -103.23 1.52" stroke="#58a6ff" stroke-width="2" fill="none"></path></g><g transform="translate(909.2054844975853 539.0975129048694) rotate(0 -52.255554282165235 0.4297682513093015)"><path d="M-74.04 -10.74 C-81.99 -7.84, -87.26 -6.58, -102.73 3.26 M-76.09 -9.59 C-85.21 -4.67, -97.01 -1.62, -103.51 1.01" stroke="#58a6ff" stroke-width="2" fill="none"></path></g><g transform="translate(909.2054844975853 539.0975129048694) rotate(0 -52.255554282165235 0.4297682513093015)"><path d="M-73.72 9.78 C-81.76 8.4, -87.09 5.38, -102.73 3.26 M-75.77 10.93 C-85.17 8.13, -97.1 3.48, -103.51 1.01" stroke="#58a6ff" stroke-width="2" fill="none"></path></g></g><g stroke-linecap="round"><g transform="translate(612.694375933255 541.1538152034486) rotate(0 -56.00667677008988 -0.39129482783660663)"><path d="M-1.14 -0.5 C-19.52 -0.61, -92.57 -1.83, -110.91 -1.81 M0.47 -1.8 C-17.93 -1.7, -92.62 -0.7, -111.28 -0.82" stroke="#58a6ff" stroke-width="2" fill="none"></path></g><g transform="translate(612.694375933255 541.1538152034486) rotate(0 -56.00667677008988 -0.39129482783660663)"><path d="M-83.97 -9.38 C-92.05 -7.47, -96.74 -7.26, -110.25 -2.39 M-83.36 -11.6 C-94.16 -8.37, -105.82 -2.85, -111.01 -0.76" stroke="#58a6ff" stroke-width="2" fill="none"></path></g><g transform="translate(612.694375933255 541.1538152034486) rotate(0 -56.00667677008988 -0.39129482783660663)"><path d="M-83.87 11.14 C-91.78 7.88, -96.5 2.92, -110.25 -2.39 M-83.26 8.92 C-94.27 4.05, -105.97 1.47, -111.01 -0.76" stroke="#58a6ff" stroke-width="2" fill="none"></path></g></g><g stroke-linecap="round"><g transform="translate(308.6810223930752 540.6176418227809) rotate(0 -47.15940069198871 -0.4719932225503456)"><path d="M-0.86 0.75 C-16.91 0.47, -79.91 -0.64, -95.36 -0.86 M0.88 0.1 C-14.88 -0.03, -77.39 1.19, -93.19 0.72" stroke="#58a6ff" stroke-width="2" fill="none"></path></g><g transform="translate(308.6810223930752 540.6176418227809) rotate(0 -47.15940069198871 -0.4719932225503456)"><path d="M-63.73 -11.22 C-75.42 -4.57, -85.55 -3.47, -92.09 0.51 M-64.96 -9.41 C-70.44 -7.26, -77.03 -5.82, -93.63 1" stroke="#58a6ff" stroke-width="2" fill="none"></path></g><g transform="translate(308.6810223930752 540.6176418227809) rotate(0 -47.15940069198871 -0.4719932225503456)"><path d="M-63.77 9.3 C-75.58 8.2, -85.7 1.57, -92.09 0.51 M-64.99 11.11 C-70.48 9.1, -77.06 6.39, -93.63 1" stroke="#58a6ff" stroke-width="2" fill="none"></path></g></g></svg>