<svg version="1.1" xmlns="http://www.w3.org/2000/svg" viewBox="0 0 788.443624154542 602.2848772849533" width="788.443624154542" height="602.2848772849533">
  <!-- svg-source:excalidraw -->
  
  <defs>
    <style>
      @font-face {
        font-family: "Virgil";
        src: url("https://excalidraw.com/Virgil.woff2");
      }
      @font-face {
        font-family: "Cascadia";
        src: url("https://excalidraw.com/Cascadia.woff2");
      }
    </style>
  </defs>
  <rect x="0" y="0" width="788.443624154542" height="602.2848772849533" fill="#1e1e2e"></rect><g stroke-opacity="0.6" fill-opacity="0.6" stroke-linecap="round" transform="translate(10 10) rotate(0 375.91098009624125 121.5)"><path d="M-0.64 -1.08 L753.78 0.79 L750.37 243.74 L1.19 243.84" stroke="none" stroke-width="0" fill="#181825"></path><path d="M-0.43 0.71 C192.3 -0.76, 385.63 -0.75, 751.87 0.71 M750.62 0.93 C754.34 67.36, 755.01 133.88, 751.33 241.52 M751.08 243.03 C476.99 243.29, 203.1 243.11, -0.75 243.72 M-0.95 244.25 C0.24 168.42, 0.26 90.36, 1.47 0.51" stroke="#45475a" stroke-width="2.5" fill="none" stroke-dasharray="8 10"></path></g><g transform="translate(35.942716216008876 41.2511873118749) rotate(0 64.94396209716797 11.25)"><text x="0" y="NaN" font-family="Virgil, Segoe UI Emoji" font-size="18px" fill="#a6adc8" text-anchor="start" style="white-space: pre;" direction="ltr">Modulo Hashing</text></g><g stroke-opacity="0.6" fill-opacity="0.6" stroke-linecap="round" transform="translate(19.368378442393578 349.28487728495327) rotate(0 379.5376228560742 121.5)"><path d="M1.62 1.96 L757.32 -1.72 L757.59 244.79 L-0.83 242.81" stroke="none" stroke-width="0" fill="#181825"></path><path d="M-0.58 -0.46 C236.75 -2.4, 473.95 -1.44, 758.43 0.12 M758.73 -0.37 C758.3 81.34, 758.12 161.66, 758.21 242.99 M759.2 243.04 C598.38 245.84, 437.47 246.25, 0.16 243.52 M-1.39 243.09 C-0.42 166.09, -1.71 89.18, 0.24 -1.29" stroke="#45475a" stroke-width="2.5" fill="none" stroke-dasharray="8 10"></path></g><g transform="translate(35.36837844239358 359.28487728495327) rotate(0 81.50393676757812 11.25)"><text x="0" y="NaN" font-family="Virgil, Segoe UI Emoji" font-size="18px" fill="#a6adc8" text-anchor="start" style="white-space: pre;" direction="ltr">Consistent Hashing</text></g><g stroke-linecap="round" transform="translate(79.94271621600888 141.2511873118749) rotate(0 107.5 36.5)"><path d="M-1.2 0.22 L216.17 -0.91 L213.38 74.76 L-1.23 74.48" stroke="none" stroke-width="0" fill="#1e40af"></path><path d="M0.55 1.18 C46.06 1.85, 94.35 0.3, 214.5 -0.1 M-0.56 0.68 C85.43 -0.23, 169.84 0.06, 214.21 0.51 M213.31 -1.56 C217.06 16.09, 216.36 31.69, 213.19 73.36 M215.07 -0.88 C214.59 19.84, 214.9 39.31, 214.11 73.07 M213.71 74.56 C140.08 70.57, 67.57 70.7, 0.15 73.07 M214.49 72.48 C154.82 73.97, 95.84 74.95, 0.73 73.82 M1.32 72.61 C-0.84 50.28, -0.91 24.68, 0.33 -0.04 M-0.18 73.68 C-1.17 52.27, -0.1 30.4, 0.16 -0.06" stroke="#3b82f6" stroke-width="2" fill="none"></path></g><g transform="translate(117.07276687518856 165.2511873118749) rotate(0 70.36994934082031 12.5)"><text x="70.36994934082031" y="NaN" font-family="Virgil, Segoe UI Emoji" font-size="20px" fill="#fff" text-anchor="middle" style="white-space: pre;" direction="ltr">hash(key) % N</text></g><g stroke-linecap="round" transform="translate(499.9427162160089 141.2511873118749) rotate(0 122.24520844978952 36.5)"><path d="M-0.69 0.91 L245.9 -1.17 L242.89 73.03 L0.81 71.46" stroke="none" stroke-width="0" fill="#9f1239"></path><path d="M-1.58 -1.42 C55.62 -3, 109.82 -1.72, 244.73 -1.31 M0.03 0.72 C75.1 -0.71, 149.13 -0.35, 244.01 -0.56 M246.48 -1.75 C245.43 16.75, 245.05 29.87, 244.17 73.23 M243.71 0.68 C243.27 28.28, 243.83 54.63, 243.84 73.8 M245.72 74.42 C164.94 72.94, 88.93 73.18, 0.4 74.08 M243.8 72.55 C149.67 73.75, 55.74 74.22, 0.71 72.26 M0.44 71.02 C1.17 50.48, -1.94 28.73, -0.17 -1.74 M0.41 73.17 C1.27 52.08, 0.93 33.71, -0.56 -0.49" stroke="#e11d48" stroke-width="2" fill="none"></path></g><g transform="translate(513.6680043166773 165.2511873118749) rotate(0 108.5199203491211 12.5)"><text x="108.5199203491211" y="NaN" font-family="Virgil, Segoe UI Emoji" font-size="20px" fill="#fff" text-anchor="middle" style="white-space: pre;" direction="ltr">~100% keys remapped</text></g><g stroke-linecap="round" transform="translate(79.36837844239358 459.28487728495327) rotate(0 129.5 36.5)"><path d="M1.25 -0.38 L258.77 -1.22 L257.09 74.53 L-0.68 74.72" stroke="none" stroke-width="0" fill="#1e40af"></path><path d="M-1.37 1.35 C93.6 -3.51, 184.29 -1.66, 257.98 -0.14 M0 0.37 C59.06 1.43, 118.58 1.6, 258.44 0.21 M260.52 -0.4 C257.95 23.49, 259.72 44.85, 260.89 72.05 M259.78 0.01 C259.15 16.79, 258.87 32.74, 258.59 72.78 M257.92 74.59 C180.78 72.44, 104.52 73.26, -0.1 71.41 M258.38 73.4 C170.35 73.41, 82.88 73.34, 0.31 73.1 M-0.34 71.21 C-1.78 49.48, -0.52 30.37, -1.45 -0.82 M0.17 73.83 C0.1 56.03, -0.18 38.95, 0.84 -0.85" stroke="#3b82f6" stroke-width="2" fill="none"></path></g><g transform="translate(127.94844893799905 483.28487728495327) rotate(0 80.91992950439453 12.5)"><text x="80.91992950439453" y="NaN" font-family="Virgil, Segoe UI Emoji" font-size="20px" fill="#fff" text-anchor="middle" style="white-space: pre;" direction="ltr">hash(key) on ring</text></g><g stroke-linecap="round" transform="translate(499.3683784423936 459.28487728495327) rotate(0 122.1728814535827 36.5)"><path d="M-1.6 1.83 L245.1 0.17 L242.42 73.21 L-0.63 72" stroke="none" stroke-width="0" fill="#2d6a4f"></path><path d="M1.15 0.45 C63.85 -1.22, 124.84 -1.23, 243.07 1.5 M-0.15 -0.78 C57.26 -0.99, 114.41 -1.32, 243.65 0.7 M246.03 -1.43 C242.33 17.37, 244.87 33.75, 243.26 73.63 M245.08 -0.17 C243.45 23.27, 244.46 47.54, 244.16 72.06 M243.95 72.37 C185.8 70.32, 128.3 71.5, 0.39 73.06 M243.6 72.72 C165.73 74.85, 88.09 74.46, -0.25 73.75 M1.43 73.64 C0.66 51.24, 0.77 27.88, 0.58 -0.48 M0.64 73.32 C-0.58 53.66, 0.33 35.2, 0.05 -0.2" stroke="#40916c" stroke-width="2" fill="none"></path></g><g transform="translate(521.3113404623825 483.28487728495327) rotate(0 100.22991943359375 12.5)"><text x="100.22991943359375" y="NaN" font-family="Virgil, Segoe UI Emoji" font-size="20px" fill="#fff" text-anchor="middle" style="white-space: pre;" direction="ltr">~K/N keys remapped</text></g><g stroke-linecap="round"><g transform="translate(300.9427162160089 177.7095659962195) rotate(0 96.50000000000003 -0.04160177443969815)"><path d="M-1.15 -0.55 C30.91 -0.36, 160.16 0.49, 192.71 0.4 M0.45 1.77 C32.29 1.67, 159.36 -1.12, 191.61 -1.47" stroke="#e11d48" stroke-width="2" fill="none"></path></g><g transform="translate(300.9427162160089 177.7095659962195) rotate(0 96.50000000000003 -0.04160177443969815)"><path d="M162.68 8.78 C173.75 7.87, 180.54 2.14, 192.01 -1.3 M163.34 8.7 C173.8 5.7, 184.29 1.26, 191.27 -1.97" stroke="#e11d48" stroke-width="2" fill="none"></path></g><g transform="translate(300.9427162160089 177.7095659962195) rotate(0 96.50000000000003 -0.04160177443969815)"><path d="M162.33 -11.74 C173.39 -5.84, 180.3 -4.77, 192.01 -1.3 M163 -11.82 C173.39 -7.45, 184 -4.52, 191.27 -1.97" stroke="#e11d48" stroke-width="2" fill="none"></path></g></g><g transform="translate(350.8427406300714 165.2584873118749) rotate(0 46.5999755859375 12.5)"><text x="46.5999755859375" y="NaN" font-family="Segoe UI Emoji" font-size="20px" fill="#e03131" text-anchor="middle" style="white-space: pre;" direction="ltr">Add Node</text></g><g stroke-linecap="round"><g transform="translate(344.3683784423936 495.79217728495325) rotate(0 74.5 0)"><path d="M-0.8 0.63 C23.86 0.5, 124.08 0.41, 148.85 0.34 M0.98 -0.09 C25.4 -0.09, 122.97 -1.88, 147.83 -1.61" stroke="#40916c" stroke-width="2" fill="none"></path></g><g transform="translate(344.3683784423936 495.79217728495325) rotate(0 74.5 0)"><path d="M120.74 8.56 C130.63 3.19, 140.81 0.55, 147.34 -2.34 M118.76 9.76 C128.48 5.86, 136.95 1.47, 147.23 -1.17" stroke="#40916c" stroke-width="2" fill="none"></path></g><g transform="translate(344.3683784423936 495.79217728495325) rotate(0 74.5 0)"><path d="M120.63 -11.96 C130.76 -9.68, 140.98 -4.68, 147.34 -2.34 M118.65 -10.76 C128.37 -8.12, 136.88 -5.98, 147.23 -1.17" stroke="#40916c" stroke-width="2" fill="none"></path></g></g><g transform="translate(372.2684028564561 483.29217728495325) rotate(0 46.5999755859375 12.5)"><text x="46.5999755859375" y="NaN" font-family="Segoe UI Emoji" font-size="20px" fill="#2f9e44" text-anchor="middle" style="white-space: pre;" direction="ltr">Add Node</text></g></svg>