<svg version="1.1" xmlns="http://www.w3.org/2000/svg" viewBox="0 0 634.051057696975 368.7252700423279" width="634.051057696975" height="368.7252700423279">
  <!-- svg-source:excalidraw -->
  
  <defs>
    <style>
      @font-face {
        font-family: "Virgil";
        src: url("https://excalidraw.com/Virgil.woff2");
      }
      @font-face {
        font-family: "Cascadia";
        src: url("https://excalidraw.com/Cascadia.woff2");
      }
    </style>
  </defs>
  <rect x="0" y="0" width="634.051057696975" height="368.7252700423279" fill="#1e1e2e"></rect><g stroke-linecap="round" transform="translate(10 10) rotate(0 100 32)"><path d="M1.31 1.59 L198.46 -1.04 L201.52 64.06 L-0.16 62.46" stroke="none" stroke-width="0" fill="#2d6a4f"></path><path d="M-0.1 -1.45 C71.12 2.05, 137.97 2.26, 200.73 0.94 M-0.29 -0.14 C77.96 2.1, 155.37 1.78, 199.22 -0.44 M200.81 0.22 C199.88 18.47, 201.34 40.74, 201.72 64.65 M199.61 0.98 C200.21 25.14, 200.67 50.35, 199.46 63.47 M201.38 63.77 C129.66 64.6, 56.82 66.45, -1.07 62.7 M199.18 64.23 C129.75 63.64, 59.37 64.01, -0.13 63.41 M-1.96 63.33 C-0.15 46.16, 0.1 26.9, 0.69 -1.44 M-0.71 63.91 C-0.99 48.14, -0.15 32.81, 0.61 0.01" stroke="#40916c" stroke-width="2" fill="none"></path></g><g transform="translate(59.020050048828125 29.5) rotate(0 50.979949951171875 12.5)"><text x="50.979949951171875" y="NaN" font-family="Virgil, Segoe UI Emoji" font-size="20px" fill="#ffffff" text-anchor="middle" style="white-space: pre;" direction="ltr">Application</text></g><g stroke-linecap="round" transform="translate(17.350393837927868 294.7252700423279) rotate(0 100 32)"><path d="M-1.09 -0.73 L198.64 -1.79 L198.53 64.99 L-0.46 64.59" stroke="none" stroke-width="0" fill="#b45309"></path><path d="M-0.61 -1.58 C69.97 1.18, 139.57 1.77, 201.47 -1.25 M-0.82 0.82 C54.83 -1.68, 109.84 -2.25, 200.73 0.47 M198.96 1.22 C200.38 23.87, 200.6 47.14, 199.28 65.17 M200.8 -0.21 C200.7 17.61, 199.26 34.28, 199.09 64.88 M201.57 63 C157.23 63.83, 112.88 63.72, -1.65 64.85 M199.38 63.71 C148.7 65.41, 98.97 64.81, -0.35 63.56 M-0.84 62.21 C0.31 47.43, 1.64 34.37, -0.94 1.74 M0.16 63.9 C0.9 44, -0.24 26.16, 0.37 -0.04" stroke="#d97706" stroke-width="2" fill="none"></path></g><g transform="translate(88.81041581058412 314.2252700423279) rotate(0 28.53997802734375 12.5)"><text x="28.53997802734375" y="NaN" font-family="Virgil, Segoe UI Emoji" font-size="20px" fill="#ffffff" text-anchor="middle" style="white-space: pre;" direction="ltr">Cache</text></g><g stroke-linecap="round" transform="translate(424.051057696975 14.337804700708517) rotate(0 100 32)"><path d="M0.51 0.96 L198.83 1.45 L199.55 65.93 L-0.75 62.72" stroke="none" stroke-width="0" fill="#5b21b6"></path><path d="M-1.13 -1.71 C68.82 0.31, 141.16 -2.31, 198.61 0.16 M0.44 -0.03 C71.69 -1.86, 144.32 -0.88, 200.44 -0.42 M201.1 -1.77 C200.87 16.48, 199.86 31.94, 200.84 65.7 M199.99 0.59 C200.47 22.88, 201.13 43.8, 200.72 64.29 M201.76 62.23 C144.8 66.66, 85.35 64.59, 1.36 63.39 M199.59 63.19 C127.65 65.39, 56.78 65.61, -0.57 63.71 M0.28 65.08 C0.78 39.89, -0.83 16.25, 1.43 0.92 M-0.96 63.9 C-0.5 41.86, 0.38 19.51, 0.14 -0.08" stroke="#7c3aed" stroke-width="2" fill="none"></path></g><g transform="translate(474.6110934025414 33.83780470070852) rotate(0 49.439964294433594 12.5)"><text x="49.439964294433594" y="NaN" font-family="Virgil, Segoe UI Emoji" font-size="20px" fill="#ffffff" text-anchor="middle" style="white-space: pre;" direction="ltr">Database</text></g><g stroke-linecap="round"><g transform="translate(74.01755258056471 80) rotate(0 1.5046195966902047 104.36263502116394)"><path d="M-0.52 -1.09 C-0.02 23.7, 3.17 114.66, 3.61 149.59 C4.05 184.52, 2.21 198.71, 2.11 208.49 M1.4 0.95 C1.8 25.36, 2.76 113.21, 3.28 148 C3.8 182.79, 4.53 199.49, 4.53 209.69" stroke="#3b82f6" stroke-width="2" fill="none"></path></g><g transform="translate(74.01755258056471 80) rotate(0 1.5046195966902047 104.36263502116394)"><path d="M-7.98 183.61 C-0.54 189.98, 1.1 201.27, 3.82 211.44 M-6.26 180.68 C-4.23 188.91, -0.27 194.59, 4.7 210.24" stroke="#3b82f6" stroke-width="2" fill="none"></path></g><g transform="translate(74.01755258056471 80) rotate(0 1.5046195966902047 104.36263502116394)"><path d="M12.54 183.3 C12.82 189.69, 7.31 201.09, 3.82 211.44 M14.26 180.37 C11.25 188.74, 10.19 194.5, 4.7 210.24" stroke="#3b82f6" stroke-width="2" fill="none"></path></g></g><g transform="translate(147.4987547952312 217.26575841569408) rotate(0 47.83496856689453 11.25)"><text x="47.83496856689453" y="NaN" font-family="Virgil, Segoe UI Emoji" font-size="18px" fill="#cdd6f4" text-anchor="middle" style="white-space: pre;" direction="ltr">1. GET key</text></g><g stroke-linecap="round"><g transform="translate(136.2883760095631 288.7252700423279) rotate(0 -2.8089727539488507 -108.1447575314997)"><path d="M0.45 0.96 C-0.01 -24.12, -1.09 -115.21, -2.19 -151.28 C-3.29 -187.35, -5.66 -204.64, -6.13 -215.47" stroke="#40916c" stroke-width="2.5" fill="none" stroke-dasharray="8 10"></path></g><g transform="translate(136.2883760095631 288.7252700423279) rotate(0 -2.8089727539488507 -108.1447575314997)"><path d="M7.73 -186.27 C2.44 -198.43, -0.87 -206.04, -6.01 -216.14" stroke="#40916c" stroke-width="2.5" fill="none"></path></g><g transform="translate(136.2883760095631 288.7252700423279) rotate(0 -2.8089727539488507 -108.1447575314997)"><path d="M-12.74 -184.81 C-10.88 -197.55, -7.05 -205.67, -6.01 -216.14" stroke="#40916c" stroke-width="2.5" fill="none"></path></g></g><g transform="translate(130.5977538186687 206.26575841569408) rotate(0 54.73596954345703 20)"><text x="54.73596954345703" y="NaN" font-family="Virgil, Segoe UI Emoji" font-size="16px" fill="#40916c" text-anchor="middle" style="white-space: pre;" direction="ltr">2a. Cache Hit</text><text x="54.73596954345703" y="NaN" font-family="Virgil, Segoe UI Emoji" font-size="16px" fill="#40916c" text-anchor="middle" style="white-space: pre;" direction="ltr">return value</text></g><g stroke-linecap="round"><g transform="translate(216 42.12799168230366) rotate(0 101.02552884848751 2.0473106680506064)"><path d="M-0.98 0.62 C32.77 1.21, 169.23 3.09, 203.05 3.58 M0.71 -0.1 C34.33 0.65, 169.23 4.06, 202.62 4.84" stroke="#f08c00" stroke-width="2" fill="none"></path></g><g transform="translate(216 42.12799168230366) rotate(0 101.02552884848751 2.0473106680506064)"><path d="M175.23 16.07 C183.24 11.11, 193.15 6.14, 203.56 5.73 M174.9 13.55 C181.36 13.33, 186.03 9.51, 202.15 5.41" stroke="#f08c00" stroke-width="2" fill="none"></path></g><g transform="translate(216 42.12799168230366) rotate(0 101.02552884848751 2.0473106680506064)"><path d="M175.73 -4.44 C183.58 -2.25, 193.31 -0.07, 203.56 5.73 M175.4 -6.97 C181.67 -2.76, 186.22 -2.14, 202.15 5.41" stroke="#f08c00" stroke-width="2" fill="none"></path></g></g><g transform="translate(261.39656156333126 32.925302350354265) rotate(0 55.62896728515625 11.25)"><text x="55.62896728515625" y="NaN" font-family="Virgil, Segoe UI Emoji" font-size="18px" fill="#f08c00" text-anchor="middle" style="white-space: pre;" direction="ltr">3. Query DB</text></g><g stroke-linecap="round"><g transform="translate(525.4408435448337 84.31667878882263) rotate(0 -154.7204217724168 7.348235484319666)"><path d="M0 0.28 C-26.78 7.25, -108.51 47.14, -160.04 42.7 C-211.57 38.26, -284.19 -14.93, -309.17 -26.35" stroke="#f08c00" stroke-width="2.5" fill="none" stroke-dasharray="8 10"></path></g><g transform="translate(525.4408435448337 84.31667878882263) rotate(0 -154.7204217724168 7.348235484319666)"><path d="M-279.13 -19.77 C-288.09 -22.6, -299.37 -25.57, -307.4 -27.89" stroke="#f08c00" stroke-width="2.5" fill="none"></path></g><g transform="translate(525.4408435448337 84.31667878882263) rotate(0 -154.7204217724168 7.348235484319666)"><path d="M-289.3 -1.95 C-294.84 -10.99, -302.57 -20.18, -307.4 -27.89" stroke="#f08c00" stroke-width="2.5" fill="none"></path></g></g><g transform="translate(416.600759800114 217.26575841569408) rotate(0 68.73296356201172 11.25)"><text x="68.73296356201172" y="NaN" font-family="Virgil, Segoe UI Emoji" font-size="18px" fill="#f08c00" text-anchor="middle" style="white-space: pre;" direction="ltr">4. Return data</text></g><g stroke-linecap="round"><g transform="translate(199.63179894269558 79.52195994767139) rotate(0 31.481207532468943 114.49892060862325)"><path d="M0.97 -0.06 C11.5 18.17, 59.9 70.66, 63.79 108.7 C67.68 146.74, 30.97 208.28, 24.32 228.19" stroke="#f08c00" stroke-width="2.5" fill="none" stroke-dasharray="8 10"></path></g><g transform="translate(199.63179894269558 79.52195994767139) rotate(0 31.481207532468943 114.49892060862325)"><path d="M26.3 199.64 C26.08 209.83, 23.42 219.49, 22.91 228.22" stroke="#f08c00" stroke-width="2.5" fill="none"></path></g><g transform="translate(199.63179894269558 79.52195994767139) rotate(0 31.481207532468943 114.49892060862325)"><path d="M45.05 207.98 C38.34 215.41, 29.14 222.16, 22.91 228.22" stroke="#f08c00" stroke-width="2.5" fill="none"></path></g></g><g transform="translate(76.00475149933277 230.26575841569408) rotate(0 49.32897186279297 11.25)"><text x="49.32897186279297" y="NaN" font-family="Virgil, Segoe UI Emoji" font-size="18px" fill="#f08c00" text-anchor="middle" style="white-space: pre;" direction="ltr">5. SET key</text></g><g stroke-opacity="0.8" fill-opacity="0.8" transform="translate(80.9317172556946 174.31985519492517) rotate(0 59.351959228515625 10)"><text x="59.351959228515625" y="NaN" font-family="Virgil, Segoe UI Emoji" font-size="16px" fill="#e11d48" text-anchor="middle" style="white-space: pre;" direction="ltr">2b. Cache Miss</text></g></svg>