<svg version="1.1" xmlns="http://www.w3.org/2000/svg" viewBox="0 0 843.7420626898693 443.6919309809542" width="843.7420626898693" height="443.6919309809542">
  <!-- svg-source:excalidraw -->
  
  <defs>
    <style>
      @font-face {
        font-family: "Virgil";
        src: url("https://excalidraw.com/Virgil.woff2");
      }
      @font-face {
        font-family: "Cascadia";
        src: url("https://excalidraw.com/Cascadia.woff2");
      }
    </style>
  </defs>
  <rect x="0" y="0" width="843.7420626898693" height="443.6919309809542" fill="#0d1117"></rect><g stroke-opacity="0.6" fill-opacity="0.6" stroke-linecap="round" transform="translate(10 10) rotate(0 410 85)"><path d="M-0.92 -1.83 L821.09 1.86 L819.71 169.21 L1.51 171.62" stroke="none" stroke-width="0" fill="#161b22"></path><path d="M0.23 -0.27 C202.7 -1.86, 407.03 -1.46, 820.75 0.06 M821.14 -0.86 C819.78 63.52, 818.86 124.2, 820.55 171.38 M820.66 170.61 C516.65 168.71, 211.36 168.99, -0.29 170.67 M-1.69 170.35 C2.14 111.94, -0.35 53.09, 1.66 0.43" stroke="#30363d" stroke-width="2.5" fill="none" stroke-dasharray="8 10"></path></g><g transform="translate(381.4540252685547 20) rotate(0 48.54597473144531 11.25)"><text x="48.54597473144531" y="NaN" font-family="Virgil, Segoe UI Emoji" font-size="18px" fill="#8b949e" text-anchor="middle" style="white-space: pre;" direction="ltr">Write Path</text></g><g stroke-opacity="0.6" fill-opacity="0.6" stroke-linecap="round" transform="translate(13.742062689869215 214.45529099593244) rotate(0 410 109.61831999251089)"><path d="M0.33 0.26 L821 -1.93 L818.86 218.56 L0.73 218.12" stroke="none" stroke-width="0" fill="#161b22"></path><path d="M0 -0.32 C203.8 2.31, 406.16 2.87, 819.48 0.69 M819.96 1.09 C821.04 55.04, 821.26 111.91, 819.92 218.72 M819.92 218.65 C623.4 221.31, 425.81 221.8, 0.33 218.51 M0.6 220.93 C-1.99 172.74, -0.51 123.81, 0.79 -0.66" stroke="#30363d" stroke-width="2.5" fill="none" stroke-dasharray="8 10"></path></g><g transform="translate(381.8680191040039 230) rotate(0 48.131980895996094 11.25)"><text x="48.131980895996094" y="NaN" font-family="Virgil, Segoe UI Emoji" font-size="18px" fill="#8b949e" text-anchor="middle" style="white-space: pre;" direction="ltr">Read Path</text></g><g stroke-linecap="round" transform="translate(50 70) rotate(0 90 32)"><path d="M-1.55 1.07 L181.1 -0.45 L179.05 64.48 L-1.48 63.34" stroke="none" stroke-width="0" fill="#1f4d2b"></path><path d="M-0.56 -0.96 C44.82 0.03, 90.34 1.87, 179.53 -0.72 M-0.62 -0.31 C61.08 -0.52, 122.65 0.04, 179.63 0.71 M181.95 -0.46 C178.87 20.02, 181.04 41.63, 178.39 62.71 M179.53 -0.22 C180.13 18.23, 179.07 38.05, 180.08 63.03 M178.28 62 C111.18 64.79, 43.6 65.55, 0.83 62.63 M180.23 64.7 C131.07 64.83, 81.7 64.2, -0.69 64.55 M-0.55 63.49 C-1.19 48.46, -1.47 32.94, 1.49 0.76 M0.42 64.5 C-0.38 51.51, -0.61 38.22, 0.25 -0.07" stroke="#3fb950" stroke-width="2" fill="none"></path></g><g transform="translate(89.02005004882812 89.5) rotate(0 50.979949951171875 12.5)"><text x="50.979949951171875" y="NaN" font-family="Virgil, Segoe UI Emoji" font-size="20px" fill="#ffffff" text-anchor="middle" style="white-space: pre;" direction="ltr">Application</text></g><g stroke-linecap="round" transform="translate(630 70) rotate(0 90 32)"><path d="M0.05 -1.24 L181.29 -1.2 L180.07 65.42 L-1.77 65.47" stroke="none" stroke-width="0" fill="#3a1d6e"></path><path d="M-1.13 -1.1 C43.54 -0.78, 88.11 -2.51, 180.36 0.85 M0.79 0.74 C40.21 1.22, 79.75 1.51, 179.31 -0.28 M180.1 0.54 C178.08 25.42, 179.02 48.03, 179.95 63.23 M180.72 0.58 C179.9 23.5, 180.94 47.58, 179.71 64.44 M178.49 65.15 C136.01 63.94, 94.3 66.53, 0.17 65.02 M180.45 64.13 C112.06 63.11, 43.57 61.39, -0.93 64.71 M0.57 62.37 C-0.72 40.92, 0.07 14.81, -0.14 -0.06 M-0.71 64.5 C0.22 47.37, 0.02 29.57, 0.01 -0.12" stroke="#a371f7" stroke-width="2" fill="none"></path></g><g transform="translate(670.5600357055664 89.5) rotate(0 49.439964294433594 12.5)"><text x="49.439964294433594" y="NaN" font-family="Virgil, Segoe UI Emoji" font-size="20px" fill="#ffffff" text-anchor="middle" style="white-space: pre;" direction="ltr">Database</text></g><g stroke-linecap="round"><g transform="translate(230 102) rotate(0 200 0)"><path d="M-0.41 -1.02 C66.24 -0.92, 332.38 0.76, 399.25 0.99 M1.58 1.06 C68.67 0.8, 335.08 -0.14, 401.57 -0.61" stroke="#3fb950" stroke-width="2" fill="none"></path></g><g transform="translate(230 102) rotate(0 200 0)"><path d="M371.73 8.55 C382.03 8.71, 387.99 4.83, 402.75 -2.19 M373.63 9.59 C381.93 6.36, 390.52 3.15, 402.56 0.12" stroke="#3fb950" stroke-width="2" fill="none"></path></g><g transform="translate(230 102) rotate(0 200 0)"><path d="M371.63 -11.97 C382.02 -6.72, 388 -5.52, 402.75 -2.19 M373.52 -10.93 C381.73 -7.82, 390.35 -4.69, 402.56 0.12" stroke="#3fb950" stroke-width="2" fill="none"></path></g></g><g transform="translate(343.48805236816406 82) rotate(0 86.51194763183594 20)"><text x="86.51194763183594" y="NaN" font-family="Virgil, Segoe UI Emoji" font-size="16px" fill="#c9d1d9" text-anchor="middle" style="white-space: pre;" direction="ltr">1. Write directly</text><text x="86.51194763183594" y="NaN" font-family="Virgil, Segoe UI Emoji" font-size="16px" fill="#c9d1d9" text-anchor="middle" style="white-space: pre;" direction="ltr">to DB (bypass cache)</text></g><g stroke-linecap="round" transform="translate(25.67121020818894 262.7492049432972) rotate(0 90 46.68254782203962)"><path d="M-0.76 -1.87 L181.65 1.29 L178.1 92.65 L1.63 95.1" stroke="none" stroke-width="0" fill="#1f4d2b"></path><path d="M1.73 -1.39 C44.99 -2.79, 87.64 0.33, 178.01 -0.01 M-0.4 0.86 C70.48 -0.89, 141.93 -1.16, 180.67 -0.25 M180.39 -1.45 C178.9 28.85, 181.36 58.06, 179.08 93.64 M179.11 0.19 C178.74 28.45, 179.97 59.46, 180.97 92.62 M178.91 92.81 C113.69 95.6, 47.7 93.85, -1.14 95.15 M180.91 94.34 C110.05 94.23, 41.31 92.34, 0.58 92.41 M-1.19 93.48 C1.32 68.53, 0.25 42.57, 0.59 -1.71 M-0.97 93.85 C0.89 59.5, 0.74 23.72, -0.46 -0.21" stroke="#3fb950" stroke-width="2" fill="none"></path></g><g transform="translate(64.69126025701706 296.9317527653368) rotate(0 50.979949951171875 12.5)"><text x="50.979949951171875" y="NaN" font-family="Virgil, Segoe UI Emoji" font-size="20px" fill="#ffffff" text-anchor="middle" style="white-space: pre;" direction="ltr">Application</text></g><g stroke-linecap="round" transform="translate(406.13461073870155 268.58264055183) rotate(0 57.77451001467966 44.58301741640631)"><path d="M-1.94 -0.64 L115.82 -1.19 L117.19 88.5 L-1.89 88.84" stroke="none" stroke-width="0" fill="#5c3a10"></path><path d="M-0.39 -0.22 C26.24 -0.74, 53.91 2.34, 117.06 0 M0.9 0.06 C33.03 -0.33, 65.19 -0.58, 116.51 0.87 M116.55 -0.27 C116.03 33.92, 114.68 70.67, 116.68 88.09 M116 0.16 C117.16 20.5, 116.32 39.75, 116.07 88.41 M114.83 87.17 C81.28 87.5, 50.84 90.61, -0.63 87.66 M116.41 89.36 C83.65 88.44, 52.42 88.49, 0.02 88.71 M-1.41 88.84 C2.36 70.28, 2.61 49.2, 0.92 -1.97 M-0.08 89.32 C-0.33 63.85, -0.69 37.67, 0.54 -0.13" stroke="#f0883e" stroke-width="2" fill="none"></path></g><g transform="translate(435.36914272603747 300.6656579682363) rotate(0 28.53997802734375 12.5)"><text x="28.53997802734375" y="NaN" font-family="Virgil, Segoe UI Emoji" font-size="20px" fill="#ffffff" text-anchor="middle" style="white-space: pre;" direction="ltr">Cache</text></g><g stroke-linecap="round" transform="translate(681.1309289761078 267.6072341261452) rotate(0 64.43453551194608 42.62401681037821)"><path d="M-1.56 1.5 L126.88 -0.23 L129 86.41 L1.04 87.24" stroke="none" stroke-width="0" fill="#3a1d6e"></path><path d="M0.58 -1.68 C33.76 -0.76, 65.82 -0.78, 128.53 -0.87 M0.41 0.98 C46.07 -1.19, 94.78 -0.02, 128.89 -0.23 M129.56 0.55 C128.87 22.97, 128.86 45.5, 127.07 86.57 M128.36 -0.21 C128.03 22.52, 129.44 43.57, 129.09 85.32 M128.21 86.98 C91.2 85.66, 51.9 87.56, 1.56 83.81 M128.23 85.07 C78.99 85.42, 28.1 87.36, 0.09 84.63 M1.04 87.11 C-0.38 54.42, 0.69 20.36, 1.33 0.64 M0.78 85.72 C-0.15 60.84, -0.26 37.78, -0.93 -0.31" stroke="#a371f7" stroke-width="2" fill="none"></path></g><g transform="translate(696.1255001936204 297.73125093652345) rotate(0 49.439964294433594 12.5)"><text x="49.439964294433594" y="NaN" font-family="Virgil, Segoe UI Emoji" font-size="20px" fill="#ffffff" text-anchor="middle" style="white-space: pre;" direction="ltr">Database</text></g><g stroke-linecap="round"><g transform="translate(211.4958057361119 281.945886771691) rotate(0 94.32259919132767 4.079956385557466)"><path d="M1.08 0.01 C32.45 1.61, 156.29 7.16, 187.55 8.48 M0.19 -1.03 C31.97 0.29, 158.41 4.83, 189.69 6.53" stroke="#2f9e44" stroke-width="2" fill="none"></path></g><g transform="translate(211.4958057361119 281.945886771691) rotate(0 94.32259919132767 4.079956385557466)"><path d="M161.09 13.72 C168.79 13.07, 175.03 11.23, 190.17 7.23 M160.89 15.58 C169.04 13.83, 174.45 10.46, 189.39 7.31" stroke="#2f9e44" stroke-width="2" fill="none"></path></g><g transform="translate(211.4958057361119 281.945886771691) rotate(0 94.32259919132767 4.079956385557466)"><path d="M161.99 -6.78 C169.28 -2.34, 175.29 0.9, 190.17 7.23 M161.79 -4.92 C169.66 -1.53, 174.85 0.24, 189.39 7.31" stroke="#2f9e44" stroke-width="2" fill="none"></path></g></g><g transform="translate(259.8817541344322 271.96067075188506) rotate(0 45.95198059082031 20)"><text x="45.95198059082031" y="NaN" font-family="Virgil, Segoe UI Emoji" font-size="16px" fill="#c9d1d9" text-anchor="middle" style="white-space: pre;" direction="ltr">2. Read: </text><text x="45.95198059082031" y="NaN" font-family="Virgil, Segoe UI Emoji" font-size="16px" fill="#c9d1d9" text-anchor="middle" style="white-space: pre;" direction="ltr">check cache</text></g><g stroke-linecap="round"><g transform="translate(527.683630768061 313.0641381253897) rotate(0 73.72364910402351 -1.3569629695871583)"><path d="M-0.34 -0.33 C24.14 -0.81, 121.57 -2.91, 146.27 -3.16" stroke="#f0883e" stroke-width="2.5" fill="none" stroke-dasharray="8 10"></path></g><g transform="translate(527.683630768061 313.0641381253897) rotate(0 73.72364910402351 -1.3569629695871583)"><path d="M117.69 5.6 C124.48 5.66, 133.61 3.82, 147.58 -4.89" stroke="#f0883e" stroke-width="2.5" fill="none"></path></g><g transform="translate(527.683630768061 313.0641381253897) rotate(0 73.72364910402351 -1.3569629695871583)"><path d="M117.35 -14.92 C124.17 -9.77, 133.38 -6.52, 147.58 -4.89" stroke="#f0883e" stroke-width="2.5" fill="none"></path></g></g><g transform="translate(545.4953230849751 290.21630133798965) rotate(0 55.911956787109375 20)"><text x="55.911956787109375" y="NaN" font-family="Virgil, Segoe UI Emoji" font-size="16px" fill="#f0883e" text-anchor="middle" style="white-space: pre;" direction="ltr">3. Cache miss:</text><text x="55.911956787109375" y="NaN" font-family="Virgil, Segoe UI Emoji" font-size="16px" fill="#f0883e" text-anchor="middle" style="white-space: pre;" direction="ltr">load from DB</text></g><g stroke-linecap="round"><g transform="translate(211.49043785519765 336.9781690431428) rotate(0 94.35462229748843 0.9730304680788038)"><path d="M0.63 -0.68 C18.13 -0.24, 72.88 2.94, 104.36 3.13 C135.84 3.33, 175.59 1.05, 189.5 0.5" stroke="#f0883e" stroke-width="2.5" fill="none" stroke-dasharray="8 10"></path></g><g transform="translate(211.49043785519765 336.9781690431428) rotate(0 94.35462229748843 0.9730304680788038)"><path d="M160.68 13.92 C170.6 10.35, 174.69 4.75, 187.64 0.34" stroke="#f0883e" stroke-width="2.5" fill="none"></path></g><g transform="translate(211.49043785519765 336.9781690431428) rotate(0 94.35462229748843 0.9730304680788038)"><path d="M159.75 -6.58 C169.99 -5.07, 174.3 -5.59, 187.64 0.34" stroke="#f0883e" stroke-width="2.5" fill="none"></path></g></g><g transform="translate(265.6831323914576 303.148856499783) rotate(0 49.85596466064453 20)"><text x="49.85596466064453" y="NaN" font-family="Virgil, Segoe UI Emoji" font-size="16px" fill="#f0883e" text-anchor="middle" style="white-space: pre;" direction="ltr">4. Populate </text><text x="49.85596466064453" y="NaN" font-family="Virgil, Segoe UI Emoji" font-size="16px" fill="#f0883e" text-anchor="middle" style="white-space: pre;" direction="ltr">cache</text></g></svg>