<svg version="1.1" xmlns="http://www.w3.org/2000/svg" viewBox="0 0 822.2813877775351 179.42288096060184" width="822.2813877775351" height="179.42288096060184">
  <!-- svg-source:excalidraw -->
  
  <defs>
    <style>
      @font-face {
        font-family: "Virgil";
        src: url("https://excalidraw.com/Virgil.woff2");
      }
      @font-face {
        font-family: "Cascadia";
        src: url("https://excalidraw.com/Cascadia.woff2");
      }
    </style>
  </defs>
  <rect x="0" y="0" width="822.2813877775351" height="179.42288096060184" fill="#1e1e2e"></rect><g stroke-linecap="round" transform="translate(10 79.42288096060184) rotate(0 57.441969616198264 32)"><path d="M0.22 -0.25 L114.76 0.12 L113.66 65.88 L-1.24 63.39" stroke="none" stroke-width="0" fill="#2d6a4f"></path><path d="M-1.07 -0.19 C33.55 -0.15, 69.55 -0.79, 113.3 1.69 M0.01 -0.57 C40.92 0.62, 81.39 0.48, 115.73 0.28 M114.97 -1.81 C115.12 12.99, 113.35 25.68, 112.93 62.17 M115.81 0.77 C114.85 21.17, 114.76 40.71, 115.4 64.59 M112.9 63.7 C78.28 63.17, 43.87 63.82, -0.2 65.51 M114 64.65 C77.35 63.06, 40.56 64.16, 0.77 64.65 M0.81 62.95 C1.62 48.21, -0.14 30.33, 0.79 -1.67 M0.37 64.82 C0.48 43.42, -0.36 21.48, 0.78 -0.97" stroke="#40916c" stroke-width="2" fill="none"></path></g><g transform="translate(16.46201966502639 98.92288096060184) rotate(0 50.979949951171875 12.5)"><text x="50.979949951171875" y="NaN" font-family="Virgil, Segoe UI Emoji" font-size="20px" fill="#ffffff" text-anchor="middle" style="white-space: pre;" direction="ltr">Application</text></g><g stroke-linecap="round" transform="translate(381.30532583194497 78.81222852279552) rotate(0 59.7302810660897 32)"><path d="M1.82 1.44 L119.52 -0.64 L119.25 62.82 L-1.54 65.52" stroke="none" stroke-width="0" fill="#b45309"></path><path d="M-1.65 -0.34 C33.63 -0.47, 70.04 -0.68, 118.7 -0.74 M-0.58 0.49 C28.62 0.2, 57.62 -0.21, 119.99 -0.71 M117.69 -0.81 C120.19 18.4, 121.19 36.08, 119.07 62.69 M119.57 -0.43 C119.92 24.44, 119.92 50.24, 119.6 63.99 M117.69 62.84 C74.11 66.37, 31.98 64.84, -0.86 63.9 M118.8 64.08 C91.59 64.64, 64.36 64.66, 0.53 64.81 M1.93 65.82 C-1.92 49.47, 1.39 33.81, -0.84 1.51 M-0.76 64.81 C1.08 39.28, 0.27 14.83, 0.55 0.99" stroke="#d97706" stroke-width="2" fill="none"></path></g><g transform="translate(412.4956288706909 98.31222852279552) rotate(0 28.53997802734375 12.5)"><text x="28.53997802734375" y="NaN" font-family="Virgil, Segoe UI Emoji" font-size="20px" fill="#ffffff" text-anchor="middle" style="white-space: pre;" direction="ltr">Cache</text></g><g stroke-linecap="round" transform="translate(681.4461437556164 78.97552436775561) rotate(0 65.41762201095935 32)"><path d="M-0.58 -0.88 L131.08 -1.4 L131.64 63.75 L-1.84 63.65" stroke="none" stroke-width="0" fill="#5b21b6"></path><path d="M1.78 -0.48 C39.74 1.64, 78.57 1.86, 130.9 0.83 M0.82 -0.45 C42.3 1.86, 85.81 1.16, 131.04 0.3 M131.21 0.2 C132.06 23.8, 131.82 42.48, 132 63.21 M130.14 0.37 C129.79 16.91, 129.88 34.17, 130.6 63.4 M129.28 65.99 C99.43 65.58, 72.26 65.88, -1.51 62.28 M130.41 63.5 C86.45 64.3, 44.58 65.23, 0.28 64.98 M-0.96 64.7 C-0.17 41.94, 0.21 15.68, 1.53 0.69 M0.11 64.81 C-0.32 49.94, 0.9 33.77, 0.31 0.94" stroke="#7c3aed" stroke-width="2" fill="none"></path></g><g transform="translate(697.4238014721421 98.47552436775561) rotate(0 49.439964294433594 12.5)"><text x="49.439964294433594" y="NaN" font-family="Virgil, Segoe UI Emoji" font-size="20px" fill="#ffffff" text-anchor="middle" style="white-space: pre;" direction="ltr">Database</text></g><g stroke-linecap="round"><g transform="translate(130.8172706166968 93.22764536319019) rotate(0 122.25940893208205 0.04066620660726272)"><path d="M0.59 0.73 C41.29 0.67, 203.3 0.07, 244.14 -0.19 M-0.56 0.06 C39.95 0.17, 201.99 1.21, 243 1.21" stroke="#40916c" stroke-width="2" fill="none"></path></g><g transform="translate(130.8172706166968 93.22764536319019) rotate(0 122.25940893208205 0.04066620660726272)"><path d="M215.98 10.74 C222.7 10.08, 230.06 3.71, 243.89 -0.39 M215 11.97 C220.04 9.72, 227.32 6.58, 242.88 0.52" stroke="#40916c" stroke-width="2" fill="none"></path></g><g transform="translate(130.8172706166968 93.22764536319019) rotate(0 122.25940893208205 0.04066620660726272)"><path d="M216.06 -9.78 C222.78 -4.34, 230.12 -4.61, 243.89 -0.39 M215.07 -8.55 C220.04 -6.44, 227.31 -5.21, 242.88 0.52" stroke="#40916c" stroke-width="2" fill="none"></path></g></g><g transform="translate(241.02101135253906 78.92288096060184) rotate(0 38.97898864746094 22.5)"><text x="38.97898864746094" y="NaN" font-family="Virgil, Segoe UI Emoji" font-size="18px" fill="#cdd6f4" text-anchor="middle" style="white-space: pre;" direction="ltr">1. Write </text><text x="38.97898864746094" y="NaN" font-family="Virgil, Segoe UI Emoji" font-size="18px" fill="#cdd6f4" text-anchor="middle" style="white-space: pre;" direction="ltr">to cache</text></g><g stroke-linecap="round"><g transform="translate(384.50989186021167 136.32844790048082) rotate(0 -126.81404392619223 -4.302995125217905)"><path d="M-0.83 0.39 C-43.18 -1.39, -211.81 -8.17, -254.09 -9.64" stroke="#40916c" stroke-width="2.5" fill="none" stroke-dasharray="8 10"></path></g><g transform="translate(384.50989186021167 136.32844790048082) rotate(0 -126.81404392619223 -4.302995125217905)"><path d="M-224.89 -19.6 C-235.68 -17.77, -242.17 -13.96, -252.38 -9.67" stroke="#40916c" stroke-width="2.5" fill="none"></path></g><g transform="translate(384.50989186021167 136.32844790048082) rotate(0 -126.81404392619223 -4.302995125217905)"><path d="M-225.67 0.91 C-236.4 -3.35, -242.66 -5.65, -252.38 -9.67" stroke="#40916c" stroke-width="2.5" fill="none"></path></g></g><g transform="translate(206.16004943847656 129.42288096060184) rotate(0 73.83995056152344 20)"><text x="73.83995056152344" y="NaN" font-family="Virgil, Segoe UI Emoji" font-size="16px" fill="#40916c" text-anchor="middle" style="white-space: pre;" direction="ltr">2. ACK immediately</text><text x="73.83995056152344" y="NaN" font-family="Virgil, Segoe UI Emoji" font-size="16px" fill="#40916c" text-anchor="middle" style="white-space: pre;" direction="ltr">(microseconds)</text></g><g stroke-linecap="round"><g transform="translate(506.7658879641244 110.86326909664012) rotate(0 84.34012789574601 0.05728982188651344)"><path d="M0.14 0.04 C28.17 0.26, 140.12 0.89, 168.13 0.71" stroke="#1971c2" stroke-width="2.5" fill="none" stroke-dasharray="8 10"></path></g><g transform="translate(506.7658879641244 110.86326909664012) rotate(0 84.34012789574601 0.05728982188651344)"><path d="M140.01 10.04 C149.36 7.06, 154.79 5.51, 166.67 2.25" stroke="#1971c2" stroke-width="2.5" fill="none"></path></g><g transform="translate(506.7658879641244 110.86326909664012) rotate(0 84.34012789574601 0.05728982188651344)"><path d="M140.02 -10.48 C149.27 -7.36, 154.69 -2.81, 166.67 2.25" stroke="#1971c2" stroke-width="2.5" fill="none"></path></g></g><g transform="translate(579.6553473006927 88.68127189793682) rotate(0 50.309974670410156 22.5)"><text x="50.309974670410156" y="NaN" font-family="Virgil, Segoe UI Emoji" font-size="18px" fill="#1971c2" text-anchor="middle" style="white-space: pre;" direction="ltr">3. Async </text><text x="50.309974670410156" y="NaN" font-family="Virgil, Segoe UI Emoji" font-size="18px" fill="#1971c2" text-anchor="middle" style="white-space: pre;" direction="ltr">batch flush</text></g><g stroke-opacity="0.8" fill-opacity="0.8" transform="translate(315.24604349102543 10) rotate(0 113.42392730712888 20)"><text x="113.4239273071289" y="NaN" font-family="Virgil, Segoe UI Emoji" font-size="16px" fill="#a6adc8" text-anchor="middle" style="white-space: pre;" direction="ltr">Write coalescing:</text><text x="113.4239273071289" y="NaN" font-family="Virgil, Segoe UI Emoji" font-size="16px" fill="#a6adc8" text-anchor="middle" style="white-space: pre;" direction="ltr">5000 updates -&gt; 1 DB write</text></g></svg>