<svg version="1.1" xmlns="http://www.w3.org/2000/svg" viewBox="0 0 1439.2784661853482 137.09236964349986" width="1439.2784661853482" height="137.09236964349986">
  <!-- svg-source:excalidraw -->
  
  <defs>
    <style>
      @font-face {
        font-family: "Virgil";
        src: url("https://excalidraw.com/Virgil.woff2");
      }
      @font-face {
        font-family: "Cascadia";
        src: url("https://excalidraw.com/Cascadia.woff2");
      }
    </style>
  </defs>
  <rect x="0" y="0" width="1439.2784661853482" height="137.09236964349986" fill="#1e1e2e"></rect><g stroke-linecap="round" transform="translate(10 30.742639129347026) rotate(0 96.5 36.5)"><path d="M0.55 0.59 L193.16 0.62 L193.09 72.65 L0.44 73.35" stroke="none" stroke-width="0" fill="#2d6a4f"></path><path d="M-1.73 -0.43 C60.26 -0.04, 123.9 -1.85, 191.49 -0.99 M0.99 0.27 C65.17 -1.56, 131.71 -2.41, 192.96 -0.54 M194.16 1.02 C194.08 25.45, 191.71 47.71, 192.83 72.92 M193.64 0.35 C192.52 27.33, 193.85 56.47, 192.35 73.16 M192.09 71.85 C151.54 74.82, 112.9 74.78, 1.67 71.13 M192.75 73.76 C125.77 73.65, 58.11 75.49, 0.9 73.31 M-0.62 72.01 C-1.66 57.81, -2.02 40.73, 0.43 -0.11 M-0.89 73.46 C-0.66 52.35, 0.4 33.39, 0.25 -0.18" stroke="#40916c" stroke-width="2" fill="none"></path></g><g transform="translate(55.520050048828125 54.742639129347026) rotate(0 50.979949951171875 12.5)"><text x="50.979949951171875" y="NaN" font-family="Virgil, Segoe UI Emoji" font-size="20px" fill="#fff" text-anchor="middle" style="white-space: pre;" direction="ltr">Application</text></g><g stroke-linecap="round" transform="translate(311.9334355746224 34.23594340256727) rotate(0 146 36.5)"><path d="M1.5 -0.24 L291.21 -0.65 L290.95 72.8 L0.82 72.29" stroke="none" stroke-width="0" fill="#2d6a4f"></path><path d="M0.64 -1.4 C59.55 0.41, 116.2 -1.15, 292.18 0.54 M0.15 -0.08 C69.79 -1.71, 138.12 -1.53, 292.08 -0.05 M293.06 1.1 C289.9 19.52, 293.09 43.39, 291.84 72.85 M292.22 0.81 C292.26 24.48, 291.5 47.65, 291.38 72.63 M291.31 74.25 C176.55 71.56, 60.74 72.77, -0.87 71.57 M291.88 72.5 C177.82 71.62, 63.58 71.93, 0.02 72.3 M0.03 73.69 C-0.72 45.84, -0.17 20.63, -1.83 1.43 M-0.01 72.18 C0.68 53.35, -0.54 36.56, 0.13 -0.43" stroke="#40916c" stroke-width="2" fill="none"></path></g><g transform="translate(372.3635121737435 45.73594340256727) rotate(0 85.5699234008789 25)"><text x="85.5699234008789" y="NaN" font-family="Virgil, Segoe UI Emoji" font-size="20px" fill="#fff" text-anchor="middle" style="white-space: pre;" direction="ltr">L1: </text><text x="85.5699234008789" y="NaN" font-family="Virgil, Segoe UI Emoji" font-size="20px" fill="#fff" text-anchor="middle" style="white-space: pre;" direction="ltr">In-Process Cache</text></g><g stroke-linecap="round" transform="translate(805.2784661853482 30.31583558785826) rotate(0 129.5 36.5)"><path d="M1.68 1.96 L257.98 0.23 L259.6 72.44 L-1.98 72.8" stroke="none" stroke-width="0" fill="#b45309"></path><path d="M1.15 1.09 C57.57 0.9, 112.28 0.7, 259.23 -1.2 M0.45 -0.03 C68.36 0.78, 136.36 -0.18, 259.47 0.07 M257.82 -1.05 C257.88 19.37, 259.65 36.49, 257.96 72.73 M259.33 0.06 C259 25.61, 258.57 52.15, 259.17 73.95 M258 72.77 C183.72 71.74, 110.22 72.84, 1.56 72.13 M258.34 73.48 C169.96 71.34, 81.48 70.74, -0.47 73.64 M-1.04 71.32 C-0.48 54.64, 2.03 34.52, -0.48 -0.06 M-0.62 73.36 C0.22 57.7, -1.09 42.63, -0.86 -0.42" stroke="#d97706" stroke-width="2" fill="none"></path></g><g transform="translate(868.6185311877896 41.81583558785826) rotate(0 66.1599349975586 25)"><text x="66.1599349975586" y="NaN" font-family="Virgil, Segoe UI Emoji" font-size="20px" fill="#fff" text-anchor="middle" style="white-space: pre;" direction="ltr">L2: </text><text x="66.1599349975586" y="NaN" font-family="Virgil, Segoe UI Emoji" font-size="20px" fill="#fff" text-anchor="middle" style="white-space: pre;" direction="ltr">Redis Cluster</text></g><g stroke-linecap="round" transform="translate(1225.2784661853482 30.454993393711106) rotate(0 102 36.5)"><path d="M-1.15 -1.24 L205.16 1.07 L203.77 74.6 L-0.7 74.88" stroke="none" stroke-width="0" fill="#5b21b6"></path><path d="M1.57 0.44 C47.19 -0.13, 95.08 -0.51, 202.68 -0.48 M-0.37 -0.1 C68.86 0.82, 135.81 1.79, 204.88 0.76 M202.95 1.71 C202.6 18.59, 204.44 36.48, 202.33 74.07 M203.94 -0.27 C203.56 26.39, 203.77 51.21, 204.03 72.73 M203.7 71.44 C134.11 74.06, 61.57 74.18, 0.42 74.77 M203.94 73.44 C137.36 73.28, 69.77 74.7, 0.53 73.54 M-0.09 72.43 C-0.95 47.59, 0.18 17.38, -1.21 1.98 M-0.88 73.25 C-0.02 58.39, 0.27 43.57, -0.04 -0.07" stroke="#7c3aed" stroke-width="2" fill="none"></path></g><g transform="translate(1277.8385018909146 41.954993393711106) rotate(0 49.439964294433594 25)"><text x="49.439964294433594" y="NaN" font-family="Virgil, Segoe UI Emoji" font-size="20px" fill="#fff" text-anchor="middle" style="white-space: pre;" direction="ltr">L3: </text><text x="49.439964294433594" y="NaN" font-family="Virgil, Segoe UI Emoji" font-size="20px" fill="#fff" text-anchor="middle" style="white-space: pre;" direction="ltr">Database</text></g><g stroke-linecap="round"><g transform="translate(209.00000000000003 68.26858489950303) rotate(0 48.46671778731124 0.4817533161599088)"><path d="M-0.51 -1.14 C15.62 -1.04, 79.88 0.69, 96 1.17 M1.42 0.87 C18 0.55, 82.01 -0.66, 98.22 -0.84" stroke="#3b82f6" stroke-width="2" fill="none"></path></g><g transform="translate(209.00000000000003 68.26858489950303) rotate(0 48.46671778731124 0.4817533161599088)"><path d="M68.29 8.3 C76.99 6.22, 84.43 4.71, 98.14 -2.46 M70.42 9.26 C80.51 6.18, 91.17 0.94, 99.22 -1.73" stroke="#3b82f6" stroke-width="2" fill="none"></path></g><g transform="translate(209.00000000000003 68.26858489950303) rotate(0 48.46671778731124 0.4817533161599088)"><path d="M67.97 -12.22 C76.84 -9.54, 84.36 -6.29, 98.14 -2.46 M70.1 -11.26 C80.21 -6.38, 90.99 -3.66, 99.22 -1.73" stroke="#3b82f6" stroke-width="2" fill="none"></path></g></g><g stroke-linecap="round"><g transform="translate(609.0611682437846 61.96918215799212) rotate(0 94.67251530536294 -11.5892414990455)"><path d="M-0.01 0.39 C15.77 -3.47, 62.28 -22.94, 93.98 -23.31 C125.67 -23.68, 174.38 -5.38, 190.14 -1.82 M-1.48 -0.46 C14.74 -4.1, 64.4 -21.81, 96.27 -21.84 C128.15 -21.87, 174.44 -4.1, 189.8 -0.64" stroke="#3b82f6" stroke-width="2" fill="none"></path></g><g transform="translate(609.0611682437846 61.96918215799212) rotate(0 94.67251530536294 -11.5892414990455)"><path d="M160.51 0 C166.92 2.17, 173.97 -0.91, 189.12 -0.19 M159.65 2.06 C167.01 0.74, 175.5 -0.37, 190.48 -1.35" stroke="#3b82f6" stroke-width="2" fill="none"></path></g><g transform="translate(609.0611682437846 61.96918215799212) rotate(0 94.67251530536294 -11.5892414990455)"><path d="M166.25 -19.7 C171.24 -12.74, 176.89 -11.04, 189.12 -0.19 M165.39 -17.64 C171.46 -14.14, 178.54 -10.37, 190.48 -1.35" stroke="#3b82f6" stroke-width="2" fill="none"></path></g></g><g transform="translate(686.3870618684175 27.540699159901123) rotate(0 17.441978454589844 11.25)"><text x="17.441978454589844" y="NaN" font-family="Virgil, Segoe UI Emoji" font-size="18px" fill="#cdd6f4" text-anchor="middle" style="white-space: pre;" direction="ltr">miss</text></g><g stroke-linecap="round"><g transform="translate(1068.4727391632962 37.68741557252184) rotate(0 75.90741879800498 -6.916183746146377)"><path d="M0.1 0.76 C12.85 -2.14, 51.01 -17.51, 76.17 -17.24 C101.32 -16.96, 138.33 -0.88, 151.01 2.4 M-1.3 0.11 C11.39 -2.67, 49.82 -16.7, 75.62 -16.12 C101.41 -15.54, 140.63 0.35, 153.49 3.61" stroke="#3b82f6" stroke-width="2" fill="none"></path></g><g transform="translate(1068.4727391632962 37.68741557252184) rotate(0 75.90741879800498 -6.916183746146377)"><path d="M124.78 6.13 C130.32 3.16, 139.46 4.91, 153.19 2.44 M124.38 5.55 C131.82 3.99, 141.46 3.57, 153.49 2.69" stroke="#3b82f6" stroke-width="2" fill="none"></path></g><g transform="translate(1068.4727391632962 37.68741557252184) rotate(0 75.90741879800498 -6.916183746146377)"><path d="M130.98 -13.43 C134.87 -11.08, 142.32 -4.02, 153.19 2.44 M130.59 -14.01 C136.28 -9.54, 144.03 -3.97, 153.49 2.69" stroke="#3b82f6" stroke-width="2" fill="none"></path></g></g><g transform="translate(1126.4387176270957 10) rotate(0 17.441978454589844 11.25)"><text x="17.441978454589844" y="NaN" font-family="Virgil, Segoe UI Emoji" font-size="18px" fill="#cdd6f4" text-anchor="middle" style="white-space: pre;" direction="ltr">miss</text></g><g stroke-linecap="round"><g transform="translate(1221.263372554189 96.53519368867171) rotate(0 -76.59104049123664 9.65358797741408)"><path d="M-0.72 -1.15 C-12.37 1.86, -44.31 18.4, -69.74 18.78 C-95.18 19.15, -139.34 4.31, -153.35 1.09 M1.1 0.86 C-10.77 3.97, -45.08 20.33, -70.96 20.04 C-96.85 19.75, -140.38 2.46, -154.21 -0.87" stroke="#40916c" stroke-width="2" fill="none"></path></g><g transform="translate(1221.263372554189 96.53519368867171) rotate(0 -76.59104049123664 9.65358797741408)"><path d="M-126.16 -3.21 C-134.48 -2.35, -141.75 -2.67, -155.71 -1.06 M-123.55 -1.57 C-132.35 -1.23, -141 -1.11, -154.32 -1.85" stroke="#40916c" stroke-width="2" fill="none"></path></g><g transform="translate(1221.263372554189 96.53519368867171) rotate(0 -76.59104049123664 9.65358797741408)"><path d="M-132.22 16.39 C-138.77 11.16, -144.14 4.72, -155.71 -1.06 M-129.61 18.04 C-136.56 12.79, -143.49 7.36, -154.32 -1.85" stroke="#40916c" stroke-width="2" fill="none"></path></g></g><g transform="translate(1114.686299918831 104.59236964349986) rotate(0 37.34998321533203 11.25)"><text x="37.34998321533203" y="NaN" font-family="Virgil, Segoe UI Emoji" font-size="18px" fill="#cdd6f4" text-anchor="middle" style="white-space: pre;" direction="ltr">populate</text></g><g stroke-linecap="round"><g transform="translate(801.2267650064904 96.30597836368148) rotate(0 -96.15318006625358 9.742686684057432)"><path d="M-0.11 0.08 C-15.17 3.15, -57.35 18.08, -89.4 18.33 C-121.46 18.57, -175.33 4.3, -192.43 1.54 M-1.63 -0.92 C-16.41 2.26, -55.34 19.2, -87.28 19.26 C-119.22 19.31, -175.88 2.7, -193.26 -0.57" stroke="#40916c" stroke-width="2" fill="none"></path></g><g transform="translate(801.2267650064904 96.30597836368148) rotate(0 -96.15318006625358 9.742686684057432)"><path d="M-163.34 -6.01 C-176.69 -3.03, -185.31 -0.95, -192.11 -2.42 M-164.29 -4.87 C-172.67 -3.4, -180.34 -1.63, -193.77 0.13" stroke="#40916c" stroke-width="2" fill="none"></path></g><g transform="translate(801.2267650064904 96.30597836368148) rotate(0 -96.15318006625358 9.742686684057432)"><path d="M-168.02 13.97 C-179.58 9.39, -186.43 3.9, -192.11 -2.42 M-168.96 15.12 C-176.05 10.92, -182.4 7.01, -193.77 0.13" stroke="#40916c" stroke-width="2" fill="none"></path></g></g><g transform="translate(675.5949190429566 104.54135173179634) rotate(0 37.34998321533203 11.25)"><text x="37.34998321533203" y="NaN" font-family="Virgil, Segoe UI Emoji" font-size="18px" fill="#cdd6f4" text-anchor="middle" style="white-space: pre;" direction="ltr">populate</text></g></svg>