<svg version="1.1" xmlns="http://www.w3.org/2000/svg" viewBox="0 0 1134.8716974918816 525.5683238841359" width="1134.8716974918816" height="525.5683238841359">
  <!-- svg-source:excalidraw -->
  
  <defs>
    <style>
      @font-face {
        font-family: "Virgil";
        src: url("https://excalidraw.com/Virgil.woff2");
      }
      @font-face {
        font-family: "Cascadia";
        src: url("https://excalidraw.com/Cascadia.woff2");
      }
    </style>
  </defs>
  <rect x="0" y="0" width="1134.8716974918816" height="525.5683238841359" fill="#1e1e2e"></rect><g stroke-opacity="0.6" fill-opacity="0.6" stroke-linecap="round" transform="translate(9.999999999999943 10) rotate(0 557.4358487459408 115)"><path d="M-1.87 0.24 L1116.14 1.7 L1114.6 230.37 L0.37 230.96" stroke="none" stroke-width="0" fill="#181825"></path><path d="M-0.71 -0.46 C443.25 -2.79, 888.76 -3.35, 1115.41 -0.56 M1113.39 -0.5 C1113.13 87.97, 1112.38 175.59, 1114.37 228.47 M1114.57 230.35 C735.38 227.96, 355.92 226.99, 0.2 230.46 M-1.05 229.28 C-1.08 145.03, 1.66 58.08, -1.45 -0.27" stroke="#45475a" stroke-width="2.5" fill="none" stroke-dasharray="8 10"></path></g><g transform="translate(58.237139862420406 18.151899558786965) rotate(0 60.452972412109375 11.25)"><text x="60.452972412109375" y="NaN" font-family="Virgil, Segoe UI Emoji" font-size="18px" fill="#a6adc8" text-anchor="middle" style="white-space: pre;" direction="ltr">Read-Through</text></g><g stroke-opacity="0.6" fill-opacity="0.6" stroke-linecap="round" transform="translate(16.62045418251654 285.5683238841358) rotate(0 552.6337690475589 115.00000000000003)"><path d="M-0.62 -1.67 L1106.45 1.91 L1104.14 230.49 L-0.41 228.23" stroke="none" stroke-width="0" fill="#181825"></path><path d="M0.67 -0.51 C440.53 1.16, 880.25 2.37, 1104.54 0.07 M1106.17 1.3 C1105.24 60.35, 1105.49 121.14, 1104.22 230.19 M1105.82 230.75 C872.88 232.38, 641.46 231.62, -0.78 230.67 M0.97 230.65 C2.01 175.06, 1.51 116.41, 1.31 -1.27" stroke="#45475a" stroke-width="2.5" fill="none" stroke-dasharray="8 10"></path></g><g transform="translate(39.92379406879746 308.6057990252752) rotate(0 60.866966247558594 11.25)"><text x="60.866966247558594" y="NaN" font-family="Virgil, Segoe UI Emoji" font-size="18px" fill="#a6adc8" text-anchor="middle" style="white-space: pre;" direction="ltr">Write-Through</text></g><g stroke-linecap="round" transform="translate(23.410606599427695 61.54574748211047) rotate(0 90 51.317358808975456)"><path d="M1.48 -0.99 L181.96 0.5 L181.3 103.84 L-1.11 101.67" stroke="none" stroke-width="0" fill="#2d6a4f"></path><path d="M1.09 -1.43 C71.28 -1.74, 144.87 -2.28, 179 1.73 M-0.06 -0.18 C63.78 -1.23, 125.31 0.59, 179.06 -0.88 M179.53 -1.12 C178.89 27.07, 179.47 58.42, 179.62 100.84 M179.76 -0.82 C179.43 31.82, 181.23 64.46, 180.4 103.29 M178.12 100.65 C120.92 102.44, 60.1 103.68, -0.83 101.61 M180.88 102.54 C140.9 103.74, 102.4 103.55, 0.34 102.75 M-0.13 100.92 C-2.36 72.89, 0.7 39.4, 1.46 0.84 M0.73 102.83 C-0.4 64.2, -0.07 24.25, 0.19 0.92" stroke="#40916c" stroke-width="2" fill="none"></path></g><g transform="translate(62.43065664825582 100.36310629108593) rotate(0 50.979949951171875 12.5)"><text x="50.979949951171875" y="NaN" font-family="Virgil, Segoe UI Emoji" font-size="20px" fill="#ffffff" text-anchor="middle" style="white-space: pre;" direction="ltr">Application</text></g><g stroke-linecap="round" transform="translate(500.36932144668964 61.08087507037209) rotate(0 90 53.976814245773085)"><path d="M-0.92 0.7 L178.15 -0.25 L178.32 106.1 L-1.41 109.12" stroke="none" stroke-width="0" fill="#b45309"></path><path d="M0.52 -1.57 C70.01 1.05, 142.63 0.94, 179.82 -0.7 M-0.66 0.88 C42.91 0.51, 84.41 0.06, 180.74 0.14 M181.67 -0.11 C179.41 37.04, 178.75 73.96, 181.18 106.68 M180.95 -0.01 C179.62 42.01, 179.51 83.83, 180.03 108.02 M178.33 109.12 C109.75 106.91, 38.79 109.97, -1.49 109.32 M179.11 107.28 C121.89 107.34, 64.27 106.06, 0.09 108.23 M0.98 109.12 C-0.15 80.16, -0.02 53.55, -0.17 0.01 M-0.4 108.15 C0.01 82.52, 0.36 57.21, -0.04 0.88" stroke="#d97706" stroke-width="2" fill="none"></path></g><g transform="translate(561.8293434193458 102.55768931614517) rotate(0 28.53997802734375 12.5)"><text x="28.53997802734375" y="NaN" font-family="Virgil, Segoe UI Emoji" font-size="20px" fill="#ffffff" text-anchor="middle" style="white-space: pre;" direction="ltr">Cache</text></g><g stroke-linecap="round" transform="translate(924.6265207022775 59.69157183906742) rotate(0 90.00000000000006 50.86742046908765)"><path d="M0.68 -1.61 L178.33 -1.01 L179.33 100.81 L-1.71 101.03" stroke="none" stroke-width="0" fill="#5b21b6"></path><path d="M-0.05 -1.72 C72.73 0.25, 144.4 0.56, 180.65 0.87 M0.75 -0.06 C58.04 0.26, 115.5 1.53, 180.42 -0.85 M179.82 0.89 C180 22.56, 178.12 44.59, 178.74 100.98 M180.14 0.79 C179.89 27.28, 179.88 53.35, 179.66 101.21 M178.54 102.05 C134.59 103.84, 85.49 100.73, 1.86 101.48 M179.34 102.49 C138.89 101, 100.14 100.64, -0.15 102.18 M-1.9 101.77 C-0.07 82.78, 1.13 61.97, -1.81 -0.81 M0.47 101.92 C-1.54 71.55, -1.17 43.12, -0.28 0.83" stroke="#7c3aed" stroke-width="2" fill="none"></path></g><g transform="translate(965.1865564078439 98.05899230815507) rotate(0 49.439964294433594 12.5)"><text x="49.439964294433594" y="NaN" font-family="Virgil, Segoe UI Emoji" font-size="20px" fill="#ffffff" text-anchor="middle" style="white-space: pre;" direction="ltr">Database</text></g><g stroke-linecap="round"><g transform="translate(209.4106065994277 92.6924261536238) rotate(0 142.47935742363097 0.5150317849968857)"><path d="M0.99 -0.37 C48.1 -0.33, 236.42 0.77, 283.84 0.88 M0.06 -1.61 C47.42 -1.43, 238.47 1.87, 285.97 2.34" stroke="#40916c" stroke-width="2" fill="none"></path></g><g transform="translate(209.4106065994277 92.6924261536238) rotate(0 142.47935742363097 0.5150317849968857)"><path d="M257.02 10.35 C268.62 8.98, 278.92 5.79, 287.44 0.78 M257.79 11.21 C263.79 11.23, 270.1 8.2, 286.06 2.5" stroke="#40916c" stroke-width="2" fill="none"></path></g><g transform="translate(209.4106065994277 92.6924261536238) rotate(0 142.47935742363097 0.5150317849968857)"><path d="M257.3 -10.17 C268.9 -3.37, 279.09 1.62, 287.44 0.78 M258.07 -9.31 C263.81 -5.08, 270.07 -3.9, 286.06 2.5" stroke="#40916c" stroke-width="2" fill="none"></path></g></g><g transform="translate(306.73781743871876 69.87441742939006) rotate(0 45.35096740722656 22.5)"><text x="45.35096740722656" y="NaN" font-family="Virgil, Segoe UI Emoji" font-size="18px" fill="#cdd6f4" text-anchor="middle" style="white-space: pre;" direction="ltr">1. Request</text><text x="45.35096740722656" y="NaN" font-family="Virgil, Segoe UI Emoji" font-size="18px" fill="#cdd6f4" text-anchor="middle" style="white-space: pre;" direction="ltr"> data</text></g><g stroke-linecap="round"><g transform="translate(686.3693214466896 114.95796219121198) rotate(0 116.1285996277939 -2.1391369555903736)"><path d="M-0.43 -0.71 C38.28 -1.42, 194.51 -4.65, 233.45 -5.19" stroke="#e03131" stroke-width="2.5" fill="none" stroke-dasharray="8 10"></path></g><g transform="translate(686.3693214466896 114.95796219121198) rotate(0 116.1285996277939 -2.1391369555903736)"><path d="M204.26 7.56 C215.17 2.97, 228.37 -4.15, 231.75 -5.18" stroke="#e03131" stroke-width="2.5" fill="none"></path></g><g transform="translate(686.3693214466896 114.95796219121198) rotate(0 116.1285996277939 -2.1391369555903736)"><path d="M203.89 -12.96 C214.78 -9.38, 228.13 -8.32, 231.75 -5.18" stroke="#e03131" stroke-width="2.5" fill="none"></path></g></g><g transform="translate(719.3527935331124 91.50268865970736) rotate(0 83.34394836425781 20)"><text x="83.34394836425781" y="NaN" font-family="Virgil, Segoe UI Emoji" font-size="16px" fill="#e03131" text-anchor="middle" style="white-space: pre;" direction="ltr">2. Cache miss:</text><text x="83.34394836425781" y="NaN" font-family="Virgil, Segoe UI Emoji" font-size="16px" fill="#e03131" text-anchor="middle" style="white-space: pre;" direction="ltr">cache loads from DB</text></g><g stroke-linecap="round"><g transform="translate(501.03031380810677 141.37087862095632) rotate(0 -145.89839712569315 0.7494712623091146)"><path d="M0.54 -1.06 C-48.1 -0.66, -241.79 1.96, -290.69 2.22" stroke="#40916c" stroke-width="2.5" fill="none" stroke-dasharray="8 10"></path></g><g transform="translate(501.03031380810677 141.37087862095632) rotate(0 -145.89839712569315 0.7494712623091146)"><path d="M-264.36 -6.47 C-272.6 -5.76, -286.71 0.04, -291.56 3.8" stroke="#40916c" stroke-width="2.5" fill="none"></path></g><g transform="translate(501.03031380810677 141.37087862095632) rotate(0 -145.89839712569315 0.7494712623091146)"><path d="M-264.16 14.05 C-272.46 6.59, -286.64 4.21, -291.56 3.8" stroke="#40916c" stroke-width="2.5" fill="none"></path></g></g><g transform="translate(308.46052247308774 117.41326339509015) rotate(0 46.889976501464844 22.5)"><text x="46.889976501464844" y="NaN" font-family="Virgil, Segoe UI Emoji" font-size="18px" fill="#40916c" text-anchor="middle" style="white-space: pre;" direction="ltr">3. Return </text><text x="46.889976501464844" y="NaN" font-family="Virgil, Segoe UI Emoji" font-size="18px" fill="#40916c" text-anchor="middle" style="white-space: pre;" direction="ltr">to app</text></g><g stroke-linecap="round" transform="translate(26.063335745081588 355.64605456137446) rotate(0 90 50.65204742881548)"><path d="M-0.93 1.13 L179.06 -0.03 L179.39 100.13 L1.1 101.12" stroke="none" stroke-width="0" fill="#2d6a4f"></path><path d="M1.67 1.7 C71.63 0.22, 143.46 2.24, 179.95 -0.85 M0.37 0.18 C46.56 -0.36, 93.87 -0.2, 179.13 -0.81 M180.41 0.9 C178.21 30.25, 179.39 62.36, 180.99 102.64 M180.91 0 C180.78 36.96, 179.15 72.68, 180.17 100.42 M179.39 102.2 C125.94 100.01, 68.28 100.2, -0.76 102.6 M180.24 101.76 C136.85 100.49, 93.62 99.78, 0.87 100.42 M-1.43 100.84 C0.5 62.84, 1.97 22.31, -0.34 -0.11 M-0.04 101.46 C0.21 70.73, -1.32 38.43, 0.77 0.64" stroke="#40916c" stroke-width="2" fill="none"></path></g><g transform="translate(65.08338579390971 393.79810199018993) rotate(0 50.979949951171875 12.5)"><text x="50.979949951171875" y="NaN" font-family="Virgil, Segoe UI Emoji" font-size="20px" fill="#ffffff" text-anchor="middle" style="white-space: pre;" direction="ltr">Application</text></g><g stroke-linecap="round" transform="translate(501.53260457537726 347.5068652255324) rotate(0 90.00000000000003 48.554270278208804)"><path d="M0.67 -1.18 L179.24 -0.79 L180.4 96.87 L0.8 99.05" stroke="none" stroke-width="0" fill="#b45309"></path><path d="M1.1 1.56 C70.35 -0.59, 145.23 1.87, 180.77 0.72 M-0.23 -0.77 C61.69 -0.61, 124.96 -0.73, 180.81 0.2 M178.56 1.9 C178.75 36.71, 178.69 70.88, 178.55 98.97 M180.1 0.8 C179.04 21.74, 179.49 45.22, 179.79 97.63 M179.6 97.15 C114.78 98.97, 46.98 96.99, -1.41 96.79 M180.47 96.99 C117.84 96.17, 57.49 96.38, 0.63 96.39 M-0.31 95.52 C0.65 63.3, -0.8 32.37, -1.97 -0.93 M0.83 97.26 C0.63 61.88, 1.12 26.55, 0.54 0.59" stroke="#d97706" stroke-width="2" fill="none"></path></g><g transform="translate(562.9926265480335 383.56113550374124) rotate(0 28.53997802734378 12.5)"><text x="28.53997802734375" y="NaN" font-family="Virgil, Segoe UI Emoji" font-size="20px" fill="#ffffff" text-anchor="middle" style="white-space: pre;" direction="ltr">Cache</text></g><g stroke-linecap="round" transform="translate(906.1550844534113 356.3284595227563) rotate(0 90 43.74946467137471)"><path d="M-1.73 0.51 L179.42 -1.54 L181.42 88.19 L0.5 87.57" stroke="none" stroke-width="0" fill="#5b21b6"></path><path d="M0.53 1.41 C73.08 -1.39, 142.99 -2.51, 181.6 -1.71 M-0.82 0.29 C40.82 -0.86, 84.05 0.74, 180.49 -0.79 M180.7 -1.1 C179.26 22.7, 181.97 42.45, 180.11 85.88 M179.29 -0.39 C181.19 26.5, 179.74 53.74, 179.42 87.43 M179.81 86.69 C139.62 88.51, 97.68 88.35, 1.93 85.56 M180.69 86.8 C134.83 88.44, 91.36 87.56, 0.38 86.95 M0.81 88.78 C-1.27 63.45, -1.66 39.23, 0.4 -1.76 M-0.3 87.64 C1.03 67.86, -0.44 47.74, 0.3 0.54" stroke="#7c3aed" stroke-width="2" fill="none"></path></g><g transform="translate(946.7151201589777 387.577924194131) rotate(0 49.439964294433594 12.5)"><text x="49.439964294433594" y="NaN" font-family="Virgil, Segoe UI Emoji" font-size="20px" fill="#ffffff" text-anchor="middle" style="white-space: pre;" direction="ltr">Database</text></g><g stroke-linecap="round"><g transform="translate(211.62168560093312 374.2893200439011) rotate(0 141.95770912369326 -1.5546446240193745)"><path d="M-0.37 -0.03 C46.88 -0.66, 237.21 -2.68, 284.68 -3.06 M1.64 -1.09 C48.69 -1.57, 237.08 -0.97, 284.13 -1.5" stroke="#40916c" stroke-width="2" fill="none"></path></g><g transform="translate(211.62168560093312 374.2893200439011) rotate(0 141.95770912369326 -1.5546446240193745)"><path d="M255.93 10.12 C267.21 5.66, 279.67 0.84, 282.56 -1.64 M256.56 8.2 C265.75 6.04, 274.72 2.07, 284.3 -1.27" stroke="#40916c" stroke-width="2" fill="none"></path></g><g transform="translate(211.62168560093312 374.2893200439011) rotate(0 141.95770912369326 -1.5546446240193745)"><path d="M255.86 -10.4 C267.3 -6.68, 279.78 -3.32, 282.56 -1.64 M256.49 -12.32 C265.62 -7.96, 274.6 -5.41, 284.3 -1.27" stroke="#40916c" stroke-width="2" fill="none"></path></g></g><g transform="translate(300.1996645350325 352.45324230509686) rotate(0 38.97898864746094 22.5)"><text x="38.97898864746094" y="NaN" font-family="Virgil, Segoe UI Emoji" font-size="18px" fill="#cdd6f4" text-anchor="middle" style="white-space: pre;" direction="ltr">1. Write </text><text x="38.97898864746094" y="NaN" font-family="Virgil, Segoe UI Emoji" font-size="18px" fill="#cdd6f4" text-anchor="middle" style="white-space: pre;" direction="ltr">to cache</text></g><g stroke-linecap="round"><g transform="translate(687.5326045753775 396.3321783367892) rotate(0 106.31123993901696 1.8719964434709198)"><path d="M0.6 -0.37 C13.96 0.24, 45.84 2.2, 81.33 2.79 C116.82 3.39, 191.52 3.11, 213.52 3.19 M-0.54 -1.61 C12.62 -0.79, 45.11 2.98, 80.74 3.95 C116.37 4.93, 191.02 4.19, 213.23 4.22" stroke="#40916c" stroke-width="2" fill="none"></path></g><g transform="translate(687.5326045753775 396.3321783367892) rotate(0 106.31123993901696 1.8719964434709198)"><path d="M184.46 15.71 C195.17 11.81, 206.67 7.41, 212.48 5.65 M185.06 14.99 C191.27 12.28, 195.6 11.22, 213.08 3.46" stroke="#40916c" stroke-width="2" fill="none"></path></g><g transform="translate(687.5326045753775 396.3321783367892) rotate(0 106.31123993901696 1.8719964434709198)"><path d="M184.39 -4.81 C194.98 -0.53, 206.51 3.25, 212.48 5.65 M184.99 -5.53 C191.35 -4.07, 195.69 -0.97, 213.08 3.46" stroke="#40916c" stroke-width="2" fill="none"></path></g></g><g transform="translate(717.3083882971914 369.84516648312496) rotate(0 50.879974365234375 30)"><text x="50.879974365234375" y="NaN" font-family="Virgil, Segoe UI Emoji" font-size="16px" fill="#cdd6f4" text-anchor="middle" style="white-space: pre;" direction="ltr">2. Cache </text><text x="50.879974365234375" y="NaN" font-family="Virgil, Segoe UI Emoji" font-size="16px" fill="#cdd6f4" text-anchor="middle" style="white-space: pre;" direction="ltr">writes</text><text x="50.879974365234375" y="NaN" font-family="Virgil, Segoe UI Emoji" font-size="16px" fill="#cdd6f4" text-anchor="middle" style="white-space: pre;" direction="ltr">to DB (sync)</text></g><g stroke-linecap="round"><g transform="translate(496.75409966217654 430.81308457138226) rotate(0 -142.34538195854748 -1.5626293757935628)"><path d="M-0.82 -0.71 C-48.37 -1.07, -236.61 -1.89, -284.1 -2.21" stroke="#40916c" stroke-width="2.5" fill="none" stroke-dasharray="8 10"></path></g><g transform="translate(496.75409966217654 430.81308457138226) rotate(0 -142.34538195854748 -1.5626293757935628)"><path d="M-257.04 -11.34 C-265.59 -10.33, -277.53 -6.15, -284.02 -3.22" stroke="#40916c" stroke-width="2.5" fill="none"></path></g><g transform="translate(496.75409966217654 430.81308457138226) rotate(0 -142.34538195854748 -1.5626293757935628)"><path d="M-257.15 9.18 C-265.65 2.01, -277.54 -1.98, -284.02 -3.22" stroke="#40916c" stroke-width="2.5" fill="none"></path></g></g><g transform="translate(287.4078503309669 409.5578318306076) rotate(0 52.50395965576172 20)"><text x="52.50395965576172" y="NaN" font-family="Virgil, Segoe UI Emoji" font-size="16px" fill="#40916c" text-anchor="middle" style="white-space: pre;" direction="ltr">3. ACK after</text><text x="52.50395965576172" y="NaN" font-family="Virgil, Segoe UI Emoji" font-size="16px" fill="#40916c" text-anchor="middle" style="white-space: pre;" direction="ltr">DB confirms</text></g></svg>