<svg version="1.1" xmlns="http://www.w3.org/2000/svg" viewBox="0 0 1284.2956522235302 553.1546946137473" width="1284.2956522235302" height="553.1546946137473">
  <!-- svg-source:excalidraw -->
  
  <defs>
    <style>
      @font-face {
        font-family: "Virgil";
        src: url("https://excalidraw.com/Virgil.woff2");
      }
      @font-face {
        font-family: "Cascadia";
        src: url("https://excalidraw.com/Cascadia.woff2");
      }
    </style>
  </defs>
  <rect x="0" y="0" width="1284.2956522235302" height="553.1546946137473" fill="#0d1117"></rect><g stroke-linecap="round" transform="translate(480.4063941224588 10) rotate(0 140.5 50.38337194937796)"><path d="M139.96 1.96 L280.98 52.16 L141.12 100.96 L-1.28 52.81" stroke="none" stroke-width="0" fill="#3a1d6e" fill-rule="evenodd"></path><path d="M140.26 -1.48 C174.49 15.77, 213.02 28.37, 282.26 49.42 M141.66 0.74 C173.46 12.22, 206.85 22.57, 281.2 51.72 M279.43 50.39 C240.47 64.13, 202.16 78.28, 142.65 101.81 M281.12 50.52 C243.27 65.22, 202.88 78.99, 141.91 100.6 M142.99 102.15 C100.88 88.36, 61.04 71.61, 0.58 51.97 M140.15 100.17 C101.97 87.4, 64.24 73, 0.39 51.8 M-0.57 52.67 C50.25 30.58, 103.81 15.21, 142.5 -2 M-0.07 51.23 C44.44 33.67, 89.62 18.94, 141.26 0.69" stroke="#a371f7" stroke-width="2" fill="none"></path></g><g transform="translate(572.776442645408 35.38337194937796) rotate(0 48.12995147705078 25)"><text x="48.12995147705078" y="NaN" font-family="Virgil, Segoe UI Emoji" font-size="20px" fill="#fff" text-anchor="middle" style="white-space: pre;" direction="ltr">Network</text><text x="48.12995147705078" y="NaN" font-family="Virgil, Segoe UI Emoji" font-size="20px" fill="#fff" text-anchor="middle" style="white-space: pre;" direction="ltr">Partition?</text></g><g stroke-linecap="round" transform="translate(827.9357292693427 156.7501141425895) rotate(0 140.5 47.705813257175635)"><path d="M141.12 0 L281.24 48.89 L139.83 96.21 L1.83 48.53" stroke="none" stroke-width="0" fill="#3a1d6e" fill-rule="evenodd"></path><path d="M139.98 1.58 C197.16 17.57, 252.6 38.67, 280.64 46.47 M141.51 0.87 C192.66 18.8, 245.04 36.76, 281.61 48.4 M281.5 46.78 C238.82 65.41, 194.25 79.41, 139.65 94.37 M281.31 47.63 C236.16 62.29, 190.89 78.41, 141.15 95.87 M140.28 95.26 C86.83 79.51, 32 58.11, -0.7 46.99 M140.72 94.78 C109.78 84.46, 78.22 74.7, 0.1 47.36 M0.02 46.18 C34.82 34.54, 69.71 24.07, 141.69 -1.03 M0.71 47.33 C45.19 32.37, 88.46 18.02, 141.23 -0.37" stroke="#a371f7" stroke-width="2" fill="none"></path></g><g transform="translate(913.2357857268622 179.45592739976513) rotate(0 55.19994354248047 25)"><text x="55.19994354248047" y="NaN" font-family="Virgil, Segoe UI Emoji" font-size="20px" fill="#fff" text-anchor="middle" style="white-space: pre;" direction="ltr">Consistency</text><text x="55.19994354248047" y="NaN" font-family="Virgil, Segoe UI Emoji" font-size="20px" fill="#fff" text-anchor="middle" style="white-space: pre;" direction="ltr">Required</text></g><g stroke-linecap="round" transform="translate(163.9754284151129 147.80108940610717) rotate(0 140.5 54.55345661953771)"><path d="M140.53 -0.03 L281.33 55.86 L142.17 109.79 L1.61 53.92" stroke="none" stroke-width="0" fill="#3a1d6e" fill-rule="evenodd"></path><path d="M142.51 0.63 C179.5 15.64, 223.41 30.47, 279.28 53.24 M140.79 0.77 C169.25 11, 197.8 20.69, 280.73 55.34 M281.71 54.26 C242.23 70.5, 200.76 84.64, 141.56 108.66 M280.79 54.82 C247.04 68.74, 213.44 81.85, 141.39 109.62 M141.92 107.47 C87.06 87.68, 37.85 67.34, 0.05 53.74 M141.59 109.45 C85.77 87.97, 28.73 66.69, -0.17 54.56 M-1.03 53.22 C50.88 33.49, 105.35 11.53, 141.6 0.5 M-0.57 55.3 C42.41 40.08, 84.02 24.64, 140.78 -0.97" stroke="#a371f7" stroke-width="2" fill="none"></path></g><g transform="translate(249.27548487263243 177.35454602564488) rotate(0 55.19994354248047 25)"><text x="55.19994354248047" y="NaN" font-family="Virgil, Segoe UI Emoji" font-size="20px" fill="#fff" text-anchor="middle" style="white-space: pre;" direction="ltr">Consistency</text><text x="55.19994354248047" y="NaN" font-family="Virgil, Segoe UI Emoji" font-size="20px" fill="#fff" text-anchor="middle" style="white-space: pre;" direction="ltr">Required</text></g><g stroke-linecap="round" transform="translate(681.6218394699578 470.1546946137473) rotate(0 107.15179273842102 36.5)"><path d="M0.81 -1.91 L214.43 0.43 L214.78 74.33 L-0.82 71.52" stroke="none" stroke-width="0" fill="#1f4d2b"></path><path d="M-0.64 0 C69.28 0.55, 142.65 3.32, 215.6 1.25 M-0.62 0.82 C64.35 -1.36, 128.89 -0.73, 215.09 -0.07 M213.66 -0.99 C214.94 22.93, 214.09 47.73, 214.15 73.47 M213.49 -0.76 C213.17 14.18, 214.2 29.55, 215.12 72.96 M213.81 72.87 C155.11 73.17, 92.89 73.32, -0.27 73.23 M214.36 73.59 C148.19 72.24, 83.94 73.54, -0.01 72.68 M1.11 72.47 C0.81 42.23, -2.05 16.62, -0.7 -1.1 M-0.65 73.44 C0.32 44.3, 0.16 14.93, 0.39 0.95" stroke="#3fb950" stroke-width="2" fill="none"></path></g><g transform="translate(698.0337182679491 481.6546946137473) rotate(0 90.73991394042969 25)"><text x="90.73991394042969" y="NaN" font-family="Virgil, Segoe UI Emoji" font-size="20px" fill="#fff" text-anchor="middle" style="white-space: pre;" direction="ltr">Choose Availability</text><text x="90.73991394042969" y="NaN" font-family="Virgil, Segoe UI Emoji" font-size="20px" fill="#fff" text-anchor="middle" style="white-space: pre;" direction="ltr">(AP)</text></g><g stroke-linecap="round" transform="translate(1040.276291288182 463.73676265598453) rotate(0 117.00968046767412 36.5)"><path d="M0.82 -0.07 L233.03 -0.78 L234.36 71.7 L1.57 73.75" stroke="none" stroke-width="0" fill="#0d2c5a"></path><path d="M-0.32 1.56 C84.15 -0.63, 168.58 1.87, 232.61 -1.06 M0.7 -0.53 C65.58 0.2, 129.91 0.72, 233.4 0.56 M233.27 0.15 C236.26 20.69, 235.28 45.06, 235.27 72.7 M233.86 0.26 C234.16 25.74, 234.43 52.26, 234.55 73.81 M233.54 71.59 C181.43 72.56, 128.75 71.89, 0.22 74.68 M234.73 72.61 C156.79 74.06, 79.54 73.61, 0.35 73.5 M-1.13 72.01 C1.13 42.59, -1.2 13.51, 1.18 0.38 M-0.79 73.25 C1.25 56.14, -0.4 39.28, 0.19 0.81" stroke="#58a6ff" stroke-width="2" fill="none"></path></g><g transform="translate(1063.7260657499967 475.23676265598453) rotate(0 93.55990600585938 25)"><text x="93.55990600585938" y="NaN" font-family="Virgil, Segoe UI Emoji" font-size="20px" fill="#fff" text-anchor="middle" style="white-space: pre;" direction="ltr">Choose Consistency</text><text x="93.55990600585938" y="NaN" font-family="Virgil, Segoe UI Emoji" font-size="20px" fill="#fff" text-anchor="middle" style="white-space: pre;" direction="ltr">(CP)</text></g><g stroke-linecap="round" transform="translate(343.51984313655976 467.65315048152655) rotate(0 132.51668256836865 36.5)"><path d="M-0.54 1.3 L266.69 0.4 L263.04 74.64 L0.9 73.9" stroke="none" stroke-width="0" fill="#1f4d2b"></path><path d="M-1.5 -0.11 C68.2 1.51, 137.87 1.55, 264.96 0.64 M0 0.01 C82.09 1.65, 163 1.53, 264.47 0.54 M265.58 -0.63 C263.56 23.23, 265.9 44.59, 265.68 74.33 M265.76 -0.64 C265.82 21.13, 264.04 43.39, 265.85 72.16 M265.07 74.47 C175.13 71.7, 84.24 72.18, 1.28 71.76 M265.62 72.44 C185.05 72.11, 104.98 72.59, 0.75 73.67 M-0.32 74.69 C1.73 44.16, 0.34 17.76, 0.41 -1.1 M0.18 72.87 C0.14 56.67, 0.21 40.57, -0.18 0.1" stroke="#3fb950" stroke-width="2" fill="none"></path></g><g transform="translate(376.8966026092253 479.15315048152655) rotate(0 99.13992309570312 25)"><text x="99.13992309570312" y="NaN" font-family="Virgil, Segoe UI Emoji" font-size="20px" fill="#fff" text-anchor="middle" style="white-space: pre;" direction="ltr">Choose Low Latency</text><text x="99.13992309570312" y="NaN" font-family="Virgil, Segoe UI Emoji" font-size="20px" fill="#fff" text-anchor="middle" style="white-space: pre;" direction="ltr">(Async Replication)</text></g><g stroke-linecap="round" transform="translate(10 468.1487502585431) rotate(0 131.77478104613039 36.5)"><path d="M1.88 1.32 L261.55 1.42 L263.85 72.98 L-0.4 73.91" stroke="none" stroke-width="0" fill="#0d2c5a"></path><path d="M0.49 1.1 C78.52 3.52, 153.89 2.91, 264.28 0.31 M0.16 0.53 C94.63 2.56, 189.77 2.24, 263.77 -0.54 M261.75 1.86 C263.18 27.69, 263.53 53.02, 265.07 72.67 M264.15 -0.95 C262.86 16.02, 262.76 33.5, 263.63 73.19 M263.53 74.56 C162.85 72.53, 62.44 71.26, 0.92 73.2 M263.97 72.85 C161.63 74.03, 61.18 73.58, -0.42 73.22 M1.01 71.94 C-1.31 51.96, -0.28 29.84, 0.25 1.85 M-0.8 72.89 C1.05 54.65, -0.74 34.28, 0.46 -0.68" stroke="#58a6ff" stroke-width="2" fill="none"></path></g><g transform="translate(48.214875040270954 479.6487502585431) rotate(0 93.55990600585938 25)"><text x="93.55990600585938" y="NaN" font-family="Virgil, Segoe UI Emoji" font-size="20px" fill="#fff" text-anchor="middle" style="white-space: pre;" direction="ltr">Choose Consistency</text><text x="93.55990600585938" y="NaN" font-family="Virgil, Segoe UI Emoji" font-size="20px" fill="#fff" text-anchor="middle" style="white-space: pre;" direction="ltr">Sync Replication)</text></g><g stroke-linecap="round"><g transform="translate(835.9786788168406 212.63855988620915) rotate(0 -12.853718348953265 125.75806736376906)"><path d="M0.43 1.08 C-3.63 43.14, -20.96 210.26, -25.39 251.88 M-0.8 0.6 C-4.9 42.32, -21.78 208.09, -26.18 249.95" stroke="#3fb950" stroke-width="2" fill="none"></path></g><g transform="translate(835.9786788168406 212.63855988620915) rotate(0 -12.853718348953265 125.75806736376906)"><path d="M-31.7 221.37 C-31.44 226.26, -31.65 233.69, -27.22 247.99 M-34.46 221.35 C-30.71 231.52, -28.54 240.55, -26.5 249.17" stroke="#3fb950" stroke-width="2" fill="none"></path></g><g transform="translate(835.9786788168406 212.63855988620915) rotate(0 -12.853718348953265 125.75806736376906)"><path d="M-11.28 223.48 C-15.38 227.99, -19.96 234.97, -27.22 247.99 M-14.05 223.45 C-17.14 232.8, -21.81 241.12, -26.5 249.17" stroke="#3fb950" stroke-width="2" fill="none"></path></g></g><g transform="translate(812.4131310588385 332.4545707495358) rotate(0 10.781997680664062 11.25)"><text x="10.781997680664062" y="NaN" font-family="Virgil, Segoe UI Emoji" font-size="18px" fill="#c9d1d9" text-anchor="middle" style="white-space: pre;" direction="ltr">No</text></g><g stroke-linecap="round"><g transform="translate(1101.675241099787 212.12879934707016) rotate(0 27.15372405522956 122.80398165445716)"><path d="M-0.97 0.7 C7.83 41.78, 44.24 205.63, 53.45 246.39 M0.72 0.02 C9.84 40.77, 46.91 203.61, 55.71 244.67" stroke="#58a6ff" stroke-width="2" fill="none"></path></g><g transform="translate(1101.675241099787 212.12879934707016) rotate(0 27.15372405522956 122.80398165445716)"><path d="M40.74 217.94 C46.58 228.43, 50.43 236.25, 55.34 246.66 M39.97 218.6 C46.55 229.5, 52.16 238.1, 55.55 244.14" stroke="#58a6ff" stroke-width="2" fill="none"></path></g><g transform="translate(1101.675241099787 212.12879934707016) rotate(0 27.15372405522956 122.80398165445716)"><path d="M60.78 213.49 C59.5 225.4, 56.23 234.8, 55.34 246.66 M60 214.16 C59.32 226.61, 57.62 236.83, 55.55 244.14" stroke="#58a6ff" stroke-width="2" fill="none"></path></g></g><g transform="translate(1066.561216910373 282.94948614090026) rotate(0 14.453987121582031 11.25)"><text x="14.453987121582031" y="NaN" font-family="Virgil, Segoe UI Emoji" font-size="18px" fill="#c9d1d9" text-anchor="middle" style="white-space: pre;" direction="ltr">Yes</text></g><g stroke-linecap="round"><g transform="translate(437.0505108996903 211.02447911451364) rotate(0 14.0537380956535 125.31433568350646)"><path d="M-0.63 0.03 C4.23 41.48, 23.69 208.07, 28.52 249.72 M1.24 -0.99 C6.03 41.1, 23.37 208.8, 27.79 250.78" stroke="#3fb950" stroke-width="2" fill="none"></path></g><g transform="translate(437.0505108996903 211.02447911451364) rotate(0 14.0537380956535 125.31433568350646)"><path d="M14.72 224.5 C16.66 231.06, 20.27 235.94, 27.36 250.24 M14.24 223.31 C19.83 233.53, 24.1 243.42, 27.72 249.91" stroke="#3fb950" stroke-width="2" fill="none"></path></g><g transform="translate(437.0505108996903 211.02447911451364) rotate(0 14.0537380956535 125.31433568350646)"><path d="M35.13 222.37 C31.99 229.35, 30.51 234.76, 27.36 250.24 M34.65 221.18 C32.96 232.27, 29.94 242.92, 27.72 249.91" stroke="#3fb950" stroke-width="2" fill="none"></path></g></g><g transform="translate(440.1648317219747 333.64601717759757) rotate(0 10.781997680664062 11.25)"><text x="10.781997680664062" y="NaN" font-family="Virgil, Segoe UI Emoji" font-size="18px" fill="#c9d1d9" text-anchor="middle" style="white-space: pre;" direction="ltr">No</text></g><g stroke-linecap="round"><g transform="translate(171.28572085574797 210.58295125347175) rotate(0 -25.302718483838532 125.78289950253564)"><path d="M-0.5 -0.85 C-8.76 40.93, -42.29 208.52, -50.44 250.62 M1.44 1.31 C-6.89 43.23, -42.8 209.69, -51.3 251.66" stroke="#58a6ff" stroke-width="2" fill="none"></path></g><g transform="translate(171.28572085574797 210.58295125347175) rotate(0 -25.302718483838532 125.78289950253564)"><path d="M-56.98 222.24 C-56.19 230.69, -53.34 236.68, -51.16 252.47 M-55.37 221.66 C-54.9 228.44, -53.52 236.96, -52.15 251.08" stroke="#58a6ff" stroke-width="2" fill="none"></path></g><g transform="translate(171.28572085574797 210.58295125347175) rotate(0 -25.302718483838532 125.78289950253564)"><path d="M-36.9 226.45 C-40.66 233.86, -42.35 238.9, -51.16 252.47 M-35.29 225.87 C-39.62 231.46, -43.03 238.98, -52.15 251.08" stroke="#58a6ff" stroke-width="2" fill="none"></path></g></g><g transform="translate(131.76672064194133 333.72486928204347) rotate(0 14.453987121582031 11.25)"><text x="14.453987121582031" y="NaN" font-family="Virgil, Segoe UI Emoji" font-size="18px" fill="#c9d1d9" text-anchor="middle" style="white-space: pre;" direction="ltr">Yes</text></g><g stroke-linecap="round"><g transform="translate(758.1434034829402 63.604798944229486) rotate(0 100.08749761748673 45.6620007185072)"><path d="M0.41 -0.31 C33.47 15.11, 165.91 76.53, 199.29 91.75 M-0.84 -1.52 C32.53 13.6, 168.03 74.24, 201.54 89.85" stroke="#1971c2" stroke-width="2" fill="none"></path></g><g transform="translate(758.1434034829402 63.604798944229486) rotate(0 100.08749761748673 45.6620007185072)"><path d="M171.11 86.03 C183.5 89.16, 193.43 91.15, 202.77 90.13 M171.62 88.39 C183.17 88.26, 192.26 88.6, 201.8 90.82" stroke="#1971c2" stroke-width="2" fill="none"></path></g><g transform="translate(758.1434034829402 63.604798944229486) rotate(0 100.08749761748673 45.6620007185072)"><path d="M179.62 67.36 C188.71 77.5, 195.45 86.46, 202.77 90.13 M180.12 69.71 C188.63 76.28, 194.66 83.34, 201.8 90.82" stroke="#1971c2" stroke-width="2" fill="none"></path></g></g><g stroke-linecap="round"><g transform="translate(483.72611368853234 63.75976443059634) rotate(0 -84.41779255792038 41.323635088312955)"><path d="M-0.63 0.93 C-28.78 14.56, -141.26 68.13, -169.11 81.77 M1.24 0.37 C-27.07 14.14, -142 68.89, -170.2 82.84" stroke="#1971c2" stroke-width="2" fill="none"></path></g><g transform="translate(483.72611368853234 63.75976443059634) rotate(0 -84.41779255792038 41.323635088312955)"><path d="M-147.75 60.87 C-156.67 69.12, -160.96 74.47, -168.61 82.18 M-149.82 62.08 C-156.93 69.75, -163.91 75.9, -169.63 83.66" stroke="#1971c2" stroke-width="2" fill="none"></path></g><g transform="translate(483.72611368853234 63.75976443059634) rotate(0 -84.41779255792038 41.323635088312955)"><path d="M-138.81 79.34 C-150.25 82.33, -157.06 82.46, -168.61 82.18 M-140.88 80.55 C-151.14 81.52, -161.35 80.99, -169.63 83.66" stroke="#1971c2" stroke-width="2" fill="none"></path></g></g></svg>