<svg version="1.1" xmlns="http://www.w3.org/2000/svg" viewBox="0 0 770 724" width="770" height="724">
  <!-- svg-source:excalidraw -->
  
  <defs>
    <style>
      @font-face {
        font-family: "Virgil";
        src: url("https://excalidraw.com/Virgil.woff2");
      }
      @font-face {
        font-family: "Cascadia";
        src: url("https://excalidraw.com/Cascadia.woff2");
      }
    </style>
  </defs>
  <rect x="0" y="0" width="770" height="724" fill="#1e1e2e"></rect><g stroke-linecap="round" transform="translate(280 10) rotate(0 90 32)"><path d="M-0.36 1.73 L179.21 -0.54 L181.92 62.38 L-1.92 65.43" stroke="none" stroke-width="0" fill="#2d6a4f"></path><path d="M0.17 1.04 C50.66 1.77, 99.44 1.46, 179.93 -1.89 M-0.54 -0.62 C64.62 -1.52, 128.27 -0.29, 180.35 -0.15 M180.37 0.95 C181.72 22.95, 179.26 47.16, 178.55 63.77 M179.07 -0.78 C180.86 24.78, 179.72 47.71, 179.8 63.95 M180.59 63.6 C115.68 67.24, 51.21 66.55, -0.18 65.95 M179.86 63.13 C118.82 65.15, 58.44 63.56, 0.09 63.21 M-0.86 62.43 C-0.45 49.92, -1.78 35.82, 1.67 -1.84 M0.6 63.31 C1.02 44.07, -0.33 22.68, -0.07 0.55" stroke="#40916c" stroke-width="2" fill="none"></path></g><g transform="translate(319.0200500488281 29.5) rotate(0 50.979949951171875 12.5)"><text x="50.979949951171875" y="NaN" font-family="Virgil, Segoe UI Emoji" font-size="20px" fill="#fff" text-anchor="middle" style="white-space: pre;" direction="ltr">Application</text></g><g stroke-linecap="round" transform="translate(260 164) rotate(0 110 32)"><path d="M2 -0.82 L218.55 -1.02 L219.75 62.77 L-1.9 63.38" stroke="none" stroke-width="0" fill="#5b21b6"></path><path d="M-1.17 -0.55 C54.77 -1.19, 109.78 -2.54, 219.77 0.07 M-0.44 -0.43 C75.39 1.18, 151.87 -0.33, 219.59 -0.14 M218.23 0.87 C218.52 13.93, 221.47 26.87, 218.6 64.29 M219.38 -0.21 C220.53 18.1, 220.69 34.87, 219.98 63.92 M221.29 63.32 C165.5 65.61, 110.15 64.01, 1.18 62.82 M219.35 63.87 C152.79 63.17, 84.39 62.26, 0.53 64.74 M-0.65 63.83 C-1.65 45.61, 0.8 32.15, -1.03 -1.38 M0.22 63.47 C-1.38 43.55, -0.55 21.8, -0.37 0.01" stroke="#7c3aed" stroke-width="2" fill="none"></path></g><g transform="translate(280.4700698852539 183.5) rotate(0 89.5299301147461 12.5)"><text x="89.5299301147461" y="NaN" font-family="Virgil, Segoe UI Emoji" font-size="20px" fill="#fff" text-anchor="middle" style="white-space: pre;" direction="ltr">Primary Database</text></g><g stroke-linecap="round" transform="translate(230 318) rotate(0 140 40)"><path d="M-1.48 0.7 L278.17 -0.09 L279.14 80.99 L-1.93 78.01" stroke="none" stroke-width="0" fill="#b45309"></path><path d="M-0.34 -1.05 C75.14 -1.41, 148.81 -0.37, 280.06 0.65 M0.36 0.6 C57.32 1.79, 113.93 1.73, 280.49 0.59 M279.6 1.2 C280.11 25.94, 281.38 55.15, 280.61 80.88 M279.06 -0.98 C280.44 18.3, 280.58 37.4, 279.84 80.68 M281.4 79.52 C223.58 78.67, 166.75 79.29, -1.02 79.4 M280.65 80.37 C209 77.87, 136.86 77.39, -0.16 80.59 M-1.03 81.85 C0.55 55.78, 0.62 35.71, -0.04 -0.97 M0.48 80.72 C1.17 55.47, 0.69 31.36, -0.97 -0.55" stroke="#d97706" stroke-width="2" fill="none"></path></g><g transform="translate(297.02005767822266 333) rotate(0 72.97994232177734 25)"><text x="72.97994232177734" y="NaN" font-family="Virgil, Segoe UI Emoji" font-size="20px" fill="#fff" text-anchor="middle" style="white-space: pre;" direction="ltr">CDC Connector</text><text x="72.97994232177734" y="NaN" font-family="Virgil, Segoe UI Emoji" font-size="20px" fill="#fff" text-anchor="middle" style="white-space: pre;" direction="ltr">(Debezium)</text></g><g stroke-linecap="round" transform="translate(280 488) rotate(0 90 32)"><path d="M-0.19 -0.17 L181.11 1.84 L179.67 65.01 L0.88 64.9" stroke="none" stroke-width="0" fill="#b45309"></path><path d="M-1.05 -1.39 C69.69 2.17, 135.82 1.82, 180.01 -0.82 M0.59 0.92 C67.53 0.86, 134.5 0.57, 179.38 -0.69 M178.85 -0.1 C180.13 11.66, 180.17 25.2, 180.9 62.79 M180.3 0.59 C179.98 19.62, 179.89 39.46, 180.92 63.93 M179.94 63.81 C110.16 63.69, 42.52 64.26, 0.79 62.67 M180.4 63.78 C142.53 64.53, 105 64.31, -0.91 63.79 M0.65 65.67 C-0.9 40.26, 0.8 15.05, -0.18 -1.77 M-0.16 63.48 C0.1 44.18, -1.26 23.68, 0.44 0.84" stroke="#d97706" stroke-width="2" fill="none"></path></g><g transform="translate(340.8000183105469 507.5) rotate(0 29.199981689453125 12.5)"><text x="29.199981689453125" y="NaN" font-family="Virgil, Segoe UI Emoji" font-size="20px" fill="#fff" text-anchor="middle" style="white-space: pre;" direction="ltr">Kafka</text></g><g stroke-linecap="round" transform="translate(10 642) rotate(0 100 32)"><path d="M-1.01 1.52 L201.02 -1.84 L200.65 63.74 L0.48 64.29" stroke="none" stroke-width="0" fill="#1e40af"></path><path d="M0.05 1.43 C52.22 0.84, 107.44 -1.96, 199.15 -1.23 M-0.5 0.46 C63.05 2.41, 125.36 2.25, 200.81 -0.01 M199.31 -1.61 C198.21 19.41, 201.39 37.19, 200.32 63.21 M199.9 0.69 C198.86 21.05, 200.11 42.11, 200.97 63.99 M199.26 62.38 C129.22 63.36, 61.1 63.6, 0.4 62.47 M200.46 64.56 C137.2 63.55, 76.06 64.44, 0.72 64.8 M-1.13 65.23 C0.05 45.11, 0.08 25.67, -0.94 0.47 M-0.91 63.7 C-0.19 50.33, 0.03 34.01, 0.54 0.09" stroke="#3b82f6" stroke-width="2" fill="none"></path></g><g transform="translate(45.62004852294922 661.5) rotate(0 64.37995147705078 12.5)"><text x="64.37995147705078" y="NaN" font-family="Virgil, Segoe UI Emoji" font-size="20px" fill="#fff" text-anchor="middle" style="white-space: pre;" direction="ltr">Search Index</text></g><g stroke-linecap="round" transform="translate(279.909003040504 642) rotate(0 90 32)"><path d="M-1.45 -0.09 L180.78 1.44 L178.03 63.68 L1.84 63.68" stroke="none" stroke-width="0" fill="#1e40af"></path><path d="M-0.59 1.72 C46.3 -1.68, 92.66 -0.57, 179.07 -1.85 M-0.31 0.57 C66.04 0.26, 131.66 -0.08, 180.69 0.57 M180.96 -1.67 C180.07 23.49, 180.85 48.9, 181.02 62.2 M179.41 -0.69 C179.05 22.65, 179.92 44.46, 179.47 63.15 M179.28 63.32 C137.36 65.43, 91.55 63.78, -1.35 63.61 M179.05 64.59 C108.88 64.01, 37.05 62.64, -0.5 64.77 M-1.41 62.94 C1.21 48.86, -0.68 35.51, 0.78 -0.81 M0.2 64.42 C-0.32 45.64, 0.33 26.27, 0.68 -0.71" stroke="#3b82f6" stroke-width="2" fill="none"></path></g><g transform="translate(341.36902501316024 661.5) rotate(0 28.53997802734375 12.5)"><text x="28.53997802734375" y="NaN" font-family="Virgil, Segoe UI Emoji" font-size="20px" fill="#fff" text-anchor="middle" style="white-space: pre;" direction="ltr">Cache</text></g><g stroke-linecap="round" transform="translate(500 634) rotate(0 130 40)"><path d="M0.89 0.5 L258.53 1.37 L261.37 79.66 L-1.98 80.95" stroke="none" stroke-width="0" fill="#1e40af"></path><path d="M0.49 -0.39 C77.37 -2.63, 153.68 -1.9, 258.57 1.01 M-0.1 0.2 C61.7 1.66, 122.48 1.58, 259.38 0.44 M259.3 1.88 C258.28 27.79, 257.88 54.49, 258.33 79.54 M260.85 -0.76 C259.7 25.39, 259.04 50.99, 259.78 79.3 M259.96 79.65 C174.78 78.5, 89.81 80.66, -0.24 79.78 M259.78 80.08 C176.19 81.19, 92.82 82.2, -0.03 80.23 M-0.88 81.73 C2.71 61.82, 0.72 41.41, 0.67 -0.71 M-0.61 79.18 C-0.36 58.03, -0.69 35, 0.86 0.35" stroke="#3b82f6" stroke-width="2" fill="none"></path></g><g transform="translate(579.0400466918945 649) rotate(0 50.95995330810547 25)"><text x="50.95995330810547" y="NaN" font-family="Virgil, Segoe UI Emoji" font-size="20px" fill="#fff" text-anchor="middle" style="white-space: pre;" direction="ltr">Analytics</text><text x="50.95995330810547" y="NaN" font-family="Virgil, Segoe UI Emoji" font-size="20px" fill="#fff" text-anchor="middle" style="white-space: pre;" direction="ltr">Warehouse</text></g><g stroke-linecap="round"><g transform="translate(370.0182666666667 80) rotate(0 0.0017333333332771872 39)"><path d="M0.32 0.94 C0.6 13.71, 0.78 64.38, 0.57 77.22 M-0.97 0.39 C-0.69 13.25, -0.49 65.2, -0.09 78.35" stroke="#40916c" stroke-width="2" fill="none"></path></g><g transform="translate(370.0182666666667 80) rotate(0 0.0017333333332771872 39)"><path d="M-9.22 51.26 C-9.75 54.47, -6.27 60.95, -1.87 79.55 M-10.67 50.18 C-7.41 58.22, -4.79 66.35, 0.66 77.76" stroke="#40916c" stroke-width="2" fill="none"></path></g><g transform="translate(370.0182666666667 80) rotate(0 0.0017333333332771872 39)"><path d="M11.3 50.94 C6.55 54.27, 5.8 60.82, -1.87 79.55 M9.85 49.86 C7.27 57.82, 4.04 66.04, 0.66 77.76" stroke="#40916c" stroke-width="2" fill="none"></path></g></g><g transform="translate(344.70002319335936 106.5) rotate(0 25.319976806640625 12.5)"><text x="25.319976806640625" y="NaN" font-family="Segoe UI Emoji" font-size="20px" fill="#1971c2" text-anchor="middle" style="white-space: pre;" direction="ltr">Write</text></g><g stroke-linecap="round"><g transform="translate(370.483725571203 234) rotate(0 0.9695281689501485 39)"><path d="M0.45 -0.57 C0.88 4.31, 2.24 14.95, 2.19 28.2 C2.14 41.45, 0.48 70.48, 0.13 78.92" stroke="#d97706" stroke-width="2.5" fill="none" stroke-dasharray="8 10"></path></g><g transform="translate(370.483725571203 234) rotate(0 0.9695281689501485 39)"><path d="M-8.3 54.92 C-4.52 61.69, -2.07 68.06, 1.53 79.77" stroke="#d97706" stroke-width="2.5" fill="none"></path></g><g transform="translate(370.483725571203 234) rotate(0 0.9695281689501485 39)"><path d="M8.95 55.75 C8.16 62.37, 6.04 68.51, 1.53 79.77" stroke="#d97706" stroke-width="2.5" fill="none"></path></g></g><g transform="translate(354.5956001695303 250.31013251273998) rotate(0 18.008995056152344 11.25)"><text x="18.008995056152344" y="NaN" font-family="Virgil, Segoe UI Emoji" font-size="18px" fill="#cdd6f4" text-anchor="middle" style="white-space: pre;" direction="ltr">WAL</text></g><g stroke-linecap="round"><g transform="translate(370.02733333333333 404) rotate(0 -0.004333333333306655 39)"><path d="M0.73 -0.6 C0.66 12.19, -0.66 64.55, -0.69 77.56" stroke="#d97706" stroke-width="2.5" fill="none" stroke-dasharray="8 10"></path></g><g transform="translate(370.02733333333333 404) rotate(0 -0.004333333333306655 39)"><path d="M-11.53 48.08 C-8.34 57.96, -5.81 64.53, -0.91 76.95" stroke="#d97706" stroke-width="2.5" fill="none"></path></g><g transform="translate(370.02733333333333 404) rotate(0 -0.004333333333306655 39)"><path d="M8.99 48.39 C6.46 58.31, 3.27 64.8, -0.91 76.95" stroke="#d97706" stroke-width="2.5" fill="none"></path></g></g><g stroke-linecap="round"><g transform="translate(352.6847999999999 558) rotate(0 -112.66579999999995 39)"><path d="M0.1 0.4 C-37.43 13.33, -187.81 63.83, -225.56 76.93" stroke="#d97706" stroke-width="2.5" fill="none" stroke-dasharray="8 10"></path></g><g transform="translate(352.6847999999999 558) rotate(0 -112.66579999999995 39)"><path d="M-201.52 57.75 C-210.36 61.47, -213.18 68.86, -225.54 75.85" stroke="#d97706" stroke-width="2.5" fill="none"></path></g><g transform="translate(352.6847999999999 558) rotate(0 -112.66579999999995 39)"><path d="M-194.9 77.17 C-205.42 75.67, -210.02 77.83, -225.54 75.85" stroke="#d97706" stroke-width="2.5" fill="none"></path></g></g><g stroke-linecap="round"><g transform="translate(370.0119335360336 558) rotate(0 -0.039432015781585505 39)"><path d="M-0.23 -1.11 C-0.2 11.89, -0.59 65.78, -0.39 78.91" stroke="#d97706" stroke-width="2.5" fill="none" stroke-dasharray="8 10"></path></g><g transform="translate(370.0119335360336 558) rotate(0 -0.039432015781585505 39)"><path d="M-12.56 50.22 C-6.35 59.64, -5.83 63.88, -1.57 80.74" stroke="#d97706" stroke-width="2.5" fill="none"></path></g><g transform="translate(370.0119335360336 558) rotate(0 -0.039432015781585505 39)"><path d="M7.96 50.17 C8.95 59.56, 4.25 63.82, -1.57 80.74" stroke="#d97706" stroke-width="2.5" fill="none"></path></g></g><g stroke-linecap="round"><g transform="translate(388.37150588235323 558) rotate(0 120.82724705882342 39.5)"><path d="M0.16 0.75 C40.36 14.02, 201.89 65.89, 242.17 79.09" stroke="#d97706" stroke-width="2.5" fill="none" stroke-dasharray="8 10"></path></g><g transform="translate(388.37150588235323 558) rotate(0 120.82724705882342 39.5)"><path d="M213.44 81.01 C223.65 80.02, 236.38 78.21, 243.77 77.64" stroke="#d97706" stroke-width="2.5" fill="none"></path></g><g transform="translate(388.37150588235323 558) rotate(0 120.82724705882342 39.5)"><path d="M219.77 61.49 C227.5 67.87, 237.85 73.42, 243.77 77.64" stroke="#d97706" stroke-width="2.5" fill="none"></path></g></g></svg>