<svg version="1.1" xmlns="http://www.w3.org/2000/svg" viewBox="0 0 843.1533114187353 774.4545588973392" width="843.1533114187353" height="774.4545588973392">
  <!-- svg-source:excalidraw -->
  
  <defs>
    <style>
      @font-face {
        font-family: "Virgil";
        src: url("https://excalidraw.com/Virgil.woff2");
      }
      @font-face {
        font-family: "Cascadia";
        src: url("https://excalidraw.com/Cascadia.woff2");
      }
    </style>
  </defs>
  <rect x="0" y="0" width="843.1533114187353" height="774.4545588973392" fill="#0d1117"></rect><g stroke-linecap="round" transform="translate(94.90393483904808 14.66236674508015) rotate(0 100 32)"><path d="M-1.2 0.22 L201.2 0.96 L199.39 63.66 L-1.85 63.18" stroke="none" stroke-width="0" fill="#3a1d6e"></path><path d="M-1.59 -1.59 C65.05 1.23, 128.31 1.39, 200.07 -1.15 M-0.6 0.84 C71.51 -0.04, 142.42 0.67, 200.03 -0.75 M200.44 1.69 C198.01 19.88, 200.11 40.67, 200.24 62.53 M200.63 0.56 C199.48 23.38, 199.31 45.7, 199.26 63.68 M199.14 63.26 C139.47 64.27, 81.83 66.72, 0.2 65.11 M199.52 64.55 C133.87 64.2, 67.8 64.21, -0.38 64.79 M-1.06 62.43 C1.78 42.13, -1.07 19, 1.32 1.85 M-0.93 63.36 C1.32 44.54, 1.53 23.88, -0.18 0.09" stroke="#a371f7" stroke-width="2" fill="none"></path></g><g transform="translate(133.6139720704934 34.16236674508015) rotate(0 61.28996276855469 12.5)"><text x="61.28996276855469" y="NaN" font-family="Virgil, Segoe UI Emoji" font-size="20px" fill="#fff" text-anchor="middle" style="white-space: pre;" direction="ltr">Region A DB</text></g><g stroke-linecap="round" transform="translate(488.3425369865274 10) rotate(0 100 32)"><path d="M1.56 0.34 L201.27 -0.34 L201.56 62.07 L1.61 64.87" stroke="none" stroke-width="0" fill="#3a1d6e"></path><path d="M0.98 0.76 C74.81 -1.49, 151.2 0.93, 201.71 0.98 M-0.53 -0.47 C60.22 0.23, 119.27 0.49, 200.74 0.42 M201.72 1.61 C200.61 24.02, 201.35 47.01, 201.89 62.17 M200.33 0.5 C199.61 16.11, 200.24 30.17, 200 64 M198.95 64.24 C131.91 63.96, 64.84 64.53, -0.17 62.36 M200.43 63.65 C138.92 63.53, 76.35 63.82, 0.81 63.18 M1.69 65.62 C0.35 44.81, -1.05 30.11, 1.01 0.54 M0.73 63.97 C0.91 44.64, -0.34 25.04, 0.66 -0.22" stroke="#a371f7" stroke-width="2" fill="none"></path></g><g transform="translate(526.3425751335001 29.5) rotate(0 61.999961853027344 12.5)"><text x="61.999961853027344" y="NaN" font-family="Virgil, Segoe UI Emoji" font-size="20px" fill="#fff" text-anchor="middle" style="white-space: pre;" direction="ltr">Region B DB</text></g><g stroke-linecap="round" transform="translate(101.98163979165315 176.09382754487677) rotate(0 90 32)"><path d="M1.56 -1.43 L179.42 -1.4 L178.47 64.97 L-0.51 63.07" stroke="none" stroke-width="0" fill="#5c3a10"></path><path d="M-0.76 1.71 C45.46 0.62, 91.44 -2.18, 179.36 0.69 M0.81 0.64 C54.91 0.01, 107.85 -1.22, 179.65 -0.05 M178.46 1.2 C181.91 18.33, 182.08 36.61, 179.98 62.15 M180.78 -0.31 C180.5 19.62, 180.7 38.34, 179.47 64.36 M179.3 65.69 C130.62 64.22, 83.22 64.26, 0.26 64.58 M180.55 64.31 C144.14 61.93, 107.26 61.86, 0.73 63.25 M0.39 65.52 C-0.13 46.55, -1.16 29.58, 1.31 1.04 M-0.66 63.24 C0.59 46.94, 0.71 32.13, -0.52 0.46" stroke="#f0883e" stroke-width="2" fill="none"></path></g><g transform="translate(136.68169014565706 195.59382754487677) rotate(0 55.299949645996094 12.5)"><text x="55.299949645996094" y="NaN" font-family="Virgil, Segoe UI Emoji" font-size="20px" fill="#fff" text-anchor="middle" style="white-space: pre;" direction="ltr">Debezium A</text></g><g stroke-linecap="round" transform="translate(503.097336487604 166.42800607473163) rotate(0 90 32)"><path d="M-0.3 1.4 L178.1 1.25 L179.18 63.56 L0.97 62.94" stroke="none" stroke-width="0" fill="#5c3a10"></path><path d="M0.72 0.27 C50.45 2.09, 99.14 0.45, 178.64 -0.36 M-0.81 0.46 C52.06 0.35, 103.65 -0.48, 180.42 -0.71 M181.02 -1.16 C180.88 14.47, 180.11 30.46, 180.44 65.64 M179.53 -0.92 C179.84 19.74, 180 38.11, 180.42 63.5 M178.03 62.29 C141.81 66.11, 100.35 66.13, 0.53 62.66 M180.55 63.87 C115.25 62.78, 52.96 63.48, 0.3 64.84 M-0.74 62.73 C0.13 49.15, 1.29 30.94, -0.69 -0.63 M-1 63.66 C-0.44 39.86, 1 16.8, -0.22 0.94" stroke="#f0883e" stroke-width="2" fill="none"></path></g><g transform="translate(537.0873877571353 185.92800607473163) rotate(0 56.00994873046875 12.5)"><text x="56.00994873046875" y="NaN" font-family="Virgil, Segoe UI Emoji" font-size="20px" fill="#fff" text-anchor="middle" style="white-space: pre;" direction="ltr">Debezium B</text></g><g stroke-linecap="round" transform="translate(375.33020978833713 344.30354140970127) rotate(0 14.109992980957031 67.5)"><path d="M-1.28 -0.91 L28.68 -1.55 L27.95 135.96 L0.13 136.52" stroke="none" stroke-width="0" fill="#40c057"></path><path d="M1.85 -0.59 C7.64 0.74, 17.71 1.51, 29.48 -0.74 M-0.68 -0.26 C8.3 0.14, 15.02 0.17, 28.73 0.14 M27.35 0.1 C29.05 30.73, 28.69 63.66, 29.3 133.57 M27.84 0.82 C27.13 30.71, 27.9 63.05, 27.47 134.33 M28.65 135.33 C22.37 136.74, 14.57 134.12, 0.65 134.74 M28.92 134.61 C17.74 135.72, 5.16 135.74, -0.09 134.19 M-0.66 135.57 C0.21 87.74, -2.26 42.46, -0.87 -1.41 M0.99 135.16 C0.52 102.91, 0.4 69.48, 0.77 -0.04" stroke="#b2f2bb" stroke-width="2" fill="none"></path></g><g transform="translate(382.8802052107004 349.30354140970127) rotate(0 6.55999755859375 62.5)"><text x="6.55999755859375" y="NaN" font-family="Virgil, Segoe UI Emoji" font-size="20px" fill="#fff" text-anchor="middle" style="white-space: pre;" direction="ltr">K</text><text x="6.55999755859375" y="NaN" font-family="Virgil, Segoe UI Emoji" font-size="20px" fill="#fff" text-anchor="middle" style="white-space: pre;" direction="ltr">A</text><text x="6.55999755859375" y="NaN" font-family="Virgil, Segoe UI Emoji" font-size="20px" fill="#fff" text-anchor="middle" style="white-space: pre;" direction="ltr">F</text><text x="6.55999755859375" y="NaN" font-family="Virgil, Segoe UI Emoji" font-size="20px" fill="#fff" text-anchor="middle" style="white-space: pre;" direction="ltr">K</text><text x="6.55999755859375" y="NaN" font-family="Virgil, Segoe UI Emoji" font-size="20px" fill="#fff" text-anchor="middle" style="white-space: pre;" direction="ltr">A</text></g><g stroke-linecap="round" transform="translate(265.33444439712076 542.8374589794756) rotate(0 126.88853404152886 40)"><path d="M-0.11 1.97 L253.11 -1.34 L252.94 80.47 L-1.63 78.92" stroke="none" stroke-width="0" fill="#0d2c5a"></path><path d="M-1.42 -1.25 C73.18 2.45, 146.39 1.79, 252.45 -0.7 M0.76 -0.15 C71.05 -0.33, 141.52 -0.65, 252.98 0.35 M252.24 -0.25 C254.38 29.8, 255.49 55.69, 252.18 81.92 M254.27 0.16 C254.25 28.93, 252.98 58.46, 252.8 80.76 M253.74 79.25 C167.32 82.4, 81.58 81.63, 0.1 81.02 M253.96 80.32 C180.61 79.41, 106.89 80.42, 0.36 79.63 M-1.12 78.34 C-0.64 57.5, -2.04 36.81, -1.69 0.92 M-0.11 80.36 C-0.32 56.76, -0.16 31.36, -0.35 0.28" stroke="#58a6ff" stroke-width="2" fill="none"></path></g><g transform="translate(274.83306297234105 557.8374589794756) rotate(0 117.3899154663086 25)"><text x="117.3899154663086" y="NaN" font-family="Virgil, Segoe UI Emoji" font-size="20px" fill="#fff" text-anchor="middle" style="white-space: pre;" direction="ltr">Flink</text><text x="117.3899154663086" y="NaN" font-family="Virgil, Segoe UI Emoji" font-size="20px" fill="#fff" text-anchor="middle" style="white-space: pre;" direction="ltr">(Keyed State + Window)</text></g><g stroke-linecap="round" transform="translate(271.98163979165315 700.4545588973392) rotate(0 120 32)"><path d="M-1.33 -0.71 L240.86 -0.63 L239.14 64.99 L0.55 64.74" stroke="none" stroke-width="0" fill="#1f4d2b"></path><path d="M-1.14 -0.69 C74.45 -0.8, 150.53 -0.2, 239.28 -0.38 M0.77 0.83 C67.67 0.99, 135.56 0.12, 239.77 0.47 M241.7 -0.73 C241 18.44, 239.77 34.74, 241.24 65.06 M239.31 0.75 C240.73 17.71, 240.27 33.21, 240.19 64.99 M241.19 62.58 C174.63 63.56, 105.63 63.74, -1.11 63.24 M240.23 64.25 C150.84 63.08, 62.14 63.55, -0.69 63.25 M-0.04 62.67 C-1.77 44.44, 1.34 27.44, 1.97 -0.61 M0.46 64.57 C0.35 43.04, -1.24 23.96, 0.89 0.87" stroke="#3fb950" stroke-width="2" fill="none"></path></g><g transform="translate(319.0217093717313 719.9545588973392) rotate(0 72.95993041992188 12.5)"><text x="72.95993041992188" y="NaN" font-family="Virgil, Segoe UI Emoji" font-size="20px" fill="#fff" text-anchor="middle" style="white-space: pre;" direction="ltr">Resolved Topic</text></g><g stroke-linecap="round"><g transform="translate(194.74385162834446 84.66236674508015) rotate(0 -1.2820643129938532 42.715730399898305)"><path d="M-1.04 1.02 C-1.36 15.33, -1.88 71.32, -2 85.54" stroke="#f0883e" stroke-width="2.5" fill="none" stroke-dasharray="8 10"></path></g><g transform="translate(194.74385162834446 84.66236674508015) rotate(0 -1.2820643129938532 42.715730399898305)"><path d="M-10.29 58.2 C-8.97 66.98, -4.73 72.47, -0.57 84.85" stroke="#f0883e" stroke-width="2.5" fill="none"></path></g><g transform="translate(194.74385162834446 84.66236674508015) rotate(0 -1.2820643129938532 42.715730399898305)"><path d="M10.23 58.39 C5.55 66.93, 3.8 72.37, -0.57 84.85" stroke="#f0883e" stroke-width="2.5" fill="none"></path></g></g><g transform="translate(175.45279225919828 116.12809714497847) rotate(0 18.008995056152344 11.25)"><text x="18.008995056152344" y="NaN" font-family="Virgil, Segoe UI Emoji" font-size="18px" fill="#c9d1d9" text-anchor="middle" style="white-space: pre;" direction="ltr">WAL</text></g><g stroke-linecap="round"><g transform="translate(588.6710668165813 80) rotate(0 2.067869920484384 40.21400303736582)"><path d="M1.06 -0.8 C1.77 12.92, 2.48 67.85, 3.16 81.42" stroke="#f0883e" stroke-width="2.5" fill="none" stroke-dasharray="8 10"></path></g><g transform="translate(588.6710668165813 80) rotate(0 2.067869920484384 40.21400303736582)"><path d="M-9.26 51.91 C-4.23 60.84, -3.28 63.57, 4.59 80.67" stroke="#f0883e" stroke-width="2.5" fill="none"></path></g><g transform="translate(588.6710668165813 80) rotate(0 2.067869920484384 40.21400303736582)"><path d="M11.26 51.31 C12.09 60.54, 8.86 63.39, 4.59 80.67" stroke="#f0883e" stroke-width="2.5" fill="none"></path></g></g><g transform="translate(572.7299416809134 108.96400303736583) rotate(0 18.008995056152344 11.25)"><text x="18.008995056152344" y="NaN" font-family="Virgil, Segoe UI Emoji" font-size="18px" fill="#c9d1d9" text-anchor="middle" style="white-space: pre;" direction="ltr">WAL</text></g><g stroke-linecap="round"><g transform="translate(203.36768088803407 246.09382754487677) rotate(0 87.70376864932642 46.29027196760437)"><path d="M0.11 0.65 C29.28 16.01, 146.84 76.81, 175.91 92.17" stroke="#f0883e" stroke-width="2.5" fill="none" stroke-dasharray="8 10"></path></g><g transform="translate(203.36768088803407 246.09382754487677) rotate(0 87.70376864932642 46.29027196760437)"><path d="M147.26 89.06 C156.71 88.22, 168.99 92.39, 177.81 93.26" stroke="#f0883e" stroke-width="2.5" fill="none"></path></g><g transform="translate(203.36768088803407 246.09382754487677) rotate(0 87.70376864932642 46.29027196760437)"><path d="M156.76 70.87 C162.62 76.9, 171.33 87.93, 177.81 93.26" stroke="#f0883e" stroke-width="2.5" fill="none"></path></g></g><g stroke-linecap="round"><g transform="translate(582.3840247381258 236.42800607473168) rotate(0 -91.35622074615333 51.07884637633036)"><path d="M-0.3 1.02 C-30.73 18.22, -152.02 86.38, -182.28 103.04" stroke="#f0883e" stroke-width="2.5" fill="none" stroke-dasharray="8 10"></path></g><g transform="translate(582.3840247381258 236.42800607473168) rotate(0 -91.35622074615333 51.07884637633036)"><path d="M-160.95 81.08 C-167.57 89.07, -177.33 94.64, -183.14 101.94" stroke="#f0883e" stroke-width="2.5" fill="none"></path></g><g transform="translate(582.3840247381258 236.42800607473168) rotate(0 -91.35622074615333 51.07884637633036)"><path d="M-150.96 99.01 C-160.79 101.16, -173.79 100.92, -183.14 101.94" stroke="#f0883e" stroke-width="2.5" fill="none"></path></g></g><g stroke-linecap="round"><g transform="translate(389.7079539413027 485.30354140970127) rotate(0 1.137736515371472 25.76695878488715)"><path d="M-0.23 -1.11 C0.19 7.48, 1.38 43.73, 1.96 52.44" stroke="#f0883e" stroke-width="2.5" fill="none" stroke-dasharray="8 10"></path></g><g transform="translate(389.7079539413027 485.30354140970127) rotate(0 1.137736515371472 25.76695878488715)"><path d="M-9.84 28.13 C-3.76 36.43, -3.33 39.56, 0.78 54.28" stroke="#f0883e" stroke-width="2.5" fill="none"></path></g><g transform="translate(389.7079539413027 485.30354140970127) rotate(0 1.137736515371472 25.76695878488715)"><path d="M7.78 27.29 C9.38 35.78, 5.33 39.12, 0.78 54.28" stroke="#f0883e" stroke-width="2.5" fill="none"></path></g></g><g stroke-linecap="round"><g transform="translate(392.22959355159173 628.8374589794756) rotate(0 -0.1025955830362193 32.80854995893179)"><path d="M0.01 0.6 C-0.04 11.57, -0.21 54.82, -0.07 65.76 M-1.44 -0.13 C-1.65 11.06, -1.3 56.65, -0.95 67.38" stroke="#3fb950" stroke-width="2" fill="none"></path></g><g transform="translate(392.22959355159173 628.8374589794756) rotate(0 -0.1025955830362193 32.80854995893179)"><path d="M-10.7 39.6 C-8.04 50.09, -3.78 57.48, -1.96 69.05 M-11.84 38.8 C-9.19 46.87, -6.94 52.85, -1.01 68.06" stroke="#3fb950" stroke-width="2" fill="none"></path></g><g transform="translate(392.22959355159173 628.8374589794756) rotate(0 -0.1025955830362193 32.80854995893179)"><path d="M9.82 39.24 C5.93 49.85, 3.63 57.35, -1.96 69.05 M8.67 38.44 C6.4 46.78, 3.73 52.84, -1.01 68.06" stroke="#3fb950" stroke-width="2" fill="none"></path></g></g><g stroke-linecap="round"><g transform="translate(269.3539881556287 736.2513026808554) rotate(0 -105.95329381500267 -345.44312640287103)"><path d="M-0.69 1.15 C-32.63 -4.93, -156.79 64.23, -192.04 -36.27 C-227.29 -136.78, -215.1 -492.79, -212.19 -601.9 C-209.28 -711.01, -180.88 -676.22, -174.57 -690.93" stroke="#3fb950" stroke-width="2.5" fill="none" stroke-dasharray="8 10"></path></g><g transform="translate(269.3539881556287 736.2513026808554) rotate(0 -105.95329381500267 -345.44312640287103)"><path d="M-193.42 -669.59 C-190.25 -675.41, -184.42 -682.12, -174.64 -691.96" stroke="#3fb950" stroke-width="2.5" fill="none"></path></g><g transform="translate(269.3539881556287 736.2513026808554) rotate(0 -105.95329381500267 -345.44312640287103)"><path d="M-202.48 -688 C-196.87 -688.85, -188.62 -690.64, -174.64 -691.96" stroke="#3fb950" stroke-width="2.5" fill="none"></path></g></g><g transform="translate(9.999999999999996 393.2874382506271) rotate(0 43.07997131347656 25)"><text x="43.07997131347656" y="NaN" font-family="Segoe UI Emoji" font-size="20px" fill="#2f9e44" text-anchor="middle" style="white-space: pre;" direction="ltr">Resolved</text><text x="43.07997131347656" y="NaN" font-family="Segoe UI Emoji" font-size="20px" fill="#2f9e44" text-anchor="middle" style="white-space: pre;" direction="ltr">Data</text></g><g stroke-linecap="round"><g transform="translate(517.9816397916532 735.1968292359736) rotate(0 109.92339898879453 -344.3482874881803)"><path d="M0.1 0.4 C33.88 -5.2, 165.85 65.52, 202.3 -34.24 C238.75 -133.99, 224.41 -489.06, 218.81 -598.14 C213.2 -707.21, 177.19 -673.41, 168.66 -688.69" stroke="#3fb950" stroke-width="2.5" fill="none" stroke-dasharray="8 10"></path></g><g transform="translate(517.9816397916532 735.1968292359736) rotate(0 109.92339898879453 -344.3482874881803)"><path d="M199.29 -687.61 C188.79 -689.33, 184.19 -687.4, 168.68 -689.77" stroke="#3fb950" stroke-width="2.5" fill="none"></path></g><g transform="translate(517.9816397916532 735.1968292359736) rotate(0 109.92339898879453 -344.3482874881803)"><path d="M191.35 -668.69 C183.08 -675.51, 180.63 -678.67, 168.68 -689.77" stroke="#3fb950" stroke-width="2.5" fill="none"></path></g></g><g transform="translate(701.9771592686168 394.94313414014294) rotate(0 43.07997131347656 25)"><text x="43.07997131347656" y="NaN" font-family="Segoe UI Emoji" font-size="20px" fill="#2f9e44" text-anchor="middle" style="white-space: pre;" direction="ltr">Resolved</text><text x="43.07997131347656" y="NaN" font-family="Segoe UI Emoji" font-size="20px" fill="#2f9e44" text-anchor="middle" style="white-space: pre;" direction="ltr">Data</text></g><g transform="translate(454.4442410764975 345.710912059107) rotate(0 56.807952880859375 22.5)"><text x="0" y="NaN" font-family="Virgil, Segoe UI Emoji" font-size="18px" fill="#8b949e" text-anchor="start" style="white-space: pre;" direction="ltr">Partitioned </text><text x="0" y="NaN" font-family="Virgil, Segoe UI Emoji" font-size="18px" fill="#8b949e" text-anchor="start" style="white-space: pre;" direction="ltr">by entity key</text></g><g transform="translate(427.97883095623115 476.64607992229315) rotate(0 129.91488647460938 22.5)"><text x="0" y="NaN" font-family="Virgil, Segoe UI Emoji" font-size="18px" fill="#8b949e" text-anchor="start" style="white-space: pre;" direction="ltr">Buffers events, waits for</text><text x="0" y="NaN" font-family="Virgil, Segoe UI Emoji" font-size="18px" fill="#8b949e" text-anchor="start" style="white-space: pre;" direction="ltr">both regions, field-level merge</text></g><g transform="translate(620.5374666921728 615.9276208816588) rotate(0 106.30792236328125 22.5)"><text x="0" y="NaN" font-family="Virgil, Segoe UI Emoji" font-size="18px" fill="#8b949e" text-anchor="start" style="white-space: pre;" direction="ltr">Tagged source: resolver</text><text x="0" y="NaN" font-family="Virgil, Segoe UI Emoji" font-size="18px" fill="#8b949e" text-anchor="start" style="white-space: pre;" direction="ltr">to prevent CDC loops</text></g></svg>