<svg version="1.1" xmlns="http://www.w3.org/2000/svg" viewBox="0 0 1736.2466555195638 692" width="1736.2466555195638" height="692">
  <!-- svg-source:excalidraw -->
  
  <defs>
    <style>
      @font-face {
        font-family: "Virgil";
        src: url("https://excalidraw.com/Virgil.woff2");
      }
      @font-face {
        font-family: "Cascadia";
        src: url("https://excalidraw.com/Cascadia.woff2");
      }
    </style>
  </defs>
  <rect x="0" y="0" width="1736.2466555195638" height="692" fill="#1e1e2e"></rect><g stroke-opacity="0.6" fill-opacity="0.6" stroke-linecap="round" transform="translate(10 224.5) rotate(0 150 121.5)"><path d="M1.8 -1.15 L300.27 0.79 L298.88 244.9 L-1.18 241.54" stroke="none" stroke-width="0" fill="#181825"></path><path d="M0.72 0.92 C83.56 1.24, 169.75 0.53, 300.79 -0.53 M299.29 -0.51 C299.15 91.24, 300.4 178.06, 298.86 244.26 M299.27 243.7 C214.85 241.69, 129.92 241.76, 1.46 242.43 M-0.42 242.12 C-0.69 159.49, 1.1 76.18, 0.24 -0.93" stroke="#45475a" stroke-width="2.5" fill="none" stroke-dasharray="8 10"></path></g><g transform="translate(26 234.5) rotate(0 24.34497833251953 11.25)"><text x="0" y="NaN" font-family="Virgil, Segoe UI Emoji" font-size="18px" fill="#a6adc8" text-anchor="start" style="white-space: pre;" direction="ltr">Client</text></g><g stroke-opacity="0.6" fill-opacity="0.6" stroke-linecap="round" transform="translate(429.99999999999994 10) rotate(0 648.1233277597819 336)"><path d="M-0.85 -1.7 L1297.12 1.99 L1297.32 671.04 L0.63 671.47" stroke="none" stroke-width="0" fill="#181825"></path><path d="M-0.62 -0.59 C378.94 2.65, 757.12 2.27, 1296.32 -0.06 M1296.04 0.74 C1294.67 216.34, 1294.81 433.91, 1296.25 671.23 M1295.83 672.52 C968.41 673.51, 639.63 673.73, -0.56 672.21 M-0.27 671.45 C-0.97 466.67, -0.21 261.14, -0.44 0.24" stroke="#45475a" stroke-width="2.5" fill="none" stroke-dasharray="8 10"></path></g><g transform="translate(446 20) rotate(0 35.270965576171875 11.25)"><text x="0" y="NaN" font-family="Virgil, Segoe UI Emoji" font-size="18px" fill="#a6adc8" text-anchor="start" style="white-space: pre;" direction="ltr">Services</text></g><g stroke-opacity="0.6" fill-opacity="0.6" stroke-linecap="round" transform="translate(850 224.5) rotate(0 156.5 121.5)"><path d="M-0.45 -0.9 L311.48 -1.52 L312.85 241.22 L0.68 241.43" stroke="none" stroke-width="0" fill="#181825"></path><path d="M-0.65 -0.37 C77.63 -0.72, 156.09 0.42, 311.76 0.56 M312.65 -0.93 C313.77 60.9, 312.34 125.6, 312.13 242.47 M313.64 243.28 C191.15 241.7, 67.85 241.23, 1.32 243.7 M0.14 244.59 C-0.12 173.86, -0.5 105.51, -1.6 -1.43" stroke="#45475a" stroke-width="2.5" fill="none" stroke-dasharray="8 10"></path></g><g transform="translate(866 234.5) rotate(0 46.025970458984375 11.25)"><text x="0" y="NaN" font-family="Virgil, Segoe UI Emoji" font-size="18px" fill="#a6adc8" text-anchor="start" style="white-space: pre;" direction="ltr">Event Bus</text></g><g stroke-linecap="round" transform="translate(70 334.5) rotate(0 90 36.5)"><path d="M-0.91 -1.44 L178.03 1.55 L181.17 73.34 L0.22 72.58" stroke="none" stroke-width="0" fill="#2d6a4f"></path><path d="M1.61 -0.92 C59.43 3.02, 124.27 -0.67, 181.48 0.55 M0.5 0.89 C49.94 -2.01, 99.45 -1.22, 180.41 -0.84 M179.36 -1.22 C180.66 20.38, 179.54 43.87, 178.04 74.37 M179.09 -0.74 C179.08 22.86, 179.37 44.35, 179.07 72.52 M178.86 71.54 C120.61 73.72, 64.36 71.63, -0.59 71.9 M180.46 73.77 C113.43 72.2, 45.11 71.43, -0.31 73.02 M1.69 73.16 C2.36 45.65, 2.55 16.46, -1.18 -0.35 M0.1 73.41 C-0.08 47.6, -0.1 19.51, 0.19 0.57" stroke="#40916c" stroke-width="2" fill="none"></path></g><g transform="translate(137.66001892089844 358.5) rotate(0 22.339981079101562 12.5)"><text x="22.339981079101562" y="NaN" font-family="Virgil, Segoe UI Emoji" font-size="20px" fill="#fff" text-anchor="middle" style="white-space: pre;" direction="ltr">User</text></g><g stroke-linecap="round" transform="translate(490 334.5) rotate(0 107.5 36.5)"><path d="M-1.73 -1.21 L216.42 -0.38 L213.29 74.68 L-0.11 73" stroke="none" stroke-width="0" fill="#5b21b6"></path><path d="M-0.17 -0.51 C61.79 0.49, 123.23 -0.9, 216.37 0.77 M-0.45 0.68 C44.25 0.35, 88.28 0.67, 214.77 -0.06 M214.5 0.75 C215.88 24.01, 214.52 49.07, 213.53 74.19 M215.5 -0.95 C215.71 21.59, 215.96 43.99, 214.9 73.71 M215 74.07 C163.88 70.67, 111.8 70.2, -0.01 73.7 M214.55 72.5 C156.34 74.07, 97.59 73.67, -0.28 73.6 M1.58 72.93 C-1.19 45.03, -0.1 17.27, -1.09 1.05 M-0.74 73.45 C0.37 57.74, -0.37 40.27, -0.85 0.12" stroke="#7c3aed" stroke-width="2" fill="none"></path></g><g transform="translate(531.7200622558594 358.5) rotate(0 65.77993774414062 12.5)"><text x="65.77993774414062" y="NaN" font-family="Virgil, Segoe UI Emoji" font-size="20px" fill="#fff" text-anchor="middle" style="white-space: pre;" direction="ltr">Order Service</text></g><g stroke-linecap="round" transform="translate(1431.0233738028205 65.83286505987093) rotate(0 118.5 36.5)"><path d="M-1.66 -0.73 L238.87 0.49 L235.13 71.57 L-0.35 74.37" stroke="none" stroke-width="0" fill="#1e40af"></path><path d="M0.13 -1.32 C84.33 2.62, 165.56 1.34, 236.98 -1.65 M-0.28 0.42 C51.13 1.2, 103.53 1.51, 236.93 0.51 M236.03 0.22 C236.35 21.11, 235.96 41.95, 238.36 73.01 M237.69 0.46 C235.86 17.62, 235.82 34.28, 236.06 73.69 M238.14 74.42 C162.07 73.82, 88.62 72.93, -1.61 72.21 M236.53 73.84 C182.53 72.93, 129.4 74.06, 0.45 72.72 M-1.51 74.72 C0.86 45.93, -0.34 18.28, 0.43 0.26 M-0.32 72.69 C-0.39 46.83, -0.95 19.25, 0.68 0.48" stroke="#3b82f6" stroke-width="2" fill="none"></path></g><g transform="translate(1470.6734439932502 89.83286505987093) rotate(0 78.84992980957031 12.5)"><text x="78.84992980957031" y="NaN" font-family="Virgil, Segoe UI Emoji" font-size="20px" fill="#fff" text-anchor="middle" style="white-space: pre;" direction="ltr">Payment Service</text></g><g stroke-linecap="round" transform="translate(1425.8740028941384 222.22155349256542) rotate(0 129.5 36.5)"><path d="M1.48 1.39 L260.39 -0.86 L258.43 73.83 L-1.62 71.33" stroke="none" stroke-width="0" fill="#1e40af"></path><path d="M0.97 -0.39 C94.09 2.26, 189.21 1.81, 258.46 -0.83 M0.5 -0.74 C90.74 1.24, 181.5 2.19, 259.31 -0.08 M257.83 0.7 C258.4 15.19, 260.79 29.87, 259.75 72.15 M258.32 0.45 C258.61 15.49, 259.28 30.42, 258.13 73.56 M258.86 73.34 C168.02 72.96, 76.59 72.03, -0.48 71.94 M259.47 73.53 C158.09 71.78, 57.92 71.2, 0.01 73.72 M0.74 73.66 C1.37 56.7, 1.87 39.06, -0.48 -0.58 M0.77 73.48 C-0.86 57.63, -0.61 42.63, -0.38 -0.84" stroke="#3b82f6" stroke-width="2" fill="none"></path></g><g transform="translate(1470.944078882908 246.22155349256542) rotate(0 84.42992401123047 12.5)"><text x="84.42992401123047" y="NaN" font-family="Virgil, Segoe UI Emoji" font-size="20px" fill="#fff" text-anchor="middle" style="white-space: pre;" direction="ltr">Inventory Service</text></g><g stroke-linecap="round" transform="translate(1419.7041582683034 389.91089649825847) rotate(0 124 36.5)"><path d="M-1.89 -1.31 L248.79 0.39 L248.76 74.28 L-1.56 74.71" stroke="none" stroke-width="0" fill="#1e40af"></path><path d="M0.41 -0.96 C83.1 1.42, 167.08 1.17, 248.77 -0.84 M-0.71 -0.52 C60.9 -0.84, 122.16 -0.9, 248.43 0.4 M247.97 0.69 C247.55 27.9, 246.57 53.67, 247.31 73.57 M247.69 0.54 C247.08 21.46, 247.49 43.92, 247.69 73.19 M248.76 74.1 C188.4 74.59, 131.13 73.83, 0.73 73.33 M247.44 72.55 C155.29 71.65, 62.48 70.86, -0.25 72.57 M-1.62 71.66 C-2.12 46.2, 1.53 23.07, -0.08 1.61 M-0.37 72.03 C1.08 46.51, 0.38 21.2, -0.31 0.22" stroke="#3b82f6" stroke-width="2" fill="none"></path></g><g transform="translate(1470.0042376140066 413.91089649825847) rotate(0 73.69992065429688 12.5)"><text x="73.69992065429688" y="NaN" font-family="Virgil, Segoe UI Emoji" font-size="20px" fill="#fff" text-anchor="middle" style="white-space: pre;" direction="ltr">Shipping Service</text></g><g stroke-linecap="round" transform="translate(1403.5052170440595 576.4658401413097) rotate(0 146 36.5)"><path d="M1.28 1.4 L290.97 1.55 L293.72 71.6 L1.06 73.58" stroke="none" stroke-width="0" fill="#1e40af"></path><path d="M-0.9 -1.31 C111.22 -0.61, 223.51 -1.56, 290.94 0.81 M0.7 0.54 C84.87 1.41, 170.97 0.52, 291.44 0.18 M292.44 0.97 C291.43 23.87, 292.15 46.71, 290.93 71.73 M291.94 0.96 C292.89 20.35, 291.05 40.67, 291.07 72.1 M292.16 74.33 C179.08 71.93, 69.45 72.76, -0.6 71.75 M292.74 73.59 C186.3 75.09, 78.74 74.87, 0.12 73.66 M-0.56 73.59 C1.36 46.13, -0.17 18.24, 1.32 -0.51 M-0.68 72.69 C-0.82 44.08, -1.55 15.66, 0.05 0.81" stroke="#3b82f6" stroke-width="2" fill="none"></path></g><g transform="translate(1454.1353134796063 600.4658401413097) rotate(0 95.36990356445312 12.5)"><text x="95.36990356445312" y="NaN" font-family="Virgil, Segoe UI Emoji" font-size="20px" fill="#fff" text-anchor="middle" style="white-space: pre;" direction="ltr">Notification Service</text></g><g stroke-linecap="round" transform="translate(910 334.5) rotate(0 96.5 36.5)"><path d="M0.08 0.58 L192.2 1.89 L194.55 74.25 L-1.65 74.48" stroke="none" stroke-width="0" fill="#b45309"></path><path d="M0.68 -0.13 C78.13 -0.08, 154.67 -0.38, 191.68 -0.36 M-0.89 -0.58 C55.52 1.12, 112.96 1.54, 193.18 0.49 M192.11 1.12 C194.76 26.22, 194.29 47.94, 194.54 74.24 M193.85 0.46 C193.77 19.16, 193.55 36.83, 192.76 72.84 M192.85 71.59 C130.59 74.19, 68.12 73.83, -0.58 74.6 M193.16 73.79 C129.05 71.75, 65.7 71.68, 0.21 72.18 M-1.02 71.08 C-0.16 48.19, -1.78 24, 1.49 -1.1 M0.11 72.04 C-0.6 57.56, 1.03 39.7, 0.3 0.68" stroke="#d97706" stroke-width="2" fill="none"></path></g><g transform="translate(943.0900344848633 358.5) rotate(0 63.40996551513672 12.5)"><text x="63.40996551513672" y="NaN" font-family="Virgil, Segoe UI Emoji" font-size="20px" fill="#fff" text-anchor="middle" style="white-space: pre;" direction="ltr">Kafka / SQS</text></g><g stroke-linecap="round"><g transform="translate(255.99999999999997 371.0073) rotate(0 114.00000000000001 0)"><path d="M0.66 -1.02 C38.85 -1.04, 190.28 -0.46, 228.19 -0.24 M-0.46 1.06 C37.68 1.24, 189.37 1.05, 227.34 1.17" stroke="#40916c" stroke-width="2" fill="none"></path></g><g transform="translate(255.99999999999997 371.0073) rotate(0 114.00000000000001 0)"><path d="M197.43 11.72 C204.87 9.14, 211.9 5.21, 226.14 2.17 M199.14 11.94 C208.62 9.26, 216.91 4.76, 227.45 1.03" stroke="#40916c" stroke-width="2" fill="none"></path></g><g transform="translate(255.99999999999997 371.0073) rotate(0 114.00000000000001 0)"><path d="M197.45 -8.8 C204.85 -6.93, 211.88 -6.4, 226.14 2.17 M199.15 -8.59 C208.79 -5, 217.08 -3.24, 227.45 1.03" stroke="#40916c" stroke-width="2" fill="none"></path></g></g><g transform="translate(317.42203521728516 359.7573) rotate(0 52.577964782714844 11.25)"><text x="52.577964782714844" y="NaN" font-family="Virgil, Segoe UI Emoji" font-size="18px" fill="#cdd6f4" text-anchor="middle" style="white-space: pre;" direction="ltr">Place Order</text></g><g stroke-linecap="round"><g transform="translate(711 371.9381516081941) rotate(0 96.5 0.28544356212913496)"><path d="M-0.82 0.13 C13.55 0.31, 53.11 0.41, 85.61 0.46 C118.11 0.51, 176.2 0.62, 194.17 0.44" stroke="#d97706" stroke-width="2.5" fill="none" stroke-dasharray="8 10"></path></g><g transform="translate(711 371.9381516081941) rotate(0 96.5 0.28544356212913496)"><path d="M166.23 10.61 C172.74 10.34, 181.18 6.5, 193.42 0.16" stroke="#d97706" stroke-width="2.5" fill="none"></path></g><g transform="translate(711 371.9381516081941) rotate(0 96.5 0.28544356212913496)"><path d="M166.16 -9.91 C172.59 -5.02, 181.05 -3.7, 193.42 0.16" stroke="#d97706" stroke-width="2.5" fill="none"></path></g></g><g transform="translate(736.6888188817464 361.39136707919164) rotate(0 60.03895568847656 11.25)"><text x="60.03895568847656" y="NaN" font-family="Virgil, Segoe UI Emoji" font-size="18px" fill="#cdd6f4" text-anchor="middle" style="white-space: pre;" direction="ltr">OrderCreated</text></g><g stroke-linecap="round"><g transform="translate(1057.8947654303593 328.5) rotate(0 183.56430418623057 -131.21487215612214)"><path d="M0.82 0.35 C26.2 -43.44, 92.1 -224.84, 153.35 -262.22 C214.6 -299.61, 332.64 -230.35, 368.3 -223.96" stroke="#d97706" stroke-width="2.5" fill="none" stroke-dasharray="8 10"></path></g><g transform="translate(1057.8947654303593 328.5) rotate(0 183.56430418623057 -131.21487215612214)"><path d="M338.88 -223.46 C350.4 -222.14, 362.36 -223.84, 369.02 -224.3" stroke="#d97706" stroke-width="2.5" fill="none"></path></g><g transform="translate(1057.8947654303593 328.5) rotate(0 183.56430418623057 -131.21487215612214)"><path d="M345.82 -242.78 C354.7 -233.83, 363.94 -227.97, 369.02 -224.3" stroke="#d97706" stroke-width="2.5" fill="none"></path></g></g><g transform="translate(1268.317477973269 340.75296819134894) rotate(0 60.03895568847656 11.25)"><text x="60.03895568847656" y="NaN" font-family="Virgil, Segoe UI Emoji" font-size="18px" fill="#cdd6f4" text-anchor="middle" style="white-space: pre;" direction="ltr">OrderCreated</text></g><g stroke-linecap="round"><g transform="translate(1426.1761095910413 129.51289051067872) rotate(0 -176.0751800337842 99.49355474466064)"><path d="M0.34 0.77 C-25.68 4.95, -97.88 -8.71, -156.79 24.37 C-215.7 57.45, -320.7 170.15, -353.12 199.27" stroke="#d97706" stroke-width="2.5" fill="none" stroke-dasharray="8 10"></path></g><g transform="translate(1426.1761095910413 129.51289051067872) rotate(0 -176.0751800337842 99.49355474466064)"><path d="M-338.8 170.97 C-344.86 177.33, -346.2 187.06, -352.97 198.79" stroke="#d97706" stroke-width="2.5" fill="none"></path></g><g transform="translate(1426.1761095910413 129.51289051067872) rotate(0 -176.0751800337842 99.49355474466064)"><path d="M-324.48 185.67 C-333.97 188.45, -338.84 194.57, -352.97 198.79" stroke="#d97706" stroke-width="2.5" fill="none"></path></g></g><g transform="translate(1245.9763754045023 426.2664154375414) rotate(0 79.41595458984375 11.25)"><text x="79.41595458984375" y="NaN" font-family="Virgil, Segoe UI Emoji" font-size="18px" fill="#cdd6f4" text-anchor="middle" style="white-space: pre;" direction="ltr">PaymentCompleted</text></g><g stroke-linecap="round"><g transform="translate(1109 362.45539077408097) rotate(0 155.50198295103814 -62.59841796582815)"><path d="M0.32 0.26 C26.28 -18.52, 103.64 -90.96, 155.39 -111.73 C207.13 -132.51, 284.93 -122.34, 310.77 -124.39" stroke="#d97706" stroke-width="2.5" fill="none" stroke-dasharray="8 10"></path></g><g transform="translate(1109 362.45539077408097) rotate(0 155.50198295103814 -62.59841796582815)"><path d="M282.94 -112.95 C288.15 -117.52, 298.98 -120.78, 312.66 -123.68" stroke="#d97706" stroke-width="2.5" fill="none"></path></g><g transform="translate(1109 362.45539077408097) rotate(0 155.50198295103814 -62.59841796582815)"><path d="M283.1 -133.47 C288.43 -132.52, 299.21 -130.26, 312.66 -123.68" stroke="#d97706" stroke-width="2.5" fill="none"></path></g></g><g transform="translate(1180.1811852993012 97.23081324911328) rotate(0 79.41595458984375 11.25)"><text x="79.41595458984375" y="NaN" font-family="Virgil, Segoe UI Emoji" font-size="18px" fill="#cdd6f4" text-anchor="middle" style="white-space: pre;" direction="ltr">PaymentCompleted</text></g><g stroke-linecap="round"><g transform="translate(1419.8740028941384 260.24339511820347) rotate(0 -155.43700144706918 61.42249114024781)"><path d="M1.07 0.48 C-20.77 13.9, -79.98 60.52, -131.78 80.87 C-183.58 101.23, -279.79 115.76, -309.74 122.62" stroke="#d97706" stroke-width="2.5" fill="none" stroke-dasharray="8 10"></path></g><g transform="translate(1419.8740028941384 260.24339511820347) rotate(0 -155.43700144706918 61.42249114024781)"><path d="M-283.25 107 C-288.88 112.98, -296.76 113.82, -311.09 124.27" stroke="#d97706" stroke-width="2.5" fill="none"></path></g><g transform="translate(1419.8740028941384 260.24339511820347) rotate(0 -155.43700144706918 61.42249114024781)"><path d="M-279.3 127.14 C-285.94 128.3, -294.78 124.29, -311.09 124.27" stroke="#d97706" stroke-width="2.5" fill="none"></path></g></g><g transform="translate(1239.9780431154113 170.03555866133354) rotate(0 80.55892944335938 11.25)"><text x="80.55892944335938" y="NaN" font-family="Virgil, Segoe UI Emoji" font-size="18px" fill="#cdd6f4" text-anchor="middle" style="white-space: pre;" direction="ltr">InventoryReserved</text></g><g stroke-linecap="round"><g transform="translate(1109 379.5475252917163) rotate(0 152.3520791341516 20.078969497203595)"><path d="M0.71 0.21 C27.25 5.2, 109.35 23.12, 159.97 29.87 C210.59 36.62, 280.22 39.03, 304.43 40.73" stroke="#d97706" stroke-width="2.5" fill="none" stroke-dasharray="8 10"></path></g><g transform="translate(1109 379.5475252917163) rotate(0 152.3520791341516 20.078969497203595)"><path d="M276.06 49.74 C286.15 45.6, 297.63 43.77, 304.31 40.63" stroke="#d97706" stroke-width="2.5" fill="none"></path></g><g transform="translate(1109 379.5475252917163) rotate(0 152.3520791341516 20.078969497203595)"><path d="M277.21 29.25 C286.88 32.59, 297.93 38.24, 304.31 40.63" stroke="#d97706" stroke-width="2.5" fill="none"></path></g></g><g transform="translate(1193.37538438387 487.8553301247673) rotate(0 80.55892944335938 11.25)"><text x="80.55892944335938" y="NaN" font-family="Virgil, Segoe UI Emoji" font-size="18px" fill="#cdd6f4" text-anchor="middle" style="white-space: pre;" direction="ltr">InventoryReserved</text></g><g stroke-linecap="round"><g transform="translate(1413.7041582683034 429.53778890281546) rotate(0 -157.37093251534475 25.040082333453284)"><path d="M0.92 1.03 C-21.51 12.78, -82.01 73.43, -134.51 70.14 C-187.01 66.84, -284 -3.8, -314.09 -18.74" stroke="#d97706" stroke-width="2.5" fill="none" stroke-dasharray="8 10"></path></g><g transform="translate(1413.7041582683034 429.53778890281546) rotate(0 -157.37093251534475 25.040082333453284)"><path d="M-282.91 -14.36 C-292.53 -13.49, -301.22 -16.84, -314.1 -17.82" stroke="#d97706" stroke-width="2.5" fill="none"></path></g><g transform="translate(1413.7041582683034 429.53778890281546) rotate(0 -157.37093251534475 25.040082333453284)"><path d="M-293.44 3.26 C-299.81 -1.28, -305.33 -9.96, -314.1 -17.82" stroke="#d97706" stroke-width="2.5" fill="none"></path></g></g><g transform="translate(1110.8720750416755 538.7577968310227) rotate(0 55.12495422363281 11.25)"><text x="55.12495422363281" y="NaN" font-family="Virgil, Segoe UI Emoji" font-size="18px" fill="#cdd6f4" text-anchor="middle" style="white-space: pre;" direction="ltr">OrderShipped</text></g><g stroke-linecap="round"><g transform="translate(1109 382.88845273642244) rotate(0 144.25260852202985 114.87801942105673)"><path d="M-0.92 -0.04 C17.69 36.56, 62.68 181.76, 110.86 219.98 C159.04 258.19, 258.75 227.72, 288.17 229.27" stroke="#f08c00" stroke-width="2.5" fill="none" stroke-dasharray="8 10"></path></g><g transform="translate(1109 382.88845273642244) rotate(0 144.25260852202985 114.87801942105673)"><path d="M261.17 242.05 C267.32 239.07, 272.84 234.66, 287.31 231.05" stroke="#f08c00" stroke-width="2.5" fill="none"></path></g><g transform="translate(1109 382.88845273642244) rotate(0 144.25260852202985 114.87801942105673)"><path d="M258.98 221.64 C265.7 223.4, 271.73 223.72, 287.31 231.05" stroke="#f08c00" stroke-width="2.5" fill="none"></path></g></g><g transform="translate(1253.916091317209 270.9377156874397) rotate(0 55.12495422363281 11.25)"><text x="55.12495422363281" y="NaN" font-family="Virgil, Segoe UI Emoji" font-size="18px" fill="#cdd6f4" text-anchor="middle" style="white-space: pre;" direction="ltr">OrderShipped</text></g></svg>