<svg version="1.1" xmlns="http://www.w3.org/2000/svg" viewBox="0 0 1340 1190" width="1340" height="1190">
  <!-- svg-source:excalidraw -->
  
  <defs>
    <style>
      @font-face {
        font-family: "Virgil";
        src: url("https://excalidraw.com/Virgil.woff2");
      }
      @font-face {
        font-family: "Cascadia";
        src: url("https://excalidraw.com/Cascadia.woff2");
      }
    </style>
  </defs>
  <rect x="0" y="0" width="1340" height="1190" fill="#1e1e2e"></rect><g stroke-linecap="round" transform="translate(10 10) rotate(0 100 25)"><path d="M1.22 -1.73 L199 1.94 L198.56 51.65 L1.34 48.04" stroke="none" stroke-width="0" fill="#5b21b6"></path><path d="M-1.7 0.09 C39.06 1.37, 79.9 -0.44, 201.32 1.52 M0.25 -0.5 C67.42 -1.18, 135.1 -2.22, 199.78 0.17 M201.99 -1.64 C198.34 17.59, 200.85 36.18, 201.61 50.43 M200.06 0.82 C200.47 16.5, 200.12 31.26, 199.43 49.75 M199.25 48.37 C135.41 49.44, 69.27 50.8, 1.08 51.5 M200.87 49.47 C159.49 48.59, 117.01 48.1, 0.01 49.15 M1.77 48.45 C1.35 35.87, -0.11 17.74, 1.72 -1.31 M0.85 49.02 C0.42 36.83, -0.97 24.19, -0.27 0.4" stroke="#7c3aed" stroke-width="2" fill="none"></path></g><g transform="translate(82.95002746582031 22.5) rotate(0 27.049972534179688 12.5)"><text x="27.049972534179688" y="NaN" font-family="Virgil, Segoe UI Emoji" font-size="20px" fill="#ffffff" text-anchor="middle" style="white-space: pre;" direction="ltr">Client</text></g><g stroke-linecap="round"><g transform="translate(110 60) rotate(0 0 530)"><path d="M-0.63 -0.37 C-0.33 176.04, 0.89 882.98, 0.93 1059.61" stroke="#585b70" stroke-width="1.5" fill="none" stroke-dasharray="8 9"></path></g></g><g stroke-linecap="round" transform="translate(10 1120) rotate(0 100 25)"><path d="M1.91 0.75 L200.23 0.63 L200.95 50.8 L-1.81 50.92" stroke="none" stroke-width="0" fill="#5b21b6"></path><path d="M1.39 -0.61 C81.11 0.89, 159 0.73, 198.7 0.2 M-0.48 0.64 C48.08 -0.16, 93.63 0.18, 199.89 -0.54 M200.52 1.63 C198.54 17.54, 200.6 36.09, 198.92 49.71 M200.18 -0.23 C200.57 13.3, 199.65 26.87, 199.56 49.68 M199.04 49.65 C147.34 51.36, 92.41 49.5, 0.75 50.95 M200.85 49.21 C124.88 50.68, 48.6 51.5, 0.82 49.65 M-0.01 49.42 C2.13 30.21, 1.94 9.99, 1.92 0.22 M-0.71 50.4 C0.03 34.48, 0.61 19.29, -0.76 0.2" stroke="#7c3aed" stroke-width="2" fill="none"></path></g><g transform="translate(82.95002746582031 1132.5) rotate(0 27.049972534179688 12.5)"><text x="27.049972534179688" y="NaN" font-family="Virgil, Segoe UI Emoji" font-size="20px" fill="#ffffff" text-anchor="middle" style="white-space: pre;" direction="ltr">Client</text></g><g stroke-linecap="round" transform="translate(290 10) rotate(0 100 30)"><path d="M1.21 -1.38 L199.26 1.34 L199.83 61.58 L-1.86 61.46" stroke="none" stroke-width="0" fill="#5b21b6"></path><path d="M0.28 0.48 C67.1 1.43, 131.71 -0.07, 200.82 0.14 M0.71 0.03 C57.1 -1.28, 113.54 -1.35, 199.63 0.31 M201.46 0.51 C199.05 18.69, 201.62 37.34, 199.61 60.85 M199.14 -0.65 C199.81 15.97, 199.43 34.16, 200.62 59.47 M201.59 58.83 C137.92 61.75, 75.5 59.44, -0.41 60.34 M200.78 59.43 C133.94 60.94, 67.04 61.15, 0.38 59.46 M0.41 59.67 C0.78 36.17, -0.09 14.2, 0.14 1.45 M0.83 60.12 C-0.68 38.39, 0.83 14.07, -0.61 -0.29" stroke="#7c3aed" stroke-width="2" fill="none"></path></g><g transform="translate(325.4700622558594 15) rotate(0 64.52993774414062 25)"><text x="64.52993774414062" y="NaN" font-family="Virgil, Segoe UI Emoji" font-size="20px" fill="#ffffff" text-anchor="middle" style="white-space: pre;" direction="ltr">Order</text><text x="64.52993774414062" y="NaN" font-family="Virgil, Segoe UI Emoji" font-size="20px" fill="#ffffff" text-anchor="middle" style="white-space: pre;" direction="ltr">Orchestrator</text></g><g stroke-linecap="round"><g transform="translate(390 60) rotate(0 0 530)"><path d="M-0.56 -0.78 C-0.57 175.9, 0.57 883.8, 0.64 1060.42" stroke="#585b70" stroke-width="1.5" fill="none" stroke-dasharray="8 9"></path></g></g><g stroke-linecap="round" transform="translate(290 1120) rotate(0 100 30)"><path d="M-1.28 1.28 L200.9 1.56 L199.88 58.79 L-1.06 58.03" stroke="none" stroke-width="0" fill="#5b21b6"></path><path d="M0.28 -0.98 C56.38 -1.5, 108.67 -0.97, 198.49 -0.76 M0.59 0.21 C44.7 -1.6, 90.2 -0.6, 200.37 -0.51 M201.88 -1.39 C199.59 18.69, 199.56 40.3, 198.19 58.65 M200.75 0.34 C201.42 15.25, 201.3 30.8, 199.73 60.14 M198.51 58.45 C132.4 61.57, 69.54 62.47, -0.45 60.33 M200.71 59.66 C127.73 59.07, 54.54 58.87, 0.19 59.23 M-0.03 58.37 C1.81 41.56, 0.59 24.89, 1.78 -1.66 M-0.05 59.19 C0.06 48.18, 0.81 34.77, 0.8 0.61" stroke="#7c3aed" stroke-width="2" fill="none"></path></g><g transform="translate(325.4700622558594 1125) rotate(0 64.52993774414062 25)"><text x="64.52993774414062" y="NaN" font-family="Virgil, Segoe UI Emoji" font-size="20px" fill="#ffffff" text-anchor="middle" style="white-space: pre;" direction="ltr">Order</text><text x="64.52993774414062" y="NaN" font-family="Virgil, Segoe UI Emoji" font-size="20px" fill="#ffffff" text-anchor="middle" style="white-space: pre;" direction="ltr">Orchestrator</text></g><g stroke-linecap="round" transform="translate(570 10) rotate(0 100 25)"><path d="M0.69 1.13 L199.67 -0.08 L200.02 50.25 L0.68 49.6" stroke="none" stroke-width="0" fill="#5b21b6"></path><path d="M-0.29 1.19 C55.3 -0.34, 112.85 0.23, 200.3 -0.05 M0.89 0 C72.78 -1.87, 147.41 -1.76, 199.15 -0.58 M201.57 -1.92 C201.73 18.62, 198.74 37.41, 198.72 48.53 M199.92 -0.53 C200.73 20.11, 200.76 38.9, 199.02 50.19 M200.11 50.48 C149.82 49.83, 98.8 48.51, 1.22 51.26 M199.32 50.63 C153.76 48.49, 108.56 48.63, 0.53 50.17 M0.27 52 C1.39 31.61, -1.97 8.74, 1.13 -1.38 M0.56 50.52 C0.06 31.11, 0.99 14.71, 0.65 -0.96" stroke="#7c3aed" stroke-width="2" fill="none"></path></g><g transform="translate(604.2200622558594 22.5) rotate(0 65.77993774414062 12.5)"><text x="65.77993774414062" y="NaN" font-family="Virgil, Segoe UI Emoji" font-size="20px" fill="#ffffff" text-anchor="middle" style="white-space: pre;" direction="ltr">Order Service</text></g><g stroke-linecap="round"><g transform="translate(670 60) rotate(0 0 530)"><path d="M-0.26 -0.34 C-0.1 176.3, 0.78 883.41, 0.73 1060.28" stroke="#585b70" stroke-width="1.5" fill="none" stroke-dasharray="8 9"></path></g></g><g stroke-linecap="round" transform="translate(570 1120) rotate(0 100 25)"><path d="M-0.66 1.66 L199.2 1.82 L198.14 51.52 L1.49 49.46" stroke="none" stroke-width="0" fill="#5b21b6"></path><path d="M1.55 0.95 C68.81 2.05, 140.9 1.97, 201.44 -0.17 M0 -0.46 C73.95 -0.39, 149.95 -0.02, 200.63 -0.34 M198.66 -1.63 C197.65 15.26, 198.36 28.71, 201.31 51.65 M200.65 0.99 C200.37 12.76, 199.31 25.17, 200.7 49.8 M200.38 49.28 C156.74 50.17, 115.53 46.92, -0.68 51.31 M200.67 49.45 C139.41 49.53, 80.51 49.46, -0.75 50.86 M-1.03 51.16 C-0.75 30.08, -0.78 10.24, 0.54 -0.75 M-0.66 50.3 C0.72 32.41, -0.44 16.6, -0.9 -0.77" stroke="#7c3aed" stroke-width="2" fill="none"></path></g><g transform="translate(604.2200622558594 1132.5) rotate(0 65.77993774414062 12.5)"><text x="65.77993774414062" y="NaN" font-family="Virgil, Segoe UI Emoji" font-size="20px" fill="#ffffff" text-anchor="middle" style="white-space: pre;" direction="ltr">Order Service</text></g><g stroke-linecap="round" transform="translate(850 10) rotate(0 100 25)"><path d="M-0.17 1.85 L200.64 -0.7 L200.42 50.52 L-0.92 50.91" stroke="none" stroke-width="0" fill="#5b21b6"></path><path d="M-0.33 -0.88 C48.97 -2.19, 99.86 -0.99, 199.68 -1.15 M0.15 0.42 C55.03 1.8, 110.47 0.52, 199.28 -0.76 M201.9 0.5 C199.56 10.28, 200.64 21.13, 198.8 51.79 M199.56 -0.68 C199.18 15.97, 198.98 30.1, 200.35 50.99 M199.47 50.65 C136.45 49.86, 75 47.01, 0.34 48.4 M200.1 50 C134.62 48.59, 67.77 48.36, 0.24 49.71 M0.65 50.28 C2.36 35.22, -0.98 21.24, -1.26 -0.41 M-0.94 49.01 C-0.32 33.77, -0.66 18.6, -0.92 -0.61" stroke="#7c3aed" stroke-width="2" fill="none"></path></g><g transform="translate(871.1500701904297 22.5) rotate(0 78.84992980957031 12.5)"><text x="78.84992980957031" y="NaN" font-family="Virgil, Segoe UI Emoji" font-size="20px" fill="#ffffff" text-anchor="middle" style="white-space: pre;" direction="ltr">Payment Service</text></g><g stroke-linecap="round"><g transform="translate(950 60) rotate(0 0 530)"><path d="M0.41 0.78 C0.52 177.6, -0.18 884.09, -0.3 1060.46" stroke="#585b70" stroke-width="1.5" fill="none" stroke-dasharray="8 9"></path></g></g><g stroke-linecap="round" transform="translate(850 1120) rotate(0 100 25)"><path d="M1.24 1.27 L200.56 0.17 L199.39 49.48 L1.48 51.78" stroke="none" stroke-width="0" fill="#5b21b6"></path><path d="M1.49 0.08 C57.13 0.1, 115.45 -1.75, 200.2 1.73 M0.56 -0.68 C44.8 1.56, 89.4 0.66, 199.97 -0.47 M198.83 1.2 C199.99 10.94, 200.94 22.3, 200.24 51.74 M200.53 0.35 C200.76 11.99, 199.51 23.56, 199.75 50.66 M199.86 50.79 C146.74 51.25, 95.18 51.29, -1.31 51.11 M199.48 50.56 C122.36 51.61, 45.44 50.45, -0.54 49.88 M-1.51 48.39 C1.61 37.9, 0.52 26.15, 1.54 1.06 M0.74 49.6 C0.11 33.02, -0.16 13.63, -0.96 0.92" stroke="#7c3aed" stroke-width="2" fill="none"></path></g><g transform="translate(871.1500701904297 1132.5) rotate(0 78.84992980957031 12.5)"><text x="78.84992980957031" y="NaN" font-family="Virgil, Segoe UI Emoji" font-size="20px" fill="#ffffff" text-anchor="middle" style="white-space: pre;" direction="ltr">Payment Service</text></g><g stroke-linecap="round" transform="translate(1130 10) rotate(0 100 25)"><path d="M-1.85 -0.43 L201.99 -1.94 L200.63 50.29 L-1.75 50.51" stroke="none" stroke-width="0" fill="#5b21b6"></path><path d="M-1.01 1.75 C42.24 -1.98, 86.54 -2.65, 200.19 -1.43 M-0.6 -0.77 C45.56 -0.56, 92 -1.59, 200.41 -0.03 M199.1 0.25 C200.18 12.36, 200.4 25.58, 201.16 48.27 M200.4 -0.75 C198.81 11.33, 200.28 24.76, 200.71 50.95 M199.67 50.84 C150.94 51, 99.27 49.27, -1.31 51.79 M200.37 49.91 C131.36 49.2, 62.04 48.2, -0.62 49.43 M0.68 48.8 C-1.09 37.88, 0.09 25.92, 1.32 -0.54 M-0.39 49.01 C-0.71 32.48, 0.71 16.21, 0.84 0.58" stroke="#7c3aed" stroke-width="2" fill="none"></path></g><g transform="translate(1145.5700759887695 22.5) rotate(0 84.42992401123047 12.5)"><text x="84.42992401123047" y="NaN" font-family="Virgil, Segoe UI Emoji" font-size="20px" fill="#ffffff" text-anchor="middle" style="white-space: pre;" direction="ltr">Inventory Service</text></g><g stroke-linecap="round"><g transform="translate(1230 60) rotate(0 0 530)"><path d="M-0.06 -0.15 C0.03 176.61, 0.6 883.66, 0.56 1060.17" stroke="#585b70" stroke-width="1.5" fill="none" stroke-dasharray="8 9"></path></g></g><g stroke-linecap="round" transform="translate(1130 1120) rotate(0 100 25)"><path d="M0.16 -1.61 L199.61 0.08 L199.09 48.43 L1.97 49.35" stroke="none" stroke-width="0" fill="#5b21b6"></path><path d="M1.61 0.69 C69.28 1.98, 136.37 1.51, 198.44 -1.51 M-0.42 0.61 C53.43 -0.11, 107.56 1.23, 199.6 0.02 M198.65 0.02 C202.4 15.28, 200.58 28.52, 201.57 48.84 M199.68 0.23 C199.43 17.9, 201.25 35.34, 199.33 50.05 M198.77 49.94 C151.5 49.74, 105.01 50.03, 0.17 48.84 M200.43 49.54 C149.08 51.12, 98.04 51.5, 0.33 49.59 M0.47 49.95 C-1.56 32.12, 1.19 13.66, -0.11 1.06 M0 50.62 C0.05 35.46, -1.01 21.96, 0.34 -0.3" stroke="#7c3aed" stroke-width="2" fill="none"></path></g><g transform="translate(1145.5700759887695 1132.5) rotate(0 84.42992401123047 12.5)"><text x="84.42992401123047" y="NaN" font-family="Virgil, Segoe UI Emoji" font-size="20px" fill="#ffffff" text-anchor="middle" style="white-space: pre;" direction="ltr">Inventory Service</text></g><g stroke-linecap="round"><g transform="translate(110 140) rotate(0 140 0)"><path d="M-0.59 0.45 C46.39 0.36, 233.96 0.49, 280.89 0.37 M1.29 -0.37 C48.28 -0.9, 233.84 -1.77, 280.41 -1.55" stroke="#cdd6f4" stroke-width="2" fill="none"></path></g><g transform="translate(110 140) rotate(0 140 0)"><path d="M252.97 10.22 C258.88 8.26, 263.94 4.17, 278.86 -0.96 M251.99 9.14 C262.41 5.8, 274.19 1.82, 280.22 -2.51" stroke="#cdd6f4" stroke-width="2" fill="none"></path></g><g transform="translate(110 140) rotate(0 140 0)"><path d="M252.95 -10.31 C259.01 -7.82, 264.08 -7.46, 278.86 -0.96 M251.98 -11.38 C262.29 -6.95, 274.07 -3.15, 280.22 -2.51" stroke="#cdd6f4" stroke-width="2" fill="none"></path></g></g><g transform="translate(190.5820388793945 128.75) rotate(0 59.41796112060548 11.25)"><text x="59.41796112060547" y="NaN" font-family="Virgil, Segoe UI Emoji" font-size="18px" fill="#cdd6f4" text-anchor="middle" style="white-space: pre;" direction="ltr">Create Order</text></g><g stroke-linecap="round"><g transform="translate(390 220) rotate(0 140 0)"><path d="M0.68 -0.2 C47.07 -0.31, 232.8 -0.54, 279.38 -0.59 M-0.42 -1.34 C46.27 -1.32, 235.11 0.32, 281.76 0.64" stroke="#cdd6f4" stroke-width="2" fill="none"></path></g><g transform="translate(390 220) rotate(0 140 0)"><path d="M253.16 9.64 C263.5 6.86, 274.66 1.18, 281.87 0.79 M252.8 10.12 C263 6.8, 273.81 2.72, 282.22 1.14" stroke="#cdd6f4" stroke-width="2" fill="none"></path></g><g transform="translate(390 220) rotate(0 140 0)"><path d="M253.32 -10.88 C263.62 -5.68, 274.72 -3.38, 281.87 0.79 M252.96 -10.4 C263.05 -6.37, 273.8 -3.1, 282.22 1.14" stroke="#cdd6f4" stroke-width="2" fill="none"></path></g></g><g transform="translate(470.5820388793946 208.75) rotate(0 59.41796112060544 11.25)"><text x="59.41796112060547" y="NaN" font-family="Virgil, Segoe UI Emoji" font-size="18px" fill="#cdd6f4" text-anchor="middle" style="white-space: pre;" direction="ltr">Create Order</text></g><g stroke-linecap="round"><g transform="translate(670 300) rotate(0 -140 0)"><path d="M0.72 1.11 C-45.93 1.07, -232.86 0.67, -279.7 0.68" stroke="#cdd6f4" stroke-width="2.5" fill="none" stroke-dasharray="8 10"></path></g><g transform="translate(670 300) rotate(0 -140 0)"><path d="M-249.65 -9.06 C-259.15 -6.73, -267.17 -1.84, -281.57 0.7" stroke="#cdd6f4" stroke-width="2.5" fill="none"></path></g><g transform="translate(670 300) rotate(0 -140 0)"><path d="M-249.68 11.46 C-259.32 7.34, -267.33 5.8, -281.57 0.7" stroke="#cdd6f4" stroke-width="2.5" fill="none"></path></g></g><g transform="translate(447.95606994628906 288.75) rotate(0 82.04393005371094 22.5)"><text x="82.04393005371094" y="NaN" font-family="Virgil, Segoe UI Emoji" font-size="18px" fill="#cdd6f4" text-anchor="middle" style="white-space: pre;" direction="ltr">Order Created (id:</text><text x="82.04393005371094" y="NaN" font-family="Virgil, Segoe UI Emoji" font-size="18px" fill="#cdd6f4" text-anchor="middle" style="white-space: pre;" direction="ltr">123)</text></g><g stroke-linecap="round"><g transform="translate(390 380) rotate(0 280 0)"><path d="M-0.88 -0.58 C92.6 -0.59, 466.48 0.91, 559.96 0.96 M0.86 1.74 C94.26 1.93, 465.93 -0.52, 558.99 -0.67" stroke="#cdd6f4" stroke-width="2" fill="none"></path></g><g transform="translate(390 380) rotate(0 280 0)"><path d="M529.88 9.65 C538.67 7.58, 542.9 3.82, 558.19 0.3 M531.6 9.73 C538.52 6.78, 545.67 4.85, 559.84 -0.45" stroke="#cdd6f4" stroke-width="2" fill="none"></path></g><g transform="translate(390 380) rotate(0 280 0)"><path d="M529.79 -10.87 C538.77 -8.33, 543.03 -7.48, 558.19 0.3 M531.51 -10.79 C538.35 -8.22, 545.51 -4.63, 559.84 -0.45" stroke="#cdd6f4" stroke-width="2" fill="none"></path></g></g><g transform="translate(546.3490753173828 368.75) rotate(0 123.65092468261719 11.25)"><text x="123.65092468261719" y="NaN" font-family="Virgil, Segoe UI Emoji" font-size="18px" fill="#cdd6f4" text-anchor="middle" style="white-space: pre;" direction="ltr">Charge Payment (order 123)</text></g><g stroke-linecap="round"><g transform="translate(950 460) rotate(0 -280 0)"><path d="M0.2 0.06 C-93.1 -0.06, -465.59 0.6, -559.14 0.45" stroke="#cdd6f4" stroke-width="2.5" fill="none" stroke-dasharray="8 10"></path></g><g transform="translate(950 460) rotate(0 -280 0)"><path d="M-530.84 -8.38 C-540.15 -7.95, -552.31 -2.84, -559.39 -0.98" stroke="#cdd6f4" stroke-width="2.5" fill="none"></path></g><g transform="translate(950 460) rotate(0 -280 0)"><path d="M-530.84 12.14 C-540.35 5.26, -552.51 3.06, -559.39 -0.98" stroke="#cdd6f4" stroke-width="2.5" fill="none"></path></g></g><g transform="translate(595.1020431518555 448.75) rotate(0 74.89795684814453 11.25)"><text x="74.89795684814453" y="NaN" font-family="Virgil, Segoe UI Emoji" font-size="18px" fill="#cdd6f4" text-anchor="middle" style="white-space: pre;" direction="ltr">Payment Success</text></g><g stroke-linecap="round"><g transform="translate(390 540) rotate(0 420 0)"><path d="M0.92 0.99 C140.95 0.93, 701.27 0.71, 841.19 0.35 M-0.05 0.46 C139.83 -0.04, 700.87 -1.44, 840.86 -1.59" stroke="#cdd6f4" stroke-width="2" fill="none"></path></g><g transform="translate(390 540) rotate(0 420 0)"><path d="M814.34 10.7 C824.11 5.23, 832.47 -1.37, 839.76 -2.93 M811.99 9.65 C819.32 5.32, 825.25 3.68, 841.6 -2.41" stroke="#cdd6f4" stroke-width="2" fill="none"></path></g><g transform="translate(390 540) rotate(0 420 0)"><path d="M814.3 -9.82 C824.21 -7.35, 832.59 -6, 839.76 -2.93 M811.95 -10.87 C819.13 -10.65, 825.07 -7.74, 841.6 -2.41" stroke="#cdd6f4" stroke-width="2" fill="none"></path></g></g><g transform="translate(676.5390930175781 528.75) rotate(0 133.46090698242188 11.25)"><text x="133.46090698242188" y="NaN" font-family="Virgil, Segoe UI Emoji" font-size="18px" fill="#cdd6f4" text-anchor="middle" style="white-space: pre;" direction="ltr">Reserve Inventory (order 123)</text></g><g stroke-linecap="round"><g transform="translate(1230 620) rotate(0 -420 0)"><path d="M-1.04 -1.11 C-140.89 -1.19, -699.19 0.14, -838.91 0.33" stroke="#cdd6f4" stroke-width="2.5" fill="none" stroke-dasharray="8 10"></path></g><g transform="translate(1230 620) rotate(0 -420 0)"><path d="M-812.59 -8.18 C-819.08 -5.88, -828.54 -2.25, -838.56 -0.09" stroke="#cdd6f4" stroke-width="2.5" fill="none"></path></g><g transform="translate(1230 620) rotate(0 -420 0)"><path d="M-812.55 12.34 C-819.19 8.12, -828.67 5.22, -838.56 -0.09" stroke="#cdd6f4" stroke-width="2.5" fill="none"></path></g></g><g transform="translate(747.801025390625 608.75) rotate(0 62.198974609375 11.25)"><text x="62.198974609375" y="NaN" font-family="Virgil, Segoe UI Emoji" font-size="18px" fill="#cdd6f4" text-anchor="middle" style="white-space: pre;" direction="ltr">Out of Stock!</text></g><g stroke-opacity="0.85" fill-opacity="0.85" stroke-linecap="round" transform="translate(237.6 638) rotate(0 152.39999999999998 22)"><path d="M0.58 1.8 L305.79 0.22 L305.62 45.53 L-1.52 42.49" stroke="none" stroke-width="0" fill="#2d6a4f"></path><path d="M-1.2 -1.01 C71.78 -1.54, 144.98 -2, 305.26 -1.15 M-0.04 0.28 C115.9 1.18, 231.49 1.2, 305.34 0.27 M305.63 0.73 C304.27 9.43, 304.03 23.5, 303.99 43.23 M303.83 0.96 C304.46 14.49, 305.19 29.21, 305.7 44.5 M305.82 43.24 C224.6 41.11, 147.3 41.74, 0.01 45.39 M304.79 44.28 C184.69 41.74, 65.43 42.63, 0.53 44.59 M1.19 42.39 C-1.44 27.1, 0.5 13.06, -1.87 -0.99 M0.05 44.36 C0.76 31.13, -0.37 16.62, 0.65 -0.61" stroke="#40916c" stroke-width="2" fill="none"></path></g><g transform="translate(270.04808044433594 650) rotate(0 119.95191955566406 10)"><text x="119.95191955566406" y="NaN" font-family="Virgil, Segoe UI Emoji" font-size="16px" fill="#ffffff" text-anchor="middle" style="white-space: pre;" direction="ltr">Failure -- trigger compensation</text></g><g stroke-linecap="round"><g transform="translate(390 700) rotate(0 280 0)"><path d="M-1.2 0.96 C92.16 0.86, 467.52 0.39, 561.04 0.32 M0.38 0.42 C93.58 -0.14, 467.52 -1.32, 560.63 -1.63" stroke="#cdd6f4" stroke-width="2" fill="none"></path></g><g transform="translate(390 700) rotate(0 280 0)"><path d="M534.07 10.45 C543.51 4.91, 554.53 0.74, 559.83 -3.42 M532.81 9.32 C542.14 5.52, 550.7 2.44, 560.12 -0.87" stroke="#cdd6f4" stroke-width="2" fill="none"></path></g><g transform="translate(390 700) rotate(0 280 0)"><path d="M534.01 -10.07 C543.63 -7.9, 554.67 -4.36, 559.83 -3.42 M532.74 -11.2 C542 -8.5, 550.57 -5.07, 560.12 -0.87" stroke="#cdd6f4" stroke-width="2" fill="none"></path></g></g><g transform="translate(546.0610809326172 688.75) rotate(0 123.93891906738281 11.25)"><text x="123.93891906738281" y="NaN" font-family="Virgil, Segoe UI Emoji" font-size="18px" fill="#cdd6f4" text-anchor="middle" style="white-space: pre;" direction="ltr">Refund Payment (order 123)</text></g><g stroke-linecap="round"><g transform="translate(950 780) rotate(0 -280 0)"><path d="M1.08 -0.72 C-92.34 -0.72, -467 0.13, -560.52 0.07" stroke="#cdd6f4" stroke-width="2.5" fill="none" stroke-dasharray="8 10"></path></g><g transform="translate(950 780) rotate(0 -280 0)"><path d="M-533.54 -11.08 C-540.58 -6.96, -550.87 -5.35, -559.75 1.71" stroke="#cdd6f4" stroke-width="2.5" fill="none"></path></g><g transform="translate(950 780) rotate(0 -280 0)"><path d="M-533.52 9.44 C-540.58 7.46, -550.87 2.98, -559.75 1.71" stroke="#cdd6f4" stroke-width="2.5" fill="none"></path></g></g><g transform="translate(597.451042175293 768.75) rotate(0 72.54895782470703 11.25)"><text x="72.54895782470703" y="NaN" font-family="Virgil, Segoe UI Emoji" font-size="18px" fill="#cdd6f4" text-anchor="middle" style="white-space: pre;" direction="ltr">Refund Complete</text></g><g stroke-linecap="round"><g transform="translate(390 860) rotate(0 140 0)"><path d="M0.48 1.16 C46.91 0.93, 232.48 -0.27, 278.91 -0.49 M-0.73 0.72 C46.02 0.58, 234.02 0.74, 281.05 0.79" stroke="#cdd6f4" stroke-width="2" fill="none"></path></g><g transform="translate(390 860) rotate(0 140 0)"><path d="M254.77 9.21 C261.25 5.96, 271.07 4.96, 280.15 0.55 M252.4 10.45 C258.66 9.13, 266.33 7.21, 280.33 0.3" stroke="#cdd6f4" stroke-width="2" fill="none"></path></g><g transform="translate(390 860) rotate(0 140 0)"><path d="M254.79 -11.31 C261.41 -7.8, 271.23 -2.03, 280.15 0.55 M252.42 -10.08 C258.53 -6.85, 266.2 -4.24, 280.33 0.3" stroke="#cdd6f4" stroke-width="2" fill="none"></path></g></g><g transform="translate(442.36706542968744 848.75) rotate(0 87.63293457031253 22.5)"><text x="87.6329345703125" y="NaN" font-family="Virgil, Segoe UI Emoji" font-size="18px" fill="#cdd6f4" text-anchor="middle" style="white-space: pre;" direction="ltr">Cancel Order (order</text><text x="87.6329345703125" y="NaN" font-family="Virgil, Segoe UI Emoji" font-size="18px" fill="#cdd6f4" text-anchor="middle" style="white-space: pre;" direction="ltr">123)</text></g><g stroke-linecap="round"><g transform="translate(670 940) rotate(0 -140 0)"><path d="M0.53 -0.71 C-46.26 -0.61, -233.24 0.56, -280 0.83" stroke="#cdd6f4" stroke-width="2.5" fill="none" stroke-dasharray="8 10"></path></g><g transform="translate(670 940) rotate(0 -140 0)"><path d="M-253.05 -9.59 C-260.74 -5.61, -270.87 -0.54, -279.65 -0.75" stroke="#cdd6f4" stroke-width="2.5" fill="none"></path></g><g transform="translate(670 940) rotate(0 -140 0)"><path d="M-252.92 10.93 C-260.7 7.41, -270.88 4.99, -279.65 -0.75" stroke="#cdd6f4" stroke-width="2.5" fill="none"></path></g></g><g transform="translate(460.96105194091797 928.75) rotate(0 69.03894805908203 11.25)"><text x="69.03894805908203" y="NaN" font-family="Virgil, Segoe UI Emoji" font-size="18px" fill="#cdd6f4" text-anchor="middle" style="white-space: pre;" direction="ltr">Order Cancelled</text></g><g stroke-linecap="round"><g transform="translate(390 1020) rotate(0 -140 0)"><path d="M-0.97 0.03 C-47.53 0.07, -233.45 -0.5, -279.93 -0.48" stroke="#cdd6f4" stroke-width="2.5" fill="none" stroke-dasharray="8 10"></path></g><g transform="translate(390 1020) rotate(0 -140 0)"><path d="M-251.68 -10.58 C-259.76 -8.13, -265.91 -6.17, -278.87 0.3" stroke="#cdd6f4" stroke-width="2.5" fill="none"></path></g><g transform="translate(390 1020) rotate(0 -140 0)"><path d="M-251.72 9.94 C-259.65 7.17, -265.79 3.92, -278.87 0.3" stroke="#cdd6f4" stroke-width="2.5" fill="none"></path></g></g><g transform="translate(158.36206817626956 1008.75) rotate(0 91.63793182373045 22.5)"><text x="91.63793182373047" y="NaN" font-family="Virgil, Segoe UI Emoji" font-size="18px" fill="#cdd6f4" text-anchor="middle" style="white-space: pre;" direction="ltr">Order Failed: Out of</text><text x="91.63793182373047" y="NaN" font-family="Virgil, Segoe UI Emoji" font-size="18px" fill="#cdd6f4" text-anchor="middle" style="white-space: pre;" direction="ltr">Stock</text></g></svg>