<svg version="1.1" xmlns="http://www.w3.org/2000/svg" viewBox="0 0 1364 837" width="1364" height="837">
  <!-- svg-source:excalidraw -->
  
  <defs>
    <style>
      @font-face {
        font-family: "Virgil";
        src: url("https://excalidraw.com/Virgil.woff2");
      }
      @font-face {
        font-family: "Cascadia";
        src: url("https://excalidraw.com/Cascadia.woff2");
      }
    </style>
  </defs>
  <rect x="0" y="0" width="1364" height="837" fill="#0d1117"></rect><g stroke-opacity="0.6" fill-opacity="0.6" stroke-linecap="round" transform="translate(10 298) rotate(0 399.5 264.5)"><path d="M-0.95 -0.99 L797.21 -1.33 L798.8 528.62 L-1.31 530.64" stroke="none" stroke-width="0" fill="#161b22"></path><path d="M0.7 0.15 C167 1.1, 334.49 1.61, 798.78 0.18 M799.03 -0.6 C798.53 162.96, 798.26 325.99, 798.37 528.55 M799.73 528.2 C530.02 530.23, 261.74 531.41, -0.43 528.33 M0.58 529.24 C0.21 423.18, -0.38 316.78, 0.53 -0.27" stroke="#30363d" stroke-width="2.5" fill="none" stroke-dasharray="8 10"></path></g><g transform="translate(26 308) rotate(0 121.32892608642578 11.25)"><text x="0" y="NaN" font-family="Virgil, Segoe UI Emoji" font-size="18px" fill="#8b949e" text-anchor="start" style="white-space: pre;" direction="ltr">Orchestrated Critical Path</text></g><g stroke-opacity="0.6" fill-opacity="0.6" stroke-linecap="round" transform="translate(920 105) rotate(0 217 336)"><path d="M0.59 1.87 L433.6 -1.9 L433.79 671.38 L-1.75 670.17" stroke="none" stroke-width="0" fill="#161b22"></path><path d="M0.35 0.29 C105.33 0.81, 210.34 0.14, 434.72 -0.59 M434.8 0.14 C432.35 196.26, 433.08 393.53, 434.01 671.67 M433.37 672.15 C325.62 670.56, 214.7 670.97, 0.92 672.44 M0.75 671.89 C-2.25 426.61, -2.57 180.88, 0.79 -0.43" stroke="#30363d" stroke-width="2.5" fill="none" stroke-dasharray="8 10"></path></g><g transform="translate(936 115) rotate(0 123.02991485595703 11.25)"><text x="0" y="NaN" font-family="Virgil, Segoe UI Emoji" font-size="18px" fill="#8b949e" text-anchor="start" style="white-space: pre;" direction="ltr">Choreographed Side Effects</text></g><g stroke-opacity="0.6" fill-opacity="0.6" stroke-linecap="round" transform="translate(500 10) rotate(0 150 121.5)"><path d="M0.97 -0.78 L299.56 1.17 L301.45 243.83 L-0.64 241.7" stroke="none" stroke-width="0" fill="#161b22"></path><path d="M0.84 0.58 C102.23 1.88, 203.57 1.67, 300.39 0.38 M300.76 -0.96 C299.75 50.05, 301.45 97.6, 299.39 244.45 M300.25 242.69 C226.56 244.81, 157.3 243.48, 0.2 243.44 M0.18 243.64 C1.47 180.65, 1.39 116.11, -1.11 -0.72" stroke="#30363d" stroke-width="2.5" fill="none" stroke-dasharray="8 10"></path></g><g transform="translate(516 20) rotate(0 46.025970458984375 11.25)"><text x="0" y="NaN" font-family="Virgil, Segoe UI Emoji" font-size="18px" fill="#8b949e" text-anchor="start" style="white-space: pre;" direction="ltr">Event Bus</text></g><g stroke-linecap="round" transform="translate(70 429.5) rotate(0 135 36.5)"><path d="M-1.09 1.51 L270.87 1.82 L268.94 72.05 L1.52 74.32" stroke="none" stroke-width="0" fill="#3a1d6e"></path><path d="M-0.56 1.33 C102.23 0.05, 207.69 -0.6, 268.89 -0.27 M0.56 -0.31 C86.62 0.4, 172.83 -0.08, 270.34 -0.57 M268.46 -1.14 C269.65 20.06, 270.9 39.48, 268.17 72.97 M269.31 -0.27 C269.78 16.73, 268.9 34.33, 269.09 72.57 M269.65 73.98 C192.34 72.16, 111.3 71.46, 1.51 72.58 M270.48 73.28 C179.54 71.27, 88.64 71.73, -0.23 73.26 M-1.1 73.72 C-2.68 54.02, 0.89 34.51, -1.68 0.44 M0.52 72.26 C-0.88 49.91, 0.77 27.67, -0.88 -0.71" stroke="#a371f7" stroke-width="2" fill="none"></path></g><g transform="translate(108.45008850097656 453.5) rotate(0 96.54991149902344 12.5)"><text x="96.54991149902344" y="NaN" font-family="Virgil, Segoe UI Emoji" font-size="20px" fill="#fff" text-anchor="middle" style="white-space: pre;" direction="ltr">Order Orchestrator</text></g><g stroke-linecap="round" transform="translate(490 551) rotate(0 107.5 36.5)"><path d="M-1.89 1.35 L216.8 -0.47 L214.66 74.53 L-0.87 73.5" stroke="none" stroke-width="0" fill="#0d2c5a"></path><path d="M1.72 -1.6 C61.16 -1.61, 121.82 -3.09, 213.25 1.73 M-0.17 0.85 C46.71 -0.39, 94.53 -0.11, 215.63 -0.27 M213.23 -0.05 C213.63 25.82, 213.76 47.35, 215.69 72.1 M214.15 -0.63 C215.82 15.76, 214.65 32.88, 215.04 73.52 M215.57 72.74 C169.71 74.84, 123.26 74.61, -0.62 72.47 M214.31 73.7 C150.18 74.76, 84.69 74.27, 0.42 73.49 M-1.48 74.71 C0.92 48.81, -1.13 24.67, 0.93 -1.64 M-0.06 73.38 C-0.94 49.38, 0.35 26.22, -0.99 0.12" stroke="#58a6ff" stroke-width="2" fill="none"></path></g><g transform="translate(531.7200622558594 575) rotate(0 65.77993774414062 12.5)"><text x="65.77993774414062" y="NaN" font-family="Virgil, Segoe UI Emoji" font-size="20px" fill="#fff" text-anchor="middle" style="white-space: pre;" direction="ltr">Order Service</text></g><g stroke-linecap="round" transform="translate(490 694) rotate(0 118.5 36.5)"><path d="M1.09 0.85 L236.33 0.98 L237.14 74.16 L1.3 73.33" stroke="none" stroke-width="0" fill="#0d2c5a"></path><path d="M-1 1.33 C83.81 0.1, 165.48 -2.87, 237.44 -0.3 M0.13 0.49 C65.59 -1.36, 131.65 -1.21, 237.7 -0.36 M236.75 0.02 C236.93 19.52, 237.27 38.26, 236.96 73.29 M236.35 0.82 C238.45 26.63, 238.25 55.64, 237.15 72.36 M236.96 73.02 C148.58 73.11, 62.93 71.07, 0.11 72.87 M236.31 72.87 C146.58 73.18, 54.67 73.53, 0.41 73.37 M-1.25 72.09 C-1.97 48.68, 0.63 20.92, -0.93 -1 M0.53 72.39 C0.22 45.35, -0.6 18.05, 0.71 0.61" stroke="#58a6ff" stroke-width="2" fill="none"></path></g><g transform="translate(529.6500701904297 718) rotate(0 78.84992980957031 12.5)"><text x="78.84992980957031" y="NaN" font-family="Virgil, Segoe UI Emoji" font-size="20px" fill="#fff" text-anchor="middle" style="white-space: pre;" direction="ltr">Payment Service</text></g><g stroke-linecap="round" transform="translate(490 408) rotate(0 129.5 36.5)"><path d="M0.52 0.52 L259.26 -1.94 L259.54 73.2 L1.31 73.43" stroke="none" stroke-width="0" fill="#0d2c5a"></path><path d="M-1.29 -0.59 C60.72 3.13, 123.44 2.59, 257.52 -1.59 M0.13 0.31 C102.6 0.63, 204.6 1.99, 258.87 -0.41 M257.01 -0.01 C256.64 28.37, 259.34 54.1, 258.43 74.98 M259.89 -0.58 C259.99 21.14, 258.9 39.35, 258.2 73.17 M258.05 72.26 C184.15 72.59, 110.85 71.71, 1.06 74.4 M258.54 73.18 C181.46 71.62, 105.04 72.55, 0.25 73.03 M1.36 74.34 C-1.87 50.56, -1.96 29.69, -1.6 0.71 M-0.39 73.55 C0.99 51.31, 0.06 30.71, 0.01 -0.22" stroke="#58a6ff" stroke-width="2" fill="none"></path></g><g transform="translate(535.0700759887695 432) rotate(0 84.42992401123047 12.5)"><text x="84.42992401123047" y="NaN" font-family="Virgil, Segoe UI Emoji" font-size="20px" fill="#fff" text-anchor="middle" style="white-space: pre;" direction="ltr">Inventory Service</text></g><g stroke-linecap="round" transform="translate(980 501) rotate(0 146 36.5)"><path d="M1.84 0.21 L293.44 1.06 L290.78 72.76 L-1.03 74.85" stroke="none" stroke-width="0" fill="#1f4d2b"></path><path d="M0.52 -1.19 C74.4 -1.72, 149.49 -1.53, 292.13 0.12 M0.11 -0.15 C89.28 0.88, 180.33 1.26, 291.85 0.31 M292.6 0.45 C292.87 17.58, 291.21 33.73, 290.36 74.51 M291.02 -0.27 C291.98 15.74, 291.47 31.1, 291.01 72.58 M290.93 72.47 C185.74 72.08, 79.66 70.91, 1.37 73.79 M291.54 73.13 C194.18 73.89, 95.39 73.03, -0.5 73.49 M1.53 71.26 C-0.42 45.2, -0.35 20.7, 0.78 1.84 M-0.75 72.88 C-0.11 57.96, 1.16 43.41, 0.36 -0.92" stroke="#3fb950" stroke-width="2" fill="none"></path></g><g transform="translate(1030.6300964355469 525) rotate(0 95.36990356445312 12.5)"><text x="95.36990356445312" y="NaN" font-family="Virgil, Segoe UI Emoji" font-size="20px" fill="#fff" text-anchor="middle" style="white-space: pre;" direction="ltr">Notification Service</text></g><g stroke-linecap="round" transform="translate(980 215) rotate(0 129.5 36.5)"><path d="M0.77 0.86 L258.83 -1.82 L260.63 72.17 L0.31 72.61" stroke="none" stroke-width="0" fill="#1f4d2b"></path><path d="M-1.4 1.05 C83.35 0.07, 165.93 2.24, 259.45 0.97 M-0.52 0.41 C98.08 1.34, 195.25 1.75, 259.53 -0.38 M260.05 -0.07 C260.3 23.64, 258.23 47.9, 257.24 72.05 M259.15 0.16 C259.08 23.97, 260.13 46.42, 258.58 72.71 M258.44 73.6 C201.25 72.04, 144.8 72.88, 0.98 71.41 M258.24 72.89 C192.49 72.55, 126.83 73.16, -0.41 73.19 M-0.42 71.95 C0.68 52.09, -0.97 34.05, -1.95 0.51 M-0.54 72.81 C0.12 49.15, 0.09 24.37, 0.83 0.19" stroke="#3fb950" stroke-width="2" fill="none"></path></g><g transform="translate(1027.2300720214844 239) rotate(0 82.26992797851562 12.5)"><text x="82.26992797851562" y="NaN" font-family="Virgil, Segoe UI Emoji" font-size="20px" fill="#fff" text-anchor="middle" style="white-space: pre;" direction="ltr">Analytics Service</text></g><g stroke-linecap="round" transform="translate(980 644) rotate(0 157 36.5)"><path d="M0.73 0.76 L315.09 -1.64 L313.25 74.94 L-1.35 71.81" stroke="none" stroke-width="0" fill="#1f4d2b"></path><path d="M-0.05 -0.6 C77.66 -2.62, 155.46 -2.47, 313.29 -0.29 M-0.15 0.48 C77.84 -1.42, 155.55 -2.52, 314.62 0.26 M312.68 -1.34 C313.71 17.95, 312.93 33.71, 315 74.54 M313.52 -0.64 C312.9 22.59, 314.57 42.78, 313.22 73.38 M315.34 74.29 C248.35 72.5, 183.85 71.9, 1.13 73.43 M314.44 73.7 C228.22 74.57, 141.06 73.94, 0.65 73.43 M-1.99 73.41 C0.85 49.49, 2.13 24.34, 1.6 0.52 M0.97 73.69 C0.13 55.03, -0.73 37.61, -0.11 -0.5" stroke="#3fb950" stroke-width="2" fill="none"></path></g><g transform="translate(1022.220100402832 668) rotate(0 114.77989959716797 12.5)"><text x="114.77989959716797" y="NaN" font-family="Virgil, Segoe UI Emoji" font-size="20px" fill="#fff" text-anchor="middle" style="white-space: pre;" direction="ltr">Recommendation Service</text></g><g stroke-linecap="round" transform="translate(980 358) rotate(0 113 36.5)"><path d="M1.06 0.48 L224.26 -1.7 L226.05 74.91 L-0.86 73.62" stroke="none" stroke-width="0" fill="#1f4d2b"></path><path d="M0.3 0.51 C85.31 -0.06, 173.72 1.55, 226.49 1.09 M0.33 0.11 C50.2 -0.22, 101.95 -0.06, 225.37 0.43 M227.98 -1.58 C224.32 22.06, 223.57 47.71, 227.67 73.95 M225.65 0.82 C225.52 17.43, 227.38 35.83, 225.41 73.43 M226.09 71.78 C145.56 73.6, 64.73 72.04, -0.6 74.04 M226.48 73.22 C178.88 73.89, 132.64 73.35, -0.11 72.98 M0.28 73.85 C-2.05 56.05, -2.16 38.63, -1.79 -0.63 M0.58 73.84 C0.59 57.29, 1.44 42.45, -0.19 0.02" stroke="#3fb950" stroke-width="2" fill="none"></path></g><g transform="translate(1022.0500640869141 382) rotate(0 70.94993591308594 12.5)"><text x="70.94993591308594" y="NaN" font-family="Virgil, Segoe UI Emoji" font-size="20px" fill="#fff" text-anchor="middle" style="white-space: pre;" direction="ltr">Loyalty Points</text></g><g stroke-linecap="round" transform="translate(560 120) rotate(0 90 36.5)"><path d="M0.85 0.06 L178.69 -1.45 L180.03 71.98 L0.29 74.03" stroke="none" stroke-width="0" fill="#5c3a10"></path><path d="M-0.68 -0.39 C45.75 -0.23, 92.1 1.02, 180.62 1.4 M-0.97 -0.09 C45.17 -0.56, 90.94 -0.81, 179.17 -0.39 M179.35 -1.67 C182.15 25.8, 181.03 52.51, 180.87 73.27 M180.97 -0.03 C179.04 20.52, 178.93 40.84, 179.71 72.58 M180.13 74.63 C142.56 73.24, 106.3 72.78, 1.9 71.53 M180.28 73.64 C134.14 73.91, 87.16 73.67, 0.36 72.83 M0.69 72.48 C-0.87 54.43, 0.38 38.56, -1.13 -1.05 M-0.79 72.56 C-1.09 53.98, -1.04 34.93, -0.46 -0.89" stroke="#f0883e" stroke-width="2" fill="none"></path></g><g transform="translate(620.8000183105469 144) rotate(0 29.199981689453125 12.5)"><text x="29.199981689453125" y="NaN" font-family="Virgil, Segoe UI Emoji" font-size="20px" fill="#fff" text-anchor="middle" style="white-space: pre;" direction="ltr">Kafka</text></g><g stroke-linecap="round"><g transform="translate(346 479.6852993156801) rotate(0 69.00000000000003 46.12983668199151)"><path d="M-0.26 1.16 C22.93 16.42, 115.87 76.6, 138.9 91.77 M1.81 0.73 C24.94 16.12, 115.87 77.59, 138.43 93.05" stroke="#3fb950" stroke-width="2" fill="none"></path></g><g transform="translate(346 479.6852993156801) rotate(0 69.00000000000003 46.12983668199151)"><path d="M111.28 87.19 C116.66 87.71, 125.49 90.65, 138.71 94.72 M108.85 86.43 C119.66 88.87, 129.01 91.43, 138.5 93.25" stroke="#3fb950" stroke-width="2" fill="none"></path></g><g transform="translate(346 479.6852993156801) rotate(0 69.00000000000003 46.12983668199151)"><path d="M122.82 70.22 C125.01 75.45, 130.62 83.14, 138.71 94.72 M120.38 69.46 C127.06 77.91, 132.31 86.5, 138.5 93.25" stroke="#3fb950" stroke-width="2" fill="none"></path></g></g><g transform="translate(384.40001678466797 514.5651359976716) rotate(0 30.59998321533203 11.25)"><text x="30.59998321533203" y="NaN" font-family="Virgil, Segoe UI Emoji" font-size="18px" fill="#c9d1d9" text-anchor="middle" style="white-space: pre;" direction="ltr">Create</text></g><g stroke-linecap="round"><g transform="translate(345.48006609155414 490.4581460713707) rotate(0 69.67166321510064 107.0599338190494)"><path d="M1.18 -0.4 C24.1 35.34, 115.43 178.17, 138.29 214.12 M0.35 -1.66 C23.56 34.32, 117.06 179.79, 140.45 215.65" stroke="#3fb950" stroke-width="2" fill="none"></path></g><g transform="translate(345.48006609155414 490.4581460713707) rotate(0 69.67166321510064 107.0599338190494)"><path d="M115.86 195.8 C125.21 202.27, 135.85 210.6, 142.33 214.51 M117.35 197.89 C125.45 204.48, 133.12 211.26, 140.26 216.34" stroke="#3fb950" stroke-width="2" fill="none"></path></g><g transform="translate(345.48006609155414 490.4581460713707) rotate(0 69.67166321510064 107.0599338190494)"><path d="M133.09 184.66 C136.11 195.36, 140.45 207.77, 142.33 214.51 M134.58 186.74 C136.46 197.47, 137.94 208.27, 140.26 216.34" stroke="#3fb950" stroke-width="2" fill="none"></path></g></g><g transform="translate(385.60474749513133 586.2680798904202) rotate(0 29.546981811523438 11.25)"><text x="29.546981811523438" y="NaN" font-family="Virgil, Segoe UI Emoji" font-size="18px" fill="#c9d1d9" text-anchor="middle" style="white-space: pre;" direction="ltr">Charge</text></g><g stroke-linecap="round"><g transform="translate(346 462.4840863434573) rotate(0 69 -7.202333930917802)"><path d="M0.46 0.33 C23.58 -2.08, 115.35 -12.5, 138.38 -14.99 M-0.76 -0.55 C22.27 -2.75, 114.47 -11.62, 137.64 -13.75" stroke="#3fb950" stroke-width="2" fill="none"></path></g><g transform="translate(346 462.4840863434573) rotate(0 69 -7.202333930917802)"><path d="M111.08 -0.25 C116.93 -3.37, 124.88 -9.65, 139.51 -14.89 M110.37 -1.63 C120.23 -4.69, 129.36 -9.47, 137.57 -14.37" stroke="#3fb950" stroke-width="2" fill="none"></path></g><g transform="translate(346 462.4840863434573) rotate(0 69 -7.202333930917802)"><path d="M109.15 -20.68 C115.42 -18.31, 123.89 -19.09, 139.51 -14.89 M108.44 -22.06 C119 -18.19, 128.78 -16.02, 137.57 -14.37" stroke="#3fb950" stroke-width="2" fill="none"></path></g></g><g transform="translate(380.66503143310547 444.0317524125395) rotate(0 34.33496856689453 11.25)"><text x="34.33496856689453" y="NaN" font-family="Virgil, Segoe UI Emoji" font-size="18px" fill="#c9d1d9" text-anchor="middle" style="white-space: pre;" direction="ltr">Reserve</text></g><g stroke-linecap="round"><g transform="translate(331.8166935595434 425.01100434288605) rotate(0 111.0916532202283 -132.87524735342856)"><path d="M0.14 -0.41 C8.12 -31.49, 11.73 -141.48, 48.54 -185.71 C85.36 -229.95, 192.02 -252.39, 221.03 -265.82" stroke="#f0883e" stroke-width="2.5" fill="none" stroke-dasharray="8 10"></path></g><g transform="translate(331.8166935595434 425.01100434288605) rotate(0 111.0916532202283 -132.87524735342856)"><path d="M197.05 -247.29 C206.7 -255.62, 214.16 -259.73, 220.16 -266.44" stroke="#f0883e" stroke-width="2.5" fill="none"></path></g><g transform="translate(331.8166935595434 425.01100434288605) rotate(0 111.0916532202283 -132.87524735342856)"><path d="M190.36 -266.69 C202.53 -268.1, 212.38 -265.27, 220.16 -266.44" stroke="#f0883e" stroke-width="2.5" fill="none"></path></g></g><g transform="translate(347.65920554460996 324.5675271257435) rotate(0 67.6529541015625 11.25)"><text x="67.6529541015625" y="NaN" font-family="Virgil, Segoe UI Emoji" font-size="18px" fill="#c9d1d9" text-anchor="middle" style="white-space: pre;" direction="ltr">OrderCompleted</text></g><g stroke-linecap="round"><g transform="translate(745.4026389289901 181.37092564907795) rotate(0 114.36150414482489 167.35902647107744)"><path d="M0.49 1.01 C38.43 56.48, 190.41 278.3, 228.41 333.82" stroke="#f0883e" stroke-width="2.5" fill="none" stroke-dasharray="8 10"></path></g><g transform="translate(745.4026389289901 181.37092564907795) rotate(0 114.36150414482489 167.35902647107744)"><path d="M205.7 315.83 C211.55 322.23, 220.96 328.55, 227.83 332.5" stroke="#f0883e" stroke-width="2.5" fill="none"></path></g><g transform="translate(745.4026389289901 181.37092564907795) rotate(0 114.36150414482489 167.35902647107744)"><path d="M222.63 304.23 C222.41 314.93, 225.65 325.47, 227.83 332.5" stroke="#f0883e" stroke-width="2.5" fill="none"></path></g></g><g transform="translate(766.1297481355352 360.29980366367977) rotate(0 23.840980529785156 11.25)"><text x="23.840980529785156" y="NaN" font-family="Virgil, Segoe UI Emoji" font-size="18px" fill="#c9d1d9" text-anchor="middle" style="white-space: pre;" direction="ltr">event</text></g><g stroke-linecap="round"><g transform="translate(745.9999999999999 169.29610299324696) rotate(0 114.00000000000006 34.01957478300541)"><path d="M-1.15 -0.56 C36.83 10.49, 189.96 55.87, 227.96 67.21" stroke="#f0883e" stroke-width="2.5" fill="none" stroke-dasharray="8 10"></path></g><g transform="translate(745.9999999999999 169.29610299324696) rotate(0 114.00000000000006 34.01957478300541)"><path d="M197.09 68.96 C205.7 66.9, 215.27 70.12, 229.05 68.78" stroke="#f0883e" stroke-width="2.5" fill="none"></path></g><g transform="translate(745.9999999999999 169.29610299324696) rotate(0 114.00000000000006 34.01957478300541)"><path d="M202.94 49.29 C209.93 53.14, 217.73 62.31, 229.05 68.78" stroke="#f0883e" stroke-width="2.5" fill="none"></path></g></g><g transform="translate(766.1590194702148 215.52749222977474) rotate(0 23.840980529785156 11.25)"><text x="23.840980529785156" y="NaN" font-family="Virgil, Segoe UI Emoji" font-size="18px" fill="#c9d1d9" text-anchor="middle" style="white-space: pre;" direction="ltr">event</text></g><g stroke-linecap="round"><g transform="translate(744.4931182462215 184.80464293122054) rotate(0 114.99653621544871 235.71412951281403)"><path d="M-0.31 -0.36 C38 78.19, 191.42 391.86, 229.97 470.53" stroke="#f0883e" stroke-width="2.5" fill="none" stroke-dasharray="8 10"></path></g><g transform="translate(744.4931182462215 184.80464293122054) rotate(0 114.99653621544871 235.71412951281403)"><path d="M207.77 449.69 C213.33 457.81, 221.81 461.38, 231.62 472.31" stroke="#f0883e" stroke-width="2.5" fill="none"></path></g><g transform="translate(744.4931182462215 184.80464293122054) rotate(0 114.99653621544871 235.71412951281403)"><path d="M226.2 440.66 C226.07 451.49, 228.92 457.82, 231.62 472.31" stroke="#f0883e" stroke-width="2.5" fill="none"></path></g></g><g transform="translate(765.8347754772045 432.1247106245771) rotate(0 23.840980529785156 11.25)"><text x="23.840980529785156" y="NaN" font-family="Virgil, Segoe UI Emoji" font-size="18px" fill="#c9d1d9" text-anchor="middle" style="white-space: pre;" direction="ltr">event</text></g><g stroke-linecap="round"><g transform="translate(745.9991848460046 174.8545812682853) rotate(0 114.0004075769977 101.09308617705815)"><path d="M0.95 0.1 C39.07 33.88, 190.34 168.79, 228.1 202.61" stroke="#f0883e" stroke-width="2.5" fill="none" stroke-dasharray="8 10"></path></g><g transform="translate(745.9991848460046 174.8545812682853) rotate(0 114.0004075769977 101.09308617705815)"><path d="M200.41 191.64 C207.76 193.16, 215.28 197.9, 229.79 203.77" stroke="#f0883e" stroke-width="2.5" fill="none"></path></g><g transform="translate(745.9991848460046 174.8545812682853) rotate(0 114.0004075769977 101.09308617705815)"><path d="M214.08 176.34 C218.08 181.71, 222.26 190.19, 229.79 203.77" stroke="#f0883e" stroke-width="2.5" fill="none"></path></g></g><g transform="translate(766.1590194702148 287.33012241579445) rotate(0 23.840980529785156 11.25)"><text x="23.840980529785156" y="NaN" font-family="Virgil, Segoe UI Emoji" font-size="18px" fill="#c9d1d9" text-anchor="middle" style="white-space: pre;" direction="ltr">event</text></g></svg>