<svg version="1.1" xmlns="http://www.w3.org/2000/svg" viewBox="0 0 1582.8509818696364 572.5861673817435" width="1582.8509818696364" height="572.5861673817435">
  <!-- svg-source:excalidraw -->
  
  <defs>
    <style>
      @font-face {
        font-family: "Virgil";
        src: url("https://excalidraw.com/Virgil.woff2");
      }
      @font-face {
        font-family: "Cascadia";
        src: url("https://excalidraw.com/Cascadia.woff2");
      }
    </style>
  </defs>
  <rect x="0" y="0" width="1582.8509818696364" height="572.5861673817435" fill="#0d1117"></rect><g stroke-opacity="0.6" fill-opacity="0.6" stroke-linecap="round" transform="translate(12.850981869636371 10) rotate(0 780 121.5)"><path d="M0.78 -1.61 L1559.61 0.23 L1559.52 243.55 L-1.48 241.22" stroke="none" stroke-width="0" fill="#161b22"></path><path d="M-0.56 0.03 C318.65 -4.16, 638.54 -5.16, 1559.42 -0.04 M1560.59 -1.57 C1562.46 65.41, 1562.5 132.25, 1560.33 241.9 M1559.38 242.49 C954.37 238.69, 348.43 238.84, -0.31 242.42 M-0.48 243.89 C-2.55 189.03, -2.34 137.26, 0.05 1.36" stroke="#30363d" stroke-width="2.5" fill="none" stroke-dasharray="8 10"></path></g><g transform="translate(28.961427443913635 20) rotate(0 140.7779083251953 11.25)"><text x="0" y="NaN" font-family="Virgil, Segoe UI Emoji" font-size="18px" fill="#8b949e" text-anchor="start" style="white-space: pre;" direction="ltr">Incorrect: Same Physical Server</text></g><g stroke-opacity="0.6" fill-opacity="0.6" stroke-linecap="round" transform="translate(10 319.5861673817435) rotate(0 780 121.5)"><path d="M0.87 0.41 L1561.66 1.93 L1561.67 241.63 L-0.73 241.94" stroke="none" stroke-width="0" fill="#161b22"></path><path d="M0.1 -0.23 C570.73 4.58, 1140.93 4.65, 1559.32 -0.19 M1561.23 0.62 C1556.77 51.22, 1558.87 103.48, 1558.44 244.34 M1560.42 242.44 C1126.67 239.08, 693.8 239.99, 0.78 243.44 M-1.08 243.21 C-0.44 178.9, 0.96 112.49, 0.97 1.28" stroke="#30363d" stroke-width="2.5" fill="none" stroke-dasharray="8 10"></path></g><g transform="translate(26 329.5861673817435) rotate(0 150.47988891601562 11.25)"><text x="0" y="NaN" font-family="Virgil, Segoe UI Emoji" font-size="18px" fill="#8b949e" text-anchor="start" style="white-space: pre;" direction="ltr">Correct: Distinct Physical Servers</text></g><g stroke-linecap="round" transform="translate(72.96142744391364 120) rotate(0 90 36.5)"><path d="M0.87 0.6 L179.78 1.52 L179.52 71.56 L0.77 73" stroke="none" stroke-width="0" fill="#1f4d2b"></path><path d="M-0.54 -0.12 C46.45 0.53, 91.01 -0.09, 181.09 0.9 M0.09 0.8 C38.65 -1.22, 75.39 -0.34, 179.84 -0.22 M179.23 0.3 C180.21 22.98, 180.08 48.46, 180.14 74.59 M179.83 -0.99 C178.59 25.62, 178.95 52.67, 180.6 73.95 M180.35 71.25 C108.67 72.33, 38.04 71.37, -0.18 71.44 M179.53 72.03 C108.94 74.45, 36.42 74.12, -0.39 73.79 M1.49 73.1 C-1.57 47.46, -0.17 23.55, 1.77 -1.64 M-0.01 73.67 C-0.47 52.98, -0.58 31.35, -0.56 -0.39" stroke="#3fb950" stroke-width="2" fill="none"></path></g><g transform="translate(146.67144178717535 144) rotate(0 16.28998565673828 12.5)"><text x="16.28998565673828" y="NaN" font-family="Virgil, Segoe UI Emoji" font-size="20px" fill="#fff" text-anchor="middle" style="white-space: pre;" direction="ltr">Key</text></g><g stroke-linecap="round" transform="translate(492.8472513102769 120) rotate(0 90 36.5)"><path d="M-0.14 -0.09 L179.08 -0.19 L181.15 72.81 L1.66 73.61" stroke="none" stroke-width="0" fill="#3a1d6e"></path><path d="M-1.7 -1.47 C52.48 0.96, 101.11 0.01, 181.8 -1.25 M-0.99 -0.43 C58.01 -2.34, 115.63 -1.85, 179.91 -0.86 M181.13 1.19 C181.35 22.04, 180.03 43.91, 179.54 72.63 M179.85 0.73 C180.3 23.39, 178.52 46.67, 180.2 73.87 M178.23 72.24 C110.78 73.59, 39.76 74.16, -1.4 73.09 M180 72.39 C142.89 73.87, 106.26 73.53, 0.4 73.25 M1.51 73.21 C-0.18 52.83, 0.74 33.14, -0.15 -0.63 M0.5 72.23 C0.09 58.81, 0.99 42.66, -0.05 0.02" stroke="#a371f7" stroke-width="2" fill="none"></path></g><g transform="translate(517.3173059367417 131.5) rotate(0 65.52994537353516 25)"><text x="65.52994537353516" y="NaN" font-family="Virgil, Segoe UI Emoji" font-size="20px" fill="#fff" text-anchor="middle" style="white-space: pre;" direction="ltr">S1 (Server1)</text><text x="65.52994537353516" y="NaN" font-family="Virgil, Segoe UI Emoji" font-size="20px" fill="#fff" text-anchor="middle" style="white-space: pre;" direction="ltr">virtual node3</text></g><g stroke-linecap="round" transform="translate(912.9614274439136 120) rotate(0 90 36.5)"><path d="M0.22 0.59 L178.33 1.93 L178.1 74.22 L0.8 72.2" stroke="none" stroke-width="0" fill="#3a1d6e"></path><path d="M-1.36 0.96 C38.47 -0.42, 77.05 -2.8, 179.72 -0.22 M0.61 0.13 C61.05 0.86, 120.87 0.92, 180.03 -0.44 M179.42 -1.59 C182.1 21.75, 178.68 40.19, 180.49 74.22 M179.59 -0.25 C179.59 22.45, 180.53 44.2, 179.28 73.56 M181.62 71.82 C139.85 71.48, 99.36 71.52, -0.8 73.47 M180.23 72.04 C140.57 70.51, 98.3 71.82, 0.4 73.71 M0.49 72.63 C2.01 56.58, 2.43 38.21, -0.09 1.39 M-0.81 72.04 C-0.67 56.02, 0.07 39.11, -0.93 -0.33" stroke="#58a6ff" stroke-width="2" fill="none"></path></g><g transform="translate(938.8614823755543 131.5) rotate(0 64.09994506835938 25)"><text x="64.09994506835938" y="NaN" font-family="Virgil, Segoe UI Emoji" font-size="20px" fill="#fff" text-anchor="middle" style="white-space: pre;" direction="ltr">S1 (Server 1)</text><text x="64.09994506835938" y="NaN" font-family="Virgil, Segoe UI Emoji" font-size="20px" fill="#fff" text-anchor="middle" style="white-space: pre;" direction="ltr">virtual node7</text></g><g stroke-linecap="round" transform="translate(1332.8473038533664 119.88582386636324) rotate(0 90 36.5)"><path d="M1.45 0.75 L181.24 1.92 L181.4 73.71 L0.49 72.22" stroke="none" stroke-width="0" fill="#0d2c5a"></path><path d="M-0.96 -1.63 C51.57 -1.22, 104.31 -0.08, 180.65 -1.63 M0.8 -0.14 C62.55 -0.4, 124 -0.85, 179.96 0.38 M180.6 -0.17 C181.37 22.42, 181.63 41.59, 181.75 72.51 M179.57 -0.65 C180.79 17.08, 180.11 35.32, 179.65 72.43 M181.96 74.58 C125.99 70.63, 71.66 73.45, 0.69 73.03 M180.57 72.35 C130.74 73.9, 83.16 73.37, -0.52 72.11 M-1.11 74.79 C0 54.1, 1.81 40.15, -1.99 0.65 M-0.52 72.74 C-0.28 54.85, 0.58 37.8, -0.12 -0.85" stroke="#58a6ff" stroke-width="2" fill="none"></path></g><g transform="translate(1354.147360310886 131.38582386636324) rotate(0 68.69994354248047 25)"><text x="68.69994354248047" y="NaN" font-family="Virgil, Segoe UI Emoji" font-size="20px" fill="#fff" text-anchor="middle" style="white-space: pre;" direction="ltr">S2 (Server 2)</text><text x="68.69994354248047" y="NaN" font-family="Virgil, Segoe UI Emoji" font-size="20px" fill="#fff" text-anchor="middle" style="white-space: pre;" direction="ltr">virtual node2</text></g><g stroke-linecap="round" transform="translate(70 429.5861673817435) rotate(0 90 36.5)"><path d="M-0.64 0.93 L181.62 1.41 L179.49 71.22 L0.76 72.59" stroke="none" stroke-width="0" fill="#1f4d2b"></path><path d="M0.36 -0.23 C60.24 -0.69, 118.49 0.95, 179.83 0.16 M-0.26 -0.6 C43.2 0.25, 86 -0.88, 180.58 0.36 M180.16 -1.07 C182 29.39, 182.22 58.51, 178.92 71.05 M179.02 0.68 C180.28 22.24, 180.3 45.5, 179.8 73.47 M178.52 74.85 C133.81 72.55, 85.12 72.38, 0.18 73.71 M180.11 72.66 C111.5 71.32, 41.65 72.17, -0.12 72.53 M-1.83 73.17 C0.31 48.28, -1.24 24.12, -0.16 -1.65 M-0.07 73.51 C1.32 50.26, -0.26 27.45, -0.15 -0.92" stroke="#3fb950" stroke-width="2" fill="none"></path></g><g transform="translate(143.71001434326172 453.5861673817435) rotate(0 16.28998565673828 12.5)"><text x="16.28998565673828" y="NaN" font-family="Virgil, Segoe UI Emoji" font-size="20px" fill="#fff" text-anchor="middle" style="white-space: pre;" direction="ltr">Key</text></g><g stroke-linecap="round" transform="translate(489.6612021584494 429.5861673817435) rotate(0 90.00000000000003 36.5)"><path d="M0.52 1.81 L181.32 -1.56 L181.56 74.44 L0.02 71.17" stroke="none" stroke-width="0" fill="#3a1d6e"></path><path d="M-1.76 -1.74 C68.27 1.14, 136.05 3.4, 178.39 1.36 M0.66 0.23 C66.58 0.28, 132.6 -0.14, 180.64 -0.93 M179.05 0.11 C180.69 25.61, 179.56 51.96, 178.21 71.86 M180.51 0.38 C180.3 28.74, 179.06 57.18, 179.49 72.89 M181.26 71.95 C115.33 75.4, 53.3 73.1, 1.58 72.51 M180.43 72.4 C127.09 71.32, 72.16 70.82, -0.08 72.01 M1.22 71.14 C-0.14 52.28, 1.42 36.02, 1.15 -1.69 M0.71 73.79 C0.14 56.75, 0.42 40.49, 0.81 -0.88" stroke="#a371f7" stroke-width="2" fill="none"></path></g><g transform="translate(518.2312552590354 441.0861673817435) rotate(0 61.42994689941409 25)"><text x="61.42994689941406" y="NaN" font-family="Virgil, Segoe UI Emoji" font-size="20px" fill="#fff" text-anchor="middle" style="white-space: pre;" direction="ltr">S1 (Server1)</text><text x="61.42994689941406" y="NaN" font-family="Virgil, Segoe UI Emoji" font-size="20px" fill="#fff" text-anchor="middle" style="white-space: pre;" direction="ltr">virtual node1</text></g><g stroke-linecap="round" transform="translate(910.114123590547 429.5861673817435) rotate(0 90 36.5)"><path d="M-0.46 -0.94 L181.55 -0.69 L180.04 74.48 L-0.59 71.32" stroke="none" stroke-width="0" fill="#0d2c5a"></path><path d="M-1.35 -1.48 C56.82 -2, 112.02 -2.11, 178.37 -0.56 M0.78 0.06 C35.6 0.45, 73.35 -0.29, 180.05 -0.62 M178.38 1.77 C179.12 26.36, 181.26 50.09, 178.05 73.63 M179.43 0.5 C179.53 26.98, 178.83 55.43, 180.1 73.36 M180.58 72 C134.38 72.17, 92.31 72.11, 0.45 72.93 M179.24 72.56 C133.39 72.82, 87.54 72.7, 0.56 72.07 M1.36 73.55 C-0.56 52.04, 0.87 27.9, -1.43 -1.42 M-0.63 73.9 C0.09 44.44, 0.34 15.1, 0.79 -0.9" stroke="#58a6ff" stroke-width="2" fill="none"></path></g><g transform="translate(934.2741806584181 441.0861673817435) rotate(0 65.8399429321289 25)"><text x="65.8399429321289" y="NaN" font-family="Virgil, Segoe UI Emoji" font-size="20px" fill="#fff" text-anchor="middle" style="white-space: pre;" direction="ltr">S2 (Server2)</text><text x="65.8399429321289" y="NaN" font-family="Virgil, Segoe UI Emoji" font-size="20px" fill="#fff" text-anchor="middle" style="white-space: pre;" direction="ltr">virtual node2</text></g><g stroke-linecap="round" transform="translate(1330 429.5861673817435) rotate(0 90 36.5)"><path d="M-1.43 -0.11 L181.58 -1.93 L180.45 73.87 L-0.05 72.17" stroke="none" stroke-width="0" fill="#e8590c"></path><path d="M0.76 -0.62 C69.87 1.11, 141.96 -1.04, 178.07 1.98 M0.96 0.7 C46.36 -1.41, 93.29 -0.79, 179.98 0.34 M180.45 -1.64 C180.28 20.22, 178.41 37.26, 180.8 72.95 M179.93 0.45 C180.34 23.12, 179.48 47.35, 180.87 72 M179.94 72.22 C128.28 73.85, 72.96 70.53, 0.64 73.45 M179.05 73.92 C124.89 72.82, 69.56 72.48, 0.63 72.13 M0.41 71.63 C0.71 45.41, -0.88 20.07, 1.36 -1.45 M-0.48 73.62 C0.3 51.33, 0.66 29.26, 0.24 0.22" stroke="#58a6ff" stroke-width="2" fill="none"></path></g><g transform="translate(1354.4700546264648 441.0861673817435) rotate(0 65.52994537353516 25)"><text x="65.52994537353516" y="NaN" font-family="Virgil, Segoe UI Emoji" font-size="20px" fill="#fff" text-anchor="middle" style="white-space: pre;" direction="ltr">S3 (Server3)</text><text x="65.52994537353516" y="NaN" font-family="Virgil, Segoe UI Emoji" font-size="20px" fill="#fff" text-anchor="middle" style="white-space: pre;" direction="ltr">virtual node3</text></g><g stroke-linecap="round"><g transform="translate(258.96142744391364 156.50730000000004) rotate(0 113.94291193318162 0)"><path d="M0.56 0.94 C38.27 0.79, 189.56 -0.96, 227.4 -0.99 M-0.61 0.39 C36.8 0.36, 188.31 0.3, 226.19 0.03" stroke="#3fb950" stroke-width="2" fill="none"></path></g><g transform="translate(258.96142744391364 156.50730000000004) rotate(0 113.94291193318162 0)"><path d="M199.61 9.57 C207.46 5.67, 221.41 1.16, 225.91 1.72 M197.12 10.51 C208.3 7.2, 220.18 1.99, 225.25 -0.08" stroke="#3fb950" stroke-width="2" fill="none"></path></g><g transform="translate(258.96142744391364 156.50730000000004) rotate(0 113.94291193318162 0)"><path d="M199.54 -10.96 C207.41 -6.79, 221.38 -3.23, 225.91 1.72 M197.06 -10.01 C208.07 -5.55, 219.97 -2.99, 225.25 -0.08" stroke="#3fb950" stroke-width="2" fill="none"></path></g></g><g transform="translate(311.7014787134449 144.0073) rotate(0 61.25994873046875 12.5)"><text x="61.25994873046875" y="NaN" font-family="Segoe UI Emoji" font-size="20px" fill="#2f9e44" text-anchor="middle" style="white-space: pre;" direction="ltr">Primary copy</text></g><g stroke-linecap="round"><g transform="translate(678.8472513102769 156.5073) rotate(0 114.05708806681844 0)"><path d="M-1.12 -0.87 C36.87 -1.04, 188.73 -0.6, 227.06 -0.51 M0.5 1.29 C38.93 1.23, 191.22 0.84, 229.22 0.76" stroke="#f85149" stroke-width="2" fill="none"></path></g><g transform="translate(678.8472513102769 156.5073) rotate(0 114.05708806681844 0)"><path d="M199.61 9.33 C206.55 10.29, 213.18 5.65, 230.7 -0.39 M201.67 12.06 C207.63 8.13, 213.64 5.77, 228.7 0.89" stroke="#f85149" stroke-width="2" fill="none"></path></g><g transform="translate(678.8472513102769 156.5073) rotate(0 114.05708806681844 0)"><path d="M199.56 -11.19 C206.6 -5.57, 213.24 -5.57, 230.7 -0.39 M201.62 -8.46 C207.46 -7.73, 213.49 -5.43, 228.7 0.89" stroke="#f85149" stroke-width="2" fill="none"></path></g></g><g transform="translate(748.4714677271168 144.0073) rotate(0 44.489959716796875 12.5)"><text x="44.489959716796875" y="NaN" font-family="Segoe UI Emoji" font-size="20px" fill="#e03131" text-anchor="middle" style="white-space: pre;" direction="ltr">Replicate</text></g><g stroke-linecap="round"><g transform="translate(1098.9614274439134 156.48120039943126) rotate(0 113.94293820472649 -0.030983571656804543)"><path d="M0.34 -0.92 C38.12 -0.88, 189 0.75, 227.07 0.85 M-0.95 1.2 C37.18 0.88, 191.12 -0.73, 229.36 -0.8" stroke="#f0883e" stroke-width="2" fill="none"></path></g><g transform="translate(1098.9614274439134 156.48120039943126) rotate(0 113.94293820472649 -0.030983571656804543)"><path d="M199.7 8.29 C212.03 7.58, 219.34 2.33, 227.51 -2.67 M200.55 9.25 C209.12 7.33, 217.73 3.12, 228.89 -0.42" stroke="#f0883e" stroke-width="2" fill="none"></path></g><g transform="translate(1098.9614274439134 156.48120039943126) rotate(0 113.94293820472649 -0.030983571656804543)"><path d="M199.56 -12.23 C212.04 -6.13, 219.38 -4.57, 227.51 -2.67 M200.41 -11.27 C209.22 -7.5, 217.86 -6.02, 228.89 -0.42" stroke="#f0883e" stroke-width="2" fill="none"></path></g></g><g transform="translate(1168.4714677271168 144.0073) rotate(0 44.489959716796875 12.5)"><text x="44.489959716796875" y="NaN" font-family="Segoe UI Emoji" font-size="20px" fill="#f08c00" text-anchor="middle" style="white-space: pre;" direction="ltr">Replicate</text></g><g stroke-linecap="round"><g transform="translate(256 466.0934673817435) rotate(0 113.83060107922469 0)"><path d="M-0.35 0.12 C37.75 0.05, 189.92 -0.83, 228.04 -0.67 M1.66 -0.86 C39.69 -0.76, 189.57 0.49, 227.29 0.52" stroke="#3fb950" stroke-width="2" fill="none"></path></g><g transform="translate(256 466.0934673817435) rotate(0 113.83060107922469 0)"><path d="M199.25 11.27 C205.09 9.4, 215.17 4.05, 225.52 1.26 M199.9 10.1 C208.23 7.66, 215.24 4.86, 226.66 0.79" stroke="#3fb950" stroke-width="2" fill="none"></path></g><g transform="translate(256 466.0934673817435) rotate(0 113.83060107922469 0)"><path d="M199.35 -9.25 C205.13 -5.94, 215.17 -6.11, 225.52 1.26 M200.01 -10.42 C208.33 -6.9, 215.32 -3.75, 226.66 0.79" stroke="#3fb950" stroke-width="2" fill="none"></path></g></g><g transform="translate(308.62776668711905 453.5934673817435) rotate(0 61.25994873046875 12.5)"><text x="61.25994873046875" y="NaN" font-family="Segoe UI Emoji" font-size="20px" fill="#2f9e44" text-anchor="middle" style="white-space: pre;" direction="ltr">Primary copy</text></g><g stroke-linecap="round"><g transform="translate(675.6612021584493 466.0934673817435) rotate(0 114.22646071604885 0)"><path d="M-0.25 0.64 C38.08 0.99, 191.26 1.3, 229.26 1.13 M1.82 -0.06 C40.12 0.05, 190.67 -0.53, 228.73 -0.39" stroke="#58a6ff" stroke-width="2" fill="none"></path></g><g transform="translate(675.6612021584493 466.0934673817435) rotate(0 114.22646071604885 0)"><path d="M201.62 11.22 C209.34 6.23, 213.67 5.14, 228.1 -0.29 M200.24 9.96 C211.59 6.87, 220.56 3.5, 227.97 -1.22" stroke="#58a6ff" stroke-width="2" fill="none"></path></g><g transform="translate(675.6612021584493 466.0934673817435) rotate(0 114.22646071604885 0)"><path d="M201.61 -9.3 C209.18 -9.32, 213.51 -5.44, 228.1 -0.29 M200.23 -10.56 C211.38 -6.23, 220.37 -2.19, 227.97 -1.22" stroke="#58a6ff" stroke-width="2" fill="none"></path></g></g><g transform="translate(745.3977031577012 453.5934673817435) rotate(0 44.489959716796875 12.5)"><text x="44.489959716796875" y="NaN" font-family="Segoe UI Emoji" font-size="20px" fill="#58a6ff" text-anchor="middle" style="white-space: pre;" direction="ltr">Replicate</text></g><g stroke-linecap="round"><g transform="translate(1096.114123590547 466.0934673817435) rotate(0 113.94293820472649 0)"><path d="M0.6 -1.02 C38.69 -1.02, 191.04 -0.37, 229.03 -0.01 M-0.55 1.06 C37.44 1.27, 190.57 1.8, 228.69 1.53" stroke="#58a6ff" stroke-width="2" fill="none"></path></g><g transform="translate(1096.114123590547 466.0934673817435) rotate(0 113.94293820472649 0)"><path d="M198.81 13.73 C210.09 9.27, 221.66 3.62, 230.12 0.48 M201.33 10.99 C207.19 8.72, 213.3 6.33, 229.67 0.81" stroke="#58a6ff" stroke-width="2" fill="none"></path></g><g transform="translate(1096.114123590547 466.0934673817435) rotate(0 113.94293820472649 0)"><path d="M198.79 -6.8 C210.08 -4.27, 221.65 -2.92, 230.12 0.48 M201.31 -9.53 C207.36 -6.96, 213.48 -4.5, 229.67 0.81" stroke="#58a6ff" stroke-width="2" fill="none"></path></g></g><g transform="translate(1165.5671020784766 453.5934673817435) rotate(0 44.489959716796875 12.5)"><text x="44.489959716796875" y="NaN" font-family="Segoe UI Emoji" font-size="20px" fill="#58a6ff" text-anchor="middle" style="white-space: pre;" direction="ltr">Replicate</text></g></svg>