<svg version="1.1" xmlns="http://www.w3.org/2000/svg" viewBox="0 0 780 940" width="780" height="940">
  <!-- svg-source:excalidraw -->
  
  <defs>
    <style>
      @font-face {
        font-family: "Virgil";
        src: url("https://excalidraw.com/Virgil.woff2");
      }
      @font-face {
        font-family: "Cascadia";
        src: url("https://excalidraw.com/Cascadia.woff2");
      }
    </style>
  </defs>
  <rect x="0" y="0" width="780" height="940" fill="#0d1117"></rect><g stroke-linecap="round" transform="translate(10 10) rotate(0 100 25)"><path d="M-1.8 0.06 L199.81 0.43 L201.59 51.76 L-0.57 49.29" stroke="none" stroke-width="0" fill="#3a1d6e"></path><path d="M-1.74 -0.62 C65.61 -0.06, 131.75 -0.53, 200.94 -0.08 M-0.58 -0.33 C76.06 -0.44, 152.47 0.52, 199.41 0.56 M200.52 -1.59 C202.02 8.63, 198.27 20.66, 199.66 49.57 M199.43 0.95 C200.51 15.87, 200.22 29.73, 199.17 49.55 M198.8 49.4 C125.21 50.87, 47.87 50.23, 0.74 49.29 M200.28 49.49 C135.68 48.72, 71.16 48.84, 0.21 50.25 M0.6 48.9 C-0.09 37.38, -1.49 22.02, -1.23 -0.58 M0.43 50.31 C0.45 36.19, -0.34 20.83, -0.37 0.19" stroke="#a371f7" stroke-width="2" fill="none"></path></g><g transform="translate(84.1500244140625 22.5) rotate(0 25.8499755859375 12.5)"><text x="25.8499755859375" y="NaN" font-family="Virgil, Segoe UI Emoji" font-size="20px" fill="#ffffff" text-anchor="middle" style="white-space: pre;" direction="ltr">Node1</text></g><g stroke-linecap="round"><g transform="translate(110 60) rotate(0 0 410)"><path d="M-0.69 0.26 C-0.46 136.8, 0.45 683.05, 0.49 819.53" stroke="#30363d" stroke-width="1.5" fill="none" stroke-dasharray="8 9"></path></g></g><g stroke-linecap="round" transform="translate(10 880) rotate(0 100 25)"><path d="M-0.05 0.25 L199.78 -1.25 L199.51 50.46 L-1.1 50.91" stroke="none" stroke-width="0" fill="#3a1d6e"></path><path d="M1.25 1.63 C59.66 0.76, 119.48 -0.84, 198.54 -1.17 M0.26 0.22 C55.45 2.16, 112.56 1.01, 199.34 0.9 M201.87 1.92 C198.78 13.36, 199.91 25.94, 201.7 50.71 M200.15 0.02 C199.91 17.27, 198.96 34.12, 199.14 49.63 M201.36 50.24 C157.39 51.74, 111.3 50.29, -1.15 48.53 M199.25 49.22 C155.03 49.64, 109.42 48.99, 0.61 49.63 M-1.52 49.25 C1.38 37.1, -1.52 24.8, -1.39 -0.36 M0.26 49.46 C-0.72 38.91, 0.76 28.52, 0.91 -0.11" stroke="#a371f7" stroke-width="2" fill="none"></path></g><g transform="translate(84.1500244140625 892.5) rotate(0 25.8499755859375 12.5)"><text x="25.8499755859375" y="NaN" font-family="Virgil, Segoe UI Emoji" font-size="20px" fill="#ffffff" text-anchor="middle" style="white-space: pre;" direction="ltr">Node1</text></g><g stroke-linecap="round" transform="translate(290 10) rotate(0 100 25)"><path d="M0.53 0.6 L199.43 -0.12 L199.89 49.46 L0.49 51.9" stroke="none" stroke-width="0" fill="#3a1d6e"></path><path d="M1.76 1.27 C72.66 -0.25, 147.81 -0.68, 200.39 -1.31 M0.07 -0.69 C62.38 0.84, 124.87 1.37, 199.61 0.55 M199.07 0.54 C199.55 15.79, 199.56 31.84, 199.96 51.38 M200.24 0.57 C199.95 10.69, 199.58 22.06, 200.24 49.83 M198.82 50.47 C123.83 50.83, 46.55 50.23, -1.64 50.45 M199.42 50.38 C150.13 50.19, 97.79 50.57, 0.4 49.8 M0.48 48.12 C-1.44 36.58, -1.47 19.68, 0.52 -1.75 M0.93 49.61 C-0.17 29.83, -0.44 10.28, -0.06 -0.39" stroke="#a371f7" stroke-width="2" fill="none"></path></g><g transform="translate(359.74002838134766 22.5) rotate(0 30.259971618652344 12.5)"><text x="30.259971618652344" y="NaN" font-family="Virgil, Segoe UI Emoji" font-size="20px" fill="#ffffff" text-anchor="middle" style="white-space: pre;" direction="ltr">Node2</text></g><g stroke-linecap="round"><g transform="translate(390 60) rotate(0 0 410)"><path d="M-0.58 -0.27 C-0.59 136.5, 0.89 683.53, 0.88 820.36" stroke="#30363d" stroke-width="1.5" fill="none" stroke-dasharray="8 9"></path></g></g><g stroke-linecap="round" transform="translate(290 880) rotate(0 100 25)"><path d="M-0.35 0.28 L201.25 1.61 L198.4 49.76 L0.11 50" stroke="none" stroke-width="0" fill="#3a1d6e"></path><path d="M1.22 0.57 C48.49 0.56, 98.39 0.58, 200.5 -1.52 M-0.08 -0.58 C68.64 -1.26, 135.8 -1.83, 200.06 0.4 M201.47 -1.99 C198.03 18.04, 199.61 35.56, 201.49 51.91 M200.74 -0.81 C200.26 19.73, 199.9 39.51, 199.97 50.37 M201.09 50.74 C139.39 49.75, 77.14 51.23, -1.4 49.98 M200.51 49.78 C154.04 50.05, 108.03 50.61, -0.29 49.36 M0.07 48.76 C-0.43 33.65, -0.18 12.27, 1.47 0.62 M-0.74 50.36 C-0.77 36.02, -0.98 20.84, -0.73 -0.23" stroke="#a371f7" stroke-width="2" fill="none"></path></g><g transform="translate(359.74002838134766 892.5) rotate(0 30.259971618652344 12.5)"><text x="30.259971618652344" y="NaN" font-family="Virgil, Segoe UI Emoji" font-size="20px" fill="#ffffff" text-anchor="middle" style="white-space: pre;" direction="ltr">Node2</text></g><g stroke-linecap="round" transform="translate(570 10) rotate(0 100 25)"><path d="M-0.36 -0.92 L201.39 -1.21 L201.63 48.49 L-1.82 48.64" stroke="none" stroke-width="0" fill="#3a1d6e"></path><path d="M0.26 0.81 C56.02 2.1, 111.29 0.01, 200.39 -1.11 M0.53 -0.51 C72.6 -0.83, 146.27 -1.48, 199.27 -0.38 M198.24 0.57 C198.43 17.99, 198.97 36.11, 200.25 49.42 M199.19 -0.33 C200.54 18.48, 200.16 38.57, 199.2 49.55 M199.05 50.23 C124.27 50.26, 47.04 49.14, 0.82 50.41 M199.46 49.92 C146.15 49.7, 90.48 49.52, 0.46 49.12 M-1.18 50 C0.59 38.06, 1.91 28.77, -0.93 1.26 M0.65 49.73 C-0.81 38.06, 0.45 24.96, 0.14 0.97" stroke="#a371f7" stroke-width="2" fill="none"></path></g><g transform="translate(640.0500259399414 22.5) rotate(0 29.949974060058594 12.5)"><text x="29.949974060058594" y="NaN" font-family="Virgil, Segoe UI Emoji" font-size="20px" fill="#ffffff" text-anchor="middle" style="white-space: pre;" direction="ltr">Node3</text></g><g stroke-linecap="round"><g transform="translate(670 60) rotate(0 0 410)"><path d="M-0.12 0.53 C-0.29 137.25, -0.41 683.08, -0.5 819.49" stroke="#30363d" stroke-width="1.5" fill="none" stroke-dasharray="8 9"></path></g></g><g stroke-linecap="round" transform="translate(570 880) rotate(0 100 25)"><path d="M-0.43 -1.21 L198.54 0.36 L200.12 48.2 L0.66 48.22" stroke="none" stroke-width="0" fill="#3a1d6e"></path><path d="M-0.09 0.44 C75.69 1.13, 154.81 0.32, 199.95 -1.15 M0.17 -0.36 C75.7 -0.48, 150.58 -0.62, 200.25 -0.79 M198.92 0.54 C200.96 10.48, 198.33 24.71, 199.16 49.3 M199.64 -0.71 C200.71 15.24, 200.39 28.36, 199.68 49.68 M201.73 48.58 C157.25 50.89, 113.18 49.1, -0.79 51.29 M199.12 49.27 C147.33 49.07, 94.02 48.13, 0.11 49.22 M-0.98 50.29 C-1.68 33.46, 1.26 15.77, 1.68 -1.6 M-0.18 50.48 C-1.15 36.09, -0.1 23.48, 0.02 -0.72" stroke="#a371f7" stroke-width="2" fill="none"></path></g><g transform="translate(640.0500259399414 892.5) rotate(0 29.949974060058594 12.5)"><text x="29.949974060058594" y="NaN" font-family="Virgil, Segoe UI Emoji" font-size="20px" fill="#ffffff" text-anchor="middle" style="white-space: pre;" direction="ltr">Node3</text></g><g stroke-opacity="0.85" fill-opacity="0.85" stroke-linecap="round" transform="translate(303.6 78) rotate(0 86.4 22)"><path d="M-1.39 -1.26 L173.02 1.63 L173.84 42.76 L0.67 43.26" stroke="none" stroke-width="0" fill="#1f4d2b"></path><path d="M-0.06 1.63 C45.34 0.78, 91.66 0.53, 173.76 0.32 M-0.4 -0.12 C42.01 -0.13, 85.17 1.39, 173 -0.63 M173.12 -1.66 C173.61 15.36, 172.33 30.43, 174.16 42.38 M172.66 0.86 C173.59 16.73, 173.29 32.74, 173.41 44.55 M171.44 42.83 C107.92 43.58, 39.16 42.05, -1.67 45.97 M173.34 44.69 C115.97 42.81, 61.31 44.38, 0.03 44.03 M-1.56 42.39 C1.49 32.04, -1.06 17.12, -0.41 -1.71 M-0.91 43.95 C-0.59 29.58, -1.06 15.85, -0.5 -0.27" stroke="#3fb950" stroke-width="2" fill="none"></path></g><g transform="translate(324.5520248413086 90) rotate(0 65.4479751586914 10)"><text x="65.4479751586914" y="NaN" font-family="Virgil, Segoe UI Emoji" font-size="16px" fill="#ffffff" text-anchor="middle" style="white-space: pre;" direction="ltr">Election Timeout</text></g><g stroke-linecap="round"><g transform="translate(110 140) rotate(0 30 15)"><path d="M0.09 0.35 C9.99 0.01, 49.9 -5.94, 59.82 -0.95 C69.74 4.05, 69.54 25.05, 59.58 30.34 C49.63 35.63, 9.92 30.68, 0.11 30.78 M-1.32 -0.51 C8.37 -0.22, 48.79 -4.69, 58.78 0.1 C68.76 4.88, 68.33 23.42, 58.6 28.18 C48.87 32.93, 10.25 28.63, 0.41 28.63" stroke="#c9d1d9" stroke-width="2" fill="none"></path></g><g transform="translate(110 140) rotate(0 30 15)"><path d="M29.68 19.58 C18.02 22.13, 10.58 25.93, 1.71 29.76 M29.55 19.9 C18.56 23.17, 7.11 26.1, -0.56 28.93" stroke="#c9d1d9" stroke-width="2" fill="none"></path></g><g transform="translate(110 140) rotate(0 30 15)"><path d="M28.6 40.07 C17.11 35.78, 10.03 32.72, 1.71 29.76 M28.46 40.39 C17.99 35.89, 6.96 31.05, -0.56 28.93" stroke="#c9d1d9" stroke-width="2" fill="none"></path></g></g><g transform="translate(106.05802917480469 132.5) rotate(0 71.44197082519531 22.5)"><text x="71.44197082519531" y="NaN" font-family="Virgil, Segoe UI Emoji" font-size="18px" fill="#c9d1d9" text-anchor="middle" style="white-space: pre;" direction="ltr">Timeout, become</text><text x="71.44197082519531" y="NaN" font-family="Virgil, Segoe UI Emoji" font-size="18px" fill="#c9d1d9" text-anchor="middle" style="white-space: pre;" direction="ltr">Candidate</text></g><g stroke-linecap="round"><g transform="translate(110 220) rotate(0 140 0)"><path d="M-0.23 0.17 C46.67 0.35, 233.95 -0.1, 280.6 0.07 M-1.81 -0.78 C45.05 -0.31, 233.21 1.6, 279.97 1.65" stroke="#c9d1d9" stroke-width="2" fill="none"></path></g><g transform="translate(110 220) rotate(0 140 0)"><path d="M252.01 12.74 C258.55 8.89, 267.04 5.57, 281.69 2.45 M252.48 11.15 C259.67 9.59, 267.75 5.39, 280 2.21" stroke="#c9d1d9" stroke-width="2" fill="none"></path></g><g transform="translate(110 220) rotate(0 140 0)"><path d="M252.13 -7.78 C258.48 -6.81, 266.95 -5.32, 281.69 2.45 M252.61 -9.37 C259.61 -5.22, 267.65 -3.71, 280 2.21" stroke="#c9d1d9" stroke-width="2" fill="none"></path></g></g><g transform="translate(194.4070281982422 208.75) rotate(0 55.59297180175781 11.25)"><text x="55.59297180175781" y="NaN" font-family="Virgil, Segoe UI Emoji" font-size="18px" fill="#c9d1d9" text-anchor="middle" style="white-space: pre;" direction="ltr">RequestVote</text></g><g stroke-linecap="round"><g transform="translate(110 300) rotate(0 280 0)"><path d="M-0.86 -0.69 C92.41 -0.73, 465.47 -0.64, 558.82 -0.42 M0.89 1.56 C94.58 1.7, 467.44 1.38, 560.91 0.9" stroke="#c9d1d9" stroke-width="2" fill="none"></path></g><g transform="translate(110 300) rotate(0 280 0)"><path d="M531.6 9.26 C538.57 7.72, 546.88 8.28, 562.81 0.62 M531.81 11.78 C541.11 8.58, 548.89 5.53, 560.53 1.73" stroke="#c9d1d9" stroke-width="2" fill="none"></path></g><g transform="translate(110 300) rotate(0 280 0)"><path d="M531.54 -11.26 C538.5 -8.06, 546.83 -2.75, 562.81 0.62 M531.75 -8.74 C541.04 -5.92, 548.83 -2.95, 560.53 1.73" stroke="#c9d1d9" stroke-width="2" fill="none"></path></g></g><g transform="translate(334.4070281982422 288.75) rotate(0 55.59297180175781 11.25)"><text x="55.59297180175781" y="NaN" font-family="Virgil, Segoe UI Emoji" font-size="18px" fill="#c9d1d9" text-anchor="middle" style="white-space: pre;" direction="ltr">RequestVote</text></g><g stroke-linecap="round"><g transform="translate(390 380) rotate(0 -140 0)"><path d="M0.09 -1.14 C-46.8 -1.38, -234.3 -1.16, -281.01 -1.01" stroke="#c9d1d9" stroke-width="2.5" fill="none" stroke-dasharray="8 10"></path></g><g transform="translate(390 380) rotate(0 -140 0)"><path d="M-254.74 -13.01 C-263.69 -8.23, -271.57 -5.67, -282.95 -2.3" stroke="#c9d1d9" stroke-width="2.5" fill="none"></path></g><g transform="translate(390 380) rotate(0 -140 0)"><path d="M-254.7 7.52 C-263.73 5.59, -271.62 1.44, -282.95 -2.3" stroke="#c9d1d9" stroke-width="2.5" fill="none"></path></g></g><g transform="translate(192.13903045654297 368.75) rotate(0 57.86096954345703 11.25)"><text x="57.86096954345703" y="NaN" font-family="Virgil, Segoe UI Emoji" font-size="18px" fill="#c9d1d9" text-anchor="middle" style="white-space: pre;" direction="ltr">Vote granted</text></g><g stroke-linecap="round"><g transform="translate(670 460) rotate(0 -280 0)"><path d="M-0.83 0.31 C-94.15 0.13, -467.44 -0.16, -560.84 -0.19" stroke="#c9d1d9" stroke-width="2.5" fill="none" stroke-dasharray="8 10"></path></g><g transform="translate(670 460) rotate(0 -280 0)"><path d="M-532.12 -11.83 C-539.25 -10.28, -545.04 -6.94, -559.14 -1.89" stroke="#c9d1d9" stroke-width="2.5" fill="none"></path></g><g transform="translate(670 460) rotate(0 -280 0)"><path d="M-532.13 8.7 C-539.41 5.6, -545.21 4.31, -559.14 -1.89" stroke="#c9d1d9" stroke-width="2.5" fill="none"></path></g></g><g transform="translate(332.13903045654297 448.75) rotate(0 57.86096954345703 11.25)"><text x="57.86096954345703" y="NaN" font-family="Virgil, Segoe UI Emoji" font-size="18px" fill="#c9d1d9" text-anchor="middle" style="white-space: pre;" direction="ltr">Vote granted</text></g><g stroke-opacity="0.85" fill-opacity="0.85" stroke-linecap="round" transform="translate(32.39999999999999 470) rotate(0 77.60000000000002 30)"><path d="M1.01 0.78 L153.76 1.38 L156.05 61.44 L1.53 60.07" stroke="none" stroke-width="0" fill="#1f4d2b"></path><path d="M1.27 1.9 C35.62 -0.34, 68.14 -2.07, 154.55 -1.53 M0.98 -0.28 C33.41 0.24, 66.86 -0.92, 155.71 -0.04 M155.63 1.58 C155.96 15.13, 156.78 30.12, 153.63 61.59 M156.07 0.9 C154.96 20.38, 155.84 43.56, 155.43 60.06 M153.76 61.23 C123.37 61.62, 89.71 60.5, -0.27 58.88 M154.9 60.26 C110.31 59.09, 66.8 58.23, -0.01 59.02 M-1.08 60.61 C-1.62 44.11, -1.48 25.45, -1.8 -0.33 M-0.45 59.03 C-1.11 43.07, -0.97 26.92, -0.69 0.72" stroke="#3fb950" stroke-width="2" fill="none"></path></g><g transform="translate(51.04802703857422 480) rotate(0 58.95197296142578 20)"><text x="58.95197296142578" y="NaN" font-family="Virgil, Segoe UI Emoji" font-size="16px" fill="#ffffff" text-anchor="middle" style="white-space: pre;" direction="ltr">Majority votes</text><text x="58.95197296142578" y="NaN" font-family="Virgil, Segoe UI Emoji" font-size="16px" fill="#ffffff" text-anchor="middle" style="white-space: pre;" direction="ltr">Become Leader</text></g><g stroke-linecap="round"><g transform="translate(110 540) rotate(0 140 0)"><path d="M-0.91 0.3 C45.64 0.14, 233.17 0.25, 279.79 0.09 M0.82 -0.59 C47.15 -0.01, 232.01 1.53, 278.73 1.67" stroke="#c9d1d9" stroke-width="2" fill="none"></path></g><g transform="translate(110 540) rotate(0 140 0)"><path d="M250.98 11.41 C260.17 6.62, 268.5 3.6, 279.32 -0.13 M251.12 12.33 C258.39 8.19, 265.06 6.97, 278.92 1.82" stroke="#c9d1d9" stroke-width="2" fill="none"></path></g><g transform="translate(110 540) rotate(0 140 0)"><path d="M251.11 -9.11 C260.43 -6.91, 268.72 -2.94, 279.32 -0.13 M251.24 -8.19 C258.55 -6.83, 265.19 -2.55, 278.92 1.82" stroke="#c9d1d9" stroke-width="2" fill="none"></path></g></g><g transform="translate(183.34603118896484 517.5) rotate(0 66.65396881103516 22.5)"><text x="66.65396881103516" y="NaN" font-family="Virgil, Segoe UI Emoji" font-size="18px" fill="#c9d1d9" text-anchor="middle" style="white-space: pre;" direction="ltr">Heartbeat (I'm</text><text x="66.65396881103516" y="NaN" font-family="Virgil, Segoe UI Emoji" font-size="18px" fill="#c9d1d9" text-anchor="middle" style="white-space: pre;" direction="ltr">leader)</text></g><g stroke-linecap="round"><g transform="translate(110 620) rotate(0 280 0)"><path d="M-0.76 0.6 C92.38 0.28, 465.94 -0.84, 559.38 -1.05 M1.04 -0.12 C94.53 -0.42, 468.77 -0.13, 561.76 -0.07" stroke="#c9d1d9" stroke-width="2" fill="none"></path></g><g transform="translate(110 620) rotate(0 280 0)"><path d="M534.57 9.13 C541.47 6.56, 551.82 4.57, 562.96 0.27 M533.41 10.13 C543.87 5.59, 556.35 1.39, 562.61 0.3" stroke="#c9d1d9" stroke-width="2" fill="none"></path></g><g transform="translate(110 620) rotate(0 280 0)"><path d="M534.58 -11.39 C541.63 -6.87, 551.98 -1.78, 562.96 0.27 M533.43 -10.39 C543.95 -6.94, 556.42 -3.15, 562.61 0.3" stroke="#c9d1d9" stroke-width="2" fill="none"></path></g></g><g transform="translate(288.59705352783203 608.75) rotate(0 101.40294647216797 11.25)"><text x="101.40294647216797" y="NaN" font-family="Virgil, Segoe UI Emoji" font-size="18px" fill="#c9d1d9" text-anchor="middle" style="white-space: pre;" direction="ltr">Heartbeat (I'm leader)</text></g><g stroke-linecap="round"><g transform="translate(390 700) rotate(0 -140 0)"><path d="M0.11 1.11 C-46.77 1.1, -233.85 -0.6, -280.58 -0.69" stroke="#c9d1d9" stroke-width="2.5" fill="none" stroke-dasharray="8 10"></path></g><g transform="translate(390 700) rotate(0 -140 0)"><path d="M-250.48 -11.76 C-263.65 -7.66, -271.66 -1.56, -279.21 0.67" stroke="#c9d1d9" stroke-width="2.5" fill="none"></path></g><g transform="translate(390 700) rotate(0 -140 0)"><path d="M-250.6 8.76 C-263.62 5.51, -271.59 4.27, -279.21 0.67" stroke="#c9d1d9" stroke-width="2.5" fill="none"></path></g></g><g transform="translate(198.68203735351562 688.75) rotate(0 51.317962646484375 11.25)"><text x="51.317962646484375" y="NaN" font-family="Virgil, Segoe UI Emoji" font-size="18px" fill="#c9d1d9" text-anchor="middle" style="white-space: pre;" direction="ltr">Acknowledge</text></g><g stroke-linecap="round"><g transform="translate(670 780) rotate(0 -280 0)"><path d="M-0.37 0.65 C-93.34 0.88, -465.67 0.64, -558.9 0.6" stroke="#c9d1d9" stroke-width="2.5" fill="none" stroke-dasharray="8 10"></path></g><g transform="translate(670 780) rotate(0 -280 0)"><path d="M-529.62 -7.81 C-535.65 -7.13, -541.92 -6.8, -560.1 1.52" stroke="#c9d1d9" stroke-width="2.5" fill="none"></path></g><g transform="translate(670 780) rotate(0 -280 0)"><path d="M-529.63 12.71 C-535.53 9.11, -541.8 5.16, -560.1 1.52" stroke="#c9d1d9" stroke-width="2.5" fill="none"></path></g></g><g transform="translate(338.6820373535156 768.75) rotate(0 51.317962646484375 11.25)"><text x="51.317962646484375" y="NaN" font-family="Virgil, Segoe UI Emoji" font-size="18px" fill="#c9d1d9" text-anchor="middle" style="white-space: pre;" direction="ltr">Acknowledge</text></g></svg>