<svg version="1.1" xmlns="http://www.w3.org/2000/svg" viewBox="0 0 1340 940" width="1340" height="940">
  <!-- svg-source:excalidraw -->
  
  <defs>
    <style>
      @font-face {
        font-family: "Virgil";
        src: url("https://excalidraw.com/Virgil.woff2");
      }
      @font-face {
        font-family: "Cascadia";
        src: url("https://excalidraw.com/Cascadia.woff2");
      }
    </style>
  </defs>
  <rect x="0" y="0" width="1340" height="940" fill="#0d1117"></rect><g stroke-linecap="round" transform="translate(10 10) rotate(0 100 25)"><path d="M-0.1 -1.19 L201.89 1.92 L198.17 48.21 L1.34 49.89" stroke="none" stroke-width="0" fill="#3a1d6e"></path><path d="M1.17 -1.19 C53.23 -0.68, 105.9 -0.74, 199.92 -1.17 M0.49 -0.86 C70.61 -0.99, 141.63 -1.26, 200.22 0.72 M199.65 1.14 C199.39 12.02, 202.3 25.72, 201.84 48.6 M199.32 -0.28 C201.32 18.01, 200.02 35.41, 200.85 49.26 M200.42 49.27 C125.99 47.91, 49.97 48.22, -0.76 51.39 M200.79 50.21 C146.4 49.23, 93.75 49.31, -0.2 49.31 M1.36 49.76 C1.11 30.73, 1.42 13.53, 1.4 -0.09 M0.52 50.16 C-0.6 36.47, 0.22 21.36, 0.94 0" stroke="#a371f7" stroke-width="2" fill="none"></path></g><g transform="translate(82.95002746582031 22.5) rotate(0 27.049972534179688 12.5)"><text x="27.049972534179688" y="NaN" font-family="Virgil, Segoe UI Emoji" font-size="20px" fill="#ffffff" text-anchor="middle" style="white-space: pre;" direction="ltr">Client</text></g><g stroke-linecap="round"><g transform="translate(110 60) rotate(0 0 410)"><path d="M0.66 1.03 C0.43 137.66, -0.8 683.22, -0.83 819.67" stroke="#30363d" stroke-width="1.5" fill="none" stroke-dasharray="8 9"></path></g></g><g stroke-linecap="round" transform="translate(10 880) rotate(0 100 25)"><path d="M1.31 -1.72 L198.5 -0.27 L199.34 51.21 L-1.82 48.88" stroke="none" stroke-width="0" fill="#3a1d6e"></path><path d="M1.53 -1.64 C60.71 -1.06, 120.69 -1, 198.72 0.29 M-0.26 -0.83 C52.65 0.36, 107.27 0.11, 200.57 0.1 M198.78 0.81 C201.51 10.05, 201.43 24.81, 200.77 48.01 M199.71 -0.2 C199.26 20.18, 200.98 40.16, 200.61 49.79 M200.29 49.22 C149.25 48.08, 96.49 48.73, -0.46 48.88 M199.99 49.38 C151.06 50.03, 101.02 49.87, -0.17 50.83 M-0.09 50.73 C1.43 31.25, 0.78 16.03, -0.34 0.25 M0.47 49.63 C-0.07 33.52, -0.28 15.94, 0.33 -0.13" stroke="#a371f7" stroke-width="2" fill="none"></path></g><g transform="translate(82.95002746582031 892.5) rotate(0 27.049972534179688 12.5)"><text x="27.049972534179688" y="NaN" font-family="Virgil, Segoe UI Emoji" font-size="20px" fill="#ffffff" text-anchor="middle" style="white-space: pre;" direction="ltr">Client</text></g><g stroke-linecap="round" transform="translate(290 10) rotate(0 100 25)"><path d="M-0.07 0.97 L200.19 1.32 L200.27 51.83 L1.85 49.91" stroke="none" stroke-width="0" fill="#3a1d6e"></path><path d="M-0.16 -1.12 C64.7 -0.07, 133.43 2.69, 199.77 0.74 M0.63 -0.55 C64.49 -0.24, 131.31 0.66, 199.59 0.64 M201.12 -0.78 C200.04 14.5, 200.88 25.41, 199.74 50 M199.9 0.16 C199.02 10.87, 200.77 21.94, 200 50.24 M201.61 48.86 C131.37 50.17, 65.02 48.79, -0.81 50.7 M199.25 50.58 C153.77 51.91, 109.12 50.91, -0.73 49.16 M-1.87 49.88 C0.27 36.5, 1.95 22.05, 1.79 -1.77 M-0.47 50.95 C0.67 37.62, 1.38 24.47, 0.4 0.72" stroke="#a371f7" stroke-width="2" fill="none"></path></g><g transform="translate(356.41002655029297 22.5) rotate(0 33.58997344970703 12.5)"><text x="33.58997344970703" y="NaN" font-family="Virgil, Segoe UI Emoji" font-size="20px" fill="#ffffff" text-anchor="middle" style="white-space: pre;" direction="ltr">Leader</text></g><g stroke-linecap="round"><g transform="translate(390 60) rotate(0 0 410)"><path d="M0.59 0.2 C0.86 136.87, 0.63 683.6, 0.62 820.39" stroke="#30363d" stroke-width="1.5" fill="none" stroke-dasharray="8 9"></path></g></g><g stroke-linecap="round" transform="translate(290 880) rotate(0 100 25)"><path d="M-1.41 -1.86 L198.92 1.32 L201.04 50.91 L-0.81 51.23" stroke="none" stroke-width="0" fill="#3a1d6e"></path><path d="M-1.58 0 C69.59 0.91, 138.05 -0.21, 199.83 -0.08 M0.78 -0.83 C74.37 0.38, 147.79 1.38, 199.35 -0.78 M201.66 1.59 C201.34 11.88, 201.97 22.44, 200.93 48.46 M199.42 0.16 C200.24 19.97, 199.75 38.52, 200.28 50.46 M198.28 50.2 C153.72 48.64, 107.66 50.38, -1.22 50.87 M199.91 50.89 C133.03 50.05, 66.1 50.99, -0.04 50.66 M0.78 49.78 C-0.74 31.35, 1.19 11.37, 0.6 -1.09 M-0.24 50.92 C1.17 37, 1.3 21.91, -0.85 0.19" stroke="#a371f7" stroke-width="2" fill="none"></path></g><g transform="translate(356.41002655029297 892.5) rotate(0 33.58997344970703 12.5)"><text x="33.58997344970703" y="NaN" font-family="Virgil, Segoe UI Emoji" font-size="20px" fill="#ffffff" text-anchor="middle" style="white-space: pre;" direction="ltr">Leader</text></g><g stroke-linecap="round" transform="translate(570 10) rotate(0 100 25)"><path d="M0.6 0.66 L201.42 0.18 L201.92 48.98 L0.23 48.65" stroke="none" stroke-width="0" fill="#3a1d6e"></path><path d="M0.87 1.54 C70.94 1.85, 140.12 1.38, 200.16 -0.62 M0.05 0.68 C79.43 0.96, 158.36 0.28, 200.72 -0.12 M200.58 -1.61 C198.49 13.94, 198.77 32.72, 198.99 51.43 M200.66 0.4 C200.5 13.23, 200.31 26.45, 200.4 49.88 M199.52 50.42 C149.25 47.91, 103.74 46.81, -0.99 50.99 M200.49 49.57 C139.24 48.71, 79.24 48.24, 0.34 49.77 M1.04 50.52 C1.43 28.81, -1.89 12.81, -1.47 -0.77 M0.92 50.2 C0.06 35.86, -0.87 20.41, 0 0.41" stroke="#a371f7" stroke-width="2" fill="none"></path></g><g transform="translate(624.3500366210938 22.5) rotate(0 45.64996337890625 12.5)"><text x="45.64996337890625" y="NaN" font-family="Virgil, Segoe UI Emoji" font-size="20px" fill="#ffffff" text-anchor="middle" style="white-space: pre;" direction="ltr">Follower 1</text></g><g stroke-linecap="round"><g transform="translate(670 60) rotate(0 0 410)"><path d="M0.48 0.31 C0.46 137, 1.02 684.33, 0.75 820.84" stroke="#30363d" stroke-width="1.5" fill="none" stroke-dasharray="8 9"></path></g></g><g stroke-linecap="round" transform="translate(570 880) rotate(0 100 25)"><path d="M1.08 0.94 L199.96 0.98 L199.94 51.42 L-0.11 48.13" stroke="none" stroke-width="0" fill="#3a1d6e"></path><path d="M-0.67 1.17 C61.9 0.24, 125.53 1.69, 199.24 -0.39 M-0.06 -0.03 C66.83 -0.86, 132.1 -2.29, 200.24 -0.3 M199.4 -1.97 C200.05 14.27, 200.49 30.81, 198.82 51.64 M199.68 0.99 C199.76 13.75, 200.18 27.65, 200.21 50.61 M200.5 48.26 C130.84 48.74, 63.19 50.26, -0.99 48.75 M200.73 49.9 C140.08 49.34, 79.95 49.94, -0.84 50.41 M1.22 51.68 C-1.28 37.72, -1.4 29.61, -1.35 0.84 M0.35 49.05 C-1.12 31.25, -1.24 14.36, 0.3 0.69" stroke="#a371f7" stroke-width="2" fill="none"></path></g><g transform="translate(624.3500366210938 892.5) rotate(0 45.64996337890625 12.5)"><text x="45.64996337890625" y="NaN" font-family="Virgil, Segoe UI Emoji" font-size="20px" fill="#ffffff" text-anchor="middle" style="white-space: pre;" direction="ltr">Follower 1</text></g><g stroke-linecap="round" transform="translate(850 10) rotate(0 100 25)"><path d="M-0.57 1.32 L200.57 0.79 L200.7 51.56 L-1.62 50.32" stroke="none" stroke-width="0" fill="#3a1d6e"></path><path d="M-1.56 1.02 C71.03 -0.94, 144.35 1.25, 198.97 0.2 M-0.05 -0.63 C48.82 1.03, 97.4 0.95, 200.59 0.27 M199.94 -0.78 C200.92 17.13, 199.57 32.08, 201.4 48.85 M199.13 0.32 C201 15.44, 200.98 32.52, 199.43 49.1 M199.79 51.16 C159.83 50.44, 119.4 50.94, 0.06 48.53 M199.21 49.36 C122.18 48.61, 45.19 48.08, 0.42 50.32 M0.3 50.76 C-0.12 33.1, -0.92 20.55, -0.03 -0.29 M-0.06 49.02 C0.63 31.37, -0.81 12.01, 0.78 -0.87" stroke="#a371f7" stroke-width="2" fill="none"></path></g><g transform="translate(899.9400405883789 22.5) rotate(0 50.059959411621094 12.5)"><text x="50.059959411621094" y="NaN" font-family="Virgil, Segoe UI Emoji" font-size="20px" fill="#ffffff" text-anchor="middle" style="white-space: pre;" direction="ltr">Follower 2</text></g><g stroke-linecap="round"><g transform="translate(950 60) rotate(0 0 410)"><path d="M0.7 -0.62 C0.85 135.88, 0.69 683.08, 0.57 819.75" stroke="#30363d" stroke-width="1.5" fill="none" stroke-dasharray="8 9"></path></g></g><g stroke-linecap="round" transform="translate(850 880) rotate(0 100 25)"><path d="M-0.94 0.69 L201.54 0.27 L199.99 51.68 L-1.45 49.57" stroke="none" stroke-width="0" fill="#3a1d6e"></path><path d="M1.64 -1.14 C75.48 -2.12, 148.02 -0.21, 201.51 -0.54 M-0.55 -0.86 C60.38 -0.53, 120.89 -0.87, 200.63 -0.56 M201.59 0.66 C201.74 17.66, 198.85 32.53, 199.81 51.57 M199.05 -0.31 C199.34 15.29, 199.52 32.12, 200.81 50.86 M198.46 50.5 C159.67 49.6, 116.3 50.91, 0.74 50.79 M199.18 49.12 C154.8 50.3, 109.51 50.03, 0.6 50.78 M1.21 49.79 C-0.66 30.57, -1.1 10.66, 0.85 -0.23 M-0.12 49.86 C-0.43 35.4, -0.56 19.77, -0.47 0.39" stroke="#a371f7" stroke-width="2" fill="none"></path></g><g transform="translate(899.9400405883789 892.5) rotate(0 50.059959411621094 12.5)"><text x="50.059959411621094" y="NaN" font-family="Virgil, Segoe UI Emoji" font-size="20px" fill="#ffffff" text-anchor="middle" style="white-space: pre;" direction="ltr">Follower 2</text></g><g stroke-linecap="round" transform="translate(1130 10) rotate(0 100 25)"><path d="M-0.25 1.92 L201.89 -1.4 L200.98 49.91 L0.46 49.66" stroke="none" stroke-width="0" fill="#3a1d6e"></path><path d="M0.58 1.51 C63.53 0.48, 124.59 0.31, 201.72 0.28 M-0.36 0.24 C52.47 -0.33, 105.88 -0.49, 199.82 -0.68 M201.75 -1.5 C199.11 11.83, 198.44 25.94, 199.96 48.94 M200.76 -0.7 C199.3 16.83, 198.6 31.75, 200.37 49.21 M200.72 51.5 C123.47 49.85, 46.9 51.23, 0.63 50.45 M199.48 50.49 C148.01 49.84, 94.34 49.11, 0.48 49.37 M-0.04 51.63 C0.15 32.55, -1.2 14.83, 0.76 -1.2 M-0.53 49.61 C-0.48 33.59, 1.09 15.26, -0.6 0.49" stroke="#a371f7" stroke-width="2" fill="none"></path></g><g transform="translate(1180.2500381469727 22.5) rotate(0 49.749961853027344 12.5)"><text x="49.749961853027344" y="NaN" font-family="Virgil, Segoe UI Emoji" font-size="20px" fill="#ffffff" text-anchor="middle" style="white-space: pre;" direction="ltr">Follower 3</text></g><g stroke-linecap="round"><g transform="translate(1230 60) rotate(0 0 410)"><path d="M0.16 -0.99 C0.23 135.67, 0.17 683.91, 0.18 820.82" stroke="#30363d" stroke-width="1.5" fill="none" stroke-dasharray="8 9"></path></g></g><g stroke-linecap="round" transform="translate(1130 880) rotate(0 100 25)"><path d="M-1.43 0.36 L201.29 0.69 L199 49.9 L-1.8 50.51" stroke="none" stroke-width="0" fill="#3a1d6e"></path><path d="M-1.08 -0.87 C48.02 -0.75, 97.44 -1.19, 201.4 1.71 M0.12 -0.62 C50.09 -0.53, 99.87 0.67, 199.7 -0.89 M199.66 0.68 C199.44 17.87, 198.89 37.08, 199.41 49.1 M199.66 0.87 C200.43 15.75, 200.56 29.97, 199.42 49.58 M201.23 51.5 C123.1 48.71, 46.33 48.46, -0.88 51.16 M200.88 50.39 C142.98 50.29, 86.1 50.21, -0.61 49.34 M-0.69 48.02 C-0.97 36.33, 1.86 19.67, 0.22 -0.41 M0.81 50.94 C-0.42 33.1, 0.81 17.99, -0.03 0.86" stroke="#a371f7" stroke-width="2" fill="none"></path></g><g transform="translate(1180.2500381469727 892.5) rotate(0 49.749961853027344 12.5)"><text x="49.749961853027344" y="NaN" font-family="Virgil, Segoe UI Emoji" font-size="20px" fill="#ffffff" text-anchor="middle" style="white-space: pre;" direction="ltr">Follower 3</text></g><g stroke-linecap="round"><g transform="translate(110 140) rotate(0 140 0)"><path d="M-1.09 1.07 C45.85 0.88, 234.07 -1.15, 281.03 -1.16 M0.54 0.58 C47.46 0.49, 234 -0.01, 280.63 -0.24" stroke="#c9d1d9" stroke-width="2" fill="none"></path></g><g transform="translate(110 140) rotate(0 140 0)"><path d="M254.25 11.85 C257.64 8.97, 268.36 6.75, 281.93 -0.98 M251.64 10.8 C258.2 7.96, 265.45 5.16, 280.39 -0.81" stroke="#c9d1d9" stroke-width="2" fill="none"></path></g><g transform="translate(110 140) rotate(0 140 0)"><path d="M254.18 -8.67 C257.58 -6.37, 268.31 -3.41, 281.93 -0.98 M251.56 -9.72 C258.33 -7.87, 265.6 -5.97, 280.39 -0.81" stroke="#c9d1d9" stroke-width="2" fill="none"></path></g></g><g transform="translate(189.2230453491211 128.75) rotate(0 60.776954650878906 11.25)"><text x="60.776954650878906" y="NaN" font-family="Virgil, Segoe UI Emoji" font-size="18px" fill="#c9d1d9" text-anchor="middle" style="white-space: pre;" direction="ltr">Write request</text></g><g stroke-linecap="round"><g transform="translate(390 220) rotate(0 30 15)"><path d="M-0.92 0.97 C9.18 1.08, 49.79 -5.04, 59.84 -0.22 C69.88 4.59, 69.14 24.94, 59.35 29.84 C49.57 34.74, 10.88 29.35, 1.14 29.18 M0.8 0.43 C10.79 0.81, 49.23 -3.91, 58.8 1.2 C68.38 6.3, 68.33 26.29, 58.25 31.07 C48.17 35.85, 8.04 30.27, -1.68 29.86" stroke="#c9d1d9" stroke-width="2" fill="none"></path></g><g transform="translate(390 220) rotate(0 30 15)"><path d="M28.92 21.84 C20.03 22.64, 13.29 27.44, -3.04 31.38 M27.63 22.22 C21.05 22.99, 16.17 25.19, -1.84 29.91" stroke="#c9d1d9" stroke-width="2" fill="none"></path></g><g transform="translate(390 220) rotate(0 30 15)"><path d="M27.12 42.28 C18.81 38.26, 12.49 38.24, -3.04 31.38 M25.83 42.66 C19.48 39.31, 14.97 37.41, -1.84 29.91" stroke="#c9d1d9" stroke-width="2" fill="none"></path></g></g><g transform="translate(372.80104064941406 223.75) rotate(0 84.69895935058594 11.25)"><text x="84.69895935058594" y="NaN" font-family="Virgil, Segoe UI Emoji" font-size="18px" fill="#c9d1d9" text-anchor="middle" style="white-space: pre;" direction="ltr">Append to local log</text></g><g stroke-linecap="round"><g transform="translate(390 300) rotate(0 140 0)"><path d="M0.47 -1.03 C47.31 -0.96, 234.13 0.09, 280.59 0.42 M-0.74 1.04 C46.03 0.75, 232.87 -1.16, 279.95 -1.48" stroke="#c9d1d9" stroke-width="2" fill="none"></path></g><g transform="translate(390 300) rotate(0 140 0)"><path d="M250.13 10 C260 4.86, 268.35 1.7, 281.44 -1.98 M252.16 8.41 C259.8 5.66, 266.73 3.76, 279.49 -1.75" stroke="#c9d1d9" stroke-width="2" fill="none"></path></g><g transform="translate(390 300) rotate(0 140 0)"><path d="M249.95 -10.52 C259.86 -10.22, 268.26 -7.94, 281.44 -1.98 M251.98 -12.11 C259.56 -9.57, 266.54 -6.19, 279.49 -1.75" stroke="#c9d1d9" stroke-width="2" fill="none"></path></g></g><g transform="translate(440.8910827636719 288.75) rotate(0 89.10891723632812 11.25)"><text x="89.10891723632812" y="NaN" font-family="Virgil, Segoe UI Emoji" font-size="18px" fill="#c9d1d9" text-anchor="middle" style="white-space: pre;" direction="ltr">AppendEntries(entry)</text></g><g stroke-linecap="round"><g transform="translate(390 380) rotate(0 280 0)"><path d="M0.6 1.06 C93.66 0.89, 465.74 -0.09, 558.85 -0.21 M-0.54 0.56 C92.83 0.52, 467.24 1.01, 560.95 1.21" stroke="#c9d1d9" stroke-width="2" fill="none"></path></g><g transform="translate(390 380) rotate(0 280 0)"><path d="M534.5 9.5 C541.89 6.54, 552.32 5.23, 561.5 0.24 M533.03 10.44 C540.15 8.21, 547.04 6.53, 560.85 1.66" stroke="#c9d1d9" stroke-width="2" fill="none"></path></g><g transform="translate(390 380) rotate(0 280 0)"><path d="M534.54 -11.02 C542.04 -7.02, 552.46 -1.37, 561.5 0.24 M533.07 -10.08 C540.35 -6.96, 547.22 -3.29, 560.85 1.66" stroke="#c9d1d9" stroke-width="2" fill="none"></path></g></g><g transform="translate(580.8910827636719 368.75) rotate(0 89.10891723632812 11.25)"><text x="89.10891723632812" y="NaN" font-family="Virgil, Segoe UI Emoji" font-size="18px" fill="#c9d1d9" text-anchor="middle" style="white-space: pre;" direction="ltr">AppendEntries(entry)</text></g><g stroke-linecap="round"><g transform="translate(390 460) rotate(0 420 0)"><path d="M0.24 0.4 C140.17 0.44, 700.28 -0.71, 840.09 -0.72 M-1.1 -0.44 C138.64 -0.18, 698.76 0.06, 839.18 0.43" stroke="#c9d1d9" stroke-width="2" fill="none"></path></g><g transform="translate(390 460) rotate(0 420 0)"><path d="M811.64 10.8 C819.51 5.52, 830.91 4.56, 841.09 0.52 M810.71 11.4 C818.94 8.8, 823.92 5.86, 838.51 -0.29" stroke="#c9d1d9" stroke-width="2" fill="none"></path></g><g transform="translate(390 460) rotate(0 420 0)"><path d="M811.67 -9.72 C819.37 -7.98, 830.76 -1.91, 841.09 0.52 M810.74 -9.12 C818.95 -6.65, 823.92 -4.53, 838.51 -0.29" stroke="#c9d1d9" stroke-width="2" fill="none"></path></g></g><g transform="translate(720.8910827636719 448.75) rotate(0 89.10891723632812 11.25)"><text x="89.10891723632812" y="NaN" font-family="Virgil, Segoe UI Emoji" font-size="18px" fill="#c9d1d9" text-anchor="middle" style="white-space: pre;" direction="ltr">AppendEntries(entry)</text></g><g stroke-linecap="round"><g transform="translate(670 540) rotate(0 -140 0)"><path d="M1.17 -0.07 C-45.71 0.15, -233.7 0.95, -280.59 1.03" stroke="#c9d1d9" stroke-width="2.5" fill="none" stroke-dasharray="8 10"></path></g><g transform="translate(670 540) rotate(0 -140 0)"><path d="M-252.54 -10.3 C-260.74 -5.6, -271.73 -2.1, -282.21 2.99" stroke="#c9d1d9" stroke-width="2.5" fill="none"></path></g><g transform="translate(670 540) rotate(0 -140 0)"><path d="M-252.48 10.23 C-260.65 7.62, -271.67 3.83, -282.21 2.99" stroke="#c9d1d9" stroke-width="2.5" fill="none"></path></g></g><g transform="translate(495.68302154541016 528.75) rotate(0 34.316978454589844 11.25)"><text x="34.316978454589844" y="NaN" font-family="Virgil, Segoe UI Emoji" font-size="18px" fill="#c9d1d9" text-anchor="middle" style="white-space: pre;" direction="ltr">Success</text></g><g stroke-linecap="round"><g transform="translate(950 620) rotate(0 -280 0)"><path d="M-0.39 -0.47 C-93.62 -0.47, -465.97 -0.87, -559.4 -0.98" stroke="#c9d1d9" stroke-width="2.5" fill="none" stroke-dasharray="8 10"></path></g><g transform="translate(950 620) rotate(0 -280 0)"><path d="M-531.99 -10.22 C-541.33 -9.91, -549.97 -5.97, -560.01 -2.84" stroke="#c9d1d9" stroke-width="2.5" fill="none"></path></g><g transform="translate(950 620) rotate(0 -280 0)"><path d="M-532.01 10.3 C-541.17 4.49, -549.8 2.32, -560.01 -2.84" stroke="#c9d1d9" stroke-width="2.5" fill="none"></path></g></g><g transform="translate(635.6830215454102 608.75) rotate(0 34.316978454589844 11.25)"><text x="34.316978454589844" y="NaN" font-family="Virgil, Segoe UI Emoji" font-size="18px" fill="#c9d1d9" text-anchor="middle" style="white-space: pre;" direction="ltr">Success</text></g><g stroke-opacity="0.85" fill-opacity="0.85" stroke-linecap="round" transform="translate(242 638) rotate(0 148 22)"><path d="M-0.59 -0.79 L296.26 -1.98 L296.47 43.15 L-0.9 45.67" stroke="none" stroke-width="0" fill="#1f4d2b"></path><path d="M-0.4 0.95 C104.51 -0.39, 209.02 -1.87, 295.42 0.62 M0.36 0.54 C85.52 -2.1, 172.16 -1.92, 296.28 -0.48 M296.43 0.61 C297.44 11.93, 295.26 23.42, 296.93 44.92 M296.8 -0.32 C296.21 11.12, 296.22 22.89, 295.62 44.21 M296.21 43.55 C187.72 42.12, 80.66 42.81, -1.2 42.69 M296.26 44.02 C198.01 43.15, 99.49 42.77, -0.65 43.37 M-0.2 42.49 C0.24 26.52, 0.33 13.03, 0.6 1.38 M0.71 44.45 C0.15 31.54, 0 18.94, 0.3 0.96" stroke="#3fb950" stroke-width="2" fill="none"></path></g><g transform="translate(266.1040573120117 650) rotate(0 123.89594268798828 10)"><text x="123.89594268798828" y="NaN" font-family="Virgil, Segoe UI Emoji" font-size="16px" fill="#ffffff" text-anchor="middle" style="white-space: pre;" direction="ltr">Majority reached (L + F1 + F2)</text></g><g stroke-linecap="round"><g transform="translate(390 700) rotate(0 30 15)"><path d="M0.15 0.55 C10.15 0.75, 49.71 -4.27, 59.51 0.74 C69.31 5.75, 68.73 25.66, 58.96 30.63 C49.19 35.59, 10.63 30.58, 0.89 30.52 M-1.23 -0.21 C8.62 -0.31, 47.88 -5.8, 58.3 -0.99 C68.73 3.81, 70.75 23.74, 61.3 28.61 C51.85 33.48, 11.93 27.87, 1.61 28.23" stroke="#c9d1d9" stroke-width="2" fill="none"></path></g><g transform="translate(390 700) rotate(0 30 15)"><path d="M31.22 18.68 C24.15 20.03, 16.6 25.5, 2.47 29.16 M29.88 19.59 C20.83 22.51, 12.04 25.64, 0.62 28.48" stroke="#c9d1d9" stroke-width="2" fill="none"></path></g><g transform="translate(390 700) rotate(0 30 15)"><path d="M30.12 39.17 C23.41 35.27, 16.15 35.48, 2.47 29.16 M28.78 40.08 C20.18 36.38, 11.75 32.89, 0.62 28.48" stroke="#c9d1d9" stroke-width="2" fill="none"></path></g></g><g transform="translate(358.61705780029297 692.5) rotate(0 98.88294219970703 22.5)"><text x="98.88294219970703" y="NaN" font-family="Virgil, Segoe UI Emoji" font-size="18px" fill="#c9d1d9" text-anchor="middle" style="white-space: pre;" direction="ltr">Commit entry, apply to</text><text x="98.88294219970703" y="NaN" font-family="Virgil, Segoe UI Emoji" font-size="18px" fill="#c9d1d9" text-anchor="middle" style="white-space: pre;" direction="ltr">state machine</text></g><g stroke-linecap="round"><g transform="translate(390 780) rotate(0 -140 0)"><path d="M0.32 -0.43 C-46.41 -0.41, -234.2 0.51, -280.82 0.75" stroke="#c9d1d9" stroke-width="2.5" fill="none" stroke-dasharray="8 10"></path></g><g transform="translate(390 780) rotate(0 -140 0)"><path d="M-253.39 -11.01 C-258.71 -5.85, -265.59 -3.07, -282.16 0.47" stroke="#c9d1d9" stroke-width="2.5" fill="none"></path></g><g transform="translate(390 780) rotate(0 -140 0)"><path d="M-253.29 9.51 C-258.74 9.33, -265.66 6.76, -282.16 0.47" stroke="#c9d1d9" stroke-width="2.5" fill="none"></path></g></g><g transform="translate(174.06705474853516 768.75) rotate(0 75.93294525146484 11.25)"><text x="75.93294525146484" y="NaN" font-family="Virgil, Segoe UI Emoji" font-size="18px" fill="#c9d1d9" text-anchor="middle" style="white-space: pre;" direction="ltr">Success response</text></g><g stroke-opacity="0.85" fill-opacity="0.85" stroke-linecap="round" transform="translate(604.8 798) rotate(0 205.20000000000005 22)"><path d="M-1.56 -1.78 L410.86 -1.21 L409.95 43.55 L0.47 44.56" stroke="none" stroke-width="0" fill="#1f4d2b"></path><path d="M-0.51 -0.43 C87.5 0.06, 176.99 0.77, 410.89 -0.06 M0.5 -0.5 C83.04 0.37, 165.1 -0.34, 410.17 -0.28 M410.85 -1.99 C409.23 15.14, 412.07 28.21, 410.43 43.91 M409.78 0.35 C409.63 15.52, 409.82 31.49, 409.51 44.8 M409.57 44.7 C317.91 41.13, 226.33 42.16, 0.87 44.98 M410.13 44.07 C289.31 45.84, 167.62 45.12, -0.09 44.51 M-0.86 44.57 C-0.55 27.47, 1.78 11.29, 0.15 -1.06 M0.81 44.58 C-0.8 32.94, 0.42 20.78, 0.66 -0.66" stroke="#3fb950" stroke-width="2" fill="none"></path></g><g transform="translate(629.2481079101562 810) rotate(0 180.75189208984375 10)"><text x="180.75189208984375" y="NaN" font-family="Virgil, Segoe UI Emoji" font-size="16px" fill="#ffffff" text-anchor="middle" style="white-space: pre;" direction="ltr">Next heartbeat carries updated commit index</text></g></svg>