<svg version="1.1" xmlns="http://www.w3.org/2000/svg" viewBox="0 0 1160 455.7699502515246" width="1160" height="455.7699502515246">
  <!-- svg-source:excalidraw -->
  
  <defs>
    <style>
      @font-face {
        font-family: "Virgil";
        src: url("https://excalidraw.com/Virgil.woff2");
      }
      @font-face {
        font-family: "Cascadia";
        src: url("https://excalidraw.com/Cascadia.woff2");
      }
    </style>
  </defs>
  <rect x="0" y="0" width="1160" height="455.7699502515246" fill="#1e1e2e"></rect><g stroke-opacity="0.6" fill-opacity="0.6" stroke-linecap="round" transform="translate(10 10) rotate(0 570 217.8849751257623)"><path d="M-0.64 -1.77 L1140.95 -1.07 L1141.33 435.66 L-0.31 435.5" stroke="none" stroke-width="0" fill="#181825"></path><path d="M-0.3 0.02 C395.67 -0.45, 792.18 -0.52, 1140.02 0.24 M1140.61 -0.56 C1137.52 100.76, 1137.43 201.01, 1139.81 436.48 M1140.42 436.11 C807.79 440.67, 475.85 440.6, 0.38 436.25 M-0.13 436.68 C-0.88 280.2, -1.58 124.5, 0.17 -0.42" stroke="#45475a" stroke-width="2.5" fill="none" stroke-dasharray="8 10"></path></g><g transform="translate(42.54728208583879 34.895410007477665) rotate(0 105.69593811035156 11.25)"><text x="0" y="NaN" font-family="Virgil, Segoe UI Emoji" font-size="18px" fill="#a6adc8" text-anchor="start" style="white-space: pre;" direction="ltr">Node State Transitions</text></g><g stroke-linecap="round" transform="translate(86.54728208583879 134.89541000747766) rotate(0 90 36.5)"><path d="M0.04 0.97 L178.66 -0.46 L178.84 71.34 L0.95 71.46" stroke="none" stroke-width="0" fill="#1e40af"></path><path d="M-1.67 -1.3 C35.63 -2.22, 75.2 0.63, 178.75 0.87 M0.03 -0.06 C51.77 0.79, 103.55 2.63, 179.74 0.97 M180.11 1.56 C178.61 15.53, 181.19 34.45, 178.49 72.75 M180.37 0.86 C181.03 26.33, 179.45 51.51, 179.08 73.14 M180.08 71.97 C123.93 76.41, 68.33 72.6, 1.95 72.3 M180.7 73.93 C124.98 71.56, 69.86 71.53, -0.3 72.09 M-1.6 74.12 C-1.58 58.78, -1.02 45.45, 0.01 0.7 M-0.61 73.04 C-0.59 56.8, -0.3 39.91, -0.21 0.3" stroke="#3b82f6" stroke-width="2" fill="none"></path></g><g transform="translate(138.6073177914052 158.89541000747766) rotate(0 37.939964294433594 12.5)"><text x="37.939964294433594" y="NaN" font-family="Virgil, Segoe UI Emoji" font-size="20px" fill="#fff" text-anchor="middle" style="white-space: pre;" direction="ltr">Follower</text></g><g stroke-linecap="round" transform="translate(534.6993520910331 371.2742767180015) rotate(0 90 36.5)"><path d="M0.35 0.7 L181.94 1.95 L179.85 72.49 L-1.32 74.61" stroke="none" stroke-width="0" fill="#b45309"></path><path d="M1.46 0.07 C42.67 -2.12, 84.01 0.24, 180.85 1.51 M0.16 0.46 C65.56 -0.78, 130.2 -2.32, 180.56 -0.2 M180.76 1.08 C181.01 30.18, 179.14 58.44, 180.26 72.93 M180.2 -0.47 C180.29 19.69, 179.38 38.05, 179.11 72.89 M182 71.86 C115.9 74.29, 53.73 76, 1.26 71.48 M180 73.76 C135.38 72.92, 91.15 72.49, -0.29 73.76 M-0.4 71.11 C1.31 49.18, -1.58 23.08, 0.11 -1.92 M-0.14 73.16 C-1.18 43.99, -0.01 15.68, 0.03 0.26" stroke="#d97706" stroke-width="2" fill="none"></path></g><g transform="translate(575.5593908483573 395.2742767180015) rotate(0 49.13996124267578 12.5)"><text x="49.13996124267578" y="NaN" font-family="Virgil, Segoe UI Emoji" font-size="20px" fill="#fff" text-anchor="middle" style="white-space: pre;" direction="ltr">Candidate</text></g><g stroke-linecap="round" transform="translate(926.5472820858388 134.89541000747766) rotate(0 90 36.5)"><path d="M-0.79 0.75 L181.8 -0.26 L178.4 74.63 L-1.71 71.97" stroke="none" stroke-width="0" fill="#5b21b6"></path><path d="M-1.26 -1.29 C49.35 -1.07, 102.71 0.25, 180.09 -0.67 M0.96 0.13 C63.41 -0.4, 126.58 1.27, 180.36 0.42 M179.9 -1.13 C181.49 19.38, 178.67 40.89, 180.35 73.54 M180.55 -0.8 C180.11 22.93, 178.83 44.3, 179.38 73.98 M178.1 74.63 C139.95 74.56, 99.71 73.98, -0.12 72.32 M179.15 73.57 C134.33 71.67, 89.96 72.13, 0.48 72.02 M-1.56 73.13 C1.28 56.61, -1.46 37.82, 1.02 1.95 M0.43 73.24 C0.82 58.19, 0.45 41.29, 0.36 0.58" stroke="#7c3aed" stroke-width="2" fill="none"></path></g><g transform="translate(982.9573086361318 158.89541000747766) rotate(0 33.58997344970703 12.5)"><text x="33.58997344970703" y="NaN" font-family="Virgil, Segoe UI Emoji" font-size="20px" fill="#fff" text-anchor="middle" style="white-space: pre;" direction="ltr">Leader</text></g><g stroke-linecap="round"><g transform="translate(180.13444077432035 213.89541000747766) rotate(0 174.28245565835638 96.49100450450013)"><path d="M0.09 1.12 C15.41 26.8, 33.02 122.5, 90.91 154.59 C148.79 186.68, 304.49 187.18, 347.41 193.68 M-1.32 0.66 C14.46 25.91, 34.66 120.79, 93.16 152.63 C151.67 184.47, 307.13 185.25, 349.7 191.7" stroke="#d97706" stroke-width="2" fill="none"></path></g><g transform="translate(180.13444077432035 213.89541000747766) rotate(0 174.28245565835638 96.49100450450013)"><path d="M322.62 198.13 C327.46 195.93, 334.34 195.89, 350.67 190.61 M321.19 199.62 C327.85 197.84, 334.36 196.39, 348.97 192.61" stroke="#d97706" stroke-width="2" fill="none"></path></g><g transform="translate(180.13444077432035 213.89541000747766) rotate(0 174.28245565835638 96.49100450450013)"><path d="M324.32 177.68 C328.89 179.89, 335.4 184.25, 350.67 190.61 M322.89 179.17 C329.26 182.53, 335.34 186.23, 348.97 192.61" stroke="#d97706" stroke-width="2" fill="none"></path></g></g><g transform="translate(240.3421042685107 348.0572322905974) rotate(0 71.47795867919922 22.5)"><text x="71.47795867919922" y="NaN" font-family="Virgil, Segoe UI Emoji" font-size="18px" fill="#cdd6f4" text-anchor="middle" style="white-space: pre;" direction="ltr">Election timeout</text><text x="71.47795867919922" y="NaN" font-family="Virgil, Segoe UI Emoji" font-size="18px" fill="#cdd6f4" text-anchor="middle" style="white-space: pre;" direction="ltr">expires</text></g><g stroke-linecap="round"><g transform="translate(695.1821857136855 365.2742767180015) rotate(0 125.47123266759769 -75.68943335526193)"><path d="M1.04 0.47 C42.63 -25, 208.23 -126.82, 249.9 -152.07 M0.13 -0.33 C42.05 -25.72, 210.36 -125.42, 252.07 -150.89" stroke="#40916c" stroke-width="2" fill="none"></path></g><g transform="translate(695.1821857136855 365.2742767180015) rotate(0 125.47123266759769 -75.68943335526193)"><path d="M233.97 -129.32 C238.12 -135.24, 246.12 -143.1, 251.82 -149.47 M233.95 -128.36 C239.98 -135.75, 246.04 -141.87, 252.28 -151.59" stroke="#40916c" stroke-width="2" fill="none"></path></g><g transform="translate(695.1821857136855 365.2742767180015) rotate(0 125.47123266759769 -75.68943335526193)"><path d="M223.4 -146.91 C231.15 -147.13, 242.64 -149.18, 251.82 -149.47 M223.38 -145.95 C233.06 -147.48, 242.61 -147.79, 252.28 -151.59" stroke="#40916c" stroke-width="2" fill="none"></path></g></g><g transform="translate(744.4144810033536 267.0848433627396) rotate(0 76.23893737792969 22.500000000000007)"><text x="76.23893737792969" y="NaN" font-family="Virgil, Segoe UI Emoji" font-size="18px" fill="#cdd6f4" text-anchor="middle" style="white-space: pre;" direction="ltr">Receives majority</text><text x="76.23893737792969" y="NaN" font-family="Virgil, Segoe UI Emoji" font-size="18px" fill="#cdd6f4" text-anchor="middle" style="white-space: pre;" direction="ltr">votes</text></g><g stroke-linecap="round"><g transform="translate(598.6450499291238 42.87450585124529) rotate(0 0 -0.06119293181468777)"><path d="M0.97 -0.39 C0.97 -0.63, 0.83 -0.36, 0.78 -0.31 M0.02 -1.63 C-0.13 -1.18, 0.21 0.65, 0.23 1.13" stroke="#e11d48" stroke-width="2" fill="none"></path></g><g transform="translate(598.6450499291238 42.87450585124529) rotate(0 0 -0.06119293181468777)"><path d="M0.21 1.08 C0.22 1.09, 0.23 1.11, 0.23 1.13 M0.2 1.07 C0.21 1.09, 0.23 1.1, 0.23 1.13" stroke="#e11d48" stroke-width="2" fill="none"></path></g><g transform="translate(598.6450499291238 42.87450585124529) rotate(0 0 -0.06119293181468777)"><path d="M0.25 1.07 C0.24 1.09, 0.24 1.11, 0.23 1.13 M0.25 1.06 C0.24 1.08, 0.24 1.1, 0.23 1.13" stroke="#e11d48" stroke-width="2" fill="none"></path></g></g><g transform="translate(514.3511198754129 20.313312919430587) rotate(0 84.29393005371094 22.5)"><text x="84.29393005371094" y="NaN" font-family="Virgil, Segoe UI Emoji" font-size="18px" fill="#cdd6f4" text-anchor="middle" style="white-space: pre;" direction="ltr">Election timeout</text><text x="84.29393005371094" y="NaN" font-family="Virgil, Segoe UI Emoji" font-size="18px" fill="#cdd6f4" text-anchor="middle" style="white-space: pre;" direction="ltr">expires (split vote)</text></g><g stroke-linecap="round"><g transform="translate(545.5625698386808 366.0321085267798) rotate(0 -144.93636088894047 -76.44791409553989)"><path d="M-0.52 -0.47 C-48.95 -25.87, -242.22 -127.77, -290.57 -153.23 M1.41 -1.76 C-46.63 -26.92, -239.97 -126.81, -288.23 -151.87" stroke="#3b82f6" stroke-width="2" fill="none"></path></g><g transform="translate(545.5625698386808 366.0321085267798) rotate(0 -144.93636088894047 -76.44791409553989)"><path d="M-259.25 -149.19 C-267.96 -150.54, -276.94 -151.56, -286.65 -150.29 M-259.38 -148.99 C-270.48 -150.35, -282.14 -151.67, -287.67 -151.97" stroke="#3b82f6" stroke-width="2" fill="none"></path></g><g transform="translate(545.5625698386808 366.0321085267798) rotate(0 -144.93636088894047 -76.44791409553989)"><path d="M-268.69 -130.96 C-274.44 -137.76, -280.59 -144.26, -286.65 -150.29 M-268.82 -130.77 C-276.19 -139.16, -284.17 -147.59, -287.67 -151.97" stroke="#3b82f6" stroke-width="2" fill="none"></path></g></g><g transform="translate(330.19227187698647 267.0841944312399) rotate(0 70.4339370727539 22.5)"><text x="70.4339370727539" y="NaN" font-family="Virgil, Segoe UI Emoji" font-size="18px" fill="#cdd6f4" text-anchor="middle" style="white-space: pre;" direction="ltr">Discovers higher</text><text x="70.4339370727539" y="NaN" font-family="Virgil, Segoe UI Emoji" font-size="18px" fill="#cdd6f4" text-anchor="middle" style="white-space: pre;" direction="ltr">term leader</text></g><g stroke-linecap="round"><g transform="translate(920.5472820858388 171.40271000747765) rotate(0 -324 0)"><path d="M-0.49 -1.09 C-108.37 -1.16, -539.4 0.46, -647.25 0.73 M1.46 0.95 C-106.53 1.06, -539.53 -0.6, -647.81 -1.01" stroke="#3b82f6" stroke-width="2" fill="none"></path></g><g transform="translate(920.5472820858388 171.40271000747765) rotate(0 -324 0)"><path d="M-621.39 -9.92 C-626.88 -7.56, -635.82 -3.64, -646.57 -0.28 M-620.56 -11.17 C-627.86 -8.52, -634.09 -4.9, -648.41 -1.67" stroke="#3b82f6" stroke-width="2" fill="none"></path></g><g transform="translate(920.5472820858388 171.40271000747765) rotate(0 -324 0)"><path d="M-621.47 10.6 C-627.12 6.71, -636.05 4.37, -646.57 -0.28 M-620.63 9.35 C-627.86 6.45, -634.08 4.53, -648.41 -1.67" stroke="#3b82f6" stroke-width="2" fill="none"></path></g></g><g transform="translate(526.1133450130849 148.90271000747765) rotate(0 70.4339370727539 22.5)"><text x="70.4339370727539" y="NaN" font-family="Virgil, Segoe UI Emoji" font-size="18px" fill="#cdd6f4" text-anchor="middle" style="white-space: pre;" direction="ltr">Discovers higher</text><text x="70.4339370727539" y="NaN" font-family="Virgil, Segoe UI Emoji" font-size="18px" fill="#cdd6f4" text-anchor="middle" style="white-space: pre;" direction="ltr">term</text></g></svg>