<svg version="1.1" xmlns="http://www.w3.org/2000/svg" viewBox="0 0 1068.4 940" width="1068.4" height="940">
  <!-- svg-source:excalidraw -->
  
  <defs>
    <style>
      @font-face {
        font-family: "Virgil";
        src: url("https://excalidraw.com/Virgil.woff2");
      }
      @font-face {
        font-family: "Cascadia";
        src: url("https://excalidraw.com/Cascadia.woff2");
      }
    </style>
  </defs>
  <rect x="0" y="0" width="1068.4" height="940" fill="#1e1e2e"></rect><g stroke-linecap="round" transform="translate(10 10) rotate(0 100 25)"><path d="M-0.01 -0.95 L198.98 0.01 L200.19 49.36 L0.14 49.47" stroke="none" stroke-width="0" fill="#5b21b6"></path><path d="M-0.56 0.99 C62.54 -2.3, 123.96 -0.63, 199.35 -0.95 M-0.08 -0.81 C77.1 -0.78, 153.78 -1.51, 200.65 0.87 M200.21 -0.65 C199.82 9.72, 198.99 21.97, 200.84 48.96 M199.65 -0.83 C199.39 17.72, 198.92 37.72, 199.56 49.35 M199.93 49.68 C151.46 51.22, 104.23 50.54, -1.27 49.93 M199.96 49.82 C145.35 50.16, 90.43 50.86, 0.31 49.7 M-0.98 51.77 C1.65 34.51, 1.46 14.64, -1.43 1.73 M-0.14 50.89 C0.53 31.53, -0.5 12.87, -0.77 0.85" stroke="#7c3aed" stroke-width="2" fill="none"></path></g><g transform="translate(67.88005065917969 22.5) rotate(0 42.11994934082031 12.5)"><text x="42.11994934082031" y="NaN" font-family="Virgil, Segoe UI Emoji" font-size="20px" fill="#ffffff" text-anchor="middle" style="white-space: pre;" direction="ltr">Proposer</text></g><g stroke-linecap="round"><g transform="translate(110 60) rotate(0 0 410)"><path d="M-0.95 -0.37 C-1.17 136.21, -0.47 683.48, -0.48 820.31" stroke="#585b70" stroke-width="1.5" fill="none" stroke-dasharray="8 9"></path></g></g><g stroke-linecap="round" transform="translate(10 880) rotate(0 100 25)"><path d="M1.04 1.83 L199.48 0.11 L201.51 48.63 L0.93 48.26" stroke="none" stroke-width="0" fill="#5b21b6"></path><path d="M0.47 0.49 C72.73 -2.13, 141.16 -1.12, 200.92 -0.93 M0.28 0.85 C78.26 -1.16, 155.37 -1.24, 200.25 0.45 M199.39 1.52 C200.67 12.13, 200.98 26.87, 199.58 48.84 M199.61 0.02 C200.15 18.05, 199.45 36.39, 200.39 50.33 M200.4 48.63 C154.1 48.74, 107.05 49.59, -0.63 50.63 M200.9 49.78 C158.58 49.71, 116.72 50.02, -0.44 50.59 M-1.04 51.43 C1.38 38.75, 0.88 28.18, 0.92 -0.64 M-0.64 50.18 C0.32 33.4, 0.7 14.89, 0.56 -0.92" stroke="#7c3aed" stroke-width="2" fill="none"></path></g><g transform="translate(67.88005065917969 892.5) rotate(0 42.11994934082031 12.5)"><text x="42.11994934082031" y="NaN" font-family="Virgil, Segoe UI Emoji" font-size="20px" fill="#ffffff" text-anchor="middle" style="white-space: pre;" direction="ltr">Proposer</text></g><g stroke-linecap="round" transform="translate(290 10) rotate(0 100 25)"><path d="M-1.99 -1.24 L199.21 -1 L198.77 48.55 L1.46 51.99" stroke="none" stroke-width="0" fill="#5b21b6"></path><path d="M-0.19 0.34 C48.05 -0.7, 96.63 -0.84, 198.3 0.65 M0.68 -0.65 C42.24 1.15, 84.47 0.46, 200.37 -0.31 M201.26 -1.26 C201.47 8.41, 198.97 21.39, 201.39 48.63 M199.91 -0.6 C200.12 20.28, 199.55 39.09, 200.61 50.17 M201.46 49.42 C161.22 50.61, 121.4 47.46, 1.07 49.62 M200.07 49.35 C128.87 50.03, 59.02 50.68, 0.26 49.74 M1.02 48.88 C1.66 40.84, 1.31 27.21, -0.4 1.23 M0.63 50.28 C-0.49 33.24, 1.14 16.29, -0.09 0.33" stroke="#7c3aed" stroke-width="2" fill="none"></path></g><g transform="translate(339.80004119873047 22.5) rotate(0 50.19995880126953 12.5)"><text x="50.19995880126953" y="NaN" font-family="Virgil, Segoe UI Emoji" font-size="20px" fill="#ffffff" text-anchor="middle" style="white-space: pre;" direction="ltr">Acceptor 1</text></g><g stroke-linecap="round"><g transform="translate(390 60) rotate(0 0 410)"><path d="M0.01 0.8 C0.02 137.54, -1.18 684.06, -1.05 820.43" stroke="#585b70" stroke-width="1.5" fill="none" stroke-dasharray="8 9"></path></g></g><g stroke-linecap="round" transform="translate(290 880) rotate(0 100 25)"><path d="M-0.65 -1.75 L200.22 -0.21 L199.96 48.97 L1.01 49.83" stroke="none" stroke-width="0" fill="#5b21b6"></path><path d="M-1.18 0.99 C70.43 0.33, 139.67 1.39, 201.11 0.29 M0.07 -0.36 C77.1 0.39, 151.91 0.54, 200.79 0.08 M199.7 0.08 C199.36 21.1, 202.26 40.44, 201.98 50.33 M199.37 -0.67 C199.87 11.06, 199.19 22.02, 199.82 50.76 M201.67 48.38 C149.35 48.23, 99.07 49.5, -0.26 50.25 M200.76 50.89 C120.96 49.86, 42.76 49.7, 0.52 49.25 M-0.88 50.82 C-2.08 38.51, -1.04 24.96, 1.14 -1.48 M-0.53 49.4 C0.58 38.4, 0.22 25.59, 0.94 -0.32" stroke="#7c3aed" stroke-width="2" fill="none"></path></g><g transform="translate(339.80004119873047 892.5) rotate(0 50.19995880126953 12.5)"><text x="50.19995880126953" y="NaN" font-family="Virgil, Segoe UI Emoji" font-size="20px" fill="#ffffff" text-anchor="middle" style="white-space: pre;" direction="ltr">Acceptor 1</text></g><g stroke-linecap="round" transform="translate(570 10) rotate(0 100 25)"><path d="M0.4 -0.87 L200.13 -1.51 L198.9 50.01 L0.54 51.53" stroke="none" stroke-width="0" fill="#5b21b6"></path><path d="M-0.65 -0.49 C61.98 -0.91, 125.22 -0.05, 201.36 1.77 M-0.6 0.8 C63.87 -0.72, 126.54 -0.27, 200.32 0.02 M198.51 -1.93 C199.87 15.98, 198.45 32.2, 200.01 48.57 M199.89 -0.3 C200.46 14.74, 199.62 28.28, 199.64 50.52 M199.96 48.5 C129.84 48.05, 61.77 51.08, 0.3 50.09 M200.29 50.87 C153.82 50.85, 108.74 50.55, 0.58 49.57 M-1.23 48.47 C-1.01 31.23, -1.74 11.37, 0.44 -0.94 M0.25 49.35 C-0.33 33.73, -1.2 17.26, -0.06 -0.26" stroke="#7c3aed" stroke-width="2" fill="none"></path></g><g transform="translate(615.3900451660156 22.5) rotate(0 54.609954833984375 12.5)"><text x="54.609954833984375" y="NaN" font-family="Virgil, Segoe UI Emoji" font-size="20px" fill="#ffffff" text-anchor="middle" style="white-space: pre;" direction="ltr">Acceptor 2</text></g><g stroke-linecap="round"><g transform="translate(670 60) rotate(0 0 410)"><path d="M0.42 -0.98 C0.47 135.74, 0.8 683.61, 0.83 820.37" stroke="#585b70" stroke-width="1.5" fill="none" stroke-dasharray="8 9"></path></g></g><g stroke-linecap="round" transform="translate(570 880) rotate(0 100 25)"><path d="M0.78 -1.88 L200.39 0.69 L200.33 50.95 L0.84 50.22" stroke="none" stroke-width="0" fill="#5b21b6"></path><path d="M-0.3 0.76 C54.03 0.14, 105.19 -0.01, 199.94 -0.23 M-0.72 -0.84 C50.16 0.68, 101.54 0.46, 200.02 0.64 M198.63 1.5 C198.83 15.78, 200.34 27.77, 200.67 49.09 M200.6 -0.04 C199.88 14.79, 199.26 28.72, 199.22 49.11 M200.77 49.06 C138.2 49.2, 76.05 52.41, -1.67 49.88 M200.43 49.3 C145.07 51.35, 91.69 51.84, 0.9 50.84 M1.2 49.97 C-0.26 39.64, -0.08 27.58, -0.76 0.23 M-0.19 50.85 C-0.42 32.59, -0.56 16.21, 0.31 0.22" stroke="#7c3aed" stroke-width="2" fill="none"></path></g><g transform="translate(615.3900451660156 892.5) rotate(0 54.609954833984375 12.5)"><text x="54.609954833984375" y="NaN" font-family="Virgil, Segoe UI Emoji" font-size="20px" fill="#ffffff" text-anchor="middle" style="white-space: pre;" direction="ltr">Acceptor 2</text></g><g stroke-linecap="round" transform="translate(850 10) rotate(0 100 25)"><path d="M-0.01 0.08 L201.35 0.79 L198.93 49.97 L1.17 49.57" stroke="none" stroke-width="0" fill="#5b21b6"></path><path d="M-1.08 1.44 C55.16 1.46, 106.53 -0.54, 199.92 0.72 M-0.61 0.18 C74.83 0.3, 149.88 0.95, 200.55 0.5 M200.27 -0.57 C198.43 14.28, 199.42 31.4, 199.93 51.79 M200.67 0.05 C200.47 19.8, 199.67 40.77, 199.89 49.96 M200.21 50.33 C126.48 49.82, 50.32 51.08, 1.7 48.48 M200.21 50.18 C127.02 50.2, 54.94 50.45, -0.89 50.6 M1.84 48.98 C-1.94 33.31, -2.06 20.11, -0.44 0.95 M0.68 49.93 C0.9 39.01, -0.25 27.48, 0.79 -0.47" stroke="#7c3aed" stroke-width="2" fill="none"></path></g><g transform="translate(895.7000427246094 22.5) rotate(0 54.299957275390625 12.5)"><text x="54.299957275390625" y="NaN" font-family="Virgil, Segoe UI Emoji" font-size="20px" fill="#ffffff" text-anchor="middle" style="white-space: pre;" direction="ltr">Acceptor 3</text></g><g stroke-linecap="round"><g transform="translate(950 60) rotate(0 0 410)"><path d="M-0.42 0.17 C-0.42 136.54, 0.82 682.24, 0.96 818.98" stroke="#585b70" stroke-width="1.5" fill="none" stroke-dasharray="8 9"></path></g></g><g stroke-linecap="round" transform="translate(850 880) rotate(0 100 25)"><path d="M0.98 -0.91 L198.56 0.47 L200.53 50.75 L1.77 50.52" stroke="none" stroke-width="0" fill="#5b21b6"></path><path d="M0.17 -0.14 C60.94 2.7, 119.36 1.1, 199.75 1.72 M-0.71 0.81 C62.29 -0.6, 123.07 -0.6, 199.82 -0.64 M200.38 -0.75 C200.6 13.08, 199.61 21.02, 201 49.12 M200.17 -0.71 C201.38 12.81, 200.41 26.03, 199.74 50.85 M201.6 49.73 C120.24 51.86, 44.86 51.91, -0.68 51.69 M200.5 50.11 C119.74 49.98, 40.18 51.37, 0.73 49.45 M-1.97 51.19 C1.06 31.04, -0.95 9.98, -1.99 -1.24 M-0.31 50.64 C-0.14 33.29, 0.42 18, -0.86 0.09" stroke="#7c3aed" stroke-width="2" fill="none"></path></g><g transform="translate(895.7000427246094 892.5) rotate(0 54.299957275390625 12.5)"><text x="54.299957275390625" y="NaN" font-family="Virgil, Segoe UI Emoji" font-size="20px" fill="#ffffff" text-anchor="middle" style="white-space: pre;" direction="ltr">Acceptor 3</text></g><g stroke-opacity="0.85" fill-opacity="0.85" stroke-linecap="round" transform="translate(434.8 78) rotate(0 95.20000000000002 22)"><path d="M0.39 1.92 L188.72 0.66 L192 42.48 L-1.08 44.88" stroke="none" stroke-width="0" fill="#2d6a4f"></path><path d="M0.14 0.75 C65.14 -2.08, 130.91 0.55, 191.58 0.4 M-0.88 -0.32 C41.46 -0.84, 84.08 -0.55, 190.83 -0.7 M189.72 -0.85 C189.33 9.99, 188.67 24.22, 190.59 43.19 M191.12 0.38 C190.8 16.43, 190.58 32.56, 190.2 44.5 M189.26 42.75 C136.09 43.8, 82.6 43.64, 1.17 42.35 M189.44 44.39 C116.43 44.37, 44.03 44.45, 0.16 43.9 M-1.5 45.79 C-1.34 35.08, 0.47 25.11, -0.9 -0.81 M-0.89 43.36 C0.42 26.15, 0.14 9.72, 0.15 -0.1" stroke="#40916c" stroke-width="2" fill="none"></path></g><g transform="translate(455.7600555419922 90) rotate(0 74.23994445800781 10)"><text x="74.23994445800781" y="NaN" font-family="Virgil, Segoe UI Emoji" font-size="16px" fill="#ffffff" text-anchor="middle" style="white-space: pre;" direction="ltr">Phase 1 -- Prepare</text></g><g stroke-linecap="round"><g transform="translate(110 140) rotate(0 140 0)"><path d="M-0.05 -1.03 C46.68 -0.95, 234.44 -0.47, 280.96 -0.37 M-1.53 1.04 C45.07 1.37, 233.35 1.04, 280.51 0.97" stroke="#cdd6f4" stroke-width="2" fill="none"></path></g><g transform="translate(110 140) rotate(0 140 0)"><path d="M250.61 12.87 C261.65 6.05, 271.39 4.08, 280.89 1.21 M252.73 11.46 C261.4 7.13, 271.47 3.31, 280.1 0.91" stroke="#cdd6f4" stroke-width="2" fill="none"></path></g><g transform="translate(110 140) rotate(0 140 0)"><path d="M250.58 -7.65 C261.48 -7.29, 271.23 -2.09, 280.89 1.21 M252.7 -9.06 C261.52 -6.58, 271.6 -3.59, 280.1 0.91" stroke="#cdd6f4" stroke-width="2" fill="none"></path></g></g><g transform="translate(193.93004608154294 128.75) rotate(0 56.069953918457045 11.25)"><text x="56.06995391845703" y="NaN" font-family="Virgil, Segoe UI Emoji" font-size="18px" fill="#cdd6f4" text-anchor="middle" style="white-space: pre;" direction="ltr">Prepare(n=5)</text></g><g stroke-linecap="round"><g transform="translate(110 220) rotate(0 280 0)"><path d="M1.06 -0.92 C94.33 -0.95, 465.91 -1.07, 559.09 -0.91 M0.15 1.22 C93.84 1.37, 468.12 0.12, 561.32 0.15" stroke="#cdd6f4" stroke-width="2" fill="none"></path></g><g transform="translate(110 220) rotate(0 280 0)"><path d="M531.62 8.94 C538.91 7.72, 547.75 5.74, 560.64 0.51 M532.68 10.56 C540.14 8.52, 548.04 4.31, 560.33 0.14" stroke="#cdd6f4" stroke-width="2" fill="none"></path></g><g transform="translate(110 220) rotate(0 280 0)"><path d="M531.59 -11.58 C538.76 -7.55, 547.61 -4.27, 560.64 0.51 M532.65 -9.96 C540.24 -6.67, 548.15 -5.55, 560.33 0.14" stroke="#cdd6f4" stroke-width="2" fill="none"></path></g></g><g transform="translate(333.93004608154297 208.75) rotate(0 56.06995391845703 11.25)"><text x="56.06995391845703" y="NaN" font-family="Virgil, Segoe UI Emoji" font-size="18px" fill="#cdd6f4" text-anchor="middle" style="white-space: pre;" direction="ltr">Prepare(n=5)</text></g><g stroke-linecap="round"><g transform="translate(110 300) rotate(0 420 0)"><path d="M-0.08 0.31 C139.87 0.19, 699.67 -0.92, 839.58 -0.95 M-1.57 -0.57 C138.19 -0.56, 698.44 -0.26, 838.42 0.09" stroke="#cdd6f4" stroke-width="2" fill="none"></path></g><g transform="translate(110 300) rotate(0 420 0)"><path d="M810.73 9.62 C816.85 6.35, 826.85 5.56, 839.88 1.98 M810.59 9.82 C819.82 5.85, 828.86 3.46, 837.5 0.7" stroke="#cdd6f4" stroke-width="2" fill="none"></path></g><g transform="translate(110 300) rotate(0 420 0)"><path d="M810.76 -10.9 C816.83 -8.21, 826.82 -3.03, 839.88 1.98 M810.61 -10.7 C819.99 -7.59, 829.02 -2.89, 837.5 0.7" stroke="#cdd6f4" stroke-width="2" fill="none"></path></g></g><g transform="translate(473.930046081543 288.75) rotate(0 56.069953918457 11.25)"><text x="56.06995391845703" y="NaN" font-family="Virgil, Segoe UI Emoji" font-size="18px" fill="#cdd6f4" text-anchor="middle" style="white-space: pre;" direction="ltr">Prepare(n=5)</text></g><g stroke-linecap="round"><g transform="translate(390 380) rotate(0 -140 0)"><path d="M-0.68 0.82 C-47.56 1.01, -233.42 0.51, -280.09 0.51" stroke="#cdd6f4" stroke-width="2.5" fill="none" stroke-dasharray="8 10"></path></g><g transform="translate(390 380) rotate(0 -140 0)"><path d="M-250.51 -9.86 C-262.35 -7.01, -273.13 -2.18, -280.61 -0.58" stroke="#cdd6f4" stroke-width="2.5" fill="none"></path></g><g transform="translate(390 380) rotate(0 -140 0)"><path d="M-250.54 10.66 C-262.27 5.32, -273.03 1.95, -280.61 -0.58" stroke="#cdd6f4" stroke-width="2.5" fill="none"></path></g></g><g transform="translate(184.51605224609378 368.75) rotate(0 65.48394775390624 11.25)"><text x="65.48394775390625" y="NaN" font-family="Virgil, Segoe UI Emoji" font-size="18px" fill="#cdd6f4" text-anchor="middle" style="white-space: pre;" direction="ltr">Promise(5, null)</text></g><g stroke-linecap="round"><g transform="translate(670 460) rotate(0 -280 0)"><path d="M-1 -0.04 C-94.09 0.2, -465.93 0.9, -559.22 0.76" stroke="#cdd6f4" stroke-width="2.5" fill="none" stroke-dasharray="8 10"></path></g><g transform="translate(670 460) rotate(0 -280 0)"><path d="M-531.1 -8.22 C-536.6 -8.58, -546.17 -4.62, -557.77 -0.56" stroke="#cdd6f4" stroke-width="2.5" fill="none"></path></g><g transform="translate(670 460) rotate(0 -280 0)"><path d="M-531.09 12.3 C-536.47 7.02, -546.04 6.06, -557.77 -0.56" stroke="#cdd6f4" stroke-width="2.5" fill="none"></path></g></g><g transform="translate(324.51605224609375 448.75) rotate(0 65.48394775390625 11.25)"><text x="65.48394775390625" y="NaN" font-family="Virgil, Segoe UI Emoji" font-size="18px" fill="#cdd6f4" text-anchor="middle" style="white-space: pre;" direction="ltr">Promise(5, null)</text></g><g stroke-opacity="0.85" fill-opacity="0.85" stroke-linecap="round" transform="translate(841.6 478) rotate(0 108.40000000000003 22)"><path d="M-0.52 0.29 L215.44 0.98 L215.79 45.56 L0.82 42.35" stroke="none" stroke-width="0" fill="#2d6a4f"></path><path d="M-1.36 -0.8 C54 -1, 104.95 -2.14, 217.04 -1.66 M-0.48 0.01 C69.76 0.57, 139.4 -0.16, 216.28 0.1 M215.88 0.47 C217.67 16.92, 215.98 33.07, 216.22 43.91 M216.18 -0.42 C217.76 10.07, 217.69 19.11, 216.23 43.81 M218.53 44.29 C166.78 42.39, 117.17 41.68, 1.19 45.08 M216.69 44.68 C154.92 43.82, 92.32 43.9, 0.56 43.99 M1.38 44.19 C-0.13 31.23, -1.51 18.07, -0.84 1.23 M-0.42 44.71 C0.28 32.18, 0.33 22.87, 0.19 -0.45" stroke="#40916c" stroke-width="2" fill="none"></path></g><g transform="translate(862.2720489501953 490) rotate(0 87.72795104980469 10)"><text x="87.72795104980469" y="NaN" font-family="Virgil, Segoe UI Emoji" font-size="16px" fill="#ffffff" text-anchor="middle" style="white-space: pre;" direction="ltr">A3 slow / unreachable</text></g><g stroke-opacity="0.85" fill-opacity="0.85" stroke-linecap="round" transform="translate(439.2 478) rotate(0 90.79999999999998 22)"><path d="M1.08 0.53 L182.64 0.74 L179.77 45.68 L0.38 43.3" stroke="none" stroke-width="0" fill="#2d6a4f"></path><path d="M-0.13 1.86 C44.37 -0.07, 89.14 0.43, 180.76 -1.61 M-0.4 0.71 C65.24 -0.46, 131.52 -0.43, 180.77 0.01 M179.73 -0.85 C180.54 12.64, 181.32 24.2, 180.19 44.62 M181.08 -0.83 C181.38 12.37, 180.68 25.05, 181.79 43.56 M180.27 42.55 C137.43 42.6, 92.42 44.04, 0.53 44.57 M181.35 43.36 C120.23 45.01, 60.53 46.05, -0.46 44.44 M0.7 43.47 C-0.35 34.12, -1.04 24.9, -1.1 1.35 M0.31 43.11 C-0.19 35.17, 0.74 26.34, 0.23 -0.08" stroke="#40916c" stroke-width="2" fill="none"></path></g><g transform="translate(456.31204986572266 490) rotate(0 73.68795013427734 10)"><text x="73.68795013427734" y="NaN" font-family="Virgil, Segoe UI Emoji" font-size="16px" fill="#ffffff" text-anchor="middle" style="white-space: pre;" direction="ltr">Phase 2 -- Accept</text></g><g stroke-linecap="round"><g transform="translate(110 540) rotate(0 140 0)"><path d="M1.16 -0.04 C47.95 -0.16, 234.36 -0.91, 280.8 -0.8 M0.31 -1.11 C47 -1.08, 233.84 0.36, 280.27 0.31" stroke="#cdd6f4" stroke-width="2" fill="none"></path></g><g transform="translate(110 540) rotate(0 140 0)"><path d="M251.97 11.8 C259.39 6.73, 270.41 2.43, 281.14 -0.29 M252.22 9.74 C262.94 7.71, 273.4 3.8, 280.19 1.04" stroke="#cdd6f4" stroke-width="2" fill="none"></path></g><g transform="translate(110 540) rotate(0 140 0)"><path d="M252.05 -8.72 C259.42 -7.49, 270.42 -5.48, 281.14 -0.29 M252.3 -10.78 C262.96 -5.4, 273.39 -1.9, 280.19 1.04" stroke="#cdd6f4" stroke-width="2" fill="none"></path></g></g><g transform="translate(179.91705322265628 528.75) rotate(0 70.08294677734374 11.25)"><text x="70.08294677734375" y="NaN" font-family="Virgil, Segoe UI Emoji" font-size="18px" fill="#cdd6f4" text-anchor="middle" style="white-space: pre;" direction="ltr">Accept(5, v="X")</text></g><g stroke-linecap="round"><g transform="translate(110 620) rotate(0 280 0)"><path d="M-0.17 -0.24 C93.09 -0.27, 466.92 0.67, 560.33 0.67 M-1.71 -1.41 C91.35 -1.86, 465.99 -1.5, 559.56 -1.1" stroke="#cdd6f4" stroke-width="2" fill="none"></path></g><g transform="translate(110 620) rotate(0 280 0)"><path d="M530.95 9.65 C542.7 5.89, 551.53 3.05, 558.76 -0.55 M531.62 8.9 C540.41 5.75, 550.59 1.43, 560.46 -1.03" stroke="#cdd6f4" stroke-width="2" fill="none"></path></g><g transform="translate(110 620) rotate(0 280 0)"><path d="M530.99 -10.87 C542.88 -7.13, 551.69 -2.47, 558.76 -0.55 M531.66 -11.63 C540.36 -7.59, 550.52 -4.72, 560.46 -1.03" stroke="#cdd6f4" stroke-width="2" fill="none"></path></g></g><g transform="translate(319.91705322265625 608.75) rotate(0 70.08294677734375 11.25)"><text x="70.08294677734375" y="NaN" font-family="Virgil, Segoe UI Emoji" font-size="18px" fill="#cdd6f4" text-anchor="middle" style="white-space: pre;" direction="ltr">Accept(5, v="X")</text></g><g stroke-linecap="round"><g transform="translate(390 700) rotate(0 -140 0)"><path d="M-0.24 -0.65 C-46.89 -0.71, -233.64 0.43, -280.21 0.61" stroke="#cdd6f4" stroke-width="2.5" fill="none" stroke-dasharray="8 10"></path></g><g transform="translate(390 700) rotate(0 -140 0)"><path d="M-253.15 -10.13 C-258.63 -6.4, -266.6 -4.82, -281.66 0.9" stroke="#cdd6f4" stroke-width="2.5" fill="none"></path></g><g transform="translate(390 700) rotate(0 -140 0)"><path d="M-253.05 10.39 C-258.72 8.54, -266.72 4.52, -281.66 0.9" stroke="#cdd6f4" stroke-width="2.5" fill="none"></path></g></g><g transform="translate(180.1330490112305 688.75) rotate(0 69.86695098876952 11.25)"><text x="69.86695098876953" y="NaN" font-family="Virgil, Segoe UI Emoji" font-size="18px" fill="#cdd6f4" text-anchor="middle" style="white-space: pre;" direction="ltr">Accepted(5, "X")</text></g><g stroke-linecap="round"><g transform="translate(670 780) rotate(0 -280 0)"><path d="M0.87 0.29 C-92.41 0.29, -466.44 -0.32, -559.95 -0.27" stroke="#cdd6f4" stroke-width="2.5" fill="none" stroke-dasharray="8 10"></path></g><g transform="translate(670 780) rotate(0 -280 0)"><path d="M-531.27 -10.42 C-540.05 -7.76, -546.49 -3.54, -560.4 -1.59" stroke="#cdd6f4" stroke-width="2.5" fill="none"></path></g><g transform="translate(670 780) rotate(0 -280 0)"><path d="M-531.29 10.1 C-540.01 7.06, -546.44 5.58, -560.4 -1.59" stroke="#cdd6f4" stroke-width="2.5" fill="none"></path></g></g><g transform="translate(320.13304901123047 768.75) rotate(0 69.86695098876953 11.25)"><text x="69.86695098876953" y="NaN" font-family="Virgil, Segoe UI Emoji" font-size="18px" fill="#cdd6f4" text-anchor="middle" style="white-space: pre;" direction="ltr">Accepted(5, "X")</text></g><g stroke-opacity="0.85" fill-opacity="0.85" stroke-linecap="round" transform="translate(338 798) rotate(0 192 22)"><path d="M-1.83 1.79 L385.22 -1.15 L385.75 43.6 L1.26 43.65" stroke="none" stroke-width="0" fill="#2d6a4f"></path><path d="M-0.19 -0.38 C80.34 -1.75, 158.39 0.1, 384.5 -0.05 M-0.31 0.08 C91.56 1.64, 182.97 1.58, 383.8 0.51 M384.51 -1.26 C384.02 13.68, 381.92 23.54, 383.52 43.55 M384.43 -0.06 C383.15 11.32, 384.26 23.88, 384.51 43.9 M382.95 43.16 C230.88 42.03, 79.47 42.93, 0.82 44.41 M384.13 43.46 C269.76 45.72, 154.26 45.31, 0.01 44.4 M0.09 44.71 C-2.18 35.51, -2.22 24.45, 0.24 1.21 M-0.7 44.55 C0.97 31.12, 0.64 20.05, -0.75 0.03" stroke="#40916c" stroke-width="2" fill="none"></path></g><g transform="translate(370.7760925292969 810) rotate(0 159.22390747070312 10)"><text x="159.22390747070312" y="NaN" font-family="Virgil, Segoe UI Emoji" font-size="16px" fill="#ffffff" text-anchor="middle" style="white-space: pre;" direction="ltr">Majority accepted -- value "X" is chosen</text></g></svg>