<svg version="1.1" xmlns="http://www.w3.org/2000/svg" viewBox="0 0 1550.1585724923664 982.5" width="1550.1585724923664" height="982.5">
  <!-- svg-source:excalidraw -->
  
  <defs>
    <style>
      @font-face {
        font-family: "Virgil";
        src: url("https://excalidraw.com/Virgil.woff2");
      }
      @font-face {
        font-family: "Cascadia";
        src: url("https://excalidraw.com/Cascadia.woff2");
      }
    </style>
  </defs>
  <rect x="0" y="0" width="1550.1585724923664" height="982.5" fill="#0d1117"></rect><g transform="translate(10.158572492366375 10) rotate(0 484.12774658203125 15)"><text x="0" y="NaN" font-family="Virgil, Segoe UI Emoji" font-size="24px" fill="#ff8c42" text-anchor="start" style="white-space: pre;" direction="ltr">Paxos Safety: A New Proposer Must Adopt the Highest-Numbered Accepted Value</text></g><g transform="translate(10.158572492366375 47) rotate(0 282.3868408203125 31.875)"><text x="0" y="NaN" font-family="Virgil, Segoe UI Emoji" font-size="17px" fill="#c9d1d9" text-anchor="start" style="white-space: pre;" direction="ltr">If any acceptor has accepted a value in an earlier round, the new</text><text x="0" y="NaN" font-family="Virgil, Segoe UI Emoji" font-size="17px" fill="#c9d1d9" text-anchor="start" style="white-space: pre;" direction="ltr">proposer is forced to propose that value — not its own. This rule</text><text x="0" y="NaN" font-family="Virgil, Segoe UI Emoji" font-size="17px" fill="#c9d1d9" text-anchor="start" style="white-space: pre;" direction="ltr">is what prevents two rounds from ever choosing different values.</text></g><g stroke-linecap="round" transform="translate(120.15857249236637 145) rotate(0 100 33)"><path d="M-0.95 -1.56 L200.23 -0.65 L201.56 67.31 L-1.04 67.39" stroke="none" stroke-width="0" fill="#3a1d6e"></path><path d="M-1.73 0.48 C79.03 -0.4, 161.3 -0.67, 198.78 1.8 M-0.77 0.81 C42.78 -1.42, 84.83 -1.16, 200.16 -0.3 M201.34 1.29 C200.31 18.98, 200.82 40.03, 201.74 67.01 M200.39 -0.41 C200.3 19.81, 200.1 40.47, 199.68 65.42 M198.9 64.28 C136.11 66.47, 74.27 67.6, 0.55 65.12 M199.47 66.43 C154.1 65.52, 109.84 67.18, -0.75 66.39 M1.57 64.52 C0.45 49.71, 0.67 32.51, 1.5 -1.86 M-0.34 66.7 C1.02 46.21, 1.06 26.26, 0.1 -0.71" stroke="#a371f7" stroke-width="2" fill="none"></path></g><g transform="translate(151.1811097238117 167.375) rotate(0 68.97746276855469 10.625)"><text x="68.97746276855469" y="NaN" font-family="Virgil, Segoe UI Emoji" font-size="17px" fill="#ffffff" text-anchor="middle" style="white-space: pre;" direction="ltr">P1 (old proposer)</text></g><g stroke-linecap="round"><g transform="translate(220.15857249236637 213) rotate(0 -0.14866171159343367 346.867137817256)"><path d="M-0.73 -0.12 C-1.07 115.79, -1.38 579.04, -1.24 694.76" stroke="#8b949e" stroke-width="2.5" fill="none" stroke-dasharray="8 10"></path></g></g><g stroke-linecap="round" transform="translate(400.1585724923664 145) rotate(0 100 33)"><path d="M-0.94 -0.77 L201.64 1.22 L200.36 64.15 L-0.03 64.71" stroke="none" stroke-width="0" fill="#0d2c5a"></path><path d="M0.07 -0.88 C51.62 -3.23, 107.88 -2.22, 201.41 -0.71 M0.55 0.05 C61.14 0.44, 123.05 -0.02, 200.16 0.56 M199.37 1.58 C200.94 26.77, 200.81 51.72, 201.03 66.05 M200.51 -0.84 C199.35 18.42, 199.68 37.23, 199.74 65.67 M201.32 64.27 C139.01 64.23, 82.5 63.82, 0.27 64.97 M200.57 65.48 C151.04 67.55, 102.78 66.77, -0.47 66.86 M1.85 67.23 C-1.25 45.04, -0.79 25.15, 0.58 0.92 M0.5 66.9 C-0.01 51.61, 0.61 39.19, -0.74 0.53" stroke="#58a6ff" stroke-width="2" fill="none"></path></g><g transform="translate(451.91259318328434 167.375) rotate(0 48.24597930908203 10.625)"><text x="48.24597930908203" y="NaN" font-family="Virgil, Segoe UI Emoji" font-size="17px" fill="#ffffff" text-anchor="middle" style="white-space: pre;" direction="ltr">Acceptor A1</text></g><g stroke-linecap="round"><g transform="translate(500.1585724923664 212.84638289802012) rotate(0 -0.5723475896347168 349.11936274789633)"><path d="M0.11 -0.87 C-0.23 115.33, -1.27 581.31, -1.32 697.73" stroke="#8b949e" stroke-width="2.5" fill="none" stroke-dasharray="8 10"></path></g></g><g stroke-linecap="round" transform="translate(690.1585724923664 145) rotate(0 100 33)"><path d="M0.75 -1.02 L201.08 1.34 L201.17 65.02 L1.64 65.6" stroke="none" stroke-width="0" fill="#0d2c5a"></path><path d="M-1.6 1.72 C67.26 1.82, 138.21 -0.65, 199.02 -0.05 M-0.16 0.63 C42.61 1.59, 87.07 1.41, 200.6 0.19 M199.63 1.11 C199.3 15.52, 197.84 30.39, 201.67 67.87 M200.25 0.63 C199.34 19.5, 200.65 37.01, 200.25 66.74 M200.2 66.76 C134.44 65.74, 65.82 65.44, -0.38 64.29 M200.11 65.77 C123.65 65.99, 47.71 66.03, 0.12 66.37 M1.8 66.39 C1.08 43.95, -2.06 21.01, 0.96 -1.56 M0.59 65.43 C-0.12 49, 0.31 29.28, 0.97 0.8" stroke="#58a6ff" stroke-width="2" fill="none"></path></g><g transform="translate(738.164096174007 167.375) rotate(0 51.994476318359375 10.625)"><text x="51.994476318359375" y="NaN" font-family="Virgil, Segoe UI Emoji" font-size="17px" fill="#ffffff" text-anchor="middle" style="white-space: pre;" direction="ltr">Acceptor A2</text></g><g stroke-linecap="round"><g transform="translate(790.1585724923664 213) rotate(0 -0.17839405391214314 351.6887326632694)"><path d="M-0.18 -0.03 C-0.48 117.19, -0.66 586.37, -0.81 703.64" stroke="#8b949e" stroke-width="2.5" fill="none" stroke-dasharray="8 10"></path></g></g><g stroke-linecap="round" transform="translate(980.1585724923664 145) rotate(0 100 33)"><path d="M0.62 1.32 L200.29 -0.89 L200.63 65.4 L-0.85 66.29" stroke="none" stroke-width="0" fill="#0d2c5a"></path><path d="M1.53 0.79 C56.59 -2.78, 114.28 -2.41, 199.21 0.26 M-0.13 -0.59 C39.63 0.8, 80.31 2.01, 200.15 -0.73 M199.75 0.71 C200.52 24.85, 198.44 48.31, 200.67 67.9 M200.35 0.77 C200.57 25.88, 198.98 52.09, 200.17 66.29 M200.45 67.75 C122.58 65.95, 45.58 65.14, 1.52 65.98 M200.08 65.58 C158.92 66.53, 118.89 66.54, -0.63 65.66 M0.33 64.15 C-0.2 51.72, 1.86 36.43, -0.94 -0.47 M-0.07 66.67 C0.16 41.58, -0.86 18.44, -0.27 0.19" stroke="#58a6ff" stroke-width="2" fill="none"></path></g><g transform="translate(1028.4275925729328 167.375) rotate(0 51.730979919433594 10.625)"><text x="51.730979919433594" y="NaN" font-family="Virgil, Segoe UI Emoji" font-size="17px" fill="#ffffff" text-anchor="middle" style="white-space: pre;" direction="ltr">Acceptor A3</text></g><g stroke-linecap="round"><g transform="translate(1080.1585724923664 213) rotate(0 1.5064386774799914 355.58366950701713)"><path d="M-0.43 0.04 C0.06 118.35, 3.05 592.52, 3.71 710.87" stroke="#8b949e" stroke-width="2.5" fill="none" stroke-dasharray="8 10"></path></g></g><g stroke-linecap="round" transform="translate(1270.1585724923664 145) rotate(0 100 33)"><path d="M0.53 0.07 L201.47 -1.75 L200.83 64.68 L0.2 64.57" stroke="none" stroke-width="0" fill="#3a1d6e"></path><path d="M1.55 1.12 C68.73 0.31, 138.56 0.04, 198.79 1.3 M0.02 -0.21 C50.36 1.86, 99.33 1.35, 200.19 -0.09 M201.04 -1.91 C199.49 18.87, 201 39.95, 200.28 64.99 M200.76 -0.75 C198.8 17.07, 198.96 33.86, 200.19 66.75 M200.9 66.81 C136.89 67.91, 73.81 66.69, -0.01 64.66 M199.79 65.19 C159.67 67.94, 117.83 66.35, -0.71 66.12 M0.97 65.96 C0.12 40.3, 0.31 12.35, -1.79 0.46 M-0.61 66.31 C0.03 52.82, 0.16 38.58, 0.98 0.08" stroke="#a371f7" stroke-width="2" fill="none"></path></g><g transform="translate(1295.4181092355304 167.375) rotate(0 74.74046325683594 10.625)"><text x="74.74046325683594" y="NaN" font-family="Virgil, Segoe UI Emoji" font-size="17px" fill="#ffffff" text-anchor="middle" style="white-space: pre;" direction="ltr">P2 (new proposer)</text></g><g stroke-linecap="round"><g transform="translate(1370.1585724923664 213) rotate(0 0 356.8943702642325)"><path d="M0.38 0.88 C0.17 119.97, -1.29 595.12, -1.19 713.96" stroke="#8b949e" stroke-width="2.5" fill="none" stroke-dasharray="8 10"></path></g></g><g stroke-opacity="0.4" fill-opacity="0.4" stroke-linecap="round" transform="translate(10.158572492366375 233) rotate(0 740 115)"><path d="M-0.95 -1.22 L1481.67 0.75 L1479.76 229.89 L-0.23 230.59" stroke="none" stroke-width="0" fill="#161b22"></path><path d="M-0.73 -0.27 C397.51 -2.49, 794.88 -1.31, 1480.4 -0.2 M1481.53 1.11 C1483.22 60.75, 1482.55 124.62, 1481.13 231.54 M1479.3 229.76 C982.23 227.84, 483.31 226.87, 0.45 230.7 M0.79 230.04 C-0.06 153.07, -1.45 71.93, -1.15 1.41" stroke="#30363d" stroke-width="2.5" fill="none" stroke-dasharray="8 10"></path></g><g transform="translate(30.158572492366375 239) rotate(0 331.9647216796875 9.375)"><text x="0" y="NaN" font-family="Virgil, Segoe UI Emoji" font-size="15px" fill="#e6edf3" text-anchor="start" style="white-space: pre;" direction="ltr">Phase A — old proposer P1 runs n=5, A1 accepts "X" before A2/A3 vote, then P1 crashes</text></g><g stroke-linecap="round"><g transform="translate(220.15857249236637 285) rotate(0 140 0)"><path d="M-0.78 -0.79 C45.96 -1, 234.09 -0.84, 280.87 -0.77 M1 1.41 C47.63 1.3, 234.03 0.47, 280.38 0.36" stroke="#3fb950" stroke-width="2" fill="none"></path></g><g transform="translate(220.15857249236637 285) rotate(0 140 0)"><path d="M250.91 12.18 C260.37 7.28, 270.51 2.22, 282.05 2.1 M253.2 10.67 C260.44 7.1, 268.73 5.05, 279.52 0.99" stroke="#3fb950" stroke-width="2" fill="none"></path></g><g transform="translate(220.15857249236637 285) rotate(0 140 0)"><path d="M250.84 -8.34 C260.4 -6.34, 270.57 -4.51, 282.05 2.1 M253.13 -9.85 C260.3 -7.52, 268.61 -3.67, 279.52 0.99" stroke="#3fb950" stroke-width="2" fill="none"></path></g></g><g stroke-linecap="round"><g transform="translate(220.15857249236637 285) rotate(0 285 0)"><path d="M0.28 -0.55 C95.27 -0.23, 474.3 0.89, 569.31 1.17 M-1.04 1.77 C94.41 1.85, 476.53 0.05, 571.66 -0.34" stroke="#3fb950" stroke-width="2" fill="none"></path></g><g transform="translate(220.15857249236637 285) rotate(0 285 0)"><path d="M542.59 8.9 C552.43 7.98, 559.3 3.45, 570.47 -1.61 M542.69 9.18 C552.12 7.74, 558.9 4.93, 571.46 -0.68" stroke="#3fb950" stroke-width="2" fill="none"></path></g><g transform="translate(220.15857249236637 285) rotate(0 285 0)"><path d="M542.5 -11.62 C552.24 -7.51, 559.12 -7, 570.47 -1.61 M542.6 -11.34 C552.25 -7.07, 559.06 -4.16, 571.46 -0.68" stroke="#3fb950" stroke-width="2" fill="none"></path></g></g><g stroke-linecap="round"><g transform="translate(220.15857249236637 285) rotate(0 430 0)"><path d="M-0.87 -0.93 C142.22 -0.95, 715.53 0.76, 859 0.76 M0.88 1.2 C144.3 0.76, 718.14 -0.75, 861.19 -0.97" stroke="#3fb950" stroke-width="2" fill="none"></path></g><g transform="translate(220.15857249236637 285) rotate(0 430 0)"><path d="M831.47 7.69 C843.7 5.95, 850.42 2.59, 861.12 -0.54 M832.78 10.23 C842.04 6.82, 850.1 2.57, 860.27 -1.89" stroke="#3fb950" stroke-width="2" fill="none"></path></g><g transform="translate(220.15857249236637 285) rotate(0 430 0)"><path d="M831.43 -12.83 C843.83 -7.64, 850.56 -4.09, 861.12 -0.54 M832.74 -10.29 C842.19 -7.73, 850.27 -5.99, 860.27 -1.89" stroke="#3fb950" stroke-width="2" fill="none"></path></g></g><g transform="translate(280.1585724923664 263) rotate(0 62.09693908691406 8.75)"><text x="0" y="NaN" font-family="Virgil, Segoe UI Emoji" font-size="14px" fill="#3fb950" text-anchor="start" style="white-space: pre;" direction="ltr">Accept(n=5, v="X")</text></g><g stroke-linecap="round"><g transform="translate(500.1585724923664 335) rotate(0 -140 0)"><path d="M0.41 -0.97 C-46.04 -1.07, -232.93 -0.9, -279.55 -0.89 M-0.83 1.13 C-47.33 1.18, -233.78 0.38, -280.26 0.19" stroke="#3fb950" stroke-width="2" fill="none"></path></g><g transform="translate(500.1585724923664 335) rotate(0 -140 0)"><path d="M-253.65 -9.21 C-260.05 -6.39, -266.56 -6.51, -281.88 0.04 M-252.92 -10.89 C-257.73 -6.6, -264.19 -5.84, -279.47 -0.62" stroke="#3fb950" stroke-width="2" fill="none"></path></g><g transform="translate(500.1585724923664 335) rotate(0 -140 0)"><path d="M-253.73 11.31 C-260.07 9.39, -266.56 4.53, -281.88 0.04 M-253 9.63 C-257.79 9.49, -264.24 5.83, -279.47 -0.62" stroke="#3fb950" stroke-width="2" fill="none"></path></g></g><g transform="translate(260.1585724923664 313) rotate(0 54.34095001220703 8.75)"><text x="0" y="NaN" font-family="Virgil, Segoe UI Emoji" font-size="14px" fill="#3fb950" text-anchor="start" style="white-space: pre;" direction="ltr">Accepted(5, "X")</text></g><g stroke-linecap="round" transform="translate(414.1585724923664 355) rotate(0 86 25)"><path d="M-1.23 0.95 L170.42 -0.98 L170.11 49.51 L-0.17 49.2" stroke="none" stroke-width="0" fill="#3a5d1d"></path><path d="M1.33 1.48 C66.67 -2.23, 133.45 1.19, 170.97 1.49 M-0.38 -0.38 C59.61 0.65, 118.37 -0.59, 171.6 0.05 M171.89 -0.29 C170.8 15.24, 172.63 33.28, 172.57 48.84 M171.34 0.91 C172.21 12.22, 172.89 24.71, 171.62 49.94 M171.21 51.27 C112.89 50.8, 53.13 50.07, 0.37 49.68 M172.67 49.74 C129.92 50.61, 89.44 49.94, -0.65 50.69 M-0.03 48.37 C1.26 36.5, -1.44 20.19, 0.79 0.75 M0.7 49.11 C-0.66 39.33, -0.51 28.31, -0.18 1" stroke="#6dbf3a" stroke-width="2" fill="none"></path></g><g transform="translate(422.1585724923664 363) rotate(0 74.21691131591797 16.25)"><text x="0" y="NaN" font-family="Virgil, Segoe UI Emoji" font-size="13px" fill="#3fb950" text-anchor="start" style="white-space: pre;" direction="ltr">A1 stores</text><text x="0" y="NaN" font-family="Virgil, Segoe UI Emoji" font-size="13px" fill="#3fb950" text-anchor="start" style="white-space: pre;" direction="ltr">lastAccepted = (5, "X")</text></g><g stroke-linecap="round" transform="translate(704.1585724923664 355) rotate(0 86 25)"><path d="M-1.62 0.19 L172.78 1.92 L173.38 49.78 L0.12 48.2" stroke="none" stroke-width="0" fill="#21262d"></path><path d="M-0.1 -1.82 C36.33 -1.16, 74.95 -0.58, 173.8 -1.1 M0.16 -0.22 C40.49 0.16, 80.97 -0.86, 171.11 0.37 M170.31 0.61 C171.21 14.35, 172.77 25.28, 173.67 50.35 M172.64 -0.62 C171.95 16.3, 171.25 31.97, 172.59 49.51 M171.47 50.7 C107.38 48.37, 45.7 48.45, 0.4 48.45 M171.74 49.06 C124.39 49.97, 77.36 50.23, -0.45 49.34 M0.77 48.93 C-0.36 33.41, -0.12 11.23, -0.62 0.58 M-0.77 49.88 C-1.12 32.39, 0.23 14.73, 0.59 -0.34" stroke="#8b949e" stroke-width="2" fill="none"></path></g><g transform="translate(712.1585724923664 363) rotate(0 62.38042449951172 16.25)"><text x="0" y="NaN" font-family="Virgil, Segoe UI Emoji" font-size="13px" fill="#8b949e" text-anchor="start" style="white-space: pre;" direction="ltr">no accept</text><text x="0" y="NaN" font-family="Virgil, Segoe UI Emoji" font-size="13px" fill="#8b949e" text-anchor="start" style="white-space: pre;" direction="ltr">lastAccepted = null</text></g><g stroke-linecap="round" transform="translate(994.1585724923664 355) rotate(0 86 25)"><path d="M0.3 1.04 L173.3 1.81 L171.99 51.59 L-0.49 48.55" stroke="none" stroke-width="0" fill="#21262d"></path><path d="M1.89 -1.44 C47.53 -0.22, 95.53 0.61, 172.41 0.16 M-0.36 -0.87 C64.51 -0.78, 129.78 0.14, 172.19 0.1 M172.2 -0.15 C171.04 17.64, 169.85 32.83, 170.12 50.57 M171.78 -0.21 C172.88 14.94, 171.55 29.06, 172.38 50.03 M171.22 51.8 C118.5 50.65, 66.54 50.62, 1.54 48.14 M172.37 49.43 C114.26 48.89, 55.07 49.07, 0.3 50.14 M0.71 48.57 C-1.94 41.17, -0.26 30.88, -0.44 0.72 M0.92 50.77 C0.14 38.08, 0.83 24.2, -0.72 -0.83" stroke="#8b949e" stroke-width="2" fill="none"></path></g><g transform="translate(1002.1585724923664 363) rotate(0 62.38042449951172 16.25)"><text x="0" y="NaN" font-family="Virgil, Segoe UI Emoji" font-size="13px" fill="#8b949e" text-anchor="start" style="white-space: pre;" direction="ltr">no accept</text><text x="0" y="NaN" font-family="Virgil, Segoe UI Emoji" font-size="13px" fill="#8b949e" text-anchor="start" style="white-space: pre;" direction="ltr">lastAccepted = null</text></g><g stroke-linecap="round" transform="translate(130.15857249236637 425) rotate(0 90 25)"><path d="M0.77 0.49 L180.38 -1.77 L179.35 48.33 L-1.51 48.51" stroke="none" stroke-width="0" fill="#4a1219"></path><path d="M1.47 1.7 C50.8 -1.82, 100.47 0.32, 178.1 1.18 M181.52 -1.96 C178.93 16.14, 179.64 30.49, 181.74 50.61 M180.63 51.62 C122.73 52.62, 66.08 50.8, 1.02 50.94 M0.33 50.07 C-1.27 32.85, -0.21 16.39, -1.63 -0.72" stroke="#f85149" stroke-width="2.5" fill="none" stroke-dasharray="8 10"></path></g><g transform="translate(172.0996201608234 435) rotate(0 52.05895233154297 17.5)"><text x="52.05895233154297" y="NaN" font-family="Virgil, Segoe UI Emoji" font-size="14px" fill="#f85149" text-anchor="middle" style="white-space: pre;" direction="ltr">P1 CRASHES</text><text x="52.05895233154297" y="NaN" font-family="Virgil, Segoe UI Emoji" font-size="14px" fill="#f85149" text-anchor="middle" style="white-space: pre;" direction="ltr">before majority</text></g><g stroke-opacity="0.4" fill-opacity="0.4" stroke-linecap="round" transform="translate(10 515.3043231301449) rotate(0 740 204.3681322253555)"><path d="M-0.31 -1.02 L1480.58 1.83 L1481.18 407.33 L-1.33 407.79" stroke="none" stroke-width="0" fill="#161b22"></path><path d="M0.3 0.66 C522.87 -4.36, 1045.3 -4.33, 1479.61 -0.56 M1479.46 -0.88 C1481.32 157.23, 1480.71 314.65, 1478.94 407.76 M1479.58 408.47 C1021.61 409.68, 563.85 409.44, -0.05 409.27 M1.07 408.28 C-2.05 277.75, -2.14 146.22, -0.99 -0.56" stroke="#30363d" stroke-width="2.5" fill="none" stroke-dasharray="8 10"></path></g><g transform="translate(30.158572492366375 535.9574125028702) rotate(0 247.0723114013672 9.375)"><text x="0" y="NaN" font-family="Virgil, Segoe UI Emoji" font-size="15px" fill="#e6edf3" text-anchor="start" style="white-space: pre;" direction="ltr">Phase B — new proposer P2 picks n=10 and WANTS to propose "Y"</text></g><g stroke-linecap="round"><g transform="translate(1370.1585724923664 595) rotate(0 -435 0)"><path d="M-0.42 -1.04 C-145.81 -1.29, -726.32 -0.67, -871.18 -0.41 M1.57 1.03 C-143.58 1.46, -723.8 1.35, -869.09 0.91" stroke="#58a6ff" stroke-width="2" fill="none"></path></g><g transform="translate(1370.1585724923664 595) rotate(0 -435 0)"><path d="M-842.63 -11.29 C-852.73 -4.7, -862.49 -0.63, -869.4 0.24 M-841.56 -10.17 C-847.7 -5.7, -855.77 -4.51, -869.33 1.26" stroke="#58a6ff" stroke-width="2" fill="none"></path></g><g transform="translate(1370.1585724923664 595) rotate(0 -435 0)"><path d="M-842.65 9.23 C-852.93 7.64, -862.68 3.53, -869.4 0.24 M-841.59 10.35 C-847.6 9.54, -855.66 5.43, -869.33 1.26" stroke="#58a6ff" stroke-width="2" fill="none"></path></g></g><g stroke-linecap="round"><g transform="translate(1370.1585724923664 595) rotate(0 -290 0)"><path d="M0.98 0.93 C-95.85 0.9, -484.34 0.89, -580.99 0.86 M0.04 0.38 C-96.43 0.53, -482.27 -0.56, -578.8 -0.81" stroke="#58a6ff" stroke-width="2" fill="none"></path></g><g transform="translate(1370.1585724923664 595) rotate(0 -290 0)"><path d="M-549.03 -12.65 C-557.6 -5.88, -566.25 -5.51, -579.91 1.01 M-550.02 -10.47 C-560.46 -6.87, -570.73 -3.26, -579.39 -0.42" stroke="#58a6ff" stroke-width="2" fill="none"></path></g><g transform="translate(1370.1585724923664 595) rotate(0 -290 0)"><path d="M-549.08 7.88 C-557.82 8.43, -566.45 2.58, -579.91 1.01 M-550.07 10.05 C-560.62 6, -570.87 1.96, -579.39 -0.42" stroke="#58a6ff" stroke-width="2" fill="none"></path></g></g><g stroke-linecap="round"><g transform="translate(1370.1585724923664 595) rotate(0 -145 0)"><path d="M0.19 0.04 C-48.02 -0.13, -241.77 -1.08, -290.19 -0.89 M-1.17 -0.99 C-49.47 -1.04, -242.89 0.11, -291.23 0.18" stroke="#58a6ff" stroke-width="2" fill="none"></path></g><g transform="translate(1370.1585724923664 595) rotate(0 -145 0)"><path d="M-263.02 -10.5 C-270.72 -8.4, -273.43 -6.44, -289.89 1.84 M-262.59 -9.43 C-271.08 -6.63, -278.56 -4.07, -291.8 0.41" stroke="#58a6ff" stroke-width="2" fill="none"></path></g><g transform="translate(1370.1585724923664 595) rotate(0 -145 0)"><path d="M-262.94 10.02 C-270.68 7.63, -273.41 5.09, -289.89 1.84 M-262.51 11.09 C-271.04 8.58, -278.54 5.83, -291.8 0.41" stroke="#58a6ff" stroke-width="2" fill="none"></path></g></g><g transform="translate(1140.1585724923664 573) rotate(0 45.9969482421875 8.75)"><text x="0" y="NaN" font-family="Virgil, Segoe UI Emoji" font-size="14px" fill="#58a6ff" text-anchor="start" style="white-space: pre;" direction="ltr">Prepare(n=10)</text></g><g stroke-linecap="round"><g transform="translate(500.1585724923664 655) rotate(0 435 0)"><path d="M0.05 -0.54 C144.81 -0.39, 724.47 0.21, 869.6 0.48 M-1.39 1.79 C143.09 1.61, 723.13 -0.98, 868.45 -1.39" stroke="#58a6ff" stroke-width="2" fill="none"></path></g><g transform="translate(500.1585724923664 655) rotate(0 435 0)"><path d="M839.39 8.31 C852.02 6.32, 863.9 2, 867.83 -1 M840.87 7.98 C849.91 5.2, 859.93 0.74, 867.85 -1.69" stroke="#58a6ff" stroke-width="2" fill="none"></path></g><g transform="translate(500.1585724923664 655) rotate(0 435 0)"><path d="M839.32 -12.21 C851.9 -6.26, 863.82 -2.64, 867.83 -1 M840.79 -12.54 C849.69 -8.3, 859.74 -5.75, 867.85 -1.69" stroke="#58a6ff" stroke-width="2" fill="none"></path></g></g><g transform="translate(550.1585724923664 633) rotate(0 122.31788635253906 8.75)"><text x="0" y="NaN" font-family="Virgil, Segoe UI Emoji" font-size="14px" fill="#58a6ff" text-anchor="start" style="white-space: pre;" direction="ltr">Promise(10, lastAccepted = (5, "X"))</text></g><g stroke-linecap="round"><g transform="translate(790.1585724923664 687) rotate(0 290 0)"><path d="M-0.48 -0.97 C96.18 -1.06, 482.99 -1.2, 579.57 -1.05 M1.46 1.13 C97.97 1.2, 481.74 -0.07, 578.4 -0.07" stroke="#58a6ff" stroke-width="2" fill="none"></path></g><g transform="translate(790.1585724923664 687) rotate(0 290 0)"><path d="M548.61 9.53 C555.98 6.02, 564.98 4.54, 576.78 -0.36 M550.1 10.71 C560.47 6.87, 572.1 2.18, 577.48 0.58" stroke="#58a6ff" stroke-width="2" fill="none"></path></g><g transform="translate(790.1585724923664 687) rotate(0 290 0)"><path d="M548.57 -10.99 C555.86 -9.07, 564.87 -5.12, 576.78 -0.36 M550.06 -9.82 C560.45 -5.95, 572.09 -2.94, 577.48 0.58" stroke="#58a6ff" stroke-width="2" fill="none"></path></g></g><g transform="translate(840.1585724923664 665) rotate(0 53.318946838378906 8.75)"><text x="0" y="NaN" font-family="Virgil, Segoe UI Emoji" font-size="14px" fill="#58a6ff" text-anchor="start" style="white-space: pre;" direction="ltr">Promise(10, null)</text></g><g stroke-linecap="round" transform="translate(1200.1585724923664 715) rotate(0 170 65)"><path d="M0.95 -0.23 L340.82 -0.13 L340.51 130.33 L1.72 129.34" stroke="none" stroke-width="0" fill="#4a1219"></path><path d="M1.16 0.57 C121.08 -1.12, 240 -2.73, 338.83 1.02 M-0.38 0.61 C116.76 0.67, 233.5 0.59, 339.52 0.11 M338.87 0.83 C338.03 45.43, 339.61 89.98, 340.36 130.75 M339.94 0.73 C341.15 34.79, 341.19 67.45, 339.89 129.82 M339.26 129.78 C247.37 131.04, 153.87 129.65, -0.99 128.95 M339.54 130.32 C214.3 130.07, 89.21 129.88, -0.12 130.64 M1.77 130.51 C-0.41 91.37, 1.39 53.44, 1.28 0.34 M-0.09 129.32 C0.84 95.22, 1.26 59.3, 0.55 -0.76" stroke="#f85149" stroke-width="3" fill="none"></path></g><g transform="translate(1216.1585724923664 725) rotate(0 50.41596984863281 10)"><text x="0" y="NaN" font-family="Virgil, Segoe UI Emoji" font-size="16px" fill="#f85149" text-anchor="start" style="white-space: pre;" direction="ltr">P2's decision</text></g><g transform="translate(1216.1585724923664 753) rotate(0 53.005958557128906 10.625)"><text x="0" y="NaN" font-family="Virgil, Segoe UI Emoji" font-size="17px" fill="#8b949e" text-anchor="start" style="white-space: pre;" direction="ltr">wanted v="Y"</text></g><g stroke-linecap="round"><g transform="translate(1330.1585724923664 765) rotate(0 35 0)"><path d="M0.48 -0.43 C11.97 -0.46, 57.79 -0.28, 69.31 -0.4 M-0.73 -1.7 C11.13 -1.54, 60.11 0.71, 71.66 0.92" stroke="#f85149" stroke-width="3" fill="none"></path></g></g><g transform="translate(1216.1585724923664 781) rotate(0 79.19445037841797 10.625)"><text x="0" y="NaN" font-family="Virgil, Segoe UI Emoji" font-size="17px" fill="#f85149" text-anchor="start" style="white-space: pre;" direction="ltr">must propose v="X"</text></g><g transform="translate(1216.1585724923664 807) rotate(0 80.09990692138672 7.5)"><text x="0" y="NaN" font-family="Virgil, Segoe UI Emoji" font-size="12px" fill="#8b949e" text-anchor="start" style="white-space: pre;" direction="ltr">(highest-numbered accepted</text></g><g transform="translate(1216.1585724923664 823) rotate(0 69.94792175292969 7.5)"><text x="0" y="NaN" font-family="Virgil, Segoe UI Emoji" font-size="12px" fill="#8b949e" text-anchor="start" style="white-space: pre;" direction="ltr"> value seen in promises)</text></g><g stroke-linecap="round"><g transform="translate(1370.1585724923664 875) rotate(0 -435 0)"><path d="M0.73 -0.07 C-144.14 -0.1, -724.46 0.31, -869.66 0.39 M-0.34 -1.14 C-145.3 -1.6, -725.24 -1.44, -870.43 -1.53" stroke="#3fb950" stroke-width="2" fill="none"></path></g><g transform="translate(1370.1585724923664 875) rotate(0 -435 0)"><path d="M-842.34 -11.22 C-848.94 -9.71, -856.3 -4.84, -869.72 -2.41 M-842.85 -12.71 C-847.84 -9.09, -854.8 -7.27, -871.23 -2" stroke="#3fb950" stroke-width="2" fill="none"></path></g><g transform="translate(1370.1585724923664 875) rotate(0 -435 0)"><path d="M-842.35 9.3 C-849.04 5.42, -856.4 4.91, -869.72 -2.41 M-842.86 7.81 C-847.81 7.19, -854.77 4.77, -871.23 -2" stroke="#3fb950" stroke-width="2" fill="none"></path></g></g><g stroke-linecap="round"><g transform="translate(1370.1585724923664 875) rotate(0 -290 0)"><path d="M-0.76 -1.06 C-97.55 -0.78, -484 0.69, -580.49 1.01 M1.05 0.99 C-95.97 1.02, -484.81 -0.24, -581.7 -0.59" stroke="#3fb950" stroke-width="2" fill="none"></path></g><g transform="translate(1370.1585724923664 875) rotate(0 -290 0)"><path d="M-555.25 -11.58 C-560.96 -7.15, -570.36 -2.42, -582.96 -1.69 M-553.87 -11.65 C-560.87 -8.95, -566.36 -5.56, -581.45 -1.34" stroke="#3fb950" stroke-width="2" fill="none"></path></g><g transform="translate(1370.1585724923664 875) rotate(0 -290 0)"><path d="M-555.31 8.95 C-560.89 6.76, -570.26 4.87, -582.96 -1.69 M-553.93 8.88 C-560.76 6.75, -566.24 5.31, -581.45 -1.34" stroke="#3fb950" stroke-width="2" fill="none"></path></g></g><g stroke-linecap="round"><g transform="translate(1370.1585724923664 875) rotate(0 -145 0)"><path d="M0.55 -0.6 C-47.88 -0.9, -241.34 -1.24, -289.77 -1.14 M-0.62 1.7 C-49.26 1.44, -242.23 -0.13, -290.6 -0.21" stroke="#3fb950" stroke-width="2" fill="none"></path></g><g transform="translate(1370.1585724923664 875) rotate(0 -145 0)"><path d="M-263.36 -9.94 C-274.63 -6.59, -283.22 -1.89, -291.86 -0.83 M-262.04 -10.93 C-272.29 -7.29, -282.3 -2.3, -289.9 0.23" stroke="#3fb950" stroke-width="2" fill="none"></path></g><g transform="translate(1370.1585724923664 875) rotate(0 -145 0)"><path d="M-263.47 10.58 C-274.81 6.36, -283.36 3.49, -291.86 -0.83 M-262.15 9.59 C-272.52 5.75, -282.48 3.26, -289.9 0.23" stroke="#3fb950" stroke-width="2" fill="none"></path></g></g><g transform="translate(1100.1585724923664 853) rotate(0 60.959938049316406 9.375)"><text x="0" y="NaN" font-family="Virgil, Segoe UI Emoji" font-size="15px" fill="#3fb950" text-anchor="start" style="white-space: pre;" direction="ltr">Accept(10, v="X")</text></g><g transform="translate(1105.5153495001161 892.1248514175747) rotate(0 74.53544616699219 8.125)"><text x="0" y="NaN" font-family="Virgil, Segoe UI Emoji" font-size="13px" fill="#f85149" text-anchor="start" style="white-space: pre;" direction="ltr">← FORCED by the rule</text></g><g transform="translate(10.158572492366375 935) rotate(0 475.99444580078125 18.75)"><text x="0" y="NaN" font-family="Virgil, Segoe UI Emoji" font-size="15px" fill="#f0b070" text-anchor="start" style="white-space: pre;" direction="ltr">Safety rule: among all values returned in Phase-1 promises, the new proposer adopts the one with the highest accepted-round n.</text><text x="0" y="NaN" font-family="Virgil, Segoe UI Emoji" font-size="15px" fill="#f0b070" text-anchor="start" style="white-space: pre;" direction="ltr">Without this rule, P1's partial accept of "X" + P2's accept of "Y" could let two rounds choose different values.</text></g></svg>