<svg version="1.1" xmlns="http://www.w3.org/2000/svg" viewBox="0 0 700 642.5" width="700" height="642.5">
  <!-- svg-source:excalidraw -->
  
  <defs>
    <style>
      @font-face {
        font-family: "Virgil";
        src: url("https://excalidraw.com/Virgil.woff2");
      }
      @font-face {
        font-family: "Cascadia";
        src: url("https://excalidraw.com/Cascadia.woff2");
      }
    </style>
  </defs>
  <rect x="0" y="0" width="700" height="642.5" fill="#1e1e2e"></rect><g transform="translate(150.5481414794922 10) rotate(0 229.4518585205078 15)"><text x="229.4518585205078" y="NaN" font-family="Virgil, Segoe UI Emoji" font-size="24px" fill="#a6adc8" text-anchor="middle" style="white-space: pre;" direction="ltr">Cryptographic Hash Function Properties</text></g><g transform="translate(10 70) rotate(0 99.25192260742188 11.25)"><text x="0" y="NaN" font-family="Virgil, Segoe UI Emoji" font-size="18px" fill="#a6adc8" text-anchor="start" style="white-space: pre;" direction="ltr">1. Preimage Resistance</text></g><g stroke-linecap="round" transform="translate(10 105) rotate(0 90 25)"><path d="M-0.81 0.56 L181.3 1.61 L181.82 51.89 L1.11 48.93" stroke="none" stroke-width="0" fill="#2d6a4f"></path><path d="M-1.21 1.85 C37.87 0.25, 77.12 -2.25, 181.81 -0.2 M1 -0.93 C65.86 -0.75, 134 1.03, 180.42 -0.23 M180.89 -0.76 C181.75 10.72, 180.6 18.85, 181.09 49.34 M179.13 0.33 C180.9 15.04, 180.27 29.17, 179.99 49.6 M181.98 48.49 C118.06 51.68, 56.31 50.57, -0.26 51.42 M180.97 50.09 C128.7 49.33, 77.04 49.16, 0.99 49.55 M1.84 49.64 C-1.07 33.75, 0.07 22.41, -0.04 1.59 M-0.13 49.34 C0.22 32.76, -0.22 16.31, -0.26 -0.79" stroke="#40916c" stroke-width="2" fill="none"></path></g><g transform="translate(47.53004455566406 117.5) rotate(0 52.46995544433594 12.5)"><text x="52.46995544433594" y="NaN" font-family="Virgil, Segoe UI Emoji" font-size="20px" fill="#ffffff" text-anchor="middle" style="white-space: pre;" direction="ltr">Message m</text></g><g stroke-linecap="round" transform="translate(280 105) rotate(0 70 25)"><path d="M1.58 -0.09 L138.26 0.7 L140.82 49.69 L1.05 51.34" stroke="none" stroke-width="0" fill="#5b21b6"></path><path d="M-0.24 1.26 C50.83 2.04, 99.17 2.49, 138.14 1.59 M-0.69 -0.87 C44.63 -1.25, 90.96 -1.79, 140.31 -0.33 M141.01 1.66 C138.18 16.93, 138.43 32.65, 139.22 49.42 M140.49 0.14 C140.16 17.49, 140.6 34.82, 139.53 50.19 M141.51 50.35 C93.92 48.64, 47.36 51.15, 1.23 50.03 M140.65 49.56 C90.11 51.64, 41.1 51.64, 0.21 49.67 M-1.31 49.19 C1.99 29.93, -0.31 13.26, -0.94 -0.67 M-0.43 49.07 C1.14 33.14, 0.06 15.47, 0.65 -0.46" stroke="#7c3aed" stroke-width="2" fill="none"></path></g><g transform="translate(308.0400390625 117.5) rotate(0 41.9599609375 12.5)"><text x="41.9599609375" y="NaN" font-family="Virgil, Segoe UI Emoji" font-size="20px" fill="#ffffff" text-anchor="middle" style="white-space: pre;" direction="ltr">SHA-256</text></g><g stroke-linecap="round" transform="translate(510 105) rotate(0 70 25)"><path d="M1.92 -0.39 L138.86 1.25 L140.62 50.75 L-0.63 49.28" stroke="none" stroke-width="0" fill="#1e40af"></path><path d="M-0.91 -0.22 C27.98 -1.86, 59.16 -1.23, 139.25 -0.81 M-0.6 -0.63 C44.82 0.31, 91.07 0.79, 140.09 0.26 M141.65 1.63 C141.4 18.16, 140.03 36.59, 139.14 49.42 M140.47 0.81 C139.82 18.31, 139.02 34.87, 139.67 49.2 M139.57 51.46 C91.25 50.92, 41.71 49.55, 0.92 49.36 M139.29 50.97 C96.5 49.97, 52.56 49.94, 0.42 49.29 M1.61 49.84 C-0.04 35.96, 1.58 23.83, -1.85 -1.94 M0.42 50.94 C-1.13 38.13, -1.29 24.83, 0.8 0.85" stroke="#3b82f6" stroke-width="2" fill="none"></path></g><g transform="translate(547.5100250244141 117.5) rotate(0 32.48997497558594 12.5)"><text x="32.48997497558594" y="NaN" font-family="Virgil, Segoe UI Emoji" font-size="20px" fill="#ffffff" text-anchor="middle" style="white-space: pre;" direction="ltr">Hash h</text></g><g stroke-linecap="round"><g transform="translate(196 130.005) rotate(0 39 0)"><path d="M0.37 -0.74 C13.22 -0.64, 63.98 -0.74, 76.82 -0.56 M-0.9 1.49 C12.32 1.84, 66.04 0.62, 78.91 0.68" stroke="#40916c" stroke-width="2" fill="none"></path></g><g transform="translate(196 130.005) rotate(0 39 0)"><path d="M49.6 9.27 C57.77 7.21, 67.02 3.75, 76.94 2.31 M50.77 10.84 C58.69 7.69, 67.49 5.71, 78.8 0.1" stroke="#40916c" stroke-width="2" fill="none"></path></g><g transform="translate(196 130.005) rotate(0 39 0)"><path d="M49.38 -11.25 C57.41 -7.63, 66.72 -5.41, 76.94 2.31 M50.55 -9.68 C58.59 -6.51, 67.46 -2.18, 78.8 0.1" stroke="#40916c" stroke-width="2" fill="none"></path></g></g><g stroke-linecap="round"><g transform="translate(426 130.005) rotate(0 39 0)"><path d="M0.88 -1.07 C13.62 -0.93, 64.59 0.48, 77.26 0.74 M-0.11 0.98 C12.93 0.79, 66.35 -0.57, 79.59 -0.99" stroke="#40916c" stroke-width="2" fill="none"></path></g><g transform="translate(426 130.005) rotate(0 39 0)"><path d="M49.91 8.82 C63.33 3.98, 73.34 3.09, 78.96 0.15 M52.07 10.26 C62.54 4.87, 73.63 1.11, 79.19 -1.7" stroke="#40916c" stroke-width="2" fill="none"></path></g><g transform="translate(426 130.005) rotate(0 39 0)"><path d="M49.34 -11.69 C62.95 -8.9, 73.17 -2.15, 78.96 0.15 M51.49 -10.25 C62.35 -7.44, 73.67 -3.01, 79.19 -1.7" stroke="#40916c" stroke-width="2" fill="none"></path></g></g><g stroke-linecap="round" transform="translate(10 175) rotate(0 30 20)"><path d="M-1.3 1.42 L59.94 0.18 L60.76 40.22 L-0.91 40.91" stroke="none" stroke-width="0" fill="#9f1239"></path><path d="M1.85 1.51 C20.41 1.73, 37.74 0.83, 59.72 -1.55 M-0.9 -0.08 C14.2 0.94, 30.08 0.35, 59.71 -0.9 M61.36 -1.19 C59.23 17.01, 59.7 32.21, 60.57 41.89 M60.64 0.37 C59.23 7.92, 59.39 15.86, 60.33 40.57 M61.42 39.84 C41.77 37.6, 24.08 38.89, 0.93 40.21 M60.63 40.28 C41.33 40.26, 22.78 40.12, -0.51 40.6 M-1.02 41.06 C-0.16 26.86, -0.15 19.63, 0.51 1.37 M0.79 39.8 C0 29.76, 0.31 17.71, 0.33 -0.48" stroke="#e11d48" stroke-width="2" fill="none"></path></g><g transform="translate(35.340003967285156 182.5) rotate(0 4.659996032714844 12.5)"><text x="4.659996032714844" y="NaN" font-family="Virgil, Segoe UI Emoji" font-size="20px" fill="#ffffff" text-anchor="middle" style="white-space: pre;" direction="ltr">?</text></g><g stroke-linecap="round"><g transform="translate(541.0119000000001 161) rotate(0 -232.50595000000004 17.00174289449059)"><path d="M-0.01 -1.07 C-36.83 4.77, -142.34 28.17, -219.82 33.85 C-297.3 39.53, -424.02 33.03, -464.88 33.02" stroke="#e11d48" stroke-width="2.5" fill="none" stroke-dasharray="8 10"></path></g><g transform="translate(541.0119000000001 161) rotate(0 -232.50595000000004 17.00174289449059)"><path d="M-438.25 25.38 C-447.96 27.38, -460.49 30.95, -465.22 32.54" stroke="#e11d48" stroke-width="2.5" fill="none"></path></g><g transform="translate(541.0119000000001 161) rotate(0 -232.50595000000004 17.00174289449059)"><path d="M-438.71 45.9 C-448.03 39.85, -460.38 35.37, -465.22 32.54" stroke="#e11d48" stroke-width="2.5" fill="none"></path></g></g><g transform="translate(216.98505401611328 205) rotate(0 93.01494598388672 11.25)"><text x="93.01494598388672" y="NaN" font-family="Virgil, Segoe UI Emoji" font-size="18px" fill="#e11d48" text-anchor="middle" style="white-space: pre;" direction="ltr">Cannot find m from h</text></g><g transform="translate(10 255) rotate(0 136.94390869140625 11.25)"><text x="0" y="NaN" font-family="Virgil, Segoe UI Emoji" font-size="18px" fill="#a6adc8" text-anchor="start" style="white-space: pre;" direction="ltr">2. Second Preimage Resistance</text></g><g stroke-linecap="round" transform="translate(10 290) rotate(0 90 25)"><path d="M-1.05 0.15 L180.36 0.16 L179.38 49.5 L-0.08 49.67" stroke="none" stroke-width="0" fill="#2d6a4f"></path><path d="M0.17 -1.34 C63.97 1.48, 129.12 1.08, 181.01 0.86 M-0.98 -0.32 C53.51 1.22, 109.06 1.21, 180.92 0.53 M180.15 -0.85 C180.48 12.7, 181.18 23, 179.73 49.73 M179.87 0.99 C180.22 19.64, 179.14 38.39, 180.32 49.77 M179.14 50.52 C110.28 49.51, 39 50.49, 1.45 48.34 M180.67 50.18 C137.49 51.64, 94.88 51.75, 0.51 49.63 M-0.54 50.32 C-2.09 33.02, -1.49 20.5, -0.76 -0.47 M0.6 49.15 C-0.71 39.91, 1.03 29.15, -0.75 -0.62" stroke="#40916c" stroke-width="2" fill="none"></path></g><g transform="translate(44.820045471191406 302.5) rotate(0 55.179954528808594 12.5)"><text x="55.179954528808594" y="NaN" font-family="Virgil, Segoe UI Emoji" font-size="20px" fill="#ffffff" text-anchor="middle" style="white-space: pre;" direction="ltr">Message m1</text></g><g stroke-linecap="round" transform="translate(280 290) rotate(0 70 25)"><path d="M-1.22 -0.04 L138.42 -0.09 L140.52 48.91 L-0.1 50.91" stroke="none" stroke-width="0" fill="#5b21b6"></path><path d="M-0.47 1.74 C46.57 1.21, 94.27 -0.3, 138.16 -1.24 M-0.09 -0.89 C41.55 -1.24, 80.8 -1.71, 140 0.72 M139.63 -0.34 C141.01 10.02, 140.76 22.16, 141.99 48.72 M139.36 0.52 C140.2 15.11, 139.83 29.8, 140.59 50.53 M140.96 51.91 C93.61 48.93, 46 50.73, -0.03 51.22 M140.1 50.54 C110.39 49.4, 81.07 48.03, 0.57 49.88 M0.84 51.17 C-0.59 34.85, 0.55 18.52, -1.16 -0.55 M-0.85 50.31 C0.79 35, 0.56 20.34, -0.02 -0.34" stroke="#7c3aed" stroke-width="2" fill="none"></path></g><g transform="translate(308.0400390625 302.5) rotate(0 41.9599609375 12.5)"><text x="41.9599609375" y="NaN" font-family="Virgil, Segoe UI Emoji" font-size="20px" fill="#ffffff" text-anchor="middle" style="white-space: pre;" direction="ltr">SHA-256</text></g><g stroke-linecap="round" transform="translate(510 290) rotate(0 70 25)"><path d="M0.04 -1.32 L139.51 -1.84 L140.54 51.88 L1.63 49.36" stroke="none" stroke-width="0" fill="#1e40af"></path><path d="M1.72 0.32 C30.82 -1.31, 62.44 -1.82, 141.02 0.68 M-0.62 -0.66 C33.69 -0.5, 66.94 -1.02, 140.91 0.96 M139.88 -0.73 C141.16 12.65, 140.37 21.52, 140.22 50.01 M140.14 -0.49 C139.64 14.53, 139.49 30.02, 139.67 49.81 M141.26 48.46 C84.07 49.02, 33.81 50.03, 1.39 50.37 M139.4 50.66 C92.46 50.15, 44.03 50.36, -0.4 49.54 M-1.34 49.31 C0.72 29.99, 1.1 9.72, -0.71 0.11 M0.57 49.18 C0.28 37.99, -0.28 26.17, 0.36 0.58" stroke="#3b82f6" stroke-width="2" fill="none"></path></g><g transform="translate(547.5100250244141 302.5) rotate(0 32.48997497558594 12.5)"><text x="32.48997497558594" y="NaN" font-family="Virgil, Segoe UI Emoji" font-size="20px" fill="#ffffff" text-anchor="middle" style="white-space: pre;" direction="ltr">Hash h</text></g><g stroke-linecap="round"><g transform="translate(196 315.005) rotate(0 39 0)"><path d="M-1.04 0.73 C12.13 0.68, 65.55 0.5, 78.81 0.48 M0.61 0.07 C13.72 -0.41, 65.38 -1.15, 78.28 -1.39" stroke="#40916c" stroke-width="2" fill="none"></path></g><g transform="translate(196 315.005) rotate(0 39 0)"><path d="M51.49 10.68 C58.86 7.43, 66.94 3.18, 79.96 0.15 M50.28 9.64 C58.14 6.61, 67.13 2.21, 78.91 -1.05" stroke="#40916c" stroke-width="2" fill="none"></path></g><g transform="translate(196 315.005) rotate(0 39 0)"><path d="M51.14 -9.84 C58.74 -7.32, 66.92 -5.81, 79.96 0.15 M49.93 -10.87 C57.9 -7.69, 66.99 -5.88, 78.91 -1.05" stroke="#40916c" stroke-width="2" fill="none"></path></g></g><g stroke-linecap="round"><g transform="translate(426 315.005) rotate(0 39 0)"><path d="M-0.78 -0.98 C12.33 -1.04, 64.63 0.26, 77.59 0.36 M1.01 1.12 C14.02 0.62, 63.37 -1.51, 76.43 -1.57" stroke="#40916c" stroke-width="2" fill="none"></path></g><g transform="translate(426 315.005) rotate(0 39 0)"><path d="M46.88 8.75 C54.95 5.63, 59.61 6.03, 77.15 -2.15 M49.32 9.2 C56.26 6.8, 64.26 2.51, 76.44 -1.01" stroke="#40916c" stroke-width="2" fill="none"></path></g><g transform="translate(426 315.005) rotate(0 39 0)"><path d="M46.34 -11.77 C54.65 -10.54, 59.42 -5.8, 77.15 -2.15 M48.78 -11.32 C55.83 -7.7, 63.99 -5.98, 76.44 -1.01" stroke="#40916c" stroke-width="2" fill="none"></path></g></g><g stroke-linecap="round" transform="translate(10 365) rotate(0 90 25)"><path d="M0.08 1.45 L178.96 -0.1 L179.45 48.56 L0.94 49.28" stroke="none" stroke-width="0" fill="#9f1239"></path><path d="M0.11 -1.18 C50.09 -0.61, 99.54 1.68, 180.36 0.55 M0.88 -0.47 C52.03 0.61, 103.65 2.23, 180.05 0.09 M181.03 1.87 C180.18 9.86, 179.7 23.44, 179.15 49.51 M180.16 -0.53 C180.47 10.69, 180.6 24.14, 180.15 50.65 M179.17 49.74 C140.8 52.29, 104.01 48.53, 1.27 49.43 M179.77 50.45 C118.15 49.33, 55.8 49.99, -0.84 49.94 M-1.01 50.45 C-0.21 33.02, 1.91 14.73, -1.85 -2 M-0.05 50.43 C0.35 36.93, 0.39 22.38, 0.7 -0.04" stroke="#e11d48" stroke-width="2" fill="none"></path></g><g transform="translate(15.88177490234375 377.5) rotate(0 84.11822509765625 12.5)"><text x="84.11822509765625" y="NaN" font-family="Virgil, Segoe UI Emoji" font-size="20px" fill="#ffffff" text-anchor="middle" style="white-space: pre;" direction="ltr">Message m2 ≠ m1</text></g><g stroke-linecap="round"><g transform="translate(196 388.774076923077) rotate(0 154.87655570549822 -26.10566457670916)"><path d="M1.03 -0.59 C32.64 -6.95, 137.54 -29.1, 189.18 -37.87 C240.83 -46.65, 290.83 -50.75, 310.9 -53.24" stroke="#e11d48" stroke-width="2.5" fill="none" stroke-dasharray="8 10"></path></g><g transform="translate(196 388.774076923077) rotate(0 154.87655570549822 -26.10566457670916)"><path d="M282.99 -39.69 C292.53 -41.8, 296.4 -47.47, 309.94 -53.68" stroke="#e11d48" stroke-width="2.5" fill="none"></path></g><g transform="translate(196 388.774076923077) rotate(0 154.87655570549822 -26.10566457670916)"><path d="M280.77 -60.09 C290.94 -56.86, 295.4 -57.16, 309.94 -53.68" stroke="#e11d48" stroke-width="2.5" fill="none"></path></g></g><g transform="translate(246.17507934570312 400) rotate(0 138.82492065429688 11.25)"><text x="138.82492065429688" y="NaN" font-family="Virgil, Segoe UI Emoji" font-size="18px" fill="#e11d48" text-anchor="middle" style="white-space: pre;" direction="ltr">Cannot find m2 with same hash</text></g><g transform="translate(10 450) rotate(0 98.63092041015625 11.25)"><text x="0" y="NaN" font-family="Virgil, Segoe UI Emoji" font-size="18px" fill="#a6adc8" text-anchor="start" style="white-space: pre;" direction="ltr">3. Collision Resistance</text></g><g stroke-linecap="round" transform="translate(10 485) rotate(0 70 25)"><path d="M1.35 -1.1 L141 1.81 L138.22 49.93 L-1.63 50.22" stroke="none" stroke-width="0" fill="#2d6a4f"></path><path d="M-0.95 -0.25 C55.55 1.99, 109.05 -0.71, 140.79 0.44 M-0.58 -0.58 C34.97 -1.06, 67.68 0.18, 140.29 -0.2 M139.33 -0.38 C139.24 15.83, 140.4 26.81, 138.15 51.29 M139.22 -0.37 C138.89 12.01, 140.03 23.4, 140.63 50.42 M140.15 49.64 C108.84 50.47, 81.58 51.48, -1.2 48.05 M139.08 50.62 C107.04 49, 72.68 49.72, -0.29 50.32 M0.43 50.44 C-0.19 40.47, 0.28 26.85, 0.17 -0.37 M-0.26 49.44 C-1.08 34.31, -1.09 18.76, -0.99 -0.09" stroke="#40916c" stroke-width="2" fill="none"></path></g><g transform="translate(50.040016174316406 497.5) rotate(0 29.959983825683594 12.5)"><text x="29.959983825683594" y="NaN" font-family="Virgil, Segoe UI Emoji" font-size="20px" fill="#ffffff" text-anchor="middle" style="white-space: pre;" direction="ltr">Any m1</text></g><g stroke-linecap="round" transform="translate(10 555) rotate(0 70 25)"><path d="M0.75 0 L139.78 -1.18 L141.31 51.42 L-0.85 48.42" stroke="none" stroke-width="0" fill="#2d6a4f"></path><path d="M1.95 1.23 C50.66 -0.71, 107.22 0.13, 139.47 -0.56 M0.29 0.64 C31.77 0.52, 63.77 0.54, 139.72 -0.45 M139.82 0.76 C139.92 12.74, 140.87 30.61, 141.66 49.42 M140.64 -0.48 C139.18 16.38, 139.26 33.58, 140.32 49.87 M139.37 49.33 C88.13 50.77, 35.97 50.41, 0 49.1 M139.95 50.6 C111.04 48.9, 81.94 48.86, -0.85 51 M0.19 50.55 C1.65 37.02, -0.63 23.51, 0.84 -1.9 M-0.43 49.52 C-0.61 38.33, 0.25 26.9, 0.14 0.06" stroke="#40916c" stroke-width="2" fill="none"></path></g><g transform="translate(45.63002014160156 567.5) rotate(0 34.36997985839844 12.5)"><text x="34.36997985839844" y="NaN" font-family="Virgil, Segoe UI Emoji" font-size="20px" fill="#ffffff" text-anchor="middle" style="white-space: pre;" direction="ltr">Any m2</text></g><g stroke-linecap="round" transform="translate(510 510) rotate(0 90 25)"><path d="M0.16 1.1 L178.55 -0.16 L180.39 48.92 L-0.07 50.63" stroke="none" stroke-width="0" fill="#1e40af"></path><path d="M0.84 -1.29 C64.47 -0.46, 130.77 -0.1, 178.16 -1.55 M-0.83 -0.14 C39.04 0.41, 76.78 1.2, 179.15 -0.7 M180.3 1.9 C181.61 13.64, 178.33 30.4, 181.17 51.55 M180.06 -0.6 C180.48 12.75, 179.49 25.75, 180.01 49.31 M178.59 49.03 C122.67 49.63, 64.86 47.91, 1.2 50.15 M180.82 50.58 C112.07 50.78, 45.26 49.99, 0.59 49.67 M-0.05 50.65 C-1.51 33.57, 1.45 20.18, 1.5 0.57 M-0.61 49.59 C-0.14 30.35, -0.42 13.03, -0.72 0.21" stroke="#3b82f6" stroke-width="2" fill="none"></path></g><g transform="translate(537.9600448608398 522.5) rotate(0 62.039955139160156 12.5)"><text x="62.039955139160156" y="NaN" font-family="Virgil, Segoe UI Emoji" font-size="20px" fill="#ffffff" text-anchor="middle" style="white-space: pre;" direction="ltr">Same Hash h</text></g><g stroke-linecap="round"><g transform="translate(156 510.33816666666655) rotate(0 174 12.083333333333371)"><path d="M0.64 -0.16 C29.55 1.45, 116.07 4.92, 174.11 8.89 C232.15 12.87, 319.76 21.05, 348.88 23.68" stroke="#e11d48" stroke-width="2.5" fill="none" stroke-dasharray="8 10"></path></g><g transform="translate(156 510.33816666666655) rotate(0 174 12.083333333333371)"><path d="M319.61 31.54 C329.04 29.91, 339.91 27.05, 349.73 25.13" stroke="#e11d48" stroke-width="2.5" fill="none"></path></g><g transform="translate(156 510.33816666666655) rotate(0 174 12.083333333333371)"><path d="M321.47 11.1 C330.1 16.81, 340.31 21.28, 349.73 25.13" stroke="#e11d48" stroke-width="2.5" fill="none"></path></g></g><g stroke-linecap="round"><g transform="translate(156 579.3381666666666) rotate(0 174 -21.749999999999943)"><path d="M-0.98 0.89 C28.15 -2.24, 115.8 -12.53, 173.82 -19.78 C231.83 -27.03, 317.87 -38.7, 347.1 -42.61" stroke="#e11d48" stroke-width="2.5" fill="none" stroke-dasharray="8 10"></path></g><g transform="translate(156 579.3381666666666) rotate(0 174 -21.749999999999943)"><path d="M322.01 -28.99 C325.72 -33.02, 333.77 -32.61, 347.58 -44.02" stroke="#e11d48" stroke-width="2.5" fill="none"></path></g><g transform="translate(156 579.3381666666666) rotate(0 174 -21.749999999999943)"><path d="M319.28 -49.33 C323.42 -48.88, 332.07 -44.02, 347.58 -44.02" stroke="#e11d48" stroke-width="2.5" fill="none"></path></g></g><g transform="translate(228.07211303710938 610) rotate(0 161.92788696289062 11.25)"><text x="161.92788696289062" y="NaN" font-family="Virgil, Segoe UI Emoji" font-size="18px" fill="#e11d48" text-anchor="middle" style="white-space: pre;" direction="ltr">Cannot find any pair with same hash</text></g></svg>