<svg version="1.1" xmlns="http://www.w3.org/2000/svg" viewBox="0 0 1151.5378350663018 549" width="1151.5378350663018" height="549">
  <!-- svg-source:excalidraw -->
  
  <defs>
    <style>
      @font-face {
        font-family: "Virgil";
        src: url("https://excalidraw.com/Virgil.woff2");
      }
      @font-face {
        font-family: "Cascadia";
        src: url("https://excalidraw.com/Cascadia.woff2");
      }
    </style>
  </defs>
  <rect x="0" y="0" width="1151.5378350663018" height="549" fill="#0d1117"></rect><g stroke-opacity="0.6" fill-opacity="0.6" stroke-linecap="round" transform="translate(10 156.5) rotate(0 189.5 121.5)"><path d="M-0.6 0.67 L379.55 0.59 L380.16 242.2 L-0.05 241.04" stroke="none" stroke-width="0" fill="#161b22"></path><path d="M0.97 -0.52 C127.97 -1.67, 254.8 -1.19, 379.74 0.04 M379.35 -1.51 C379.97 85.17, 380.97 170.54, 380.65 243.6 M380.15 242.85 C239.01 240.23, 99.05 242.06, -0.01 244.15 M-0.55 244.37 C2.68 184.41, 0.63 125.19, -1.15 1.13" stroke="#30363d" stroke-width="2.5" fill="none" stroke-dasharray="8 10"></path></g><g transform="translate(26 166.5) rotate(0 52.811973571777344 11.25)"><text x="0" y="NaN" font-family="Virgil, Segoe UI Emoji" font-size="18px" fill="#8b949e" text-anchor="start" style="white-space: pre;" direction="ltr">Auth Server</text></g><g stroke-opacity="0.6" fill-opacity="0.6" stroke-linecap="round" transform="translate(430 10) rotate(0 150 264.5)"><path d="M1.66 1.22 L301.74 1.8 L298.85 528.6 L-1.16 528.49" stroke="none" stroke-width="0" fill="#161b22"></path><path d="M-0.04 0.18 C112.28 -0.77, 227.01 -0.4, 299.04 0.72 M300.56 0.39 C298.71 176.25, 297.94 351.46, 299.22 529.28 M300.21 529.92 C215.04 528.5, 130.25 528.01, -0.37 527.85 M0.35 529.63 C2.71 331.85, 1.63 134.66, -0.29 -0.6" stroke="#30363d" stroke-width="2.5" fill="none" stroke-dasharray="8 10"></path></g><g transform="translate(446 20) rotate(0 79.0919418334961 11.25)"><text x="0" y="NaN" font-family="Virgil, Segoe UI Emoji" font-size="18px" fill="#8b949e" text-anchor="start" style="white-space: pre;" direction="ltr">Resource Services</text></g><g stroke-linecap="round" transform="translate(65 261.5) rotate(0 129.5 36.5)"><path d="M0.82 -0.67 L257.99 1.49 L260.62 74.74 L0.21 71.01" stroke="none" stroke-width="0" fill="#3a1d6e"></path><path d="M1.45 -0.38 C95.18 -1.3, 188.32 -1.56, 258.07 -0.8 M-0.72 -0.73 C81.85 1.77, 165.19 1.28, 259.19 0.57 M258.99 1.26 C258.07 20.07, 259.48 44.24, 258.13 74.19 M259.11 0.72 C259.37 15.83, 258.66 31.24, 258.44 73.92 M258.58 74.03 C192.07 73.97, 125.52 74.66, -0.55 72.38 M259.56 72.51 C182.06 74.77, 104.82 75.48, 0.33 73.44 M1.54 71.11 C0.4 51.68, -0.94 27.95, 0.49 1.24 M0.63 72.05 C-0.78 43.58, -0.89 15.29, -0.75 0.47" stroke="#a371f7" stroke-width="2" fill="none"></path></g><g transform="translate(100.55006408691406 285.5) rotate(0 93.94993591308594 12.5)"><text x="93.94993591308594" y="NaN" font-family="Virgil, Segoe UI Emoji" font-size="20px" fill="#fff" text-anchor="middle" style="white-space: pre;" direction="ltr">Login + Issue JWT</text></g><g stroke-linecap="round" transform="translate(490 120) rotate(0 90 36.5)"><path d="M-0.39 1.33 L180.39 1.37 L180.77 72.38 L-1.35 71.67" stroke="none" stroke-width="0" fill="#0d2c5a"></path><path d="M-0.69 0.85 C62.57 -0.81, 125.61 0.08, 178.48 1.88 M-0.49 -0.34 C63.63 -1.09, 125.53 -1.13, 179.3 -0.06 M181.35 0.53 C181.38 15.87, 178.81 32.41, 179.45 74.39 M179.71 0.83 C180.13 27.21, 180.39 56.24, 179.28 72.86 M178.6 71.16 C126.54 69.7, 71.16 71.47, -0.31 74.32 M180.36 72.08 C115.5 74.2, 53.32 73.68, 0.17 72.44 M1.21 74.93 C0.87 51.99, -0.71 33.86, 0.28 -0.29 M0.33 73.14 C0.3 54.11, 0.5 36.95, -0.51 -0.62" stroke="#58a6ff" stroke-width="2" fill="none"></path></g><g transform="translate(534.6800384521484 144) rotate(0 45.31996154785156 12.5)"><text x="45.31996154785156" y="NaN" font-family="Virgil, Segoe UI Emoji" font-size="20px" fill="#fff" text-anchor="middle" style="white-space: pre;" direction="ltr">Service A</text></g><g stroke-linecap="round" transform="translate(490 263) rotate(0 90 36.5)"><path d="M-1.36 1.31 L181.58 0.04 L180.55 73.88 L-1.9 73.52" stroke="none" stroke-width="0" fill="#0d2c5a"></path><path d="M-1.21 1.16 C56.31 0.77, 112.09 -0.94, 179 0.71 M0.26 -0.06 C66.45 1.53, 135.06 0.68, 180.83 -0.6 M180.23 0.4 C179.64 24.24, 179.33 48.69, 180.43 74.15 M179.98 -0.78 C180.3 18.25, 180.59 37.07, 179.02 72.92 M178.96 71 C128.99 73.59, 75.93 73.66, 0.93 73.11 M180.97 73.87 C124.19 71.96, 71.34 73.39, -0.93 72.76 M-0.49 73.93 C-1.79 55.68, -0.53 41.39, 1.73 1.14 M-0.57 72.76 C0.06 53.56, -0.31 33.28, 0.12 0.94" stroke="#58a6ff" stroke-width="2" fill="none"></path></g><g transform="translate(533.9700393676758 287) rotate(0 46.02996063232422 12.5)"><text x="46.02996063232422" y="NaN" font-family="Virgil, Segoe UI Emoji" font-size="20px" fill="#fff" text-anchor="middle" style="white-space: pre;" direction="ltr">Service B</text></g><g stroke-linecap="round" transform="translate(490 406) rotate(0 90 36.5)"><path d="M-1.29 0.81 L179.07 -1.83 L178.99 74.36 L-0.84 72.27" stroke="none" stroke-width="0" fill="#0d2c5a"></path><path d="M-1.64 1.19 C54.66 0.07, 108.55 -1.27, 181.73 -1.61 M-0.16 -0.56 C37.76 0.41, 78.05 0.14, 179.29 -0.12 M178.59 -0.03 C181.77 22.04, 180.6 40.04, 181.4 71.09 M179.91 -0.74 C180.31 15.39, 178.54 31.23, 180.32 72.58 M178.78 71.07 C142.05 73.84, 102.65 76.05, 0.97 72.59 M179.1 73.61 C134.82 73.68, 91.7 73.33, 0.52 72.7 M-1.16 73.16 C0.18 52.33, 0.72 29.96, -1.35 0.06 M0.88 72.16 C0.36 55.57, -0.54 37.13, -0.26 0.82" stroke="#58a6ff" stroke-width="2" fill="none"></path></g><g transform="translate(534.8000411987305 430) rotate(0 45.19995880126953 12.5)"><text x="45.19995880126953" y="NaN" font-family="Virgil, Segoe UI Emoji" font-size="20px" fill="#fff" text-anchor="middle" style="white-space: pre;" direction="ltr">Service C</text></g><g stroke-linecap="round" transform="translate(959.5378350663018 257.9606350518224) rotate(0 91 36.5)"><path d="M1.7 -1.86 L180.95 1.14 L182.28 73.97 L1.52 73.07" stroke="none" stroke-width="0" fill="#5c3a10"></path><path d="M0 -0.9 C60.98 2.08, 119.56 -0.05, 183.65 1.59 M-0.62 -0.58 C49.96 -0.84, 99.05 -2.25, 182.54 -0.2 M183.96 1.35 C181.51 28.7, 183.29 53.27, 183.59 71.22 M182.32 -0.79 C181.83 28.97, 182.2 58.25, 181.35 73 M181.96 71.59 C140.37 75.27, 98.9 75.4, -0.04 74.16 M181.36 73.2 C142.53 73.71, 102.24 74.66, 0.69 73.96 M-1.87 71.36 C-1.71 45.76, -0.54 20.92, 0.8 1.11 M0.83 73.67 C1.29 54.93, 0.25 38.19, 0.29 -0.44" stroke="#f0883e" stroke-width="2" fill="none"></path></g><g transform="translate(1002.037880842669 281.9606350518224) rotate(0 48.49995422363281 12.5)"><text x="48.49995422363281" y="NaN" font-family="Virgil, Segoe UI Emoji" font-size="20px" fill="#fff" text-anchor="middle" style="white-space: pre;" direction="ltr">Public Key</text></g><g stroke-linecap="round"><g transform="translate(319.6314316470108 258.7296188455484) rotate(0 83.15053794053107 -36.389334900605746)"><path d="M0.88 0.22 C28.66 -11.92, 138.22 -59.68, 165.67 -71.99 M-0.12 -0.71 C28.15 -13.25, 140.02 -61.68, 168.04 -73.7" stroke="#3fb950" stroke-width="2" fill="none"></path></g><g transform="translate(319.6314316470108 258.7296188455484) rotate(0 83.15053794053107 -36.389334900605746)"><path d="M146.59 -54.17 C152.04 -58.93, 153.88 -60.57, 169.4 -73.22 M145.46 -52.2 C152.06 -57.65, 158.49 -64.11, 167.18 -73.03" stroke="#3fb950" stroke-width="2" fill="none"></path></g><g transform="translate(319.6314316470108 258.7296188455484) rotate(0 83.15053794053107 -36.389334900605746)"><path d="M138.46 -73.01 C145.77 -73.82, 149.34 -71.46, 169.4 -73.22 M137.34 -71.04 C146.06 -71.56, 154.63 -73.04, 167.18 -73.03" stroke="#3fb950" stroke-width="2" fill="none"></path></g></g><g transform="translate(389.84400939941406 156) rotate(0 19.655990600585938 11.25)"><text x="19.655990600585938" y="NaN" font-family="Virgil, Segoe UI Emoji" font-size="18px" fill="#c9d1d9" text-anchor="middle" style="white-space: pre;" direction="ltr">JWT</text></g><g stroke-linecap="round"><g transform="translate(330 297.6445532349425) rotate(0 77.00000000000003 1.2372532589244989)"><path d="M-0.27 0.85 C25.1 1.14, 127.15 0.89, 152.97 1.28 M1.78 0.25 C27.46 0.68, 129.73 2.02, 155.14 2.2" stroke="#3fb950" stroke-width="2" fill="none"></path></g><g transform="translate(330 297.6445532349425) rotate(0 77.00000000000003 1.2372532589244989)"><path d="M128.25 10.44 C135.06 9.69, 148.5 3.56, 156.76 2.68 M127.03 11.44 C132.95 9.3, 139.5 8.24, 155.56 3.11" stroke="#3fb950" stroke-width="2" fill="none"></path></g><g transform="translate(330 297.6445532349425) rotate(0 77.00000000000003 1.2372532589244989)"><path d="M128.47 -10.08 C135.12 -3.46, 148.48 -2.21, 156.76 2.68 M127.25 -9.08 C132.93 -6.71, 139.43 -3.25, 155.56 3.11" stroke="#3fb950" stroke-width="2" fill="none"></path></g></g><g transform="translate(389.84400939941406 227.5) rotate(0 19.655990600585938 11.25)"><text x="19.655990600585938" y="NaN" font-family="Virgil, Segoe UI Emoji" font-size="18px" fill="#c9d1d9" text-anchor="middle" style="white-space: pre;" direction="ltr">JWT</text></g><g stroke-linecap="round"><g transform="translate(328.13338379488835 327.2851033488142) rotate(0 77.93330810255586 57.737874394835615)"><path d="M-0.15 0.91 C25.48 19.93, 128.83 95.39, 154.79 114.65 M-1.68 0.34 C24.22 19.44, 130.86 96.7, 156.94 115.75" stroke="#3fb950" stroke-width="2" fill="none"></path></g><g transform="translate(328.13338379488835 327.2851033488142) rotate(0 77.93330810255586 57.737874394835615)"><path d="M129.62 105.68 C137.85 110.35, 151.96 113.91, 157.06 116.98 M128.36 107.68 C137.49 109.98, 144.94 113.13, 155.99 116.53" stroke="#3fb950" stroke-width="2" fill="none"></path></g><g transform="translate(328.13338379488835 327.2851033488142) rotate(0 77.93330810255586 57.737874394835615)"><path d="M141.69 89.09 C145.36 100.11, 154.82 110.06, 157.06 116.98 M140.42 91.09 C146 98.39, 149.74 106.63, 155.99 116.53" stroke="#3fb950" stroke-width="2" fill="none"></path></g></g><g transform="translate(389.84400939941406 299) rotate(0 19.655990600585938 11.25)"><text x="19.655990600585938" y="NaN" font-family="Virgil, Segoe UI Emoji" font-size="18px" fill="#c9d1d9" text-anchor="middle" style="white-space: pre;" direction="ltr">JWT</text></g><g stroke-linecap="round"><g transform="translate(954.2048251041535 269.244150462902) rotate(0 -139.3888941478196 -43.99987785565124)"><path d="M-0.14 -0.29 C-46.83 -14.89, -232.97 -73.46, -279.38 -88.09" stroke="#f0883e" stroke-width="2.5" fill="none" stroke-dasharray="8 10"></path></g><g transform="translate(954.2048251041535 269.244150462902) rotate(0 -139.3888941478196 -43.99987785565124)"><path d="M-249.9 -90.42 C-260.39 -88.73, -271.18 -87.23, -279.71 -89.37" stroke="#f0883e" stroke-width="2.5" fill="none"></path></g><g transform="translate(954.2048251041535 269.244150462902) rotate(0 -139.3888941478196 -43.99987785565124)"><path d="M-256.06 -70.84 C-264.24 -76.21, -272.81 -81.77, -279.71 -89.37" stroke="#f0883e" stroke-width="2.5" fill="none"></path></g></g><g transform="translate(293.4740524291992 277.5) rotate(0 77.5259475708008 22.5)"><text x="77.52594757080078" y="NaN" font-family="Virgil, Segoe UI Emoji" font-size="18px" fill="#c9d1d9" text-anchor="middle" style="white-space: pre;" direction="ltr">distributed to all</text><text x="77.52594757080078" y="NaN" font-family="Virgil, Segoe UI Emoji" font-size="18px" fill="#c9d1d9" text-anchor="middle" style="white-space: pre;" direction="ltr">services</text></g><g stroke-linecap="round"><g transform="translate(953.5378350663018 304.43825450654236) rotate(0 -138.7689175331509 -7.442844689348065)"><path d="M0.16 1.19 C-46.15 -1.27, -230.64 -13.2, -277.11 -15.75" stroke="#f0883e" stroke-width="2.5" fill="none" stroke-dasharray="8 10"></path></g><g transform="translate(953.5378350663018 304.43825450654236) rotate(0 -138.7689175331509 -7.442844689348065)"><path d="M-246.37 -23.59 C-260.33 -22.97, -268.04 -16.42, -278.86 -15.26" stroke="#f0883e" stroke-width="2.5" fill="none"></path></g><g transform="translate(953.5378350663018 304.43825450654236) rotate(0 -138.7689175331509 -7.442844689348065)"><path d="M-247.61 -3.1 C-260.94 -9.94, -268.21 -10.83, -278.86 -15.26" stroke="#f0883e" stroke-width="2.5" fill="none"></path></g></g><g transform="translate(293.4740524291992 349) rotate(0 77.5259475708008 22.5)"><text x="77.52594757080078" y="NaN" font-family="Virgil, Segoe UI Emoji" font-size="18px" fill="#c9d1d9" text-anchor="middle" style="white-space: pre;" direction="ltr">distributed to all</text><text x="77.52594757080078" y="NaN" font-family="Virgil, Segoe UI Emoji" font-size="18px" fill="#c9d1d9" text-anchor="middle" style="white-space: pre;" direction="ltr">services</text></g><g stroke-linecap="round"><g transform="translate(955.4140064819662 323.7700223805281) rotate(0 -140.5849750098875 44.86614675876859)"><path d="M0.31 0.13 C-46.62 14.86, -234.47 73.79, -281.45 88.59" stroke="#f0883e" stroke-width="2.5" fill="none" stroke-dasharray="8 10"></path></g><g transform="translate(955.4140064819662 323.7700223805281) rotate(0 -140.5849750098875 44.86614675876859)"><path d="M-257.41 69.88 C-266.99 75.45, -273.96 81.64, -280.78 89.94" stroke="#f0883e" stroke-width="2.5" fill="none"></path></g><g transform="translate(955.4140064819662 323.7700223805281) rotate(0 -140.5849750098875 44.86614675876859)"><path d="M-251.26 89.46 C-262.81 88.89, -271.71 88.93, -280.78 89.94" stroke="#f0883e" stroke-width="2.5" fill="none"></path></g></g><g transform="translate(293.4740524291992 420.5) rotate(0 77.5259475708008 22.5)"><text x="77.52594757080078" y="NaN" font-family="Virgil, Segoe UI Emoji" font-size="18px" fill="#c9d1d9" text-anchor="middle" style="white-space: pre;" direction="ltr">distributed to all</text><text x="77.52594757080078" y="NaN" font-family="Virgil, Segoe UI Emoji" font-size="18px" fill="#c9d1d9" text-anchor="middle" style="white-space: pre;" direction="ltr">services</text></g></svg>