<svg version="1.1" xmlns="http://www.w3.org/2000/svg" viewBox="0 0 1175 884.4638353975653" width="1175" height="884.4638353975653">
  <!-- svg-source:excalidraw -->
  
  <defs>
    <style>
      @font-face {
        font-family: "Virgil";
        src: url("https://excalidraw.com/Virgil.woff2");
      }
      @font-face {
        font-family: "Cascadia";
        src: url("https://excalidraw.com/Cascadia.woff2");
      }
    </style>
  </defs>
  <rect x="0" y="0" width="1175" height="884.4638353975653" fill="#0d1117"></rect><g stroke-linecap="round" transform="translate(50 10.256700228607656) rotate(0 100 25)"><path d="M1.72 -0.18 L199.24 -1.5 L198.61 50.49 L1.38 51.07" stroke="none" stroke-width="0" fill="#1f4d2b"></path><path d="M1.05 0.26 C68.65 -0.93, 141.65 -2.22, 198.4 0.42 M0.81 0.64 C67.86 0.4, 135.63 -0.51, 199.15 -0.33 M200.35 -0.78 C199.28 18.58, 198.67 38.89, 200.37 49.09 M199.08 0.63 C199.05 16.34, 199.22 33.42, 200.73 50.48 M198.31 51.65 C136.3 52.3, 70.33 50.83, 0.64 49.31 M200.63 49.28 C146.41 48.99, 92.16 49.92, 0.3 49.68 M1.93 50.96 C0.99 33.5, -0.09 19.36, 1.16 0.49 M0.41 49.22 C0.06 39.49, 0.16 27.58, -0.24 -0.67" stroke="#3fb950" stroke-width="2" fill="none"></path></g><g transform="translate(128.13002014160156 22.756700228607656) rotate(0 21.869979858398438 12.5)"><text x="21.869979858398438" y="NaN" font-family="Virgil, Segoe UI Emoji" font-size="20px" fill="#ffffff" text-anchor="middle" style="white-space: pre;" direction="ltr">Alice</text></g><g stroke-linecap="round" transform="translate(49.386780508136894 824.4638353975653) rotate(0 100 25)"><path d="M0.7 0.21 L199.15 -1.06 L199.04 51.64 L-0.52 48.07" stroke="none" stroke-width="0" fill="#1f4d2b"></path><path d="M0 0.01 C43.68 -1.42, 88.36 1.03, 199.3 1.29 M0.55 0.55 C59.62 -0.91, 120.96 -0.1, 200.37 0.34 M199.32 -1.38 C200.27 18.24, 200.12 39.23, 199.42 49.83 M200.99 -0.13 C199.68 16.68, 200.5 30.92, 199.04 50.32 M201.44 50.27 C140.7 51.38, 79.18 50.26, -1.42 48.46 M200.87 49.73 C148.65 49.18, 96.3 49.5, 0.33 49.98 M-0.8 49.86 C-0.65 39, -1.01 24.79, 0.37 0.94 M-0.87 50.05 C0.74 31.41, -0.63 11.76, -0.14 0.12" stroke="#3fb950" stroke-width="2" fill="none"></path></g><g transform="translate(127.51680064973846 836.9638353975653) rotate(0 21.869979858398438 12.5)"><text x="21.869979858398438" y="NaN" font-family="Virgil, Segoe UI Emoji" font-size="20px" fill="#ffffff" text-anchor="middle" style="white-space: pre;" direction="ltr">Alice</text></g><g stroke-linecap="round" transform="translate(490 10) rotate(0 100 25)"><path d="M-0.58 0.37 L198.63 1.01 L200.16 51.24 L1.76 50.17" stroke="none" stroke-width="0" fill="#5c3a10"></path><path d="M0.55 0.93 C49.73 1.23, 96.57 -0.28, 199.61 -0.03 M-0.6 -0.61 C46.72 0.34, 92.66 0.68, 200.69 -0.44 M200.59 1.79 C200.12 12.04, 199.4 26.79, 200.12 50.15 M200.79 0.57 C199.19 14.53, 200.83 29.51, 199.57 50.2 M199.76 51.51 C121.31 50.16, 42.08 48.07, 1.18 49.78 M200.12 49.27 C148.57 51.71, 99.75 50.51, 0.05 49.98 M1.81 51.02 C-0.59 36.78, 0.96 27.69, 1.5 -0.28 M-0.67 50.26 C0.8 35.5, -0.67 20.65, 0.33 -0.6" stroke="#f0883e" stroke-width="2" fill="none"></path></g><g transform="translate(522.3000564575195 22.5) rotate(0 67.69994354248047 12.5)"><text x="67.69994354248047" y="NaN" font-family="Virgil, Segoe UI Emoji" font-size="20px" fill="#ffffff" text-anchor="middle" style="white-space: pre;" direction="ltr">Public Channel</text></g><g stroke-linecap="round" transform="translate(925 10.256700228607656) rotate(0 100 25)"><path d="M1.12 0.92 L198.02 -0.48 L201.7 51.98 L-1.85 49.27" stroke="none" stroke-width="0" fill="#1f4d2b"></path><path d="M0.05 1.59 C67.21 -0.22, 135.1 1.66, 200.82 -0.48 M-0.2 -0.06 C65.58 0.29, 129.7 0.07, 200.44 -0.56 M200.84 0.36 C200.97 19.49, 200.14 38.68, 199.88 51.21 M200.5 0.51 C199.34 12.71, 200.45 25.6, 200.42 49.92 M201.21 51.38 C146.33 51.61, 90.23 52.51, 1.72 50.25 M199.61 49.26 C152.53 49.04, 105.53 49.29, -0.2 50.29 M1.69 51.07 C-1.17 34.05, -1 16.02, 1.83 -1.05 M0.24 49.3 C0.53 31.51, -0.5 13.71, 0.9 -0.52" stroke="#3fb950" stroke-width="2" fill="none"></path></g><g transform="translate(1007.1100158691406 22.756700228607656) rotate(0 17.889984130859375 12.5)"><text x="17.889984130859375" y="NaN" font-family="Virgil, Segoe UI Emoji" font-size="20px" fill="#ffffff" text-anchor="middle" style="white-space: pre;" direction="ltr">Bob</text></g><g stroke-linecap="round" transform="translate(921.856591651514 822.8062021879742) rotate(0 100 25)"><path d="M1.53 -0.08 L200.99 0.58 L201.57 50.83 L1.47 50.59" stroke="none" stroke-width="0" fill="#1f4d2b"></path><path d="M0.19 0.29 C57.31 0.52, 115.14 -0.54, 200.62 -0.84 M0.87 0.44 C66.83 1.74, 133.66 0.71, 200.6 -0.88 M201.96 -1.66 C199.58 18.61, 200.9 34.67, 200.03 50.18 M200.47 -0.65 C200.09 16.52, 199.06 32.55, 199.78 49.9 M198.23 50.18 C121.16 48.91, 40.95 49.95, 0.24 51.48 M200.06 50.49 C129.53 49.88, 59.36 48.57, -0.31 50.34 M0.83 51.35 C1.22 29.59, 0.19 13.02, 0.99 -1.88 M-0.06 49.01 C-0.44 38.77, -0.41 27.59, -0.69 -0.94" stroke="#3fb950" stroke-width="2" fill="none"></path></g><g transform="translate(1003.9666075206546 835.3062021879742) rotate(0 17.889984130859375 12.5)"><text x="17.889984130859375" y="NaN" font-family="Virgil, Segoe UI Emoji" font-size="20px" fill="#ffffff" text-anchor="middle" style="white-space: pre;" direction="ltr">Bob</text></g><g transform="translate(376.1101837158203 100.25670022860766) rotate(0 213.8898162841797 12.5)"><text x="213.8898162841797" y="NaN" font-family="Virgil, Segoe UI Emoji" font-size="20px" fill="#8b949e" text-anchor="middle" style="white-space: pre;" direction="ltr">Agree on public values: prime p, generator g</text></g><g stroke-linecap="round"><g transform="translate(150.01999999999998 280.25670022860766) rotate(0 437.5 0)"><path d="M-1.08 -0.96 C144.9 -0.82, 728.86 0.72, 874.99 0.82 M0.56 1.15 C146.45 0.95, 728.25 -0.81, 874.04 -0.88" stroke="#3fb950" stroke-width="2" fill="none"></path></g><g transform="translate(150.01999999999998 280.25670022860766) rotate(0 437.5 0)"><path d="M844.27 9.42 C853.66 8.49, 858.11 3.52, 874.98 1.1 M844.95 9.19 C851.74 6.91, 857.81 4.76, 873.67 -1.88" stroke="#3fb950" stroke-width="2" fill="none"></path></g><g transform="translate(150.01999999999998 280.25670022860766) rotate(0 437.5 0)"><path d="M844.23 -11.1 C853.62 -7.35, 858.08 -7.64, 874.98 1.1 M844.92 -11.33 C851.89 -9.5, 857.97 -7.54, 873.67 -1.88" stroke="#3fb950" stroke-width="2" fill="none"></path></g></g><g transform="translate(552.5100207519531 269.00670022860766) rotate(0 35.009979248046875 11.25)"><text x="35.009979248046875" y="NaN" font-family="Virgil, Segoe UI Emoji" font-size="18px" fill="#c9d1d9" text-anchor="middle" style="white-space: pre;" direction="ltr">Sends A</text></g><g stroke-linecap="round" transform="translate(460 309.7433569811602) rotate(0 130 39)"><path d="M-0.07 -0.89 L259.57 1.56 L259.87 78.97 L-0.29 77.68" stroke="none" stroke-width="0" fill="#4a1219"></path><path d="M1.48 0.58 C83.77 1.29, 168.05 2.21, 258.63 1.18 M-0.38 0.29 C76.65 -1.81, 151.19 -0.77, 259.47 0.7 M261.81 -1.36 C260.58 17.1, 259.31 33.9, 258.89 79.47 M259.34 0.29 C261.07 21.03, 260.04 43.09, 259.8 78.81 M259.83 78.74 C160.03 77.86, 60.79 76.48, 0.24 76.7 M259.44 77.31 C164.5 78.94, 68.24 77.96, 0.52 77.74 M1.21 79.28 C1.53 58.85, 0.18 44.76, -0.83 -0.11 M-0.1 77.45 C0.27 58.88, -1.04 40.65, -0.82 -0.21" stroke="#f85149" stroke-width="2" fill="none"></path></g><g transform="translate(468.9050521850586 314.9933569811602) rotate(0 121.0949478149414 33.75)"><text x="121.0949478149414" y="NaN" font-family="Virgil, Segoe UI Emoji" font-size="18px" fill="#ffffff" text-anchor="middle" style="white-space: pre;" direction="ltr">Eve sees: g, p, A, B</text><text x="121.0949478149414" y="NaN" font-family="Virgil, Segoe UI Emoji" font-size="18px" fill="#ffffff" text-anchor="middle" style="white-space: pre;" direction="ltr">Cannot compute g^(ab) mod</text><text x="121.0949478149414" y="NaN" font-family="Virgil, Segoe UI Emoji" font-size="18px" fill="#ffffff" text-anchor="middle" style="white-space: pre;" direction="ltr">p</text></g><g stroke-linecap="round"><g transform="translate(1025.02 510.25670022860766) rotate(0 -437.5 0)"><path d="M0.48 0.45 C-145.56 0.3, -730.06 -0.03, -876.08 -0.07 M-0.73 -0.36 C-146.43 -0.39, -727.93 1.1, -873.93 1.44" stroke="#58a6ff" stroke-width="2" fill="none"></path></g><g transform="translate(1025.02 510.25670022860766) rotate(0 -437.5 0)"><path d="M-845.02 -10.69 C-854.67 -6.6, -863.08 -2.67, -872.96 1.92 M-845.37 -9.31 C-853.54 -5.88, -861.52 -2.96, -873.16 2.06" stroke="#58a6ff" stroke-width="2" fill="none"></path></g><g transform="translate(1025.02 510.25670022860766) rotate(0 -437.5 0)"><path d="M-844.97 9.83 C-854.78 7.46, -863.2 4.93, -872.96 1.92 M-845.32 11.21 C-853.6 8.98, -861.6 6.24, -873.16 2.06" stroke="#58a6ff" stroke-width="2" fill="none"></path></g></g><g transform="translate(551.8710208129883 499.00670022860766) rotate(0 35.64897918701172 11.25)"><text x="35.64897918701172" y="NaN" font-family="Virgil, Segoe UI Emoji" font-size="18px" fill="#c9d1d9" text-anchor="middle" style="white-space: pre;" direction="ltr">Sends B</text></g><g stroke-linecap="round" transform="translate(410 669.7433569811602) rotate(0 180 30)"><path d="M0.63 1.98 L360.66 -0.34 L359.88 58.31 L0.29 62" stroke="none" stroke-width="0" fill="#1f4d2b"></path><path d="M0.12 1.08 C107.77 0.44, 215.55 1.51, 359.89 0.71 M-0.49 0.19 C110.7 -1.51, 222.72 -2.01, 360.49 0.25 M359.62 1.19 C359.53 17.24, 359.69 32.09, 360.7 60.6 M360.39 0.41 C360.8 16.08, 360.41 31.21, 359.78 59.59 M359.12 61.13 C265.37 61.3, 169.75 61.91, 1.07 58.85 M360.46 59.75 C272.16 57.91, 184.42 57.74, -0.47 60.6 M0.7 60.58 C-1.22 42.34, -0.32 22.37, 1.26 0.26 M-0.51 60.13 C0.31 40.78, 0.74 22.29, -0.07 0.35" stroke="#3fb950" stroke-width="2" fill="none"></path></g><g transform="translate(421.9701385498047 687.2433569811602) rotate(0 168.0298614501953 12.5)"><text x="168.0298614501953" y="NaN" font-family="Virgil, Segoe UI Emoji" font-size="20px" fill="#ffffff" text-anchor="middle" style="white-space: pre;" direction="ltr">Same shared secret: g^(ab) mod p</text></g><g stroke-linecap="round"><g transform="translate(148.53784110050134 66.75217946359263) rotate(0 0.8676310592806828 376.5512691166641)"><path d="M-0.09 -1.19 C0.49 124.66, 2.04 628.43, 2.54 754.1" stroke="#f08c00" stroke-width="2.5" fill="none" stroke-dasharray="8 10"></path></g></g><g stroke-linecap="round"><g transform="translate(1023.2230885996282 64.34976194828894) rotate(0 0.8676310592807113 376.5512691166641)"><path d="M-1.19 -1.02 C-1.27 124.49, 0.07 628.24, 0.55 753.97" stroke="#f08c00" stroke-width="2.5" fill="none" stroke-dasharray="8 10"></path></g></g><g stroke-linecap="round" transform="translate(905 410.25670022860766) rotate(0 120 35)"><path d="M1.63 -0.34 L238.95 0.06 L241.41 71.72 L0.1 68.79" stroke="none" stroke-width="0" fill="#3a1d6e"></path><path d="M1.08 1.22 C54.04 -0.21, 105.25 0.55, 239.69 0.82 M-0.03 0.81 C91.67 -0.09, 183.83 -1.19, 239.21 0.62 M238.06 1.21 C240 21.02, 238.62 42.73, 238.65 68.54 M239.05 0.23 C241.13 16.15, 239.57 31.04, 240.65 70.53 M241.17 70.64 C177.55 71.69, 117.46 69.68, 0.75 69.08 M240.62 69.28 C156.46 68.18, 71.81 68.51, 0.3 70.01 M1.09 71.34 C-0.19 47.56, 1.08 23.99, -0.5 -0.88 M0.82 70.48 C0.29 49.44, -0.59 26.81, -0.25 -0.13" stroke="#a371f7" stroke-width="2" fill="none"></path></g><g transform="translate(917.9720458984375 422.75670022860766) rotate(0 107.0279541015625 22.5)"><text x="107.0279541015625" y="NaN" font-family="Virgil, Segoe UI Emoji" font-size="18px" fill="#ffffff" text-anchor="middle" style="white-space: pre;" direction="ltr">Secret: b</text><text x="107.0279541015625" y="NaN" font-family="Virgil, Segoe UI Emoji" font-size="18px" fill="#ffffff" text-anchor="middle" style="white-space: pre;" direction="ltr">Compute: B = g^b mod p</text></g><g stroke-linecap="round" transform="translate(885 560.2567002286077) rotate(0 140 35)"><path d="M-0.34 -0.07 L281.52 0.6 L278.12 69.04 L0.65 71.69" stroke="none" stroke-width="0" fill="#0d2c5a"></path><path d="M1.42 0.95 C69.56 -1.18, 140.37 -1.7, 279.46 -0.33 M-0.16 0.33 C89.53 2.06, 178.56 2.42, 280.15 0.62 M281.2 0.53 C279.89 15.9, 278.45 32.11, 281.92 70.1 M280.62 -0.19 C280.02 20.23, 280.49 40.75, 280.1 69.22 M278.81 71.38 C217.93 70.66, 158.52 71.75, 0.03 68.88 M279.53 70.61 C171.61 68.24, 64.12 68.37, 0.21 70.39 M1.11 69.37 C-2.32 42.51, -2.07 16.93, 1.23 0.33 M-0.2 69.83 C0.29 49.41, 1.28 30.84, -0.12 -0.66" stroke="#58a6ff" stroke-width="2" fill="none"></path></g><g transform="translate(932.7860412597656 572.7567002286077) rotate(0 92.21395874023438 22.5)"><text x="92.21395874023438" y="NaN" font-family="Virgil, Segoe UI Emoji" font-size="18px" fill="#ffffff" text-anchor="middle" style="white-space: pre;" direction="ltr">Computes: A^b mod p</text><text x="92.21395874023438" y="NaN" font-family="Virgil, Segoe UI Emoji" font-size="18px" fill="#ffffff" text-anchor="middle" style="white-space: pre;" direction="ltr">= g^(ab) mod p</text></g><g stroke-linecap="round" transform="translate(10 560.2567002286077) rotate(0 140 35)"><path d="M-1.31 1.87 L278.38 1.55 L280.37 69.76 L1.01 71.38" stroke="none" stroke-width="0" fill="#0d2c5a"></path><path d="M-0.38 0.59 C111.21 0.26, 224.9 -2.09, 279.05 -1.52 M0.26 0.44 C93.13 1.19, 185.21 0.98, 279.72 -0.6 M278.77 -0.12 C281.54 15.94, 278.52 26.89, 279.14 69.59 M280.85 -0.78 C279.83 21.71, 279.15 44.92, 280.41 70.85 M278.69 71.39 C176.17 69.97, 72.69 71.43, -1.25 69.14 M280.03 70 C187.42 68.53, 96.55 68.99, -0.53 70.06 M1.52 68.17 C2.03 53.82, 1.62 35.76, 1.2 0.41 M0.11 69.52 C0.23 51.15, -0.22 33.61, -0.18 0.34" stroke="#58a6ff" stroke-width="2" fill="none"></path></g><g transform="translate(55.716041564941406 572.7567002286077) rotate(0 94.2839584350586 22.5)"><text x="94.2839584350586" y="NaN" font-family="Virgil, Segoe UI Emoji" font-size="18px" fill="#ffffff" text-anchor="middle" style="white-space: pre;" direction="ltr">Computes: B^a mod p</text><text x="94.2839584350586" y="NaN" font-family="Virgil, Segoe UI Emoji" font-size="18px" fill="#ffffff" text-anchor="middle" style="white-space: pre;" direction="ltr">= g^(ab) mod p</text></g><g stroke-linecap="round" transform="translate(30 160.25670022860766) rotate(0 120 35)"><path d="M0.53 -1.98 L240.79 0.54 L240.78 69.48 L-1.07 71.48" stroke="none" stroke-width="0" fill="#3a1d6e"></path><path d="M-0.87 -0.63 C79.11 0.23, 158.8 -1.75, 239.67 -1.27 M0.54 -0.71 C73.85 2.15, 148.42 2.59, 239.93 -0.73 M241.32 1.5 C238.74 28.29, 241.69 54.28, 239.39 69.34 M239.92 0.4 C240.83 24.3, 240.87 50.21, 240.11 69.37 M240.47 71.02 C183.75 67.21, 131.76 66.9, -0.74 71.1 M240.36 69.3 C192.33 69.15, 142.8 70.42, -0.66 70.83 M1.45 71.18 C-0.46 42.81, 0.95 17.11, -1.5 1.42 M0.07 69.37 C-0.18 49.48, -0.36 27.76, 0.04 -0.36" stroke="#a371f7" stroke-width="2" fill="none"></path></g><g transform="translate(42.18004608154297 172.75670022860766) rotate(0 107.81995391845703 22.5)"><text x="107.81995391845703" y="NaN" font-family="Virgil, Segoe UI Emoji" font-size="18px" fill="#ffffff" text-anchor="middle" style="white-space: pre;" direction="ltr">Secret: a</text><text x="107.81995391845703" y="NaN" font-family="Virgil, Segoe UI Emoji" font-size="18px" fill="#ffffff" text-anchor="middle" style="white-space: pre;" direction="ltr">Compute: A = g^a mod p</text></g></svg>