<svg version="1.1" xmlns="http://www.w3.org/2000/svg" viewBox="0 0 940 630" width="940" height="630">
  <!-- svg-source:excalidraw -->
  
  <defs>
    <style>
      @font-face {
        font-family: "Virgil";
        src: url("https://excalidraw.com/Virgil.woff2");
      }
      @font-face {
        font-family: "Cascadia";
        src: url("https://excalidraw.com/Cascadia.woff2");
      }
    </style>
  </defs>
  <rect x="0" y="0" width="940" height="630" fill="#0d1117"></rect><g stroke-opacity="0.6" fill-opacity="0.6" stroke-linecap="round" transform="translate(10 10) rotate(0 215 265)"><path d="M-1.06 -1.02 L428.33 1.22 L431.8 528.49 L-1.49 529.91" stroke="none" stroke-width="0" fill="#161b22"></path><path d="M-0.15 -0.64 C106.25 -0.17, 213.85 -0.29, 430.67 0.76 M430.56 -0.61 C428.86 197.14, 428.99 395.71, 430.54 530.45 M429.92 530.9 C275.72 529.35, 121.78 529.99, 0.58 529.03 M0.3 529.2 C1.35 334.68, 1.3 139.7, 0.64 -0.78" stroke="#30363d" stroke-width="2.5" fill="none" stroke-dasharray="8 10"></path></g><g transform="translate(30 20) rotate(0 26.837966918945312 11.25)"><text x="0" y="NaN" font-family="Virgil, Segoe UI Emoji" font-size="18px" fill="#8b949e" text-anchor="start" style="white-space: pre;" direction="ltr">Signing</text></g><g stroke-linecap="round" transform="translate(60 70) rotate(0 90 32)"><path d="M0.59 1.95 L180.44 1.38 L180.27 63.97 L0.77 64.45" stroke="none" stroke-width="0" fill="#1f4d2b"></path><path d="M1.95 1.08 C55.24 -2.16, 107.71 -0.62, 178.42 0.85 M0.82 -0.15 C61.26 0.32, 123.31 0, 179.23 -0.27 M180.41 0.51 C178.26 18.05, 178.06 34.57, 181.86 62.58 M180.77 0.12 C180.05 23.27, 179.45 47.14, 179.63 64.1 M178.16 65.62 C113.73 62.19, 42.3 64.57, -1.06 63.76 M179.47 63.13 C126.01 62.82, 73.85 62.36, 0.8 63.35 M-1.74 62.9 C0.3 42.52, 0.96 26.13, 0.1 0.32 M-0.32 64.51 C0.21 45.45, 0.87 27.43, -0.77 -0.78" stroke="#3fb950" stroke-width="2" fill="none"></path></g><g transform="translate(108.86003875732422 89.5) rotate(0 41.13996124267578 12.5)"><text x="41.13996124267578" y="NaN" font-family="Virgil, Segoe UI Emoji" font-size="20px" fill="#ffffff" text-anchor="middle" style="white-space: pre;" direction="ltr">Message</text></g><g stroke-linecap="round" transform="translate(60 190) rotate(0 90 32)"><path d="M-0.9 -1.16 L179.7 0.09 L178.38 64.74 L1.98 65.82" stroke="none" stroke-width="0" fill="#3a1d6e"></path><path d="M0.21 -0.29 C43.45 0.11, 86.22 -1.47, 181.05 0.5 M0.35 -0.92 C37.48 -0.41, 73.36 -1.23, 180.4 -0.68 M181.85 -0.02 C178.46 15.07, 178.68 31.68, 179.89 62.26 M179.42 0.75 C181.27 20.27, 180.29 41.09, 180.55 63.11 M181.37 63.72 C141.06 62.6, 105.29 62.87, -0.42 64.04 M180.6 64.43 C118.76 63.57, 57.9 63, 0.74 63.58 M0.06 65.69 C-1.84 48.34, 0.39 33.78, -1.24 -0.4 M-0.06 64.35 C0.44 40.97, -0.58 16.68, 0.96 -0.92" stroke="#a371f7" stroke-width="2" fill="none"></path></g><g transform="translate(80.68006896972656 209.5) rotate(0 69.31993103027344 12.5)"><text x="69.31993103027344" y="NaN" font-family="Virgil, Segoe UI Emoji" font-size="20px" fill="#ffffff" text-anchor="middle" style="white-space: pre;" direction="ltr">hash(message)</text></g><g stroke-linecap="round" transform="translate(280 190) rotate(0 70 32)"><path d="M-0.51 -1.36 L140.21 -0.6 L141.99 63.28 L0.22 64.33" stroke="none" stroke-width="0" fill="#5c3a10"></path><path d="M1.46 0.16 C55.08 0.11, 109.3 -2.62, 141.47 1.87 M0.42 -0.08 C50.28 -0.89, 99.63 -0.19, 140.88 -0.82 M140.77 0.2 C140.38 18.1, 141.06 36.57, 140.03 63.8 M140.97 0.8 C139.79 15.07, 140.22 27.82, 139.75 64.62 M140.18 63.95 C88.02 64.71, 37.93 62.04, -1.28 65.98 M139.33 63.05 C109.01 65.81, 77.58 66.33, 0.37 64.29 M-1.7 62.76 C-1.57 45.09, 1.01 29.95, -1.05 0.86 M-0.96 63.79 C0.72 45.13, 0.73 26.79, -0.38 -0.24" stroke="#f0883e" stroke-width="2" fill="none"></path></g><g transform="translate(292.59004974365234 209.5) rotate(0 57.409950256347656 12.5)"><text x="57.409950256347656" y="NaN" font-family="Virgil, Segoe UI Emoji" font-size="20px" fill="#ffffff" text-anchor="middle" style="white-space: pre;" direction="ltr">Private Key</text></g><g stroke-linecap="round" transform="translate(140 310) rotate(0 90 32)"><path d="M-1.04 -0.58 L181.87 -1.79 L178.33 65.96 L-0.12 64.04" stroke="none" stroke-width="0" fill="#3a1d6e"></path><path d="M0.9 0.86 C69.25 -2.8, 137.72 -3.33, 178.88 -1.6 M-0.98 0.22 C48.19 0.79, 98.42 2.19, 180.39 0.36 M181.92 -0.77 C178.57 14.69, 180.72 28.02, 181.43 63.8 M180.85 0.54 C180.28 15.94, 180.94 31.46, 180.07 63.62 M180.84 62.34 C108.54 62.62, 39.66 63.29, 0.62 63.73 M180.89 63.77 C143.95 63.84, 106.38 63.9, 0.02 64.6 M-1.82 63.16 C-0.33 40.38, -2.02 20.75, 1.26 0.54 M-0.72 64.22 C-0.24 45.84, -0.58 28.83, 0.61 0.31" stroke="#a371f7" stroke-width="2" fill="none"></path></g><g transform="translate(205.17002868652344 329.5) rotate(0 24.829971313476562 12.5)"><text x="24.829971313476562" y="NaN" font-family="Virgil, Segoe UI Emoji" font-size="20px" fill="#ffffff" text-anchor="middle" style="white-space: pre;" direction="ltr">sign()</text></g><g stroke-linecap="round" transform="translate(140 430) rotate(0 90 32)"><path d="M-1.6 -0.29 L181.96 -1.06 L179.32 64.92 L-1.23 63.67" stroke="none" stroke-width="0" fill="#0d2c5a"></path><path d="M-1.31 -1.06 C55.63 2.42, 113.97 1.01, 181.84 -0.7 M-0.15 0.72 C55.01 0.25, 108.34 0.73, 180.04 -0.26 M180.49 -0.59 C180.11 14.94, 177.44 28.76, 178.35 65.88 M179.8 0.12 C180.39 19.35, 179.65 39.83, 180.34 64.87 M178.7 64.62 C112.75 64.22, 45.31 64.21, 0.8 65.72 M179.07 64.59 C121.51 64.58, 64.29 65.73, -0.95 63.32 M1.07 62.35 C0.08 40.91, 0.21 13.06, 0.93 -0.38 M-0.31 64.33 C0.3 45.47, -1.09 28.02, 0.53 -0.05" stroke="#58a6ff" stroke-width="2" fill="none"></path></g><g transform="translate(184.28004455566406 449.5) rotate(0 45.71995544433594 12.5)"><text x="45.71995544433594" y="NaN" font-family="Virgil, Segoe UI Emoji" font-size="20px" fill="#ffffff" text-anchor="middle" style="white-space: pre;" direction="ltr">Signature</text></g><g stroke-linecap="round"><g transform="translate(150.018 140) rotate(0 0 22)"><path d="M1 -0.37 C1.16 6.85, 0.11 36.56, -0.07 43.86 M0.07 -1.61 C0.15 5.76, -0.89 37.65, -1.05 45.33" stroke="#3fb950" stroke-width="2" fill="none"></path></g><g transform="translate(150.018 140) rotate(0 0 22)"><path d="M-8.63 24.34 C-6.65 28.77, -5.87 32.63, -2.15 43.73 M-7.27 24.9 C-5.04 30.09, -4.39 35.93, -1.87 46.24" stroke="#3fb950" stroke-width="2" fill="none"></path></g><g transform="translate(150.018 140) rotate(0 0 22)"><path d="M6.41 24.75 C5.14 29.21, 2.66 32.98, -2.15 43.73 M7.77 25.3 C5.76 30.53, 2.18 36.25, -1.87 46.24" stroke="#3fb950" stroke-width="2" fill="none"></path></g></g><g transform="translate(130.21800994873047 149.5) rotate(0 19.78199005126953 11.25)"><text x="19.78199005126953" y="NaN" font-family="Virgil, Segoe UI Emoji" font-size="18px" fill="#8b949e" text-anchor="middle" style="white-space: pre;" direction="ltr">hash</text></g><g stroke-linecap="round"><g transform="translate(163.8641606820041 260) rotate(0 26.132240909892857 22)"><path d="M0.14 0.04 C8.91 7.6, 44.27 37.45, 52.76 44.6 M-1.24 -0.98 C7.39 6.28, 42.97 35.34, 52.08 42.8" stroke="#3fb950" stroke-width="2" fill="none"></path></g><g transform="translate(163.8641606820041 260) rotate(0 26.132240909892857 22)"><path d="M23.83 33.72 C33.64 34.09, 39.87 37.31, 52.05 44.3 M23.39 33.05 C30.49 35.15, 38.5 37.15, 52.4 42.88" stroke="#3fb950" stroke-width="2" fill="none"></path></g><g transform="translate(163.8641606820041 260) rotate(0 26.132240909892857 22)"><path d="M36.83 17.84 C42.44 23.23, 44.58 31.46, 52.05 44.3 M36.38 17.17 C40 23.41, 44.64 29.55, 52.4 42.88" stroke="#3fb950" stroke-width="2" fill="none"></path></g></g><g stroke-linecap="round"><g transform="translate(330.27608538170216 260) rotate(0 -39.870012745596114 22)"><path d="M-0.28 -0.95 C-13.57 6.57, -65.64 37.29, -78.96 44.97 M1.77 1.17 C-11.68 8.37, -65.66 36.32, -79.49 43.36" stroke="#f0883e" stroke-width="2" fill="none"></path></g><g transform="translate(330.27608538170216 260) rotate(0 -39.870012745596114 22)"><path d="M-60.7 22.65 C-64.95 28.57, -72.08 39.07, -78.98 42.42 M-60.04 21.37 C-63.34 26.43, -69.79 32.09, -78.6 43.04" stroke="#f0883e" stroke-width="2" fill="none"></path></g><g transform="translate(330.27608538170216 260) rotate(0 -39.870012745596114 22)"><path d="M-51.31 40.9 C-58.97 40.13, -69.52 43.98, -78.98 42.42 M-50.66 39.61 C-56.44 40.1, -65.23 41.21, -78.6 43.04" stroke="#f0883e" stroke-width="2" fill="none"></path></g></g><g stroke-linecap="round"><g transform="translate(230.01799999999997 380) rotate(0 0 22)"><path d="M-0.71 0.46 C-0.36 7.54, 0.91 35.53, 1.07 42.95 M1.12 -0.35 C1.49 6.8, 0.94 36.69, 0.68 43.93" stroke="#58a6ff" stroke-width="2" fill="none"></path></g><g transform="translate(230.01799999999997 380) rotate(0 0 22)"><path d="M-5.57 24.86 C-6.51 27.95, -1.67 33.27, 1.72 44.53 M-5.82 22.96 C-4.67 27.71, -2.39 33.58, 0.15 43.19" stroke="#58a6ff" stroke-width="2" fill="none"></path></g><g transform="translate(230.01799999999997 380) rotate(0 0 22)"><path d="M9.47 25.23 C5.31 28.15, 6.91 33.39, 1.72 44.53 M9.23 23.33 C6.78 27.88, 5.48 33.67, 0.15 43.19" stroke="#58a6ff" stroke-width="2" fill="none"></path></g></g><g stroke-opacity="0.6" fill-opacity="0.6" stroke-linecap="round" transform="translate(490 10) rotate(0 220 305)"><path d="M-0.11 0.91 L438.16 1.38 L441.79 611.33 L-0.35 610.57" stroke="none" stroke-width="0" fill="#161b22"></path><path d="M-0.97 -0.38 C130.88 1.19, 262.26 0.25, 440.92 -0.49 M440.12 -0.72 C438.42 220.34, 438.54 442.75, 439.39 610.12 M439.14 609.2 C267.87 608.96, 97.64 609.14, -0.05 609.31 M0.11 609.68 C-0.71 400.42, -1.44 191.8, 0.39 -0.48" stroke="#30363d" stroke-width="2.5" fill="none" stroke-dasharray="8 10"></path></g><g transform="translate(510 20) rotate(0 48.5279541015625 11.25)"><text x="0" y="NaN" font-family="Virgil, Segoe UI Emoji" font-size="18px" fill="#8b949e" text-anchor="start" style="white-space: pre;" direction="ltr">Verification</text></g><g stroke-linecap="round" transform="translate(540 70) rotate(0 90 32)"><path d="M-1.25 0.59 L178.32 -1.24 L180.52 63.98 L-0.2 63.95" stroke="none" stroke-width="0" fill="#1f4d2b"></path><path d="M-1.25 0.19 C71.97 -2.7, 141.73 0.19, 178.9 -1.87 M-0.97 0.82 C60.53 -0.53, 121.95 0.73, 180.38 -0.68 M179.12 -0.28 C179.61 17.95, 177.63 32.63, 181.45 63.64 M179.68 0.79 C180.19 18.98, 179.57 36.7, 179.85 64.15 M181.7 65.76 C108.83 67.54, 41.55 63.81, -1.5 65.53 M179.66 64 C130.45 63.84, 83.5 62.6, 0.51 63.41 M-1.31 62.35 C-0.18 47.44, 1.04 32.98, 1.4 0.91 M0.83 63.31 C-0.36 43.91, 1.27 22.27, -0.41 -0.28" stroke="#3fb950" stroke-width="2" fill="none"></path></g><g transform="translate(588.8600387573242 89.5) rotate(0 41.13996124267578 12.5)"><text x="41.13996124267578" y="NaN" font-family="Virgil, Segoe UI Emoji" font-size="20px" fill="#ffffff" text-anchor="middle" style="white-space: pre;" direction="ltr">Message</text></g><g stroke-linecap="round" transform="translate(540 190) rotate(0 90 32)"><path d="M0.69 0.7 L180.59 0.87 L180.03 62.52 L-0.92 64.57" stroke="none" stroke-width="0" fill="#3a1d6e"></path><path d="M-0.56 1.13 C55.04 0.84, 108.68 0.48, 179.97 1.23 M-0.08 0.54 C57.15 -0.72, 114.62 -1.97, 179.53 0.5 M179.97 1.03 C180.33 21.5, 177.52 38.32, 179 64.65 M179.22 -0.02 C179.13 16.33, 180.8 30.95, 179.22 64.89 M178.03 65.73 C129.34 65.5, 76.56 64.83, 1.82 64.83 M180.35 63.6 C110.79 63.28, 40.1 63.17, 0.46 64.28 M1.87 64.76 C1.85 43.21, 0.4 24.07, 1.46 0.75 M0.21 63.91 C-0.24 40.76, 0.27 15.39, -0.29 -0.26" stroke="#a371f7" stroke-width="2" fill="none"></path></g><g transform="translate(560.6800689697266 209.5) rotate(0 69.31993103027344 12.5)"><text x="69.31993103027344" y="NaN" font-family="Virgil, Segoe UI Emoji" font-size="20px" fill="#ffffff" text-anchor="middle" style="white-space: pre;" direction="ltr">hash(message)</text></g><g stroke-linecap="round" transform="translate(760 190) rotate(0 75 32)"><path d="M-1.37 0.81 L148.87 -1.03 L149.54 65.07 L-1.64 65.19" stroke="none" stroke-width="0" fill="#5c3a10"></path><path d="M0.13 -1.92 C58.25 0.21, 119.88 0.61, 151.04 0.33 M0.81 0.27 C44.84 0.73, 89.46 -1.05, 150.67 -0.33 M150.82 -1.66 C152.33 25.05, 148.7 48.02, 150.55 65.66 M150.77 -0.83 C150.06 24.48, 150.03 50.79, 150.59 63.63 M148.35 65.7 C91.27 63.3, 36.4 65.69, 1.14 64.14 M149.04 63.2 C104.22 62.95, 58.88 61.96, 0.4 63.14 M1.04 63.17 C-1.4 38.97, -1.52 15.16, 1.53 0.6 M-0.4 64.52 C-0.12 48.41, 1.28 34.1, -0.18 -0.25" stroke="#f0883e" stroke-width="2" fill="none"></path></g><g transform="translate(786.5000457763672 209.5) rotate(0 48.49995422363281 12.5)"><text x="48.49995422363281" y="NaN" font-family="Virgil, Segoe UI Emoji" font-size="20px" fill="#ffffff" text-anchor="middle" style="white-space: pre;" direction="ltr">Public Key</text></g><g stroke-linecap="round" transform="translate(540 310) rotate(0 90 32)"><path d="M0.57 0.92 L181.15 1.07 L179.04 63.62 L1.63 65.81" stroke="none" stroke-width="0" fill="#0d2c5a"></path><path d="M0.82 -0.97 C53.2 0.31, 106.57 -2.54, 178.11 -0.57 M-0.3 -0.01 C50.38 2.12, 99.98 1.82, 179.81 0.85 M181.67 -0.34 C179.05 15.79, 178.6 28.11, 178.1 62.67 M180.31 0.35 C179.72 21.83, 179.98 45.04, 179.96 64.38 M178.67 65.67 C130.38 65.42, 82.59 62.88, 0.46 63.44 M179.72 64.79 C139.46 62.16, 101.3 62.3, 0.34 64.01 M0.22 65.58 C0.64 47.54, 1.84 35.85, 1.6 0.45 M0.98 63.13 C0 45.26, 0.29 27.21, -0.07 -0.23" stroke="#58a6ff" stroke-width="2" fill="none"></path></g><g transform="translate(584.2800445556641 329.5) rotate(0 45.71995544433594 12.5)"><text x="45.71995544433594" y="NaN" font-family="Virgil, Segoe UI Emoji" font-size="20px" fill="#ffffff" text-anchor="middle" style="white-space: pre;" direction="ltr">Signature</text></g><g stroke-linecap="round" transform="translate(620 430) rotate(0 90 32)"><path d="M-1.49 1.03 L179.43 -0.83 L178.55 62.17 L0.91 62.43" stroke="none" stroke-width="0" fill="#3a1d6e"></path><path d="M1.5 -0.02 C72.27 -0.16, 141.52 1.75, 179.18 -1.47 M0.58 -0.29 C44.99 -0.06, 90.66 -0.89, 180.95 0.02 M178.52 0.97 C179.77 19.34, 178.49 37.81, 179.66 63.69 M179.85 -0.46 C180.65 19.18, 179.21 37.28, 179.33 63.12 M178.99 65.64 C114.89 63.38, 45.6 63.9, -0.22 62.75 M180.41 64.39 C119.8 65.21, 59.89 66.46, 0.29 64.88 M-0.61 64 C1.39 43.3, -0.08 26.93, 1.66 0.29 M0.36 63.74 C0.13 42.11, -0.7 20.33, 0.05 -0.22" stroke="#a371f7" stroke-width="2" fill="none"></path></g><g transform="translate(675.7300415039062 449.5) rotate(0 34.26995849609375 12.5)"><text x="34.26995849609375" y="NaN" font-family="Virgil, Segoe UI Emoji" font-size="20px" fill="#ffffff" text-anchor="middle" style="white-space: pre;" direction="ltr">verify()</text></g><g stroke-linecap="round" transform="translate(620 550) rotate(0 90 32)"><path d="M0.45 1.14 L181.7 1.27 L178.06 64.72 L0.19 63.05" stroke="none" stroke-width="0" fill="#1f4d2b"></path><path d="M-1.81 0.92 C51.35 -0.62, 104.46 2.04, 180.25 1.63 M-0.53 -0.57 C41.61 1.36, 83.34 0.01, 180.1 -0.81 M179.37 -1.71 C180.49 22.89, 178.39 47.5, 181.21 64.7 M179.39 0.73 C179.59 16.53, 180.43 31.53, 180.7 63.87 M179.31 65.61 C131.41 65.34, 84.62 64.92, -0.9 62.05 M179.1 63.99 C134.14 64.65, 88.49 65.03, 0.23 63.75 M-1.43 62.41 C-0.57 39.07, -0.72 18.02, 1.73 0.14 M-0.25 64.34 C0.25 38.96, 0.31 13.44, 0.16 -0.2" stroke="#3fb950" stroke-width="2" fill="none"></path></g><g transform="translate(640.1200408935547 569.5) rotate(0 69.87995910644531 12.5)"><text x="69.87995910644531" y="NaN" font-family="Virgil, Segoe UI Emoji" font-size="20px" fill="#ffffff" text-anchor="middle" style="white-space: pre;" direction="ltr">Valid / Invalid</text></g><g stroke-linecap="round"><g transform="translate(630.018 140) rotate(0 0 22)"><path d="M0.74 -0.67 C0.74 6.81, 1.2 36.63, 1.12 43.9 M-0.33 1.59 C-0.48 9.35, 0.77 38.37, 0.77 45.38" stroke="#3fb950" stroke-width="2" fill="none"></path></g><g transform="translate(630.018 140) rotate(0 0 22)"><path d="M-8.36 26.76 C-4.44 33.31, -2.91 40.75, 2.08 46.11 M-6.89 24.05 C-5.4 29.59, -3.87 34.04, 0.01 45.75" stroke="#3fb950" stroke-width="2" fill="none"></path></g><g transform="translate(630.018 140) rotate(0 0 22)"><path d="M6.68 26.41 C4.7 33.18, 0.33 40.77, 2.08 46.11 M8.16 23.69 C6.47 29.42, 4.83 33.94, 0.01 45.75" stroke="#3fb950" stroke-width="2" fill="none"></path></g></g><g stroke-linecap="round"><g transform="translate(634.1149000867568 260) rotate(0 35.88296211405179 82)"><path d="M-0.12 -0.26 C11.74 27.15, 59.21 137.11, 71.06 164.64 M-1.64 -1.44 C10.62 25.6, 60.88 135.44, 73.4 162.85" stroke="#3fb950" stroke-width="2" fill="none"></path></g><g transform="translate(634.1149000867568 260) rotate(0 35.88296211405179 82)"><path d="M51.92 140.3 C59.58 146.4, 66.13 152.79, 71.78 162.69 M51.59 142.35 C61.4 150.16, 69.39 158.08, 73.78 162.4" stroke="#3fb950" stroke-width="2" fill="none"></path></g><g transform="translate(634.1149000867568 260) rotate(0 35.88296211405179 82)"><path d="M70.58 131.77 C72.82 140.34, 73.93 149.21, 71.78 162.69 M70.26 133.82 C72.83 144.92, 73.55 156.16, 73.78 162.4" stroke="#3fb950" stroke-width="2" fill="none"></path></g></g><g stroke-linecap="round"><g transform="translate(828.7353049551049 260) rotate(0 -56.20005722897156 82.00000000000003)"><path d="M-0.54 1.15 C-19.43 28.52, -94.16 137.76, -112.82 165.01 M1.37 0.71 C-17.75 27.69, -94.87 136.42, -113.99 163.42" stroke="#f0883e" stroke-width="2" fill="none"></path></g><g transform="translate(828.7353049551049 260) rotate(0 -56.20005722897156 82.00000000000003)"><path d="M-104.14 133.78 C-106.89 144.12, -110.17 152.52, -115.07 164.8 M-105.37 135.22 C-109.08 145.66, -112.31 156.95, -113.04 162.55" stroke="#f0883e" stroke-width="2" fill="none"></path></g><g transform="translate(828.7353049551049 260) rotate(0 -56.20005722897156 82.00000000000003)"><path d="M-87.4 145.65 C-95.94 151.86, -104.92 156.22, -115.07 164.8 M-88.63 147.09 C-98.66 152.94, -108.22 159.74, -113.04 162.55" stroke="#f0883e" stroke-width="2" fill="none"></path></g></g><g stroke-linecap="round"><g transform="translate(643.8641606820047 380) rotate(0 26.13224090989354 22)"><path d="M-0.97 0.16 C7.53 7.49, 43.16 35.6, 52.13 42.98 M0.72 -0.81 C8.96 6.73, 42.5 36.79, 51.1 43.98" stroke="#58a6ff" stroke-width="2" fill="none"></path></g><g transform="translate(643.8641606820047 380) rotate(0 26.13224090989354 22)"><path d="M23.37 32.98 C32.24 38.58, 45.62 43.69, 50.56 42.92 M23.24 33.81 C32.61 37.67, 42.65 40.71, 50.63 44.7" stroke="#58a6ff" stroke-width="2" fill="none"></path></g><g transform="translate(643.8641606820047 380) rotate(0 26.13224090989354 22)"><path d="M36.84 17.5 C40.33 29.03, 48.44 40.19, 50.56 42.92 M36.71 18.33 C41.01 27.75, 46.1 36.48, 50.63 44.7" stroke="#58a6ff" stroke-width="2" fill="none"></path></g></g><g stroke-linecap="round"><g transform="translate(710.018 500) rotate(0 0 22)"><path d="M1 -0.84 C1.14 6.46, 0.51 35.84, 0.15 43.35 M0.07 1.34 C0.13 8.82, -0.9 37.16, -0.73 44.55" stroke="#3fb950" stroke-width="2" fill="none"></path></g><g transform="translate(710.018 500) rotate(0 0 22)"><path d="M-9.45 24.05 C-7.45 26.78, -4.23 35.05, -0.74 45.03 M-8.48 24.26 C-4.75 31.33, -2.4 38.55, -0.63 44.85" stroke="#3fb950" stroke-width="2" fill="none"></path></g><g transform="translate(710.018 500) rotate(0 0 22)"><path d="M5.6 24.19 C3.98 27.01, 3.59 35.24, -0.74 45.03 M6.57 24.4 C4.93 31.51, 1.91 38.68, -0.63 44.85" stroke="#3fb950" stroke-width="2" fill="none"></path></g></g></svg>