<svg version="1.1" xmlns="http://www.w3.org/2000/svg" viewBox="0 0 742.1897822107101 865" width="742.1897822107101" height="865">
  <!-- svg-source:excalidraw -->
  
  <defs>
    <style>
      @font-face {
        font-family: "Virgil";
        src: url("https://excalidraw.com/Virgil.woff2");
      }
      @font-face {
        font-family: "Cascadia";
        src: url("https://excalidraw.com/Cascadia.woff2");
      }
    </style>
  </defs>
  <rect x="0" y="0" width="742.1897822107101" height="865" fill="#1e1e2e"></rect><g stroke-linecap="round" transform="translate(58.92457857457191 10) rotate(0 100 25)"><path d="M0.61 1.86 L199.9 -1.27 L201.93 50.38 L-1.76 48.82" stroke="none" stroke-width="0" fill="#5b21b6"></path><path d="M-0.22 0.4 C65.32 1.44, 135.3 -0.05, 198.34 -0.95 M-0.28 0.63 C69.97 0.44, 139.48 0.22, 199.6 -0.69 M200.98 0.11 C201.07 15.71, 201.47 32.73, 200.82 49.65 M200.92 -0.51 C200.62 20.55, 199.2 40, 200.55 49.94 M199.43 48.68 C151.21 47.75, 103.75 47.09, 1.09 48.65 M200.72 49.69 C140.51 49.6, 80.01 49.86, 0.88 49.77 M-1.51 50.94 C0.56 32.5, -1.67 17.8, -0.84 -1.83 M-0.22 50.71 C0.39 30.66, -0.65 12.25, -0.08 -0.89" stroke="#7c3aed" stroke-width="2" fill="none"></path></g><g transform="translate(131.87460604039222 22.5) rotate(0 27.049972534179688 12.5)"><text x="27.049972534179688" y="NaN" font-family="Virgil, Segoe UI Emoji" font-size="20px" fill="#ffffff" text-anchor="middle" style="white-space: pre;" direction="ltr">Client</text></g><g stroke-linecap="round"><g transform="translate(158.9245785745719 59.869352141538) rotate(0 -0.7355480443734734 372.85333930125535)"><path d="M0.76 -0.2 C0.5 124.34, -2.19 622.1, -2.51 746.39" stroke="#585b70" stroke-width="1.5" fill="none" stroke-dasharray="8 9"></path></g></g><g stroke-linecap="round" transform="translate(58.92457857457191 805) rotate(0 100 25)"><path d="M1.12 1.71 L200.18 0.71 L198.26 49.11 L-1.41 48.74" stroke="none" stroke-width="0" fill="#5b21b6"></path><path d="M-0.71 1.55 C51.69 0.53, 103.5 0.08, 198.65 0.83 M-0.2 -0.33 C76.89 -1.99, 153.07 -1.42, 200.05 0.45 M201.32 -1.48 C200.83 18.76, 199.68 39.22, 200.56 49.82 M200.8 0.49 C200.23 13.6, 198.98 27.21, 200.14 50.82 M199.92 49.41 C142.78 47.79, 84.54 47.39, 0.06 48.63 M200.35 49.56 C160.85 50.1, 119.43 49.19, 0.2 50.01 M-1.3 49.82 C-0.79 28.22, -0.64 8.74, -0.77 -1.43 M-0.17 50.86 C0.49 35.77, -1.12 23.9, -0.06 -0.9" stroke="#7c3aed" stroke-width="2" fill="none"></path></g><g transform="translate(131.87460604039222 817.5) rotate(0 27.049972534179688 12.5)"><text x="27.049972534179688" y="NaN" font-family="Virgil, Segoe UI Emoji" font-size="20px" fill="#ffffff" text-anchor="middle" style="white-space: pre;" direction="ltr">Client</text></g><g stroke-linecap="round" transform="translate(518.9245785745719 10) rotate(0 100 25)"><path d="M-1.4 0.94 L199.75 -0.4 L201.07 51.93 L-1.62 50.81" stroke="none" stroke-width="0" fill="#5b21b6"></path><path d="M-0.62 -1.46 C50.19 1.5, 100.14 1.66, 200.59 1.02 M0.51 -0.16 C45.94 -0.44, 92.51 -1.5, 200.88 -0.58 M200.06 0.86 C199.83 12.3, 198.4 22.63, 199.3 49.55 M200.3 0.25 C201.12 13.74, 200.08 27.67, 200.45 49.9 M198.49 50.18 C126.91 49.19, 51.09 48.42, -1.09 50.95 M200.42 49.23 C155.26 50.72, 109.61 51.12, -0.29 50.23 M-1.12 51.01 C-1.7 31.7, 1.59 12.01, -1.56 1.47 M-0.65 50.85 C-0.19 31.54, -0.44 10.81, 0.46 0.9" stroke="#7c3aed" stroke-width="2" fill="none"></path></g><g transform="translate(588.0746106180289 22.5) rotate(0 30.84996795654297 12.5)"><text x="30.84996795654297" y="NaN" font-family="Virgil, Segoe UI Emoji" font-size="20px" fill="#ffffff" text-anchor="middle" style="white-space: pre;" direction="ltr">Server</text></g><g stroke-linecap="round"><g transform="translate(618.9245785745719 60) rotate(0 0 371.43914988440633)"><path d="M-0.4 -0.52 C-0.46 123.5, -0.82 619.63, -0.65 743.57" stroke="#585b70" stroke-width="1.5" fill="none" stroke-dasharray="8 9"></path></g></g><g stroke-linecap="round" transform="translate(518.9245785745719 805) rotate(0 100 25)"><path d="M-1.6 -0.74 L200.71 -1.25 L198.18 51.17 L1.87 48.44" stroke="none" stroke-width="0" fill="#5b21b6"></path><path d="M0.81 -0.48 C77.53 -1.66, 151.69 -1.31, 198.51 -1.14 M0.7 0.29 C72.31 1.74, 143.58 2.35, 200.32 -0.66 M198.64 1.64 C200.36 16.16, 200.21 28.74, 198.74 49.25 M199.18 -0.41 C199.3 17.18, 200.44 36.92, 199.3 49.97 M201.48 51.01 C130.57 49.27, 59.97 48.09, -0.55 50.98 M199.24 49.43 C159.62 50.28, 118.93 49.9, 0.28 50.37 M-0.53 48.93 C1.58 37.96, 1.36 27.51, -1.1 -1.12 M0.21 49.95 C-0.95 34.96, -0.02 21.43, 0.61 0.29" stroke="#7c3aed" stroke-width="2" fill="none"></path></g><g transform="translate(588.0746106180289 817.5) rotate(0 30.84996795654297 12.5)"><text x="30.84996795654297" y="NaN" font-family="Virgil, Segoe UI Emoji" font-size="20px" fill="#ffffff" text-anchor="middle" style="white-space: pre;" direction="ltr">Server</text></g><g stroke-linecap="round"><g transform="translate(159.90742630362035 137.7129604738359) rotate(0 229.50857613547578 1.143519763082054)"><path d="M0 -0.76 C76.6 -0.65, 382.69 0.84, 459.06 1.15 M-1.47 1.46 C75.03 1.63, 381.11 2.03, 458.13 2.1" stroke="#cdd6f4" stroke-width="2" fill="none"></path></g><g transform="translate(159.90742630362035 137.7129604738359) rotate(0 229.50857613547578 1.143519763082054)"><path d="M428.66 12.39 C435.12 8.42, 442.22 5.79, 459.54 2.31 M430.18 13.16 C439.32 8.56, 446.95 5.88, 457.35 1.61" stroke="#cdd6f4" stroke-width="2" fill="none"></path></g><g transform="translate(159.90742630362035 137.7129604738359) rotate(0 229.50857613547578 1.143519763082054)"><path d="M428.69 -8.13 C435.22 -6.93, 442.32 -4.37, 459.54 2.31 M430.2 -7.36 C439.24 -5.5, 446.86 -1.71, 457.35 1.61" stroke="#cdd6f4" stroke-width="2" fill="none"></path></g></g><g transform="translate(385.4416455301383 128.75) rotate(0 147.3748779296875 22.5)"><text x="147.3748779296875" y="NaN" font-family="Virgil, Segoe UI Emoji" font-size="18px" fill="#cdd6f4" text-anchor="middle" style="white-space: pre;" direction="ltr">ClientHello: supported ciphers, key</text><text x="147.3748779296875" y="NaN" font-family="Virgil, Segoe UI Emoji" font-size="18px" fill="#cdd6f4" text-anchor="middle" style="white-space: pre;" direction="ltr">share, random</text></g><g stroke-linecap="round"><g transform="translate(613.9245785745719 220) rotate(0 -223.1865517943013 2.5207211007573846)"><path d="M0.37 0.75 C-73.94 1.51, -372.1 4.29, -446.58 5.12 M-0.89 0.1 C-75.32 1.02, -373.23 6.08, -447.63 6.7" stroke="#cdd6f4" stroke-width="2" fill="none"></path></g><g transform="translate(613.9245785745719 220) rotate(0 -223.1865517943013 2.5207211007573846)"><path d="M-418.32 -4.27 C-426.16 -1.46, -431.84 2.49, -448.92 6.72 M-419.64 -3.26 C-426.12 -0.37, -431.96 1.16, -448.09 7" stroke="#cdd6f4" stroke-width="2" fill="none"></path></g><g transform="translate(613.9245785745719 220) rotate(0 -223.1865517943013 2.5207211007573846)"><path d="M-418.05 16.25 C-426.05 14.11, -431.8 13.12, -448.92 6.72 M-419.37 17.26 C-425.74 15.46, -431.64 12.29, -448.09 7" stroke="#cdd6f4" stroke-width="2" fill="none"></path></g></g><g transform="translate(391.9166363748649 208.75) rotate(0 131.01290893554688 22.5)"><text x="131.01290893554688" y="NaN" font-family="Virgil, Segoe UI Emoji" font-size="18px" fill="#cdd6f4" text-anchor="middle" style="white-space: pre;" direction="ltr">ServerHello: chosen cipher, key</text><text x="131.01290893554688" y="NaN" font-family="Virgil, Segoe UI Emoji" font-size="18px" fill="#cdd6f4" text-anchor="middle" style="white-space: pre;" direction="ltr">share, random</text></g><g stroke-opacity="0.85" fill-opacity="0.85" stroke-linecap="round" transform="translate(85.71201209767085 258) rotate(0 301.9776795710552 22)"><path d="M-0.19 -1.31 L602.59 0.93 L603.15 42.63 L-1.87 42.46" stroke="none" stroke-width="0" fill="#2d6a4f"></path><path d="M0.05 0.41 C233.89 -0.62, 468.67 -0.46, 603.4 -0.22 M0.29 -0.26 C167.31 0.13, 333.67 0.39, 604.08 0.26 M604.78 0.27 C602.1 13.12, 603.88 25.08, 602.66 42.92 M604.51 0.08 C604.44 11.11, 604.94 20.69, 603.62 43.26 M604.49 44.62 C390.49 41.77, 177.2 41.07, 0.56 43.42 M603.7 43.81 C416.82 45.99, 229.8 46.34, 0.33 43.97 M1.94 45.26 C1.74 30.13, -1.86 17.91, -1.12 -1.23 M-0.36 43.13 C-0.38 29.3, 0.11 13.14, -0.81 0.69" stroke="#40916c" stroke-width="2" fill="none"></path></g><g transform="translate(171.88979542849168 270) rotate(0 215.79989624023438 10)"><text x="215.79989624023438" y="NaN" font-family="Virgil, Segoe UI Emoji" font-size="16px" fill="#ffffff" text-anchor="middle" style="white-space: pre;" direction="ltr">Both sides now compute the shared secret via ECDHE</text></g><g stroke-linecap="round"><g transform="translate(618.7980792215099 329.87356077020456) rotate(0 -226.27747726973195 -0.24612562953552697)"><path d="M-0.85 0.71 C-75.95 0.77, -376.16 -0.22, -451.39 -0.39 M0.9 0.04 C-74.18 0.37, -376.11 1.02, -451.72 1.21" stroke="#cdd6f4" stroke-width="2" fill="none"></path></g><g transform="translate(618.7980792215099 329.87356077020456) rotate(0 -226.27747726973195 -0.24612562953552697)"><path d="M-422.36 -7.17 C-430.02 -6.33, -436.41 -5.99, -452.88 2.34 M-424.38 -8.6 C-429.76 -5.66, -437.98 -3.17, -452.5 1.52" stroke="#cdd6f4" stroke-width="2" fill="none"></path></g><g transform="translate(618.7980792215099 329.87356077020456) rotate(0 -226.27747726973195 -0.24612562953552697)"><path d="M-422.32 13.35 C-429.86 9.4, -436.26 4.94, -452.88 2.34 M-424.33 11.92 C-429.57 9.86, -437.8 7.34, -452.5 1.52" stroke="#cdd6f4" stroke-width="2" fill="none"></path></g></g><g transform="translate(390.2116574319938 318.75) rotate(0 88.71292114257814 11.25)"><text x="88.71292114257812" y="NaN" font-family="Virgil, Segoe UI Emoji" font-size="18px" fill="#cdd6f4" text-anchor="middle" style="white-space: pre;" direction="ltr">EncryptedExtensions</text></g><g stroke-linecap="round"><g transform="translate(618.9245785745719 390) rotate(0 -228.8667295587781 -1.2650270709820006)"><path d="M-0.36 -1.02 C-76.56 -1.59, -381.4 -3.09, -457.5 -3.31 M1.64 1.05 C-74.66 0.61, -381.84 -1.85, -458.32 -2.19" stroke="#cdd6f4" stroke-width="2" fill="none"></path></g><g transform="translate(618.9245785745719 390) rotate(0 -228.8667295587781 -1.2650270709820006)"><path d="M-431.77 -11.87 C-439.09 -8.24, -445.23 -6.1, -458.44 -4.18 M-430.16 -12.64 C-440.43 -8.57, -452.4 -4.64, -459.01 -2.96" stroke="#cdd6f4" stroke-width="2" fill="none"></path></g><g transform="translate(618.9245785745719 390) rotate(0 -228.8667295587781 -1.2650270709820006)"><path d="M-431.9 8.65 C-439.2 6.67, -445.31 3.19, -458.44 -4.18 M-430.29 7.88 C-440.62 3.9, -452.54 -0.22, -459.01 -2.96" stroke="#cdd6f4" stroke-width="2" fill="none"></path></g></g><g transform="translate(387.70966616002113 378.75) rotate(0 142.79388427734375 11.25)"><text x="142.79388427734375" y="NaN" font-family="Virgil, Segoe UI Emoji" font-size="18px" fill="#cdd6f4" text-anchor="middle" style="white-space: pre;" direction="ltr">Certificate (server's cert chain)</text></g><g stroke-linecap="round"><g transform="translate(618.9245785745719 460) rotate(0 -230.68951694949124 -1.159119274813179)"><path d="M-0.7 -0.55 C-77.39 -0.7, -383.69 -1.21, -460.59 -1.49 M1.13 1.78 C-75.61 1.34, -384.34 -2.73, -461.13 -3.17" stroke="#cdd6f4" stroke-width="2" fill="none"></path></g><g transform="translate(618.9245785745719 460) rotate(0 -230.68951694949124 -1.159119274813179)"><path d="M-433.76 -11.85 C-438.93 -11.91, -447.59 -8.02, -460.07 -2.4 M-432.51 -12.88 C-438.02 -11.74, -445.26 -8.1, -460.82 -3.28" stroke="#cdd6f4" stroke-width="2" fill="none"></path></g><g transform="translate(618.9245785745719 460) rotate(0 -230.68951694949124 -1.159119274813179)"><path d="M-433.96 8.67 C-438.98 3.22, -447.59 1.72, -460.07 -2.4 M-432.71 7.64 C-438.15 4.6, -445.34 4.07, -460.82 -3.28" stroke="#cdd6f4" stroke-width="2" fill="none"></path></g></g><g transform="translate(383.1556576761344 448.75) rotate(0 154.51185607910156 22.5)"><text x="154.51185607910156" y="NaN" font-family="Virgil, Segoe UI Emoji" font-size="18px" fill="#cdd6f4" text-anchor="middle" style="white-space: pre;" direction="ltr">CertificateVerify (signature proving</text><text x="154.51185607910156" y="NaN" font-family="Virgil, Segoe UI Emoji" font-size="18px" fill="#cdd6f4" text-anchor="middle" style="white-space: pre;" direction="ltr">private key ownership)</text></g><g stroke-linecap="round"><g transform="translate(618.9245785745719 540) rotate(0 -230.4776124710467 0)"><path d="M-0.88 -0.99 C-77.82 -1.21, -385.08 -1.07, -461.6 -0.97 M0.85 1.1 C-75.7 0.97, -382.38 0.12, -459.22 0.05" stroke="#cdd6f4" stroke-width="2" fill="none"></path></g><g transform="translate(618.9245785745719 540) rotate(0 -230.4776124710467 0)"><path d="M-432.67 -11.22 C-441.18 -5.61, -448.82 -5.68, -460.96 -0.66 M-430.48 -9.91 C-438.03 -6.85, -445.46 -4.69, -459.71 -0.84" stroke="#cdd6f4" stroke-width="2" fill="none"></path></g><g transform="translate(618.9245785745719 540) rotate(0 -230.4776124710467 0)"><path d="M-432.71 9.3 C-441.27 8.68, -448.9 2.37, -460.96 -0.66 M-430.52 10.61 C-438.14 8.35, -445.56 5.2, -459.71 -0.84" stroke="#cdd6f4" stroke-width="2" fill="none"></path></g></g><g transform="translate(383.03864565220863 528.75) rotate(0 131.41790771484375 22.5)"><text x="131.41790771484375" y="NaN" font-family="Virgil, Segoe UI Emoji" font-size="18px" fill="#cdd6f4" text-anchor="middle" style="white-space: pre;" direction="ltr">Finished (MAC over handshake</text><text x="131.41790771484375" y="NaN" font-family="Virgil, Segoe UI Emoji" font-size="18px" fill="#cdd6f4" text-anchor="middle" style="white-space: pre;" direction="ltr">transcript)</text></g><g stroke-opacity="0.85" fill-opacity="0.85" stroke-linecap="round" transform="translate(10 583.5108962944952) rotate(0 172.4707318414114 25)"><path d="M0.63 0.28 L344.16 1.09 L343.3 50.25 L1.36 49.82" stroke="none" stroke-width="0" fill="#2d6a4f"></path><path d="M-0.1 -0.07 C115.68 0, 234.73 -1.07, 345.13 -0.17 M0.12 0.63 C92.77 0.55, 186.06 0.59, 344.39 0.19 M346.51 -0.21 C345.43 17.66, 345.13 39.93, 343.87 48.02 M344.6 0.78 C345.21 19.23, 345.17 37.31, 344.62 50.83 M344.37 49.82 C257.22 47.88, 166.23 47.3, 0.04 49.25 M344.56 50.49 C238.26 50.16, 133.08 49.12, -0.43 49.84 M-0.82 49.25 C0.7 37.52, -1.04 22.41, 1.95 -0.38 M0.16 50.35 C0.44 32.53, -0.17 14.59, 0.01 0.45" stroke="#40916c" stroke-width="2" fill="none"></path></g><g transform="translate(43.01481448301297 588.5108962944952) rotate(0 139.45591735839844 20)"><text x="139.45591735839844" y="NaN" font-family="Virgil, Segoe UI Emoji" font-size="16px" fill="#ffffff" text-anchor="middle" style="white-space: pre;" direction="ltr">Client validates cert chain, verifies</text><text x="139.45591735839844" y="NaN" font-family="Virgil, Segoe UI Emoji" font-size="16px" fill="#ffffff" text-anchor="middle" style="white-space: pre;" direction="ltr">signature, checks Finished MAC</text></g><g stroke-linecap="round"><g transform="translate(159.44346058564128 664.5059983434376) rotate(0 229.74055899446532 -2.252999171718784)"><path d="M0.78 -0.29 C77.61 -0.95, 383.33 -3.7, 459.95 -4.32 M-0.28 -1.49 C76.54 -1.89, 382.49 -1.92, 459.24 -2.68" stroke="#cdd6f4" stroke-width="2" fill="none"></path></g><g transform="translate(159.44346058564128 664.5059983434376) rotate(0 229.74055899446532 -2.252999171718784)"><path d="M430.61 8.48 C437.35 6.98, 443.82 4.83, 459.93 -3.97 M431.89 7.97 C441.94 3.49, 450.76 0.48, 459 -2.76" stroke="#cdd6f4" stroke-width="2" fill="none"></path></g><g transform="translate(159.44346058564128 664.5059983434376) rotate(0 229.74055899446532 -2.252999171718784)"><path d="M430.52 -12.04 C437.21 -9.24, 443.7 -7.08, 459.93 -3.97 M431.8 -12.55 C441.89 -9.63, 450.74 -5.22, 459 -2.76" stroke="#cdd6f4" stroke-width="2" fill="none"></path></g></g><g transform="translate(383.03864565220863 648.75) rotate(0 131.41790771484375 22.5)"><text x="131.41790771484375" y="NaN" font-family="Virgil, Segoe UI Emoji" font-size="18px" fill="#cdd6f4" text-anchor="middle" style="white-space: pre;" direction="ltr">Finished (MAC over handshake</text><text x="131.41790771484375" y="NaN" font-family="Virgil, Segoe UI Emoji" font-size="18px" fill="#cdd6f4" text-anchor="middle" style="white-space: pre;" direction="ltr">transcript)</text></g><g stroke-opacity="0.85" fill-opacity="0.85" stroke-linecap="round" transform="translate(75.38978221071005 698) rotate(0 328.40000000000003 22)"><path d="M0.6 -1.35 L656.17 1.4 L656.53 42.51 L1.72 44.12" stroke="none" stroke-width="0" fill="#2d6a4f"></path><path d="M-0.34 -0.37 C185.34 -2.47, 371.93 -2.89, 656.94 0.78 M0.2 0.08 C197.36 1.67, 395.04 1.75, 657.06 0.24 M657.18 1.63 C656.45 15.64, 658.09 29.9, 657.09 45.96 M656.64 0.49 C657.57 12.68, 656.55 23.76, 656.06 44.83 M657.52 43.38 C452.72 46.03, 247.81 45.55, 0.39 44.5 M657.14 44.3 C419.05 45.31, 181.69 45.3, 0 43.88 M0.57 43.57 C1.92 34.14, 0.79 25.86, -0.03 1.49 M-0.68 43 C-0.17 28.56, 0.06 12.36, -0.32 0.39" stroke="#40916c" stroke-width="2" fill="none"></path></g><g transform="translate(119.39799754274134 710) rotate(0 284.39178466796875 10)"><text x="284.39178466796875" y="NaN" font-family="Virgil, Segoe UI Emoji" font-size="16px" fill="#ffffff" text-anchor="middle" style="white-space: pre;" direction="ltr">Handshake complete -- all further traffic encrypted with symmetric keys</text></g></svg>