<svg version="1.1" xmlns="http://www.w3.org/2000/svg" viewBox="0 0 660.0691745820096 600.625667834908" width="660.0691745820096" height="600.625667834908">
  <!-- svg-source:excalidraw -->
  
  <defs>
    <style>
      @font-face {
        font-family: "Virgil";
        src: url("https://excalidraw.com/Virgil.woff2");
      }
      @font-face {
        font-family: "Cascadia";
        src: url("https://excalidraw.com/Cascadia.woff2");
      }
    </style>
  </defs>
  <rect x="0" y="0" width="660.0691745820096" height="600.625667834908" fill="#0d1117"></rect><g stroke-opacity="0.6" fill-opacity="0.6" stroke-linecap="round" transform="translate(9.999999999999972 10) rotate(0 320 138.92835979828095)"><path d="M1.39 -0.36 L638.66 -0.34 L639.16 279.13 L-1.46 279.27" stroke="none" stroke-width="0" fill="#161b22"></path><path d="M0.4 0.16 C148.82 0.82, 296.99 1.84, 640.45 -0.02 M640.84 0.86 C638.32 105.9, 639.5 210.47, 641.3 277.6 M640.37 278.33 C464.44 275.76, 290.22 276.07, -0.33 277.81 M1.4 277.19 C-0.6 203.49, -0.55 131.25, -0.81 -0.59" stroke="#30363d" stroke-width="2.5" fill="none" stroke-dasharray="8 10"></path></g><g transform="translate(30.069174582009623 20) rotate(0 123.11090850830078 11.25)"><text x="0" y="NaN" font-family="Virgil, Segoe UI Emoji" font-size="18px" fill="#f85149" text-anchor="start" style="white-space: pre;" direction="ltr">Unsalted Hashing (Insecure)</text></g><g stroke-linecap="round" transform="translate(60.06917458200962 70) rotate(0 110 32)"><path d="M0.12 -0.21 L220.01 1 L219.69 63.04 L1.4 62.87" stroke="none" stroke-width="0" fill="#1f4d2b"></path><path d="M1.46 1.16 C71.3 -0.27, 145.32 -0.89, 218.43 -0.82 M-0.49 0.25 C78.71 0.05, 155.99 -0.66, 219.99 -0.86 M221.79 -1.5 C219.38 20.63, 220.39 41.04, 220.73 64.91 M220.45 0.76 C218.66 13.35, 218.99 27.63, 220.85 64.36 M219.98 63.25 C160.87 63.1, 102.48 62.51, 1.05 64.56 M220.72 64.18 C158.12 65.55, 94.84 64.6, 0.63 64.61 M1.56 63.55 C-1.56 42.27, 1.18 18.26, -1.97 -0.5 M0.95 64.06 C0.02 43.18, 0.59 23.06, 0.89 0.32" stroke="#3fb950" stroke-width="2" fill="none"></path></g><g transform="translate(80.05924873972447 89.5) rotate(0 90.00992584228516 12.5)"><text x="90.00992584228516" y="NaN" font-family="Virgil, Segoe UI Emoji" font-size="20px" fill="#ffffff" text-anchor="middle" style="white-space: pre;" direction="ltr">Alice: password123</text></g><g stroke-linecap="round" transform="translate(360.0691745820096 70) rotate(0 110 32)"><path d="M-1.94 -0.11 L218.29 -0.9 L219.19 65.59 L0.68 63.49" stroke="none" stroke-width="0" fill="#1f4d2b"></path><path d="M-1.41 -1.48 C50.18 -0.43, 100.29 -0.39, 219.35 -1.6 M0.27 0 C74.39 1.57, 146.87 0.41, 219.25 0.16 M218.64 -0.18 C220.09 24.18, 220.29 50.74, 218.28 65.92 M219.99 -0.05 C219.59 23.5, 220.22 47.47, 220.21 63.1 M220.26 63.22 C141.35 65.08, 61.69 67.15, 0.46 63.96 M219.58 63.83 C131.88 65, 44.03 65.03, 0.58 63.63 M0.74 65.96 C-0.8 50.83, -0.74 34.94, -1.91 -0.65 M0.33 64.67 C0.15 40.03, -0.41 16.17, -1 0.33" stroke="#3fb950" stroke-width="2" fill="none"></path></g><g transform="translate(384.03924446726353 89.5) rotate(0 86.0299301147461 12.5)"><text x="86.0299301147461" y="NaN" font-family="Virgil, Segoe UI Emoji" font-size="20px" fill="#ffffff" text-anchor="middle" style="white-space: pre;" direction="ltr">Bob: password123</text></g><g stroke-linecap="round" transform="translate(200.06917458200962 180) rotate(0 130 32)"><path d="M0 0 L260.57 1.2 L258.7 64.14 L-0.04 64.12" stroke="none" stroke-width="0" fill="#4a1219"></path><path d="M-0.75 -0.61 C86.18 -0.35, 169.73 0.28, 260.26 1 M-0.64 -0.22 C80.9 -0.82, 162.8 -0.71, 260.22 -0.51 M259.48 1.13 C260.81 14.92, 260.19 34.83, 259.84 62.93 M259.53 -0.86 C260.53 20.85, 261.45 39.72, 259.58 63.85 M260.5 63.26 C192.27 66.76, 128.4 64.72, -0.12 63.4 M260.16 63.53 C177.08 64.43, 95.94 63.75, 0.49 64.35 M-0.08 64.37 C1.23 46.6, -1.38 30.03, -1.84 -0.81 M-0.28 63.27 C0.27 49.68, -1.4 34.89, -0.88 0.35" stroke="#f85149" stroke-width="2" fill="none"></path></g><g transform="translate(250.28922157907994 199.5) rotate(0 79.77995300292969 12.5)"><text x="79.77995300292969" y="NaN" font-family="Virgil, Segoe UI Emoji" font-size="20px" fill="#ffffff" text-anchor="middle" style="white-space: pre;" direction="ltr">hash = a1b2c3...</text></g><g stroke-linecap="round"><g transform="translate(201.95263281055603 140) rotate(0 47.65369739690429 17)"><path d="M0.86 -0.15 C16.91 5.88, 79.64 29.33, 95.42 35.17 M-0.14 -1.27 C15.83 4.54, 78.7 27.95, 94.53 33.66" stroke="#f85149" stroke-width="2" fill="none"></path></g><g transform="translate(201.95263281055603 140) rotate(0 47.65369739690429 17)"><path d="M64.28 33.76 C73.32 33.71, 79.64 35.28, 95.92 34.01 M64.62 33.02 C73.17 33.85, 82.5 33.49, 93.95 34.19" stroke="#f85149" stroke-width="2" fill="none"></path></g><g transform="translate(201.95263281055603 140) rotate(0 47.65369739690429 17)"><path d="M71.35 14.5 C78.62 18.9, 83.32 24.86, 95.92 34.01 M71.69 13.76 C78.36 20.17, 85.63 25.43, 93.95 34.19" stroke="#f85149" stroke-width="2" fill="none"></path></g></g><g stroke-linecap="round"><g transform="translate(441.89209363260187 140) rotate(0 -41.456863475320034 17)"><path d="M0.95 0.93 C-12.87 6.56, -68.17 28.79, -82.07 34.44 M0 0.37 C-13.99 5.57, -68.75 27.13, -82.58 32.55" stroke="#f85149" stroke-width="2" fill="none"></path></g><g transform="translate(441.89209363260187 140) rotate(0 -41.456863475320034 17)"><path d="M-58.55 14.1 C-67.64 21.02, -75.42 28.12, -83.31 33.96 M-60.12 12.62 C-68.59 19.86, -76.61 27, -82.88 32.55" stroke="#f85149" stroke-width="2" fill="none"></path></g><g transform="translate(441.89209363260187 140) rotate(0 -41.456863475320034 17)"><path d="M-51.05 33.2 C-63.05 33.04, -73.63 33.01, -83.31 33.96 M-52.62 31.72 C-64.06 31.92, -74.87 31.94, -82.88 32.55" stroke="#f85149" stroke-width="2" fill="none"></path></g></g><g transform="translate(134.69332008982212 252) rotate(0 200.3758544921875 11.25)"><text x="200.3758544921875" y="NaN" font-family="Virgil, Segoe UI Emoji" font-size="18px" fill="#f85149" text-anchor="middle" style="white-space: pre;" direction="ltr">Identical passwords produce identical hashes</text></g><g stroke-opacity="0.6" fill-opacity="0.6" stroke-linecap="round" transform="translate(10.069174582009623 310) rotate(0 320 140.312833917454)"><path d="M-0.69 0.02 L638.56 -0.64 L638.81 279.11 L0.76 281.24" stroke="none" stroke-width="0" fill="#161b22"></path><path d="M-0.43 -0.28 C237.61 2.11, 475.81 0.99, 640.56 -0.16 M639.61 -0.98 C642.63 91.35, 643.04 184.79, 639.98 281.15 M640.28 280.75 C397.91 282.54, 157.02 282.69, -0.39 280.44 M-0.55 279.46 C0.54 197.93, -1.89 113.88, 0.34 0.27" stroke="#30363d" stroke-width="2.5" fill="none" stroke-dasharray="8 10"></path></g><g transform="translate(30.069174582009623 320) rotate(0 104.54393768310547 11.25)"><text x="0" y="NaN" font-family="Virgil, Segoe UI Emoji" font-size="18px" fill="#3fb950" text-anchor="start" style="white-space: pre;" direction="ltr">Salted Hashing (Secure)</text></g><g stroke-linecap="round" transform="translate(60.06917458200962 360) rotate(0 120 32)"><path d="M0.38 -0.84 L238.48 1.27 L239.54 64.91 L0.37 62.63" stroke="none" stroke-width="0" fill="#1f4d2b"></path><path d="M0.25 0.99 C90.2 1.56, 176.28 0.48, 239.62 1.51 M-0.4 0.67 C68.4 0.09, 137.17 1.47, 240.23 0.58 M238.4 -1.07 C240.92 19.77, 237.66 39.83, 238.12 65.57 M240.72 -0.38 C239.58 12.64, 240.58 25.48, 240.96 63.66 M240.01 62.96 C180.12 66.95, 116.58 66.63, -1.08 63.96 M240.34 64.15 C159.12 64.3, 76.96 64.26, -0.81 63.62 M-0.74 65.68 C-1.09 48.93, -1.8 34.05, -1.14 1.58 M-0.76 63.65 C-1.16 40.22, -0.53 14.77, 0.31 -0.49" stroke="#3fb950" stroke-width="2" fill="none"></path></g><g transform="translate(67.78925209665806 379.5) rotate(0 112.27992248535156 12.5)"><text x="112.27992248535156" y="NaN" font-family="Virgil, Segoe UI Emoji" font-size="20px" fill="#ffffff" text-anchor="middle" style="white-space: pre;" direction="ltr">salt_a + password123</text></g><g stroke-linecap="round" transform="translate(360.0691745820096 360) rotate(0 120 32)"><path d="M0.26 -0.62 L239.04 1.48 L238.56 62.01 L-1.07 63.87" stroke="none" stroke-width="0" fill="#1f4d2b"></path><path d="M1.4 -0.76 C88.5 -2.5, 177.54 -2.33, 241.4 0.01 M-0.59 0.21 C58.86 0.97, 117.18 -0.19, 240.46 -0.8 M240.09 1.56 C239.64 14.07, 238.74 29.62, 241.22 63.6 M239.81 0 C240.17 20.14, 239.76 39.57, 239.7 63.15 M240.54 62.91 C181.82 66.7, 123.29 64.82, 1.12 62.8 M239.82 63.48 C150.03 63.19, 60.31 63.36, 0.76 63.4 M1.62 62.51 C1.69 40.46, -0.36 16.23, -1 1.28 M0 64.87 C0.36 44.72, 0.77 26.59, 0.54 -0.46" stroke="#3fb950" stroke-width="2" fill="none"></path></g><g transform="translate(369.3792560639432 379.5) rotate(0 110.6899185180664 12.5)"><text x="110.6899185180664" y="NaN" font-family="Virgil, Segoe UI Emoji" font-size="20px" fill="#ffffff" text-anchor="middle" style="white-space: pre;" direction="ltr">salt_b + password123</text></g><g stroke-linecap="round" transform="translate(80.06917458200962 480) rotate(0 100 32)"><path d="M0.14 -0.4 L199.59 1.68 L201.58 63.11 L1.49 65.11" stroke="none" stroke-width="0" fill="#0d2c5a"></path><path d="M-0.85 0.88 C72.05 0.51, 146.11 2.05, 199.84 -1.61 M-0.84 -0.28 C79.67 0.26, 159.56 -0.13, 200.76 -0.55 M201.79 0.18 C201.07 21.17, 198.53 45.01, 200.32 65.62 M200.89 0.37 C200.04 12.84, 200.21 26.06, 200.44 64.64 M201.17 62.77 C153.04 62.97, 105.68 62.86, -0.01 65.06 M199.24 64.52 C158.87 63.91, 117.89 62.53, 0.72 63.12 M-0.03 63.33 C0.48 44.79, 1.07 24, -0.87 0.97 M0.77 64.08 C0.61 51.23, 0.79 38.42, 0.77 -0.43" stroke="#58a6ff" stroke-width="2" fill="none"></path></g><g transform="translate(98.54923134470494 499.5) rotate(0 81.51994323730469 12.5)"><text x="81.51994323730469" y="NaN" font-family="Virgil, Segoe UI Emoji" font-size="20px" fill="#ffffff" text-anchor="middle" style="white-space: pre;" direction="ltr">hash = x7y8z9...</text></g><g stroke-linecap="round" transform="translate(380.0691745820096 480) rotate(0 100 32)"><path d="M0.02 -0.18 L200.15 1.88 L200.59 64.21 L0.04 62.35" stroke="none" stroke-width="0" fill="#0d2c5a"></path><path d="M0.4 -1.01 C73.92 -0.07, 147.68 -0.78, 201.76 0.37 M0.76 -0.78 C71.93 -0.48, 143.09 -0.01, 199.21 -0.23 M199.49 -1.19 C198.51 15.46, 198.32 34.8, 199.42 63.65 M199.98 0.75 C200.63 20.34, 199.39 40.14, 199.18 64.13 M201.75 62.71 C154.33 62.84, 108.22 64.63, -1.24 63.8 M200.48 63.8 C152.82 62.84, 103.84 61.68, 0.62 64.68 M-1.68 64.15 C-0.73 49.12, -1.49 35.78, -0.74 0.66 M-0.47 63.3 C0.85 44.93, 0.81 24.64, 1 -0.4" stroke="#58a6ff" stroke-width="2" fill="none"></path></g><g transform="translate(398.17923622751744 499.5) rotate(0 81.88993835449219 12.5)"><text x="81.88993835449219" y="NaN" font-family="Virgil, Segoe UI Emoji" font-size="20px" fill="#ffffff" text-anchor="middle" style="white-space: pre;" direction="ltr">hash = m4n5o6...</text></g><g stroke-linecap="round"><g transform="translate(180.0919081286763 430) rotate(0 -0.0007333333333292558 22)"><path d="M0.28 1.09 C0.23 8.32, 0.53 36.53, 0.46 43.74 M-1.03 0.62 C-1.27 7.99, -0.25 37.6, -0.24 45.14" stroke="#3fb950" stroke-width="2" fill="none"></path></g><g transform="translate(180.0919081286763 430) rotate(0 -0.0007333333333292558 22)"><path d="M-6.34 25.38 C-5.66 31.78, -1.82 39.95, -0.15 43.75 M-7.53 25.19 C-5.93 31.2, -3.62 37.1, -0.83 45.22" stroke="#3fb950" stroke-width="2" fill="none"></path></g><g transform="translate(180.0919081286763 430) rotate(0 -0.0007333333333292558 22)"><path d="M8.71 25.1 C3.93 31.64, 2.3 39.91, -0.15 43.75 M7.51 24.9 C4.41 31.13, 2.01 37.11, -0.83 45.22" stroke="#3fb950" stroke-width="2" fill="none"></path></g></g><g stroke-linecap="round"><g transform="translate(480.0919081286762 430) rotate(0 -0.0007333333332724123 22)"><path d="M-0.58 -0.9 C-0.33 6.66, 0.74 37.02, 1.03 44.48 M1.32 1.25 C1.54 8.52, 0.67 35.29, 0.63 42.61" stroke="#3fb950" stroke-width="2" fill="none"></path></g><g transform="translate(480.0919081286762 430) rotate(0 -0.0007333333332724123 22)"><path d="M-7.99 23.51 C-3.98 29.27, -3.12 32.2, 1.79 44.32 M-6.99 22.09 C-3.97 27.98, -2.11 32.99, 1.18 41.87" stroke="#3fb950" stroke-width="2" fill="none"></path></g><g transform="translate(480.0919081286762 430) rotate(0 -0.0007333333332724123 22)"><path d="M7.06 23.8 C7.12 29.42, 4.04 32.27, 1.79 44.32 M8.06 22.38 C6.69 28.18, 4.17 33.11, 1.18 41.87" stroke="#3fb950" stroke-width="2" fill="none"></path></g></g><g transform="translate(146.69432716990025 555) rotate(0 183.37484741210938 11.25)"><text x="183.37484741210938" y="NaN" font-family="Virgil, Segoe UI Emoji" font-size="18px" fill="#3fb950" text-anchor="middle" style="white-space: pre;" direction="ltr">Different salts produce different hashes</text></g></svg>