<svg version="1.1" xmlns="http://www.w3.org/2000/svg" viewBox="0 0 1340 1055.3910357074424" width="1340" height="1055.3910357074424">
  <!-- svg-source:excalidraw -->
  
  <defs>
    <style>
      @font-face {
        font-family: "Virgil";
        src: url("https://excalidraw.com/Virgil.woff2");
      }
      @font-face {
        font-family: "Cascadia";
        src: url("https://excalidraw.com/Cascadia.woff2");
      }
    </style>
  </defs>
  <rect x="0" y="0" width="1340" height="1055.3910357074424" fill="#1e1e2e"></rect><g stroke-linecap="round" transform="translate(10 10.269106935474554) rotate(0 100 25)"><path d="M0.83 -0.31 L198.28 0.29 L199.17 50.64 L-1.67 51.53" stroke="none" stroke-width="0" fill="#5b21b6"></path><path d="M-1.36 1.79 C41.04 -0.67, 81.99 0.15, 200.98 1.58 M-0.38 -0.83 C62.24 0.43, 125.74 -0.17, 200.88 -0.7 M199.93 1.06 C201.14 14.17, 199.06 31.58, 201.84 49.07 M200.74 0.46 C201 11.56, 199.31 23.91, 199.53 49.88 M198.49 51.53 C155.61 50.65, 108.1 49.59, 0.63 48.75 M200.47 49.68 C138.08 50.97, 76.49 51.45, -0.81 49.39 M-0.5 49.84 C-0.1 33.87, 0.15 17.46, -0.44 -0.44 M-0.06 49.15 C0.16 34.06, -0.54 16.11, -0.57 -0.79" stroke="#7c3aed" stroke-width="2" fill="none"></path></g><g transform="translate(87.66001892089844 22.769106935474554) rotate(0 22.339981079101562 12.5)"><text x="22.339981079101562" y="NaN" font-family="Virgil, Segoe UI Emoji" font-size="20px" fill="#ffffff" text-anchor="middle" style="white-space: pre;" direction="ltr">User</text></g><g stroke-linecap="round"><g transform="translate(110 60.269106935474554) rotate(0 0 450)"><path d="M-1.19 0.95 C-1.35 150.78, -0.7 750.29, -0.68 900.02" stroke="#585b70" stroke-width="1.5" fill="none" stroke-dasharray="8 9"></path></g></g><g stroke-linecap="round" transform="translate(10 960.2691069354746) rotate(0 100 25)"><path d="M0.06 -0.11 L200.95 1.95 L198.41 48.05 L1.57 50.61" stroke="none" stroke-width="0" fill="#5b21b6"></path><path d="M-1.25 -0.01 C52.08 -1.98, 108.48 -1.46, 199.22 1.48 M-0.04 0.04 C62.47 -0.51, 124.36 -0.73, 200.32 0.17 M198.5 -1.45 C198.85 15.77, 201.94 27.47, 198.51 50.76 M200.1 -0.4 C200.14 17.01, 199.15 34.18, 199.9 49.12 M199.48 50.07 C134.07 50.18, 71.24 50.26, 1.04 48.57 M199.87 50.83 C126.01 50.66, 50.73 50.07, 0.12 50.83 M0.35 50.69 C-1.33 36.19, -0.98 23.93, 0.69 1.41 M-0.67 49.36 C-0.7 35.28, 0.57 19.92, 0 -0.27" stroke="#7c3aed" stroke-width="2" fill="none"></path></g><g transform="translate(87.66001892089844 972.7691069354746) rotate(0 22.339981079101562 12.5)"><text x="22.339981079101562" y="NaN" font-family="Virgil, Segoe UI Emoji" font-size="20px" fill="#ffffff" text-anchor="middle" style="white-space: pre;" direction="ltr">User</text></g><g stroke-linecap="round" transform="translate(290 10.269106935474554) rotate(0 100 25)"><path d="M-0.18 0.9 L198.79 -0.3 L198.02 50.18 L0.94 51.42" stroke="none" stroke-width="0" fill="#5b21b6"></path><path d="M-1.11 -0.37 C65.63 -0.6, 131.11 1.31, 198.33 -1.57 M0.37 -0.03 C74.71 -0.6, 149.74 -2.06, 200.58 0.19 M199.79 -0.41 C200.49 19.95, 200.64 34.45, 198.86 51.93 M199.1 -0.99 C199.7 18.42, 200.06 37.22, 200.49 50.41 M200.27 50.74 C135.96 49.11, 75.52 49.59, 0.19 50.44 M199.18 50.66 C137.69 49.24, 73.8 47.91, -0.25 49.37 M1.8 51.02 C-0.79 40.12, 1.35 26.18, -1.49 -0.4 M0.28 50.81 C-0.55 36.09, -0.18 24.3, -0.45 -0.84" stroke="#7c3aed" stroke-width="2" fill="none"></path></g><g transform="translate(351.60003662109375 22.769106935474554) rotate(0 38.39996337890625 12.5)"><text x="38.39996337890625" y="NaN" font-family="Virgil, Segoe UI Emoji" font-size="20px" fill="#ffffff" text-anchor="middle" style="white-space: pre;" direction="ltr">Browser</text></g><g stroke-linecap="round"><g transform="translate(390 60.269106935474554) rotate(0 0 450)"><path d="M-0.41 -0.55 C-0.57 149.46, -1.06 750.07, -0.83 900.35" stroke="#585b70" stroke-width="1.5" fill="none" stroke-dasharray="8 9"></path></g></g><g stroke-linecap="round" transform="translate(290 960.2691069354746) rotate(0 100 25)"><path d="M-1.72 -1.87 L201.4 -1.49 L198.89 50.7 L1.33 51.95" stroke="none" stroke-width="0" fill="#5b21b6"></path><path d="M0.15 1.62 C67 1.91, 132.89 1.33, 199.48 0.08 M0.34 0.65 C55.11 -0.57, 110.91 -0.75, 200.47 -0.37 M201.51 1.71 C199.9 17.96, 199.88 33.98, 199.87 49.66 M199.9 -0.55 C199.54 17.07, 201.38 33.13, 199.57 50.65 M201.21 50.84 C156.11 50.38, 109.69 50.33, -0.27 50.21 M200.14 49.33 C126.83 50.75, 52.45 49.46, 0.26 50.36 M1.18 50.68 C0.36 35.74, 0.32 25.8, -1.95 -1.65 M-0.25 50.54 C-0.12 35.4, -0.72 22.06, 0.72 -0.92" stroke="#7c3aed" stroke-width="2" fill="none"></path></g><g transform="translate(351.60003662109375 972.7691069354746) rotate(0 38.39996337890625 12.5)"><text x="38.39996337890625" y="NaN" font-family="Virgil, Segoe UI Emoji" font-size="20px" fill="#ffffff" text-anchor="middle" style="white-space: pre;" direction="ltr">Browser</text></g><g stroke-linecap="round" transform="translate(570 10.269106935474554) rotate(0 100 42.5)"><path d="M-1.82 -0.94 L199.76 -1.22 L199.71 84.99 L0.33 86.87" stroke="none" stroke-width="0" fill="#5b21b6"></path><path d="M1.4 -1.12 C54.71 -2.51, 109.03 -0.78, 199.13 -0.3 M0.48 0.39 C53.9 -0.96, 107.86 -1.54, 199.8 0.01 M201.71 0.23 C200.4 18.53, 198.13 40.14, 201.77 83.61 M199.8 0.15 C199.85 24.4, 199.81 50.48, 199.93 85.29 M200.43 83.43 C131.5 85.52, 66.93 86.52, -1.45 83.36 M200.55 85.64 C159.21 83.93, 119.32 82.82, -0.53 85.57 M-0.88 84.39 C0.92 54.92, 2.15 27.02, -0.46 -0.8 M-0.03 84.93 C-1.4 63.43, -0.77 40.57, -0.14 0.09" stroke="#7c3aed" stroke-width="2" fill="none"></path></g><g transform="translate(609.8500595092773 15.269106935474554) rotate(0 60.149940490722656 37.5)"><text x="60.149940490722656" y="NaN" font-family="Virgil, Segoe UI Emoji" font-size="20px" fill="#ffffff" text-anchor="middle" style="white-space: pre;" direction="ltr">Client</text><text x="60.149940490722656" y="NaN" font-family="Virgil, Segoe UI Emoji" font-size="20px" fill="#ffffff" text-anchor="middle" style="white-space: pre;" direction="ltr">(Fitness App</text><text x="60.149940490722656" y="NaN" font-family="Virgil, Segoe UI Emoji" font-size="20px" fill="#ffffff" text-anchor="middle" style="white-space: pre;" direction="ltr">Backend)</text></g><g stroke-linecap="round"><g transform="translate(670 60.269106935474554) rotate(0 0 450)"><path d="M-0.46 0.13 C-0.51 150.06, -0.17 750.52, 0.07 900.61" stroke="#585b70" stroke-width="1.5" fill="none" stroke-dasharray="8 9"></path></g></g><g stroke-linecap="round" transform="translate(570 960.2691069354746) rotate(0 100 42.5)"><path d="M1.85 -1.24 L198.19 -1.34 L199.11 84.33 L0.23 85.8" stroke="none" stroke-width="0" fill="#5b21b6"></path><path d="M0.3 -1.46 C51.65 -1.15, 107.05 -0.23, 200.05 0.02 M0.31 -0.41 C44.59 -1.24, 90.16 -2, 199.2 0.84 M199.11 -1.47 C199.85 32.35, 200.42 64.2, 198.54 85.27 M199.55 0.88 C198.42 22.23, 198.21 42.59, 200.37 84.42 M199.63 86.43 C153.62 86.19, 103.99 85.02, -1.45 84.87 M199.24 85.38 C137.76 86.73, 76.43 85.81, 0.15 84.39 M-0.4 84.04 C-2.42 68.42, -0.38 49.27, 1.16 -0.76 M0.57 84.56 C0.46 53.66, -0.86 21.41, 0.87 0.48" stroke="#7c3aed" stroke-width="2" fill="none"></path></g><g transform="translate(609.8500595092773 965.2691069354746) rotate(0 60.149940490722656 37.5)"><text x="60.149940490722656" y="NaN" font-family="Virgil, Segoe UI Emoji" font-size="20px" fill="#ffffff" text-anchor="middle" style="white-space: pre;" direction="ltr">Client</text><text x="60.149940490722656" y="NaN" font-family="Virgil, Segoe UI Emoji" font-size="20px" fill="#ffffff" text-anchor="middle" style="white-space: pre;" direction="ltr">(Fitness App</text><text x="60.149940490722656" y="NaN" font-family="Virgil, Segoe UI Emoji" font-size="20px" fill="#ffffff" text-anchor="middle" style="white-space: pre;" direction="ltr">Backend)</text></g><g stroke-linecap="round" transform="translate(836.4942743927979 10) rotate(0 111.21828666826752 42.5)"><path d="M1.72 1.59 L220.88 -1.22 L222.4 85.72 L-0.51 83.07" stroke="none" stroke-width="0" fill="#5b21b6"></path><path d="M-0.71 -0.32 C73.29 -1.18, 145.53 -0.92, 221.69 -0.24 M-0.53 0.52 C65.7 0.95, 132.36 2, 222.15 0.79 M222.07 1.09 C221.72 27.09, 222.32 51.54, 224.28 85.94 M222.81 -0.93 C222.63 31.95, 222.05 65.84, 222.1 84.76 M222.92 86.6 C174.82 87.04, 130.76 86.92, 1.39 84.17 M222.24 85.01 C161.09 83.83, 100.46 82.4, -0.25 84.44 M1.15 85.11 C2.21 61.75, 2.47 39.27, -1.85 0.78 M-0.61 84.18 C-0.71 65.57, -1.06 47.85, 0.57 0.9" stroke="#7c3aed" stroke-width="2" fill="none"></path></g><g transform="translate(841.5626587173155 27.5) rotate(0 106.14990234375006 25)"><text x="106.14990234375" y="NaN" font-family="Virgil, Segoe UI Emoji" font-size="20px" fill="#ffffff" text-anchor="middle" style="white-space: pre;" direction="ltr">Authorization Server </text><text x="106.14990234375" y="NaN" font-family="Virgil, Segoe UI Emoji" font-size="20px" fill="#ffffff" text-anchor="middle" style="white-space: pre;" direction="ltr">(Google)</text></g><g stroke-linecap="round"><g transform="translate(950 60.269106935474554) rotate(0 0 450)"><path d="M0.57 -0.88 C0.69 149.08, 1.15 749.51, 0.94 899.69" stroke="#585b70" stroke-width="1.5" fill="none" stroke-dasharray="8 9"></path></g></g><g stroke-linecap="round" transform="translate(842.3684463758868 960.3910357074424) rotate(0 111.25607079337317 42.5)"><path d="M-0.47 -1.05 L223.36 -0.02 L223.68 85.12 L0.7 83.4" stroke="none" stroke-width="0" fill="#5b21b6"></path><path d="M-0.73 -0.37 C61.79 1.96, 127.77 0.42, 223.11 1.4 M-0.09 0.3 C64.16 -0.16, 128.81 0.11, 222.63 -0.19 M222.83 -0.04 C224.47 24.94, 223.44 45.9, 223.75 85.37 M223.06 -0.3 C223.43 30.1, 222.39 60.63, 221.89 84.11 M224.22 84.23 C153.73 86.67, 85.09 87.67, -1.61 84.3 M223.16 84.38 C157.59 83.23, 92.7 83.41, 0.05 85.26 M0.25 84.19 C-1.32 64.67, -2.36 46.9, -1.02 0.28 M-0.56 85.1 C1.58 66.76, 0.47 46.02, 0.64 -0.88" stroke="#7c3aed" stroke-width="2" fill="none"></path></g><g transform="translate(847.47461482551 977.8910357074424) rotate(0 106.14990234374994 25)"><text x="106.14990234375" y="NaN" font-family="Virgil, Segoe UI Emoji" font-size="20px" fill="#ffffff" text-anchor="middle" style="white-space: pre;" direction="ltr">Authorization Server </text><text x="106.14990234375" y="NaN" font-family="Virgil, Segoe UI Emoji" font-size="20px" fill="#ffffff" text-anchor="middle" style="white-space: pre;" direction="ltr">(Google)</text></g><g stroke-linecap="round" transform="translate(1130 10.269106935474554) rotate(0 100 42.5)"><path d="M0.63 0.6 L200 0.9 L199.9 85.7 L-0.89 86.9" stroke="none" stroke-width="0" fill="#5b21b6"></path><path d="M-1 0.12 C58.91 -0.54, 116.25 -0.54, 199.35 -0.84 M-0.04 -0.32 C65.42 1.7, 129.4 1.62, 199.41 0.4 M200.05 1.23 C202.1 30.36, 201.08 58.8, 200.77 85.69 M200.14 0.74 C198.85 33.55, 198.71 66.59, 200.17 84.71 M200.38 84.98 C136.78 84.62, 72.57 84.13, -0.47 86.53 M199.31 84.9 C137.05 82.97, 72.91 83.88, -0.03 85.65 M-0.16 86.07 C2.63 50.37, 2.18 19.28, 1.95 0.14 M0.31 84.02 C-0.9 54.87, -0.13 24.71, -0.73 -0.6" stroke="#7c3aed" stroke-width="2" fill="none"></path></g><g transform="translate(1150.460075378418 27.769106935474554) rotate(0 79.53992462158203 25)"><text x="79.53992462158203" y="NaN" font-family="Virgil, Segoe UI Emoji" font-size="20px" fill="#ffffff" text-anchor="middle" style="white-space: pre;" direction="ltr">Resource Server</text><text x="79.53992462158203" y="NaN" font-family="Virgil, Segoe UI Emoji" font-size="20px" fill="#ffffff" text-anchor="middle" style="white-space: pre;" direction="ltr">(Calendar API)</text></g><g stroke-linecap="round"><g transform="translate(1230 60.269106935474554) rotate(0 0 450)"><path d="M-0.69 -1.1 C-0.89 148.72, -0.6 749.37, -0.33 899.38" stroke="#585b70" stroke-width="1.5" fill="none" stroke-dasharray="8 9"></path></g></g><g stroke-linecap="round" transform="translate(1130 960.2691069354746) rotate(0 100 42.5)"><path d="M0.64 0.62 L201.55 1.17 L200.65 83.59 L-1.52 84.17" stroke="none" stroke-width="0" fill="#5b21b6"></path><path d="M-0.2 1.19 C56.32 0.45, 115.5 2.83, 200.91 0.54 M-0.62 -0.03 C77.09 0.61, 155.63 1.71, 199.31 -0.7 M201.49 -0.48 C202.17 23.85, 199.57 50.09, 201.48 85.76 M200.67 0.31 C201.4 24.71, 199.93 50.65, 199.32 85.6 M199.84 86 C141 83.18, 79.15 83.42, -0.34 85.92 M199.63 84.25 C130.17 83.24, 62.65 84.44, 0.16 84.64 M-1.78 85.08 C-2.61 59.18, -0.16 31.36, 0.07 -0.56 M-0.13 84.71 C-0.04 59.29, 0.98 33.87, -0.12 0.49" stroke="#7c3aed" stroke-width="2" fill="none"></path></g><g transform="translate(1150.460075378418 977.7691069354746) rotate(0 79.53992462158203 25)"><text x="79.53992462158203" y="NaN" font-family="Virgil, Segoe UI Emoji" font-size="20px" fill="#ffffff" text-anchor="middle" style="white-space: pre;" direction="ltr">Resource Server</text><text x="79.53992462158203" y="NaN" font-family="Virgil, Segoe UI Emoji" font-size="20px" fill="#ffffff" text-anchor="middle" style="white-space: pre;" direction="ltr">(Calendar API)</text></g><g stroke-linecap="round"><g transform="translate(110 140.26910693547455) rotate(0 140 0)"><path d="M0.06 -0.27 C46.35 -0.3, 232.07 -0.14, 278.84 -0.26 M-1.37 -1.46 C45.17 -1.29, 234 0.92, 280.94 1.14" stroke="#cdd6f4" stroke-width="2" fill="none"></path></g><g transform="translate(110 140.26910693547455) rotate(0 140 0)"><path d="M252.21 9.22 C263.31 8.36, 273.18 2.95, 280.97 0.95 M252.41 11.34 C259.22 9.48, 266.77 6.57, 280.22 1.88" stroke="#cdd6f4" stroke-width="2" fill="none"></path></g><g transform="translate(110 140.26910693547455) rotate(0 140 0)"><path d="M252.39 -11.3 C263.4 -4.12, 273.2 -1.5, 280.97 0.95 M252.59 -9.18 C259.22 -5.6, 266.72 -3.07, 280.22 1.88" stroke="#cdd6f4" stroke-width="2" fill="none"></path></g></g><g transform="translate(163.42906188964847 129.01910693547455) rotate(0 86.57093811035155 22.5)"><text x="86.57093811035156" y="NaN" font-family="Virgil, Segoe UI Emoji" font-size="18px" fill="#cdd6f4" text-anchor="middle" style="white-space: pre;" direction="ltr">Clicks "Connect with</text><text x="86.57093811035156" y="NaN" font-family="Virgil, Segoe UI Emoji" font-size="18px" fill="#cdd6f4" text-anchor="middle" style="white-space: pre;" direction="ltr">Google"</text></g><g stroke-linecap="round"><g transform="translate(390 220.26910693547455) rotate(0 280 0)"><path d="M-0.88 0.51 C92.34 0.46, 466.68 -0.78, 560.19 -1 M0.87 -0.27 C93.86 -0.14, 466.24 -0.05, 559.34 0.02" stroke="#cdd6f4" stroke-width="2" fill="none"></path></g><g transform="translate(390 220.26910693547455) rotate(0 280 0)"><path d="M532 10.58 C540.12 6.9, 551.07 1.05, 557.38 -0.12 M530.38 9.56 C538.33 8.4, 543.94 4.92, 559.97 -0.88" stroke="#cdd6f4" stroke-width="2" fill="none"></path></g><g transform="translate(390 220.26910693547455) rotate(0 280 0)"><path d="M532.01 -9.94 C540.01 -5.92, 550.95 -4.07, 557.38 -0.12 M530.39 -10.96 C538.5 -7.19, 544.11 -5.73, 559.97 -0.88" stroke="#cdd6f4" stroke-width="2" fill="none"></path></g></g><g transform="translate(476.59915161132807 209.01910693547455) rotate(0 193.4008483886719 45)"><text x="193.40084838867188" y="NaN" font-family="Virgil, Segoe UI Emoji" font-size="18px" fill="#cdd6f4" text-anchor="middle" style="white-space: pre;" direction="ltr">GET</text><text x="193.40084838867188" y="NaN" font-family="Virgil, Segoe UI Emoji" font-size="18px" fill="#cdd6f4" text-anchor="middle" style="white-space: pre;" direction="ltr">/authorize?client_id=X&amp;redirect_uri=Y&amp;scop</text><text x="193.40084838867188" y="NaN" font-family="Virgil, Segoe UI Emoji" font-size="18px" fill="#cdd6f4" text-anchor="middle" style="white-space: pre;" direction="ltr">e=calendar.read&amp;response_type=code&amp;stat</text><text x="193.40084838867188" y="NaN" font-family="Virgil, Segoe UI Emoji" font-size="18px" fill="#cdd6f4" text-anchor="middle" style="white-space: pre;" direction="ltr">e=Z</text></g><g stroke-linecap="round"><g transform="translate(950 300.26910693547455) rotate(0 -420 0)"><path d="M1.06 0.74 C-138.94 0.89, -699.35 0.91, -839.48 0.59 M0.16 0.09 C-140 -0.1, -700.08 -1.13, -840.16 -1.23" stroke="#cdd6f4" stroke-width="2" fill="none"></path></g><g transform="translate(950 300.26910693547455) rotate(0 -420 0)"><path d="M-810.71 -10.59 C-820.69 -7.2, -833.36 -5.27, -839.9 -1.66 M-811.86 -11.49 C-818.15 -8.53, -823.75 -7.3, -840.84 -1.87" stroke="#cdd6f4" stroke-width="2" fill="none"></path></g><g transform="translate(950 300.26910693547455) rotate(0 -420 0)"><path d="M-810.74 9.93 C-820.67 6.26, -833.32 1.15, -839.9 -1.66 M-811.88 9.03 C-817.99 7.75, -823.58 4.72, -840.84 -1.87" stroke="#cdd6f4" stroke-width="2" fill="none"></path></g></g><g transform="translate(405.314079284668 289.01910693547455) rotate(0 124.685920715332 11.25)"><text x="124.68592071533203" y="NaN" font-family="Virgil, Segoe UI Emoji" font-size="18px" fill="#cdd6f4" text-anchor="middle" style="white-space: pre;" direction="ltr">Login page + consent screen</text></g><g stroke-linecap="round"><g transform="translate(110 380.26910693547455) rotate(0 420 0)"><path d="M0.76 0.94 C140.7 0.74, 699.76 -0.36, 839.49 -0.37 M-0.29 0.39 C139.45 0.28, 697.96 1.21, 838.27 0.98" stroke="#cdd6f4" stroke-width="2" fill="none"></path></g><g transform="translate(110 380.26910693547455) rotate(0 420 0)"><path d="M811.65 10.38 C817.55 6.61, 827.81 5.71, 837.68 1.57 M810.94 10.97 C818.74 8.51, 826.41 5.03, 838.16 0.52" stroke="#cdd6f4" stroke-width="2" fill="none"></path></g><g transform="translate(110 380.26910693547455) rotate(0 420 0)"><path d="M811.65 -10.14 C817.7 -7.98, 827.96 -2.94, 837.68 1.57 M810.94 -9.55 C818.93 -6.25, 826.6 -3.95, 838.16 0.52" stroke="#cdd6f4" stroke-width="2" fill="none"></path></g></g><g transform="translate(452.51906585693365 369.01910693547455) rotate(0 77.48093414306638 11.25)"><text x="77.4809341430664" y="NaN" font-family="Virgil, Segoe UI Emoji" font-size="18px" fill="#cdd6f4" text-anchor="middle" style="white-space: pre;" direction="ltr">Grants permission</text></g><g stroke-linecap="round"><g transform="translate(950 460.26910693547455) rotate(0 -280 0)"><path d="M-0.03 -0.33 C-93.63 -0.34, -467.48 -0.99, -560.91 -0.93 M-1.51 -1.55 C-94.8 -1.36, -465.31 -0.37, -558.68 0.12" stroke="#cdd6f4" stroke-width="2" fill="none"></path></g><g transform="translate(950 460.26910693547455) rotate(0 -280 0)"><path d="M-531.09 -11.77 C-542.21 -7.59, -550.68 -1.21, -559.43 0.73 M-530.26 -10.04 C-537.82 -7.94, -546.85 -5.05, -557.92 -0.6" stroke="#cdd6f4" stroke-width="2" fill="none"></path></g><g transform="translate(950 460.26910693547455) rotate(0 -280 0)"><path d="M-531.01 8.75 C-542.01 5.61, -550.51 4.66, -559.43 0.73 M-530.19 10.48 C-537.74 6.56, -546.79 3.43, -557.92 -0.6" stroke="#cdd6f4" stroke-width="2" fill="none"></path></g></g><g transform="translate(533.5060729980469 449.01910693547455) rotate(0 136.49392700195312 22.5)"><text x="136.49392700195312" y="NaN" font-family="Virgil, Segoe UI Emoji" font-size="18px" fill="#cdd6f4" text-anchor="middle" style="white-space: pre;" direction="ltr">302 Redirect to</text><text x="136.49392700195312" y="NaN" font-family="Virgil, Segoe UI Emoji" font-size="18px" fill="#cdd6f4" text-anchor="middle" style="white-space: pre;" direction="ltr">Y?code=AUTH_CODE&amp;state=Z</text></g><g stroke-linecap="round"><g transform="translate(390 540.2691069354746) rotate(0 140 0)"><path d="M0.11 -1.12 C46.91 -0.89, 234.18 1.05, 280.89 1.06 M-1.29 0.9 C45.42 0.85, 233.56 -0.3, 280.4 -0.5" stroke="#cdd6f4" stroke-width="2" fill="none"></path></g><g transform="translate(390 540.2691069354746) rotate(0 140 0)"><path d="M250.39 11.38 C262.75 7.24, 267.88 3.5, 279.24 -1.66 M252.22 9.65 C261.84 7.28, 273 1.84, 279.75 -0.14" stroke="#cdd6f4" stroke-width="2" fill="none"></path></g><g transform="translate(390 540.2691069354746) rotate(0 140 0)"><path d="M250.29 -9.14 C262.62 -6.95, 267.77 -4.35, 279.24 -1.66 M252.11 -10.87 C261.83 -5.75, 273.03 -3.7, 279.75 -0.14" stroke="#cdd6f4" stroke-width="2" fill="none"></path></g></g><g transform="translate(439.4960708618164 529.0191069354746) rotate(0 90.5039291381836 22.5)"><text x="90.5039291381836" y="NaN" font-family="Virgil, Segoe UI Emoji" font-size="18px" fill="#cdd6f4" text-anchor="middle" style="white-space: pre;" direction="ltr">Follows redirect with</text><text x="90.5039291381836" y="NaN" font-family="Virgil, Segoe UI Emoji" font-size="18px" fill="#cdd6f4" text-anchor="middle" style="white-space: pre;" direction="ltr">auth code</text></g><g stroke-opacity="0.85" fill-opacity="0.85" stroke-linecap="round" transform="translate(499.2 593.2691069354746) rotate(0 310.79999999999995 22)"><path d="M-0.72 0.76 L621.66 -0.67 L620.29 44.81 L1.03 45.56" stroke="none" stroke-width="0" fill="#2d6a4f"></path><path d="M-0.77 -0.43 C181.86 -1.3, 361.82 -1.19, 620.98 0.18 M-0.02 0.39 C161.01 -1.29, 321.7 -0.77, 621.69 -0.31 M623.16 1.38 C620.15 9.15, 623.59 19.6, 622.17 43.13 M622.44 -0.2 C620.66 8.58, 621.56 18.38, 621.83 43.8 M621.31 43.58 C412.52 43.42, 202.78 42.4, -0.56 43.34 M621.81 44.13 C379.88 42.91, 137.55 42.52, -0.13 43.89 M0.6 43.42 C-1.55 31.21, -0.15 15.55, -0.14 -1.76 M-0.69 43.44 C-1.02 30.83, -0.55 18.54, -0.45 0.29" stroke="#40916c" stroke-width="2" fill="none"></path></g><g transform="translate(534.9521789550781 605.2691069354746) rotate(0 275.0478210449219 10)"><text x="275.0478210449219" y="NaN" font-family="Virgil, Segoe UI Emoji" font-size="16px" fill="#ffffff" text-anchor="middle" style="white-space: pre;" direction="ltr">Backend-to-backend exchange -- browser never sees the client secret</text></g><g stroke-linecap="round"><g transform="translate(670 690.2691069354746) rotate(0 140 0)"><path d="M-0.55 0.15 C46.01 0.22, 232.41 0.65, 279.24 0.81 M1.36 -0.82 C48.32 -1.12, 235.14 -0.92, 281.55 -0.88" stroke="#cdd6f4" stroke-width="2" fill="none"></path></g><g transform="translate(670 690.2691069354746) rotate(0 140 0)"><path d="M253.59 8.08 C262.81 7.18, 271.5 2.38, 281.82 -2.68 M254.28 8.51 C261.33 6.19, 270.25 1.84, 281.01 0.05" stroke="#cdd6f4" stroke-width="2" fill="none"></path></g><g transform="translate(670 690.2691069354746) rotate(0 140 0)"><path d="M253.61 -12.44 C262.89 -7.42, 271.57 -6.3, 281.82 -2.68 M254.3 -12.01 C261.53 -7.83, 270.44 -5.68, 281.01 0.05" stroke="#cdd6f4" stroke-width="2" fill="none"></path></g></g><g transform="translate(730.7460327148438 679.0191069354746) rotate(0 79.25396728515625 45)"><text x="79.25396728515625" y="NaN" font-family="Virgil, Segoe UI Emoji" font-size="18px" fill="#cdd6f4" text-anchor="middle" style="white-space: pre;" direction="ltr">POST /token with</text><text x="79.25396728515625" y="NaN" font-family="Virgil, Segoe UI Emoji" font-size="18px" fill="#cdd6f4" text-anchor="middle" style="white-space: pre;" direction="ltr">code, client_id,</text><text x="79.25396728515625" y="NaN" font-family="Virgil, Segoe UI Emoji" font-size="18px" fill="#cdd6f4" text-anchor="middle" style="white-space: pre;" direction="ltr">client_secret,</text><text x="79.25396728515625" y="NaN" font-family="Virgil, Segoe UI Emoji" font-size="18px" fill="#cdd6f4" text-anchor="middle" style="white-space: pre;" direction="ltr">redirect_uri</text></g><g stroke-linecap="round"><g transform="translate(950 770.2691069354746) rotate(0 -140 0)"><path d="M0.41 -0.02 C-46.02 -0.06, -233.01 -0.17, -279.73 -0.29" stroke="#cdd6f4" stroke-width="2.5" fill="none" stroke-dasharray="8 10"></path></g><g transform="translate(950 770.2691069354746) rotate(0 -140 0)"><path d="M-251.55 -10.06 C-257.78 -8.2, -264.31 -7.83, -279.57 1.64" stroke="#cdd6f4" stroke-width="2.5" fill="none"></path></g><g transform="translate(950 770.2691069354746) rotate(0 -140 0)"><path d="M-251.58 10.46 C-257.8 8.12, -264.32 4.28, -279.57 1.64" stroke="#cdd6f4" stroke-width="2.5" fill="none"></path></g></g><g transform="translate(742.1580352783203 759.0191069354746) rotate(0 67.84196472167969 22.5)"><text x="67.84196472167969" y="NaN" font-family="Virgil, Segoe UI Emoji" font-size="18px" fill="#cdd6f4" text-anchor="middle" style="white-space: pre;" direction="ltr">Access token +</text><text x="67.84196472167969" y="NaN" font-family="Virgil, Segoe UI Emoji" font-size="18px" fill="#cdd6f4" text-anchor="middle" style="white-space: pre;" direction="ltr">refresh token</text></g><g stroke-linecap="round"><g transform="translate(670 840.2691069354746) rotate(0 280 0)"><path d="M0.29 -0.48 C93.75 -0.4, 466.75 -0.47, 559.86 -0.25 M-1.01 -1.77 C92.35 -1.45, 465.12 1.03, 558.83 1.15" stroke="#cdd6f4" stroke-width="2" fill="none"></path></g><g transform="translate(670 840.2691069354746) rotate(0 280 0)"><path d="M529.8 11.05 C536.65 7.12, 544.9 8.2, 557.88 -0.75 M529.79 10.3 C541.22 7.26, 550.75 4.44, 559.23 1.98" stroke="#cdd6f4" stroke-width="2" fill="none"></path></g><g transform="translate(670 840.2691069354746) rotate(0 280 0)"><path d="M529.89 -9.47 C536.59 -8.74, 544.83 -3, 557.88 -0.75 M529.88 -10.23 C541.37 -5.93, 550.86 -1.41, 559.23 1.98" stroke="#cdd6f4" stroke-width="2" fill="none"></path></g></g><g transform="translate(766.1661071777343 829.0191069354746) rotate(0 183.83389282226568 11.25)"><text x="183.83389282226562" y="NaN" font-family="Virgil, Segoe UI Emoji" font-size="18px" fill="#cdd6f4" text-anchor="middle" style="white-space: pre;" direction="ltr">GET /calendar/events with Bearer token</text></g><g stroke-linecap="round"><g transform="translate(1230 905.39949215449) rotate(0 -280 0)"><path d="M0.34 1.1 C-92.96 1.16, -466.21 1.25, -559.43 1.18" stroke="#cdd6f4" stroke-width="2.5" fill="none" stroke-dasharray="8 10"></path></g><g transform="translate(1230 905.39949215449) rotate(0 -280 0)"><path d="M-529.41 -8.12 C-538.52 -3.85, -548.69 -2.75, -560.67 0.96" stroke="#cdd6f4" stroke-width="2.5" fill="none"></path></g><g transform="translate(1230 905.39949215449) rotate(0 -280 0)"><path d="M-529.41 12.4 C-538.66 9.9, -548.83 4.21, -560.67 0.96" stroke="#cdd6f4" stroke-width="2.5" fill="none"></path></g></g><g transform="translate(885.0020370483398 894.0191069354746) rotate(0 64.99796295166016 11.25)"><text x="64.99796295166016" y="NaN" font-family="Virgil, Segoe UI Emoji" font-size="18px" fill="#cdd6f4" text-anchor="middle" style="white-space: pre;" direction="ltr">Calendar data</text></g></svg>