<svg version="1.1" xmlns="http://www.w3.org/2000/svg" viewBox="0 0 1060 1340" width="1060" height="1340">
  <!-- svg-source:excalidraw -->
  
  <defs>
    <style>
      @font-face {
        font-family: "Virgil";
        src: url("https://excalidraw.com/Virgil.woff2");
      }
      @font-face {
        font-family: "Cascadia";
        src: url("https://excalidraw.com/Cascadia.woff2");
      }
    </style>
  </defs>
  <rect x="0" y="0" width="1060" height="1340" fill="#0d1117"></rect><g stroke-linecap="round" transform="translate(10 10) rotate(0 100 25)"><path d="M-1.73 0.77 L198.49 -0.39 L201.9 50.92 L-0.2 50.9" stroke="none" stroke-width="0" fill="#3a1d6e"></path><path d="M1.13 0.41 C63.41 -2.15, 124.7 -2.76, 199.19 -1.2 M0.39 0.66 C58.87 0.44, 117.89 0.07, 199.95 0.75 M198.36 -0.47 C199.36 19.63, 200.73 36.49, 198.11 48.89 M200.51 -0.34 C198.98 17.35, 199.56 34.04, 199.98 49.78 M199.51 48.4 C132.93 52.2, 64.64 50.91, 1.69 50.22 M200.34 50.62 C154.28 50.7, 107.26 50.95, -0.61 50.49 M-1.93 51.74 C0.03 34.82, -0.99 14.53, 0.16 1.49 M0.97 49.21 C-0.21 29.4, 0.5 10.61, 0.85 0.43" stroke="#a371f7" stroke-width="2" fill="none"></path></g><g transform="translate(87.66001892089844 22.5) rotate(0 22.339981079101562 12.5)"><text x="22.339981079101562" y="NaN" font-family="Virgil, Segoe UI Emoji" font-size="20px" fill="#ffffff" text-anchor="middle" style="white-space: pre;" direction="ltr">User</text></g><g stroke-linecap="round"><g transform="translate(110 60) rotate(0 0 610)"><path d="M-0.29 0.61 C-0.09 204.01, 0.94 1017.66, 1.09 1221" stroke="#30363d" stroke-width="1.5" fill="none" stroke-dasharray="8 9"></path></g></g><g stroke-linecap="round" transform="translate(10 1280) rotate(0 100 25)"><path d="M0.6 -0.8 L200.16 0.65 L201.32 51.42 L-1.96 49.34" stroke="none" stroke-width="0" fill="#3a1d6e"></path><path d="M0.65 -1.68 C55.47 0.51, 112.92 -0.14, 200.19 -0.91 M0.08 0.62 C74.15 -2.38, 149.1 -2.21, 200.7 -0.57 M199.19 -0.3 C198.93 15.4, 199.65 29.87, 199 50.81 M199.7 0.11 C200.79 15.33, 200.88 31.37, 199.69 49.67 M199.73 48.48 C157.85 50.26, 116.02 51.52, 0.85 49.06 M200.73 50.21 C127.98 50.59, 56.1 50.59, -0.66 50.51 M1.82 50.79 C0.13 36.78, 1.83 21.72, 0.27 0.27 M0.04 50.94 C-1.08 37.3, 0.39 24.12, -0.14 -0.82" stroke="#a371f7" stroke-width="2" fill="none"></path></g><g transform="translate(87.66001892089844 1292.5) rotate(0 22.339981079101562 12.5)"><text x="22.339981079101562" y="NaN" font-family="Virgil, Segoe UI Emoji" font-size="20px" fill="#ffffff" text-anchor="middle" style="white-space: pre;" direction="ltr">User</text></g><g stroke-linecap="round" transform="translate(290 10) rotate(0 100 25)"><path d="M-0.73 -1.46 L201.48 0.94 L200.57 51.07 L-1.47 48.42" stroke="none" stroke-width="0" fill="#3a1d6e"></path><path d="M-0.48 0.11 C41.94 -0.13, 82.64 0.47, 199.47 -1.48 M0.61 -0.12 C59.2 0.92, 119.54 0.19, 199.98 0.17 M199.69 1.15 C199.5 11.85, 199.29 22.62, 199.49 48.09 M199.22 0.63 C200.35 11.88, 200.32 21.85, 200.21 49.97 M200.69 51.19 C153.04 51.22, 107.24 50.26, -1.44 48.79 M199.2 50.39 C129.36 50.87, 59.4 51.3, -0.56 49.94 M-0.74 48.86 C-0.7 34.31, 1.62 15.53, 0.37 1.64 M0.72 49.87 C-0.83 36.24, -0.17 24.09, 0.94 0.82" stroke="#a371f7" stroke-width="2" fill="none"></path></g><g transform="translate(351.60003662109375 22.5) rotate(0 38.39996337890625 12.5)"><text x="38.39996337890625" y="NaN" font-family="Virgil, Segoe UI Emoji" font-size="20px" fill="#ffffff" text-anchor="middle" style="white-space: pre;" direction="ltr">Browser</text></g><g stroke-linecap="round"><g transform="translate(390 60) rotate(0 0 610)"><path d="M0.46 -0.28 C0.58 202.8, 0.27 1016.16, 0.35 1219.49" stroke="#30363d" stroke-width="1.5" fill="none" stroke-dasharray="8 9"></path></g></g><g stroke-linecap="round" transform="translate(290 1280) rotate(0 100 25)"><path d="M-1.07 1.66 L198.97 -1.4 L199.66 51.19 L1.07 51.82" stroke="none" stroke-width="0" fill="#3a1d6e"></path><path d="M1.33 0.27 C67.38 0.66, 135.07 -0.54, 198.54 1.27 M0.66 0.25 C56.56 -0.45, 112.23 -0.73, 199.73 0.33 M200.5 -1.41 C200.93 17.17, 198.66 35.51, 198.79 49.43 M200.33 0.17 C199.94 11.25, 199 25.41, 200.25 49.58 M200.41 48.45 C126.85 52.96, 56.53 51.19, -1.76 50.9 M199.46 50.27 C152.23 51.18, 103.77 50.86, 0.72 50.74 M0.18 50.19 C1.03 29.95, 0.55 13.8, -0.39 1.89 M0.52 50.84 C-0.19 32.94, 0.98 16, 0.55 0.87" stroke="#a371f7" stroke-width="2" fill="none"></path></g><g transform="translate(351.60003662109375 1292.5) rotate(0 38.39996337890625 12.5)"><text x="38.39996337890625" y="NaN" font-family="Virgil, Segoe UI Emoji" font-size="20px" fill="#ffffff" text-anchor="middle" style="white-space: pre;" direction="ltr">Browser</text></g><g stroke-linecap="round" transform="translate(570 10) rotate(0 100 25)"><path d="M-0.21 1.46 L201.21 0.45 L199.45 48.52 L-1.72 49.44" stroke="none" stroke-width="0" fill="#3a1d6e"></path><path d="M-0.61 -0.46 C53.64 0.03, 107.81 2.93, 198.97 -0.49 M-0.2 -0.47 C70.2 -2.45, 140.82 -2.02, 200.53 0.29 M200.99 -0.46 C198.44 9.24, 197.91 22.32, 200.7 50.24 M200.72 0.62 C200.61 12.24, 199.68 26.98, 199.45 49.74 M201.15 49.59 C123.47 47.93, 47.81 48.98, -1.41 50.8 M200.36 49.74 C126.35 50.58, 53.23 50.76, 0.5 50.63 M1 48.07 C0.72 34.45, -1.19 21.88, -0.51 0.62 M0.09 49.99 C0.12 34.11, -1.09 18.24, -0.26 0.24" stroke="#a371f7" stroke-width="2" fill="none"></path></g><g transform="translate(639.150032043457 22.5) rotate(0 30.84996795654297 12.5)"><text x="30.84996795654297" y="NaN" font-family="Virgil, Segoe UI Emoji" font-size="20px" fill="#ffffff" text-anchor="middle" style="white-space: pre;" direction="ltr">Server</text></g><g stroke-linecap="round"><g transform="translate(670 60) rotate(0 0 610)"><path d="M-0.14 0.68 C-0.1 203.85, 0.9 1016.36, 0.8 1219.45" stroke="#30363d" stroke-width="1.5" fill="none" stroke-dasharray="8 9"></path></g></g><g stroke-linecap="round" transform="translate(570 1280) rotate(0 100 25)"><path d="M-1.1 -0.6 L201.8 0.41 L201.9 50.19 L-0.85 49.34" stroke="none" stroke-width="0" fill="#3a1d6e"></path><path d="M-1.04 -0.32 C74.43 1.65, 148.99 2.13, 200.96 -1.67 M0.33 -0.73 C75.8 -1.19, 151.35 -0.56, 199.49 0.4 M200.09 0.05 C201.29 17.64, 200.78 30.46, 198.46 50.54 M200.39 0.94 C198.69 13.54, 199.31 26.26, 199.76 50.85 M199.04 51.6 C152.53 47.74, 105.27 49.19, 1.42 51.67 M199.28 50.45 C126.01 49.87, 51.35 50.83, -0.03 50.3 M-1.35 49.7 C-1.82 34.06, -1.33 19.08, -0.65 0.17 M-0.08 49.85 C-0.2 38.21, -0.84 26.91, -0.28 0.16" stroke="#a371f7" stroke-width="2" fill="none"></path></g><g transform="translate(639.150032043457 1292.5) rotate(0 30.84996795654297 12.5)"><text x="30.84996795654297" y="NaN" font-family="Virgil, Segoe UI Emoji" font-size="20px" fill="#ffffff" text-anchor="middle" style="white-space: pre;" direction="ltr">Server</text></g><g stroke-linecap="round" transform="translate(850 10) rotate(0 100 25)"><path d="M-1.33 -0.43 L198.6 0.06 L199.43 50.5 L-1.74 48.17" stroke="none" stroke-width="0" fill="#3a1d6e"></path><path d="M-1.46 0.85 C46.35 -0.15, 93.3 -0.95, 200.61 -0.38 M-0.59 -0.1 C69.87 -1.91, 138 -0.41, 199.95 -0.43 M201.15 0.45 C199.75 15.78, 200.9 30.54, 200.45 51.37 M200.83 -0.31 C200.64 11.21, 199.21 22.4, 199.08 49.96 M199.06 48.76 C129.64 51.28, 55.91 50.05, -0.49 49.01 M200.43 49.13 C149.91 50.69, 98.69 51.76, 0.04 50 M1.54 51.32 C-2.03 33.73, -1.94 14.78, 1.01 -0.35 M0.49 50.95 C0.03 31.29, 0.08 14.4, -0.28 -0.31" stroke="#a371f7" stroke-width="2" fill="none"></path></g><g transform="translate(883.1500701904297 22.5) rotate(0 66.84992980957031 12.5)"><text x="66.84992980957031" y="NaN" font-family="Virgil, Segoe UI Emoji" font-size="20px" fill="#ffffff" text-anchor="middle" style="white-space: pre;" direction="ltr">Session Store</text></g><g stroke-linecap="round"><g transform="translate(950 60) rotate(0 0 610)"><path d="M0.17 0.46 C0.2 204.08, -0.05 1017.77, 0.02 1221" stroke="#30363d" stroke-width="1.5" fill="none" stroke-dasharray="8 9"></path></g></g><g stroke-linecap="round" transform="translate(850 1280) rotate(0 100 25)"><path d="M0.58 0.09 L200.28 -1.7 L199.99 50.05 L-0.07 51.4" stroke="none" stroke-width="0" fill="#3a1d6e"></path><path d="M-1.46 -1.54 C68.73 -0.64, 136.37 0.77, 200.78 -1.35 M0.37 -0.37 C50.08 1.84, 100.79 0.29, 200.35 0.31 M199.07 0.28 C199.8 12.14, 201.18 24.44, 199.89 51.68 M199.05 -0.99 C198.72 16.21, 199.6 32.28, 200.13 49.39 M200.15 50.96 C154.71 49.88, 105.2 50.46, -0.08 50.54 M200.5 49.96 C129.44 49.14, 57.41 49.88, 0.89 49.66 M0.65 50.28 C2.14 38.59, -0.86 28.56, -0.34 -0.12 M0.55 50.07 C1.27 39.38, 1.28 28.32, 0.02 -0.6" stroke="#a371f7" stroke-width="2" fill="none"></path></g><g transform="translate(883.1500701904297 1292.5) rotate(0 66.84992980957031 12.5)"><text x="66.84992980957031" y="NaN" font-family="Virgil, Segoe UI Emoji" font-size="20px" fill="#ffffff" text-anchor="middle" style="white-space: pre;" direction="ltr">Session Store</text></g><g stroke-linecap="round"><g transform="translate(110 140) rotate(0 140 0)"><path d="M-0.4 0.94 C46.47 1.19, 233.82 0.74, 280.67 0.61 M1.59 0.39 C48.41 0.36, 233.62 -1.39, 280.07 -1.2" stroke="#c9d1d9" stroke-width="2" fill="none"></path></g><g transform="translate(110 140) rotate(0 140 0)"><path d="M253.48 10.28 C260.19 7.79, 266.64 5.63, 278.85 0.56 M251.45 9.09 C259.99 6.22, 265.95 2.83, 280.1 -1.69" stroke="#c9d1d9" stroke-width="2" fill="none"></path></g><g transform="translate(110 140) rotate(0 140 0)"><path d="M253.41 -10.25 C259.99 -7.49, 266.45 -4.42, 278.85 0.56 M251.38 -11.43 C259.88 -8.88, 265.85 -6.86, 280.1 -1.69" stroke="#c9d1d9" stroke-width="2" fill="none"></path></g></g><g transform="translate(168.5950698852539 128.75) rotate(0 81.4049301147461 11.25)"><text x="81.4049301147461" y="NaN" font-family="Virgil, Segoe UI Emoji" font-size="18px" fill="#c9d1d9" text-anchor="middle" style="white-space: pre;" direction="ltr">Enters credentials</text></g><g stroke-linecap="round"><g transform="translate(390 220) rotate(0 140 0)"><path d="M0.06 1.17 C46.75 1, 232.62 -0.28, 279.19 -0.39 M-1.37 0.74 C45.79 0.69, 234.85 1.33, 281.48 0.94" stroke="#c9d1d9" stroke-width="2" fill="none"></path></g><g transform="translate(390 220) rotate(0 140 0)"><path d="M255.27 9.91 C258.79 8.11, 266.47 7.24, 281.77 2.91 M253.88 11.77 C260.46 9.93, 266.71 7.32, 280.9 1.77" stroke="#c9d1d9" stroke-width="2" fill="none"></path></g><g transform="translate(390 220) rotate(0 140 0)"><path d="M255.23 -10.61 C258.87 -7.91, 266.56 -4.27, 281.77 2.91 M253.85 -8.75 C260.32 -5.94, 266.57 -3.9, 280.9 1.77" stroke="#c9d1d9" stroke-width="2" fill="none"></path></g></g><g transform="translate(456.29003906249994 208.75) rotate(0 73.70996093750003 22.5)"><text x="73.7099609375" y="NaN" font-family="Virgil, Segoe UI Emoji" font-size="18px" fill="#c9d1d9" text-anchor="middle" style="white-space: pre;" direction="ltr">POST /login with</text><text x="73.7099609375" y="NaN" font-family="Virgil, Segoe UI Emoji" font-size="18px" fill="#c9d1d9" text-anchor="middle" style="white-space: pre;" direction="ltr">credentials</text></g><g stroke-linecap="round"><g transform="translate(670 300) rotate(0 30 15)"><path d="M1.04 1.01 C11.21 1.17, 51.09 -3.54, 61.07 1.2 C71.04 5.94, 71.12 24.59, 60.9 29.45 C50.68 34.32, 9.78 30.27, -0.27 30.37 M0.12 0.49 C10.23 0.33, 50.6 -5.3, 60.68 -0.3 C70.76 4.7, 70.75 25.16, 60.61 30.48 C50.47 35.81, 10.03 31.68, -0.16 31.67" stroke="#c9d1d9" stroke-width="2" fill="none"></path></g><g transform="translate(670 300) rotate(0 30 15)"><path d="M30.17 24.55 C21.86 27.2, 10.31 27.94, 0.45 32.65 M27.81 23.34 C19.14 24.38, 11.92 26.94, -1.05 31.67" stroke="#c9d1d9" stroke-width="2" fill="none"></path></g><g transform="translate(670 300) rotate(0 30 15)"><path d="M29.18 45.05 C21.13 41.51, 9.88 36.06, 0.45 32.65 M26.83 43.84 C18.42 38.69, 11.49 35.07, -1.05 31.67" stroke="#c9d1d9" stroke-width="2" fill="none"></path></g></g><g transform="translate(645.0340728759766 303.75) rotate(0 92.46592712402344 11.25)"><text x="92.46592712402344" y="NaN" font-family="Virgil, Segoe UI Emoji" font-size="18px" fill="#c9d1d9" text-anchor="middle" style="white-space: pre;" direction="ltr">Verify password hash</text></g><g stroke-linecap="round"><g transform="translate(670 380) rotate(0 140 0)"><path d="M-0.13 -0.23 C46.31 -0.06, 232.85 0.96, 279.45 1.02 M-1.66 -1.39 C44.51 -1.55, 231.53 -1.05, 278.21 -0.57" stroke="#c9d1d9" stroke-width="2" fill="none"></path></g><g transform="translate(670 380) rotate(0 140 0)"><path d="M249.58 8.61 C261.99 5, 270.8 3.75, 278.02 -2.46 M249.17 9.6 C258.94 5.23, 269.59 1.96, 278.67 -0.78" stroke="#c9d1d9" stroke-width="2" fill="none"></path></g><g transform="translate(670 380) rotate(0 140 0)"><path d="M249.7 -11.91 C262.07 -8.02, 270.84 -1.77, 278.02 -2.46 M249.29 -10.93 C259.1 -8.27, 269.71 -4.51, 278.67 -0.78" stroke="#c9d1d9" stroke-width="2" fill="none"></path></g></g><g transform="translate(711.9630661010742 368.75) rotate(0 98.03693389892578 22.5)"><text x="98.03693389892578" y="NaN" font-family="Virgil, Segoe UI Emoji" font-size="18px" fill="#c9d1d9" text-anchor="middle" style="white-space: pre;" direction="ltr">Store session: token -</text><text x="98.03693389892578" y="NaN" font-family="Virgil, Segoe UI Emoji" font-size="18px" fill="#c9d1d9" text-anchor="middle" style="white-space: pre;" direction="ltr">&gt; user identity</text></g><g stroke-linecap="round"><g transform="translate(950 460) rotate(0 -140 0)"><path d="M-0.03 0.77 C-46.7 0.73, -232.74 1.12, -279.35 0.92" stroke="#c9d1d9" stroke-width="2.5" fill="none" stroke-dasharray="8 10"></path></g><g transform="translate(950 460) rotate(0 -140 0)"><path d="M-249.87 -8.24 C-259.57 -5.2, -271.88 -1.78, -280.48 0.7" stroke="#c9d1d9" stroke-width="2.5" fill="none"></path></g><g transform="translate(950 460) rotate(0 -140 0)"><path d="M-249.88 12.28 C-259.77 8.01, -272.08 4.12, -280.48 0.7" stroke="#c9d1d9" stroke-width="2.5" fill="none"></path></g></g><g transform="translate(797.9490051269531 448.75) rotate(0 12.050994873046875 11.25)"><text x="12.050994873046875" y="NaN" font-family="Virgil, Segoe UI Emoji" font-size="18px" fill="#c9d1d9" text-anchor="middle" style="white-space: pre;" direction="ltr">OK</text></g><g stroke-linecap="round"><g transform="translate(670 540) rotate(0 -140 0)"><path d="M-0.91 -0.05 C-47.68 0.03, -234.01 0.36, -280.65 0.38" stroke="#c9d1d9" stroke-width="2.5" fill="none" stroke-dasharray="8 10"></path></g><g transform="translate(670 540) rotate(0 -140 0)"><path d="M-252.55 -11 C-260.32 -8.3, -269.25 -1.95, -279.8 1.69" stroke="#c9d1d9" stroke-width="2.5" fill="none"></path></g><g transform="translate(670 540) rotate(0 -140 0)"><path d="M-252.53 9.52 C-260.29 6.05, -269.23 6.23, -279.8 1.69" stroke="#c9d1d9" stroke-width="2.5" fill="none"></path></g></g><g transform="translate(434.96007537841797 528.75) rotate(0 95.03992462158203 33.75)"><text x="95.03992462158203" y="NaN" font-family="Virgil, Segoe UI Emoji" font-size="18px" fill="#c9d1d9" text-anchor="middle" style="white-space: pre;" direction="ltr">Set-Cookie:</text><text x="95.03992462158203" y="NaN" font-family="Virgil, Segoe UI Emoji" font-size="18px" fill="#c9d1d9" text-anchor="middle" style="white-space: pre;" direction="ltr">sid=abc123 (HttpOnly,</text><text x="95.03992462158203" y="NaN" font-family="Virgil, Segoe UI Emoji" font-size="18px" fill="#c9d1d9" text-anchor="middle" style="white-space: pre;" direction="ltr">Secure)</text></g><g stroke-linecap="round"><g transform="translate(390 620) rotate(0 140 0)"><path d="M-1.02 0.27 C45.51 0.5, 232.92 1.29, 279.61 1.07 M0.65 -0.64 C46.95 -0.69, 231.63 -0.54, 278.46 -0.49" stroke="#c9d1d9" stroke-width="2" fill="none"></path></g><g transform="translate(390 620) rotate(0 140 0)"><path d="M250.71 9.1 C261.52 5.13, 267.42 4.62, 276.71 -1.11 M250.32 9.43 C260.91 5.85, 270.49 1.87, 278.04 -0.04" stroke="#c9d1d9" stroke-width="2" fill="none"></path></g><g transform="translate(390 620) rotate(0 140 0)"><path d="M250.73 -11.42 C261.48 -8.51, 267.37 -2.15, 276.71 -1.11 M250.34 -11.09 C260.96 -7.43, 270.53 -4.18, 278.04 -0.04" stroke="#c9d1d9" stroke-width="2" fill="none"></path></g></g><g transform="translate(441.89907073974604 608.75) rotate(0 88.10092926025393 22.5)"><text x="88.1009292602539" y="NaN" font-family="Virgil, Segoe UI Emoji" font-size="18px" fill="#c9d1d9" text-anchor="middle" style="white-space: pre;" direction="ltr">GET /resource</text><text x="88.1009292602539" y="NaN" font-family="Virgil, Segoe UI Emoji" font-size="18px" fill="#c9d1d9" text-anchor="middle" style="white-space: pre;" direction="ltr">(Cookie: sid=abc123)</text></g><g stroke-linecap="round"><g transform="translate(670 700) rotate(0 140 0)"><path d="M0.03 -0.63 C46.45 -0.65, 232.52 -0.04, 279.36 0.01 M-1.41 1.66 C45.32 1.83, 234.7 1.7, 281.73 1.55" stroke="#c9d1d9" stroke-width="2" fill="none"></path></g><g transform="translate(670 700) rotate(0 140 0)"><path d="M252.51 10.79 C264.04 9.72, 273.95 4.59, 282.21 -0.2 M253.8 11.72 C260.21 9.08, 267.93 7.2, 281.11 1.54" stroke="#c9d1d9" stroke-width="2" fill="none"></path></g><g transform="translate(670 700) rotate(0 140 0)"><path d="M252.48 -9.73 C264.05 -3.17, 273.97 -0.67, 282.21 -0.2 M253.77 -8.8 C260.22 -6.54, 267.95 -3.52, 281.11 1.54" stroke="#c9d1d9" stroke-width="2" fill="none"></path></g></g><g transform="translate(745.4610443115234 688.75) rotate(0 64.53895568847656 22.5)"><text x="64.53895568847656" y="NaN" font-family="Virgil, Segoe UI Emoji" font-size="18px" fill="#c9d1d9" text-anchor="middle" style="white-space: pre;" direction="ltr">Lookup session</text><text x="64.53895568847656" y="NaN" font-family="Virgil, Segoe UI Emoji" font-size="18px" fill="#c9d1d9" text-anchor="middle" style="white-space: pre;" direction="ltr">abc123</text></g><g stroke-linecap="round"><g transform="translate(950 780) rotate(0 -140 0)"><path d="M-0.64 0.97 C-47.58 1.26, -234.36 0.69, -281.03 0.6" stroke="#c9d1d9" stroke-width="2.5" fill="none" stroke-dasharray="8 10"></path></g><g transform="translate(950 780) rotate(0 -140 0)"><path d="M-251.2 -11.3 C-261.8 -7.23, -271.94 -1.06, -279.5 2.16" stroke="#c9d1d9" stroke-width="2.5" fill="none"></path></g><g transform="translate(950 780) rotate(0 -140 0)"><path d="M-251.25 9.22 C-261.63 6.1, -271.76 5.07, -279.5 2.16" stroke="#c9d1d9" stroke-width="2.5" fill="none"></path></g></g><g transform="translate(744.0030517578125 768.75) rotate(0 65.9969482421875 22.5)"><text x="65.9969482421875" y="NaN" font-family="Virgil, Segoe UI Emoji" font-size="18px" fill="#c9d1d9" text-anchor="middle" style="white-space: pre;" direction="ltr">user identity +</text><text x="65.9969482421875" y="NaN" font-family="Virgil, Segoe UI Emoji" font-size="18px" fill="#c9d1d9" text-anchor="middle" style="white-space: pre;" direction="ltr">metadata</text></g><g stroke-linecap="round"><g transform="translate(670 860) rotate(0 -140 0)"><path d="M-0.02 -0.79 C-46.8 -0.93, -234.18 -0.65, -280.7 -0.34" stroke="#c9d1d9" stroke-width="2.5" fill="none" stroke-dasharray="8 10"></path></g><g transform="translate(670 860) rotate(0 -140 0)"><path d="M-253.87 -11.86 C-261.34 -6.21, -267.24 -6.35, -282.32 0.17" stroke="#c9d1d9" stroke-width="2.5" fill="none"></path></g><g transform="translate(670 860) rotate(0 -140 0)"><path d="M-253.79 8.66 C-261.37 8.28, -267.29 2.11, -282.32 0.17" stroke="#c9d1d9" stroke-width="2.5" fill="none"></path></g></g><g transform="translate(431.5850601196289 848.75) rotate(0 98.4149398803711 11.25)"><text x="98.4149398803711" y="NaN" font-family="Virgil, Segoe UI Emoji" font-size="18px" fill="#c9d1d9" text-anchor="middle" style="white-space: pre;" direction="ltr">200 OK with resource</text></g><g stroke-linecap="round"><g transform="translate(110 940) rotate(0 140 0)"><path d="M-1.08 -0.12 C45.32 0.09, 232.64 0.72, 279.48 0.84 M0.55 -1.22 C46.65 -1.31, 231.82 -0.81, 278.26 -0.84" stroke="#c9d1d9" stroke-width="2" fill="none"></path></g><g transform="translate(110 940) rotate(0 140 0)"><path d="M249.86 8.52 C262.48 5.61, 273.1 2.08, 279.54 -0.24 M249.33 9.29 C255.32 7.81, 261.33 4.99, 278.22 -0.6" stroke="#c9d1d9" stroke-width="2" fill="none"></path></g><g transform="translate(110 940) rotate(0 140 0)"><path d="M249.88 -12 C262.42 -6.91, 273.04 -2.45, 279.54 -0.24 M249.35 -11.23 C255.44 -8.26, 261.45 -6.63, 278.22 -0.6" stroke="#c9d1d9" stroke-width="2" fill="none"></path></g></g><g transform="translate(191.509033203125 928.75) rotate(0 58.490966796875 11.25)"><text x="58.490966796875" y="NaN" font-family="Virgil, Segoe UI Emoji" font-size="18px" fill="#c9d1d9" text-anchor="middle" style="white-space: pre;" direction="ltr">Clicks Logout</text></g><g stroke-linecap="round"><g transform="translate(390 1020) rotate(0 140 0)"><path d="M-0.79 0.46 C45.64 0.42, 232.03 -0.64, 279 -0.61 M1 -0.34 C47.76 -0.2, 234.55 0.78, 281.18 0.6" stroke="#c9d1d9" stroke-width="2" fill="none"></path></g><g transform="translate(390 1020) rotate(0 140 0)"><path d="M253.75 9.15 C261.42 9.29, 272.91 4.78, 279.2 2.14 M253.1 10.75 C260.57 7.71, 267.68 5.43, 280.69 -0.01" stroke="#c9d1d9" stroke-width="2" fill="none"></path></g><g transform="translate(390 1020) rotate(0 140 0)"><path d="M253.77 -11.37 C261.38 -4.37, 272.85 -2.01, 279.2 2.14 M253.12 -9.77 C260.64 -7.51, 267.75 -4.5, 280.69 -0.01" stroke="#c9d1d9" stroke-width="2" fill="none"></path></g></g><g transform="translate(431.3060455322265 1008.75) rotate(0 98.69395446777347 22.5)"><text x="98.69395446777344" y="NaN" font-family="Virgil, Segoe UI Emoji" font-size="18px" fill="#c9d1d9" text-anchor="middle" style="white-space: pre;" direction="ltr">POST /logout (Cookie:</text><text x="98.69395446777344" y="NaN" font-family="Virgil, Segoe UI Emoji" font-size="18px" fill="#c9d1d9" text-anchor="middle" style="white-space: pre;" direction="ltr">sid=abc123)</text></g><g stroke-linecap="round"><g transform="translate(670 1100) rotate(0 140 0)"><path d="M0.6 0.57 C47.16 0.57, 232.37 -1.17, 278.95 -1.12 M-0.55 -0.18 C46.42 0.02, 234.46 -0.04, 281.11 -0.18" stroke="#c9d1d9" stroke-width="2" fill="none"></path></g><g transform="translate(670 1100) rotate(0 140 0)"><path d="M253.88 8.37 C258.57 7.37, 269.32 4.78, 281.81 1.06 M253.39 10.94 C261.85 6.5, 270.8 2.58, 280.86 -0.39" stroke="#c9d1d9" stroke-width="2" fill="none"></path></g><g transform="translate(670 1100) rotate(0 140 0)"><path d="M253.85 -12.15 C258.36 -7.75, 269.11 -4.94, 281.81 1.06 M253.36 -9.58 C261.94 -7.58, 270.9 -5.06, 280.86 -0.39" stroke="#c9d1d9" stroke-width="2" fill="none"></path></g></g><g transform="translate(745.5150527954102 1088.75) rotate(0 64.48494720458984 22.5)"><text x="64.48494720458984" y="NaN" font-family="Virgil, Segoe UI Emoji" font-size="18px" fill="#c9d1d9" text-anchor="middle" style="white-space: pre;" direction="ltr">Delete session</text><text x="64.48494720458984" y="NaN" font-family="Virgil, Segoe UI Emoji" font-size="18px" fill="#c9d1d9" text-anchor="middle" style="white-space: pre;" direction="ltr">abc123</text></g><g stroke-linecap="round"><g transform="translate(670 1180) rotate(0 -140 0)"><path d="M0.41 0.49 C-46.36 0.6, -233.4 0.09, -280.29 -0.11" stroke="#c9d1d9" stroke-width="2.5" fill="none" stroke-dasharray="8 10"></path></g><g transform="translate(670 1180) rotate(0 -140 0)"><path d="M-251.25 -10.77 C-261.48 -8.49, -271.68 -3.45, -280.1 0.17" stroke="#c9d1d9" stroke-width="2.5" fill="none"></path></g><g transform="translate(670 1180) rotate(0 -140 0)"><path d="M-251.32 9.75 C-261.39 5.38, -271.57 3.75, -280.1 0.17" stroke="#c9d1d9" stroke-width="2.5" fill="none"></path></g></g><g transform="translate(439.44205474853516 1168.75) rotate(0 90.55794525146484 22.5)"><text x="90.55794525146484" y="NaN" font-family="Virgil, Segoe UI Emoji" font-size="18px" fill="#c9d1d9" text-anchor="middle" style="white-space: pre;" direction="ltr">200 OK, Set-Cookie:</text><text x="90.55794525146484" y="NaN" font-family="Virgil, Segoe UI Emoji" font-size="18px" fill="#c9d1d9" text-anchor="middle" style="white-space: pre;" direction="ltr">sid=deleted</text></g></svg>