<svg version="1.1" xmlns="http://www.w3.org/2000/svg" viewBox="0 0 1420 890" width="1420" height="890">
  <!-- svg-source:excalidraw -->
  
  <defs>
    <style>
      @font-face {
        font-family: "Virgil";
        src: url("https://excalidraw.com/Virgil.woff2");
      }
      @font-face {
        font-family: "Cascadia";
        src: url("https://excalidraw.com/Cascadia.woff2");
      }
    </style>
  </defs>
  <rect x="0" y="0" width="1420" height="890" fill="#0d1117"></rect><g transform="translate(10 10) rotate(0 271.7848815917969 18.75)"><text x="0" y="NaN" font-family="Virgil, Segoe UI Emoji" font-size="30px" fill="#ff8c42" text-anchor="start" style="white-space: pre;" direction="ltr">Wide Column Store — Column Families</text></g><g transform="translate(10 52) rotate(0 406.5117492675781 11.25)"><text x="0" y="NaN" font-family="Virgil, Segoe UI Emoji" font-size="18px" fill="#c9d1d9" text-anchor="start" style="white-space: pre;" direction="ltr">A column family is the unit of physical co-location. Each family is its own LSM-tree on disk.</text></g><g transform="translate(10 100) rotate(0 60.31995391845703 10)"><text x="0" y="NaN" font-family="Virgil, Segoe UI Emoji" font-size="16px" fill="#8b949e" text-anchor="start" style="white-space: pre;" direction="ltr">LOGICAL VIEW</text></g><g transform="translate(150 100) rotate(0 274.25579833984375 10)"><text x="0" y="NaN" font-family="Virgil, Segoe UI Emoji" font-size="16px" fill="#8b949e" text-anchor="start" style="white-space: pre;" direction="ltr">— rows are sliced across families; columns within a family are sparse</text></g><g stroke-opacity="0.25" fill-opacity="0.25" stroke-linecap="round" transform="translate(190 130) rotate(0 300 140)"><path d="M0.33 -0.03 L601.22 0.21 L600.91 281.24 L-1.34 279.53" stroke="none" stroke-width="0" fill="#3a1d6e"></path><path d="M-0.08 -0.63 C220.24 1.72, 439.41 2.17, 599.96 -0.79 M0.14 -0.28 C130.73 2.26, 261.38 2.36, 600.17 -0.2 M600.2 -0.1 C600.24 58.91, 600.9 117.79, 599.62 278.89 M600.15 -0.22 C602.05 80.54, 601.04 161.35, 600.12 280.07 M600.3 279.84 C383.46 282.09, 168.68 282.5, -0.78 279.78 M599.95 280.01 C436.46 281.54, 272.21 281.46, 0.3 279.89 M1.51 279.97 C1.64 202.44, 0.57 124.5, 0.54 0.07 M0.64 279.64 C0.87 216.2, 1.49 151.23, 0.36 -0.02" stroke="#a371f7" stroke-width="2" fill="none"></path></g><g stroke-opacity="0.25" fill-opacity="0.25" stroke-linecap="round" transform="translate(810 130) rotate(0 300 140)"><path d="M-0.94 -0.77 L601.64 1.22 L600.36 278.15 L-0.03 278.71" stroke="none" stroke-width="0" fill="#5c3a10"></path><path d="M0.03 -0.39 C158.64 -2.75, 319.35 -2.3, 600.63 -0.31 M0.24 0.02 C185.07 0.54, 370.48 0.34, 600.07 0.25 M599.52 1.21 C599.74 107.47, 599.64 213.54, 600.79 280.04 M600.39 -0.64 C599.05 80.08, 599.3 160.45, 599.8 279.74 M600.59 279.23 C421.34 277.84, 244.67 277.66, 0.12 279.54 M600.25 279.77 C454.4 282.13, 309.11 281.78, -0.21 280.38 M1.42 280.94 C-2.41 194.31, -2.06 109.46, 0.45 0.7 M0.38 280.69 C-0.92 220.92, -0.45 163.35, -0.57 0.4" stroke="#f0883e" stroke-width="2" fill="none"></path></g><g stroke-linecap="round" transform="translate(200 138) rotate(0 290 22.5)"><path d="M1.09 1.3 L581.64 -1.16 L581.8 44.17 L-0.39 44.59" stroke="none" stroke-width="0" fill="#3a1d6e"></path><path d="M-0.57 0.09 C142.69 -1.82, 286.43 -1.78, 579.73 -0.4 M-0.14 -0.1 C229.22 -0.35, 458.3 0.06, 580.24 -0.18 M579.97 1.75 C582.21 17.05, 578.83 32.36, 579.93 45.7 M580.89 -0.59 C580 16.61, 580.58 32.28, 579.35 45.13 M580.7 45.27 C377.07 46.42, 173.63 46.53, 0.4 44.56 M579.79 45.33 C405.93 46.87, 232.4 46.81, 0.03 44.65 M1.05 44.63 C1.05 31.17, 1.69 19.54, -1.64 1.64 M-0.39 45.21 C-0.03 29.28, -0.65 10.85, 0.91 -0.89" stroke="#a371f7" stroke-width="2" fill="none"></path></g><g transform="translate(388.1200942993164 148) rotate(0 101.8799057006836 12.5)"><text x="101.8799057006836" y="NaN" font-family="Virgil, Segoe UI Emoji" font-size="20px" fill="#ffffff" text-anchor="middle" style="white-space: pre;" direction="ltr">Column Family: profile</text></g><g stroke-linecap="round" transform="translate(820 138) rotate(0 290 22.5)"><path d="M0.75 -1.02 L581.08 1.34 L581.17 44.02 L1.64 44.6" stroke="none" stroke-width="0" fill="#5c3a10"></path><path d="M-0.71 0.77 C197.94 1, 397.53 -0.09, 579.56 -0.02 M-0.07 0.28 C125.53 2.12, 251.87 2.04, 580.27 0.09 M579.63 1.11 C579.38 10.41, 577.93 20.15, 581.67 46.87 M580.25 0.63 C579.38 13.51, 580.69 25.04, 580.25 45.74 M580.09 45.34 C387.15 45.51, 192.94 45.38, -0.17 44.24 M580.05 44.9 C359.34 45.61, 138.88 45.63, 0.05 45.16 M1.8 45.39 C1.12 29.86, -2.02 13.81, 0.96 -1.56 M0.59 44.43 C-0.28 33.71, 0.15 19.69, 0.97 0.8" stroke="#f0883e" stroke-width="2" fill="none"></path></g><g transform="translate(999.8200836181641 148) rotate(0 110.17991638183594 12.5)"><text x="110.17991638183594" y="NaN" font-family="Virgil, Segoe UI Emoji" font-size="20px" fill="#ffffff" text-anchor="middle" style="white-space: pre;" direction="ltr">Column Family: contact</text></g><g stroke-linecap="round" transform="translate(10 138) rotate(0 80 22.5)"><path d="M-1.24 -0.42 L158.64 -0.05 L159.65 43.1 L-0.53 43.61" stroke="none" stroke-width="0" fill="#21262d"></path><path d="M-0.05 -0.75 C61.68 -0.95, 122.84 0.04, 161.65 1.99 M-0.43 0.56 C60.38 -1.93, 120.3 -0.6, 160.94 0.87 M161.78 -1.24 C160.79 16.79, 162.4 31.86, 159.73 43.23 M160.92 0.16 C159.74 15.62, 160.01 32.51, 159.99 44.07 M160.09 43 C96.97 46.27, 36.43 43.89, -0.54 44.54 M160.45 44.57 C125.36 45.42, 92.11 45.14, 0.86 44.84 M-1.56 46.51 C1.57 34.92, 0.43 24.65, -0.35 1.37 M-0.19 44.44 C0.87 33.72, 0.19 24.09, -0.48 -0.36" stroke="#8b949e" stroke-width="2" fill="none"></path></g><g transform="translate(54.27001953125 149.25) rotate(0 35.72998046875 11.25)"><text x="35.72998046875" y="NaN" font-family="Virgil, Segoe UI Emoji" font-size="18px" fill="#ffffff" text-anchor="middle" style="white-space: pre;" direction="ltr">Row Key</text></g><g stroke-linecap="round" transform="translate(10 195) rotate(0 80 32.5)"><path d="M-0.63 -1.96 L161.15 1.51 L161 64.22 L-0.34 65.31" stroke="none" stroke-width="0" fill="#21262d"></path><path d="M0.54 -0.99 C34.4 -2.75, 65.19 -0.56, 159.16 -0.11 M-0.79 -0.34 C34.21 0.25, 70.43 0.12, 160.1 0.13 M161.39 -1.12 C158.52 13.63, 162.01 31.25, 160.87 66.31 M159.31 0.47 C159.87 24.3, 160.33 48.48, 159.32 64.79 M158.61 63.43 C105.18 64.77, 53.09 67.85, 1.41 64.77 M160.12 64.34 C98.87 65.76, 37.29 65.48, 0.32 65.37 M-0.41 64.05 C0.64 48.94, 1.44 32.1, -0.66 0.6 M-0.48 64.43 C0.85 49.66, 0.09 34.43, 0.76 -0.76" stroke="#8b949e" stroke-width="2" fill="none"></path></g><g transform="translate(56.232025146484375 216.25) rotate(0 33.767974853515625 11.25)"><text x="33.767974853515625" y="NaN" font-family="Virgil, Segoe UI Emoji" font-size="18px" fill="#ffffff" text-anchor="middle" style="white-space: pre;" direction="ltr">user123</text></g><g stroke-linecap="round" transform="translate(210 195) rotate(0 280 32.5)"><path d="M0.53 0.07 L561.47 -1.75 L560.83 63.68 L0.2 63.57" stroke="none" stroke-width="0" fill="#0d1117"></path><path d="M0.69 0.5 C194.36 -0.38, 389.21 -0.5, 559.46 0.58 M0.01 -0.09 C139.49 2.09, 278.37 1.87, 560.09 -0.04 M561.04 -1.91 C559.49 18.55, 561 39.32, 560.28 63.99 M560.76 -0.75 C558.81 16.82, 558.97 33.35, 560.19 65.75 M560.4 65.36 C383.34 66.55, 206.69 66.01, -0.01 64.4 M559.91 64.64 C445.64 66.69, 330.6 65.99, -0.32 65.05 M0.97 64.96 C0.12 39.7, 0.31 12.14, -1.79 0.46 M-0.61 65.31 C0.03 52.02, 0.17 37.99, 0.98 0.08" stroke="#a371f7" stroke-width="2" fill="none"></path></g><g transform="translate(448.05602264404297 207.5) rotate(0 41.94397735595703 20)"><text x="41.94397735595703" y="NaN" font-family="Virgil, Segoe UI Emoji" font-size="16px" fill="#e6edf3" text-anchor="middle" style="white-space: pre;" direction="ltr">name: Alice</text><text x="41.94397735595703" y="NaN" font-family="Virgil, Segoe UI Emoji" font-size="16px" fill="#e6edf3" text-anchor="middle" style="white-space: pre;" direction="ltr">age: 30</text></g><g stroke-linecap="round" transform="translate(830 195) rotate(0 280 32.5)"><path d="M-1.56 -1.23 L558.58 -1.45 L560.3 63.56 L-1.88 66.87" stroke="none" stroke-width="0" fill="#0d1117"></path><path d="M0.58 -0.79 C173.34 -0.07, 346.55 -0.99, 560.49 0.09 M-0.15 0.22 C149.76 -0.1, 299.61 -0.27, 560.36 -0.17 M558.8 -0.21 C561.99 20.7, 561.2 44.13, 560.74 66.63 M559.57 0.31 C560.2 18.19, 560.99 35.21, 559.81 64.16 M560.65 65.8 C432.85 65.32, 305.21 65.43, 0.51 65.01 M560.22 65.31 C379.26 66.21, 197.96 65.98, 0.25 64.97 M1.77 64.04 C1 41.09, -1.88 18.44, 0.07 1.84 M0.43 65.13 C0.09 49.66, 0.32 34.16, -0.94 0.52" stroke="#f0883e" stroke-width="2" fill="none"></path></g><g transform="translate(1075.592025756836 217.5) rotate(0 34.40797424316406 10)"><text x="34.40797424316406" y="NaN" font-family="Virgil, Segoe UI Emoji" font-size="16px" fill="#e6edf3" text-anchor="middle" style="white-space: pre;" direction="ltr">city: NYC</text></g><g stroke-linecap="round" transform="translate(10 270) rotate(0 80 32.5)"><path d="M0.38 -0.71 L159.31 -1.67 L159.17 65.13 L1.51 63.06" stroke="none" stroke-width="0" fill="#21262d"></path><path d="M-1.3 1.61 C46.1 -0.32, 89.69 -1.31, 161.33 1.13 M-0.95 0.4 C36.51 0.66, 71 -0.24, 159.98 0.07 M160.65 0.39 C160.45 19.08, 159.21 37.75, 159.36 66.57 M159.94 0.06 C159.73 13.95, 159.38 28.89, 160.63 64.4 M160.24 63.71 C116.79 66.21, 71.46 66.61, -0.22 66.16 M159.37 65.32 C96.96 65.16, 34.06 66.18, -0.7 64.88 M-1.31 64.33 C2.15 52.65, -0.28 36.78, -1.03 1.51 M-0.38 64.3 C-0.44 47.79, 0.06 30.96, -0.73 0.86" stroke="#8b949e" stroke-width="2" fill="none"></path></g><g transform="translate(54.12602996826172 291.25) rotate(0 35.87397003173828 11.25)"><text x="35.87397003173828" y="NaN" font-family="Virgil, Segoe UI Emoji" font-size="18px" fill="#ffffff" text-anchor="middle" style="white-space: pre;" direction="ltr">user456</text></g><g stroke-linecap="round" transform="translate(210 270) rotate(0 280 32.5)"><path d="M-1.38 0.7 L560.79 -0.55 L560.08 63.38 L-0.14 66.62" stroke="none" stroke-width="0" fill="#0d1117"></path><path d="M-0.37 -0.46 C138.16 -0.3, 275.52 -1.09, 559.52 -0.51 M-0.33 -0.35 C156.3 0.28, 311.84 0.32, 559.92 -0.14 M560.44 0.23 C559.87 18.6, 560.05 36.65, 558.84 64.13 M559.6 -0.72 C559.34 24.15, 559.24 46.12, 559.63 64.67 M560.23 65.1 C380.3 64.89, 201.24 63.62, 0.23 64.81 M560.19 65.01 C422.03 66.15, 284.49 66.05, -0.36 65.37 M-1.79 63.7 C-1.17 47.34, 1.19 28.44, -1.54 1.1 M-0.96 65.08 C0.64 44.15, -0.73 25.14, 0.75 -0.71" stroke="#a371f7" stroke-width="2" fill="none"></path></g><g transform="translate(451.2400207519531 292.5) rotate(0 38.759979248046875 10)"><text x="38.759979248046875" y="NaN" font-family="Virgil, Segoe UI Emoji" font-size="16px" fill="#e6edf3" text-anchor="middle" style="white-space: pre;" direction="ltr">name: Bob</text></g><g stroke-linecap="round" transform="translate(830 270) rotate(0 280 32.5)"><path d="M0.34 -0.03 L559.25 -1.51 L560.9 66.79 L1.23 63.22" stroke="none" stroke-width="0" fill="#0d1117"></path><path d="M-0.62 0.5 C182.77 -1.33, 365.04 -1.12, 559.78 0.78 M0.4 0.11 C132.18 -1.61, 264.26 -1.72, 559.74 0.12 M561.64 1.48 C560.86 21.69, 559.94 40.23, 558.7 65.54 M559.68 0.97 C560.18 21.25, 560.53 40.19, 560.9 64.05 M560.09 65.42 C419.6 65.89, 280.4 65.7, -0.36 64.62 M560.34 64.91 C438.19 65.08, 315.39 65.01, 0.32 65.28 M-1.18 64.62 C0.63 38.81, 1.03 15.25, -0.91 -0.89 M0.99 64.19 C-0.26 42.41, -0.47 21.57, -0.32 0.57" stroke="#f0883e" stroke-width="2" fill="none"></path></g><g transform="translate(1041.8560485839844 292.5) rotate(0 68.14395141601562 10)"><text x="68.14395141601562" y="NaN" font-family="Virgil, Segoe UI Emoji" font-size="16px" fill="#e6edf3" text-anchor="middle" style="white-space: pre;" direction="ltr">email: bob@ex.com</text></g><g stroke-linecap="round" transform="translate(10 345) rotate(0 80 32.5)"><path d="M1.71 1.37 L161.05 1.89 L161.01 63.18 L0.58 63.96" stroke="none" stroke-width="0" fill="#21262d"></path><path d="M0.69 -1.36 C54.42 -2.54, 106.77 -0.15, 158.55 -0.52 M-0.75 -0.96 C62.82 -0.38, 126.52 -0.17, 160.5 0.82 M160.01 1.16 C158.39 20.14, 160.7 45.6, 159.09 64.38 M159.49 -0.14 C158.38 24.3, 159.5 45.94, 160.29 64.44 M160.77 66.44 C125.09 64.39, 93.53 64.39, -1.57 63.88 M160.26 64.78 C123.09 62.67, 85.57 62.94, 0.49 65.54 M0.47 65.09 C0.56 45.1, -0.02 28.31, -1.35 1.81 M0.91 65.54 C0.3 45.07, 0.29 26.1, -0.79 -0.02" stroke="#8b949e" stroke-width="2" fill="none"></path></g><g transform="translate(54.000030517578125 366.25) rotate(0 35.999969482421875 11.25)"><text x="35.999969482421875" y="NaN" font-family="Virgil, Segoe UI Emoji" font-size="18px" fill="#ffffff" text-anchor="middle" style="white-space: pre;" direction="ltr">user789</text></g><g stroke-linecap="round" transform="translate(210 345) rotate(0 280 32.5)"><path d="M-1.85 1.7 L558.2 -1.7 L558.99 63.19 L-0.7 63.66" stroke="none" stroke-width="0" fill="#0d1117"></path><path d="M-0.44 -0.4 C203.34 0.12, 407.85 -0.2, 559.23 0.16 M-0.21 0.11 C186.2 -1.45, 371.77 -1.41, 559.78 0.21 M561.29 -0.54 C560.68 20.41, 559.86 38.67, 559.26 64.25 M559.61 -0.77 C560.42 12.8, 560.05 26.57, 559.66 65.11 M559.86 64.5 C350.41 66.79, 141.04 65.99, -0.4 64.71 M560.29 64.96 C389.57 64.22, 218.03 64.04, -0.17 65.29 M-1.74 66.9 C-1.54 48.61, 0.63 30.65, 1.3 1.19 M-0.04 65.37 C-0.23 44.57, 0.56 24.91, 0.9 0.73" stroke="#a371f7" stroke-width="2" fill="none"></path></g><g transform="translate(445.08802795410156 357.5) rotate(0 44.91197204589844 20)"><text x="44.91197204589844" y="NaN" font-family="Virgil, Segoe UI Emoji" font-size="16px" fill="#e6edf3" text-anchor="middle" style="white-space: pre;" direction="ltr">name: Carol</text><text x="44.91197204589844" y="NaN" font-family="Virgil, Segoe UI Emoji" font-size="16px" fill="#e6edf3" text-anchor="middle" style="white-space: pre;" direction="ltr">age: 27</text></g><g stroke-linecap="round" transform="translate(830 345) rotate(0 280 32.5)"><path d="M1.26 1.73 L559.14 1.82 L560.52 64.76 L0.47 65.06" stroke="none" stroke-width="0" fill="#0d1117"></path><path d="M-0.76 0.02 C169.94 -1.31, 340.31 -0.22, 559.61 0.17 M-0.17 -0.11 C159.2 1.08, 317.58 0.71, 559.9 -0.38 M560.01 -1.63 C559.7 21.96, 559.04 41.64, 561.44 66.22 M559.06 -0.16 C560.19 13.12, 560.87 27.21, 560.69 65.8 M560.57 65.25 C409.07 65.63, 257.08 65.3, -0.06 65.62 M559.7 64.87 C368.98 64.77, 178.97 65.14, 0.39 64.76 M-0.88 63.47 C-1.43 41.27, 0.41 16.78, 0.95 1.26 M-0.4 64.18 C-0.42 48.86, -0.17 33.5, 0.53 -0.02" stroke="#f0883e" stroke-width="2" fill="none"></path></g><g transform="translate(1047.0160522460938 357.5) rotate(0 62.98394775390625 20)"><text x="62.98394775390625" y="NaN" font-family="Virgil, Segoe UI Emoji" font-size="16px" fill="#e6edf3" text-anchor="middle" style="white-space: pre;" direction="ltr">phone: 555-0142</text><text x="62.98394775390625" y="NaN" font-family="Virgil, Segoe UI Emoji" font-size="16px" fill="#e6edf3" text-anchor="middle" style="white-space: pre;" direction="ltr">city: LA</text></g><g stroke-linecap="round"><g transform="translate(490 415) rotate(0 0 55)"><path d="M-0.36 0.86 C-0.57 19.07, -1.32 91.04, -1.07 109.1 M1.65 0.27 C1.78 18.62, 1.2 91.85, 1.08 110.16" stroke="#a371f7" stroke-width="3" fill="none"></path></g><g transform="translate(490 415) rotate(0 0 55)"><path d="M-7.54 80.11 C-7.34 92.75, -3.95 101.18, 0.63 110.46 M-9.42 82.48 C-5.73 93.4, -0.43 103.22, 1.29 109.21" stroke="#a371f7" stroke-width="3" fill="none"></path></g><g transform="translate(490 415) rotate(0 0 55)"><path d="M12.98 80.26 C6.68 92.79, 3.56 101.17, 0.63 110.46 M11.11 82.63 C7.04 93.63, 4.61 103.39, 1.29 109.21" stroke="#a371f7" stroke-width="3" fill="none"></path></g></g><g transform="translate(502 445) rotate(0 37.97245788574219 9.375)"><text x="0" y="NaN" font-family="Virgil, Segoe UI Emoji" font-size="15px" fill="#a371f7" text-anchor="start" style="white-space: pre;" direction="ltr">flushes to</text></g><g stroke-linecap="round"><g transform="translate(1110 415) rotate(0 0 55)"><path d="M-0.58 -0.58 C-0.43 17.93, 0.17 92.69, 0.45 111.08 M1.32 1.72 C1.39 19.93, -0.19 91.32, -0.26 109.53" stroke="#f0883e" stroke-width="3" fill="none"></path></g><g transform="translate(1110 415) rotate(0 0 55)"><path d="M-11.1 81.96 C-5.74 90.52, -5.3 96.22, 0.59 110.13 M-10.34 81.81 C-5.92 90.8, -3.07 100.34, 0.71 108.86" stroke="#f0883e" stroke-width="3" fill="none"></path></g><g transform="translate(1110 415) rotate(0 0 55)"><path d="M9.42 82.24 C9.4 90.63, 4.44 96.25, 0.59 110.13 M10.18 82.09 C7.65 90.8, 3.53 100.25, 0.71 108.86" stroke="#f0883e" stroke-width="3" fill="none"></path></g></g><g transform="translate(1122 445) rotate(0 37.97245788574219 9.375)"><text x="0" y="NaN" font-family="Virgil, Segoe UI Emoji" font-size="15px" fill="#f0883e" text-anchor="start" style="white-space: pre;" direction="ltr">flushes to</text></g><g transform="translate(10 500) rotate(0 81.7199478149414 10)"><text x="0" y="NaN" font-family="Virgil, Segoe UI Emoji" font-size="16px" fill="#8b949e" text-anchor="start" style="white-space: pre;" direction="ltr">PHYSICAL STORAGE</text></g><g transform="translate(189.3891352725209 480.82296574633006) rotate(0 289.79986572265625 10)"><text x="0" y="NaN" font-family="Virgil, Segoe UI Emoji" font-size="16px" fill="#8b949e" text-anchor="start" style="white-space: pre;" direction="ltr">— each column family = its own SSTable, independent compaction &amp; cache</text></g><g stroke-linecap="round" transform="translate(190 530) rotate(0 300 130)"><path d="M-0.85 0.07 L598.33 -1.5 L601.34 260.33 L1.47 259.44" stroke="none" stroke-width="0" fill="#0d1117"></path><path d="M0.62 -0.66 C182.23 -1.25, 363.84 -2.34, 599.56 0.73 M0.23 0.21 C223.84 0.14, 447.55 0.06, 599.76 0.16 M598.68 -1.37 C597.82 100.97, 597.74 202.1, 599.1 259.19 M600.71 -0.09 C601.11 75.82, 600.25 151.48, 599.98 259.63 M599.58 260.63 C430.95 262.28, 262.48 262.49, 0.35 259.7 M600.36 260.36 C409.45 260.39, 218.56 260.5, 0.19 260.17 M-1.13 259.06 C-1.55 157.74, -2.04 55.38, 0.91 0.15 M0.47 259.87 C-1.65 200.35, -0.39 139.72, 0.67 0.1" stroke="#a371f7" stroke-width="2" fill="none"></path></g><g stroke-linecap="round" transform="translate(200 538) rotate(0 290 19)"><path d="M1.53 1.34 L578.89 -0.35 L578.68 37.74 L-0.84 37.46" stroke="none" stroke-width="0" fill="#3a1d6e"></path><path d="M0.02 -0.12 C126.51 -0.57, 255 -0.7, 580.54 0.66 M0.2 0.3 C149.8 -0.64, 299.81 -0.69, 579.77 0.09 M579.07 1.63 C578.63 14.15, 579.47 22.59, 580.55 38.43 M580.18 -0.99 C579.86 9.19, 580.67 19.46, 580.85 38.55 M579.88 38.17 C457.39 35.81, 335.37 36.48, 0.71 37.5 M580.06 37.97 C359.17 36.03, 137.83 36.06, -0.2 37.72 M-1.7 38.99 C0.33 29.33, 1.47 20, -0.84 0.17 M0.3 38.64 C-0.38 29.68, -0.21 20.83, 0.26 0.95" stroke="#a371f7" stroke-width="2" fill="none"></path></g><g transform="translate(445.7470474243164 545.75) rotate(0 44.252952575683594 11.25)"><text x="44.252952575683594" y="NaN" font-family="Virgil, Segoe UI Emoji" font-size="18px" fill="#ffffff" text-anchor="middle" style="white-space: pre;" direction="ltr">profile.sst</text></g><g stroke-opacity="0.7" fill-opacity="0.7" stroke-linecap="round" transform="translate(210 590) rotate(0 280 20)"><path d="M-0.36 -0.26 C216.98 0.46, 434.04 0.34, 559.75 0.16 M0.23 -0.4 C191.41 -1.51, 383.02 -1.88, 559.76 -0.12 M559.05 0.57 C561.09 13.94, 561.29 27.05, 560.26 39.07 M559.6 0.32 C559.51 9.08, 559.7 20.41, 559.66 40.02 M560.71 39.41 C422.11 42.18, 283.43 41.26, 0.59 39.59 M559.93 39.82 C390.94 39.82, 221.5 39.91, 0.23 40 M-1.04 39.79 C-2.11 27.24, -1.11 14.25, -0.79 1.26 M1 40.03 C-0.06 29.99, 0.29 18.08, 0.22 -0.86" stroke="#a371f7" stroke-width="1" fill="none"></path></g><g transform="translate(357.3760528564453 600) rotate(0 132.6239471435547 10)"><text x="132.6239471435547" y="NaN" font-family="Virgil, Segoe UI Emoji" font-size="16px" fill="#e6edf3" text-anchor="middle" style="white-space: pre;" direction="ltr">user123  →  name: Alice, age: 30</text></g><g stroke-opacity="0.7" fill-opacity="0.7" stroke-linecap="round" transform="translate(210 640) rotate(0 280 20)"><path d="M-0.65 -0.28 C147.58 0.26, 296.48 0.76, 559.35 -0.12 M-0.05 0.19 C210.04 -0.47, 420.64 -0.8, 559.63 0.26 M561.38 1.89 C560.79 11.38, 559.02 25.53, 560.53 38.81 M560.98 0.64 C560.32 7.69, 561.14 17.35, 560.74 40.11 M559.29 39.52 C352.8 40.88, 145.99 41.55, 0.22 39.38 M560.12 39.94 C346.54 40.8, 133.73 40.49, 0.08 39.84 M1.53 39.02 C0.22 26.69, 1.65 14, -1.48 1.17 M0.38 39.92 C0.8 24.57, -0.75 8.41, -0.98 -0.42" stroke="#a371f7" stroke-width="1" fill="none"></path></g><g transform="translate(395.35205078125 650) rotate(0 94.64794921875 10)"><text x="94.64794921875" y="NaN" font-family="Virgil, Segoe UI Emoji" font-size="16px" fill="#e6edf3" text-anchor="middle" style="white-space: pre;" direction="ltr">user456  →  name: Bob</text></g><g stroke-opacity="0.7" fill-opacity="0.7" stroke-linecap="round" transform="translate(210 690) rotate(0 280 20)"><path d="M0.7 0.34 C198.83 -1.39, 396.35 -2.35, 559.3 0.61 M-0.23 0.37 C192.44 0.58, 384.87 0.53, 559.71 0.07 M558.87 0.83 C558.04 14.24, 559.62 27.58, 560.36 40.75 M559.94 0.73 C560.58 11.35, 560.62 20.56, 559.89 39.82 M559.56 39.87 C406.82 40.98, 253.12 40.16, -0.59 39.37 M559.73 40.19 C353.29 40.16, 146.94 40.05, -0.07 40.38 M1.77 40.51 C-0.25 28.41, 1.55 17.53, 1.28 0.34 M-0.09 39.32 C0.63 29.96, 1.05 18.77, 0.55 -0.76" stroke="#a371f7" stroke-width="1" fill="none"></path></g><g transform="translate(353.3760681152344 700) rotate(0 136.62393188476562 10)"><text x="136.62393188476562" y="NaN" font-family="Virgil, Segoe UI Emoji" font-size="16px" fill="#e6edf3" text-anchor="middle" style="white-space: pre;" direction="ltr">user789  →  name: Carol, age: 27</text></g><g stroke-linecap="round" transform="translate(810 530) rotate(0 300 130)"><path d="M1.47 1.26 L599.3 -1.56 L599.7 261.4 L-1.81 260.58" stroke="none" stroke-width="0" fill="#0d1117"></path><path d="M0.56 -0.04 C165.52 -1.08, 330.07 -1.21, 599.62 0.38 M0.25 -0.04 C179.23 -1.95, 358.59 -1.94, 599.61 0.32 M600.36 -1.56 C599.48 51.75, 599.51 105, 601.59 259.03 M600.74 -0.16 C600.16 70.22, 599.53 139.56, 600.3 260.25 M599.22 260.19 C461.16 261.2, 322.2 261.93, 0.22 260.24 M599.9 260.24 C464.26 261.72, 328.42 261.75, 0.03 260.36 M1.56 261.27 C-0.17 159.84, -1.9 60.29, 1.06 0.36 M0.15 259.66 C0.15 194.41, 0.48 129.8, -0.39 0.23" stroke="#f0883e" stroke-width="2" fill="none"></path></g><g stroke-linecap="round" transform="translate(820 538) rotate(0 290 19)"><path d="M-1.32 -1.4 L580.51 0.94 L581.79 39.27 L-1.09 36.47" stroke="none" stroke-width="0" fill="#5c3a10"></path><path d="M-0.28 -0.46 C190.72 -1.21, 381.22 -0.39, 580.01 0.73 M0.19 0.18 C168.57 -0.63, 337.43 -0.69, 579.82 0.1 M581.43 0.14 C578.96 7.58, 580.66 17.62, 578.47 37.38 M580.86 0.11 C579.18 11.98, 579.48 21.11, 580.69 37.44 M580.52 38.69 C395.44 37.65, 210.46 37.55, -0.76 38.01 M580.11 38.2 C354.98 37.75, 129.25 37.33, 0.13 37.99 M1.61 37.76 C-0.21 27.74, -0.78 18.77, 1.49 -1.99 M-0.92 37.17 C-0.35 28.35, 0.07 19.48, -0.57 -0.92" stroke="#f0883e" stroke-width="2" fill="none"></path></g><g transform="translate(1058.2770309448242 545.75) rotate(0 51.72296905517578 11.25)"><text x="51.72296905517578" y="NaN" font-family="Virgil, Segoe UI Emoji" font-size="18px" fill="#ffffff" text-anchor="middle" style="white-space: pre;" direction="ltr">contact.sst</text></g><g stroke-opacity="0.7" fill-opacity="0.7" stroke-linecap="round" transform="translate(830 590) rotate(0 280 20)"><path d="M-0.68 -0.12 C160.12 1.61, 320.87 1.96, 559.39 -0.74 M0.37 0.16 C190.92 1.27, 381.8 0.89, 559.68 -0.35 M561.11 -0.29 C560.11 10.71, 561.75 23.83, 558.91 39.34 M560.46 0.55 C560.66 8.3, 558.97 16.39, 559.58 40.82 M560.56 40.78 C408.17 40.53, 256.73 40.5, -0.18 40.17 M559.98 40.14 C404.43 39.53, 248.63 40.08, 0.06 40.25 M1.7 40.55 C0.48 24.63, 0.42 13.87, 0.28 -1.39 M-0.58 39.91 C-0.59 26.47, -0.67 11.33, -0.17 -0.56" stroke="#f0883e" stroke-width="1" fill="none"></path></g><g transform="translate(1021.576042175293 600) rotate(0 88.42395782470703 10)"><text x="88.42395782470703" y="NaN" font-family="Virgil, Segoe UI Emoji" font-size="16px" fill="#e6edf3" text-anchor="middle" style="white-space: pre;" direction="ltr">user123  →  city: NYC</text></g><g stroke-opacity="0.7" fill-opacity="0.7" stroke-linecap="round" transform="translate(830 640) rotate(0 280 20)"><path d="M-0.04 0.23 C147.29 -1.68, 294.35 -0.81, 560.28 -0.35 M-0.25 -0.37 C115.83 1.72, 231.11 1.61, 559.68 -0.19 M558.63 0.24 C558.14 17.38, 558.43 31.68, 558.51 40.54 M559.56 -0.95 C559.43 10.09, 560.07 19.69, 559.39 39.77 M560.14 39.47 C381.78 39.17, 202.95 38.61, 0.02 40.45 M559.79 40.18 C397.8 38.64, 235.32 38.61, -0.38 40.22 M-0.82 38.25 C1.53 26.13, 1.43 17.26, 1.76 0.08 M-0.97 39.29 C0.04 27.86, -0.26 16.03, 0.33 -0.77" stroke="#f0883e" stroke-width="1" fill="none"></path></g><g transform="translate(985.9680786132812 650) rotate(0 124.03192138671875 10)"><text x="124.03192138671875" y="NaN" font-family="Virgil, Segoe UI Emoji" font-size="16px" fill="#e6edf3" text-anchor="middle" style="white-space: pre;" direction="ltr">user456  →  email: bob@ex.com</text></g><g stroke-opacity="0.7" fill-opacity="0.7" stroke-linecap="round" transform="translate(830 690) rotate(0 280 20)"><path d="M-0.4 0.15 C205.8 -1.08, 413.09 -0.69, 559.5 -0.25 M0.13 -0.25 C204.26 -0.74, 408.52 -0.22, 560.28 0.17 M561.12 -0.1 C561.91 14.68, 561.36 28.25, 561.47 39.4 M559.43 0.95 C559.1 15.21, 559.52 30.3, 559.17 39.27 M559.78 39.21 C420.55 42.16, 281.63 41.38, 0.62 39.44 M560.37 39.77 C341.96 41.44, 123.26 40.73, 0.12 40.17 M0.14 41.69 C1.59 32.57, -0.47 23.28, 1.99 -0.91 M-0.34 39.03 C-0.64 23.66, -0.54 7.68, 0.58 0.17" stroke="#f0883e" stroke-width="1" fill="none"></path></g><g transform="translate(954.9441070556641 700) rotate(0 155.05589294433594 10)"><text x="155.05589294433594" y="NaN" font-family="Virgil, Segoe UI Emoji" font-size="16px" fill="#e6edf3" text-anchor="middle" style="white-space: pre;" direction="ltr">user789  →  phone: 555-0142, city: LA</text></g><g stroke-linecap="round"><g transform="translate(800 510) rotate(0 0 150)"><path d="M0.68 -0.36 C0.61 49.43, 0.37 249.46, 0.25 299.4" stroke="#f85149" stroke-width="2.5" fill="none" stroke-dasharray="8 10"></path></g></g><g transform="translate(740 488) rotate(0 49.11894226074219 8.75)"><text x="0" y="NaN" font-family="Virgil, Segoe UI Emoji" font-size="14px" fill="#f85149" text-anchor="start" style="white-space: pre;" direction="ltr">separate files</text></g><g stroke-linecap="round" transform="translate(10 820) rotate(0 700 30)"><path d="M-0.45 0.52 L1401.74 -0.29 L1401.32 61.12 L-1.54 60.75" stroke="none" stroke-width="0" fill="#3a5d1d"></path><path d="M0.57 -0.05 C458.95 4.7, 918.43 6.02, 1400.49 -0.24 M-0.24 -0.2 C496.03 3.09, 992.15 2.93, 1400.04 0.27 M1399.55 0.93 C1397.91 20.08, 1397.82 43.43, 1398.46 59.19 M1399.25 -0.65 C1399.97 20.12, 1400.39 40.77, 1399.91 59.12 M1400.79 59.91 C855.86 59.82, 310.39 59.49, 0.41 59.23 M1399.8 60.15 C1020.33 55.13, 640.49 54.57, -0.32 59.85 M0.89 61.91 C-1.56 44.87, -0.01 32.02, 1.4 1.14 M-0.5 60.06 C0.06 42.65, 0.22 24.71, -0.07 0.81" stroke="#6dbf3a" stroke-width="2" fill="none"></path></g><g transform="translate(178.5142822265625 838.75) rotate(0 531.4857177734375 11.25)"><text x="531.4857177734375" y="NaN" font-family="Virgil, Segoe UI Emoji" font-size="18px" fill="#ffffff" text-anchor="middle" style="white-space: pre;" direction="ltr">Read user123.profile  =  1 SSTable touched, not 2.   Each column family has its own LSM-tree, compaction, and cache.</text></g></svg>