<svg version="1.1" xmlns="http://www.w3.org/2000/svg" viewBox="0 0 1245.070270530949 306.1768495731792" width="1245.070270530949" height="306.1768495731792">
  <!-- svg-source:excalidraw -->
  
  <defs>
    <style>
      @font-face {
        font-family: "Virgil";
        src: url("https://excalidraw.com/Virgil.woff2");
      }
      @font-face {
        font-family: "Cascadia";
        src: url("https://excalidraw.com/Cascadia.woff2");
      }
    </style>
  </defs>
  <rect x="0" y="0" width="1245.070270530949" height="306.1768495731792" fill="#1e1e2e"></rect><a href="Transaction"><g stroke-linecap="round" transform="translate(10 11.29900580590646) rotate(0 100 32)"><path d="M-1.56 0.34 L200.47 0.16 L201.71 63.01 L1 64.63" stroke="none" stroke-width="0" fill="#2d6a4f"></path><path d="M-0.16 -1.18 C60.11 0.31, 123.08 -0.16, 201.26 -0.53 M-0.61 -0.59 C53.26 -1.43, 107.21 -0.96, 200.62 -0.6 M198.18 -0.26 C200.13 23.69, 200.83 48.65, 200.9 65.79 M200.99 -0.12 C200.66 17.05, 199.88 34.25, 200.52 64.15 M201.22 64.04 C150.42 66.41, 102.67 65.99, -1.66 62.82 M200.85 64.19 C123.51 61.98, 48.89 62.06, -0.59 64.4 M-1.73 65.5 C0.59 43.05, -0.31 19.57, -0.44 -0.94 M-0.87 64.11 C-0.48 42.33, 0.87 22.78, -0.08 0.37" stroke="#40916c" stroke-width="2" fill="none"></path></g></a><g transform="translate(51.150047302246094 30.79900580590646) rotate(0 58.849952697753906 12.5)"><text x="58.849952697753906" y="NaN" font-family="Virgil, Segoe UI Emoji" font-size="20px" fill="#ffffff" text-anchor="middle" style="white-space: pre;" direction="ltr">Transaction</text></g><a href="WAL (Write-Ahead Log)"><g stroke-linecap="round" transform="translate(497.5077079757008 12.176849573179169) rotate(0 140 32)"><path d="M-0.76 -0.81 L278.56 -0.22 L278.22 63.48 L-1.15 63.69" stroke="none" stroke-width="0" fill="#5b21b6"></path><path d="M1.18 0.47 C87.5 1.97, 171.44 3.26, 279.85 0.15 M0.02 -0.1 C87.35 0.37, 174.08 -0.1, 279.64 0.64 M281.26 0.24 C279.02 11.59, 281.1 24.25, 279.68 64.05 M279.59 0.28 C281.54 13.28, 280.81 26.21, 279.34 64.85 M279.59 63.71 C204.33 66.07, 127.52 64.88, 1.4 65.44 M279.28 63.94 C188.23 62.74, 94.94 62.39, -0.6 64.4 M0.82 64.94 C-1.82 41.68, -2.18 23.31, 0.75 0.65 M-0.44 64.1 C-0.82 47.66, -0.46 32.26, 0.8 0.34" stroke="#7c3aed" stroke-width="2" fill="none"></path></g></a><g transform="translate(524.9177879317555 31.67684957317917) rotate(0 112.58992004394531 12.5)"><text x="112.58992004394531" y="NaN" font-family="Virgil, Segoe UI Emoji" font-size="20px" fill="#ffffff" text-anchor="middle" style="white-space: pre;" direction="ltr">WAL (Write-Ahead Log)</text></g><a href="Data Pages"><g stroke-linecap="round" transform="translate(1035.070270530949 10) rotate(0 100.00000000000006 32)"><path d="M0.04 -1.97 L200.65 -0.6 L198.72 63.95 L0.71 62.76" stroke="none" stroke-width="0" fill="#1e40af"></path><path d="M-0.67 -1.31 C62.56 -0.56, 124.67 -0.65, 198.4 0.88 M0.65 0.36 C70.12 -1.61, 141.69 -1.39, 200.33 0.31 M200.33 0.74 C200.62 16.29, 200.09 29.45, 198.46 62.31 M200.18 0.69 C199.15 22.32, 200.46 43.77, 200.15 63.56 M201.41 63.27 C138 65.63, 78.73 63.26, 1.35 64.97 M199.26 63.67 C144.27 63.75, 86.7 62.85, -0.81 64.55 M-0.62 64.37 C1.06 44.31, 1.22 27.04, 1.93 -1.76 M0 64.1 C0.12 40.19, -0.5 16.13, -0.32 0.32" stroke="#3b82f6" stroke-width="2" fill="none"></path></g></a><g transform="translate(1074.0903129503827 29.5) rotate(0 60.97995758056646 12.5)"><text x="60.979957580566406" y="NaN" font-family="Virgil, Segoe UI Emoji" font-size="20px" fill="#ffffff" text-anchor="middle" style="white-space: pre;" direction="ltr">Data Pages</text></g><a href="CRASH"><g stroke-linecap="round" transform="translate(497.5077079757008 232.17684957317917) rotate(0 100 32)"><path d="M0.84 0.87 L198.74 -0.97 L199.23 64.42 L-1.44 65.82" stroke="none" stroke-width="0" fill="#9f1239"></path><path d="M0.87 0.42 C61.99 0.8, 123.67 -0.9, 200.57 1.59 M-0.51 0.84 C79.45 0.1, 158.92 1.1, 199.29 -0.13 M199.4 1.24 C199.51 16.99, 200.36 34.65, 201.24 64.57 M200.78 -0.91 C200.04 18.55, 199.4 35.74, 200.96 64.26 M199.71 62.89 C133.58 65.25, 66.76 65.49, 1.05 64.24 M199.36 63.41 C153.74 64.64, 105.6 63.25, 0.88 64.63 M1.94 63.81 C-0.07 46.95, 0.63 30.78, -0.89 -0.17 M0.43 64.09 C-0.22 43.52, 0.17 25.61, 0.56 0.3" stroke="#e11d48" stroke-width="2" fill="none"></path></g></a><g transform="translate(566.1377281173023 251.67684957317917) rotate(0 31.369979858398438 12.5)"><text x="31.369979858398438" y="NaN" font-family="Virgil, Segoe UI Emoji" font-size="20px" fill="#ffffff" text-anchor="middle" style="white-space: pre;" direction="ltr">CRASH</text></g><g transform="translate(737.5077079757008 242.17684957317917) rotate(0 187.712890625 22.5)"><text x="0" y="NaN" font-family="Virgil, Segoe UI Emoji" font-size="18px" fill="#a6adc8" text-anchor="start" style="white-space: pre;" direction="ltr">If crash occurs between steps 1 and 2,</text><text x="0" y="NaN" font-family="Virgil, Segoe UI Emoji" font-size="18px" fill="#a6adc8" text-anchor="start" style="white-space: pre;" direction="ltr">recovery reads WAL to undo/redo changes</text></g><g stroke-linecap="round"><g transform="translate(216 43.48176810384177) rotate(0 137.7538539878504 0.22923746215077756)"><path d="M0.89 0.24 C46.83 0.22, 229.79 0.12, 275.7 0 M-0.1 -0.68 C45.69 -0.55, 228.83 1.12, 274.85 1.29" stroke="#40916c" stroke-width="2" fill="none"></path></g><g transform="translate(216 43.48176810384177) rotate(0 137.7538539878504 0.22923746215077756)"><path d="M246.99 11.69 C254.51 9.47, 262.42 4.91, 276.31 0.62 M247.43 11.36 C254.57 9.14, 263.43 5.14, 275.74 2.16" stroke="#40916c" stroke-width="2" fill="none"></path></g><g transform="translate(216 43.48176810384177) rotate(0 137.7538539878504 0.22923746215077756)"><path d="M247.13 -8.83 C254.63 -4.74, 262.49 -2.99, 276.31 0.62 M247.57 -9.16 C254.76 -5.61, 263.58 -3.84, 275.74 2.16" stroke="#40916c" stroke-width="2" fill="none"></path></g></g><g transform="translate(307.3897651656422 32.92684957317917) rotate(0 80.1179428100586 11.25)"><text x="80.1179428100586" y="NaN" font-family="Virgil, Segoe UI Emoji" font-size="18px" fill="#cdd6f4" text-anchor="middle" style="white-space: pre;" direction="ltr">1. Write log record</text></g><g stroke-linecap="round"><g transform="translate(783.5077079757008 43.544607884789826) rotate(0 122.78128127762415 -0.5371800398552438)"><path d="M-1.02 -1.13 C39.72 -1.54, 203.44 -2.06, 244.51 -1.92 M0.64 0.88 C41.73 0.56, 206.02 -0.31, 246.67 -0.82" stroke="#40916c" stroke-width="2" fill="none"></path></g><g transform="translate(783.5077079757008 43.544607884789826) rotate(0 122.78128127762415 -0.5371800398552438)"><path d="M216.68 7.92 C225.76 6.42, 237.14 3.94, 246.55 -0.71 M218.11 10.2 C228.62 6.26, 235.94 2.55, 246.4 -0.46" stroke="#40916c" stroke-width="2" fill="none"></path></g><g transform="translate(783.5077079757008 43.544607884789826) rotate(0 122.78128127762415 -0.5371800398552438)"><path d="M216.51 -12.6 C225.73 -7.79, 237.16 -3.95, 246.55 -0.71 M217.93 -10.33 C228.5 -7.61, 235.87 -4.67, 246.4 -0.46" stroke="#40916c" stroke-width="2" fill="none"></path></g></g><g transform="translate(782.1947578414234 32.92684957317917) rotate(0 65.31295013427734 11.25)"><text x="65.31295013427734" y="NaN" font-family="Virgil, Segoe UI Emoji" font-size="18px" fill="#cdd6f4" text-anchor="middle" style="white-space: pre;" direction="ltr">2. Modify page</text></g><g stroke-linecap="round"><g transform="translate(592.2268731389291 226.1768495731791) rotate(0 2.1986147526580453 -71.99999999999997)"><path d="M-0.53 -0.11 C0.2 -24.07, 3.88 -118.87, 4.5 -142.83" stroke="#d97706" stroke-width="2.5" fill="none" stroke-dasharray="8 10"></path></g><g transform="translate(592.2268731389291 226.1768495731791) rotate(0 2.1986147526580453 -71.99999999999997)"><path d="M13.65 -114.13 C12.69 -125.06, 8.07 -130.87, 2.79 -141.93" stroke="#d97706" stroke-width="2.5" fill="none"></path></g><g transform="translate(592.2268731389291 226.1768495731791) rotate(0 2.1986147526580453 -71.99999999999997)"><path d="M-6.86 -114.82 C-1.51 -125.44, 0.19 -131.04, 2.79 -141.93" stroke="#d97706" stroke-width="2.5" fill="none"></path></g></g><g transform="translate(520.0627616866383 142.92684957317917) rotate(0 77.4449462890625 22.5)"><text x="77.4449462890625" y="NaN" font-family="Virgil, Segoe UI Emoji" font-size="18px" fill="#cdd6f4" text-anchor="middle" style="white-space: pre;" direction="ltr">3. Recovery: undo</text><text x="77.4449462890625" y="NaN" font-family="Virgil, Segoe UI Emoji" font-size="18px" fill="#cdd6f4" text-anchor="middle" style="white-space: pre;" direction="ltr">from WAL</text></g></svg>