<svg version="1.1" xmlns="http://www.w3.org/2000/svg" viewBox="0 0 940 759.8694606360464" width="940" height="759.8694606360464">
  <!-- svg-source:excalidraw -->
  
  <defs>
    <style>
      @font-face {
        font-family: "Virgil";
        src: url("https://excalidraw.com/Virgil.woff2");
      }
      @font-face {
        font-family: "Cascadia";
        src: url("https://excalidraw.com/Cascadia.woff2");
      }
    </style>
  </defs>
  <rect x="0" y="0" width="940" height="759.8694606360464" fill="#1e1e2e"></rect><g stroke-opacity="0.6" fill-opacity="0.6" stroke-linecap="round" transform="translate(10 10) rotate(0 460 75.64575752586535)"><path d="M-0.24 -1.22 L920.5 1.85 L918.35 150.75 L-1.22 150.01" stroke="none" stroke-width="0" fill="#181825"></path><path d="M-0.75 0.34 C188.11 -3.03, 376.01 -3.12, 920.64 0.29 M921.37 1.73 C919.01 57.49, 920.18 113.48, 918.09 150.43 M919.3 151.62 C625.78 152.31, 331.64 153.14, -0.02 152 M-0.05 151.14 C1.9 109.37, 3.01 70.04, -1.43 1.19" stroke="#45475a" stroke-width="2.5" fill="none" stroke-dasharray="8 10"></path></g><g transform="translate(30 19.86946063604637) rotate(0 112.49991607666016 11.25)"><text x="0" y="NaN" font-family="Virgil, Segoe UI Emoji" font-size="18px" fill="#a6adc8" text-anchor="start" style="white-space: pre;" direction="ltr">Tier 0 (newest, smallest)</text></g><g stroke-linecap="round" transform="translate(69.90913711369464 64.86946063604637) rotate(0 90.00000000000001 33.05661295725113)"><path d="M1.69 1.84 L178.01 -0.86 L178.23 64.53 L0.81 67.92" stroke="none" stroke-width="0" fill="#1e40af"></path><path d="M-0.16 -0.48 C35.87 1.37, 73.91 -0.9, 180.47 -1.74 M-0.15 0.24 C66.62 2.58, 131.8 1.21, 180.82 -0.66 M178.07 -0.93 C180.33 18.9, 178.78 37.47, 178.45 66.06 M179.65 -0.27 C180.08 18.77, 179.84 37.57, 179.95 66.88 M181.33 64.54 C137.48 65.43, 99.06 64.47, 0.82 64.55 M180.14 65.94 C131.34 66.66, 83.07 66.48, -0.66 65.38 M-1.81 67.83 C-0.62 46.11, 1.62 29.23, -0.28 -0.14 M-0.86 65.32 C-0.76 53.15, 0.35 38.65, 0.15 0.91" stroke="#3b82f6" stroke-width="2" fill="none"></path></g><g transform="translate(139.70915542424152 85.4260735932975) rotate(0 20.199981689453125 12.5)"><text x="20.199981689453125" y="NaN" font-family="Virgil, Segoe UI Emoji" font-size="20px" fill="#ffffff" text-anchor="middle" style="white-space: pre;" direction="ltr">SST</text></g><g stroke-linecap="round" transform="translate(280 64.86946063604637) rotate(0 90 32)"><path d="M1.68 0.05 L180.46 1.25 L180.77 64.75 L-1.93 65.13" stroke="none" stroke-width="0" fill="#1e40af"></path><path d="M0.41 1.16 C36.68 0.96, 72.32 1.75, 180.53 -1.82 M-0.64 0.89 C67.45 2.14, 135.53 1.08, 179.02 0.87 M181.44 1.58 C178.91 17.01, 180.28 32.69, 180.36 63.26 M180.63 -0.26 C179.93 22.95, 179.93 47.41, 180.01 64.29 M179.86 64.29 C111.57 65.19, 41.8 62.8, -0.81 62.41 M180.7 64.39 C137.82 63.64, 97.74 62.75, 0.73 63.68 M-1.02 62.9 C0.46 40.94, 1.38 21.37, 1.64 -0.2 M-0.68 63.19 C-0.61 48.52, -0.43 33.58, 0.56 0.79" stroke="#3b82f6" stroke-width="2" fill="none"></path></g><g transform="translate(349.8000183105469 84.36946063604637) rotate(0 20.199981689453125 12.5)"><text x="20.199981689453125" y="NaN" font-family="Virgil, Segoe UI Emoji" font-size="20px" fill="#ffffff" text-anchor="middle" style="white-space: pre;" direction="ltr">SST</text></g><g stroke-linecap="round" transform="translate(490 64.86946063604637) rotate(0 90 32)"><path d="M1.68 -1.73 L178.92 -0.64 L179.31 63.09 L-0.68 64.46" stroke="none" stroke-width="0" fill="#1e40af"></path><path d="M0.98 -1.2 C37.49 0.54, 74.74 0.41, 180.6 -1.89 M0.87 -0.46 C70.28 -0.29, 141.27 0.95, 179.21 0.4 M180.81 0.08 C181.5 15.72, 177.79 29.09, 178.26 62.56 M179.61 -0.25 C179.81 14.93, 180.04 30.83, 180.08 63.81 M178.39 62.16 C117.66 63.07, 56.54 63.24, 1.55 62.37 M179.27 64.96 C110.3 66.34, 40.41 64.73, 0.12 64.1 M-0.22 64.09 C0.27 50.1, -0.14 36.06, -0.45 -0.26 M-0.5 63.17 C-0.47 45.57, -1.23 27.75, 0.96 0.67" stroke="#3b82f6" stroke-width="2" fill="none"></path></g><g transform="translate(559.8000183105469 84.36946063604637) rotate(0 20.199981689453125 12.5)"><text x="20.199981689453125" y="NaN" font-family="Virgil, Segoe UI Emoji" font-size="20px" fill="#ffffff" text-anchor="middle" style="white-space: pre;" direction="ltr">SST</text></g><g stroke-linecap="round" transform="translate(700 64.86946063604637) rotate(0 90 32)"><path d="M1.68 0.49 L181.37 1.47 L181.85 65.44 L0.58 63.78" stroke="none" stroke-width="0" fill="#1e40af"></path><path d="M1.55 0.44 C38.3 0.13, 73.15 -0.94, 180.66 -1.97 M0.39 0.18 C37.1 -0.72, 75 0.82, 179.41 -0.07 M180.17 -1.41 C181.38 14.42, 180.58 25.48, 180.17 65.87 M180.58 -0.25 C180.96 21.7, 179.43 41.85, 180.15 63.33 M180.91 64.02 C127.76 64.94, 71.29 63.68, -0.09 62.34 M179.84 63.52 C116.78 63.44, 55.09 63.12, -0.49 64.52 M0.57 65.27 C1.35 46.46, -0.38 29.14, 1.47 -0.32 M-0.32 63.15 C-0.32 44.62, -0.02 23.92, -0.63 0.55" stroke="#3b82f6" stroke-width="2" fill="none"></path></g><g transform="translate(769.8000183105469 84.36946063604637) rotate(0 20.199981689453125 12.5)"><text x="20.199981689453125" y="NaN" font-family="Virgil, Segoe UI Emoji" font-size="20px" fill="#ffffff" text-anchor="middle" style="white-space: pre;" direction="ltr">SST</text></g><g stroke-linecap="round"><g transform="translate(469.9507702431096 167.2915150517307) rotate(0 -0.511135074646063 56.288972792157836)"><path d="M-0.58 -0.37 C-0.5 7.37, -0.69 26.88, -0.63 45.63 C-0.58 64.37, -0.55 100.93, -0.25 112.09" stroke="#d97706" stroke-width="2.5" fill="none" stroke-dasharray="8 10"></path></g><g transform="translate(469.9507702431096 167.2915150517307) rotate(0 -0.511135074646063 56.288972792157836)"><path d="M-11.5 84.77 C-8.68 89.46, -7.44 97.76, -0.23 113.16" stroke="#d97706" stroke-width="2.5" fill="none"></path></g><g transform="translate(469.9507702431096 167.2915150517307) rotate(0 -0.511135074646063 56.288972792157836)"><path d="M9.02 84.5 C7.55 89.15, 4.5 97.5, -0.23 113.16" stroke="#d97706" stroke-width="2.5" fill="none"></path></g></g><g transform="translate(443.76028992921226 201.56307919408766) rotate(0 25.118980407714844 11.25)"><text x="25.118980407714844" y="NaN" font-family="Virgil, Segoe UI Emoji" font-size="18px" fill="#d97706" text-anchor="middle" style="white-space: pre;" direction="ltr">Merge</text></g><g stroke-opacity="0.6" fill-opacity="0.6" stroke-linecap="round" transform="translate(90 289.86946063604637) rotate(0 380 79.56708804866003)"><path d="M-1.34 -0.7 L761.53 -0.54 L759.47 159.45 L0.72 158.67" stroke="none" stroke-width="0" fill="#181825"></path><path d="M0.26 0.25 C162.42 -1.05, 324.13 -0.61, 759.37 0.56 M758.71 0.12 C763.05 43.91, 759.98 88.82, 760.59 157.54 M759.86 159.91 C514.17 160.77, 267.32 160.76, 0.41 158.76 M-1.34 157.89 C-0.43 120.02, -1.19 77.7, -1.93 -1.83" stroke="#45475a" stroke-width="2.5" fill="none" stroke-dasharray="8 10"></path></g><g transform="translate(110 299.86946063604637) rotate(0 24.938980102539062 11.25)"><text x="0" y="NaN" font-family="Virgil, Segoe UI Emoji" font-size="18px" fill="#a6adc8" text-anchor="start" style="white-space: pre;" direction="ltr">Tier 1</text></g><g stroke-linecap="round" transform="translate(160 344.86946063604637) rotate(0 140 31.813010189049066)"><path d="M1.07 1.08 L281.11 1.2 L281.63 62.18 L-0.08 62.4" stroke="none" stroke-width="0" fill="#b45309"></path><path d="M-1.25 -0.54 C59.44 -2.79, 119.6 -3.51, 280.98 -0.82 M0.4 -0.43 C75.18 -0.82, 150.01 -1.36, 280.06 0.75 M279.48 0.21 C281.21 19.02, 278.73 35.1, 279.55 64.87 M279.01 -0.81 C279.85 17.3, 280.68 33.72, 279.7 62.88 M279.18 63.28 C174.92 65.82, 69.23 65.81, 1.33 63.16 M279.45 63.91 C197.26 61.91, 114.31 62.59, -0.58 64.36 M0.98 62.41 C1.25 46.36, -1.37 25.74, -0.68 -0.3 M-0.95 63.28 C-0.55 42.86, -1.33 21.33, -0.37 0.97" stroke="#d97706" stroke-width="2" fill="none"></path></g><g transform="translate(279.8000183105469 364.18247082509544) rotate(0 20.199981689453125 12.5)"><text x="20.199981689453125" y="NaN" font-family="Virgil, Segoe UI Emoji" font-size="20px" fill="#ffffff" text-anchor="middle" style="white-space: pre;" direction="ltr">SST</text></g><g stroke-linecap="round" transform="translate(500 344.86946063604637) rotate(0 140 32)"><path d="M1.06 -0.71 L279.57 -0.69 L280.17 64.9 L1.18 62.1" stroke="none" stroke-width="0" fill="#b45309"></path><path d="M-0.82 0.71 C60.06 1.16, 118.4 2.79, 281.03 -0.88 M0.02 0.07 C79.27 -1.39, 158.25 -1.71, 280.21 0.39 M278.85 -1.29 C281.08 17.83, 281.51 31.7, 281.45 64.55 M279.99 -0.81 C279.73 22.18, 278.8 44.95, 279.77 64.78 M281.12 65.08 C188.81 64.48, 95.89 66.44, 0.08 63.51 M279.89 64.71 C208.03 65.23, 137.17 65.36, 0.48 63.52 M1.78 63.97 C1.06 38.98, 1.11 18.98, 1.24 -0.36 M-0.77 63.63 C-0.41 40.16, -0.13 15.63, 0.04 0.85" stroke="#d97706" stroke-width="2" fill="none"></path></g><g transform="translate(619.8000183105469 364.36946063604637) rotate(0 20.199981689453125 12.5)"><text x="20.199981689453125" y="NaN" font-family="Virgil, Segoe UI Emoji" font-size="20px" fill="#ffffff" text-anchor="middle" style="white-space: pre;" direction="ltr">SST</text></g><g stroke-linecap="round"><g transform="translate(470.3743100435775 455.00363673336636) rotate(0 0.7204014161736723 52.43291195134)"><path d="M0.99 1.15 C1.51 7.41, 2.16 19.73, 2.12 36.91 C2.07 54.09, 0.99 92.82, 0.73 104.23" stroke="#d97706" stroke-width="2.5" fill="none" stroke-dasharray="8 10"></path></g><g transform="translate(470.3743100435775 455.00363673336636) rotate(0 0.7204014161736723 52.43291195134)"><path d="M-6.92 76.3 C-6.24 83.77, -5.88 89.73, 1.56 105.97" stroke="#d97706" stroke-width="2.5" fill="none"></path></g><g transform="translate(470.3743100435775 455.00363673336636) rotate(0 0.7204014161736723 52.43291195134)"><path d="M13.6 76.81 C9.81 84.33, 5.7 90.18, 1.56 105.97" stroke="#d97706" stroke-width="2.5" fill="none"></path></g></g><g transform="translate(447.0704425117875 480.2615501946004) rotate(0 25.118980407714844 11.25)"><text x="25.118980407714844" y="NaN" font-family="Virgil, Segoe UI Emoji" font-size="18px" fill="#d97706" text-anchor="middle" style="white-space: pre;" direction="ltr">Merge</text></g><g stroke-opacity="0.6" fill-opacity="0.6" stroke-linecap="round" transform="translate(130 569.8694606360464) rotate(0 340 90)"><path d="M1.56 -0.18 L678.57 1.06 L680.59 181.17 L-1.34 180.35" stroke="none" stroke-width="0" fill="#181825"></path><path d="M-0.33 0.16 C151.65 1.81, 302.1 1.18, 679.69 -0.77 M680.05 -1.48 C680.02 67.17, 680.72 137.85, 679.1 181.66 M680.42 179.63 C456.11 182.23, 233.31 181.39, -0.75 180.14 M1.37 181.66 C0.3 136.61, -2.34 92.2, 1.58 -0.86" stroke="#45475a" stroke-width="2.5" fill="none" stroke-dasharray="8 10"></path></g><g transform="translate(150 579.8694606360464) rotate(0 106.01092529296875 11.25)"><text x="0" y="NaN" font-family="Virgil, Segoe UI Emoji" font-size="18px" fill="#a6adc8" text-anchor="start" style="white-space: pre;" direction="ltr">Tier 2 (oldest, largest)</text></g><g stroke-linecap="round" transform="translate(210 624.8694606360464) rotate(0 260 42.5)"><path d="M0.45 0.32 L520.21 -0.74 L521.02 83.7 L-0.96 84.74" stroke="none" stroke-width="0" fill="#5b21b6"></path><path d="M0.36 -0.37 C115.73 -0.05, 231.34 0.11, 519.24 -0.16 M-0.33 0.26 C194.21 0.07, 387.83 0.05, 519.73 0.24 M520.89 1.34 C519.32 25.95, 519.92 50.35, 520.64 83.53 M520.37 0.64 C519.68 22.14, 519.57 44.5, 519.45 84.74 M520.21 85.27 C354.24 82.88, 187.81 83.26, -0.54 85.14 M520.17 85.36 C352.84 86.21, 185.31 86.19, -0.34 85.26 M-0.23 84.85 C-2.35 59.06, -1.84 31.28, -1.08 -0.46 M0.96 85.1 C1.08 62.9, 0.41 38.81, -0.89 -0.97" stroke="#7c3aed" stroke-width="2" fill="none"></path></g><g transform="translate(313.0601501464844 629.8694606360464) rotate(0 156.93984985351562 37.5)"><text x="156.93984985351562" y="NaN" font-family="Virgil, Segoe UI Emoji" font-size="20px" fill="#ffffff" text-anchor="middle" style="white-space: pre;" direction="ltr">Tier 2 (oldest, largest) ^title2</text><text x="156.93984985351562" y="NaN" font-family="Virgil, Segoe UI Emoji" font-size="20px" fill="#ffffff" text-anchor="middle" style="white-space: pre;" direction="ltr"></text><text x="156.93984985351562" y="NaN" font-family="Virgil, Segoe UI Emoji" font-size="20px" fill="#ffffff" text-anchor="middle" style="white-space: pre;" direction="ltr">SST</text></g></svg>