<svg version="1.1" xmlns="http://www.w3.org/2000/svg" viewBox="0 0 1698.759759202937 485.37111370105583" width="1698.759759202937" height="485.37111370105583">
  <!-- svg-source:excalidraw -->
  
  <defs>
    <style>
      @font-face {
        font-family: "Virgil";
        src: url("https://excalidraw.com/Virgil.woff2");
      }
      @font-face {
        font-family: "Cascadia";
        src: url("https://excalidraw.com/Cascadia.woff2");
      }
    </style>
  </defs>
  <rect x="0" y="0" width="1698.759759202937" height="485.37111370105583" fill="#0d1117"></rect><g stroke-opacity="0.6" fill-opacity="0.6" stroke-linecap="round" transform="translate(10 45.38188443313652) rotate(0 167.5 121.5)"><path d="M1.21 -1.92 L334.54 -0.49 L336.32 242.75 L-1.96 243.8" stroke="none" stroke-width="0" fill="#161b22"></path><path d="M0.05 1.25 C85.01 -0.68, 169.46 -0.55, 334.64 -0.83 M335.45 1.08 C335.45 75.94, 333.13 155.61, 336.4 244.01 M333.78 243.68 C234.35 242.54, 134.37 243.74, -0.9 242.4 M-0.82 241.99 C-0.27 159.61, 0.9 74.27, -0.92 0.19" stroke="#30363d" stroke-width="2.5" fill="none" stroke-dasharray="8 10"></path></g><g transform="translate(26 55.38188443313652) rotate(0 79.28994750976562 11.25)"><text x="0" y="NaN" font-family="Virgil, Segoe UI Emoji" font-size="18px" fill="#8b949e" text-anchor="start" style="white-space: pre;" direction="ltr">Operational Layer</text></g><g stroke-opacity="0.6" fill-opacity="0.6" stroke-linecap="round" transform="translate(461.9172933656714 45.38188443313652) rotate(0 206 121.5)"><path d="M-1.88 -1.41 L412.47 0.45 L413.13 243.29 L1.92 243.84" stroke="none" stroke-width="0" fill="#161b22"></path><path d="M-0.3 1.04 C103.37 -1.84, 206.31 -1.78, 411.79 -0.5 M410.55 -1.6 C414.92 87.69, 412.58 173.21, 411.14 243.62 M411.64 242.35 C269.04 242.58, 127.48 240.62, -0.62 243.1 M-0.07 241.96 C0.4 146.2, -1.89 53.87, -0.98 0.7" stroke="#30363d" stroke-width="2.5" fill="none" stroke-dasharray="8 10"></path></g><g transform="translate(477.9172933656714 55.38188443313652) rotate(0 56.93397521972656 11.25)"><text x="0" y="NaN" font-family="Virgil, Segoe UI Emoji" font-size="18px" fill="#8b949e" text-anchor="start" style="white-space: pre;" direction="ltr">Raw Storage</text></g><g stroke-opacity="0.6" fill-opacity="0.6" stroke-linecap="round" transform="translate(911.2575236255041 11.47312622786302) rotate(0 173 193)"><path d="M-0.36 1.41 L345.06 1.77 L346.3 387.15 L-0.91 386.74" stroke="none" stroke-width="0" fill="#161b22"></path><path d="M-0.76 0.85 C72.06 -0.1, 140.67 0.65, 344.99 -0.67 M345.95 0.11 C343.53 120.28, 345.17 241.95, 346 385.32 M347.1 385.4 C265.13 385.09, 185.49 383.82, -0.37 385.86 M0.28 387.17 C-1.85 279.57, -1.64 174.76, 0.36 -1.12" stroke="#30363d" stroke-width="2.5" fill="none" stroke-dasharray="8 10"></path></g><g transform="translate(927.2575236255041 21.47312622786302) rotate(0 71.5499496459961 11.25)"><text x="0" y="NaN" font-family="Virgil, Segoe UI Emoji" font-size="18px" fill="#8b949e" text-anchor="start" style="white-space: pre;" direction="ltr">Analytical Layer</text></g><g stroke-opacity="0.6" fill-opacity="0.6" stroke-linecap="round" transform="translate(1284.9354214560435 10) rotate(0 201.91216887344672 190.15632627850857)"><path d="M-0.27 -0.94 L405.68 -0.89 L405.58 379.74 L1.73 382.28" stroke="none" stroke-width="0" fill="#161b22"></path><path d="M-0.83 0.44 C136.94 -0.28, 275.37 1.76, 404 0.16 M402.74 -0.55 C403.45 150.1, 404.15 299.66, 404.88 380.5 M404.13 381.21 C292.24 378.89, 180.9 380.43, 0.7 380.09 M0.78 381.25 C1.57 280.91, -0.7 180.93, 0.16 0.4" stroke="#30363d" stroke-width="2.5" fill="none" stroke-dasharray="8 10"></path></g><g transform="translate(1310.8394290031615 26.402662969368976) rotate(0 44.36096954345703 11.25)"><text x="0" y="NaN" font-family="Virgil, Segoe UI Emoji" font-size="18px" fill="#8b949e" text-anchor="start" style="white-space: pre;" direction="ltr">Consumers</text></g><g stroke-linecap="round" transform="translate(70 155.38188443313652) rotate(0 107.5 36.5)"><path d="M0.13 0.38 L216.68 1.34 L213.49 73.74 L1.81 72.2" stroke="none" stroke-width="0" fill="#3a1d6e"></path><path d="M-1.5 -0.44 C58.57 1.05, 118.69 0.28, 215.31 -1.58 M0.57 0.16 C63.98 -0.65, 128.33 -0.37, 214.3 0.01 M215.04 1.66 C215.05 23.5, 215.2 44.84, 215.03 72.4 M214.58 0.06 C215.89 24.83, 215.3 49.04, 214.95 72.32 M216.3 72.33 C156.55 72.65, 97.32 75.11, -0.33 74.03 M215.86 72.76 C156.37 74.75, 95.67 73.85, 0.75 72.89 M-1.01 72.6 C1.01 49.33, 0.84 27.77, 1.85 -1.43 M0.43 72.37 C-0.69 43.98, 0.66 16.12, -0.3 -0.64" stroke="#a371f7" stroke-width="2" fill="none"></path></g><g transform="translate(95.1600570678711 179.38188443313652) rotate(0 82.3399429321289 12.5)"><text x="82.3399429321289" y="NaN" font-family="Virgil, Segoe UI Emoji" font-size="20px" fill="#fff" text-anchor="middle" style="white-space: pre;" direction="ltr">OLTP Database</text></g><g stroke-linecap="round" transform="translate(521.9172933656714 155.38188443313652) rotate(0 146 36.5)"><path d="M0.32 -1.21 L292.8 1.9 L292.19 74.34 L0.04 71.67" stroke="none" stroke-width="0" fill="#1f4d2b"></path><path d="M-0.7 -0.49 C83.54 0.33, 167.97 0.36, 292.13 -0.69 M-0.02 -0.51 C96.5 -0.43, 191.91 -0.6, 292.05 -0.21 M293.41 -0.63 C291.03 25.46, 293.32 51.4, 292.01 72.22 M291.99 0.32 C292.49 22.53, 292.63 44.86, 292.28 72.35 M291.43 74.11 C225.56 70.46, 159.51 71.56, 0.54 72.54 M291.46 73.26 C188.09 73.77, 83.09 73.53, -0.49 73.47 M0.73 74.59 C2.56 49.05, 1.53 25.22, -0.59 0.47 M0.37 72.08 C-0.13 43.51, -0.01 16.03, -0.49 -0.93" stroke="#3fb950" stroke-width="2" fill="none"></path></g><g transform="translate(552.2973516542456 179.38188443313652) rotate(0 115.61994171142578 12.5)"><text x="115.61994171142578" y="NaN" font-family="Virgil, Segoe UI Emoji" font-size="20px" fill="#fff" text-anchor="middle" style="white-space: pre;" direction="ltr">Data Lake (S3 / GCS)</text></g><g stroke-linecap="round" transform="translate(990.9098411862078 103.36734720903934) rotate(0 113 36.5)"><path d="M-0.1 -0.01 L224.5 0.36 L225.35 73.08 L0.3 74.72" stroke="none" stroke-width="0" fill="#0d2c5a"></path><path d="M-0.56 1.71 C50.37 -1.89, 102.3 -2.3, 225.87 -0.36 M0.72 0.49 C78.07 2.07, 154.15 2.1, 225.67 -0.02 M224.81 1.96 C224.61 22.28, 225.8 46.29, 224.88 71.93 M225.63 0.33 C226.08 22.61, 226.21 47.14, 225.76 73.1 M225.35 71.73 C140.01 75.51, 53.18 75.25, -0.73 74.6 M225.9 73.65 C151.76 72.78, 79.4 73.88, 0.45 72.38 M1.4 73.91 C1.34 48.33, -0.58 25.08, -0.08 -0.34 M-0.45 73.92 C0.65 53.71, 0.94 33.61, -0.22 -0.87" stroke="#58a6ff" stroke-width="2" fill="none"></path></g><g transform="translate(1021.1599022213641 127.36734720903934) rotate(0 82.74993896484375 12.5)"><text x="82.74993896484375" y="NaN" font-family="Virgil, Segoe UI Emoji" font-size="20px" fill="#fff" text-anchor="middle" style="white-space: pre;" direction="ltr">Data Warehouse</text></g><g stroke-linecap="round" transform="translate(1005.8477581383424 274.1522445064292) rotate(0 90 36.5)"><path d="M1.89 1.82 L180.72 -1.44 L178.69 71.66 L1.75 72.9" stroke="none" stroke-width="0" fill="#0d2c5a"></path><path d="M1.61 1.19 C60.95 0.79, 122.99 2.08, 180.74 -0.96 M-0.59 -0.5 C43.33 0.89, 86.62 1.13, 180.11 0.97 M179.44 0.17 C180.4 19.43, 178.4 41.2, 179.93 73.42 M179.9 0.57 C180.37 26.46, 180.76 54.39, 180.97 72.96 M179.74 71.33 C122.33 72.8, 69.86 74.54, 1.89 73.18 M179.26 73.56 C138.27 74.2, 96.8 74.86, 0.27 72.32 M1.56 74.72 C-2.45 53.38, -0.82 32.21, 0.55 0.67 M-0.9 72.16 C-0.05 51.45, 1.1 29.24, 0.79 -0.28" stroke="#58a6ff" stroke-width="2" fill="none"></path></g><g transform="translate(1045.7878063561159 298.1522445064292) rotate(0 50.05995178222656 12.5)"><text x="50.05995178222656" y="NaN" font-family="Virgil, Segoe UI Emoji" font-size="20px" fill="#fff" text-anchor="middle" style="white-space: pre;" direction="ltr">Lakehouse</text></g><g stroke-linecap="round" transform="translate(1361.9172933656714 155.38188443313652) rotate(0 118.5 36.5)"><path d="M-0.88 0.8 L236.12 1.1 L236.74 74.07 L-1.82 74.99" stroke="none" stroke-width="0" fill="#5c3a10"></path><path d="M-0.74 -1.19 C76.91 0.2, 152.04 -0.11, 235.55 -0.77 M0.26 -0.16 C92.27 -0.51, 185.39 0.45, 237.54 -0.75 M235.66 0.48 C235.66 20.09, 235.63 39.99, 238.77 71.38 M237.93 -0.36 C236.9 15.54, 236.39 32, 236.43 72.83 M237.1 73.5 C175.63 73.98, 112.01 74.26, 0.8 72.76 M236.89 73.57 C185 70.44, 133.66 70.93, 0.14 73.01 M-0.78 72.03 C1.81 53.08, 1.54 36.05, -1.83 -0.92 M0.06 72.57 C1.14 46.53, 0.24 20.95, 0.65 0.93" stroke="#f0883e" stroke-width="2" fill="none"></path></g><g transform="translate(1395.1473501283667 179.38188443313652) rotate(0 85.26994323730469 12.5)"><text x="85.26994323730469" y="NaN" font-family="Virgil, Segoe UI Emoji" font-size="20px" fill="#fff" text-anchor="middle" style="white-space: pre;" direction="ltr">Dashboards / BI</text></g><g stroke-linecap="round" transform="translate(1380.18833871891 290.21783990893084) rotate(0 90 36.5)"><path d="M-0.14 -0.46 L181.5 -0.67 L181.97 74.75 L-0.5 74.55" stroke="none" stroke-width="0" fill="#5c3a10"></path><path d="M-0.07 -0.3 C60.92 0.28, 122.44 -0.37, 178.36 1.04 M0.24 0.83 C43.29 1.74, 84.93 2.36, 179.72 0.32 M178.75 1.56 C181.45 14.69, 181.27 29.61, 181.55 72.1 M180.2 -0.91 C180.26 30.04, 178.75 57.44, 179.72 73.12 M178.81 73.56 C118.99 74.87, 58.82 72.82, -1.12 74.64 M180.96 73.03 C120.01 72.84, 59.66 72.07, -0.07 73.7 M-2 71.61 C-0.96 55.52, 1.44 38.03, 1.01 0.01 M-0.37 73.97 C-0.53 47.19, 0.26 19.01, -0.98 -0.03" stroke="#f0883e" stroke-width="2" fill="none"></path></g><g transform="translate(1419.1183771710585 314.21783990893084) rotate(0 51.06996154785156 12.5)"><text x="51.06996154785156" y="NaN" font-family="Virgil, Segoe UI Emoji" font-size="20px" fill="#fff" text-anchor="middle" style="white-space: pre;" direction="ltr">ML Models</text></g><g stroke-linecap="round"><g transform="translate(291 191.8891844331365) rotate(0 112.45864668283569 0)"><path d="M0.99 0.33 C38.42 0.66, 186.84 1.27, 224.32 1.14" stroke="#f0883e" stroke-width="2.5" fill="none" stroke-dasharray="8 10"></path></g><g transform="translate(291 191.8891844331365) rotate(0 112.45864668283569 0)"><path d="M196.68 10.38 C205.89 9.93, 211.06 7.05, 224.97 -0.81" stroke="#f0883e" stroke-width="2.5" fill="none"></path></g><g transform="translate(291 191.8891844331365) rotate(0 112.45864668283569 0)"><path d="M196.7 -10.14 C205.77 -4.91, 210.93 -2.12, 224.97 -0.81" stroke="#f0883e" stroke-width="2.5" fill="none"></path></g></g><g transform="translate(342.861669448949 169.3891844331365) rotate(0 60.59697723388672 22.5)"><text x="60.59697723388672" y="NaN" font-family="Virgil, Segoe UI Emoji" font-size="18px" fill="#c9d1d9" text-anchor="middle" style="white-space: pre;" direction="ltr">CDC / </text><text x="60.59697723388672" y="NaN" font-family="Virgil, Segoe UI Emoji" font-size="18px" fill="#c9d1d9" text-anchor="middle" style="white-space: pre;" direction="ltr">Batch Export</text></g><g stroke-linecap="round"><g transform="translate(819.9172933656714 187.1152674457575) rotate(0 82.4962739102682 -20.49796643982439)"><path d="M-0.68 -0.77 C26.76 -7.61, 137.2 -34.79, 164.96 -41.48 M1.17 1.44 C28.41 -5.21, 136.59 -33.36, 164 -40.2" stroke="#58a6ff" stroke-width="2" fill="none"></path></g><g transform="translate(819.9172933656714 187.1152674457575) rotate(0 82.4962739102682 -20.49796643982439)"><path d="M137.94 -23.34 C146.66 -27.26, 155.74 -35.15, 163.08 -39.25 M140.16 -23.68 C147.26 -29.15, 154.42 -33.41, 163.67 -40.93" stroke="#58a6ff" stroke-width="2" fill="none"></path></g><g transform="translate(819.9172933656714 187.1152674457575) rotate(0 82.4962739102682 -20.49796643982439)"><path d="M132.86 -43.22 C143.19 -40.54, 153.95 -41.85, 163.08 -39.25 M135.08 -43.57 C143.86 -42.9, 152.59 -40.98, 163.67 -40.93" stroke="#58a6ff" stroke-width="2" fill="none"></path></g></g><g stroke-linecap="round"><g transform="translate(813.1095589740023 228.5327123301932) rotate(0 95.07256487532146 24.842844028666086)"><path d="M-0.49 -0.15 C31.06 8.38, 158.6 41.9, 190.3 50.02 M1.45 -1.28 C32.77 6.98, 158.23 39.64, 189.43 48.07" stroke="#58a6ff" stroke-width="2" fill="none"></path></g><g transform="translate(813.1095589740023 228.5327123301932) rotate(0 95.07256487532146 24.842844028666086)"><path d="M159.3 51.04 C171.52 49.13, 180.49 50.3, 188.97 46.21 M158.63 50.03 C167.6 50.29, 173.78 48.91, 189.54 47.95" stroke="#58a6ff" stroke-width="2" fill="none"></path></g><g transform="translate(813.1095589740023 228.5327123301932) rotate(0 95.07256487532146 24.842844028666086)"><path d="M164.55 31.2 C174.57 36.82, 181.55 45.55, 188.97 46.21 M163.88 30.19 C171.51 35.37, 176.4 38.87, 189.54 47.95" stroke="#58a6ff" stroke-width="2" fill="none"></path></g></g><g stroke-linecap="round"><g transform="translate(1222.9098411862078 148.77147455281346) rotate(0 66.5037260897318 17.11840640295423)"><path d="M0.44 0 C22.63 5.78, 110.35 29.09, 132.43 34.69 M-0.78 -1.04 C21.26 4.37, 109.04 26.87, 131.19 32.81" stroke="#58a6ff" stroke-width="2" fill="none"></path></g><g transform="translate(1222.9098411862078 148.77147455281346) rotate(0 66.5037260897318 17.11840640295423)"><path d="M101.32 34.66 C109.33 34.68, 114.82 34.15, 129.52 31.95 M101.98 36.51 C106.93 34.95, 114.34 34.96, 130.94 33.16" stroke="#58a6ff" stroke-width="2" fill="none"></path></g><g transform="translate(1222.9098411862078 148.77147455281346) rotate(0 66.5037260897318 17.11840640295423)"><path d="M106.51 14.8 C113.27 19.67, 117.49 23.96, 129.52 31.95 M107.17 16.66 C111.16 19.44, 117.45 23.78, 130.94 33.16" stroke="#58a6ff" stroke-width="2" fill="none"></path></g></g><g stroke-linecap="round"><g transform="translate(1188.267056500465 277.93329048496423) rotate(0 86.78685397936943 -25.139887354299304)"><path d="M-0.31 0.12 C28.45 -8.06, 144.48 -40.72, 173.27 -49.32 M1.72 -0.86 C30.24 -9.34, 143.33 -42.62, 172.16 -50.93" stroke="#58a6ff" stroke-width="2" fill="none"></path></g><g transform="translate(1188.267056500465 277.93329048496423) rotate(0 86.78685397936943 -25.139887354299304)"><path d="M148.17 -33.7 C158.24 -41.41, 163.31 -43.91, 172.72 -50.21 M147.33 -33.56 C153.51 -38.44, 160.56 -41.72, 171.56 -50.33" stroke="#58a6ff" stroke-width="2" fill="none"></path></g><g transform="translate(1188.267056500465 277.93329048496423) rotate(0 86.78685397936943 -25.139887354299304)"><path d="M142.42 -53.4 C154.5 -54.07, 161.62 -49.54, 172.72 -50.21 M141.58 -53.26 C149 -53.42, 157.44 -51.97, 171.56 -50.33" stroke="#58a6ff" stroke-width="2" fill="none"></path></g></g><g stroke-linecap="round"><g transform="translate(1191.8477581383422 314.77880930943667) rotate(0 91.1702902902839 3.9127603912477085)"><path d="M-0.24 0.57 C30.16 1.85, 153.11 6.73, 183.47 8.01 M-1.83 -0.17 C28.43 1.29, 152.65 8.6, 183.11 9.64" stroke="#58a6ff" stroke-width="2" fill="none"></path></g><g transform="translate(1191.8477581383422 314.77880930943667) rotate(0 91.1702902902839 3.9127603912477085)"><path d="M155.41 20.4 C165.79 14.41, 177.18 11.01, 182.65 9.23 M155.2 17.6 C164.25 14.27, 173.68 13.03, 184.05 10.41" stroke="#58a6ff" stroke-width="2" fill="none"></path></g><g transform="translate(1191.8477581383422 314.77880930943667) rotate(0 91.1702902902839 3.9127603912477085)"><path d="M156.4 -0.1 C166.45 1.82, 177.47 6.33, 182.65 9.23 M156.19 -2.9 C165.02 0.81, 174.11 6.61, 184.05 10.41" stroke="#58a6ff" stroke-width="2" fill="none"></path></g></g><g stroke-linecap="round"><g transform="translate(813.1596225745244 209.49607242715416) rotate(0 278.5294975951828 127.25978258876805)"><path d="M-0.57 -0.18 C48.52 41.88, 200.91 232.97, 293.82 253.32 C386.72 273.68, 512.96 143.7, 556.88 121.95 M1.34 -1.31 C50.32 40.75, 200.39 233.57, 292.84 254.23 C385.28 274.9, 511.88 144.43, 556.02 122.69" stroke="#f0883e" stroke-width="2" fill="none"></path></g><g transform="translate(813.1596225745244 209.49607242715416) rotate(0 278.5294975951828 127.25978258876805)"><path d="M538.72 147.3 C540.93 141.21, 545.2 135.98, 555.62 122.53 M539.47 147.61 C546.34 137.78, 551.87 129.61, 555.31 122.73" stroke="#f0883e" stroke-width="2" fill="none"></path></g><g transform="translate(813.1596225745244 209.49607242715416) rotate(0 278.5294975951828 127.25978258876805)"><path d="M526.81 130.58 C532.04 128.6, 539.19 127.41, 555.62 122.53 M527.57 130.89 C538.8 127.24, 548.75 125.27, 555.31 122.73" stroke="#f0883e" stroke-width="2" fill="none"></path></g></g><g transform="translate(1055.2145907298193 452.87111370105583) rotate(0 51.82196807861328 11.25)"><text x="51.82196807861328" y="NaN" font-family="Virgil, Segoe UI Emoji" font-size="18px" fill="#c9d1d9" text-anchor="middle" style="white-space: pre;" direction="ltr">Raw access</text></g></svg>