<svg version="1.1" xmlns="http://www.w3.org/2000/svg" viewBox="0 0 500 1064" width="500" height="1064">
  <!-- svg-source:excalidraw -->
  
  <defs>
    <style>
      @font-face {
        font-family: "Virgil";
        src: url("https://excalidraw.com/Virgil.woff2");
      }
      @font-face {
        font-family: "Cascadia";
        src: url("https://excalidraw.com/Cascadia.woff2");
      }
    </style>
  </defs>
  <rect x="0" y="0" width="500" height="1064" fill="#1e1e2e"></rect><g stroke-opacity="0.6" fill-opacity="0.6" stroke-linecap="round" transform="translate(30 10) rotate(0 220 67)"><path d="M0.14 1.17 L441.68 1.9 L441.21 134.8 L-0.26 134.13" stroke="none" stroke-width="0" fill="#181825"></path><path d="M-0.79 -0.24 C123.18 2.6, 245.61 2.06, 440.97 0.88 M440.83 -0.62 C440.2 53.65, 442.62 105.62, 439.65 134.11 M440.59 133.74 C341.7 135.86, 242.49 136.11, 0.94 133.02 M-1.94 134.71 C-2.32 99.96, -0.15 64.54, -1.94 -0.88" stroke="#45475a" stroke-width="2.5" fill="none" stroke-dasharray="8 10"></path></g><g transform="translate(46 20) rotate(0 68.55296325683594 11.25)"><text x="0" y="NaN" font-family="Virgil, Segoe UI Emoji" font-size="18px" fill="#a6adc8" text-anchor="start" style="white-space: pre;" direction="ltr">Source Systems</text></g><g stroke-linecap="round" transform="translate(90 50) rotate(0 160 32)"><path d="M1.65 -1.72 L318.32 1.66 L321.5 63.17 L0.03 64.06" stroke="none" stroke-width="0" fill="#2d6a4f"></path><path d="M-0.05 1.04 C104.36 1.82, 207.51 -0.47, 319.56 0.6 M0.38 0.11 C83.1 -0.42, 167.21 -0.88, 319.61 -0.05 M320.59 -1.66 C318.46 19.26, 320.93 34.96, 321.68 62.93 M320.13 -0.16 C320.95 21.1, 319.71 41.81, 319.87 63.74 M319.23 62.68 C195.79 64.1, 75.1 64.63, 0.36 64.73 M319.77 64.33 C224.64 62.1, 128.56 62.78, 0.1 64.44 M1.6 65.12 C2.02 41.69, -1.12 20.17, 0.94 0.5 M0.37 63.67 C0.16 40.29, 0.83 13.91, 0.57 0.16" stroke="#40916c" stroke-width="2" fill="none"></path></g><g transform="translate(127.12008666992188 69.5) rotate(0 122.87991333007812 12.5)"><text x="122.87991333007812" y="NaN" font-family="Virgil, Segoe UI Emoji" font-size="20px" fill="#fff" text-anchor="middle" style="white-space: pre;" direction="ltr">Services / Events / DBs</text></g><g stroke-opacity="0.6" fill-opacity="0.6" stroke-linecap="round" transform="translate(30 204) rotate(0 220 67)"><path d="M1.94 0.18 L439.4 1.57 L441.89 132.55 L0.52 134.65" stroke="none" stroke-width="0" fill="#181825"></path><path d="M0.78 -0.55 C112.42 0.92, 223.08 0.45, 440.93 -0.51 M439.39 0.33 C439.28 37.85, 442.08 76.67, 441.74 132.24 M439.48 133.57 C265.53 133.12, 92.64 132.13, 0.35 133.93 M-1.75 132.65 C1.27 98.99, -0.96 63.09, -0.97 1.08" stroke="#45475a" stroke-width="2.5" fill="none" stroke-dasharray="8 10"></path></g><g transform="translate(46 214) rotate(0 46.49397277832031 11.25)"><text x="0" y="NaN" font-family="Virgil, Segoe UI Emoji" font-size="18px" fill="#a6adc8" text-anchor="start" style="white-space: pre;" direction="ltr">Raw Layer</text></g><g stroke-linecap="round" transform="translate(100 244) rotate(0 150 32)"><path d="M0.42 -1.6 L298.38 0.36 L299.67 65.57 L-0.51 65.75" stroke="none" stroke-width="0" fill="#5b21b6"></path><path d="M-0.89 0.06 C113.37 -0.58, 225.29 -1.15, 300.87 -0.57 M0.46 0.51 C61.17 -0.32, 122.92 -1.17, 300.16 -0.56 M301.87 -1.73 C301.06 23.4, 298.17 45.3, 299.32 62.57 M299.84 -0.23 C299.8 13.83, 299.37 26.29, 300.61 64.07 M299.05 63.41 C231.56 63.2, 165.26 62.22, 0.08 65.46 M300.51 63.62 C218.03 61.29, 135.51 62.23, -0.39 64.62 M0.36 64.32 C-0.69 48.37, -2.38 31.27, 0.63 -0.81 M0.03 64.27 C-0.25 40.39, 0.96 17.07, -0.59 -0.15" stroke="#7c3aed" stroke-width="2" fill="none"></path></g><g transform="translate(152.7100601196289 263.5) rotate(0 97.2899398803711 12.5)"><text x="97.2899398803711" y="NaN" font-family="Virgil, Segoe UI Emoji" font-size="20px" fill="#fff" text-anchor="middle" style="white-space: pre;" direction="ltr">HDFS / Lake (Avro)</text></g><g stroke-opacity="0.6" fill-opacity="0.6" stroke-linecap="round" transform="translate(10 398) rotate(0 240 134)"><path d="M0.56 -1.73 L479.89 0.09 L479.58 267.45 L-1.34 267.93" stroke="none" stroke-width="0" fill="#181825"></path><path d="M0.81 -0.08 C127.03 1.69, 254.93 1.35, 479.38 -0.37 M478.98 0.47 C477.65 102.51, 480.73 205.35, 479.77 267.9 M480.04 267.63 C351.59 267.66, 222.51 268.87, 0.57 267.39 M-0.95 269.03 C0.7 212.42, -1.13 158.81, -0.18 1.36" stroke="#45475a" stroke-width="2.5" fill="none" stroke-dasharray="8 10"></path></g><g transform="translate(26 408) rotate(0 67.37395477294922 11.25)"><text x="0" y="NaN" font-family="Virgil, Segoe UI Emoji" font-size="18px" fill="#a6adc8" text-anchor="start" style="white-space: pre;" direction="ltr">Transformation</text></g><g stroke-linecap="round" transform="translate(105 448) rotate(0 145 32)"><path d="M-1.25 0.03 L290.45 -0.65 L291.28 63.98 L0.25 63.8" stroke="none" stroke-width="0" fill="#b45309"></path><path d="M-0.05 1.28 C84.52 3.2, 169.27 3, 291.24 0.95 M0.12 -0.72 C111.11 -0.86, 223.26 -0.75, 290.31 -0.6 M288.62 0.41 C289.65 19.61, 291.12 42.83, 289.83 62.32 M289.99 -0.57 C290.01 20.79, 289.67 42.84, 289.63 64.83 M289.86 62.5 C223.5 65.7, 159.01 66.51, 0.32 64.8 M290.33 64.19 C215.93 62.74, 140.54 62.9, -0.75 63.48 M1.54 65.03 C-0.26 45.52, -1.94 30.89, 1.92 -0.43 M-0.82 64.67 C0.41 41.33, 1.02 17.02, 0.4 0.35" stroke="#d97706" stroke-width="2" fill="none"></path></g><g transform="translate(161.21006774902344 467.5) rotate(0 88.78993225097656 12.5)"><text x="88.78993225097656" y="NaN" font-family="Virgil, Segoe UI Emoji" font-size="20px" fill="#fff" text-anchor="middle" style="white-space: pre;" direction="ltr">Spark Batch Jobs</text></g><g stroke-linecap="round" transform="translate(50 582) rotate(0 200 32)"><path d="M0.42 1.2 L400.54 0.48 L401.02 65.1 L-1.81 64.32" stroke="none" stroke-width="0" fill="#1e40af"></path><path d="M0.33 -0.54 C149.08 -1.67, 299.82 -0.86, 400.59 -0.82 M0.33 0.11 C125.91 -1.9, 251.13 -2.22, 399.46 -0.15 M399.53 1.28 C400.08 13.85, 399.31 29.32, 400.43 65.01 M400.1 0.31 C400.35 19.55, 399.98 40.16, 399.85 64.32 M399.25 64.19 C316.87 64.48, 235.06 65.23, -0.61 63.18 M399.82 64.03 C302.99 65.96, 205.03 65.93, 0.4 63.79 M-1.68 62.34 C-1.14 47.09, 0.92 34.06, 1.74 -1.02 M-0.61 64.64 C0.74 48.99, -1.04 33.89, -0.6 0.61" stroke="#3b82f6" stroke-width="2" fill="none"></path></g><g transform="translate(105.53012084960938 601.5) rotate(0 144.46987915039062 12.5)"><text x="144.46987915039062" y="NaN" font-family="Virgil, Segoe UI Emoji" font-size="20px" fill="#fff" text-anchor="middle" style="white-space: pre;" direction="ltr">Derived Layer (Cleaned Avro)</text></g><g stroke-opacity="0.6" fill-opacity="0.6" stroke-linecap="round" transform="translate(30 726) rotate(0 220 67)"><path d="M0.01 1.66 L439.17 -0.86 L440.49 133.97 L-1.88 132.02" stroke="none" stroke-width="0" fill="#181825"></path><path d="M-0.35 0.51 C159.41 -1.47, 317.01 0.06, 439.84 -0.45 M441.82 -1.1 C438.98 32.64, 440.97 68.16, 440.05 133.25 M440.46 133.54 C285.57 135.31, 128.48 136.03, -0.69 133.93 M-1.8 134.52 C-0.64 81.17, 1.05 27.43, 0.76 -1.38" stroke="#45475a" stroke-width="2.5" fill="none" stroke-dasharray="8 10"></path></g><g transform="translate(46 736) rotate(0 54.845947265625 11.25)"><text x="0" y="NaN" font-family="Virgil, Segoe UI Emoji" font-size="18px" fill="#a6adc8" text-anchor="start" style="white-space: pre;" direction="ltr">Query Engine</text></g><g stroke-linecap="round" transform="translate(115 766) rotate(0 135 32)"><path d="M0.26 -1.75 L271.48 0.93 L270.78 65.03 L-1.14 64.76" stroke="none" stroke-width="0" fill="#1e40af"></path><path d="M-0.49 1.45 C67.99 -0.32, 137.06 0.67, 271.35 -1.31 M-0.28 -0.27 C106.11 1.21, 210.54 2.05, 269.76 -0.3 M270.63 -1.86 C268.29 20.96, 268.71 37.87, 271.8 62.3 M269.39 -0.14 C269.88 22.86, 268.83 47.72, 270.76 64.8 M271.21 63.24 C167.11 65.19, 66.54 62.81, 1.26 63.37 M270.03 64.69 C191.31 62.35, 111.69 62.23, 0.01 64.56 M0.71 65.51 C1.49 48.34, 1.7 34.93, 1.94 0.44 M0.97 63.02 C0.8 46.99, -0.6 30.09, 0.59 -0.68" stroke="#3b82f6" stroke-width="2" fill="none"></path></g><g transform="translate(177.26006317138672 785.5) rotate(0 72.73993682861328 12.5)"><text x="72.73993682861328" y="NaN" font-family="Virgil, Segoe UI Emoji" font-size="20px" fill="#fff" text-anchor="middle" style="white-space: pre;" direction="ltr">Trino / Presto</text></g><g stroke-opacity="0.6" fill-opacity="0.6" stroke-linecap="round" transform="translate(30 920) rotate(0 220 67)"><path d="M-0.76 1.67 L438.76 -1.79 L439.28 135.77 L-0.42 136" stroke="none" stroke-width="0" fill="#181825"></path><path d="M0.28 -0.18 C128.94 -1.32, 257.88 -0.79, 440.43 0.72 M439.66 -1.32 C439.34 33.15, 439.97 70.69, 440.46 133.21 M439.48 134.84 C321.12 133.95, 201.19 135.54, -0.45 133.82 M1.66 133.59 C2.54 88.12, 1.4 44.32, -1.86 1.89" stroke="#45475a" stroke-width="2.5" fill="none" stroke-dasharray="8 10"></path></g><g transform="translate(46 930) rotate(0 51.218955993652344 11.25)"><text x="0" y="NaN" font-family="Virgil, Segoe UI Emoji" font-size="18px" fill="#a6adc8" text-anchor="start" style="white-space: pre;" direction="ltr">Self-Service</text></g><g stroke-linecap="round" transform="translate(135 960) rotate(0 115 32)"><path d="M1.5 1.09 L231.09 -0.83 L230.35 64.21 L-1.19 62.31" stroke="none" stroke-width="0" fill="#2d6a4f"></path><path d="M0.47 -0.49 C76.27 1.25, 150.82 3, 228.78 0.87 M0.18 0.39 C76.87 0.59, 154.74 -0.68, 229.36 0.29 M230.94 -0.38 C229.36 15.27, 229.6 28.31, 230.95 64.25 M230.97 0.2 C229.58 20.91, 230.11 43.2, 229.31 63.86 M231.11 63.48 C180.47 63.94, 128.21 61.38, -1.07 63.39 M229.97 64.52 C171.74 64.46, 112.46 65.52, -0.33 63.62 M1.3 64.39 C-0.15 41.2, -1.5 21.57, 0.84 1.46 M-0.65 64.78 C0.53 46.8, 0.23 30.62, 0.94 0.18" stroke="#40916c" stroke-width="2" fill="none"></path></g><g transform="translate(188.90003967285156 979.5) rotate(0 61.09996032714844 12.5)"><text x="61.09996032714844" y="NaN" font-family="Virgil, Segoe UI Emoji" font-size="20px" fill="#fff" text-anchor="middle" style="white-space: pre;" direction="ltr">Analytics UI</text></g><g stroke-linecap="round"><g transform="translate(250.03190769230764 120) rotate(0 -0.0009076923076634102 59)"><path d="M-0.12 0.67 C-0.22 20.43, -0.56 98.68, -0.68 118.37" stroke="#d97706" stroke-width="2.5" fill="none" stroke-dasharray="8 10"></path></g><g transform="translate(250.03190769230764 120) rotate(0 -0.0009076923076634102 59)"><path d="M-9.68 89 C-7.27 96.98, -3.59 104.95, -1.1 117.34" stroke="#d97706" stroke-width="2.5" fill="none"></path></g><g transform="translate(250.03190769230764 120) rotate(0 -0.0009076923076634102 59)"><path d="M10.84 89.1 C7.27 97.03, 4.97 104.97, -1.1 117.34" stroke="#d97706" stroke-width="2.5" fill="none"></path></g></g><g transform="translate(221.48802185058594 167.75) rotate(0 28.511978149414062 11.25)"><text x="28.511978149414062" y="NaN" font-family="Virgil, Segoe UI Emoji" font-size="18px" fill="#cdd6f4" text-anchor="middle" style="white-space: pre;" direction="ltr">Ingest</text></g><g stroke-linecap="round"><g transform="translate(250.02995714285709 314) rotate(0 -0.000457142857129611 64)"><path d="M1 -0.02 C0.97 21.46, 0.89 107.16, 0.75 128.43 M0.06 -1.08 C-0.14 20.08, 0.3 104.91, 0.2 126.53" stroke="#d97706" stroke-width="2" fill="none"></path></g><g transform="translate(250.02995714285709 314) rotate(0 -0.000457142857129611 64)"><path d="M-10.12 99.6 C-5.6 109.16, -3.18 119.04, -0.69 127.44 M-10.05 98.42 C-8.97 104.87, -6.54 110.76, 0.31 125.6" stroke="#d97706" stroke-width="2" fill="none"></path></g><g transform="translate(250.02995714285709 314) rotate(0 -0.000457142857129611 64)"><path d="M10.4 99.58 C7.17 109.33, 1.84 119.2, -0.69 127.44 M10.47 98.41 C7.22 104.82, 5.33 110.72, 0.31 125.6" stroke="#d97706" stroke-width="2" fill="none"></path></g></g><g stroke-linecap="round"><g transform="translate(250.02994285714288 518) rotate(0 0.004557142857095187 29)"><path d="M0.61 0.66 C0.43 10.53, -0.57 49.4, -0.8 59.15 M-0.52 -0.03 C-0.35 9.53, 1.12 48.05, 1.48 57.63" stroke="#40916c" stroke-width="2" fill="none"></path></g><g transform="translate(250.02994285714288 518) rotate(0 0.004557142857095187 29)"><path d="M-8.35 29.42 C-4.01 38.05, -0.45 47.46, 2.77 56.19 M-9.51 30.32 C-6.76 37.88, -2.6 45.46, 0.81 57.41" stroke="#40916c" stroke-width="2" fill="none"></path></g><g transform="translate(250.02994285714288 518) rotate(0 0.004557142857095187 29)"><path d="M11.47 28.67 C9.4 37.64, 6.55 47.3, 2.77 56.19 M10.32 29.57 C7.8 37.26, 6.69 45.04, 0.81 57.41" stroke="#40916c" stroke-width="2" fill="none"></path></g></g><g stroke-linecap="round"><g transform="translate(250.03935 652) rotate(0 -0.005850000000009459 54)"><path d="M1.05 -1.13 C0.96 17.16, -0.82 90.72, -1.14 108.86 M0.15 0.89 C0.45 18.93, 0.74 89.19, 0.98 107.18" stroke="#3b82f6" stroke-width="2" fill="none"></path></g><g transform="translate(250.03935 652) rotate(0 -0.005850000000009459 54)"><path d="M-11.4 77.2 C-5.64 84.69, -4.96 93.54, 1.56 107.7 M-10.08 78.32 C-7.69 84.26, -5.46 90.64, 1.93 107.74" stroke="#3b82f6" stroke-width="2" fill="none"></path></g><g transform="translate(250.03935 652) rotate(0 -0.005850000000009459 54)"><path d="M9.12 77.03 C9.69 84.75, 5.18 93.64, 1.56 107.7 M10.44 78.15 C8.47 84.19, 6.36 90.61, 1.93 107.74" stroke="#3b82f6" stroke-width="2" fill="none"></path></g></g><g stroke-linecap="round"><g transform="translate(250.0268153846153 836) rotate(0 -0.0018153846152983988 59)"><path d="M-0.33 -0.1 C-0.43 19.73, -0.07 99.21, 0.14 118.82 M1.69 -1.19 C1.39 18.3, -0.56 97.16, -0.74 117.12" stroke="#3b82f6" stroke-width="2" fill="none"></path></g><g transform="translate(250.0268153846153 836) rotate(0 -0.0018153846152983988 59)"><path d="M-10.65 88.99 C-5.65 100.52, -4.28 108.47, -2.34 117.76 M-9.85 89.28 C-7.27 100.2, -3.9 109.74, -0.64 116.18" stroke="#3b82f6" stroke-width="2" fill="none"></path></g><g transform="translate(250.0268153846153 836) rotate(0 -0.0018153846152983988 59)"><path d="M9.87 89.35 C7.49 100.7, 1.47 108.51, -2.34 117.76 M10.67 89.65 C5.37 100.37, 0.85 109.76, -0.64 116.18" stroke="#3b82f6" stroke-width="2" fill="none"></path></g></g></svg>