<svg version="1.1" xmlns="http://www.w3.org/2000/svg" viewBox="0 0 960 790" width="960" height="790">
  <!-- svg-source:excalidraw -->
  
  <defs>
    <style>
      @font-face {
        font-family: "Virgil";
        src: url("https://excalidraw.com/Virgil.woff2");
      }
      @font-face {
        font-family: "Cascadia";
        src: url("https://excalidraw.com/Cascadia.woff2");
      }
    </style>
  </defs>
  <rect x="0" y="0" width="960" height="790" fill="#1e1e2e"></rect><g stroke-linecap="round" transform="translate(340 10) rotate(0 140 32)"><path d="M-0.7 -0.37 L280.56 0.12 L281.23 62.96 L0.49 62.36" stroke="none" stroke-width="0" fill="#2d6a4f"></path><path d="M1.14 -0.14 C67.16 -0.97, 135.8 -1.17, 279.43 -0.19 M0.53 0.19 C96.02 0.73, 190.56 1.27, 279.75 0.7 M280.58 -0.08 C278.35 15.21, 278.4 29.24, 278.87 65.58 M279.07 0.46 C280.73 14.42, 281.06 28.07, 279.18 64.79 M280.82 65.06 C185.68 64.27, 88.12 64.43, -1.22 64.28 M280.61 64.41 C194.88 65.86, 111.04 65.16, 0.33 64.37 M1.24 65.04 C0.88 38.34, -1.18 15.5, -1.4 1.99 M-0.21 63.23 C-0.89 49.47, 0.16 35.21, -0.15 -0.71" stroke="#40916c" stroke-width="2" fill="none"></path></g><g transform="translate(359.3801040649414 29.5) rotate(0 120.6198959350586 12.5)"><text x="120.6198959350586" y="NaN" font-family="Virgil, Segoe UI Emoji" font-size="20px" fill="#ffffff" text-anchor="middle" style="white-space: pre;" direction="ltr">Identify Access Pattern</text></g><g stroke-linecap="round" transform="translate(360 160) rotate(0 120 70)"><path d="M121.9 1.31 L240.74 70.36 L119.24 139.9 L0.19 71.49" stroke="none" stroke-width="0" fill="#5b21b6" fill-rule="evenodd"></path><path d="M121.92 -0.33 C151.37 19.42, 179.62 36.99, 240.09 72.32 M121.1 -0.69 C148.58 15.9, 175.07 32.35, 239.36 70.92 M238.73 71.92 C201.91 93.37, 167.77 113.95, 121.43 138.1 M240.27 70.26 C203.55 92.15, 168.34 111.56, 121.8 140.2 M122.28 140.53 C97.44 126.17, 71.08 110.19, 1.75 69.75 M120.02 139.96 C96.94 124.32, 70.46 110.15, 0.19 71.65 M-1.64 70.91 C40.87 48.84, 79.47 25.92, 121.96 1.16 M0.66 70.22 C35.1 50.68, 68.24 31.94, 120.61 -0.76" stroke="#7c3aed" stroke-width="2" fill="none"></path></g><g transform="translate(421.0200424194336 217.5) rotate(0 58.979957580566406 12.5)"><text x="58.979957580566406" y="NaN" font-family="Virgil, Segoe UI Emoji" font-size="20px" fill="#ffffff" text-anchor="middle" style="white-space: pre;" direction="ltr">Need ACID?</text></g><g stroke-linecap="round"><g transform="translate(480.3296372408644 80) rotate(0 0.3113440334818165 39.2187725594755)"><path d="M0.47 0.21 C0.63 13.41, 0.49 64.98, 0.34 78.19 M-0.75 -0.73 C-0.71 12.74, -1.2 66.53, -0.76 79.59" stroke="#40916c" stroke-width="2" fill="none"></path></g><g transform="translate(480.3296372408644 80) rotate(0 0.3113440334818165 39.2187725594755)"><path d="M-10.92 51.02 C-9.34 56.52, -4.63 64, 0.15 78.48 M-11.76 51.86 C-7.78 60.65, -4.29 69.54, -1.73 80.53" stroke="#40916c" stroke-width="2" fill="none"></path></g><g transform="translate(480.3296372408644 80) rotate(0 0.3113440334818165 39.2187725594755)"><path d="M9.6 50.84 C6.15 56.46, 5.83 63.99, 0.15 78.48 M8.76 51.68 C6.36 60.33, 3.46 69.28, -1.73 80.53" stroke="#40916c" stroke-width="2" fill="none"></path></g></g><g stroke-linecap="round" transform="translate(700 198) rotate(0 120 32)"><path d="M-0.71 1.84 L239.01 -1.77 L239.77 65.3 L1.75 65.69" stroke="none" stroke-width="0" fill="#1e40af"></path><path d="M-1.61 1.21 C57.92 -1.16, 118.1 -2.15, 239.44 -0.27 M0.17 0.75 C84.38 0.14, 170.55 0.98, 239.89 0.37 M239.95 -1.58 C240.95 13.91, 239.91 25.64, 240.77 64.89 M240.05 0.47 C240.6 19.2, 239.17 39.09, 239.24 64.31 M239.66 63.38 C168.36 62.6, 98.65 61.58, 0.64 64.27 M239.46 63.25 C177.64 62.94, 114.77 63.25, -0.15 64.75 M-1.97 62.22 C1.96 47.5, -1.43 34.19, 0.51 1.93 M-0.03 63.21 C-0.75 46.52, -0.64 29.39, 0.25 -0.83" stroke="#3b82f6" stroke-width="2" fill="none"></path></g><g transform="translate(718.9800643920898 217.5) rotate(0 101.01993560791016 12.5)"><text x="101.01993560791016" y="NaN" font-family="Virgil, Segoe UI Emoji" font-size="20px" fill="#ffffff" text-anchor="middle" style="white-space: pre;" direction="ltr">Relational / NewSQL</text></g><g stroke-linecap="round"><g transform="translate(598.4374622879707 230.9734291236802) rotate(0 47.78126885601466 -0.2115996941445104)"><path d="M-0.47 0.9 C15.69 0.95, 80.22 0.96, 96.35 0.58 M1.48 0.32 C17.61 0.04, 80.08 -0.87, 95.81 -1.02" stroke="#40916c" stroke-width="2" fill="none"></path></g><g transform="translate(598.4374622879707 230.9734291236802) rotate(0 47.78126885601466 -0.2115996941445104)"><path d="M69.24 10.9 C76.27 8.26, 79.84 4.9, 95.96 0.22 M67.36 9.55 C73.61 6.36, 80.42 4.55, 95.36 -1.57" stroke="#40916c" stroke-width="2" fill="none"></path></g><g transform="translate(598.4374622879707 230.9734291236802) rotate(0 47.78126885601466 -0.2115996941445104)"><path d="M68.99 -9.62 C76.12 -7.23, 79.75 -5.56, 95.96 0.22 M67.11 -10.97 C73.35 -9.25, 80.23 -6.16, 95.36 -1.57" stroke="#40916c" stroke-width="2" fill="none"></path></g></g><g transform="translate(635.546012878418 217.5) rotate(0 14.453987121582031 11.25)"><text x="14.453987121582031" y="NaN" font-family="Virgil, Segoe UI Emoji" font-size="18px" fill="#40916c" text-anchor="middle" style="white-space: pre;" direction="ltr">Yes</text></g><g stroke-linecap="round" transform="translate(340 390) rotate(0 140 80)"><path d="M139.49 1.22 L279.38 81.71 L142.8 159.17 L1.15 82.95" stroke="none" stroke-width="0" fill="#5b21b6" fill-rule="evenodd"></path><path d="M141.92 1.16 C176.16 21.08, 209.96 40.6, 280.98 79.81 M140.02 -0.99 C187.65 27.64, 231.46 54.38, 279.23 81.46 M280.24 81.43 C232.5 110.17, 179.57 137.22, 140.9 161.93 M280.43 81.07 C245.12 101.37, 208.15 120.84, 141.5 159.13 M141.02 161.54 C109.28 139.6, 78.12 124.45, -0.54 82.1 M140.81 159.95 C102.2 139.1, 65.14 118.11, -0.66 80.24 M0.27 80.97 C48.62 51.44, 95.67 23.92, 142.25 0.28 M-0.29 80.2 C52.52 50.43, 105.45 19.91, 140.78 -0.93" stroke="#7c3aed" stroke-width="2" fill="none"></path></g><g transform="translate(417.99005126953125 445) rotate(0 62.00994873046875 25)"><text x="62.00994873046875" y="NaN" font-family="Virgil, Segoe UI Emoji" font-size="20px" fill="#ffffff" text-anchor="middle" style="white-space: pre;" direction="ltr">Scale beyond</text><text x="62.00994873046875" y="NaN" font-family="Virgil, Segoe UI Emoji" font-size="20px" fill="#ffffff" text-anchor="middle" style="white-space: pre;" direction="ltr">single node?</text></g><g stroke-linecap="round"><g transform="translate(481 295.5625) rotate(0 0 49.75)"><path d="M-0.93 0.21 C-0.72 16.79, 0.61 82.23, 0.61 98.96 M0.78 -0.72 C0.95 16.06, -0.14 83.62, -0.02 100.22" stroke="#40916c" stroke-width="2" fill="none"></path></g><g transform="translate(481 295.5625) rotate(0 0 49.75)"><path d="M-9.76 72.99 C-8.66 77.44, -3.41 84.45, 1.78 100.6 M-9.69 72.04 C-7.39 77.7, -5.99 83.81, 0.89 99.69" stroke="#40916c" stroke-width="2" fill="none"></path></g><g transform="translate(481 295.5625) rotate(0 0 49.75)"><path d="M10.76 73.11 C6.84 77.37, 7.05 84.35, 1.78 100.6 M10.83 72.16 C8.82 77.61, 5.91 83.69, 0.89 99.69" stroke="#40916c" stroke-width="2" fill="none"></path></g></g><g transform="translate(469.21800231933594 332.5) rotate(0 10.781997680664062 11.25)"><text x="10.781997680664062" y="NaN" font-family="Virgil, Segoe UI Emoji" font-size="18px" fill="#40916c" text-anchor="middle" style="white-space: pre;" direction="ltr">No</text></g><g stroke-linecap="round" transform="translate(40 438) rotate(0 100 32)"><path d="M1.69 0.59 L199.74 -0.8 L199.83 65.05 L0.55 62.21" stroke="none" stroke-width="0" fill="#1e40af"></path><path d="M-0.2 0.79 C50.66 -0.86, 97.71 -0.39, 198.76 1.75 M-0.15 -0.78 C59.44 -0.6, 118.4 -0.69, 200.53 0.44 M200.53 -1.57 C198.92 18.72, 200.95 37.63, 199.02 62.98 M200.81 -0.32 C201.14 12.67, 200.09 26.01, 199.75 63.95 M200.4 63.85 C130.51 63.19, 59.58 61.46, -1.66 65.68 M200.24 64.72 C145.71 62.81, 90.46 62.83, 0.76 63.62 M-1.5 65.72 C1.11 47.76, -2 34.48, 1.98 -1.37 M-0.55 63.18 C-1.06 46.76, -0.85 28.39, -0.69 0.98" stroke="#3b82f6" stroke-width="2" fill="none"></path></g><g transform="translate(82.87005615234375 457.5) rotate(0 57.12994384765625 12.5)"><text x="57.12994384765625" y="NaN" font-family="Virgil, Segoe UI Emoji" font-size="20px" fill="#ffffff" text-anchor="middle" style="white-space: pre;" direction="ltr">PostgreSQL</text></g><g stroke-linecap="round"><g transform="translate(342.81254269659314 470.9710719114236) rotate(0 -48.40627134829657 -0.23338514499164376)"><path d="M1.02 -0.47 C-14.94 -0.68, -80.05 -0.28, -96.38 -0.14 M0.09 -1.77 C-15.92 -1.84, -80.78 -2.13, -97.09 -2.09" stroke="#40916c" stroke-width="2" fill="none"></path></g><g transform="translate(342.81254269659314 470.9710719114236) rotate(0 -48.40627134829657 -0.23338514499164376)"><path d="M-69.68 -11.58 C-75.16 -9.79, -81.22 -6.34, -97.64 -2.57 M-69.65 -12.12 C-79.47 -8.04, -89.76 -4.54, -96.83 -2.59" stroke="#40916c" stroke-width="2" fill="none"></path></g><g transform="translate(342.81254269659314 470.9710719114236) rotate(0 -48.40627134829657 -0.23338514499164376)"><path d="M-69.71 8.94 C-75.37 5.7, -81.43 4.12, -97.64 -2.57 M-69.68 8.4 C-79.51 4.66, -89.78 0.35, -96.83 -2.59" stroke="#40916c" stroke-width="2" fill="none"></path></g></g><g transform="translate(279.21800231933594 457.5) rotate(0 10.781997680664062 11.25)"><text x="10.781997680664062" y="NaN" font-family="Virgil, Segoe UI Emoji" font-size="18px" fill="#40916c" text-anchor="middle" style="white-space: pre;" direction="ltr">No</text></g><g stroke-linecap="round" transform="translate(360 640) rotate(0 120 70)"><path d="M121.89 -0.04 L240.11 72.69 L122.85 138.92 L-0.04 69.47" stroke="none" stroke-width="0" fill="#5b21b6" fill-rule="evenodd"></path><path d="M119.64 0.58 C149.16 18.23, 178.21 37.01, 240.28 72.09 M121.64 -0.75 C151.99 18.06, 184.71 38.3, 239.94 71.51 M240.83 71.44 C211.9 87.73, 183.42 101.01, 119.15 140.02 M239.2 70.28 C199.64 96.25, 156.96 119.86, 120.01 140.77 M121.86 138.13 C87.98 119.15, 55.7 102.02, 0.84 69.64 M121.71 139.65 C86.32 120.63, 51 100.98, 0.36 70.91 M0.74 70.47 C39.38 46.54, 78.52 22.57, 119.72 0.98 M-0.8 70.17 C47.18 43.25, 95.17 15.1, 121.83 0.88" stroke="#7c3aed" stroke-width="2" fill="none"></path></g><g transform="translate(419.1600570678711 697.5) rotate(0 60.839942932128906 12.5)"><text x="60.839942932128906" y="NaN" font-family="Virgil, Segoe UI Emoji" font-size="20px" fill="#ffffff" text-anchor="middle" style="white-space: pre;" direction="ltr">Write-heavy?</text></g><g stroke-linecap="round"><g transform="translate(481 544.9375) rotate(0 0 49.75)"><path d="M0.56 -1.16 C0.72 15.57, 0.25 83.83, 0.26 100.69 M-0.6 0.85 C-0.53 17.24, -0.68 83.01, -0.55 99.2" stroke="#40916c" stroke-width="2" fill="none"></path></g><g transform="translate(481 544.9375) rotate(0 0 49.75)"><path d="M-12.8 71.47 C-6.27 78.97, -4.81 83.67, 0.56 97.86 M-10.83 71.34 C-7.51 81.67, -4.25 90.63, -0.92 98.72" stroke="#40916c" stroke-width="2" fill="none"></path></g><g transform="translate(481 544.9375) rotate(0 0 49.75)"><path d="M7.72 71.42 C9.22 79.03, 5.65 83.74, 0.56 97.86 M9.7 71.29 C5.8 81.63, 1.84 90.61, -0.92 98.72" stroke="#40916c" stroke-width="2" fill="none"></path></g></g><g transform="translate(465.54601287841797 582.5) rotate(0 14.453987121582031 11.25)"><text x="14.453987121582031" y="NaN" font-family="Virgil, Segoe UI Emoji" font-size="18px" fill="#40916c" text-anchor="middle" style="white-space: pre;" direction="ltr">Yes</text></g><g stroke-linecap="round" transform="translate(10 678) rotate(0 130 32)"><path d="M0.08 -0.66 L260.47 0.18 L259.88 64.79 L-0.64 62.73" stroke="none" stroke-width="0" fill="#b45309"></path><path d="M1.2 0.24 C64.31 2.88, 126.42 1.46, 261.54 0.18 M-0.44 -0.51 C61.17 0.57, 122.98 1.19, 259.44 0.42 M261.12 -1.56 C260.89 23.52, 261.99 49.62, 261.27 65.07 M259.58 0.89 C260.39 18.95, 259.72 38.52, 260.26 63.58 M261.03 64.34 C156.82 63.32, 52.42 61.23, -0.37 63.53 M259.33 64.4 C184.17 62.61, 108.73 62.36, -0.1 64.19 M-1.03 65.22 C1.53 48.01, -1.3 34.78, -0.55 -0.67 M0.94 63.15 C-1.37 45, -1.07 25.39, 0.36 0.79" stroke="#d97706" stroke-width="2" fill="none"></path></g><g transform="translate(22.26007080078125 697.5) rotate(0 117.73992919921875 12.5)"><text x="117.73992919921875" y="NaN" font-family="Virgil, Segoe UI Emoji" font-size="20px" fill="#ffffff" text-anchor="middle" style="white-space: pre;" direction="ltr">Cassandra / DynamoDB</text></g><g stroke-linecap="round"><g transform="translate(361.56253779112285 710.9734012502023) rotate(0 -42.781268895561425 -0.18965590575783153)"><path d="M0.11 0.56 C-14.03 0.51, -71.03 -0.61, -85.47 -0.72 M-1.3 -0.2 C-15.52 -0.03, -72.56 0.38, -86.37 0.64" stroke="#40916c" stroke-width="2" fill="none"></path></g><g transform="translate(361.56253779112285 710.9734012502023) rotate(0 -42.781268895561425 -0.18965590575783153)"><path d="M-57.38 -9.81 C-65.79 -8.96, -71.67 -3.71, -87.62 2.43 M-57.45 -9.54 C-68.13 -7.46, -76.38 -3.54, -85.39 0.18" stroke="#40916c" stroke-width="2" fill="none"></path></g><g transform="translate(361.56253779112285 710.9734012502023) rotate(0 -42.781268895561425 -0.18965590575783153)"><path d="M-57.13 10.71 C-65.53 6.53, -71.47 6.75, -87.62 2.43 M-57.2 10.98 C-68.05 6.44, -76.38 3.74, -85.39 0.18" stroke="#40916c" stroke-width="2" fill="none"></path></g></g><g transform="translate(300.54601287841797 697.5) rotate(0 14.453987121582031 11.25)"><text x="14.453987121582031" y="NaN" font-family="Virgil, Segoe UI Emoji" font-size="18px" fill="#40916c" text-anchor="middle" style="white-space: pre;" direction="ltr">Yes</text></g><g stroke-linecap="round" transform="translate(690 678) rotate(0 130 32)"><path d="M-0.72 -1.29 L260.84 -1.33 L261.91 62.67 L-1.23 62.99" stroke="none" stroke-width="0" fill="#1e40af"></path><path d="M0.28 0 C62.27 -2.64, 126.05 -3.38, 259.66 -0.51 M0.21 -0.42 C54.79 2.11, 108.35 2.29, 260.53 0.44 M261.41 0.44 C260.6 21.53, 259.23 40.82, 260.4 62.11 M259.96 0.5 C260.66 16.69, 260.18 31.97, 259.52 64.4 M261.37 62.97 C176.41 61.91, 90.05 62.73, -1.42 64.15 M259.7 63.48 C183.31 64.61, 105.22 64.21, -0.49 64.46 M1.21 62.97 C-0.26 41.74, -0.95 24.12, 0.19 1.68 M0.68 63.14 C1.11 49.52, -0.53 35.68, -0.12 0.69" stroke="#3b82f6" stroke-width="2" fill="none"></path></g><g transform="translate(705.2500762939453 697.5) rotate(0 114.74992370605469 12.5)"><text x="114.74992370605469" y="NaN" font-family="Virgil, Segoe UI Emoji" font-size="20px" fill="#ffffff" text-anchor="middle" style="white-space: pre;" direction="ltr">Sharded SQL / Spanner</text></g><g stroke-linecap="round"><g transform="translate(598.4374622087262 710.9734011970526) rotate(0 42.78126889563691 -0.18965628473335983)"><path d="M-0.35 -0.13 C14.01 0.09, 71.19 0.19, 85.48 0.15 M1.67 -1.24 C15.92 -1.27, 70.68 -2.06, 84.49 -1.7" stroke="#40916c" stroke-width="2" fill="none"></path></g><g transform="translate(598.4374622087262 710.9734011970526) rotate(0 42.78126889563691 -0.18965628473335983)"><path d="M56.05 8.34 C64.16 5.75, 70.16 2.76, 84.89 -0.77 M55.93 9.01 C65.18 4.98, 73.43 1.94, 84.82 -2.14" stroke="#40916c" stroke-width="2" fill="none"></path></g><g transform="translate(598.4374622087262 710.9734011970526) rotate(0 42.78126889563691 -0.18965628473335983)"><path d="M56.11 -12.19 C64 -9.74, 69.99 -7.7, 84.89 -0.77 M56 -11.51 C65.34 -9.52, 73.58 -6.54, 84.82 -2.14" stroke="#40916c" stroke-width="2" fill="none"></path></g></g><g transform="translate(634.2180023193359 697.5) rotate(0 10.781997680664062 11.25)"><text x="10.781997680664062" y="NaN" font-family="Virgil, Segoe UI Emoji" font-size="18px" fill="#40916c" text-anchor="middle" style="white-space: pre;" direction="ltr">No</text></g></svg>