<svg version="1.1" xmlns="http://www.w3.org/2000/svg" viewBox="0 0 782.9909862271737 1166.8457980641792" width="782.9909862271737" height="1166.8457980641792">
  <!-- svg-source:excalidraw -->
  
  <defs>
    <style>
      @font-face {
        font-family: "Virgil";
        src: url("https://excalidraw.com/Virgil.woff2");
      }
      @font-face {
        font-family: "Cascadia";
        src: url("https://excalidraw.com/Cascadia.woff2");
      }
    </style>
  </defs>
  <rect x="0" y="0" width="782.9909862271737" height="1166.8457980641792" fill="#1e1e2e"></rect><g stroke-opacity="0.6" fill-opacity="0.6" stroke-linecap="round" transform="translate(10 10) rotate(0 381.49549311358686 103.96516328905385)"><path d="M-0.31 -1.4 L762.33 0.09 L762.25 207.45 L1.63 205.94" stroke="none" stroke-width="0" fill="#181825"></path><path d="M-0.76 -0.31 C263.14 -1.82, 526.45 -1.32, 763.69 0.79 M762.34 0.77 C763.58 52.91, 764.07 108.2, 764.58 207.35 M762.44 208.45 C465.13 207.43, 167.42 207.51, 0.41 208.62 M-1.47 206.51 C-1.28 161.78, -0.38 114.3, 0.12 0.36" stroke="#45475a" stroke-width="2.5" fill="none" stroke-dasharray="8 10"></path></g><g transform="translate(46.98037518835929 34.41282841338489) rotate(0 68.55296325683594 11.25)"><text x="0" y="NaN" font-family="Virgil, Segoe UI Emoji" font-size="18px" fill="#a6adc8" text-anchor="start" style="white-space: pre;" direction="ltr">Source Systems</text></g><g stroke-opacity="0.6" fill-opacity="0.6" stroke-linecap="round" transform="translate(101.81467132205648 246.9370605458546) rotate(0 266.49999999999994 121.5)"><path d="M1.97 0.96 L534.13 0.25 L534.61 243.81 L1.57 241.05" stroke="none" stroke-width="0" fill="#181825"></path><path d="M0.51 -0.48 C205.76 0.45, 409.93 -0.26, 533.24 0.42 M534.64 -0.85 C532.34 56.37, 532.48 114.3, 532.71 242.61 M533.3 242.38 C406.85 240.72, 281.14 240.77, 0.69 242.69 M0.77 242.88 C-2.17 170.38, -0.28 100.54, -1.13 1.09" stroke="#45475a" stroke-width="2.5" fill="none" stroke-dasharray="8 10"></path></g><g transform="translate(117.81467132205648 256.9370605458546) rotate(0 46.844970703125 11.25)"><text x="0" y="NaN" font-family="Virgil, Segoe UI Emoji" font-size="18px" fill="#a6adc8" text-anchor="start" style="white-space: pre;" direction="ltr">Extraction</text></g><g stroke-opacity="0.6" fill-opacity="0.6" stroke-linecap="round" transform="translate(82.55918343246287 587.7971944361778) rotate(0 288.5 121.5)"><path d="M-1.85 -0.92 L575.16 1.42 L578.34 241.88 L0.81 244.78" stroke="none" stroke-width="0" fill="#181825"></path><path d="M0.33 -0.28 C194.42 -0.8, 386.63 -0.76, 577.76 0.37 M576.45 1.52 C576.94 75.08, 574.91 151.91, 578.12 242.63 M577.37 243.67 C418.26 242.75, 258.39 242.44, 0.17 243.67 M-0.59 243.88 C-0.11 159.4, 0.14 75.23, 0.14 0.32" stroke="#45475a" stroke-width="2.5" fill="none" stroke-dasharray="8 10"></path></g><g transform="translate(98.55918343246287 597.7971944361778) rotate(0 67.37395477294922 11.25)"><text x="0" y="NaN" font-family="Virgil, Segoe UI Emoji" font-size="18px" fill="#a6adc8" text-anchor="start" style="white-space: pre;" direction="ltr">Transformation</text></g><g stroke-opacity="0.6" fill-opacity="0.6" stroke-linecap="round" transform="translate(141.46207065528085 913.8457980641792) rotate(0 250 121.5)"><path d="M-0.35 1.2 L499.34 -1.74 L501.64 241.51 L-1.2 243.73" stroke="none" stroke-width="0" fill="#181825"></path><path d="M0.16 0.31 C141.94 1.34, 283.59 1.47, 499.98 0.03 M499.73 1.51 C496.92 92.51, 499.59 184.72, 500.32 242.2 M499.66 243.04 C343.06 241.19, 186.97 242.18, -0.55 243.16 M-1.18 243.57 C-2.74 147.5, -0.04 49.75, -0.5 -1.49" stroke="#45475a" stroke-width="2.5" fill="none" stroke-dasharray="8 10"></path></g><g transform="translate(176.50899719713732 953.5605387750626) rotate(0 50.33695983886719 11.25)"><text x="0" y="NaN" font-family="Virgil, Segoe UI Emoji" font-size="18px" fill="#a6adc8" text-anchor="start" style="white-space: pre;" direction="ltr">Destination</text></g><g stroke-linecap="round" transform="translate(263.7265740229635 86.90957639676378) rotate(0 113 36.5)"><path d="M0.88 -1.61 L227.86 -1.04 L224.49 73.46 L0.72 72.43" stroke="none" stroke-width="0" fill="#2d6a4f"></path><path d="M0.55 1.45 C60.92 -1.74, 124.54 0.35, 226.06 0.92 M-0.35 -0.72 C81.71 -0.49, 164.97 -1.29, 226.5 -0.57 M225.38 0.4 C224.09 15.34, 226.78 31.45, 227.15 72.72 M225.49 0.36 C226.38 15.91, 224.83 31.3, 226.91 73.2 M224.71 73.22 C142.34 75.97, 56.26 73.12, -0.19 71.36 M226.55 72.54 C158.58 75.05, 91.74 73.84, 0.41 72.95 M-0.54 71.67 C-0.02 59.05, -1.01 40.31, 0.26 -0.38 M-0.63 73.1 C-0.77 56.56, -0.07 39.09, 0.43 0.68" stroke="#40916c" stroke-width="2" fill="none"></path></g><g transform="translate(288.95663841505336 110.90957639676378) rotate(0 87.76993560791016 12.5)"><text x="87.76993560791016" y="NaN" font-family="Virgil, Segoe UI Emoji" font-size="20px" fill="#fff" text-anchor="middle" style="white-space: pre;" direction="ltr">OLTP Databases</text></g><g stroke-linecap="round" transform="translate(536.7512545916003 83.29442679730323) rotate(0 107.5 36.5)"><path d="M-0.55 -0.37 L215.86 -0.04 L213.14 72.17 L-1.05 73.58" stroke="none" stroke-width="0" fill="#2d6a4f"></path><path d="M-0.39 -0.42 C51.56 1.52, 106.16 -1.6, 214.41 -0.07 M-0.01 0.72 C51.62 -1.2, 101.13 -1.2, 215.29 0.44 M213.95 2 C214.25 27.48, 215.64 52.68, 215.96 73.34 M214.22 -0.24 C215.16 20.37, 214.69 40.12, 215.99 72.15 M214.35 72.08 C170.98 74.37, 129.14 75.62, 1.09 73.7 M215.27 73.04 C157.47 71.64, 101.25 71.74, -0.66 73.05 M1.43 71.54 C-0.02 52, 1.74 28.46, -0.44 -0.22 M-0.14 73.32 C0 54.9, -1.22 38.28, 0.63 0.58" stroke="#40916c" stroke-width="2" fill="none"></path></g><g transform="translate(571.5613131853503 107.29442679730323) rotate(0 72.68994140625 12.5)"><text x="72.68994140625" y="NaN" font-family="Virgil, Segoe UI Emoji" font-size="20px" fill="#fff" text-anchor="middle" style="white-space: pre;" direction="ltr">Event Streams</text></g><g stroke-linecap="round" transform="translate(26.43716900787956 83.8572795029599) rotate(0 96.5 36.5)"><path d="M-0.27 -0.3 L191.63 -0.63 L192.12 71.91 L-1.02 71.14" stroke="none" stroke-width="0" fill="#2d6a4f"></path><path d="M-1.11 -1.13 C46.2 3.51, 94.92 0.07, 192.62 -1.16 M-0.61 0.71 C59.89 -0.65, 118.71 0.49, 193.96 0.93 M191.38 0.75 C192.59 25.34, 191.09 48.06, 194.71 72.11 M192.44 -0.57 C192.4 19.69, 192.89 37.4, 193.05 72.34 M193.33 71.63 C140.83 73.46, 88.4 76.67, -1.3 72.06 M193.42 73.45 C137.78 74.8, 82.51 74.97, -0.46 72.51 M1.36 72.01 C-1.83 43.98, 1.43 17.19, -1.52 1.93 M0.23 72.34 C0.36 45.74, 1.05 17.65, -0.31 0.65" stroke="#40916c" stroke-width="2" fill="none"></path></g><g transform="translate(61.91721051178581 107.8572795029599) rotate(0 61.01995849609375 12.5)"><text x="61.01995849609375" y="NaN" font-family="Virgil, Segoe UI Emoji" font-size="20px" fill="#fff" text-anchor="middle" style="white-space: pre;" direction="ltr">APIs / Logs</text></g><g stroke-linecap="round" transform="translate(156.72420541299925 359.94910031143286) rotate(0 206.50000000000006 36.5)"><path d="M-0.26 1.05 L413.53 -2 L414.63 71.65 L-0.45 74.94" stroke="none" stroke-width="0" fill="#b45309"></path><path d="M-0.62 -0.94 C111.99 -0.73, 221.85 -0.64, 413.53 1.08 M0.53 -0.11 C144.73 -0.64, 288.34 -0.28, 413.34 0.32 M413.25 0.68 C412.61 28.14, 411.89 58.55, 414.03 71.87 M412.75 -0.48 C413.51 16.07, 413.7 31.29, 413.94 73.77 M413.86 72.04 C274.12 72, 136.04 71.29, 0.42 73.19 M412.89 72.93 C275.07 72.69, 138.3 72.7, 0.37 72.64 M0.37 72.13 C2.29 51.62, 0.95 32.59, 0.57 1.74 M-0.87 73.5 C0.11 48.82, 0.88 25.48, -0.55 -0.64" stroke="#d97706" stroke-width="2" fill="none"></path></g><g transform="translate(197.24431649698363 383.94910031143286) rotate(0 165.97988891601568 12.5)"><text x="165.97988891601562" y="NaN" font-family="Virgil, Segoe UI Emoji" font-size="20px" fill="#fff" text-anchor="middle" style="white-space: pre;" direction="ltr">CDC / Full Scan / Stream Ingest</text></g><g stroke-linecap="round" transform="translate(142.73248101715114 684.1858622368768) rotate(0 228.5 36.5)"><path d="M-0.59 1.82 L455.75 -1.45 L457.04 74.57 L0.91 74.01" stroke="none" stroke-width="0" fill="#1e40af"></path><path d="M0.01 -0.87 C134.87 1.95, 271.28 0.79, 456.66 0.39 M-0.13 0.24 C165.77 0.94, 330.88 1.19, 456.64 0.07 M457.22 -1.31 C457.84 21.1, 456.84 39.95, 457.49 71.9 M457.81 0.82 C457.48 16.37, 458.17 33.16, 456.69 73.91 M457.21 72.92 C357.5 71.56, 257.8 73.05, -0.32 73.72 M456.84 72.7 C307.2 72.52, 157.93 72.8, -0.4 73.3 M1.9 71.59 C-1.04 54.99, -0.3 38.88, -1.9 -1.03 M0.4 72.07 C0.68 47.38, 0.61 22.32, 0.08 -0.74" stroke="#3b82f6" stroke-width="2" fill="none"></path></g><g transform="translate(197.5526104116824 708.1858622368768) rotate(0 173.67987060546875 12.5)"><text x="173.67987060546875" y="NaN" font-family="Virgil, Segoe UI Emoji" font-size="20px" fill="#fff" text-anchor="middle" style="white-space: pre;" direction="ltr">Clean, Deduplicate, Aggregate, Join</text></g><g stroke-linecap="round" transform="translate(207.65608437383196 1015.0878601364449) rotate(0 190 36.5)"><path d="M-1.18 -0.2 L378.66 1.8 L381.75 74.57 L0.97 71.11" stroke="none" stroke-width="0" fill="#5b21b6"></path><path d="M-0.28 -0.85 C86.02 0.11, 172.2 -0.05, 379.83 -0.53 M0.34 -0.23 C125.47 0.72, 250.98 1.3, 380.48 0.22 M380.81 -1.34 C379.48 20.32, 380.98 41.63, 379.73 71.72 M380.84 -0.98 C380.04 29.91, 381.27 57.82, 380.81 72.69 M380.81 73.81 C279.71 73.94, 177.47 73.87, 0.11 72.93 M380.22 72.97 C293.68 70.96, 207.19 71.66, 0.42 72.53 M-0.13 74.48 C-0.03 55.91, 0.13 36, 0.8 -1.74 M0.32 72.16 C0.61 45.48, 1.55 17.64, -0.82 0" stroke="#7c3aed" stroke-width="2" fill="none"></path></g><g transform="translate(243.63618691289446 1039.0878601364448) rotate(0 154.0198974609375 12.5)"><text x="154.0198974609375" y="NaN" font-family="Virgil, Segoe UI Emoji" font-size="20px" fill="#fff" text-anchor="middle" style="white-space: pre;" direction="ltr">Warehouse / Lake / Lakehouse</text></g><g stroke-linecap="round"><g transform="translate(376.96085509572424 165.90957639676378) rotate(0 3.317034011974215 94.01976195733454)"><path d="M0.1 -0.59 C1.47 30.79, 6.41 156.21, 7.58 187.76 M-1.3 1.72 C0.05 33.32, 5.8 158.32, 7.13 189.15" stroke="#40916c" stroke-width="2" fill="none"></path></g><g transform="translate(376.96085509572424 165.90957639676378) rotate(0 3.317034011974215 94.01976195733454)"><path d="M-5.36 163.02 C-2.13 169.1, 2.28 176.8, 7.38 189.3 M-5.32 161.99 C-2.46 167.71, 1.18 173.56, 7.46 188.89" stroke="#40916c" stroke-width="2" fill="none"></path></g><g transform="translate(376.96085509572424 165.90957639676378) rotate(0 3.317034011974215 94.01976195733454)"><path d="M15.14 162.1 C13.31 168.43, 12.66 176.35, 7.38 189.3 M15.18 161.08 C13.49 167.08, 12.58 173.14, 7.46 188.89" stroke="#40916c" stroke-width="2" fill="none"></path></g></g><g stroke-linecap="round"><g transform="translate(614.2177300273971 162.29442679730323) rotate(0 -67.77853514028857 95.82733675706481)"><path d="M-0.9 -0.53 C-23.52 31.76, -113.68 160.55, -136.28 192.59 M0.83 1.8 C-21.35 33.87, -111.45 159.08, -133.94 190.96" stroke="#40916c" stroke-width="2" fill="none"></path></g><g transform="translate(614.2177300273971 162.29442679730323) rotate(0 -67.77853514028857 95.82733675706481)"><path d="M-126.81 160.85 C-126.66 167.66, -130.09 176.34, -134.72 192.19 M-125.75 161.24 C-127.44 169.6, -130.43 177.33, -133.08 190.72" stroke="#40916c" stroke-width="2" fill="none"></path></g><g transform="translate(614.2177300273971 162.29442679730323) rotate(0 -67.77853514028857 95.82733675706481)"><path d="M-110.11 172.76 C-114.03 176.46, -121.66 182.15, -134.72 192.19 M-109.04 173.16 C-115.12 178.31, -122.5 182.91, -133.08 190.72" stroke="#40916c" stroke-width="2" fill="none"></path></g></g><g stroke-linecap="round"><g transform="translate(152.32659152746248 162.28701234667056) rotate(0 58.30294063599399 95.83104398238115)"><path d="M-0.4 0.63 C18.79 32.63, 96.62 160.15, 116.01 192.15 M1.58 -0.09 C21.11 31.54, 99.53 158.46, 118.41 190.28" stroke="#40916c" stroke-width="2" fill="none"></path></g><g transform="translate(152.32659152746248 162.28701234667056) rotate(0 58.30294063599399 95.83104398238115)"><path d="M96.05 170.53 C104.49 177.48, 113.98 186.62, 119.98 188.72 M94.38 172.1 C100.41 176.83, 107.78 181.89, 117.59 190.04" stroke="#40916c" stroke-width="2" fill="none"></path></g><g transform="translate(152.32659152746248 162.28701234667056) rotate(0 58.30294063599399 95.83104398238115)"><path d="M113.59 159.88 C115.56 170.7, 118.57 183.78, 119.98 188.72 M111.92 161.45 C113.53 168.76, 116.41 176.56, 117.59 190.04" stroke="#40916c" stroke-width="2" fill="none"></path></g></g><g stroke-linecap="round"><g transform="translate(361.3466772668288 431.00000284388346) rotate(0 4.196971640546849 123.59292969649667)"><path d="M0.47 0.56 C1.96 41.55, 7.37 205.99, 8.56 246.92 M-0.75 -0.19 C0.63 40.9, 5.89 207.14, 7.7 248.31" stroke="#d97706" stroke-width="2" fill="none"></path></g><g transform="translate(361.3466772668288 431.00000284388346) rotate(0 4.196971640546849 123.59292969649667)"><path d="M-2.66 220.79 C-0.8 226.58, 0.83 234.89, 6.51 250 M-3.03 220.64 C-0.51 227.42, 3.19 235.69, 7.87 247.75" stroke="#d97706" stroke-width="2" fill="none"></path></g><g transform="translate(361.3466772668288 431.00000284388346) rotate(0 4.196971640546849 123.59292969649667)"><path d="M17.84 220.04 C14.23 226.1, 10.39 234.62, 6.51 250 M17.47 219.89 C14.52 226.67, 12.73 235.14, 7.87 247.75" stroke="#d97706" stroke-width="2" fill="none"></path></g></g><g stroke-linecap="round"><g transform="translate(371.4095001803174 763.1858622368768) rotate(0 2.953126224393941 127.29184251721523)"><path d="M-0.29 -0.67 C0.44 41.79, 4.35 211.25, 5.58 253.7 M1.76 1.59 C2.2 44.28, 3.59 212.53, 4.46 254.78" stroke="#d97706" stroke-width="2" fill="none"></path></g><g transform="translate(371.4095001803174 763.1858622368768) rotate(0 2.953126224393941 127.29184251721523)"><path d="M-7.3 226.18 C-3.68 239.89, 1.15 249.74, 2.72 254.37 M-5.56 226.26 C-2.91 237.23, 1.72 249.81, 4.85 255.24" stroke="#d97706" stroke-width="2" fill="none"></path></g><g transform="translate(371.4095001803174 763.1858622368768) rotate(0 2.953126224393941 127.29184251721523)"><path d="M13.22 225.9 C8.68 239.67, 5.36 249.63, 2.72 254.37 M14.96 225.98 C9.41 237.24, 5.85 249.93, 4.85 255.24" stroke="#d97706" stroke-width="2" fill="none"></path></g></g></svg>