<svg version="1.1" xmlns="http://www.w3.org/2000/svg" viewBox="0 0 1450 866" width="1450" height="866">
  <!-- svg-source:excalidraw -->
  
  <defs>
    <style>
      @font-face {
        font-family: "Virgil";
        src: url("https://excalidraw.com/Virgil.woff2");
      }
      @font-face {
        font-family: "Cascadia";
        src: url("https://excalidraw.com/Cascadia.woff2");
      }
    </style>
  </defs>
  <rect x="0" y="0" width="1450" height="866" fill="#1e1e2e"></rect><g transform="translate(10 10) rotate(0 209.59490966796875 18.75)"><text x="0" y="NaN" font-family="Virgil, Segoe UI Emoji" font-size="30px" fill="#ff8c42" text-anchor="start" style="white-space: pre;" direction="ltr">Database Design Dimensions</text></g><g transform="translate(10 52) rotate(0 368.8377685546875 11.25)"><text x="0" y="NaN" font-family="Virgil, Segoe UI Emoji" font-size="18px" fill="#c9d1d9" text-anchor="start" style="white-space: pre;" direction="ltr">Each database is a coordinate across 4 independent axes — pick your tradeoffs.</text></g><g stroke-linecap="round" transform="translate(1150 102) rotate(0 145 122.5)"><path d="M-0.95 -1.56 L290.23 -0.65 L291.56 246.31 L-1.04 246.39" stroke="none" stroke-width="0" fill="#161b22"></path><path d="M-1.44 0.4 C115.04 -0.34, 232.78 -0.56, 288.98 1.5 M-0.64 0.67 C61.61 -1.68, 122.61 -1.47, 290.13 -0.25 M291.11 1.06 C290.44 74.2, 290.86 150.11, 291.44 245.84 M290.33 -0.34 C289.69 73.35, 289.53 147.41, 289.74 244.52 M289.08 243.57 C197.9 245.51, 107.5 246.45, 0.46 244.27 M289.56 245.36 C223.75 244.74, 158.86 246.13, -0.63 245.33 M1.29 243.78 C0.51 185.76, 0.7 125.76, 1.23 -1.54 M-0.28 245.57 C1.22 171.35, 1.25 97.56, 0.08 -0.59" stroke="#30363d" stroke-width="2" fill="none"></path></g><g transform="translate(1166 114) rotate(0 106.45392608642578 10.625)"><text x="0" y="NaN" font-family="Virgil, Segoe UI Emoji" font-size="17px" fill="#e6edf3" text-anchor="start" style="white-space: pre;" direction="ltr">Databases plotted below</text></g><g stroke-linecap="round" transform="translate(1172 150) rotate(0 11 11)"><path d="M13.79 1.35 C16 1.98, 18.82 3.15, 20.15 5.09 C21.48 7.02, 21.94 10.59, 21.78 12.95 C21.63 15.32, 20.81 17.81, 19.21 19.28 C17.6 20.75, 14.63 21.84, 12.15 21.76 C9.67 21.69, 6.27 20.27, 4.34 18.84 C2.41 17.4, 1.17 15.47, 0.55 13.15 C-0.06 10.84, -0.47 6.88, 0.66 4.95 C1.8 3.02, 4.92 2.34, 7.38 1.56 C9.85 0.79, 13.8 0.2, 15.48 0.28 C17.15 0.36, 17.57 1.64, 17.43 2.03 M11.77 0.16 C14.08 0.15, 17.14 2.01, 18.65 3.42 C20.15 4.82, 20.29 6.61, 20.8 8.6 C21.31 10.59, 22.69 13.44, 21.7 15.35 C20.7 17.27, 16.97 19.31, 14.83 20.08 C12.69 20.84, 10.97 20.31, 8.85 19.95 C6.73 19.58, 3.52 19.55, 2.13 17.88 C0.74 16.21, 0.22 12.38, 0.51 9.93 C0.8 7.48, 2.27 4.59, 3.89 3.18 C5.51 1.77, 8.86 2.06, 10.25 1.46 C11.64 0.86, 12.34 -0.28, 12.24 -0.43" stroke="none" stroke-width="0" fill="#58a6ff"></path><path d="M7.14 1.73 C9 0.52, 12.19 -0.97, 14.24 -0.48 C16.3 0.02, 18.3 2.5, 19.44 4.71 C20.58 6.91, 21.37 10.3, 21.09 12.77 C20.8 15.25, 19.23 17.9, 17.76 19.56 C16.28 21.21, 14.31 22.62, 12.23 22.72 C10.14 22.82, 7.35 21.86, 5.27 20.16 C3.2 18.45, 0.37 14.93, -0.23 12.49 C-0.82 10.06, 0.35 7.55, 1.72 5.54 C3.08 3.53, 6.83 1.24, 7.94 0.41 C9.06 -0.42, 8.39 0.34, 8.4 0.58 M10.8 0.5 C13.24 0.05, 15.35 0.06, 17.26 1.34 C19.17 2.61, 21.82 5.6, 22.26 8.15 C22.7 10.69, 20.92 14.47, 19.91 16.6 C18.91 18.73, 17.98 20.2, 16.24 20.92 C14.49 21.64, 11.54 21.4, 9.45 20.94 C7.35 20.49, 5.3 20.1, 3.67 18.19 C2.05 16.28, -0.08 11.69, -0.28 9.47 C-0.47 7.26, 0.8 6.69, 2.51 4.89 C4.22 3.08, 8.86 -0.54, 9.98 -1.37 C11.11 -2.21, 9.21 -0.71, 9.26 -0.1" stroke="#58a6ff" stroke-width="2" fill="none"></path></g><g transform="translate(1206 152) rotate(0 51.416969299316406 11.25)"><text x="0" y="NaN" font-family="Virgil, Segoe UI Emoji" font-size="18px" fill="#c9d1d9" text-anchor="start" style="white-space: pre;" direction="ltr">PostgreSQL</text></g><g stroke-linecap="round" transform="translate(1172 186) rotate(0 11 11)"><path d="M9.05 0.19 C11.13 -0.44, 13.87 0.34, 15.88 1.39 C17.89 2.45, 20.13 4.31, 21.11 6.55 C22.09 8.79, 22.5 12.6, 21.76 14.84 C21.03 17.08, 18.74 18.88, 16.71 20 C14.68 21.11, 12.11 21.77, 9.59 21.55 C7.06 21.33, 3.06 20.6, 1.58 18.67 C0.1 16.75, 0.58 12.55, 0.71 9.99 C0.84 7.43, 0.55 5.05, 2.35 3.33 C4.14 1.61, 9.52 0.29, 11.48 -0.36 C13.44 -1, 14.27 -0.94, 14.09 -0.55 M7.5 0.2 C9.55 -1.16, 13.09 -0.95, 15.11 -0.27 C17.14 0.42, 18.78 2.27, 19.67 4.31 C20.56 6.35, 20.61 9.65, 20.47 11.98 C20.34 14.3, 20.02 16.57, 18.86 18.28 C17.7 20, 15.79 22.18, 13.51 22.27 C11.23 22.36, 7.58 20.41, 5.18 18.82 C2.78 17.22, 0 14.83, -0.91 12.69 C-1.82 10.56, -1.72 7.93, -0.27 6.03 C1.17 4.13, 6.68 2.23, 7.76 1.31 C8.84 0.4, 6.3 0.54, 6.2 0.53" stroke="none" stroke-width="0" fill="#3fb950"></path><path d="M11.39 -0.69 C13.7 -0.67, 16.26 0.8, 18.18 2.47 C20.09 4.14, 22.52 6.97, 22.87 9.34 C23.23 11.71, 21.8 14.62, 20.31 16.67 C18.82 18.71, 16.26 20.9, 13.94 21.6 C11.61 22.31, 8.36 21.76, 6.35 20.92 C4.34 20.08, 2.96 18.52, 1.88 16.57 C0.8 14.62, -0.72 11.7, -0.16 9.22 C0.41 6.74, 3.18 3.05, 5.27 1.68 C7.36 0.3, 10.92 1.14, 12.38 0.96 C13.85 0.78, 14.21 0.66, 14.06 0.61 M9.91 1.13 C12.27 0.66, 17.19 0.13, 19.24 1.56 C21.29 2.98, 21.75 7.2, 22.19 9.7 C22.63 12.19, 23.26 14.57, 21.89 16.53 C20.52 18.49, 16.26 20.84, 13.97 21.46 C11.69 22.07, 10.09 20.82, 8.18 20.24 C6.28 19.66, 3.81 19.78, 2.55 17.99 C1.3 16.21, 0.46 12.16, 0.63 9.53 C0.81 6.9, 1.9 3.7, 3.6 2.23 C5.3 0.77, 9.76 1.08, 10.83 0.75 C11.89 0.41, 10.11 -0.05, 9.97 0.22" stroke="#3fb950" stroke-width="2" fill="none"></path></g><g transform="translate(1206 188) rotate(0 39.14098358154297 11.25)"><text x="0" y="NaN" font-family="Virgil, Segoe UI Emoji" font-size="18px" fill="#c9d1d9" text-anchor="start" style="white-space: pre;" direction="ltr">MongoDB</text></g><g stroke-linecap="round" transform="translate(1172 222) rotate(0 11 11)"><path d="M8.31 0.3 C10.7 -0.14, 14.7 0.72, 16.9 1.76 C19.11 2.8, 20.64 4.31, 21.53 6.51 C22.42 8.71, 22.98 12.65, 22.24 14.95 C21.5 17.26, 19.46 19.34, 17.11 20.35 C14.75 21.36, 10.47 21.54, 8.13 21.03 C5.78 20.53, 4.46 19.09, 3.06 17.29 C1.66 15.49, -0.35 12.35, -0.28 10.22 C-0.21 8.1, 1.78 6.33, 3.46 4.53 C5.14 2.72, 8.27 0.13, 9.79 -0.61 C11.31 -1.36, 12.62 -0.41, 12.58 0.04 M16.11 1.88 C18.27 2.63, 20.53 3.38, 21.67 5.26 C22.81 7.15, 23.53 10.78, 22.95 13.17 C22.37 15.56, 20.33 18.25, 18.18 19.59 C16.02 20.93, 12.38 21.37, 10.03 21.23 C7.68 21.08, 5.9 20.18, 4.09 18.72 C2.29 17.27, -0.17 14.79, -0.8 12.5 C-1.44 10.21, -0.94 6.98, 0.29 4.98 C1.52 2.98, 4.24 1.24, 6.56 0.5 C8.89 -0.25, 12.64 0.24, 14.23 0.51 C15.83 0.77, 16.02 1.85, 16.13 2.07" stroke="none" stroke-width="0" fill="#f0883e"></path><path d="M16.81 0.74 C18.88 1.5, 19.97 4.44, 20.61 6.75 C21.25 9.05, 21.44 12.33, 20.67 14.55 C19.9 16.78, 17.73 19.01, 16 20.09 C14.27 21.16, 12.48 21.25, 10.28 21.03 C8.09 20.8, 4.57 20.21, 2.81 18.73 C1.04 17.25, -0.23 14.66, -0.29 12.16 C-0.34 9.67, 1.07 5.87, 2.48 3.76 C3.89 1.64, 5.87 -0.25, 8.18 -0.54 C10.48 -0.83, 14.92 1.67, 16.32 2.03 C17.73 2.39, 16.82 1.73, 16.6 1.64 M15.16 -0.14 C17.09 0.83, 20.31 4.64, 21.27 7.12 C22.22 9.59, 21.33 12.72, 20.89 14.7 C20.45 16.68, 20.36 17.6, 18.64 18.99 C16.93 20.39, 13.08 22.93, 10.62 23.09 C8.16 23.25, 5.52 21.76, 3.86 19.96 C2.21 18.17, 0.9 14.69, 0.68 12.32 C0.45 9.96, 1.44 7.88, 2.51 5.78 C3.59 3.68, 5.15 0.59, 7.13 -0.27 C9.11 -1.13, 13.25 0.2, 14.38 0.63 C15.52 1.07, 13.64 2.03, 13.95 2.35" stroke="#f0883e" stroke-width="2" fill="none"></path></g><g transform="translate(1206 224) rotate(0 46.77296447753906 11.25)"><text x="0" y="NaN" font-family="Virgil, Segoe UI Emoji" font-size="18px" fill="#c9d1d9" text-anchor="start" style="white-space: pre;" direction="ltr">Cassandra</text></g><g stroke-linecap="round" transform="translate(1172 258) rotate(0 11 11)"><path d="M6.37 2.01 C8.2 0.85, 11.2 -0.64, 13.43 -0.35 C15.66 -0.06, 18.44 1.64, 19.73 3.77 C21.03 5.9, 21.2 9.95, 21.2 12.46 C21.19 14.96, 21.18 17.18, 19.71 18.82 C18.25 20.46, 14.9 21.95, 12.4 22.29 C9.91 22.63, 6.83 22.31, 4.73 20.84 C2.63 19.37, 0.49 15.85, -0.2 13.44 C-0.9 11.04, -0.59 8.43, 0.55 6.4 C1.69 4.37, 5.45 2.24, 6.65 1.25 C7.84 0.26, 7.5 0.44, 7.71 0.44 M7.99 0.14 C10.28 -0.59, 14.02 -0.99, 16.17 0.01 C18.32 1.01, 19.81 3.87, 20.91 6.12 C22.01 8.36, 23.47 11.3, 22.79 13.49 C22.11 15.69, 19.2 17.78, 16.83 19.3 C14.46 20.82, 10.77 22.6, 8.58 22.63 C6.38 22.66, 4.88 21.55, 3.65 19.47 C2.42 17.39, 1.13 12.7, 1.18 10.16 C1.23 7.62, 2.49 6.08, 3.95 4.23 C5.42 2.39, 9.27 -0.38, 9.94 -0.91 C10.62 -1.45, 8.3 0.73, 8.03 1.04" stroke="none" stroke-width="0" fill="#d670c2"></path><path d="M9.12 0.1 C11.39 -0.19, 15.04 1.16, 17.2 2.39 C19.35 3.63, 21.19 5.56, 22.05 7.53 C22.91 9.5, 23.17 12.02, 22.36 14.19 C21.54 16.36, 19.44 19.31, 17.19 20.55 C14.94 21.78, 11.12 21.82, 8.86 21.58 C6.6 21.35, 4.95 20.75, 3.62 19.12 C2.29 17.5, 0.9 14.5, 0.87 11.85 C0.84 9.19, 1.71 5.28, 3.44 3.2 C5.17 1.12, 9.83 -0.12, 11.25 -0.6 C12.67 -1.09, 11.92 0.14, 11.95 0.31 M9.54 -0.22 C12.21 -0.61, 16.85 1.03, 18.86 2.35 C20.87 3.66, 21.22 5.34, 21.61 7.69 C22 10.03, 22.24 14.41, 21.22 16.4 C20.19 18.4, 17.43 18.56, 15.45 19.66 C13.47 20.76, 11.65 23.42, 9.32 23.01 C6.98 22.6, 3.25 19.46, 1.45 17.21 C-0.34 14.95, -1.97 11.64, -1.44 9.47 C-0.9 7.31, 2.8 5.87, 4.66 4.22 C6.52 2.58, 8.87 0.5, 9.75 -0.38 C10.63 -1.27, 9.77 -1.33, 9.92 -1.09" stroke="#d670c2" stroke-width="2" fill="none"></path></g><g transform="translate(1206 260) rotate(0 45.69297790527344 11.25)"><text x="0" y="NaN" font-family="Virgil, Segoe UI Emoji" font-size="18px" fill="#c9d1d9" text-anchor="start" style="white-space: pre;" direction="ltr">DynamoDB</text></g><g stroke-linecap="round" transform="translate(1172 294) rotate(0 11 11)"><path d="M11.71 0.33 C13.93 0.27, 17.25 0.98, 18.8 2.47 C20.34 3.96, 20.79 6.96, 21 9.29 C21.21 11.61, 21.19 14.34, 20.08 16.43 C18.97 18.53, 16.48 21.02, 14.34 21.86 C12.2 22.71, 9.46 22.44, 7.22 21.52 C4.98 20.61, 2.17 18.56, 0.91 16.39 C-0.34 14.21, -0.76 10.91, -0.33 8.48 C0.1 6.04, 1.49 3.07, 3.49 1.79 C5.5 0.52, 10.06 1.05, 11.7 0.82 C13.34 0.59, 13.13 0.22, 13.32 0.4 M7.77 1.92 C10 1.11, 13.13 -0.62, 15.18 -0.04 C17.23 0.55, 18.9 3.51, 20.09 5.43 C21.29 7.36, 22.87 9.41, 22.37 11.52 C21.86 13.63, 19.15 16.23, 17.06 18.09 C14.97 19.95, 11.97 22.29, 9.85 22.66 C7.74 23.03, 5.89 21.64, 4.38 20.3 C2.87 18.96, 1.47 16.88, 0.79 14.61 C0.1 12.34, -0.82 8.93, 0.25 6.65 C1.32 4.37, 6.05 2.1, 7.22 0.93 C8.4 -0.24, 7.21 -0.77, 7.3 -0.39" stroke="none" stroke-width="0" fill="#a371f7"></path><path d="M7.94 0.64 C9.88 0.08, 13.33 0.07, 15.38 1.05 C17.42 2.02, 19.19 4.48, 20.23 6.51 C21.27 8.54, 22.2 11.09, 21.64 13.21 C21.07 15.33, 18.73 17.72, 16.83 19.22 C14.92 20.71, 12.46 22.26, 10.21 22.18 C7.96 22.11, 4.99 20.62, 3.32 18.76 C1.64 16.91, 0.27 13.52, 0.16 11.05 C0.05 8.59, 0.81 5.9, 2.68 3.97 C4.55 2.04, 9.8 0.13, 11.37 -0.55 C12.93 -1.24, 12.05 -0.55, 12.08 -0.12 M14.66 0.28 C16.54 0.54, 17.64 3.21, 18.69 5 C19.74 6.78, 20.94 8.93, 20.95 10.97 C20.97 13.02, 20.36 15.5, 18.78 17.27 C17.19 19.04, 13.63 21.1, 11.43 21.6 C9.24 22.09, 7.17 21.64, 5.58 20.25 C4 18.86, 2.9 15.73, 1.92 13.28 C0.93 10.82, -0.8 7.61, -0.35 5.52 C0.1 3.43, 2.15 1.43, 4.61 0.73 C7.07 0.03, 12.96 1.15, 14.39 1.31 C15.81 1.48, 13.13 1.67, 13.15 1.71" stroke="#a371f7" stroke-width="2" fill="none"></path></g><g transform="translate(1206 296) rotate(0 33.11097717285156 11.25)"><text x="0" y="NaN" font-family="Virgil, Segoe UI Emoji" font-size="18px" fill="#c9d1d9" text-anchor="start" style="white-space: pre;" direction="ltr">Spanner</text></g><g transform="translate(30 122) rotate(0 76.15296173095703 13.75)"><text x="0" y="NaN" font-family="Virgil, Segoe UI Emoji" font-size="22px" fill="#e6edf3" text-anchor="start" style="white-space: pre;" direction="ltr">1. Data Model</text></g><g stroke-linecap="round" transform="translate(50 169) rotate(0 525 3)"><path d="M-0.21 1.19 L1049.58 -1.05 L1050.78 4.72 L1.55 4.57" stroke="none" stroke-width="0" fill="#21262d"></path><path d="M0.26 -0.63 C352.13 -1.27, 703.25 -1.12, 1050.13 -0.36 M-0.24 -0.07 C300.71 1.28, 600.98 1.54, 1050.19 -0.01 M1050.03 -0.02 C1050.45 1.1, 1050.5 2.71, 1050.21 5.57 M1050.19 -0.28 C1050.31 1.9, 1049.83 4.14, 1050.03 5.86 M1049.25 6.64 C824.13 8.93, 599.11 8.58, 0.43 5.96 M1049.77 6.38 C694.69 7.3, 338.92 7.55, 0.14 5.75 M0.52 5.93 C0.24 4.69, -0.11 2.81, -0.34 -0.01 M-0.17 6.13 C-0.14 3.5, -0.16 1.65, 0.05 -0.1" stroke="#8b949e" stroke-width="1" fill="none"></path></g><g stroke-linecap="round"><g transform="translate(50 158) rotate(0 0 14)"><path d="M0.38 0.88 C0.17 5.67, -1.29 23.63, -1.19 28.17 M-0.88 0.29 C-0.75 5.36, 0.63 24.93, 0.89 29.8" stroke="#8b949e" stroke-width="2" fill="none"></path></g></g><g stroke-linecap="round"><g transform="translate(1100 158) rotate(0 0 14)"><path d="M0.35 -1.09 C0.34 3.4, -0.16 23.11, -0.41 27.89 M-0.93 0.95 C-1.1 5.56, -1.92 24.75, -1.58 29.37" stroke="#8b949e" stroke-width="2" fill="none"></path></g></g><g stroke-linecap="round"><g transform="translate(50 162) rotate(0 0 10)"><path d="M-0.38 -0.78 C-0.19 2.64, 0.99 16.92, 0.97 20.2 M1.62 1.42 C1.75 4.49, 1.05 15.15, 0.53 18.18" stroke="#8b949e" stroke-width="1" fill="none"></path></g></g><g transform="translate(13.325042724609375 200) rotate(0 36.674957275390625 9.375)"><text x="36.674957275390625" y="NaN" font-family="Virgil, Segoe UI Emoji" font-size="15px" fill="#8b949e" text-anchor="middle" style="white-space: pre;" direction="ltr">Relational</text></g><g stroke-linecap="round"><g transform="translate(312 162) rotate(0 0 10)"><path d="M0.28 -0.55 C0.27 3.1, -0.7 17.55, -0.69 21.17 M-1.04 1.77 C-0.59 5.18, 1.53 16.72, 1.66 19.66" stroke="#8b949e" stroke-width="1" fill="none"></path></g></g><g transform="translate(277.3800277709961 200) rotate(0 34.619972229003906 9.375)"><text x="34.619972229003906" y="NaN" font-family="Virgil, Segoe UI Emoji" font-size="15px" fill="#8b949e" text-anchor="middle" style="white-space: pre;" direction="ltr">Document</text></g><g stroke-linecap="round"><g transform="translate(575 162) rotate(0 0 10)"><path d="M0.84 -0.93 C0.92 2.37, 0.82 16.78, 0.74 20.21 M-0.17 1.2 C-0.22 4.08, 0.19 14.93, 0.19 18.2" stroke="#8b949e" stroke-width="1" fill="none"></path></g></g><g transform="translate(532.8425521850586 200) rotate(0 42.157447814941406 9.375)"><text x="42.157447814941406" y="NaN" font-family="Virgil, Segoe UI Emoji" font-size="15px" fill="#8b949e" text-anchor="middle" style="white-space: pre;" direction="ltr">Wide-Column</text></g><g stroke-linecap="round"><g transform="translate(837 162) rotate(0 0 10)"><path d="M0.59 0.41 C0.39 4.08, -0.54 17.52, -0.81 20.87 M-0.56 -0.42 C-0.41 3.02, 1.16 16.07, 1.47 19.21" stroke="#8b949e" stroke-width="1" fill="none"></path></g></g><g transform="translate(802.4850463867188 200) rotate(0 34.51495361328125 9.375)"><text x="34.51495361328125" y="NaN" font-family="Virgil, Segoe UI Emoji" font-size="15px" fill="#8b949e" text-anchor="middle" style="white-space: pre;" direction="ltr">Key-Value</text></g><g stroke-linecap="round"><g transform="translate(1100 162) rotate(0 0 10)"><path d="M0.07 -0.67 C-0.15 2.42, -0.65 15.98, -0.6 19.57 M-1.35 1.6 C-1.24 5.38, 1.61 17.98, 1.8 20.89" stroke="#8b949e" stroke-width="1" fill="none"></path></g></g><g transform="translate(1078.452522277832 200) rotate(0 21.54747772216797 9.375)"><text x="21.54747772216797" y="NaN" font-family="Virgil, Segoe UI Emoji" font-size="15px" fill="#8b949e" text-anchor="middle" style="white-space: pre;" direction="ltr">Graph</text></g><g stroke-linecap="round" transform="translate(36 142) rotate(0 14 14)"><path d="M8.45 2.31 C10.93 0.9, 14.25 0.4, 16.95 1.07 C19.64 1.74, 22.86 4.08, 24.63 6.3 C26.39 8.52, 27.79 11.48, 27.51 14.38 C27.24 17.29, 25.02 21.57, 22.97 23.72 C20.93 25.88, 17.99 26.91, 15.24 27.31 C12.49 27.71, 9.04 27.58, 6.5 26.14 C3.96 24.7, 0.76 21.72, -0.01 18.66 C-0.77 15.59, 0.54 10.67, 1.91 7.75 C3.28 4.82, 6.83 2.19, 8.22 1.12 C9.61 0.04, 9.89 1.01, 10.27 1.28 M13.21 1.36 C15.96 0.91, 20.79 1.32, 23.27 3 C25.76 4.68, 27.82 8.73, 28.12 11.47 C28.41 14.2, 26.66 16.82, 25.04 19.43 C23.42 22.04, 20.98 25.72, 18.4 27.11 C15.82 28.5, 12.28 28.78, 9.58 27.79 C6.88 26.79, 3.91 23.82, 2.19 21.14 C0.47 18.45, -1.28 14.47, -0.73 11.69 C-0.19 8.91, 3.01 6.18, 5.44 4.46 C7.88 2.73, 12.44 2.19, 13.87 1.34 C15.3 0.48, 13.8 -0.73, 14.02 -0.67" stroke="none" stroke-width="0" fill="#1e1e2e"></path><path d="M13.39 0.56 C16.27 0.58, 20.26 1.88, 22.64 3.59 C25.02 5.31, 27.16 7.98, 27.65 10.84 C28.14 13.69, 27.14 17.84, 25.59 20.71 C24.04 23.58, 21.09 27.06, 18.36 28.07 C15.63 29.09, 12.09 28.04, 9.21 26.79 C6.32 25.55, 2.69 23.14, 1.03 20.62 C-0.62 18.1, -1.26 14.67, -0.7 11.67 C-0.15 8.67, 1.79 4.71, 4.37 2.63 C6.94 0.56, 12.9 -0.47, 14.74 -0.8 C16.57 -1.12, 15.43 0.41, 15.37 0.71 M20.23 0.15 C22.57 1.17, 23.62 4.3, 24.78 6.88 C25.94 9.47, 27.43 12.73, 27.19 15.66 C26.95 18.58, 25.4 22.19, 23.35 24.44 C21.3 26.7, 18.04 29.25, 14.89 29.2 C11.74 29.15, 6.85 26.12, 4.44 24.14 C2.03 22.17, 0.77 20.12, 0.43 17.35 C0.09 14.59, 0.84 10.41, 2.41 7.55 C3.98 4.68, 7.12 1.29, 9.86 0.17 C12.59 -0.96, 17.13 0.52, 18.82 0.79 C20.51 1.05, 20.02 1.53, 19.99 1.76" stroke="#1e1e2e" stroke-width="2" fill="none"></path></g><g stroke-linecap="round" transform="translate(38 144) rotate(0 12 12)"><path d="M16.67 1.42 C19.06 2.11, 21.75 3.6, 23.01 5.99 C24.28 8.38, 24.88 13.23, 24.25 15.74 C23.62 18.26, 21.6 19.61, 19.25 21.11 C16.9 22.6, 12.78 24.7, 10.16 24.73 C7.55 24.77, 5.28 23.2, 3.56 21.32 C1.83 19.43, 0.13 16.13, -0.17 13.42 C-0.48 10.71, 0.24 7.05, 1.73 5.04 C3.22 3.02, 5.93 1.88, 8.77 1.33 C11.61 0.77, 16.95 1.4, 18.77 1.71 C20.58 2.01, 19.92 3.13, 19.67 3.16 M8.15 2.37 C10.28 1.32, 13.12 1.36, 15.36 1.68 C17.61 1.99, 20.4 2.26, 21.61 4.25 C22.83 6.24, 23.02 11.03, 22.66 13.61 C22.31 16.19, 21.31 17.83, 19.48 19.72 C17.66 21.6, 13.9 24.82, 11.7 24.94 C9.51 25.06, 8.27 22.25, 6.34 20.43 C4.41 18.62, 0.79 16.19, 0.14 14.06 C-0.52 11.92, 1.43 9.7, 2.4 7.64 C3.38 5.58, 5.23 2.61, 5.98 1.69 C6.73 0.77, 6.76 1.87, 6.91 2.13" stroke="none" stroke-width="0" fill="#58a6ff"></path><path d="M8.7 1.02 C10.91 0.06, 13.79 0.1, 16.19 0.76 C18.58 1.42, 21.74 2.83, 23.08 4.97 C24.41 7.11, 24.87 10.9, 24.18 13.59 C23.49 16.29, 20.99 19.27, 18.95 21.14 C16.91 23.01, 14.25 24.77, 11.94 24.82 C9.64 24.88, 7.06 23.19, 5.12 21.47 C3.18 19.74, 1.05 16.96, 0.3 14.48 C-0.44 12, -1.07 9.01, 0.65 6.6 C2.36 4.19, 8.52 0.96, 10.58 0.02 C12.63 -0.92, 13.11 0.74, 12.98 0.96 M7.11 0.38 C9.09 -0.91, 11.79 -0.73, 14.38 0 C16.97 0.74, 21.21 2.88, 22.65 4.77 C24.09 6.67, 23.25 8.79, 23.03 11.37 C22.81 13.95, 22.9 18.38, 21.33 20.24 C19.76 22.1, 16.01 22.32, 13.61 22.52 C11.21 22.73, 8.9 22.64, 6.94 21.47 C4.98 20.29, 3 17.65, 1.87 15.48 C0.74 13.31, -0.48 10.6, 0.17 8.43 C0.81 6.26, 4.9 3.51, 5.75 2.46 C6.61 1.41, 5.22 2.22, 5.28 2.12" stroke="#58a6ff" stroke-width="2" fill="none"></path></g><g stroke-linecap="round" transform="translate(298 158) rotate(0 14 14)"><path d="M8.62 1.81 C11.25 0.63, 15.63 0.07, 18.62 0.73 C21.6 1.4, 25.01 3.33, 26.55 5.79 C28.09 8.24, 28.49 12.5, 27.88 15.45 C27.26 18.4, 24.9 21.33, 22.86 23.48 C20.82 25.63, 18.45 28.18, 15.64 28.34 C12.82 28.49, 8.59 26.43, 5.95 24.41 C3.32 22.4, 0.45 19.1, -0.18 16.24 C-0.82 13.39, 0.52 9.82, 2.12 7.28 C3.73 4.75, 7.87 2.13, 9.44 1.03 C11.01 -0.06, 11.55 0.53, 11.53 0.72 M10.69 0.13 C13.73 -0.22, 19.62 1.24, 22.15 2.85 C24.68 4.46, 25.19 7.05, 25.84 9.79 C26.5 12.53, 26.68 16.41, 26.09 19.3 C25.5 22.18, 24.79 25.44, 22.29 27.1 C19.79 28.76, 14.46 30.15, 11.09 29.29 C7.73 28.42, 3.96 24.4, 2.1 21.91 C0.23 19.42, -0.47 17.13, -0.11 14.34 C0.26 11.56, 2.34 7.7, 4.28 5.2 C6.22 2.7, 10.45 0.27, 11.54 -0.65 C12.62 -1.57, 10.98 -0.83, 10.78 -0.3" stroke="none" stroke-width="0" fill="#1e1e2e"></path><path d="M7.31 2.04 C9.89 0.52, 14.13 -0.2, 17.27 0.59 C20.42 1.38, 24.27 4.43, 26.17 6.77 C28.06 9.12, 28.91 11.95, 28.64 14.66 C28.38 17.36, 26.64 20.67, 24.58 23 C22.51 25.33, 19.33 28.18, 16.26 28.64 C13.18 29.1, 8.92 27.5, 6.13 25.75 C3.35 24.01, 0.36 21.09, -0.43 18.16 C-1.22 15.22, -0.31 10.97, 1.4 8.15 C3.12 5.34, 8.01 2.64, 9.87 1.29 C11.72 -0.06, 12.38 0.05, 12.54 0.04 M18.47 1.8 C21.05 2.17, 22.36 3.46, 23.85 5.8 C25.33 8.15, 27.28 12.85, 27.37 15.86 C27.46 18.86, 26.15 21.99, 24.39 23.86 C22.63 25.72, 19.98 26.87, 16.82 27.05 C13.66 27.22, 7.89 26.41, 5.41 24.9 C2.92 23.4, 2.46 20.73, 1.92 18.01 C1.39 15.3, 1.2 11.14, 2.19 8.61 C3.18 6.07, 5.46 4.16, 7.85 2.81 C10.24 1.45, 14.98 0.65, 16.53 0.49 C18.08 0.32, 16.99 1.68, 17.16 1.79" stroke="#1e1e2e" stroke-width="2" fill="none"></path></g><g stroke-linecap="round" transform="translate(300 160) rotate(0 12 12)"><path d="M8.64 0.23 C10.81 -0.77, 14.18 -0.41, 16.61 0.75 C19.03 1.92, 21.95 4.98, 23.18 7.24 C24.42 9.5, 24.57 12.08, 24 14.29 C23.42 16.49, 21.7 18.72, 19.74 20.47 C17.77 22.23, 14.8 24.89, 12.21 24.83 C9.61 24.77, 6.3 21.91, 4.18 20.12 C2.05 18.33, -0.18 16.35, -0.55 14.09 C-0.91 11.84, -0.2 8.93, 1.99 6.59 C4.18 4.25, 10.19 1.05, 12.59 0.05 C14.99 -0.95, 16.35 0.55, 16.41 0.58 M17.22 0.62 C19.35 1.29, 20.51 4.02, 21.61 6.38 C22.72 8.74, 24.24 12.38, 23.84 14.79 C23.44 17.21, 21.1 19.29, 19.19 20.85 C17.28 22.42, 14.89 24.13, 12.38 24.2 C9.87 24.27, 6.27 23.13, 4.12 21.27 C1.97 19.41, -0.31 15.42, -0.52 13.03 C-0.73 10.64, 1.24 8.85, 2.85 6.91 C4.47 4.97, 6.99 2.22, 9.16 1.37 C11.33 0.53, 14.66 2.01, 15.89 1.86 C17.12 1.71, 16.52 0.43, 16.51 0.45" stroke="none" stroke-width="0" fill="#3fb950"></path><path d="M17.66 1.82 C19.69 2.84, 20.87 5.14, 21.87 7.4 C22.87 9.66, 24.12 12.85, 23.69 15.37 C23.25 17.89, 21.51 21.19, 19.25 22.51 C16.98 23.84, 12.65 23.7, 10.11 23.33 C7.57 22.96, 5.71 21.84, 4.02 20.3 C2.34 18.75, 0.26 16.54, -0.01 14.05 C-0.28 11.56, 0.9 7.5, 2.4 5.36 C3.91 3.22, 6.08 1.51, 9.03 1.23 C11.97 0.94, 18.01 2.84, 20.06 3.65 C22.11 4.45, 21.59 6.07, 21.32 6.04 M16.35 0.23 C18.67 0.64, 20.87 3.08, 22.03 5.11 C23.2 7.13, 23.56 9.93, 23.34 12.38 C23.12 14.82, 22.62 17.92, 20.71 19.76 C18.8 21.59, 14.39 22.99, 11.9 23.41 C9.4 23.82, 7.62 23.83, 5.75 22.24 C3.89 20.65, 1.57 16.6, 0.71 13.85 C-0.15 11.1, -0.23 8.05, 0.61 5.75 C1.44 3.44, 3.24 0.94, 5.73 0.04 C8.22 -0.87, 13.96 0.14, 15.54 0.33 C17.11 0.53, 15.49 1.02, 15.19 1.19" stroke="#3fb950" stroke-width="2" fill="none"></path></g><g stroke-linecap="round" transform="translate(561 158) rotate(0 14 14)"><path d="M15.19 0.02 C17.87 -0.12, 21.58 1.67, 23.59 3.89 C25.59 6.12, 26.84 10.48, 27.21 13.37 C27.58 16.26, 27.42 18.93, 25.82 21.23 C24.22 23.52, 20.44 26.15, 17.59 27.12 C14.74 28.09, 11.51 28.07, 8.7 27.05 C5.89 26.02, 2.07 23.8, 0.72 20.98 C-0.62 18.15, -0.31 13.3, 0.64 10.1 C1.58 6.89, 3.54 3.22, 6.41 1.76 C9.28 0.3, 15.43 1.26, 17.84 1.35 C20.26 1.44, 21.08 2.28, 20.88 2.29 M12.16 1.13 C14.74 0.66, 18.63 1.26, 21.2 2.59 C23.77 3.92, 26.82 6.33, 27.6 9.11 C28.39 11.89, 26.88 16.24, 25.92 19.28 C24.96 22.32, 24.22 25.82, 21.87 27.33 C19.52 28.84, 15.22 29.33, 11.82 28.35 C8.43 27.37, 3.73 23.97, 1.51 21.45 C-0.71 18.93, -1.84 16.26, -1.48 13.2 C-1.12 10.14, 1.6 5.35, 3.68 3.1 C5.77 0.85, 9.41 0.14, 11.03 -0.29 C12.66 -0.72, 13.17 0.31, 13.45 0.54" stroke="none" stroke-width="0" fill="#1e1e2e"></path><path d="M16.46 0.3 C19.21 0.55, 23.29 3.1, 25.28 5.46 C27.26 7.82, 28.65 11.52, 28.39 14.43 C28.12 17.34, 25.6 20.58, 23.68 22.94 C21.75 25.31, 19.66 28.06, 16.84 28.62 C14.01 29.18, 9.43 27.83, 6.73 26.32 C4.03 24.81, 1.7 22.35, 0.62 19.56 C-0.46 16.76, -0.91 12.48, 0.25 9.55 C1.41 6.62, 4.63 3.48, 7.58 1.97 C10.53 0.46, 16.03 0.76, 17.95 0.49 C19.87 0.22, 19.38 0.12, 19.12 0.34 M11.38 1.05 C14.41 -0.23, 18.31 -0.95, 20.82 0.07 C23.33 1.09, 25.38 4.4, 26.46 7.18 C27.54 9.95, 28 13.52, 27.33 16.7 C26.65 19.89, 25.06 24.56, 22.41 26.3 C19.75 28.04, 14.36 27.3, 11.41 27.13 C8.45 26.95, 6.45 27.22, 4.69 25.24 C2.93 23.26, 1.31 18.61, 0.84 15.26 C0.37 11.9, 0.35 7.77, 1.87 5.11 C3.4 2.44, 8.34 -0.02, 9.97 -0.72 C11.61 -1.43, 11.41 0.55, 11.67 0.85" stroke="#1e1e2e" stroke-width="2" fill="none"></path></g><g stroke-linecap="round" transform="translate(563 160) rotate(0 12 12)"><path d="M16.92 0.93 C19.16 1.61, 21.94 4.02, 23.02 6.41 C24.1 8.8, 24.1 12.77, 23.39 15.28 C22.69 17.79, 20.7 19.92, 18.79 21.47 C16.88 23.01, 14.33 24.82, 11.93 24.56 C9.53 24.3, 6.42 21.89, 4.39 19.88 C2.36 17.87, 0.17 14.97, -0.23 12.53 C-0.64 10.08, 0.37 7.27, 1.96 5.22 C3.56 3.18, 6.63 0.98, 9.32 0.28 C12.02 -0.42, 16.42 0.56, 18.13 1.03 C19.85 1.51, 19.69 2.91, 19.62 3.15 M9.69 0.25 C11.85 -0.46, 15.63 -0.09, 17.67 1.16 C19.7 2.4, 20.85 5.37, 21.91 7.72 C22.97 10.06, 24.33 12.74, 24.01 15.22 C23.69 17.7, 22.01 20.96, 19.99 22.6 C17.97 24.24, 14.46 25.51, 11.86 25.07 C9.27 24.63, 6.42 21.97, 4.42 19.94 C2.42 17.92, 0.09 15.64, -0.12 12.92 C-0.33 10.2, 1.72 5.97, 3.18 3.63 C4.64 1.29, 7.79 -0.44, 8.64 -1.11 C9.48 -1.79, 7.93 -0.65, 8.25 -0.4" stroke="none" stroke-width="0" fill="#f0883e"></path><path d="M16.59 0.05 C18.78 0.93, 20.94 3.44, 22.26 5.95 C23.58 8.47, 24.96 12.62, 24.52 15.15 C24.08 17.69, 21.98 19.61, 19.63 21.16 C17.29 22.72, 13.16 24.56, 10.46 24.48 C7.76 24.39, 5.22 22.66, 3.41 20.65 C1.6 18.63, -0.02 14.92, -0.41 12.39 C-0.79 9.86, -0.48 7.42, 1.12 5.47 C2.71 3.52, 6.24 1.25, 9.15 0.67 C12.06 0.09, 16.61 1.41, 18.58 1.99 C20.55 2.57, 20.84 4, 20.96 4.14 M12.88 -1.49 C15.39 -1.88, 19.09 0.06, 20.87 1.95 C22.65 3.84, 23.3 7.24, 23.53 9.83 C23.76 12.43, 23.65 15.41, 22.25 17.5 C20.85 19.59, 17.49 21.53, 15.12 22.38 C12.74 23.24, 10.17 23.08, 8.02 22.63 C5.88 22.19, 3.41 21.94, 2.24 19.7 C1.07 17.47, 0.88 12.13, 1.01 9.24 C1.13 6.35, 1.44 3.94, 3 2.35 C4.56 0.76, 9.09 -0.08, 10.36 -0.32 C11.64 -0.56, 10.59 0.66, 10.65 0.9" stroke="#f0883e" stroke-width="2" fill="none"></path></g><g stroke-linecap="round" transform="translate(823 158) rotate(0 14 14)"><path d="M9.6 0.17 C12.46 -0.95, 17.42 -0.44, 20.16 0.69 C22.91 1.82, 24.68 4.11, 26.07 6.97 C27.46 9.82, 29.24 14.69, 28.51 17.81 C27.78 20.92, 24.13 23.81, 21.71 25.67 C19.28 27.52, 16.68 29.23, 13.95 28.92 C11.22 28.62, 7.57 26.1, 5.32 23.83 C3.07 21.57, 1.1 18.23, 0.46 15.33 C-0.19 12.43, -0.31 8.95, 1.45 6.41 C3.2 3.87, 9.19 1.08, 10.99 0.11 C12.8 -0.87, 12.11 0.19, 12.27 0.57 M16.29 0.37 C19.23 0.85, 23.23 2.57, 25.29 4.85 C27.34 7.13, 28.62 10.81, 28.64 14.06 C28.66 17.32, 27.36 21.91, 25.41 24.37 C23.46 26.83, 20.13 28.5, 16.96 28.83 C13.79 29.16, 9.23 28.18, 6.39 26.34 C3.55 24.49, 0.62 20.54, -0.08 17.76 C-0.79 14.98, 0.62 12.32, 2.16 9.67 C3.7 7.01, 6.55 3.22, 9.15 1.85 C11.75 0.48, 16.55 1.82, 17.76 1.44 C18.97 1.07, 16.61 -0.59, 16.42 -0.41" stroke="none" stroke-width="0" fill="#1e1e2e"></path><path d="M18.98 1.79 C21.59 2.44, 24.67 4.42, 26.1 6.98 C27.53 9.54, 28.09 14.27, 27.56 17.16 C27.04 20.04, 25.15 22.37, 22.97 24.29 C20.78 26.22, 17.54 28.58, 14.45 28.73 C11.37 28.87, 6.78 27.35, 4.47 25.15 C2.15 22.95, 0.93 18.64, 0.57 15.53 C0.2 12.42, 0.9 8.79, 2.3 6.49 C3.7 4.19, 5.9 2.65, 8.96 1.74 C12.02 0.82, 18.55 0.86, 20.67 1 C22.78 1.14, 21.86 2.28, 21.66 2.58 M8.77 0.51 C11.65 -0.3, 16.64 0.89, 19.74 1.94 C22.84 2.98, 25.83 4.14, 27.37 6.79 C28.91 9.43, 29.89 14.66, 29 17.78 C28.12 20.91, 24.63 24.03, 22.06 25.54 C19.5 27.05, 16.52 26.99, 13.61 26.84 C10.7 26.7, 6.84 26.63, 4.58 24.67 C2.31 22.71, 0.54 18.24, 0.04 15.08 C-0.47 11.92, -0.01 8.2, 1.55 5.69 C3.12 3.19, 7.87 1.03, 9.43 0.07 C10.98 -0.88, 10.78 -0.46, 10.9 -0.04" stroke="#1e1e2e" stroke-width="2" fill="none"></path></g><g stroke-linecap="round" transform="translate(825 160) rotate(0 12 12)"><path d="M14.24 0.51 C16.54 0.96, 19.68 2.77, 21.28 4.75 C22.88 6.73, 23.84 9.91, 23.82 12.37 C23.8 14.83, 22.93 17.58, 21.15 19.51 C19.38 21.44, 15.67 23.67, 13.19 23.95 C10.72 24.24, 8.46 22.57, 6.29 21.21 C4.13 19.85, 1.1 18.13, 0.21 15.78 C-0.69 13.43, -0.07 9.64, 0.9 7.13 C1.88 4.62, 3.28 1.71, 6.07 0.73 C8.86 -0.25, 15.5 1.06, 17.64 1.26 C19.78 1.46, 19.09 1.77, 18.92 1.91 M16.27 -0.34 C18.51 0.53, 20.86 3.2, 22.17 5.81 C23.48 8.42, 24.89 12.9, 24.13 15.32 C23.37 17.75, 19.73 19.17, 17.62 20.38 C15.5 21.59, 13.81 22.59, 11.43 22.56 C9.05 22.53, 5.24 21.84, 3.33 20.2 C1.41 18.56, 0.37 14.97, -0.03 12.73 C-0.43 10.49, -0.33 8.83, 0.93 6.79 C2.2 4.74, 4.72 1.53, 7.58 0.46 C10.44 -0.6, 16.43 0.3, 18.11 0.4 C19.79 0.51, 18.08 0.61, 17.66 1.12" stroke="none" stroke-width="0" fill="#d670c2"></path><path d="M6.72 1.75 C8.83 0.35, 11.91 -0.45, 14.29 -0.08 C16.67 0.29, 19.24 2, 21 3.96 C22.76 5.92, 24.99 8.93, 24.84 11.69 C24.69 14.45, 21.83 18.53, 20.1 20.51 C18.37 22.49, 16.99 23.35, 14.47 23.59 C11.95 23.84, 7.24 23.26, 4.99 21.97 C2.73 20.67, 1.66 18.05, 0.96 15.8 C0.26 13.56, -0.03 10.89, 0.81 8.5 C1.65 6.11, 4.78 2.72, 6.01 1.45 C7.24 0.18, 8.04 0.87, 8.18 0.87 M7.06 1.2 C9.15 -0.31, 11.3 -1.53, 13.72 -0.87 C16.13 -0.22, 19.78 2.71, 21.56 5.14 C23.34 7.56, 24.74 11.06, 24.42 13.66 C24.09 16.26, 21.66 19.09, 19.61 20.73 C17.56 22.37, 14.46 23.17, 12.11 23.52 C9.77 23.88, 7.36 24.14, 5.53 22.88 C3.69 21.61, 2.08 18.32, 1.1 15.93 C0.12 13.54, -1.36 10.75, -0.35 8.55 C0.65 6.35, 6.01 3.69, 7.14 2.74 C8.26 1.79, 6.63 2.67, 6.4 2.84" stroke="#d670c2" stroke-width="2" fill="none"></path></g><g stroke-linecap="round" transform="translate(36 174) rotate(0 14 14)"><path d="M19.92 1.62 C22.66 2.61, 25.5 6.09, 26.93 8.63 C28.36 11.16, 29.38 14.19, 28.5 16.85 C27.62 19.52, 24.18 22.82, 21.66 24.64 C19.14 26.45, 16.27 27.9, 13.36 27.74 C10.46 27.58, 6.38 25.66, 4.26 23.66 C2.14 21.65, 1.1 18.53, 0.66 15.73 C0.22 12.93, 0.07 9.29, 1.61 6.86 C3.14 4.44, 6.26 1.83, 9.86 1.18 C13.46 0.52, 20.44 1.77, 23.19 2.94 C25.95 4.11, 26.58 7.77, 26.4 8.19 M13.58 -1.1 C16.71 -1.08, 22.06 1.9, 24.63 4.08 C27.2 6.26, 29.06 8.95, 29.01 11.97 C28.97 15, 26.39 19.66, 24.36 22.21 C22.32 24.77, 19.56 26.32, 16.79 27.3 C14.02 28.28, 10.2 29.3, 7.75 28.07 C5.3 26.84, 3.51 22.58, 2.11 19.92 C0.71 17.26, -1.1 15.05, -0.63 12.11 C-0.16 9.17, 2.47 4.33, 4.94 2.29 C7.4 0.25, 12.57 0.31, 14.18 -0.12 C15.78 -0.54, 14.45 -0.56, 14.57 -0.27" stroke="none" stroke-width="0" fill="#1e1e2e"></path><path d="M9.04 0.72 C11.37 -0.59, 14.49 0.45, 17.38 1.47 C20.27 2.49, 24.62 4.4, 26.38 6.84 C28.13 9.28, 28.28 13.13, 27.91 16.11 C27.55 19.08, 26.31 22.59, 24.19 24.7 C22.08 26.82, 18.28 28.8, 15.22 28.8 C12.17 28.8, 8.25 26.46, 5.85 24.69 C3.44 22.92, 1.66 21.04, 0.79 18.19 C-0.09 15.34, -1.18 10.72, 0.62 7.57 C2.41 4.41, 8.96 0.4, 11.55 -0.76 C14.15 -1.93, 16.08 0.17, 16.19 0.59 M10.35 1.23 C13.39 0.26, 18.04 -0.19, 20.98 1.02 C23.92 2.22, 26.91 5.57, 27.98 8.46 C29.05 11.35, 28.37 15.65, 27.41 18.34 C26.45 21.03, 24.66 23.18, 22.22 24.61 C19.78 26.03, 15.57 27.13, 12.79 26.91 C10.01 26.7, 7.47 25.25, 5.55 23.32 C3.63 21.38, 1.71 18.04, 1.27 15.3 C0.83 12.56, 1.28 9.23, 2.91 6.88 C4.54 4.54, 9.92 2.18, 11.03 1.22 C12.15 0.25, 9.73 0.94, 9.61 1.1" stroke="#1e1e2e" stroke-width="2" fill="none"></path></g><g stroke-linecap="round" transform="translate(38 176) rotate(0 12 12)"><path d="M16.16 0.34 C18.42 0.94, 20.73 3.28, 21.86 5.62 C22.98 7.97, 23.43 11.68, 22.89 14.39 C22.35 17.1, 20.49 20.26, 18.63 21.88 C16.76 23.51, 14.03 24.29, 11.69 24.13 C9.36 23.98, 6.62 22.65, 4.62 20.94 C2.63 19.23, 0.33 16.52, -0.29 13.86 C-0.91 11.21, -0.56 7.17, 0.9 5.02 C2.37 2.86, 5.55 1.61, 8.49 0.92 C11.42 0.23, 16.79 0.68, 18.53 0.89 C20.27 1.1, 19.29 1.85, 18.93 2.17 M16.64 1.05 C18.52 1.83, 21.03 4.8, 22.06 7.14 C23.1 9.49, 23.23 12.81, 22.84 15.13 C22.45 17.45, 21.63 19.82, 19.74 21.08 C17.85 22.34, 14.47 22.86, 11.48 22.69 C8.49 22.52, 3.74 21.77, 1.8 20.07 C-0.13 18.37, -0.3 14.86, -0.14 12.5 C0.02 10.15, 1.23 7.73, 2.77 5.93 C4.32 4.13, 6.48 2.66, 9.12 1.69 C11.75 0.72, 17.1 0.04, 18.57 0.1 C20.03 0.16, 18.35 1.49, 17.9 2.05" stroke="none" stroke-width="0" fill="#a371f7"></path><path d="M12.06 -0.38 C14.72 -0.54, 17.79 1.49, 19.65 3.06 C21.51 4.64, 22.61 6.64, 23.21 9.08 C23.81 11.51, 24.15 15.48, 23.23 17.67 C22.32 19.85, 20 21.37, 17.72 22.2 C15.44 23.03, 12.04 23.3, 9.54 22.64 C7.04 21.98, 4.28 20.15, 2.74 18.22 C1.19 16.29, 0.04 13.68, 0.28 11.06 C0.52 8.44, 2.16 4.2, 4.18 2.5 C6.21 0.8, 10.81 1.02, 12.42 0.85 C14.02 0.68, 13.82 1.59, 13.83 1.5 M14.31 1.36 C16.74 1.38, 19.64 0.99, 21.17 2.47 C22.71 3.94, 23.35 7.58, 23.53 10.21 C23.7 12.85, 23.52 15.9, 22.23 18.3 C20.94 20.69, 18.66 23.77, 15.8 24.56 C12.94 25.35, 7.73 24.42, 5.06 23.05 C2.38 21.67, 0.44 18.73, -0.25 16.29 C-0.94 13.86, 0.06 10.61, 0.9 8.43 C1.75 6.25, 2.61 4.35, 4.81 3.19 C7.01 2.02, 12.78 1.72, 14.09 1.45 C15.4 1.18, 12.75 1.79, 12.68 1.57" stroke="#a371f7" stroke-width="2" fill="none"></path></g><g transform="translate(30 287) rotate(0 96.06293487548828 13.75)"><text x="0" y="NaN" font-family="Virgil, Segoe UI Emoji" font-size="22px" fill="#e6edf3" text-anchor="start" style="white-space: pre;" direction="ltr">2. Storage Engine</text></g><g stroke-linecap="round" transform="translate(50 334) rotate(0 525 3)"><path d="M1.92 0.44 L1050.96 1.29 L1049.08 7.51 L0.89 5.74" stroke="none" stroke-width="0" fill="#21262d"></path><path d="M-0.36 -0.26 C406.56 0.38, 813.2 0.26, 1049.75 0.16 M0.23 -0.4 C358.93 -2.82, 718.06 -3.19, 1049.76 -0.12 M1049.72 0.17 C1050.3 2.16, 1050.36 4.07, 1050.08 5.72 M1049.88 0.1 C1049.85 1.25, 1049.91 3.18, 1049.9 6 M1050.71 5.41 C791.02 9.45, 531.25 8.53, 0.59 5.59 M1049.93 5.82 C732.87 5.83, 415.35 5.91, 0.23 6 M-0.31 5.94 C-0.57 4.14, -0.27 2.21, -0.24 0.38 M0.3 6.01 C-0.06 4.57, 0.05 2.57, 0.07 -0.26" stroke="#8b949e" stroke-width="1" fill="none"></path></g><g stroke-linecap="round"><g transform="translate(50 323) rotate(0 0 14)"><path d="M0.48 -0.24 C0.37 4.26, 0.29 22.16, 0.31 26.99 M-0.73 -1.42 C-1.06 3.2, -0.62 23.29, -0.48 27.99" stroke="#8b949e" stroke-width="2" fill="none"></path></g></g><g stroke-linecap="round"><g transform="translate(1100 323) rotate(0 0 14)"><path d="M-0.48 -0.97 C-0.48 3.6, -0.35 22.14, -0.43 26.95 M1.46 1.13 C1.3 5.86, -1.59 23.26, -1.6 27.93" stroke="#8b949e" stroke-width="2" fill="none"></path></g></g><g transform="translate(50 365) rotate(0 91.60490417480469 9.375)"><text x="0" y="NaN" font-family="Virgil, Segoe UI Emoji" font-size="15px" fill="#8b949e" text-anchor="start" style="white-space: pre;" direction="ltr">B-Tree  (read-optimized)</text></g><g transform="translate(894.4102172851562 365) rotate(0 102.79489135742188 9.375)"><text x="205.58978271484375" y="NaN" font-family="Virgil, Segoe UI Emoji" font-size="15px" fill="#8b949e" text-anchor="end" style="white-space: pre;" direction="ltr">LSM Tree  (write-optimized)</text></g><g stroke-linecap="round" transform="translate(88 323) rotate(0 14 14)"><path d="M12.66 0.7 C15.41 0.14, 19.52 0.71, 22.02 2.3 C24.53 3.88, 26.8 7.29, 27.69 10.2 C28.58 13.11, 28.51 17.22, 27.37 19.76 C26.23 22.31, 23.73 24.13, 20.83 25.49 C17.92 26.85, 12.83 28.5, 9.95 27.92 C7.06 27.33, 5.29 24.29, 3.51 21.98 C1.73 19.68, -0.88 17.12, -0.73 14.08 C-0.58 11.04, 1.73 6.03, 4.42 3.73 C7.11 1.44, 13.35 0.83, 15.41 0.32 C17.46 -0.18, 16.78 0.4, 16.75 0.72 M15.71 1.42 C18.43 1.26, 22.46 1.54, 24.69 3.33 C26.93 5.11, 29 8.95, 29.14 12.13 C29.27 15.3, 27.5 19.71, 25.53 22.38 C23.56 25.04, 20.49 27.65, 17.32 28.12 C14.15 28.59, 9.05 26.79, 6.51 25.2 C3.97 23.61, 2.97 21.05, 2.07 18.61 C1.16 16.16, 0.34 13.28, 1.1 10.52 C1.87 7.75, 4.04 3.72, 6.66 2.01 C9.29 0.29, 15.33 0.42, 16.87 0.24 C18.41 0.06, 15.96 0.94, 15.91 0.92" stroke="none" stroke-width="0" fill="#1e1e2e"></path><path d="M13.16 -0.09 C16.16 -0.47, 20.36 0.53, 22.9 2.41 C25.43 4.29, 27.79 8.21, 28.35 11.2 C28.91 14.19, 27.62 17.79, 26.25 20.32 C24.89 22.85, 22.8 25.19, 20.16 26.38 C17.53 27.56, 13.32 28.28, 10.45 27.43 C7.58 26.58, 4.51 23.79, 2.95 21.28 C1.39 18.76, 0.85 15.34, 1.07 12.36 C1.28 9.37, 2.03 5.43, 4.27 3.37 C6.5 1.3, 12.87 0.62, 14.47 -0.04 C16.08 -0.7, 14.08 -0.79, 13.91 -0.58 M14.59 0.3 C17.49 -0.14, 21.74 1.19, 23.86 3.19 C25.98 5.2, 27.07 9.26, 27.31 12.32 C27.56 15.38, 26.88 18.96, 25.36 21.53 C23.83 24.11, 20.79 26.79, 18.17 27.77 C15.55 28.75, 12.5 28.55, 9.64 27.42 C6.79 26.28, 2.79 23.3, 1.05 20.98 C-0.7 18.67, -1.31 16.25, -0.85 13.5 C-0.39 10.75, 1.22 6.54, 3.8 4.5 C6.39 2.46, 13.25 2.07, 14.66 1.26 C16.08 0.44, 12.45 -0.5, 12.3 -0.4" stroke="#1e1e2e" stroke-width="2" fill="none"></path></g><g stroke-linecap="round" transform="translate(90 325) rotate(0 12 12)"><path d="M11.56 0.14 C14.01 0, 17.54 1.47, 19.66 2.94 C21.79 4.4, 23.59 6.47, 24.3 8.94 C25 11.4, 24.95 15.41, 23.91 17.72 C22.88 20.04, 20.59 21.78, 18.08 22.83 C15.56 23.89, 11.35 24.66, 8.83 24.06 C6.3 23.46, 4.47 21.43, 2.92 19.24 C1.38 17.04, -0.69 13.47, -0.45 10.9 C-0.22 8.33, 2.16 5.68, 4.33 3.82 C6.51 1.95, 10.83 0.2, 12.57 -0.31 C14.31 -0.83, 14.63 0.54, 14.79 0.71 M13.21 -1.05 C15.42 -0.83, 19.16 2.88, 20.73 5.07 C22.31 7.25, 22.57 9.86, 22.64 12.08 C22.7 14.29, 22.6 16.27, 21.14 18.36 C19.67 20.44, 16.38 23.86, 13.85 24.57 C11.31 25.28, 8.19 23.91, 5.95 22.62 C3.71 21.34, 1.41 19.29, 0.41 16.86 C-0.59 14.43, -1.07 10.81, -0.03 8.06 C1.02 5.31, 4.41 1.41, 6.69 0.34 C8.96 -0.74, 12.32 1.71, 13.62 1.61 C14.91 1.51, 14.4 -0.39, 14.44 -0.24" stroke="none" stroke-width="0" fill="#58a6ff"></path><path d="M11.52 -0.45 C13.79 -0.54, 16.94 1.53, 18.98 3.07 C21.02 4.61, 23.02 6.25, 23.74 8.8 C24.46 11.35, 24.54 15.9, 23.3 18.35 C22.06 20.79, 18.89 22.47, 16.32 23.48 C13.74 24.48, 10.31 25.39, 7.83 24.36 C5.34 23.34, 2.57 19.82, 1.42 17.31 C0.27 14.79, 0.41 11.61, 0.93 9.26 C1.45 6.92, 2.23 4.9, 4.54 3.24 C6.85 1.58, 12.85 -0.32, 14.81 -0.69 C16.76 -1.06, 16.5 0.65, 16.26 1.01 M17.38 0.65 C19.98 1.71, 23.35 4.6, 24.55 7.31 C25.75 10.01, 25.62 14.32, 24.57 16.89 C23.53 19.46, 20.59 21.49, 18.29 22.73 C15.99 23.97, 13.5 24.94, 10.78 24.34 C8.06 23.73, 3.66 21.35, 1.99 19.1 C0.32 16.85, 0.6 13.16, 0.76 10.86 C0.92 8.56, 1.49 6.86, 2.96 5.32 C4.43 3.78, 6.89 2.19, 9.58 1.61 C12.26 1.04, 17.65 2.04, 19.07 1.87 C20.49 1.69, 18.34 0.3, 18.07 0.56" stroke="#58a6ff" stroke-width="2" fill="none"></path></g><g stroke-linecap="round" transform="translate(246 323) rotate(0 14 14)"><path d="M19.16 1.34 C21.7 2.22, 24.95 4.58, 26.33 7.01 C27.71 9.44, 27.91 12.92, 27.43 15.91 C26.95 18.89, 25.79 22.91, 23.44 24.9 C21.1 26.88, 16.59 27.85, 13.38 27.82 C10.18 27.79, 6.29 26.86, 4.21 24.73 C2.13 22.59, 1.35 18.11, 0.88 14.98 C0.42 11.86, -0.09 8.53, 1.44 5.99 C2.96 3.46, 6.76 0.47, 10.03 -0.22 C13.29 -0.92, 18.84 1.05, 21.01 1.81 C23.19 2.58, 23.23 4.15, 23.09 4.35 M8.18 2.15 C11.05 1.06, 15.95 0.95, 18.66 1.35 C21.38 1.75, 22.9 2.27, 24.47 4.57 C26.05 6.87, 28.08 12.02, 28.11 15.15 C28.15 18.27, 26.84 21.21, 24.7 23.3 C22.55 25.39, 18.51 27.35, 15.22 27.71 C11.93 28.06, 7.62 27.15, 4.95 25.45 C2.28 23.75, -0.06 20.36, -0.78 17.5 C-1.51 14.63, -0.92 10.77, 0.61 8.27 C2.14 5.76, 7.09 3.62, 8.42 2.47 C9.75 1.32, 8.49 1.39, 8.58 1.35" stroke="none" stroke-width="0" fill="#1e1e2e"></path><path d="M9.07 1.25 C11.81 0.48, 16.7 0.99, 19.6 2.08 C22.49 3.17, 25.07 5.19, 26.44 7.81 C27.8 10.42, 28.41 14.87, 27.79 17.75 C27.18 20.63, 25.3 23.32, 22.77 25.08 C20.24 26.85, 15.81 28.58, 12.63 28.34 C9.46 28.11, 5.75 25.93, 3.7 23.7 C1.65 21.47, 0.43 17.7, 0.33 14.96 C0.23 12.22, 1.08 9.72, 3.08 7.27 C5.07 4.82, 10.74 1.56, 12.32 0.28 C13.9 -1.01, 12.62 -0.61, 12.57 -0.43 M8.15 -0.39 C11.02 -1.56, 16.86 -0.54, 19.65 0.87 C22.44 2.27, 23.62 5.75, 24.9 8.02 C26.18 10.3, 27.41 11.94, 27.32 14.53 C27.24 17.12, 26.48 21.38, 24.38 23.59 C22.28 25.8, 17.89 27.4, 14.72 27.79 C11.56 28.19, 7.58 27.85, 5.39 25.98 C3.2 24.11, 2.34 19.91, 1.59 16.59 C0.84 13.28, -0.15 8.9, 0.89 6.07 C1.93 3.23, 6.49 0.15, 7.82 -0.43 C9.16 -1.01, 8.77 2.21, 8.91 2.59" stroke="#1e1e2e" stroke-width="2" fill="none"></path></g><g stroke-linecap="round" transform="translate(248 325) rotate(0 12 12)"><path d="M15.8 0.27 C18.42 1, 22.11 4.45, 23.3 6.7 C24.49 8.94, 23.56 11.29, 22.95 13.74 C22.33 16.2, 21.44 19.83, 19.61 21.43 C17.77 23.03, 14.64 23.37, 11.95 23.33 C9.26 23.29, 5.35 22.66, 3.48 21.18 C1.62 19.71, 1.06 17.19, 0.76 14.49 C0.46 11.78, 0.38 7.37, 1.66 4.94 C2.95 2.51, 5.82 0.33, 8.48 -0.09 C11.15 -0.52, 16.01 2.07, 17.66 2.4 C19.31 2.73, 18.36 1.81, 18.37 1.9 M10.98 -0.3 C13.75 -0.71, 17.87 1.33, 19.73 2.62 C21.6 3.92, 21.8 5.23, 22.2 7.47 C22.6 9.72, 22.82 13.83, 22.13 16.1 C21.45 18.38, 19.96 20.04, 18.08 21.12 C16.2 22.21, 13.21 22.74, 10.85 22.61 C8.49 22.49, 5.69 22.3, 3.94 20.36 C2.19 18.42, 0.56 13.56, 0.33 10.99 C0.11 8.43, 0.83 6.67, 2.57 4.95 C4.31 3.23, 9.38 1.6, 10.8 0.66 C12.21 -0.29, 10.93 -0.82, 11.05 -0.72" stroke="none" stroke-width="0" fill="#3fb950"></path><path d="M12.23 -0.45 C14.77 -0.84, 19.06 0.37, 20.9 2.09 C22.74 3.81, 23.01 7.24, 23.28 9.87 C23.56 12.51, 23.85 15.54, 22.54 17.92 C21.23 20.29, 17.86 23.09, 15.41 24.11 C12.96 25.13, 10.15 25.19, 7.82 24.04 C5.49 22.9, 2.77 19.55, 1.42 17.22 C0.07 14.89, -0.83 12.63, -0.29 10.04 C0.25 7.46, 2.33 3.45, 4.65 1.71 C6.96 -0.04, 11.94 -0.1, 13.6 -0.41 C15.26 -0.73, 14.5 -0.57, 14.59 -0.16 M15.67 0.37 C18.14 0.76, 21.06 1.63, 22.46 3.71 C23.86 5.79, 24.61 10.13, 24.09 12.86 C23.57 15.59, 20.99 18.23, 19.36 20.11 C17.73 21.98, 16.69 23.72, 14.31 24.13 C11.94 24.54, 7.67 23.98, 5.12 22.57 C2.57 21.15, -0.49 18.46, -0.98 15.65 C-1.47 12.84, 0.64 8.05, 2.18 5.7 C3.72 3.35, 6.1 2.22, 8.26 1.55 C10.41 0.87, 14.02 1.86, 15.12 1.66 C16.22 1.47, 14.7 0.44, 14.86 0.37" stroke="#3fb950" stroke-width="2" fill="none"></path></g><g stroke-linecap="round" transform="translate(1033 323) rotate(0 14 14)"><path d="M13.3 0.23 C16.34 0.01, 20.31 1.3, 22.54 2.87 C24.77 4.45, 25.84 6.83, 26.69 9.69 C27.53 12.55, 28.69 17.37, 27.6 20.05 C26.51 22.74, 22.97 24.44, 20.13 25.8 C17.3 27.16, 13.47 28.94, 10.57 28.22 C7.68 27.49, 4.42 23.89, 2.76 21.46 C1.1 19.04, 0.41 16.63, 0.6 13.66 C0.8 10.69, 1.54 5.95, 3.93 3.63 C6.32 1.31, 12.58 0.29, 14.93 -0.26 C17.29 -0.81, 18.08 0.05, 18.04 0.31 M9.26 0.18 C11.92 -0.77, 15.98 -0.96, 18.82 0.08 C21.65 1.12, 24.58 3.47, 26.28 6.41 C27.98 9.36, 29.61 14.76, 29.03 17.74 C28.45 20.72, 25.34 22.43, 22.8 24.32 C20.25 26.2, 16.94 29, 13.75 29.06 C10.56 29.12, 5.99 26.84, 3.66 24.69 C1.34 22.54, 0.02 19.07, -0.21 16.17 C-0.44 13.27, 0.73 10.05, 2.28 7.29 C3.84 4.54, 7.59 0.59, 9.14 -0.36 C10.69 -1.31, 11.12 1.04, 11.6 1.58" stroke="none" stroke-width="0" fill="#1e1e2e"></path><path d="M12.68 0.48 C15.47 -0.07, 18.84 -0.14, 21.39 1.69 C23.94 3.51, 27.17 8.2, 27.97 11.41 C28.77 14.62, 27.48 18.4, 26.18 20.96 C24.89 23.52, 22.74 25.7, 20.19 26.78 C17.65 27.87, 13.93 28.41, 10.93 27.47 C7.94 26.52, 4.16 23.62, 2.21 21.12 C0.25 18.61, -1.16 15.38, -0.8 12.41 C-0.44 9.45, 1.88 5.4, 4.37 3.31 C6.85 1.22, 12.47 0.4, 14.11 -0.14 C15.75 -0.68, 14.16 -0.31, 14.21 0.08 M9.15 -0.58 C12.04 -1.15, 17.33 0.67, 20.48 2.09 C23.63 3.5, 27.06 5.43, 28.05 7.94 C29.05 10.45, 27.54 14.02, 26.44 17.14 C25.35 20.25, 23.84 24.96, 21.51 26.62 C19.18 28.27, 15.37 27.33, 12.47 27.07 C9.57 26.8, 5.92 27.15, 4.1 25.04 C2.28 22.93, 1.59 17.77, 1.53 14.42 C1.47 11.07, 2.08 7.32, 3.73 4.94 C5.39 2.57, 10.3 0.93, 11.46 0.18 C12.61 -0.57, 10.66 0.19, 10.64 0.45" stroke="#1e1e2e" stroke-width="2" fill="none"></path></g><g stroke-linecap="round" transform="translate(1035 325) rotate(0 12 12)"><path d="M13.12 -0.21 C15.39 0.16, 18.58 2.69, 20.37 4.48 C22.16 6.26, 23.82 8.04, 23.87 10.52 C23.92 13, 22.1 17.03, 20.68 19.36 C19.27 21.7, 17.62 24.16, 15.37 24.55 C13.13 24.95, 9.71 23.18, 7.24 21.72 C4.77 20.26, 1.67 17.91, 0.54 15.79 C-0.59 13.68, -0.39 11.34, 0.46 9.03 C1.32 6.73, 2.92 3.37, 5.67 1.96 C8.42 0.56, 14.68 0.58, 16.95 0.61 C19.22 0.65, 19.42 2.03, 19.28 2.17 M9.91 0.58 C12.28 -0.19, 14.8 0.84, 16.85 2 C18.91 3.16, 21.24 5.44, 22.25 7.57 C23.25 9.69, 23.72 12.33, 22.87 14.74 C22.03 17.14, 19.04 20.4, 17.18 21.99 C15.32 23.57, 14.17 24.59, 11.73 24.25 C9.3 23.91, 4.39 21.65, 2.55 19.96 C0.71 18.27, 0.94 16.59, 0.7 14.11 C0.46 11.63, -0.3 7.34, 1.11 5.09 C2.52 2.85, 7.77 1.48, 9.18 0.65 C10.59 -0.19, 9.42 -0.25, 9.58 0.09" stroke="none" stroke-width="0" fill="#f0883e"></path><path d="M12.51 0.15 C15.12 -0.01, 18.91 0.65, 20.8 2.35 C22.68 4.04, 23.61 7.65, 23.81 10.33 C24 13.01, 23.24 16.19, 21.99 18.44 C20.73 20.69, 18.68 23.16, 16.26 23.85 C13.83 24.53, 10.05 23.39, 7.44 22.54 C4.83 21.69, 1.67 20.97, 0.6 18.73 C-0.48 16.49, 0.35 11.91, 1.01 9.09 C1.67 6.27, 2.63 3.46, 4.55 1.8 C6.48 0.15, 10.9 -0.78, 12.56 -0.82 C14.21 -0.86, 14.29 1.31, 14.49 1.55 M10.15 0.58 C12.45 -0.04, 15.35 -0.74, 17.29 0.36 C19.24 1.47, 20.84 4.72, 21.81 7.19 C22.78 9.65, 23.78 12.86, 23.1 15.14 C22.42 17.42, 19.59 19.23, 17.72 20.88 C15.85 22.53, 14.38 24.97, 11.86 25.03 C9.34 25.09, 4.49 23.54, 2.62 21.23 C0.75 18.93, 0.76 14.16, 0.63 11.2 C0.51 8.25, 0.59 5.45, 1.85 3.51 C3.12 1.57, 7.12 0.2, 8.22 -0.43 C9.33 -1.07, 8.17 -0.35, 8.48 -0.28" stroke="#f0883e" stroke-width="2" fill="none"></path></g><g stroke-linecap="round" transform="translate(960 323) rotate(0 14 14)"><path d="M17.11 -0.69 C19.94 -0.35, 23.7 2.8, 25.41 5.12 C27.12 7.45, 27.58 10.42, 27.38 13.28 C27.17 16.13, 25.93 20.01, 24.18 22.27 C22.43 24.53, 19.67 26.11, 16.88 26.83 C14.08 27.54, 9.96 27.9, 7.42 26.54 C4.88 25.17, 2.72 21.68, 1.66 18.64 C0.59 15.61, -0.04 11.29, 1.02 8.32 C2.08 5.35, 5.17 2.1, 7.99 0.81 C10.81 -0.49, 15.8 0.46, 17.91 0.54 C20.03 0.63, 20.5 1.01, 20.69 1.32 M9.6 2.06 C12 0.86, 15.21 0.65, 17.98 1.36 C20.74 2.06, 24.34 3.61, 26.2 6.28 C28.07 8.95, 29.6 14.14, 29.16 17.39 C28.73 20.63, 26.1 24.19, 23.6 25.73 C21.09 27.26, 17.33 26.63, 14.12 26.59 C10.91 26.55, 6.61 26.98, 4.33 25.51 C2.05 24.03, 0.93 20.85, 0.43 17.72 C-0.07 14.59, -0.12 9.32, 1.32 6.73 C2.77 4.13, 7.83 3.03, 9.07 2.15 C10.32 1.28, 8.72 1.51, 8.79 1.48" stroke="none" stroke-width="0" fill="#1e1e2e"></path><path d="M16.34 0.84 C19.19 1.06, 23 2.14, 24.79 4.22 C26.57 6.31, 27.13 10.4, 27.06 13.37 C26.99 16.33, 26.22 19.6, 24.37 22.03 C22.52 24.46, 18.65 27.37, 15.95 27.94 C13.24 28.51, 10.56 27.04, 8.14 25.45 C5.73 23.86, 2.78 20.88, 1.46 18.4 C0.14 15.92, -0.53 13.33, 0.23 10.54 C0.99 7.76, 3.12 3.3, 6.01 1.67 C8.89 0.05, 15.31 0.61, 17.54 0.77 C19.77 0.94, 19.48 2.41, 19.41 2.65 M8.53 1.12 C10.94 -0.18, 15.02 -1.72, 17.81 -0.69 C20.59 0.33, 23.52 4.4, 25.24 7.26 C26.95 10.12, 28.58 13.65, 28.1 16.47 C27.61 19.29, 24.59 22.07, 22.34 24.17 C20.1 26.26, 17.62 28.86, 14.62 29.03 C11.62 29.2, 6.9 27.08, 4.34 25.2 C1.79 23.32, -0.44 20.59, -0.71 17.74 C-0.98 14.88, 1.13 10.88, 2.72 8.09 C4.32 5.3, 7.69 2.16, 8.87 0.99 C10.06 -0.18, 9.72 1.04, 9.84 1.07" stroke="#1e1e2e" stroke-width="2" fill="none"></path></g><g stroke-linecap="round" transform="translate(962 325) rotate(0 12 12)"><path d="M11.92 -0.49 C14.27 -0.96, 16.91 0.53, 18.73 2.08 C20.56 3.62, 22.21 6.3, 22.88 8.79 C23.54 11.29, 23.77 14.54, 22.73 17.04 C21.68 19.54, 19.09 22.75, 16.6 23.79 C14.1 24.82, 10.13 24.23, 7.75 23.25 C5.37 22.27, 3.5 20.04, 2.32 17.9 C1.13 15.77, 0.52 13.01, 0.65 10.45 C0.78 7.89, 0.94 4.12, 3.08 2.57 C5.23 1.01, 11.25 1.45, 13.54 1.12 C15.83 0.79, 16.73 0.58, 16.82 0.59 M10.39 0.07 C12.45 -0.59, 15.19 -0.17, 17.22 1.49 C19.25 3.16, 21.61 7.47, 22.58 10.05 C23.56 12.62, 23.92 14.99, 23.08 16.92 C22.25 18.85, 19.79 20.51, 17.56 21.6 C15.33 22.69, 12.04 23.93, 9.71 23.46 C7.37 22.99, 4.94 20.73, 3.56 18.8 C2.18 16.86, 1.66 14.39, 1.42 11.86 C1.17 9.33, 0.31 5.46, 2.08 3.62 C3.84 1.79, 10.55 1.53, 12.02 0.84 C13.5 0.16, 11.27 -0.67, 10.93 -0.49" stroke="none" stroke-width="0" fill="#d670c2"></path><path d="M10.25 1.23 C12.37 0.45, 15.01 -0.05, 17.05 0.88 C19.1 1.81, 21.43 4.38, 22.5 6.8 C23.57 9.21, 24.31 12.91, 23.46 15.37 C22.62 17.82, 19.72 20.03, 17.42 21.52 C15.12 23.02, 12.01 24.55, 9.68 24.33 C7.35 24.12, 5.18 22.09, 3.44 20.24 C1.7 18.38, -0.61 15.96, -0.75 13.21 C-0.88 10.46, 0.66 5.79, 2.61 3.73 C4.56 1.67, 9.75 1.54, 10.96 0.85 C12.17 0.17, 10.14 -0.3, 9.86 -0.38 M10.21 -0.71 C12.76 -1.01, 16.77 0.83, 19.14 2.55 C21.51 4.27, 23.62 7.23, 24.44 9.61 C25.26 12, 25.29 14.46, 24.05 16.86 C22.81 19.27, 19.5 23.05, 17.01 24.04 C14.52 25.02, 11.54 23.32, 9.11 22.78 C6.68 22.24, 4.07 22.78, 2.44 20.79 C0.81 18.79, -0.85 13.52, -0.69 10.82 C-0.52 8.11, 1.64 6.41, 3.45 4.56 C5.25 2.7, 8.94 0.52, 10.14 -0.32 C11.33 -1.16, 10.4 -0.91, 10.63 -0.48" stroke="#d670c2" stroke-width="2" fill="none"></path></g><g stroke-linecap="round" transform="translate(351 323) rotate(0 14 14)"><path d="M18.58 1.45 C21.2 2.3, 25.56 4.4, 26.93 7 C28.29 9.6, 27.51 13.88, 26.76 17.06 C26.01 20.24, 24.59 24.1, 22.44 26.07 C20.28 28.04, 16.89 29.03, 13.82 28.85 C10.74 28.68, 6.11 27.29, 3.99 25.01 C1.87 22.73, 1.22 18.2, 1.09 15.18 C0.96 12.16, 1.84 9.36, 3.21 6.88 C4.58 4.39, 6.55 1.17, 9.32 0.25 C12.08 -0.68, 17.84 0.97, 19.8 1.33 C21.77 1.68, 21.22 2.02, 21.1 2.39 M15.79 -0.4 C18.89 -0.28, 23.22 0.93, 25.02 2.94 C26.82 4.96, 26.72 8.76, 26.58 11.7 C26.45 14.64, 25.47 17.68, 24.2 20.56 C22.92 23.43, 21.61 27.99, 18.94 28.95 C16.28 29.92, 11.37 27.81, 8.2 26.36 C5.03 24.91, 1.12 22.95, -0.08 20.27 C-1.28 17.59, 0.19 13.43, 1.01 10.27 C1.82 7.12, 2.58 3.05, 4.83 1.34 C7.08 -0.37, 12.75 0.29, 14.52 0.02 C16.28 -0.25, 15.12 -0.41, 15.42 -0.27" stroke="none" stroke-width="0" fill="#1e1e2e"></path><path d="M15.28 0.48 C18.19 0.53, 21.12 1.66, 23.34 3.86 C25.56 6.05, 28.22 10.55, 28.6 13.64 C28.98 16.74, 27.56 20.06, 25.62 22.42 C23.67 24.79, 19.97 27.03, 16.91 27.83 C13.86 28.63, 9.79 28.44, 7.28 27.22 C4.77 26.01, 2.91 23.28, 1.86 20.53 C0.8 17.77, 0.2 13.81, 0.94 10.7 C1.68 7.59, 3.57 3.64, 6.29 1.89 C9.01 0.14, 15.15 0.3, 17.25 0.21 C19.34 0.12, 18.89 1.05, 18.86 1.36 M18.09 1.6 C20.75 2.52, 23.95 6.06, 25.4 8.66 C26.84 11.25, 27.25 14.34, 26.76 17.18 C26.27 20.02, 24.83 24.08, 22.45 25.7 C20.08 27.32, 15.56 26.9, 12.49 26.91 C9.42 26.91, 5.89 27.58, 4.04 25.73 C2.19 23.87, 1.97 18.92, 1.39 15.77 C0.81 12.62, -0.92 9.16, 0.53 6.84 C1.98 4.52, 7.14 2.65, 10.09 1.86 C13.03 1.07, 16.91 1.98, 18.21 2.09 C19.51 2.21, 17.93 2.4, 17.88 2.55" stroke="#1e1e2e" stroke-width="2" fill="none"></path></g><g stroke-linecap="round" transform="translate(353 325) rotate(0 12 12)"><path d="M5.98 1.93 C7.98 0.56, 12.04 0.36, 14.59 0.68 C17.14 1.01, 19.74 2.1, 21.31 3.89 C22.88 5.68, 24.1 8.73, 24.01 11.43 C23.91 14.13, 22.56 17.91, 20.72 20.09 C18.88 22.27, 15.45 24.18, 12.97 24.51 C10.49 24.84, 7.8 23.65, 5.82 22.08 C3.84 20.52, 2.01 17.52, 1.09 15.1 C0.17 12.69, -0.73 9.99, 0.29 7.61 C1.31 5.23, 5.92 1.86, 7.2 0.8 C8.47 -0.25, 7.92 0.9, 7.94 1.28 M16.37 0.26 C19.09 0.96, 22.3 5.21, 23.32 7.43 C24.33 9.64, 23.11 11.1, 22.48 13.52 C21.85 15.95, 21.29 20.47, 19.52 21.98 C17.74 23.49, 14.33 22.72, 11.83 22.59 C9.33 22.46, 6.23 22.55, 4.54 21.19 C2.84 19.82, 2.37 17.07, 1.67 14.39 C0.97 11.71, -0.51 7.15, 0.34 5.1 C1.19 3.04, 3.92 2.71, 6.75 2.07 C9.59 1.43, 15.86 1.32, 17.36 1.28 C18.86 1.23, 16.14 1.67, 15.76 1.8" stroke="none" stroke-width="0" fill="#a371f7"></path><path d="M7.58 1.46 C9.76 0.2, 13.11 -0.72, 15.38 -0.18 C17.66 0.36, 19.67 2.57, 21.25 4.68 C22.83 6.8, 24.87 9.99, 24.86 12.52 C24.86 15.06, 23.41 17.91, 21.23 19.88 C19.05 21.85, 14.6 24.09, 11.8 24.36 C9 24.63, 6.31 23.1, 4.43 21.49 C2.55 19.88, 0.92 17.27, 0.52 14.7 C0.11 12.12, 0.68 8.24, 1.98 6.04 C3.29 3.85, 7.05 2.39, 8.33 1.52 C9.61 0.64, 9.71 0.87, 9.66 0.81 M9.75 -1.18 C12.41 -1.44, 17.6 -0.14, 19.68 1.55 C21.76 3.23, 21.48 6.59, 22.24 8.93 C23.01 11.26, 25.18 13.09, 24.27 15.54 C23.36 18, 19.2 22.56, 16.77 23.67 C14.34 24.77, 12.06 22.96, 9.68 22.17 C7.31 21.37, 4.22 20.59, 2.51 18.91 C0.8 17.23, -0.76 14.86, -0.58 12.11 C-0.4 9.35, 1.89 4.2, 3.59 2.4 C5.3 0.6, 8.53 1.89, 9.64 1.3 C10.75 0.71, 9.91 -1.14, 10.26 -1.12" stroke="#a371f7" stroke-width="2" fill="none"></path></g><g transform="translate(30 452) rotate(0 111.9139404296875 13.75)"><text x="0" y="NaN" font-family="Virgil, Segoe UI Emoji" font-size="22px" fill="#e6edf3" text-anchor="start" style="white-space: pre;" direction="ltr">3. Consistency Model</text></g><g stroke-linecap="round" transform="translate(50 499) rotate(0 525 3)"><path d="M-1.35 1.84 L1049.81 1.55 L1049.24 4.45 L-0.79 6.4" stroke="none" stroke-width="0" fill="#21262d"></path><path d="M0.17 -0.25 C330.49 3.55, 660.6 2.76, 1049.35 0.44 M0.28 -0.28 C308.43 -2.03, 616.04 -2.06, 1049.75 0.31 M1049.92 0.51 C1049.56 1.85, 1049.63 3.18, 1049.96 6.18 M1049.83 0.23 C1049.94 1.73, 1050.06 3.12, 1049.76 6.13 M1049.85 6.66 C639.21 6.89, 227.64 7.21, 0.22 6.65 M1050.38 5.63 C776.26 1.76, 502.44 2.08, 0.03 5.63 M-0.18 6.56 C0.1 4.37, 0.32 2, -0.47 -0.08 M-0.04 6.09 C-0.12 3.88, 0.11 1.5, 0.19 0.19" stroke="#8b949e" stroke-width="1" fill="none"></path></g><g stroke-linecap="round"><g transform="translate(50 488) rotate(0 0 14)"><path d="M-1.17 0.85 C-1.24 5.72, -0.09 23.49, -0.08 28.21 M0.42 0.26 C0.16 4.83, -1.2 21.66, -1.07 26.2" stroke="#8b949e" stroke-width="2" fill="none"></path></g></g><g stroke-linecap="round"><g transform="translate(1100 488) rotate(0 0 14)"><path d="M0.13 -0.14 C0.21 4.72, 0.19 24.53, 0.06 29.05 M-1.26 -1.26 C-1.3 3.29, -0.77 22.65, -0.85 27.47" stroke="#8b949e" stroke-width="2" fill="none"></path></g></g><g transform="translate(50 530) rotate(0 78.90743255615234 9.375)"><text x="0" y="NaN" font-family="Virgil, Segoe UI Emoji" font-size="15px" fill="#8b949e" text-anchor="start" style="white-space: pre;" direction="ltr">Strong  (coordinated)</text></g><g transform="translate(909.4252166748047 530) rotate(0 95.28739166259766 9.375)"><text x="190.5747833251953" y="NaN" font-family="Virgil, Segoe UI Emoji" font-size="15px" fill="#8b949e" text-anchor="end" style="white-space: pre;" direction="ltr">Eventual  (uncoordinated)</text></g><g stroke-linecap="round" transform="translate(88 488) rotate(0 14 14)"><path d="M14.42 0.68 C17.25 0.81, 20.68 2.79, 22.85 4.57 C25.02 6.34, 26.88 8.61, 27.45 11.32 C28.02 14.04, 27.9 18.34, 26.28 20.86 C24.67 23.38, 20.71 25.37, 17.77 26.44 C14.83 27.5, 11.48 28.27, 8.64 27.25 C5.8 26.22, 1.95 23.03, 0.72 20.29 C-0.51 17.54, 0.4 13.6, 1.25 10.78 C2.1 7.96, 3.39 5.05, 5.82 3.36 C8.24 1.68, 13.9 1.14, 15.78 0.65 C17.65 0.16, 17.19 0.3, 17.07 0.4 M10.89 0.04 C13.59 -0.33, 17.83 1.73, 20.74 3.22 C23.65 4.71, 27.08 6.16, 28.33 8.97 C29.58 11.78, 29.21 17.33, 28.23 20.06 C27.25 22.78, 25.11 24.26, 22.45 25.33 C19.8 26.4, 15.39 26.98, 12.29 26.48 C9.19 25.98, 5.76 24.6, 3.83 22.31 C1.9 20.02, 0.83 15.73, 0.72 12.75 C0.62 9.77, 1.45 6.49, 3.21 4.44 C4.96 2.39, 9.99 1.1, 11.24 0.45 C12.48 -0.2, 10.8 0.59, 10.68 0.54" stroke="none" stroke-width="0" fill="#1e1e2e"></path><path d="M12.65 0.15 C15.44 -0.29, 19.69 0.91, 22.19 2.75 C24.68 4.58, 27.01 8.05, 27.64 11.16 C28.27 14.26, 27.22 18.78, 25.99 21.37 C24.75 23.95, 22.96 25.51, 20.23 26.68 C17.5 27.84, 12.57 29.2, 9.6 28.34 C6.63 27.48, 3.94 24.25, 2.42 21.54 C0.89 18.82, 0.24 15.05, 0.46 12.05 C0.68 9.06, 1.57 5.54, 3.73 3.55 C5.89 1.56, 11.52 0.63, 13.43 0.11 C15.33 -0.42, 15.1 0.34, 15.17 0.41 M20.43 0.09 C23.13 1.38, 23.56 5.57, 24.81 8.38 C26.06 11.19, 28.36 14.3, 27.94 16.93 C27.52 19.55, 24.57 22.33, 22.29 24.13 C20 25.94, 16.97 27.72, 14.23 27.77 C11.5 27.82, 8.27 26.25, 5.87 24.43 C3.47 22.6, 0.61 19.61, -0.16 16.82 C-0.93 14.03, -0.2 10.23, 1.23 7.7 C2.66 5.18, 5.24 2.83, 8.42 1.67 C11.6 0.51, 18.45 0.92, 20.31 0.75 C22.18 0.59, 19.99 0.56, 19.59 0.7" stroke="#1e1e2e" stroke-width="2" fill="none"></path></g><g stroke-linecap="round" transform="translate(90 490) rotate(0 12 12)"><path d="M7.71 1.2 C9.87 0.44, 13.24 0.41, 15.55 1.28 C17.87 2.15, 20.11 4.35, 21.59 6.42 C23.06 8.5, 24.69 11.33, 24.39 13.73 C24.09 16.14, 22.02 18.99, 19.81 20.85 C17.59 22.7, 13.76 24.82, 11.09 24.86 C8.43 24.9, 5.67 22.76, 3.84 21.1 C2 19.43, 0.31 17.37, 0.07 14.89 C-0.16 12.41, 0.89 8.58, 2.43 6.2 C3.96 3.82, 7.7 1.76, 9.28 0.62 C10.86 -0.52, 11.74 -0.69, 11.91 -0.65 M16 1.02 C18.26 1.67, 21.6 4.69, 22.88 6.75 C24.15 8.82, 24 11.03, 23.65 13.41 C23.3 15.79, 22.69 19.16, 20.8 21.03 C18.9 22.91, 15.01 24.57, 12.29 24.69 C9.57 24.81, 6.5 23.32, 4.49 21.75 C2.48 20.17, 0.65 17.7, 0.21 15.22 C-0.23 12.74, 0.34 9.18, 1.84 6.87 C3.34 4.55, 6.91 2.28, 9.22 1.32 C11.54 0.36, 14.42 1.3, 15.73 1.08 C17.05 0.85, 17.28 -0.18, 17.1 -0.02" stroke="none" stroke-width="0" fill="#58a6ff"></path><path d="M13.48 0.44 C15.78 0.54, 18.58 2.06, 20.31 3.95 C22.03 5.85, 23.55 9.03, 23.81 11.81 C24.08 14.59, 23.65 18.66, 21.9 20.64 C20.16 22.61, 15.83 23.51, 13.35 23.65 C10.88 23.79, 9.23 22.71, 7.04 21.5 C4.85 20.29, 1.29 18.48, 0.19 16.39 C-0.91 14.3, -0.6 11.34, 0.44 8.95 C1.48 6.57, 3.93 3.44, 6.45 2.08 C8.98 0.72, 13.66 0.95, 15.58 0.77 C17.49 0.59, 17.84 0.75, 17.95 0.98 M8.69 -0.09 C11.18 -0.65, 14.87 1.33, 17.1 2.31 C19.33 3.3, 20.82 3.48, 22.07 5.83 C23.33 8.17, 25.11 13.99, 24.61 16.41 C24.12 18.82, 21.5 18.95, 19.12 20.32 C16.75 21.69, 13.18 24.77, 10.38 24.63 C7.57 24.48, 3.85 21.19, 2.27 19.42 C0.7 17.65, 0.84 16.26, 0.92 14.01 C1 11.75, 1.64 8.25, 2.74 5.9 C3.84 3.55, 6.39 0.93, 7.5 -0.08 C8.61 -1.1, 9.12 -0.31, 9.39 -0.21" stroke="#58a6ff" stroke-width="2" fill="none"></path></g><g stroke-linecap="round" transform="translate(613 488) rotate(0 14 14)"><path d="M15.64 -0.08 C18.46 -0.04, 22.66 1.8, 24.58 4.15 C26.5 6.49, 27.15 10.74, 27.19 13.97 C27.23 17.2, 26.44 21.19, 24.82 23.52 C23.2 25.86, 20.26 27.56, 17.47 27.96 C14.69 28.36, 10.89 27.56, 8.1 25.95 C5.31 24.33, 1.84 20.93, 0.73 18.28 C-0.39 15.63, 0.4 12.66, 1.41 10.05 C2.42 7.44, 3.94 4.24, 6.78 2.62 C9.61 1, 16.31 0.56, 18.43 0.33 C20.55 0.11, 19.66 0.85, 19.5 1.24 M11.26 1.3 C14.32 0.56, 18.68 -0.65, 21.59 0.66 C24.5 1.97, 28 6.04, 28.73 9.18 C29.45 12.31, 27.17 16.58, 25.94 19.45 C24.71 22.31, 23.97 24.99, 21.33 26.35 C18.69 27.7, 13 28.27, 10.1 27.57 C7.19 26.88, 5.4 24.72, 3.89 22.16 C2.39 19.61, 1.1 15.12, 1.07 12.25 C1.04 9.37, 1.68 7.01, 3.7 4.9 C5.72 2.8, 12.06 0.5, 13.2 -0.37 C14.35 -1.24, 10.59 -0.51, 10.57 -0.33" stroke="none" stroke-width="0" fill="#1e1e2e"></path><path d="M10.01 -0.08 C12.8 -0.86, 17.68 0.13, 20.37 1.44 C23.05 2.74, 24.91 5.23, 26.11 7.74 C27.32 10.25, 28.21 13.43, 27.58 16.5 C26.94 19.57, 24.51 24.15, 22.28 26.17 C20.05 28.19, 17.15 28.92, 14.18 28.62 C11.21 28.32, 6.74 26.52, 4.46 24.39 C2.19 22.26, 0.94 18.93, 0.54 15.85 C0.13 12.76, 0.17 8.47, 2.04 5.9 C3.92 3.32, 10.13 1.36, 11.79 0.4 C13.45 -0.56, 12.12 0.01, 12.02 0.15 M8.17 0.9 C10.49 -0.49, 14.67 -1.27, 17.74 -0.54 C20.82 0.19, 24.79 2.46, 26.61 5.25 C28.42 8.05, 28.94 13.1, 28.64 16.25 C28.34 19.4, 27.24 22.38, 24.82 24.16 C22.4 25.94, 17.35 26.86, 14.11 26.94 C10.87 27.01, 7.75 25.99, 5.36 24.61 C2.97 23.23, 0.39 21.35, -0.24 18.66 C-0.88 15.97, 0.32 11.57, 1.56 8.47 C2.8 5.38, 5.99 1.12, 7.19 0.1 C8.38 -0.93, 8.28 1.94, 8.75 2.31" stroke="#1e1e2e" stroke-width="2" fill="none"></path></g><g stroke-linecap="round" transform="translate(615 490) rotate(0 12 12)"><path d="M9.62 -0.54 C11.78 -0.84, 15.47 0.68, 17.82 2.35 C20.17 4.01, 22.97 7.18, 23.72 9.43 C24.46 11.68, 23.42 13.69, 22.28 15.84 C21.15 17.98, 19.16 21.04, 16.91 22.3 C14.66 23.57, 11.07 23.9, 8.78 23.45 C6.49 23, 4.78 21.6, 3.17 19.61 C1.56 17.62, -0.92 14.14, -0.86 11.52 C-0.79 8.9, 1.41 5.79, 3.55 3.87 C5.69 1.94, 10.09 0.69, 12 -0.03 C13.91 -0.75, 14.94 -0.72, 15.03 -0.44 M14.48 0.52 C16.94 0.38, 18.62 1.56, 20.13 3.34 C21.64 5.12, 23.06 8.77, 23.54 11.22 C24.01 13.66, 24.46 15.75, 22.99 18 C21.51 20.26, 17.18 23.97, 14.68 24.73 C12.18 25.5, 10.31 23.86, 7.97 22.59 C5.62 21.33, 1.64 19.34, 0.6 17.15 C-0.45 14.95, 1.09 11.81, 1.7 9.41 C2.31 7.02, 2.41 4.27, 4.26 2.78 C6.11 1.29, 11.21 0.95, 12.8 0.48 C14.39 0.02, 13.72 -0.26, 13.81 -0.02" stroke="none" stroke-width="0" fill="#3fb950"></path><path d="M12.9 -0.9 C15.47 -0.98, 18.57 1.28, 20.54 3.29 C22.51 5.3, 24.64 8.64, 24.72 11.17 C24.81 13.7, 22.58 16.5, 21.07 18.46 C19.56 20.42, 17.81 22.24, 15.67 22.93 C13.53 23.63, 10.49 23.54, 8.23 22.63 C5.97 21.72, 3.47 19.64, 2.1 17.48 C0.73 15.32, -0.35 12.1, 0 9.69 C0.35 7.28, 2.01 4.69, 4.19 3.02 C6.38 1.34, 11.12 0.15, 13.11 -0.38 C15.11 -0.92, 16.18 -0.42, 16.19 -0.2 M15.45 0.94 C18.12 1.43, 22.23 3.46, 23.45 5.88 C24.68 8.31, 23.36 13.07, 22.8 15.5 C22.25 17.93, 22.11 18.83, 20.12 20.47 C18.13 22.1, 13.69 25.02, 10.88 25.3 C8.08 25.58, 5.22 23.93, 3.27 22.14 C1.33 20.35, -0.64 17.05, -0.77 14.57 C-0.9 12.09, 0.78 9.59, 2.49 7.27 C4.21 4.95, 7.18 1.81, 9.52 0.67 C11.87 -0.48, 15.56 0.3, 16.55 0.42 C17.53 0.55, 15.4 0.92, 15.43 1.41" stroke="#3fb950" stroke-width="2" fill="none"></path></g><g stroke-linecap="round" transform="translate(1002 488) rotate(0 14 14)"><path d="M13.19 0.28 C16 -0.28, 19.59 0.27, 21.83 1.94 C24.06 3.62, 25.61 7.23, 26.6 10.31 C27.59 13.39, 28.78 17.66, 27.74 20.44 C26.71 23.22, 23.25 25.69, 20.37 26.99 C17.49 28.3, 13.27 29.18, 10.46 28.27 C7.65 27.36, 5.16 24.05, 3.54 21.54 C1.91 19.03, 0.79 16.21, 0.72 13.19 C0.65 10.18, 0.7 5.63, 3.11 3.45 C5.52 1.27, 12.91 0.5, 15.17 0.12 C17.44 -0.27, 16.82 0.92, 16.71 1.13 M19.96 1.57 C22.49 2.24, 24.48 3.42, 25.78 5.85 C27.09 8.28, 28.03 13.12, 27.8 16.17 C27.56 19.22, 26.47 22.27, 24.37 24.15 C22.27 26.03, 18.25 27.18, 15.21 27.44 C12.17 27.7, 8.51 27.68, 6.13 25.72 C3.75 23.75, 1.59 18.55, 0.93 15.65 C0.27 12.76, 0.67 10.84, 2.19 8.36 C3.72 5.87, 7.2 2.03, 10.07 0.76 C12.94 -0.51, 17.8 0.52, 19.41 0.76 C21.03 0.99, 19.83 1.81, 19.74 2.18" stroke="none" stroke-width="0" fill="#1e1e2e"></path><path d="M15.2 0.39 C18.09 0.35, 22.5 0.72, 24.54 2.87 C26.59 5.02, 27.33 10.2, 27.49 13.31 C27.65 16.41, 27.16 19.23, 25.51 21.49 C23.86 23.74, 20.54 26.03, 17.59 26.85 C14.64 27.66, 10.44 27.55, 7.81 26.37 C5.18 25.18, 2.98 22.28, 1.83 19.73 C0.68 17.18, 0.13 13.78, 0.91 11.05 C1.69 8.32, 3.72 5.03, 6.51 3.34 C9.29 1.65, 15.29 0.99, 17.61 0.92 C19.93 0.86, 20.28 2.8, 20.43 2.95 M12.7 -1.33 C15.87 -1.86, 21.01 -0.1, 23.75 1.84 C26.49 3.79, 28.65 7.03, 29.14 10.35 C29.63 13.67, 28.59 18.92, 26.71 21.76 C24.84 24.6, 20.66 26.59, 17.9 27.37 C15.15 28.15, 12.62 27.37, 10.19 26.43 C7.75 25.48, 5.17 24.32, 3.32 21.69 C1.47 19.07, -1.28 13.88, -0.94 10.67 C-0.61 7.46, 2.73 4.09, 5.33 2.45 C7.93 0.81, 13.23 1.27, 14.68 0.83 C16.13 0.39, 14.02 -0.46, 14.05 -0.19" stroke="#1e1e2e" stroke-width="2" fill="none"></path></g><g stroke-linecap="round" transform="translate(1004 490) rotate(0 12 12)"><path d="M7.54 0.28 C9.91 -0.9, 14.05 0.12, 16.5 0.88 C18.95 1.64, 20.85 2.77, 22.24 4.82 C23.62 6.87, 25.29 10.68, 24.8 13.2 C24.31 15.72, 21.42 18.18, 19.32 19.94 C17.21 21.7, 14.73 23.41, 12.15 23.76 C9.57 24.11, 5.67 23.71, 3.85 22.05 C2.03 20.4, 1.64 16.26, 1.24 13.82 C0.83 11.37, 0.38 9.56, 1.43 7.4 C2.48 5.24, 6.16 2.05, 7.56 0.87 C8.96 -0.31, 9.8 0.23, 9.81 0.32 M15.62 -0.53 C17.94 0.12, 21.83 3.72, 23.24 6.28 C24.64 8.84, 24.51 12.14, 24.07 14.83 C23.63 17.52, 22.75 21.08, 20.59 22.43 C18.43 23.77, 13.84 23.34, 11.1 22.92 C8.36 22.5, 6.13 21.23, 4.16 19.9 C2.2 18.56, -0.11 17.15, -0.69 14.9 C-1.26 12.65, -0.68 8.91, 0.72 6.41 C2.12 3.91, 5.25 1.02, 7.7 -0.1 C10.16 -1.21, 13.99 -0.7, 15.45 -0.28 C16.9 0.13, 16.14 2.24, 16.44 2.4" stroke="none" stroke-width="0" fill="#f0883e"></path><path d="M10.79 0.91 C13.38 0.39, 17.22 0.43, 19.36 1.8 C21.5 3.17, 22.83 6.76, 23.62 9.14 C24.41 11.51, 25.08 13.88, 24.1 16.03 C23.12 18.17, 20.16 20.83, 17.72 22 C15.29 23.18, 11.94 23.53, 9.48 23.09 C7.01 22.65, 4.48 21.3, 2.95 19.37 C1.43 17.43, 0.39 14.05, 0.33 11.47 C0.27 8.9, 0.52 5.91, 2.6 3.91 C4.68 1.91, 10.85 -0.05, 12.79 -0.54 C14.73 -1.02, 14.15 0.66, 14.21 0.98 M12.65 1.5 C14.82 1.27, 17.46 1, 19.58 2.35 C21.71 3.7, 24.99 7.06, 25.41 9.6 C25.82 12.14, 23.49 15.21, 22.05 17.6 C20.62 19.98, 19.1 23.22, 16.79 23.92 C14.48 24.62, 10.98 22.65, 8.2 21.79 C5.43 20.93, 1.46 20.84, 0.14 18.74 C-1.18 16.65, -0.39 11.85, 0.29 9.2 C0.98 6.55, 2.02 4.14, 4.25 2.85 C6.47 1.57, 12.36 1.94, 13.64 1.5 C14.93 1.06, 12.38 0.31, 11.95 0.21" stroke="#f0883e" stroke-width="2" fill="none"></path></g><g stroke-linecap="round" transform="translate(771 488) rotate(0 14 14)"><path d="M11.11 -0.22 C13.87 -1.01, 17.31 -0.58, 19.84 0.99 C22.37 2.57, 25.07 6.25, 26.28 9.22 C27.5 12.19, 27.88 16.13, 27.12 18.8 C26.35 21.47, 24.28 23.66, 21.7 25.25 C19.13 26.84, 14.6 28.6, 11.67 28.34 C8.73 28.07, 6.2 26.05, 4.1 23.68 C1.99 21.31, -0.64 17.28, -0.96 14.1 C-1.28 10.92, -0.45 7.11, 2.17 4.61 C4.78 2.11, 12.13 -0.23, 14.72 -0.87 C17.32 -1.51, 17.78 0.51, 17.74 0.76 M20.44 0.46 C23.31 1.74, 27.18 6.14, 28.18 8.94 C29.18 11.74, 27.39 14.62, 26.43 17.26 C25.47 19.89, 24.72 22.78, 22.42 24.75 C20.12 26.72, 15.95 29.18, 12.62 29.08 C9.28 28.99, 4.59 26.78, 2.4 24.18 C0.21 21.58, -0.62 16.64, -0.53 13.5 C-0.43 10.37, 1.2 7.65, 2.96 5.38 C4.72 3.1, 7.28 0.58, 10.04 -0.15 C12.81 -0.88, 17.97 0.84, 19.56 0.99 C21.15 1.13, 19.35 0.37, 19.59 0.73" stroke="none" stroke-width="0" fill="#1e1e2e"></path><path d="M14.47 0.89 C17.41 0.8, 20.34 2.37, 22.59 4.25 C24.83 6.14, 27.29 9.24, 27.93 12.2 C28.56 15.15, 28.07 19.43, 26.41 21.97 C24.74 24.51, 20.74 26.74, 17.93 27.44 C15.11 28.14, 12.13 27.3, 9.52 26.17 C6.9 25.04, 3.72 23.13, 2.25 20.67 C0.78 18.21, 0.1 14.28, 0.69 11.41 C1.29 8.53, 3.14 5.41, 5.83 3.41 C8.52 1.4, 14.53 -0.14, 16.85 -0.6 C19.16 -1.06, 19.65 0.21, 19.7 0.65 M17.28 -0.02 C19.9 0.33, 22.85 2.69, 24.6 5.29 C26.34 7.89, 27.7 12.81, 27.74 15.56 C27.78 18.31, 26.68 19.53, 24.84 21.78 C23 24.04, 19.84 28.56, 16.71 29.09 C13.58 29.63, 8.83 26.97, 6.08 25 C3.32 23.02, 1.25 19.95, 0.18 17.21 C-0.88 14.47, -1.58 11.07, -0.3 8.57 C0.97 6.06, 5.22 3.33, 7.81 2.16 C10.41 1, 13.93 2.03, 15.27 1.58 C16.62 1.14, 15.54 -0.61, 15.88 -0.52" stroke="#1e1e2e" stroke-width="2" fill="none"></path></g><g stroke-linecap="round" transform="translate(773 490) rotate(0 12 12)"><path d="M6.88 1.7 C9.19 0.64, 13.29 0.13, 15.67 0.59 C18.05 1.05, 19.83 2.26, 21.17 4.45 C22.51 6.64, 23.77 11.22, 23.72 13.74 C23.67 16.26, 22.59 17.87, 20.87 19.57 C19.15 21.28, 15.87 23.57, 13.39 23.96 C10.91 24.35, 8.03 23.45, 5.99 21.92 C3.96 20.4, 2.01 17.41, 1.19 14.78 C0.37 12.16, -0.21 8.54, 1.09 6.18 C2.4 3.83, 7.6 1.54, 9.01 0.66 C10.42 -0.23, 9.65 0.64, 9.55 0.87 M8.26 0.76 C10.34 -0.06, 12.48 0.74, 15.01 1.76 C17.55 2.77, 21.89 4.6, 23.47 6.85 C25.05 9.09, 25.37 12.71, 24.51 15.21 C23.64 17.7, 20.32 20.27, 18.28 21.82 C16.25 23.36, 14.8 24.5, 12.29 24.46 C9.79 24.41, 5.27 23.13, 3.25 21.55 C1.22 19.97, 0.29 17.61, 0.11 14.99 C-0.06 12.37, 0.89 8.17, 2.2 5.83 C3.51 3.49, 7 1.62, 7.97 0.94 C8.94 0.26, 8.06 1.41, 8 1.76" stroke="none" stroke-width="0" fill="#d670c2"></path><path d="M10.18 -0.71 C12.81 -0.87, 17.18 1.47, 19.36 2.98 C21.55 4.49, 22.83 6.01, 23.27 8.38 C23.71 10.74, 23 14.81, 21.99 17.18 C20.99 19.55, 19.29 21.52, 17.23 22.58 C15.17 23.64, 12 24.2, 9.65 23.52 C7.31 22.84, 4.67 20.72, 3.13 18.51 C1.6 16.3, 0.42 12.82, 0.45 10.26 C0.48 7.7, 1.22 4.87, 3.31 3.17 C5.4 1.47, 11.23 0.67, 12.97 0.07 C14.7 -0.54, 13.74 -0.84, 13.74 -0.48 M15.83 1.65 C17.94 2.84, 20.41 5.64, 21.6 7.66 C22.79 9.68, 23.3 11.37, 22.95 13.77 C22.61 16.16, 21.44 20.45, 19.54 22.01 C17.65 23.57, 14.4 23.25, 11.58 23.14 C8.76 23.04, 4.29 23.05, 2.62 21.39 C0.96 19.74, 1.88 15.64, 1.58 13.22 C1.28 10.8, -0.43 9.24, 0.83 6.88 C2.09 4.52, 6.48 -0.19, 9.15 -0.95 C11.83 -1.7, 15.74 1.84, 16.88 2.35 C18.02 2.86, 16.03 2, 16 2.11" stroke="#d670c2" stroke-width="2" fill="none"></path></g><g stroke-linecap="round" transform="translate(141 488) rotate(0 14 14)"><path d="M16.46 0.73 C19.39 1.36, 23.88 4.08, 25.82 6.29 C27.76 8.5, 28.46 11.16, 28.09 13.98 C27.72 16.8, 25.71 21.04, 23.6 23.21 C21.5 25.38, 18.38 26.67, 15.44 27.01 C12.5 27.34, 8.34 26.77, 5.97 25.21 C3.61 23.64, 2.2 20.35, 1.25 17.63 C0.3 14.92, -0.85 11.68, 0.26 8.9 C1.37 6.12, 4.8 2.27, 7.91 0.96 C11.02 -0.35, 16.68 0.61, 18.93 1.03 C21.19 1.45, 21.33 3.24, 21.44 3.49 M8.82 -0.02 C11.57 -1.18, 15.64 -0.72, 18.5 0.77 C21.36 2.26, 24.27 6.43, 25.99 8.94 C27.71 11.45, 29.26 13.26, 28.8 15.82 C28.35 18.38, 25.71 22.13, 23.24 24.29 C20.76 26.46, 16.88 28.93, 13.96 28.8 C11.03 28.67, 7.76 25.5, 5.7 23.53 C3.64 21.56, 2.03 19.64, 1.59 16.98 C1.15 14.32, 1.79 10.11, 3.06 7.55 C4.32 5, 8.1 2.93, 9.17 1.64 C10.24 0.35, 9.14 -0.21, 9.47 -0.21" stroke="none" stroke-width="0" fill="#1e1e2e"></path><path d="M14.61 -0.05 C17.68 -0.04, 21.49 2.05, 23.78 4.13 C26.07 6.21, 27.93 9.67, 28.34 12.43 C28.74 15.19, 27.89 18.14, 26.2 20.69 C24.5 23.24, 21.06 26.74, 18.14 27.72 C15.22 28.7, 11.26 27.86, 8.67 26.58 C6.09 25.31, 4.01 22.52, 2.63 20.08 C1.24 17.64, 0.05 14.68, 0.37 11.93 C0.68 9.17, 1.95 5.65, 4.51 3.53 C7.06 1.42, 13.64 -0.39, 15.67 -0.78 C17.7 -1.16, 16.68 0.76, 16.68 1.23 M18.35 -0.71 C20.84 -0.31, 23.58 3.19, 25.3 6.13 C27.03 9.07, 29.05 13.82, 28.69 16.93 C28.32 20.04, 25.54 23.05, 23.1 24.77 C20.66 26.49, 17.02 27.33, 14.05 27.26 C11.08 27.2, 7.34 26.15, 5.3 24.37 C3.25 22.6, 2.34 19.62, 1.77 16.62 C1.21 13.62, 0.98 9.23, 1.89 6.39 C2.81 3.55, 4.7 0.74, 7.26 -0.42 C9.82 -1.58, 15.34 -0.64, 17.25 -0.56 C19.16 -0.49, 18.8 -0.39, 18.72 0.03" stroke="#1e1e2e" stroke-width="2" fill="none"></path></g><g stroke-linecap="round" transform="translate(143 490) rotate(0 12 12)"><path d="M7.22 1.89 C9.4 0.83, 12.59 -1.06, 15 -0.33 C17.41 0.4, 20.13 3.9, 21.68 6.27 C23.24 8.64, 24.45 11.52, 24.32 13.9 C24.19 16.28, 22.82 18.9, 20.91 20.57 C18.99 22.24, 15.65 23.89, 12.83 23.9 C10 23.92, 5.92 22.07, 3.96 20.69 C2.01 19.31, 1.4 17.94, 1.09 15.6 C0.79 13.25, 0.84 9.05, 2.13 6.63 C3.42 4.21, 7.53 2.15, 8.83 1.08 C10.14 0.01, 10.04 0.09, 9.97 0.22 M15.71 0.27 C18.36 0.42, 20.76 2.3, 22.11 4.29 C23.47 6.28, 24.06 9.88, 23.83 12.22 C23.6 14.57, 22.34 16.37, 20.75 18.35 C19.15 20.33, 16.62 23.54, 14.27 24.11 C11.92 24.68, 9.13 23.07, 6.66 21.78 C4.19 20.49, 0.45 18.78, -0.53 16.36 C-1.5 13.93, -0.31 9.66, 0.8 7.22 C1.91 4.78, 4.03 2.69, 6.12 1.73 C8.21 0.77, 12.05 1.78, 13.33 1.46 C14.62 1.14, 13.76 -0.42, 13.84 -0.18" stroke="none" stroke-width="0" fill="#a371f7"></path><path d="M14.95 1.21 C17.26 1.65, 19.86 2.7, 21.19 4.78 C22.51 6.85, 23.04 10.85, 22.92 13.67 C22.79 16.48, 22.01 19.92, 20.41 21.67 C18.81 23.41, 16.08 24.14, 13.29 24.13 C10.51 24.13, 5.82 23.22, 3.72 21.63 C1.62 20.03, 1.25 17.05, 0.7 14.57 C0.14 12.08, -0.68 8.87, 0.39 6.72 C1.47 4.57, 4.32 2.5, 7.17 1.66 C10.01 0.83, 15.43 1.63, 17.46 1.7 C19.49 1.76, 19.41 1.94, 19.34 2.03 M16.56 1.27 C19.06 2.45, 22.9 4.86, 23.92 7.24 C24.94 9.62, 23.65 13.12, 22.67 15.55 C21.69 17.97, 20.04 20.5, 18.05 21.78 C16.05 23.07, 12.93 23.48, 10.72 23.28 C8.51 23.08, 6.57 22.47, 4.79 20.61 C3.01 18.74, 0.46 14.68, 0.05 12.09 C-0.35 9.5, 1.07 7.21, 2.38 5.08 C3.68 2.95, 5.71 0.13, 7.88 -0.68 C10.04 -1.48, 14.06 0.07, 15.38 0.25 C16.69 0.44, 15.56 -0.06, 15.79 0.44" stroke="#a371f7" stroke-width="2" fill="none"></path></g><g transform="translate(30 617) rotate(0 103.72993469238281 13.75)"><text x="0" y="NaN" font-family="Virgil, Segoe UI Emoji" font-size="22px" fill="#e6edf3" text-anchor="start" style="white-space: pre;" direction="ltr">4. Scaling Approach</text></g><g stroke-linecap="round" transform="translate(50 664) rotate(0 525 3)"><path d="M-1.17 -0.07 L1051.63 0.71 L1051.96 5.63 L1.42 7.48" stroke="none" stroke-width="0" fill="#21262d"></path><path d="M-0.14 -0.06 C271.46 0.18, 542.07 1.16, 1049.82 0.15 M-0.29 -0.39 C359.55 -1.48, 719.75 -2, 1050.06 -0.04 M1049.89 0.39 C1049.5 1.34, 1049.83 2.28, 1049.86 6.47 M1050.08 -0.16 C1049.72 1.92, 1049.97 3.72, 1050.09 6.19 M1049.34 6.1 C790.58 10.52, 531.06 9.27, -0.33 6.03 M1050.06 6.27 C828.54 1.88, 607.13 1.58, 0.29 5.62 M0.09 6.58 C-0.54 4.46, 0.01 1.98, -0.44 -0.07 M-0.11 5.71 C-0.04 3.93, 0.13 1.29, 0.29 0.2" stroke="#8b949e" stroke-width="1" fill="none"></path></g><g stroke-linecap="round"><g transform="translate(50 653) rotate(0 0 14)"><path d="M0.38 0.26 C0.52 5.07, 1.2 23.9, 0.97 28.51 M-0.88 -0.64 C-0.82 3.83, 0.15 21.68, 0.53 26.65" stroke="#8b949e" stroke-width="2" fill="none"></path></g></g><g stroke-linecap="round"><g transform="translate(1100 653) rotate(0 0 14)"><path d="M-1.12 0.21 C-0.94 4.77, 0.71 22.67, 1.07 27.38 M0.49 -0.73 C0.61 3.98, 0.63 24.08, 0.68 28.59" stroke="#8b949e" stroke-width="2" fill="none"></path></g></g><g transform="translate(50 695) rotate(0 79.79991149902344 9.375)"><text x="0" y="NaN" font-family="Virgil, Segoe UI Emoji" font-size="15px" fill="#8b949e" text-anchor="start" style="white-space: pre;" direction="ltr">Vertical  (single node)</text></g><g transform="translate(840.0052490234375 695) rotate(0 129.99737548828125 9.375)"><text x="259.9947509765625" y="NaN" font-family="Virgil, Segoe UI Emoji" font-size="15px" fill="#8b949e" text-anchor="end" style="white-space: pre;" direction="ltr">Horizontal  (sharded across nodes)</text></g><g stroke-linecap="round" transform="translate(88 653) rotate(0 14 14)"><path d="M16.17 0.75 C19.02 1.14, 23.99 3.4, 26.08 5.72 C28.17 8.04, 29.15 11.56, 28.7 14.65 C28.26 17.74, 25.68 21.91, 23.42 24.27 C21.16 26.63, 17.94 28.64, 15.16 28.79 C12.37 28.94, 9.07 26.9, 6.71 25.18 C4.35 23.46, 2.08 21.23, 1.01 18.48 C-0.06 15.72, -0.69 11.51, 0.29 8.65 C1.28 5.78, 3.59 2.36, 6.92 1.28 C10.26 0.2, 17.63 1.71, 20.29 2.17 C22.95 2.62, 23.05 4.03, 22.87 4.01 M13.53 -0.17 C16.4 -0.68, 19.66 0.98, 21.93 2.92 C24.2 4.85, 26.59 8.71, 27.16 11.46 C27.73 14.22, 26.58 17.1, 25.36 19.45 C24.14 21.79, 22.5 24.12, 19.85 25.53 C17.2 26.93, 12.09 28.31, 9.44 27.87 C6.8 27.43, 5.76 25.34, 3.98 22.86 C2.2 20.39, -1.38 16.34, -1.23 13.04 C-1.09 9.75, 2.47 5.34, 4.85 3.11 C7.22 0.87, 11.91 -0.05, 13 -0.36 C14.1 -0.67, 11.32 0.94, 11.42 1.25" stroke="none" stroke-width="0" fill="#1e1e2e"></path><path d="M18.49 0.78 C21.19 1.57, 24.05 3.72, 25.66 6.17 C27.26 8.62, 28.37 12.58, 28.09 15.49 C27.82 18.39, 26.23 21.61, 23.98 23.61 C21.73 25.62, 17.84 27.2, 14.62 27.51 C11.39 27.82, 7.03 27.35, 4.63 25.45 C2.23 23.56, 0.61 19.15, 0.22 16.16 C-0.18 13.18, 0.73 10.03, 2.25 7.55 C3.78 5.07, 6.64 2.45, 9.35 1.27 C12.07 0.1, 16.55 0.38, 18.54 0.5 C20.54 0.61, 21.26 1.55, 21.34 1.97 M18.06 1.34 C20.62 2.21, 23.6 5.53, 25.36 8.1 C27.13 10.67, 29.29 13.88, 28.65 16.75 C28.01 19.63, 23.91 23.41, 21.55 25.34 C19.18 27.27, 17.37 28.18, 14.45 28.33 C11.52 28.47, 6.38 28.03, 4 26.2 C1.61 24.38, 0.7 20.37, 0.15 17.38 C-0.4 14.39, -0.99 11.22, 0.69 8.26 C2.37 5.3, 6.99 0.78, 10.21 -0.39 C13.43 -1.56, 18.51 1.01, 20.01 1.26 C21.52 1.5, 19.37 0.8, 19.25 1.08" stroke="#1e1e2e" stroke-width="2" fill="none"></path></g><g stroke-linecap="round" transform="translate(90 655) rotate(0 12 12)"><path d="M10.34 -0.79 C12.93 -1.4, 16.9 -0.08, 19.21 1.25 C21.52 2.59, 23.67 4.66, 24.21 7.22 C24.75 9.78, 23.56 14.03, 22.46 16.59 C21.37 19.14, 19.86 21.38, 17.65 22.56 C15.43 23.75, 11.75 24.28, 9.17 23.7 C6.58 23.11, 3.53 20.95, 2.15 19.03 C0.76 17.12, 0.82 14.66, 0.85 12.2 C0.87 9.74, 0.54 6.34, 2.3 4.28 C4.06 2.23, 9.88 0.59, 11.39 -0.12 C12.89 -0.83, 11.56 -0.18, 11.32 0.03 M17.31 1.57 C19.35 2.04, 20.74 3.61, 22.01 5.46 C23.28 7.3, 25.55 10.12, 24.92 12.63 C24.3 15.14, 20.41 18.44, 18.26 20.5 C16.11 22.56, 14.6 24.93, 12.02 25.01 C9.44 25.09, 4.99 22.89, 2.78 20.96 C0.56 19.03, -1.26 15.78, -1.25 13.43 C-1.24 11.09, 1.22 9.23, 2.81 6.9 C4.4 4.58, 5.93 0.49, 8.31 -0.49 C10.7 -1.47, 15.78 0.71, 17.12 1.04 C18.47 1.36, 16.62 1.5, 16.38 1.48" stroke="none" stroke-width="0" fill="#58a6ff"></path><path d="M8.49 -0.49 C10.89 -1.3, 14.58 0.56, 16.91 1.8 C19.24 3.03, 21.35 4.79, 22.47 6.94 C23.58 9.09, 24.02 12.27, 23.59 14.69 C23.17 17.11, 21.91 19.92, 19.92 21.48 C17.93 23.03, 14.35 24.17, 11.65 24.03 C8.95 23.89, 5.79 22.4, 3.73 20.64 C1.66 18.89, -0.3 15.98, -0.72 13.5 C-1.14 11.01, -0.56 8.09, 1.2 5.71 C2.97 3.34, 8.29 0.27, 9.86 -0.74 C11.43 -1.75, 10.48 -0.55, 10.63 -0.36 M5.07 2.65 C7.02 1.26, 11.37 -1, 14.08 -0.6 C16.79 -0.2, 19.88 2.79, 21.34 5.04 C22.79 7.3, 22.75 10.44, 22.79 12.94 C22.83 15.44, 23.16 18.13, 21.56 20.05 C19.96 21.96, 15.83 23.99, 13.17 24.43 C10.51 24.88, 7.9 24.18, 5.6 22.71 C3.3 21.24, 0.21 18.33, -0.64 15.63 C-1.49 12.92, -0.81 8.85, 0.5 6.48 C1.81 4.11, 6.03 2.21, 7.22 1.41 C8.41 0.61, 7.77 1.66, 7.64 1.69" stroke="#58a6ff" stroke-width="2" fill="none"></path></g><g stroke-linecap="round" transform="translate(823 653) rotate(0 14 14)"><path d="M20.28 1.59 C23.06 2.43, 25.87 4.17, 27.13 6.87 C28.38 9.57, 28.45 14.59, 27.82 17.8 C27.18 21, 25.66 24.46, 23.3 26.12 C20.93 27.79, 16.84 28.06, 13.65 27.79 C10.45 27.51, 6.35 26.44, 4.14 24.5 C1.94 22.56, 0.82 19.26, 0.42 16.15 C0.02 13.05, 0.27 8.57, 1.75 5.84 C3.22 3.12, 5.97 0.42, 9.25 -0.21 C12.52 -0.84, 19.28 1.31, 21.41 2.06 C23.54 2.8, 22.07 3.97, 22.05 4.23 M15.13 0.71 C17.94 0.6, 20.99 1.35, 23.22 3.09 C25.45 4.84, 28.27 8.28, 28.5 11.18 C28.73 14.09, 26.23 17.81, 24.63 20.51 C23.03 23.21, 21.76 26.35, 18.92 27.37 C16.08 28.39, 10.6 27.72, 7.58 26.64 C4.55 25.56, 2.16 23.65, 0.77 20.87 C-0.61 18.09, -1.37 12.85, -0.75 9.94 C-0.13 7.03, 1.84 5.19, 4.51 3.41 C7.17 1.63, 13.77 -0.41, 15.24 -0.74 C16.72 -1.06, 13.47 1.28, 13.37 1.47" stroke="none" stroke-width="0" fill="#1e1e2e"></path><path d="M20.48 1.11 C23.05 1.96, 25.78 4.74, 26.81 7.63 C27.84 10.52, 27.59 15.56, 26.64 18.47 C25.69 21.38, 23.34 23.4, 21.1 25.07 C18.86 26.74, 16.1 28.85, 13.19 28.49 C10.29 28.14, 5.83 25.35, 3.67 22.94 C1.5 20.52, 0.36 16.9, 0.21 14.02 C0.05 11.14, 1.14 8, 2.74 5.66 C4.33 3.32, 6.5 0.52, 9.77 -0.02 C13.04 -0.57, 20.06 1.73, 22.34 2.39 C24.61 3.05, 23.7 3.79, 23.43 3.93 M10.43 1.33 C13.37 0.64, 18.78 1.43, 21.35 2.71 C23.92 3.98, 25.12 6.13, 25.85 8.99 C26.58 11.86, 26.67 16.83, 25.7 19.89 C24.73 22.95, 22.46 25.93, 20.01 27.35 C17.55 28.76, 13.93 29.18, 10.97 28.37 C8.01 27.57, 4.14 24.91, 2.25 22.5 C0.36 20.08, -0.48 16.62, -0.36 13.89 C-0.25 11.16, 1.05 8.61, 2.93 6.13 C4.82 3.65, 9.34 -0.31, 10.94 -1 C12.54 -1.69, 12.57 1.65, 12.52 2" stroke="#1e1e2e" stroke-width="2" fill="none"></path></g><g stroke-linecap="round" transform="translate(825 655) rotate(0 12 12)"><path d="M14.27 0.7 C16.82 0.74, 19.18 1.52, 20.89 3.34 C22.61 5.17, 24.56 8.86, 24.57 11.65 C24.58 14.43, 22.72 17.87, 20.94 20.05 C19.17 22.23, 16.3 24.3, 13.94 24.74 C11.59 25.18, 9.09 24.17, 6.83 22.67 C4.56 21.18, 1.37 18.23, 0.32 15.78 C-0.72 13.34, -0.31 10.43, 0.57 8 C1.45 5.57, 3.39 2.38, 5.61 1.18 C7.83 -0.02, 12.24 0.73, 13.88 0.8 C15.52 0.86, 15.42 1.53, 15.47 1.57 M15.99 0.01 C18.26 0.46, 19.52 2.64, 20.88 4.79 C22.25 6.94, 24.15 10.41, 24.18 12.92 C24.22 15.42, 22.85 18.12, 21.11 19.81 C19.37 21.5, 16.23 22.94, 13.75 23.06 C11.27 23.18, 8.67 22.1, 6.23 20.55 C3.78 18.99, -0.14 16.04, -0.94 13.73 C-1.75 11.42, -0.1 8.79, 1.37 6.69 C2.84 4.59, 5.44 2.22, 7.89 1.15 C10.33 0.08, 14.6 0.57, 16.04 0.25 C17.48 -0.07, 16.59 -1.08, 16.54 -0.78" stroke="none" stroke-width="0" fill="#3fb950"></path><path d="M9.86 -0.54 C12.41 -0.87, 17.1 1.22, 19.49 2.64 C21.87 4.06, 23.75 5.48, 24.18 7.99 C24.6 10.49, 23.05 15.31, 22.04 17.68 C21.02 20.06, 20.13 21.25, 18.09 22.23 C16.05 23.2, 12.57 23.99, 9.82 23.55 C7.08 23.11, 3.15 21.55, 1.62 19.59 C0.08 17.63, 0.39 14.49, 0.63 11.79 C0.86 9.1, 0.81 5.19, 3.02 3.41 C5.23 1.63, 11.82 1.46, 13.88 1.1 C15.94 0.74, 15.61 1.26, 15.37 1.27 M13.28 1.02 C15.77 0.78, 18.76 1.15, 20.33 3.02 C21.9 4.88, 22.72 9.71, 22.72 12.21 C22.72 14.71, 21.49 15.94, 20.35 18.02 C19.2 20.09, 18.06 23.92, 15.85 24.68 C13.65 25.44, 9.81 24.07, 7.1 22.56 C4.4 21.05, 0.67 17.92, -0.37 15.64 C-1.4 13.36, -0.16 10.91, 0.87 8.87 C1.9 6.82, 3.63 4.82, 5.81 3.39 C7.99 1.96, 12.77 0.64, 13.93 0.28 C15.09 -0.07, 12.78 0.84, 12.77 1.26" stroke="#3fb950" stroke-width="2" fill="none"></path></g><g stroke-linecap="round" transform="translate(1054 653) rotate(0 14 14)"><path d="M13.94 0.58 C16.73 0.34, 20.62 2.1, 22.81 3.78 C25.01 5.46, 26.59 7.8, 27.09 10.69 C27.59 13.58, 27 18.33, 25.8 21.15 C24.59 23.97, 22.67 26.61, 19.85 27.63 C17.03 28.65, 11.73 28.33, 8.87 27.26 C6.01 26.19, 4.12 23.63, 2.69 21.19 C1.26 18.75, -0.13 15.57, 0.31 12.61 C0.75 9.66, 3.11 5.52, 5.33 3.46 C7.55 1.4, 12.03 0.87, 13.62 0.25 C15.2 -0.37, 14.76 -0.37, 14.84 -0.26 M15.37 0.12 C18.14 -0.17, 20.66 1.46, 22.92 3.59 C25.18 5.71, 28.55 9.78, 28.92 12.88 C29.29 15.98, 26.77 19.66, 25.13 22.18 C23.5 24.7, 21.7 27.22, 19.11 28 C16.52 28.77, 12.32 28, 9.61 26.83 C6.89 25.66, 4.22 23.61, 2.79 20.97 C1.37 18.32, 0.8 14.16, 1.08 10.95 C1.36 7.75, 1.94 3.7, 4.49 1.73 C7.04 -0.24, 14.67 -0.61, 16.36 -0.87 C18.05 -1.14, 14.93 -0.14, 14.64 0.15" stroke="none" stroke-width="0" fill="#1e1e2e"></path><path d="M19.23 0.75 C21.91 1.52, 24.11 4.31, 25.64 7.13 C27.16 9.95, 28.94 14.64, 28.39 17.68 C27.84 20.72, 24.65 23.51, 22.33 25.38 C20 27.25, 17.52 29.08, 14.44 28.9 C11.36 28.72, 6.11 26.51, 3.85 24.3 C1.59 22.09, 1.17 18.66, 0.89 15.64 C0.62 12.61, 0.89 8.7, 2.21 6.15 C3.54 3.6, 5.74 0.98, 8.83 0.36 C11.92 -0.26, 18.73 2.26, 20.74 2.42 C22.74 2.58, 21.15 1.27, 20.85 1.32 M11.5 -0.95 C14.19 -1.36, 18.82 1.25, 21.2 2.66 C23.59 4.07, 25.01 4.65, 25.79 7.5 C26.57 10.34, 26.46 16.57, 25.88 19.73 C25.3 22.88, 24.44 25.34, 22.33 26.44 C20.21 27.55, 16.19 26.76, 13.18 26.36 C10.17 25.96, 6.28 26.12, 4.26 24.05 C2.23 21.98, 1.13 17.13, 1.03 13.93 C0.93 10.73, 1.8 7.38, 3.65 4.86 C5.5 2.34, 10.82 -0.6, 12.12 -1.21 C13.43 -1.82, 11.66 0.63, 11.47 1.19" stroke="#1e1e2e" stroke-width="2" fill="none"></path></g><g stroke-linecap="round" transform="translate(1056 655) rotate(0 12 12)"><path d="M12.81 -0.92 C15 -1.04, 16.79 0.7, 18.76 2.4 C20.73 4.1, 23.92 6.79, 24.62 9.28 C25.33 11.78, 24.36 15.07, 22.99 17.36 C21.63 19.64, 19.03 21.92, 16.44 23 C13.85 24.07, 9.96 24.56, 7.47 23.8 C4.98 23.03, 2.86 20.83, 1.51 18.41 C0.17 15.98, -1.07 11.98, -0.6 9.26 C-0.13 6.54, 2.08 3.47, 4.33 2.07 C6.58 0.67, 11.41 1.13, 12.91 0.86 C14.42 0.59, 13.26 0.24, 13.35 0.45 M9.47 -1.17 C11.91 -2.08, 15.9 -0.27, 18.38 1.09 C20.85 2.45, 23.62 4.36, 24.32 6.97 C25.03 9.57, 23.78 14.01, 22.58 16.72 C21.39 19.43, 19.28 22.14, 17.13 23.25 C14.99 24.37, 12.11 23.99, 9.71 23.42 C7.31 22.86, 4.59 21.64, 2.73 19.88 C0.86 18.12, -1.33 15.21, -1.48 12.89 C-1.64 10.56, -0.29 7.82, 1.81 5.91 C3.91 4.01, 9.87 2.15, 11.11 1.43 C12.36 0.72, 9.28 1.73, 9.27 1.64" stroke="none" stroke-width="0" fill="#f0883e"></path><path d="M7.7 -0.05 C9.98 -0.98, 13.9 0.12, 16.47 1.18 C19.05 2.25, 21.9 4.09, 23.15 6.35 C24.39 8.6, 24.47 12.41, 23.93 14.7 C23.38 17, 21.93 18.65, 19.87 20.12 C17.81 21.6, 14.11 23.36, 11.56 23.55 C9 23.73, 6.47 22.81, 4.54 21.23 C2.62 19.66, 0.53 16.67, 0 14.11 C-0.54 11.56, -0.17 8.29, 1.32 5.9 C2.81 3.51, 7.42 0.54, 8.94 -0.23 C10.47 -1, 10.28 1.14, 10.48 1.28 M14.59 0.1 C17.08 0.37, 20.46 2.53, 21.96 4.64 C23.45 6.75, 23.91 10.02, 23.54 12.79 C23.17 15.55, 21.68 19.15, 19.76 21.23 C17.84 23.32, 14.31 25.33, 12.03 25.3 C9.75 25.28, 8.19 22.69, 6.08 21.1 C3.97 19.51, 0.15 18.19, -0.63 15.76 C-1.41 13.32, 0.18 9.01, 1.38 6.48 C2.57 3.95, 4.54 1.8, 6.55 0.59 C8.57 -0.63, 12.2 -0.89, 13.48 -0.82 C14.76 -0.75, 14.27 0.7, 14.22 1" stroke="#f0883e" stroke-width="2" fill="none"></path></g><g stroke-linecap="round" transform="translate(1033 673) rotate(0 14 14)"><path d="M20.42 1.2 C22.9 2.14, 24.37 4.83, 25.61 7.51 C26.86 10.18, 28.57 14.21, 27.88 17.27 C27.19 20.33, 23.83 23.96, 21.48 25.86 C19.13 27.77, 16.58 29.11, 13.78 28.7 C10.97 28.3, 6.77 25.72, 4.64 23.45 C2.52 21.17, 1.54 18.06, 1.04 15.06 C0.54 12.05, 0.08 7.94, 1.64 5.41 C3.21 2.88, 7.29 0.43, 10.44 -0.13 C13.59 -0.69, 18.8 1.76, 20.54 2.06 C22.28 2.37, 21.18 1.74, 20.89 1.72 M13.45 -0.23 C16.66 -1.17, 20.42 -0.38, 22.82 1.28 C25.22 2.93, 26.94 6.45, 27.85 9.69 C28.75 12.94, 29.69 17.99, 28.26 20.73 C26.83 23.48, 22.29 24.83, 19.28 26.16 C16.27 27.5, 12.98 29.17, 10.2 28.74 C7.42 28.3, 4.15 25.98, 2.61 23.57 C1.08 21.17, 1 17.61, 1 14.31 C1 11.01, 0.69 6.35, 2.61 3.78 C4.52 1.22, 10.98 -0.76, 12.47 -1.09 C13.97 -1.43, 11.67 1.4, 11.57 1.78" stroke="none" stroke-width="0" fill="#1e1e2e"></path><path d="M15.17 0.55 C17.85 0.23, 20.98 1.09, 23.23 3.07 C25.49 5.04, 28.3 9.25, 28.7 12.39 C29.1 15.53, 27.51 19.36, 25.65 21.9 C23.79 24.45, 20.26 26.82, 17.55 27.65 C14.84 28.48, 11.88 28.19, 9.4 26.86 C6.91 25.53, 4.26 22.23, 2.61 19.66 C0.97 17.09, -0.76 14.06, -0.47 11.44 C-0.17 8.81, 1.9 5.89, 4.38 3.9 C6.86 1.9, 12.45 0.02, 14.4 -0.55 C16.35 -1.12, 15.87 0.26, 16.06 0.48 M13.44 -0.77 C16.1 -0.9, 20.18 1.29, 22.84 3.41 C25.49 5.53, 29.03 8.95, 29.34 11.96 C29.66 14.98, 26.78 18.73, 24.73 21.5 C22.67 24.26, 19.52 27.71, 17 28.54 C14.47 29.37, 12.36 27.96, 9.6 26.47 C6.84 24.99, 1.8 22.03, 0.43 19.62 C-0.94 17.21, 0.71 14.65, 1.39 12.02 C2.06 9.4, 2.17 6, 4.47 3.88 C6.76 1.75, 13.35 0.1, 15.16 -0.72 C16.97 -1.54, 15.38 -1.25, 15.35 -1.03" stroke="#1e1e2e" stroke-width="2" fill="none"></path></g><g stroke-linecap="round" transform="translate(1035 675) rotate(0 12 12)"><path d="M11.21 -0.24 C13.78 -0.33, 17.75 1.31, 19.93 2.93 C22.11 4.56, 23.97 7.16, 24.3 9.49 C24.63 11.83, 23.24 14.59, 21.89 16.95 C20.54 19.31, 18.46 22.52, 16.19 23.66 C13.92 24.8, 10.75 24.78, 8.25 23.79 C5.75 22.8, 2.53 19.79, 1.19 17.74 C-0.15 15.68, -0.08 13.98, 0.21 11.45 C0.51 8.93, 0.78 4.49, 2.96 2.57 C5.13 0.64, 10.98 0.12, 13.26 -0.11 C15.55 -0.33, 16.59 0.88, 16.67 1.2 M9.59 0.96 C11.44 0.52, 13.63 1.31, 15.72 2.09 C17.82 2.87, 20.83 3.51, 22.16 5.63 C23.5 7.76, 24.26 12.28, 23.73 14.83 C23.19 17.39, 20.89 19.63, 18.95 20.95 C17 22.28, 14.42 22.64, 12.04 22.79 C9.65 22.95, 6.84 23.41, 4.64 21.88 C2.44 20.35, -0.95 16.55, -1.17 13.63 C-1.38 10.71, 1.9 6.58, 3.35 4.36 C4.8 2.14, 6.67 1.17, 7.53 0.3 C8.39 -0.56, 8.38 -0.92, 8.51 -0.82" stroke="none" stroke-width="0" fill="#d670c2"></path><path d="M15.17 1.35 C17.44 2.06, 19.63 4.07, 20.99 6.13 C22.35 8.2, 23.46 11.38, 23.32 13.75 C23.18 16.12, 21.91 18.54, 20.14 20.35 C18.37 22.15, 15.3 24.23, 12.69 24.56 C10.07 24.89, 6.68 23.95, 4.46 22.32 C2.25 20.69, -0.18 17.33, -0.6 14.76 C-1.02 12.2, 0.54 9.15, 1.95 6.93 C3.37 4.71, 5.61 2.53, 7.91 1.45 C10.21 0.36, 13.92 0.42, 15.73 0.42 C17.55 0.42, 18.86 1.21, 18.82 1.46 M9.03 -1.21 C11.11 -1.57, 14.9 -0.06, 17.2 1.37 C19.49 2.81, 21.94 4.64, 22.8 7.39 C23.67 10.13, 23.27 15.08, 22.38 17.83 C21.48 20.59, 19.46 22.96, 17.43 23.91 C15.39 24.86, 12.39 24.28, 10.15 23.52 C7.92 22.76, 5.59 21.13, 4.03 19.34 C2.47 17.55, 0.85 15.54, 0.8 12.77 C0.75 10.01, 2.22 5.09, 3.73 2.74 C5.24 0.39, 8.75 -0.73, 9.86 -1.35 C10.98 -1.97, 10.52 -1.65, 10.43 -0.97" stroke="#d670c2" stroke-width="2" fill="none"></path></g><g stroke-linecap="round" transform="translate(981 633) rotate(0 14 14)"><path d="M9.27 1.32 C12.16 0.3, 16.87 1, 19.71 1.93 C22.54 2.85, 25.02 4.33, 26.29 6.84 C27.55 9.35, 27.81 13.84, 27.29 16.99 C26.77 20.13, 25.55 23.75, 23.18 25.72 C20.8 27.69, 15.97 29.08, 13.05 28.81 C10.13 28.55, 7.9 26.24, 5.66 24.12 C3.42 22, 0.31 18.96, -0.39 16.12 C-1.1 13.27, -0.3 9.63, 1.44 7.03 C3.18 4.44, 8.28 1.57, 10.03 0.54 C11.78 -0.49, 11.71 0.48, 11.94 0.84 M17.93 0.69 C20.72 0.83, 23.74 1.75, 25.37 3.87 C27 5.98, 27.71 10.36, 27.73 13.38 C27.75 16.4, 27.34 19.67, 25.51 22 C23.68 24.32, 19.64 26.83, 16.74 27.35 C13.85 27.87, 10.75 26.47, 8.11 25.13 C5.47 23.78, 2.12 21.82, 0.89 19.27 C-0.34 16.72, -0.31 12.95, 0.72 9.81 C1.76 6.66, 4.53 2.13, 7.1 0.41 C9.68 -1.3, 14.6 -0.3, 16.18 -0.48 C17.77 -0.67, 16.77 -0.92, 16.62 -0.69" stroke="none" stroke-width="0" fill="#1e1e2e"></path><path d="M10.22 1.11 C12.67 0.51, 16.57 0.95, 19.46 2.34 C22.35 3.73, 26.14 6.85, 27.56 9.44 C28.97 12.04, 29.07 15.23, 27.97 17.89 C26.87 20.55, 23.65 23.73, 20.96 25.39 C18.27 27.05, 14.7 28.27, 11.85 27.86 C9.01 27.46, 5.81 25.2, 3.89 22.97 C1.98 20.74, 0.54 17.44, 0.34 14.48 C0.15 11.52, 0.78 7.52, 2.73 5.22 C4.68 2.92, 10.13 1.34, 12.05 0.68 C13.97 0.03, 14 1.24, 14.27 1.28 M12.37 -1.21 C15.14 -1.98, 17.78 -0.2, 20.45 1.76 C23.12 3.72, 27.27 7.8, 28.39 10.56 C29.51 13.32, 28.66 15.76, 27.17 18.33 C25.68 20.9, 22.28 24.62, 19.45 25.98 C16.63 27.34, 13.11 27.22, 10.23 26.49 C7.34 25.76, 3.98 23.82, 2.16 21.6 C0.34 19.39, -1.19 15.92, -0.67 13.22 C-0.15 10.52, 2.95 7.67, 5.28 5.38 C7.62 3.09, 12.06 0.47, 13.32 -0.53 C14.59 -1.53, 12.81 -0.79, 12.89 -0.62" stroke="#1e1e2e" stroke-width="2" fill="none"></path></g><g stroke-linecap="round" transform="translate(983 635) rotate(0 12 12)"><path d="M7.39 -0.24 C9.63 -1.32, 14.37 -0.47, 17 0.51 C19.63 1.49, 22.1 3.32, 23.17 5.66 C24.23 8.01, 24.11 12.1, 23.38 14.59 C22.64 17.09, 20.84 19.18, 18.76 20.63 C16.67 22.07, 13.43 23.34, 10.85 23.24 C8.26 23.15, 4.97 21.63, 3.22 20.05 C1.47 18.48, 0.47 16.12, 0.34 13.78 C0.21 11.44, 0.69 8.37, 2.45 6.02 C4.2 3.67, 9.27 0.52, 10.87 -0.31 C12.47 -1.14, 12.23 0.78, 12.05 1.04 M15.78 0.94 C17.95 1.81, 21.72 5.36, 23.16 7.51 C24.61 9.66, 25.3 11.49, 24.47 13.84 C23.64 16.19, 20.15 20.12, 18.18 21.62 C16.21 23.13, 14.89 23.09, 12.66 22.86 C10.43 22.63, 6.91 21.8, 4.8 20.23 C2.69 18.67, 0.44 15.93, 0.01 13.49 C-0.43 11.05, 0.93 7.52, 2.18 5.61 C3.43 3.7, 4.95 2.85, 7.52 2.05 C10.09 1.26, 15.97 0.85, 17.59 0.84 C19.2 0.83, 17.62 1.9, 17.22 2.01" stroke="none" stroke-width="0" fill="#a371f7"></path><path d="M9 0.42 C11.41 -0.37, 15.66 -0.53, 18.11 0.47 C20.57 1.48, 22.8 3.81, 23.72 6.45 C24.64 9.09, 24.32 13.74, 23.62 16.31 C22.93 18.87, 21.85 20.73, 19.56 21.84 C17.28 22.94, 12.64 23.33, 9.92 22.93 C7.19 22.54, 4.71 21.26, 3.2 19.46 C1.69 17.66, 1.02 14.69, 0.88 12.14 C0.73 9.59, 0.91 6.22, 2.33 4.19 C3.74 2.15, 7.92 0.73, 9.38 -0.05 C10.84 -0.84, 11.06 -0.72, 11.08 -0.5 M16.24 1.4 C18.35 2.32, 22.02 4.92, 23.35 7.5 C24.68 10.08, 25.27 14.52, 24.2 16.88 C23.12 19.24, 19.43 20.66, 16.9 21.65 C14.37 22.64, 11.49 22.99, 9.01 22.81 C6.54 22.64, 3.65 22.29, 2.04 20.59 C0.42 18.89, -0.69 15.06, -0.65 12.61 C-0.61 10.17, 0.5 7.84, 2.28 5.95 C4.07 4.05, 7.43 2.08, 10.06 1.25 C12.69 0.41, 16.84 0.61, 18.05 0.92 C19.25 1.23, 17.68 2.6, 17.28 3.1" stroke="#a371f7" stroke-width="2" fill="none"></path></g><g stroke-linecap="round" transform="translate(10 792) rotate(0 715 32)"><path d="M1 1.7 L1431.75 -1.75 L1431.66 62.53 L1.15 64.19" stroke="none" stroke-width="0" fill="#3a5d1d"></path><path d="M-0.76 0.31 C515.89 -2.99, 1029.93 -3.17, 1429.81 0 M0.29 -0.09 C490.61 2.06, 982.05 2.48, 1430.22 0.14 M1429.78 -0.64 C1427.82 14.83, 1428.8 29.11, 1429.88 63.63 M1430.76 -0.46 C1431 23.83, 1430.52 48.23, 1429.48 63.89 M1429.51 63.89 C1134.48 65.56, 839.51 65.64, 0.16 63.21 M1429.81 64.38 C923.95 68.09, 417.14 68.16, -0.11 64.02 M0.45 64.3 C1.14 49.76, -1.79 37.53, 0.15 0.21 M-0.52 63.63 C0.98 45.48, -0.34 25.69, 0.25 -0.26" stroke="#6dbf3a" stroke-width="2" fill="none"></path></g><g transform="translate(153.94140625 812.75) rotate(0 571.05859375 11.25)"><text x="571.05859375" y="NaN" font-family="Virgil, Segoe UI Emoji" font-size="18px" fill="#ffffff" text-anchor="middle" style="white-space: pre;" direction="ltr">20 plotted choices, 5 distinct coordinates  —  no two of these DBs share all 4 axes.   That is why one-size-fits-all is dead.</text></g></svg>