<svg version="1.1" xmlns="http://www.w3.org/2000/svg" viewBox="0 0 1440.9338189708617 661.7961269933827" width="1440.9338189708617" height="661.7961269933827">
  <!-- svg-source:excalidraw -->
  
  <defs>
    <style>
      @font-face {
        font-family: "Virgil";
        src: url("https://excalidraw.com/Virgil.woff2");
      }
      @font-face {
        font-family: "Cascadia";
        src: url("https://excalidraw.com/Cascadia.woff2");
      }
    </style>
  </defs>
  <rect x="0" y="0" width="1440.9338189708617" height="661.7961269933827" fill="#0d1117"></rect><g transform="translate(40.93381897086175 10) rotate(0 503.4507141113281 16.25)"><text x="0" y="NaN" font-family="Virgil, Segoe UI Emoji" font-size="26px" fill="#ff8c42" text-anchor="start" style="white-space: pre;" direction="ltr">Outbox Pattern: One Local Transaction Writes BOTH the Row and the Event</text></g><g transform="translate(40.93381897086175 47) rotate(0 455.5997314453125 21.25)"><text x="0" y="NaN" font-family="Virgil, Segoe UI Emoji" font-size="17px" fill="#c9d1d9" text-anchor="start" style="white-space: pre;" direction="ltr">The broker is not part of the DB, so you cannot commit a row and a Kafka publish atomically. The outbox</text><text x="0" y="NaN" font-family="Virgil, Segoe UI Emoji" font-size="17px" fill="#c9d1d9" text-anchor="start" style="white-space: pre;" direction="ltr">trick: insert the event into an outbox table inside the SAME local txn, then let an async relay drain it.</text></g><g transform="translate(40.93381897086175 100) rotate(0 86.47991943359375 12.5)"><text x="0" y="NaN" font-family="Virgil, Segoe UI Emoji" font-size="20px" fill="#3fb950" text-anchor="start" style="white-space: pre;" direction="ltr">How outbox works</text></g><g stroke-linecap="round" transform="translate(10 225.22462580816574) rotate(0 80 40)"><path d="M-1.39 1.57 L158.4 -1.13 L160 78.25 L-0.05 79.96" stroke="none" stroke-width="0" fill="#1f4d2b"></path><path d="M-0.67 -0.42 C35.25 0.94, 74.09 -0.51, 160.59 -1.75 M-0.9 0.06 C46.84 -1.28, 94.62 -1.42, 160.97 -0.27 M161.98 1.65 C158.92 20.2, 158.78 38.67, 158.76 79.09 M159.31 -0.34 C161.1 23.17, 159.32 43.86, 159.47 80.38 M160.39 78.3 C123.32 79.41, 82.01 80.19, -0.85 80.23 M159.07 80.04 C109 80.54, 58.62 81.05, 0.43 80.85 M0.44 80.45 C0 55.46, -1.71 31.09, 1.96 -0.63 M-0.08 79.11 C0.82 64.48, 0.65 48.09, 0.2 0.49" stroke="#3fb950" stroke-width="2" fill="none"></path></g><g transform="translate(39.020050048828125 252.72462580816574) rotate(0 50.979949951171875 12.5)"><text x="50.979949951171875" y="NaN" font-family="Virgil, Segoe UI Emoji" font-size="20px" fill="#ffffff" text-anchor="middle" style="white-space: pre;" direction="ltr">Application</text></g><g stroke-linecap="round" transform="translate(260.93381897086175 115) rotate(0 230 175)"><path d="M0.03 -0.46 C121.36 -2.67, 245.13 -2.15, 460.73 -0.37 M0.28 0.02 C141.77 0.49, 283.94 0.25, 460.08 0.29 M459.59 1.03 C459.5 133.8, 459.42 266.41, 460.67 350.03 M460.33 -0.55 C459.07 100.27, 459.28 200.78, 459.83 349.78 M460.69 349.1 C322.73 348.04, 187.78 347.83, 0.14 349.46 M460.29 349.73 C348.28 351.89, 236.93 351.49, -0.24 350.45 M1.2 350.8 C-2.45 243.18, -2.15 137.07, 0.38 0.6 M0.33 350.58 C-1.03 276.33, -0.63 203.93, -0.48 0.34" stroke="#3fb950" stroke-width="4" fill="none"></path></g><g transform="translate(276.93381897086175 123) rotate(0 218.79464721679688 10)"><text x="0" y="NaN" font-family="Virgil, Segoe UI Emoji" font-size="16px" fill="#3fb950" text-anchor="start" style="white-space: pre;" direction="ltr">BEGIN  ▾   single local DB transaction   ▾  COMMIT</text></g><g stroke-linecap="round" transform="translate(301.1524665662918 156.41041537507752) rotate(0 90 44.999999999999986)"><path d="M-1.36 -1.41 L180.38 -0.38 L181.98 91.22 L-1.13 89.98" stroke="none" stroke-width="0" fill="#3a1d6e"></path><path d="M-1.45 -0.29 C64.67 1.43, 130.06 -1.41, 181.27 1.98 M0.5 -0.43 C54.5 1.86, 108.19 1.22, 180.99 -0.3 M178.98 1.66 C182.49 20.07, 180.38 35.41, 178.54 91.97 M180.54 0.31 C181.26 21.17, 180.37 42.01, 180.85 90.81 M178.86 89.62 C142.87 92.5, 103.2 90.09, -1.57 89.87 M179.47 90.04 C136.62 89.17, 93.21 88.41, 0.3 89.14 M0.52 89 C-1.62 59.91, -0.13 30.11, 1.85 -1.62 M0.37 90.2 C-0.6 64.82, 0.85 40.9, -0.98 -0.13" stroke="#a371f7" stroke-width="2" fill="none"></path></g><g transform="translate(339.1070030042801 180.16041537507752) rotate(0 52.04546356201172 21.25)"><text x="52.04546356201172" y="NaN" font-family="Virgil, Segoe UI Emoji" font-size="17px" fill="#ffffff" text-anchor="middle" style="white-space: pre;" direction="ltr">orders table</text><text x="52.04546356201172" y="NaN" font-family="Virgil, Segoe UI Emoji" font-size="17px" fill="#ffffff" text-anchor="middle" style="white-space: pre;" direction="ltr">INSERT</text></g><g stroke-linecap="round" transform="translate(302.9331990080596 270.80705871933395) rotate(0 90 45)"><path d="M-1.04 1.05 L178.99 0.5 L179.56 89.37 L1.08 88.98" stroke="none" stroke-width="0" fill="#3a1d6e"></path><path d="M1.45 -1.77 C52.19 2.09, 108.33 -0.56, 181.15 1.65 M-0.12 -0.06 C40.32 -2.23, 81.92 -1.49, 179.19 -0.57 M179.11 1.83 C179.52 22.45, 180.19 42.7, 178.59 88.25 M180.22 -0.66 C178.32 29.68, 179.49 57.87, 179.96 90.56 M178.19 91.14 C126.24 90.4, 71.68 91.31, 0.31 91.96 M179.43 89.53 C116.91 88.54, 54.3 87.88, 0.55 89.52 M1.79 91.33 C-0.68 68.47, -0.98 47.23, 1.5 -1.15 M-0.47 89.82 C0.14 58.29, -0.36 25.38, -0.41 -0.93" stroke="#a371f7" stroke-width="2" fill="none"></path></g><g transform="translate(332.5662251311065 294.55705871933395) rotate(0 60.366973876953125 21.25)"><text x="60.366973876953125" y="NaN" font-family="Virgil, Segoe UI Emoji" font-size="17px" fill="#ffffff" text-anchor="middle" style="white-space: pre;" direction="ltr">outbox table</text><text x="60.366973876953125" y="NaN" font-family="Virgil, Segoe UI Emoji" font-size="17px" fill="#ffffff" text-anchor="middle" style="white-space: pre;" direction="ltr">INSERT event</text></g><g stroke-linecap="round"><g transform="translate(175.89400078786736 242.19345965833838) rotate(0 59.62923288921223 -19.41046533981715)"><path d="M1 1.02 C20.99 -5.75, 100.22 -32.84, 119.78 -39.63 M0.07 0.51 C19.95 -6.21, 98.98 -31.95, 119.11 -38.51" stroke="#3fb950" stroke-width="3" fill="none"></path></g><g transform="translate(175.89400078786736 242.19345965833838) rotate(0 59.62923288921223 -19.41046533981715)"><path d="M97.19 -19.14 C100.83 -26.98, 107.53 -31.91, 118.23 -38.23 M95.35 -20.67 C99.54 -23.96, 104.72 -26.34, 119.28 -39.32" stroke="#3fb950" stroke-width="3" fill="none"></path></g><g transform="translate(175.89400078786736 242.19345965833838) rotate(0 59.62923288921223 -19.41046533981715)"><path d="M90.83 -38.65 C96.46 -40.9, 105 -40.2, 118.23 -38.23 M88.99 -40.19 C94.42 -39.5, 100.88 -37.95, 119.28 -39.32" stroke="#3fb950" stroke-width="3" fill="none"></path></g></g><g stroke-linecap="round"><g transform="translate(170.29337525462756 274.1766672571074) rotate(0 63.31991187671602 19.877910897179135)"><path d="M0.88 0.33 C22.08 6.93, 105.25 34.12, 126.05 40.61 M-0.11 -0.55 C21.58 5.64, 107.08 32.12, 128.45 38.94" stroke="#3fb950" stroke-width="3" fill="none"></path></g><g transform="translate(170.29337525462756 274.1766672571074) rotate(0 63.31991187671602 19.877910897179135)"><path d="M99.02 39.32 C106.07 38.23, 110.07 40.14, 127.6 38.83 M97.69 39.96 C104.17 40.32, 111.87 39.9, 128.55 39.07" stroke="#3fb950" stroke-width="3" fill="none"></path></g><g transform="translate(170.29337525462756 274.1766672571074) rotate(0 63.31991187671602 19.877910897179135)"><path d="M105.16 19.73 C111.1 22.72, 113.83 28.67, 127.6 38.83 M103.82 20.38 C108.96 25.04, 115.31 28.91, 128.55 39.07" stroke="#3fb950" stroke-width="3" fill="none"></path></g></g><g stroke-linecap="round" transform="translate(300.23359312726944 383.80989283500134) rotate(0 190 30)"><path d="M0.53 0.07 L381.47 -1.75 L380.83 58.68 L0.2 58.57" stroke="none" stroke-width="0" fill="#3a5d1d"></path><path d="M1.04 0.74 C131.59 -0.18, 263.92 -0.36, 379.19 0.87 M0.01 -0.14 C94.89 2.19, 188.86 1.85, 380.13 -0.06 M381.04 -1.91 C379.48 16.97, 380.99 36.16, 380.28 58.99 M380.76 -0.75 C378.84 15.57, 379 30.85, 380.19 60.75 M380.6 60.54 C260.11 61.8, 140.25 60.99, -0.01 59.11 M379.86 59.46 C302.62 61.91, 224.23 60.85, -0.48 60.08 M0.97 59.96 C0.13 36.69, 0.31 11.12, -1.79 0.46 M-0.61 60.31 C0.05 48.03, 0.18 35, 0.98 0.08" stroke="#6dbf3a" stroke-width="2" fill="none"></path></g><g transform="translate(316.1864129650024 400) rotate(0 184.74740600585938 10.625)"><text x="184.74740600585938" y="NaN" font-family="Virgil, Segoe UI Emoji" font-size="17px" fill="#ffffff" text-anchor="middle" style="white-space: pre;" direction="ltr">1 txn  =  2 row inserts  =  1 atomic commit</text></g><g stroke-linecap="round" transform="translate(60.93381897086175 525) rotate(0 110 45)"><path d="M-1.56 -1.23 L218.58 -1.45 L220.3 88.56 L-1.88 91.87" stroke="none" stroke-width="0" fill="#5c3a10"></path><path d="M1.27 -1.72 C68.3 0.8, 136.33 -1.2, 221.06 0.21 M-0.32 0.47 C58.42 0.43, 117.02 0.06, 220.79 -0.36 M218.8 -0.21 C222.05 29.07, 221.27 60.86, 220.74 91.63 M219.57 0.31 C220.34 24.86, 221.13 48.54, 219.81 89.16 M221.4 91.72 C169.87 89.79, 118.7 90.02, 1.1 90.02 M220.48 90.67 C149.6 91.42, 77.99 90.92, 0.55 89.94 M1.77 89.04 C0.86 56.82, -2.01 24.91, 0.07 1.84 M0.43 90.13 C-0.16 68.86, 0.08 47.55, -0.94 0.52" stroke="#f0883e" stroke-width="3" fill="none"></path></g><g transform="translate(104.73885742301019 547.5) rotate(0 66.19496154785156 22.5)"><text x="66.19496154785156" y="NaN" font-family="Virgil, Segoe UI Emoji" font-size="18px" fill="#ffffff" text-anchor="middle" style="white-space: pre;" direction="ltr">Outbox Relay</text><text x="66.19496154785156" y="NaN" font-family="Virgil, Segoe UI Emoji" font-size="18px" fill="#ffffff" text-anchor="middle" style="white-space: pre;" direction="ltr">(poller or CDC)</text></g><g stroke-linecap="round" transform="translate(360.93381897086175 525) rotate(0 110 45)"><path d="M0.38 -0.71 L219.31 -1.67 L219.17 90.13 L1.51 88.06" stroke="none" stroke-width="0" fill="#5c3a10"></path><path d="M-1.13 1.4 C63.22 -0.12, 124.26 -0.97, 221.15 0.98 M-0.83 0.34 C49.89 0.64, 98.02 -0.14, 219.98 0.06 M220.65 0.39 C220.26 26.64, 219.03 52.88, 219.36 91.57 M219.94 0.06 C219.81 19.53, 219.46 40.04, 220.63 89.4 M220.21 88.88 C159.79 91.14, 97.75 91.48, -0.19 91.01 M219.45 90.28 C133.25 90.2, 46.61 91.08, -0.6 89.9 M-1.31 89.33 C2.2 72.27, -0.22 51.01, -1.03 1.51 M-0.38 89.3 C-0.56 66.21, -0.06 42.8, -0.73 0.86" stroke="#f0883e" stroke-width="3" fill="none"></path></g><g transform="translate(387.72739807242425 548.75) rotate(0 83.2064208984375 21.25)"><text x="83.2064208984375" y="NaN" font-family="Virgil, Segoe UI Emoji" font-size="17px" fill="#ffffff" text-anchor="middle" style="white-space: pre;" direction="ltr">Message Broker</text><text x="83.2064208984375" y="NaN" font-family="Virgil, Segoe UI Emoji" font-size="17px" fill="#ffffff" text-anchor="middle" style="white-space: pre;" direction="ltr">(Kafka / RabbitMQ)</text></g><g stroke-linecap="round" transform="translate(683.2340857551542 525) rotate(0 100 45)"><path d="M-1.38 0.7 L200.79 -0.55 L200.08 88.38 L-0.14 91.62" stroke="none" stroke-width="0" fill="#0d2c5a"></path><path d="M-0.83 -1.03 C50.82 0.08, 99.84 -1.71, 198.92 -1.14 M-0.74 -0.78 C56.48 0.57, 111.22 0.64, 199.82 -0.31 M200.44 0.23 C200.03 25.57, 200.2 50.6, 198.84 89.13 M199.6 -0.72 C199.31 33.19, 199.2 64.2, 199.63 89.67 M200.52 90.22 C135.7 91.03, 72.85 88.19, 0.52 89.58 M200.42 90.02 C150.32 91.18, 101.6 90.96, -0.82 90.84 M-1.79 88.7 C-1.26 65.61, 1.1 40, -1.54 1.1 M-0.96 90.08 C0.66 61.45, -0.71 34.74, 0.75 -0.71" stroke="#58a6ff" stroke-width="2" fill="none"></path></g><g transform="translate(731.0791174934354 547.5) rotate(0 52.15496826171875 22.5)"><text x="52.15496826171875" y="NaN" font-family="Virgil, Segoe UI Emoji" font-size="18px" fill="#ffffff" text-anchor="middle" style="white-space: pre;" direction="ltr">Downstream</text><text x="52.15496826171875" y="NaN" font-family="Virgil, Segoe UI Emoji" font-size="18px" fill="#ffffff" text-anchor="middle" style="white-space: pre;" direction="ltr">Service</text></g><g stroke-linecap="round"><g transform="translate(175.66186333473874 518.5000000000001) rotate(0 64.48230656710457 -89.61511632453707)"><path d="M0.84 -0.93 C8.49 -11.42, 24.77 -32.79, 46.19 -62.55 C67.6 -92.32, 115.43 -160.04, 129.34 -179.54" stroke="#f0883e" stroke-width="2.5" fill="none" stroke-dasharray="8 10"></path></g><g transform="translate(175.66186333473874 518.5000000000001) rotate(0 64.48230656710457 -89.61511632453707)"><path d="M119.84 -149.37 C124.23 -159.48, 125.96 -168.39, 128.78 -177.6" stroke="#f0883e" stroke-width="2.5" fill="none"></path></g><g transform="translate(175.66186333473874 518.5000000000001) rotate(0 64.48230656710457 -89.61511632453707)"><path d="M103.11 -161.25 C113 -167.6, 120.18 -172.64, 128.78 -177.6" stroke="#f0883e" stroke-width="2.5" fill="none"></path></g></g><g transform="translate(179.19295326966494 435.73394204449187) rotate(0 41.911964416503906 20)"><text x="41.911964416503906" y="NaN" font-family="Virgil, Segoe UI Emoji" font-size="16px" fill="#ff8c42" text-anchor="middle" style="white-space: pre;" direction="ltr">read </text><text x="41.911964416503906" y="NaN" font-family="Virgil, Segoe UI Emoji" font-size="16px" fill="#ff8c42" text-anchor="middle" style="white-space: pre;" direction="ltr">unpublished</text></g><g stroke-linecap="round"><g transform="translate(287.43381897086175 570.009) rotate(0 33.5 0)"><path d="M0.59 0.41 C11.56 0.75, 55.29 0.86, 66.19 0.87" stroke="#f0883e" stroke-width="2.5" fill="none" stroke-dasharray="8 10"></path></g><g transform="translate(287.43381897086175 570.009) rotate(0 33.5 0)"><path d="M38.66 9.71 C48.86 5.79, 57.59 4.81, 64.73 0.35" stroke="#f0883e" stroke-width="2.5" fill="none"></path></g><g transform="translate(287.43381897086175 570.009) rotate(0 33.5 0)"><path d="M38.71 -10.82 C48.7 -7.94, 57.42 -2.12, 64.73 0.35" stroke="#f0883e" stroke-width="2.5" fill="none"></path></g></g><g transform="translate(290.93381897086175 545) rotate(0 21.61597442626953 8.75)"><text x="0" y="NaN" font-family="Virgil, Segoe UI Emoji" font-size="14px" fill="#f0883e" text-anchor="start" style="white-space: pre;" direction="ltr">publish</text></g><g stroke-linecap="round"><g transform="translate(587.4338189708617 570.0089999999999) rotate(0 44.90013339214613 0)"><path d="M0.07 -0.67 C14.81 -0.91, 74.18 -0.69, 89.2 -0.43" stroke="#f0883e" stroke-width="2.5" fill="none" stroke-dasharray="8 10"></path></g><g transform="translate(587.4338189708617 570.0089999999999) rotate(0 44.90013339214613 0)"><path d="M59.81 8.58 C70.4 6.55, 82.9 2.12, 87.27 -0.02" stroke="#f0883e" stroke-width="2.5" fill="none"></path></g><g transform="translate(587.4338189708617 570.0089999999999) rotate(0 44.90013339214613 0)"><path d="M60 -11.94 C70.7 -6.51, 83.12 -3.47, 87.27 -0.02" stroke="#f0883e" stroke-width="2.5" fill="none"></path></g></g><g transform="translate(592.0196401300323 544.7615088027154) rotate(0 21.68596649169922 8.75)"><text x="0" y="NaN" font-family="Virgil, Segoe UI Emoji" font-size="14px" fill="#f0883e" text-anchor="start" style="white-space: pre;" direction="ltr">deliver</text></g><g transform="translate(60.93381897086175 631.25) rotate(0 393.35123724278344 10.27306349669135)"><text x="0" y="NaN" font-family="Virgil, Segoe UI Emoji" font-size="16.436901594706146px" fill="#8b949e" text-anchor="start" style="white-space: pre;" direction="ltr">Polling: ~100 ms latency, periodic DB load.    CDC (e.g. Debezium): ~ms latency, reads the WAL.</text></g><g stroke-opacity="0.25" fill-opacity="0.25" stroke-linecap="round" transform="translate(920.9338189708617 115) rotate(0 255 250)"><path d="M0.3 1.04 L511.3 1.81 L509.99 501.59 L-0.49 498.55" stroke="none" stroke-width="0" fill="#4a1219"></path><path d="M0.76 -0.58 C139.16 -0.01, 278.51 0.33, 510.16 0.06 M-0.14 -0.35 C191.2 -0.77, 382.71 -0.4, 510.08 0.04 M510.08 -0.06 C508 163.83, 507.53 326.68, 509.25 500.23 M509.91 -0.08 C511 149.57, 510.47 298.8, 510.15 500.01 M509.69 500.72 C351.41 501.6, 193.43 501.59, 0.62 499.26 M510.15 499.77 C336.56 499.13, 162.54 499.2, 0.12 500.06 M0.28 499.43 C-1.95 396.82, -1.28 293.05, -0.18 0.29 M0.37 500.31 C0.22 372.03, 0.5 243.27, -0.29 -0.33" stroke="#f85149" stroke-width="2" fill="none"></path></g><g transform="translate(938.9338189708617 127) rotate(0 135.73587036132812 11.875)"><text x="0" y="NaN" font-family="Virgil, Segoe UI Emoji" font-size="19px" fill="#f85149" text-anchor="start" style="white-space: pre;" direction="ltr">Anti-pattern: dual-write race</text></g><g transform="translate(938.9338189708617 159) rotate(0 215.82383728027344 17.5)"><text x="0" y="NaN" font-family="Virgil, Segoe UI Emoji" font-size="14px" fill="#c9d1d9" text-anchor="start" style="white-space: pre;" direction="ltr">Without outbox: app calls DB AND broker as separate steps.</text><text x="0" y="NaN" font-family="Virgil, Segoe UI Emoji" font-size="14px" fill="#c9d1d9" text-anchor="start" style="white-space: pre;" direction="ltr">One can succeed while the other crashes — drift is silent.</text></g><g stroke-linecap="round" transform="translate(950.9338189708617 245) rotate(0 70 35)"><path d="M1.31 -0.05 L139.86 1.36 L139.46 70.46 L0.3 68.97" stroke="none" stroke-width="0" fill="#1f4d2b"></path><path d="M-0.97 0.76 C38.57 2.51, 73.18 0.77, 140.84 0.6 M-0.21 0.61 C48.26 1.18, 95.22 1.12, 140.96 -0.67 M140.57 0 C141.36 23.26, 138.52 49.45, 138.96 68.56 M140.59 -0.83 C140.3 24.99, 140.33 50.59, 140.26 70.55 M141.81 71.05 C110.72 69.67, 80.17 70, -1.59 71.61 M140.03 70.71 C97.12 70.17, 54.88 69.47, -0.02 69.84 M0.46 68.74 C0.03 48.72, 1.35 29.38, -1.36 1.74 M-0.89 69.85 C1.11 47.74, 0.63 24.07, -0.51 -0.25" stroke="#3fb950" stroke-width="2" fill="none"></path></g><g transform="translate(975.0518533336547 268.75) rotate(0 45.88196563720703 11.25)"><text x="45.88196563720703" y="NaN" font-family="Virgil, Segoe UI Emoji" font-size="18px" fill="#ffffff" text-anchor="middle" style="white-space: pre;" direction="ltr">Application</text></g><g stroke-linecap="round" transform="translate(1240.9338189708617 225) rotate(0 80 30)"><path d="M-1.06 -0.96 L158.6 -0.05 L159.98 58.83 L0.89 58.85" stroke="none" stroke-width="0" fill="#3a1d6e"></path><path d="M0.03 1.44 C49.1 1.81, 95.72 1.66, 159.79 -0.33 M-0.53 0.62 C45.61 -0.56, 90.31 0.23, 159.26 0.34 M159.77 -1.51 C158.46 14.77, 158.49 31.13, 158.68 59.01 M160.48 0.67 C160.47 14.83, 160.57 30.98, 159.5 60.44 M160.15 59.82 C111.99 59.15, 65.46 59.72, -0.92 61.81 M159.2 59.96 C122.74 60.15, 86.92 60.29, -0.45 60.73 M1.72 61.4 C-1.28 45.47, 1.52 30.77, 1.68 -0.87 M0 59.83 C0.07 39.67, 0.46 20.37, 0.72 0.48" stroke="#a371f7" stroke-width="2" fill="none"></path></g><g transform="translate(1275.8045617687133 245) rotate(0 45.12925720214844 10)"><text x="45.12925720214844" y="NaN" font-family="Virgil, Segoe UI Emoji" font-size="16px" fill="#ffffff" text-anchor="middle" style="white-space: pre;" direction="ltr">DB write ✓</text></g><g stroke-linecap="round" transform="translate(1240.9338189708617 315) rotate(0 80 30)"><path d="M-0.85 0.07 L158.33 -1.5 L161.34 60.33 L1.47 59.44" stroke="none" stroke-width="0" fill="#5c3a10"></path><path d="M1.55 -1.65 C49.88 0.49, 98.21 -2.23, 158.89 1.81 M0.57 0.52 C60.21 0.33, 120.09 0.14, 159.41 0.39 M158.35 -1.72 C158.94 23.44, 158.85 47.09, 158.87 58.99 M160.89 -0.12 C161.05 17.84, 159.98 35.5, 159.97 59.54 M158.95 61.58 C114.67 62.05, 70.8 62.58, 0.88 59.24 M160.91 60.91 C109.91 60.33, 58.95 60.62, 0.48 60.43 M-1.42 58.82 C-0.19 36.01, -0.81 11.91, 1.13 0.18 M0.59 59.84 C-0.97 46.6, 0.61 31.98, 0.84 0.12" stroke="#f0883e" stroke-width="2" fill="none"></path></g><g transform="translate(1266.8298684703734 335) rotate(0 54.10395050048828 10)"><text x="54.10395050048828" y="NaN" font-family="Virgil, Segoe UI Emoji" font-size="16px" fill="#ffffff" text-anchor="middle" style="white-space: pre;" direction="ltr">Broker publish</text></g><g stroke-linecap="round"><g transform="translate(1096.9338189708617 263.84584056461114) rotate(0 69 -4.235756937209544)"><path d="M1.2 0.37 C24.51 -1.05, 116.38 -7.9, 139.13 -9.28 M0.36 -0.48 C23.68 -1.7, 116.04 -6.59, 138.78 -8.16" stroke="#3fb950" stroke-width="2" fill="none"></path></g><g transform="translate(1096.9338189708617 263.84584056461114) rotate(0 69 -4.235756937209544)"><path d="M111.86 5.65 C116.52 0.15, 125.39 -3.7, 139.72 -10.14 M111.68 3.12 C118.56 0.92, 126.14 -1.29, 139.48 -7.51" stroke="#3fb950" stroke-width="2" fill="none"></path></g><g transform="translate(1096.9338189708617 263.84584056461114) rotate(0 69 -4.235756937209544)"><path d="M110.64 -14.84 C115.45 -15.48, 124.62 -14.47, 139.72 -10.14 M110.46 -17.37 C117.63 -14.36, 125.52 -11.39, 139.48 -7.51" stroke="#3fb950" stroke-width="2" fill="none"></path></g></g><g stroke-linecap="round"><g transform="translate(1096.6335755580033 302.20871298955285) rotate(0 69.15012170642933 20.508894816098007)"><path d="M0.05 -0.54 C22.86 6.44, 114.72 34.39, 137.9 41.5 M-1.39 1.79 C21.14 8.45, 113.39 33.21, 136.75 39.63" stroke="#3fb950" stroke-width="2" fill="none"></path></g><g transform="translate(1096.6335755580033 302.20871298955285) rotate(0 69.15012170642933 20.508894816098007)"><path d="M105.95 41.48 C119.23 42.52, 131.78 41.24, 136.13 40.02 M107.42 41.14 C117 41.04, 127.61 39.26, 136.15 39.33" stroke="#3fb950" stroke-width="2" fill="none"></path></g><g transform="translate(1096.6335755580033 302.20871298955285) rotate(0 69.15012170642933 20.508894816098007)"><path d="M111.33 21.67 C122.46 30.38, 132.93 36.77, 136.13 40.02 M112.8 21.34 C120.38 28.04, 129.15 33.03, 136.15 39.33" stroke="#3fb950" stroke-width="2" fill="none"></path></g></g><g transform="translate(1160.9338189708617 330) rotate(0 12.5576171875 27.5)"><text x="0" y="NaN" font-family="Virgil, Segoe UI Emoji" font-size="44px" fill="#f85149" text-anchor="start" style="white-space: pre;" direction="ltr">✗</text></g><g transform="translate(1160.9338189708617 383) rotate(0 33.50096893310547 8.125)"><text x="0" y="NaN" font-family="Virgil, Segoe UI Emoji" font-size="13px" fill="#f85149" text-anchor="start" style="white-space: pre;" direction="ltr">crash here</text></g><g transform="translate(950.9338189708617 445) rotate(0 124.45487976074219 9.375)"><text x="0" y="NaN" font-family="Virgil, Segoe UI Emoji" font-size="15px" fill="#f85149" text-anchor="start" style="white-space: pre;" direction="ltr">Result if the broker call crashes:</text></g><g transform="translate(950.9338189708617 475) rotate(0 193.27679443359375 35)"><text x="0" y="NaN" font-family="Virgil, Segoe UI Emoji" font-size="14px" fill="#c9d1d9" text-anchor="start" style="white-space: pre;" direction="ltr">• DB has the order; downstream never hears about it.</text><text x="0" y="NaN" font-family="Virgil, Segoe UI Emoji" font-size="14px" fill="#c9d1d9" text-anchor="start" style="white-space: pre;" direction="ltr">• Replaying the request creates a duplicate row.</text><text x="0" y="NaN" font-family="Virgil, Segoe UI Emoji" font-size="14px" fill="#c9d1d9" text-anchor="start" style="white-space: pre;" direction="ltr">• No retry strategy fixes this without idempotency keys</text><text x="0" y="NaN" font-family="Virgil, Segoe UI Emoji" font-size="14px" fill="#c9d1d9" text-anchor="start" style="white-space: pre;" direction="ltr">  on the downstream side.</text></g><g transform="translate(950.9338189708617 565) rotate(0 218.5677947998047 17.5)"><text x="0" y="NaN" font-family="Virgil, Segoe UI Emoji" font-size="14px" fill="#3fb950" text-anchor="start" style="white-space: pre;" direction="ltr">Outbox eliminates this gap by making the broker irrelevant</text><text x="0" y="NaN" font-family="Virgil, Segoe UI Emoji" font-size="14px" fill="#3fb950" text-anchor="start" style="white-space: pre;" direction="ltr">to atomicity — the event is just another row in the same DB.</text></g></svg>