<svg version="1.1" xmlns="http://www.w3.org/2000/svg" viewBox="0 0 1420 794.7808664966967" width="1420" height="794.7808664966967">
  <!-- svg-source:excalidraw -->
  
  <defs>
    <style>
      @font-face {
        font-family: "Virgil";
        src: url("https://excalidraw.com/Virgil.woff2");
      }
      @font-face {
        font-family: "Cascadia";
        src: url("https://excalidraw.com/Cascadia.woff2");
      }
    </style>
  </defs>
  <rect x="0" y="0" width="1420" height="794.7808664966967" fill="#0d1117"></rect><g stroke-linecap="round" transform="translate(522.5614523332389 492.72430407647954) rotate(0 188.84376868881873 25)"><path d="M-0.45 0.52 L375.76 1.57 L377.32 50.11 L1.83 48.03" stroke="none" stroke-width="0" fill="#4a1219"></path><path d="M0.43 -0.69 C137.2 -1.04, 277.43 -2.33, 377.91 -0.03 M0.5 -0.4 C119.36 -0.19, 237.89 -0.71, 377.68 0.54 M375.85 1.6 C378.63 11.13, 380.04 22.68, 378.21 48.9 M377.43 -0.78 C377.96 14.01, 376.7 27.58, 378.47 49.57 M378.69 49.33 C228.16 49.23, 75.93 47.56, 0.11 49.7 M378.2 50.02 C269.74 50.52, 160.77 50.43, -0.14 49.48 M-0.86 49.4 C-1.76 34.34, -1.8 17.73, -0.5 0.11 M-0.65 49.29 C-0.44 30.45, -0.94 11.67, -0.62 -0.03" stroke="#f85149" stroke-width="2" fill="none"></path></g><g transform="translate(50.925875773345524 10) rotate(0 451.6197814941406 16.25)"><text x="0" y="NaN" font-family="Virgil, Segoe UI Emoji" font-size="26px" fill="#ff8c42" text-anchor="start" style="white-space: pre;" direction="ltr">Orchestration: Central Coordinator Drives Forward, Rewinds on Failure</text></g><g stroke-linecap="round" transform="translate(70 94.78086649669677) rotate(0 100 35)"><path d="M-0.95 -1.56 L200.23 -0.65 L201.56 71.31 L-1.04 71.39" stroke="none" stroke-width="0" fill="#5c3a10"></path><path d="M-1.73 0.48 C79.03 -0.4, 161.3 -0.67, 198.78 1.8 M-0.77 0.81 C42.78 -1.42, 84.83 -1.16, 200.16 -0.3 M201.34 1.29 C200.31 20.21, 200.82 42.48, 201.74 71.01 M200.39 -0.41 C200.28 21.01, 200.09 42.87, 199.68 69.42 M198.9 68.28 C136.11 70.47, 74.27 71.6, 0.55 69.12 M199.47 70.43 C154.1 69.52, 109.84 71.18, -0.75 70.39 M1.57 68.52 C0.45 52.75, 0.68 34.59, 1.5 -1.86 M-0.34 70.7 C1.03 49.01, 1.07 27.85, 0.1 -0.71" stroke="#f0883e" stroke-width="2" fill="none"></path></g><g transform="translate(111.92303466796875 107.28086649669677) rotate(0 58.07696533203125 22.5)"><text x="58.07696533203125" y="NaN" font-family="Virgil, Segoe UI Emoji" font-size="18px" fill="#ffffff" text-anchor="middle" style="white-space: pre;" direction="ltr">Saga</text><text x="58.07696533203125" y="NaN" font-family="Virgil, Segoe UI Emoji" font-size="18px" fill="#ffffff" text-anchor="middle" style="white-space: pre;" direction="ltr">Orchestrator</text></g><g stroke-linecap="round"><g transform="translate(170 164.78086649669677) rotate(0 0 310)"><path d="M-0.73 -0.12 C-1.02 103.51, -1.13 517.6, -0.95 621.03" stroke="#8b949e" stroke-width="2.5" fill="none" stroke-dasharray="8 10"></path></g></g><g stroke-linecap="round" transform="translate(390 94.78086649669677) rotate(0 100 35)"><path d="M-0.94 -0.77 L201.64 1.22 L200.36 68.15 L-0.03 68.71" stroke="none" stroke-width="0" fill="#1f4d2b"></path><path d="M0.07 -0.88 C51.62 -3.23, 107.88 -2.22, 201.41 -0.71 M0.55 0.05 C61.14 0.44, 123.05 -0.02, 200.16 0.56 M199.37 1.58 C200.92 28.29, 200.79 54.75, 201.03 70.05 M200.51 -0.84 C199.34 19.57, 199.67 39.53, 199.74 69.67 M201.32 68.27 C139.01 68.23, 82.5 67.82, 0.27 68.97 M200.57 69.48 C151.04 71.55, 102.78 70.77, -0.47 70.86 M1.85 71.23 C-1.29 47.82, -0.82 26.73, 0.58 0.92 M0.5 70.9 C-0.03 54.77, 0.58 41.52, -0.74 0.53" stroke="#3fb950" stroke-width="2" fill="none"></path></g><g transform="translate(430.7980499267578 118.53086649669677) rotate(0 59.20195007324219 11.25)"><text x="59.20195007324219" y="NaN" font-family="Virgil, Segoe UI Emoji" font-size="18px" fill="#ffffff" text-anchor="middle" style="white-space: pre;" direction="ltr">Order Service</text></g><g stroke-linecap="round"><g transform="translate(490 164.78086649669677) rotate(0 0 310)"><path d="M0.11 -0.87 C-0.04 102.29, -0.31 516.11, -0.17 619.49" stroke="#8b949e" stroke-width="2.5" fill="none" stroke-dasharray="8 10"></path></g></g><g stroke-linecap="round" transform="translate(650 94.78086649669677) rotate(0 100 35)"><path d="M0.75 -1.02 L201.08 1.34 L201.17 69.02 L1.64 69.6" stroke="none" stroke-width="0" fill="#3a1d6e"></path><path d="M-1.6 1.72 C67.26 1.82, 138.21 -0.65, 199.02 -0.05 M-0.16 0.63 C42.61 1.59, 87.07 1.41, 200.6 0.19 M199.63 1.11 C199.28 16.5, 197.83 32.34, 201.67 71.87 M200.25 0.63 C199.33 20.64, 200.64 39.29, 200.25 70.74 M200.2 70.76 C134.44 69.74, 65.82 69.44, -0.38 68.29 M200.11 69.77 C123.65 69.99, 47.71 70.03, 0.12 70.37 M1.8 70.39 C1.07 46.64, -2.07 22.38, 0.96 -1.56 M0.59 69.43 C-0.09 51.91, 0.34 31.1, 0.97 0.8" stroke="#a371f7" stroke-width="2" fill="none"></path></g><g transform="translate(679.0350494384766 118.53086649669677) rotate(0 70.96495056152344 11.25)"><text x="70.96495056152344" y="NaN" font-family="Virgil, Segoe UI Emoji" font-size="18px" fill="#ffffff" text-anchor="middle" style="white-space: pre;" direction="ltr">Payment Service</text></g><g stroke-linecap="round"><g transform="translate(750 164.78086649669677) rotate(0 0 310)"><path d="M-0.18 -0.03 C-0.42 103.29, -0.36 516.89, -0.45 620.26" stroke="#8b949e" stroke-width="2.5" fill="none" stroke-dasharray="8 10"></path></g></g><g stroke-linecap="round" transform="translate(910 94.78086649669677) rotate(0 100 35)"><path d="M0.62 1.32 L200.29 -0.89 L200.63 69.4 L-0.85 70.29" stroke="none" stroke-width="0" fill="#0d2c5a"></path><path d="M1.53 0.79 C56.59 -2.78, 114.28 -2.41, 199.21 0.26 M-0.13 -0.59 C39.63 0.8, 80.31 2.01, 200.15 -0.73 M199.75 0.71 C200.48 26.28, 198.41 51.17, 200.67 71.9 M200.35 0.77 C200.55 27.43, 198.95 55.19, 200.17 70.29 M200.45 71.75 C122.58 69.95, 45.58 69.14, 1.52 69.98 M200.08 69.58 C158.92 70.53, 118.89 70.54, -0.63 69.66 M0.33 68.15 C-0.16 54.79, 1.9 38.56, -0.94 -0.47 M-0.07 70.67 C0.14 44.16, -0.89 19.58, -0.27 0.19" stroke="#58a6ff" stroke-width="2" fill="none"></path></g><g transform="translate(934.0130615234375 118.53086649669677) rotate(0 75.9869384765625 11.25)"><text x="75.9869384765625" y="NaN" font-family="Virgil, Segoe UI Emoji" font-size="18px" fill="#ffffff" text-anchor="middle" style="white-space: pre;" direction="ltr">Inventory Service</text></g><g stroke-linecap="round"><g transform="translate(1010 164.78086649669677) rotate(0 0 310)"><path d="M-0.43 0.04 C-0.45 103.15, 0.54 516.55, 0.7 619.7" stroke="#8b949e" stroke-width="2.5" fill="none" stroke-dasharray="8 10"></path></g></g><g stroke-linecap="round" transform="translate(1170 94.78086649669677) rotate(0 100 35)"><path d="M0.53 0.07 L201.47 -1.75 L200.83 68.68 L0.2 68.57" stroke="none" stroke-width="0" fill="#3a5d1d"></path><path d="M1.55 1.12 C68.73 0.31, 138.56 0.04, 198.79 1.3 M0.02 -0.21 C50.36 1.86, 99.33 1.35, 200.19 -0.09 M201.04 -1.91 C199.5 20.13, 201.01 42.47, 200.28 68.99 M200.76 -0.75 C198.78 18.07, 198.94 35.86, 200.19 70.75 M200.9 70.81 C136.89 71.91, 73.81 70.69, -0.01 68.66 M199.79 69.19 C159.67 71.94, 117.83 70.35, -0.71 70.12 M0.97 69.96 C0.11 42.71, 0.3 13.17, -1.79 0.46 M-0.61 70.31 C0.02 56.02, 0.15 40.98, 0.98 0.08" stroke="#6dbf3a" stroke-width="2" fill="none"></path></g><g transform="translate(1203.6700592041016 118.53086649669677) rotate(0 66.32994079589844 11.25)"><text x="66.32994079589844" y="NaN" font-family="Virgil, Segoe UI Emoji" font-size="18px" fill="#ffffff" text-anchor="middle" style="white-space: pre;" direction="ltr">Shipping Service</text></g><g stroke-linecap="round"><g transform="translate(1270 164.78086649669677) rotate(0 0 310)"><path d="M0.38 0.88 C0.17 104.34, -1.29 516.96, -1.19 620.17" stroke="#8b949e" stroke-width="2.5" fill="none" stroke-dasharray="8 10"></path></g></g><g transform="translate(10 192.78086649669677) rotate(0 33.86597442626953 8.75)"><text x="0" y="NaN" font-family="Virgil, Segoe UI Emoji" font-size="14px" fill="#3fb950" text-anchor="start" style="white-space: pre;" direction="ltr">FORWARD</text></g><g transform="translate(10 492.7808664966968) rotate(0 28.468978881835938 8.75)"><text x="0" y="NaN" font-family="Virgil, Segoe UI Emoji" font-size="14px" fill="#f85149" text-anchor="start" style="white-space: pre;" direction="ltr">REWIND</text></g><g stroke-linecap="round"><g transform="translate(174 219.78086649669677) rotate(0 156 0)"><path d="M-0.78 -0.79 C51.29 -1, 260.76 -0.84, 312.87 -0.77 M1 1.41 C52.96 1.3, 260.7 0.47, 312.38 0.36" stroke="#3fb950" stroke-width="3" fill="none"></path></g><g transform="translate(174 219.78086649669677) rotate(0 156 0)"><path d="M282.91 12.17 C292.36 7.27, 302.51 2.21, 314.05 2.1 M285.2 10.66 C292.44 7.09, 300.73 5.04, 311.52 0.99" stroke="#3fb950" stroke-width="3" fill="none"></path></g><g transform="translate(174 219.78086649669677) rotate(0 156 0)"><path d="M282.84 -8.35 C292.4 -6.35, 302.57 -4.51, 314.05 2.1 M285.13 -9.86 C292.3 -7.53, 300.61 -3.67, 311.52 0.99" stroke="#3fb950" stroke-width="3" fill="none"></path></g></g><g transform="translate(302.97106170654297 197.78086649669677) rotate(0 57.02893829345703 8.75)"><text x="57.02893829345703" y="NaN" font-family="Virgil, Segoe UI Emoji" font-size="14px" fill="#3fb950" text-anchor="middle" style="white-space: pre;" direction="ltr">1.  Create Order</text></g><g stroke-linecap="round"><g transform="translate(486 254.78086649669677) rotate(0 -156 0)"><path d="M-0.87 -0.93 C-53.11 -0.95, -261.13 0.76, -313 0.76" stroke="#3fb950" stroke-width="2.5" fill="none" stroke-dasharray="8 10"></path></g><g transform="translate(486 254.78086649669677) rotate(0 -156 0)"><path d="M-286.4 -11.3 C-293.01 -6.45, -305.29 -2.83, -313.07 1.19" stroke="#3fb950" stroke-width="2.5" fill="none"></path></g><g transform="translate(486 254.78086649669677) rotate(0 -156 0)"><path d="M-286.31 9.22 C-293.1 7.15, -305.41 3.85, -313.07 1.19" stroke="#3fb950" stroke-width="2.5" fill="none"></path></g></g><g transform="translate(330.62701416015625 258.7808664966968) rotate(0 9.37298583984375 8.75)"><text x="9.37298583984375" y="NaN" font-family="Virgil, Segoe UI Emoji" font-size="14px" fill="#3fb950" text-anchor="middle" style="white-space: pre;" direction="ltr">OK</text></g><g stroke-linecap="round"><g transform="translate(174 299.7808664966968) rotate(0 286 0)"><path d="M0.41 -0.97 C95.96 -1.07, 477.07 -0.9, 572.45 -0.89 M-0.83 1.13 C94.67 1.18, 476.22 0.38, 571.74 0.19" stroke="#3fb950" stroke-width="3" fill="none"></path></g><g transform="translate(174 299.7808664966968) rotate(0 286 0)"><path d="M541.95 11.25 C548.62 9.15, 555.14 4.3, 570.12 0.04 M542.68 9.57 C550.04 8.95, 555.73 5.3, 572.53 -0.62" stroke="#3fb950" stroke-width="3" fill="none"></path></g><g transform="translate(174 299.7808664966968) rotate(0 286 0)"><path d="M541.91 -9.27 C548.54 -6.63, 555.07 -6.74, 570.12 0.04 M542.64 -10.95 C550 -7.15, 555.71 -6.37, 572.53 -0.62" stroke="#3fb950" stroke-width="3" fill="none"></path></g></g><g transform="translate(433.4470520019531 277.7808664966968) rotate(0 56.552947998046875 8.75)"><text x="56.552947998046875" y="NaN" font-family="Virgil, Segoe UI Emoji" font-size="14px" fill="#3fb950" text-anchor="middle" style="white-space: pre;" direction="ltr">2.  Charge Card</text></g><g stroke-linecap="round"><g transform="translate(746 334.7808664966968) rotate(0 -286 0)"><path d="M0.32 0.8 C-95.05 0.65, -475.55 -0.27, -571.11 -0.59" stroke="#3fb950" stroke-width="2.5" fill="none" stroke-dasharray="8 10"></path></g><g transform="translate(746 334.7808664966968) rotate(0 -286 0)"><path d="M-541.56 -9.3 C-554.96 -8.47, -566.94 -1.04, -572.15 0.9" stroke="#3fb950" stroke-width="2.5" fill="none"></path></g><g transform="translate(746 334.7808664966968) rotate(0 -286 0)"><path d="M-541.62 11.22 C-555.05 3.98, -567 3.34, -572.15 0.9" stroke="#3fb950" stroke-width="2.5" fill="none"></path></g></g><g transform="translate(460.62701416015625 338.7808664966968) rotate(0 9.37298583984375 8.75)"><text x="9.37298583984375" y="NaN" font-family="Virgil, Segoe UI Emoji" font-size="14px" fill="#3fb950" text-anchor="middle" style="white-space: pre;" direction="ltr">OK</text></g><g stroke-linecap="round"><g transform="translate(174 379.7808664966968) rotate(0 416 0)"><path d="M-0.02 -0.06 C138.63 -0.32, 692.36 -0.57, 830.91 -0.49 M-1.5 -1.13 C137.6 -0.72, 693.83 0.89, 833.04 0.79" stroke="#3fb950" stroke-width="3" fill="none"></path></g><g transform="translate(174 379.7808664966968) rotate(0 416 0)"><path d="M804.74 9.19 C810.02 7.62, 817.59 5.99, 834.85 -0.32 M805 10.79 C811.16 9.17, 817.44 5.72, 832.15 1.15" stroke="#3fb950" stroke-width="3" fill="none"></path></g><g transform="translate(174 379.7808664966968) rotate(0 416 0)"><path d="M804.77 -11.33 C810.22 -8.47, 817.79 -5.67, 834.85 -0.32 M805.03 -9.73 C811.13 -6.47, 817.41 -5.05, 832.15 1.15" stroke="#3fb950" stroke-width="3" fill="none"></path></g></g><g transform="translate(557.0980529785156 357.7808664966968) rotate(0 62.901947021484375 8.75)"><text x="62.901947021484375" y="NaN" font-family="Virgil, Segoe UI Emoji" font-size="14px" fill="#3fb950" text-anchor="middle" style="white-space: pre;" direction="ltr">3.  Reserve Stock</text></g><g stroke-linecap="round"><g transform="translate(1006 414.7808664966968) rotate(0 -416 0)"><path d="M-0.07 1.14 C-138.83 1.38, -694.18 0.42, -832.86 0.41" stroke="#f85149" stroke-width="2.5" fill="none" stroke-dasharray="8 10"></path></g><g transform="translate(1006 414.7808664966968) rotate(0 -416 0)"><path d="M-802.77 -11.26 C-811.74 -7.38, -818.26 -3.75, -832.45 0.57" stroke="#f85149" stroke-width="2.5" fill="none"></path></g><g transform="translate(1006 414.7808664966968) rotate(0 -416 0)"><path d="M-802.79 9.26 C-811.58 7.56, -818.09 5.59, -832.45 0.57" stroke="#f85149" stroke-width="2.5" fill="none"></path></g></g><g transform="translate(583.3820190429688 418.7808664966968) rotate(0 16.61798095703125 8.75)"><text x="16.61798095703125" y="NaN" font-family="Virgil, Segoe UI Emoji" font-size="14px" fill="#f85149" text-anchor="middle" style="white-space: pre;" direction="ltr">FAIL</text></g><g transform="translate(1055.4060525105533 433.51252981467684) rotate(0 11.98681640625 26.25)"><text x="0" y="NaN" font-family="Virgil, Segoe UI Emoji" font-size="42px" fill="#f85149" text-anchor="start" style="white-space: pre;" direction="ltr">✗</text></g><g transform="translate(1091.516584086132 442.24005929710796) rotate(0 63.779937744140625 12.5)"><text x="0" y="NaN" font-family="Virgil, Segoe UI Emoji" font-size="20px" fill="#f85149" text-anchor="start" style="white-space: pre;" direction="ltr">out of stock</text></g><g stroke-linecap="round"><g transform="translate(30 484.7808664966968) rotate(0 690 0)"><path d="M0.73 0.45 C230.78 0.39, 1151.3 0.33, 1380.99 0.21" stroke="#f85149" stroke-width="2.5" fill="none" stroke-dasharray="8 10"></path></g></g><g transform="translate(529.9340639400435 508.7808664966968) rotate(0 182.3548583984375 9.375)"><text x="0" y="NaN" font-family="Virgil, Segoe UI Emoji" font-size="15px" fill="#f85149" text-anchor="start" style="white-space: pre;" direction="ltr">── compensation rewinds in REVERSE order ──</text></g><g stroke-linecap="round"><g transform="translate(173.78141732503764 574.7808664966967) rotate(0 286 0)"><path d="M-0.42 -1.04 C94.52 -1.29, 475.35 -0.67, 570.82 -0.41 M1.57 1.03 C96.75 1.46, 477.86 1.35, 572.91 0.91" stroke="#f85149" stroke-width="3" fill="none"></path></g><g transform="translate(173.78141732503764 574.7808664966967) rotate(0 286 0)"><path d="M543 9.25 C555.19 7.85, 567.91 3.73, 572.6 0.24 M544.06 10.37 C552.58 9.07, 559.04 4.96, 572.67 1.26" stroke="#f85149" stroke-width="3" fill="none"></path></g><g transform="translate(173.78141732503764 574.7808664966967) rotate(0 286 0)"><path d="M542.96 -11.27 C555.35 -4.49, 568.09 -0.43, 572.6 0.24 M544.02 -10.15 C552.43 -6.16, 558.9 -4.98, 572.67 1.26" stroke="#f85149" stroke-width="3" fill="none"></path></g></g><g transform="translate(419.2494730501353 552.7808664966967) rotate(0 70.53194427490234 8.75)"><text x="70.53194427490234" y="NaN" font-family="Virgil, Segoe UI Emoji" font-size="14px" fill="#f85149" text-anchor="middle" style="white-space: pre;" direction="ltr">2'.  Refund Payment</text></g><g stroke-linecap="round"><g transform="translate(745.7814173250376 609.7808664966967) rotate(0 -286 0)"><path d="M0.19 0.04 C-95.02 -0.13, -476.77 -1.08, -572.19 -0.89" stroke="#3fb950" stroke-width="2.5" fill="none" stroke-dasharray="8 10"></path></g><g transform="translate(745.7814173250376 609.7808664966967) rotate(0 -286 0)"><path d="M-543.93 -11.44 C-551.64 -9.37, -554.36 -7.44, -570.84 0.77" stroke="#3fb950" stroke-width="2.5" fill="none"></path></g><g transform="translate(745.7814173250376 609.7808664966967) rotate(0 -286 0)"><path d="M-543.94 9.08 C-551.67 6.65, -554.39 4.09, -570.84 0.77" stroke="#3fb950" stroke-width="2.5" fill="none"></path></g></g><g transform="translate(460.4084314851939 613.8833271255853) rotate(0 9.37298583984375 8.75)"><text x="9.37298583984375" y="NaN" font-family="Virgil, Segoe UI Emoji" font-size="14px" fill="#3fb950" text-anchor="middle" style="white-space: pre;" direction="ltr">OK</text></g><g stroke-linecap="round"><g transform="translate(173.78141732503764 659.8833271255853) rotate(0 156 0)"><path d="M0.05 -0.54 C51.81 -0.39, 259.47 0.21, 311.6 0.48 M-1.39 1.79 C50.09 1.61, 258.13 -0.98, 310.45 -1.39" stroke="#f85149" stroke-width="3" fill="none"></path></g><g transform="translate(173.78141732503764 659.8833271255853) rotate(0 156 0)"><path d="M281.46 8.5 C294.06 6.43, 305.92 2.05, 309.83 -1 M282.94 8.17 C291.95 5.33, 301.95 0.79, 309.85 -1.69" stroke="#f85149" stroke-width="3" fill="none"></path></g><g transform="translate(173.78141732503764 659.8833271255853) rotate(0 156 0)"><path d="M281.25 -12.02 C293.86 -6.15, 305.8 -2.6, 309.83 -1 M282.72 -12.35 C291.65 -8.18, 301.72 -5.7, 309.85 -1.69" stroke="#f85149" stroke-width="3" fill="none"></path></g></g><g transform="translate(303.06047005941264 637.8833271255853) rotate(0 56.720947265625 8.75)"><text x="56.720947265625" y="NaN" font-family="Virgil, Segoe UI Emoji" font-size="14px" fill="#f85149" text-anchor="middle" style="white-space: pre;" direction="ltr">1'.  Cancel Order</text></g><g stroke-linecap="round"><g transform="translate(485.78141732503764 694.8833271255853) rotate(0 -156 0)"><path d="M-0.48 -0.97 C-52.48 -1.06, -260.35 -1.2, -312.43 -1.05" stroke="#3fb950" stroke-width="2.5" fill="none" stroke-dasharray="8 10"></path></g><g transform="translate(485.78141732503764 694.8833271255853) rotate(0 -156 0)"><path d="M-285.86 -12.05 C-293.51 -10.34, -299.43 -6.36, -314.05 -1.34" stroke="#3fb950" stroke-width="2.5" fill="none"></path></g><g transform="translate(485.78141732503764 694.8833271255853) rotate(0 -156 0)"><path d="M-285.85 8.47 C-293.41 4.75, -299.33 3.29, -314.05 -1.34" stroke="#3fb950" stroke-width="2.5" fill="none"></path></g></g><g transform="translate(330.4084314851939 698.8833271255853) rotate(0 9.37298583984375 8.75)"><text x="9.37298583984375" y="NaN" font-family="Virgil, Segoe UI Emoji" font-size="14px" fill="#3fb950" text-anchor="middle" style="white-space: pre;" direction="ltr">OK</text></g><g stroke-linecap="round" transform="translate(80 734.7808664966967) rotate(0 90 25)"><path d="M0.95 -0.23 L180.82 -0.13 L180.51 50.33 L1.72 49.34" stroke="none" stroke-width="0" fill="#4a1219"></path><path d="M1.74 0.86 C64.66 -0.38, 126.07 -2.79, 178.25 1.53 M-0.58 0.91 C61.69 0.68, 123.35 0.57, 179.27 0.17 M178.87 0.83 C178.04 17.7, 179.62 34.52, 180.36 50.75 M179.94 0.73 C180.64 13.95, 180.68 25.77, 179.89 49.82 M178.89 49.67 C131.53 50.89, 81.75 48.82, -1.48 48.43 M179.31 50.48 C113.15 49.89, 47.22 49.6, -0.19 50.96 M1.77 50.51 C-0.27 35.41, 1.53 21.52, 1.28 0.34 M-0.09 49.32 C0.65 37.21, 1.08 23.27, 0.55 -0.76" stroke="#f85149" stroke-width="2" fill="none"></path></g><g transform="translate(97.46145577718607 747.8833271255853) rotate(0 72.31996154785156 10)"><text x="72.31996154785156" y="NaN" font-family="Virgil, Segoe UI Emoji" font-size="16px" fill="#ffffff" text-anchor="middle" style="white-space: pre;" direction="ltr">saga = ABORTED</text></g><g transform="translate(1210 379.7808664966968) rotate(0 46.04595184326172 8.75)"><text x="0" y="NaN" font-family="Virgil, Segoe UI Emoji" font-size="14px" fill="#8b949e" text-anchor="start" style="white-space: pre;" direction="ltr">(never called)</text></g></svg>