<svg version="1.1" xmlns="http://www.w3.org/2000/svg" viewBox="0 0 1520 853" width="1520" height="853">
  <!-- svg-source:excalidraw -->
  
  <defs>
    <style>
      @font-face {
        font-family: "Virgil";
        src: url("https://excalidraw.com/Virgil.woff2");
      }
      @font-face {
        font-family: "Cascadia";
        src: url("https://excalidraw.com/Cascadia.woff2");
      }
    </style>
  </defs>
  <rect x="0" y="0" width="1520" height="853" fill="#0d1117"></rect><g transform="translate(10 10) rotate(0 435.330810546875 16.25)"><text x="0" y="NaN" font-family="Virgil, Segoe UI Emoji" font-size="26px" fill="#ff8c42" text-anchor="start" style="white-space: pre;" direction="ltr">ZooKeeper Distributed Lock: Naive Herd vs Sequential-Nodes Baton</text></g><g stroke-linecap="round"><g transform="translate(775 83) rotate(0 0 380)"><path d="M0.01 -1.15 C-0.13 125.57, 0.37 632.46, 0.32 759.52" stroke="#30363d" stroke-width="2.5" fill="none" stroke-dasharray="8 10"></path></g></g><g transform="translate(30 83) rotate(0 146.69989013671875 12.5)"><text x="0" y="NaN" font-family="Virgil, Segoe UI Emoji" font-size="20px" fill="#f85149" text-anchor="start" style="white-space: pre;" direction="ltr">Naive: single /lock + watchers</text></g><g transform="translate(30 111) rotate(0 157.34585571289062 8.75)"><text x="0" y="NaN" font-family="Virgil, Segoe UI Emoji" font-size="14px" fill="#8b949e" text-anchor="start" style="white-space: pre;" direction="ltr">every client puts a watch on the same znode</text></g><g stroke-linecap="round" transform="translate(270 173) rotate(0 100 35)"><path d="M-0.94 -0.77 L201.64 1.22 L200.36 68.15 L-0.03 68.71" stroke="none" stroke-width="0" fill="#4a1219"></path><path d="M0.07 -0.88 C51.62 -3.23, 107.88 -2.22, 201.41 -0.71 M0.55 0.05 C61.14 0.44, 123.05 -0.02, 200.16 0.56 M199.37 1.58 C200.92 28.29, 200.79 54.75, 201.03 70.05 M200.51 -0.84 C199.34 19.57, 199.67 39.53, 199.74 69.67 M201.32 68.27 C139.01 68.23, 82.5 67.82, 0.27 68.97 M200.57 69.48 C151.04 71.55, 102.78 70.77, -0.47 70.86 M1.85 71.23 C-1.29 47.82, -0.82 26.73, 0.58 0.92 M0.5 70.9 C-0.03 54.77, 0.58 41.52, -0.74 0.53" stroke="#f85149" stroke-width="3" fill="none"></path></g><g transform="translate(321.634033203125 185.5) rotate(0 48.365966796875 22.5)"><text x="48.365966796875" y="NaN" font-family="Virgil, Segoe UI Emoji" font-size="18px" fill="#ffffff" text-anchor="middle" style="white-space: pre;" direction="ltr">/lock</text><text x="48.365966796875" y="NaN" font-family="Virgil, Segoe UI Emoji" font-size="18px" fill="#ffffff" text-anchor="middle" style="white-space: pre;" direction="ltr">(ephemeral)</text></g><g stroke-linecap="round" transform="translate(50 373) rotate(0 65 28)"><path d="M-1.36 -1.41 L130.38 -0.38 L131.98 57.22 L-1.13 55.98" stroke="none" stroke-width="0" fill="#1f4d2b"></path><path d="M-1.45 -0.29 C46.47 1.48, 93.66 -1.36, 131.27 1.98 M0.5 -0.43 C39.33 1.6, 77.86 0.96, 130.99 -0.3 M128.98 1.66 C132.24 13.24, 130.13 21.75, 128.54 57.97 M130.54 0.31 C131.13 13.26, 130.24 26.2, 130.85 56.81 M128.86 55.62 C103.44 58.17, 74.33 55.76, -1.57 55.87 M129.47 56.04 C98.54 55.44, 67.05 54.68, 0.3 55.14 M0.52 55 C-1.4 36.89, 0.09 18.06, 1.85 -1.62 M0.37 56.2 C-0.55 39.96, 0.9 25.17, -0.98 -0.13" stroke="#3fb950" stroke-width="2" fill="none"></path></g><g transform="translate(76.76402282714844 387.25) rotate(0 38.23597717285156 13.75)"><text x="38.23597717285156" y="NaN" font-family="Virgil, Segoe UI Emoji" font-size="22px" fill="#ffffff" text-anchor="middle" style="white-space: pre;" direction="ltr">Client 1</text></g><g stroke-linecap="round"><g transform="translate(115 373) rotate(0 127.5 -65)"><path d="M-0.46 0.87 C41.87 -21.03, 211.22 -109.08, 253.94 -130.75" stroke="#8b949e" stroke-width="1.5" fill="none" stroke-dasharray="8 9"></path></g><g transform="translate(115 373) rotate(0 127.5 -65)"><path d="M235.01 -110.5 C238.25 -113.78, 247.02 -122.97, 255.08 -129.09" stroke="#8b949e" stroke-width="1.5" fill="none"></path></g><g transform="translate(115 373) rotate(0 127.5 -65)"><path d="M225.62 -128.75 C231.75 -126.58, 243.3 -130.35, 255.08 -129.09" stroke="#8b949e" stroke-width="1.5" fill="none"></path></g></g><g stroke-linecap="round" transform="translate(210 453) rotate(0 65 28)"><path d="M-1.24 -0.42 L128.64 -0.05 L129.65 54.1 L-0.53 54.61" stroke="none" stroke-width="0" fill="#1f4d2b"></path><path d="M-0.05 -0.75 C50.2 -1, 99.87 0, 131.65 1.99 M-0.43 0.56 C49.08 -1.64, 97.69 -0.31, 130.94 0.87 M131.78 -1.24 C130.9 20.86, 132.51 40.01, 129.73 54.23 M130.92 0.16 C129.69 19.55, 129.96 40.36, 129.99 55.07 M130.09 54 C78.7 57.36, 29.88 54.97, -0.54 55.54 M130.45 55.57 C101.68 56.44, 74.75 56.16, 0.86 55.84 M-1.56 57.51 C1.58 43.35, 0.44 30.5, -0.35 1.37 M-0.19 55.44 C0.94 42.13, 0.26 29.91, -0.48 -0.36" stroke="#3fb950" stroke-width="2" fill="none"></path></g><g transform="translate(231.91302490234375 467.25) rotate(0 43.08697509765625 13.75)"><text x="43.08697509765625" y="NaN" font-family="Virgil, Segoe UI Emoji" font-size="22px" fill="#ffffff" text-anchor="middle" style="white-space: pre;" direction="ltr">Client 2</text></g><g stroke-linecap="round"><g transform="translate(275 453) rotate(0 47.5 -105)"><path d="M0.88 0.33 C16.8 -34.69, 78.88 -174.01, 94.41 -209.14" stroke="#8b949e" stroke-width="1.5" fill="none" stroke-dasharray="8 9"></path></g><g transform="translate(275 453) rotate(0 47.5 -105)"><path d="M92.88 -180.2 C93.95 -186.97, 92.2 -190.95, 93.56 -209.25" stroke="#8b949e" stroke-width="1.5" fill="none"></path></g><g transform="translate(275 453) rotate(0 47.5 -105)"><path d="M74.13 -188.53 C79.13 -193.73, 81.24 -195.98, 93.56 -209.25" stroke="#8b949e" stroke-width="1.5" fill="none"></path></g></g><g stroke-linecap="round" transform="translate(370 373) rotate(0 65 28)"><path d="M-1.83 -0.98 L129.95 0.17 L131.14 56.48 L-1.95 57.6" stroke="none" stroke-width="0" fill="#1f4d2b"></path><path d="M0.06 1.16 C47.24 1.32, 93.7 -0.55, 128.58 -0.41 M-0.23 -0.64 C47.75 0.95, 97.98 1.23, 129.25 -0.79 M131.79 0.92 C129 17.39, 131.76 37.78, 129.05 54.32 M129.03 -0.5 C131.15 18.8, 131.21 37.61, 129.29 56.81 M128.65 56.5 C82.17 58.03, 37.97 57, 1.91 54.53 M130.2 56.25 C91.58 54.22, 53.25 55.68, -0.19 55.74 M-0.2 56.58 C2.09 39.37, 1.91 23.31, 0.8 -0.74 M-0.75 55.43 C-0.59 33.08, -0.59 12.52, 0.88 0.49" stroke="#3fb950" stroke-width="2" fill="none"></path></g><g transform="translate(392.25402069091797 387.25) rotate(0 42.74597930908203 13.75)"><text x="42.74597930908203" y="NaN" font-family="Virgil, Segoe UI Emoji" font-size="22px" fill="#ffffff" text-anchor="middle" style="white-space: pre;" direction="ltr">Client 3</text></g><g stroke-linecap="round"><g transform="translate(435 373) rotate(0 -32.5 -65)"><path d="M0.19 0.39 C-10.87 -21.23, -54.93 -107.41, -65.95 -129.1" stroke="#8b949e" stroke-width="1.5" fill="none" stroke-dasharray="8 9"></path></g><g transform="translate(435 373) rotate(0 -32.5 -65)"><path d="M-43.34 -110.22 C-49.95 -117.02, -58.33 -123.48, -65.63 -129.98" stroke="#8b949e" stroke-width="1.5" fill="none"></path></g><g transform="translate(435 373) rotate(0 -32.5 -65)"><path d="M-61.62 -100.9 C-62.17 -110.84, -64.42 -120.43, -65.63 -129.98" stroke="#8b949e" stroke-width="1.5" fill="none"></path></g></g><g stroke-linecap="round" transform="translate(490 453) rotate(0 65 28)"><path d="M-1.56 -1.23 L128.58 -1.45 L130.3 54.56 L-1.88 57.87" stroke="none" stroke-width="0" fill="#1f4d2b"></path><path d="M1.46 -1.99 C40.5 1.21, 80.69 -1.1, 131.22 0.24 M-0.37 0.54 C34.23 0.69, 68.67 0.27, 130.91 -0.42 M128.8 -0.21 C131.96 17.69, 131.17 38.1, 130.74 57.63 M129.57 0.31 C130.16 15.79, 130.94 30.41, 129.81 55.16 M131.62 57.99 C100.26 55.48, 69.32 55.74, 1.27 56.03 M130.56 56.77 C88.82 57.28, 46.23 56.7, 0.64 55.93 M1.77 55.04 C1.05 35.43, -1.83 16.12, 0.07 1.84 M0.43 56.13 C0.18 42.76, 0.41 29.34, -0.94 0.52" stroke="#3fb950" stroke-width="2" fill="none"></path></g><g transform="translate(512.7050247192383 467.25) rotate(0 42.29497528076172 13.75)"><text x="42.29497528076172" y="NaN" font-family="Virgil, Segoe UI Emoji" font-size="22px" fill="#ffffff" text-anchor="middle" style="white-space: pre;" direction="ltr">Client 4</text></g><g stroke-linecap="round"><g transform="translate(555 453) rotate(0 -92.5 -105)"><path d="M-0.38 -0.78 C-31.02 -35.69, -153.18 -174.74, -184.03 -209.8" stroke="#8b949e" stroke-width="1.5" fill="none" stroke-dasharray="8 9"></path></g><g transform="translate(555 453) rotate(0 -92.5 -105)"><path d="M-159.02 -193.79 C-164.87 -200.43, -174.58 -205.54, -182.71 -208.67" stroke="#8b949e" stroke-width="1.5" fill="none"></path></g><g transform="translate(555 453) rotate(0 -92.5 -105)"><path d="M-174.43 -180.24 C-175.83 -190.71, -181.14 -199.69, -182.71 -208.67" stroke="#8b949e" stroke-width="1.5" fill="none"></path></g></g><g stroke-linecap="round" transform="translate(50 553) rotate(0 65 28)"><path d="M-1.82 -1.43 L131.65 0.04 L129.72 55.29 L-1.32 56.66" stroke="none" stroke-width="0" fill="#1f4d2b"></path><path d="M-1.32 1.45 C42.4 0.7, 86.77 -0.88, 131.67 1.74 M0.98 -0.05 C37.45 -0.66, 75.03 0.27, 129.14 0.63 M131.71 1.13 C130.94 15.58, 130.45 32.75, 131.43 57.12 M129.9 0.86 C130.64 21.19, 131.11 42.69, 129.53 55.56 M129.03 54.22 C98.65 55.57, 69.89 56.62, -1.47 55.38 M130.04 56.97 C89.11 57.19, 47.34 56.79, -1 55.58 M-1.84 55.85 C-1.5 33.23, -0.63 13.08, -1.9 0.58 M-0.49 55.49 C-0.31 40.35, -1.24 25.25, -0.56 0.3" stroke="#3fb950" stroke-width="2" fill="none"></path></g><g transform="translate(72.947021484375 567.25) rotate(0 42.052978515625 13.75)"><text x="42.052978515625" y="NaN" font-family="Virgil, Segoe UI Emoji" font-size="22px" fill="#ffffff" text-anchor="middle" style="white-space: pre;" direction="ltr">Client 5</text></g><g stroke-linecap="round"><g transform="translate(115 553) rotate(0 127.5 -155)"><path d="M-0.87 -0.93 C41.39 -52.62, 211.37 -257.58, 254 -309.24" stroke="#8b949e" stroke-width="1.5" fill="none" stroke-dasharray="8 9"></path></g><g transform="translate(115 553) rotate(0 127.5 -155)"><path d="M242.39 -282.65 C248.38 -290.56, 248.99 -299.98, 253.93 -308.81" stroke="#8b949e" stroke-width="1.5" fill="none"></path></g><g transform="translate(115 553) rotate(0 127.5 -155)"><path d="M226.58 -295.73 C238 -299.12, 243.94 -304.12, 253.93 -308.81" stroke="#8b949e" stroke-width="1.5" fill="none"></path></g></g><g transform="translate(80 283) rotate(0 106.58890533447266 8.75)"><text x="0" y="NaN" font-family="Virgil, Segoe UI Emoji" font-size="14px" fill="#8b949e" text-anchor="start" style="white-space: pre;" direction="ltr">N watchers on the same znode</text></g><g stroke-opacity="0.5" fill-opacity="0.5" stroke-linecap="round" transform="translate(90 643) rotate(0 330 50)"><path d="M1.8 0.82 L659 1.55 L661.53 101.1 L1.2 101.18" stroke="none" stroke-width="0" fill="#4a1219"></path><path d="M-0.65 0.3 C151.87 -0.46, 304.33 -1.45, 659.35 -0.06 M658.22 -1.86 C660.78 23.4, 660.02 42.12, 661.58 98.39 M660.69 100.51 C478.28 98.84, 298.09 99.29, 0.74 99.83 M-1.83 98.12 C0.47 75.68, 2.53 50.33, -1.71 -1.01" stroke="#f85149" stroke-width="2.5" fill="none" stroke-dasharray="8 10"></path></g><g transform="translate(110 653) rotate(0 76.84845733642578 10.625)"><text x="0" y="NaN" font-family="Virgil, Segoe UI Emoji" font-size="17px" fill="#f85149" text-anchor="start" style="white-space: pre;" direction="ltr">lock holder dies →</text></g><g transform="translate(110 681) rotate(0 148.26736450195312 9.375)"><text x="0" y="NaN" font-family="Virgil, Segoe UI Emoji" font-size="15px" fill="#f85149" text-anchor="start" style="white-space: pre;" direction="ltr">ZooKeeper fires watch on ALL N clients</text></g><g transform="translate(110 705) rotate(0 248.07980346679688 8.75)"><text x="0" y="NaN" font-family="Virgil, Segoe UI Emoji" font-size="14px" fill="#c9d1d9" text-anchor="start" style="white-space: pre;" direction="ltr">→ all N race to create the next /lock; only one wins; N-1 wasted RPCs</text></g><g transform="translate(588.5005540803527 533) rotate(0 51.36997985839844 27.5)"><text x="51.36997985839844" y="NaN" font-family="Virgil, Segoe UI Emoji" font-size="44px" fill="#f85149" text-anchor="middle" style="white-space: pre;" direction="ltr">1000</text></g><g transform="translate(585.01904296875 592) rotate(0 54.98095703125 11.25)"><text x="54.98095703125" y="NaN" font-family="Virgil, Segoe UI Emoji" font-size="18px" fill="#f85149" text-anchor="middle" style="white-space: pre;" direction="ltr">watches fire</text></g><g transform="translate(564.0936174348449 611) rotate(0 75.77691650390625 8.125)"><text x="75.77691650390625" y="NaN" font-family="Virgil, Segoe UI Emoji" font-size="13px" fill="#8b949e" text-anchor="middle" style="white-space: pre;" direction="ltr">for 1000 clients waiting</text></g><g transform="translate(790 83) rotate(0 204.81982421875 12.5)"><text x="0" y="NaN" font-family="Virgil, Segoe UI Emoji" font-size="20px" fill="#3fb950" text-anchor="start" style="white-space: pre;" direction="ltr">Sequential nodes: watch your predecessor</text></g><g transform="translate(790 111) rotate(0 277.17169189453125 8.75)"><text x="0" y="NaN" font-family="Virgil, Segoe UI Emoji" font-size="14px" fill="#8b949e" text-anchor="start" style="white-space: pre;" direction="ltr">each client creates an ephemeral-sequential child; watches only the one below it</text></g><g stroke-linecap="round" transform="translate(990 173) rotate(0 130 25)"><path d="M1.31 -0.05 L259.86 1.36 L259.46 50.46 L0.3 48.97" stroke="none" stroke-width="0" fill="#21262d"></path><path d="M-0.78 0.61 C69.72 2.47, 136.28 1.08, 260.67 0.48 M-0.17 0.49 C88.78 1.82, 176.52 1.78, 260.77 -0.53 M260.57 0 C261.28 16.2, 258.44 35.33, 258.96 48.56 M260.59 -0.83 C260.17 17.68, 260.2 35.96, 260.26 50.55 M261.44 50.84 C205.55 50.12, 150.08 50.39, -1.28 51.29 M260.03 50.57 C180.22 49.65, 100.95 49.08, -0.01 49.87 M0.46 48.74 C-0.12 34.6, 1.21 21.14, -1.36 1.74 M-0.89 49.85 C1.01 34.17, 0.53 16.92, -0.51 -0.25" stroke="#8b949e" stroke-width="2" fill="none"></path></g><g transform="translate(1048.4320449829102 188) rotate(0 71.56795501708984 10)"><text x="71.56795501708984" y="NaN" font-family="Virgil, Segoe UI Emoji" font-size="16px" fill="#ffffff" text-anchor="middle" style="white-space: pre;" direction="ltr">/lock  (parent dir)</text></g><g stroke-linecap="round" transform="translate(1020 263) rotate(0 100 28)"><path d="M-1.06 -0.96 L198.6 -0.05 L199.98 54.83 L0.89 54.85" stroke="none" stroke-width="0" fill="#3a5d1d"></path><path d="M0.02 1.3 C60.93 1.6, 119.62 1.47, 199.81 -0.3 M-0.48 0.56 C56.76 -0.54, 112.7 0.18, 199.33 0.3 M199.77 -1.51 C198.48 13.72, 198.51 29.02, 198.68 55.01 M200.48 0.67 C200.49 13.82, 200.59 28.96, 199.5 56.44 M200.13 55.84 C140.5 55.18, 82.33 55.69, -0.83 57.63 M199.28 55.97 C153.63 56.26, 108.56 56.39, -0.41 56.66 M1.72 57.4 C-1.29 42.5, 1.51 28.84, 1.68 -0.87 M0 55.83 C0.05 37.01, 0.44 19.04, 0.72 0.48" stroke="#6dbf3a" stroke-width="2" fill="none"></path></g><g transform="translate(1083.5840225219727 281) rotate(0 36.415977478027344 10)"><text x="36.415977478027344" y="NaN" font-family="Virgil, Segoe UI Emoji" font-size="16px" fill="#ffffff" text-anchor="middle" style="white-space: pre;" direction="ltr">lock-0001</text></g><g stroke-linecap="round"><g transform="translate(1120 223) rotate(0 0 20)"><path d="M0.98 0.93 C0.81 7.56, -1.01 34.22, -0.99 40.86 M0.04 0.38 C0.23 7.2, 1.06 32.78, 1.2 39.19" stroke="#8b949e" stroke-width="2" fill="none"></path></g></g><g stroke-linecap="round" transform="translate(1020 360.72033096684584) rotate(0 100 28)"><path d="M1.53 1.34 L198.89 -0.35 L198.68 55.74 L-0.84 55.46" stroke="none" stroke-width="0" fill="#3a1d6e"></path><path d="M0.06 -0.28 C42.5 -0.76, 89.44 -1.04, 201.21 1.49 M0.44 0.68 C51.1 -0.05, 102.68 -0.17, 199.49 0.2 M199.07 1.63 C198.73 19.94, 199.57 34.17, 200.55 56.43 M200.18 -0.99 C199.94 13.97, 200.75 29.02, 200.85 56.55 M199.74 56.39 C157.84 53.67, 117.02 55.17, 1.6 54.88 M200.14 55.93 C124.42 54.3, 47.71 54.35, -0.45 55.38 M-1.7 56.99 C0.49 43.09, 1.63 29.53, -0.84 0.17 M0.3 56.64 C-0.25 43.83, -0.08 31.14, 0.26 0.95" stroke="#a371f7" stroke-width="2" fill="none"></path></g><g transform="translate(1080.056022644043 378.72033096684584) rotate(0 39.94397735595703 10)"><text x="39.94397735595703" y="NaN" font-family="Virgil, Segoe UI Emoji" font-size="16px" fill="#ffffff" text-anchor="middle" style="white-space: pre;" direction="ltr">lock-0002</text></g><g stroke-linecap="round" transform="translate(1019.5895912324545 459.411188327384) rotate(0 100 28)"><path d="M1.92 0.44 L200.96 1.29 L199.08 57.51 L0.89 55.74" stroke="none" stroke-width="0" fill="#21262d"></path><path d="M-0.81 -0.6 C78.1 1.16, 156.37 0.89, 199.45 0.35 M0.51 -0.9 C68.29 -1.24, 137.02 -2.07, 199.46 -0.27 M199.05 0.57 C201.16 19.34, 201.35 37.85, 200.26 55.07 M199.6 0.32 C199.53 13, 199.72 28.25, 199.66 56.02 M201.59 54.67 C151.7 58.82, 101.61 56.75, 1.34 55.07 M199.84 55.6 C139.96 55.59, 79.05 55.78, 0.52 55.99 M-1.04 55.79 C-2.27 37.99, -1.27 19.75, -0.79 1.26 M1 56.03 C0.04 41.81, 0.39 25.7, 0.22 -0.86" stroke="#8b949e" stroke-width="2" fill="none"></path></g><g transform="translate(1079.8936149751303 477.411188327384) rotate(0 39.69597625732422 10)"><text x="39.69597625732422" y="NaN" font-family="Virgil, Segoe UI Emoji" font-size="16px" fill="#ffffff" text-anchor="middle" style="white-space: pre;" direction="ltr">lock-0003</text></g><g stroke-linecap="round" transform="translate(1019.3779338806385 565.8559320885927) rotate(0 100 28)"><path d="M-0.54 -0.04 L201.8 0.03 L200.68 54.79 L1.17 57.92" stroke="none" stroke-width="0" fill="#21262d"></path><path d="M-1.46 -0.64 C51.38 -0.72, 105.72 0.41, 198.54 -0.26 M-0.12 0.42 C74.77 -0.03, 150.77 -0.78, 199.17 0.59 M201.38 1.89 C200.86 16.36, 199.09 35.49, 200.53 54.81 M200.98 0.64 C200.4 11.1, 201.23 24.17, 200.74 56.11 M198.41 54.93 C125.08 56.81, 51.07 58.3, 0.49 54.6 M200.28 55.87 C123.17 56.93, 47.81 56.23, 0.19 55.63 M1.53 55.02 C0.27 37.22, 1.71 19.06, -1.48 1.17 M0.38 55.92 C0.89 34.38, -0.66 12.05, -0.98 -0.42" stroke="#8b949e" stroke-width="2" fill="none"></path></g><g transform="translate(1080.0099605530017 583.8559320885927) rotate(0 39.36797332763672 10)"><text x="39.36797332763672" y="NaN" font-family="Virgil, Segoe UI Emoji" font-size="16px" fill="#ffffff" text-anchor="middle" style="white-space: pre;" direction="ltr">lock-0004</text></g><g transform="translate(1250 277) rotate(0 51.262451171875 9.375)"><text x="0" y="NaN" font-family="Virgil, Segoe UI Emoji" font-size="15px" fill="#3fb950" text-anchor="start" style="white-space: pre;" direction="ltr">holds the lock</text></g><g transform="translate(820 277) rotate(0 52.198951721191406 8.75)"><text x="0" y="NaN" font-family="Virgil, Segoe UI Emoji" font-size="14px" fill="#8b949e" text-anchor="start" style="white-space: pre;" direction="ltr">smallest seq #</text></g><g stroke-linecap="round"><g transform="translate(1050 353) rotate(0 0 -17)"><path d="M0.21 -0.42 C0.35 -5.99, -0.08 -27.86, 0.06 -33.46" stroke="#f0883e" stroke-width="2.5" fill="none" stroke-dasharray="8 10"></path></g><g transform="translate(1050 353) rotate(0 0 -17)"><path d="M5.27 -17.41 C5.26 -19.79, 3.05 -25.82, 1.71 -34.99" stroke="#f0883e" stroke-width="2.5" fill="none"></path></g><g transform="translate(1050 353) rotate(0 0 -17)"><path d="M-6.36 -17.41 C-3.62 -19.81, -3.07 -25.84, 1.71 -34.99" stroke="#f0883e" stroke-width="2.5" fill="none"></path></g></g><g transform="translate(944.182662318268 381.65285848519244) rotate(0 30.432098388671818 7.5)"><text x="0" y="NaN" font-family="Virgil, Segoe UI Emoji" font-size="12px" fill="#f0883e" text-anchor="start" style="white-space: pre;" direction="ltr">watches ↑</text></g><g stroke-linecap="round"><g transform="translate(1050 458) rotate(0 0 -17)"><path d="M-0.28 -0.13 C-0.21 -5.61, 0.05 -28.48, 0.03 -34.05" stroke="#f0883e" stroke-width="2.5" fill="none" stroke-dasharray="8 10"></path></g><g transform="translate(1050 458) rotate(0 0 -17)"><path d="M5.58 -18.01 C4.31 -22.93, 3.49 -26.38, 1.7 -34.97" stroke="#f0883e" stroke-width="2.5" fill="none"></path></g><g transform="translate(1050 458) rotate(0 0 -17)"><path d="M-6.05 -18.07 C-4.2 -22.95, -1.9 -26.38, 1.7 -34.97" stroke="#f0883e" stroke-width="2.5" fill="none"></path></g></g><g transform="translate(945.3132223194309 478.28392844635164) rotate(0 30.432098388671875 7.5)"><text x="0" y="NaN" font-family="Virgil, Segoe UI Emoji" font-size="12px" fill="#f0883e" text-anchor="start" style="white-space: pre;" direction="ltr">watches ↑</text></g><g stroke-linecap="round"><g transform="translate(1050 558) rotate(0 0 -17)"><path d="M-0.76 -1.06 C-0.88 -6.44, -0.67 -27.64, -0.49 -32.99" stroke="#f0883e" stroke-width="2.5" fill="none" stroke-dasharray="8 10"></path></g><g transform="translate(1050 558) rotate(0 0 -17)"><path d="M3.5 -17.61 C4.76 -21.7, 2.73 -25.66, -1.56 -33.93" stroke="#f0883e" stroke-width="2.5" fill="none"></path></g><g transform="translate(1050 558) rotate(0 0 -17)"><path d="M-8.12 -17.83 C-3.12 -21.78, -1.4 -25.66, -1.56 -33.93" stroke="#f0883e" stroke-width="2.5" fill="none"></path></g></g><g transform="translate(946.1340398545218 584.7286722075601) rotate(0 30.432098388671818 7.5)"><text x="0" y="NaN" font-family="Virgil, Segoe UI Emoji" font-size="12px" fill="#f0883e" text-anchor="start" style="white-space: pre;" direction="ltr">watches ↑</text></g><g stroke-opacity="0.5" fill-opacity="0.5" stroke-linecap="round" transform="translate(850 643) rotate(0 330 50)"><path d="M1.84 0.32 L660.29 -0.37 L661.65 101.38 L0.7 100.83" stroke="none" stroke-width="0" fill="#3a5d1d"></path><path d="M0.17 -0.25 C207.7 2.43, 415.01 1.64, 659.35 0.44 M661.38 -1.39 C661.94 31.07, 659.16 60.26, 658.73 101.57 M659.89 100.67 C461.19 99.49, 262.97 98.85, -0.05 100.25 M-1.12 101.56 C0.67 72.86, 1.52 43.43, -1.6 0.88" stroke="#6dbf3a" stroke-width="2.5" fill="none" stroke-dasharray="8 10"></path></g><g transform="translate(870 653) rotate(0 100.189453125 10.625)"><text x="0" y="NaN" font-family="Virgil, Segoe UI Emoji" font-size="17px" fill="#3fb950" text-anchor="start" style="white-space: pre;" direction="ltr">lock-0001 holder dies →</text></g><g transform="translate(870 681) rotate(0 174.4723358154297 9.375)"><text x="0" y="NaN" font-family="Virgil, Segoe UI Emoji" font-size="15px" fill="#3fb950" text-anchor="start" style="white-space: pre;" direction="ltr">ZooKeeper fires watch on EXACTLY ONE client</text></g><g transform="translate(870 705) rotate(0 234.62576293945312 8.75)"><text x="0" y="NaN" font-family="Virgil, Segoe UI Emoji" font-size="14px" fill="#c9d1d9" text-anchor="start" style="white-space: pre;" direction="ltr">→ lock-0002's watch fires; it owns the lock; the rest stay asleep.</text></g><g transform="translate(1353.9579852104248 523) rotate(0 5.961997985839844 27.5)"><text x="5.961997985839844" y="NaN" font-family="Virgil, Segoe UI Emoji" font-size="44px" fill="#3fb950" text-anchor="middle" style="white-space: pre;" direction="ltr">1</text></g><g transform="translate(1319.8620226860107 577) rotate(0 50.057960510253906 11.25)"><text x="50.057960510253906" y="NaN" font-family="Virgil, Segoe UI Emoji" font-size="18px" fill="#3fb950" text-anchor="middle" style="white-space: pre;" direction="ltr">watch fires</text></g><g transform="translate(1274.16558103562 601) rotate(0 85.75440216064453 8.125)"><text x="85.75440216064453" y="NaN" font-family="Virgil, Segoe UI Emoji" font-size="13px" fill="#8b949e" text-anchor="middle" style="white-space: pre;" direction="ltr">regardless of queue length</text></g></svg>