<svg version="1.1" xmlns="http://www.w3.org/2000/svg" viewBox="0 0 814.8 940" width="814.8" height="940">
  <!-- svg-source:excalidraw -->
  
  <defs>
    <style>
      @font-face {
        font-family: "Virgil";
        src: url("https://excalidraw.com/Virgil.woff2");
      }
      @font-face {
        font-family: "Cascadia";
        src: url("https://excalidraw.com/Cascadia.woff2");
      }
    </style>
  </defs>
  <rect x="0" y="0" width="814.8" height="940" fill="#1e1e2e"></rect><g stroke-linecap="round" transform="translate(44.80000000000001 10) rotate(0 100 25)"><path d="M-0.75 0.84 L200.24 0.39 L198.21 49.38 L0.45 50" stroke="none" stroke-width="0" fill="#5b21b6"></path><path d="M1.22 -1.69 C61.19 -2.68, 118.31 -0.05, 201.43 -1.41 M-0.14 -0.74 C78.8 -2.09, 157.57 -2.22, 200.66 0.17 M200.63 1.77 C200.14 15.9, 200.63 32.38, 201.2 50.47 M200.02 0.51 C200.49 10.57, 199.43 22.27, 200.33 49.63 M198.51 50.79 C122.91 50.19, 45.49 51.23, 1.58 48.51 M199.85 50.41 C149.27 48.74, 98.61 48.71, -0.23 49.12 M1.02 48.92 C1.83 40.29, -0.04 26.83, 1.15 -1.29 M-0.57 49.47 C0.04 37.27, 0.01 26.93, 0.04 0.15" stroke="#7c3aed" stroke-width="2" fill="none"></path></g><g transform="translate(88.27005462646486 22.5) rotate(0 56.529945373535156 12.5)"><text x="56.529945373535156" y="NaN" font-family="Virgil, Segoe UI Emoji" font-size="20px" fill="#ffffff" text-anchor="middle" style="white-space: pre;" direction="ltr">Coordinator</text></g><g stroke-linecap="round"><g transform="translate(144.8 60) rotate(0 0.8631633760117552 406.3241017640263)"><path d="M0.27 1.07 C0.79 136.58, 2.56 677.05, 2.71 812.49" stroke="#585b70" stroke-width="1.5" fill="none" stroke-dasharray="8 9"></path></g></g><g stroke-linecap="round" transform="translate(44.80000000000001 880) rotate(0 100 25)"><path d="M1.31 1.6 L200.07 -0.46 L201.56 48.17 L1.29 49.45" stroke="none" stroke-width="0" fill="#5b21b6"></path><path d="M-0.86 0.76 C49.55 -3.32, 101.13 -1.52, 198.39 -0.43 M-0.05 -0.45 C71.38 -1.53, 141.67 -2.19, 200.63 -0.01 M199.05 1.71 C199.09 12.24, 201.84 24.4, 199.05 48.09 M199.85 -0.19 C200.37 18.19, 198.92 35.46, 199.53 49.8 M199.46 49.61 C136.18 48.41, 70.51 51.38, 0.79 49.76 M200.08 50.35 C148.68 49.37, 96.68 49.42, 0.83 50.31 M-0.38 50.37 C-0.81 34.18, -0.1 17.81, -0.87 -1.95 M0.26 49.4 C-0.71 33.8, 0.28 18.16, -0.97 -0.34" stroke="#7c3aed" stroke-width="2" fill="none"></path></g><g transform="translate(88.27005462646486 892.5) rotate(0 56.529945373535156 12.5)"><text x="56.529945373535156" y="NaN" font-family="Virgil, Segoe UI Emoji" font-size="20px" fill="#ffffff" text-anchor="middle" style="white-space: pre;" direction="ltr">Coordinator</text></g><g stroke-linecap="round" transform="translate(324.8 10) rotate(0 100 25)"><path d="M1.32 -1.33 L199.4 1.6 L198.83 51.36 L1.68 50.1" stroke="none" stroke-width="0" fill="#5b21b6"></path><path d="M0.57 -1.03 C71.87 0.15, 144.81 1.37, 200.88 -0.3 M0.67 0.5 C66.4 1.08, 132.02 1.54, 200.23 0.69 M200.63 1.72 C200.51 13.71, 201.36 27.9, 200.71 48.31 M200.4 -0.64 C199.65 16.39, 199.78 33.39, 200.51 49.14 M200.29 50.09 C155.97 50.84, 109.22 49.59, 0.83 50.55 M199.48 50.53 C124.31 50.49, 46.13 50.19, 0.81 49.98 M1.84 49.72 C0.6 34.79, 0.27 18.03, 1.07 -1.69 M-0.63 50.19 C0.29 36.28, -1.03 23.49, -0.92 0.99" stroke="#7c3aed" stroke-width="2" fill="none"></path></g><g transform="translate(362.54005126953126 22.5) rotate(0 62.25994873046875 12.5)"><text x="62.25994873046875" y="NaN" font-family="Virgil, Segoe UI Emoji" font-size="20px" fill="#ffffff" text-anchor="middle" style="white-space: pre;" direction="ltr">Participant 1</text></g><g stroke-linecap="round"><g transform="translate(424.8 60) rotate(0 0 405.62826948394)"><path d="M-1.07 0.5 C-1.03 135.69, -0.58 675.21, -0.26 810.17" stroke="#585b70" stroke-width="1.5" fill="none" stroke-dasharray="8 9"></path></g></g><g stroke-linecap="round" transform="translate(324.8 880) rotate(0 100 25)"><path d="M1.12 -1.66 L200.39 -1.48 L200.23 48.89 L-0.11 49.61" stroke="none" stroke-width="0" fill="#5b21b6"></path><path d="M1.29 -1.78 C74.52 -0.02, 149.82 0.46, 200.99 1.27 M0.7 0.23 C62.88 1.52, 128.24 0.6, 200.84 -0.51 M201.71 -1.42 C201.05 19.13, 198.34 35.64, 200.93 49.99 M200.26 -0.88 C199.39 16.19, 200.98 32.64, 200.47 49.39 M200.95 48.93 C157.61 46.69, 112.91 48.1, -0.69 51.26 M199.75 50.18 C152.99 51.49, 105.84 50.04, -0.67 50.09 M-1.56 49.7 C0.28 35.88, 0.38 21.22, 1.79 -0.26 M-0.49 50.83 C0.32 38.6, -0.02 28.98, 0.97 -0.63" stroke="#7c3aed" stroke-width="2" fill="none"></path></g><g transform="translate(362.54005126953126 892.5) rotate(0 62.25994873046875 12.5)"><text x="62.25994873046875" y="NaN" font-family="Virgil, Segoe UI Emoji" font-size="20px" fill="#ffffff" text-anchor="middle" style="white-space: pre;" direction="ltr">Participant 1</text></g><g stroke-linecap="round" transform="translate(604.8 10) rotate(0 100 25)"><path d="M-1.33 -1.38 L200.46 0.9 L200.34 50.82 L0.45 48.93" stroke="none" stroke-width="0" fill="#5b21b6"></path><path d="M0.39 -0.47 C43.89 -0.91, 89.06 -0.92, 200.8 1.79 M0.59 -0.21 C64.56 -0.22, 127.93 -0.9, 199.26 -0.82 M199.34 1.78 C200.66 19.42, 199.35 39.29, 198.64 50.45 M200.24 -0.77 C201.01 14.21, 200.62 29.66, 199.78 49.42 M199.62 50.05 C150.57 50.87, 102.56 49.86, -1.21 48.46 M200.23 50.36 C134.59 51.23, 70.07 51.5, -0.48 49.69 M1.1 48.54 C-1.34 37.89, 0.69 28.86, -0.3 -0.9 M-0.38 50.34 C0.18 31.57, 0.18 12.1, 0.86 -0.17" stroke="#7c3aed" stroke-width="2" fill="none"></path></g><g transform="translate(638.1300552368164 22.5) rotate(0 66.6699447631836 12.5)"><text x="66.6699447631836" y="NaN" font-family="Virgil, Segoe UI Emoji" font-size="20px" fill="#ffffff" text-anchor="middle" style="white-space: pre;" direction="ltr">Participant 2</text></g><g stroke-linecap="round"><g transform="translate(704.8 60) rotate(0 0.4837691090123144 408.9019946873934)"><path d="M0.92 -0.86 C1.04 135.31, 1.17 681.72, 1.15 818.11" stroke="#585b70" stroke-width="1.5" fill="none" stroke-dasharray="8 9"></path></g></g><g stroke-linecap="round" transform="translate(604.8 880) rotate(0 100 25)"><path d="M-0.69 0.67 L198.13 1.92 L200.91 51.9 L0.53 50.2" stroke="none" stroke-width="0" fill="#5b21b6"></path><path d="M-1.22 -1.78 C51.04 1.48, 104.35 0.06, 200.56 -0.48 M-0.54 0.63 C69.53 -0.15, 139.64 -0.58, 199.61 -0.29 M199.27 -0.7 C199.79 16.42, 199.31 33.21, 198.88 48.61 M200.95 0.41 C199.6 17.56, 199.76 35.02, 200.65 49.36 M198.91 48.81 C139.19 48.15, 78.74 49.77, 0.26 50.61 M200.57 49.91 C157.78 51.62, 116.13 50.98, 0.02 50.64 M-0.54 51.64 C0.84 36.25, -0.61 20.39, -0.72 -0.18 M-0.25 49.85 C-0.9 35.38, -0.13 20.44, -0.54 0.33" stroke="#7c3aed" stroke-width="2" fill="none"></path></g><g transform="translate(638.1300552368164 892.5) rotate(0 66.6699447631836 12.5)"><text x="66.6699447631836" y="NaN" font-family="Virgil, Segoe UI Emoji" font-size="20px" fill="#ffffff" text-anchor="middle" style="white-space: pre;" direction="ltr">Participant 2</text></g><g stroke-opacity="0.85" fill-opacity="0.85" stroke-linecap="round" transform="translate(54 78) rotate(0 90.80000000000001 22)"><path d="M1.72 1.84 L181.24 -0.35 L183.26 44.52 L-1.5 42.4" stroke="none" stroke-width="0" fill="#2d6a4f"></path><path d="M1.63 -0.44 C70.97 1.07, 138.42 1.48, 183.37 -0.39 M-0.85 -0.85 C46.84 0.08, 94.8 -1.08, 180.8 0.09 M182.81 1.17 C182.56 7.43, 180.4 18.7, 180.29 45.7 M180.7 -0.4 C182 17.33, 180.75 35.43, 181.87 44 M182.3 43.25 C114.52 45.95, 45.68 43.91, 0.95 44.1 M180.98 43.35 C130.02 44.15, 78.01 44.16, 0.24 44.75 M0.45 43.46 C1.7 34.7, -1.64 25.07, 0.24 -1.83 M-0.79 44.89 C0.23 33.72, 0.23 23.26, 0.19 0.48" stroke="#40916c" stroke-width="2" fill="none"></path></g><g transform="translate(73.84804992675782 90) rotate(0 70.95195007324219 10)"><text x="70.95195007324219" y="NaN" font-family="Virgil, Segoe UI Emoji" font-size="16px" fill="#ffffff" text-anchor="middle" style="white-space: pre;" direction="ltr">Phase 1 - Prepare</text></g><g stroke-linecap="round"><g transform="translate(144.8 140) rotate(0 140 0)"><path d="M0.54 -0.79 C47.09 -0.84, 233.91 -1.45, 280.36 -1.17 M-0.64 1.4 C45.7 1.53, 232.54 0.15, 279.59 -0.25" stroke="#cdd6f4" stroke-width="2" fill="none"></path></g><g transform="translate(144.8 140) rotate(0 140 0)"><path d="M250.16 10.82 C260.44 4.76, 274.68 1.82, 280.36 -0.5 M250.9 9.69 C256.77 7.62, 262.85 6.69, 278.95 -1.13" stroke="#cdd6f4" stroke-width="2" fill="none"></path></g><g transform="translate(144.8 140) rotate(0 140 0)"><path d="M250 -9.7 C260.19 -7.86, 274.5 -2.9, 280.36 -0.5 M250.74 -10.83 C256.46 -8.51, 262.57 -5.04, 278.95 -1.13" stroke="#cdd6f4" stroke-width="2" fill="none"></path></g></g><g transform="translate(242.66202239990233 128.75) rotate(0 42.13797760009767 11.25)"><text x="42.137977600097656" y="NaN" font-family="Virgil, Segoe UI Emoji" font-size="18px" fill="#cdd6f4" text-anchor="middle" style="white-space: pre;" direction="ltr">PREPARE</text></g><g stroke-linecap="round"><g transform="translate(144.8 220) rotate(0 280 0)"><path d="M-0.84 0.65 C92.42 0.51, 466.79 0.11, 560.24 0.02 M0.93 -0.06 C93.99 -0.07, 466.4 1.31, 559.42 1.57" stroke="#cdd6f4" stroke-width="2" fill="none"></path></g><g transform="translate(144.8 220) rotate(0 280 0)"><path d="M532.27 12.14 C541.26 8.08, 551.51 5.24, 560.08 0.12 M531.8 11.12 C538.3 8.45, 544.42 8.05, 559.78 2.3" stroke="#cdd6f4" stroke-width="2" fill="none"></path></g><g transform="translate(144.8 220) rotate(0 280 0)"><path d="M532.34 -8.38 C541.45 -5.1, 551.67 -0.6, 560.08 0.12 M531.87 -9.4 C538.23 -7.53, 544.34 -3.4, 559.78 2.3" stroke="#cdd6f4" stroke-width="2" fill="none"></path></g></g><g transform="translate(382.66202239990236 208.75) rotate(0 42.137977600097656 11.25)"><text x="42.137977600097656" y="NaN" font-family="Virgil, Segoe UI Emoji" font-size="18px" fill="#cdd6f4" text-anchor="middle" style="white-space: pre;" direction="ltr">PREPARE</text></g><g stroke-linecap="round"><g transform="translate(424.8 300) rotate(0 -140 0)"><path d="M0.1 -0.32 C-46.28 -0.24, -232.58 0.1, -279.41 0.29" stroke="#cdd6f4" stroke-width="2.5" fill="none" stroke-dasharray="8 10"></path></g><g transform="translate(424.8 300) rotate(0 -140 0)"><path d="M-251.79 -9.08 C-256.63 -9.38, -261.59 -4.28, -279.23 1.12" stroke="#cdd6f4" stroke-width="2.5" fill="none"></path></g><g transform="translate(424.8 300) rotate(0 -140 0)"><path d="M-251.73 11.44 C-256.55 6.88, -261.53 7.73, -279.23 1.12" stroke="#cdd6f4" stroke-width="2.5" fill="none"></path></g></g><g transform="translate(268.61800842285163 288.75) rotate(0 16.181991577148423 11.25)"><text x="16.181991577148438" y="NaN" font-family="Virgil, Segoe UI Emoji" font-size="18px" fill="#cdd6f4" text-anchor="middle" style="white-space: pre;" direction="ltr">YES</text></g><g stroke-linecap="round"><g transform="translate(704.8 380) rotate(0 -280 0)"><path d="M0.84 0.21 C-92.67 0.08, -467.14 -0.71, -560.58 -0.63" stroke="#cdd6f4" stroke-width="2.5" fill="none" stroke-dasharray="8 10"></path></g><g transform="translate(704.8 380) rotate(0 -280 0)"><path d="M-532.04 -11.84 C-543.03 -6.91, -550.41 -2.55, -558.95 -0.78" stroke="#cdd6f4" stroke-width="2.5" fill="none"></path></g><g transform="translate(704.8 380) rotate(0 -280 0)"><path d="M-532.06 8.68 C-543.06 6.62, -550.44 3.99, -558.95 -0.78" stroke="#cdd6f4" stroke-width="2.5" fill="none"></path></g></g><g transform="translate(408.6180084228516 368.75) rotate(0 16.181991577148438 11.25)"><text x="16.181991577148438" y="NaN" font-family="Virgil, Segoe UI Emoji" font-size="18px" fill="#cdd6f4" text-anchor="middle" style="white-space: pre;" direction="ltr">YES</text></g><g stroke-opacity="0.85" fill-opacity="0.85" stroke-linecap="round" transform="translate(10 398) rotate(0 134.8 22)"><path d="M1.5 -0.22 L268.43 -0.3 L268.41 43.69 L-0.85 42.71" stroke="none" stroke-width="0" fill="#2d6a4f"></path><path d="M0.55 0.87 C67.62 0.13, 136.97 -1.46, 270.04 0.2 M0.63 -0.56 C104.24 0.61, 208.2 0.1, 270.3 0.55 M269.96 -1.65 C269.71 17.08, 269.66 33.79, 267.97 44.84 M269.28 -0.12 C269.59 13.75, 269.11 27.33, 268.98 43.83 M269.83 43.54 C170.48 42.37, 68.89 41.75, -0.67 43.51 M269.74 43.86 C179.49 41.17, 87.84 42.68, -0.41 44.77 M0.15 44.86 C-1.04 33.5, 1.23 20.79, -0.2 -0.93 M-0.3 43.26 C0.58 29.04, 0 12.28, 0.7 0.01" stroke="#40916c" stroke-width="2" fill="none"></path></g><g transform="translate(26.824070739746105 410) rotate(0 117.9759292602539 10)"><text x="117.9759292602539" y="NaN" font-family="Virgil, Segoe UI Emoji" font-size="16px" fill="#ffffff" text-anchor="middle" style="white-space: pre;" direction="ltr">Write COMMIT to durable log</text></g><g stroke-opacity="0.85" fill-opacity="0.85" stroke-linecap="round" transform="translate(58.400000000000006 458) rotate(0 86.4 22)"><path d="M-1.55 1 L172.14 -0.29 L171.1 42.42 L-0.46 44.43" stroke="none" stroke-width="0" fill="#2d6a4f"></path><path d="M-1.92 -1.42 C57.99 1.93, 113.58 0.82, 172.7 0.85 M0.41 0.8 C44.45 -0.27, 89.39 0.36, 172.78 -0.73 M172.17 0.66 C173.01 12.88, 170.49 23.83, 173.1 44.22 M173.22 0.78 C172.76 13.89, 171.75 26.69, 172.05 44.8 M171.74 43.53 C111.27 44.39, 53.08 41.71, 0.32 44.09 M172.94 43.36 C120.29 43.23, 69.51 44.27, -0.15 43.13 M0.4 43.28 C2.01 32.25, 0.96 18.31, 0.55 -1.53 M-0.2 43.34 C-0.44 32.47, 1.1 22.27, 0.75 0.61" stroke="#40916c" stroke-width="2" fill="none"></path></g><g transform="translate(74.53604583740236 470) rotate(0 70.26395416259766 10)"><text x="70.26395416259766" y="NaN" font-family="Virgil, Segoe UI Emoji" font-size="16px" fill="#ffffff" text-anchor="middle" style="white-space: pre;" direction="ltr">Phase 2 - Commit</text></g><g stroke-linecap="round"><g transform="translate(144.8 540) rotate(0 140 0)"><path d="M-0.24 0.29 C46.55 0.06, 234.36 -1.03, 281.15 -1.11 M-1.82 -0.61 C44.88 -0.75, 233.84 -0.43, 280.8 -0.15" stroke="#cdd6f4" stroke-width="2" fill="none"></path></g><g transform="translate(144.8 540) rotate(0 140 0)"><path d="M253.06 11.93 C260.1 7.45, 271.06 1.58, 278.92 -0.36 M252.76 11 C260.16 6.25, 268.51 4.35, 281.38 -0.63" stroke="#cdd6f4" stroke-width="2" fill="none"></path></g><g transform="translate(144.8 540) rotate(0 140 0)"><path d="M253.13 -8.59 C260.19 -6.24, 271.13 -5.28, 278.92 -0.36 M252.83 -9.52 C260.03 -8.5, 268.36 -4.64, 281.38 -0.63" stroke="#cdd6f4" stroke-width="2" fill="none"></path></g></g><g transform="translate(246.54101257324223 528.75) rotate(0 38.2589874267578 11.25)"><text x="38.25898742675781" y="NaN" font-family="Virgil, Segoe UI Emoji" font-size="18px" fill="#cdd6f4" text-anchor="middle" style="white-space: pre;" direction="ltr">COMMIT</text></g><g stroke-linecap="round"><g transform="translate(144.8 620) rotate(0 280 0)"><path d="M0.4 -1.17 C93.64 -1.27, 465.76 -0.67, 558.88 -0.48 M-0.85 0.83 C92.8 0.88, 467.27 0.73, 561 0.81" stroke="#cdd6f4" stroke-width="2" fill="none"></path></g><g transform="translate(144.8 620) rotate(0 280 0)"><path d="M530.86 9.2 C539.1 6.95, 546.98 6.86, 562.85 1.75 M531.87 10.4 C539.02 8.44, 545.26 7.43, 561.58 0.26" stroke="#cdd6f4" stroke-width="2" fill="none"></path></g><g transform="translate(144.8 620) rotate(0 280 0)"><path d="M530.87 -11.32 C539.13 -8.41, 547.01 -3.33, 562.85 1.75 M531.87 -10.12 C539.01 -7.78, 545.25 -4.51, 561.58 0.26" stroke="#cdd6f4" stroke-width="2" fill="none"></path></g></g><g transform="translate(386.5410125732422 608.75) rotate(0 38.25898742675781 11.25)"><text x="38.25898742675781" y="NaN" font-family="Virgil, Segoe UI Emoji" font-size="18px" fill="#cdd6f4" text-anchor="middle" style="white-space: pre;" direction="ltr">COMMIT</text></g><g stroke-linecap="round"><g transform="translate(424.8 700) rotate(0 -140 0)"><path d="M0.66 0.51 C-46.06 0.57, -233.68 0.09, -280.51 -0.08" stroke="#cdd6f4" stroke-width="2.5" fill="none" stroke-dasharray="8 10"></path></g><g transform="translate(424.8 700) rotate(0 -140 0)"><path d="M-251.43 -11.1 C-260.58 -7.63, -269.48 -5.74, -280.33 -1.02" stroke="#cdd6f4" stroke-width="2.5" fill="none"></path></g><g transform="translate(424.8 700) rotate(0 -140 0)"><path d="M-251.49 9.42 C-260.55 6.98, -269.43 2.98, -280.33 -1.02" stroke="#cdd6f4" stroke-width="2.5" fill="none"></path></g></g><g transform="translate(267.58300476074226 688.75) rotate(0 17.2169952392578 11.25)"><text x="17.216995239257812" y="NaN" font-family="Virgil, Segoe UI Emoji" font-size="18px" fill="#cdd6f4" text-anchor="middle" style="white-space: pre;" direction="ltr">ACK</text></g><g stroke-linecap="round"><g transform="translate(704.8 780) rotate(0 -280 0)"><path d="M1.1 0.28 C-92.34 0.24, -467.73 -0.87, -561.06 -0.86" stroke="#cdd6f4" stroke-width="2.5" fill="none" stroke-dasharray="8 10"></path></g><g transform="translate(704.8 780) rotate(0 -280 0)"><path d="M-532.38 -12.84 C-541.75 -6.25, -547.13 -4.15, -561.93 -0.38" stroke="#cdd6f4" stroke-width="2.5" fill="none"></path></g><g transform="translate(704.8 780) rotate(0 -280 0)"><path d="M-532.42 7.69 C-541.67 8.88, -547.04 5.58, -561.93 -0.38" stroke="#cdd6f4" stroke-width="2.5" fill="none"></path></g></g><g transform="translate(407.5830047607422 768.75) rotate(0 17.216995239257812 11.25)"><text x="17.216995239257812" y="NaN" font-family="Virgil, Segoe UI Emoji" font-size="18px" fill="#cdd6f4" text-anchor="middle" style="white-space: pre;" direction="ltr">ACK</text></g><g stroke-opacity="0.85" fill-opacity="0.85" stroke-linecap="round" transform="translate(40.80000000000001 798) rotate(0 104 22)"><path d="M0.55 0.8 L206.71 -1.62 L208.37 43.99 L-1.47 44.85" stroke="none" stroke-width="0" fill="#2d6a4f"></path><path d="M-1.63 -1.61 C53.85 2.02, 109 2.12, 207.5 -1.68 M0.44 0.81 C46.08 -1.1, 90.92 0.05, 208.5 0.7 M206.56 0.79 C208.4 8.95, 208.01 19.84, 206.79 44.81 M208.27 0.55 C209.22 11.82, 208.9 22.08, 208.4 43.4 M206.3 42.81 C135.38 46.79, 63.83 46.16, -0.49 42.51 M207.78 43.69 C132.05 42.47, 57.59 41.93, 0.19 44.71 M-1.32 43.31 C1.54 30.85, -1.1 15.33, -1.2 1.11 M0.27 44.16 C-1.02 27.89, 0.53 11.54, 0.11 0.74" stroke="#40916c" stroke-width="2" fill="none"></path></g><g transform="translate(60.888043212890636 810) rotate(0 83.91195678710938 10)"><text x="83.91195678710938" y="NaN" font-family="Virgil, Segoe UI Emoji" font-size="16px" fill="#ffffff" text-anchor="middle" style="white-space: pre;" direction="ltr">Transaction complete</text></g></svg>