<svg version="1.1" xmlns="http://www.w3.org/2000/svg" viewBox="0 0 1060 821.3119863201108" width="1060" height="821.3119863201108">
  <!-- svg-source:excalidraw -->
  
  <defs>
    <style>
      @font-face {
        font-family: "Virgil";
        src: url("https://excalidraw.com/Virgil.woff2");
      }
      @font-face {
        font-family: "Cascadia";
        src: url("https://excalidraw.com/Cascadia.woff2");
      }
    </style>
  </defs>
  <rect x="0" y="0" width="1060" height="821.3119863201108" fill="#0d1117"></rect><g stroke-linecap="round" transform="translate(10 10) rotate(0 100 25)"><path d="M1.79 1.25 L200.46 -0.34 L201.85 51.67 L0.4 48.15" stroke="none" stroke-width="0" fill="#3a1d6e"></path><path d="M0.21 -0.79 C68.65 -0.89, 136 0.12, 201.04 -1.26 M-0.74 -0.69 C71.44 1.13, 142.4 1.97, 199.57 0.14 M199.48 1.12 C201.83 12.58, 201.88 25.93, 199.64 50.19 M199.94 -0.54 C198.87 15.47, 200.17 29.61, 200.66 50.87 M198.95 51.56 C150.65 52.27, 101.02 49.9, -1.23 51.2 M200.75 50.76 C150.26 48.8, 99.33 49.16, -0.7 49.11 M-2 48.74 C1.35 38.47, 0.9 30.49, -1.86 -0.09 M-0.61 50.73 C0.99 35.58, 0.53 19.85, 0.52 0.48" stroke="#a371f7" stroke-width="2" fill="none"></path></g><g transform="translate(75.24002838134766 22.5) rotate(0 34.759971618652344 12.5)"><text x="34.759971618652344" y="NaN" font-family="Virgil, Segoe UI Emoji" font-size="20px" fill="#ffffff" text-anchor="middle" style="white-space: pre;" direction="ltr">Client 1</text></g><g stroke-linecap="round"><g transform="translate(110 60) rotate(0 0 370)"><path d="M-0.79 0.34 C-0.98 123.82, -0.61 616.89, -0.51 740.18" stroke="#30363d" stroke-width="1.5" fill="none" stroke-dasharray="8 9"></path></g></g><g stroke-linecap="round" transform="translate(10.508816616400281 756.406812210427) rotate(0 100 25)"><path d="M1.13 1.44 L199.6 1.03 L198.56 50.7 L1.48 50.59" stroke="none" stroke-width="0" fill="#3a1d6e"></path><path d="M0.45 0.17 C46.76 -0.12, 96.53 0.96, 200.69 -1.1 M-0.14 -0.87 C39.65 -0.54, 80.52 0.3, 199.94 0.07 M199.13 -0.67 C200.6 13.57, 201.77 26.54, 199.52 49.34 M199.22 -0.8 C198.97 13.8, 200.48 29.92, 199.44 49.53 M199.03 50.61 C157.08 49.23, 116.21 47.96, -0.24 51.31 M200.45 50.22 C156.47 50.96, 112.63 49.54, -0.8 49.2 M-1.45 49.8 C-0.17 31.49, -0.72 15.43, -0.99 1.41 M-0.19 50.53 C0.05 31.24, 0.07 11.89, 0.55 0.9" stroke="#a371f7" stroke-width="2" fill="none"></path></g><g transform="translate(75.74884499774794 768.906812210427) rotate(0 34.759971618652344 12.5)"><text x="34.759971618652344" y="NaN" font-family="Virgil, Segoe UI Emoji" font-size="20px" fill="#ffffff" text-anchor="middle" style="white-space: pre;" direction="ltr">Client 1</text></g><g stroke-linecap="round" transform="translate(290 10) rotate(0 100 25)"><path d="M-1.66 -0.29 L201.98 -1.42 L201.84 48.56 L1.41 50.25" stroke="none" stroke-width="0" fill="#3a1d6e"></path><path d="M0.76 1.12 C76.28 0.17, 153.72 -2.41, 199.8 1.72 M-0.85 -0.5 C72.57 -0.89, 145.66 -1.74, 199.84 -0.21 M200.57 -0.14 C199.64 15.24, 199.04 26.1, 200.95 49.45 M200.91 -0.27 C201.17 10.17, 199.86 21.34, 200.26 50.49 M200.85 48.36 C128.51 50.71, 58.12 49.17, -0.64 50.85 M199.38 49.12 C144.74 51.1, 88.01 51.98, 0.19 49.64 M-1.2 51.84 C1.67 30.63, 0.96 15.93, -0.35 1.75 M-0.05 50.82 C0.02 30.52, 0.37 11.22, 0.58 -0.18" stroke="#a371f7" stroke-width="2" fill="none"></path></g><g transform="translate(329.82005310058594 22.5) rotate(0 60.17994689941406 12.5)"><text x="60.17994689941406" y="NaN" font-family="Virgil, Segoe UI Emoji" font-size="20px" fill="#ffffff" text-anchor="middle" style="white-space: pre;" direction="ltr">Lock Service</text></g><g stroke-linecap="round"><g transform="translate(390 60) rotate(0 0 370)"><path d="M-0.93 -0.1 C-0.99 123.03, 0.56 615.91, 0.61 739.37" stroke="#30363d" stroke-width="1.5" fill="none" stroke-dasharray="8 9"></path></g></g><g stroke-linecap="round" transform="translate(290.6784060268685 757.9774375608428) rotate(0 100 25)"><path d="M-1.97 -1.87 L198.63 -1.77 L198.3 51.56 L-0.18 49.55" stroke="none" stroke-width="0" fill="#3a1d6e"></path><path d="M-0.75 -1.37 C60.44 -2.63, 115.76 -2.97, 200.45 -0.72 M-0.65 0.63 C68.02 -0.55, 136.7 -0.16, 199.87 0.33 M198.29 -0.53 C201.28 14.57, 202.32 26.67, 198.12 49.93 M199.75 -0.1 C200.06 14.01, 200.16 27.92, 200.29 50.63 M201.14 51.51 C153.67 50.96, 104.19 48.8, -0.2 50.86 M199.95 49.34 C130.24 48.96, 61.62 48.7, -0.73 49.19 M1.29 50.32 C-1.63 29.91, -1.23 11.03, 1.31 0.21 M-0.28 50.88 C1.24 31.3, 0.37 12.63, -0.35 0.94" stroke="#a371f7" stroke-width="2" fill="none"></path></g><g transform="translate(330.49845912745445 770.4774375608428) rotate(0 60.17994689941406 12.5)"><text x="60.17994689941406" y="NaN" font-family="Virgil, Segoe UI Emoji" font-size="20px" fill="#ffffff" text-anchor="middle" style="white-space: pre;" direction="ltr">Lock Service</text></g><g stroke-linecap="round" transform="translate(570 10) rotate(0 100 25)"><path d="M-0.22 0.67 L198.61 -0.83 L201.35 48.21 L1.82 50.52" stroke="none" stroke-width="0" fill="#3a1d6e"></path><path d="M1.7 -0.11 C76.33 -0.58, 154.31 -0.56, 201.34 1.05 M-0.44 -0.39 C67.93 -0.21, 135.27 -0.04, 200.71 0.66 M198.07 -1.18 C201.27 15.28, 198.63 24.82, 201.99 49.24 M199.36 0.78 C200.51 17.68, 200.09 34.69, 200.48 50.02 M200.17 49.49 C142.24 50.93, 84.87 51.85, -0.14 50.76 M200 49.8 C149.7 50.69, 99.8 50.66, -0.07 50.24 M0.89 50.99 C-1.32 38.53, -0.67 23.48, -1.59 0.98 M-0.56 50.75 C0.88 31.41, -0.36 13.17, 0.66 -0.6" stroke="#a371f7" stroke-width="2" fill="none"></path></g><g transform="translate(630.8300323486328 22.5) rotate(0 39.16996765136719 12.5)"><text x="39.16996765136719" y="NaN" font-family="Virgil, Segoe UI Emoji" font-size="20px" fill="#ffffff" text-anchor="middle" style="white-space: pre;" direction="ltr">Client 2</text></g><g stroke-linecap="round"><g transform="translate(670 60) rotate(0 0 370)"><path d="M-0.12 -0.08 C0.08 123, 0.98 615.93, 1.16 739.41" stroke="#30363d" stroke-width="1.5" fill="none" stroke-dasharray="8 9"></path></g></g><g stroke-linecap="round" transform="translate(570 760.7013676724338) rotate(0 100 25)"><path d="M0.41 -1.44 L201.71 -1.63 L199.34 50.65 L-1.18 51.66" stroke="none" stroke-width="0" fill="#3a1d6e"></path><path d="M0.22 0.25 C51.31 0.95, 102.51 -0.54, 200.32 1.12 M-0.68 0.22 C64.71 0.7, 131.72 1.05, 200.29 0.48 M199.32 0.72 C199.64 13.44, 202.03 28.85, 199.89 48.22 M200.01 0.62 C199.72 14.97, 199.35 29.03, 199.63 49.44 M199.58 51.45 C151.32 52.28, 99.06 52.44, 1.35 48.4 M200.59 49.22 C121.4 49.06, 43.01 47.61, -0.54 50.84 M-1.58 51.58 C1.84 38.76, -0.36 25.95, -0.08 1.14 M0.11 50.95 C-1 34.42, -0.03 19.37, 0.85 -0.88" stroke="#a371f7" stroke-width="2" fill="none"></path></g><g transform="translate(630.8300323486328 773.2013676724338) rotate(0 39.16996765136719 12.5)"><text x="39.16996765136719" y="NaN" font-family="Virgil, Segoe UI Emoji" font-size="20px" fill="#ffffff" text-anchor="middle" style="white-space: pre;" direction="ltr">Client 2</text></g><g stroke-linecap="round" transform="translate(850 10) rotate(0 100 25)"><path d="M-1.58 -1.05 L201.16 -0.06 L200.19 51.24 L0.08 49.96" stroke="none" stroke-width="0" fill="#3a1d6e"></path><path d="M-1.78 -0.07 C45 1.92, 92.66 1.52, 200.73 0.39 M-0.35 -0.7 C71.8 -0.67, 142.65 -0.59, 200.54 -0.82 M200.17 1.41 C201.2 11.01, 197.8 20.01, 201.39 51.72 M200.93 1 C199.79 10.38, 199.7 22.69, 200.41 50.14 M199.51 51.16 C141.43 48.41, 85.7 50.53, 0.05 48.98 M200.46 50.4 C124.46 50.46, 47.95 50.97, 0.6 49.61 M-1.48 49.63 C-1.34 32.79, 0.8 13.65, -1.62 -1.61 M-0.4 51 C0.06 37.92, 0.26 26.58, -0.73 -0.28" stroke="#a371f7" stroke-width="2" fill="none"></path></g><g transform="translate(911.2800369262695 22.5) rotate(0 38.71996307373047 12.5)"><text x="38.71996307373047" y="NaN" font-family="Virgil, Segoe UI Emoji" font-size="20px" fill="#ffffff" text-anchor="middle" style="white-space: pre;" direction="ltr">Storage</text></g><g stroke-linecap="round"><g transform="translate(950 60) rotate(0 0 370)"><path d="M0.35 -0.04 C0.39 123.28, 0.24 617.38, 0.01 740.74" stroke="#30363d" stroke-width="1.5" fill="none" stroke-dasharray="8 9"></path></g></g><g stroke-linecap="round" transform="translate(849.2095827077296 761.3119863201108) rotate(0 100 25)"><path d="M-1.92 -1.43 L200.34 -0.09 L201.26 48.2 L0.65 50.28" stroke="none" stroke-width="0" fill="#3a1d6e"></path><path d="M1.69 1.08 C75.57 1.42, 153.33 -0.83, 199.84 0.19 M0.66 -0.43 C68.07 1.44, 138.53 -0.11, 200.08 -0.47 M200.63 1.64 C198.57 10.99, 199.62 20.64, 199.47 50.94 M200.44 0.21 C200.14 11.33, 198.77 24.7, 199.31 49.78 M199.08 50.86 C125.58 47.87, 55.95 50.89, 1.14 48.65 M199.85 50.24 C125.38 51.98, 52.66 52.5, 0.29 49.16 M-0.09 48.76 C-1.99 36.33, -1.3 24.93, 1.83 1.45 M-0.7 50.61 C0.57 38.71, -0.58 25.44, -0.7 0.7" stroke="#a371f7" stroke-width="2" fill="none"></path></g><g transform="translate(910.4896196339992 773.8119863201108) rotate(0 38.71996307373047 12.5)"><text x="38.71996307373047" y="NaN" font-family="Virgil, Segoe UI Emoji" font-size="20px" fill="#ffffff" text-anchor="middle" style="white-space: pre;" direction="ltr">Storage</text></g><g stroke-linecap="round"><g transform="translate(110 140) rotate(0 140 0)"><path d="M1.07 -0.17 C48.06 0.11, 234.15 1.08, 280.82 0.92 M0.18 -1.3 C47.17 -1.29, 233.52 -0.86, 280.3 -0.73" stroke="#c9d1d9" stroke-width="2" fill="none"></path></g><g transform="translate(110 140) rotate(0 140 0)"><path d="M251.81 10.83 C259.57 8.9, 261.98 5.75, 282.19 0.91 M252.54 9.71 C259.73 7.26, 267.07 5.14, 281.04 -0.29" stroke="#c9d1d9" stroke-width="2" fill="none"></path></g><g transform="translate(110 140) rotate(0 140 0)"><path d="M251.86 -9.69 C259.49 -7.33, 261.89 -6.2, 282.19 0.91 M252.6 -10.81 C259.61 -7.63, 266.93 -4.12, 281.04 -0.29" stroke="#c9d1d9" stroke-width="2" fill="none"></path></g></g><g transform="translate(198.03403472900388 128.75) rotate(0 51.96596527099611 11.25)"><text x="51.965965270996094" y="NaN" font-family="Virgil, Segoe UI Emoji" font-size="18px" fill="#c9d1d9" text-anchor="middle" style="white-space: pre;" direction="ltr">Acquire lock</text></g><g stroke-linecap="round"><g transform="translate(390 220) rotate(0 -140 0)"><path d="M0.11 0.9 C-46.3 0.97, -232.66 0.26, -279.31 0.2" stroke="#c9d1d9" stroke-width="2.5" fill="none" stroke-dasharray="8 10"></path></g><g transform="translate(390 220) rotate(0 -140 0)"><path d="M-249.59 -8.83 C-257.33 -7.22, -263.26 -3.77, -277.73 0.06" stroke="#c9d1d9" stroke-width="2.5" fill="none"></path></g><g transform="translate(390 220) rotate(0 -140 0)"><path d="M-249.65 11.69 C-257.33 8.53, -263.26 7.21, -277.73 0.06" stroke="#c9d1d9" stroke-width="2.5" fill="none"></path></g></g><g transform="translate(190.19503784179688 208.75) rotate(0 59.804962158203125 22.5)"><text x="59.804962158203125" y="NaN" font-family="Virgil, Segoe UI Emoji" font-size="18px" fill="#c9d1d9" text-anchor="middle" style="white-space: pre;" direction="ltr">Lock granted,</text><text x="59.804962158203125" y="NaN" font-family="Virgil, Segoe UI Emoji" font-size="18px" fill="#c9d1d9" text-anchor="middle" style="white-space: pre;" direction="ltr">token=33</text></g><g stroke-opacity="0.85" fill-opacity="0.85" stroke-linecap="round" transform="translate(14.799999999999997 238) rotate(0 95.19999999999999 22)"><path d="M1.22 -1.63 L192.2 -0.83 L190.19 43.88 L0.91 45.23" stroke="none" stroke-width="0" fill="#1f4d2b"></path><path d="M-0.1 -0.75 C67.37 -1.75, 137.51 0.67, 188.59 -0.48 M0.89 -0.43 C74.91 0.81, 150.56 0.57, 190.44 0.52 M190.43 -1.03 C189.37 14.83, 189.64 31.75, 189.49 44.36 M191.29 -0.56 C190.54 16.39, 189.83 33.78, 191.03 44.71 M191.33 45.06 C127.89 43.89, 69.2 46.13, -0.86 45.09 M190.24 43.87 C114.89 45.7, 39.6 45.13, -0.59 44.46 M0.56 42.14 C-1.31 27.42, -1.41 11.28, 0.73 -0.87 M-0.54 44.5 C0.4 32.06, 0.15 20.47, 0.74 0.15" stroke="#3fb950" stroke-width="2" fill="none"></path></g><g transform="translate(39.13606262207031 250) rotate(0 70.86393737792969 10)"><text x="70.86393737792969" y="NaN" font-family="Virgil, Segoe UI Emoji" font-size="16px" fill="#ffffff" text-anchor="middle" style="white-space: pre;" direction="ltr">GC pause begins...</text></g><g stroke-opacity="0.85" fill-opacity="0.85" stroke-linecap="round" transform="translate(321.2 238) rotate(0 68.80000000000001 22)"><path d="M0.41 0.69 L136.88 -0.13 L136.2 42.52 L-1.76 44.19" stroke="none" stroke-width="0" fill="#1f4d2b"></path><path d="M-1.68 0.56 C43.17 -0.52, 85.55 -1.86, 138.39 0.73 M0.17 -0.05 C36.22 0.42, 72.71 1.5, 138.48 -0.08 M138.45 -0.57 C139.11 10.91, 136.52 23.56, 136.45 45.52 M137.09 -0.59 C137.27 14.92, 137.18 32.15, 137.22 43.2 M138.05 44.25 C93.56 47.03, 50.46 43.97, 0.68 43.2 M137.37 44.51 C98.87 43.13, 62.36 43.71, 0.48 43.09 M1.52 42.55 C-0.24 29.58, -0.12 12.93, 0.49 -0.09 M0.02 44.82 C-0.53 34.88, -0.64 24.8, -0.94 0.12" stroke="#3fb950" stroke-width="2" fill="none"></path></g><g transform="translate(342.1360321044922 250) rotate(0 47.86396789550781 10)"><text x="47.86396789550781" y="NaN" font-family="Virgil, Segoe UI Emoji" font-size="16px" fill="#ffffff" text-anchor="middle" style="white-space: pre;" direction="ltr">Lock expires</text></g><g stroke-linecap="round"><g transform="translate(670 300) rotate(0 -140 0)"><path d="M-0.44 -0.97 C-47.06 -0.85, -232.77 0.64, -279.19 0.85 M1.53 1.13 C-45.22 0.91, -232.93 -0.93, -279.71 -0.83" stroke="#c9d1d9" stroke-width="2" fill="none"></path></g><g transform="translate(670 300) rotate(0 -140 0)"><path d="M-253.09 -9.6 C-259.69 -5.8, -270.3 -3.03, -277.9 -1.22 M-252.24 -10.42 C-261.15 -6.85, -270.75 -3.46, -278.82 -1.09" stroke="#c9d1d9" stroke-width="2" fill="none"></path></g><g transform="translate(670 300) rotate(0 -140 0)"><path d="M-253.19 10.92 C-259.77 7.72, -270.35 3.48, -277.9 -1.22 M-252.33 10.1 C-261.15 6.47, -270.71 2.64, -278.82 -1.09" stroke="#c9d1d9" stroke-width="2" fill="none"></path></g></g><g transform="translate(478.03403472900396 288.75) rotate(0 51.965965270996065 11.25)"><text x="51.965965270996094" y="NaN" font-family="Virgil, Segoe UI Emoji" font-size="18px" fill="#c9d1d9" text-anchor="middle" style="white-space: pre;" direction="ltr">Acquire lock</text></g><g stroke-linecap="round"><g transform="translate(390 380) rotate(0 140 0)"><path d="M0.96 0.88 C47.37 0.8, 232.85 0.26, 279.41 0.13" stroke="#c9d1d9" stroke-width="2.5" fill="none" stroke-dasharray="8 10"></path></g><g transform="translate(390 380) rotate(0 140 0)"><path d="M252.72 9.48 C262.04 6.77, 272.68 4.17, 280.25 0.24" stroke="#c9d1d9" stroke-width="2.5" fill="none"></path></g><g transform="translate(390 380) rotate(0 140 0)"><path d="M252.66 -11.04 C262.12 -6, 272.78 -0.85, 280.25 0.24" stroke="#c9d1d9" stroke-width="2.5" fill="none"></path></g></g><g transform="translate(470.19503784179693 368.75) rotate(0 59.8049621582031 22.5)"><text x="59.804962158203125" y="NaN" font-family="Virgil, Segoe UI Emoji" font-size="18px" fill="#c9d1d9" text-anchor="middle" style="white-space: pre;" direction="ltr">Lock granted,</text><text x="59.804962158203125" y="NaN" font-family="Virgil, Segoe UI Emoji" font-size="18px" fill="#c9d1d9" text-anchor="middle" style="white-space: pre;" direction="ltr">token=34</text></g><g stroke-linecap="round"><g transform="translate(670 460) rotate(0 140 0)"><path d="M0.72 -0.25 C47.62 -0.51, 234.02 -0.79, 280.71 -0.71 M-0.37 -1.43 C46.5 -1.62, 233.31 -0.06, 280.13 0.45" stroke="#c9d1d9" stroke-width="2" fill="none"></path></g><g transform="translate(670 460) rotate(0 140 0)"><path d="M251.43 11.63 C257.39 9.32, 265.75 5.83, 279.83 -1.34 M251.37 10.74 C260.9 6.86, 268.6 3.44, 280.28 0.5" stroke="#c9d1d9" stroke-width="2" fill="none"></path></g><g transform="translate(670 460) rotate(0 140 0)"><path d="M251.62 -8.89 C257.68 -6.26, 265.99 -4.81, 279.83 -1.34 M251.56 -9.78 C260.97 -7.3, 268.61 -4.35, 280.28 0.5" stroke="#c9d1d9" stroke-width="2" fill="none"></path></g></g><g transform="translate(735.138053894043 448.75) rotate(0 74.86194610595703 11.25)"><text x="74.86194610595703" y="NaN" font-family="Virgil, Segoe UI Emoji" font-size="18px" fill="#c9d1d9" text-anchor="middle" style="white-space: pre;" direction="ltr">Write (token=34)</text></g><g stroke-linecap="round"><g transform="translate(950 540) rotate(0 -140 0)"><path d="M0.98 -0.45 C-45.43 -0.7, -232.49 -0.92, -279.38 -0.67" stroke="#c9d1d9" stroke-width="2.5" fill="none" stroke-dasharray="8 10"></path></g><g transform="translate(950 540) rotate(0 -140 0)"><path d="M-251.95 -9.93 C-258.46 -9.03, -261.78 -5.01, -281.31 -1.48" stroke="#c9d1d9" stroke-width="2.5" fill="none"></path></g><g transform="translate(950 540) rotate(0 -140 0)"><path d="M-251.92 10.59 C-258.58 6.97, -261.91 6.46, -281.31 -1.48" stroke="#c9d1d9" stroke-width="2.5" fill="none"></path></g></g><g transform="translate(740.1960296630859 528.75) rotate(0 69.80397033691406 22.5)"><text x="69.80397033691406" y="NaN" font-family="Virgil, Segoe UI Emoji" font-size="18px" fill="#c9d1d9" text-anchor="middle" style="white-space: pre;" direction="ltr">OK (max_token</text><text x="69.80397033691406" y="NaN" font-family="Virgil, Segoe UI Emoji" font-size="18px" fill="#c9d1d9" text-anchor="middle" style="white-space: pre;" direction="ltr">updated to 34)</text></g><g stroke-opacity="0.85" fill-opacity="0.85" stroke-linecap="round" transform="translate(36.8 558) rotate(0 73.19999999999999 22)"><path d="M0.69 -0.52 L146.17 -0.73 L145.53 43.39 L-1.68 45.94" stroke="none" stroke-width="0" fill="#1f4d2b"></path><path d="M-1.7 0.82 C51.67 2.72, 104.94 2.64, 146.58 -0.02 M-0.89 -0.61 C52.08 -1.27, 102.76 -0.65, 146.02 -0.42 M145.11 0.92 C145.67 18.56, 144.99 34.22, 146.36 43.75 M145.41 0.52 C147 15.47, 145.46 32.69, 145.53 43.18 M147.88 44.22 C106.99 46.2, 69.57 42.79, 1.54 42.94 M147.36 43.5 C111.46 44.02, 74.66 44.5, 0.71 44.14 M-1.75 44.38 C1.11 33.95, 1.08 23.71, 1.78 0.9 M-0.89 43.44 C-0.05 30.65, 0.45 16.36, -0.89 -0.79" stroke="#3fb950" stroke-width="2" fill="none"></path></g><g transform="translate(50.984039306640625 570) rotate(0 59.015960693359375 10)"><text x="59.015960693359375" y="NaN" font-family="Virgil, Segoe UI Emoji" font-size="16px" fill="#ffffff" text-anchor="middle" style="white-space: pre;" direction="ltr">GC pause ends</text></g><g stroke-linecap="round"><g transform="translate(110 620) rotate(0 420 0)"><path d="M0.19 -0.37 C140.03 -0.45, 699.08 0.48, 838.94 0.49 M-1.17 -1.61 C139.04 -2.14, 701.19 -1.78, 841.1 -1.37" stroke="#c9d1d9" stroke-width="2" fill="none"></path></g><g transform="translate(110 620) rotate(0 420 0)"><path d="M812.27 7.08 C821.82 4.77, 828.65 3.8, 839.18 -2.89 M813.53 8.21 C820.77 5.29, 827.49 3.04, 840.32 -0.83" stroke="#c9d1d9" stroke-width="2" fill="none"></path></g><g transform="translate(110 620) rotate(0 420 0)"><path d="M812.3 -13.44 C822.01 -9.79, 828.83 -4.79, 839.18 -2.89 M813.56 -12.31 C820.6 -9.83, 827.31 -6.7, 840.32 -0.83" stroke="#c9d1d9" stroke-width="2" fill="none"></path></g></g><g transform="translate(454.7690505981446 608.75) rotate(0 75.23094940185544 11.25)"><text x="75.23094940185547" y="NaN" font-family="Virgil, Segoe UI Emoji" font-size="18px" fill="#c9d1d9" text-anchor="middle" style="white-space: pre;" direction="ltr">Write (token=33)</text></g><g stroke-linecap="round"><g transform="translate(950.7564510251809 668.3304235087128) rotate(0 -420 0)"><path d="M-0.34 -0.22 C-140.47 -0.22, -700.9 0.06, -841.03 0.1" stroke="#c9d1d9" stroke-width="2.5" fill="none" stroke-dasharray="8 10"></path></g><g transform="translate(950.7564510251809 668.3304235087128) rotate(0 -420 0)"><path d="M-813.21 -11.88 C-820.47 -9.23, -828.38 -3.61, -841.52 -0.49" stroke="#c9d1d9" stroke-width="2.5" fill="none"></path></g><g transform="translate(950.7564510251809 668.3304235087128) rotate(0 -420 0)"><path d="M-813.2 8.64 C-820.48 5.61, -828.39 5.54, -841.52 -0.49" stroke="#c9d1d9" stroke-width="2.5" fill="none"></path></g></g><g transform="translate(430.0730514526367 688.75) rotate(0 99.92694854736328 11.25)"><text x="99.92694854736328" y="NaN" font-family="Virgil, Segoe UI Emoji" font-size="18px" fill="#c9d1d9" text-anchor="middle" style="white-space: pre;" direction="ltr">REJECTED (33 &lt; 34)</text></g></svg>