<svg version="1.1" xmlns="http://www.w3.org/2000/svg" viewBox="0 0 1134.4 700" width="1134.4" height="700">
  <!-- svg-source:excalidraw -->
  
  <defs>
    <style>
      @font-face {
        font-family: "Virgil";
        src: url("https://excalidraw.com/Virgil.woff2");
      }
      @font-face {
        font-family: "Cascadia";
        src: url("https://excalidraw.com/Cascadia.woff2");
      }
    </style>
  </defs>
  <rect x="0" y="0" width="1134.4" height="700" fill="#0d1117"></rect><g stroke-linecap="round" transform="translate(10 10) rotate(0 100 25)"><path d="M-0.02 -1.33 L201.37 -1.96 L200.55 48.61 L-1.43 49.05" stroke="none" stroke-width="0" fill="#3a1d6e"></path><path d="M0.97 1.52 C72.93 -0.9, 145.51 0.39, 200.06 -1.02 M0.49 0.38 C77.99 1.3, 154.1 2.16, 199.35 -0.01 M201.05 -0.83 C200.33 12.96, 199.04 22.83, 199.64 49.1 M200.55 0.11 C200.08 15.39, 200.01 30.97, 200.72 49.36 M199.08 48.75 C148.55 47.54, 100.62 49.66, -0.92 48.96 M200.82 50.77 C143.45 47.62, 85.38 48.69, 0.01 50.74 M-1.89 48.63 C-2.1 33.54, -2.42 17.52, -0.48 -1.36 M-0.27 49.08 C0.23 36.17, 0.1 20.25, -0.13 -0.85" stroke="#a371f7" stroke-width="2" fill="none"></path></g><g transform="translate(75.24002838134766 22.5) rotate(0 34.759971618652344 12.5)"><text x="34.759971618652344" y="NaN" font-family="Virgil, Segoe UI Emoji" font-size="20px" fill="#ffffff" text-anchor="middle" style="white-space: pre;" direction="ltr">Client 1</text></g><g stroke-linecap="round"><g transform="translate(110 60) rotate(0 0 290)"><path d="M1.01 0.21 C0.91 96.8, -0.89 483.55, -1.1 580.18" stroke="#30363d" stroke-width="1.5" fill="none" stroke-dasharray="8 9"></path></g></g><g stroke-linecap="round" transform="translate(10 640) rotate(0 100 25)"><path d="M0.55 -1.39 L198.57 -0.95 L201.05 48.33 L-1.49 49.4" stroke="none" stroke-width="0" fill="#3a1d6e"></path><path d="M0.28 -0.35 C76.9 0.63, 155.25 0.67, 198.38 0.98 M-0.66 0.54 C67.72 0.63, 136.18 -0.02, 200.01 0.47 M199.41 -0.88 C199.81 12.02, 200.25 25.64, 199.46 51.1 M200.06 0.56 C200.79 14.93, 199.59 31.22, 199.08 49.49 M201.56 51.31 C152.94 48.16, 107.43 49.27, -1.65 51.63 M199.25 50.34 C122.91 49.28, 46.06 49.4, -0.12 49.15 M-1.94 50.42 C-0.07 37.07, 0.3 26.61, -1.19 -0.54 M0.04 49.74 C-0.22 38.76, -0.09 28.55, 0.68 -0.98" stroke="#a371f7" stroke-width="2" fill="none"></path></g><g transform="translate(75.24002838134766 652.5) rotate(0 34.759971618652344 12.5)"><text x="34.759971618652344" y="NaN" font-family="Virgil, Segoe UI Emoji" font-size="20px" fill="#ffffff" text-anchor="middle" style="white-space: pre;" direction="ltr">Client 1</text></g><g stroke-linecap="round" transform="translate(290 10) rotate(0 100 25)"><path d="M-1.43 -0.95 L201.05 -1.67 L198.51 49.4 L-1.41 50.99" stroke="none" stroke-width="0" fill="#3a1d6e"></path><path d="M0.06 -1.02 C43.24 -0.62, 81.73 1.33, 200.75 1.22 M-0.65 -0.01 C52.3 -1.74, 105.74 -0.61, 199.63 0.31 M199.64 -0.9 C199.93 17.58, 199.31 36.66, 200.23 50.26 M200.72 -0.64 C199.56 16.02, 199.11 31.35, 199.31 49.45 M199.08 48.96 C148.65 51.38, 96.2 52.95, 1.54 50.76 M200.01 50.74 C156.46 51.53, 112.29 49.82, -0.62 49.27 M-0.48 48.64 C0.38 34.79, -0.7 19.54, -1.84 0.34 M-0.13 49.15 C-0.03 29.76, 0.66 9.88, 0.28 -0.7" stroke="#a371f7" stroke-width="2" fill="none"></path></g><g transform="translate(329.82005310058594 22.5) rotate(0 60.17994689941406 12.5)"><text x="60.17994689941406" y="NaN" font-family="Virgil, Segoe UI Emoji" font-size="20px" fill="#ffffff" text-anchor="middle" style="white-space: pre;" direction="ltr">Lock Service</text></g><g stroke-linecap="round"><g transform="translate(390 60) rotate(0 0 290)"><path d="M-0.68 1.04 C-0.75 97.52, -0.87 482.34, -0.65 578.92" stroke="#30363d" stroke-width="1.5" fill="none" stroke-dasharray="8 9"></path></g></g><g stroke-linecap="round" transform="translate(290 640) rotate(0 100 25)"><path d="M-1.49 -0.6 L198.59 0.99 L198.28 51.32 L0.19 51.87" stroke="none" stroke-width="0" fill="#3a1d6e"></path><path d="M-1.62 0.98 C49.45 2.19, 96.75 -0.35, 201.08 -1.3 M0.01 0.47 C59.38 1.63, 120.01 1.05, 199.61 -0.16 M199.46 1.1 C200.25 13.01, 200.39 25.62, 201.12 51.44 M199.08 -0.51 C199.07 11.26, 199.32 24.49, 200.73 49.49 M198.35 51.63 C153.08 50.83, 101.62 48.57, 0.67 50.03 M199.88 49.15 C122.97 50.98, 47.17 50.83, 0.19 49.79 M-1.19 49.46 C-1.82 38.73, 1.85 26.86, -0.51 -0.27 M0.68 49.02 C0.28 38.57, -0.71 28.07, 0.52 -0.84" stroke="#a371f7" stroke-width="2" fill="none"></path></g><g transform="translate(329.82005310058594 652.5) rotate(0 60.17994689941406 12.5)"><text x="60.17994689941406" y="NaN" font-family="Virgil, Segoe UI Emoji" font-size="20px" fill="#ffffff" text-anchor="middle" style="white-space: pre;" direction="ltr">Lock Service</text></g><g stroke-linecap="round" transform="translate(570 10) rotate(0 100 25)"><path d="M-1.41 0.99 L198.28 1.32 L200.19 51.87 L0.8 49.14" stroke="none" stroke-width="0" fill="#3a1d6e"></path><path d="M0.75 1.22 C48.53 -2.31, 99.42 -2.29, 199.98 -1.13 M-0.37 0.31 C45.85 -1.21, 90.31 -1.11, 199.59 0.04 M200.23 0.26 C200.24 14.63, 200.99 30.44, 198.72 49.05 M199.31 -0.55 C199.09 16.3, 200.27 30.36, 199.42 49.85 M201.54 50.76 C137.78 50.13, 79.15 51.66, 1.48 50.52 M199.38 49.27 C121.03 47.42, 42.25 48.08, -0.61 49.95 M-1.84 50.34 C2.13 35.68, -0.22 20.95, -1.71 -0.02 M0.28 49.3 C-1.06 37.86, 0.18 25.83, -0.74 -0.3" stroke="#a371f7" stroke-width="2" fill="none"></path></g><g transform="translate(630.8300323486328 22.5) rotate(0 39.16996765136719 12.5)"><text x="39.16996765136719" y="NaN" font-family="Virgil, Segoe UI Emoji" font-size="20px" fill="#ffffff" text-anchor="middle" style="white-space: pre;" direction="ltr">Client 2</text></g><g stroke-linecap="round"><g transform="translate(670 60) rotate(0 0 290)"><path d="M0.81 -0.43 C0.56 96.27, -0.6 483.98, -0.88 580.72" stroke="#30363d" stroke-width="1.5" fill="none" stroke-dasharray="8 9"></path></g></g><g stroke-linecap="round" transform="translate(570 640) rotate(0 100 25)"><path d="M0.19 1.87 L200.8 -0.86 L198.71 50.37 L-1.12 49.33" stroke="none" stroke-width="0" fill="#3a1d6e"></path><path d="M1.08 -1.3 C73.54 0.19, 145.81 1.34, 200.94 -0.75 M-0.39 -0.16 C66.51 0.57, 133.75 0.29, 200.5 0.1 M201.12 1.44 C198.82 14.69, 200.27 29.45, 198.98 48.61 M200.73 -0.51 C199.2 12.12, 199.82 23.62, 200.91 50.86 M200.67 50.03 C132.98 49.02, 64.72 48.26, -1.7 48.77 M200.19 49.79 C155.64 48.21, 112.39 47.72, -0.24 49.17 M-0.51 49.73 C-2.17 34.13, -1.79 19.67, -1.96 0.55 M0.52 49.16 C-0.38 38.19, -0.35 27.47, -0.86 0.66" stroke="#a371f7" stroke-width="2" fill="none"></path></g><g transform="translate(630.8300323486328 652.5) rotate(0 39.16996765136719 12.5)"><text x="39.16996765136719" y="NaN" font-family="Virgil, Segoe UI Emoji" font-size="20px" fill="#ffffff" text-anchor="middle" style="white-space: pre;" direction="ltr">Client 2</text></g><g stroke-linecap="round" transform="translate(850 10) rotate(0 100 25)"><path d="M0.8 -0.86 L198.71 0.37 L198.88 49.33 L0.91 50.03" stroke="none" stroke-width="0" fill="#3a1d6e"></path><path d="M-0.02 -1.13 C43.97 1.31, 91.53 0.55, 200.62 1 M-0.41 0.04 C53.97 0.08, 108.62 0.43, 200.12 0.17 M198.72 -0.95 C200.45 13.48, 199.26 29.25, 198.91 49.11 M199.42 -0.15 C200.4 18.41, 201.27 39.51, 200.42 49.19 M201.48 50.52 C158.4 49.79, 111.69 48.79, -1.46 49.99 M199.39 49.95 C159.3 49.04, 118.59 48.74, 0.15 50.82 M-1.71 49.98 C-1.2 36.18, -1.83 20.17, -1.39 -1.43 M-0.74 49.7 C-0.97 37.87, -1.12 25.41, 0.09 0.94" stroke="#a371f7" stroke-width="2" fill="none"></path></g><g transform="translate(911.2800369262695 22.5) rotate(0 38.71996307373047 12.5)"><text x="38.71996307373047" y="NaN" font-family="Virgil, Segoe UI Emoji" font-size="20px" fill="#ffffff" text-anchor="middle" style="white-space: pre;" direction="ltr">Storage</text></g><g stroke-linecap="round"><g transform="translate(950 60) rotate(0 0 290)"><path d="M-0.76 -0.88 C-0.61 95.89, -0.03 483.75, 0.01 580.63" stroke="#30363d" stroke-width="1.5" fill="none" stroke-dasharray="8 9"></path></g></g><g stroke-linecap="round" transform="translate(850 640) rotate(0 100 25)"><path d="M-1.12 -0.67 L200.91 0.03 L199.23 50.49 L-0.59 50.49" stroke="none" stroke-width="0" fill="#3a1d6e"></path><path d="M0.94 -0.75 C48.03 0.99, 94.28 -0.8, 199.67 -0.81 M0.5 0.1 C60.93 0.66, 121.69 1, 200.65 -0.57 M198.98 -1.39 C198.95 11.73, 201.77 26.69, 198.98 48.85 M200.91 0.86 C200.44 13.42, 199.18 28.84, 200.01 50.82 M198.3 48.77 C132.74 49.75, 66.66 50.14, -0.43 48.78 M199.76 49.17 C141.17 49.75, 82.07 48.7, -0.12 49.23 M-1.96 50.55 C-1.06 33.61, -0.62 21.15, -1.67 -1.49 M-0.86 50.66 C0.44 37.43, 0.75 22.56, -0.65 0.19" stroke="#a371f7" stroke-width="2" fill="none"></path></g><g transform="translate(911.2800369262695 652.5) rotate(0 38.71996307373047 12.5)"><text x="38.71996307373047" y="NaN" font-family="Virgil, Segoe UI Emoji" font-size="20px" fill="#ffffff" text-anchor="middle" style="white-space: pre;" direction="ltr">Storage</text></g><g stroke-linecap="round"><g transform="translate(110 140) rotate(0 140 0)"><path d="M-0.5 0.42 C46.28 0.25, 234 -0.25, 280.67 -0.36 M1.44 -0.41 C48.11 -0.46, 233.9 0.76, 280.07 0.99" stroke="#c9d1d9" stroke-width="2" fill="none"></path></g><g transform="translate(110 140) rotate(0 140 0)"><path d="M252.51 12.2 C259.67 7.3, 268.39 4.24, 280.15 0.79 M251.95 11.28 C259.53 8.87, 267.9 4.91, 279.59 1.08" stroke="#c9d1d9" stroke-width="2" fill="none"></path></g><g transform="translate(110 140) rotate(0 140 0)"><path d="M252.63 -8.32 C259.86 -7.05, 268.54 -3.94, 280.15 0.79 M252.07 -9.24 C259.73 -6.06, 268.06 -4.41, 279.59 1.08" stroke="#c9d1d9" stroke-width="2" fill="none"></path></g></g><g transform="translate(198.0340347290039 128.75) rotate(0 51.965965270996094 11.25)"><text x="51.965965270996094" y="NaN" font-family="Virgil, Segoe UI Emoji" font-size="18px" fill="#c9d1d9" text-anchor="middle" style="white-space: pre;" direction="ltr">Acquire lock</text></g><g stroke-linecap="round"><g transform="translate(389.0218232565255 203.50512948389286) rotate(0 -140 0)"><path d="M0.67 -0.36 C-46 -0.46, -233.66 -0.29, -280.53 -0.22" stroke="#c9d1d9" stroke-width="2.5" fill="none" stroke-dasharray="8 10"></path></g><g transform="translate(389.0218232565255 203.50512948389286) rotate(0 -140 0)"><path d="M-252.94 -11.39 C-259.96 -8.6, -266.79 -5.24, -281.07 0.88" stroke="#c9d1d9" stroke-width="2.5" fill="none"></path></g><g transform="translate(389.0218232565255 203.50512948389286) rotate(0 -140 0)"><path d="M-252.92 9.13 C-260.01 6.62, -266.85 4.68, -281.07 0.88" stroke="#c9d1d9" stroke-width="2.5" fill="none"></path></g></g><g transform="translate(191.52985700896693 181.00512948389286) rotate(0 57.491966247558594 22.5)"><text x="57.491966247558594" y="NaN" font-family="Virgil, Segoe UI Emoji" font-size="18px" fill="#c9d1d9" text-anchor="middle" style="white-space: pre;" direction="ltr">Lock granted</text><text x="57.491966247558594" y="NaN" font-family="Virgil, Segoe UI Emoji" font-size="18px" fill="#c9d1d9" text-anchor="middle" style="white-space: pre;" direction="ltr">(TTL=30s)</text></g><g stroke-opacity="0.85" fill-opacity="0.85" stroke-linecap="round" transform="translate(14.799999999999997 230) rotate(0 95.19999999999999 30)"><path d="M-0.59 0.49 L188.8 1.33 L191.13 61.54 L-1.17 60.69" stroke="none" stroke-width="0" fill="#1f4d2b"></path><path d="M-0.36 -0.9 C67.78 0.63, 134.86 1.94, 190.63 0.26 M0.72 -0.64 C60.18 -0.98, 120.4 -1.58, 189.71 -0.55 M189.38 -1.15 C190.61 15.4, 189.09 32.46, 192.11 60.85 M190.41 0.82 C190.19 14.09, 189.77 25.33, 189.71 59.19 M189.92 58.64 C133.31 60.15, 75.24 59.86, -1.84 60.34 M190.27 59.15 C115.86 58.84, 42.03 58.53, 0.28 59.3 M-1.67 58.51 C-0.31 44.89, 1.28 30.88, 1.32 0.19 M-0.65 60.19 C-0.8 36.05, 0.21 12.79, -0.39 0.25" stroke="#3fb950" stroke-width="2" fill="none"></path></g><g transform="translate(39.13606262207031 240) rotate(0 70.86393737792969 20)"><text x="70.86393737792969" y="NaN" font-family="Virgil, Segoe UI Emoji" font-size="16px" fill="#ffffff" text-anchor="middle" style="white-space: pre;" direction="ltr">GC pause begins...</text><text x="70.86393737792969" y="NaN" font-family="Virgil, Segoe UI Emoji" font-size="16px" fill="#ffffff" text-anchor="middle" style="white-space: pre;" direction="ltr">Client 1 is frozen</text></g><g stroke-opacity="0.85" fill-opacity="0.85" stroke-linecap="round" transform="translate(294.8 230) rotate(0 95.20000000000002 30)"><path d="M-1.6 1.33 L191.13 1.54 L189.23 60.69 L1.23 59.08" stroke="none" stroke-width="0" fill="#1f4d2b"></path><path d="M0.08 -0.2 C48.23 1.96, 97.78 1.12, 190.77 0.13 M-0.48 0.09 C66.9 0.7, 134.94 0.67, 189.95 0.87 M190.09 0.08 C188.26 24.19, 191.8 45.59, 188.78 58.33 M190.69 0.95 C190.28 19.3, 189.72 39.67, 190.39 59.03 M190.3 59.76 C128.13 58.17, 66.39 59.05, 1.83 60.08 M190.39 59.33 C138.86 57.4, 86.22 57.68, -0.72 59.52 M-0.6 58.59 C1.49 37.13, 1.82 17.89, 1.87 0.8 M-0.56 59.67 C0.84 44.6, 0 29.41, -0.29 0.25" stroke="#3fb950" stroke-width="2" fill="none"></path></g><g transform="translate(316.70406341552734 240) rotate(0 73.29593658447266 20)"><text x="73.29593658447266" y="NaN" font-family="Virgil, Segoe UI Emoji" font-size="16px" fill="#ffffff" text-anchor="middle" style="white-space: pre;" direction="ltr">30 seconds pass...</text><text x="73.29593658447266" y="NaN" font-family="Virgil, Segoe UI Emoji" font-size="16px" fill="#ffffff" text-anchor="middle" style="white-space: pre;" direction="ltr">Lock expires</text></g><g stroke-linecap="round"><g transform="translate(670 300) rotate(0 -140 0)"><path d="M-0.12 -0.33 C-46.59 -0.31, -232.72 0.04, -279.34 0.14 M-1.64 -1.54 C-48.16 -1.32, -233.46 1.21, -279.94 1.75" stroke="#c9d1d9" stroke-width="2" fill="none"></path></g><g transform="translate(670 300) rotate(0 -140 0)"><path d="M-252.42 -7.76 C-258.8 -5.93, -265.81 -3.36, -278.81 3.19 M-252.8 -9.38 C-259.25 -6.88, -265.63 -2.96, -279.21 1.24" stroke="#c9d1d9" stroke-width="2" fill="none"></path></g><g transform="translate(670 300) rotate(0 -140 0)"><path d="M-252.16 12.75 C-258.62 9.36, -265.69 6.7, -278.81 3.19 M-252.54 11.14 C-258.96 8.79, -265.4 7.86, -279.21 1.24" stroke="#c9d1d9" stroke-width="2" fill="none"></path></g></g><g transform="translate(478.0340347290039 288.75) rotate(0 51.965965270996094 11.25)"><text x="51.965965270996094" y="NaN" font-family="Virgil, Segoe UI Emoji" font-size="18px" fill="#c9d1d9" text-anchor="middle" style="white-space: pre;" direction="ltr">Acquire lock</text></g><g stroke-linecap="round"><g transform="translate(390 380) rotate(0 140 0)"><path d="M0.66 0.14 C47.37 0.23, 233.59 0.13, 280.16 0.22" stroke="#c9d1d9" stroke-width="2.5" fill="none" stroke-dasharray="8 10"></path></g><g transform="translate(390 380) rotate(0 140 0)"><path d="M252.19 10.73 C260.53 7.47, 269.46 5.81, 278.88 -0.73" stroke="#c9d1d9" stroke-width="2.5" fill="none"></path></g><g transform="translate(390 380) rotate(0 140 0)"><path d="M252.2 -9.8 C260.49 -7.1, 269.41 -2.81, 278.88 -0.73" stroke="#c9d1d9" stroke-width="2.5" fill="none"></path></g></g><g transform="translate(472.5080337524414 368.75) rotate(0 57.491966247558594 11.25)"><text x="57.491966247558594" y="NaN" font-family="Virgil, Segoe UI Emoji" font-size="18px" fill="#c9d1d9" text-anchor="middle" style="white-space: pre;" direction="ltr">Lock granted</text></g><g stroke-linecap="round"><g transform="translate(670 460) rotate(0 140 0)"><path d="M0.16 0.22 C46.72 0.31, 233.29 0.84, 280.08 0.67 M-1.22 -0.71 C45.14 -0.97, 232.21 -1.24, 279.17 -1.09" stroke="#c9d1d9" stroke-width="2" fill="none"></path></g><g transform="translate(670 460) rotate(0 140 0)"><path d="M251.35 9.28 C262.1 6.92, 269.71 0.88, 279.34 -2.93 M250.53 10.02 C258.79 6.25, 264.51 4.05, 279.21 -2.01" stroke="#c9d1d9" stroke-width="2" fill="none"></path></g><g transform="translate(670 460) rotate(0 140 0)"><path d="M251.35 -11.24 C262.13 -6.31, 269.74 -5.06, 279.34 -2.93 M250.54 -10.5 C258.66 -9.17, 264.37 -6.25, 279.21 -2.01" stroke="#c9d1d9" stroke-width="2" fill="none"></path></g></g><g transform="translate(732.3210601806641 437.5) rotate(0 77.67893981933594 22.5)"><text x="77.67893981933594" y="NaN" font-family="Virgil, Segoe UI Emoji" font-size="18px" fill="#c9d1d9" text-anchor="middle" style="white-space: pre;" direction="ltr">Write data (valid</text><text x="77.67893981933594" y="NaN" font-family="Virgil, Segoe UI Emoji" font-size="18px" fill="#c9d1d9" text-anchor="middle" style="white-space: pre;" direction="ltr">lock)</text></g><g stroke-opacity="0.85" fill-opacity="0.85" stroke-linecap="round" transform="translate(23.599999999999994 470) rotate(0 86.4 30)"><path d="M0.83 1.54 L171.96 1.14 L171.4 58.97 L-1.34 59.87" stroke="none" stroke-width="0" fill="#1f4d2b"></path><path d="M1.12 1.44 C52.8 -1.06, 108.32 -1.95, 171.78 -1.39 M0.73 -0.51 C41.83 -1.65, 84.85 -2.41, 173.71 0.86 M173.55 0.03 C173.95 21.13, 174.21 40.84, 170.91 58.63 M173.01 -0.24 C172.12 13.07, 172.67 25.66, 172.53 59.08 M172.29 59.73 C116.31 60.05, 61.9 61.43, -1.96 60.55 M173.32 59.16 C132.27 58.88, 92.52 59.67, -0.86 60.66 M-0.86 58.71 C-0.19 40.32, -1.23 23.79, 0.03 -0.77 M-0.8 60.66 C0.54 41.3, -0.41 21.4, 0.61 -0.46" stroke="#3fb950" stroke-width="2" fill="none"></path></g><g transform="translate(47.70404052734375 480) rotate(0 62.29595947265625 20)"><text x="62.29595947265625" y="NaN" font-family="Virgil, Segoe UI Emoji" font-size="16px" fill="#ffffff" text-anchor="middle" style="white-space: pre;" direction="ltr">GC pause ends.</text><text x="62.29595947265625" y="NaN" font-family="Virgil, Segoe UI Emoji" font-size="16px" fill="#ffffff" text-anchor="middle" style="white-space: pre;" direction="ltr">Client 1 resumes</text></g><g stroke-linecap="round"><g transform="translate(110 540) rotate(0 420 0)"><path d="M0.86 -0.77 C140.76 -0.86, 699.76 0.08, 839.43 0.1 M-0.14 1.45 C139.54 1.51, 697.95 1.87, 838.18 1.7" stroke="#c9d1d9" stroke-width="2" fill="none"></path></g><g transform="translate(110 540) rotate(0 420 0)"><path d="M808.72 11.01 C818.74 6.77, 826.19 4.08, 837.09 0.8 M809.41 11.81 C820.85 7.22, 832.62 5.02, 838.6 0.89" stroke="#c9d1d9" stroke-width="2" fill="none"></path></g><g transform="translate(110 540) rotate(0 420 0)"><path d="M808.71 -9.51 C818.86 -7.46, 826.3 -3.86, 837.09 0.8 M809.41 -8.71 C821 -5.37, 832.77 0.37, 838.6 0.89" stroke="#c9d1d9" stroke-width="2" fill="none"></path></g></g><g transform="translate(422.7650680541992 528.75) rotate(0 107.23493194580078 11.25)"><text x="107.23493194580078" y="NaN" font-family="Virgil, Segoe UI Emoji" font-size="18px" fill="#c9d1d9" text-anchor="middle" style="white-space: pre;" direction="ltr">Write data (stale lock!)</text></g><g stroke-opacity="0.85" fill-opacity="0.85" stroke-linecap="round" transform="translate(775.6 550) rotate(0 174.40000000000003 30)"><path d="M-1.4 -1.03 L347.46 -0.13 L349.01 60.2 L1.73 59.56" stroke="none" stroke-width="0" fill="#1f4d2b"></path><path d="M0.11 -1.2 C129.1 0.18, 258.82 0.5, 349.93 0.95 M0.02 -0.6 C87.44 0.91, 173.97 -0.18, 348.26 0.24 M350.7 -0.26 C347.4 16.71, 347.67 36.15, 346.86 60.42 M348.68 -0.59 C348.13 15.65, 348.56 34.06, 348.84 59.74 M347.93 60.89 C247.57 60.34, 147.99 59.04, -0.62 60.68 M348.34 60.32 C272.76 59.75, 197.91 59.93, 0.26 59.72 M-0.67 60.91 C-0.08 45.11, 0.38 31.17, 0.49 -1.6 M-0.59 60.35 C0.39 37.55, 0.2 16.79, -0.42 0.57" stroke="#3fb950" stroke-width="2" fill="none"></path></g><g transform="translate(813.6880798339844 560) rotate(0 136.31192016601562 20)"><text x="136.31192016601562" y="NaN" font-family="Virgil, Segoe UI Emoji" font-size="16px" fill="#ffffff" text-anchor="middle" style="white-space: pre;" direction="ltr">DATA CORRUPTION</text><text x="136.31192016601562" y="NaN" font-family="Virgil, Segoe UI Emoji" font-size="16px" fill="#ffffff" text-anchor="middle" style="white-space: pre;" direction="ltr">Client 1 overwrites Client 2's write</text></g></svg>