<svg version="1.1" xmlns="http://www.w3.org/2000/svg" viewBox="0 0 1134.4 700" width="1134.4" height="700">
  <!-- svg-source:excalidraw -->
  
  <defs>
    <style>
      @font-face {
        font-family: "Virgil";
        src: url("https://excalidraw.com/Virgil.woff2");
      }
      @font-face {
        font-family: "Cascadia";
        src: url("https://excalidraw.com/Cascadia.woff2");
      }
    </style>
  </defs>
  <rect x="0" y="0" width="1134.4" height="700" fill="#1e1e2e"></rect><g stroke-linecap="round" transform="translate(10 10) rotate(0 100 25)"><path d="M-1.81 1.71 L199.16 -0.67 L200.79 50.14 L-0.35 49.83" stroke="none" stroke-width="0" fill="#5b21b6"></path><path d="M0.67 -0.09 C72.4 2.78, 145.94 1.91, 198.65 -1.14 M0.57 0.01 C46.27 -0.54, 91.08 -1.24, 200.81 0.2 M198.22 -0.74 C200.8 20.57, 199.33 36.04, 201.15 51.17 M200.1 0.54 C200.21 12.26, 200.15 24.11, 199.19 49.29 M200.25 49.44 C141.42 49.03, 83.93 48.85, -0.87 48.52 M199.67 49.87 C137.56 50.59, 76.89 50.39, 0.31 50.54 M0.1 51.68 C-0.39 30.97, 0.98 16.07, 0.03 -1.81 M-0.86 50.21 C0.07 32.87, -0.73 14.1, 0.93 -0.36" stroke="#7c3aed" stroke-width="2" fill="none"></path></g><g transform="translate(75.24002838134766 22.5) rotate(0 34.759971618652344 12.5)"><text x="34.759971618652344" y="NaN" font-family="Virgil, Segoe UI Emoji" font-size="20px" fill="#ffffff" text-anchor="middle" style="white-space: pre;" direction="ltr">Client 1</text></g><g stroke-linecap="round"><g transform="translate(110 60) rotate(0 0 290)"><path d="M-0.12 1.14 C-0.29 98.11, -0.6 484.59, -0.56 581.08" stroke="#585b70" stroke-width="1.5" fill="none" stroke-dasharray="8 9"></path></g></g><g stroke-linecap="round" transform="translate(10 640) rotate(0 100 25)"><path d="M0.81 0.89 L200.5 1.19 L199.1 49.03 L-0.76 49.13" stroke="none" stroke-width="0" fill="#5b21b6"></path><path d="M0.54 -0.58 C50.2 0.26, 99.28 1.49, 199.96 0.59 M0.4 -0.54 C60.03 0.17, 120.14 -0.51, 199.33 -0.37 M200.01 1.08 C199.2 16.48, 198.13 30.52, 198.15 50.79 M200.71 0.19 C200.36 14.02, 199.94 27.68, 199.69 49.37 M198.87 51.15 C142.74 50.64, 84.5 50.36, 0.98 48.97 M200.12 50.3 C125.88 50.05, 52.35 49.23, -0.12 49.72 M1.59 50.62 C1.62 37.85, 0.41 25.33, -0.63 0.39 M-0.59 50.47 C-0.56 29.96, -0.05 10.39, -0.17 0.99" stroke="#7c3aed" stroke-width="2" fill="none"></path></g><g transform="translate(75.24002838134766 652.5) rotate(0 34.759971618652344 12.5)"><text x="34.759971618652344" y="NaN" font-family="Virgil, Segoe UI Emoji" font-size="20px" fill="#ffffff" text-anchor="middle" style="white-space: pre;" direction="ltr">Client 1</text></g><g stroke-linecap="round" transform="translate(290 10) rotate(0 100 25)"><path d="M0.37 -0.26 L201.97 -1.65 L201.07 49.45 L-0.85 48.27" stroke="none" stroke-width="0" fill="#5b21b6"></path><path d="M0.07 0.81 C75.85 -1.51, 149.79 0.07, 199.22 -1.58 M0.18 -0.11 C50.95 1.7, 103.79 1.68, 200 0.5 M201.63 0.59 C200.66 16.99, 201.01 35.44, 201.47 51.75 M199.74 -0.83 C200.23 16.49, 199.32 32.05, 200.21 50.53 M198.56 49.57 C138.13 51.02, 75.64 47.87, 0.56 50.58 M199.75 49.24 C149.12 49.06, 98.61 48.43, 0.31 50.74 M0.76 50.01 C-0.69 35.29, -0.46 22.5, -1.85 -1.24 M-1 50.31 C1.41 31.14, 0.24 11.89, -0.58 0.7" stroke="#7c3aed" stroke-width="2" fill="none"></path></g><g transform="translate(329.82005310058594 22.5) rotate(0 60.17994689941406 12.5)"><text x="60.17994689941406" y="NaN" font-family="Virgil, Segoe UI Emoji" font-size="20px" fill="#ffffff" text-anchor="middle" style="white-space: pre;" direction="ltr">Lock Service</text></g><g stroke-linecap="round"><g transform="translate(390 60) rotate(0 0 290)"><path d="M0.44 -1.14 C0.61 95.56, 0.45 482.9, 0.3 579.71" stroke="#585b70" stroke-width="1.5" fill="none" stroke-dasharray="8 9"></path></g></g><g stroke-linecap="round" transform="translate(290 640) rotate(0 100 25)"><path d="M0.61 -0.43 L201.6 0.38 L200.69 51.92 L-0.56 49.27" stroke="none" stroke-width="0" fill="#5b21b6"></path><path d="M1.47 -0.04 C48.86 -1.43, 98.96 0.54, 201.74 0.35 M0.37 -0.84 C46.33 -0.82, 94.66 -0.62, 199.44 0.56 M201.03 1.15 C198.36 14.53, 200.42 28.13, 201.36 50.73 M199.63 0.95 C199.51 13.2, 200.86 27.63, 199.64 49.47 M199.96 49.46 C133.88 50.28, 70.07 49.17, 1.52 49.75 M200.34 50.42 C123.26 51.76, 46.04 51.74, -0.36 50.67 M1.14 48.81 C1.35 40.16, -0.25 29.3, -1.76 1.87 M0.56 50.93 C-0.34 35.78, 0.12 20.53, -0.03 -0.29" stroke="#7c3aed" stroke-width="2" fill="none"></path></g><g transform="translate(329.82005310058594 652.5) rotate(0 60.17994689941406 12.5)"><text x="60.17994689941406" y="NaN" font-family="Virgil, Segoe UI Emoji" font-size="20px" fill="#ffffff" text-anchor="middle" style="white-space: pre;" direction="ltr">Lock Service</text></g><g stroke-linecap="round" transform="translate(570 10) rotate(0 100 25)"><path d="M-1.23 -1.92 L200.39 0.21 L201.33 48.18 L1.11 48.03" stroke="none" stroke-width="0" fill="#5b21b6"></path><path d="M0.93 -1.56 C44.7 1.73, 92.4 -1.19, 201.16 -0.41 M-0.14 0.53 C77.66 0.62, 154.04 1.79, 199.25 -0.86 M199.69 0.98 C200 12.38, 201.13 27.58, 198.01 48.25 M199.47 0.66 C200.26 14.78, 200.7 28.26, 199.01 49.8 M200.43 51.32 C151.73 51.07, 104.49 50.88, 1.12 51.4 M200.55 49.67 C139.53 51.74, 80.24 50.87, -0.14 50.77 M-1.74 48.7 C1.45 38.31, 1.7 30.82, 1.32 1.5 M0.74 50.23 C0.09 36.1, 1.15 21.96, 0.99 0.32" stroke="#7c3aed" stroke-width="2" fill="none"></path></g><g transform="translate(630.8300323486328 22.5) rotate(0 39.16996765136719 12.5)"><text x="39.16996765136719" y="NaN" font-family="Virgil, Segoe UI Emoji" font-size="20px" fill="#ffffff" text-anchor="middle" style="white-space: pre;" direction="ltr">Client 2</text></g><g stroke-linecap="round"><g transform="translate(670 60) rotate(0 0 290)"><path d="M0.45 -1.16 C0.29 95.76, -0.71 484.13, -0.71 581.11" stroke="#585b70" stroke-width="1.5" fill="none" stroke-dasharray="8 9"></path></g></g><g stroke-linecap="round" transform="translate(570 640) rotate(0 100 25)"><path d="M-1.51 0.29 L198.55 1.45 L198.47 51.42 L0.28 51.54" stroke="none" stroke-width="0" fill="#5b21b6"></path><path d="M1.31 0.81 C56.33 -2.66, 113.28 -2.51, 199.66 1.65 M-0.04 -0.66 C73.5 -1.24, 148.86 -1.66, 199.73 0.63 M200.88 -0.33 C200.14 13.43, 199.41 23.78, 199.6 50.03 M200.21 -0.39 C201.06 19.59, 200.76 38.3, 199.67 50.01 M200.58 48.94 C133.05 47.66, 69.36 49.62, 0.56 50.94 M200.26 50.47 C121.93 48.54, 44.06 48.81, 0.73 49.51 M0.41 49.32 C-0.01 36.41, 1.14 19.75, -1.07 0.04 M-0.42 50.5 C0.47 38.8, 0.6 28.83, 0.95 0.99" stroke="#7c3aed" stroke-width="2" fill="none"></path></g><g transform="translate(630.8300323486328 652.5) rotate(0 39.16996765136719 12.5)"><text x="39.16996765136719" y="NaN" font-family="Virgil, Segoe UI Emoji" font-size="20px" fill="#ffffff" text-anchor="middle" style="white-space: pre;" direction="ltr">Client 2</text></g><g stroke-linecap="round" transform="translate(850 10) rotate(0 100 25)"><path d="M-1.57 1.3 L200.39 1.17 L198.2 49.96 L-0.5 50.39" stroke="none" stroke-width="0" fill="#5b21b6"></path><path d="M1.09 -0.89 C54.07 -0.11, 110.58 -2.11, 201.8 0.26 M0.48 -0.32 C60.53 1.57, 121.47 0.94, 200.72 0.12 M201.02 1.31 C198.38 16.5, 199.47 37.17, 198.75 48.14 M199.07 0.26 C200.48 12.81, 200.84 24.6, 200.06 49.05 M200.65 50.91 C139.04 48.86, 80.02 49.39, 1.55 49.6 M200.36 49.12 C152.54 47.82, 104.49 48.29, 0.48 50.59 M1.76 48.63 C-0.55 35.83, 0.83 22.5, -0.22 1.75 M-0.77 50.72 C-0.59 35.53, 0.53 18.4, 0.91 0.7" stroke="#7c3aed" stroke-width="2" fill="none"></path></g><g transform="translate(911.2800369262695 22.5) rotate(0 38.71996307373047 12.5)"><text x="38.71996307373047" y="NaN" font-family="Virgil, Segoe UI Emoji" font-size="20px" fill="#ffffff" text-anchor="middle" style="white-space: pre;" direction="ltr">Storage</text></g><g stroke-linecap="round"><g transform="translate(950 60) rotate(0 0 290)"><path d="M-0.98 0.15 C-0.93 96.82, -0.06 483.73, 0.16 580.46" stroke="#585b70" stroke-width="1.5" fill="none" stroke-dasharray="8 9"></path></g></g><g stroke-linecap="round" transform="translate(850 640) rotate(0 100 25)"><path d="M-1.5 0.99 L201.18 1.07 L201.1 50.28 L1.53 48.61" stroke="none" stroke-width="0" fill="#5b21b6"></path><path d="M-0.49 -1.78 C65.89 -0.53, 135 -2.62, 201.51 1.62 M0.48 0.28 C59.1 0.18, 116.47 1.31, 200.45 0.75 M201.7 0.41 C198.52 17.06, 198.72 38.81, 199.97 50.35 M199.59 0.29 C200.75 15.48, 201.11 32.74, 200.2 50.89 M199.1 50.65 C140 48.7, 77.21 48.1, -1.07 51.43 M200.64 49.63 C154.09 49.45, 107.57 48.1, -0.14 49.69 M0.19 50.59 C-1.76 35, -0.79 15.29, -2 0.83 M0.95 50.38 C-0.18 35.37, -0.07 20.51, -0.11 -0.67" stroke="#7c3aed" stroke-width="2" fill="none"></path></g><g transform="translate(911.2800369262695 652.5) rotate(0 38.71996307373047 12.5)"><text x="38.71996307373047" y="NaN" font-family="Virgil, Segoe UI Emoji" font-size="20px" fill="#ffffff" text-anchor="middle" style="white-space: pre;" direction="ltr">Storage</text></g><g stroke-linecap="round"><g transform="translate(110 140) rotate(0 140 0)"><path d="M0.99 0.3 C47.63 -0.03, 233.96 -0.81, 280.52 -1.01 M0.05 -0.58 C46.52 -0.89, 233.23 -0.1, 279.84 0" stroke="#cdd6f4" stroke-width="2" fill="none"></path></g><g transform="translate(110 140) rotate(0 140 0)"><path d="M252.13 11.04 C259.88 6.87, 270.16 3.47, 279.46 -0.01 M251.97 10.27 C262.76 5.92, 273.12 1.86, 278.89 -0.04" stroke="#cdd6f4" stroke-width="2" fill="none"></path></g><g transform="translate(110 140) rotate(0 140 0)"><path d="M252.19 -9.49 C260.09 -6.36, 270.34 -2.46, 279.46 -0.01 M252.03 -10.25 C262.93 -6.82, 273.27 -3.09, 278.89 -0.04" stroke="#cdd6f4" stroke-width="2" fill="none"></path></g></g><g transform="translate(198.03403472900388 128.75) rotate(0 51.96596527099611 11.25)"><text x="51.965965270996094" y="NaN" font-family="Virgil, Segoe UI Emoji" font-size="18px" fill="#cdd6f4" text-anchor="middle" style="white-space: pre;" direction="ltr">Acquire lock</text></g><g stroke-linecap="round"><g transform="translate(389.0218232565255 203.50512948389286) rotate(0 -140 0)"><path d="M1.18 0.39 C-45.44 0.36, -233.13 0.39, -280.13 0.3" stroke="#cdd6f4" stroke-width="2.5" fill="none" stroke-dasharray="8 10"></path></g><g transform="translate(389.0218232565255 203.50512948389286) rotate(0 -140 0)"><path d="M-251.29 -10.16 C-258.97 -8.33, -267.25 -4.34, -278.74 0.18" stroke="#cdd6f4" stroke-width="2.5" fill="none"></path></g><g transform="translate(389.0218232565255 203.50512948389286) rotate(0 -140 0)"><path d="M-251.31 10.36 C-259.06 6.68, -267.34 5.15, -278.74 0.18" stroke="#cdd6f4" stroke-width="2.5" fill="none"></path></g></g><g transform="translate(192.5080337524414 208.75) rotate(0 57.491966247558594 22.5)"><text x="57.491966247558594" y="NaN" font-family="Virgil, Segoe UI Emoji" font-size="18px" fill="#cdd6f4" text-anchor="middle" style="white-space: pre;" direction="ltr">Lock granted</text><text x="57.491966247558594" y="NaN" font-family="Virgil, Segoe UI Emoji" font-size="18px" fill="#cdd6f4" text-anchor="middle" style="white-space: pre;" direction="ltr">(TTL=30s)</text></g><g stroke-opacity="0.85" fill-opacity="0.85" stroke-linecap="round" transform="translate(14.799999999999997 230) rotate(0 95.19999999999999 30)"><path d="M-1.65 -1.94 L189.93 -1.92 L191.55 58.91 L-0.6 58.95" stroke="none" stroke-width="0" fill="#2d6a4f"></path><path d="M0.36 1.26 C59.92 -0.14, 122.63 -0.77, 189.39 -0.62 M0.05 0.49 C61.97 1.16, 125.86 0.01, 190.32 -0.75 M189.67 -1.21 C190.86 20.32, 191.67 35.06, 191.93 59.4 M190.88 0.68 C189.91 18.09, 189.51 37.26, 189.77 59.19 M191.27 61.06 C130.08 61.68, 67 60.19, 1.14 61.52 M189.89 59.78 C144.15 57.72, 97.99 59.05, -0.05 59.25 M-0.49 59.17 C-1.6 48.15, -0.07 34.01, 0.55 1.21 M0.34 60.76 C-1.21 45.12, -0.77 29.71, -0.75 0.4" stroke="#40916c" stroke-width="2" fill="none"></path></g><g transform="translate(39.13606262207031 240) rotate(0 70.86393737792969 20)"><text x="70.86393737792969" y="NaN" font-family="Virgil, Segoe UI Emoji" font-size="16px" fill="#ffffff" text-anchor="middle" style="white-space: pre;" direction="ltr">GC pause begins...</text><text x="70.86393737792969" y="NaN" font-family="Virgil, Segoe UI Emoji" font-size="16px" fill="#ffffff" text-anchor="middle" style="white-space: pre;" direction="ltr">Client 1 is frozen</text></g><g stroke-opacity="0.85" fill-opacity="0.85" stroke-linecap="round" transform="translate(294.8 230) rotate(0 95.20000000000002 30)"><path d="M0.87 1.29 L191.67 1.65 L192.39 59.13 L-0.26 59.76" stroke="none" stroke-width="0" fill="#2d6a4f"></path><path d="M-1.46 -1.43 C76.75 2.29, 147.92 -0.28, 192.25 -1.21 M-0.89 -0.13 C69.91 1.16, 137.61 1.43, 190.99 0.47 M191.17 0.26 C188.31 15.09, 188.24 29.63, 189.95 60.63 M190.41 0.32 C189.08 19.04, 190.56 39.82, 189.81 59.14 M190.19 58.67 C135.09 61.27, 77.45 59.49, 0.52 58.59 M190.64 59.54 C118.07 60.48, 44.82 61.92, -0.74 60.46 M0.03 60.36 C-1.53 47.34, -1.65 32.71, -0.62 0.12 M-0.4 60.56 C-1.52 36.65, -0.33 13.31, -0.23 0.89" stroke="#40916c" stroke-width="2" fill="none"></path></g><g transform="translate(316.70406341552734 240) rotate(0 73.29593658447266 20)"><text x="73.29593658447266" y="NaN" font-family="Virgil, Segoe UI Emoji" font-size="16px" fill="#ffffff" text-anchor="middle" style="white-space: pre;" direction="ltr">30 seconds pass...</text><text x="73.29593658447266" y="NaN" font-family="Virgil, Segoe UI Emoji" font-size="16px" fill="#ffffff" text-anchor="middle" style="white-space: pre;" direction="ltr">Lock expires</text></g><g stroke-linecap="round"><g transform="translate(670 300) rotate(0 -140 0)"><path d="M-0.4 0.35 C-47.22 0.57, -233.92 0.39, -280.4 0.28 M1.59 -0.52 C-45.46 -0.58, -234.68 -1.92, -281.56 -1.7" stroke="#cdd6f4" stroke-width="2" fill="none"></path></g><g transform="translate(670 300) rotate(0 -140 0)"><path d="M-252.77 -12.57 C-262.6 -7.33, -273.26 -4.89, -281.12 -3.44 M-253.39 -11.52 C-259.84 -8.96, -268.07 -6.82, -280.84 -1.58" stroke="#cdd6f4" stroke-width="2" fill="none"></path></g><g transform="translate(670 300) rotate(0 -140 0)"><path d="M-252.81 7.95 C-262.45 6.19, -273.09 1.63, -281.12 -3.44 M-253.43 9 C-259.71 6.51, -267.92 3.59, -280.84 -1.58" stroke="#cdd6f4" stroke-width="2" fill="none"></path></g></g><g transform="translate(478.03403472900396 288.75) rotate(0 51.965965270996065 11.25)"><text x="51.965965270996094" y="NaN" font-family="Virgil, Segoe UI Emoji" font-size="18px" fill="#cdd6f4" text-anchor="middle" style="white-space: pre;" direction="ltr">Acquire lock</text></g><g stroke-linecap="round"><g transform="translate(390 380) rotate(0 140 0)"><path d="M-1.13 -0.44 C45.52 -0.61, 233.97 -0.92, 280.78 -0.85" stroke="#cdd6f4" stroke-width="2.5" fill="none" stroke-dasharray="8 10"></path></g><g transform="translate(390 380) rotate(0 140 0)"><path d="M251.86 10.73 C261.59 5.45, 273.43 1.11, 282.67 0.71" stroke="#cdd6f4" stroke-width="2.5" fill="none"></path></g><g transform="translate(390 380) rotate(0 140 0)"><path d="M251.85 -9.79 C261.61 -7.48, 273.45 -4.23, 282.67 0.71" stroke="#cdd6f4" stroke-width="2.5" fill="none"></path></g></g><g transform="translate(472.50803375244146 368.75) rotate(0 57.491966247558565 11.25)"><text x="57.491966247558594" y="NaN" font-family="Virgil, Segoe UI Emoji" font-size="18px" fill="#cdd6f4" text-anchor="middle" style="white-space: pre;" direction="ltr">Lock granted</text></g><g stroke-linecap="round"><g transform="translate(670 460) rotate(0 140 0)"><path d="M-0.08 -0.57 C46.8 -0.35, 233.87 1.18, 280.65 1.2 M-1.58 1.74 C45.26 1.68, 233.09 -0.11, 280.04 -0.3" stroke="#cdd6f4" stroke-width="2" fill="none"></path></g><g transform="translate(670 460) rotate(0 140 0)"><path d="M250.97 11.24 C260.8 8.58, 264.87 5.73, 279.71 -0.03 M252.62 10.26 C262.37 6.28, 273.86 1, 280.64 0.27" stroke="#cdd6f4" stroke-width="2" fill="none"></path></g><g transform="translate(670 460) rotate(0 140 0)"><path d="M250.83 -9.28 C260.66 -6.93, 264.77 -4.77, 279.71 -0.03 M252.48 -10.26 C262.39 -6.38, 273.93 -3.79, 280.64 0.27" stroke="#cdd6f4" stroke-width="2" fill="none"></path></g></g><g transform="translate(732.3210601806641 448.75) rotate(0 77.67893981933594 22.5)"><text x="77.67893981933594" y="NaN" font-family="Virgil, Segoe UI Emoji" font-size="18px" fill="#cdd6f4" text-anchor="middle" style="white-space: pre;" direction="ltr">Write data (valid</text><text x="77.67893981933594" y="NaN" font-family="Virgil, Segoe UI Emoji" font-size="18px" fill="#cdd6f4" text-anchor="middle" style="white-space: pre;" direction="ltr">lock)</text></g><g stroke-opacity="0.85" fill-opacity="0.85" stroke-linecap="round" transform="translate(23.599999999999994 470) rotate(0 86.4 30)"><path d="M1.13 -0.8 L174.51 0.2 L173.97 60.67 L-1.91 58.44" stroke="none" stroke-width="0" fill="#2d6a4f"></path><path d="M-1.42 1.04 C39.3 -1.58, 83.1 -1.11, 173.27 0.97 M0.48 0.08 C42.88 -0.91, 85.05 -0.94, 172.37 -0.19 M173.19 -0.42 C174.34 20.76, 171.51 37.9, 170.85 58.41 M172.01 -0.31 C172.26 20.23, 172.13 38.53, 173.21 60.95 M173.87 61.63 C128.8 59.26, 86.22 59.85, -0.99 61.19 M172.81 60.4 C133.6 60.05, 94.12 60.39, 0.44 60.73 M-0.34 58.51 C-1.77 44.15, 1.43 29.97, 0.85 0.52 M-0.75 60.42 C-0.44 46.37, -0.78 30.45, 0.45 0.06" stroke="#40916c" stroke-width="2" fill="none"></path></g><g transform="translate(47.70404052734375 480) rotate(0 62.29595947265625 20)"><text x="62.29595947265625" y="NaN" font-family="Virgil, Segoe UI Emoji" font-size="16px" fill="#ffffff" text-anchor="middle" style="white-space: pre;" direction="ltr">GC pause ends.</text><text x="62.29595947265625" y="NaN" font-family="Virgil, Segoe UI Emoji" font-size="16px" fill="#ffffff" text-anchor="middle" style="white-space: pre;" direction="ltr">Client 1 resumes</text></g><g stroke-linecap="round"><g transform="translate(110 540) rotate(0 420 0)"><path d="M0.62 -1.04 C140.84 -1.09, 700.96 -0.16, 840.96 -0.05 M-0.51 1.02 C139.66 1.16, 700.4 1.52, 840.52 1.47" stroke="#cdd6f4" stroke-width="2" fill="none"></path></g><g transform="translate(110 540) rotate(0 420 0)"><path d="M810.58 13.32 C819.9 9.84, 826.99 4.01, 839.36 1.21 M811.42 11.46 C818.86 8.29, 826.73 6.38, 840.29 2.29" stroke="#cdd6f4" stroke-width="2" fill="none"></path></g><g transform="translate(110 540) rotate(0 420 0)"><path d="M810.59 -7.2 C819.94 -5.1, 827.03 -5.35, 839.36 1.21 M811.42 -9.06 C818.89 -7.06, 826.75 -3.81, 840.29 2.29" stroke="#cdd6f4" stroke-width="2" fill="none"></path></g></g><g transform="translate(422.76506805419916 528.75) rotate(0 107.23493194580081 11.25)"><text x="107.23493194580078" y="NaN" font-family="Virgil, Segoe UI Emoji" font-size="18px" fill="#cdd6f4" text-anchor="middle" style="white-space: pre;" direction="ltr">Write data (stale lock!)</text></g><g stroke-opacity="0.85" fill-opacity="0.85" stroke-linecap="round" transform="translate(775.6 550) rotate(0 174.40000000000003 30)"><path d="M0.17 1.61 L347.69 0.42 L349.17 61.88 L0.42 58.4" stroke="none" stroke-width="0" fill="#2d6a4f"></path><path d="M-1.11 1.19 C81.9 -0.94, 164.58 -1.28, 348.03 -0.95 M-0.38 0.48 C114.66 -1.06, 229.42 -1.09, 349.27 -0.5 M349.39 -0.1 C347.12 14.9, 348.96 25.27, 349.88 58.11 M349.4 -0.77 C349.17 17.9, 348.83 36.92, 348.4 60.59 M348.34 61.26 C265.56 62.7, 180.88 62.48, -0.52 60.31 M348.36 59.7 C262.3 59.43, 175.16 59.07, 0.26 60.06 M1.02 59.44 C-2.29 39.76, 0.37 18.09, 1.05 1.17 M-0.03 60.77 C0.67 45, 0.57 30.29, -0.66 -0.33" stroke="#40916c" stroke-width="2" fill="none"></path></g><g transform="translate(813.6880798339844 560) rotate(0 136.31192016601562 20)"><text x="136.31192016601562" y="NaN" font-family="Virgil, Segoe UI Emoji" font-size="16px" fill="#ffffff" text-anchor="middle" style="white-space: pre;" direction="ltr">DATA CORRUPTION</text><text x="136.31192016601562" y="NaN" font-family="Virgil, Segoe UI Emoji" font-size="16px" fill="#ffffff" text-anchor="middle" style="white-space: pre;" direction="ltr">Client 1 overwrites Client 2's write</text></g></svg>