<svg version="1.1" xmlns="http://www.w3.org/2000/svg" viewBox="0 0 740 835" width="740" height="835">
  <!-- svg-source:excalidraw -->
  
  <defs>
    <style>
      @font-face {
        font-family: "Virgil";
        src: url("https://excalidraw.com/Virgil.woff2");
      }
      @font-face {
        font-family: "Cascadia";
        src: url("https://excalidraw.com/Cascadia.woff2");
      }
    </style>
  </defs>
  <rect x="0" y="0" width="740" height="835" fill="#1e1e2e"></rect><g stroke-opacity="0.6" fill-opacity="0.6" stroke-linecap="round" transform="translate(10 296) rotate(0 156.5 121.5)"><path d="M1.18 -0.33 L313.21 -1.74 L313.95 241.21 L-0.65 244.04" stroke="none" stroke-width="0" fill="#181825"></path><path d="M0.86 0.04 C86.3 0.61, 176.37 1.59, 313.72 0.98 M312.47 1.54 C314.44 66.29, 312.64 130.9, 312.76 242.54 M311.7 241.67 C193 245.74, 71.46 243.71, 1.33 241.73 M-1.61 243.39 C-0.43 156.82, -0.89 71.47, 0.83 -0.88" stroke="#45475a" stroke-width="2.5" fill="none" stroke-dasharray="8 10"></path></g><g transform="translate(26 306) rotate(0 24.34497833251953 11.25)"><text x="0" y="NaN" font-family="Virgil, Segoe UI Emoji" font-size="18px" fill="#a6adc8" text-anchor="start" style="white-space: pre;" direction="ltr">Client</text></g><g stroke-opacity="0.6" fill-opacity="0.6" stroke-linecap="round" transform="translate(430 10) rotate(0 150 407.5)"><path d="M0.58 1.38 L300.2 -1.5 L300.43 815.66 L1.16 816.28" stroke="none" stroke-width="0" fill="#181825"></path><path d="M-0.05 0.32 C77.2 -2.27, 152.48 -2.91, 299.52 -1.45 M300.67 0.64 C301.57 267.99, 301.44 536.87, 300.49 814.25 M299.68 815.74 C188.68 811.74, 78.88 813.87, 1.04 816.22 M0.16 814.56 C-0.61 528.9, -0.25 243.9, 0.75 0.39" stroke="#45475a" stroke-width="2.5" fill="none" stroke-dasharray="8 10"></path></g><g transform="translate(446 20) rotate(0 120.59990692138672 11.25)"><text x="0" y="NaN" font-family="Virgil, Segoe UI Emoji" font-size="18px" fill="#a6adc8" text-anchor="start" style="white-space: pre;" direction="ltr">Independent Redis Masters</text></g><g stroke-linecap="round" transform="translate(70 406) rotate(0 96.5 36.5)"><path d="M0.89 1.97 L194 0.47 L191.82 71.08 L-1.78 72.07" stroke="none" stroke-width="0" fill="#2d6a4f"></path><path d="M-0.66 1.68 C71.89 1.34, 147.91 -0.85, 193.07 1.06 M-0.65 0.78 C57.57 0.85, 113.93 1, 192.88 0.71 M192.92 0.65 C194.7 26.1, 190.86 50.5, 191.79 74.39 M193.13 0.6 C192.19 22.94, 191.89 46.84, 193.25 73.54 M193.49 71.84 C136.54 73.45, 79.72 72.67, -1.52 73.3 M193.27 73.26 C139.81 73.22, 84.22 74.14, -0.71 73.63 M-1.68 73.08 C-1.86 54.29, -1.68 37.2, -0.7 0.63 M-0.71 72.98 C-1.27 47.69, -0.6 23.5, -0.77 0.02" stroke="#40916c" stroke-width="2" fill="none"></path></g><g transform="translate(113.03004455566406 430) rotate(0 53.46995544433594 12.5)"><text x="53.46995544433594" y="NaN" font-family="Virgil, Segoe UI Emoji" font-size="20px" fill="#fff" text-anchor="middle" style="white-space: pre;" direction="ltr">Lock Client</text></g><g stroke-linecap="round" transform="translate(490 120) rotate(0 90 36.5)"><path d="M1.37 0.5 L180.4 0.01 L179.34 74.18 L1.23 72.59" stroke="none" stroke-width="0" fill="#5b21b6"></path><path d="M1.5 -1.18 C40.29 0.35, 84.54 1.9, 180.92 -0.8 M0.57 -0.26 C53.52 0.95, 107.42 0.69, 180 -0.84 M179.55 0.44 C180.6 25.73, 178.17 46.89, 180.79 73.29 M180.67 -0.31 C179.53 16.74, 181.22 32.83, 180.57 73.84 M181.39 74.1 C131.65 74.15, 87.17 71.99, 0.97 74.19 M179.68 73.8 C114.25 71.94, 49.65 73.7, 0.3 73.33 M-1.45 73.67 C-0.51 48.12, -0.32 25.07, -1.1 -1.12 M0.92 72.41 C-0.52 44.61, 0.25 17.26, 0.48 -0.73" stroke="#7c3aed" stroke-width="2" fill="none"></path></g><g transform="translate(546.7300262451172 144) rotate(0 33.26997375488281 12.5)"><text x="33.26997375488281" y="NaN" font-family="Virgil, Segoe UI Emoji" font-size="20px" fill="#fff" text-anchor="middle" style="white-space: pre;" direction="ltr">Redis 1</text></g><g stroke-linecap="round" transform="translate(490 263) rotate(0 90 36.5)"><path d="M0.16 1.6 L180.54 -1.5 L181.04 73.25 L1.13 71.67" stroke="none" stroke-width="0" fill="#5b21b6"></path><path d="M-0.29 0.47 C40.04 2.9, 80.88 2.05, 179.52 0.97 M0.14 0.58 C46.11 -2.1, 93.8 -1.68, 180.31 0.48 M180.93 -1.51 C181.39 20.06, 178.74 39.23, 178.14 73.91 M179.14 -0.02 C180.63 17.01, 180.67 35.93, 179.38 73.26 M180.52 71.65 C128.51 73.36, 81.95 75.62, -1.68 74.45 M180.32 72.66 C134.23 74.77, 89.81 74.33, 0.93 73.17 M1.67 72.58 C-0.4 46.65, -0.77 22.69, 0.43 1.87 M0.19 73.11 C0.32 55.85, -1.02 37.8, -0.24 -0.25" stroke="#7c3aed" stroke-width="2" fill="none"></path></g><g transform="translate(542.3200302124023 287) rotate(0 37.679969787597656 12.5)"><text x="37.679969787597656" y="NaN" font-family="Virgil, Segoe UI Emoji" font-size="20px" fill="#fff" text-anchor="middle" style="white-space: pre;" direction="ltr">Redis 2</text></g><g stroke-linecap="round" transform="translate(490 406) rotate(0 90 36.5)"><path d="M0.93 0.97 L180.09 -0.43 L179.82 71.97 L-1.79 71.1" stroke="none" stroke-width="0" fill="#5b21b6"></path><path d="M0.46 -1.71 C57.21 -2.65, 117.87 -2.02, 179.33 -1.19 M-0.34 -0.73 C60.02 -0.21, 120.63 0.27, 179.25 0.16 M178.7 1.77 C180.28 25.54, 179.74 47.78, 181.52 73.04 M179.29 0.7 C181.05 29.71, 180.61 58.17, 179.66 72.73 M181.02 73.66 C118.99 70.56, 59.62 73.75, -1.2 71.38 M179.37 73.04 C142.51 71.6, 104.94 73.32, 0.43 73.66 M1.23 73.05 C0.68 55.51, -2.02 34.66, -1.46 0.57 M-0.07 73.01 C-1.16 53.27, -1.08 33.09, 0.63 0.97" stroke="#7c3aed" stroke-width="2" fill="none"></path></g><g transform="translate(542.6300277709961 430) rotate(0 37.369972229003906 12.5)"><text x="37.369972229003906" y="NaN" font-family="Virgil, Segoe UI Emoji" font-size="20px" fill="#fff" text-anchor="middle" style="white-space: pre;" direction="ltr">Redis 3</text></g><g stroke-linecap="round" transform="translate(490 549) rotate(0 90 36.5)"><path d="M0.88 -1.46 L181.88 -1.31 L180.05 73.48 L-1.33 73.63" stroke="none" stroke-width="0" fill="#1e40af"></path><path d="M1.91 1.24 C62.48 -2.57, 127.73 0.35, 179.09 -0.72 M-0.92 0.94 C55.87 -1.76, 114.07 -2.47, 179.63 0.49 M180.12 -0.18 C180.89 20.91, 178.53 43.37, 181.71 73.59 M180.91 0.01 C180 17.71, 179.8 34.3, 179.71 73.62 M178.34 72.26 C125.64 70.4, 70.81 70.66, -1.13 72.47 M180.3 72.88 C129.8 73.99, 78.88 74.42, 0.96 73.76 M0.54 71.83 C-0.69 51.72, 0.68 30.06, -1.75 -1 M0.04 72.4 C-0.75 48.65, 0.08 25.26, -0.02 0.92" stroke="#3b82f6" stroke-width="2" fill="none"></path></g><g transform="translate(543.0400314331055 573) rotate(0 36.95996856689453 12.5)"><text x="36.95996856689453" y="NaN" font-family="Virgil, Segoe UI Emoji" font-size="20px" fill="#fff" text-anchor="middle" style="white-space: pre;" direction="ltr">Redis 4</text></g><g stroke-linecap="round" transform="translate(490 692) rotate(0 90 36.5)"><path d="M1.07 -1.71 L181.14 -1.43 L181.87 73.29 L0.69 73.68" stroke="none" stroke-width="0" fill="#1e40af"></path><path d="M1.97 -1.04 C63.65 -0.65, 129.76 -0.61, 179.17 1.9 M0.17 0.36 C39.23 0.33, 77.34 -0.04, 181 -0.87 M178.34 -1.83 C179.65 26.33, 177.95 53.68, 181.96 71.02 M179.47 0.62 C180.22 27.15, 180.5 55.32, 180.59 72.41 M181.62 74.23 C112.42 74.39, 45.23 74.24, -1.71 71.02 M180.59 73.16 C110.13 75.54, 42.99 75.32, 0.64 72.94 M-0.82 71.86 C-1.04 48.53, 1.74 22.36, -1.68 0.08 M0.2 73.71 C-0.13 55.66, -0.42 38.34, 0.81 0.32" stroke="#3b82f6" stroke-width="2" fill="none"></path></g><g transform="translate(543.2600326538086 716) rotate(0 36.739967346191406 12.5)"><text x="36.739967346191406" y="NaN" font-family="Virgil, Segoe UI Emoji" font-size="20px" fill="#fff" text-anchor="middle" style="white-space: pre;" direction="ltr">Redis 5</text></g><g stroke-linecap="round"><g transform="translate(269 427.27431634371675) rotate(0 107.5 -127.54926637609802)"><path d="M-0.29 -0.33 C35.46 -42.71, 179.76 -212.09, 215.45 -254.4 M1.75 -1.54 C37.31 -44.27, 179.01 -213.74, 214.74 -256.15" stroke="#40916c" stroke-width="2" fill="none"></path></g><g transform="translate(269 427.27431634371675) rotate(0 107.5 -127.54926637609802)"><path d="M203.94 -227.21 C209.52 -240.49, 213.79 -249.15, 216.07 -254.9 M204.57 -227.49 C207.71 -235.28, 208.73 -242.62, 215.69 -256.06" stroke="#40916c" stroke-width="2" fill="none"></path></g><g transform="translate(269 427.27431634371675) rotate(0 107.5 -127.54926637609802)"><path d="M188.22 -240.4 C199.7 -248.69, 209.88 -252.38, 216.07 -254.9 M188.85 -240.68 C195.9 -245.26, 200.76 -249.37, 215.69 -256.06" stroke="#40916c" stroke-width="2" fill="none"></path></g></g><g transform="translate(326.1000213623047 288.25) rotate(0 50.39997863769531 11.25)"><text x="50.39997863769531" y="NaN" font-family="Virgil, Segoe UI Emoji" font-size="18px" fill="#cdd6f4" text-anchor="middle" style="white-space: pre;" direction="ltr">SET NX EX</text></g><g stroke-linecap="round"><g transform="translate(269 433.3883174381573) rotate(0 107.49999999999999 -62.25628753218275)"><path d="M-0.54 -0.34 C35.24 -21.24, 179.07 -104.63, 215.02 -125.25 M1.38 -1.57 C36.98 -22.34, 178.56 -103.34, 214.09 -124.09" stroke="#40916c" stroke-width="2" fill="none"></path></g><g transform="translate(269 433.3883174381573) rotate(0 107.49999999999999 -62.25628753218275)"><path d="M194.23 -101.07 C199.88 -108.24, 208.27 -116.06, 213.76 -124.55 M195.61 -101.49 C200.02 -107.05, 205.05 -111.66, 215.04 -124.17" stroke="#40916c" stroke-width="2" fill="none"></path></g><g transform="translate(269 433.3883174381573) rotate(0 107.49999999999999 -62.25628753218275)"><path d="M183.97 -118.85 C193.02 -120.12, 204.78 -122.11, 213.76 -124.55 M185.35 -119.26 C192.06 -120.53, 199.54 -120.93, 215.04 -124.17" stroke="#40916c" stroke-width="2" fill="none"></path></g></g><g transform="translate(326.1000213623047 359.75) rotate(0 50.39997863769531 11.25)"><text x="50.39997863769531" y="NaN" font-family="Virgil, Segoe UI Emoji" font-size="18px" fill="#cdd6f4" text-anchor="middle" style="white-space: pre;" direction="ltr">SET NX EX</text></g><g stroke-linecap="round"><g transform="translate(269 442.5073) rotate(0 107.49999999999997 0)"><path d="M-0.09 -0.12 C35.93 -0.27, 179.98 0.11, 215.88 0.1 M-1.6 -1.23 C34.36 -1.25, 179.34 1.31, 215.4 1.7" stroke="#40916c" stroke-width="2" fill="none"></path></g><g transform="translate(269 442.5073) rotate(0 107.49999999999997 0)"><path d="M186.86 13.02 C195.16 9.36, 202.76 5.63, 215.51 3.26 M187.06 11.34 C196.7 7.77, 207.8 3.66, 215.14 1.45" stroke="#40916c" stroke-width="2" fill="none"></path></g><g transform="translate(269 442.5073) rotate(0 107.49999999999997 0)"><path d="M187.16 -7.5 C195.54 -5.36, 203.05 -3.29, 215.51 3.26 M187.35 -9.17 C196.86 -5.24, 207.86 -1.83, 215.14 1.45" stroke="#40916c" stroke-width="2" fill="none"></path></g></g><g transform="translate(326.1000213623047 431.25) rotate(0 50.39997863769531 11.25)"><text x="50.39997863769531" y="NaN" font-family="Virgil, Segoe UI Emoji" font-size="18px" fill="#cdd6f4" text-anchor="middle" style="white-space: pre;" direction="ltr">SET NX EX</text></g><g stroke-linecap="round"><g transform="translate(269 451.60935572324024) rotate(0 107.5 62.25631562908313)"><path d="M0.72 -0.52 C36.39 20.18, 178.28 102.83, 213.84 123.56 M-0.35 1.82 C35.68 22.7, 179.79 104.09, 215.94 124.59" stroke="#40916c" stroke-width="2" fill="none"></path></g><g transform="translate(269 451.60935572324024) rotate(0 107.5 62.25631562908313)"><path d="M185.49 117.7 C193.23 119.4, 202.22 120.84, 216.66 125.65 M187.01 120.08 C197.8 122.51, 209.37 123.4, 215.46 124.79" stroke="#40916c" stroke-width="2" fill="none"></path></g><g transform="translate(269 451.60935572324024) rotate(0 107.5 62.25631562908313)"><path d="M195.6 99.84 C200.34 106.73, 206.43 113.3, 216.66 125.65 M197.11 102.22 C204.18 111.36, 211.92 119.02, 215.46 124.79" stroke="#40916c" stroke-width="2" fill="none"></path></g></g><g transform="translate(326.1000213623047 502.75) rotate(0 50.39997863769531 11.25)"><text x="50.39997863769531" y="NaN" font-family="Virgil, Segoe UI Emoji" font-size="18px" fill="#cdd6f4" text-anchor="middle" style="white-space: pre;" direction="ltr">SET NX EX</text></g><g stroke-linecap="round"><g transform="translate(269 457.7240825942338) rotate(0 107.5 127.54927682155832)"><path d="M-0.3 0.45 C35.55 42.74, 179.59 212.24, 215.53 254.67 M1.75 -0.36 C37.45 42.01, 179.35 213.21, 214.85 255.98" stroke="#40916c" stroke-width="2" fill="none"></path></g><g transform="translate(269 457.7240825942338) rotate(0 107.5 127.54927682155832)"><path d="M189.71 241.71 C197.06 246.54, 206.32 249.98, 215.02 256.53 M188.58 241.03 C195.8 245.34, 203.32 248.31, 214.29 255.81" stroke="#40916c" stroke-width="2" fill="none"></path></g><g transform="translate(269 457.7240825942338) rotate(0 107.5 127.54927682155832)"><path d="M205.5 228.61 C207.65 237.8, 211.61 245.64, 215.02 256.53 M204.37 227.93 C207.48 235.79, 210.75 242.28, 214.29 255.81" stroke="#40916c" stroke-width="2" fill="none"></path></g></g><g transform="translate(326.1000213623047 574.25) rotate(0 50.39997863769531 11.25)"><text x="50.39997863769531" y="NaN" font-family="Virgil, Segoe UI Emoji" font-size="18px" fill="#cdd6f4" text-anchor="middle" style="white-space: pre;" direction="ltr">SET NX EX</text></g></svg>