<svg version="1.1" xmlns="http://www.w3.org/2000/svg" viewBox="0 0 1380 545" width="1380" height="545">
  <!-- svg-source:excalidraw -->
  
  <defs>
    <style>
      @font-face {
        font-family: "Virgil";
        src: url("https://excalidraw.com/Virgil.woff2");
      }
      @font-face {
        font-family: "Cascadia";
        src: url("https://excalidraw.com/Cascadia.woff2");
      }
    </style>
  </defs>
  <rect x="0" y="0" width="1380" height="545" fill="#0d1117"></rect><g transform="translate(10 10) rotate(0 399.74981689453125 16.25)"><text x="0" y="NaN" font-family="Virgil, Segoe UI Emoji" font-size="26px" fill="#ff8c42" text-anchor="start" style="white-space: pre;" direction="ltr">Choreography: Events Chain Services Through a Shared Broker</text></g><g transform="translate(10 47) rotate(0 426.6232604980469 21.25)"><text x="0" y="NaN" font-family="Virgil, Segoe UI Emoji" font-size="17px" fill="#c9d1d9" text-anchor="start" style="white-space: pre;" direction="ltr">No central coordinator. Each service emits an event after its local commit; the next service is wired</text><text x="0" y="NaN" font-family="Virgil, Segoe UI Emoji" font-size="17px" fill="#c9d1d9" text-anchor="start" style="white-space: pre;" direction="ltr">to subscribe. Adding a step means rewiring N services — the flow is implicit in the subscriptions.</text></g><g stroke-linecap="round" transform="translate(50 115) rotate(0 120 45)"><path d="M-0.95 -1.56 L240.23 -0.65 L241.56 91.31 L-1.04 91.39" stroke="none" stroke-width="0" fill="#1f4d2b"></path><path d="M-1.6 0.45 C95.03 -0.37, 193.07 -0.62, 238.87 1.66 M-0.71 0.75 C51.15 -1.56, 101.62 -1.32, 240.15 -0.28 M241.34 1.29 C240.34 26.36, 240.85 54.77, 241.74 91.01 M240.39 -0.41 C240.21 26.99, 240.01 54.83, 239.68 89.42 M238.98 88.41 C163.57 90.49, 89.04 91.54, 0.51 89.18 M239.51 90.4 C185.06 89.63, 131.63 91.17, -0.7 90.36 M1.57 88.52 C0.47 67.94, 0.7 44.97, 1.5 -1.86 M-0.34 90.7 C1.08 62.99, 1.12 35.81, 0.1 -0.71" stroke="#3fb950" stroke-width="2" fill="none"></path></g><g transform="translate(104.22006225585938 147.5) rotate(0 65.77993774414062 12.5)"><text x="65.77993774414062" y="NaN" font-family="Virgil, Segoe UI Emoji" font-size="20px" fill="#ffffff" text-anchor="middle" style="white-space: pre;" direction="ltr">Order Service</text></g><g stroke-linecap="round" transform="translate(410 115) rotate(0 120 45)"><path d="M0.33 -0.03 L241.22 0.21 L240.91 91.24 L-1.34 89.53" stroke="none" stroke-width="0" fill="#3a1d6e"></path><path d="M-0.17 -1.31 C89.25 1.75, 176.25 2.7, 239.92 -1.64 M0.3 -0.57 C52.6 2.25, 105.04 2.44, 240.35 -0.41 M240.27 -0.13 C239.4 19.17, 240.26 38.31, 239.5 88.55 M240.19 -0.28 C241.2 26.08, 239.89 52.53, 240.15 90.09 M240.62 89.68 C152.51 91.46, 68.71 92.31, -1.62 89.54 M239.89 90.02 C175.03 90.99, 108.58 90.82, 0.63 89.77 M1.97 89.96 C1.98 64.72, 0.59 38.94, 0.7 0.09 M0.83 89.53 C-0.24 69.74, 0.57 47.96, 0.47 -0.03" stroke="#a371f7" stroke-width="2" fill="none"></path></g><g transform="translate(451.1500701904297 147.5) rotate(0 78.84992980957031 12.5)"><text x="78.84992980957031" y="NaN" font-family="Virgil, Segoe UI Emoji" font-size="20px" fill="#ffffff" text-anchor="middle" style="white-space: pre;" direction="ltr">Payment Service</text></g><g stroke-linecap="round" transform="translate(770 115) rotate(0 120 45)"><path d="M1.09 1.3 L241.64 -1.16 L241.8 89.17 L-0.39 89.59" stroke="none" stroke-width="0" fill="#0d2c5a"></path><path d="M-1.18 0.18 C58.03 -2.3, 118.25 -2.23, 239.44 -0.83 M-0.28 -0.22 C94.9 -0.47, 189.51 0.39, 240.5 -0.37 M239.97 1.75 C242.6 33.75, 239.22 65.78, 239.93 90.7 M240.89 -0.59 C239.73 32.68, 240.31 64.42, 239.35 90.13 M241.46 90.56 C156.24 91.11, 71.42 91.34, 0.83 89.08 M239.55 90.68 C167.77 91.52, 96.66 91.41, 0.06 89.28 M1.05 89.63 C1.2 63.67, 1.83 39.54, -1.64 1.64 M-0.39 90.21 C0.3 57.61, -0.32 22.5, 0.91 -0.89" stroke="#58a6ff" stroke-width="2" fill="none"></path></g><g transform="translate(805.5700759887695 147.5) rotate(0 84.42992401123047 12.5)"><text x="84.42992401123047" y="NaN" font-family="Virgil, Segoe UI Emoji" font-size="20px" fill="#ffffff" text-anchor="middle" style="white-space: pre;" direction="ltr">Inventory Service</text></g><g stroke-linecap="round" transform="translate(1130 115) rotate(0 120 45)"><path d="M0.75 -1.02 L241.08 1.34 L241.17 89.02 L1.64 89.6" stroke="none" stroke-width="0" fill="#3a5d1d"></path><path d="M-1.48 1.59 C81.03 1.72, 165.49 -0.56, 239.09 -0.04 M-0.15 0.58 C51.35 1.78, 104.41 1.61, 240.55 0.18 M239.63 1.11 C239.19 21.37, 237.74 42.08, 241.67 91.87 M240.25 0.63 C239.29 26.34, 240.6 50.68, 240.25 90.74 M240.19 90.71 C161.02 89.9, 79.22 89.62, -0.35 88.41 M240.1 89.78 C148.46 90.12, 57.31 90.16, 0.11 90.34 M1.8 90.39 C1.03 60.06, -2.11 29.23, 0.96 -1.56 M0.59 89.43 C0.07 66.48, 0.5 40.23, 0.97 0.8" stroke="#6dbf3a" stroke-width="2" fill="none"></path></g><g transform="translate(1176.3000793457031 147.5) rotate(0 73.69992065429688 12.5)"><text x="73.69992065429688" y="NaN" font-family="Virgil, Segoe UI Emoji" font-size="20px" fill="#ffffff" text-anchor="middle" style="white-space: pre;" direction="ltr">Shipping Service</text></g><g stroke-linecap="round" transform="translate(30 455) rotate(0 670 40)"><path d="M-1.24 -0.42 L1338.64 -0.05 L1339.65 78.1 L-0.53 78.61" stroke="none" stroke-width="0" fill="#5c3a10"></path><path d="M-0.02 -0.3 C513.17 0.32, 1026.13 0.71, 1340.66 0.79 M-0.17 0.23 C504.94 -5.35, 1009.69 -4.82, 1340.38 0.35 M1341.78 -1.24 C1341.13 29.75, 1342.74 57.78, 1339.73 78.23 M1340.92 0.16 C1339.57 28.12, 1339.84 57.5, 1339.99 79.07 M1340.04 79.2 C815.94 79.2, 292.87 78.24, -0.22 79.81 M1340.18 79.83 C1057.23 79.83, 775.02 79.72, 0.35 79.93 M-1.56 81.51 C1.61 61.73, 0.47 43.27, -0.35 1.37 M-0.19 79.44 C1.1 60.48, 0.42 42.62, -0.48 -0.36" stroke="#f0883e" stroke-width="3" fill="none"></path></g><g transform="translate(485.4601745605469 482.5) rotate(0 214.53982543945312 12.5)"><text x="214.53982543945312" y="NaN" font-family="Virgil, Segoe UI Emoji" font-size="20px" fill="#ffffff" text-anchor="middle" style="white-space: pre;" direction="ltr">Message Broker (Kafka / RabbitMQ topics)</text></g><g stroke-linecap="round"><g transform="translate(170.46818664187026 211) rotate(0 9.76590667906487 120)"><path d="M0.88 0.33 C2.71 23.79, 6.89 101.89, 9.84 141.76 C12.79 181.63, 16.91 223.26, 18.59 239.55 M-0.11 -0.55 C2.21 22.5, 8.72 99.9, 12.24 140.09 C15.76 180.29, 19.63 223.92, 20.98 240.63" stroke="#3fb950" stroke-width="3" fill="none"></path></g><g transform="translate(170.46818664187026 211) rotate(0 9.76590667906487 120)"><path d="M8.92 212.42 C12.63 217.34, 13.04 225.15, 20.14 240.52 M7.59 213.06 C10.26 219.7, 14.15 225.55, 21.08 240.76" stroke="#3fb950" stroke-width="3" fill="none"></path></g><g transform="translate(170.46818664187026 211) rotate(0 9.76590667906487 120)"><path d="M29.37 210.68 C28.87 216.12, 25.07 224.28, 20.14 240.52 M28.03 211.33 C26.22 218.36, 25.63 224.59, 21.08 240.76" stroke="#3fb950" stroke-width="3" fill="none"></path></g></g><g transform="translate(77.66571260033584 318.5) rotate(0 102.58989715576172 12.5)"><text x="102.58989715576172" y="NaN" font-family="Virgil, Segoe UI Emoji" font-size="20px" fill="#2f9e44" text-anchor="middle" style="white-space: pre;" direction="ltr">publish OrderCreated</text></g><g stroke-linecap="round"><g transform="translate(346.27615588612485 448.5) rotate(0 63.94068678144694 -118.75)"><path d="M0.43 1.04 C13.98 -25.26, 60.55 -117.93, 81.9 -157.74 C103.24 -197.56, 120.78 -224.42, 128.52 -237.85 M-0.81 0.53 C12.61 -25.61, 59.86 -116.95, 81.34 -156.49 C102.82 -196.03, 120.17 -223.19, 128.09 -236.72" stroke="#3fb950" stroke-width="3" fill="none"></path></g><g transform="translate(346.27615588612485 448.5) rotate(0 63.94068678144694 -118.75)"><path d="M124.06 -206.03 C123.42 -216.47, 125.74 -227.01, 126.74 -235.27 M122.35 -207.51 C124.58 -214.23, 125.18 -222.12, 128.3 -236.82" stroke="#3fb950" stroke-width="3" fill="none"></path></g><g transform="translate(346.27615588612485 448.5) rotate(0 63.94068678144694 -118.75)"><path d="M106.48 -216.62 C111.96 -223.44, 120.39 -230.3, 126.74 -235.27 M104.77 -218.1 C111.33 -222.04, 116.3 -227.29, 128.3 -236.82" stroke="#3fb950" stroke-width="3" fill="none"></path></g></g><g transform="translate(328.39368459219304 350) rotate(0 66.7099380493164 25)"><text x="66.7099380493164" y="NaN" font-family="Virgil, Segoe UI Emoji" font-size="20px" fill="#2f9e44" text-anchor="middle" style="white-space: pre;" direction="ltr">subscribe →</text><text x="66.7099380493164" y="NaN" font-family="Virgil, Segoe UI Emoji" font-size="20px" fill="#2f9e44" text-anchor="middle" style="white-space: pre;" direction="ltr">OrderCreated</text></g><g stroke-linecap="round"><g transform="translate(532.4298498701601 211) rotate(0 48.785075064919965 120)"><path d="M0.38 0.88 C11.27 28.71, 49.1 126.52, 65.46 166.4 C81.82 206.28, 93.26 227.77, 98.54 240.16 M-0.88 0.29 C10.35 28.39, 51.02 127.81, 67.55 168.02 C84.07 208.24, 93.35 229.8, 98.29 241.56" stroke="#58a6ff" stroke-width="3" fill="none"></path></g><g transform="translate(532.4298498701601 211) rotate(0 48.785075064919965 120)"><path d="M79.32 217.6 C84.36 227.94, 90.65 232.43, 99.51 241.79 M77.48 220.13 C82.91 226.41, 88.01 231.87, 99.2 241.13" stroke="#58a6ff" stroke-width="3" fill="none"></path></g><g transform="translate(532.4298498701601 211) rotate(0 48.785075064919965 120)"><path d="M98.22 209.61 C97.37 222.48, 97.82 229.44, 99.51 241.79 M96.38 212.13 C96.81 220.59, 96.84 228.2, 99.2 241.13" stroke="#58a6ff" stroke-width="3" fill="none"></path></g></g><g transform="translate(492.99130557176545 306) rotate(0 88.23991394042969 25)"><text x="88.23991394042969" y="NaN" font-family="Virgil, Segoe UI Emoji" font-size="20px" fill="#1971c2" text-anchor="middle" style="white-space: pre;" direction="ltr">publish</text><text x="88.23991394042969" y="NaN" font-family="Virgil, Segoe UI Emoji" font-size="20px" fill="#1971c2" text-anchor="middle" style="white-space: pre;" direction="ltr">PaymentCompleted</text></g><g stroke-linecap="round"><g transform="translate(763.0507736939552 448.49999999999994) rotate(0 45.21160606849418 -118.74999999999996)"><path d="M-0.38 -0.78 C14.88 -40.27, 76.34 -197.66, 91.39 -237.3 M1.62 1.42 C16.82 -38.43, 76.4 -199.43, 90.95 -239.32" stroke="#58a6ff" stroke-width="3" fill="none"></path></g><g transform="translate(763.0507736939552 448.49999999999994) rotate(0 45.21160606849418 -118.74999999999996)"><path d="M89.54 -207.71 C91.29 -218.73, 89.14 -228.3, 92.27 -238.19 M89.89 -208.92 C91.52 -215.58, 90.14 -223.21, 90.93 -239.25" stroke="#58a6ff" stroke-width="3" fill="none"></path></g><g transform="translate(763.0507736939552 448.49999999999994) rotate(0 45.21160606849418 -118.74999999999996)"><path d="M70.28 -214.79 C77.52 -223.73, 80.88 -231.27, 92.27 -238.19 M70.63 -216.01 C76.57 -221.06, 79.51 -227.1, 90.93 -239.25" stroke="#58a6ff" stroke-width="3" fill="none"></path></g></g><g transform="translate(715.9203124746646 350) rotate(0 88.23991394042969 25)"><text x="88.23991394042969" y="NaN" font-family="Virgil, Segoe UI Emoji" font-size="20px" fill="#1971c2" text-anchor="middle" style="white-space: pre;" direction="ltr">subscribe →</text><text x="88.23991394042969" y="NaN" font-family="Virgil, Segoe UI Emoji" font-size="20px" fill="#1971c2" text-anchor="middle" style="white-space: pre;" direction="ltr">PaymentCompleted</text></g><g stroke-linecap="round"><g transform="translate(894.4173093027205 211) rotate(0 87.79134534863977 120)"><path d="M0.28 -0.55 C21.06 28.16, 94.79 131.26, 124.06 171.54 C153.34 211.83, 167.47 229.85, 175.91 241.14 M-1.04 1.77 C20.2 30.25, 97.02 130.43, 126.41 170.03 C155.81 209.64, 167.3 227.74, 175.32 239.4" stroke="#f0883e" stroke-width="3" fill="none"></path></g><g transform="translate(894.4173093027205 211) rotate(0 87.79134534863977 120)"><path d="M150.11 220.64 C158.83 226.6, 164.74 228.94, 174.12 238.13 M150.21 220.93 C158.83 227.28, 164.53 232.27, 175.11 239.06" stroke="#f0883e" stroke-width="3" fill="none"></path></g><g transform="translate(894.4173093027205 211) rotate(0 87.79134534863977 120)"><path d="M167.11 209.15 C171.59 217.97, 173.33 223.13, 174.12 238.13 M167.21 209.43 C171.21 218.99, 172.18 227.18, 175.11 239.06" stroke="#f0883e" stroke-width="3" fill="none"></path></g></g><g transform="translate(875.3269388263982 318.5) rotate(0 106.87989044189453 12.5)"><text x="106.87989044189453" y="NaN" font-family="Virgil, Segoe UI Emoji" font-size="20px" fill="#f08c00" text-anchor="middle" style="white-space: pre;" direction="ltr">publish StockReserved</text></g><g stroke-linecap="round"><g transform="translate(1198.8286231525458 455.81392690039854) rotate(0 24.985337536994393 -122.40696345019927)"><path d="M0.84 -0.93 C9.25 -41.76, 42.46 -203.9, 50.71 -244.6 M-0.17 1.2 C8.11 -40.06, 41.83 -205.75, 50.16 -246.61" stroke="#f0883e" stroke-width="3" fill="none"></path></g><g transform="translate(1198.8286231525458 455.81392690039854) rotate(0 24.985337536994393 -122.40696345019927)"><path d="M53.04 -215.7 C53.39 -225.96, 51.08 -235.12, 49.6 -244.67 M55.58 -216.67 C53.95 -224.59, 52.81 -231.87, 49.51 -246.32" stroke="#f0883e" stroke-width="3" fill="none"></path></g><g transform="translate(1198.8286231525458 455.81392690039854) rotate(0 24.985337536994393 -122.40696345019927)"><path d="M32.93 -219.8 C39.86 -228.86, 44.1 -236.68, 49.6 -244.67 M35.47 -220.77 C38.55 -227.84, 42.15 -234.15, 49.51 -246.32" stroke="#f0883e" stroke-width="3" fill="none"></path></g></g><g transform="translate(1142.21689885323 350) rotate(0 70.99993133544922 25)"><text x="70.99993133544922" y="NaN" font-family="Virgil, Segoe UI Emoji" font-size="20px" fill="#f08c00" text-anchor="middle" style="white-space: pre;" direction="ltr">subscribe →</text><text x="70.99993133544922" y="NaN" font-family="Virgil, Segoe UI Emoji" font-size="20px" fill="#f08c00" text-anchor="middle" style="white-space: pre;" direction="ltr">StockReserved</text></g></svg>