<svg version="1.1" xmlns="http://www.w3.org/2000/svg" viewBox="0 0 1333.5383766327466 549" width="1333.5383766327466" height="549">
  <!-- svg-source:excalidraw -->
  
  <defs>
    <style>
      @font-face {
        font-family: "Virgil";
        src: url("https://excalidraw.com/Virgil.woff2");
      }
      @font-face {
        font-family: "Cascadia";
        src: url("https://excalidraw.com/Cascadia.woff2");
      }
    </style>
  </defs>
  <rect x="0" y="0" width="1333.5383766327466" height="549" fill="#0d1117"></rect><g stroke-opacity="0.6" fill-opacity="0.6" stroke-linecap="round" transform="translate(691.6510887624968 10) rotate(0 188.408105202638 264.5)"><path d="M-0.45 -0.09 L377.39 1.79 L376.4 529.18 L-0.16 528.8" stroke="none" stroke-width="0" fill="#161b22"></path><path d="M-0.35 -1.11 C88.07 1.38, 177.67 1.05, 378 0.55 M376.84 0.53 C377.3 116.82, 377.22 232.47, 376.07 528.79 M377.41 528.66 C299.08 526.01, 219.42 527.09, -0.19 529.83 M0.05 528.52 C1.58 349.88, 0.82 171.46, -0.04 0.19" stroke="#30363d" stroke-width="2.5" fill="none" stroke-dasharray="8 10"></path></g><g transform="translate(707.6510887624968 20) rotate(0 79.91095733642578 11.25)"><text x="0" y="NaN" font-family="Virgil, Segoe UI Emoji" font-size="18px" fill="#8b949e" text-anchor="start" style="white-space: pre;" direction="ltr">Stream Consumers</text></g><g stroke-linecap="round" transform="translate(10 262.7675263743494) rotate(0 113 36.5)"><path d="M-1.28 -0.41 L227.26 1.79 L226.86 74.2 L-1.03 71.58" stroke="none" stroke-width="0" fill="#3a1d6e"></path><path d="M-1.64 -0.85 C80 -1.36, 155.87 -1.28, 225.5 -1.46 M0.59 0.54 C49.98 -2, 98.03 -1.67, 225.37 -0.12 M227.19 0.5 C227.36 19.92, 228.55 36.1, 226.48 72.82 M226.98 0.83 C225.29 23.74, 225.97 45.95, 226.03 72.12 M225.28 74.53 C174.08 73.52, 118.73 72.98, 0.15 71.81 M225.15 72.43 C150.1 74.95, 75 74, 0.63 73.58 M-0.28 72.74 C-1.15 48.96, 0.71 21.03, 1.35 -1.53 M0.45 73.77 C-0.14 49.4, -0.6 24.35, 0.91 -0.99" stroke="#a371f7" stroke-width="2" fill="none"></path></g><g transform="translate(39.340057373046875 286.7675263743494) rotate(0 83.65994262695312 12.5)"><text x="83.65994262695312" y="NaN" font-family="Virgil, Segoe UI Emoji" font-size="20px" fill="#fff" text-anchor="middle" style="white-space: pre;" direction="ltr">DynamoDB Table</text></g><g stroke-linecap="round" transform="translate(331.65108876249684 263) rotate(0 118.5 36.5)"><path d="M-0.48 -0.89 L237.88 0.67 L237.34 72.34 L0.88 73.17" stroke="none" stroke-width="0" fill="#5c3a10"></path><path d="M-1.12 -0.29 C59.58 -0.04, 122.11 1.76, 238.17 -1.54 M-0.73 -0.25 C57.67 1.62, 116.39 1.99, 236.48 -0.44 M236.42 0.71 C235.77 15.67, 235.38 32.25, 236.71 73.88 M236.92 -0.56 C237.4 29.11, 237.19 57.07, 236.18 73.46 M238.1 72.47 C150.89 71.2, 66.66 69.61, 0.02 71.33 M236.76 72.44 C145.9 74.56, 53.19 73.65, -0.29 72.67 M-0.4 74.62 C-0.26 53.03, -0.11 30.19, -0.17 -1.39 M0.98 72.1 C-0.33 56.71, 0.15 40.6, -0.57 0.53" stroke="#f0883e" stroke-width="2" fill="none"></path></g><g transform="translate(359.8811531545867 287) rotate(0 90.26993560791016 12.5)"><text x="90.26993560791016" y="NaN" font-family="Virgil, Segoe UI Emoji" font-size="20px" fill="#fff" text-anchor="middle" style="white-space: pre;" direction="ltr">DynamoDB Stream</text></g><g stroke-linecap="round" transform="translate(751.6510887624968 406) rotate(0 90 36.5)"><path d="M-1.8 1.86 L179.96 -0.94 L178.57 72.53 L1.6 72.4" stroke="none" stroke-width="0" fill="#0d2c5a"></path><path d="M-1.38 -1.41 C36.77 -1.4, 73.7 -0.2, 178.8 0.22 M0.7 -0.07 C44.84 -0.08, 89.25 0.28, 179.79 -0.66 M178.69 1.75 C181.05 18.52, 182.28 34.41, 181.01 72.18 M179.17 -0.89 C180.32 18.16, 178.94 37.03, 179.67 73.91 M179.49 73.39 C108.62 73.44, 37.01 72.92, -1.69 71.33 M180.87 73.9 C108.2 73.86, 36.42 73.22, 0.85 72.82 M-1.8 73.2 C0.47 53.98, -2.56 32.93, -0.2 0.18 M-0.08 72.57 C-0.11 56.32, 0.66 41.9, -0.4 -0.21" stroke="#58a6ff" stroke-width="2" fill="none"></path></g><g transform="translate(805.2211113455046 430) rotate(0 36.42997741699219 12.5)"><text x="36.42997741699219" y="NaN" font-family="Virgil, Segoe UI Emoji" font-size="20px" fill="#fff" text-anchor="middle" style="white-space: pre;" direction="ltr">Lambda</text></g><g stroke-linecap="round" transform="translate(751.6510887624968 263) rotate(0 124 36.5)"><path d="M0.15 0.04 L249 -0.66 L249.43 71.21 L-0.89 71.08" stroke="none" stroke-width="0" fill="#0d2c5a"></path><path d="M0.48 0.53 C55 0.14, 108.66 -1.23, 249.08 0.64 M-0.4 -0.38 C98.15 0.8, 195.28 0.6, 247.37 0.69 M247.07 1.48 C248.55 25.58, 248.6 53.78, 249.45 71.22 M248.84 0.14 C247.27 16.41, 247.5 33.97, 247.58 72.25 M248.77 72.1 C167.88 70.44, 89.29 71.84, 0.07 72.23 M247.55 73.65 C162.74 73.58, 76.05 74.15, -0.46 72.51 M0.48 72.14 C-0.41 55.72, -0.18 43.15, 1.72 -0.59 M-0.88 72.78 C0.19 54.21, 0.07 36.73, 0.73 -0.33" stroke="#58a6ff" stroke-width="2" fill="none"></path></g><g transform="translate(800.0611687185515 287) rotate(0 75.58992004394531 12.5)"><text x="75.58992004394531" y="NaN" font-family="Virgil, Segoe UI Emoji" font-size="20px" fill="#fff" text-anchor="middle" style="white-space: pre;" direction="ltr">Kinesis Firehose</text></g><g stroke-linecap="round" transform="translate(751.6510887624968 120) rotate(0 146 36.5)"><path d="M0.49 1.67 L293.1 -1.57 L291.56 74.14 L-1.25 71.23" stroke="none" stroke-width="0" fill="#0d2c5a"></path><path d="M0.65 0.23 C83.86 1.49, 165.31 0.16, 291.42 -0.28 M0.75 0.7 C81.65 -0.43, 162.26 -1.18, 292.45 0.07 M290.59 0.7 C293.31 28.73, 293.78 58.76, 290.73 72.68 M291.19 -0.5 C291.83 24.9, 291.16 50.05, 292.32 73.48 M290.54 74.19 C202.78 72.77, 114.23 72.65, -0.09 72.17 M292.67 72.69 C185.79 72.23, 78.95 72.37, -0.04 72.88 M1 72.05 C1.67 50.85, 0.78 24.08, -1.39 0.51 M-0.02 72.47 C1.18 53.23, 1.07 32.12, 0.38 0.96" stroke="#58a6ff" stroke-width="2" fill="none"></path></g><g transform="translate(797.8111839773405 144) rotate(0 99.83990478515625 12.5)"><text x="99.83990478515625" y="NaN" font-family="Virgil, Segoe UI Emoji" font-size="20px" fill="#fff" text-anchor="middle" style="white-space: pre;" direction="ltr">Application Consumer</text></g><g stroke-linecap="round" transform="translate(1111.1552157057472 406.1346039555569) rotate(0 88.06239331562301 36.5)"><path d="M0.47 1.56 L175.05 0.87 L175.41 71.51 L0.63 72" stroke="none" stroke-width="0" fill="#1f4d2b"></path><path d="M-1.35 1.11 C55.78 -3.18, 115.98 -3.25, 175.93 1.32 M-0.22 0.31 C36.48 0.61, 74.55 1.56, 176.95 0.41 M176.63 -0.35 C176.81 23.23, 174.8 51.29, 174.86 72.69 M176.26 0.03 C176.67 20.07, 177.05 40.45, 175.55 72.63 M175.88 72.93 C131.58 73.76, 85.35 73.02, 1.65 72.95 M175.65 73.16 C105.26 72.75, 35.73 73.44, -0.26 73.44 M-0.52 74.1 C-0.78 46.98, 1.69 21.8, 1.56 -0.56 M-0.79 73.81 C0.43 44.4, 1.58 15.66, -0.27 -0.84" stroke="#3fb950" stroke-width="2" fill="none"></path></g><g transform="translate(1132.4076648685382 430.1346039555569) rotate(0 66.80994415283203 12.5)"><text x="66.80994415283203" y="NaN" font-family="Virgil, Segoe UI Emoji" font-size="20px" fill="#fff" text-anchor="middle" style="white-space: pre;" direction="ltr">ElasticSearch</text></g><g stroke-linecap="round" transform="translate(1108.5383766327466 261.3129494468704) rotate(0 107.5 36.5)"><path d="M0.76 1.32 L215.89 0.38 L214.23 73.85 L0.67 72.96" stroke="none" stroke-width="0" fill="#1f4d2b"></path><path d="M-1.36 -0.43 C59.06 1.17, 117.42 0.26, 213.36 0.37 M0.04 -0.26 C81.51 0.6, 163.44 0, 214.98 0.76 M214.94 -0.21 C213.67 18.52, 217.29 36.46, 213.7 72.88 M214.2 -0.33 C214.9 21.89, 213.55 44.54, 214.59 73.22 M214.53 72.62 C146.5 72.46, 78.06 74.51, 1.07 73.4 M215.75 72.67 C142.82 71.71, 70.07 71.37, 0.78 72.22 M-0.27 75 C1.31 53.84, -0.05 35.34, -1.9 -0.23 M-0.65 73.86 C-0.94 50.79, -0.34 26.89, -0.51 -0.74" stroke="#3fb950" stroke-width="2" fill="none"></path></g><g transform="translate(1147.1384285126294 285.3129494468704) rotate(0 68.89994812011719 12.5)"><text x="68.89994812011719" y="NaN" font-family="Virgil, Segoe UI Emoji" font-size="20px" fill="#fff" text-anchor="middle" style="white-space: pre;" direction="ltr">S3 / Redshift</text></g><g stroke-linecap="round"><g transform="translate(242 299.3593714530576) rotate(0 41.82554438124839 0.02972113982760821)"><path d="M-0.32 -0.28 C13.69 -0.44, 68.97 -1.06, 82.93 -1.11 M1.71 -1.47 C16.2 -1.52, 71.79 -0.5, 85.26 -0.19" stroke="#f0883e" stroke-width="2" fill="none"></path></g><g transform="translate(242 299.3593714530576) rotate(0 41.82554438124839 0.02972113982760821)"><path d="M56.4 8.3 C60.81 7.15, 67.6 4.03, 84.27 -1.6 M56.26 10.01 C64.22 7.29, 71.77 5.21, 85.51 -0.05" stroke="#f0883e" stroke-width="2" fill="none"></path></g><g transform="translate(242 299.3593714530576) rotate(0 41.82554438124839 0.02972113982760821)"><path d="M56.81 -12.22 C61.12 -9.12, 67.82 -7.99, 84.27 -1.6 M56.67 -10.51 C64.4 -8.19, 71.85 -5.24, 85.51 -0.05" stroke="#f0883e" stroke-width="2" fill="none"></path></g></g><g stroke-linecap="round"><g transform="translate(574.6510887624968 311.02373482290193) rotate(0 85.5 59.150975957264414)"><path d="M0.77 0.92 C29.48 20.55, 142.65 98.26, 171.21 117.65" stroke="#f0883e" stroke-width="2.5" fill="none" stroke-dasharray="8 10"></path></g><g transform="translate(574.6510887624968 311.02373482290193) rotate(0 85.5 59.150975957264414)"><path d="M143.68 110.57 C147.18 113.49, 152.68 111.68, 172.42 118.3" stroke="#f0883e" stroke-width="2.5" fill="none"></path></g><g transform="translate(574.6510887624968 311.02373482290193) rotate(0 85.5 59.150975957264414)"><path d="M155.26 93.62 C156.31 100.19, 159.37 101.96, 172.42 118.3" stroke="#f0883e" stroke-width="2.5" fill="none"></path></g></g><g transform="translate(604.8641243459929 359.75) rotate(0 55.286964416503906 11.25)"><text x="55.286964416503906" y="NaN" font-family="Virgil, Segoe UI Emoji" font-size="18px" fill="#c9d1d9" text-anchor="middle" style="white-space: pre;" direction="ltr">CDC records</text></g><g stroke-linecap="round"><g transform="translate(574.6510887624968 299.5073) rotate(0 85.49999999999994 0)"><path d="M-0.08 -1.15 C28.69 -0.95, 143.57 0.48, 171.97 0.5" stroke="#f0883e" stroke-width="2.5" fill="none" stroke-dasharray="8 10"></path></g><g transform="translate(574.6510887624968 299.5073) rotate(0 85.49999999999994 0)"><path d="M141.8 12.17 C151.44 7.02, 155.65 4.92, 170.55 0.87" stroke="#f0883e" stroke-width="2.5" fill="none"></path></g><g transform="translate(574.6510887624968 299.5073) rotate(0 85.49999999999994 0)"><path d="M141.95 -8.35 C151.43 -8.53, 155.61 -5.66, 170.55 0.87" stroke="#f0883e" stroke-width="2.5" fill="none"></path></g></g><g transform="translate(604.8641243459929 288.25) rotate(0 55.286964416503906 11.25)"><text x="55.286964416503906" y="NaN" font-family="Virgil, Segoe UI Emoji" font-size="18px" fill="#c9d1d9" text-anchor="middle" style="white-space: pre;" direction="ltr">CDC records</text></g><g stroke-linecap="round"><g transform="translate(574.6510887624968 284.11212683291575) rotate(0 85.50000000000006 -56.97056458478071)"><path d="M-1.05 -0.45 C27.66 -19.42, 142.97 -94.47, 171.68 -113.47" stroke="#f0883e" stroke-width="2.5" fill="none" stroke-dasharray="8 10"></path></g><g transform="translate(574.6510887624968 284.11212683291575) rotate(0 85.50000000000006 -56.97056458478071)"><path d="M152.98 -88.3 C159 -95.07, 161.93 -99.97, 173.48 -113.15" stroke="#f0883e" stroke-width="2.5" fill="none"></path></g><g transform="translate(574.6510887624968 284.11212683291575) rotate(0 85.50000000000006 -56.97056458478071)"><path d="M141.73 -105.46 C150.66 -107.77, 156.45 -108.3, 173.48 -113.15" stroke="#f0883e" stroke-width="2.5" fill="none"></path></g></g><g transform="translate(604.8641243459929 216.75) rotate(0 55.286964416503906 11.25)"><text x="55.286964416503906" y="NaN" font-family="Virgil, Segoe UI Emoji" font-size="18px" fill="#c9d1d9" text-anchor="middle" style="white-space: pre;" direction="ltr">CDC records</text></g><g stroke-linecap="round"><g transform="translate(937.6510887624968 444.2410630731233) rotate(0 83.7520634716252 -0.4056155376941035)"><path d="M0.38 0.18 C28.11 -0.01, 139.64 -0.51, 167.57 -0.72 M-0.88 -0.77 C26.6 -0.79, 138.61 0.72, 166.65 0.87" stroke="#3fb950" stroke-width="2" fill="none"></path></g><g transform="translate(937.6510887624968 444.2410630731233) rotate(0 83.7520634716252 -0.4056155376941035)"><path d="M138.67 10.96 C149.7 7.53, 160.35 2.71, 167.43 -0.04 M138.11 11.14 C146.73 8.55, 154.46 4.53, 166.12 1.58" stroke="#3fb950" stroke-width="2" fill="none"></path></g><g transform="translate(937.6510887624968 444.2410630731233) rotate(0 83.7520634716252 -0.4056155376941035)"><path d="M138.87 -9.56 C149.9 -4.86, 160.47 -1.53, 167.43 -0.04 M138.31 -9.38 C146.79 -6.15, 154.47 -4.36, 166.12 1.58" stroke="#3fb950" stroke-width="2" fill="none"></path></g></g><g stroke-linecap="round"><g transform="translate(1005.6510887624968 297.5892043273476) rotate(0 48.44364393512501 0.06703795731764284)"><path d="M-0.34 0.34 C15.77 0.08, 80.64 -0.9, 96.82 -1.05 M1.69 -0.52 C17.61 -0.72, 80.13 -0.29, 95.84 -0.14" stroke="#3fb950" stroke-width="2" fill="none"></path></g><g transform="translate(1005.6510887624968 297.5892043273476) rotate(0 48.44364393512501 0.06703795731764284)"><path d="M68.14 9.79 C74.47 6.62, 84.21 5.53, 96.38 -1.02 M66.75 10.3 C78.98 6.55, 89.83 1.89, 96.57 -1.02" stroke="#3fb950" stroke-width="2" fill="none"></path></g><g transform="translate(1005.6510887624968 297.5892043273476) rotate(0 48.44364393512501 0.06703795731764284)"><path d="M68.3 -10.73 C74.66 -7.43, 84.35 -2.04, 96.38 -1.02 M66.91 -10.22 C78.92 -6.04, 89.71 -2.76, 96.57 -1.02" stroke="#3fb950" stroke-width="2" fill="none"></path></g></g></svg>