<svg version="1.1" xmlns="http://www.w3.org/2000/svg" viewBox="0 0 1488.497053980817 431.65186042714333" width="1488.497053980817" height="431.65186042714333">
  <!-- svg-source:excalidraw -->
  
  <defs>
    <style>
      @font-face {
        font-family: "Virgil";
        src: url("https://excalidraw.com/Virgil.woff2");
      }
      @font-face {
        font-family: "Cascadia";
        src: url("https://excalidraw.com/Cascadia.woff2");
      }
    </style>
  </defs>
  <rect x="0" y="0" width="1488.497053980817" height="431.65186042714333" fill="#0d1117"></rect><g stroke-opacity="0.6" fill-opacity="0.6" stroke-linecap="round" transform="translate(734.6686690051358 10) rotate(0 159.54495833509145 205.33014004803113)"><path d="M0.39 1.55 L318.75 -0.49 L317.51 409.09 L0.86 410.55" stroke="none" stroke-width="0" fill="#161b22"></path><path d="M0.87 0.17 C116.22 -1.07, 233.43 0.34, 319.92 -0.32 M319.49 0.15 C321.13 156.83, 320.59 314.42, 319.15 409.57 M318.81 410.11 C197.12 408.67, 73.95 410.54, -0.84 409.5 M-1.01 411.09 C1.81 289.65, 2.95 168.9, 0.65 0.27" stroke="#30363d" stroke-width="2.5" fill="none" stroke-dasharray="8 10"></path></g><g stroke-opacity="0.6" fill-opacity="0.6" stroke-linecap="round" transform="translate(1131.5254692740957 10.991580331081082) rotate(0 173.4857923533607 205.33014004803113)"><path d="M-0.36 -1.57 L347.29 -0.07 L347.61 409.65 L-1.58 412.19" stroke="none" stroke-width="0" fill="#161b22"></path><path d="M0.84 0.48 C103.09 -2.79, 204.29 -2.9, 347.31 -0.07 M346.71 -0.75 C348.96 150.57, 348.64 302.88, 347.14 411.44 M347.89 410.32 C267.57 408.85, 188.73 410.4, 1.25 411.54 M0.64 411.34 C-1.51 310.91, 0.27 212.1, -0.5 0.85" stroke="#30363d" stroke-width="2.5" fill="none" stroke-dasharray="8 10"></path></g><g transform="translate(1157.9820178670122 26.817691320950786) rotate(0 71.69395446777344 11.25)"><text x="0" y="NaN" font-family="Virgil, Segoe UI Emoji" font-size="18px" fill="#8b949e" text-anchor="start" style="white-space: pre;" direction="ltr">Az1 - N Replicas</text></g><g transform="translate(757.1350148600203 29.94850257579654) rotate(0 56.42096710205078 11.25)"><text x="0" y="NaN" font-family="Virgil, Segoe UI Emoji" font-size="18px" fill="#8b949e" text-anchor="start" style="white-space: pre;" direction="ltr">Az1 - Leader</text></g><g stroke-linecap="round" transform="translate(10 220.76228963807603) rotate(0 90.00000000000001 36.5)"><path d="M-0.61 -1.29 L181.31 0.51 L179.92 73.03 L1.35 74.52" stroke="none" stroke-width="0" fill="#1f4d2b"></path><path d="M0.28 0.27 C53.16 2.03, 107.67 1.59, 181.08 1.66 M0.38 0.99 C58.13 1.76, 115.65 1.87, 180.56 -0.14 M181.66 0.41 C178.76 18.14, 181.05 38.67, 181.32 73.63 M180.95 -0.38 C180.14 26.66, 179.86 52.14, 179.86 72.8 M181.05 73.81 C130.84 74.3, 81.61 71.34, 0.45 71.07 M179.42 72.66 C143.16 73.62, 106.18 73.71, -0.72 73.03 M-1.35 73.95 C-0.2 50.38, -0.94 26.43, -1.8 0.17 M0.04 73.36 C-1.13 47.68, -1.54 20.95, -0.75 -0.27" stroke="#3fb950" stroke-width="2" fill="none"></path></g><g transform="translate(72.95002746582031 244.76228963807603) rotate(0 27.049972534179688 12.5)"><text x="27.049972534179688" y="NaN" font-family="Virgil, Segoe UI Emoji" font-size="20px" fill="#fff" text-anchor="middle" style="white-space: pre;" direction="ltr">Client</text></g><g stroke-linecap="round" transform="translate(267.78901976404063 216.25211472705251) rotate(0 113 36.5)"><path d="M-1.26 -0.51 L225.36 -0.91 L227.79 74.17 L-1.91 74.42" stroke="none" stroke-width="0" fill="#5c3a10"></path><path d="M-1.67 0.71 C90.52 -0.09, 179.08 1.6, 227 -1.45 M-0.7 0.69 C83.73 2.28, 168.05 2.16, 225.2 -0.14 M227.21 0.99 C224.55 23.96, 224.94 45.3, 225.69 73.1 M225.06 -0.93 C227.6 19.42, 227.19 38.51, 226.52 72.09 M226.25 72.23 C167.74 71.4, 112.78 72.32, -0.15 71.41 M226.29 73.04 C154.03 74.57, 81.6 74.94, -0.17 72.55 M-0.47 72.13 C1.65 55.22, 0.48 37.26, 1.46 0.93 M0.91 72.45 C-0.24 51.09, -0.32 28.15, -0.5 0.42" stroke="#f0883e" stroke-width="2" fill="none"></path></g><g transform="translate(302.42908781823985 240.25211472705251) rotate(0 78.35993194580078 12.5)"><text x="78.35993194580078" y="NaN" font-family="Virgil, Segoe UI Emoji" font-size="20px" fill="#fff" text-anchor="middle" style="white-space: pre;" direction="ltr">Request Router</text></g><g stroke-linecap="round" transform="translate(795.0970050497499 206.1470163911278) rotate(0 107.5 36.5)"><path d="M-1.71 0.15 L214.76 -1.93 L213.1 72.78 L1.57 74.89" stroke="none" stroke-width="0" fill="#3a1d6e"></path><path d="M0.64 -1.2 C81.6 0.01, 163.53 0.59, 214.06 -0.79 M0.32 0.68 C76.94 -1.75, 153.12 -1, 215.36 -0.74 M213.83 1.72 C216.87 30.56, 215.13 56.95, 215.8 72.65 M215.76 0.54 C215.41 24.6, 214.6 48.3, 214.44 73.46 M214.28 73.09 C157.16 72.17, 99.9 74.4, -0.97 72.39 M214.47 72.75 C164.25 73.49, 113.63 74.04, 0.2 72.25 M-1.98 74.62 C1.87 43.62, -1.64 17.83, 0.05 -1.51 M-0.03 72.62 C0.55 49.26, -0.11 26.91, 0.66 0.01" stroke="#a371f7" stroke-width="2" fill="none"></path></g><g transform="translate(835.1270572348085 230.1470163911278) rotate(0 67.4699478149414 12.5)"><text x="67.4699478149414" y="NaN" font-family="Virgil, Segoe UI Emoji" font-size="20px" fill="#fff" text-anchor="middle" style="white-space: pre;" direction="ltr">Leader (AZ-1)</text></g><g stroke-linecap="round" transform="translate(1191.229836543139 57.864821403781775) rotate(0 118.5 36.5)"><path d="M1.46 -0.61 L236.84 -1.78 L235.99 72.93 L0.98 72.2" stroke="none" stroke-width="0" fill="#0d2c5a"></path><path d="M0.4 0.09 C58.75 1.11, 114.75 1.82, 238.04 -1.04 M0.74 0.15 C88.89 0.49, 176.18 1.58, 236.51 -0.33 M238.24 -1.77 C236.45 23.86, 237.1 48.65, 235.51 73.42 M237.5 0.7 C237.69 22.63, 236.25 46.97, 236.89 73.04 M236.97 72.85 C182.91 72.15, 127.78 73.74, 0.54 71.66 M237.04 72.8 C183 74.04, 130 73.06, 0.79 72.74 M1.22 74.64 C1.05 53.17, -0.38 33.47, 0.8 -0.44 M0.65 73.65 C0.86 48.87, -0.17 23.51, -0.32 -0.98" stroke="#58a6ff" stroke-width="2" fill="none"></path></g><g transform="translate(1233.4999018507563 81.86482140378178) rotate(0 76.22993469238281 12.5)"><text x="76.22993469238281" y="NaN" font-family="Virgil, Segoe UI Emoji" font-size="20px" fill="#fff" text-anchor="middle" style="white-space: pre;" direction="ltr">Follower (AZ-2)</text></g><g stroke-linecap="round" transform="translate(1182.7172377422191 323.22872414460477) rotate(0 118.5 36.5)"><path d="M-1.17 -1.27 L238.13 0.13 L236.81 72.02 L1.08 72.01" stroke="none" stroke-width="0" fill="#0d2c5a"></path><path d="M0.87 -0.08 C87.01 0.13, 173.55 1.12, 237.38 -0.59 M0.44 -0.28 C48.3 -1.18, 95.4 -2, 236.98 -0.52 M235.35 -0.48 C235.44 21.03, 236.48 39.96, 235.29 71.45 M237.15 -0.63 C237.66 16.6, 237.01 33.22, 237.15 72.26 M236.62 74.55 C153.16 73.43, 69.99 74.82, -0.8 74.6 M237.66 73.81 C146.98 71.26, 55.16 71.28, 0.16 72.75 M-0.73 74.02 C1.23 47.62, 0 23.61, -1.05 -0.93 M-0.53 72.43 C-0.65 56.81, 0.19 42.08, 0.6 -0.47" stroke="#58a6ff" stroke-width="2" fill="none"></path></g><g transform="translate(1225.29730060843 347.22872414460477) rotate(0 75.91993713378906 12.5)"><text x="75.91993713378906" y="NaN" font-family="Virgil, Segoe UI Emoji" font-size="20px" fill="#fff" text-anchor="middle" style="white-space: pre;" direction="ltr">Follower (AZ-3)</text></g><g stroke-linecap="round"><g transform="translate(196.00000000000003 255.72790358169897) rotate(0 32.894509882020316 -0.528359559255561)"><path d="M0.62 -0.22 C11.77 -0.52, 54.83 -1.73, 65.82 -1.93 M-0.51 -1.38 C10.57 -1.54, 53.76 -1.03, 64.89 -0.85" stroke="#3fb950" stroke-width="2" fill="none"></path></g><g transform="translate(196.00000000000003 255.72790358169897) rotate(0 32.894509882020316 -0.528359559255561)"><path d="M36.2 9.09 C41.13 8.13, 47.95 5.12, 64.99 -2.23 M35.9 9.24 C42.34 7.3, 48.24 4.39, 65.37 -0.21" stroke="#3fb950" stroke-width="2" fill="none"></path></g><g transform="translate(196.00000000000003 255.72790358169897) rotate(0 32.894509882020316 -0.528359559255561)"><path d="M36.47 -11.42 C41.32 -8.04, 48.09 -6.71, 64.99 -2.23 M36.17 -11.28 C42.7 -8.62, 48.53 -6.93, 65.37 -0.21" stroke="#3fb950" stroke-width="2" fill="none"></path></g></g><g stroke-linecap="round"><g transform="translate(499.78901976404063 254.30093370202934) rotate(0 145.113803279472 19.112408115470927)"><path d="M0.37 0.1 C25.3 6.7, 100.09 36.09, 148.46 38.7 C196.83 41.32, 267.13 19.78, 290.61 15.81 M-0.89 -0.89 C23.95 5.42, 98.86 34.34, 147.35 36.83 C195.84 39.33, 266.42 17.53, 290.05 14.07" stroke="#3fb950" stroke-width="2" fill="none"></path></g><g transform="translate(499.78901976404063 254.30093370202934) rotate(0 145.113803279472 19.112408115470927)"><path d="M264.82 29.51 C270.8 27.31, 277.14 21.89, 290.39 13.51 M265.57 29.66 C270.75 26.65, 276.64 22.6, 289.53 13.81" stroke="#3fb950" stroke-width="2" fill="none"></path></g><g transform="translate(499.78901976404063 254.30093370202934) rotate(0 145.113803279472 19.112408115470927)"><path d="M260.5 9.45 C267.21 11.37, 274.45 10.08, 290.39 13.51 M261.24 9.6 C267.56 11.22, 274.46 11.79, 289.53 13.81" stroke="#3fb950" stroke-width="2" fill="none"></path></g></g><g transform="translate(615.4546681732846 371.01953299107635) rotate(0 21.329978942871094 11.25)"><text x="21.329978942871094" y="NaN" font-family="Virgil, Segoe UI Emoji" font-size="18px" fill="#c9d1d9" text-anchor="middle" style="white-space: pre;" direction="ltr">write</text></g><g stroke-linecap="round"><g transform="translate(1006.1894465756534 203.64980119177935) rotate(0 96.80139992271927 -34.084855280868396)"><path d="M0.49 0.16 C32.6 -11.09, 161.68 -56.95, 193.74 -68.5" stroke="#f0883e" stroke-width="2.5" fill="none" stroke-dasharray="8 10"></path></g><g transform="translate(1006.1894465756534 203.64980119177935) rotate(0 96.80139992271927 -34.084855280868396)"><path d="M170.92 -49.12 C179.3 -58.18, 187.29 -65.55, 193.52 -70.09" stroke="#f0883e" stroke-width="2.5" fill="none"></path></g><g transform="translate(1006.1894465756534 203.64980119177935) rotate(0 96.80139992271927 -34.084855280868396)"><path d="M164.01 -68.44 C174.94 -69.97, 185.63 -69.77, 193.52 -70.09" stroke="#f0883e" stroke-width="2.5" fill="none"></path></g></g><g transform="translate(1076.6725386943867 214.0369125624073) rotate(0 38.09696960449219 11.25)"><text x="38.09696960449219" y="NaN" font-family="Virgil, Segoe UI Emoji" font-size="18px" fill="#c9d1d9" text-anchor="middle" style="white-space: pre;" direction="ltr">replicate</text></g><g stroke-linecap="round"><g transform="translate(1012.0096105164255 276.14103026043466) rotate(0 85.02372718219442 24.232641764599588)"><path d="M0.58 -1.17 C29.2 7, 142.73 40.9, 171.13 49.07" stroke="#f0883e" stroke-width="2.5" fill="none" stroke-dasharray="8 10"></path></g><g transform="translate(1012.0096105164255 276.14103026043466) rotate(0 85.02372718219442 24.232641764599588)"><path d="M139.23 52.77 C149.67 51.87, 155.08 48.38, 171.36 49.99" stroke="#f0883e" stroke-width="2.5" fill="none"></path></g><g transform="translate(1012.0096105164255 276.14103026043466) rotate(0 85.02372718219442 24.232641764599588)"><path d="M145.02 33.08 C154.02 37.13, 157.99 38.56, 171.36 49.99" stroke="#f0883e" stroke-width="2.5" fill="none"></path></g></g><g transform="translate(1067.0068242403652 346.26617592749864) rotate(0 38.09696960449219 11.249999999999993)"><text x="38.09696960449219" y="NaN" font-family="Virgil, Segoe UI Emoji" font-size="18px" fill="#c9d1d9" text-anchor="middle" style="white-space: pre;" direction="ltr">replicate</text></g><g stroke-linecap="round"><g transform="translate(499.78901976404063 241.59671303848188) rotate(0 342.7204083895492 -73.5637406067003)"><path d="M-0.6 -0.15 C64.48 -24.01, 275.82 -117.74, 390.08 -142.17 C504.34 -166.59, 635.91 -145.7, 684.98 -146.71 M1.29 -1.28 C66.8 -24.99, 278.67 -115.94, 392.46 -140.53 C506.24 -165.12, 635.33 -147.63, 683.98 -148.83" stroke="#58a6ff" stroke-width="2" fill="none"></path></g><g transform="translate(499.78901976404063 241.59671303848188) rotate(0 342.7204083895492 -73.5637406067003)"><path d="M655.17 -140.69 C663.3 -142.7, 671.31 -145.91, 682.11 -150.26 M655.42 -138.99 C667.17 -142.53, 678.61 -147.16, 684.57 -147.93" stroke="#58a6ff" stroke-width="2" fill="none"></path></g><g transform="translate(499.78901976404063 241.59671303848188) rotate(0 342.7204083895492 -73.5637406067003)"><path d="M655.93 -161.19 C664.02 -157.73, 671.83 -155.46, 682.11 -150.26 M656.18 -159.5 C667.58 -154.91, 678.71 -151.41, 684.57 -147.93" stroke="#58a6ff" stroke-width="2" fill="none"></path></g></g><g transform="translate(760.8184873464165 155.36262506114355) rotate(0 117.57591247558594 11.25)"><text x="117.57591247558594" y="NaN" font-family="Virgil, Segoe UI Emoji" font-size="18px" fill="#c9d1d9" text-anchor="middle" style="white-space: pre;" direction="ltr">eventually consistent read</text></g><g stroke-linecap="round"><g transform="translate(499.78901976404063 251.2537224783577) rotate(0 144.65399264285463 -19.009042840904392)"><path d="M-0.47 -1.16 C24.86 -7.36, 103.55 -36.37, 151.99 -37.99 C200.44 -39.6, 267.39 -15.37, 290.19 -10.83 M1.49 0.85 C26.69 -5.08, 103.24 -34.62, 151.31 -36.43 C199.37 -38.24, 266.98 -14.43, 289.89 -10.03" stroke="#58a6ff" stroke-width="2" fill="none"></path></g><g transform="translate(499.78901976404063 251.2537224783577) rotate(0 144.65399264285463 -19.009042840904392)"><path d="M258.1 -6.31 C269.2 -6.43, 276.57 -9.66, 288.42 -9.64 M259.52 -8.07 C266.46 -7.82, 274.17 -7.69, 289.56 -9.82" stroke="#58a6ff" stroke-width="2" fill="none"></path></g><g transform="translate(499.78901976404063 251.2537224783577) rotate(0 144.65399264285463 -19.009042840904392)"><path d="M263.22 -26.18 C272.64 -20.27, 278.45 -17.45, 288.42 -9.64 M264.64 -27.94 C270.29 -22.76, 276.72 -17.7, 289.56 -9.82" stroke="#58a6ff" stroke-width="2" fill="none"></path></g></g><g transform="translate(621.4554068422905 228.19188612002165) rotate(0 69.16494750976562 22.5)"><text x="69.16494750976562" y="NaN" font-family="Virgil, Segoe UI Emoji" font-size="18px" fill="#c9d1d9" text-anchor="middle" style="white-space: pre;" direction="ltr">strongly </text><text x="69.16494750976562" y="NaN" font-family="Virgil, Segoe UI Emoji" font-size="18px" fill="#c9d1d9" text-anchor="middle" style="white-space: pre;" direction="ltr">consistent read</text></g></svg>