<svg version="1.1" xmlns="http://www.w3.org/2000/svg" viewBox="0 0 1180 571.5" width="1180" height="571.5">
  <!-- svg-source:excalidraw -->
  
  <defs>
    <style>
      @font-face {
        font-family: "Virgil";
        src: url("https://excalidraw.com/Virgil.woff2");
      }
      @font-face {
        font-family: "Cascadia";
        src: url("https://excalidraw.com/Cascadia.woff2");
      }
    </style>
  </defs>
  <rect x="0" y="0" width="1180" height="571.5" fill="#0d1117"></rect><g stroke-opacity="0.6" fill-opacity="0.6" stroke-linecap="round" transform="translate(370 116.30384122689901) rotate(0 190 194.1988815950991)"><path d="M1.24 -0.94 L379.51 1.04 L380.71 388.45 L-1.17 389.15" stroke="none" stroke-width="0" fill="#161b22"></path><path d="M0.81 -1.15 C132.35 0.52, 262.46 1.1, 380.63 0.64 M379.8 0.13 C380.79 98.42, 381.22 199.58, 380.3 387.75 M378.82 389.21 C244.91 390.75, 109.15 389.94, -0.57 387.34 M1.16 387.65 C-3.11 258.22, -2.62 128.29, -0.88 -1.16" stroke="#30363d" stroke-width="2.5" fill="none" stroke-dasharray="8 10"></path></g><g transform="translate(384.0981307546846 127.35060532933232) rotate(0 54.845970153808594 11.25)"><text x="0" y="NaN" font-family="Virgil, Segoe UI Emoji" font-size="18px" fill="#8b949e" text-anchor="start" style="white-space: pre;" direction="ltr">DAX Cluster</text></g><g stroke-linecap="round" transform="translate(10 235) rotate(0 100 32)"><path d="M1.18 -1.02 L198.16 0.55 L199.22 62.28 L0.46 64.84" stroke="none" stroke-width="0" fill="#1f4d2b"></path><path d="M-1.69 0.01 C60.14 -0.5, 121.18 -2.89, 199.45 -0.62 M-0.44 -0.9 C48.03 1.57, 96.82 -0.03, 199.65 0.71 M198.45 -1.64 C197.46 24.2, 198.28 48.91, 198.48 64.7 M199.96 -0.26 C200.63 14.36, 199.72 26.43, 199.87 63.25 M198.32 65.37 C157 63.86, 116.92 64.25, 0.26 63.5 M200.66 63.45 C132.24 63.89, 65.52 64.39, 0.64 64.88 M-0.51 64.22 C1.58 44.06, 1.41 27.69, 1.31 -0.88 M-0.3 63.95 C0.22 42.26, 0.17 19.43, -0.17 -0.66" stroke="#3fb950" stroke-width="2" fill="none"></path></g><g transform="translate(59.020050048828125 254.5) rotate(0 50.979949951171875 12.5)"><text x="50.979949951171875" y="NaN" font-family="Virgil, Segoe UI Emoji" font-size="20px" fill="#ffffff" text-anchor="middle" style="white-space: pre;" direction="ltr">Application</text></g><g stroke-linecap="round" transform="translate(450.88465098863264 168.3702488739023) rotate(0 110 32)"><path d="M-0.59 1.95 L220.92 -0.55 L221.47 64.96 L-0.58 63.11" stroke="none" stroke-width="0" fill="#0d2c5a"></path><path d="M-0.96 1.67 C58.58 -0.84, 115.22 0.62, 221.51 1.35 M-0.7 -0.09 C49.77 1.62, 98.67 0.57, 220.83 0.11 M218.86 -0.63 C218.73 14.89, 220.55 26, 221.91 63.16 M220.94 0.12 C220.62 18.03, 220.38 37.27, 220.49 63.49 M219.33 62.56 C161.17 61.59, 103.91 61.75, 0.14 63.8 M220.18 64.31 C167.78 64.68, 117.44 65.37, 0.45 64.77 M-0.49 65.6 C-0.55 45.86, 1.42 29.98, -1.3 -1.52 M-0.85 63.69 C1.08 41.28, 0.15 20.17, 0.78 -0.97" stroke="#58a6ff" stroke-width="2" fill="none"></path></g><g transform="translate(504.4446943235936 187.8702488739023) rotate(0 56.43995666503906 12.5)"><text x="56.43995666503906" y="NaN" font-family="Virgil, Segoe UI Emoji" font-size="20px" fill="#ffffff" text-anchor="middle" style="white-space: pre;" direction="ltr">Item Cache</text></g><g stroke-linecap="round" transform="translate(448.552274587301 321.2676445957087) rotate(0 110 32)"><path d="M1.64 0.91 L219.68 -1.66 L219.72 63.63 L-1.61 65.39" stroke="none" stroke-width="0" fill="#0d2c5a"></path><path d="M-0.29 -0.13 C47.44 2.38, 97.04 0.68, 220.08 -0.18 M0.75 0.69 C46.71 1.65, 92.65 1.09, 220.26 -0.47 M219.27 0.37 C220 14.38, 218.83 32.69, 221.33 65.62 M219.91 0.49 C219.33 23.7, 219.76 48.11, 219.11 63.74 M220.27 63.26 C153 63.04, 82.89 62.97, 0.03 64.07 M219.72 63.41 C147.77 63.42, 74.83 62.58, 0.29 64.69 M-0.47 62.97 C-1.39 47.65, -1.29 36.26, 0.1 1.84 M0.61 63.44 C-1.33 42.3, -1.15 18.91, -0.27 0.73" stroke="#58a6ff" stroke-width="2" fill="none"></path></g><g transform="translate(497.8223246361291 340.7676445957087) rotate(0 60.729949951171875 12.5)"><text x="60.729949951171875" y="NaN" font-family="Virgil, Segoe UI Emoji" font-size="20px" fill="#ffffff" text-anchor="middle" style="white-space: pre;" direction="ltr">Query Cache</text></g><g stroke-linecap="round" transform="translate(930 235) rotate(0 120 32)"><path d="M-0.12 -0.13 L238.44 1.24 L241.96 62.3 L1.35 63.66" stroke="none" stroke-width="0" fill="#3a1d6e"></path><path d="M0.36 1.48 C91.37 -1.66, 182.12 0.33, 238.7 -1.63 M0.46 -0.26 C95.52 -2.19, 190.42 -2.25, 239.71 0.66 M239.67 1.38 C241.27 17.86, 241.11 35.38, 240.76 64.09 M240.88 0.87 C241.32 16.57, 240.42 31.35, 239.73 63.98 M241.17 63.97 C154.13 64.62, 67.42 64.35, -0.08 64.34 M239.3 64.23 C185.49 64.28, 131.14 65.33, 0.12 64.59 M-0.45 64.35 C0.49 36.65, -1.29 12.95, 1.49 1.2 M0.07 63.19 C-0.47 41.31, 0.83 19.65, 0.68 0.43" stroke="#a371f7" stroke-width="2" fill="none"></path></g><g transform="translate(966.3400573730469 254.5) rotate(0 83.65994262695312 12.5)"><text x="83.65994262695312" y="NaN" font-family="Virgil, Segoe UI Emoji" font-size="20px" fill="#ffffff" text-anchor="middle" style="white-space: pre;" direction="ltr">DynamoDB Table</text></g><g stroke-linecap="round"><g transform="translate(215.99999999999997 256.83371718510256) rotate(0 114.44232549431634 -29.760800106168503)"><path d="M-0.61 0.72 C37.43 -9.2, 190.38 -48.44, 228.7 -58.56 M1.27 0.06 C39.09 -10.27, 189.75 -50.35, 227.66 -60.18" stroke="#58a6ff" stroke-width="2" fill="none"></path></g><g transform="translate(215.99999999999997 256.83371718510256) rotate(0 114.44232549431634 -29.760800106168503)"><path d="M204.21 -43.39 C212.83 -48.1, 218.79 -55.16, 228.44 -59.9 M203.23 -42.5 C211.53 -48.91, 221.41 -56.91, 226.66 -60.05" stroke="#58a6ff" stroke-width="2" fill="none"></path></g><g transform="translate(215.99999999999997 256.83371718510256) rotate(0 114.44232549431634 -29.760800106168503)"><path d="M198.98 -63.23 C209.54 -61.18, 217.27 -61.51, 228.44 -59.9 M198.01 -62.34 C208.25 -61.24, 220.11 -61.7, 226.66 -60.05" stroke="#58a6ff" stroke-width="2" fill="none"></path></g></g><g transform="translate(265.68601989746094 189.75) rotate(0 64.31398010253906 22.5)"><text x="64.31398010253906" y="NaN" font-family="Virgil, Segoe UI Emoji" font-size="18px" fill="#c9d1d9" text-anchor="middle" style="white-space: pre;" direction="ltr">GetItem /</text><text x="64.31398010253906" y="NaN" font-family="Virgil, Segoe UI Emoji" font-size="18px" fill="#c9d1d9" text-anchor="middle" style="white-space: pre;" direction="ltr">BatchGetItem</text></g><g stroke-linecap="round"><g transform="translate(216 281.4587510163044) rotate(0 113.27613729365049 35.858861430346664)"><path d="M0.84 1.19 C38.76 12.95, 190.04 59.58, 227.52 71.25 M-0.19 0.76 C37.67 12.64, 189.02 60.62, 227.08 72.54" stroke="#58a6ff" stroke-width="2" fill="none"></path></g><g transform="translate(216 281.4587510163044) rotate(0 113.27613729365049 35.858861430346664)"><path d="M199.08 75.46 C205.26 71.88, 214.15 74.58, 226.22 71.06 M197.01 73.32 C207.46 73.59, 219.33 72.17, 227.43 72.01" stroke="#58a6ff" stroke-width="2" fill="none"></path></g><g transform="translate(216 281.4587510163044) rotate(0 113.27613729365049 35.858861430346664)"><path d="M205.26 55.89 C209.69 58.19, 216.74 66.73, 226.22 71.06 M203.19 53.75 C211.38 61.18, 221 66.9, 227.43 72.01" stroke="#58a6ff" stroke-width="2" fill="none"></path></g></g><g transform="translate(271.8330307006836 321.75) rotate(0 58.166969299316406 11.25)"><text x="58.166969299316406" y="NaN" font-family="Virgil, Segoe UI Emoji" font-size="18px" fill="#c9d1d9" text-anchor="middle" style="white-space: pre;" direction="ltr">Query / Scan</text></g><g stroke-linecap="round"><g transform="translate(676.8846509886326 209.11771237309142) rotate(0 123.55767450568368 33.42238915166405)"><path d="M-0.12 -0.75 C18.07 7.13, 67.33 36.4, 108.6 47.58 C149.86 58.77, 224.38 62.98, 247.47 66.34" stroke="#58a6ff" stroke-width="2.5" fill="none" stroke-dasharray="8 10"></path></g><g transform="translate(676.8846509886326 209.11771237309142) rotate(0 123.55767450568368 33.42238915166405)"><path d="M217.11 73.11 C226.66 72.35, 232.46 69.93, 248.96 67.1" stroke="#58a6ff" stroke-width="2.5" fill="none"></path></g><g transform="translate(676.8846509886326 209.11771237309142) rotate(0 123.55767450568368 33.42238915166405)"><path d="M219.26 52.71 C228.32 57.18, 233.56 60.01, 248.96 67.1" stroke="#58a6ff" stroke-width="2.5" fill="none"></path></g></g><g transform="translate(752.3720321655273 195.75) rotate(0 47.627967834472656 11.25)"><text x="47.627967834472656" y="NaN" font-family="Virgil, Segoe UI Emoji" font-size="18px" fill="#c9d1d9" text-anchor="middle" style="white-space: pre;" direction="ltr">Cache miss</text></g><g stroke-linecap="round"><g transform="translate(674.552274587301 356.1401259816174) rotate(0 124.72386270634951 -40.603054963850795)"><path d="M-1.07 -0.29 C20.85 -5.51, 88.89 -17.77, 130.5 -31.34 C172.11 -44.91, 228.93 -73.4, 248.59 -81.72" stroke="#58a6ff" stroke-width="2.5" fill="none" stroke-dasharray="8 10"></path></g><g transform="translate(674.552274587301 356.1401259816174) rotate(0 124.72386270634951 -40.603054963850795)"><path d="M226.71 -59.24 C230.26 -66.47, 235.56 -71.21, 248.42 -82.71" stroke="#58a6ff" stroke-width="2.5" fill="none"></path></g><g transform="translate(674.552274587301 356.1401259816174) rotate(0 124.72386270634951 -40.603054963850795)"><path d="M218.2 -77.92 C223.59 -81.04, 230.72 -81.75, 248.42 -82.71" stroke="#58a6ff" stroke-width="2.5" fill="none"></path></g></g><g transform="translate(752.3720321655273 315.75) rotate(0 47.627967834472656 11.25)"><text x="47.627967834472656" y="NaN" font-family="Virgil, Segoe UI Emoji" font-size="18px" fill="#c9d1d9" text-anchor="middle" style="white-space: pre;" direction="ltr">Cache miss</text></g><g stroke-linecap="round"><g transform="translate(124.48372865356049 305) rotate(0 403.616054428551 113.47262147487108)"><path d="M0.38 0.17 C72.05 38.74, 296.39 231.86, 430.92 231.06 C565.45 230.27, 744.77 34.77, 807.55 -4.6 M-0.89 -0.78 C70.52 38.02, 295.14 233.09, 429.78 232.62 C564.42 232.16, 743.9 35.98, 806.96 -3.56" stroke="#3fb950" stroke-width="2" fill="none"></path></g><g transform="translate(124.48372865356049 305) rotate(0 403.616054428551 113.47262147487108)"><path d="M791.89 21.59 C797.49 13.05, 802.29 3.56, 805.14 -2.3 M792.54 22.37 C796.59 14.85, 801.73 5.37, 807.36 -4.08" stroke="#3fb950" stroke-width="2" fill="none"></path></g><g transform="translate(124.48372865356049 305) rotate(0 403.616054428551 113.47262147487108)"><path d="M778.92 5.68 C789.34 3.06, 798.99 -0.48, 805.14 -2.3 M779.57 6.47 C787.89 4.08, 797.18 -0.32, 807.36 -4.08" stroke="#3fb950" stroke-width="2" fill="none"></path></g></g><g transform="translate(399.3910827636719 516.5) rotate(0 120.60891723632812 22.5)"><text x="120.60891723632812" y="NaN" font-family="Virgil, Segoe UI Emoji" font-size="18px" fill="#3fb950" text-anchor="middle" style="white-space: pre;" direction="ltr">Strong Consistent </text><text x="120.60891723632812" y="NaN" font-family="Virgil, Segoe UI Emoji" font-size="18px" fill="#3fb950" text-anchor="middle" style="white-space: pre;" direction="ltr">writes go via Write-through</text></g><g stroke-linecap="round"><g transform="translate(932.7393244542608 232.36717239257712) rotate(0 -128.04223023349635 -29.814330880077307)"><path d="M-0.58 0.64 C-20.82 -9.02, -78.32 -49.75, -121.06 -58.61 C-163.79 -67.47, -234.38 -53.68, -256.98 -52.52" stroke="#3fb950" stroke-width="2.5" fill="none" stroke-dasharray="8 10"></path></g><g transform="translate(932.7393244542608 232.36717239257712) rotate(0 -128.04223023349635 -29.814330880077307)"><path d="M-229.05 -64.56 C-237.44 -63.04, -248.98 -58.09, -256.45 -53.02" stroke="#3fb950" stroke-width="2.5" fill="none"></path></g><g transform="translate(932.7393244542608 232.36717239257712) rotate(0 -128.04223023349635 -29.814330880077307)"><path d="M-226.76 -44.17 C-235.8 -49.45, -248.11 -51.3, -256.45 -53.02" stroke="#3fb950" stroke-width="2.5" fill="none"></path></g></g><g transform="translate(716.9210433959961 187.25) rotate(0 83.0789566040039 11.25)"><text x="83.0789566040039" y="NaN" font-family="Virgil, Segoe UI Emoji" font-size="18px" fill="#3fb950" text-anchor="middle" style="white-space: pre;" direction="ltr">Update item cache</text></g><g stroke-linecap="round"><g transform="translate(115.82184895413775 232.96173775523027) rotate(0 466.24514576403953 -82.09091306965836)"><path d="M0.87 1.1 C73.36 -26.8, 279.53 -168.78, 434.85 -168.42 C590.16 -168.05, 849.7 -25.32, 932.77 3.28 M-0.14 0.63 C72.16 -27.02, 278.27 -167.71, 433.65 -167.09 C589.03 -166.48, 848.77 -24.19, 932.16 4.31" stroke="#f0883e" stroke-width="2" fill="none"></path></g><g transform="translate(115.82184895413775 232.96173775523027) rotate(0 466.24514576403953 -82.09091306965836)"><path d="M904.04 1.82 C910.25 3.36, 918.76 4.71, 931.04 6.05 M902.51 2.55 C911.74 3.17, 919.49 3.56, 931.26 4.46" stroke="#f0883e" stroke-width="2" fill="none"></path></g><g transform="translate(115.82184895413775 232.96173775523027) rotate(0 466.24514576403953 -82.09091306965836)"><path d="M912.15 -17.04 C915.83 -9.94, 921.98 -3.08, 931.04 6.05 M910.62 -16.3 C917.36 -10.29, 922.77 -4.45, 931.26 4.46" stroke="#f0883e" stroke-width="2" fill="none"></path></g></g><g transform="translate(413.3230743408203 10) rotate(0 106.67692565917969 22.5)"><text x="106.67692565917969" y="NaN" font-family="Virgil, Segoe UI Emoji" font-size="18px" fill="#f0883e" text-anchor="middle" style="white-space: pre;" direction="ltr">Strong consistent reads</text><text x="106.67692565917969" y="NaN" font-family="Virgil, Segoe UI Emoji" font-size="18px" fill="#f0883e" text-anchor="middle" style="white-space: pre;" direction="ltr">bypass cache entirely</text></g><g stroke-opacity="0.85" fill-opacity="0.85" stroke-linecap="round" transform="translate(428.3908957548499 415.09199157661385) rotate(0 135 27)"><path d="M1.73 -0.42 L270.51 0.4 L269.94 53.66 L1.04 55.87" stroke="none" stroke-width="0" fill="#4a1219"></path><path d="M-1.09 0.89 C68.39 -1.07, 134.58 -0.12, 270.96 -0.01 M-0.01 0.66 C73.46 -2.4, 148.75 -2.04, 270.35 -0.4 M268.95 1.45 C272.08 17.69, 272.01 36.78, 270.15 53.8 M270.66 -0.1 C270.04 14.73, 270.53 29.63, 270.71 53.91 M268.53 52.79 C172.04 53.95, 76.94 52.11, -0.88 53.19 M270.74 53.97 C215.53 56.37, 161.31 55.7, 0.52 54 M-0.31 53.35 C-2.04 35.59, 1.22 18.39, 0.64 0.09 M-0.28 53.15 C0.05 34.83, 0.32 18.33, 0.28 -0.01" stroke="#f85149" stroke-width="2" fill="none"></path></g><g transform="translate(460.3269537992835 422.09199157661385) rotate(0 103.0639419555664 20)"><text x="103.0639419555664" y="NaN" font-family="Virgil, Segoe UI Emoji" font-size="16px" fill="#ffffff" text-anchor="middle" style="white-space: pre;" direction="ltr">NOT invalidated on writes</text><text x="103.0639419555664" y="NaN" font-family="Virgil, Segoe UI Emoji" font-size="16px" fill="#ffffff" text-anchor="middle" style="white-space: pre;" direction="ltr">TTL expiration only</text></g></svg>