<svg version="1.1" xmlns="http://www.w3.org/2000/svg" viewBox="0 0 1442.3973780366493 902.827472733913" width="1442.3973780366493" height="902.827472733913">
  <!-- svg-source:excalidraw -->
  
  <defs>
    <style>
      @font-face {
        font-family: "Virgil";
        src: url("https://excalidraw.com/Virgil.woff2");
      }
      @font-face {
        font-family: "Cascadia";
        src: url("https://excalidraw.com/Cascadia.woff2");
      }
    </style>
  </defs>
  <rect x="0" y="0" width="1442.3973780366493" height="902.827472733913" fill="#0d1117"></rect><g stroke-opacity="0.6" fill-opacity="0.6" stroke-linecap="round" transform="translate(51.583126582317504 10) rotate(0 455.022958710102 102.76452609668569)"><path d="M0.22 0.38 L911.67 1.37 L909.8 204.23 L-1.91 205.17" stroke="none" stroke-width="0" fill="#161b22"></path><path d="M0.62 0.76 C272.58 1.63, 543.91 2.37, 910.16 -0.2 M910.47 -0.02 C912.97 83.41, 912.27 163.62, 911.05 205.4 M909.4 205.35 C655.58 209.01, 403.44 208.76, -0.42 205.59 M-0.29 206.22 C2.95 159.78, 1.74 116.34, -0.4 -1.61" stroke="#30363d" stroke-width="2.5" fill="none" stroke-dasharray="8 10"></path></g><g transform="translate(172.66565945797288 25.182796321350736) rotate(0 44.549964904785156 11.25)"><text x="44.549964904785156" y="NaN" font-family="Virgil, Segoe UI Emoji" font-size="18px" fill="#8b949e" text-anchor="middle" style="white-space: pre;" direction="ltr">Write Side</text></g><g stroke-opacity="0.6" fill-opacity="0.6" stroke-linecap="round" transform="translate(766.6051843548782 417.63842482321746) rotate(0 332.89609684088555 233.37387847650388)"><path d="M1.47 -1.53 L667.33 1.59 L664.69 465.57 L1.31 467.65" stroke="none" stroke-width="0" fill="#161b22"></path><path d="M0.39 0.71 C199.02 -0.77, 398.52 -1.46, 666.23 0.42 M665.47 -0.87 C665.93 133.05, 666.11 266.7, 666.01 467.6 M666.01 466.97 C432.96 466.86, 201.8 466.81, 0.2 467.01 M-0.88 466.01 C-0.99 330.19, -1.53 193.89, -0.54 0.46" stroke="#30363d" stroke-width="2.5" fill="none" stroke-dasharray="8 10"></path></g><g transform="translate(1294.2137042862241 453.44014376272173) rotate(0 44.13597106933594 11.25)"><text x="44.13597106933594" y="NaN" font-family="Virgil, Segoe UI Emoji" font-size="18px" fill="#8b949e" text-anchor="middle" style="white-space: pre;" direction="ltr">Read Side</text></g><g stroke-linecap="round" transform="translate(117.21562436275804 75.18279632135074) rotate(0 100 32)"><path d="M-0.46 -1.1 L199.69 -1.6 L201.79 62.66 L-0.39 62.41" stroke="none" stroke-width="0" fill="#3a1d6e"></path><path d="M0.36 1.46 C58.35 2.25, 118.06 1.09, 201.73 -1.23 M-0.86 0.09 C74.52 1.03, 147.53 1.34, 199.93 -0.04 M198.68 1.57 C198.51 12.7, 199.91 27.09, 198.07 65.19 M200.22 0 C200.37 24.21, 199.87 47.68, 199.03 63.91 M201.62 62.24 C151.78 65.79, 103.81 64.15, -0.14 63.71 M200.18 64.27 C140.52 65.66, 79.84 66.27, 0.35 63.32 M0.69 63.88 C1.04 46.41, -1.23 33.5, 1.39 0.99 M-0.66 63.59 C-0.56 43.44, 0.88 21.95, 0.08 0.91" stroke="#a371f7" stroke-width="2" fill="none"></path></g><g transform="translate(175.54565671139085 82.18279632135074) rotate(0 41.66996765136719 25)"><text x="41.66996765136719" y="NaN" font-family="Virgil, Segoe UI Emoji" font-size="20px" fill="#ffffff" text-anchor="middle" style="white-space: pre;" direction="ltr">Command</text><text x="41.66996765136719" y="NaN" font-family="Virgil, Segoe UI Emoji" font-size="20px" fill="#ffffff" text-anchor="middle" style="white-space: pre;" direction="ltr">Handler</text></g><g stroke-linecap="round" transform="translate(371.93242807519687 76.8865122029535) rotate(0 100 32)"><path d="M1.14 0.59 L199.87 1.65 L198.81 63.59 L-0.69 64.54" stroke="none" stroke-width="0" fill="#3a1d6e"></path><path d="M-0.15 1.33 C60.81 1.38, 119.65 0.6, 198.88 0.18 M0.41 -0.75 C51.39 -0.95, 102.01 -0.89, 199.64 0.87 M200.83 -1.43 C199 18.1, 199.17 37.49, 199.63 65.71 M199.41 0.8 C200.14 14.67, 199.74 31.61, 200.66 63.32 M198.21 65.08 C139.35 65.02, 79.88 65.02, -0.73 62.25 M200.38 63.76 C159.47 62.03, 119.44 63.47, 0.13 63.47 M1.81 62.75 C1.51 38.87, 0.31 15.38, -0.24 0.17 M0.22 63.58 C0.04 39.3, -0.5 15.3, -0.16 0.86" stroke="#a371f7" stroke-width="2" fill="none"></path></g><g transform="translate(399.3724991811539 83.8865122029535) rotate(0 72.55992889404297 25)"><text x="72.55992889404297" y="NaN" font-family="Virgil, Segoe UI Emoji" font-size="20px" fill="#ffffff" text-anchor="middle" style="white-space: pre;" direction="ltr">Validate</text><text x="72.55992889404297" y="NaN" font-family="Virgil, Segoe UI Emoji" font-size="20px" fill="#ffffff" text-anchor="middle" style="white-space: pre;" direction="ltr">Business Rules</text></g><g stroke-linecap="round" transform="translate(646.6825753691387 76.39726934118332) rotate(0 100 32)"><path d="M-1.26 -1.72 L200.05 0.89 L199.82 64.53 L-0.99 62.67" stroke="none" stroke-width="0" fill="#3a1d6e"></path><path d="M-0.66 1.2 C59.66 -3.09, 121.25 0.12, 199.62 1.59 M-0.13 0.2 C68.25 -1.13, 136.48 -1.32, 199.35 -0.02 M198.97 -0.43 C199.5 23.5, 198.43 47.89, 201.19 62.23 M200.6 -0.4 C200.63 19.94, 200.33 41.14, 200.29 64.73 M198.4 64.31 C126.92 64.25, 55.94 65.89, -1.31 64.4 M200.58 63.24 C138.42 63.8, 77.25 64.26, -0.08 63.62 M-1.07 65.63 C-0.75 44.13, -0.88 18.85, -1.87 -0.66 M-0.91 63.58 C-1.36 47.96, 0.13 34.25, -0.39 0.81" stroke="#a371f7" stroke-width="2" fill="none"></path></g><g transform="translate(681.67262663867 83.39726934118332) rotate(0 65.00994873046875 25)"><text x="65.00994873046875" y="NaN" font-family="Virgil, Segoe UI Emoji" font-size="20px" fill="#ffffff" text-anchor="middle" style="white-space: pre;" direction="ltr">Append Event</text><text x="65.00994873046875" y="NaN" font-family="Virgil, Segoe UI Emoji" font-size="20px" fill="#ffffff" text-anchor="middle" style="white-space: pre;" direction="ltr">to Log</text></g><g stroke-linecap="round" transform="translate(396.57502686198006 272.6635744858393) rotate(0 154.83723792414338 32)"><path d="M0.33 -0.04 L309.91 0.13 L310.51 65.46 L-1.29 64.8" stroke="none" stroke-width="0" fill="#5c3a10"></path><path d="M-0.94 0.85 C91.6 0.07, 184.96 0.06, 309.96 -0.47 M-0.53 -0.52 C70.03 0.22, 140.64 -0.13, 310.36 0.71 M310.79 0.58 C309.66 16.11, 311.36 28.68, 308.43 62.76 M309.47 0.4 C308.8 25.21, 308.59 48.67, 309.59 64.14 M308.55 63.63 C239.68 64.05, 172.09 66.67, 1.35 63.16 M310.3 64.42 C244.03 64, 178.63 65.02, -0.24 63.82 M0.04 64.5 C-0.28 45.4, 0.66 26.32, 0.49 -1.48 M-0.04 63.57 C0.52 45.82, 0.04 25.6, -0.63 0.76" stroke="#f0883e" stroke-width="2" fill="none"></path></g><g transform="translate(502.11229988133834 279.6635744858393) rotate(0 49.299964904785156 25)"><text x="49.299964904785156" y="NaN" font-family="Virgil, Segoe UI Emoji" font-size="20px" fill="#ffffff" text-anchor="middle" style="white-space: pre;" direction="ltr">Event Log</text><text x="49.299964904785156" y="NaN" font-family="Virgil, Segoe UI Emoji" font-size="20px" fill="#ffffff" text-anchor="middle" style="white-space: pre;" direction="ltr">(Kafka)</text></g><g stroke-linecap="round" transform="translate(124.4673587883974 612.0848359251502) rotate(0 100 32)"><path d="M1.93 1.65 L200.42 -0.62 L201.85 62.4 L-1.58 62.93" stroke="none" stroke-width="0" fill="#5c3a10"></path><path d="M-1.69 0.94 C60.96 -1.24, 120.83 -0.86, 201.11 0.82 M0.6 0.3 C61.98 0.31, 125.43 -0.38, 200.57 0 M199.27 1.58 C200.48 17.51, 200.95 39.08, 200.31 63.28 M200.98 -0.79 C200.9 17.68, 200.78 32.59, 199.54 63.55 M198.78 62.77 C142.07 66.3, 84.46 64.03, 1.11 65.09 M199.19 64 C136.33 65.55, 74.66 65.86, -0.52 63.92 M1.16 63.37 C1.46 50.66, -0.53 33.8, -1.14 1.69 M0.83 63.56 C1.13 41.68, 0.66 18.95, -0.87 0.72" stroke="#f0883e" stroke-width="2" fill="none"></path></g><g transform="translate(176.8274128045107 619.0848359251502) rotate(0 47.63994598388672 25)"><text x="47.63994598388672" y="NaN" font-family="Virgil, Segoe UI Emoji" font-size="20px" fill="#ffffff" text-anchor="middle" style="white-space: pre;" direction="ltr">Event</text><text x="47.63994598388672" y="NaN" font-family="Virgil, Segoe UI Emoji" font-size="20px" fill="#ffffff" text-anchor="middle" style="white-space: pre;" direction="ltr">Processor</text></g><g stroke-linecap="round" transform="translate(1152.5826503300261 616.1705675688963) rotate(0 100 32)"><path d="M-0.47 -0.66 L200.6 -1.38 L198.87 63.34 L-1.88 65.06" stroke="none" stroke-width="0" fill="#1f4d2b"></path><path d="M1.4 0.81 C59.82 1.49, 118.82 2.25, 198.25 -1.37 M0.07 -0.54 C78.84 0.13, 159.9 0.99, 200.28 -0.89 M201.41 -1.42 C200.98 22.91, 200.21 45.48, 201.88 63.8 M200.17 0.01 C199.4 20.95, 199.37 42.12, 199.17 64.96 M198.97 65.6 C129.64 65.53, 60.53 64.9, 0.52 63.64 M199.39 63.49 C157.09 61.93, 112.46 63.05, -0.74 64.07 M-1.72 62.25 C1.93 39.12, 1.01 15.67, 1.23 0.87 M-0.3 63.56 C-0.27 50.34, -0.71 37.9, 0.9 0.67" stroke="#3fb950" stroke-width="2" fill="none"></path></g><g transform="translate(1217.642678406198 623.1705675688963) rotate(0 34.939971923828125 25)"><text x="34.939971923828125" y="NaN" font-family="Virgil, Segoe UI Emoji" font-size="20px" fill="#ffffff" text-anchor="middle" style="white-space: pre;" direction="ltr">Query</text><text x="34.939971923828125" y="NaN" font-family="Virgil, Segoe UI Emoji" font-size="20px" fill="#ffffff" text-anchor="middle" style="white-space: pre;" direction="ltr">Handler</text></g><g stroke-linecap="round" transform="translate(821.062551755868 616.873559062615) rotate(0 100 32)"><path d="M1.13 1.02 L200.78 1.87 L199.88 64.27 L1.82 63.19" stroke="none" stroke-width="0" fill="#1f4d2b"></path><path d="M0.88 0.68 C58.67 0.62, 120.41 1.76, 198.99 0.04 M-0.47 0.41 C55.71 1.75, 112.58 0.56, 199.99 0.02 M199.56 -0.42 C201.47 15.51, 199.47 30.28, 199.44 64.32 M199.37 0.81 C199.89 13.42, 199.96 26.05, 200.8 64.37 M199.16 64.83 C157.21 64.76, 116.59 65.77, -0.07 65.79 M199.6 64.77 C136.04 63.7, 72.07 63.85, 0.84 64.22 M-0.6 65.12 C-1.61 44.39, -1.45 23.15, -0.4 0.05 M0.58 63.55 C0.33 48.2, -0.08 31.25, 0.66 0.62" stroke="#3fb950" stroke-width="2" fill="none"></path></g><g transform="translate(857.6926024150476 636.373559062615) rotate(0 63.36994934082031 12.5)"><text x="63.36994934082031" y="NaN" font-family="Virgil, Segoe UI Emoji" font-size="20px" fill="#ffffff" text-anchor="middle" style="white-space: pre;" direction="ltr">Read Service</text></g><g stroke-linecap="round" transform="translate(433.7899889566686 421.10233858318344) rotate(0 100 32)"><path d="M-1.27 -1.29 L200.96 1.11 L200.9 65.21 L1.52 65.32" stroke="none" stroke-width="0" fill="#0d2c5a"></path><path d="M0.37 0.55 C61.12 -0.25, 118.4 -2.32, 199.74 1.46 M0.8 -0.44 C74.37 1.57, 147.05 1.93, 199.7 -0.87 M201.71 0.58 C201.96 20.91, 198.73 40.68, 201 64.85 M200.56 -0.38 C199.66 18.69, 199.83 35.58, 200.42 63.78 M199.35 64.07 C144.78 63.99, 89.05 63.05, -0.66 64.34 M199.8 64.25 C154.99 63.67, 109.88 64.65, 0.62 64.37 M0.51 64 C0.14 45.65, 1.36 30.62, 1.96 -0.78 M-0.55 63.54 C-1.07 44.06, -1.46 24.6, 0.42 0.57" stroke="#58a6ff" stroke-width="2" fill="none"></path></g><g transform="translate(469.13005395911 428.10233858318344) rotate(0 64.6599349975586 25)"><text x="64.6599349975586" y="NaN" font-family="Virgil, Segoe UI Emoji" font-size="20px" fill="#ffffff" text-anchor="middle" style="white-space: pre;" direction="ltr">Projection</text><text x="64.6599349975586" y="NaN" font-family="Virgil, Segoe UI Emoji" font-size="20px" fill="#ffffff" text-anchor="middle" style="white-space: pre;" direction="ltr">(PostgreSQL)</text></g><g stroke-linecap="round" transform="translate(436.0583776281487 615.8954561402331) rotate(0 100 32)"><path d="M0.33 0.4 L201.15 0.35 L201.91 62.15 L1.23 63.45" stroke="none" stroke-width="0" fill="#0d2c5a"></path><path d="M-0.15 0.42 C59.97 2.48, 119.99 0.79, 200.48 -0.73 M0.26 0.51 C51.23 -2.21, 101.53 -2.1, 199.41 0.04 M199.85 1.59 C198.46 22.31, 201.99 47.07, 198.56 65.37 M199.75 0.42 C200.16 21.96, 200.42 45.1, 200.05 63.19 M199.54 63.3 C132.35 63.22, 65.12 63.92, -1.25 62.88 M200.01 63.73 C133.95 65.45, 67.68 65.44, 0.4 64.53 M1.63 62.87 C0.6 50.91, -1.1 34.09, 0.33 -1.6 M0.32 63.53 C0.81 39.92, 0.45 15.95, 0.18 0.52" stroke="#58a6ff" stroke-width="2" fill="none"></path></g><g transform="translate(462.36844385129325 622.8954561402331) rotate(0 73.68993377685547 25)"><text x="73.68993377685547" y="NaN" font-family="Virgil, Segoe UI Emoji" font-size="20px" fill="#ffffff" text-anchor="middle" style="white-space: pre;" direction="ltr">Projection</text><text x="73.68993377685547" y="NaN" font-family="Virgil, Segoe UI Emoji" font-size="20px" fill="#ffffff" text-anchor="middle" style="white-space: pre;" direction="ltr">(Elasticsearch)</text></g><g stroke-linecap="round" transform="translate(432.8903712309366 828.827472733913) rotate(0 100 32)"><path d="M1.93 -1.92 L201.33 -0.4 L198.92 63.08 L0.93 65.58" stroke="none" stroke-width="0" fill="#0d2c5a"></path><path d="M-0.66 0.29 C58.83 -2, 117.98 0.3, 201.22 0.68 M-0.27 -0.33 C68.1 -0.58, 136 -0.73, 199.12 -0.85 M198 -1.41 C198.95 14.92, 201.25 31.87, 200.13 65.89 M200.94 -0.78 C199.93 14.43, 200.28 29.03, 199.68 64.6 M199.73 62.53 C159.92 66.04, 121.18 64.79, 1.76 65.03 M200.21 63.22 C152.9 65.42, 107.29 66.24, 0.18 64.68 M-1.25 65.74 C-1.65 39.38, 1.71 15.97, -1.3 1.57 M-0.81 63.53 C-0.58 50.58, 1.07 34.9, -0.05 0.48" stroke="#58a6ff" stroke-width="2" fill="none"></path></g><g transform="translate(484.62042036423736 835.827472733913) rotate(0 48.26995086669922 25)"><text x="48.26995086669922" y="NaN" font-family="Virgil, Segoe UI Emoji" font-size="20px" fill="#ffffff" text-anchor="middle" style="white-space: pre;" direction="ltr">Projection</text><text x="48.26995086669922" y="NaN" font-family="Virgil, Segoe UI Emoji" font-size="20px" fill="#ffffff" text-anchor="middle" style="white-space: pre;" direction="ltr">(Redis)</text></g><g stroke-linecap="round"><g transform="translate(323.21562436275804 107.89806125095352) rotate(0 21.358401856219416 0.14285923785843124)"><path d="M-0.94 -0.78 C6.2 -0.64, 35.62 1.07, 42.82 1.23 M0.77 1.42 C7.76 1.21, 35.18 -0.41, 41.93 -0.4" stroke="#3fb950" stroke-width="2" fill="none"></path></g><g transform="translate(323.21562436275804 107.89806125095352) rotate(0 21.358401856219416 0.14285923785843124)"><path d="M20.81 7.75 C29.59 4.58, 33.77 1.18, 40.11 -2.08 M21.22 8.26 C26.63 5.48, 31.74 3.25, 42.64 -0.34" stroke="#3fb950" stroke-width="2" fill="none"></path></g><g transform="translate(323.21562436275804 107.89806125095352) rotate(0 21.358401856219416 0.14285923785843124)"><path d="M20.32 -6.86 C29.29 -5.64, 33.62 -4.68, 40.11 -2.08 M20.73 -6.35 C26.21 -5.84, 31.43 -4.79, 42.64 -0.34" stroke="#3fb950" stroke-width="2" fill="none"></path></g></g><g stroke-linecap="round"><g transform="translate(577.9324280751969 108.70419543973763) rotate(0 31.375073646970918 -0.055869054013200525)"><path d="M-0.45 0.25 C9.82 0.19, 50.92 0.63, 61.61 0.44 M1.51 -0.67 C12.13 -1.15, 53.41 -1.5, 63.73 -1.39" stroke="#3fb950" stroke-width="2" fill="none"></path></g><g transform="translate(577.9324280751969 108.70419543973763) rotate(0 31.375073646970918 -0.055869054013200525)"><path d="M35.96 7 C44.84 7.5, 51.05 1.61, 64.32 -2.28 M35.35 8.11 C44.08 5.77, 51.56 3.45, 63.27 -1.82" stroke="#3fb950" stroke-width="2" fill="none"></path></g><g transform="translate(577.9324280751969 108.70419543973763) rotate(0 31.375073646970918 -0.055869054013200525)"><path d="M35.94 -13.52 C44.97 -6.88, 51.18 -6.62, 64.32 -2.28 M35.34 -12.41 C43.91 -9.26, 51.4 -6.1, 63.27 -1.82" stroke="#3fb950" stroke-width="2" fill="none"></path></g></g><g stroke-linecap="round"><g transform="translate(852.6825753691387 108.29726934118332) rotate(0 6.9501199795020625 98.13315257232799)"><path d="M0.03 -1.13 C25.76 -1.3, 128.65 -32.88, 154.35 0.17 C180.06 33.23, 203.47 164.63, 154.27 197.21 C105.07 229.8, -91.72 195.81, -140.85 195.67" stroke="#3fb950" stroke-width="2.5" fill="none" stroke-dasharray="8 10"></path></g><g transform="translate(852.6825753691387 108.29726934118332) rotate(0 6.9501199795020625 98.13315257232799)"><path d="M-113.76 187.9 C-120.19 190.11, -127.57 191.85, -141.84 195.57" stroke="#3fb950" stroke-width="2.5" fill="none"></path></g><g transform="translate(852.6825753691387 108.29726934118332) rotate(0 6.9501199795020625 98.13315257232799)"><path d="M-115.52 208.35 C-121.62 204.44, -128.48 200.06, -141.84 195.57" stroke="#3fb950" stroke-width="2.5" fill="none"></path></g></g><g stroke-linecap="round"><g transform="translate(390.57502686198006 304.5635744858393) rotate(0 -160.88453262654667 169.71063071965546)"><path d="M0.52 -0.1 C-52.91 0, -266.7 -56.84, -320.59 -0.21 C-374.48 56.42, -330.9 282.95, -322.83 339.7 C-314.77 396.44, -280.72 340.21, -272.2 340.27" stroke="#f0883e" stroke-width="2.5" fill="none" stroke-dasharray="8 10"></path></g><g transform="translate(390.57502686198006 304.5635744858393) rotate(0 -160.88453262654667 169.71063071965546)"><path d="M-285.24 363.47 C-281.43 353.32, -276.77 348.58, -270.78 340.95" stroke="#f0883e" stroke-width="2.5" fill="none"></path></g><g transform="translate(390.57502686198006 304.5635744858393) rotate(0 -160.88453262654667 169.71063071965546)"><path d="M-295.87 350.22 C-288.97 343.99, -281.12 343.22, -270.78 340.95" stroke="#f0883e" stroke-width="2.5" fill="none"></path></g></g><g transform="translate(10 463.02420520549475) rotate(0 58.80596160888672 11.25)"><text x="58.80596160888672" y="NaN" font-family="Virgil, Segoe UI Emoji" font-size="18px" fill="#c9d1d9" text-anchor="middle" style="white-space: pre;" direction="ltr">event stream</text></g><g stroke-linecap="round"><g transform="translate(1146.5826503300261 648.4017839781716) rotate(0 -59.76004928707903 0.12672174777242162)"><path d="M-0.91 -0.44 C-20.65 -0.56, -98.55 -0.66, -118.43 -0.72 M0.82 -1.72 C-18.98 -1.72, -98.45 0.02, -118.81 0.3" stroke="#58a6ff" stroke-width="2" fill="none"></path></g><g transform="translate(1146.5826503300261 648.4017839781716) rotate(0 -59.76004928707903 0.12672174777242162)"><path d="M-91.54 -8.65 C-100.82 -8.58, -109.35 -3.31, -120.56 -1.45 M-90.19 -11.13 C-97.1 -7.83, -104.64 -5.4, -117.9 -0.11" stroke="#58a6ff" stroke-width="2" fill="none"></path></g><g transform="translate(1146.5826503300261 648.4017839781716) rotate(0 -59.76004928707903 0.12672174777242162)"><path d="M-91.17 11.87 C-100.56 5.8, -109.21 4.92, -120.56 -1.45 M-89.82 9.39 C-96.7 7.81, -104.33 5.35, -117.9 -0.11" stroke="#58a6ff" stroke-width="2" fill="none"></path></g></g><g stroke-linecap="round"><g transform="translate(306.5937817716559 606.0848359251504) rotate(0 62.11216548276876 -62.13745862599353)"><path d="M-0.42 0.59 C20.26 -20.02, 103.18 -102.54, 124.07 -123.24" stroke="#f0883e" stroke-width="2.5" fill="none" stroke-dasharray="8 10"></path></g><g transform="translate(306.5937817716559 606.0848359251504) rotate(0 62.11216548276876 -62.13745862599353)"><path d="M112.28 -96.35 C116.76 -102.97, 119.95 -110.84, 124.73 -124.2" stroke="#f0883e" stroke-width="2.5" fill="none"></path></g><g transform="translate(306.5937817716559 606.0848359251504) rotate(0 62.11216548276876 -62.13745862599353)"><path d="M97.82 -110.91 C106.68 -113.12, 114.2 -116.63, 124.73 -124.2" stroke="#f0883e" stroke-width="2.5" fill="none"></path></g></g><g transform="translate(333.13796934915126 532.6973772991569) rotate(0 35.56797790527344 11.25)"><text x="35.56797790527344" y="NaN" font-family="Virgil, Segoe UI Emoji" font-size="18px" fill="#c9d1d9" text-anchor="middle" style="white-space: pre;" direction="ltr">updates</text></g><g stroke-linecap="round"><g transform="translate(330.4673587883974 648.4242711893412) rotate(0 49.79550941987566 2.6368988960745696)"><path d="M0.55 0.25 C17.11 1.36, 82.66 4.82, 99.35 5.54" stroke="#f0883e" stroke-width="2.5" fill="none" stroke-dasharray="8 10"></path></g><g transform="translate(330.4673587883974 648.4242711893412) rotate(0 49.79550941987566 2.6368988960745696)"><path d="M71.1 14.01 C79.81 13.49, 86.8 7.52, 100.84 6.15" stroke="#f0883e" stroke-width="2.5" fill="none"></path></g><g transform="translate(330.4673587883974 648.4242711893412) rotate(0 49.79550941987566 2.6368988960745696)"><path d="M72.11 -6.48 C80.32 -0.87, 87 -0.7, 100.84 6.15" stroke="#f0883e" stroke-width="2.5" fill="none"></path></g></g><g transform="translate(344.6948903029996 639.8111700854156) rotate(0 35.56797790527344 11.25)"><text x="35.56797790527344" y="NaN" font-family="Virgil, Segoe UI Emoji" font-size="18px" fill="#c9d1d9" text-anchor="middle" style="white-space: pre;" direction="ltr">updates</text></g><g stroke-linecap="round"><g transform="translate(302.2719659399935 682.0848359251502) rotate(0 62.7509174202729 77.638064076219)"><path d="M-0.88 -0.1 C19.99 25.76, 104.26 128.82, 125.18 154.78" stroke="#f0883e" stroke-width="2.5" fill="none" stroke-dasharray="8 10"></path></g><g transform="translate(302.2719659399935 682.0848359251502) rotate(0 62.7509174202729 77.638064076219)"><path d="M99.28 138.82 C106.27 142.68, 115.42 148.41, 123.49 152.95" stroke="#f0883e" stroke-width="2.5" fill="none"></path></g><g transform="translate(302.2719659399935 682.0848359251502) rotate(0 62.7509174202729 77.638064076219)"><path d="M115.2 125.89 C117.39 133.5, 121.77 143.1, 123.49 152.95" stroke="#f0883e" stroke-width="2.5" fill="none"></path></g></g><g transform="translate(329.4549054549929 748.4729000013692) rotate(0 35.56797790527344 11.25)"><text x="35.56797790527344" y="NaN" font-family="Virgil, Segoe UI Emoji" font-size="18px" fill="#c9d1d9" text-anchor="middle" style="white-space: pre;" direction="ltr">updates</text></g><g stroke-opacity="0.8" fill-opacity="0.8" transform="translate(146.207682163051 53.182796321350736) rotate(0 71.00794219970703 10)"><text x="71.00794219970703" y="NaN" font-family="Virgil, Segoe UI Emoji" font-size="16px" fill="#8b949e" text-anchor="middle" style="white-space: pre;" direction="ltr">Commands (writes)</text></g><g stroke-opacity="0.8" fill-opacity="0.8" transform="translate(1182.994943232438 587.8449673460834) rotate(0 60.54396057128906 10)"><text x="60.54396057128906" y="NaN" font-family="Virgil, Segoe UI Emoji" font-size="16px" fill="#8b949e" text-anchor="middle" style="white-space: pre;" direction="ltr">Queries (reads)</text></g><g stroke-linecap="round"><g transform="translate(815.062551755868 648.8482375214012) rotate(0 -86.50208706385962 -0.45732991997726913)"><path d="M0.45 -0.52 C-28.54 -0.74, -144.34 -1.21, -173.22 -1.19" stroke="#f08c00" stroke-width="2.5" fill="none" stroke-dasharray="8 10"></path></g><g transform="translate(815.062551755868 648.8482375214012) rotate(0 -86.50208706385962 -0.45732991997726913)"><path d="M-145.88 -11.75 C-155.6 -7.32, -164.42 -3.25, -173.16 -0.36" stroke="#f08c00" stroke-width="2.5" fill="none"></path></g><g transform="translate(815.062551755868 648.8482375214012) rotate(0 -86.50208706385962 -0.45732991997726913)"><path d="M-145.92 8.77 C-155.65 5.82, -164.45 2.51, -173.16 -0.36" stroke="#f08c00" stroke-width="2.5" fill="none"></path></g></g><g transform="translate(676.660501313102 623.390907601424) rotate(0 51.89996337890625 25)"><text x="51.89996337890625" y="NaN" font-family="Segoe UI Emoji" font-size="20px" fill="#f08c00" text-anchor="middle" style="white-space: pre;" direction="ltr">Read From</text><text x="51.89996337890625" y="NaN" font-family="Segoe UI Emoji" font-size="20px" fill="#f08c00" text-anchor="middle" style="white-space: pre;" direction="ltr">Projection</text></g><g stroke-linecap="round"><g transform="translate(815.0625517558681 655.6382560567833) rotate(0 -88.08609026246575 99.21865984148053)"><path d="M-0.74 1.05 C-30 33.96, -147.4 165.52, -176.66 198.23" stroke="#f08c00" stroke-width="2.5" fill="none" stroke-dasharray="8 10"></path></g><g transform="translate(815.0625517558681 655.6382560567833) rotate(0 -88.08609026246575 99.21865984148053)"><path d="M-163.78 169.55 C-168 175.82, -171.82 180.12, -178.33 196.81" stroke="#f08c00" stroke-width="2.5" fill="none"></path></g><g transform="translate(815.0625517558681 655.6382560567833) rotate(0 -88.08609026246575 99.21865984148053)"><path d="M-148.47 183.22 C-155.97 186.56, -162.97 188.01, -178.33 196.81" stroke="#f08c00" stroke-width="2.5" fill="none"></path></g></g><g transform="translate(671.0764981144961 729.8569158982639) rotate(0 55.89996337890625 25)"><text x="55.89996337890625" y="NaN" font-family="Segoe UI Emoji" font-size="20px" fill="#f08c00" text-anchor="middle" style="white-space: pre;" direction="ltr">Read From </text><text x="55.89996337890625" y="NaN" font-family="Segoe UI Emoji" font-size="20px" fill="#f08c00" text-anchor="middle" style="white-space: pre;" direction="ltr">Projection</text></g></svg>