<svg version="1.1" xmlns="http://www.w3.org/2000/svg" viewBox="0 0 1838.4876082923743 524.1259446353117" width="1838.4876082923743" height="524.1259446353117">
  <!-- svg-source:excalidraw -->
  
  <defs>
    <style>
      @font-face {
        font-family: "Virgil";
        src: url("https://excalidraw.com/Virgil.woff2");
      }
      @font-face {
        font-family: "Cascadia";
        src: url("https://excalidraw.com/Cascadia.woff2");
      }
    </style>
  </defs>
  <rect x="0" y="0" width="1838.4876082923743" height="524.1259446353117" fill="#1e1e2e"></rect><g stroke-linecap="round" transform="translate(10 201.46828732573346) rotate(0 110 32)"><path d="M-0.63 1.48 L220.18 0.86 L218.01 65.51 L0.56 65.84" stroke="none" stroke-width="0" fill="#5b21b6"></path><path d="M-0.69 1.25 C55.16 -1.19, 109 1.83, 219.78 1.68 M0.69 0.11 C46.05 0.64, 92.05 0.79, 219.99 0.29 M219.96 -1.09 C219.16 14.92, 221.44 31.05, 220.17 63.64 M220.07 -0.2 C219.27 14.99, 219.44 30.5, 220.09 64.72 M221.05 63.8 C161.95 66.54, 103.25 65.66, -0.44 63.35 M220.35 64.57 C168.97 64.17, 116.15 63.56, -0.08 64.41 M-1.13 64.92 C1.81 50.4, 0.74 35.81, 0.63 -1.28 M-0.09 63.3 C-1.11 38.49, -1.16 14.09, 0.5 0" stroke="#7c3aed" stroke-width="2" fill="none"></path></g><g transform="translate(44.44005584716797 220.96828732573346) rotate(0 75.55994415283203 12.5)"><text x="75.55994415283203" y="NaN" font-family="Virgil, Segoe UI Emoji" font-size="20px" fill="#ffffff" text-anchor="middle" style="white-space: pre;" direction="ltr">Matching Engine</text></g><g stroke-linecap="round" transform="translate(451.9381089486426 202.79759923925036) rotate(0 90 32)"><path d="M0.97 -0.84 L180.37 0.11 L179.02 62.45 L0.27 63.97" stroke="none" stroke-width="0" fill="#b45309"></path><path d="M-1.37 1.29 C43.94 -2.24, 90.68 -2.33, 180.57 -0.49 M0.2 -0.82 C52.72 0.49, 106.2 0.38, 179.67 -0.65 M178.11 -0.09 C179.66 20.33, 180.7 41.45, 181.73 64.16 M179.26 0.6 C181.04 20.26, 181.31 40.03, 179.72 64.13 M181.43 62.92 C121.31 65.72, 62.88 66.53, -1.16 65.63 M180.63 64.08 C119.41 64.07, 58.64 64.27, -0.33 64.64 M-0.02 63.8 C-0.44 38.86, -0.44 17.69, -1.01 1.89 M0.78 63.29 C0.77 49.15, 0.75 33.04, 0.26 -0.05" stroke="#d97706" stroke-width="2" fill="none"></path></g><g transform="translate(512.7381272591895 222.29759923925036) rotate(0 29.199981689453125 12.5)"><text x="29.199981689453125" y="NaN" font-family="Virgil, Segoe UI Emoji" font-size="20px" fill="#ffffff" text-anchor="middle" style="white-space: pre;" direction="ltr">Kafka</text></g><g stroke-linecap="round" transform="translate(833.8848190975805 188.89833972131504) rotate(0 110 44)"><path d="M-1.43 0.85 L220.55 -0.65 L220.04 87.38 L-0.03 86.1" stroke="none" stroke-width="0" fill="#b45309"></path><path d="M-1.68 1 C56.42 0.66, 108.6 0.96, 221.21 0.94 M-0.34 0.21 C83.21 0.39, 167.8 1.79, 219.43 0.31 M220.25 0.91 C220.07 35.04, 219.88 66.47, 219.29 88.68 M220.45 -0.6 C219.59 34.92, 219.95 68.33, 219.35 87.54 M221.42 86.32 C134.58 89.03, 50.28 87.86, -1.57 88.02 M220.74 87.57 C166.76 90.02, 113.26 89.25, -0.5 88.7 M1.1 86.67 C0.02 60.61, 1.09 34.13, 1.36 1.07 M-0.35 87.29 C-0.53 61.79, -0.54 35.96, 0.02 -0.1" stroke="#d97706" stroke-width="2" fill="none"></path></g><g transform="translate(877.4748612118383 207.89833972131504) rotate(0 66.40995788574219 25)"><text x="66.40995788574219" y="NaN" font-family="Virgil, Segoe UI Emoji" font-size="20px" fill="#ffffff" text-anchor="middle" style="white-space: pre;" direction="ltr">Market Data</text><text x="66.40995788574219" y="NaN" font-family="Virgil, Segoe UI Emoji" font-size="20px" fill="#ffffff" text-anchor="middle" style="white-space: pre;" direction="ltr">Service</text></g><g stroke-linecap="round" transform="translate(1244.8159976675524 201.64860079821148) rotate(0 100 32)"><path d="M0.17 -1.46 L200.73 -1.41 L201.05 64.32 L-0.33 64.23" stroke="none" stroke-width="0" fill="#b45309"></path><path d="M1.34 0.9 C50.34 -0.28, 100.16 0.41, 198.4 -1.21 M-0.89 -0.63 C54.22 1.93, 107.02 1.33, 199.12 -0.56 M198.4 1.91 C200.64 18.33, 199.22 32.64, 200.85 65.2 M199.64 0.2 C200.03 16, 200.49 33.49, 200.97 64.95 M201.66 65.09 C149.93 64.16, 98.34 64.57, 1.38 62.57 M199.17 64.84 C130.54 62.3, 62.51 62.33, -0.74 64.88 M-1.78 65.55 C0.49 45.39, -1.37 32.63, -0.27 0.24 M0.52 63.28 C-0.02 40.87, 0 17.74, -0.21 -0.15" stroke="#d97706" stroke-width="2" fill="none"></path></g><g transform="translate(1275.0460620596423 221.14860079821148) rotate(0 69.76993560791016 12.5)"><text x="69.76993560791016" y="NaN" font-family="Virgil, Segoe UI Emoji" font-size="20px" fill="#ffffff" text-anchor="middle" style="white-space: pre;" direction="ltr">Redis Pub/Sub</text></g><g stroke-linecap="round" transform="translate(1593.6608018721154 10) rotate(0 110 32)"><path d="M1.76 0.22 L220.91 1.84 L218.07 65.25 L-0.63 62.36" stroke="none" stroke-width="0" fill="#1e40af"></path><path d="M0.8 0.75 C54.21 2.52, 108.2 0.08, 219.17 0.19 M0.36 0.31 C78.11 -1.94, 155.56 -1.02, 220.61 0.33 M220.55 -1.08 C221.14 19.73, 218.48 43.04, 218.41 65.73 M220.83 -0.99 C219.81 21.27, 220.35 43.02, 220.6 64.36 M218.32 64.31 C151.21 67, 81.84 65.52, 0.76 64.69 M219.4 64.31 C164.54 64.04, 110.36 63.13, 0.81 63.26 M-0.66 64.42 C-1.77 50.65, 1.44 36.11, -1.91 -0.58 M-0.6 63.27 C0.58 49.53, 0.63 36.69, -0.45 -0.2" stroke="#3b82f6" stroke-width="2" fill="none"></path></g><g transform="translate(1653.0208482588341 17) rotate(0 50.63995361328125 25)"><text x="50.63995361328125" y="NaN" font-family="Virgil, Segoe UI Emoji" font-size="20px" fill="#ffffff" text-anchor="middle" style="white-space: pre;" direction="ltr">WebSocket</text><text x="50.63995361328125" y="NaN" font-family="Virgil, Segoe UI Emoji" font-size="20px" fill="#ffffff" text-anchor="middle" style="white-space: pre;" direction="ltr">Server 1</text></g><g stroke-linecap="round" transform="translate(1604.8159976675524 201.64860079821148) rotate(0 110 32)"><path d="M-0.64 1.91 L221.1 1.08 L219.08 62.19 L-0.92 64.49" stroke="none" stroke-width="0" fill="#1e40af"></path><path d="M0.3 0.62 C56.57 1.54, 109.73 -0.53, 219.89 1.55 M-0.15 -0.5 C52.68 -2.06, 103.71 -1.39, 220.33 -0.52 M218.7 -0.08 C221.63 25.13, 221.74 49.44, 219.98 62.25 M220.02 -0.19 C220.3 13.74, 220.94 26.94, 220.23 63.77 M218.5 63.57 C137.52 66.25, 55.35 66.35, 0.2 63.29 M219.59 63.81 C143.17 64.1, 64.05 63.98, 0.6 63.4 M0.46 63.29 C-1.3 43.11, -1.02 17.98, 0.46 -1.4 M0.27 63.27 C0.46 47.39, 0.53 30.04, -0.69 -0.24" stroke="#3b82f6" stroke-width="2" fill="none"></path></g><g transform="translate(1664.1760440542712 208.64860079821148) rotate(0 50.63995361328125 25)"><text x="50.63995361328125" y="NaN" font-family="Virgil, Segoe UI Emoji" font-size="20px" fill="#ffffff" text-anchor="middle" style="white-space: pre;" direction="ltr">WebSocket</text><text x="50.63995361328125" y="NaN" font-family="Virgil, Segoe UI Emoji" font-size="20px" fill="#ffffff" text-anchor="middle" style="white-space: pre;" direction="ltr">Server 2</text></g><g stroke-linecap="round" transform="translate(1608.4876082923743 409.5689091489899) rotate(0 110 32)"><path d="M0.96 -0.4 L221.28 0.33 L220.1 63.13 L-1.22 62.62" stroke="none" stroke-width="0" fill="#1e40af"></path><path d="M-0.19 0.49 C55.47 -2.91, 111.27 -1.14, 220.6 -0.56 M-0.67 0.41 C71.26 -0.45, 141.59 -0.02, 220.05 0.35 M220.84 0.92 C222.12 17.73, 221 34.24, 221.54 62.77 M219.21 0.61 C218.79 19.01, 219.53 36.47, 219.86 63.18 M218.68 62.83 C167.83 65.5, 113.4 63.71, -0.37 65.36 M219.79 63.31 C164.06 65.89, 107.47 64.82, 0.39 63.55 M1.57 62.17 C0.44 44.38, 1.8 25.45, -1.17 1.77 M-0.86 63.26 C1.06 43.25, 1.16 23.39, -0.92 -0.29" stroke="#3b82f6" stroke-width="2" fill="none"></path></g><g transform="translate(1667.847654679093 416.5689091489899) rotate(0 50.63995361328125 25)"><text x="50.63995361328125" y="NaN" font-family="Virgil, Segoe UI Emoji" font-size="20px" fill="#ffffff" text-anchor="middle" style="white-space: pre;" direction="ltr">WebSocket</text><text x="50.63995361328125" y="NaN" font-family="Virgil, Segoe UI Emoji" font-size="20px" fill="#ffffff" text-anchor="middle" style="white-space: pre;" direction="ltr">Server N</text></g><g stroke-linecap="round"><g transform="translate(235.99999999999997 233.84007835204804) rotate(0 104.9690544743213 0.3307071215716775)"><path d="M-0.58 -0.48 C34.56 -0.52, 175.22 0.14, 210.19 0.27 M1.32 -1.77 C36.37 -1.69, 174.91 1.07, 209.38 1.6" stroke="#40916c" stroke-width="2" fill="none"></path></g><g transform="translate(235.99999999999997 233.84007835204804) rotate(0 104.9690544743213 0.3307071215716775)"><path d="M180.22 11.79 C187.4 7.92, 194.53 7.95, 210.9 2.53 M181.64 10.89 C186.84 8.84, 192.49 7.03, 209.12 1.02" stroke="#40916c" stroke-width="2" fill="none"></path></g><g transform="translate(235.99999999999997 233.84007835204804) rotate(0 104.9690544743213 0.3307071215716775)"><path d="M180.58 -8.73 C187.76 -7.48, 194.79 -2.32, 210.9 2.53 M182.01 -9.62 C187.3 -7.4, 192.87 -4.94, 209.12 1.02" stroke="#40916c" stroke-width="2" fill="none"></path></g></g><g transform="translate(276.0791084904346 221.67078547361973) rotate(0 64.88994598388672 12.5)"><text x="64.88994598388672" y="NaN" font-family="Virgil, Segoe UI Emoji" font-size="20px" fill="#cdd6f4" text-anchor="middle" style="white-space: pre;" direction="ltr">1 update/pair</text></g><g stroke-linecap="round"><g transform="translate(637.9381089486426 234.35104725868786) rotate(0 94.97335507446894 -0.44819204935974)"><path d="M0.4 -0.82 C32.18 -0.98, 158.57 -2.16, 190.12 -2.06" stroke="#d97706" stroke-width="2.5" fill="none" stroke-dasharray="8 10"></path></g><g transform="translate(637.9381089486426 234.35104725868786) rotate(0 94.97335507446894 -0.44819204935974)"><path d="M160.6 8.6 C167.15 5.14, 177.27 1.45, 188.46 -3.56" stroke="#d97706" stroke-width="2.5" fill="none"></path></g><g transform="translate(637.9381089486426 234.35104725868786) rotate(0 94.97335507446894 -0.44819204935974)"><path d="M160.52 -11.92 C166.91 -10.26, 177.04 -8.82, 188.46 -3.56" stroke="#d97706" stroke-width="2.5" fill="none"></path></g></g><g transform="translate(689.7915070528967 208.9028552093281) rotate(0 43.119956970214844 25)"><text x="43.119956970214844" y="NaN" font-family="Virgil, Segoe UI Emoji" font-size="20px" fill="#cdd6f4" text-anchor="middle" style="white-space: pre;" direction="ltr">100K </text><text x="43.119956970214844" y="NaN" font-family="Virgil, Segoe UI Emoji" font-size="20px" fill="#cdd6f4" text-anchor="middle" style="white-space: pre;" direction="ltr">msgs/sec</text></g><g stroke-linecap="round"><g transform="translate(1059.8848190975805 233.1234757642183) rotate(0 89.46558928498598 0.16688192210528285)"><path d="M-1.03 -1.16 C28.91 -0.98, 149 0.67, 179.01 0.81 M0.63 0.84 C30.47 0.68, 148.49 -1.04, 178.11 -1.07" stroke="#d97706" stroke-width="2" fill="none"></path></g><g transform="translate(1059.8848190975805 233.1234757642183) rotate(0 89.46558928498598 0.16688192210528285)"><path d="M148.07 9.57 C157.84 7.22, 162.97 3.92, 177.28 -1 M149.45 9.09 C160.28 5.63, 171.85 1.31, 177.21 -1.63" stroke="#d97706" stroke-width="2" fill="none"></path></g><g transform="translate(1059.8848190975805 233.1234757642183) rotate(0 89.46558928498598 0.16688192210528285)"><path d="M147.89 -10.95 C157.66 -8.18, 162.84 -6.35, 177.28 -1 M149.27 -11.43 C159.97 -7.11, 171.61 -3.65, 177.21 -1.63" stroke="#d97706" stroke-width="2" fill="none"></path></g></g><g transform="translate(1106.6804483605938 195.7903576863236) rotate(0 42.669960021972656 37.5)"><text x="42.669960021972656" y="NaN" font-family="Virgil, Segoe UI Emoji" font-size="20px" fill="#cdd6f4" text-anchor="middle" style="white-space: pre;" direction="ltr">batch </text><text x="42.669960021972656" y="NaN" font-family="Virgil, Segoe UI Emoji" font-size="20px" fill="#cdd6f4" text-anchor="middle" style="white-space: pre;" direction="ltr">+ </text><text x="42.669960021972656" y="NaN" font-family="Virgil, Segoe UI Emoji" font-size="20px" fill="#cdd6f4" text-anchor="middle" style="white-space: pre;" direction="ltr">sequence</text></g><g stroke-linecap="round"><g transform="translate(1434.4079745786855 196.11941100543817) rotate(0 77.82252467799003 -63.29266131004847)"><path d="M-0.06 0.9 C25.98 -20.34, 129.61 -105.7, 155.64 -126.88 M-1.55 0.32 C24.39 -20.79, 128.5 -104.06, 154.69 -125.5" stroke="#3b82f6" stroke-width="2" fill="none"></path></g><g transform="translate(1434.4079745786855 196.11941100543817) rotate(0 77.82252467799003 -63.29266131004847)"><path d="M140.7 -99.81 C142.47 -105.39, 147.49 -112.06, 154.69 -123.86 M140.06 -99.09 C142.56 -107.18, 148.15 -112.6, 155.47 -125.05" stroke="#3b82f6" stroke-width="2" fill="none"></path></g><g transform="translate(1434.4079745786855 196.11941100543817) rotate(0 77.82252467799003 -63.29266131004847)"><path d="M127.81 -115.77 C132.86 -117.36, 141.11 -120.05, 154.69 -123.86 M127.16 -115.05 C133.09 -118.83, 142.1 -120.02, 155.47 -125.05" stroke="#3b82f6" stroke-width="2" fill="none"></path></g></g><g stroke-linecap="round"><g transform="translate(1450.8159976675524 233.6550007982115) rotate(0 74 0)"><path d="M0.43 -0.48 C25.39 -0.75, 124.64 -0.71, 149.15 -0.68 M-0.81 -1.77 C24.15 -1.98, 124.27 0.06, 148.81 0.5" stroke="#3b82f6" stroke-width="2" fill="none"></path></g><g transform="translate(1450.8159976675524 233.6550007982115) rotate(0 74 0)"><path d="M119.64 12.15 C126.31 6.84, 134.07 6.37, 147.22 -1.08 M119.98 9.47 C129.34 8.13, 138.86 3.39, 148.42 0.46" stroke="#3b82f6" stroke-width="2" fill="none"></path></g><g transform="translate(1450.8159976675524 233.6550007982115) rotate(0 74 0)"><path d="M120.03 -8.37 C126.76 -8.55, 134.43 -3.89, 147.22 -1.08 M120.37 -11.05 C129.53 -6.08, 138.93 -4.52, 148.42 0.46" stroke="#3b82f6" stroke-width="2" fill="none"></path></g></g><g transform="translate(1485.7460208609118 196.1550007982115) rotate(0 39.069976806640625 37.5)"><text x="39.069976806640625" y="NaN" font-family="Virgil, Segoe UI Emoji" font-size="20px" fill="#cdd6f4" text-anchor="middle" style="white-space: pre;" direction="ltr">1 msg</text><text x="39.069976806640625" y="NaN" font-family="Virgil, Segoe UI Emoji" font-size="20px" fill="#cdd6f4" text-anchor="middle" style="white-space: pre;" direction="ltr">/channel</text><text x="39.069976806640625" y="NaN" font-family="Virgil, Segoe UI Emoji" font-size="20px" fill="#cdd6f4" text-anchor="middle" style="white-space: pre;" direction="ltr">/server</text></g><g stroke-linecap="round"><g transform="translate(1433.5386928121125 271.3202736892216) rotate(0 85.81907132023048 71.07084333726516)"><path d="M-1 -0.82 C27.89 23.13, 143.95 119.14, 172.7 143.1 M0.68 1.37 C29.55 25.05, 143.98 118.2, 172.32 141.47" stroke="#3b82f6" stroke-width="2" fill="none"></path></g><g transform="translate(1433.5386928121125 271.3202736892216) rotate(0 85.81907132023048 71.07084333726516)"><path d="M142.63 133.36 C152.61 134.08, 159.4 134.94, 171.55 141.46 M144.95 131.88 C155.1 135.69, 165.6 139.54, 171.61 142.44" stroke="#3b82f6" stroke-width="2" fill="none"></path></g><g transform="translate(1433.5386928121125 271.3202736892216) rotate(0 85.81907132023048 71.07084333726516)"><path d="M155.62 117.47 C162.27 122.05, 165.81 126.88, 171.55 141.46 M157.94 115.99 C163.1 126.03, 168.5 136.12, 171.61 142.44" stroke="#3b82f6" stroke-width="2" fill="none"></path></g></g><g stroke-opacity="0.8" fill-opacity="0.8" transform="translate(1627.707331501159 489.1259446353118) rotate(0 90.2799301147461 12.5)"><text x="90.2799301147461" y="NaN" font-family="Virgil, Segoe UI Emoji" font-size="20px" fill="#a6adc8" text-anchor="middle" style="white-space: pre;" direction="ltr">~65K clients each</text></g></svg>