<svg version="1.1" xmlns="http://www.w3.org/2000/svg" viewBox="0 0 2022.5747770339553 835" width="2022.5747770339553" height="835">
  <!-- svg-source:excalidraw -->
  
  <defs>
    <style>
      @font-face {
        font-family: "Virgil";
        src: url("https://excalidraw.com/Virgil.woff2");
      }
      @font-face {
        font-family: "Cascadia";
        src: url("https://excalidraw.com/Cascadia.woff2");
      }
    </style>
  </defs>
  <rect x="0" y="0" width="2022.5747770339553" height="835" fill="#1e1e2e"></rect><g stroke-opacity="0.6" fill-opacity="0.6" stroke-linecap="round" transform="translate(10 13.540568976443183) rotate(0 360 388.5940375460045)"><path d="M-0.11 1.33 L719.15 -0.03 L718.47 775.31 L0.28 775.82" stroke="none" stroke-width="0" fill="#181825"></path><path d="M-0.22 -0.33 C235.04 -1.99, 470.5 -1.52, 719.92 -0.26 M720.38 -0.12 C721.78 292.59, 722.25 586.15, 720.58 777.57 M720.44 777.94 C561.92 777.72, 402.36 778.33, 0.57 777.24 M-0.01 776.82 C1.51 585.03, 1.18 394.72, -0.52 -0.57" stroke="#45475a" stroke-width="2.5" fill="none" stroke-dasharray="8 10"></path></g><g transform="translate(84.03692018920276 59.05003351972789) rotate(0 90.91793823242188 11.25)"><text x="0" y="NaN" font-family="Virgil, Segoe UI Emoji" font-size="18px" fill="#a6adc8" text-anchor="start" style="white-space: pre;" direction="ltr">Round 1 -- 1 infected</text></g><g stroke-opacity="0.6" fill-opacity="0.6" stroke-linecap="round" transform="translate(844.8388388490611 11.44412894425318) rotate(0 360 398.2600612766998)"><path d="M1.03 -0.82 L718.41 0.8 L718.79 796.87 L0 798.03" stroke="none" stroke-width="0" fill="#181825"></path><path d="M0.29 0.52 C155.64 -0.86, 310.88 -0.93, 719.71 0.21 M720.27 -0.51 C718.11 177.1, 718.19 354.77, 720.45 796.78 M720.7 796.41 C441.32 797.74, 162.63 798.05, -0.43 796.09 M0.07 795.95 C0.23 613.09, -0.12 430.75, -0.55 -0.01" stroke="#45475a" stroke-width="2.5" fill="none" stroke-dasharray="8 10"></path></g><g transform="translate(904.8784354602427 54.61357709772051) rotate(0 98.57694244384766 11.25)"><text x="0" y="NaN" font-family="Virgil, Segoe UI Emoji" font-size="18px" fill="#a6adc8" text-anchor="start" style="white-space: pre;" direction="ltr">Round 2 -- 3 infected</text></g><g stroke-opacity="0.6" fill-opacity="0.6" stroke-linecap="round" transform="translate(1712.5747770339553 10) rotate(0 150 407.5)"><path d="M1.26 -0.32 L298.96 1.32 L299.44 815.97 L1.7 815.94" stroke="none" stroke-width="0" fill="#181825"></path><path d="M-0.73 -0.53 C65.26 0.31, 131.23 -0.02, 299.88 0.6 M299.65 0.02 C298.9 214.38, 298.69 428.02, 300.35 815.59 M298.57 814.22 C193.96 813.67, 88.92 814.13, 0.56 815.66 M-0.66 814.32 C2.56 617.73, 1.63 421.07, 0.63 -0.71" stroke="#45475a" stroke-width="2.5" fill="none" stroke-dasharray="8 10"></path></g><g transform="translate(1728.5747770339553 20) rotate(0 102.90593719482422 11.25)"><text x="0" y="NaN" font-family="Virgil, Segoe UI Emoji" font-size="18px" fill="#a6adc8" text-anchor="start" style="white-space: pre;" direction="ltr">Round 3 -- all infected</text></g><g stroke-linecap="round" transform="translate(128.03692018920276 179.4630315051328) rotate(0 90 36.5)"><path d="M1.42 -1.4 L179.09 1.36 L179.55 71.4 L1.69 72.45" stroke="none" stroke-width="0" fill="#5b21b6"></path><path d="M-0.07 -0.45 C55.46 1.51, 110.94 1.1, 180.22 -1.44 M-0.89 -0.18 C64.86 -1.05, 130.88 -0.27, 179.02 1 M181.79 0.73 C181.76 16.24, 181.35 34.93, 181.99 72.39 M179.49 -0.84 C180.47 28.35, 179.98 57.41, 180.07 72.82 M180.87 73.24 C127.62 73.09, 77.46 71.2, -1.37 73.65 M180.46 73.89 C142.86 72.65, 105.98 71.66, 0.38 72.74 M0.81 74.66 C2.01 50.92, -0.31 25.69, 1.72 -1.93 M0.53 72.38 C0.42 55.25, 1.3 36.4, 0.13 0.35" stroke="#7c3aed" stroke-width="2" fill="none"></path></g><g transform="translate(183.33694612914417 203.4630315051328) rotate(0 34.699974060058594 12.5)"><text x="34.699974060058594" y="NaN" font-family="Virgil, Segoe UI Emoji" font-size="20px" fill="#fff" text-anchor="middle" style="white-space: pre;" direction="ltr">Node A</text></g><g stroke-linecap="round" transform="translate(486.120882825527 188.61799038023503) rotate(0 90 36.5)"><path d="M0.5 0.14 L179.43 0.08 L181 74.41 L-1.81 73.72" stroke="none" stroke-width="0" fill="#1e40af"></path><path d="M1.62 -0.44 C48.12 -0.08, 92.51 1.23, 178.84 1.29 M-0.52 0.6 C48.5 1.16, 97.31 1.62, 180.71 0.93 M180.93 0.4 C178.71 24.4, 180.59 47.52, 181.3 72.45 M179.86 -0.79 C181.25 20.62, 180.15 41.69, 180.52 72.31 M178.23 73.88 C127.31 71.78, 73.28 70.99, 1.58 73.92 M180.56 73.44 C128.83 71.02, 76.54 72.32, -0.44 73.04 M-1.58 73.87 C-1.87 47.38, 0.1 19.05, -1.65 -0.26 M-0.94 72.22 C0.08 48.28, -0.49 23.32, -0.41 0.3" stroke="#3b82f6" stroke-width="2" fill="none"></path></g><g transform="translate(540.7109096809958 212.61799038023503) rotate(0 35.40997314453125 12.5)"><text x="35.40997314453125" y="NaN" font-family="Virgil, Segoe UI Emoji" font-size="20px" fill="#fff" text-anchor="middle" style="white-space: pre;" direction="ltr">Node B</text></g><g stroke-linecap="round" transform="translate(491.12314077828853 326.540286840838) rotate(0 90 36.5)"><path d="M-1.6 -0.66 L178.65 -1.54 L180.05 71.1 L1.93 73.45" stroke="none" stroke-width="0" fill="#1e40af"></path><path d="M1.16 -0.77 C44.63 -0.41, 89.96 2.46, 180.46 -1.71 M0.01 -0.01 C50.95 2.11, 100.95 1.14, 180.89 0.6 M178.54 0.14 C181.16 27.63, 182.39 53.14, 180.84 72.2 M179.79 0.73 C180.13 20.69, 178.58 42.12, 180.21 72.3 M180.7 71.92 C135.18 73.28, 93.32 71.6, -1.38 71.57 M179.7 73.67 C140.35 72.95, 101.74 73.54, 0.7 73.05 M1.89 71.09 C1.24 54.38, 1.37 37.38, 1.23 -1.02 M-0.04 73.03 C-0.35 44.52, 1.02 15.69, -0.72 0.48" stroke="#3b82f6" stroke-width="2" fill="none"></path></g><g transform="translate(546.543169464812 350.540286840838) rotate(0 34.57997131347656 12.5)"><text x="34.57997131347656" y="NaN" font-family="Virgil, Segoe UI Emoji" font-size="20px" fill="#fff" text-anchor="middle" style="white-space: pre;" direction="ltr">Node C</text></g><g stroke-linecap="round" transform="translate(128.03692018920276 322.4630315051328) rotate(0 90 36.5)"><path d="M0.01 -1.35 L178.65 -1.04 L181.25 74.18 L-0.06 72.21" stroke="none" stroke-width="0" fill="#1e40af"></path><path d="M-0.25 1.32 C47.75 -0.42, 97.3 -2.23, 179.56 1.05 M0.6 -0.24 C36.29 0.04, 74.02 -0.78, 179.61 -0.41 M178.77 1.55 C180.87 22.08, 181.01 44.48, 180.23 73 M179.39 0.8 C181.07 19.36, 179.34 37.29, 180.07 73.57 M181.39 73.68 C136.66 69.87, 97.61 70.77, 1.95 72.31 M179.11 73.27 C136.24 74.17, 94.62 74.17, -0.24 73.73 M-0.23 74.84 C0.97 55.09, -0.45 38.51, 0.63 1.83 M-0.01 73.17 C-0.75 55.83, 0.65 39.68, -0.55 0.33" stroke="#3b82f6" stroke-width="2" fill="none"></path></g><g transform="translate(182.09694826537464 346.4630315051328) rotate(0 35.939971923828125 12.5)"><text x="35.939971923828125" y="NaN" font-family="Virgil, Segoe UI Emoji" font-size="20px" fill="#fff" text-anchor="middle" style="white-space: pre;" direction="ltr">Node D</text></g><g stroke-linecap="round" transform="translate(128.03692018920276 465.4630315051328) rotate(0 90 36.5)"><path d="M0.66 -0.72 L178.98 0.27 L180.07 73.63 L0.58 71.56" stroke="none" stroke-width="0" fill="#1e40af"></path><path d="M0.02 0.36 C38.16 2.27, 77.51 2.2, 180.27 -0.86 M0.74 0.06 C69.52 -0.42, 138.17 -1.64, 179.9 0.23 M181.9 -1.36 C180.7 18.49, 181.33 34.76, 181.73 74.72 M180.59 0.06 C178.52 20.69, 178.82 41.19, 180.92 72.75 M178.91 71.85 C125.71 73.69, 74.01 73.39, -0.19 72.75 M180.45 72.48 C135.91 75.43, 90.83 75.44, 0.56 72.81 M1.38 72.12 C-1.78 47.49, -0.27 18.95, 1.25 -0.98 M0.32 73.55 C-0.62 48.29, 0.42 23.38, 0.28 0.12" stroke="#3b82f6" stroke-width="2" fill="none"></path></g><g transform="translate(183.15694582396839 489.4630315051328) rotate(0 34.879974365234375 12.5)"><text x="34.879974365234375" y="NaN" font-family="Virgil, Segoe UI Emoji" font-size="20px" fill="#fff" text-anchor="middle" style="white-space: pre;" direction="ltr">Node E</text></g><g stroke-linecap="round" transform="translate(912.2834458832186 148.3128676084575) rotate(0 90 36.5)"><path d="M-0.43 0.35 L179.73 1.48 L178.99 74.06 L1.74 72.32" stroke="none" stroke-width="0" fill="#5b21b6"></path><path d="M1.02 1.22 C55.83 -2.47, 113.38 -2.47, 178.92 1.49 M0.3 -0.87 C59.71 -0.11, 122.01 0.06, 179.41 -0.59 M178.64 -1.75 C179.84 27.87, 181.48 55.36, 181.1 71.67 M180.41 -0.71 C181.1 26.77, 180.8 54.11, 179.21 73.62 M179.56 73.99 C132.2 70.47, 81.15 73.05, -1.85 71.2 M179.41 73.37 C127.8 74.51, 74.91 74.26, 0.59 73.44 M1.18 74.91 C-0.99 51.16, -0.3 30.89, -0.73 0.58 M-0.46 73.61 C0.83 47.06, -0.19 21.86, -0.21 -0.57" stroke="#7c3aed" stroke-width="2" fill="none"></path></g><g transform="translate(967.58347182316 172.3128676084575) rotate(0 34.699974060058594 12.5)"><text x="34.699974060058594" y="NaN" font-family="Virgil, Segoe UI Emoji" font-size="20px" fill="#fff" text-anchor="middle" style="white-space: pre;" direction="ltr">Node A</text></g><g stroke-linecap="round" transform="translate(912.2834458832186 291.3128676084575) rotate(0 90 36.5)"><path d="M-0.18 0.52 L179.63 -0.42 L179.11 71.87 L1.5 74.78" stroke="none" stroke-width="0" fill="#5b21b6"></path><path d="M0.09 1.87 C69.37 -1.75, 137.56 -2.35, 180.45 -1.78 M0.5 -0.18 C64.67 0.3, 128.71 0.13, 180.46 -0.74 M179.15 0.5 C180.04 23.95, 179.33 52.31, 178.24 72.96 M179.76 -0.57 C180 23.51, 179.49 46.61, 179.99 72.27 M179.25 72.52 C118.5 74.1, 53.66 74.18, -1.38 74.2 M179.64 72.26 C124.52 73.98, 66.74 73.42, 0.08 72.77 M-0.27 74.48 C-2.12 49.41, -1.32 27.65, -0.78 -0.2 M-0.26 72.73 C-0.49 56.76, -0.33 42.47, 0.67 0.28" stroke="#7c3aed" stroke-width="2" fill="none"></path></g><g transform="translate(966.8734727386874 315.3128676084575) rotate(0 35.40997314453125 12.5)"><text x="35.40997314453125" y="NaN" font-family="Virgil, Segoe UI Emoji" font-size="20px" fill="#fff" text-anchor="middle" style="white-space: pre;" direction="ltr">Node B</text></g><g stroke-linecap="round" transform="translate(912.2834458832186 434.3128676084575) rotate(0 90 36.5)"><path d="M-1.19 -1.81 L180.76 -1.97 L179.62 74.66 L-0.67 72.34" stroke="none" stroke-width="0" fill="#5b21b6"></path><path d="M-0.04 -1.77 C42.97 3.05, 86.6 1.49, 178.84 0.8 M-0.06 0.15 C68.33 0.29, 137.27 1.05, 179.64 0.76 M179.6 -1.63 C182.52 16.57, 179.37 30.97, 178.61 72.57 M180.62 -0.43 C178.65 26.54, 179.63 55.49, 179.47 73.66 M178.17 73.49 C131.1 73.94, 83.48 72.98, 1.24 72.81 M180.96 72.55 C132.56 73.55, 86.05 74.12, -0.86 73.2 M-0.08 73.02 C-1.62 44.74, -1.6 17.33, -1.69 -1.99 M0.68 72.07 C0.19 48.78, 0.56 25.59, 0.18 0.1" stroke="#7c3aed" stroke-width="2" fill="none"></path></g><g transform="translate(967.7034745697421 458.3128676084575) rotate(0 34.57997131347656 12.5)"><text x="34.57997131347656" y="NaN" font-family="Virgil, Segoe UI Emoji" font-size="20px" fill="#fff" text-anchor="middle" style="white-space: pre;" direction="ltr">Node C</text></g><g stroke-linecap="round" transform="translate(1326.4879314766881 280.395089095151) rotate(0 90 36.5)"><path d="M-0.37 -0.65 L180.89 1.5 L181.73 71.54 L1.67 74.88" stroke="none" stroke-width="0" fill="#1e40af"></path><path d="M-0.37 -0.86 C46.7 3.56, 94.92 1.84, 179.04 -1.05 M-0.1 -0.85 C61.99 -1.52, 124.69 0.26, 179.47 0.22 M180.24 1.8 C178.69 23.62, 180.6 50.05, 180.08 74.79 M179.09 -0.4 C178.54 26.53, 178.52 53.14, 180.93 72.67 M181.98 71.94 C122.09 76.35, 68.05 75.66, 1.14 74.83 M180.14 72.86 C132.35 72.27, 86.1 71.83, 0.79 73.6 M0.62 71.24 C0.95 44.5, 1.72 17.84, 1.32 1.6 M-0.06 72.4 C0.49 50.14, -1.33 26.57, -0.6 -0.29" stroke="#3b82f6" stroke-width="2" fill="none"></path></g><g transform="translate(1380.54795955286 304.395089095151) rotate(0 35.939971923828125 12.5)"><text x="35.939971923828125" y="NaN" font-family="Virgil, Segoe UI Emoji" font-size="20px" fill="#fff" text-anchor="middle" style="white-space: pre;" direction="ltr">Node D</text></g><g stroke-linecap="round" transform="translate(1322.8531786714025 377.44549345176495) rotate(0 90 36.5)"><path d="M-0.63 -1.04 L181.71 1.64 L180.92 71.3 L1.74 73.95" stroke="none" stroke-width="0" fill="#1e40af"></path><path d="M0.31 1.37 C55.21 3.22, 114.32 3.32, 181.72 1.45 M-0.58 -0.09 C59.68 -0.44, 118.58 -1.77, 180.18 0.84 M180.56 1.41 C178.66 15.85, 179.35 32.2, 178.53 72.13 M180.56 0.32 C179.46 21.22, 180.35 42.99, 180.58 72.22 M181.67 73.33 C140.69 69.82, 102.49 70.34, 1.11 73.97 M180.88 72.36 C133.47 73.87, 86.19 74.37, 0.08 73.06 M1.05 73.89 C0.97 58.52, -1.69 43.54, -0.2 -0.1 M0.83 73.96 C-0.02 59.12, 0.04 42.68, 0.01 0.4" stroke="#3b82f6" stroke-width="2" fill="none"></path></g><g transform="translate(1377.973204306168 401.44549345176495) rotate(0 34.879974365234375 12.5)"><text x="34.879974365234375" y="NaN" font-family="Virgil, Segoe UI Emoji" font-size="20px" fill="#fff" text-anchor="middle" style="white-space: pre;" direction="ltr">Node E</text></g><g stroke-linecap="round" transform="translate(1772.5747770339553 120) rotate(0 90 36.5)"><path d="M-0.62 1.72 L180.41 -1.41 L179.55 73.24 L0.75 71.92" stroke="none" stroke-width="0" fill="#2d6a4f"></path><path d="M-0.54 1.95 C49.61 -0.16, 97.65 0.59, 179.69 0.76 M0.87 -0.77 C58.14 -0.63, 115.82 -1.16, 179.87 -0.6 M180.19 -1.44 C181.05 26.01, 180.48 47.59, 178.29 71.45 M179.49 0.24 C179.39 25.48, 179.23 51.18, 180.45 72.24 M179.26 72.27 C131.41 73.26, 82.89 72.65, -0.82 72.54 M180.76 72.37 C133.37 74.32, 85.91 74.93, 0.28 73.98 M-0.35 72.29 C-1.53 49.51, -0.15 28.06, -0.49 1.77 M-0.48 73.37 C0.02 57.82, 0.04 42.28, 0.78 0.69" stroke="#40916c" stroke-width="2" fill="none"></path></g><g transform="translate(1827.8748029738967 144) rotate(0 34.699974060058594 12.5)"><text x="34.699974060058594" y="NaN" font-family="Virgil, Segoe UI Emoji" font-size="20px" fill="#fff" text-anchor="middle" style="white-space: pre;" direction="ltr">Node A</text></g><g stroke-linecap="round" transform="translate(1772.5747770339553 263) rotate(0 90 36.5)"><path d="M-1.99 -1.5 L180.48 1.09 L178.46 71.12 L1.03 74.92" stroke="none" stroke-width="0" fill="#5b21b6"></path><path d="M1.24 -0.82 C42.12 0.04, 81.64 1.75, 179.31 1.28 M-0.55 0.66 C53.8 -1.28, 105.94 -0.3, 180.04 -0.98 M179.19 0.6 C179.74 17.58, 178.7 37.82, 180.84 72.78 M179.48 -0.06 C180.85 23.06, 179.63 47.07, 179.15 73.84 M180.05 73.77 C125.79 71.8, 71.85 73.28, -1.97 74.16 M180.33 72.05 C137.07 72.9, 93.89 72.27, -0.15 73.29 M-0.28 73.7 C2.11 48.83, -0.63 26.65, -0.17 0.65 M-0.06 73.92 C-0.37 44.49, 0.31 17.74, -0.18 -0.36" stroke="#7c3aed" stroke-width="2" fill="none"></path></g><g transform="translate(1827.164803889424 287) rotate(0 35.40997314453125 12.5)"><text x="35.40997314453125" y="NaN" font-family="Virgil, Segoe UI Emoji" font-size="20px" fill="#fff" text-anchor="middle" style="white-space: pre;" direction="ltr">Node B</text></g><g stroke-linecap="round" transform="translate(1772.5747770339553 406) rotate(0 90 36.5)"><path d="M1.35 -0.96 L179.74 -0.91 L180.41 71.17 L-1.55 73.45" stroke="none" stroke-width="0" fill="#5b21b6"></path><path d="M-1.15 -1.09 C46.93 -2.13, 95 1.26, 181.8 0.29 M0.75 0.94 C37.05 1.82, 74.58 1.38, 180.28 0.72 M178.96 0.7 C178.77 27.89, 179.3 55.39, 181.11 73.84 M179.03 0.43 C178.43 17.34, 179.29 34.83, 179.82 73.16 M181.59 74.13 C122.34 73.61, 59.4 73.25, 1.5 71.65 M179.96 72.97 C111.65 74.99, 42.01 74.78, -0.91 73.91 M-0.49 71.15 C0.15 51.8, -1.91 32.71, 0.13 0.06 M0.41 72.38 C-1.21 53.68, 0.59 34.41, -0.3 -0.86" stroke="#7c3aed" stroke-width="2" fill="none"></path></g><g transform="translate(1827.9948057204788 430) rotate(0 34.57997131347656 12.5)"><text x="34.57997131347656" y="NaN" font-family="Virgil, Segoe UI Emoji" font-size="20px" fill="#fff" text-anchor="middle" style="white-space: pre;" direction="ltr">Node C</text></g><g stroke-linecap="round" transform="translate(1772.5747770339553 549) rotate(0 90 36.5)"><path d="M-1.57 1.43 L179.95 -1.6 L181.77 71.08 L0.36 72.34" stroke="none" stroke-width="0" fill="#5b21b6"></path><path d="M0.67 0.53 C67.2 -0.09, 131.83 1.47, 180.47 -0.79 M-0.57 0.16 C70.78 0.09, 140.48 0.94, 180.3 -0.47 M180.31 1.95 C179.72 18.74, 178.9 37.38, 178.12 72.94 M180.57 -0.55 C181.03 19.21, 179.87 40.98, 179.94 72.89 M181.03 71.07 C130.6 73.48, 76.54 75.14, -1.27 72.87 M180.66 73.8 C116.44 71.54, 55.12 73.11, 0.6 72.59 M1.25 74.01 C0.18 52.97, -0.17 34.55, -1.76 -0.03 M-0.19 72.49 C0.21 54.28, -0.2 37.17, 0.85 -0.21" stroke="#7c3aed" stroke-width="2" fill="none"></path></g><g transform="translate(1826.6348051101272 573) rotate(0 35.939971923828125 12.5)"><text x="35.939971923828125" y="NaN" font-family="Virgil, Segoe UI Emoji" font-size="20px" fill="#fff" text-anchor="middle" style="white-space: pre;" direction="ltr">Node D</text></g><g stroke-linecap="round" transform="translate(1772.5747770339553 692) rotate(0 90 36.5)"><path d="M-0.41 0.24 L178.52 1.78 L178.58 74.52 L-0.74 73.67" stroke="none" stroke-width="0" fill="#5b21b6"></path><path d="M-1.6 -1.5 C38.58 3.21, 77.11 2.98, 181.22 -1.79 M-0.98 0.19 C66.3 0.21, 132.24 0.82, 180.38 0.28 M179.84 -0.51 C179.97 20.48, 179.02 40.07, 178.51 74.39 M180.72 0.98 C180.74 20.8, 179.6 43.81, 179.81 72.47 M179.05 72.15 C123.37 71.45, 69.87 73.81, 1.53 71.88 M180.97 73.03 C117.82 73.48, 56.85 73.28, 0.08 73.69 M0.41 71.72 C-0.94 47.18, -1.18 22.55, 1.63 -0.7 M-0.62 73.72 C0.39 47.05, 1.01 21.67, 0.93 0.26" stroke="#7c3aed" stroke-width="2" fill="none"></path></g><g transform="translate(1827.694802668721 716) rotate(0 34.879974365234375 12.5)"><text x="34.879974365234375" y="NaN" font-family="Virgil, Segoe UI Emoji" font-size="20px" fill="#fff" text-anchor="middle" style="white-space: pre;" direction="ltr">Node E</text></g><g stroke-linecap="round"><g transform="translate(313.8671443225775 194.0587652522098) rotate(0 83.21179946456832 26.48218299021704)"><path d="M0.65 -0.11 C28.49 8.88, 138.64 44.53, 166.3 53.24 M-0.47 -1.22 C27.27 7.45, 137.56 42.22, 165.29 51.27" stroke="#40916c" stroke-width="2" fill="none"></path></g><g transform="translate(313.8671443225775 194.0587652522098) rotate(0 83.21179946456832 26.48218299021704)"><path d="M135.12 52.25 C142.88 52.31, 148.17 53.12, 167.29 50.24 M135.08 51.65 C145.31 50.98, 152.82 51.47, 165.12 50.67" stroke="#40916c" stroke-width="2" fill="none"></path></g><g transform="translate(313.8671443225775 194.0587652522098) rotate(0 83.21179946456832 26.48218299021704)"><path d="M141.38 32.7 C147.54 37.43, 151.35 42.86, 167.29 50.24 M141.33 32.1 C149.84 37.41, 155.45 43.85, 165.12 50.67" stroke="#40916c" stroke-width="2" fill="none"></path></g></g><g stroke-linecap="round"><g transform="translate(314.03692018920276 205.54573735147164) rotate(0 85.54311029454288 83.9566669194071)"><path d="M0.22 1.08 C28.92 28.94, 143.66 140.17, 171.94 168.11 M-1.12 0.61 C27.52 27.99, 142.56 138.39, 171.44 166.1" stroke="#40916c" stroke-width="2" fill="none"></path></g><g transform="translate(314.03692018920276 205.54573735147164) rotate(0 85.54311029454288 83.9566669194071)"><path d="M145.8 155.41 C152.01 155.29, 160.67 158.93, 170.93 165.21 M143.61 153.67 C152.24 157.05, 159.32 160.48, 171.63 166.59" stroke="#40916c" stroke-width="2" fill="none"></path></g><g transform="translate(314.03692018920276 205.54573735147164) rotate(0 85.54311029454288 83.9566669194071)"><path d="M160.01 140.6 C162.41 144.6, 167.14 152.33, 170.93 165.21 M157.82 138.86 C162.63 146.44, 165.79 153.97, 171.63 166.59" stroke="#40916c" stroke-width="2" fill="none"></path></g></g><g stroke-linecap="round"><g transform="translate(1098.2607125517939 308.1921300503052) rotate(0 111.12498585143989 14.16213739526978)"><path d="M-0.71 1.08 C36.21 5.76, 183.8 23.5, 221.16 27.96 M1.11 0.61 C38.42 5.47, 186.27 24.58, 223.3 29.31" stroke="#40916c" stroke-width="2" fill="none"></path></g><g transform="translate(1098.2607125517939 308.1921300503052) rotate(0 111.12498585143989 14.16213739526978)"><path d="M195.84 34.08 C201.36 36.27, 209.16 33.5, 223.17 30.98 M194.93 34.92 C201.48 34.27, 208.12 31.75, 223.11 29.98" stroke="#40916c" stroke-width="2" fill="none"></path></g><g transform="translate(1098.2607125517939 308.1921300503052) rotate(0 111.12498585143989 14.16213739526978)"><path d="M198.46 13.72 C203.25 21.41, 210.34 24.15, 223.17 30.98 M197.55 14.56 C203.57 19.06, 209.55 21.68, 223.11 29.98" stroke="#40916c" stroke-width="2" fill="none"></path></g></g><g stroke-linecap="round"><g transform="translate(1097.6069640041433 445.5509364469281) rotate(0 109.96139068109804 -3.171553720156311)"><path d="M-0.58 -0.58 C36.23 -1.87, 183.19 -5.66, 220.14 -6.8 M1.32 1.73 C38.05 0.52, 182.7 -4.1, 219.31 -5.5" stroke="#40916c" stroke-width="2" fill="none"></path></g><g transform="translate(1097.6069640041433 445.5509364469281) rotate(0 109.96139068109804 -3.171553720156311)"><path d="M190.53 6.1 C197.39 5.14, 203.07 1.43, 220.3 -6.24 M190.55 5.21 C201.57 2.39, 210.51 -2.41, 220.08 -5.65" stroke="#40916c" stroke-width="2" fill="none"></path></g><g transform="translate(1097.6069640041433 445.5509364469281) rotate(0 109.96139068109804 -3.171553720156311)"><path d="M189.82 -14.41 C197.01 -10.4, 202.86 -9.14, 220.3 -6.24 M189.84 -15.3 C200.93 -10.85, 210.12 -8.39, 220.08 -5.65" stroke="#40916c" stroke-width="2" fill="none"></path></g></g></svg>