<svg version="1.1" xmlns="http://www.w3.org/2000/svg" viewBox="0 0 1060 1010" width="1060" height="1010">
  <!-- svg-source:excalidraw -->
  
  <defs>
    <style>
      @font-face {
        font-family: "Virgil";
        src: url("https://excalidraw.com/Virgil.woff2");
      }
      @font-face {
        font-family: "Cascadia";
        src: url("https://excalidraw.com/Cascadia.woff2");
      }
    </style>
  </defs>
  <rect x="0" y="0" width="1060" height="1010" fill="#0d1117"></rect><g stroke-linecap="round" transform="translate(10 10.122668782824206) rotate(0 100 25)"><path d="M1.36 1.25 L201.23 -1.15 L201.95 51.08 L1.53 50.63" stroke="none" stroke-width="0" fill="#3a1d6e"></path><path d="M0.85 0.9 C42.36 -0.62, 86.28 -0.73, 201.1 -0.53 M0.66 0.29 C72.85 -1.29, 146.61 -0.41, 199.41 -0.57 M200.8 0.34 C200.68 15.91, 201.3 29.95, 198.6 51.1 M199.63 0.1 C200.4 17.38, 200.76 33.98, 200.9 50.08 M199.95 50.26 C155.23 49.55, 111.93 51.7, -1.66 50.38 M199.19 49.3 C137.81 49.71, 74.49 49.19, -0.65 50.11 M0.25 51.81 C0.86 32.87, 1.11 12.5, -0.54 -1 M-0.88 50.23 C-0.19 35.49, -0.45 21.65, -0.36 0.61" stroke="#a371f7" stroke-width="2" fill="none"></path></g><g transform="translate(50.56005859375 22.622668782824206) rotate(0 59.43994140625 12.5)"><text x="59.43994140625" y="NaN" font-family="Virgil, Segoe UI Emoji" font-size="20px" fill="#ffffff" text-anchor="middle" style="white-space: pre;" direction="ltr">Prober Node</text></g><g stroke-linecap="round"><g transform="translate(106.50393968951022 56.82714604913883) rotate(0 1.6212979689896372 441.74873186361657)"><path d="M1.17 -1.2 C1.92 145.94, 3.61 736.05, 3.98 883.64" stroke="#30363d" stroke-width="1.5" fill="none" stroke-dasharray="8 9"></path></g></g><g stroke-linecap="round" transform="translate(10 950) rotate(0 100 25)"><path d="M-0.83 -1.07 L201.45 -1.83 L201.03 51.48 L1.71 49.63" stroke="none" stroke-width="0" fill="#3a1d6e"></path><path d="M0.84 -1.22 C43.8 -2.99, 85.42 -0.23, 200.25 0.44 M0.76 -0.13 C47.41 2.1, 94.15 0.55, 199.5 -0.25 M200.19 -1.38 C198.2 14.54, 201.25 29.06, 198.24 50.37 M200.96 0.27 C200.74 13.86, 200.08 29.02, 200.32 49.26 M201.1 48.51 C122.82 52.93, 44.2 51.45, -0.12 48.76 M200.22 50.25 C149.38 50.25, 98.25 51.17, -0.23 49.21 M0.51 49.12 C1.12 33.01, -1.31 18.42, 1.42 0.71 M-0.12 50.56 C-0.31 31.57, -0.76 12.53, 0.17 -0.7" stroke="#a371f7" stroke-width="2" fill="none"></path></g><g transform="translate(50.56005859375 962.5) rotate(0 59.43994140625 12.5)"><text x="59.43994140625" y="NaN" font-family="Virgil, Segoe UI Emoji" font-size="20px" fill="#ffffff" text-anchor="middle" style="white-space: pre;" direction="ltr">Prober Node</text></g><g stroke-linecap="round" transform="translate(290 10.122668782824206) rotate(0 100 25)"><path d="M0.69 1.88 L198.46 -1.78 L198.58 51.8 L-1.28 51.63" stroke="none" stroke-width="0" fill="#3a1d6e"></path><path d="M0.18 -1.32 C48.93 0.41, 101.81 2.45, 200.69 0.54 M-0.23 -0.59 C68.17 -1.96, 137.88 -1.05, 199.7 0.66 M198.26 -1.71 C201.52 17.36, 198.5 36.8, 201.21 51.45 M199.23 -0.15 C200.2 12.6, 200.87 22.49, 199.61 50.08 M200.42 48.81 C142.72 50.96, 88.26 48.88, -1.16 48.7 M200.85 50.6 C134.92 48.97, 68.18 49.74, 0.26 49.4 M0.02 48.42 C0.46 34.66, 0.92 19.98, -1.15 0.72 M0.84 49.28 C0.88 35.61, -0.38 21.82, -0.8 -0.8" stroke="#a371f7" stroke-width="2" fill="none"></path></g><g transform="translate(323.6000671386719 22.622668782824206) rotate(0 66.39993286132812 12.5)"><text x="66.39993286132812" y="NaN" font-family="Virgil, Segoe UI Emoji" font-size="20px" fill="#ffffff" text-anchor="middle" style="white-space: pre;" direction="ltr">Suspect Node</text></g><g stroke-linecap="round"><g transform="translate(387.95549473026676 59.91839937630874) rotate(0 0.9568165060288152 442.9999534484234)"><path d="M0.82 0.04 C1.39 147.87, 1.9 739.12, 2.22 886.88" stroke="#30363d" stroke-width="1.5" fill="none" stroke-dasharray="8 9"></path></g></g><g stroke-linecap="round" transform="translate(290 950) rotate(0 100 25)"><path d="M0.3 -0.95 L198.65 0.83 L198.76 49.44 L1.63 49.41" stroke="none" stroke-width="0" fill="#3a1d6e"></path><path d="M0.97 0.1 C68.21 1.17, 136.54 2.4, 199.13 -0.14 M0.25 0.35 C41.19 -0.19, 81.83 -0.48, 200.31 0.43 M199.9 -1.71 C198.72 11.92, 202.03 26.74, 199.61 51.3 M200.89 0.73 C201.08 14.92, 201.08 29.02, 200.01 50.93 M200.6 51.51 C147.36 48.87, 95.47 50.86, -1.65 50.05 M199.28 50.45 C124.7 48.78, 50.56 49.8, -0.01 49.58 M-0.3 50.22 C-2.07 35.35, -0.63 22.46, 0.44 -1.97 M0.79 50.13 C0.4 36.67, 0.98 24.45, -0.28 -0.81" stroke="#a371f7" stroke-width="2" fill="none"></path></g><g transform="translate(323.6000671386719 962.5) rotate(0 66.39993286132812 12.5)"><text x="66.39993286132812" y="NaN" font-family="Virgil, Segoe UI Emoji" font-size="20px" fill="#ffffff" text-anchor="middle" style="white-space: pre;" direction="ltr">Suspect Node</text></g><g stroke-linecap="round" transform="translate(570 10.122668782824206) rotate(0 100 25)"><path d="M1.62 0.94 L199.56 1.4 L201.45 48.71 L-0.46 51.27" stroke="none" stroke-width="0" fill="#3a1d6e"></path><path d="M-0.28 1.58 C64.65 0.37, 126.82 -0.72, 200.84 1.04 M0.42 -0.84 C69.35 1.6, 137.35 2.23, 200.63 -0.22 M199.97 -0.63 C199.96 11.76, 201.86 24, 198.81 48.08 M200.04 0.51 C199.16 14.91, 200.16 28.04, 199.75 49.24 M199.9 51.35 C147.52 49.88, 96.95 48.01, 1.18 49.57 M199.62 50.28 C140.9 49.78, 80.84 50.74, 0.36 49.82 M0.77 51.89 C-0.27 32.52, 2.02 17.16, -1.21 -0.2 M0.81 50.28 C0.91 38.62, -0.53 28.36, -0.18 0.02" stroke="#a371f7" stroke-width="2" fill="none"></path></g><g transform="translate(591.8500671386719 22.622668782824206) rotate(0 78.14993286132812 12.5)"><text x="78.14993286132812" y="NaN" font-family="Virgil, Segoe UI Emoji" font-size="20px" fill="#ffffff" text-anchor="middle" style="white-space: pre;" direction="ltr">Indirect Probe 1</text></g><g stroke-linecap="round"><g transform="translate(666.7492772551586 62.98515728090848) rotate(0 1.6253613724206843 442.5971781668193)"><path d="M0.6 0.13 C1.37 147.91, 4.07 738.56, 4.36 885.88" stroke="#30363d" stroke-width="1.5" fill="none" stroke-dasharray="8 9"></path></g></g><g stroke-linecap="round" transform="translate(570 950) rotate(0 100 25)"><path d="M-1.27 0.61 L199.74 -1.98 L201.45 48.35 L-0.1 50.61" stroke="none" stroke-width="0" fill="#3a1d6e"></path><path d="M-0.08 0.06 C77.35 0.55, 154.68 2.97, 198.95 1.46 M-0.79 0.24 C50.21 -2.5, 100.97 -1.36, 200.44 0.87 M200.78 -0.34 C198.33 15.69, 200.02 32.62, 201.87 50.98 M200.56 -0.44 C200.42 18.96, 199.73 40.34, 200.5 50.99 M198.6 49.91 C159.96 48.4, 116.57 51.89, -1.36 50.41 M199.6 50.4 C137.88 48.85, 75.62 48.62, 0.76 49.41 M-1.46 48.04 C1.03 30.12, -1.87 11.06, 1.39 -0.31 M-0.09 50.32 C-0.5 30.28, 0.3 12.9, 0.01 -0.02" stroke="#a371f7" stroke-width="2" fill="none"></path></g><g transform="translate(591.8500671386719 962.5) rotate(0 78.14993286132812 12.5)"><text x="78.14993286132812" y="NaN" font-family="Virgil, Segoe UI Emoji" font-size="20px" fill="#ffffff" text-anchor="middle" style="white-space: pre;" direction="ltr">Indirect Probe 1</text></g><g stroke-linecap="round" transform="translate(850 10) rotate(0 100 25)"><path d="M-0.81 -1.24 L201.39 -0.12 L200.7 51.02 L-1.99 50.61" stroke="none" stroke-width="0" fill="#3a1d6e"></path><path d="M1.1 -0.19 C69.69 2.63, 142.27 2.53, 200.32 0.32 M0.82 -0.02 C51.9 -0.64, 104.61 -0.99, 200.64 0.38 M201.76 0.98 C198.37 15.06, 201.33 31.32, 200.14 49.22 M200.69 -0.11 C199.51 17.32, 199.42 34.67, 200.91 49.07 M201.77 50.64 C151.64 49.57, 99.51 50.54, 1.67 48.91 M199.49 50.51 C152.23 48.95, 104.9 47.84, -0.7 50.07 M1.61 48.01 C-0.52 38.69, -1.83 29.4, -0.79 -0.91 M-0.3 49.2 C-0.04 32.2, 0.35 15.88, -0.69 -0.71" stroke="#a371f7" stroke-width="2" fill="none"></path></g><g transform="translate(867.440071105957 22.5) rotate(0 82.55992889404297 12.5)"><text x="82.55992889404297" y="NaN" font-family="Virgil, Segoe UI Emoji" font-size="20px" fill="#ffffff" text-anchor="middle" style="white-space: pre;" direction="ltr">Indirect Probe 2</text></g><g stroke-linecap="round"><g transform="translate(946.4712791260831 57.69403100375962) rotate(0 1.899296098065065 443.6664474461026)"><path d="M-0.78 -1.13 C-0.26 146.75, 1.89 739.31, 2.73 887.55" stroke="#30363d" stroke-width="1.5" fill="none" stroke-dasharray="8 9"></path></g></g><g stroke-linecap="round" transform="translate(850 950) rotate(0 100 25)"><path d="M-0.4 1.09 L201.59 0.4 L201.08 49.4 L1.47 48.79" stroke="none" stroke-width="0" fill="#3a1d6e"></path><path d="M1.19 -0.71 C72.35 -1.86, 145.48 -2.04, 200.62 0.75 M0.06 -0.71 C71.55 1.97, 144.14 1.79, 200.79 -0.83 M200.58 -0.31 C201.48 10.78, 201.63 21.26, 199.85 50.45 M200.96 -0.83 C200 15.93, 200.18 31.78, 199.63 50.97 M201.75 49.23 C146.72 50.53, 91.89 49.7, -0.92 51.07 M200.66 50.32 C151.39 48.61, 101.05 50.18, -0.08 49.84 M-0.9 51.16 C0.69 38.77, 0.47 28.74, -1.48 -0.2 M-0.77 49.07 C1.19 37.5, 0.08 26.88, -0.67 0.7" stroke="#a371f7" stroke-width="2" fill="none"></path></g><g transform="translate(867.440071105957 962.5) rotate(0 82.55992889404297 12.5)"><text x="82.55992889404297" y="NaN" font-family="Virgil, Segoe UI Emoji" font-size="20px" fill="#ffffff" text-anchor="middle" style="white-space: pre;" direction="ltr">Indirect Probe 2</text></g><g stroke-opacity="0.85" fill-opacity="0.85" stroke-linecap="round" transform="translate(88.43182957354585 98.66657689110906) rotate(0 436.00705420922037 22)"><path d="M0.59 0.55 L872.71 0.66 L873.05 45.52 L-0.44 45.13" stroke="none" stroke-width="0" fill="#1f4d2b"></path><path d="M-0.17 -0.08 C253.26 -1.61, 506.62 -2.02, 872.57 0.18 M-0.15 -0.07 C201.93 -2.96, 404.02 -3.4, 871.7 -0.15 M870.57 0.79 C871.17 18.74, 873.85 34.73, 873.17 42.11 M872.57 0.86 C871.67 14.93, 872.15 30.17, 871.29 44.87 M871.44 44.23 C616.72 40.92, 362.09 40.62, 0.27 43.51 M871.81 44.29 C691.08 47.13, 509.93 47.41, 0.05 44.34 M1.36 44.43 C-1.68 29.82, -1.45 12.41, 0.34 1.24 M0.64 44.55 C0.66 33.13, 0.09 23.32, -0.44 0.2" stroke="#3fb950" stroke-width="2" fill="none"></path></g><g transform="translate(439.0949354185084 110.66657689110906) rotate(0 85.34394836425781 10)"><text x="85.34394836425781" y="NaN" font-family="Virgil, Segoe UI Emoji" font-size="16px" fill="#ffffff" text-anchor="middle" style="white-space: pre;" direction="ltr">Phase 1: Direct Probe</text></g><g stroke-linecap="round"><g transform="translate(109.87319114575547 169.87322947975014) rotate(0 140 0)"><path d="M0.59 -0.51 C47.28 -0.74, 233.02 -0.17, 279.48 -0.18 M-0.56 -1.83 C45.99 -1.36, 231.79 0.89, 278.26 1.26" stroke="#c9d1d9" stroke-width="2" fill="none"></path></g><g transform="translate(109.87319114575547 169.87322947975014) rotate(0 140 0)"><path d="M249.11 10.36 C256.44 7.59, 262.6 8.13, 280.05 1.92 M249.74 12.04 C258.4 7.77, 264.44 5.7, 278.66 0.34" stroke="#c9d1d9" stroke-width="2" fill="none"></path></g><g transform="translate(109.87319114575547 169.87322947975014) rotate(0 140 0)"><path d="M249.32 -10.16 C256.81 -7.93, 262.91 -2.41, 280.05 1.92 M249.95 -8.48 C258.38 -7.41, 264.37 -4.15, 278.66 0.34" stroke="#c9d1d9" stroke-width="2" fill="none"></path></g></g><g transform="translate(234.75321128735703 158.62322947975014) rotate(0 15.119979858398438 11.25)"><text x="15.119979858398438" y="NaN" font-family="Virgil, Segoe UI Emoji" font-size="18px" fill="#c9d1d9" text-anchor="middle" style="white-space: pre;" direction="ltr">ping</text></g><g stroke-opacity="0.85" fill-opacity="0.85" stroke-linecap="round" transform="translate(99.21923992250379 193) rotate(0 430.2857807179155 22)"><path d="M-1.57 2 L860.29 0.39 L859.17 42.63 L1.04 44.26" stroke="none" stroke-width="0" fill="#1f4d2b"></path><path d="M-0.11 0.13 C293.03 1.75, 585.29 2.18, 860.75 -0.17 M-0.22 -0.39 C323.56 2.71, 646.52 3.24, 860.25 0.24 M858.92 -1.77 C860.17 15.88, 861.98 33.72, 859.64 42.12 M860.08 -0.97 C859.74 14.48, 860.82 28.12, 860.3 44.48 M861.34 44.35 C627.48 41.22, 395.21 40.95, -0.41 44.58 M860.84 44.17 C570.09 40.94, 279.52 40.95, -0.03 44.28 M-0.19 43.28 C-1.89 27.26, 0.31 11.37, -0.62 0.96 M0.61 44.35 C0.82 31.97, 0.94 19.32, -0.75 0.51" stroke="#3fb950" stroke-width="2" fill="none"></path></g><g transform="translate(429.88108875565365 205) rotate(0 99.62393188476562 10)"><text x="99.62393188476562" y="NaN" font-family="Virgil, Segoe UI Emoji" font-size="16px" fill="#ffffff" text-anchor="middle" style="white-space: pre;" direction="ltr">Phase 2: Indirect Probes</text></g><g stroke-linecap="round"><g transform="translate(110 270) rotate(0 280 0)"><path d="M0.52 0.18 C94.02 0.14, 466.92 -1.14, 560.02 -1.19 M-0.66 -0.77 C92.77 -0.63, 465.38 -0.59, 559.08 -0.27" stroke="#c9d1d9" stroke-width="2" fill="none"></path></g><g transform="translate(110 270) rotate(0 280 0)"><path d="M531.18 9.98 C535.12 6.12, 543.04 5.45, 557.47 -0.47 M530.29 10.46 C542.79 6.33, 553.55 0.82, 558.24 -1.19" stroke="#c9d1d9" stroke-width="2" fill="none"></path></g><g transform="translate(110 270) rotate(0 280 0)"><path d="M531.21 -10.54 C534.98 -9.93, 542.89 -6.13, 557.47 -0.47 M530.32 -10.06 C542.86 -6.23, 553.6 -3.78, 558.24 -1.19" stroke="#c9d1d9" stroke-width="2" fill="none"></path></g></g><g transform="translate(305.6970672607422 258.75) rotate(0 84.30293273925781 11.25)"><text x="84.30293273925781" y="NaN" font-family="Virgil, Segoe UI Emoji" font-size="18px" fill="#c9d1d9" text-anchor="middle" style="white-space: pre;" direction="ltr">ping-req (target=S)</text></g><g stroke-linecap="round"><g transform="translate(110 350) rotate(0 420 0)"><path d="M1.08 0.13 C140.97 0.27, 699.87 1, 839.58 0.97 M0.19 -0.85 C139.87 -1.04, 698.73 -0.99, 838.42 -0.64" stroke="#c9d1d9" stroke-width="2" fill="none"></path></g><g transform="translate(110 350) rotate(0 420 0)"><path d="M810.43 8.89 C820.86 5.04, 828.21 1.47, 836.65 -1.77 M809.4 10.11 C821.02 5.7, 831.88 2.92, 837.99 -1.05" stroke="#c9d1d9" stroke-width="2" fill="none"></path></g><g transform="translate(110 350) rotate(0 420 0)"><path d="M810.45 -11.63 C820.9 -8.9, 828.24 -5.9, 836.65 -1.77 M809.42 -10.41 C820.97 -7.3, 831.82 -2.57, 837.99 -1.05" stroke="#c9d1d9" stroke-width="2" fill="none"></path></g></g><g transform="translate(445.6970672607422 338.75) rotate(0 84.30293273925781 11.25)"><text x="84.30293273925781" y="NaN" font-family="Virgil, Segoe UI Emoji" font-size="18px" fill="#c9d1d9" text-anchor="middle" style="white-space: pre;" direction="ltr">ping-req (target=S)</text></g><g stroke-linecap="round"><g transform="translate(670 430) rotate(0 -140 0)"><path d="M0.26 0.51 C-46.63 0.29, -234.01 -0.76, -280.56 -0.86 M-1.07 -0.27 C-48.22 -0.39, -235.42 -0.01, -281.8 0.22" stroke="#c9d1d9" stroke-width="2" fill="none"></path></g><g transform="translate(670 430) rotate(0 -140 0)"><path d="M-252.8 -11.06 C-265.23 -4.74, -274.22 -1.18, -282.12 1.11 M-254.31 -9.46 C-263.72 -6.65, -275.56 -2.14, -282.75 0.83" stroke="#c9d1d9" stroke-width="2" fill="none"></path></g><g transform="translate(670 430) rotate(0 -140 0)"><path d="M-252.73 9.46 C-265.26 8.36, -274.27 4.5, -282.12 1.11 M-254.24 11.06 C-263.81 5.82, -275.68 2.27, -282.75 0.83" stroke="#c9d1d9" stroke-width="2" fill="none"></path></g></g><g transform="translate(514.8800201416016 418.75) rotate(0 15.119979858398438 11.25)"><text x="15.119979858398438" y="NaN" font-family="Virgil, Segoe UI Emoji" font-size="18px" fill="#c9d1d9" text-anchor="middle" style="white-space: pre;" direction="ltr">ping</text></g><g stroke-linecap="round"><g transform="translate(949.8731911457554 485) rotate(0 -280 0)"><path d="M0.69 1.13 C-92.79 1.07, -467.36 0.56, -560.85 0.56 M-0.41 0.68 C-93.51 0.18, -465.12 -1.06, -558.59 -1.27" stroke="#c9d1d9" stroke-width="2" fill="none"></path></g><g transform="translate(949.8731911457554 485) rotate(0 -280 0)"><path d="M-528.48 -12.87 C-537.87 -8.69, -545.4 -6.35, -557.74 -1.7 M-530.64 -10.46 C-537.66 -9.35, -542.32 -7.36, -557.71 -2.13" stroke="#c9d1d9" stroke-width="2" fill="none"></path></g><g transform="translate(949.8731911457554 485) rotate(0 -280 0)"><path d="M-528.54 7.65 C-538.07 5.64, -545.58 1.78, -557.74 -1.7 M-530.7 10.06 C-537.73 6.47, -542.38 3.75, -557.71 -2.13" stroke="#c9d1d9" stroke-width="2" fill="none"></path></g></g><g transform="translate(654.7532112873569 473.75) rotate(0 15.119979858398438 11.25)"><text x="15.119979858398438" y="NaN" font-family="Virgil, Segoe UI Emoji" font-size="18px" fill="#c9d1d9" text-anchor="middle" style="white-space: pre;" direction="ltr">ping</text></g><g stroke-opacity="0.85" fill-opacity="0.85" stroke-linecap="round" transform="translate(101.7853120785615 518) rotate(0 427.67129581695167 22)"><path d="M-1.38 1.8 L854.61 0.95 L856.29 43.67 L-1.85 45.22" stroke="none" stroke-width="0" fill="#1f4d2b"></path><path d="M-0.56 0.69 C308.4 1.94, 617.36 1.8, 855.52 -0.14 M0.24 0.1 C258.39 -0.86, 516.59 -0.35, 855.2 -0.31 M854.78 -1.93 C855.58 11.29, 855.3 23.64, 855.62 43.41 M855.31 -0.23 C856.06 14.19, 854.85 29.79, 855.52 43.54 M855.91 43.67 C569.8 42.49, 282.86 42.96, 0.1 44.49 M855.7 43.61 C579.99 46.58, 304.58 46.04, -0.05 44.23 M-1.19 42.88 C1.8 30.39, 0.75 16.91, -1.74 -0.44 M0.73 43.69 C0.78 30.16, -0.32 15.39, 0.08 0.65" stroke="#3fb950" stroke-width="2" fill="none"></path></g><g transform="translate(457.3926506811577 530) rotate(0 72.06395721435544 10)"><text x="72.06395721435547" y="NaN" font-family="Virgil, Segoe UI Emoji" font-size="16px" fill="#ffffff" text-anchor="middle" style="white-space: pre;" direction="ltr">Phase 3: Suspicion</text></g><g stroke-linecap="round"><g transform="translate(110 590) rotate(0 45.4092308244355 24.35962812948668)"><path d="M0.96 0.89 C15.19 0.29, 69.68 -12.92, 84.62 -4.43 C99.56 4.06, 104.45 42.52, 90.6 51.84 C76.75 61.16, 16.61 51.23, 1.5 51.48 M0.01 0.31 C14.68 -0.1, 71.9 -12.21, 86.85 -3.41 C101.8 5.38, 103.86 43.79, 89.72 53.06 C75.58 62.34, 16.7 52.63, 2.01 52.22" stroke="#c9d1d9" stroke-width="2" fill="none"></path></g><g transform="translate(110 590) rotate(0 45.4092308244355 24.35962812948668)"><path d="M32.51 43.08 C22.44 46.29, 16.93 49.28, 0.88 50.45 M31.56 45.22 C20.01 46.95, 8.82 50.94, 2.62 52.22" stroke="#c9d1d9" stroke-width="2" fill="none"></path></g><g transform="translate(110 590) rotate(0 45.4092308244355 24.35962812948668)"><path d="M30.61 63.52 C21.13 61.86, 16.07 60.01, 0.88 50.45 M29.67 65.65 C18.71 59.32, 8.27 55.23, 2.62 52.22" stroke="#c9d1d9" stroke-width="2" fill="none"></path></g></g><g transform="translate(115.64353144722651 602.2062844602583) rotate(0 93.42896270751953 11.25)"><text x="93.42896270751953" y="NaN" font-family="Virgil, Segoe UI Emoji" font-size="18px" fill="#c9d1d9" text-anchor="middle" style="white-space: pre;" direction="ltr">Mark S as SUSPECT</text></g><g stroke-linecap="round"><g transform="translate(110 670) rotate(0 280 0)"><path d="M-1.2 0.37 C92.13 0.34, 465.97 -0.59, 559.54 -0.77 M0.38 -0.48 C93.55 -0.33, 465.15 0.24, 558.35 0.37" stroke="#c9d1d9" stroke-width="2" fill="none"></path></g><g transform="translate(110 670) rotate(0 280 0)"><path d="M530.76 9.82 C536.33 8.53, 543.88 3.85, 556.48 -0.28 M530.61 9.65 C538.77 6.81, 546.96 3.74, 559.33 1.15" stroke="#c9d1d9" stroke-width="2" fill="none"></path></g><g transform="translate(110 670) rotate(0 280 0)"><path d="M530.79 -10.7 C536.26 -6.59, 543.79 -5.87, 556.48 -0.28 M530.63 -10.88 C538.79 -7.64, 546.97 -4.63, 559.33 1.15" stroke="#c9d1d9" stroke-width="2" fill="none"></path></g></g><g transform="translate(302.46607208251953 658.75) rotate(0 87.53392791748047 11.25)"><text x="87.53392791748047" y="NaN" font-family="Virgil, Segoe UI Emoji" font-size="18px" fill="#c9d1d9" text-anchor="middle" style="white-space: pre;" direction="ltr">gossip: S is suspect</text></g><g stroke-linecap="round"><g transform="translate(670 735) rotate(0 140 0)"><path d="M-0.99 -0.1 C45.56 -0.25, 232.6 0.18, 279.51 0.12 M0.7 -1.2 C47.02 -0.61, 231.76 1.42, 278.3 1.71" stroke="#c9d1d9" stroke-width="2" fill="none"></path></g><g transform="translate(670 735) rotate(0 140 0)"><path d="M249.85 10.9 C259.19 9.55, 267.21 5.96, 278.38 3.71 M250.86 11.47 C261.61 7.46, 272.06 3.84, 278.52 2.23" stroke="#c9d1d9" stroke-width="2" fill="none"></path></g><g transform="translate(670 735) rotate(0 140 0)"><path d="M250.04 -9.62 C259.49 -4.4, 267.45 -1.41, 278.38 3.71 M251.05 -9.05 C261.69 -5.05, 272.08 -0.65, 278.52 2.23" stroke="#c9d1d9" stroke-width="2" fill="none"></path></g></g><g transform="translate(722.4660720825195 723.75) rotate(0 87.53392791748047 11.25)"><text x="87.53392791748047" y="NaN" font-family="Virgil, Segoe UI Emoji" font-size="18px" fill="#c9d1d9" text-anchor="middle" style="white-space: pre;" direction="ltr">gossip: S is suspect</text></g><g stroke-opacity="0.85" fill-opacity="0.85" stroke-linecap="round" transform="translate(100.64062575383525 768) rotate(0 430.7133571879001 22)"><path d="M-1.88 -1.83 L863.13 -0.95 L859.69 45.65 L0.95 42.69" stroke="none" stroke-width="0" fill="#1f4d2b"></path><path d="M0.75 -0.37 C177.08 -2.11, 353.92 -3.33, 861.21 -0.35 M-0.4 -0.4 C333.1 -0.01, 666.67 0.7, 861.44 0.22 M860.54 1.72 C862.39 13.3, 862.97 20.9, 861.87 42.99 M860.51 -0.94 C861.77 10.07, 861.28 18.36, 861.88 43.92 M860.9 43.35 C677.68 42.65, 493.34 42.87, -0.15 43.83 M861.48 44.05 C622.04 44.19, 382.92 43.78, -0.18 43.81 M1.03 45.5 C-1.68 34.35, 0.36 20.29, -0.48 0.85 M-0.59 43.33 C-0.1 30.54, -0.35 16.7, 0.67 -0.85" stroke="#3fb950" stroke-width="2" fill="none"></path></g><g transform="translate(439.8100452586299 780) rotate(0 91.54393768310547 10)"><text x="91.54393768310547" y="NaN" font-family="Virgil, Segoe UI Emoji" font-size="16px" fill="#ffffff" text-anchor="middle" style="white-space: pre;" direction="ltr">After suspicion timeout</text></g><g stroke-linecap="round"><g transform="translate(109.87319114575547 830) rotate(0 43.20326276930999 28.540582755079242)"><path d="M-0.27 -0.76 C14.22 0.26, 73.3 -2.42, 87.08 6.3 C100.87 15.03, 96.51 43.25, 82.43 51.6 C68.35 59.94, 15.86 55.45, 2.62 56.38 M1.79 1.45 C16.17 2.14, 72.66 -3.79, 86.49 4.7 C100.32 13.19, 98.65 43.65, 84.77 52.38 C70.88 61.12, 16.98 56.25, 3.2 57.12" stroke="#c9d1d9" stroke-width="2" fill="none"></path></g><g transform="translate(109.87319114575547 830) rotate(0 43.20326276930999 28.540582755079242)"><path d="M30.24 48.32 C24.32 48.45, 12.15 54.37, 2.03 58.82 M30.61 48.03 C23 50.34, 14.4 53.2, 3.46 57.53" stroke="#c9d1d9" stroke-width="2" fill="none"></path></g><g transform="translate(109.87319114575547 830) rotate(0 43.20326276930999 28.540582755079242)"><path d="M30 68.84 C24.12 62.56, 12.02 62.07, 2.03 58.82 M30.37 68.54 C22.71 64.56, 14.19 61.12, 3.46 57.53" stroke="#c9d1d9" stroke-width="2" fill="none"></path></g></g><g transform="translate(128.26727545555798 848.1577797163533) rotate(0 77.02196502685547 11.25)"><text x="77.02196502685547" y="NaN" font-family="Virgil, Segoe UI Emoji" font-size="18px" fill="#c9d1d9" text-anchor="middle" style="white-space: pre;" direction="ltr">Mark S as DEAD</text></g></svg>