<svg version="1.1" xmlns="http://www.w3.org/2000/svg" viewBox="0 0 1500 762.5" width="1500" height="762.5">
  <!-- svg-source:excalidraw -->
  
  <defs>
    <style>
      @font-face {
        font-family: "Virgil";
        src: url("https://excalidraw.com/Virgil.woff2");
      }
      @font-face {
        font-family: "Cascadia";
        src: url("https://excalidraw.com/Cascadia.woff2");
      }
    </style>
  </defs>
  <rect x="0" y="0" width="1500" height="762.5" fill="#0d1117"></rect><g transform="translate(30 10) rotate(0 399.77581787109375 16.25)"><text x="0" y="NaN" font-family="Virgil, Segoe UI Emoji" font-size="26px" fill="#ff8c42" text-anchor="start" style="white-space: pre;" direction="ltr">Gossip Convergence: Doubles Each Round, log(N) Rounds Total</text></g><g transform="translate(30 47) rotate(0 260.1253662109375 31.875)"><text x="0" y="NaN" font-family="Virgil, Segoe UI Emoji" font-size="17px" fill="#c9d1d9" text-anchor="start" style="white-space: pre;" direction="ltr">Each infected node tells 2 neighbors per round, so the count</text><text x="0" y="NaN" font-family="Virgil, Segoe UI Emoji" font-size="17px" fill="#c9d1d9" text-anchor="start" style="white-space: pre;" direction="ltr">triples. For 1000 nodes, ~7 rounds reach everyone — and you</text><text x="0" y="NaN" font-family="Virgil, Segoe UI Emoji" font-size="17px" fill="#c9d1d9" text-anchor="start" style="white-space: pre;" direction="ltr">only pay log(N) for full propagation at any cluster size.</text></g><g stroke-linecap="round"><g transform="translate(100 705) rotate(0 500 0)"><path d="M0.01 -1.15 C166.54 -1.09, 833.7 -0.88, 1000.32 -0.48 M-1.44 0.86 C164.85 1.15, 832.83 1.03, 999.54 0.8" stroke="#8b949e" stroke-width="2" fill="none"></path></g></g><g stroke-linecap="round"><g transform="translate(100 705) rotate(0 0 -250)"><path d="M0.49 -0.4 C0.58 -84.02, -0.33 -417.85, -0.25 -501.13 M-0.71 -1.66 C-0.73 -85.22, -1.57 -417.32, -1.33 -500.18" stroke="#8b949e" stroke-width="2" fill="none"></path></g></g><g stroke-linecap="round"><g transform="translate(94 705) rotate(0 6 0)"><path d="M-0.73 -0.12 C0.98 0.17, 8.87 0.93, 11.05 1.03 M1.08 -1.23 C3.09 -1.19, 11.48 -0.48, 13.27 -0.56" stroke="#8b949e" stroke-width="2" fill="none"></path></g></g><g transform="translate(36 695) rotate(0 11.388992309570312 8.75)"><text x="0" y="NaN" font-family="Virgil, Segoe UI Emoji" font-size="14px" fill="#8b949e" text-anchor="start" style="white-space: pre;" direction="ltr">0%</text></g><g stroke-linecap="round"><g transform="translate(94 580) rotate(0 6 0)"><path d="M0.63 -0.85 C2.76 -1.15, 10.39 -1.01, 12.13 -0.91 M-0.5 1.32 C1.54 1.06, 8.91 0.21, 11.25 0.15" stroke="#8b949e" stroke-width="2" fill="none"></path></g></g><g transform="translate(36 570) rotate(0 15.882987976074219 8.75)"><text x="0" y="NaN" font-family="Virgil, Segoe UI Emoji" font-size="14px" fill="#8b949e" text-anchor="start" style="white-space: pre;" direction="ltr">25%</text></g><g stroke-linecap="round"><g transform="translate(94 455) rotate(0 6 0)"><path d="M-0.16 -1.07 C1.95 -1.31, 10.95 -1.11, 13.15 -0.79 M-1.7 0.99 C0.31 0.82, 10.38 0.67, 12.8 0.34" stroke="#8b949e" stroke-width="2" fill="none"></path></g></g><g transform="translate(36 445) rotate(0 15.714988708496094 8.75)"><text x="0" y="NaN" font-family="Virgil, Segoe UI Emoji" font-size="14px" fill="#8b949e" text-anchor="start" style="white-space: pre;" direction="ltr">50%</text></g><g stroke-linecap="round"><g transform="translate(94 330) rotate(0 6 0)"><path d="M-0.18 -0.03 C1.58 -0.04, 9.64 0.22, 11.55 0.26 M-1.73 -1.09 C-0.25 -1.52, 7.78 -2.18, 10.36 -1.73" stroke="#8b949e" stroke-width="2" fill="none"></path></g></g><g transform="translate(36 320) rotate(0 14.664993286132812 8.75)"><text x="0" y="NaN" font-family="Virgil, Segoe UI Emoji" font-size="14px" fill="#8b949e" text-anchor="start" style="white-space: pre;" direction="ltr">75%</text></g><g stroke-linecap="round"><g transform="translate(94 205) rotate(0 6 0)"><path d="M0.88 0.33 C2.97 0.31, 9.71 0.99, 11.41 0.86 M-0.11 -0.55 C2.47 -0.98, 11.55 -1.01, 13.81 -0.82" stroke="#8b949e" stroke-width="2" fill="none"></path></g></g><g transform="translate(36 195) rotate(0 18.10198211669922 8.75)"><text x="0" y="NaN" font-family="Virgil, Segoe UI Emoji" font-size="14px" fill="#8b949e" text-anchor="start" style="white-space: pre;" direction="ltr">100%</text></g><g transform="translate(10 145) rotate(0 27.31396484375 8.75)"><text x="0" y="NaN" font-family="Virgil, Segoe UI Emoji" font-size="14px" fill="#8b949e" text-anchor="start" style="white-space: pre;" direction="ltr">infected</text></g><g transform="translate(10 163) rotate(0 27.22997283935547 8.75)"><text x="0" y="NaN" font-family="Virgil, Segoe UI Emoji" font-size="14px" fill="#8b949e" text-anchor="start" style="white-space: pre;" direction="ltr">fraction</text></g><g stroke-linecap="round"><g transform="translate(100 701) rotate(0 0 4)"><path d="M0.38 0.88 C0.17 2.34, -1.29 6.96, -1.19 8.17 M-0.88 0.29 C-0.75 2.02, 0.63 8.26, 0.89 9.8" stroke="#8b949e" stroke-width="2" fill="none"></path></g></g><g transform="translate(94 715) rotate(0 4.8159942626953125 8.75)"><text x="0" y="NaN" font-family="Virgil, Segoe UI Emoji" font-size="14px" fill="#8b949e" text-anchor="start" style="white-space: pre;" direction="ltr">0</text></g><g stroke-linecap="round"><g transform="translate(183.33333333333331 701) rotate(0 0 4)"><path d="M-0.38 -0.78 C-0.19 0.64, 0.99 6.92, 0.97 8.2 M1.62 1.42 C1.75 2.49, 1.05 5.15, 0.53 6.18" stroke="#8b949e" stroke-width="2" fill="none"></path></g></g><g transform="translate(177.33333333333331 715) rotate(0 1.8969955444335938 8.75)"><text x="0" y="NaN" font-family="Virgil, Segoe UI Emoji" font-size="14px" fill="#8b949e" text-anchor="start" style="white-space: pre;" direction="ltr">1</text></g><g stroke-linecap="round"><g transform="translate(266.66666666666663 701) rotate(0 0 4)"><path d="M0.28 -0.55 C0.27 1.1, -0.7 7.55, -0.69 9.17 M-1.04 1.77 C-0.59 3.18, 1.53 6.72, 1.66 7.66" stroke="#8b949e" stroke-width="2" fill="none"></path></g></g><g transform="translate(260.66666666666663 715) rotate(0 4.9839935302734375 8.75)"><text x="0" y="NaN" font-family="Virgil, Segoe UI Emoji" font-size="14px" fill="#8b949e" text-anchor="start" style="white-space: pre;" direction="ltr">2</text></g><g stroke-linecap="round"><g transform="translate(350 701) rotate(0 0 4)"><path d="M0.84 -0.93 C0.92 0.37, 0.82 6.78, 0.74 8.21 M-0.17 1.2 C-0.22 2.08, 0.19 4.93, 0.19 6.2" stroke="#8b949e" stroke-width="2" fill="none"></path></g></g><g transform="translate(344 715) rotate(0 4.766998291015625 8.75)"><text x="0" y="NaN" font-family="Virgil, Segoe UI Emoji" font-size="14px" fill="#8b949e" text-anchor="start" style="white-space: pre;" direction="ltr">3</text></g><g stroke-linecap="round"><g transform="translate(433.3333333333333 701) rotate(0 0 4)"><path d="M0.59 0.41 C0.39 2.08, -0.54 7.52, -0.81 8.87 M-0.56 -0.42 C-0.41 1.02, 1.16 6.07, 1.47 7.21" stroke="#8b949e" stroke-width="2" fill="none"></path></g></g><g transform="translate(427.3333333333333 715) rotate(0 4.4799957275390625 8.75)"><text x="0" y="NaN" font-family="Virgil, Segoe UI Emoji" font-size="14px" fill="#8b949e" text-anchor="start" style="white-space: pre;" direction="ltr">4</text></g><g stroke-linecap="round"><g transform="translate(516.6666666666666 701) rotate(0 0 4)"><path d="M0.07 -0.67 C-0.15 0.42, -0.65 5.98, -0.6 7.57 M-1.35 1.6 C-1.24 3.38, 1.61 7.98, 1.8 8.89" stroke="#8b949e" stroke-width="2" fill="none"></path></g></g><g transform="translate(510.66666666666663 715) rotate(0 4.325996398925781 8.75)"><text x="0" y="NaN" font-family="Virgil, Segoe UI Emoji" font-size="14px" fill="#8b949e" text-anchor="start" style="white-space: pre;" direction="ltr">5</text></g><g stroke-linecap="round"><g transform="translate(600 701) rotate(0 0 4)"><path d="M0.36 -1.14 C0.35 -0.01, 0.25 5.84, 0.03 7.21 M-0.92 0.87 C-1.08 2.11, -1.29 7.16, -0.9 8.33" stroke="#8b949e" stroke-width="2" fill="none"></path></g></g><g transform="translate(594 715) rotate(0 4.4799957275390625 8.75)"><text x="0" y="NaN" font-family="Virgil, Segoe UI Emoji" font-size="14px" fill="#8b949e" text-anchor="start" style="white-space: pre;" direction="ltr">6</text></g><g stroke-linecap="round"><g transform="translate(683.3333333333333 701) rotate(0 0 4)"><path d="M-0.36 0.86 C-0.57 2.07, -1.32 6.04, -1.07 7.1 M1.65 0.27 C1.78 1.62, 1.2 6.85, 1.08 8.16" stroke="#8b949e" stroke-width="2" fill="none"></path></g></g><g transform="translate(677.3333333333333 715) rotate(0 3.7659988403320312 8.75)"><text x="0" y="NaN" font-family="Virgil, Segoe UI Emoji" font-size="14px" fill="#8b949e" text-anchor="start" style="white-space: pre;" direction="ltr">7</text></g><g stroke-linecap="round"><g transform="translate(766.6666666666666 701) rotate(0 0 4)"><path d="M-0.58 -0.58 C-0.43 0.93, 0.17 7.69, 0.45 9.08 M1.32 1.72 C1.39 2.93, -0.19 6.32, -0.26 7.53" stroke="#8b949e" stroke-width="2" fill="none"></path></g></g><g transform="translate(760.6666666666666 715) rotate(0 5.3549957275390625 8.75)"><text x="0" y="NaN" font-family="Virgil, Segoe UI Emoji" font-size="14px" fill="#8b949e" text-anchor="start" style="white-space: pre;" direction="ltr">8</text></g><g stroke-linecap="round"><g transform="translate(850 701) rotate(0 0 4)"><path d="M0.09 0.02 C0.24 1.56, 0.69 7.43, 0.87 8.77 M-1.32 -1.02 C-1.26 0.23, -0.01 5.32, 0.37 7.05" stroke="#8b949e" stroke-width="2" fill="none"></path></g></g><g transform="translate(844 715) rotate(0 4.262992858886719 8.75)"><text x="0" y="NaN" font-family="Virgil, Segoe UI Emoji" font-size="14px" fill="#8b949e" text-anchor="start" style="white-space: pre;" direction="ltr">9</text></g><g stroke-linecap="round"><g transform="translate(933.3333333333333 701) rotate(0 0 4)"><path d="M0.98 0.93 C0.81 2.23, -1.01 7.55, -0.99 8.86 M0.04 0.38 C0.23 1.86, 1.06 6.11, 1.2 7.19" stroke="#8b949e" stroke-width="2" fill="none"></path></g></g><g transform="translate(927.3333333333333 715) rotate(0 6.712989807128906 8.75)"><text x="0" y="NaN" font-family="Virgil, Segoe UI Emoji" font-size="14px" fill="#8b949e" text-anchor="start" style="white-space: pre;" direction="ltr">10</text></g><g stroke-linecap="round"><g transform="translate(1016.6666666666665 701) rotate(0 0 4)"><path d="M1.2 0.37 C1.51 1.69, 1.38 5.82, 1.13 7.19 M0.36 -0.48 C0.68 1.04, 1.04 7.13, 0.78 8.31" stroke="#8b949e" stroke-width="2" fill="none"></path></g></g><g transform="translate(1010.6666666666665 715) rotate(0 3.7939910888671875 8.75)"><text x="0" y="NaN" font-family="Virgil, Segoe UI Emoji" font-size="14px" fill="#8b949e" text-anchor="start" style="white-space: pre;" direction="ltr">11</text></g><g stroke-linecap="round"><g transform="translate(1100 701) rotate(0 0 4)"><path d="M0.48 -0.24 C0.37 0.93, 0.29 5.49, 0.31 6.99 M-0.73 -1.42 C-1.06 -0.13, -0.62 6.62, -0.48 7.99" stroke="#8b949e" stroke-width="2" fill="none"></path></g></g><g transform="translate(1094 715) rotate(0 6.880989074707031 8.75)"><text x="0" y="NaN" font-family="Virgil, Segoe UI Emoji" font-size="14px" fill="#8b949e" text-anchor="start" style="white-space: pre;" direction="ltr">12</text></g><g transform="translate(1010 735) rotate(0 45.38795471191406 8.75)"><text x="0" y="NaN" font-family="Virgil, Segoe UI Emoji" font-size="14px" fill="#8b949e" text-anchor="start" style="white-space: pre;" direction="ltr">gossip rounds</text></g><g stroke-linecap="round"><g transform="translate(100 704.5) rotate(0 41.66666666666666 -0.5)"><path d="M0.97 1.05 C14.84 0.87, 70.01 0.01, 83.85 -0.48 M0.03 0.55 C13.72 -0.03, 69.25 -2.06, 83.17 -2.34" stroke="#3fb950" stroke-width="3" fill="none"></path></g></g><g stroke-linecap="round"><g transform="translate(183.33333333333331 703.5) rotate(0 41.66666666666666 -1.5)"><path d="M-0.92 -0.93 C13.11 -1.56, 69.18 -3.15, 83.18 -3.49 M0.8 1.2 C14.75 0.71, 68.58 -1.74, 82.16 -2.21" stroke="#3fb950" stroke-width="3" fill="none"></path></g></g><g stroke-linecap="round"><g transform="translate(266.66666666666663 700.5) rotate(0 41.666666666666686 -4.5)"><path d="M0.43 0.84 C14.35 -0.47, 69.51 -6.7, 83.27 -8.37 M-0.81 0.24 C12.98 -1.38, 68.47 -8.79, 82.28 -10.16" stroke="#3fb950" stroke-width="3" fill="none"></path></g></g><g stroke-linecap="round"><g transform="translate(350 691.5) rotate(0 41.66666666666666 -13.5)"><path d="M0.48 -0.43 C14.2 -4.96, 68.9 -22.78, 82.64 -27.4 M-0.73 -1.7 C13.35 -6.04, 71.22 -21.79, 84.99 -26.08" stroke="#3fb950" stroke-width="3" fill="none"></path></g></g><g stroke-linecap="round"><g transform="translate(433.3333333333333 664.5) rotate(0 41.66666666666666 -40.5)"><path d="M0.21 -0.42 C14.24 -13.82, 69.36 -67.02, 83.39 -80.46 M-1.14 -1.69 C12.8 -15.44, 68.26 -69.29, 82.47 -82.3" stroke="#3fb950" stroke-width="3" fill="none"></path></g></g><g stroke-linecap="round"><g transform="translate(516.6666666666666 583.5) rotate(0 41.666666666666686 -121.5)"><path d="M-0.87 -1.01 C13.02 -41.46, 69.12 -203.25, 83.15 -243.63 M0.88 1.07 C14.61 -39.14, 68.49 -201.89, 82.1 -242.42" stroke="#3fb950" stroke-width="3" fill="none"></path></g></g><g stroke-linecap="round"><g transform="translate(600 340.5) rotate(0 41.66666666666663 -67.75)"><path d="M-0.28 -0.13 C13.68 -22.52, 69.49 -113.07, 83.36 -135.55 M1.78 -1.24 C15.62 -23.33, 69.06 -111.39, 82.42 -134.04" stroke="#3fb950" stroke-width="3" fill="none"></path></g></g><g stroke-linecap="round"><g transform="translate(683.3333333333333 205) rotate(0 41.666666666666686 0)"><path d="M0.73 -0.07 C14.75 -0.1, 69.99 0.31, 83.68 0.39 M-0.34 -1.14 C13.59 -1.6, 69.21 -1.44, 82.91 -1.53" stroke="#3fb950" stroke-width="3" fill="none"></path></g></g><g stroke-linecap="round"><g transform="translate(766.6666666666666 205) rotate(0 41.666666666666686 0)"><path d="M-0.76 -1.06 C13 -0.78, 68.78 0.69, 82.84 1.01 M1.05 0.99 C14.58 1.02, 67.97 -0.24, 81.64 -0.59" stroke="#3fb950" stroke-width="3" fill="none"></path></g></g><g stroke-linecap="round"><g transform="translate(850 205) rotate(0 41.66666666666663 0)"><path d="M0.55 -0.6 C14.34 -0.9, 69.78 -1.24, 83.56 -1.14 M-0.62 1.7 C12.96 1.44, 68.89 -0.13, 82.73 -0.21" stroke="#3fb950" stroke-width="3" fill="none"></path></g></g><g stroke-linecap="round"><g transform="translate(933.3333333333333 205) rotate(0 41.66666666666663 0)"><path d="M-0.43 -0.1 C13.2 -0.15, 68.34 -0.13, 82.34 -0.03 M1.54 -1.2 C15.49 -1.07, 70.96 1.56, 84.54 1.49" stroke="#3fb950" stroke-width="3" fill="none"></path></g></g><g stroke-linecap="round"><g transform="translate(1016.6666666666665 205) rotate(0 41.66666666666674 0)"><path d="M0.68 -0.36 C14.5 -0.57, 69.81 -0.54, 83.58 -0.6 M-0.42 -1.6 C13.2 -1.71, 68.94 0.32, 82.76 0.62" stroke="#3fb950" stroke-width="3" fill="none"></path></g></g><g stroke-linecap="round" transform="translate(96 700.5) rotate(0 4 4)"><path d="M-1.35 1.84 L7.81 1.55 L7.24 6.45 L-0.79 8.4" stroke="none" stroke-width="0" fill="#3fb950"></path><path d="M0.17 -0.25 C2.42 0.59, 4.45 -0.2, 7.35 0.44 M0.28 -0.28 C2.62 0.3, 4.42 0.27, 7.75 0.31 M7.89 0.67 C7.42 2.47, 7.5 4.23, 7.95 8.25 M7.78 0.31 C7.91 2.31, 8.08 4.16, 7.68 8.18 M7.85 8.66 C5.42 8.29, 2.06 8.61, 0.22 8.65 M8.38 7.63 C5.88 7.55, 3.67 7.87, 0.03 7.63 M-0.23 8.75 C0.13 5.82, 0.42 2.67, -0.62 -0.11 M-0.05 8.12 C-0.16 5.17, 0.15 2, 0.26 0.26" stroke="#3fb950" stroke-width="2" fill="none"></path></g><g stroke-linecap="round" transform="translate(179.33333333333331 699.5) rotate(0 4 4)"><path d="M-0.45 0.52 L9.74 -0.29 L9.32 9.12 L-1.54 8.75" stroke="none" stroke-width="0" fill="#3fb950"></path><path d="M0.57 -0.05 C2.76 -0.66, 6.04 0.65, 8.49 -0.24 M-0.24 -0.2 C2.98 0.39, 6.06 0.23, 8.04 0.27 M7.82 0.37 C7.24 2.36, 7.21 6.02, 7.38 7.68 M7.7 -0.26 C7.92 2.72, 8.09 5.66, 7.96 7.65 M8.79 7.91 C5.53 8.59, 1.74 8.25, 0.41 7.23 M7.8 8.15 C5.95 8.31, 3.73 7.75, -0.32 7.85 M0.36 8.76 C-0.74 5.86, -0.12 4.62, 0.56 0.46 M-0.2 8.02 C0 5.69, 0.06 3.15, -0.03 0.32" stroke="#3fb950" stroke-width="2" fill="none"></path></g><g stroke-linecap="round" transform="translate(262.66666666666663 696.5) rotate(0 4 4)"><path d="M-0.11 -0.63 L8.71 -1.7 L8.17 8.68 L0.52 6.79" stroke="none" stroke-width="0" fill="#3fb950"></path><path d="M-0.09 0.04 C2.84 -0.44, 3.57 0.16, 7.96 0.58 M0.28 0.18 C2.12 -0.26, 4.52 0.12, 8.15 -0.35 M7.41 -0.67 C8.03 2.24, 7.81 4.45, 7.93 7.54 M7.85 -0.38 C8.26 2.14, 8.43 4.08, 7.91 8.15 M8.05 8.53 C5.7 7.93, 2.14 8.71, 0.66 8.55 M8.04 8.23 C5.18 8.33, 2.09 7.84, -0.17 8.19 M0.5 8.47 C0.36 5.52, 0 2.28, 0.23 -0.49 M0.11 8.04 C-0.11 6.03, -0.1 4.75, 0.35 -0.31" stroke="#3fb950" stroke-width="2" fill="none"></path></g><g stroke-linecap="round" transform="translate(346 687.5) rotate(0 4 4)"><path d="M0.02 0.1 L9.53 1.6 L8.08 6.95 L0.9 7.8" stroke="none" stroke-width="0" fill="#3fb950"></path><path d="M-0.13 -0.74 C1.56 -0.5, 3.34 0.67, 8.23 -0.21 M0.35 0.33 C3.06 -0.03, 5.74 -0.25, 8.34 0.15 M8.41 0.15 C7.33 3.32, 7.66 6.18, 7.27 8.37 M8.34 -0.2 C8.3 1.54, 8.11 3.83, 7.79 7.73 M7.67 8.44 C4.98 7.32, 2.42 7.38, 0.58 7.77 M7.93 8.18 C6.16 7.68, 4.93 8.08, -0.28 7.81 M-0.13 8.03 C0.8 6.03, 0.09 4.03, 0.29 -0.6 M0.4 7.9 C0.29 4.9, 0.32 2.6, -0.05 0.16" stroke="#3fb950" stroke-width="2" fill="none"></path></g><g stroke-linecap="round" transform="translate(429.3333333333333 660.5) rotate(0 4 4)"><path d="M-1.85 0.45 L9.74 1.15 L8.57 8.6 L1.66 7.5" stroke="none" stroke-width="0" fill="#3fb950"></path><path d="M-0.02 0.52 C3.56 0.71, 5.64 0.19, 7.22 0.12 M-0.35 0.4 C2.12 0.41, 3.87 0.21, 8.21 -0.33 M8.56 0.79 C8.11 3.26, 7.95 5.53, 8.26 7.66 M7.7 -0.01 C8.17 1.81, 8.2 4.05, 8.33 8.25 M7.94 7.42 C4.76 8.21, 2.56 8.7, 0.03 8.59 M7.88 7.82 C5.42 8.3, 3.33 8.26, -0.03 8.28 M0.23 7.86 C0.21 5.16, 0.58 1.87, -0.09 0.71 M-0.16 7.65 C0.17 6.39, -0.31 4.23, -0.17 -0.34" stroke="#3fb950" stroke-width="2" fill="none"></path></g><g stroke-linecap="round" transform="translate(512.6666666666666 579.5) rotate(0 4 4)"><path d="M0.27 -0.66 L7.07 -0.23 L7.63 9.78 L1.56 7.66" stroke="none" stroke-width="0" fill="#3fb950"></path><path d="M-0.59 -0.08 C2.21 0.45, 3.82 0.05, 7.77 -0.09 M0.38 0.33 C2.29 -0.06, 5.16 0.11, 7.99 0.14 M7.27 0.08 C7.82 2.31, 7.57 3.81, 8.6 7.26 M7.6 0.29 C8.13 1.67, 7.95 3.05, 8.16 7.94 M8.39 7.56 C5.53 7.38, 2.49 8.62, -0.12 8.31 M7.82 7.88 C5.92 7.76, 3.68 7.87, 0.26 7.75 M0.39 7.45 C-0.29 4.17, 0.06 2.07, -0.68 -0.12 M0.2 7.94 C0.22 4.85, -0.08 1.48, -0.11 -0.14" stroke="#3fb950" stroke-width="2" fill="none"></path></g><g stroke-linecap="round" transform="translate(596 336.5) rotate(0 4 4)"><path d="M1.4 1.34 L7.84 0.39 L8.63 8.98 L-0.22 7.07" stroke="none" stroke-width="0" fill="#3fb950"></path><path d="M0.35 0.27 C3.03 0.58, 5.7 0.25, 7.34 -0.21 M0.4 -0.33 C2.19 0.33, 4.13 -0.28, 8.08 -0.1 M7.8 0.11 C8.43 2.7, 8.68 6.67, 7.56 7.52 M8.05 0.34 C7.8 2, 8.26 4.9, 8.03 7.62 M7.37 8.46 C6.42 8.28, 4.34 7.27, -0.29 8.32 M7.84 8.37 C5.79 7.94, 3.83 7.89, 0.18 7.8 M0.45 7.77 C0.1 4.89, -0.71 2.96, -0.4 -0.11 M0.06 7.66 C0.13 5.47, -0.42 3.39, -0.18 0.28" stroke="#3fb950" stroke-width="2" fill="none"></path></g><g stroke-linecap="round" transform="translate(679.3333333333333 201) rotate(0 4 4)"><path d="M-1.79 -0.68 L7.05 1.54 L8.32 6.1 L1.92 7.43" stroke="none" stroke-width="0" fill="#3fb950"></path><path d="M-0.35 -0.47 C3.04 -0.71, 5.9 -0.46, 8.68 0.24 M-0.28 -0.04 C2.48 0.39, 4.44 0.02, 8.07 0.18 M8.75 0.03 C8.14 2.31, 8 4.72, 7.28 8.72 M8.09 -0.26 C8.35 1.69, 8.2 4.01, 8.21 8.11 M7.48 7.58 C6.75 8.14, 4.71 7.58, -0.7 8.39 M8.1 7.83 C5.38 8.03, 2.78 7.73, -0.11 7.98 M-0.01 8.52 C0.77 6.35, 0.83 4.16, -0.14 -0.53 M0.26 8.3 C-0.12 5.33, -0.03 2.28, 0.34 -0.12" stroke="#3fb950" stroke-width="2" fill="none"></path></g><g stroke-linecap="round" transform="translate(762.6666666666666 201) rotate(0 4 4)"><path d="M-0.84 1.56 L9.5 0.59 L7.24 7.47 L-0.59 7.93" stroke="none" stroke-width="0" fill="#3fb950"></path><path d="M0.26 0.08 C2.66 0.4, 6.16 -0.66, 8.28 0.05 M-0.03 0.07 C2.83 0.45, 5.93 0.4, 8.02 -0.12 M7.32 -0.44 C8.74 2.01, 7.46 5.12, 8.58 7.45 M8.26 -0.07 C7.69 3.33, 8.1 5.78, 7.75 8.35 M8.35 8.43 C6.83 8.73, 4.14 8.1, -0.19 7.6 M8.02 8.09 C5.29 8.36, 2.56 7.7, -0.25 7.7 M-0.6 7.3 C-0.43 4.96, -0.41 2.38, 0.62 0.33 M0.03 7.78 C-0.03 6.52, -0.39 4.62, 0.18 0.09" stroke="#3fb950" stroke-width="2" fill="none"></path></g><g stroke-linecap="round" transform="translate(846 201) rotate(0 4 4)"><path d="M1.36 -0.48 L9.7 1.02 L7.61 6.59 L-0.01 7.79" stroke="none" stroke-width="0" fill="#3fb950"></path><path d="M0.75 0.09 C3.57 -0.66, 6.27 0.28, 8.77 -0.74 M-0.07 -0.18 C1.85 -0.25, 3.94 0.15, 7.77 0.22 M7.5 0.21 C7.4 3.07, 8.65 5.06, 7.98 7.45 M8.24 -0.35 C8.31 2.43, 8.07 5.66, 7.72 8.07 M8.29 7.4 C4.6 8.32, 1.83 8.52, 0.44 8.12 M7.65 8.28 C5.76 8.1, 3.7 8.37, 0.08 8.04 M0.73 8.68 C0.17 6.28, -0.15 4.34, 0.63 -0.63 M-0.37 8.35 C0.04 5.27, 0.27 2.18, -0.01 0.27" stroke="#3fb950" stroke-width="2" fill="none"></path></g><g stroke-linecap="round" transform="translate(929.3333333333333 201) rotate(0 4 4)"><path d="M1.15 0.82 L7.17 -1.74 L9.03 8.2 L0.37 8.8" stroke="none" stroke-width="0" fill="#3fb950"></path><path d="M0.56 -0.22 C2.15 0.19, 4.96 0.68, 8.79 -0.03 M-0.2 0.04 C2.32 -0.08, 4.86 0.09, 8 0.13 M8.33 -0.43 C7.84 2.73, 8.61 4.78, 8.08 8.58 M7.84 -0.23 C8.4 2.32, 8 4.89, 8.34 8.12 M8.68 7.99 C5.07 7.66, 2.49 8.49, 0.79 7.66 M8.1 7.77 C5.3 7.95, 3.58 8.08, -0.27 8.4 M0.71 7.8 C-0.71 4.65, -0.4 2.45, -0.75 0.37 M0.33 7.73 C0.18 5.08, -0.03 1.32, -0.13 0.29" stroke="#3fb950" stroke-width="2" fill="none"></path></g><g stroke-linecap="round" transform="translate(1012.6666666666665 201) rotate(0 4 4)"><path d="M-0.36 -0.58 L7.99 -1.49 L9.67 8.42 L-1.24 6.75" stroke="none" stroke-width="0" fill="#3fb950"></path><path d="M0.38 0.01 C1.77 0.39, 5.46 0.72, 7.64 0.75 M0.37 -0.32 C2.61 0.12, 4.62 0.14, 7.89 0.19 M8.14 -0.69 C8.55 1.83, 8.65 4.97, 8.3 8.55 M7.93 0.04 C7.97 2.87, 8.1 4.64, 8.13 8.34 M7.26 7.35 C5.76 8.31, 4.21 7.25, 0.71 7.63 M8.28 8.14 C6 7.66, 4.18 7.94, -0.19 7.63 M-0.1 8.2 C0.45 5.61, -0.06 4.81, 0.52 0.39 M-0.24 8.11 C-0.34 6.46, 0.02 4.77, -0.32 0.38" stroke="#3fb950" stroke-width="2" fill="none"></path></g><g stroke-linecap="round" transform="translate(1096 201) rotate(0 4 4)"><path d="M-0.15 0.05 L8.53 0.03 L6.6 9.4 L1.47 9.18" stroke="none" stroke-width="0" fill="#3fb950"></path><path d="M-0.25 -0.15 C2.57 -0.4, 5.82 -0.66, 8.42 0.67 M0.06 0.04 C2.05 0.35, 4.28 0.44, 7.83 0.16 M8.39 0.04 C7.78 1.08, 8.39 4.38, 8.64 8.05 M7.71 0.29 C7.76 1.53, 8.04 3.69, 8.06 7.78 M7.88 7.4 C6.99 8.42, 3.67 8.17, 0.74 7.67 M8.16 7.82 C4.75 7.89, 2 8.05, 0.22 8.25 M-0.19 8.6 C0.33 4.74, 0.28 2.89, 0.66 0.05 M-0.32 8.39 C0.02 5.09, 0.16 1.96, 0.09 -0.28" stroke="#3fb950" stroke-width="2" fill="none"></path></g><g transform="translate(153.33333333333331 643.5) rotate(0 61.171470642089844 8.125)"><text x="0" y="NaN" font-family="Virgil, Segoe UI Emoji" font-size="13px" fill="#3fb950" text-anchor="start" style="white-space: pre;" direction="ltr">r=1: 3/1000 (0.3%)</text></g><g transform="translate(330 631.5) rotate(0 66.76145935058594 8.125)"><text x="0" y="NaN" font-family="Virgil, Segoe UI Emoji" font-size="13px" fill="#3fb950" text-anchor="start" style="white-space: pre;" direction="ltr">r=3: 27/1000 (2.7%)</text></g><g transform="translate(530.6666666666666 575.5) rotate(0 76.53096008300781 8.125)"><text x="0" y="NaN" font-family="Virgil, Segoe UI Emoji" font-size="13px" fill="#3fb950" text-anchor="start" style="white-space: pre;" direction="ltr">r=5: 243/1000 (24.3%)</text></g><g transform="translate(697.3333333333333 219) rotate(0 79.93696594238281 8.125)"><text x="0" y="NaN" font-family="Virgil, Segoe UI Emoji" font-size="13px" fill="#3fb950" text-anchor="start" style="white-space: pre;" direction="ltr">r=7: 1000/1000 (100.0%)</text></g><g stroke-linecap="round" transform="translate(743.3333333333333 285) rotate(0 145 45)"><path d="M1.2 1.64 L288.14 1.86 L290.69 90.33 L-1.7 88.01" stroke="none" stroke-width="0" fill="#161b22"></path><path d="M0.33 1.21 C90.71 -1.92, 180.07 -0.88, 288.57 -1.25 M-0.04 -0.54 C76.88 -1.11, 153.94 -1.2, 289.89 0.07 M291.09 0.39 C292.35 25.56, 289.56 56.47, 289.68 89.92 M289.13 0.13 C290.37 28.34, 290.86 55.55, 290.4 90.51 M290.29 89.72 C219.55 88.33, 151.28 87.47, 0.01 89.92 M290.21 90.05 C180.71 90.95, 72.12 90.37, 0.21 90.29 M-1.51 89.96 C-2.25 67.66, -1.66 47.89, -1.92 1.07 M-0.14 90.99 C0.36 65.99, -0.68 42.76, 0.06 -0.99" stroke="#6dbf3a" stroke-width="2" fill="none"></path></g><g transform="translate(763.3333333333333 297) rotate(0 70.13996887207031 17.5)"><text x="0" y="NaN" font-family="Virgil, Segoe UI Emoji" font-size="28px" fill="#3fb950" text-anchor="start" style="white-space: pre;" direction="ltr">~7 rounds</text></g><g transform="translate(763.3333333333333 335) rotate(0 71.91793060302734 8.75)"><text x="0" y="NaN" font-family="Virgil, Segoe UI Emoji" font-size="14px" fill="#8b949e" text-anchor="start" style="white-space: pre;" direction="ltr">to reach 1000 nodes</text></g><g stroke-linecap="round"><g transform="translate(741.3333333333333 315) rotate(0 -26 -52)"><path d="M-0.52 1.1 C-9.06 -16.18, -43.9 -86.22, -52.28 -103.65 M1.41 0.64 C-7.23 -17.02, -44.66 -87.89, -53.38 -105.59" stroke="#6dbf3a" stroke-width="2" fill="none"></path></g><g transform="translate(741.3333333333333 315) rotate(0 -26 -52)"><path d="M-29.55 -85.66 C-35.5 -87.64, -39.93 -92.46, -53.57 -107.36 M-30.86 -84.5 C-39.49 -93.24, -45.69 -99.99, -53.16 -104.81" stroke="#6dbf3a" stroke-width="2" fill="none"></path></g><g transform="translate(741.3333333333333 315) rotate(0 -26 -52)"><path d="M-47.81 -76.3 C-49.88 -80.2, -50.43 -87, -53.57 -107.36 M-49.12 -75.14 C-51.35 -87.01, -51.25 -96.99, -53.16 -104.81" stroke="#6dbf3a" stroke-width="2" fill="none"></path></g></g><g stroke-linecap="round" transform="translate(1160 115) rotate(0 165 160)"><path d="M-0.47 1.14 L331 -0.3 L329.87 320.51 L-0.49 321.45" stroke="none" stroke-width="0" fill="#161b22"></path><path d="M-0.75 0.82 C73.05 -2.63, 145.6 -1.13, 329.85 -0.33 M-0.45 -0.05 C105.44 -1.67, 211.73 -1.14, 329.36 0.48 M328.8 -0.82 C332.95 94.34, 332 189.43, 330.98 320.31 M329.64 0.51 C329.32 112.27, 328.24 224.53, 330.21 320.15 M330.86 318.92 C254.28 320.82, 175.14 321.02, 0.38 320.51 M330.56 320.42 C231.83 321.66, 133.47 320.53, 0.28 320.63 M-1.19 321.05 C-2.43 219.54, -1.19 115.74, 0.54 0.48 M-0.19 319.72 C0.15 249.28, -0.29 178.98, -0.6 -0.12" stroke="#30363d" stroke-width="2" fill="none"></path></g><g transform="translate(1176 125) rotate(0 64.67396545410156 11.25)"><text x="0" y="NaN" font-family="Virgil, Segoe UI Emoji" font-size="18px" fill="#e6edf3" text-anchor="start" style="white-space: pre;" direction="ltr">The arithmetic</text></g><g transform="translate(1176 159) rotate(0 100.82788848876953 17.5)"><text x="0" y="NaN" font-family="Virgil, Segoe UI Emoji" font-size="14px" fill="#c9d1d9" text-anchor="start" style="white-space: pre;" direction="ltr">Each round, every infected</text><text x="0" y="NaN" font-family="Virgil, Segoe UI Emoji" font-size="14px" fill="#c9d1d9" text-anchor="start" style="white-space: pre;" direction="ltr">node infects fanout=2 peers:</text></g><g transform="translate(1262.092041015625 217) rotate(0 73.907958984375 11.25)"><text x="73.907958984375" y="NaN" font-family="Virgil, Segoe UI Emoji" font-size="18px" fill="#f0b070" text-anchor="middle" style="white-space: pre;" direction="ltr">I(r+1) = I(r) x 3</text></g><g transform="translate(1176 259) rotate(0 116.69692993164062 26.25)"><text x="0" y="NaN" font-family="Virgil, Segoe UI Emoji" font-size="14px" fill="#c9d1d9" text-anchor="start" style="white-space: pre;" direction="ltr">Rounds to cover N:</text><text x="0" y="NaN" font-family="Virgil, Segoe UI Emoji" font-size="14px" fill="#c9d1d9" text-anchor="start" style="white-space: pre;" direction="ltr">log_3(N) — base 3 because each</text><text x="0" y="NaN" font-family="Virgil, Segoe UI Emoji" font-size="14px" fill="#c9d1d9" text-anchor="start" style="white-space: pre;" direction="ltr">infected node + 2 newly infected.</text></g><g transform="translate(1176 335) rotate(0 109.2826919555664 26.25)"><text x="0" y="NaN" font-family="Virgil, Segoe UI Emoji" font-size="14px" fill="#3fb950" text-anchor="start" style="white-space: pre;" direction="ltr">N=1,000:   log_3(1000) ≈ 6.3</text><text x="0" y="NaN" font-family="Virgil, Segoe UI Emoji" font-size="14px" fill="#3fb950" text-anchor="start" style="white-space: pre;" direction="ltr">N=10,000:  log_3(10000) ≈ 8.4</text><text x="0" y="NaN" font-family="Virgil, Segoe UI Emoji" font-size="14px" fill="#3fb950" text-anchor="start" style="white-space: pre;" direction="ltr">N=1,000,000: log_3(1M) ≈ 12.6</text></g><g stroke-linecap="round" transform="translate(1160 465) rotate(0 165 120)"><path d="M-1.46 1.91 L331.74 -0.47 L331.76 238.8 L0.67 239.9" stroke="none" stroke-width="0" fill="#161b22"></path><path d="M-0.92 0.09 C97.64 2.31, 193.77 1.85, 329.83 -0.71 M0.34 -0.54 C126.9 0.95, 253.25 1.19, 329.36 -0.53 M328.47 -1.02 C327.92 80.03, 328.67 158.82, 330.14 240.61 M329.67 -0.13 C329.31 74.1, 327.88 148.39, 329.3 240.67 M329.2 240.97 C211.73 237.35, 92.49 238.78, -0.67 240.72 M330.36 239.46 C260.68 239.03, 190.19 239.41, 0.07 239.42 M-1.62 241.17 C0.32 171.72, -0.19 99.68, 1.56 -1.14 M-0.63 240.26 C2.5 182.28, 1.67 123.81, -0.65 -0.22" stroke="#30363d" stroke-width="2" fill="none"></path></g><g transform="translate(1176 475) rotate(0 68.35494995117188 11.25)"><text x="0" y="NaN" font-family="Virgil, Segoe UI Emoji" font-size="18px" fill="#e6edf3" text-anchor="start" style="white-space: pre;" direction="ltr">Why this scales</text></g><g transform="translate(1176 509) rotate(0 116.37740325927734 18.75)"><text x="0" y="NaN" font-family="Virgil, Segoe UI Emoji" font-size="15px" fill="#3fb950" text-anchor="start" style="white-space: pre;" direction="ltr">1,000 nodes  →  ~7 rounds</text><text x="0" y="NaN" font-family="Virgil, Segoe UI Emoji" font-size="15px" fill="#3fb950" text-anchor="start" style="white-space: pre;" direction="ltr">1,000,000 nodes → ~13 rounds</text></g><g transform="translate(1176 575) rotate(0 106.81990814208984 43.75)"><text x="0" y="NaN" font-family="Virgil, Segoe UI Emoji" font-size="14px" fill="#c9d1d9" text-anchor="start" style="white-space: pre;" direction="ltr">Doubling cluster size adds only</text><text x="0" y="NaN" font-family="Virgil, Segoe UI Emoji" font-size="14px" fill="#c9d1d9" text-anchor="start" style="white-space: pre;" direction="ltr">ONE extra round.</text><text x="0" y="NaN" font-family="Virgil, Segoe UI Emoji" font-size="14px" fill="#c9d1d9" text-anchor="start" style="white-space: pre;" direction="ltr">This is why gossip is the</text><text x="0" y="NaN" font-family="Virgil, Segoe UI Emoji" font-size="14px" fill="#c9d1d9" text-anchor="start" style="white-space: pre;" direction="ltr">default substrate for cluster</text><text x="0" y="NaN" font-family="Virgil, Segoe UI Emoji" font-size="14px" fill="#c9d1d9" text-anchor="start" style="white-space: pre;" direction="ltr">membership at scale.</text></g></svg>