<svg version="1.1" xmlns="http://www.w3.org/2000/svg" viewBox="0 0 780 780" width="780" height="780">
  <!-- svg-source:excalidraw -->
  
  <defs>
    <style>
      @font-face {
        font-family: "Virgil";
        src: url("https://excalidraw.com/Virgil.woff2");
      }
      @font-face {
        font-family: "Cascadia";
        src: url("https://excalidraw.com/Cascadia.woff2");
      }
    </style>
  </defs>
  <rect x="0" y="0" width="780" height="780" fill="#0d1117"></rect><g stroke-linecap="round" transform="translate(10 10) rotate(0 100 25)"><path d="M-0.05 1.32 L201.04 1.41 L198.47 50.13 L-1.41 50.88" stroke="none" stroke-width="0" fill="#3a1d6e"></path><path d="M-0.37 -1.38 C58.47 -1.42, 116.8 -0.89, 201.21 1.56 M-0.21 0.79 C71.14 -0.54, 143.22 -0.45, 200.58 0 M198.15 -1.5 C198.72 15.26, 202 29.58, 200.46 49.88 M199.44 0.69 C200.25 18.69, 199.32 39.78, 200.92 50.3 M200.36 48.35 C125.31 49.17, 47.98 51.88, 1.46 51.56 M200.33 49.15 C138.79 49.09, 78.99 47.95, 0.87 49.2 M-1.73 51.11 C-1.3 39.91, 1.34 28.89, 1.54 -1.86 M-0.43 49.05 C0.55 34.1, 0.43 17.79, 0.99 -0.42" stroke="#a371f7" stroke-width="2" fill="none"></path></g><g transform="translate(80.11001586914062 22.5) rotate(0 29.889984130859375 12.5)"><text x="29.889984130859375" y="NaN" font-family="Virgil, Segoe UI Emoji" font-size="20px" fill="#ffffff" text-anchor="middle" style="white-space: pre;" direction="ltr">Txn A</text></g><g stroke-linecap="round"><g transform="translate(110 60) rotate(0 0 330)"><path d="M0.21 -0.04 C0.36 109.8, 0.07 549.51, 0.18 659.44" stroke="#30363d" stroke-width="1.5" fill="none" stroke-dasharray="8 9"></path></g></g><g stroke-linecap="round" transform="translate(10 720) rotate(0 100 25)"><path d="M0.51 0.75 L200.52 -1.24 L201.68 51.56 L0.6 49.23" stroke="none" stroke-width="0" fill="#3a1d6e"></path><path d="M0.15 -1.43 C41.24 -1.06, 79.28 -0.13, 200.69 0.68 M-0.18 -0.62 C41.99 1.25, 86.23 1.18, 199.49 -0.67 M200.24 -0.4 C199.98 20.37, 198.9 37.96, 198.65 51.78 M200.73 -0.8 C199.61 19.44, 200.06 37.67, 200.84 50.97 M200.13 51.77 C157.52 50.05, 114.57 49.39, 1.44 48.66 M200.32 49.76 C120.3 48.11, 40.74 48.06, -0.31 50.69 M0.9 49.2 C-1.9 34.28, -1.46 16.84, 1.81 -1.85 M-0.74 50.68 C0.83 32.1, 0.75 14.82, 0.55 -0.79" stroke="#a371f7" stroke-width="2" fill="none"></path></g><g transform="translate(80.11001586914062 732.5) rotate(0 29.889984130859375 12.5)"><text x="29.889984130859375" y="NaN" font-family="Virgil, Segoe UI Emoji" font-size="20px" fill="#ffffff" text-anchor="middle" style="white-space: pre;" direction="ltr">Txn A</text></g><g stroke-linecap="round" transform="translate(290 10) rotate(0 100 25)"><path d="M-0.95 -1.54 L198.01 0.9 L199.88 49.78 L-1.47 49.5" stroke="none" stroke-width="0" fill="#3a1d6e"></path><path d="M-0.52 0.44 C70.33 0.18, 143.43 -2.5, 200.51 0.43 M0.26 -0.34 C73.87 1.43, 147.37 1.87, 199.85 0 M201.7 0.89 C200.5 19.18, 198.43 36.46, 199.69 51.91 M199.73 -0.12 C200.36 13.64, 198.97 26.55, 200.22 50.69 M198.24 48.65 C154.74 50.85, 109.17 50.84, -0.4 48.94 M199.44 50.8 C134.66 48.54, 70.16 47.58, 0 49.81 M0.32 50.36 C-0.9 32.31, -0.45 14.37, -0.35 1.24 M0.5 49.67 C0.35 34.15, 0.26 17.47, -0.4 0.07" stroke="#a371f7" stroke-width="2" fill="none"></path></g><g transform="translate(340.5600357055664 22.5) rotate(0 49.439964294433594 12.5)"><text x="49.439964294433594" y="NaN" font-family="Virgil, Segoe UI Emoji" font-size="20px" fill="#ffffff" text-anchor="middle" style="white-space: pre;" direction="ltr">Database</text></g><g stroke-linecap="round"><g transform="translate(390 60) rotate(0 0 330)"><path d="M-0.61 -0.47 C-0.84 109.52, -1.28 549.55, -1.13 659.66" stroke="#30363d" stroke-width="1.5" fill="none" stroke-dasharray="8 9"></path></g></g><g stroke-linecap="round" transform="translate(290 720) rotate(0 100 25)"><path d="M1.61 -0.2 L201.13 -1.94 L198.39 51.86 L-1.54 49.56" stroke="none" stroke-width="0" fill="#3a1d6e"></path><path d="M1.23 0.88 C72.53 -1.96, 144.13 -2.07, 201.41 0.88 M-0.39 -0.62 C55.68 1.57, 109.73 1.1, 199.63 0.16 M199.57 -1.97 C200.02 15.54, 201.63 28.72, 199.69 49.86 M199.66 0.09 C200.59 13.64, 198.93 27.41, 199.37 49.32 M198.25 50.45 C137.45 49.59, 78.36 50.47, -1.67 51.15 M199.17 50.75 C123.26 51.49, 44.42 51.17, -0.27 49.93 M0.73 49.49 C-0.12 30.86, 1.11 12.45, -1.67 -1.1 M0.29 50.66 C-0.7 34.79, -0.02 18.12, 0.72 0.15" stroke="#a371f7" stroke-width="2" fill="none"></path></g><g transform="translate(340.5600357055664 732.5) rotate(0 49.439964294433594 12.5)"><text x="49.439964294433594" y="NaN" font-family="Virgil, Segoe UI Emoji" font-size="20px" fill="#ffffff" text-anchor="middle" style="white-space: pre;" direction="ltr">Database</text></g><g stroke-linecap="round" transform="translate(570 10) rotate(0 100 25)"><path d="M0.67 1.54 L199.01 -1.91 L201.96 49.03 L0.36 51.18" stroke="none" stroke-width="0" fill="#3a1d6e"></path><path d="M-0.58 0.23 C64.79 -0.17, 127.25 -0.95, 198.47 1.26 M0.67 0.69 C59.83 1.35, 117.11 0.54, 200.61 0.42 M200.54 0.27 C200.62 13.4, 201.23 28.16, 199.61 50.27 M199.93 -0.81 C199.74 14.69, 200.85 29.53, 199.99 49.89 M200.35 48.88 C124 49.29, 47.3 50.09, 0.16 51.04 M199.47 49.46 C135.19 49.76, 68.56 49.85, 0.3 49.4 M1.54 49.28 C-1.31 33.62, -0.38 19.34, 0.17 1.36 M0.63 50.2 C0.04 31.52, 0.8 12.04, 0.63 -0.84" stroke="#a371f7" stroke-width="2" fill="none"></path></g><g transform="translate(639.400016784668 22.5) rotate(0 30.59998321533203 12.5)"><text x="30.59998321533203" y="NaN" font-family="Virgil, Segoe UI Emoji" font-size="20px" fill="#ffffff" text-anchor="middle" style="white-space: pre;" direction="ltr">Txn B</text></g><g stroke-linecap="round"><g transform="translate(670 60) rotate(0 0 330)"><path d="M-0.27 -1.06 C-0.48 108.88, -0.34 550.48, -0.31 660.79" stroke="#30363d" stroke-width="1.5" fill="none" stroke-dasharray="8 9"></path></g></g><g stroke-linecap="round" transform="translate(570 720) rotate(0 100 25)"><path d="M-1.52 -1.22 L201.02 0.33 L200.59 50.73 L-1.4 51.85" stroke="none" stroke-width="0" fill="#3a1d6e"></path><path d="M-0.46 0.6 C73.24 -2.71, 146.77 -3.18, 200.18 1.39 M0.28 0.07 C46.41 -1.22, 91.72 -1.01, 200.7 0.11 M200.28 0.78 C198.84 16, 201.62 32.96, 198.36 49.18 M200.43 0.84 C200.98 15.14, 201.02 30.28, 199.24 50.29 M201.17 50.87 C131.21 51.19, 61.2 51.41, -0.94 51.26 M199.87 49.73 C145.98 48.11, 91.45 48.63, -0.87 50.03 M1.99 48.48 C1.34 30.78, -0.41 14.73, -0.67 -1.4 M0.76 50.61 C-0.88 29.66, 0 10.85, 0.72 0.89" stroke="#a371f7" stroke-width="2" fill="none"></path></g><g transform="translate(639.400016784668 732.5) rotate(0 30.59998321533203 12.5)"><text x="30.59998321533203" y="NaN" font-family="Virgil, Segoe UI Emoji" font-size="20px" fill="#ffffff" text-anchor="middle" style="white-space: pre;" direction="ltr">Txn B</text></g><g stroke-linecap="round"><g transform="translate(110 140) rotate(0 140 0)"><path d="M-1.14 0.77 C45.55 0.82, 234.2 0.65, 280.98 0.44 M0.46 0.12 C47 -0.19, 234.2 -1.53, 280.55 -1.46" stroke="#c9d1d9" stroke-width="2" fill="none"></path></g><g transform="translate(110 140) rotate(0 140 0)"><path d="M253.67 10.54 C263.57 4.6, 272.47 0.12, 280.07 -1.02 M252.46 8.83 C258.3 6.85, 263.73 5.2, 279.64 -1.47" stroke="#c9d1d9" stroke-width="2" fill="none"></path></g><g transform="translate(110 140) rotate(0 140 0)"><path d="M253.6 -9.99 C263.54 -8.3, 272.46 -5.16, 280.07 -1.02 M252.39 -11.69 C258.16 -9.29, 263.61 -6.58, 279.64 -1.47" stroke="#c9d1d9" stroke-width="2" fill="none"></path></g></g><g transform="translate(153.3850631713867 128.75) rotate(0 96.6149368286133 22.5)"><text x="96.61493682861328" y="NaN" font-family="Virgil, Segoe UI Emoji" font-size="18px" fill="#c9d1d9" text-anchor="middle" style="white-space: pre;" direction="ltr">Read on-call list {Dr.</text><text x="96.61493682861328" y="NaN" font-family="Virgil, Segoe UI Emoji" font-size="18px" fill="#c9d1d9" text-anchor="middle" style="white-space: pre;" direction="ltr">X, Dr. Y}</text></g><g stroke-linecap="round"><g transform="translate(670 220) rotate(0 -140 0)"><path d="M0.81 -0.84 C-45.9 -0.91, -234.17 0.63, -281.16 0.73 M-0.23 1.33 C-46.5 1.43, -232.63 -0.95, -279.06 -1.01" stroke="#c9d1d9" stroke-width="2" fill="none"></path></g><g transform="translate(670 220) rotate(0 -140 0)"><path d="M-252.2 -12.99 C-255.79 -10.49, -263.67 -8.23, -279.67 -1.61 M-250.76 -11.23 C-261.85 -6.34, -274.06 -3.53, -279.4 -1.19" stroke="#c9d1d9" stroke-width="2" fill="none"></path></g><g transform="translate(670 220) rotate(0 -140 0)"><path d="M-252.36 7.53 C-256.1 5.45, -263.95 3.12, -279.67 -1.61 M-250.92 9.29 C-262.1 6.03, -274.25 0.69, -279.4 -1.19" stroke="#c9d1d9" stroke-width="2" fill="none"></path></g></g><g transform="translate(433.3850631713868 208.75) rotate(0 96.61493682861325 22.5)"><text x="96.61493682861328" y="NaN" font-family="Virgil, Segoe UI Emoji" font-size="18px" fill="#c9d1d9" text-anchor="middle" style="white-space: pre;" direction="ltr">Read on-call list {Dr.</text><text x="96.61493682861328" y="NaN" font-family="Virgil, Segoe UI Emoji" font-size="18px" fill="#c9d1d9" text-anchor="middle" style="white-space: pre;" direction="ltr">X, Dr. Y}</text></g><g stroke-linecap="round"><g transform="translate(110 300) rotate(0 140 0)"><path d="M-0.4 1.1 C46.4 1.01, 234.41 -0.85, 281.01 -1.19 M1.6 0.63 C48.3 0.69, 233.92 -0.16, 280.59 -0.27" stroke="#c9d1d9" stroke-width="2" fill="none"></path></g><g transform="translate(110 300) rotate(0 140 0)"><path d="M254.27 11.77 C259.58 5.48, 269.12 2.07, 281.73 0.48 M251.65 10.15 C261.73 6.18, 271.85 3.45, 280.71 -0.16" stroke="#c9d1d9" stroke-width="2" fill="none"></path></g><g transform="translate(110 300) rotate(0 140 0)"><path d="M254.2 -8.75 C259.42 -8.43, 268.98 -5.24, 281.73 0.48 M251.57 -10.38 C261.81 -7.15, 271.95 -2.69, 280.71 -0.16" stroke="#c9d1d9" stroke-width="2" fill="none"></path></g></g><g transform="translate(163.91506195068357 288.75) rotate(0 86.08493804931642 11.25)"><text x="86.0849380493164" y="NaN" font-family="Virgil, Segoe UI Emoji" font-size="18px" fill="#c9d1d9" text-anchor="middle" style="white-space: pre;" direction="ltr">Write: remove Dr. X</text></g><g stroke-opacity="0.85" fill-opacity="0.85" stroke-linecap="round" transform="translate(171.6 318) rotate(0 218.39999999999998 22)"><path d="M0.01 -0.05 L436.25 0.93 L438.4 42.54 L-1.78 44.29" stroke="none" stroke-width="0" fill="#1f4d2b"></path><path d="M-0.72 -0.24 C146.14 0.55, 293.08 0.53, 436.12 0.59 M-0.41 0.22 C93.91 0.93, 187.36 1.29, 436.72 0.39 M437.41 0.21 C435.91 18.93, 435.03 33.61, 437.53 44.67 M436.31 0.09 C436.96 13.98, 435.69 27.6, 437.19 44.76 M437.5 43.04 C268.53 43.35, 98.28 44.42, -0.02 44.86 M436.61 43.7 C322.24 44.25, 206.91 44.04, -0.42 44.12 M-1.51 44.73 C1.17 27.85, 0.58 13.98, 0.75 1.31 M0.87 43.9 C-0.96 29.48, -0.34 16.96, -0.83 -0.07" stroke="#3fb950" stroke-width="2" fill="none"></path></g><g transform="translate(194.53611755371094 330) rotate(0 195.46388244628906 10)"><text x="195.46388244628906" y="NaN" font-family="Virgil, Segoe UI Emoji" font-size="16px" fill="#ffffff" text-anchor="middle" style="white-space: pre;" direction="ltr">DB records: Txn B read data Txn A is modifying</text></g><g stroke-linecap="round"><g transform="translate(670 380) rotate(0 -140 0)"><path d="M-0.87 -0.18 C-47.35 0.16, -232.92 1.09, -279.4 1.06 M0.88 -1.32 C-45.66 -1.2, -233.15 -0.85, -280.04 -0.51" stroke="#c9d1d9" stroke-width="2" fill="none"></path></g><g transform="translate(670 380) rotate(0 -140 0)"><path d="M-252.19 -9.9 C-257.48 -8.08, -267.17 -6.32, -280.5 -0.98 M-251.29 -10.74 C-261.14 -7.56, -268.75 -3.38, -279.53 -0.96" stroke="#c9d1d9" stroke-width="2" fill="none"></path></g><g transform="translate(670 380) rotate(0 -140 0)"><path d="M-252.11 10.62 C-257.24 7.15, -266.95 3.62, -280.5 -0.98 M-251.2 9.79 C-261.28 6.47, -268.91 4.16, -279.53 -0.96" stroke="#c9d1d9" stroke-width="2" fill="none"></path></g></g><g transform="translate(444.6530609130859 368.75) rotate(0 85.34693908691409 11.25)"><text x="85.34693908691406" y="NaN" font-family="Virgil, Segoe UI Emoji" font-size="18px" fill="#c9d1d9" text-anchor="middle" style="white-space: pre;" direction="ltr">Write: remove Dr. Y</text></g><g stroke-opacity="0.85" fill-opacity="0.85" stroke-linecap="round" transform="translate(171.6 398) rotate(0 218.39999999999998 22)"><path d="M-0.49 -0.53 L435.59 0.02 L435.5 45.95 L1.78 43.34" stroke="none" stroke-width="0" fill="#1f4d2b"></path><path d="M-0.1 -0.25 C127.03 1.13, 252.12 2.34, 436.33 -0.39 M-0.46 0.39 C145.64 -1.99, 291.65 -2.12, 436.8 -0.07 M435.87 1.64 C435.74 9.58, 435.13 22.36, 438.42 45.29 M435.88 0.86 C436.93 16.14, 436.87 31.81, 435.82 43.38 M436.75 43.14 C294.38 46.46, 152.71 45.23, -0.11 44.49 M437.01 44.17 C340.4 43.64, 245 43.09, -0.35 44.21 M-1.97 43.67 C0.54 34.76, -0.01 20.83, -1.95 -0.99 M0.78 43.09 C0.05 29.94, 0.28 17.5, -0.71 0.69" stroke="#3fb950" stroke-width="2" fill="none"></path></g><g transform="translate(194.53611755371094 410) rotate(0 195.46388244628906 10)"><text x="195.46388244628906" y="NaN" font-family="Virgil, Segoe UI Emoji" font-size="16px" fill="#ffffff" text-anchor="middle" style="white-space: pre;" direction="ltr">DB records: Txn A read data Txn B is modifying</text></g><g stroke-linecap="round"><g transform="translate(110 460) rotate(0 140 0)"><path d="M-0.12 0.39 C46.22 0.27, 232.23 -0.23, 278.88 -0.14 M-1.64 -0.46 C44.98 -0.44, 234.24 1.41, 281 1.33" stroke="#c9d1d9" stroke-width="2" fill="none"></path></g><g transform="translate(110 460) rotate(0 140 0)"><path d="M253.4 9.59 C262.99 7.35, 275.28 5.45, 280.94 2.23 M252.4 11.39 C258.91 9.53, 266.08 6.18, 281.62 1.38" stroke="#c9d1d9" stroke-width="2" fill="none"></path></g><g transform="translate(110 460) rotate(0 140 0)"><path d="M253.5 -10.94 C263.15 -5.53, 275.4 0.2, 280.94 2.23 M252.49 -9.14 C258.88 -6.24, 266.03 -4.86, 281.62 1.38" stroke="#c9d1d9" stroke-width="2" fill="none"></path></g></g><g transform="translate(170.60205078124997 448.75) rotate(0 79.39794921875001 11.25)"><text x="79.39794921875" y="NaN" font-family="Virgil, Segoe UI Emoji" font-size="18px" fill="#c9d1d9" text-anchor="middle" style="white-space: pre;" direction="ltr">Commit (succeeds)</text></g><g stroke-linecap="round"><g transform="translate(670 540) rotate(0 -140 0)"><path d="M0.37 -0.49 C-46.55 -0.5, -234.21 -0.39, -280.83 -0.44 M-0.89 -1.79 C-47.5 -1.6, -232.07 0.55, -278.56 0.86" stroke="#c9d1d9" stroke-width="2" fill="none"></path></g><g transform="translate(670 540) rotate(0 -140 0)"><path d="M-251.28 -11.05 C-261.33 -4.73, -272.04 -2.09, -279.77 0.2 M-251.44 -9.87 C-257.17 -6.68, -266.26 -3.56, -279.5 0.01" stroke="#c9d1d9" stroke-width="2" fill="none"></path></g><g transform="translate(670 540) rotate(0 -140 0)"><path d="M-251.08 9.47 C-261.13 8.42, -271.92 3.69, -279.77 0.2 M-251.25 10.65 C-257.21 8.27, -266.35 5.83, -279.5 0.01" stroke="#c9d1d9" stroke-width="2" fill="none"></path></g></g><g transform="translate(459.95302581787104 528.75) rotate(0 70.04697418212893 11.25)"><text x="70.0469741821289" y="NaN" font-family="Virgil, Segoe UI Emoji" font-size="18px" fill="#c9d1d9" text-anchor="middle" style="white-space: pre;" direction="ltr">Commit attempt</text></g><g stroke-linecap="round"><g transform="translate(390 620) rotate(0 140 0)"><path d="M0.58 0.83 C47.15 0.82, 234.09 0.21, 280.59 0.24" stroke="#c9d1d9" stroke-width="2.5" fill="none" stroke-dasharray="8 10"></path></g><g transform="translate(390 620) rotate(0 140 0)"><path d="M253.79 11.53 C263.94 5.6, 276.44 3.83, 282.28 -1.7" stroke="#c9d1d9" stroke-width="2.5" fill="none"></path></g><g transform="translate(390 620) rotate(0 140 0)"><path d="M253.76 -8.99 C263.97 -6.81, 276.48 -0.46, 282.28 -1.7" stroke="#c9d1d9" stroke-width="2.5" fill="none"></path></g></g><g transform="translate(444.5000534057617 608.75) rotate(0 85.49994659423828 33.75)"><text x="85.49994659423828" y="NaN" font-family="Virgil, Segoe UI Emoji" font-size="18px" fill="#c9d1d9" text-anchor="middle" style="white-space: pre;" direction="ltr">ABORT (read-write</text><text x="85.49994659423828" y="NaN" font-family="Virgil, Segoe UI Emoji" font-size="18px" fill="#c9d1d9" text-anchor="middle" style="white-space: pre;" direction="ltr">dependency cycle</text><text x="85.49994659423828" y="NaN" font-family="Virgil, Segoe UI Emoji" font-size="18px" fill="#c9d1d9" text-anchor="middle" style="white-space: pre;" direction="ltr">detected)</text></g></svg>