<svg version="1.1" xmlns="http://www.w3.org/2000/svg" viewBox="0 0 990.0095922866903 550.93041707872" width="990.0095922866903" height="550.93041707872">
  <!-- svg-source:excalidraw -->
  
  <defs>
    <style>
      @font-face {
        font-family: "Virgil";
        src: url("https://excalidraw.com/Virgil.woff2");
      }
      @font-face {
        font-family: "Cascadia";
        src: url("https://excalidraw.com/Cascadia.woff2");
      }
    </style>
  </defs>
  <rect x="0" y="0" width="990.0095922866903" height="550.93041707872" fill="#0d1117"></rect><g stroke-opacity="0.6" fill-opacity="0.6" stroke-linecap="round" transform="translate(10 10) rotate(0 196.43910363779443 264.5)"><path d="M-0.01 -1.65 L394.67 1.44 L394.6 528.3 L1.54 529.4" stroke="none" stroke-width="0" fill="#161b22"></path><path d="M-0.3 -0.97 C92.93 0.1, 186.56 -0.45, 393.22 1 M392.12 -0.37 C391.96 147.39, 390.84 294.51, 392.39 529.69 M393.81 528.85 C306.04 528.65, 217.9 527.52, 0.17 528.71 M0.8 528.94 C1.71 419.26, 1.08 308.91, -0.68 0.04" stroke="#30363d" stroke-width="2.5" fill="none" stroke-dasharray="8 10"></path></g><g transform="translate(48.314081604352054 48.96740220075458) rotate(0 117.41392517089844 11.25)"><text x="0" y="NaN" font-family="Virgil, Segoe UI Emoji" font-size="18px" fill="#8b949e" text-anchor="start" style="white-space: pre;" direction="ltr">Implementation Mechanisms</text></g><g stroke-opacity="0.6" fill-opacity="0.6" stroke-linecap="round" transform="translate(640.8061018552607 11.930417078719927) rotate(0 169.6017452157148 264.5)"><path d="M1.51 0.78 L341.14 -0.96 L340.92 528.81 L-0.95 529.83" stroke="none" stroke-width="0" fill="#161b22"></path><path d="M-1 0.41 C105.08 -1.3, 213.33 -1.41, 339.09 0.56 M338.84 -0.64 C337.16 187.4, 337.98 372.86, 339.76 529.11 M339.07 529.96 C227.09 531.99, 114.71 530.94, -0.16 528.78 M-0.37 528.73 C0.42 340.99, 0.15 154.02, -0.57 0.2" stroke="#30363d" stroke-width="2.5" fill="none" stroke-dasharray="8 10"></path></g><g transform="translate(708.0308294344252 46.36524760797488) rotate(0 71.09095001220703 11.25)"><text x="0" y="NaN" font-family="Virgil, Segoe UI Emoji" font-size="18px" fill="#8b949e" text-anchor="start" style="white-space: pre;" direction="ltr">Isolation Levels</text></g><g stroke-linecap="round" transform="translate(48.628996720254236 119.75851973695205) rotate(0 133.92516513595154 36.5)"><path d="M0.35 1.82 L267.95 -0.39 L268.22 72.51 L-0.47 73.61" stroke="none" stroke-width="0" fill="#0d2c5a"></path><path d="M-1.37 -1.43 C58.18 -0.97, 116.76 -0.5, 268.11 0.35 M-0.31 0.07 C96.38 0.83, 193.66 0.78, 268.27 -0.67 M267.17 -1.91 C267.32 20.3, 269.97 42.97, 267.38 73.97 M268.55 -0.91 C268.97 24.4, 268.13 49.81, 268.34 73.4 M268.06 74.08 C184.03 72.11, 97.66 70.7, 1.54 73.19 M268.24 73.74 C179.96 74.29, 93.61 73.93, 0.42 73.44 M1.24 74.74 C0.11 49.07, -0.87 20.19, 0.62 0.03 M0.49 73.59 C0.49 51.95, 0.59 30.84, -0.01 0.08" stroke="#58a6ff" stroke-width="2" fill="none"></path></g><g transform="translate(94.9742363190964 143.75851973695205) rotate(0 87.57992553710938 12.5)"><text x="87.57992553710938" y="NaN" font-family="Virgil, Segoe UI Emoji" font-size="20px" fill="#fff" text-anchor="middle" style="white-space: pre;" direction="ltr">MVCC (Snapshots)</text></g><g stroke-linecap="round" transform="translate(54.0655658856316 405.75851973695205) rotate(0 135.43299943444018 36.5)"><path d="M1.28 -0.81 L269.6 0.98 L270.39 71.3 L-0.19 74.45" stroke="none" stroke-width="0" fill="#3a1d6e"></path><path d="M1.47 -0.34 C57.13 -2.12, 113.17 -0.87, 272.38 1.17 M-0.43 0.39 C76.32 1.6, 152.21 2.36, 270.71 0.56 M268.94 1.08 C270.75 28.52, 272.86 56.66, 270.47 74.2 M270.57 -0.99 C270.97 27.3, 269.65 55.57, 269.88 72 M271.88 73.36 C172.37 73.07, 74.53 72.97, -1.37 73.3 M270.44 73.25 C200.1 71.99, 129.99 72.41, -0.39 73.03 M-1.43 74.9 C1.37 58.16, 0.87 42.03, -1.85 -1.45 M0.68 74 C-0.67 55.79, -1.14 39.67, 0.16 0.64" stroke="#a371f7" stroke-width="2" fill="none"></path></g><g transform="translate(73.4586788454624 429.75851973695205) rotate(0 116.03988647460939 12.5)"><text x="116.03988647460938" y="NaN" font-family="Virgil, Segoe UI Emoji" font-size="20px" fill="#fff" text-anchor="middle" style="white-space: pre;" direction="ltr">2PL (Pessimistic Locks)</text></g><g stroke-linecap="round" transform="translate(51.56918208520318 262.75851973695205) rotate(0 136.18240208174655 36.5)"><path d="M1.46 -1.28 L270.59 -0.78 L273.38 73.7 L-0.92 71.14" stroke="none" stroke-width="0" fill="#1f4d2b"></path><path d="M-1.25 1.37 C70.11 -0.38, 139.8 -1.19, 271.52 0.62 M0.2 0.09 C59.97 0.15, 121.12 0.09, 272.92 0.63 M273.72 1.79 C273.39 20.04, 272.56 41.46, 270.47 71.15 M272.93 0.65 C272.16 27.74, 273.21 54.6, 272.24 73.38 M273.22 73.26 C172.08 71.65, 74.48 71.28, -0.85 74.18 M272.59 72.68 C172.2 75.76, 72.68 75.51, -0.46 72.61 M-1.42 71.81 C-0.58 56.12, 0.37 37.32, -0.04 0.5 M-0.26 73.46 C1.08 46.4, -0.25 20.49, 0.12 -0.69" stroke="#3fb950" stroke-width="2" fill="none"></path></g><g transform="translate(58.311703795855976 286.75851973695205) rotate(0 129.43988037109375 12.5)"><text x="129.43988037109375" y="NaN" font-family="Virgil, Segoe UI Emoji" font-size="20px" fill="#fff" text-anchor="middle" style="white-space: pre;" direction="ltr">SSI (Optimistic Detection)</text></g><g stroke-linecap="round" transform="translate(682.1122903268397 126.43976473567557) rotate(0 113 36.5)"><path d="M-1.73 -0.71 L226.9 -1.04 L225.16 71.63 L-0.85 74.72" stroke="none" stroke-width="0" fill="#5c3a10"></path><path d="M1.37 -0.62 C68.48 -0.73, 137.56 -1.77, 227.33 -0.77 M0.77 -0.33 C73.96 1.03, 146.28 0, 226.48 0.57 M226.85 1.47 C227.32 25.04, 227.89 46.79, 225.15 71.78 M225.37 0 C227.06 16.23, 226.03 32.52, 225.06 73.61 M224.95 74.71 C160.79 72.51, 96.34 73.84, -1.58 73.95 M225.56 73.48 C155.88 73.81, 84.99 73.9, -0.72 72.66 M1.37 73.55 C-0.96 50.79, 0.61 33.81, 1.51 -0.26 M-0.68 72.3 C-0.01 50.2, -0.33 26.52, -0.36 -0.78" stroke="#f0883e" stroke-width="2" fill="none"></path></g><g transform="translate(716.2123574655116 150.43976473567557) rotate(0 78.89993286132812 12.5)"><text x="78.89993286132812" y="NaN" font-family="Virgil, Segoe UI Emoji" font-size="20px" fill="#fff" text-anchor="middle" style="white-space: pre;" direction="ltr">Read Committed</text></g><g stroke-linecap="round" transform="translate(663.9330333623132 256.0481857095241) rotate(0 146 36.5)"><path d="M0 0.94 L290.92 -0.52 L292.42 74.18 L-1.46 73.07" stroke="none" stroke-width="0" fill="#0d2c5a"></path><path d="M-0.59 0.02 C67.03 -0.39, 134.75 -0.11, 291.25 -1.15 M0.29 -0.14 C104.6 1.35, 207.59 2.11, 292.17 -0.18 M292.52 1.87 C290.95 24.84, 290.76 53.13, 293.85 74.03 M292.39 -0.43 C291.3 26.59, 290.95 55.11, 292.48 72.94 M291.6 74.11 C210.34 74.77, 128.4 72.43, 1.13 73.73 M291.55 73.31 C177.74 71.56, 65.22 70.66, 0.08 72.86 M-1.43 71.62 C0.21 56.42, -0.8 34.5, 0.04 -0.45 M-0.87 72.45 C-0.19 45.59, -0.39 15.82, -0.57 0.85" stroke="#58a6ff" stroke-width="2" fill="none"></path></g><g transform="translate(698.9731029423913 280.0481857095241) rotate(0 110.95993041992188 12.5)"><text x="110.95993041992188" y="NaN" font-family="Virgil, Segoe UI Emoji" font-size="20px" fill="#fff" text-anchor="middle" style="white-space: pre;" direction="ltr">Repeatable Read / SI</text></g><g stroke-linecap="round" transform="translate(695.9446672924901 417.70104120604344) rotate(0 102 36.5)"><path d="M-1.69 -1.36 L203.76 -0.71 L204.08 72.51 L1.12 72.8" stroke="none" stroke-width="0" fill="#1f4d2b"></path><path d="M-1.12 0.89 C74.55 1.06, 146.78 -0.37, 203.9 -0.99 M0.82 0.61 C51.63 1.68, 102.53 0.27, 203.65 -0.17 M204 1.5 C205.2 13.19, 203.39 31.58, 204.45 73.57 M204.4 -0.88 C204.17 25.94, 203.47 50.13, 204.49 73.12 M204.31 71.9 C155.67 72.21, 110.93 69.69, 1.62 72.15 M203.84 73.01 C137.34 74.22, 69.14 73.53, 0.17 72.27 M-0.98 71.99 C0.51 53.18, -1.05 36.24, -1.2 1.21 M0.88 72.12 C0.99 47.47, 0.57 20.66, 0.83 -0.29" stroke="#3fb950" stroke-width="2" fill="none"></path></g><g transform="translate(742.8447222241307 441.70104120604344) rotate(0 55.099945068359375 12.5)"><text x="55.099945068359375" y="NaN" font-family="Virgil, Segoe UI Emoji" font-size="20px" fill="#fff" text-anchor="middle" style="white-space: pre;" direction="ltr">Serializable</text></g><g stroke-linecap="round"><g transform="translate(322.4793269921573 157.7917185780349) rotate(0 176.81648166734115 1.9285717551700685)"><path d="M1.17 0.52 C60.1 1.29, 295.93 4.01, 354.58 4.63 M0.32 -0.26 C59.09 0.18, 295.52 2.52, 354.12 2.92" stroke="#58a6ff" stroke-width="2" fill="none"></path></g><g transform="translate(322.4793269921573 157.7917185780349) rotate(0 176.81648166734115 1.9285717551700685)"><path d="M326.71 14.51 C337.97 7.85, 348.16 4.41, 352.81 3.95 M325.38 13.56 C334.13 9.85, 342.91 6.44, 353.59 2.22" stroke="#58a6ff" stroke-width="2" fill="none"></path></g><g transform="translate(322.4793269921573 157.7917185780349) rotate(0 176.81648166734115 1.9285717551700685)"><path d="M326.88 -6.01 C338.08 -4.81, 348.2 -0.39, 352.81 3.95 M325.55 -6.96 C334.22 -4.48, 342.94 -1.71, 353.59 2.22" stroke="#58a6ff" stroke-width="2" fill="none"></path></g></g><g transform="translate(393.0418718919204 148.47029033320499) rotate(0 106.25393676757812 11.25)"><text x="106.25393676757812" y="NaN" font-family="Virgil, Segoe UI Emoji" font-size="18px" fill="#c9d1d9" text-anchor="middle" style="white-space: pre;" direction="ltr">per-statement snapshot</text></g><g stroke-linecap="round"><g transform="translate(322.4793269921573 158.89304011956872) rotate(0 167.72685318507789 73.44256789999937)"><path d="M-0.82 -0.65 C55.21 23.91, 279.34 121.85, 335.54 146.63 M0.95 1.62 C56.88 26.43, 278.78 123.92, 334.63 148.04" stroke="#58a6ff" stroke-width="2" fill="none"></path></g><g transform="translate(322.4793269921573 158.89304011956872) rotate(0 167.72685318507789 73.44256789999937)"><path d="M303.6 146.31 C311.71 148.3, 321.55 146.32, 333.96 146.63 M304.71 146.45 C310.51 146.53, 315.98 147.3, 333.75 148.9" stroke="#58a6ff" stroke-width="2" fill="none"></path></g><g transform="translate(322.4793269921573 158.89304011956872) rotate(0 167.72685318507789 73.44256789999937)"><path d="M311.81 127.5 C317.76 134.12, 325.55 136.82, 333.96 146.63 M312.91 127.64 C316.9 131.48, 320.71 136.06, 333.75 148.9" stroke="#58a6ff" stroke-width="2" fill="none"></path></g></g><g transform="translate(266.1886143150588 288.00851973695205) rotate(0 111.17692565917969 11.25)"><text x="111.17692565917969" y="NaN" font-family="Virgil, Segoe UI Emoji" font-size="18px" fill="#c9d1d9" text-anchor="middle" style="white-space: pre;" direction="ltr">per-transaction snapshot</text></g><g stroke-linecap="round"><g transform="translate(330.93156475451195 442.48335645822783) rotate(0 179.50655126898903 5.77544590897412)"><path d="M1.18 1.2 C27.32 2.23, 96.63 5.06, 156.12 6.75 C215.61 8.43, 324.1 10.49, 358.12 11.3 M0.34 0.78 C26.34 1.46, 94.89 3.23, 154.92 5.18 C214.95 7.13, 326.79 11.23, 360.54 12.49" stroke="#a371f7" stroke-width="2" fill="none"></path></g><g transform="translate(330.93156475451195 442.48335645822783) rotate(0 179.50655126898903 5.77544590897412)"><path d="M333.98 20.89 C340.56 17.72, 345.2 18.99, 360.64 13.45 M332.33 22.2 C337.79 20.21, 344.52 18.51, 360.58 11.87" stroke="#a371f7" stroke-width="2" fill="none"></path></g><g transform="translate(330.93156475451195 442.48335645822783) rotate(0 179.50655126898903 5.77544590897412)"><path d="M334.74 0.38 C341.23 2.13, 345.68 8.31, 360.64 13.45 M333.08 1.69 C338.32 3.95, 344.9 6.49, 360.58 11.87" stroke="#a371f7" stroke-width="2" fill="none"></path></g></g><g transform="translate(279.96562237169945 359.50851973695205) rotate(0 111.91493225097656 22.5)"><text x="111.91493225097656" y="NaN" font-family="Virgil, Segoe UI Emoji" font-size="18px" fill="#c9d1d9" text-anchor="middle" style="white-space: pre;" direction="ltr">shared + exclusive + gap</text><text x="111.91493225097656" y="NaN" font-family="Virgil, Segoe UI Emoji" font-size="18px" fill="#c9d1d9" text-anchor="middle" style="white-space: pre;" direction="ltr">locks</text></g><g stroke-linecap="round"><g transform="translate(328.2463248243052 328.0728597346527) rotate(0 182.3625901988775 47.17896022253272)"><path d="M0.11 -0.11 C27.47 5.77, 103.36 18.82, 164.1 34.73 C224.84 50.63, 330.94 85.4, 364.53 95.3 M-1.29 -1.21 C25.89 4.4, 102.13 17.34, 162.96 33.12 C223.78 48.89, 329.77 83.12, 363.66 93.46" stroke="#3fb950" stroke-width="2" fill="none"></path></g><g transform="translate(328.2463248243052 328.0728597346527) rotate(0 182.3625901988775 47.17896022253272)"><path d="M333.51 94.23 C344.15 94.08, 352.92 95.48, 363.31 93.11 M333.62 94.6 C345.79 94.79, 356.91 94.07, 362.71 93.91" stroke="#3fb950" stroke-width="2" fill="none"></path></g><g transform="translate(328.2463248243052 328.0728597346527) rotate(0 182.3625901988775 47.17896022253272)"><path d="M339.62 74.64 C348.37 80.27, 355.34 87.43, 363.31 93.11 M339.74 75.01 C349.75 82.63, 358.55 89.36, 362.71 93.91" stroke="#3fb950" stroke-width="2" fill="none"></path></g></g><g transform="translate(431.3181173339892 219.90251542713236) rotate(0 77.3369445800781 22.5)"><text x="77.33694458007812" y="NaN" font-family="Virgil, Segoe UI Emoji" font-size="18px" fill="#c9d1d9" text-anchor="middle" style="white-space: pre;" direction="ltr">SI + </text><text x="77.33694458007812" y="NaN" font-family="Virgil, Segoe UI Emoji" font-size="18px" fill="#c9d1d9" text-anchor="middle" style="white-space: pre;" direction="ltr">conflict detection</text></g></svg>