<svg version="1.1" xmlns="http://www.w3.org/2000/svg" viewBox="0 0 1460.1502879322863 842.4243646332765" width="1460.1502879322863" height="842.4243646332765">
  <!-- svg-source:excalidraw -->
  
  <defs>
    <style>
      @font-face {
        font-family: "Virgil";
        src: url("https://excalidraw.com/Virgil.woff2");
      }
      @font-face {
        font-family: "Cascadia";
        src: url("https://excalidraw.com/Cascadia.woff2");
      }
    </style>
  </defs>
  <rect x="0" y="0" width="1460.1502879322863" height="842.4243646332765" fill="#0d1117"></rect><g transform="translate(10 10) rotate(0 378.9238586425781 17.5)"><text x="0" y="NaN" font-family="Virgil, Segoe UI Emoji" font-size="28px" fill="#ff8c42" text-anchor="start" style="white-space: pre;" direction="ltr">Isolation Levels: each step prevents one more anomaly</text></g><g transform="translate(330.15028793228635 93.5) rotate(0 39.64996337890625 12.5)"><text x="0" y="NaN" font-family="Virgil, Segoe UI Emoji" font-size="20px" fill="#8b949e" text-anchor="start" style="white-space: pre;" direction="ltr">weakest</text></g><g transform="translate(1312.1502879322863 93.5) rotate(0 47.14994812011719 12.5)"><text x="0" y="NaN" font-family="Virgil, Segoe UI Emoji" font-size="20px" fill="#3fb950" text-anchor="start" style="white-space: pre;" direction="ltr">strongest</text></g><g stroke-linecap="round"><g transform="translate(460.15028793228635 108) rotate(0 416 0)"><path d="M-0.73 -0.12 C137.64 0.17, 692.2 0.93, 831.05 1.03 M1.08 -1.23 C139.76 -1.19, 694.81 -0.48, 833.27 -0.56" stroke="#f0883e" stroke-width="3" fill="none"></path></g><g transform="translate(460.15028793228635 108) rotate(0 416 0)"><path d="M804.87 8.11 C817.16 6.74, 826.5 4.13, 833.18 -2.52 M805.43 9 C811.7 8.42, 818.11 6.41, 833.69 -1.05" stroke="#f0883e" stroke-width="3" fill="none"></path></g><g transform="translate(460.15028793228635 108) rotate(0 416 0)"><path d="M804.88 -12.41 C817.04 -6.27, 826.37 -1.37, 833.18 -2.52 M805.44 -11.52 C811.64 -7.64, 818.04 -5.18, 833.69 -1.05" stroke="#f0883e" stroke-width="3" fill="none"></path></g></g><g stroke-linecap="round" transform="translate(330.15028793228635 145) rotate(0 130 35)"><path d="M-0.94 -0.77 L261.64 1.22 L260.36 68.15 L-0.03 68.71" stroke="none" stroke-width="0" fill="#3a1d6e"></path><path d="M0.06 -0.79 C67.71 -3.26, 139.55 -2.37, 261.26 -0.63 M0.49 0.04 C79.75 0.49, 160.18 0.08, 260.15 0.49 M259.37 1.58 C260.92 28.29, 260.79 54.75, 261.03 70.05 M260.51 -0.84 C259.34 19.57, 259.67 39.53, 259.74 69.67 M261.18 68.46 C181.41 68.01, 106.8 67.65, 0.24 69.08 M260.5 69.54 C196.55 71.81, 133.73 71.11, -0.42 70.76 M1.85 71.23 C-1.29 47.82, -0.82 26.73, 0.58 0.92 M0.5 70.9 C-0.03 54.77, 0.58 41.52, -0.74 0.53" stroke="#a371f7" stroke-width="2" fill="none"></path></g><g transform="translate(403.45434219254025 156.25) rotate(0 56.695945739746094 23.75)"><text x="56.695945739746094" y="NaN" font-family="Virgil, Segoe UI Emoji" font-size="19px" fill="#ffffff" text-anchor="middle" style="white-space: pre;" direction="ltr">Read</text><text x="56.695945739746094" y="NaN" font-family="Virgil, Segoe UI Emoji" font-size="19px" fill="#ffffff" text-anchor="middle" style="white-space: pre;" direction="ltr">Uncommitted</text></g><g transform="translate(355.3015877709579 221.625) rotate(0 104.73991394042969 12.5)"><text x="104.73991394042969" y="NaN" font-family="Virgil, Segoe UI Emoji" font-size="20px" fill="#8b949e" text-anchor="middle" style="white-space: pre;" direction="ltr">no locks, no snapshot</text></g><g stroke-linecap="round" transform="translate(604.1502879322863 145) rotate(0 130 35)"><path d="M0.75 -1.02 L261.08 1.34 L261.17 69.02 L1.64 69.6" stroke="none" stroke-width="0" fill="#3a1d6e"></path><path d="M-1.42 1.53 C87.92 1.68, 179.13 -0.52, 259.13 -0.04 M-0.14 0.56 C55.72 1.86, 113.08 1.7, 260.53 0.17 M259.63 1.11 C259.28 16.5, 257.83 32.34, 261.67 71.87 M260.25 0.63 C259.33 20.64, 260.64 39.29, 260.25 70.74 M260.18 70.68 C174.31 69.97, 85.91 69.7, -0.34 68.48 M260.1 69.79 C160.87 70.18, 62.11 70.22, 0.1 70.33 M1.8 70.39 C1.07 46.64, -2.07 22.38, 0.96 -1.56 M0.59 69.43 C-0.09 51.91, 0.34 31.1, 0.97 0.8" stroke="#a371f7" stroke-width="2" fill="none"></path></g><g transform="translate(687.3248332203723 156.25) rotate(0 46.82545471191406 23.75)"><text x="46.82545471191406" y="NaN" font-family="Virgil, Segoe UI Emoji" font-size="19px" fill="#ffffff" text-anchor="middle" style="white-space: pre;" direction="ltr">Read</text><text x="46.82545471191406" y="NaN" font-family="Virgil, Segoe UI Emoji" font-size="19px" fill="#ffffff" text-anchor="middle" style="white-space: pre;" direction="ltr">Committed</text></g><g transform="translate(635.791593264122 221.625) rotate(0 98.24990844726562 12.5)"><text x="98.24990844726562" y="NaN" font-family="Virgil, Segoe UI Emoji" font-size="20px" fill="#8b949e" text-anchor="middle" style="white-space: pre;" direction="ltr">row locks for writes</text></g><g stroke-linecap="round" transform="translate(878.1502879322863 145) rotate(0 130 35)"><path d="M0.62 1.32 L260.29 -0.89 L260.63 69.4 L-0.85 70.29" stroke="none" stroke-width="0" fill="#3a1d6e"></path><path d="M1.36 0.7 C74.07 -2.87, 149.11 -2.54, 259.3 0.23 M-0.11 -0.52 C51.8 1.01, 104.53 2.09, 260.13 -0.65 M259.75 0.71 C260.48 26.28, 258.41 51.17, 260.67 71.9 M260.35 0.77 C260.55 27.43, 258.95 55.19, 260.17 70.29 M260.4 71.56 C159.14 69.73, 58.67 69.02, 1.35 69.98 M260.07 69.62 C206.74 70.78, 154.41 70.78, -0.56 69.7 M0.33 68.15 C-0.16 54.79, 1.9 38.56, -0.94 -0.47 M-0.07 70.67 C0.14 44.16, -0.89 19.58, -0.27 0.19" stroke="#a371f7" stroke-width="2" fill="none"></path></g><g transform="translate(912.9508937062121 156.25) rotate(0 95.19939422607422 23.75)"><text x="95.19939422607422" y="NaN" font-family="Virgil, Segoe UI Emoji" font-size="19px" fill="#ffffff" text-anchor="middle" style="white-space: pre;" direction="ltr">Repeatable Read</text><text x="95.19939422607422" y="NaN" font-family="Virgil, Segoe UI Emoji" font-size="19px" fill="#ffffff" text-anchor="middle" style="white-space: pre;" direction="ltr">(Snapshot Isolation)</text></g><g transform="translate(934.0715615258407 221.625) rotate(0 73.96994018554688 12.5)"><text x="73.96994018554688" y="NaN" font-family="Virgil, Segoe UI Emoji" font-size="20px" fill="#8b949e" text-anchor="middle" style="white-space: pre;" direction="ltr">MVCC snapshot</text></g><g stroke-linecap="round" transform="translate(1152.1502879322863 145) rotate(0 130 35)"><path d="M0.53 0.07 L261.47 -1.75 L260.83 68.68 L0.2 68.57" stroke="none" stroke-width="0" fill="#3a1d6e"></path><path d="M1.38 0.99 C89.68 0.11, 180.35 -0.14, 258.92 1.16 M0.02 -0.19 C65.2 2.08, 129.17 1.62, 260.17 -0.08 M261.04 -1.91 C259.5 20.13, 261.01 42.47, 260.28 68.99 M260.76 -0.75 C258.78 18.07, 258.94 35.86, 260.19 70.75 M260.8 70.72 C177.96 71.93, 95.96 70.85, -0.01 68.81 M259.81 69.28 C207.32 72, 153.3 70.59, -0.63 70.1 M0.97 69.96 C0.11 42.71, 0.3 13.17, -1.79 0.46 M-0.61 70.31 C0.02 56.02, 0.15 40.98, 0.98 0.08" stroke="#a371f7" stroke-width="2" fill="none"></path></g><g transform="translate(1229.8053324879504 168.125) rotate(0 52.34495544433594 11.875)"><text x="52.34495544433594" y="NaN" font-family="Virgil, Segoe UI Emoji" font-size="19px" fill="#ffffff" text-anchor="middle" style="white-space: pre;" direction="ltr">Serializable</text></g><g transform="translate(1150.810367888341 221.625) rotate(0 131.3399200439453 12.5)"><text x="131.3399200439453" y="NaN" font-family="Virgil, Segoe UI Emoji" font-size="20px" fill="#8b949e" text-anchor="middle" style="white-space: pre;" direction="ltr">SSI / 2PL / actual serial</text></g><g stroke-linecap="round" transform="translate(30.150287932286346 145) rotate(0 140 35)"><path d="M0.58 -1.6 L280.05 1.83 L279.24 71.32 L-1.44 68.8" stroke="none" stroke-width="0" fill="#161b22"></path><path d="M-1.4 -0.53 C75.08 -2.11, 149.89 0.14, 280.77 -0.38 M0.69 0.5 C76.29 -2.19, 151.55 -1.38, 280.51 0.69 M278.25 -0.6 C281.55 24.95, 279.7 46.09, 281.13 71.74 M280.46 0.03 C280.48 24.75, 279.67 47.02, 279.33 70.83 M280.57 69.82 C209.24 71.62, 139.11 70.91, 1.38 68.73 M279.24 70.19 C202.94 71.09, 125.82 71.05, 0.26 69.58 M-1.7 68.77 C1.61 49.81, 1.12 29.97, 0.8 -0.78 M0.61 70.54 C0.64 46.93, 0.78 24.24, -0.69 0.08" stroke="#30363d" stroke-width="2" fill="none"></path></g><g transform="translate(129.08330184830197 168.75) rotate(0 41.066986083984375 11.25)"><text x="41.066986083984375" y="NaN" font-family="Virgil, Segoe UI Emoji" font-size="18px" fill="#e6edf3" text-anchor="middle" style="white-space: pre;" direction="ltr">ANOMALY</text></g><g stroke-linecap="round" transform="translate(30.150287932286346 265) rotate(0 140 50)"><path d="M-1.82 -1.43 L281.65 0.04 L279.72 99.29 L-1.32 100.66" stroke="none" stroke-width="0" fill="#161b22"></path><path d="M-1.01 1.11 C93.11 1.29, 187.73 0.08, 281.28 1.33 M0.75 -0.04 C80.57 -0.52, 161.23 0.2, 279.34 0.48 M281.71 1.13 C280.74 28.67, 280.24 58.94, 281.43 101.12 M279.9 0.86 C280.78 37.61, 281.24 75.53, 279.53 99.56 M279.26 98.64 C213.22 99.71, 148.43 100.51, -1.12 99.53 M280.03 100.75 C191.17 101.1, 101.66 100.79, -0.77 99.68 M-1.84 99.85 C-1.82 60.07, -0.95 22.76, -1.9 0.58 M-0.49 99.49 C-0.56 72.46, -1.49 45.48, -0.56 0.3" stroke="#30363d" stroke-width="2" fill="none"></path></g><g transform="translate(42.150287932286346 287) rotate(0 51.52796173095703 11.875)"><text x="0" y="NaN" font-family="Virgil, Segoe UI Emoji" font-size="19px" fill="#e6edf3" text-anchor="start" style="white-space: pre;" direction="ltr">Dirty Read</text></g><g transform="translate(42.04150171138758 315.25) rotate(0 117.5099105834961 12.5)"><text x="0" y="NaN" font-family="Virgil, Segoe UI Emoji" font-size="20px" fill="#8b949e" text-anchor="start" style="white-space: pre;" direction="ltr">Read uncommitted data</text></g><g stroke-linecap="round" transform="translate(330.15028793228635 265) rotate(0 130 50)"><path d="M0.34 -0.03 L259.25 -1.51 L260.9 101.79 L1.23 98.22" stroke="none" stroke-width="0" fill="#4a1219"></path><path d="M-1.24 0.99 C85.07 -0.97, 169.17 -0.55, 259.55 1.55 M0.8 0.21 C61.46 -1.78, 122.72 -2, 259.48 0.24 M261.64 1.48 C260.75 32.78, 259.83 62.41, 258.7 100.54 M259.68 0.97 C260.04 32.22, 260.38 62.13, 260.9 99.05 M260.19 100.84 C193.76 101.44, 129.94 101.06, -0.71 99.25 M260.67 99.81 C203.98 100.32, 145.98 100.2, 0.64 100.57 M-1.18 99.62 C0.48 60.44, 0.88 23.52, -0.91 -0.89 M0.99 99.19 C-0.02 65.74, -0.23 33.24, -0.32 0.57" stroke="#f85149" stroke-width="2" fill="none"></path></g><g stroke-linecap="round" transform="translate(350.15028793228635 297) rotate(0 18 18)"><path d="M26.81 2.48 C30.08 4.05, 32.57 7.33, 33.95 10.83 C35.33 14.33, 36.18 19.74, 35.1 23.47 C34.02 27.21, 30.77 31.26, 27.46 33.24 C24.16 35.22, 18.9 35.71, 15.28 35.36 C11.65 35.01, 8.31 33.99, 5.69 31.13 C3.07 28.27, -0.24 22.24, -0.45 18.2 C-0.65 14.15, 2.21 9.68, 4.46 6.84 C6.72 4, 9.23 1.75, 13.09 1.15 C16.95 0.54, 24.83 2.57, 27.61 3.22 C30.38 3.87, 29.74 4.99, 29.74 5.07 M18.91 -0.45 C22.88 -0.49, 27.66 1.69, 30.67 4.46 C33.68 7.24, 36.51 12.46, 36.97 16.2 C37.43 19.94, 35.44 23.56, 33.44 26.9 C31.43 30.23, 28.44 34.83, 24.94 36.19 C21.43 37.55, 16.21 36.48, 12.4 35.04 C8.59 33.6, 4.28 30.88, 2.07 27.54 C-0.14 24.2, -1.87 18.7, -0.88 15 C0.11 11.3, 4.62 7.75, 8 5.33 C11.37 2.92, 17.8 1.18, 19.38 0.51 C20.96 -0.16, 17.56 1.25, 17.46 1.29" stroke="none" stroke-width="0" fill="#f85149"></path><path d="M20.63 -0.35 C24.26 0, 28.71 3.44, 31.13 6.54 C33.55 9.64, 34.93 14.51, 35.16 18.23 C35.39 21.95, 35.04 25.87, 32.51 28.86 C29.98 31.85, 23.76 35.39, 19.96 36.16 C16.16 36.93, 12.96 35.39, 9.71 33.48 C6.47 31.57, 2.06 28.41, 0.5 24.72 C-1.06 21.04, -0.95 15.16, 0.36 11.36 C1.68 7.57, 4.59 3.65, 8.4 1.95 C12.22 0.25, 20.9 1.36, 23.25 1.18 C25.6 1, 22.67 0.63, 22.52 0.86 M24.99 1.7 C28.2 3.02, 31.42 5.8, 33.11 9.37 C34.8 12.93, 35.75 19.28, 35.13 23.09 C34.5 26.91, 32.78 30.27, 29.38 32.28 C25.98 34.28, 18.58 35.34, 14.73 35.14 C10.89 34.93, 8.9 33.51, 6.33 31.04 C3.75 28.57, -0.44 24.12, -0.72 20.31 C-0.99 16.5, 2.09 11.31, 4.65 8.16 C7.21 5, 10.96 2.42, 14.65 1.39 C18.34 0.36, 25.1 1.86, 26.8 1.98 C28.49 2.1, 24.96 1.78, 24.81 2.13" stroke="#f85149" stroke-width="2" fill="none"></path></g><g transform="translate(361.15028793228635 302) rotate(0 5.9799957275390625 12.5)"><text x="0" y="NaN" font-family="Virgil, Segoe UI Emoji" font-size="20px" fill="#ffffff" text-anchor="start" style="white-space: pre;" direction="ltr">X</text></g><g transform="translate(398.15028793228635 303) rotate(0 46.33198547363281 11.25)"><text x="0" y="NaN" font-family="Virgil, Segoe UI Emoji" font-size="18px" fill="#f85149" text-anchor="start" style="white-space: pre;" direction="ltr">POSSIBLE</text></g><g stroke-linecap="round" transform="translate(604.1502879322863 265) rotate(0 130 50)"><path d="M-1.85 1.7 L258.2 -1.7 L258.99 98.19 L-0.7 98.66" stroke="none" stroke-width="0" fill="#3a5d1d"></path><path d="M-0.89 -0.8 C93.97 0.38, 190.28 -0.26, 258.45 0.33 M-0.42 0.23 C86.83 -1.61, 172.39 -1.54, 259.56 0.43 M261.29 -0.54 C260.49 31.04, 259.67 59.92, 259.26 99.25 M259.61 -0.77 C260.52 19.88, 260.15 40.74, 259.66 100.11 M259.72 98.99 C162.13 102.26, 64.71 100.64, -0.81 99.41 M260.58 99.92 C181.43 99.31, 100.65 98.96, -0.34 100.59 M-1.74 101.9 C-1.82 74.56, 0.36 47.56, 1.3 1.19 M-0.04 100.37 C-0.18 68.8, 0.61 38.37, 0.9 0.73" stroke="#6dbf3a" stroke-width="2" fill="none"></path></g><g stroke-linecap="round" transform="translate(624.1502879322863 297) rotate(0 18 18)"><path d="M12.97 0.28 C16.35 -0.76, 21.03 0.61, 24.56 2.23 C28.09 3.85, 32.26 6.77, 34.15 10.02 C36.04 13.27, 36.82 17.81, 35.88 21.72 C34.93 25.63, 31.67 31.25, 28.49 33.49 C25.31 35.73, 20.67 35.52, 16.8 35.16 C12.93 34.8, 7.97 33.68, 5.27 31.31 C2.56 28.94, 1.08 24.95, 0.59 20.94 C0.1 16.93, 0.16 10.76, 2.32 7.25 C4.47 3.74, 11.54 0.87, 13.52 -0.1 C15.5 -1.07, 14.19 0.94, 14.2 1.43 M15.55 1.7 C19.5 0.8, 24.87 0.81, 28.12 2.29 C31.37 3.77, 33.71 6.79, 35.03 10.58 C36.36 14.37, 37.32 20.96, 36.09 25.04 C34.85 29.11, 31 33.5, 27.61 35.06 C24.23 36.61, 19.69 35.08, 15.79 34.36 C11.89 33.63, 7.08 33.42, 4.2 30.71 C1.32 28, -1.69 22.04, -1.49 18.09 C-1.29 14.14, 2.65 10.08, 5.42 7 C8.18 3.92, 13.43 0.43, 15.09 -0.39 C16.74 -1.21, 15.37 1.48, 15.33 2.09" stroke="none" stroke-width="0" fill="#6dbf3a"></path><path d="M10.41 1.53 C13.82 -0.28, 19.64 -0.96, 23.23 -0.03 C26.81 0.91, 29.75 3.91, 31.92 7.14 C34.09 10.38, 36.45 15.56, 36.25 19.39 C36.06 23.21, 33.36 27.46, 30.75 30.07 C28.14 32.68, 24.44 34.73, 20.58 35.06 C16.73 35.39, 10.86 34.12, 7.61 32.05 C4.36 29.98, 1.99 26.22, 1.07 22.62 C0.15 19.03, 0.36 14.04, 2.09 10.48 C3.82 6.91, 9.45 2.76, 11.46 1.23 C13.47 -0.3, 13.89 1.12, 14.16 1.27 M23.88 2.33 C27.44 3.38, 33.1 5.87, 35.14 9.16 C37.17 12.45, 37.27 18.42, 36.11 22.08 C34.95 25.74, 31.26 28.91, 28.18 31.1 C25.11 33.29, 21.26 35.19, 17.65 35.22 C14.04 35.25, 9.43 33.91, 6.53 31.29 C3.63 28.67, 0.75 23.56, 0.26 19.5 C-0.23 15.44, 1.69 10.05, 3.59 6.94 C5.49 3.84, 8.26 1.74, 11.66 0.89 C15.06 0.04, 21.94 1.75, 24 1.85 C26.05 1.95, 23.65 1.23, 23.99 1.48" stroke="#6dbf3a" stroke-width="2" fill="none"></path></g><g transform="translate(631.1502879322863 302) rotate(0 12.050994873046875 11.25)"><text x="0" y="NaN" font-family="Virgil, Segoe UI Emoji" font-size="18px" fill="#ffffff" text-anchor="start" style="white-space: pre;" direction="ltr">OK</text></g><g transform="translate(672.1502879322863 303) rotate(0 42.19196319580078 11.25)"><text x="0" y="NaN" font-family="Virgil, Segoe UI Emoji" font-size="18px" fill="#3fb950" text-anchor="start" style="white-space: pre;" direction="ltr">prevented</text></g><g stroke-linecap="round" transform="translate(878.1502879322863 265) rotate(0 130 50)"><path d="M-0.33 -1.62 L259.31 -0.21 L261.96 101.54 L-1.57 101.23" stroke="none" stroke-width="0" fill="#3a5d1d"></path><path d="M1.15 -1.43 C81.19 2.11, 163.75 1.69, 259.64 0.24 M-0.35 0.47 C97.47 -0.7, 196.79 -1.38, 260.17 -0.76 M258.86 1.66 C259.13 33.56, 260.18 67.05, 260.86 100.32 M259.18 0.24 C260.57 35.86, 261.01 70.29, 260.63 99.45 M259.75 101.21 C201.09 102.12, 143.64 101.26, 0.17 100.24 M259.4 99.97 C160.66 99.35, 62.2 99.39, 0.54 100.46 M-0.05 99.59 C-2.29 67.19, 0.87 38, 0.68 -1.6 M-0.41 99.67 C1.33 75.94, 1.09 50.25, 0.2 -0.4" stroke="#6dbf3a" stroke-width="2" fill="none"></path></g><g stroke-linecap="round" transform="translate(898.1502879322863 297) rotate(0 18 18)"><path d="M12.72 0.54 C16.02 -0.92, 21.17 -0.47, 24.79 1.17 C28.41 2.8, 32.6 6.98, 34.45 10.36 C36.3 13.74, 36.71 18, 35.88 21.47 C35.05 24.93, 32.45 28.6, 29.48 31.16 C26.52 33.72, 21.95 36.92, 18.07 36.83 C14.19 36.74, 9.31 33.26, 6.22 30.62 C3.12 27.98, 0.08 24.52, -0.48 21 C-1.04 17.47, -0.31 12.97, 2.86 9.47 C6.04 5.98, 15 1.46, 18.57 0.05 C22.13 -1.37, 24.19 0.86, 24.25 1 M25.59 1.11 C28.87 2.19, 31.29 6.16, 32.97 9.67 C34.65 13.18, 36.38 18.5, 35.68 22.16 C34.98 25.83, 31.73 29.32, 28.79 31.66 C25.85 34, 21.84 36.19, 18.04 36.19 C14.25 36.19, 9.1 34.39, 6.01 31.64 C2.92 28.9, -0.11 23.41, -0.47 19.74 C-0.84 16.07, 1.52 12.64, 3.83 9.62 C6.15 6.6, 10.02 2.84, 13.43 1.63 C16.83 0.42, 22.35 2.44, 24.25 2.34 C26.15 2.25, 24.88 0.93, 24.83 1.05" stroke="none" stroke-width="0" fill="#6dbf3a"></path><path d="M26.14 2.36 C29.31 3.81, 31.72 7.38, 33.28 10.8 C34.84 14.22, 36.26 19.1, 35.5 22.86 C34.74 26.63, 32.05 31.31, 28.74 33.39 C25.44 35.46, 19.47 35.78, 15.65 35.31 C11.83 34.84, 8.43 33.03, 5.83 30.59 C3.22 28.14, 0.42 24.41, 0.02 20.64 C-0.37 16.87, 1.22 11.17, 3.45 7.97 C5.68 4.78, 8.99 1.94, 13.41 1.45 C17.82 0.97, 26.81 3.85, 29.94 5.06 C33.07 6.28, 32.54 8.71, 32.2 8.76 M23.86 0.43 C27.39 1.07, 31.02 4.56, 32.93 7.64 C34.83 10.71, 35.64 15.14, 35.32 18.86 C34.99 22.58, 33.79 27.22, 30.98 29.97 C28.17 32.72, 22.23 34.85, 18.46 35.38 C14.69 35.92, 11.27 35.5, 8.34 33.18 C5.42 30.85, 2.12 25.43, 0.92 21.44 C-0.27 17.45, -0.22 12.72, 1.15 9.25 C2.52 5.77, 5.51 2.07, 9.16 0.62 C12.81 -0.84, 20.8 0.38, 23.05 0.53 C25.31 0.68, 23 1.23, 22.68 1.51" stroke="#6dbf3a" stroke-width="2" fill="none"></path></g><g transform="translate(905.1502879322863 302) rotate(0 12.050994873046875 11.25)"><text x="0" y="NaN" font-family="Virgil, Segoe UI Emoji" font-size="18px" fill="#ffffff" text-anchor="start" style="white-space: pre;" direction="ltr">OK</text></g><g transform="translate(946.1502879322863 303) rotate(0 42.19196319580078 11.25)"><text x="0" y="NaN" font-family="Virgil, Segoe UI Emoji" font-size="18px" fill="#3fb950" text-anchor="start" style="white-space: pre;" direction="ltr">prevented</text></g><g stroke-linecap="round" transform="translate(1152.1502879322863 265) rotate(0 130 50)"><path d="M-1.06 -0.96 L258.6 -0.05 L259.98 98.83 L0.89 98.85" stroke="none" stroke-width="0" fill="#3a5d1d"></path><path d="M0.02 1.15 C78.73 1.39, 155.48 1.27, 259.83 -0.26 M-0.43 0.49 C73.52 -0.52, 146.31 0.11, 259.41 0.27 M259.77 -1.51 C258.3 25.29, 258.33 52.17, 258.68 99.01 M260.48 0.67 C260.29 24.91, 260.39 51.14, 259.5 100.44 M260.12 99.86 C183.19 99.2, 107.57 99.65, -0.73 101.45 M259.36 99.97 C199.94 100.4, 141.04 100.52, -0.36 100.59 M1.72 101.4 C-1.12 75.1, 1.67 50.03, 1.68 -0.87 M0 99.83 C0.23 66.28, 0.62 33.59, 0.72 0.48" stroke="#6dbf3a" stroke-width="2" fill="none"></path></g><g stroke-linecap="round" transform="translate(1172.1502879322863 297) rotate(0 18 18)"><path d="M21.65 0.68 C25.16 1.34, 29.75 4.18, 32.11 7.19 C34.47 10.2, 35.91 15, 35.81 18.75 C35.71 22.49, 34.16 26.79, 31.5 29.65 C28.84 32.51, 23.62 35.49, 19.87 35.92 C16.11 36.34, 12.21 34.28, 8.97 32.21 C5.74 30.14, 1.71 27.06, 0.45 23.48 C-0.81 19.9, -0.09 14.42, 1.4 10.73 C2.9 7.05, 5.31 2.86, 9.4 1.36 C13.5 -0.14, 22.87 1.47, 25.98 1.73 C29.09 2, 28.27 2.7, 28.06 2.94 M24.68 0.17 C28.07 1.45, 31.67 5.39, 33.55 9.15 C35.43 12.92, 37.02 19.07, 35.96 22.75 C34.89 26.42, 30.32 29.25, 27.17 31.22 C24.02 33.18, 20.71 34.66, 17.04 34.55 C13.38 34.44, 8.02 33.07, 5.18 30.54 C2.34 28.01, 0.54 22.9, 0 19.39 C-0.54 15.87, -0.04 12.57, 1.94 9.46 C3.93 6.34, 7.8 2.13, 11.9 0.71 C15.99 -0.72, 24.16 0.74, 26.52 0.91 C28.87 1.08, 26.48 1.13, 26.02 1.73" stroke="none" stroke-width="0" fill="#6dbf3a"></path><path d="M9.88 2.46 C13.03 0.42, 17.87 -0.59, 21.51 0.04 C25.15 0.67, 29.15 3.27, 31.71 6.25 C34.27 9.22, 37.03 13.83, 36.84 17.87 C36.65 21.91, 33.16 27.56, 30.58 30.5 C27.99 33.45, 25.13 35.1, 21.34 35.53 C17.55 35.96, 11.18 35.04, 7.83 33.07 C4.49 31.09, 2.36 27.15, 1.26 23.68 C0.16 20.22, -0.12 15.89, 1.24 12.28 C2.6 8.67, 7.64 3.85, 9.42 2.04 C11.19 0.24, 11.7 1.37, 11.88 1.45 M10.37 1.84 C13.51 -0.29, 17.44 -1.66, 21.1 -0.71 C24.77 0.24, 29.82 4.1, 32.37 7.56 C34.92 11.01, 36.81 16.13, 36.41 20.01 C36.01 23.9, 32.9 28.27, 29.97 30.85 C27.04 33.43, 22.43 34.98, 18.81 35.48 C15.18 35.99, 11.14 35.86, 8.23 33.89 C5.32 31.92, 2.7 27.27, 1.35 23.65 C0 20.03, -1.38 15.55, 0.14 12.17 C1.66 8.79, 8.84 4.81, 10.45 3.38 C12.05 1.95, 9.94 3.32, 9.76 3.59" stroke="#6dbf3a" stroke-width="2" fill="none"></path></g><g transform="translate(1179.1502879322863 302) rotate(0 12.050994873046875 11.25)"><text x="0" y="NaN" font-family="Virgil, Segoe UI Emoji" font-size="18px" fill="#ffffff" text-anchor="start" style="white-space: pre;" direction="ltr">OK</text></g><g transform="translate(1220.1502879322863 303) rotate(0 42.19196319580078 11.25)"><text x="0" y="NaN" font-family="Virgil, Segoe UI Emoji" font-size="18px" fill="#3fb950" text-anchor="start" style="white-space: pre;" direction="ltr">prevented</text></g><g stroke-linecap="round" transform="translate(30.150287932286346 375) rotate(0 140 50)"><path d="M1.87 -0.1 L279.75 0.61 L278.86 98.51 L1.34 101.04" stroke="none" stroke-width="0" fill="#161b22"></path><path d="M0.47 1.45 C65.43 -2.53, 133.68 -3.31, 280.72 -1.52 M0.33 -0.49 C71.2 0.88, 142.62 1.5, 280.53 0.5 M281.2 -1.76 C278.47 26.32, 280.43 53.46, 281.56 99.33 M279.84 -0.21 C280.29 31.37, 279.5 64.4, 279.08 99.92 M280.07 101.35 C201.68 103.4, 124.67 103.41, 0.05 99.91 M280.67 99.93 C174.99 98.22, 69.68 98.16, -0.42 99.7 M1.27 100.5 C-0.59 61.72, 0.78 25.19, -1.11 0.27 M0.86 99.47 C0.7 61.8, 1.05 25.95, -0.01 0.43" stroke="#30363d" stroke-width="2" fill="none"></path></g><g transform="translate(42.150287932286346 397) rotate(0 97.57440948486328 11.875)"><text x="0" y="NaN" font-family="Virgil, Segoe UI Emoji" font-size="19px" fill="#e6edf3" text-anchor="start" style="white-space: pre;" direction="ltr">Non-repeatable Read</text></g><g transform="translate(42.04150171138758 425.25) rotate(0 131.80990600585938 12.5)"><text x="0" y="NaN" font-family="Virgil, Segoe UI Emoji" font-size="20px" fill="#8b949e" text-anchor="start" style="white-space: pre;" direction="ltr">Same transaction,2 values</text></g><g stroke-linecap="round" transform="translate(330.15028793228635 375) rotate(0 130 50)"><path d="M-0.54 -0.04 L261.8 0.03 L260.68 98.79 L1.17 101.92" stroke="none" stroke-width="0" fill="#4a1219"></path><path d="M-1.3 -0.57 C67.44 -0.45, 137.52 0.55, 258.7 -0.23 M-0.11 0.37 C97.32 -0.18, 195.74 -0.84, 259.26 0.52 M261.38 1.89 C261.06 30.06, 259.28 62.88, 260.53 98.81 M260.98 0.64 C260.64 20.47, 261.46 42.91, 260.74 100.11 M258.58 99.05 C163.06 100.89, 66.91 102.22, 0.44 98.76 M260.25 99.89 C160.41 100.96, 62.13 100.33, 0.17 99.67 M1.53 99.02 C0.43 66.18, 1.86 32.98, -1.48 1.17 M0.38 99.92 C1.13 61.39, -0.42 22.05, -0.98 -0.42" stroke="#f85149" stroke-width="2" fill="none"></path></g><g stroke-linecap="round" transform="translate(350.15028793228635 407) rotate(0 18 18)"><path d="M17.12 0.56 C20.57 0.18, 25.04 1.97, 28.19 4.11 C31.34 6.26, 34.93 9.84, 36.04 13.42 C37.14 16.99, 36.86 22.09, 34.85 25.56 C32.85 29.03, 27.87 32.6, 24.01 34.22 C20.16 35.84, 15.22 36.38, 11.74 35.27 C8.27 34.16, 5.17 30.78, 3.16 27.53 C1.16 24.29, -0.94 19.7, -0.31 15.79 C0.31 11.88, 3.45 6.7, 6.93 4.07 C10.42 1.44, 17.93 0.69, 20.6 0.02 C23.26 -0.64, 22.97 -0.38, 22.9 0.08 M13.29 1.28 C16.88 -0.02, 21.22 0.63, 24.72 2.08 C28.22 3.54, 32.28 6.99, 34.28 10 C36.27 13.02, 37.49 16.49, 36.72 20.18 C35.94 23.87, 32.71 29.74, 29.65 32.13 C26.59 34.52, 22.17 34.61, 18.36 34.51 C14.55 34.4, 9.94 33.94, 6.79 31.48 C3.64 29.02, 0.04 23.55, -0.54 19.73 C-1.12 15.91, 1.07 11.91, 3.29 8.56 C5.5 5.21, 11.36 0.63, 12.73 -0.38 C14.1 -1.38, 11.46 2.12, 11.52 2.51" stroke="none" stroke-width="0" fill="#f85149"></path><path d="M17.6 -0.06 C21.27 -0.53, 26.67 1.07, 29.69 3.59 C32.71 6.12, 34.89 11.24, 35.72 15.08 C36.55 18.92, 36.46 23.33, 34.65 26.63 C32.85 29.93, 28.68 33.57, 24.88 34.88 C21.08 36.19, 15.65 35.83, 11.87 34.48 C8.08 33.13, 4.01 30.05, 2.17 26.78 C0.33 23.5, 0.31 18.52, 0.83 14.83 C1.34 11.14, 1.89 7.13, 5.28 4.63 C8.68 2.13, 17.89 0.21, 21.2 -0.18 C24.51 -0.57, 25.17 2.04, 25.14 2.3 M16.5 -1.06 C20.27 -1.19, 26.6 0.58, 29.9 3.41 C33.21 6.24, 35.5 11.87, 36.35 15.9 C37.19 19.94, 36.89 24.32, 34.98 27.63 C33.06 30.94, 28.7 34.67, 24.84 35.77 C20.98 36.86, 15.63 35.61, 11.82 34.21 C8 32.82, 3.9 30.54, 1.97 27.4 C0.04 24.27, -0.56 19.26, 0.26 15.41 C1.07 11.56, 3.89 6.77, 6.87 4.31 C9.85 1.85, 16.34 1.47, 18.17 0.63 C20 -0.22, 17.87 -0.78, 17.85 -0.77" stroke="#f85149" stroke-width="2" fill="none"></path></g><g transform="translate(361.15028793228635 412) rotate(0 5.9799957275390625 12.5)"><text x="0" y="NaN" font-family="Virgil, Segoe UI Emoji" font-size="20px" fill="#ffffff" text-anchor="start" style="white-space: pre;" direction="ltr">X</text></g><g transform="translate(398.15028793228635 413) rotate(0 46.33198547363281 11.25)"><text x="0" y="NaN" font-family="Virgil, Segoe UI Emoji" font-size="18px" fill="#f85149" text-anchor="start" style="white-space: pre;" direction="ltr">POSSIBLE</text></g><g stroke-linecap="round" transform="translate(604.1502879322863 375) rotate(0 130 50)"><path d="M1.47 1.26 L259.3 -1.56 L259.7 101.4 L-1.81 100.58" stroke="none" stroke-width="0" fill="#4a1219"></path><path d="M1.12 -0.09 C72.39 -1.19, 142.84 -1.46, 259.24 0.76 M0.51 -0.08 C77.86 -1.86, 156 -1.84, 259.22 0.64 M260.44 -1.95 C258.55 19.27, 258.58 40.41, 261.99 98.79 M260.92 -0.2 C260.57 27.51, 259.79 53.91, 260.37 100.31 M258.45 100.37 C200.49 101.02, 140.77 102.49, 0.44 100.49 M259.8 100.49 C201.05 101.79, 141.91 101.86, 0.06 100.73 M1.94 101.58 C0.99 61.51, -1.18 23.79, 1.33 0.45 M0.19 99.58 C-0.15 74.57, 0.27 50.37, -0.49 0.29" stroke="#f85149" stroke-width="2" fill="none"></path></g><g stroke-linecap="round" transform="translate(624.1502879322863 407) rotate(0 18 18)"><path d="M24.65 1.63 C27.96 2.76, 32.07 5.94, 33.86 9.13 C35.64 12.31, 36 16.91, 35.34 20.73 C34.69 24.55, 32.93 29.53, 29.91 32.04 C26.9 34.56, 21.31 35.88, 17.25 35.82 C13.19 35.76, 8.26 34.42, 5.54 31.7 C2.82 28.99, 1.51 23.52, 0.92 19.55 C0.34 15.58, 0.06 11.14, 2.04 7.88 C4.02 4.62, 8.58 0.87, 12.78 -0.03 C16.98 -0.92, 24.4 1.56, 27.25 2.5 C30.11 3.44, 30.1 5.39, 29.93 5.64 M10.41 2.56 C13.99 1.07, 20.07 0.86, 23.61 1.46 C27.16 2.07, 29.62 3.21, 31.7 6.2 C33.78 9.19, 36.12 15.43, 36.11 19.41 C36.09 23.38, 34.33 27.35, 31.59 30.07 C28.84 32.78, 23.8 35.23, 19.66 35.68 C15.51 36.13, 10.11 34.95, 6.73 32.77 C3.35 30.6, 0.34 26.3, -0.62 22.62 C-1.59 18.93, -0.93 13.95, 0.95 10.66 C2.83 7.37, 9 4.35, 10.65 2.88 C12.3 1.41, 10.73 1.81, 10.85 1.84" stroke="none" stroke-width="0" fill="#f85149"></path><path d="M11.93 1.42 C15.44 0.37, 21.51 0.98, 25.19 2.41 C28.87 3.85, 32.27 6.64, 34.02 10.02 C35.77 13.4, 36.5 18.98, 35.68 22.69 C34.87 26.4, 32.36 30.02, 29.15 32.3 C25.93 34.57, 20.42 36.62, 16.39 36.34 C12.36 36.05, 7.62 33.42, 4.94 30.6 C2.27 27.78, 0.56 23, 0.36 19.41 C0.16 15.82, 1.19 12.24, 3.74 9.06 C6.29 5.88, 13.53 1.9, 15.64 0.33 C17.74 -1.23, 16.39 -0.59, 16.35 -0.34 M10.66 -0.1 C14.27 -1.63, 21.29 -0.61, 24.89 1.06 C28.5 2.73, 30.57 6.91, 32.3 9.91 C34.03 12.92, 35.49 15.65, 35.28 19.1 C35.08 22.54, 33.79 27.79, 31.05 30.57 C28.31 33.35, 22.87 35.37, 18.85 35.79 C14.83 36.22, 9.78 35.52, 6.92 33.13 C4.06 30.73, 2.6 25.57, 1.68 21.42 C0.75 17.26, -0.08 11.77, 1.37 8.18 C2.81 4.59, 8.65 0.73, 10.34 -0.14 C12.02 -1.01, 11.28 2.51, 11.45 2.95" stroke="#f85149" stroke-width="2" fill="none"></path></g><g transform="translate(635.1502879322863 412) rotate(0 5.9799957275390625 12.5)"><text x="0" y="NaN" font-family="Virgil, Segoe UI Emoji" font-size="20px" fill="#ffffff" text-anchor="start" style="white-space: pre;" direction="ltr">X</text></g><g transform="translate(672.1502879322863 413) rotate(0 46.33198547363281 11.25)"><text x="0" y="NaN" font-family="Virgil, Segoe UI Emoji" font-size="18px" fill="#f85149" text-anchor="start" style="white-space: pre;" direction="ltr">POSSIBLE</text></g><g stroke-linecap="round" transform="translate(878.1502879322863 375) rotate(0 130 50)"><path d="M-0.94 1.45 L260.95 0.33 L259.34 100.99 L-1.01 100.48" stroke="none" stroke-width="0" fill="#3a5d1d"></path><path d="M-0.17 0.03 C69.58 -0.07, 139.91 0.72, 261.58 -0.87 M0.26 0.22 C77.56 0.44, 153.73 -0.05, 260.67 0.64 M258.05 -1.84 C259.42 24.87, 260.92 44.58, 259.1 100.13 M259.88 -0.64 C259.72 20.45, 260.3 40.83, 259.47 99.2 M261.14 100.66 C157.15 98.57, 55.97 98.01, -0.78 99.04 M260.6 100.45 C196.33 98.46, 131.71 97.65, -0.24 99.66 M-1.77 100.23 C1.53 65.35, 1.55 25.37, -0.8 -1.74 M0.04 100.44 C-0.84 70.9, -1.01 41.46, -0.56 -0.47" stroke="#6dbf3a" stroke-width="2" fill="none"></path></g><g stroke-linecap="round" transform="translate(898.1502879322863 407) rotate(0 18 18)"><path d="M21.86 -0.62 C25.5 -0.17, 30.25 3.6, 32.51 6.6 C34.76 9.59, 35.59 13.62, 35.38 17.33 C35.16 21.05, 33.52 25.98, 31.21 28.89 C28.9 31.79, 25.16 33.93, 21.52 34.77 C17.88 35.62, 12.64 35.78, 9.37 33.97 C6.1 32.17, 3.23 27.8, 1.88 23.96 C0.53 20.11, -0.08 14.67, 1.28 10.9 C2.64 7.13, 6.38 3, 10.04 1.32 C13.7 -0.37, 20.49 0.68, 23.24 0.77 C25.98 0.86, 26.35 1.48, 26.52 1.86 M12.09 2.35 C15.23 0.8, 19.62 0.58, 23.2 1.55 C26.79 2.51, 31.27 4.75, 33.59 8.15 C35.91 11.55, 37.68 17.84, 37.13 21.93 C36.58 26.02, 33.42 30.59, 30.28 32.69 C27.14 34.8, 22.34 34.59, 18.27 34.59 C14.2 34.58, 8.83 34.67, 5.87 32.66 C2.91 30.66, 1.2 26.53, 0.52 22.56 C-0.16 18.59, -0.05 12.21, 1.79 8.86 C3.63 5.5, 9.98 3.62, 11.57 2.45 C13.15 1.28, 11.22 1.81, 11.32 1.85" stroke="none" stroke-width="0" fill="#6dbf3a"></path><path d="M20.9 0.88 C24.57 1.16, 29.41 2.83, 31.77 5.56 C34.13 8.28, 35.1 13.41, 35.06 17.24 C35.02 21.06, 33.9 25.4, 31.52 28.5 C29.14 31.61, 24.31 35.11, 20.77 35.85 C17.22 36.6, 13.43 34.97, 10.26 32.97 C7.09 30.98, 3.38 27.17, 1.75 23.89 C0.11 20.61, -0.6 16.9, 0.43 13.3 C1.45 9.7, 4.18 4.33, 7.9 2.28 C11.62 0.22, 19.87 0.81, 22.75 0.96 C25.63 1.11, 25.28 2.85, 25.19 3.15 M11.07 1.39 C14.22 -0.25, 19.49 -1.78, 23.09 -0.48 C26.68 0.81, 30.49 5.58, 32.65 9.18 C34.82 12.77, 36.66 17.41, 36.05 21.07 C35.44 24.74, 31.87 28.51, 28.98 31.17 C26.1 33.83, 22.57 36.83, 18.72 37.03 C14.86 37.22, 9.07 34.74, 5.84 32.33 C2.62 29.91, -0.2 26.22, -0.63 22.52 C-1.07 18.83, 1.2 13.71, 3.21 10.17 C5.22 6.63, 9.88 2.73, 11.41 1.27 C12.95 -0.19, 12.27 1.32, 12.41 1.42" stroke="#6dbf3a" stroke-width="2" fill="none"></path></g><g transform="translate(905.1502879322863 412) rotate(0 12.050994873046875 11.25)"><text x="0" y="NaN" font-family="Virgil, Segoe UI Emoji" font-size="18px" fill="#ffffff" text-anchor="start" style="white-space: pre;" direction="ltr">OK</text></g><g transform="translate(946.1502879322863 413) rotate(0 42.19196319580078 11.25)"><text x="0" y="NaN" font-family="Virgil, Segoe UI Emoji" font-size="18px" fill="#3fb950" text-anchor="start" style="white-space: pre;" direction="ltr">prevented</text></g><g stroke-linecap="round" transform="translate(1152.1502879322863 375) rotate(0 130 50)"><path d="M-1.83 1.78 L260.32 -0.63 L261.22 101.88 L-1.78 99.23" stroke="none" stroke-width="0" fill="#3a5d1d"></path><path d="M-0.14 -1.32 C89.88 1.1, 180.46 1.48, 260.01 -1.06 M-0.65 0.76 C57.98 -2.72, 117.56 -2.32, 259.86 0.14 M259.74 1.97 C260.4 29.4, 259.21 56.24, 259.58 99.39 M260.65 -0.33 C258.48 20.61, 260.21 40.01, 259.67 100.59 M259.84 99.35 C173.02 100.54, 82.69 99.13, 1.31 99.46 M259.21 99.92 C205.94 100.75, 154.18 99.97, 0.4 100.11 M0.02 98.13 C-0.34 65.88, -1.38 32.61, 0.28 -0.24 M0.06 99.98 C0.46 64.84, 1.06 29.85, 0.96 0.7" stroke="#6dbf3a" stroke-width="2" fill="none"></path></g><g stroke-linecap="round" transform="translate(1172.1502879322863 407) rotate(0 18 18)"><path d="M15.76 0.59 C19.3 -0.12, 24.98 1.21, 28.12 3.34 C31.26 5.47, 33.46 9.72, 34.62 13.38 C35.78 17.04, 36.6 21.86, 35.09 25.29 C33.58 28.72, 28.94 32.25, 25.55 33.98 C22.15 35.7, 18.49 36.63, 14.73 35.66 C10.98 34.69, 5.41 31.18, 3.01 28.17 C0.62 25.16, 0.07 21.43, 0.37 17.61 C0.66 13.79, 1.82 8, 4.8 5.23 C7.79 2.46, 15.69 1.9, 18.28 0.99 C20.86 0.08, 20.37 -0.41, 20.29 -0.24 M23.71 2.43 C27.51 3.66, 32.63 5.59, 34.87 8.75 C37.11 11.91, 38.29 17.64, 37.15 21.38 C36 25.12, 31.34 28.78, 28 31.21 C24.66 33.63, 20.53 35.9, 17.09 35.93 C13.65 35.96, 10.38 34.12, 7.36 31.39 C4.34 28.65, -0.17 23.34, -1.03 19.5 C-1.89 15.65, -0.08 11.28, 2.22 8.31 C4.51 5.34, 9.03 2.95, 12.73 1.68 C16.43 0.4, 22.28 0.75, 24.42 0.66 C26.57 0.57, 25.93 0.76, 25.61 1.13" stroke="none" stroke-width="0" fill="#6dbf3a"></path><path d="M19.22 -0.09 C22.95 -0.01, 28.13 2.37, 30.81 5.01 C33.48 7.64, 34.91 11.7, 35.3 15.72 C35.69 19.74, 35.38 25.95, 33.16 29.12 C30.93 32.28, 25.76 34, 21.94 34.71 C18.12 35.41, 13.53 34.96, 10.24 33.37 C6.94 31.78, 3.64 28.5, 2.16 25.17 C0.67 21.84, 0.4 17.1, 1.31 13.39 C2.23 9.68, 4.16 5.11, 7.64 2.93 C11.11 0.74, 19.23 0.47, 22.15 0.28 C25.06 0.09, 25.23 1.41, 25.12 1.78 M22.85 1.43 C26.29 2.82, 31.07 6.58, 32.98 9.72 C34.9 12.87, 34.96 16.42, 34.36 20.32 C33.76 24.21, 31.84 30.69, 29.37 33.1 C26.9 35.51, 23.16 34.92, 19.53 34.78 C15.89 34.64, 10.58 34.46, 7.56 32.28 C4.54 30.1, 2.15 25.5, 1.41 21.7 C0.66 17.89, 1.52 12.74, 3.09 9.47 C4.67 6.2, 7.54 3.43, 10.88 2.08 C14.21 0.74, 20.73 1.33, 23.11 1.42 C25.49 1.51, 25.28 2.49, 25.14 2.59" stroke="#6dbf3a" stroke-width="2" fill="none"></path></g><g transform="translate(1179.1502879322863 412) rotate(0 12.050994873046875 11.25)"><text x="0" y="NaN" font-family="Virgil, Segoe UI Emoji" font-size="18px" fill="#ffffff" text-anchor="start" style="white-space: pre;" direction="ltr">OK</text></g><g transform="translate(1220.1502879322863 413) rotate(0 42.19196319580078 11.25)"><text x="0" y="NaN" font-family="Virgil, Segoe UI Emoji" font-size="18px" fill="#3fb950" text-anchor="start" style="white-space: pre;" direction="ltr">prevented</text></g><g stroke-linecap="round" transform="translate(30.150287932286346 485) rotate(0 140 50)"><path d="M-0.11 -0.63 L280.71 -1.7 L280.17 100.68 L0.52 98.79" stroke="none" stroke-width="0" fill="#161b22"></path><path d="M-0.18 0.08 C76.32 -1.06, 148.59 0.08, 279.93 1.12 M0.53 0.34 C76.82 -1.77, 154.19 -1.05, 280.29 -0.67 M278.53 -1.67 C280.45 27.17, 279.9 54.27, 279.82 98.86 M279.63 -0.95 C280.95 23.92, 281.37 47.36, 279.77 100.38 M280.1 101.02 C183.72 100.06, 85.05 101.56, 1.27 101.05 M280.09 100.45 C183.17 100.83, 85.8 99.89, -0.32 100.35 M1.26 101.19 C1.2 66.08, 0.31 30.28, 0.57 -1.24 M0.27 100.11 C0.08 77.58, 0.11 56.92, 0.88 -0.77" stroke="#30363d" stroke-width="2" fill="none"></path></g><g transform="translate(42.150287932286346 507) rotate(0 66.51893615722656 11.875)"><text x="0" y="NaN" font-family="Virgil, Segoe UI Emoji" font-size="19px" fill="#e6edf3" text-anchor="start" style="white-space: pre;" direction="ltr">Phantom Read</text></g><g transform="translate(42.04150171138758 535.25) rotate(0 123.43988800048828 12.5)"><text x="0" y="NaN" font-family="Virgil, Segoe UI Emoji" font-size="20px" fill="#8b949e" text-anchor="start" style="white-space: pre;" direction="ltr">Predicate result changes</text></g><g stroke-linecap="round" transform="translate(330.15028793228635 485) rotate(0 130 50)"><path d="M0.27 -0.66 L259.07 -0.23 L259.63 101.78 L1.56 99.66" stroke="none" stroke-width="0" fill="#4a1219"></path><path d="M-1.19 -0.15 C70.94 -0.55, 140.67 -1.35, 259.53 -0.18 M0.76 0.66 C77.42 0.76, 156 1.11, 259.98 0.28 M258.18 0.2 C258.93 28.39, 258.31 54.73, 261.5 98.16 M259.01 0.71 C261.02 20.52, 260.58 40.29, 260.39 99.85 M260.79 99.12 C163.36 98.36, 65.58 100.84, -0.23 100.61 M259.63 99.77 C191.27 98.63, 122.22 98.84, 0.53 99.5 M0.99 98.62 C-0.38 59.48, 0.49 23.32, -1.7 -0.3 M0.49 99.85 C0.67 60.83, -0.09 21.14, -0.28 -0.35" stroke="#f85149" stroke-width="2" fill="none"></path></g><g stroke-linecap="round" transform="translate(350.15028793228635 517) rotate(0 18 18)"><path d="M11.63 1.57 C14.91 0.32, 20.05 0.33, 23.58 1.64 C27.1 2.94, 30.65 6.21, 32.77 9.4 C34.89 12.58, 36.82 17.08, 36.3 20.75 C35.79 24.42, 32.88 28.74, 29.69 31.43 C26.49 34.11, 21.07 36.82, 17.12 36.86 C13.18 36.91, 8.83 34.2, 6 31.71 C3.18 29.23, 0.63 25.71, 0.17 21.96 C-0.29 18.21, 0.85 12.77, 3.21 9.22 C5.58 5.68, 11.86 2.32, 14.35 0.69 C16.84 -0.93, 17.96 -0.67, 18.15 -0.53 M24.07 1.39 C27.49 2.39, 32.17 6.59, 34.08 9.77 C36 12.95, 36.13 16.82, 35.56 20.47 C34.98 24.11, 33.52 28.94, 30.64 31.64 C27.77 34.34, 22.28 36.57, 18.28 36.69 C14.28 36.8, 9.62 34.74, 6.62 32.33 C3.63 29.93, 0.96 26, 0.3 22.25 C-0.36 18.51, 0.51 13.28, 2.65 9.85 C4.8 6.43, 9.66 3.08, 13.18 1.68 C16.71 0.28, 21.8 1.65, 23.8 1.44 C25.79 1.24, 25.33 0.21, 25.13 0.46" stroke="none" stroke-width="0" fill="#f85149"></path><path d="M20.48 0.53 C24 0.75, 28.32 3.19, 30.87 6.06 C33.43 8.94, 35.54 13.7, 35.81 17.76 C36.09 21.83, 35.09 27.5, 32.53 30.46 C29.96 33.42, 24.18 35.18, 20.44 35.55 C16.7 35.93, 13.39 34.56, 10.08 32.72 C6.77 30.87, 2.12 27.78, 0.57 24.48 C-0.98 21.19, -0.69 16.54, 0.79 12.94 C2.26 9.35, 5.63 4.88, 9.42 2.91 C13.2 0.93, 20.62 1.27, 23.49 1.08 C26.37 0.89, 26.6 1.45, 26.68 1.78 M13.05 0.13 C16.7 -0.83, 22.15 1.33, 25.56 2.84 C28.96 4.35, 31.66 5.71, 33.47 9.21 C35.29 12.72, 37.24 20.22, 36.43 23.88 C35.62 27.54, 32.05 29.06, 28.64 31.18 C25.22 33.3, 20.03 36.85, 15.94 36.61 C11.85 36.37, 6.59 32.39, 4.09 29.72 C1.59 27.06, 1 24.15, 0.95 20.61 C0.9 17.08, 1.96 11.94, 3.78 8.53 C5.6 5.12, 10.2 1.54, 11.87 0.14 C13.53 -1.26, 13.49 -0.06, 13.78 0.13" stroke="#f85149" stroke-width="2" fill="none"></path></g><g transform="translate(361.15028793228635 522) rotate(0 5.9799957275390625 12.5)"><text x="0" y="NaN" font-family="Virgil, Segoe UI Emoji" font-size="20px" fill="#ffffff" text-anchor="start" style="white-space: pre;" direction="ltr">X</text></g><g transform="translate(398.15028793228635 523) rotate(0 46.33198547363281 11.25)"><text x="0" y="NaN" font-family="Virgil, Segoe UI Emoji" font-size="18px" fill="#f85149" text-anchor="start" style="white-space: pre;" direction="ltr">POSSIBLE</text></g><g stroke-linecap="round" transform="translate(604.1502879322863 485) rotate(0 130 50)"><path d="M1.36 -0.48 L261.7 1.02 L259.61 98.59 L-0.01 99.79" stroke="none" stroke-width="0" fill="#4a1219"></path><path d="M1.51 0.18 C97.65 -1.57, 193.56 0.32, 261.54 -1.48 M-0.14 -0.37 C66.78 -0.12, 134.05 0.68, 259.53 0.43 M258.76 0.54 C259.22 33.65, 262.34 64.6, 259.95 98.62 M260.59 -0.88 C260.17 33.17, 259.58 68.35, 259.3 100.18 M260.58 98.8 C166.76 102.37, 74.79 102.79, 0.89 100.23 M259.3 100.56 C189.95 101.55, 120.26 102.08, 0.16 100.08 M1.81 101.7 C1.08 74.77, 0.29 49, 1.59 -1.57 M-0.91 100.87 C0.06 63.6, 0.63 26.29, -0.02 0.68" stroke="#f85149" stroke-width="2" fill="none"></path></g><g stroke-linecap="round" transform="translate(624.1502879322863 517) rotate(0 18 18)"><path d="M11.19 0.76 C14.65 -0.97, 20.57 0.01, 24.25 1.14 C27.93 2.27, 31.18 4.42, 33.27 7.55 C35.35 10.68, 37.4 16.13, 36.76 19.93 C36.12 23.72, 32.46 27.69, 29.41 30.33 C26.36 32.96, 22.33 35.33, 18.47 35.75 C14.61 36.17, 9.09 35.28, 6.25 32.85 C3.4 30.42, 2.09 24.87, 1.39 21.17 C0.7 17.48, 0.37 14.01, 2.08 10.68 C3.79 7.35, 9.62 2.85, 11.68 1.17 C13.74 -0.51, 14.4 0.42, 14.44 0.6 M23.74 -0.14 C27.24 0.86, 32.43 5.66, 34.47 9.34 C36.51 13.02, 36.64 17.99, 35.96 21.95 C35.28 25.9, 33.55 30.91, 30.39 33.07 C27.23 35.23, 21.05 35.36, 17.03 34.92 C13 34.48, 9.19 32.62, 6.25 30.44 C3.31 28.27, 0.17 25.39, -0.61 21.87 C-1.39 18.35, -0.5 12.95, 1.56 9.34 C3.61 5.74, 8.05 1.78, 11.72 0.24 C15.39 -1.3, 21.44 -0.34, 23.57 0.1 C25.7 0.55, 24.26 2.65, 24.52 2.9" stroke="none" stroke-width="0" fill="#f85149"></path><path d="M15.96 0.97 C19.76 0.2, 25.32 0.66, 28.55 2.72 C31.77 4.77, 34.14 9.7, 35.33 13.29 C36.51 16.89, 37.12 20.95, 35.66 24.28 C34.19 27.62, 30.11 31.53, 26.53 33.31 C22.96 35.09, 17.94 35.67, 14.22 34.96 C10.5 34.25, 6.53 32, 4.22 29.05 C1.9 26.1, 0.34 21.11, 0.33 17.25 C0.32 13.39, 1.04 8.85, 4.15 5.89 C7.26 2.92, 16.11 0.25, 18.98 -0.53 C21.86 -1.31, 21.33 0.8, 21.39 1.22 M18.96 1.51 C22.35 1.26, 26.6 1.73, 29.67 3.95 C32.73 6.18, 36.79 11.04, 37.36 14.86 C37.93 18.68, 35.23 23.39, 33.09 26.86 C30.96 30.32, 28.09 34.58, 24.56 35.66 C21.02 36.73, 15.83 34.68, 11.87 33.32 C7.91 31.95, 2.7 30.72, 0.8 27.48 C-1.1 24.23, -0.53 17.76, 0.44 13.86 C1.42 9.96, 3.38 6.13, 6.63 4.07 C9.88 2.01, 18.01 2.13, 19.95 1.51 C21.88 0.88, 18.68 0.34, 18.25 0.34" stroke="#f85149" stroke-width="2" fill="none"></path></g><g transform="translate(635.1502879322863 522) rotate(0 5.9799957275390625 12.5)"><text x="0" y="NaN" font-family="Virgil, Segoe UI Emoji" font-size="20px" fill="#ffffff" text-anchor="start" style="white-space: pre;" direction="ltr">X</text></g><g transform="translate(672.1502879322863 523) rotate(0 46.33198547363281 11.25)"><text x="0" y="NaN" font-family="Virgil, Segoe UI Emoji" font-size="18px" fill="#f85149" text-anchor="start" style="white-space: pre;" direction="ltr">POSSIBLE</text></g><g stroke-linecap="round" transform="translate(878.1502879322863 485) rotate(0 130 50)"><path d="M-1.85 0.72 L258.67 -0.87 L258.82 99.59 L-0.59 101.84" stroke="none" stroke-width="0" fill="#3a5d1d"></path><path d="M-1.1 0.12 C52.77 1.62, 108.46 1.51, 260.64 0.83 M-0.6 -0.13 C90.53 -0.74, 180.11 0.1, 259.62 0.04 M260.8 -1.67 C260.49 40.16, 260.19 78.31, 261.22 101.65 M259.67 -0.22 C260.65 39.8, 259.86 78.4, 259.61 99.52 M259.54 100.34 C184.17 100.54, 109.22 100.99, -1.28 100.66 M260.17 100.28 C197.5 100.1, 134.07 99.65, 0.34 100.62 M-1.59 99.67 C-1.1 59.21, -1.31 20.52, 1.13 -1.37 M-0.68 99.47 C-0.23 77.41, 0.73 55.95, 0.18 -0.61" stroke="#6dbf3a" stroke-width="2" fill="none"></path></g><g stroke-linecap="round" transform="translate(898.1502879322863 517) rotate(0 18 18)"><path d="M10.91 2.35 C14.19 0.75, 19.15 -1.17, 22.79 -0.06 C26.43 1.05, 30.49 5.58, 32.73 9.03 C34.98 12.49, 36.56 17.01, 36.27 20.67 C35.97 24.32, 33.83 28.45, 30.97 30.98 C28.11 33.52, 23.21 35.82, 19.1 35.9 C15 35.98, 9.3 33.62, 6.32 31.46 C3.35 29.3, 1.82 26.51, 1.24 22.91 C0.65 19.31, 0.78 13.48, 2.8 9.88 C4.82 6.27, 11.25 2.85, 13.34 1.27 C15.43 -0.32, 15.38 0.15, 15.34 0.38 M22.83 0.38 C26.7 0.68, 30.6 3.51, 32.76 6.5 C34.93 9.48, 36.07 14.68, 35.83 18.31 C35.58 21.94, 33.72 25.32, 31.29 28.27 C28.86 31.23, 24.85 35.26, 21.23 36.03 C17.61 36.81, 13.16 34.89, 9.59 32.94 C6.02 30.98, 1.21 27.97, -0.19 24.33 C-1.59 20.69, -0.37 14.73, 1.19 11.09 C2.75 7.45, 5.98 4.08, 9.19 2.49 C12.4 0.91, 18.5 1.97, 20.46 1.56 C22.42 1.16, 20.88 -0.29, 20.94 0.05" stroke="none" stroke-width="0" fill="#6dbf3a"></path><path d="M22.76 1.49 C26.25 2.22, 30.23 4.39, 32.25 7.55 C34.26 10.71, 35.16 16.36, 34.86 20.45 C34.57 24.54, 33.02 29.48, 30.46 32.09 C27.91 34.7, 23.62 36.08, 19.56 36.13 C15.49 36.18, 9.19 34.76, 6.07 32.39 C2.95 30.01, 1.67 25.61, 0.84 21.87 C0.01 18.13, -0.6 13.24, 1.07 9.95 C2.74 6.66, 6.7 3.39, 10.87 2.12 C15.04 0.85, 23.13 2.13, 26.1 2.31 C29.07 2.49, 28.81 3.02, 28.69 3.2 M24.97 1.77 C28.62 3.37, 33.71 7.05, 35.3 10.58 C36.88 14.11, 35.78 19.3, 34.5 22.97 C33.21 26.64, 30.62 30.57, 27.6 32.62 C24.57 34.67, 19.83 35.55, 16.33 35.27 C12.84 34.99, 9.35 33.7, 6.64 30.95 C3.94 28.19, 0.63 22.62, 0.09 18.75 C-0.45 14.88, 1.37 10.94, 3.38 7.75 C5.4 4.55, 8.79 0.73, 12.19 -0.44 C15.6 -1.6, 21.79 0.51, 23.79 0.76 C25.78 1.01, 23.96 0.47, 24.16 1.06" stroke="#6dbf3a" stroke-width="2" fill="none"></path></g><g transform="translate(905.1502879322863 522) rotate(0 12.050994873046875 11.25)"><text x="0" y="NaN" font-family="Virgil, Segoe UI Emoji" font-size="18px" fill="#ffffff" text-anchor="start" style="white-space: pre;" direction="ltr">OK</text></g><g transform="translate(946.1502879322863 523) rotate(0 42.19196319580078 11.25)"><text x="0" y="NaN" font-family="Virgil, Segoe UI Emoji" font-size="18px" fill="#3fb950" text-anchor="start" style="white-space: pre;" direction="ltr">prevented</text></g><g transform="translate(1114.1502879322863 491) rotate(0 5.675994873046875 13.75)"><text x="0" y="NaN" font-family="Virgil, Segoe UI Emoji" font-size="22px" fill="#f85149" text-anchor="start" style="white-space: pre;" direction="ltr">*</text></g><g stroke-linecap="round" transform="translate(1152.1502879322863 485) rotate(0 130 50)"><path d="M-1.18 -1.54 L260.62 -0.87 L260.5 100.02 L0.33 99.75" stroke="none" stroke-width="0" fill="#3a5d1d"></path><path d="M0.28 1.42 C76.99 3.29, 156.25 2.04, 260.26 -0.77 M-0.16 0.33 C86.69 -2.7, 173.06 -2.13, 259.26 -0.52 M260.45 0.32 C260.45 24.13, 259.87 45.61, 261.14 99.18 M259.05 -0.96 C259.75 20.73, 260.13 40.16, 259.36 99.81 M259.12 100.33 C166.34 100.25, 68.8 99.33, -1.55 99.46 M260.74 99.92 C164.13 98.52, 68.95 99.26, -0.19 100.15 M-0.49 98.41 C-1.19 65.84, -2.43 33.91, -0.99 -1.7 M-0.45 100.48 C-1.04 69.99, 0.1 38.26, -0.62 -0.03" stroke="#6dbf3a" stroke-width="2" fill="none"></path></g><g stroke-linecap="round" transform="translate(1172.1502879322863 517) rotate(0 18 18)"><path d="M19.46 -0.71 C23.01 -0.65, 26.96 3.12, 29.62 6.07 C32.29 9.03, 35.01 13.45, 35.45 17 C35.89 20.56, 34.43 24.46, 32.27 27.39 C30.12 30.33, 26 33.28, 22.51 34.61 C19.02 35.93, 14.96 36.79, 11.34 35.34 C7.71 33.89, 2.43 29.68, 0.76 25.89 C-0.92 22.09, 0.02 16.46, 1.27 12.59 C2.52 8.72, 4.86 4.7, 8.25 2.67 C11.63 0.64, 19.05 0.78, 21.57 0.39 C24.09 0.01, 23.58 0.04, 23.38 0.36 M21.96 0 C25.63 1.03, 30.47 4.71, 32.98 8.14 C35.49 11.57, 37.67 16.96, 37 20.57 C36.33 24.18, 32.01 27.05, 28.98 29.79 C25.95 32.54, 22.45 36.81, 18.83 37.06 C15.2 37.31, 10.5 33.53, 7.24 31.27 C3.98 29.01, 0.01 26.92, -0.74 23.52 C-1.48 20.11, 0.98 14.51, 2.75 10.81 C4.52 7.11, 6.58 3.09, 9.86 1.31 C13.15 -0.48, 20.1 0.17, 22.44 0.09 C24.77 0.02, 23.83 0.32, 23.88 0.85" stroke="none" stroke-width="0" fill="#6dbf3a"></path><path d="M9.24 1.71 C12.32 -0.05, 17.75 0.62, 21.62 1.41 C25.5 2.2, 29.96 3.42, 32.48 6.45 C35 9.49, 36.99 15.61, 36.73 19.62 C36.47 23.64, 33.66 27.99, 30.9 30.55 C28.15 33.11, 24.07 34.75, 20.21 34.98 C16.36 35.21, 11.06 33.84, 7.75 31.95 C4.45 30.05, 1.28 27.05, 0.4 23.62 C-0.47 20.19, 0.36 15.11, 2.52 11.37 C4.68 7.63, 11.21 2.91, 13.36 1.18 C15.51 -0.55, 15.36 0.85, 15.42 0.97 M12.34 0.49 C15.45 -1.05, 20 -0.02, 23.36 1.31 C26.73 2.65, 30.31 5.14, 32.52 8.51 C34.72 11.88, 37.02 17.43, 36.6 21.53 C36.18 25.62, 33.06 30.79, 29.99 33.08 C26.91 35.36, 22.27 35.54, 18.13 35.26 C14 34.98, 7.96 33.54, 5.2 31.38 C2.44 29.21, 2.22 26.02, 1.57 22.27 C0.92 18.51, -0.41 12.19, 1.32 8.85 C3.06 5.51, 10.4 3.58, 11.98 2.24 C13.57 0.89, 10.84 0.76, 10.83 0.76" stroke="#6dbf3a" stroke-width="2" fill="none"></path></g><g transform="translate(1179.1502879322863 522) rotate(0 12.050994873046875 11.25)"><text x="0" y="NaN" font-family="Virgil, Segoe UI Emoji" font-size="18px" fill="#ffffff" text-anchor="start" style="white-space: pre;" direction="ltr">OK</text></g><g transform="translate(1220.1502879322863 523) rotate(0 42.19196319580078 11.25)"><text x="0" y="NaN" font-family="Virgil, Segoe UI Emoji" font-size="18px" fill="#3fb950" text-anchor="start" style="white-space: pre;" direction="ltr">prevented</text></g><g stroke-linecap="round" transform="translate(30.150287932286346 595) rotate(0 140 50)"><path d="M1.93 1.13 L281.56 1.12 L279.46 99.23 L1.48 98.01" stroke="none" stroke-width="0" fill="#161b22"></path><path d="M0.1 -0.83 C62.45 2.41, 126.18 -0.14, 279.91 1.1 M-0.23 0.73 C73.72 0.5, 147.93 0.15, 280.06 -0.6 M279.51 -1.78 C277.43 32.15, 279.99 64.89, 278.1 100.46 M279.61 -0.6 C278.88 29.86, 278.23 59.57, 280.51 99.92 M280.64 98.8 C202.15 99.7, 123.24 100.86, 0.09 101.03 M280.24 99.24 C192.95 98.68, 106.41 98.95, -0.71 100.73 M-1.42 100.41 C-1.03 75.11, -1.75 49.97, -0.94 -0.91 M0.22 100.74 C-0.69 61.8, -0.74 22.35, -0.14 0.7" stroke="#30363d" stroke-width="2" fill="none"></path></g><g transform="translate(42.150287932286346 617) rotate(0 49.950965881347656 11.875)"><text x="0" y="NaN" font-family="Virgil, Segoe UI Emoji" font-size="19px" fill="#e6edf3" text-anchor="start" style="white-space: pre;" direction="ltr">Write Skew</text></g><g transform="translate(42.04150171138758 645.25) rotate(0 124.49989318847656 12.5)"><text x="0" y="NaN" font-family="Virgil, Segoe UI Emoji" font-size="20px" fill="#8b949e" text-anchor="start" style="white-space: pre;" direction="ltr">Read-then-write invariant</text></g><g stroke-linecap="round" transform="translate(330.15028793228635 595) rotate(0 130 50)"><path d="M-0.33 1.97 L260.56 0.11 L258.95 99.56 L1.33 100.49" stroke="none" stroke-width="0" fill="#4a1219"></path><path d="M-1.02 1.19 C79.33 -0.93, 160.16 -2.01, 258.96 -0.26 M0.36 0.62 C96.02 0.14, 190.42 1.45, 259.63 0.13 M261.03 1.93 C258.7 22.42, 258 48.72, 259.21 101.24 M260.32 0.63 C259.33 22.43, 259.24 47.57, 260.7 100.32 M260.86 101.09 C159.15 101.69, 58.73 102, -1.58 100.17 M259.62 99.65 C170.83 101.17, 82.2 101.15, 0.45 100.27 M-1.3 101.47 C1.45 62.23, -1.37 21.38, 0.94 -0.76 M-0.26 99.16 C-0.14 67.28, -1.01 35.64, -0.49 0.14" stroke="#f85149" stroke-width="2" fill="none"></path></g><g stroke-linecap="round" transform="translate(350.15028793228635 627) rotate(0 18 18)"><path d="M18.78 -0.91 C22.18 -1.13, 25.63 1.26, 28.59 3.78 C31.55 6.3, 35.59 10.44, 36.52 14.2 C37.46 17.96, 36.21 22.92, 34.21 26.32 C32.21 29.73, 28.32 33.1, 24.53 34.62 C20.74 36.14, 15.15 36.64, 11.46 35.45 C7.76 34.25, 4.33 30.97, 2.33 27.44 C0.34 23.91, -1.2 18.24, -0.52 14.25 C0.17 10.26, 3.12 5.73, 6.44 3.5 C9.76 1.27, 17.1 1.35, 19.42 0.88 C21.74 0.41, 20.3 0.35, 20.37 0.66 M14.32 -1.06 C17.95 -2.28, 23.69 -0.14, 27.29 1.84 C30.89 3.82, 34.76 7.01, 35.93 10.82 C37.09 14.62, 35.87 20.74, 34.26 24.67 C32.64 28.6, 29.47 32.62, 26.22 34.4 C22.98 36.18, 18.44 36.11, 14.77 35.35 C11.1 34.59, 6.91 32.54, 4.2 29.82 C1.49 27.09, -1.31 22.6, -1.48 18.99 C-1.66 15.38, 0.24 11.05, 3.14 8.14 C6.05 5.23, 14.13 2.59, 15.97 1.55 C17.8 0.5, 14.14 1.86, 14.15 1.87" stroke="none" stroke-width="0" fill="#f85149"></path><path d="M11.52 0.36 C14.9 -1.08, 20.6 0.02, 24.39 1.5 C28.19 2.98, 32.36 5.88, 34.27 9.23 C36.18 12.58, 36.6 18.04, 35.86 21.61 C35.12 25.17, 32.86 28.31, 29.83 30.63 C26.8 32.95, 21.53 35.33, 17.69 35.54 C13.85 35.76, 9.72 34.29, 6.79 31.92 C3.86 29.54, 0.9 25.11, 0.11 21.29 C-0.68 17.48, -0.17 12.58, 2.05 9.02 C4.28 5.46, 11.2 1.21, 13.48 -0.05 C15.77 -1.32, 15.56 1.21, 15.78 1.44 M21.99 0.27 C25.69 0.75, 30.52 3.93, 32.78 7.07 C35.04 10.22, 35.97 15.11, 35.53 19.16 C35.08 23.21, 32.91 28.35, 30.11 31.36 C27.31 34.38, 22.26 37.14, 18.71 37.27 C15.15 37.39, 11.95 34.41, 8.77 32.1 C5.59 29.8, 0.77 27.13, -0.38 23.46 C-1.53 19.79, 0.16 13.79, 1.87 10.08 C3.59 6.38, 6.71 3.01, 9.88 1.22 C13.05 -0.57, 18.93 -0.67, 20.88 -0.66 C22.84 -0.65, 21.67 0.89, 21.6 1.28" stroke="#f85149" stroke-width="2" fill="none"></path></g><g transform="translate(361.15028793228635 632) rotate(0 5.9799957275390625 12.5)"><text x="0" y="NaN" font-family="Virgil, Segoe UI Emoji" font-size="20px" fill="#ffffff" text-anchor="start" style="white-space: pre;" direction="ltr">X</text></g><g transform="translate(398.15028793228635 633) rotate(0 46.33198547363281 11.25)"><text x="0" y="NaN" font-family="Virgil, Segoe UI Emoji" font-size="18px" fill="#f85149" text-anchor="start" style="white-space: pre;" direction="ltr">POSSIBLE</text></g><g stroke-linecap="round" transform="translate(604.1502879322863 595) rotate(0 130 50)"><path d="M1.17 -0.04 L261.91 0.62 L260.8 98.42 L-0.36 99.08" stroke="none" stroke-width="0" fill="#4a1219"></path><path d="M0.87 -0.74 C53.51 0.6, 103.35 2.64, 258.65 1.35 M-0.12 -0.57 C95.79 -1.57, 192.06 -1.1, 259.5 0.26 M258.67 1.25 C259.17 28.8, 261.49 52.56, 259.6 98.42 M259.04 -0.45 C260.45 38.31, 260.11 75.19, 259.59 99.57 M259.4 99.24 C187.74 100.74, 116.14 100.11, -0.64 100.27 M259.74 99.71 C198.22 97.96, 137.93 98.49, 0.45 100.54 M-0.91 100.6 C0.72 61.75, -1.42 21.81, 1.72 -0.87 M0.26 99.36 C0.2 75.63, 0.47 51.74, 0.95 0.36" stroke="#f85149" stroke-width="2" fill="none"></path></g><g stroke-linecap="round" transform="translate(624.1502879322863 627) rotate(0 18 18)"><path d="M11.55 0.05 C14.93 -1.48, 21.45 -0.51, 25.27 0.95 C29.09 2.42, 32.81 5.38, 34.47 8.86 C36.13 12.35, 36.25 18.11, 35.24 21.86 C34.24 25.61, 31.54 29.14, 28.43 31.37 C25.33 33.59, 20.49 35.38, 16.62 35.24 C12.74 35.09, 7.9 32.94, 5.19 30.5 C2.49 28.06, 0.7 24.21, 0.4 20.6 C0.1 16.99, 0.8 12.3, 3.37 8.83 C5.94 5.36, 13.42 1.06, 15.83 -0.22 C18.24 -1.5, 17.99 0.81, 17.83 1.16 M24.06 1.39 C27.39 2.66, 32.43 7.44, 34.48 10.72 C36.52 14.01, 37.43 17.51, 36.33 21.12 C35.22 24.73, 30.83 30.08, 27.85 32.37 C24.86 34.66, 21.93 35.14, 18.41 34.86 C14.9 34.57, 9.82 33.1, 6.76 30.67 C3.7 28.24, 0.67 24, 0.06 20.29 C-0.55 16.58, 1.17 11.4, 3.11 8.4 C5.05 5.41, 7.9 3.52, 11.7 2.33 C15.49 1.15, 23.57 1.25, 25.87 1.29 C28.16 1.33, 25.9 2.37, 25.45 2.57" stroke="none" stroke-width="0" fill="#f85149"></path><path d="M13.56 0.6 C17.13 -0.56, 23.14 -0.49, 26.75 1.08 C30.36 2.65, 33.77 6.2, 35.21 10.02 C36.65 13.83, 36.44 20.17, 35.39 23.97 C34.34 27.77, 32.26 30.99, 28.91 32.82 C25.56 34.64, 19.29 35.43, 15.28 34.9 C11.28 34.37, 7.28 32.35, 4.88 29.62 C2.48 26.9, 1.13 22.38, 0.89 18.55 C0.66 14.72, 1.24 9.74, 3.48 6.65 C5.71 3.57, 12.15 1.21, 14.3 0.04 C16.45 -1.12, 16.35 -0.66, 16.38 -0.34 M25.04 2.1 C28.27 3.52, 33.1 7.46, 34.91 11.23 C36.72 15.01, 37.38 21.14, 35.91 24.72 C34.44 28.31, 29.72 31.06, 26.1 32.73 C22.48 34.4, 17.94 35.11, 14.19 34.76 C10.44 34.41, 6.06 33.27, 3.59 30.62 C1.11 27.96, -0.64 22.56, -0.64 18.84 C-0.65 15.11, 0.97 11.17, 3.54 8.26 C6.12 5.35, 10.91 2.49, 14.8 1.38 C18.68 0.27, 24.98 1.19, 26.85 1.61 C28.72 2.03, 26.48 3.31, 26.03 3.9" stroke="#f85149" stroke-width="2" fill="none"></path></g><g transform="translate(635.1502879322863 632) rotate(0 5.9799957275390625 12.5)"><text x="0" y="NaN" font-family="Virgil, Segoe UI Emoji" font-size="20px" fill="#ffffff" text-anchor="start" style="white-space: pre;" direction="ltr">X</text></g><g transform="translate(672.1502879322863 633) rotate(0 46.33198547363281 11.25)"><text x="0" y="NaN" font-family="Virgil, Segoe UI Emoji" font-size="18px" fill="#f85149" text-anchor="start" style="white-space: pre;" direction="ltr">POSSIBLE</text></g><g stroke-linecap="round" transform="translate(878.1502879322863 595) rotate(0 130 50)"><path d="M-1.53 -0.65 L258.24 1.74 L260.61 100.05 L-0.51 100.51" stroke="none" stroke-width="0" fill="#4a1219"></path><path d="M1.54 1.07 C79.75 0.14, 155.98 -0.88, 260.05 -1.26 M0.19 0.72 C100.87 1.24, 201.29 0.77, 259.93 0.77 M258.24 -1.8 C260.9 35.14, 258.93 70.35, 260.2 98.78 M259.92 -0.62 C259.44 30.98, 258.8 59.66, 259.34 99.42 M258.45 101.43 C168.75 99.09, 75.45 101.73, -0.64 100.3 M259.22 99.53 C183.13 98.69, 106.58 99.56, -0.74 99.54 M-1.91 98.48 C-1.84 74.32, -0.63 49.63, -1.82 1.33 M0.01 99.71 C-0.26 61.95, -0.71 22.01, -0.09 -0.23" stroke="#f85149" stroke-width="2" fill="none"></path></g><g stroke-linecap="round" transform="translate(898.1502879322863 627) rotate(0 18 18)"><path d="M22.96 1.45 C26.54 2.32, 30.08 4.39, 32.38 7.54 C34.69 10.69, 37.13 16.5, 36.8 20.35 C36.47 24.19, 33.34 28.14, 30.4 30.61 C27.47 33.09, 22.91 34.86, 19.16 35.19 C15.41 35.53, 10.9 34.77, 7.91 32.61 C4.91 30.44, 1.99 25.88, 1.17 22.2 C0.36 18.51, 1.39 14.01, 3 10.5 C4.6 6.98, 7.17 2.62, 10.8 1.09 C14.42 -0.43, 22.33 1.37, 24.73 1.33 C27.13 1.29, 25.48 0.61, 25.19 0.85 M18.24 -0.14 C21.83 -0.38, 27.54 1.28, 30.36 3.58 C33.18 5.88, 34.47 9.86, 35.16 13.67 C35.85 17.47, 36.01 23.05, 34.48 26.41 C32.94 29.77, 29.72 32.25, 25.95 33.83 C22.18 35.42, 15.88 37.16, 11.83 35.91 C7.79 34.67, 3.51 29.98, 1.7 26.34 C-0.11 22.71, 0 17.53, 0.98 14.1 C1.97 10.68, 4.82 8.06, 7.61 5.79 C10.4 3.52, 16.14 1.32, 17.71 0.49 C19.28 -0.35, 17 0.42, 17.03 0.8" stroke="none" stroke-width="0" fill="#f85149"></path><path d="M13.18 -0.03 C16.75 -1.33, 21.63 0.6, 25.13 2.24 C28.62 3.88, 32.54 6.51, 34.17 9.82 C35.8 13.12, 35.65 18.41, 34.89 22.09 C34.13 25.76, 32.57 29.67, 29.6 31.86 C26.63 34.05, 20.95 35.21, 17.07 35.22 C13.19 35.22, 9.1 34.55, 6.34 31.89 C3.58 29.23, 0.97 23.34, 0.52 19.26 C0.08 15.17, 1.58 10.67, 3.66 7.39 C5.75 4.1, 11.09 0.7, 13.03 -0.47 C14.97 -1.65, 15.07 -0.21, 15.31 0.36 M23.07 -0.38 C26.74 0.24, 30.3 3.78, 32.61 6.87 C34.93 9.95, 37.31 14.27, 36.95 18.12 C36.58 21.96, 33.13 26.92, 30.42 29.96 C27.7 33, 24.6 36.08, 20.66 36.34 C16.71 36.61, 10.27 33.87, 6.74 31.54 C3.22 29.21, 0.44 25.95, -0.49 22.36 C-1.42 18.77, -0.83 13.41, 1.15 10 C3.13 6.58, 7.93 3.46, 11.38 1.87 C14.83 0.29, 20.17 0.8, 21.85 0.47 C23.53 0.14, 21.48 -0.33, 21.46 -0.13" stroke="#f85149" stroke-width="2" fill="none"></path></g><g transform="translate(909.1502879322863 632) rotate(0 5.9799957275390625 12.5)"><text x="0" y="NaN" font-family="Virgil, Segoe UI Emoji" font-size="20px" fill="#ffffff" text-anchor="start" style="white-space: pre;" direction="ltr">X</text></g><g transform="translate(946.1502879322863 633) rotate(0 46.33198547363281 11.25)"><text x="0" y="NaN" font-family="Virgil, Segoe UI Emoji" font-size="18px" fill="#f85149" text-anchor="start" style="white-space: pre;" direction="ltr">POSSIBLE</text></g><g stroke-linecap="round" transform="translate(1152.1502879322863 595) rotate(0 130 50)"><path d="M-1.94 0.58 L258.55 1 L260.27 101.61 L-1.46 101.74" stroke="none" stroke-width="0" fill="#3a5d1d"></path><path d="M1.38 -0.08 C96.19 -0.02, 193.32 -1.04, 260.86 -0.88 M-0.01 0.49 C100.64 -0.54, 201.02 -0.19, 260 -0.42 M260.83 -0.29 C259.98 21.65, 258.93 45.78, 260.2 100.51 M260.88 -0.65 C259.72 22.06, 258.7 43.66, 259.79 100.81 M260.44 99.06 C200.6 101.73, 138.66 100.3, -1.01 101.14 M260.56 99.79 C195.43 100.86, 131.34 100.11, -0.45 100.42 M-0.36 100.68 C-1.14 62.23, 1.49 22.39, 0.74 -0.28 M0.28 99.46 C0.12 69.41, 0.14 36.12, -0.13 0.02" stroke="#6dbf3a" stroke-width="2" fill="none"></path></g><g stroke-linecap="round" transform="translate(1172.1502879322863 627) rotate(0 18 18)"><path d="M23.82 0.33 C27.09 1.66, 31.32 6.38, 33.29 10.01 C35.26 13.64, 36.36 18.31, 35.65 22.11 C34.95 25.91, 31.99 30.36, 29.07 32.83 C26.15 35.29, 22.07 37.14, 18.16 36.91 C14.25 36.67, 8.69 34.06, 5.61 31.43 C2.52 28.8, 0.15 24.89, -0.36 21.12 C-0.86 17.35, 0.59 12.07, 2.57 8.81 C4.55 5.55, 7.76 2.7, 11.51 1.56 C15.25 0.41, 22.5 1.93, 25.04 1.94 C27.58 1.94, 26.7 1.33, 26.73 1.62 M10 2.25 C13.22 0.54, 19.99 -0.13, 23.64 0.96 C27.28 2.05, 29.95 5.43, 31.86 8.79 C33.77 12.15, 35.52 17.39, 35.1 21.12 C34.67 24.84, 31.93 28.5, 29.31 31.15 C26.69 33.8, 22.9 36.82, 19.37 37.02 C15.84 37.21, 11.24 34.53, 8.12 32.32 C5 30.11, 1.85 27.56, 0.63 23.75 C-0.58 19.94, -0.84 13.02, 0.81 9.46 C2.46 5.9, 8.83 3.64, 10.53 2.39 C12.23 1.14, 11.02 1.75, 11.01 1.94" stroke="none" stroke-width="0" fill="#6dbf3a"></path><path d="M20.02 -0.31 C23.63 -0.38, 27.43 1.72, 29.94 4.41 C32.46 7.09, 34.42 11.96, 35.09 15.8 C35.76 19.63, 36.02 24.22, 33.97 27.44 C31.91 30.66, 26.46 33.87, 22.73 35.11 C19 36.35, 14.93 36.53, 11.58 34.87 C8.22 33.21, 4.5 28.62, 2.59 25.15 C0.67 21.67, -0.6 17.57, 0.1 14.02 C0.79 10.47, 3.3 6.12, 6.76 3.84 C10.21 1.57, 17.87 0.73, 20.83 0.39 C23.79 0.06, 24.58 1.47, 24.5 1.84 M22.58 1.83 C26.33 2.91, 32.22 6.3, 34.21 9.25 C36.2 12.19, 35.07 15.81, 34.52 19.5 C33.97 23.19, 33.46 28.46, 30.91 31.4 C28.36 34.33, 23.17 37, 19.23 37.12 C15.28 37.24, 10.56 34.62, 7.23 32.11 C3.91 29.6, -0.09 25.98, -0.74 22.06 C-1.39 18.14, 1.38 11.94, 3.36 8.61 C5.33 5.27, 7.88 3.11, 11.13 2.05 C14.38 0.99, 20.7 2.35, 22.85 2.25 C25 2.15, 23.72 1.52, 24.03 1.45" stroke="#6dbf3a" stroke-width="2" fill="none"></path></g><g transform="translate(1179.1502879322863 632) rotate(0 12.050994873046875 11.25)"><text x="0" y="NaN" font-family="Virgil, Segoe UI Emoji" font-size="18px" fill="#ffffff" text-anchor="start" style="white-space: pre;" direction="ltr">OK</text></g><g transform="translate(1220.1502879322863 633) rotate(0 42.19196319580078 11.25)"><text x="0" y="NaN" font-family="Virgil, Segoe UI Emoji" font-size="18px" fill="#3fb950" text-anchor="start" style="white-space: pre;" direction="ltr">prevented</text></g><g transform="translate(30.150287932286346 721) rotate(0 284.43719482421875 9.375)"><text x="0" y="NaN" font-family="Virgil, Segoe UI Emoji" font-size="15px" fill="#e6edf3" text-anchor="start" style="white-space: pre;" direction="ltr">Notice the staircase: each strengthening step turns one more red cell green.</text></g><g stroke-linecap="round" transform="translate(30.150287932286346 749) rotate(0 710 41.712182316638234)"><path d="M-1.51 1.78 L1418.8 0.15 L1418.99 83.1 L-0.29 83.75" stroke="none" stroke-width="0" fill="#4a1219"></path><path d="M0.2 0.5 C514.76 5.52, 1030.41 5.59, 1420.04 0.22 M-0.33 0.11 C339.41 1.98, 678.63 2.16, 1419.8 0.15 M1418.7 1.05 C1420.17 21.8, 1421.45 47.1, 1421.88 83.4 M1420.37 0.1 C1420.1 28.92, 1419.83 55.24, 1420.31 83.59 M1420.65 82.65 C924.06 88.48, 428.8 89.13, -0.56 83.91 M1420.11 83.29 C1017.03 86.95, 613.76 86.54, -0.32 83.11 M1.63 82.1 C1.96 61.25, 0.81 34.09, 0.7 -0.11 M0.15 84.2 C0.66 62.82, 0.16 40.9, -0.85 -0.53" stroke="#f85149" stroke-width="2" fill="none"></path></g><g transform="translate(46.150287932286346 758.875) rotate(0 436.7696228027344 12.5)"><text x="0" y="NaN" font-family="Virgil, Segoe UI Emoji" font-size="20px" fill="#e6edf3" text-anchor="start" style="white-space: pre;" direction="ltr">*  Snapshot Isolation prevents phantoms for read-only queries but NOT for write skew.</text></g><g transform="translate(46.150287932286346 790.875) rotate(0 475.339599609375 12.5)"><text x="0" y="NaN" font-family="Virgil, Segoe UI Emoji" font-size="20px" fill="#e6edf3" text-anchor="start" style="white-space: pre;" direction="ltr">Many engines marketed as "snapshot isolation" still allow Write Skew. Only Serializable closes it.</text></g></svg>