<svg version="1.1" xmlns="http://www.w3.org/2000/svg" viewBox="0 0 1100 620" width="1100" height="620">
  <!-- svg-source:excalidraw -->
  
  <defs>
    <style>
      @font-face {
        font-family: "Virgil";
        src: url("https://excalidraw.com/Virgil.woff2");
      }
      @font-face {
        font-family: "Cascadia";
        src: url("https://excalidraw.com/Cascadia.woff2");
      }
    </style>
  </defs>
  <rect x="0" y="0" width="1100" height="620" fill="#0d1117"></rect><g stroke-opacity="0.6" fill-opacity="0.6" stroke-linecap="round" transform="translate(10 10) rotate(0 125 150)"><path d="M-1.96 -0.08 L251.74 0.66 L250.25 300.37 L0.26 300.28" stroke="none" stroke-width="0" fill="#161b22"></path><path d="M-0.22 1.46 C87.59 -0.94, 173.42 -1.59, 250.95 -1.54 M250.79 0.08 C249.72 66.63, 250.9 132.19, 249.09 300.3 M251.56 298.86 C187.11 300.47, 125.04 299.1, -1.34 301.37 M-1.2 300.48 C3.21 234.1, 3.08 167.66, -1.07 0.03" stroke="#30363d" stroke-width="2.5" fill="none" stroke-dasharray="8 10"></path></g><g transform="translate(85 20) rotate(0 43.23596954345703 11.25)"><text x="0" y="NaN" font-family="Virgil, Segoe UI Emoji" font-size="18px" fill="#8b949e" text-anchor="start" style="white-space: pre;" direction="ltr">Producers</text></g><g stroke-linecap="round" transform="translate(50 70) rotate(0 90 32)"><path d="M1.27 -0.36 L179.6 0.86 L179.16 62.01 L-0.91 62.68" stroke="none" stroke-width="0" fill="#1f4d2b"></path><path d="M-0.85 1.64 C61.98 1.94, 126.14 1.57, 181.98 -0.32 M-0.06 -0.88 C54.52 -0.83, 108.55 -1.03, 179.06 -0.79 M180.05 -0.39 C180.34 19.25, 180.21 42.69, 179.92 62.2 M180.37 -0.87 C180.17 19.6, 180.18 37.82, 180.9 63.43 M180.87 63.39 C132.87 64.97, 86.31 64.17, 0.04 62.8 M180.21 63.73 C117.54 61.92, 54.52 62, -0.74 64.65 M1.11 65.61 C0.4 43.59, 0.95 23.15, -1.31 0.39 M-0.64 64.83 C-0.23 40.59, 1.1 15.51, 0.18 0.77" stroke="#3fb950" stroke-width="2" fill="none"></path></g><g transform="translate(89.68004608154297 89.5) rotate(0 50.31995391845703 12.5)"><text x="50.31995391845703" y="NaN" font-family="Virgil, Segoe UI Emoji" font-size="20px" fill="#ffffff" text-anchor="middle" style="white-space: pre;" direction="ltr">Producer 1</text></g><g stroke-linecap="round" transform="translate(50 180) rotate(0 90 32)"><path d="M-1.13 1.33 L179.78 0.1 L180.18 62.94 L-1.21 64.81" stroke="none" stroke-width="0" fill="#1f4d2b"></path><path d="M-1.42 1.5 C64.71 1.14, 123.9 1.19, 178.81 1.25 M-0.65 0.17 C69.66 -1.09, 139.64 0.44, 180.74 0.22 M178.2 0.61 C180.84 24.65, 179.47 49.09, 181.49 62.72 M179.56 -0.07 C180.67 22.87, 180.77 47.35, 180.53 64.84 M181.08 62.54 C121.71 64.12, 61 65.15, -0.62 65.19 M180.44 63.16 C134.53 63.8, 88.39 62.79, -0.99 64.82 M-1.77 64.48 C0.86 44.86, -1.52 26.62, 1.05 -0.43 M0.23 64.82 C0.38 49.25, -0.27 34.46, -0.05 0.73" stroke="#3fb950" stroke-width="2" fill="none"></path></g><g transform="translate(85.27005004882812 199.5) rotate(0 54.729949951171875 12.5)"><text x="54.729949951171875" y="NaN" font-family="Virgil, Segoe UI Emoji" font-size="20px" fill="#ffffff" text-anchor="middle" style="white-space: pre;" direction="ltr">Producer 2</text></g><g stroke-opacity="0.6" fill-opacity="0.6" stroke-linecap="round" transform="translate(370 10) rotate(0 350 200)"><path d="M1.8 -1.81 L701.48 1.29 L701.68 400.73 L1.94 400.08" stroke="none" stroke-width="0" fill="#161b22"></path><path d="M-0.8 0.54 C244.45 -1.65, 488.43 -3.05, 699.85 -0.47 M700.85 -0.87 C697.16 110.39, 697.8 219.28, 700.47 399.13 M700.14 400.64 C517.17 400.97, 332.79 400.92, -0.38 399.7 M0.85 400.83 C-2.32 303.3, -2.1 207.28, 0.18 0.28" stroke="#30363d" stroke-width="2.5" fill="none" stroke-dasharray="8 10"></path></g><g transform="translate(550 20) rotate(0 118.18792724609375 11.25)"><text x="0" y="NaN" font-family="Virgil, Segoe UI Emoji" font-size="18px" fill="#8b949e" text-anchor="start" style="white-space: pre;" direction="ltr">Kafka Cluster (3 Brokers)</text></g><g stroke-linecap="round" transform="translate(410 70) rotate(0 100 75)"><path d="M-1.94 0.7 L200.15 -1.41 L198.21 150.82 L-1.81 151.07" stroke="none" stroke-width="0" fill="#3a1d6e"></path><path d="M1.3 1.09 C69.2 -0.73, 141.21 0.09, 200.41 0.35 M0.14 0.26 C71.2 0.42, 144.18 1.3, 200.08 0.22 M198.49 -1.39 C202.01 51.2, 202.17 101.38, 200.61 149.77 M199.94 -0.46 C201.11 47.7, 199.4 94.99, 199.78 149.65 M201.35 150.75 C150.25 152.31, 100.16 152.91, -1.73 151.77 M200.8 150.01 C147.37 151.48, 95.74 150.41, 0.47 149.24 M0.46 148.23 C-1.29 92.44, -1.53 37.69, 1.79 1.92 M-0.03 150.81 C-0.88 99.78, -1.47 48.79, -0.53 0.63" stroke="#a371f7" stroke-width="2" fill="none"></path></g><g transform="translate(451.0900573730469 95) rotate(0 58.909942626953125 50)"><text x="58.909942626953125" y="NaN" font-family="Virgil, Segoe UI Emoji" font-size="20px" fill="#ffffff" text-anchor="middle" style="white-space: pre;" direction="ltr">Broker 0</text><text x="58.909942626953125" y="NaN" font-family="Virgil, Segoe UI Emoji" font-size="20px" fill="#ffffff" text-anchor="middle" style="white-space: pre;" direction="ltr"></text><text x="58.909942626953125" y="NaN" font-family="Virgil, Segoe UI Emoji" font-size="20px" fill="#ffffff" text-anchor="middle" style="white-space: pre;" direction="ltr">P0 (leader)</text><text x="58.909942626953125" y="NaN" font-family="Virgil, Segoe UI Emoji" font-size="20px" fill="#ffffff" text-anchor="middle" style="white-space: pre;" direction="ltr">P1 (follower)</text></g><g stroke-linecap="round" transform="translate(650 70) rotate(0 100 75)"><path d="M-0.34 -1.61 L200.33 1.83 L199.22 151.75 L1.9 149.2" stroke="none" stroke-width="0" fill="#3a1d6e"></path><path d="M0.78 0.96 C68.05 -1.6, 139.2 -0.4, 201.16 1.77 M-0.39 -0.59 C49.86 0.24, 98.66 0.87, 199.79 -0.67 M200.64 -0.39 C198.63 28.63, 201.57 59.81, 198.17 150.29 M199.14 0.34 C198.96 57.29, 199.35 117.17, 199.41 149.06 M201.54 149.98 C137.82 151.54, 72.62 150.19, 1.28 150.31 M199.21 149.49 C126.33 151.45, 53.55 151.21, 0.25 149.39 M1.58 151.1 C1.4 102.24, 2.23 54.24, 0.16 1.09 M0.84 150.8 C-0.67 90.91, -1.24 32.67, -0.77 0.58" stroke="#a371f7" stroke-width="2" fill="none"></path></g><g transform="translate(686.680061340332 95) rotate(0 63.31993865966797 50)"><text x="63.31993865966797" y="NaN" font-family="Virgil, Segoe UI Emoji" font-size="20px" fill="#ffffff" text-anchor="middle" style="white-space: pre;" direction="ltr">Broker 1</text><text x="63.31993865966797" y="NaN" font-family="Virgil, Segoe UI Emoji" font-size="20px" fill="#ffffff" text-anchor="middle" style="white-space: pre;" direction="ltr"></text><text x="63.31993865966797" y="NaN" font-family="Virgil, Segoe UI Emoji" font-size="20px" fill="#ffffff" text-anchor="middle" style="white-space: pre;" direction="ltr">P1 (leader)</text><text x="63.31993865966797" y="NaN" font-family="Virgil, Segoe UI Emoji" font-size="20px" fill="#ffffff" text-anchor="middle" style="white-space: pre;" direction="ltr">P2 (follower)</text></g><g stroke-linecap="round" transform="translate(890 70) rotate(0 100 75)"><path d="M1.26 0.08 L200.51 1.08 L200.24 148.69 L1.6 151.33" stroke="none" stroke-width="0" fill="#3a1d6e"></path><path d="M0.27 0.83 C70.5 1.13, 140.79 2.71, 198.3 -0.42 M0.87 0.37 C66.72 1.86, 131.33 2.24, 199.51 0.24 M198.79 0.62 C199.26 40.05, 200.96 82.25, 199.74 150.81 M200.33 -0.86 C201.82 38.89, 200.3 79.35, 199.04 150.47 M201.74 149.21 C125.39 150.76, 48.68 151.06, 0.69 148.86 M199.41 150.77 C147.08 149.63, 93.15 148.41, 0.03 149.54 M-1.3 149.98 C1.09 108.05, -1.01 70.79, -1.48 0.27 M-0.29 150.79 C0.54 112.03, -0.01 74.55, 1 0.53" stroke="#a371f7" stroke-width="2" fill="none"></path></g><g transform="translate(926.9200592041016 95) rotate(0 63.07994079589844 50)"><text x="63.07994079589844" y="NaN" font-family="Virgil, Segoe UI Emoji" font-size="20px" fill="#ffffff" text-anchor="middle" style="white-space: pre;" direction="ltr">Broker 2</text><text x="63.07994079589844" y="NaN" font-family="Virgil, Segoe UI Emoji" font-size="20px" fill="#ffffff" text-anchor="middle" style="white-space: pre;" direction="ltr"></text><text x="63.07994079589844" y="NaN" font-family="Virgil, Segoe UI Emoji" font-size="20px" fill="#ffffff" text-anchor="middle" style="white-space: pre;" direction="ltr">P2 (leader)</text><text x="63.07994079589844" y="NaN" font-family="Virgil, Segoe UI Emoji" font-size="20px" fill="#ffffff" text-anchor="middle" style="white-space: pre;" direction="ltr">P0 (follower)</text></g><g transform="translate(430 270) rotate(0 175.21185302734375 11.25)"><text x="0" y="NaN" font-family="Virgil, Segoe UI Emoji" font-size="18px" fill="#8b949e" text-anchor="start" style="white-space: pre;" direction="ltr">Topic: user-events (3 partitions, RF=3)</text></g><g stroke-linecap="round" transform="translate(430 310) rotate(0 90 25)"><path d="M-0.34 0.61 L178.78 -0.06 L181.76 50.09 L-0.85 48.52" stroke="none" stroke-width="0" fill="#0d2c5a"></path><path d="M1.44 -1.3 C61.69 -2.1, 127.62 -1.7, 181.35 1.89 M-0.92 0 C45.88 -0.28, 92.65 0.71, 179.97 0.79 M180.01 -1.88 C180.95 17.49, 178.8 36.52, 180.08 49.6 M180.11 0.35 C180.5 14.03, 181.12 28.12, 179.48 50.59 M180.24 51.84 C130.31 49.45, 83.84 50.52, -0.21 50.31 M179.69 50 C121.98 50.54, 64.68 49.55, -0.33 49.74 M-1.63 48.29 C0.7 31.65, 0.21 9.42, -1.93 1.03 M-0.98 50.78 C-0.51 37.93, -0.03 26.78, -0.36 0.46" stroke="#58a6ff" stroke-width="2" fill="none"></path></g><g transform="translate(464.6500473022461 322.5) rotate(0 55.349952697753906 12.5)"><text x="55.349952697753906" y="NaN" font-family="Virgil, Segoe UI Emoji" font-size="20px" fill="#ffffff" text-anchor="middle" style="white-space: pre;" direction="ltr">Partition 0</text></g><g stroke-linecap="round" transform="translate(650 310) rotate(0 90 25)"><path d="M1.26 -1.71 L178.97 -0.81 L178.77 51.03 L-1.15 50.65" stroke="none" stroke-width="0" fill="#0d2c5a"></path><path d="M0.87 -1.44 C64.41 0.69, 125.38 1.52, 178.18 -0.55 M0.48 -0.95 C61.01 1.46, 123.74 0.18, 179.65 -0.2 M178.15 -0.88 C181.42 11.91, 178.03 24.96, 181.64 50.12 M179.3 -0.85 C179.09 18.27, 179.81 35.59, 179.11 49.99 M180.46 50.99 C119.15 52.6, 58.53 51.49, -0.87 48.7 M179.91 49.42 C138.97 50.42, 98.55 50.35, -0.58 49.9 M-0.51 51.16 C-1.71 32.18, -1.13 15.41, 0.44 0.21 M-0.11 50.77 C0.15 36.56, 0.67 21.68, -0.6 0.41" stroke="#58a6ff" stroke-width="2" fill="none"></path></g><g transform="translate(688.8200454711914 322.5) rotate(0 51.179954528808594 12.5)"><text x="51.179954528808594" y="NaN" font-family="Virgil, Segoe UI Emoji" font-size="20px" fill="#ffffff" text-anchor="middle" style="white-space: pre;" direction="ltr">Partition 1</text></g><g stroke-linecap="round" transform="translate(870 310) rotate(0 90 25)"><path d="M-1.14 -0.02 L179.15 -1.57 L179.79 51.96 L-1.44 48.78" stroke="none" stroke-width="0" fill="#0d2c5a"></path><path d="M0.3 -1.59 C63.14 -0.11, 127.15 1.14, 179 1.02 M-0.11 0.11 C42.14 1.21, 82.83 1.65, 179.33 0.81 M180.3 0.13 C181.89 16.33, 181.27 33.4, 179.2 50.64 M180.49 -0.05 C179.69 10.51, 180.5 21.05, 180.73 49.4 M180.67 50.14 C107.99 51.75, 37.23 52.47, -1.52 51.09 M180.14 50.85 C119.97 52.29, 60.42 51.14, -0.82 50.07 M0.61 50.04 C-1.12 36.7, 0.53 21.41, -1.19 -0.62 M0.77 50.77 C0.82 33.19, -0.64 16.57, -0.83 0.37" stroke="#58a6ff" stroke-width="2" fill="none"></path></g><g transform="translate(904.4100494384766 322.5) rotate(0 55.58995056152344 12.5)"><text x="55.58995056152344" y="NaN" font-family="Virgil, Segoe UI Emoji" font-size="20px" fill="#ffffff" text-anchor="middle" style="white-space: pre;" direction="ltr">Partition 2</text></g><g transform="translate(430 380) rotate(0 102.54395294189453 10)"><text x="0" y="NaN" font-family="Virgil, Segoe UI Emoji" font-size="16px" fill="#8b949e" text-anchor="start" style="white-space: pre;" direction="ltr">offset: 0, 1, 2, 3, 4, 5 →</text></g><g stroke-opacity="0.6" fill-opacity="0.6" stroke-linecap="round" transform="translate(370 430) rotate(0 350 90)"><path d="M-0.17 -1.1 L700.79 -1.02 L698.85 181.71 L-0.23 178.2" stroke="none" stroke-width="0" fill="#161b22"></path><path d="M0.58 0.08 C243.66 1.49, 487.87 1.44, 699.3 -0.25 M699.99 -0.6 C698.47 65.6, 701 128.01, 699.69 178.65 M700.61 180.65 C544.79 178.76, 389.2 178.76, -0.18 179.77 M0.56 178.32 C0.94 139.31, 2.83 95.66, -1.65 -0.97" stroke="#30363d" stroke-width="2.5" fill="none" stroke-dasharray="8 10"></path></g><g transform="translate(630 440) rotate(0 69.47996520996094 11.25)"><text x="0" y="NaN" font-family="Virgil, Segoe UI Emoji" font-size="18px" fill="#8b949e" text-anchor="start" style="white-space: pre;" direction="ltr">Consumer Group</text></g><g stroke-linecap="round" transform="translate(410 490) rotate(0 100 32)"><path d="M-1.15 -1.8 L201.6 0.54 L198.33 64.31 L-0.19 62.11" stroke="none" stroke-width="0" fill="#1f4d2b"></path><path d="M0.79 0.05 C70.82 -0.5, 139.53 -0.22, 199.16 0.85 M-0.54 0.68 C47.9 0.79, 96.37 1.46, 199.57 0.3 M199.67 -1.37 C200.49 19.47, 198.79 38.67, 201.11 63.95 M199.47 -0.04 C200.73 20.36, 199.77 38.23, 200.8 64.93 M199.28 62.2 C130.82 63.73, 57.86 63.08, 0.76 64.94 M200.63 63.47 C142.6 63.47, 83.58 63.59, 0.51 64.44 M1.4 65.22 C-0.09 43.09, 0.24 20.56, 0.73 -0.68 M0.95 64.75 C-1.04 39.45, 0.55 15.16, -0.43 0.25" stroke="#3fb950" stroke-width="2" fill="none"></path></g><g transform="translate(454.5800476074219 497) rotate(0 55.419952392578125 25)"><text x="55.419952392578125" y="NaN" font-family="Virgil, Segoe UI Emoji" font-size="20px" fill="#ffffff" text-anchor="middle" style="white-space: pre;" direction="ltr">Consumer A</text><text x="55.419952392578125" y="NaN" font-family="Virgil, Segoe UI Emoji" font-size="20px" fill="#ffffff" text-anchor="middle" style="white-space: pre;" direction="ltr">(reads P0)</text></g><g stroke-linecap="round" transform="translate(650 490) rotate(0 100 32)"><path d="M0.45 -0.12 L201.79 -0.21 L199.34 65.24 L-0.49 64.24" stroke="none" stroke-width="0" fill="#1f4d2b"></path><path d="M0.27 -0.08 C69.67 -1.37, 141.12 -0.7, 199.9 -1.33 M0.73 -0.16 C66.57 0.61, 130.85 1.03, 199.28 -0.59 M201.81 -0.37 C200.99 24.87, 198.05 45.07, 198.67 64.47 M200.66 0.76 C199.22 23.63, 200.36 47.75, 200.43 64.33 M199.47 65.03 C158.39 62.96, 113.93 63.95, 0.17 63.49 M200.84 64.75 C121.55 65.24, 43.19 64.38, 0.29 64.59 M-1.48 64.1 C0.38 44.35, -2.23 24.03, -0.91 -1.5 M-0.18 64.74 C-0.44 48.11, -0.82 34.11, -0.66 0.2" stroke="#3fb950" stroke-width="2" fill="none"></path></g><g transform="translate(693.8700485229492 497) rotate(0 56.12995147705078 25)"><text x="56.12995147705078" y="NaN" font-family="Virgil, Segoe UI Emoji" font-size="20px" fill="#ffffff" text-anchor="middle" style="white-space: pre;" direction="ltr">Consumer B</text><text x="56.12995147705078" y="NaN" font-family="Virgil, Segoe UI Emoji" font-size="20px" fill="#ffffff" text-anchor="middle" style="white-space: pre;" direction="ltr">(reads P1)</text></g><g stroke-linecap="round" transform="translate(890 490) rotate(0 100 32)"><path d="M-1.95 1.57 L201.97 -0.97 L200.36 62.18 L-0.78 62.37" stroke="none" stroke-width="0" fill="#1f4d2b"></path><path d="M-0.24 -0.21 C68.52 1.35, 139.11 -1.19, 200.64 0.08 M0.19 0.79 C43.43 -1.37, 85.32 -1.2, 200.79 0.32 M199.96 0.64 C201.48 13.47, 201.31 29.86, 200.23 65 M199.85 -0.43 C200.99 16.09, 200.22 31.68, 200.06 63.74 M199.66 64.26 C142.36 65.79, 89.99 64.82, -0.42 65.64 M199.24 64.23 C140.51 61.62, 80.99 61.58, 0.07 64.74 M-0.36 62.97 C2.12 49.62, 0.59 31.5, 1.46 1.67 M0.69 64.73 C1.44 45.97, 1.09 27.46, -0.9 0.15" stroke="#3fb950" stroke-width="2" fill="none"></path></g><g transform="translate(934.7000503540039 497) rotate(0 55.299949645996094 25)"><text x="55.299949645996094" y="NaN" font-family="Virgil, Segoe UI Emoji" font-size="20px" fill="#ffffff" text-anchor="middle" style="white-space: pre;" direction="ltr">Consumer C</text><text x="55.299949645996094" y="NaN" font-family="Virgil, Segoe UI Emoji" font-size="20px" fill="#ffffff" text-anchor="middle" style="white-space: pre;" direction="ltr">(reads P2)</text></g><g stroke-linecap="round"><g transform="translate(236 106.26827180510038) rotate(0 84.00000000000003 16.986713439347916)"><path d="M0.7 -0.5 C28.56 5.19, 139.72 28.88, 167.77 34.75 M-0.39 -1.81 C27.24 3.49, 138.51 27.27, 166.7 33.03" stroke="#3fb950" stroke-width="2" fill="none"></path></g><g transform="translate(236 106.26827180510038) rotate(0 84.00000000000003 16.986713439347916)"><path d="M136.17 36.92 C148.64 37.33, 158.91 33.44, 168.24 34.68 M136.63 37.23 C146.39 35.46, 154.89 34.09, 167.26 32.4" stroke="#3fb950" stroke-width="2" fill="none"></path></g><g transform="translate(236 106.26827180510038) rotate(0 84.00000000000003 16.986713439347916)"><path d="M140.37 16.83 C151.47 24.28, 160.28 27.4, 168.24 34.68 M140.83 17.15 C149.35 21.41, 156.6 26.05, 167.26 32.4" stroke="#3fb950" stroke-width="2" fill="none"></path></g></g><g transform="translate(298.6700210571289 111) rotate(0 21.329978942871094 11.25)"><text x="21.329978942871094" y="NaN" font-family="Virgil, Segoe UI Emoji" font-size="18px" fill="#c9d1d9" text-anchor="middle" style="white-space: pre;" direction="ltr">write</text></g><g stroke-linecap="round"><g transform="translate(236 209.57195577007832) rotate(0 204 -30.96310741737696)"><path d="M-0.73 -0.85 C67.12 -11, 339.73 -51.64, 407.68 -61.92 M1.09 1.32 C68.7 -8.54, 338.52 -49.9, 406.57 -60.38" stroke="#3fb950" stroke-width="2" fill="none"></path></g><g transform="translate(236 209.57195577007832) rotate(0 204 -30.96310741737696)"><path d="M378.85 -46.49 C389.58 -52.48, 397.71 -55.49, 404.94 -61.16 M379.29 -44.97 C390.76 -50.72, 401.08 -56.64, 406.81 -60" stroke="#3fb950" stroke-width="2" fill="none"></path></g><g transform="translate(236 209.57195577007832) rotate(0 204 -30.96310741737696)"><path d="M375.74 -66.77 C387.38 -65.67, 396.6 -61.6, 404.94 -61.16 M376.17 -65.25 C388.67 -63.22, 400.2 -61.33, 406.81 -60" stroke="#3fb950" stroke-width="2" fill="none"></path></g></g><g transform="translate(418.6700210571289 166) rotate(0 21.329978942871094 11.25)"><text x="21.329978942871094" y="NaN" font-family="Virgil, Segoe UI Emoji" font-size="18px" fill="#c9d1d9" text-anchor="middle" style="white-space: pre;" direction="ltr">write</text></g><g stroke-linecap="round"><g transform="translate(519.2871883777246 365.99999999999994) rotate(0 -4.2967124226643705 59.00000000000003)"><path d="M0.24 -1.19 C-1.35 18.38, -7.42 97.3, -9 117.24" stroke="#58a6ff" stroke-width="2.5" fill="none" stroke-dasharray="8 10"></path></g><g transform="translate(519.2871883777246 365.99999999999994) rotate(0 -4.2967124226643705 59.00000000000003)"><path d="M-19.02 87.66 C-15.55 97.41, -10.76 109.96, -9.8 118.03" stroke="#58a6ff" stroke-width="2.5" fill="none"></path></g><g transform="translate(519.2871883777246 365.99999999999994) rotate(0 -4.2967124226643705 59.00000000000003)"><path d="M1.44 89.26 C-2.23 98.49, -4.58 110.48, -9.8 118.03" stroke="#58a6ff" stroke-width="2.5" fill="none"></path></g></g><g transform="translate(500.7170104980469 412.5) rotate(0 14.282989501953125 11.25)"><text x="14.282989501953125" y="NaN" font-family="Virgil, Segoe UI Emoji" font-size="18px" fill="#c9d1d9" text-anchor="middle" style="white-space: pre;" direction="ltr">pull</text></g><g stroke-linecap="round"><g transform="translate(740.7065250027686 366) rotate(0 4.2963271379250045 58.99999999999997)"><path d="M-1.18 0.87 C0.07 20.58, 6.51 99.5, 8.1 118.87" stroke="#58a6ff" stroke-width="2.5" fill="none" stroke-dasharray="8 10"></path></g><g transform="translate(740.7065250027686 366) rotate(0 4.2963271379250045 58.99999999999997)"><path d="M-2.97 90.79 C1.55 100.91, 2.94 109.3, 8.12 117.23" stroke="#58a6ff" stroke-width="2.5" fill="none"></path></g><g transform="translate(740.7065250027686 366) rotate(0 4.2963271379250045 58.99999999999997)"><path d="M17.49 89.12 C14.87 99.62, 9.12 108.6, 8.12 117.23" stroke="#58a6ff" stroke-width="2.5" fill="none"></path></g></g><g transform="translate(730.7170104980469 412.5) rotate(0 14.282989501953125 11.25)"><text x="14.282989501953125" y="NaN" font-family="Virgil, Segoe UI Emoji" font-size="18px" fill="#c9d1d9" text-anchor="middle" style="white-space: pre;" direction="ltr">pull</text></g><g stroke-linecap="round"><g transform="translate(962.108504638916 366) rotate(0 12.907682361648654 59)"><path d="M-0.21 0.53 C3.9 20.37, 20.87 98.5, 25.24 118.1" stroke="#58a6ff" stroke-width="2.5" fill="none" stroke-dasharray="8 10"></path></g><g transform="translate(962.108504638916 366) rotate(0 12.907682361648654 59)"><path d="M10.05 91.81 C14.75 101.95, 20.42 110.1, 26.08 118.04" stroke="#58a6ff" stroke-width="2.5" fill="none"></path></g><g transform="translate(962.108504638916 366) rotate(0 12.907682361648654 59)"><path d="M30.1 87.41 C27.76 99.05, 26.44 108.74, 26.08 118.04" stroke="#58a6ff" stroke-width="2.5" fill="none"></path></g></g><g transform="translate(960.7170104980469 412.5) rotate(0 14.282989501953125 11.25)"><text x="14.282989501953125" y="NaN" font-family="Virgil, Segoe UI Emoji" font-size="18px" fill="#c9d1d9" text-anchor="middle" style="white-space: pre;" direction="ltr">pull</text></g><g stroke-linecap="round"><g transform="translate(616 122.49358414677748) rotate(0 14 -0.0001459568696873248)"><path d="M0.76 0.18 C5.22 0.1, 22.7 -0.83, 27.34 -0.66" stroke="#f0883e" stroke-width="2.5" fill="none" stroke-dasharray="8 10"></path></g><g transform="translate(616 122.49358414677748) rotate(0 14 -0.0001459568696873248)"><path d="M14.46 3.53 C18.05 3.16, 24.79 1.24, 28.51 0.39" stroke="#f0883e" stroke-width="2.5" fill="none"></path></g><g transform="translate(616 122.49358414677748) rotate(0 14 -0.0001459568696873248)"><path d="M14.33 -6.05 C17.95 -3.08, 24.74 -1.65, 28.51 0.39" stroke="#f0883e" stroke-width="2.5" fill="none"></path></g></g><g transform="translate(591.9030303955078 117.5) rotate(0 38.09696960449219 11.25)"><text x="38.09696960449219" y="NaN" font-family="Virgil, Segoe UI Emoji" font-size="18px" fill="#c9d1d9" text-anchor="middle" style="white-space: pre;" direction="ltr">replicate</text></g></svg>