<svg version="1.1" xmlns="http://www.w3.org/2000/svg" viewBox="0 0 1282.8797912597656 1170" width="1282.8797912597656" height="1170">
  <!-- svg-source:excalidraw -->
  
  <defs>
    <style>
      @font-face {
        font-family: "Virgil";
        src: url("https://excalidraw.com/Virgil.woff2");
      }
      @font-face {
        font-family: "Cascadia";
        src: url("https://excalidraw.com/Cascadia.woff2");
      }
    </style>
  </defs>
  <rect x="0" y="0" width="1282.8797912597656" height="1170" fill="#0d1117"></rect><g stroke-linecap="round" transform="translate(174.22390747070312 10) rotate(0 80 25)"><path d="M1.65 -0.12 L161.68 1.8 L161.93 50.37 L-0.22 48.84" stroke="none" stroke-width="0" fill="#3a1d6e"></path><path d="M0.11 -1.72 C49.4 0.16, 99.29 -0.74, 158.99 1.66 M-0.6 -0.75 C52.12 1.24, 104 1.09, 159.9 0.82 M160.39 0.96 C161.52 15.67, 158.12 32.92, 158.36 50.24 M160.37 -0.98 C160.74 14.98, 161.1 30.36, 159.49 49.82 M158.25 49.08 C122.89 53.09, 87.67 49.47, -0.31 51.15 M160.88 50.71 C111.16 49.47, 62.6 49.66, -0.07 49.34 M-1.9 51.63 C-0.85 40.2, 1.76 26.21, 1.32 -1.51 M0.82 49.12 C-1.01 38.26, -1.07 26.1, -0.91 -0.55" stroke="#a371f7" stroke-width="2" fill="none"></path></g><g transform="translate(245.4339141845703 22.5) rotate(0 8.789993286132812 12.5)"><text x="8.789993286132812" y="NaN" font-family="Virgil, Segoe UI Emoji" font-size="20px" fill="#ffffff" text-anchor="middle" style="white-space: pre;" direction="ltr">S1</text></g><g stroke-linecap="round"><g transform="translate(254.22390747070312 60) rotate(0 0 525)"><path d="M0.65 -0.28 C0.43 174.79, -1.05 875.99, -1.12 1051.07" stroke="#30363d" stroke-width="1.5" fill="none" stroke-dasharray="8 9"></path></g></g><g stroke-linecap="round" transform="translate(174.22390747070312 1110) rotate(0 80 25)"><path d="M0.05 0.41 L159.95 0.66 L159.45 51.78 L1.34 50.03" stroke="none" stroke-width="0" fill="#3a1d6e"></path><path d="M1.25 0.06 C51.48 -2.8, 99.94 -1.07, 158.23 0.01 M-0.49 0.84 C41.26 -0.82, 81.52 -0.39, 160.42 -0.66 M161.61 -1.54 C159.72 10.3, 160.48 21.58, 158.7 49.02 M160.15 0.22 C160.13 14.34, 160.64 29.56, 159.93 49.93 M160.57 51.8 C110.02 51.83, 55.47 52.95, -1.29 48.73 M159.22 49.85 C101.75 52.15, 45.63 50.71, -0.43 49.6 M1.78 49.94 C-1.46 32.99, -1.25 15.2, 0.88 -0.75 M0.13 49.11 C0.49 39.21, -0.54 28.44, -0.27 -0.62" stroke="#a371f7" stroke-width="2" fill="none"></path></g><g transform="translate(245.4339141845703 1122.5) rotate(0 8.789993286132812 12.5)"><text x="8.789993286132812" y="NaN" font-family="Virgil, Segoe UI Emoji" font-size="20px" fill="#ffffff" text-anchor="middle" style="white-space: pre;" direction="ltr">S1</text></g><g stroke-linecap="round" transform="translate(574.2239074707031 10) rotate(0 80 25)"><path d="M0.91 0.34 L158.32 1.78 L159.6 48.51 L-1.36 50.14" stroke="none" stroke-width="0" fill="#0d2c5a"></path><path d="M-0.65 -0.41 C35.11 -0.51, 75.15 0.57, 158.77 -1.07 M-0.55 0.23 C36.39 2.35, 73.09 0.63, 160.39 0.89 M159.24 -0.33 C162.17 9.23, 158.68 21.73, 159.32 51.35 M160.44 0.83 C160.08 15.41, 159.78 31.86, 160.57 49.28 M159.45 48.37 C119.25 50.8, 82.03 52.1, 1.55 48.7 M160.7 49.57 C122.55 50.49, 86.7 51.14, 0.93 50.65 M0.92 49.54 C1.4 32.28, 0.35 10.92, -1.94 -1.81 M-0.58 49.24 C-0.94 33.36, 0.43 17.48, -0.27 -0.08" stroke="#58a6ff" stroke-width="2" fill="none"></path></g><g transform="translate(641.0239181518555 22.5) rotate(0 13.199989318847656 12.5)"><text x="13.199989318847656" y="NaN" font-family="Virgil, Segoe UI Emoji" font-size="20px" fill="#ffffff" text-anchor="middle" style="white-space: pre;" direction="ltr">S2</text></g><g stroke-linecap="round"><g transform="translate(654.2239074707031 60) rotate(0 0 525)"><path d="M0.08 -0.73 C0.16 174.54, -0.21 875.62, -0.33 1050.7" stroke="#30363d" stroke-width="1.5" fill="none" stroke-dasharray="8 9"></path></g></g><g stroke-linecap="round" transform="translate(574.2239074707031 1110) rotate(0 80 25)"><path d="M-0.69 0.87 L160.59 0.65 L161.12 49.91 L0.19 51.33" stroke="none" stroke-width="0" fill="#0d2c5a"></path><path d="M0.5 1.37 C37.2 0.52, 71.79 0.24, 158.01 1.28 M-0.45 -0.18 C57.52 0.29, 114.6 1.15, 160.91 -0.59 M160.46 1.17 C160.37 13.86, 161.04 30.39, 159.67 50.13 M160.22 0.04 C159.47 16.77, 159.32 33.06, 159.02 49.4 M161.77 51.09 C106.38 49.54, 49.84 51.58, 0.57 50.28 M159.04 50.71 C115.15 51.17, 69.73 52.19, 0.56 50.9 M0.59 51.86 C0.79 35.07, 1.35 19.92, 1.61 -1.05 M0.73 49.23 C0.56 34.31, 0.97 19.82, 0.37 -0.15" stroke="#58a6ff" stroke-width="2" fill="none"></path></g><g transform="translate(641.0239181518555 1122.5) rotate(0 13.199989318847656 12.5)"><text x="13.199989318847656" y="NaN" font-family="Virgil, Segoe UI Emoji" font-size="20px" fill="#ffffff" text-anchor="middle" style="white-space: pre;" direction="ltr">S2</text></g><g stroke-linecap="round" transform="translate(974.2239074707031 10) rotate(0 80 25)"><path d="M0.16 0.8 L158.95 1.76 L161.27 50.65 L1.5 51.44" stroke="none" stroke-width="0" fill="#1f4d2b"></path><path d="M-1.4 0.9 C56.83 -0.39, 111 -1.32, 158.56 0.19 M-0.51 -0.78 C52.66 0.27, 106.17 -1.03, 160.87 0.96 M158.09 -1.62 C157.81 16.79, 158.24 30.54, 160.29 48.46 M160.51 0.65 C160.41 17.83, 159.46 35.35, 159.66 50.75 M160.65 51.66 C119.61 52.51, 76.4 50.73, -0.59 50.25 M160.52 50.43 C103.94 51.51, 46.8 50.62, -0.07 49.95 M-0.26 51.46 C-0.35 34.35, -1.05 19.63, -1.21 1.88 M0.02 49.36 C-0.87 40.46, -0.07 30.86, 0.37 0.38" stroke="#3fb950" stroke-width="2" fill="none"></path></g><g transform="translate(1041.3339157104492 22.5) rotate(0 12.889991760253906 12.5)"><text x="12.889991760253906" y="NaN" font-family="Virgil, Segoe UI Emoji" font-size="20px" fill="#ffffff" text-anchor="middle" style="white-space: pre;" direction="ltr">S3</text></g><g stroke-linecap="round"><g transform="translate(1054.2239074707031 60) rotate(0 0 525)"><path d="M-0.49 -1.18 C-0.5 173.88, 0.22 875.26, 0.45 1050.33" stroke="#30363d" stroke-width="1.5" fill="none" stroke-dasharray="8 9"></path></g></g><g stroke-linecap="round" transform="translate(974.2239074707031 1110) rotate(0 80 25)"><path d="M-1.44 1.33 L161.22 0.63 L158.79 48.05 L-0.95 48.64" stroke="none" stroke-width="0" fill="#1f4d2b"></path><path d="M-0.25 -1.32 C54.92 -0.16, 111.64 1.55, 161.8 -1.45 M-0.4 0.81 C41.79 1.41, 83.69 0.69, 159.39 -0.52 M159.31 -0.12 C161.02 11.42, 161.6 19.2, 160.63 51.24 M160.29 -0.15 C159.81 17.19, 158.99 36.55, 160.1 50.86 M158.97 50.38 C102.75 51.24, 48.2 50.21, -1.57 51.83 M160.86 49.57 C126.54 49, 91.83 48.47, -0.44 50.2 M-0.59 49.77 C-0.96 37.14, -0.06 24.63, -1.66 -1.35 M-0.67 49.35 C0.63 31.41, 0.47 11.2, -0.98 0.31" stroke="#3fb950" stroke-width="2" fill="none"></path></g><g transform="translate(1041.3339157104492 1122.5) rotate(0 12.889991760253906 12.5)"><text x="12.889991760253906" y="NaN" font-family="Virgil, Segoe UI Emoji" font-size="20px" fill="#ffffff" text-anchor="middle" style="white-space: pre;" direction="ltr">S3</text></g><g stroke-linecap="round" transform="translate(248.22390747070312 134) rotate(0 6 6)"><path d="M12 6 C12 6.35, 11.97 6.7, 11.91 7.04 C11.85 7.38, 11.76 7.73, 11.64 8.05 C11.52 8.38, 11.37 8.7, 11.2 9 C11.02 9.3, 10.82 9.59, 10.6 9.86 C10.37 10.12, 10.12 10.37, 9.86 10.6 C9.59 10.82, 9.3 11.02, 9 11.2 C8.7 11.37, 8.38 11.52, 8.05 11.64 C7.73 11.76, 7.38 11.85, 7.04 11.91 C6.7 11.97, 6.35 12, 6 12 C5.65 12, 5.3 11.97, 4.96 11.91 C4.62 11.85, 4.27 11.76, 3.95 11.64 C3.62 11.52, 3.3 11.37, 3 11.2 C2.7 11.02, 2.41 10.82, 2.14 10.6 C1.88 10.37, 1.63 10.12, 1.4 9.86 C1.18 9.59, 0.98 9.3, 0.8 9 C0.63 8.7, 0.48 8.38, 0.36 8.05 C0.24 7.73, 0.15 7.38, 0.09 7.04 C0.03 6.7, 0 6.35, 0 6 C0 5.65, 0.03 5.3, 0.09 4.96 C0.15 4.62, 0.24 4.27, 0.36 3.95 C0.48 3.62, 0.63 3.3, 0.8 3 C0.98 2.7, 1.18 2.41, 1.4 2.14 C1.63 1.88, 1.88 1.63, 2.14 1.4 C2.41 1.18, 2.7 0.98, 3 0.8 C3.3 0.63, 3.62 0.48, 3.95 0.36 C4.27 0.24, 4.62 0.15, 4.96 0.09 C5.3 0.03, 5.65 0, 6 0 C6.35 0, 6.7 0.03, 7.04 0.09 C7.38 0.15, 7.73 0.24, 8.05 0.36 C8.38 0.48, 8.7 0.63, 9 0.8 C9.3 0.98, 9.59 1.18, 9.86 1.4 C10.12 1.63, 10.37 1.88, 10.6 2.14 C10.82 2.41, 11.02 2.7, 11.2 3 C11.37 3.3, 11.52 3.62, 11.64 3.95 C11.76 4.27, 11.85 4.62, 11.91 4.96 C11.97 5.3, 11.98 5.83, 12 6 C12.02 6.17, 12.02 5.83, 12 6" stroke="none" stroke-width="0" fill="#a371f7"></path><path d="M12 6 C12 6.35, 11.97 6.7, 11.91 7.04 C11.85 7.38, 11.76 7.73, 11.64 8.05 C11.52 8.38, 11.37 8.7, 11.2 9 C11.02 9.3, 10.82 9.59, 10.6 9.86 C10.37 10.12, 10.12 10.37, 9.86 10.6 C9.59 10.82, 9.3 11.02, 9 11.2 C8.7 11.37, 8.38 11.52, 8.05 11.64 C7.73 11.76, 7.38 11.85, 7.04 11.91 C6.7 11.97, 6.35 12, 6 12 C5.65 12, 5.3 11.97, 4.96 11.91 C4.62 11.85, 4.27 11.76, 3.95 11.64 C3.62 11.52, 3.3 11.37, 3 11.2 C2.7 11.02, 2.41 10.82, 2.14 10.6 C1.88 10.37, 1.63 10.12, 1.4 9.86 C1.18 9.59, 0.98 9.3, 0.8 9 C0.63 8.7, 0.48 8.38, 0.36 8.05 C0.24 7.73, 0.15 7.38, 0.09 7.04 C0.03 6.7, 0 6.35, 0 6 C0 5.65, 0.03 5.3, 0.09 4.96 C0.15 4.62, 0.24 4.27, 0.36 3.95 C0.48 3.62, 0.63 3.3, 0.8 3 C0.98 2.7, 1.18 2.41, 1.4 2.14 C1.63 1.88, 1.88 1.63, 2.14 1.4 C2.41 1.18, 2.7 0.98, 3 0.8 C3.3 0.63, 3.62 0.48, 3.95 0.36 C4.27 0.24, 4.62 0.15, 4.96 0.09 C5.3 0.03, 5.65 0, 6 0 C6.35 0, 6.7 0.03, 7.04 0.09 C7.38 0.15, 7.73 0.24, 8.05 0.36 C8.38 0.48, 8.7 0.63, 9 0.8 C9.3 0.98, 9.59 1.18, 9.86 1.4 C10.12 1.63, 10.37 1.88, 10.6 2.14 C10.82 2.41, 11.02 2.7, 11.2 3 C11.37 3.3, 11.52 3.62, 11.64 3.95 C11.76 4.27, 11.85 4.62, 11.91 4.96 C11.97 5.3, 11.98 5.83, 12 6 C12.02 6.17, 12.02 5.83, 12 6" stroke="#a371f7" stroke-width="2" fill="none"></path></g><g transform="translate(10 118) rotate(0 77.11195373535156 20)"><text x="154.22390747070312" y="NaN" font-family="Virgil, Segoe UI Emoji" font-size="16px" fill="#c9d1d9" text-anchor="end" style="white-space: pre;" direction="ltr">Step 1: create post</text><text x="154.22390747070312" y="NaN" font-family="Virgil, Segoe UI Emoji" font-size="16px" fill="#c9d1d9" text-anchor="end" style="white-space: pre;" direction="ltr">[1, 0, 0]</text></g><g stroke-linecap="round"><g transform="translate(260.2239074707031 140) rotate(0 194 85)"><path d="M-0.2 0.66 C64.27 28.92, 322.82 142.2, 387.72 170.35" stroke="#f0883e" stroke-width="2.5" fill="none" stroke-dasharray="8 10"></path></g><g transform="translate(260.2239074707031 140) rotate(0 194 85)"><path d="M358.88 168.01 C369.54 171.22, 379.47 170.96, 385.84 169.08" stroke="#f0883e" stroke-width="2.5" fill="none"></path></g><g transform="translate(260.2239074707031 140) rotate(0 194 85)"><path d="M367.08 149.2 C374.82 159.41, 381.68 166.17, 385.84 169.08" stroke="#f0883e" stroke-width="2.5" fill="none"></path></g></g><g transform="translate(409.8899459838867 213.75) rotate(0 44.333961486816406 11.25)"><text x="44.333961486816406" y="NaN" font-family="Virgil, Segoe UI Emoji" font-size="18px" fill="#f0883e" text-anchor="middle" style="white-space: pre;" direction="ltr">replication</text></g><g stroke-linecap="round" transform="translate(648.2239074707031 304) rotate(0 6 6)"><path d="M12 6 C12 6.35, 11.97 6.7, 11.91 7.04 C11.85 7.38, 11.76 7.73, 11.64 8.05 C11.52 8.38, 11.37 8.7, 11.2 9 C11.02 9.3, 10.82 9.59, 10.6 9.86 C10.37 10.12, 10.12 10.37, 9.86 10.6 C9.59 10.82, 9.3 11.02, 9 11.2 C8.7 11.37, 8.38 11.52, 8.05 11.64 C7.73 11.76, 7.38 11.85, 7.04 11.91 C6.7 11.97, 6.35 12, 6 12 C5.65 12, 5.3 11.97, 4.96 11.91 C4.62 11.85, 4.27 11.76, 3.95 11.64 C3.62 11.52, 3.3 11.37, 3 11.2 C2.7 11.02, 2.41 10.82, 2.14 10.6 C1.88 10.37, 1.63 10.12, 1.4 9.86 C1.18 9.59, 0.98 9.3, 0.8 9 C0.63 8.7, 0.48 8.38, 0.36 8.05 C0.24 7.73, 0.15 7.38, 0.09 7.04 C0.03 6.7, 0 6.35, 0 6 C0 5.65, 0.03 5.3, 0.09 4.96 C0.15 4.62, 0.24 4.27, 0.36 3.95 C0.48 3.62, 0.63 3.3, 0.8 3 C0.98 2.7, 1.18 2.41, 1.4 2.14 C1.63 1.88, 1.88 1.63, 2.14 1.4 C2.41 1.18, 2.7 0.98, 3 0.8 C3.3 0.63, 3.62 0.48, 3.95 0.36 C4.27 0.24, 4.62 0.15, 4.96 0.09 C5.3 0.03, 5.65 0, 6 0 C6.35 0, 6.7 0.03, 7.04 0.09 C7.38 0.15, 7.73 0.24, 8.05 0.36 C8.38 0.48, 8.7 0.63, 9 0.8 C9.3 0.98, 9.59 1.18, 9.86 1.4 C10.12 1.63, 10.37 1.88, 10.6 2.14 C10.82 2.41, 11.02 2.7, 11.2 3 C11.37 3.3, 11.52 3.62, 11.64 3.95 C11.76 4.27, 11.85 4.62, 11.91 4.96 C11.97 5.3, 11.98 5.83, 12 6 C12.02 6.17, 12.02 5.83, 12 6" stroke="none" stroke-width="0" fill="#58a6ff"></path><path d="M12 6 C12 6.35, 11.97 6.7, 11.91 7.04 C11.85 7.38, 11.76 7.73, 11.64 8.05 C11.52 8.38, 11.37 8.7, 11.2 9 C11.02 9.3, 10.82 9.59, 10.6 9.86 C10.37 10.12, 10.12 10.37, 9.86 10.6 C9.59 10.82, 9.3 11.02, 9 11.2 C8.7 11.37, 8.38 11.52, 8.05 11.64 C7.73 11.76, 7.38 11.85, 7.04 11.91 C6.7 11.97, 6.35 12, 6 12 C5.65 12, 5.3 11.97, 4.96 11.91 C4.62 11.85, 4.27 11.76, 3.95 11.64 C3.62 11.52, 3.3 11.37, 3 11.2 C2.7 11.02, 2.41 10.82, 2.14 10.6 C1.88 10.37, 1.63 10.12, 1.4 9.86 C1.18 9.59, 0.98 9.3, 0.8 9 C0.63 8.7, 0.48 8.38, 0.36 8.05 C0.24 7.73, 0.15 7.38, 0.09 7.04 C0.03 6.7, 0 6.35, 0 6 C0 5.65, 0.03 5.3, 0.09 4.96 C0.15 4.62, 0.24 4.27, 0.36 3.95 C0.48 3.62, 0.63 3.3, 0.8 3 C0.98 2.7, 1.18 2.41, 1.4 2.14 C1.63 1.88, 1.88 1.63, 2.14 1.4 C2.41 1.18, 2.7 0.98, 3 0.8 C3.3 0.63, 3.62 0.48, 3.95 0.36 C4.27 0.24, 4.62 0.15, 4.96 0.09 C5.3 0.03, 5.65 0, 6 0 C6.35 0, 6.7 0.03, 7.04 0.09 C7.38 0.15, 7.73 0.24, 8.05 0.36 C8.38 0.48, 8.7 0.63, 9 0.8 C9.3 0.98, 9.59 1.18, 9.86 1.4 C10.12 1.63, 10.37 1.88, 10.6 2.14 C10.82 2.41, 11.02 2.7, 11.2 3 C11.37 3.3, 11.52 3.62, 11.64 3.95 C11.76 4.27, 11.85 4.62, 11.91 4.96 C11.97 5.3, 11.98 5.83, 12 6 C12.02 6.17, 12.02 5.83, 12 6" stroke="#58a6ff" stroke-width="2" fill="none"></path></g><g transform="translate(674.2239074707031 288) rotate(0 88.81596374511719 20)"><text x="0" y="NaN" font-family="Virgil, Segoe UI Emoji" font-size="16px" fill="#c9d1d9" text-anchor="start" style="white-space: pre;" direction="ltr">Step 2: receive post</text><text x="0" y="NaN" font-family="Virgil, Segoe UI Emoji" font-size="16px" fill="#c9d1d9" text-anchor="start" style="white-space: pre;" direction="ltr">merge + inc -&gt; [1, 1, 0]</text></g><g stroke-linecap="round" transform="translate(648.2239074707031 414) rotate(0 6 6)"><path d="M12 6 C12 6.35, 11.97 6.7, 11.91 7.04 C11.85 7.38, 11.76 7.73, 11.64 8.05 C11.52 8.38, 11.37 8.7, 11.2 9 C11.02 9.3, 10.82 9.59, 10.6 9.86 C10.37 10.12, 10.12 10.37, 9.86 10.6 C9.59 10.82, 9.3 11.02, 9 11.2 C8.7 11.37, 8.38 11.52, 8.05 11.64 C7.73 11.76, 7.38 11.85, 7.04 11.91 C6.7 11.97, 6.35 12, 6 12 C5.65 12, 5.3 11.97, 4.96 11.91 C4.62 11.85, 4.27 11.76, 3.95 11.64 C3.62 11.52, 3.3 11.37, 3 11.2 C2.7 11.02, 2.41 10.82, 2.14 10.6 C1.88 10.37, 1.63 10.12, 1.4 9.86 C1.18 9.59, 0.98 9.3, 0.8 9 C0.63 8.7, 0.48 8.38, 0.36 8.05 C0.24 7.73, 0.15 7.38, 0.09 7.04 C0.03 6.7, 0 6.35, 0 6 C0 5.65, 0.03 5.3, 0.09 4.96 C0.15 4.62, 0.24 4.27, 0.36 3.95 C0.48 3.62, 0.63 3.3, 0.8 3 C0.98 2.7, 1.18 2.41, 1.4 2.14 C1.63 1.88, 1.88 1.63, 2.14 1.4 C2.41 1.18, 2.7 0.98, 3 0.8 C3.3 0.63, 3.62 0.48, 3.95 0.36 C4.27 0.24, 4.62 0.15, 4.96 0.09 C5.3 0.03, 5.65 0, 6 0 C6.35 0, 6.7 0.03, 7.04 0.09 C7.38 0.15, 7.73 0.24, 8.05 0.36 C8.38 0.48, 8.7 0.63, 9 0.8 C9.3 0.98, 9.59 1.18, 9.86 1.4 C10.12 1.63, 10.37 1.88, 10.6 2.14 C10.82 2.41, 11.02 2.7, 11.2 3 C11.37 3.3, 11.52 3.62, 11.64 3.95 C11.76 4.27, 11.85 4.62, 11.91 4.96 C11.97 5.3, 11.98 5.83, 12 6 C12.02 6.17, 12.02 5.83, 12 6" stroke="none" stroke-width="0" fill="#58a6ff"></path><path d="M12 6 C12 6.35, 11.97 6.7, 11.91 7.04 C11.85 7.38, 11.76 7.73, 11.64 8.05 C11.52 8.38, 11.37 8.7, 11.2 9 C11.02 9.3, 10.82 9.59, 10.6 9.86 C10.37 10.12, 10.12 10.37, 9.86 10.6 C9.59 10.82, 9.3 11.02, 9 11.2 C8.7 11.37, 8.38 11.52, 8.05 11.64 C7.73 11.76, 7.38 11.85, 7.04 11.91 C6.7 11.97, 6.35 12, 6 12 C5.65 12, 5.3 11.97, 4.96 11.91 C4.62 11.85, 4.27 11.76, 3.95 11.64 C3.62 11.52, 3.3 11.37, 3 11.2 C2.7 11.02, 2.41 10.82, 2.14 10.6 C1.88 10.37, 1.63 10.12, 1.4 9.86 C1.18 9.59, 0.98 9.3, 0.8 9 C0.63 8.7, 0.48 8.38, 0.36 8.05 C0.24 7.73, 0.15 7.38, 0.09 7.04 C0.03 6.7, 0 6.35, 0 6 C0 5.65, 0.03 5.3, 0.09 4.96 C0.15 4.62, 0.24 4.27, 0.36 3.95 C0.48 3.62, 0.63 3.3, 0.8 3 C0.98 2.7, 1.18 2.41, 1.4 2.14 C1.63 1.88, 1.88 1.63, 2.14 1.4 C2.41 1.18, 2.7 0.98, 3 0.8 C3.3 0.63, 3.62 0.48, 3.95 0.36 C4.27 0.24, 4.62 0.15, 4.96 0.09 C5.3 0.03, 5.65 0, 6 0 C6.35 0, 6.7 0.03, 7.04 0.09 C7.38 0.15, 7.73 0.24, 8.05 0.36 C8.38 0.48, 8.7 0.63, 9 0.8 C9.3 0.98, 9.59 1.18, 9.86 1.4 C10.12 1.63, 10.37 1.88, 10.6 2.14 C10.82 2.41, 11.02 2.7, 11.2 3 C11.37 3.3, 11.52 3.62, 11.64 3.95 C11.76 4.27, 11.85 4.62, 11.91 4.96 C11.97 5.3, 11.98 5.83, 12 6 C12.02 6.17, 12.02 5.83, 12 6" stroke="#58a6ff" stroke-width="2" fill="none"></path></g><g transform="translate(769.9569332758314 387.7643901344793) rotate(0 87.25595092773438 20)"><text x="0" y="NaN" font-family="Virgil, Segoe UI Emoji" font-size="16px" fill="#c9d1d9" text-anchor="start" style="white-space: pre;" direction="ltr">Step 3: write comment</text><text x="0" y="NaN" font-family="Virgil, Segoe UI Emoji" font-size="16px" fill="#c9d1d9" text-anchor="start" style="white-space: pre;" direction="ltr">[1, 2, 0]</text></g><g transform="translate(567.670162157664 497.31386151045933) rotate(0 111.52795410156253 30)"><text x="0" y="NaN" font-family="Virgil, Segoe UI Emoji" font-size="16px" fill="#f0883e" text-anchor="start" style="white-space: pre;" direction="ltr">The 1 in the S1 slot encodes</text><text x="0" y="NaN" font-family="Virgil, Segoe UI Emoji" font-size="16px" fill="#f0883e" text-anchor="start" style="white-space: pre;" direction="ltr">that the comment depends</text><text x="0" y="NaN" font-family="Virgil, Segoe UI Emoji" font-size="16px" fill="#f0883e" text-anchor="start" style="white-space: pre;" direction="ltr">on the post</text></g><g stroke-linecap="round"><g transform="translate(660.9158643737269 355.3032881524946) rotate(0 193.65402154848815 132.3483559237527)"><path d="M0.49 -0.69 C64.96 43.14, 322.35 219.62, 386.99 263.94" stroke="#f0883e" stroke-width="2.5" fill="none" stroke-dasharray="8 10"></path></g><g transform="translate(660.9158643737269 355.3032881524946) rotate(0 193.65402154848815 132.3483559237527)"><path d="M356.78 255.92 C365.93 260.4, 377.3 259.77, 388.46 262.47" stroke="#f0883e" stroke-width="2.5" fill="none"></path></g><g transform="translate(660.9158643737269 355.3032881524946) rotate(0 193.65402154848815 132.3483559237527)"><path d="M368.38 239 C373.99 248.88, 381.68 253.62, 388.46 262.47" stroke="#f0883e" stroke-width="2.5" fill="none"></path></g></g><g transform="translate(809.8899459838867 508.75) rotate(0 44.333961486816406 11.25)"><text x="44.333961486816406" y="NaN" font-family="Virgil, Segoe UI Emoji" font-size="18px" fill="#f0883e" text-anchor="middle" style="white-space: pre;" direction="ltr">replication</text></g><g stroke-linecap="round" transform="translate(1048.2239074707031 614) rotate(0 6 6)"><path d="M12 6 C12 6.35, 11.97 6.7, 11.91 7.04 C11.85 7.38, 11.76 7.73, 11.64 8.05 C11.52 8.38, 11.37 8.7, 11.2 9 C11.02 9.3, 10.82 9.59, 10.6 9.86 C10.37 10.12, 10.12 10.37, 9.86 10.6 C9.59 10.82, 9.3 11.02, 9 11.2 C8.7 11.37, 8.38 11.52, 8.05 11.64 C7.73 11.76, 7.38 11.85, 7.04 11.91 C6.7 11.97, 6.35 12, 6 12 C5.65 12, 5.3 11.97, 4.96 11.91 C4.62 11.85, 4.27 11.76, 3.95 11.64 C3.62 11.52, 3.3 11.37, 3 11.2 C2.7 11.02, 2.41 10.82, 2.14 10.6 C1.88 10.37, 1.63 10.12, 1.4 9.86 C1.18 9.59, 0.98 9.3, 0.8 9 C0.63 8.7, 0.48 8.38, 0.36 8.05 C0.24 7.73, 0.15 7.38, 0.09 7.04 C0.03 6.7, 0 6.35, 0 6 C0 5.65, 0.03 5.3, 0.09 4.96 C0.15 4.62, 0.24 4.27, 0.36 3.95 C0.48 3.62, 0.63 3.3, 0.8 3 C0.98 2.7, 1.18 2.41, 1.4 2.14 C1.63 1.88, 1.88 1.63, 2.14 1.4 C2.41 1.18, 2.7 0.98, 3 0.8 C3.3 0.63, 3.62 0.48, 3.95 0.36 C4.27 0.24, 4.62 0.15, 4.96 0.09 C5.3 0.03, 5.65 0, 6 0 C6.35 0, 6.7 0.03, 7.04 0.09 C7.38 0.15, 7.73 0.24, 8.05 0.36 C8.38 0.48, 8.7 0.63, 9 0.8 C9.3 0.98, 9.59 1.18, 9.86 1.4 C10.12 1.63, 10.37 1.88, 10.6 2.14 C10.82 2.41, 11.02 2.7, 11.2 3 C11.37 3.3, 11.52 3.62, 11.64 3.95 C11.76 4.27, 11.85 4.62, 11.91 4.96 C11.97 5.3, 11.98 5.83, 12 6 C12.02 6.17, 12.02 5.83, 12 6" stroke="none" stroke-width="0" fill="#4a1219"></path><path d="M12 6 C12 6.35, 11.97 6.7, 11.91 7.04 C11.85 7.38, 11.76 7.73, 11.64 8.05 C11.52 8.38, 11.37 8.7, 11.2 9 C11.02 9.3, 10.82 9.59, 10.6 9.86 C10.37 10.12, 10.12 10.37, 9.86 10.6 C9.59 10.82, 9.3 11.02, 9 11.2 C8.7 11.37, 8.38 11.52, 8.05 11.64 C7.73 11.76, 7.38 11.85, 7.04 11.91 C6.7 11.97, 6.35 12, 6 12 C5.65 12, 5.3 11.97, 4.96 11.91 C4.62 11.85, 4.27 11.76, 3.95 11.64 C3.62 11.52, 3.3 11.37, 3 11.2 C2.7 11.02, 2.41 10.82, 2.14 10.6 C1.88 10.37, 1.63 10.12, 1.4 9.86 C1.18 9.59, 0.98 9.3, 0.8 9 C0.63 8.7, 0.48 8.38, 0.36 8.05 C0.24 7.73, 0.15 7.38, 0.09 7.04 C0.03 6.7, 0 6.35, 0 6 C0 5.65, 0.03 5.3, 0.09 4.96 C0.15 4.62, 0.24 4.27, 0.36 3.95 C0.48 3.62, 0.63 3.3, 0.8 3 C0.98 2.7, 1.18 2.41, 1.4 2.14 C1.63 1.88, 1.88 1.63, 2.14 1.4 C2.41 1.18, 2.7 0.98, 3 0.8 C3.3 0.63, 3.62 0.48, 3.95 0.36 C4.27 0.24, 4.62 0.15, 4.96 0.09 C5.3 0.03, 5.65 0, 6 0 C6.35 0, 6.7 0.03, 7.04 0.09 C7.38 0.15, 7.73 0.24, 8.05 0.36 C8.38 0.48, 8.7 0.63, 9 0.8 C9.3 0.98, 9.59 1.18, 9.86 1.4 C10.12 1.63, 10.37 1.88, 10.6 2.14 C10.82 2.41, 11.02 2.7, 11.2 3 C11.37 3.3, 11.52 3.62, 11.64 3.95 C11.76 4.27, 11.85 4.62, 11.91 4.96 C11.97 5.3, 11.98 5.83, 12 6 C12.02 6.17, 12.02 5.83, 12 6" stroke="#f85149" stroke-width="2" fill="none"></path></g><g transform="translate(1074.2239074707031 598) rotate(0 94.8399429321289 20)"><text x="0" y="NaN" font-family="Virgil, Segoe UI Emoji" font-size="16px" fill="#f85149" text-anchor="start" style="white-space: pre;" direction="ltr">Step 4: comment arrives</text><text x="0" y="NaN" font-family="Virgil, Segoe UI Emoji" font-size="16px" fill="#f85149" text-anchor="start" style="white-space: pre;" direction="ltr">S1 slot: 1 &gt; 0  BUFFER</text></g><g stroke-linecap="round"><g transform="translate(260.2239074707031 160) rotate(0 394.0927704780686 304.75137956156)"><path d="M-0.19 0.65 C131.23 102.22, 656.72 507.74, 787.96 609.19" stroke="#f0883e" stroke-width="2.5" fill="none" stroke-dasharray="8 10"></path></g><g transform="translate(260.2239074707031 160) rotate(0 394.0927704780686 304.75137956156)"><path d="M760.45 599.7 C766.1 600.83, 773.64 604.37, 786.86 607.33" stroke="#f0883e" stroke-width="2.5" fill="none"></path></g><g transform="translate(260.2239074707031 160) rotate(0 394.0927704780686 304.75137956156)"><path d="M773 583.46 C775.42 588.7, 779.77 596.37, 786.86 607.33" stroke="#f0883e" stroke-width="2.5" fill="none"></path></g></g><g transform="translate(609.8899459838867 433.75) rotate(0 44.333961486816406 11.25)"><text x="44.333961486816406" y="NaN" font-family="Virgil, Segoe UI Emoji" font-size="18px" fill="#f0883e" text-anchor="middle" style="white-space: pre;" direction="ltr">replication</text></g><g stroke-linecap="round" transform="translate(1048.2239074707031 774) rotate(0 6 6)"><path d="M12 6 C12 6.35, 11.97 6.7, 11.91 7.04 C11.85 7.38, 11.76 7.73, 11.64 8.05 C11.52 8.38, 11.37 8.7, 11.2 9 C11.02 9.3, 10.82 9.59, 10.6 9.86 C10.37 10.12, 10.12 10.37, 9.86 10.6 C9.59 10.82, 9.3 11.02, 9 11.2 C8.7 11.37, 8.38 11.52, 8.05 11.64 C7.73 11.76, 7.38 11.85, 7.04 11.91 C6.7 11.97, 6.35 12, 6 12 C5.65 12, 5.3 11.97, 4.96 11.91 C4.62 11.85, 4.27 11.76, 3.95 11.64 C3.62 11.52, 3.3 11.37, 3 11.2 C2.7 11.02, 2.41 10.82, 2.14 10.6 C1.88 10.37, 1.63 10.12, 1.4 9.86 C1.18 9.59, 0.98 9.3, 0.8 9 C0.63 8.7, 0.48 8.38, 0.36 8.05 C0.24 7.73, 0.15 7.38, 0.09 7.04 C0.03 6.7, 0 6.35, 0 6 C0 5.65, 0.03 5.3, 0.09 4.96 C0.15 4.62, 0.24 4.27, 0.36 3.95 C0.48 3.62, 0.63 3.3, 0.8 3 C0.98 2.7, 1.18 2.41, 1.4 2.14 C1.63 1.88, 1.88 1.63, 2.14 1.4 C2.41 1.18, 2.7 0.98, 3 0.8 C3.3 0.63, 3.62 0.48, 3.95 0.36 C4.27 0.24, 4.62 0.15, 4.96 0.09 C5.3 0.03, 5.65 0, 6 0 C6.35 0, 6.7 0.03, 7.04 0.09 C7.38 0.15, 7.73 0.24, 8.05 0.36 C8.38 0.48, 8.7 0.63, 9 0.8 C9.3 0.98, 9.59 1.18, 9.86 1.4 C10.12 1.63, 10.37 1.88, 10.6 2.14 C10.82 2.41, 11.02 2.7, 11.2 3 C11.37 3.3, 11.52 3.62, 11.64 3.95 C11.76 4.27, 11.85 4.62, 11.91 4.96 C11.97 5.3, 11.98 5.83, 12 6 C12.02 6.17, 12.02 5.83, 12 6" stroke="none" stroke-width="0" fill="#3fb950"></path><path d="M12 6 C12 6.35, 11.97 6.7, 11.91 7.04 C11.85 7.38, 11.76 7.73, 11.64 8.05 C11.52 8.38, 11.37 8.7, 11.2 9 C11.02 9.3, 10.82 9.59, 10.6 9.86 C10.37 10.12, 10.12 10.37, 9.86 10.6 C9.59 10.82, 9.3 11.02, 9 11.2 C8.7 11.37, 8.38 11.52, 8.05 11.64 C7.73 11.76, 7.38 11.85, 7.04 11.91 C6.7 11.97, 6.35 12, 6 12 C5.65 12, 5.3 11.97, 4.96 11.91 C4.62 11.85, 4.27 11.76, 3.95 11.64 C3.62 11.52, 3.3 11.37, 3 11.2 C2.7 11.02, 2.41 10.82, 2.14 10.6 C1.88 10.37, 1.63 10.12, 1.4 9.86 C1.18 9.59, 0.98 9.3, 0.8 9 C0.63 8.7, 0.48 8.38, 0.36 8.05 C0.24 7.73, 0.15 7.38, 0.09 7.04 C0.03 6.7, 0 6.35, 0 6 C0 5.65, 0.03 5.3, 0.09 4.96 C0.15 4.62, 0.24 4.27, 0.36 3.95 C0.48 3.62, 0.63 3.3, 0.8 3 C0.98 2.7, 1.18 2.41, 1.4 2.14 C1.63 1.88, 1.88 1.63, 2.14 1.4 C2.41 1.18, 2.7 0.98, 3 0.8 C3.3 0.63, 3.62 0.48, 3.95 0.36 C4.27 0.24, 4.62 0.15, 4.96 0.09 C5.3 0.03, 5.65 0, 6 0 C6.35 0, 6.7 0.03, 7.04 0.09 C7.38 0.15, 7.73 0.24, 8.05 0.36 C8.38 0.48, 8.7 0.63, 9 0.8 C9.3 0.98, 9.59 1.18, 9.86 1.4 C10.12 1.63, 10.37 1.88, 10.6 2.14 C10.82 2.41, 11.02 2.7, 11.2 3 C11.37 3.3, 11.52 3.62, 11.64 3.95 C11.76 4.27, 11.85 4.62, 11.91 4.96 C11.97 5.3, 11.98 5.83, 12 6 C12.02 6.17, 12.02 5.83, 12 6" stroke="#3fb950" stroke-width="2" fill="none"></path></g><g transform="translate(1074.2239074707031 748) rotate(0 92.63192749023438 30)"><text x="0" y="NaN" font-family="Virgil, Segoe UI Emoji" font-size="16px" fill="#c9d1d9" text-anchor="start" style="white-space: pre;" direction="ltr">Step 5: post arrives</text><text x="0" y="NaN" font-family="Virgil, Segoe UI Emoji" font-size="16px" fill="#c9d1d9" text-anchor="start" style="white-space: pre;" direction="ltr">no missing deps -&gt; apply</text><text x="0" y="NaN" font-family="Virgil, Segoe UI Emoji" font-size="16px" fill="#c9d1d9" text-anchor="start" style="white-space: pre;" direction="ltr">merge + inc -&gt; [1, 0, 1]</text></g><g stroke-linecap="round" transform="translate(1048.2239074707031 914) rotate(0 6 6)"><path d="M12 6 C12 6.35, 11.97 6.7, 11.91 7.04 C11.85 7.38, 11.76 7.73, 11.64 8.05 C11.52 8.38, 11.37 8.7, 11.2 9 C11.02 9.3, 10.82 9.59, 10.6 9.86 C10.37 10.12, 10.12 10.37, 9.86 10.6 C9.59 10.82, 9.3 11.02, 9 11.2 C8.7 11.37, 8.38 11.52, 8.05 11.64 C7.73 11.76, 7.38 11.85, 7.04 11.91 C6.7 11.97, 6.35 12, 6 12 C5.65 12, 5.3 11.97, 4.96 11.91 C4.62 11.85, 4.27 11.76, 3.95 11.64 C3.62 11.52, 3.3 11.37, 3 11.2 C2.7 11.02, 2.41 10.82, 2.14 10.6 C1.88 10.37, 1.63 10.12, 1.4 9.86 C1.18 9.59, 0.98 9.3, 0.8 9 C0.63 8.7, 0.48 8.38, 0.36 8.05 C0.24 7.73, 0.15 7.38, 0.09 7.04 C0.03 6.7, 0 6.35, 0 6 C0 5.65, 0.03 5.3, 0.09 4.96 C0.15 4.62, 0.24 4.27, 0.36 3.95 C0.48 3.62, 0.63 3.3, 0.8 3 C0.98 2.7, 1.18 2.41, 1.4 2.14 C1.63 1.88, 1.88 1.63, 2.14 1.4 C2.41 1.18, 2.7 0.98, 3 0.8 C3.3 0.63, 3.62 0.48, 3.95 0.36 C4.27 0.24, 4.62 0.15, 4.96 0.09 C5.3 0.03, 5.65 0, 6 0 C6.35 0, 6.7 0.03, 7.04 0.09 C7.38 0.15, 7.73 0.24, 8.05 0.36 C8.38 0.48, 8.7 0.63, 9 0.8 C9.3 0.98, 9.59 1.18, 9.86 1.4 C10.12 1.63, 10.37 1.88, 10.6 2.14 C10.82 2.41, 11.02 2.7, 11.2 3 C11.37 3.3, 11.52 3.62, 11.64 3.95 C11.76 4.27, 11.85 4.62, 11.91 4.96 C11.97 5.3, 11.98 5.83, 12 6 C12.02 6.17, 12.02 5.83, 12 6" stroke="none" stroke-width="0" fill="#3fb950"></path><path d="M12 6 C12 6.35, 11.97 6.7, 11.91 7.04 C11.85 7.38, 11.76 7.73, 11.64 8.05 C11.52 8.38, 11.37 8.7, 11.2 9 C11.02 9.3, 10.82 9.59, 10.6 9.86 C10.37 10.12, 10.12 10.37, 9.86 10.6 C9.59 10.82, 9.3 11.02, 9 11.2 C8.7 11.37, 8.38 11.52, 8.05 11.64 C7.73 11.76, 7.38 11.85, 7.04 11.91 C6.7 11.97, 6.35 12, 6 12 C5.65 12, 5.3 11.97, 4.96 11.91 C4.62 11.85, 4.27 11.76, 3.95 11.64 C3.62 11.52, 3.3 11.37, 3 11.2 C2.7 11.02, 2.41 10.82, 2.14 10.6 C1.88 10.37, 1.63 10.12, 1.4 9.86 C1.18 9.59, 0.98 9.3, 0.8 9 C0.63 8.7, 0.48 8.38, 0.36 8.05 C0.24 7.73, 0.15 7.38, 0.09 7.04 C0.03 6.7, 0 6.35, 0 6 C0 5.65, 0.03 5.3, 0.09 4.96 C0.15 4.62, 0.24 4.27, 0.36 3.95 C0.48 3.62, 0.63 3.3, 0.8 3 C0.98 2.7, 1.18 2.41, 1.4 2.14 C1.63 1.88, 1.88 1.63, 2.14 1.4 C2.41 1.18, 2.7 0.98, 3 0.8 C3.3 0.63, 3.62 0.48, 3.95 0.36 C4.27 0.24, 4.62 0.15, 4.96 0.09 C5.3 0.03, 5.65 0, 6 0 C6.35 0, 6.7 0.03, 7.04 0.09 C7.38 0.15, 7.73 0.24, 8.05 0.36 C8.38 0.48, 8.7 0.63, 9 0.8 C9.3 0.98, 9.59 1.18, 9.86 1.4 C10.12 1.63, 10.37 1.88, 10.6 2.14 C10.82 2.41, 11.02 2.7, 11.2 3 C11.37 3.3, 11.52 3.62, 11.64 3.95 C11.76 4.27, 11.85 4.62, 11.91 4.96 C11.97 5.3, 11.98 5.83, 12 6 C12.02 6.17, 12.02 5.83, 12 6" stroke="#3fb950" stroke-width="2" fill="none"></path></g><g transform="translate(1074.2239074707031 888) rotate(0 99.32794189453125 30)"><text x="0" y="NaN" font-family="Virgil, Segoe UI Emoji" font-size="16px" fill="#3fb950" text-anchor="start" style="white-space: pre;" direction="ltr">Step 6: re-check comment</text><text x="0" y="NaN" font-family="Virgil, Segoe UI Emoji" font-size="16px" fill="#3fb950" text-anchor="start" style="white-space: pre;" direction="ltr">S1 slot: 1 &gt;= 1  APPLY</text><text x="0" y="NaN" font-family="Virgil, Segoe UI Emoji" font-size="16px" fill="#3fb950" text-anchor="start" style="white-space: pre;" direction="ltr">merge + inc -&gt; [1, 2, 2]</text></g><g transform="translate(44.763400778650805 65.6110721546076) rotate(0 74.0799560546875 12.5)"><text x="0" y="NaN" font-family="Segoe UI Emoji" font-size="20px" fill="#c9d1d9" text-anchor="start" style="white-space: pre;" direction="ltr">Initial [0, 0, 0]</text></g><g transform="translate(672.529065104033 226.25379950148073) rotate(0 74.0799560546875 12.5)"><text x="0" y="NaN" font-family="Segoe UI Emoji" font-size="20px" fill="#c9d1d9" text-anchor="start" style="white-space: pre;" direction="ltr">Initial [0, 0, 0]</text></g><g transform="translate(1071.6390226800772 542.3451247191542) rotate(0 74.0799560546875 12.5)"><text x="0" y="NaN" font-family="Segoe UI Emoji" font-size="20px" fill="#c9d1d9" text-anchor="start" style="white-space: pre;" direction="ltr">Initial [0, 0, 0]</text></g></svg>