<svg version="1.1" xmlns="http://www.w3.org/2000/svg" viewBox="0 0 1369.8483376472614 434.06995233773" width="1369.8483376472614" height="434.06995233773">
  <!-- svg-source:excalidraw -->
  
  <defs>
    <style>
      @font-face {
        font-family: "Virgil";
        src: url("https://excalidraw.com/Virgil.woff2");
      }
      @font-face {
        font-family: "Cascadia";
        src: url("https://excalidraw.com/Cascadia.woff2");
      }
    </style>
  </defs>
  <rect x="0" y="0" width="1369.8483376472614" height="434.06995233773" fill="#1e1e2e"></rect><g transform="translate(358.84435440695313 10) rotate(0 354.4637451171875 13.75)"><text x="354.4637451171875" y="NaN" font-family="Virgil, Segoe UI Emoji" font-size="22px" fill="#a6adc8" text-anchor="middle" style="white-space: pre;" direction="ltr">Anti-Corruption Layer: translating between new and legacy models</text></g><g stroke-linecap="round" transform="translate(10 65.1530150214237) rotate(0 130 80)"><path d="M-0.09 1.37 L261.43 -0.85 L260.48 159.95 L0.32 159.88" stroke="none" stroke-width="0" fill="#2d6a4f"></path><path d="M0.15 -0.25 C78.19 -2.22, 157.85 -0.6, 260.65 -1.58 M-0.52 0.02 C79.71 0.98, 160.24 1.13, 260.38 -0.73 M260.79 0.76 C260.04 46.94, 261.8 96.28, 260.59 160.81 M260.6 -0.51 C258.61 51.21, 258.05 102.35, 259.39 160.83 M259.06 158.6 C163.12 160.7, 64.45 158.4, 0.2 161.59 M259.75 160.73 C198.05 159.58, 136.44 160.89, -0.22 160.39 M0.2 161.48 C-0.73 115.71, 1.08 70.08, 0.59 0.25 M0.32 159.04 C-0.42 113.72, -1.2 67.46, -0.48 -0.94" stroke="#40916c" stroke-width="2" fill="none"></path></g><g transform="translate(51.22007751464844 132.6530150214237) rotate(0 88.77992248535156 12.5)"><text x="88.77992248535156" y="NaN" font-family="Virgil, Segoe UI Emoji" font-size="20px" fill="#ffffff" text-anchor="middle" style="white-space: pre;" direction="ltr">New Order Service</text></g><g stroke-linecap="round" transform="translate(590.6289340295554 100.22481052755143) rotate(0 130 45)"><path d="M-0.4 -1.01 L258.98 -1.82 L258.17 88.03 L1.87 90.36" stroke="none" stroke-width="0" fill="#b45309"></path><path d="M1.16 -0.34 C79.55 -0.09, 160.09 0.46, 259.38 -1.31 M0.55 0.5 C68.36 1.33, 135.54 1.74, 260.08 -0.07 M261.49 -0.67 C260.87 19.16, 258.17 35.4, 259.14 89.46 M260.28 0.22 C259.81 28.52, 260.77 56.52, 260.27 89.07 M259.7 90.65 C195.02 92.49, 131.08 90.57, 0.57 88.77 M260.21 89.35 C168.88 90.39, 77.84 90.53, 0.54 90.27 M-0.4 90.01 C-2.05 64.56, -0.67 38.54, 0.39 -1.83 M0.28 89.27 C0.78 67.18, 0.06 43.76, 0.26 -0.91" stroke="#d97706" stroke-width="2" fill="none"></path></g><g transform="translate(648.2090121545554 120.22481052755143) rotate(0 72.419921875 25)"><text x="72.419921875" y="NaN" font-family="Virgil, Segoe UI Emoji" font-size="20px" fill="#ffffff" text-anchor="middle" style="white-space: pre;" direction="ltr">Anti-Corruption</text><text x="72.419921875" y="NaN" font-family="Virgil, Segoe UI Emoji" font-size="20px" fill="#ffffff" text-anchor="middle" style="white-space: pre;" direction="ltr">Layer</text></g><g stroke-linecap="round" transform="translate(1099.8483376472616 60.328149688331436) rotate(0 129.99999999999994 73.47190915940863)"><path d="M-0.71 0.61 L260.53 1.21 L259.87 147.04 L-0.57 147.79" stroke="none" stroke-width="0" fill="#9f1239"></path><path d="M-1.03 -0.43 C80.92 1.08, 162.33 0.57, 261.3 -1.04 M0.01 -0.62 C55.41 1.68, 110.84 2.35, 259.78 0.58 M258.2 1.89 C259.63 44.17, 260.47 92.13, 261.69 145.05 M259.96 0.94 C261.09 45.59, 261.59 90.2, 259.15 146.26 M260.34 146.44 C178.12 147.07, 93.72 148.73, 0.93 146.1 M260.67 146.51 C191.71 149.75, 123.23 148.71, -0.3 147.09 M-1 145.49 C-1.45 102.9, -0.51 59.03, 0.19 0.09 M0.24 146.43 C-0.54 114.5, -1.21 80.85, -1 -0.88" stroke="#e11d48" stroke-width="2" fill="none"></path></g><g transform="translate(1153.1784005134725 121.30005884774006) rotate(0 76.669937133789 12.5)"><text x="76.66993713378906" y="NaN" font-family="Virgil, Segoe UI Emoji" font-size="20px" fill="#ffffff" text-anchor="middle" style="white-space: pre;" direction="ltr">Legacy Monolith</text></g><g stroke-linecap="round"><g transform="translate(276 109.00393419228675) rotate(0 154.31446701477768 7.25132499832516)"><path d="M0.83 -0.01 C52.17 2.37, 256.88 12.23, 308.24 14.73 M-0.2 -1.06 C50.93 0.89, 255.65 10.4, 307.08 12.72" stroke="#40916c" stroke-width="2" fill="none"></path></g><g transform="translate(276 109.00393419228675) rotate(0 154.31446701477768 7.25132499832516)"><path d="M278.43 21.03 C287.82 19.26, 297.21 14.46, 307.12 11.76 M277.8 21.51 C288.71 17.49, 298.41 15.4, 306.43 12.26" stroke="#40916c" stroke-width="2" fill="none"></path></g><g transform="translate(276 109.00393419228675) rotate(0 154.31446701477768 7.25132499832516)"><path d="M279.37 0.53 C288.54 5.23, 297.63 6.89, 307.12 11.76 M278.74 1.01 C289.17 4.46, 298.53 9.83, 306.43 12.26" stroke="#40916c" stroke-width="2" fill="none"></path></g></g><g transform="translate(380.7964997906566 105.00573519179716) rotate(0 49.517967224121094 11.25)"><text x="49.517967224121094" y="NaN" font-family="Virgil, Segoe UI Emoji" font-size="18px" fill="#40916c" text-anchor="middle" style="white-space: pre;" direction="ltr">place order</text></g><g stroke-linecap="round"><g transform="translate(856.1225037965571 115.97920658261152) rotate(0 118.86291692535224 -8.708294089378732)"><path d="M-0.79 0.75 C38.72 -2.18, 197.53 -14.08, 237.26 -17.05 M1 0.09 C40.29 -3.25, 196.78 -15.76, 236.07 -18.97" stroke="#d97706" stroke-width="2" fill="none"></path></g><g transform="translate(856.1225037965571 115.97920658261152) rotate(0 118.86291692535224 -8.708294089378732)"><path d="M210.04 -7.25 C218.09 -10.52, 226.81 -13.83, 234.51 -19.6 M209.49 -6.05 C216.76 -9.57, 225.6 -14.02, 237.05 -18.62" stroke="#d97706" stroke-width="2" fill="none"></path></g><g transform="translate(856.1225037965571 115.97920658261152) rotate(0 118.86291692535224 -8.708294089378732)"><path d="M208.39 -27.7 C217.05 -24.42, 226.3 -21.19, 234.51 -19.6 M207.83 -26.51 C215.44 -23.57, 224.79 -21.56, 237.05 -18.62" stroke="#d97706" stroke-width="2" fill="none"></path></g></g><g transform="translate(914.5234685124367 96.0209124932328) rotate(0 60.461952209472656 11.25)"><text x="60.461952209472656" y="NaN" font-family="Virgil, Segoe UI Emoji" font-size="18px" fill="#d97706" text-anchor="middle" style="white-space: pre;" direction="ltr">reserve stock</text></g><g stroke-linecap="round"><g transform="translate(1093.8483376472618 166.44910135503252) rotate(0 -118.60970180885317 -0.6095757430737478)"><path d="M0 -0.9 C-39.67 -1.11, -198.11 -0.7, -237.75 -0.7" stroke="#3b82f6" stroke-width="2.5" fill="none" stroke-dasharray="8 10"></path></g><g transform="translate(1093.8483376472618 166.44910135503252) rotate(0 -118.60970180885317 -0.6095757430737478)"><path d="M-211.07 -11.88 C-217.8 -8.71, -227.31 -6.03, -236.91 -0.99" stroke="#3b82f6" stroke-width="2.5" fill="none"></path></g><g transform="translate(1093.8483376472618 166.44910135503252) rotate(0 -118.60970180885317 -0.6095757430737478)"><path d="M-211.04 8.64 C-217.88 5.15, -227.4 1.18, -236.91 -0.99" stroke="#3b82f6" stroke-width="2.5" fill="none"></path></g></g><g transform="translate(909.6556890610648 154.58952561195878) rotate(0 65.58294677734375 11.25)"><text x="65.58294677734375" y="NaN" font-family="Virgil, Segoe UI Emoji" font-size="18px" fill="#3b82f6" text-anchor="middle" style="white-space: pre;" direction="ltr">stock reserved</text></g><g stroke-linecap="round"><g transform="translate(584.6289340295554 165.27465701109875) rotate(0 -154.31446701477768 7.69203354116658)"><path d="M0.79 -0.14 C-50.81 2.42, -257.47 13.43, -309.23 16.05" stroke="#3b82f6" stroke-width="2.5" fill="none" stroke-dasharray="8 10"></path></g><g transform="translate(584.6289340295554 165.27465701109875) rotate(0 -154.31446701477768 7.69203354116658)"><path d="M-281.84 3.34 C-289.52 6.49, -299.34 12.35, -309.98 16.09" stroke="#3b82f6" stroke-width="2.5" fill="none"></path></g><g transform="translate(584.6289340295554 165.27465701109875) rotate(0 -154.31446701477768 7.69203354116658)"><path d="M-280.77 23.83 C-288.92 20.25, -299.09 19.37, -309.98 16.09" stroke="#3b82f6" stroke-width="2.5" fill="none"></path></g></g><g transform="translate(363.38152176331283 161.7166905522653) rotate(0 66.93294525146484 11.25)"><text x="66.93294525146484" y="NaN" font-family="Virgil, Segoe UI Emoji" font-size="18px" fill="#3b82f6" text-anchor="middle" style="white-space: pre;" direction="ltr">order confirmed</text></g><g transform="translate(88.8164100266406 246.84749526161565) rotate(0 57.590965270996094 11.25)"><text x="57.590965270996094" y="NaN" font-family="Virgil, Segoe UI Emoji" font-size="18px" fill="#40916c" text-anchor="middle" style="white-space: pre;" direction="ltr">Modern model</text></g><g transform="translate(81.19630170188407 289.06995233773) rotate(0 65.82598114013672 67.5)"><text x="0" y="NaN" font-family="Virgil, Segoe UI Emoji" font-size="18px" fill="#cdd6f4" text-anchor="start" style="white-space: pre;" direction="ltr">{</text><text x="0" y="NaN" font-family="Virgil, Segoe UI Emoji" font-size="18px" fill="#cdd6f4" text-anchor="start" style="white-space: pre;" direction="ltr">  customerId,</text><text x="0" y="NaN" font-family="Virgil, Segoe UI Emoji" font-size="18px" fill="#cdd6f4" text-anchor="start" style="white-space: pre;" direction="ltr">  items: [],</text><text x="0" y="NaN" font-family="Virgil, Segoe UI Emoji" font-size="18px" fill="#cdd6f4" text-anchor="start" style="white-space: pre;" direction="ltr">  totalAmount,</text><text x="0" y="NaN" font-family="Virgil, Segoe UI Emoji" font-size="18px" fill="#cdd6f4" text-anchor="start" style="white-space: pre;" direction="ltr">  currency</text><text x="0" y="NaN" font-family="Virgil, Segoe UI Emoji" font-size="18px" fill="#cdd6f4" text-anchor="start" style="white-space: pre;" direction="ltr">}</text></g><g transform="translate(590.6289340295554 220.22481052755143) rotate(0 98.14494323730469 11.25)"><text x="98.14494323730469" y="NaN" font-family="Virgil, Segoe UI Emoji" font-size="18px" fill="#d97706" text-anchor="middle" style="white-space: pre;" direction="ltr">Translates both ways</text></g><g transform="translate(580.6289340295554 250.22481052755143) rotate(0 161.5594024658203 31.875)"><text x="0" y="NaN" font-family="Virgil, Segoe UI Emoji" font-size="17px" fill="#cdd6f4" text-anchor="start" style="white-space: pre;" direction="ltr">Orders: order_xml &lt;-&gt; items[]</text><text x="0" y="NaN" font-family="Virgil, Segoe UI Emoji" font-size="17px" fill="#cdd6f4" text-anchor="start" style="white-space: pre;" direction="ltr">Money: amount_cents &lt;-&gt; totalAmount</text><text x="0" y="NaN" font-family="Virgil, Segoe UI Emoji" font-size="17px" fill="#cdd6f4" text-anchor="start" style="white-space: pre;" direction="ltr">IDs: user_id &lt;-&gt; customerId</text></g><g transform="translate(1155.407206171878 235.06623614214107) rotate(0 57.15896606445318 11.25)"><text x="57.158966064453125" y="NaN" font-family="Virgil, Segoe UI Emoji" font-size="18px" fill="#e11d48" text-anchor="middle" style="white-space: pre;" direction="ltr">Legacy model</text></g><g transform="translate(1163.9879549508219 263.9093321410037) rotate(0 84.63594818115234 67.5)"><text x="0" y="NaN" font-family="Virgil, Segoe UI Emoji" font-size="18px" fill="#cdd6f4" text-anchor="start" style="white-space: pre;" direction="ltr">{</text><text x="0" y="NaN" font-family="Virgil, Segoe UI Emoji" font-size="18px" fill="#cdd6f4" text-anchor="start" style="white-space: pre;" direction="ltr">  user_id,</text><text x="0" y="NaN" font-family="Virgil, Segoe UI Emoji" font-size="18px" fill="#cdd6f4" text-anchor="start" style="white-space: pre;" direction="ltr">  order_items_xml,</text><text x="0" y="NaN" font-family="Virgil, Segoe UI Emoji" font-size="18px" fill="#cdd6f4" text-anchor="start" style="white-space: pre;" direction="ltr">  amount_cents,</text><text x="0" y="NaN" font-family="Virgil, Segoe UI Emoji" font-size="18px" fill="#cdd6f4" text-anchor="start" style="white-space: pre;" direction="ltr">  ccy_code</text><text x="0" y="NaN" font-family="Virgil, Segoe UI Emoji" font-size="18px" fill="#cdd6f4" text-anchor="start" style="white-space: pre;" direction="ltr">}</text></g><g transform="translate(399.605020514808 345.0606701394673) rotate(0 305.96978759765625 12.5)"><text x="305.96978759765625" y="NaN" font-family="Virgil, Segoe UI Emoji" font-size="20px" fill="#40916c" text-anchor="middle" style="white-space: pre;" direction="ltr">Prevents the legacy schema from leaking into the new service.</text></g></svg>