<svg version="1.1" xmlns="http://www.w3.org/2000/svg" viewBox="0 0 1160 487.07739609981684" width="1160" height="487.07739609981684">
  <!-- svg-source:excalidraw -->
  
  <defs>
    <style>
      @font-face {
        font-family: "Virgil";
        src: url("https://excalidraw.com/Virgil.woff2");
      }
      @font-face {
        font-family: "Cascadia";
        src: url("https://excalidraw.com/Cascadia.woff2");
      }
    </style>
  </defs>
  <rect x="0" y="0" width="1160" height="487.07739609981684" fill="#0d1117"></rect><g stroke-opacity="0.6" fill-opacity="0.6" stroke-linecap="round" transform="translate(10 71.90389677297856) rotate(0 170 170)"><path d="M0.53 0.43 L339.6 -1.34 L338.27 341.63 L0.48 338.03" stroke="none" stroke-width="0" fill="#161b22"></path><path d="M1.23 -0.52 C85.12 3.41, 172.54 3.17, 340.19 0.32 M339.87 0.22 C341.91 108.84, 342.55 216.62, 339.87 339.34 M338.91 340.07 C247.44 340.19, 154.75 338.62, 1.21 340.21 M1.11 341.2 C0.59 224.2, 0.97 107.27, -0.39 0.61" stroke="#30363d" stroke-width="2.5" fill="none" stroke-dasharray="8 10"></path></g><g transform="translate(30 85.90389677297856) rotate(0 103.13095092773438 11.25)"><text x="0" y="NaN" font-family="Virgil, Segoe UI Emoji" font-size="18px" fill="#8b949e" text-anchor="start" style="white-space: pre;" direction="ltr">Authentication Context</text></g><g stroke-linecap="round" transform="translate(80 141.90389677297856) rotate(0 100 32)"><path d="M0.54 1 L198.47 -0.66 L199.74 65.62 L0.38 65.7" stroke="none" stroke-width="0" fill="#3a1d6e"></path><path d="M1.15 -0.83 C52.02 -1.04, 100.24 -0.97, 201 -1.76 M-0.62 -0.7 C40.84 -0.01, 82.72 1.04, 199.62 0.46 M200.51 1.1 C200.18 23.43, 199.12 43.54, 199.38 64.83 M200.02 -0.3 C198.89 14.57, 199.28 27.29, 199.33 63.87 M198.98 65.27 C123.76 63.3, 43.73 62.78, 1.74 64.65 M200.52 63.59 C144.17 65.54, 85.95 64.63, 0.45 64.2 M1.73 63.15 C-2 46.21, 0.22 24.26, -1.07 -0.49 M-0.5 64.73 C0.48 43.07, 0.28 23.1, -0.77 0.01" stroke="#a371f7" stroke-width="2" fill="none"></path></g><g transform="translate(157.66001892089844 161.40389677297856) rotate(0 22.339981079101562 12.5)"><text x="22.339981079101562" y="NaN" font-family="Virgil, Segoe UI Emoji" font-size="20px" fill="#ffffff" text-anchor="middle" style="white-space: pre;" direction="ltr">User</text></g><g transform="translate(20.189267978244402 248.2236953611005) rotate(0 162.13491821289062 33.75)"><text x="0" y="NaN" font-family="Virgil, Segoe UI Emoji" font-size="18px" fill="#c9d1d9" text-anchor="start" style="white-space: pre;" direction="ltr">- credentials (email, password hash)</text><text x="0" y="NaN" font-family="Virgil, Segoe UI Emoji" font-size="18px" fill="#c9d1d9" text-anchor="start" style="white-space: pre;" direction="ltr">- sessions (token, IP, expiry)</text><text x="0" y="NaN" font-family="Virgil, Segoe UI Emoji" font-size="18px" fill="#c9d1d9" text-anchor="start" style="white-space: pre;" direction="ltr">- MFA tokens (TOTP, backup codes)</text></g><g stroke-opacity="0.6" fill-opacity="0.6" stroke-linecap="round" transform="translate(410 71.90389677297856) rotate(0 170 170)"><path d="M1.98 -1.31 L338.12 -0.54 L340.83 340.06 L-0.55 338.43" stroke="none" stroke-width="0" fill="#161b22"></path><path d="M-0.59 -0.6 C86.82 1.37, 175.52 0.24, 339.13 0.54 M338.98 1.02 C340.54 92.08, 339.76 183.95, 339.37 340.43 M339.38 339.11 C211.92 339.26, 84.14 340.99, 0.24 339.3 M0.68 339.5 C-1.17 225.49, -1.41 111.91, 0.78 0.93" stroke="#30363d" stroke-width="2.5" fill="none" stroke-dasharray="8 10"></path></g><g transform="translate(430 85.90389677297856) rotate(0 63.56695556640625 11.25)"><text x="0" y="NaN" font-family="Virgil, Segoe UI Emoji" font-size="18px" fill="#8b949e" text-anchor="start" style="white-space: pre;" direction="ltr">Billing Context</text></g><g stroke-linecap="round" transform="translate(480 141.90389677297856) rotate(0 100 32)"><path d="M0.23 -1.38 L200.02 -1.63 L201.43 63.69 L1.94 62.18" stroke="none" stroke-width="0" fill="#3a1d6e"></path><path d="M-1.32 -0.94 C53.14 0.63, 101.92 -0.5, 199.56 -1.45 M0.58 -0.16 C70.73 0.23, 142.03 1.58, 199.29 -0.6 M201.21 -0.33 C199.26 15.43, 197.73 30.24, 201.93 63.48 M199.7 0.43 C199.43 14.18, 199.35 26.06, 200.21 64.11 M199.71 63.98 C147.85 61.04, 95.1 60.95, -1.44 65.08 M199.23 63.83 C119.97 62.61, 40.84 62.18, -0.49 64.06 M1.13 65.68 C-1.06 45.24, 0.72 23.07, -1.27 1.42 M-0.54 64.96 C-0.78 45.29, -0.93 26.92, -0.03 0.04" stroke="#a371f7" stroke-width="2" fill="none"></path></g><g transform="translate(557.6600189208984 161.40389677297856) rotate(0 22.339981079101562 12.5)"><text x="22.339981079101562" y="NaN" font-family="Virgil, Segoe UI Emoji" font-size="20px" fill="#ffffff" text-anchor="middle" style="white-space: pre;" direction="ltr">User</text></g><g transform="translate(440 241.90389677297856) rotate(0 137.51089477539062 33.75)"><text x="0" y="NaN" font-family="Virgil, Segoe UI Emoji" font-size="18px" fill="#c9d1d9" text-anchor="start" style="white-space: pre;" direction="ltr">- payment method (card, ACH)</text><text x="0" y="NaN" font-family="Virgil, Segoe UI Emoji" font-size="18px" fill="#c9d1d9" text-anchor="start" style="white-space: pre;" direction="ltr">- invoices (amounts, dates)</text><text x="0" y="NaN" font-family="Virgil, Segoe UI Emoji" font-size="18px" fill="#c9d1d9" text-anchor="start" style="white-space: pre;" direction="ltr">- subscription tier (Free / Pro)</text></g><g stroke-opacity="0.6" fill-opacity="0.6" stroke-linecap="round" transform="translate(810 71.90389677297856) rotate(0 170 170)"><path d="M-0.57 0.95 L340.64 0.26 L339.39 338.49 L-1.58 338.84" stroke="none" stroke-width="0" fill="#161b22"></path><path d="M0.25 -0.67 C88.51 -0.67, 178.49 -0.02, 340.73 0.77 M340.76 -0.85 C339.16 75.32, 339.64 151.27, 338.87 338.85 M339.85 340.82 C244.41 341, 152.2 340.7, -0.73 341.07 M0.25 340.47 C1.61 226.78, 0.74 113.88, -0.72 1.26" stroke="#30363d" stroke-width="2.5" fill="none" stroke-dasharray="8 10"></path></g><g transform="translate(830 85.90389677297856) rotate(0 64.95297241210938 11.25)"><text x="0" y="NaN" font-family="Virgil, Segoe UI Emoji" font-size="18px" fill="#8b949e" text-anchor="start" style="white-space: pre;" direction="ltr">Social Context</text></g><g stroke-linecap="round" transform="translate(880 141.90389677297856) rotate(0 100 32)"><path d="M-0.08 0.24 L201.58 1.4 L199.13 65.76 L-0.51 62.66" stroke="none" stroke-width="0" fill="#3a1d6e"></path><path d="M-0.18 -1.04 C50.67 2.31, 103.61 -0.03, 201.73 -1.15 M-0.02 0.38 C62.42 2.27, 123.14 2.12, 200.75 0.13 M201.92 -1.76 C198.34 24.24, 200.35 42.55, 200.47 62.12 M199.38 -0.85 C199.98 13.79, 201.42 26.83, 199.09 64.35 M200.43 62.68 C131.94 65.98, 66.48 62.71, -1.03 65.51 M199.75 64.07 C137.56 63.27, 75.74 63.32, 0.36 63.92 M0.52 64.22 C-0.12 44.26, 1.22 21.87, -1.47 -0.66 M-0.58 63.18 C-0.04 47.51, -0.13 32.75, 0.71 0.07" stroke="#a371f7" stroke-width="2" fill="none"></path></g><g transform="translate(957.6600189208984 161.40389677297856) rotate(0 22.339981079101562 12.5)"><text x="22.339981079101562" y="NaN" font-family="Virgil, Segoe UI Emoji" font-size="20px" fill="#ffffff" text-anchor="middle" style="white-space: pre;" direction="ltr">User</text></g><g transform="translate(840 241.90389677297856) rotate(0 133.56887817382812 33.75)"><text x="0" y="NaN" font-family="Virgil, Segoe UI Emoji" font-size="18px" fill="#c9d1d9" text-anchor="start" style="white-space: pre;" direction="ltr">- profile (bio, avatar, handle)</text><text x="0" y="NaN" font-family="Virgil, Segoe UI Emoji" font-size="18px" fill="#c9d1d9" text-anchor="start" style="white-space: pre;" direction="ltr">- connections (friends, follows)</text><text x="0" y="NaN" font-family="Virgil, Segoe UI Emoji" font-size="18px" fill="#c9d1d9" text-anchor="start" style="white-space: pre;" direction="ltr">- activity feed (posts, likes)</text></g><g transform="translate(258.0764743377926 10) rotate(0 316.2297058105469 12.5)"><text x="316.2297058105469" y="NaN" font-family="Virgil, Segoe UI Emoji" font-size="20px" fill="#3fb950" text-anchor="middle" style="white-space: pre;" direction="ltr">Same real-world "User" -- different models per bounded context.</text></g><g transform="translate(326.5630614593108 454.57739609981684) rotate(0 256.98583984375 11.25)"><text x="256.98583984375" y="NaN" font-family="Virgil, Segoe UI Emoji" font-size="18px" fill="#8b949e" text-anchor="middle" style="white-space: pre;" direction="ltr">No unified User schema. Each service owns what it needs.</text></g></svg>