<svg version="1.1" xmlns="http://www.w3.org/2000/svg" viewBox="0 0 1310.4810111514112 712.1913917466096" width="1310.4810111514112" height="712.1913917466096">
  <!-- svg-source:excalidraw -->
  
  <defs>
    <style>
      @font-face {
        font-family: "Virgil";
        src: url("https://excalidraw.com/Virgil.woff2");
      }
      @font-face {
        font-family: "Cascadia";
        src: url("https://excalidraw.com/Cascadia.woff2");
      }
    </style>
  </defs>
  <rect x="0" y="0" width="1310.4810111514112" height="712.1913917466096" fill="#0d1117"></rect><g stroke-opacity="0.6" fill-opacity="0.6" stroke-linecap="round" transform="translate(10 207.74735451882907) rotate(0 150 121.5)"><path d="M0.61 -1.35 L301.02 1.3 L299.06 241.15 L0.33 242.3" stroke="none" stroke-width="0" fill="#161b22"></path><path d="M-1.01 1.35 C61.78 1.3, 125.12 2, 301.29 0.76 M300 -0.72 C300.08 76.11, 301.07 155.65, 300.23 242.73 M299.03 242.1 C221.78 245.1, 145.13 243.93, -0.96 243.77 M0.69 243.84 C1.47 147.04, 0.37 52.89, -1.45 -0.78" stroke="#30363d" stroke-width="2.5" fill="none" stroke-dasharray="8 10"></path></g><g transform="translate(26 217.74735451882907) rotate(0 29.231971740722656 11.25)"><text x="0" y="NaN" font-family="Virgil, Segoe UI Emoji" font-size="18px" fill="#8b949e" text-anchor="start" style="white-space: pre;" direction="ltr">Clients</text></g><g stroke-opacity="0.6" fill-opacity="0.6" stroke-linecap="round" transform="translate(400.24499699677915 206.05933645546816) rotate(0 200.5 121.5)"><path d="M-0.6 -1.99 L402.16 1.8 L402.57 241.89 L1.08 243.63" stroke="none" stroke-width="0" fill="#161b22"></path><path d="M-0.02 0.75 C147.07 -1.5, 295.46 -0.46, 400.67 0.08 M400.9 1.06 C400.64 97.54, 401.53 192.06, 402.04 242.42 M400.55 243.56 C261.45 242.13, 124.16 242.99, -0.95 243.36 M0.5 243.78 C1.28 161.1, 1.05 82.9, 0.67 -0.27" stroke="#30363d" stroke-width="2.5" fill="none" stroke-dasharray="8 10"></path></g><g transform="translate(416.24499699677915 216.05933645546816) rotate(0 60.87596130371094 11.25)"><text x="0" y="NaN" font-family="Virgil, Segoe UI Emoji" font-size="18px" fill="#8b949e" text-anchor="start" style="white-space: pre;" direction="ltr">Routing Layer</text></g><g stroke-opacity="0.6" fill-opacity="0.6" stroke-linecap="round" transform="translate(921.4810111514112 459.1913917466096) rotate(0 189.5 121.5)"><path d="M-0.1 -0.75 L379.78 -1.67 L380.41 244.78 L-0.64 243.05" stroke="none" stroke-width="0" fill="#161b22"></path><path d="M-1.11 -1.15 C85.02 1.12, 168.64 0.33, 379.56 0.02 M379.56 -0.62 C376.59 79.17, 377.45 156.99, 379.76 243.98 M378.77 241.81 C238.28 242.91, 98.49 243.62, 1.11 243.18 M0.63 242.66 C1.03 151.76, 1.02 59.6, 1.29 -0.7" stroke="#30363d" stroke-width="2.5" fill="none" stroke-dasharray="8 10"></path></g><g transform="translate(937.4810111514112 469.1913917466096) rotate(0 34.93798065185547 11.25)"><text x="0" y="NaN" font-family="Virgil, Segoe UI Emoji" font-size="18px" fill="#8b949e" text-anchor="start" style="white-space: pre;" direction="ltr">Monolith</text></g><g stroke-opacity="0.6" fill-opacity="0.6" stroke-linecap="round" transform="translate(919.4800951351883 10) rotate(0 184 193)"><path d="M1.58 -1.2 L367.12 -1 L366.81 385.11 L0.95 387.41" stroke="none" stroke-width="0" fill="#161b22"></path><path d="M0.03 0.55 C95.04 1.27, 189.93 1.49, 368.77 -0.42 M367.89 -0.87 C368.68 90.74, 369.17 183.69, 368.92 385.9 M368.75 385.32 C265.6 384.68, 165.16 385.35, 0.16 386.71 M-1.08 386.31 C0.39 256.36, 1.43 124.81, -0.74 -0.8" stroke="#30363d" stroke-width="2.5" fill="none" stroke-dasharray="8 10"></path></g><g transform="translate(935.4800951351883 20) rotate(0 55.97095489501953 11.25)"><text x="0" y="NaN" font-family="Virgil, Segoe UI Emoji" font-size="18px" fill="#8b949e" text-anchor="start" style="white-space: pre;" direction="ltr">New Services</text></g><g stroke-linecap="round" transform="translate(70 317.74735451882907) rotate(0 90 36.5)"><path d="M-0.85 0 L181.75 -1.94 L179.88 74.73 L1.93 71.12" stroke="none" stroke-width="0" fill="#1f4d2b"></path><path d="M-0.37 -0.98 C72.03 1.93, 144.64 -1.96, 181.7 0.46 M0.4 0.39 C38.63 -0.09, 76.37 0.89, 179.55 -0.42 M180.66 -0.17 C177.64 14.39, 179.61 30.95, 180.2 71.46 M179.03 -0.85 C179.93 17.49, 179.87 33.76, 180.05 73.79 M178 72.23 C114.41 73.85, 50.19 72.79, -0.72 73.91 M180 73.55 C135.68 75.17, 91.83 74.08, -0.66 73.93 M-0.65 73.98 C-2.46 42.08, 1.35 13.4, -1.82 -1.25 M-0.22 72.72 C1.3 50.15, 0.11 27.74, -0.75 0.41" stroke="#3fb950" stroke-width="2" fill="none"></path></g><g transform="translate(132.9500274658203 341.74735451882907) rotate(0 27.049972534179688 12.5)"><text x="27.049972534179688" y="NaN" font-family="Virgil, Segoe UI Emoji" font-size="20px" fill="#fff" text-anchor="middle" style="white-space: pre;" direction="ltr">Client</text></g><g stroke-linecap="round" transform="translate(460.24499699677915 316.05933645546816) rotate(0 140.5 36.5)"><path d="M-0.93 -0.69 L282.05 0.39 L282.11 73.23 L1.54 74.04" stroke="none" stroke-width="0" fill="#5c3a10"></path><path d="M-1 1.28 C105.28 0.47, 206.93 -0.77, 281.42 0.64 M-0.62 -0.12 C94.81 -0.35, 189.25 0.23, 281.18 -0.36 M281.47 -1.01 C280.92 28.97, 278.53 56.33, 279.66 73.89 M281.89 -0.15 C281.33 19.39, 279.97 37.69, 281.39 73.29 M281.22 72.18 C205.57 75.36, 130.2 75.81, -1.4 73.07 M280.66 72.28 C194.74 74.31, 107.33 74.43, 0.4 72.92 M1.04 72.37 C-1.42 46, -0.08 18.34, -1.14 1.35 M0.56 73.87 C0.77 49.14, 0.25 25.88, -0.73 -0.75" stroke="#f0883e" stroke-width="2" fill="none"></path></g><g transform="translate(492.23506352509946 340.05933645546816) rotate(0 108.50993347167969 12.5)"><text x="108.50993347167969" y="NaN" font-family="Virgil, Segoe UI Emoji" font-size="20px" fill="#fff" text-anchor="middle" style="white-space: pre;" direction="ltr">API Gateway / Proxy</text></g><g stroke-linecap="round" transform="translate(981.4810111514112 569.1913917466096) rotate(0 129.5 36.5)"><path d="M-0.05 -1.54 L259.81 0.64 L260.89 73.49 L0.62 72.66" stroke="none" stroke-width="0" fill="#4a1219"></path><path d="M0.38 0.46 C72.72 1.09, 149.02 1.77, 257.61 0.96 M-0.39 0.43 C65.18 0.95, 129.1 0.56, 259.61 -0.13 M258.28 0.8 C258.59 16.08, 258 34.23, 259.29 71.09 M258.2 0.41 C259.24 16.64, 258.58 34.34, 258.07 72.73 M258.99 71.97 C168.53 72.09, 74.07 72.96, 0.42 71.74 M258.85 73.01 C203 70.76, 147.07 71.56, -0.19 72.28 M1.37 72.76 C1.63 58.22, 1.28 43.1, 1.57 0.3 M0.49 72.73 C0.22 50.71, 1.05 29.12, 0.01 0.6" stroke="#f85149" stroke-width="2" fill="none"></path></g><g transform="translate(1026.7810828677198 593.1913917466096) rotate(0 84.1999282836914 12.5)"><text x="84.1999282836914" y="NaN" font-family="Virgil, Segoe UI Emoji" font-size="20px" fill="#fff" text-anchor="middle" style="white-space: pre;" direction="ltr">Monolith (Legacy)</text></g><g stroke-linecap="round" transform="translate(979.4800951351883 120) rotate(0 113 36.5)"><path d="M-0.19 -1.62 L225.67 0.84 L226.86 74.68 L-1.44 73.42" stroke="none" stroke-width="0" fill="#3a1d6e"></path><path d="M1.68 0.01 C58.49 -1.19, 118.42 -0.53, 227.5 -0.58 M0.75 0.26 C86.44 -0.27, 173.69 0.35, 225.97 -0.62 M227.85 -0.67 C224.14 15.94, 223.83 31.4, 226.29 71.18 M225.05 0.79 C225.96 16.59, 225.6 33.91, 225.68 72.79 M226.52 72.19 C155.94 72.9, 82.83 74.01, 0.12 71.37 M226.45 73.13 C162.61 72.51, 98.1 73.04, -0.44 73.53 M1.16 74.86 C0.22 50.24, 0.64 28.01, 0.76 1.87 M-0.73 72.84 C0.22 57.55, 0.25 43.2, -0.86 -0.63" stroke="#a371f7" stroke-width="2" fill="none"></path></g><g transform="translate(1021.2701647152664 144) rotate(0 71.20993041992188 12.5)"><text x="71.20993041992188" y="NaN" font-family="Virgil, Segoe UI Emoji" font-size="20px" fill="#fff" text-anchor="middle" style="white-space: pre;" direction="ltr">Orders Service</text></g><g stroke-linecap="round" transform="translate(979.4800951351883 263) rotate(0 124 36.5)"><path d="M1.18 -0.34 L246.95 -1.14 L249.91 72.02 L-1.57 74.3" stroke="none" stroke-width="0" fill="#0d2c5a"></path><path d="M-0.4 0.95 C69.47 2.52, 140.52 0.93, 248.47 1.34 M0.59 0.54 C93.1 -0.91, 186.65 -1.41, 248.53 -0.54 M248.83 0.16 C246.86 25.62, 245.79 46.88, 249.48 74.94 M248.35 0.91 C248.08 18.62, 247.64 36.35, 247.6 72.36 M248.17 72.35 C186.37 70.37, 125.74 71.55, -0.73 71.65 M247.96 73.67 C178.97 72.27, 110.77 72.94, 0.32 72.88 M0.88 71.64 C-0.55 53.68, -1.65 35.51, 1.24 0.84 M0.39 73.84 C-0.53 53.07, 0.29 32.72, 0.68 -0.9" stroke="#58a6ff" stroke-width="2" fill="none"></path></g><g transform="translate(1019.2001726498368 287) rotate(0 84.27992248535156 12.5)"><text x="84.27992248535156" y="NaN" font-family="Virgil, Segoe UI Emoji" font-size="20px" fill="#fff" text-anchor="middle" style="white-space: pre;" direction="ltr">Payments Service</text></g><g stroke-linecap="round"><g transform="translate(256 353.88705956448484) rotate(0 99.12249849838958 -0.37962253662144124)"><path d="M0.33 0.6 C33.26 0.69, 165.9 -0.11, 198.82 -0.29 M-0.96 -0.13 C31.76 -0.34, 165.2 -2.35, 198.17 -2.17" stroke="#3fb950" stroke-width="2" fill="none"></path></g><g transform="translate(256 353.88705956448484) rotate(0 99.12249849838958 -0.37962253662144124)"><path d="M171.04 9.22 C182.13 3.29, 193.01 0.89, 196.31 -3.86 M170.34 7.74 C178.21 4.07, 186.24 1.17, 197.19 -1.49" stroke="#3fb950" stroke-width="2" fill="none"></path></g><g transform="translate(256 353.88705956448484) rotate(0 99.12249849838958 -0.37962253662144124)"><path d="M170.91 -11.31 C181.91 -9.03, 192.84 -3.23, 196.31 -3.86 M170.21 -12.78 C178.19 -10.45, 186.27 -7.33, 197.19 -1.49" stroke="#3fb950" stroke-width="2" fill="none"></path></g></g><g transform="translate(316.1620407104492 342.99735451882907) rotate(0 53.837959289550795 11.25)"><text x="53.83795928955078" y="NaN" font-family="Virgil, Segoe UI Emoji" font-size="18px" fill="#c9d1d9" text-anchor="middle" style="white-space: pre;" direction="ltr">all requests</text></g><g stroke-linecap="round"><g transform="translate(747.2449969967792 346.49908666791714) rotate(0 113.11754906920464 -90.60877922741693)"><path d="M1.07 -0.5 C38.84 -30.4, 188.05 -150.38, 225.74 -180.44 M0.17 -1.81 C37.82 -31.96, 186.74 -151.96, 224.54 -182.15" stroke="#58a6ff" stroke-width="2" fill="none"></path></g><g transform="translate(747.2449969967792 346.49908666791714) rotate(0 113.11754906920464 -90.60877922741693)"><path d="M208.14 -157.32 C214.01 -160.77, 216.85 -167.02, 226.19 -181.02 M209.14 -157.31 C213.62 -165.26, 218.01 -173.07, 224.1 -181.87" stroke="#58a6ff" stroke-width="2" fill="none"></path></g><g transform="translate(747.2449969967792 346.49908666791714) rotate(0 113.11754906920464 -90.60877922741693)"><path d="M195.3 -173.32 C203.92 -173.28, 209.66 -175.92, 226.19 -181.02 M196.3 -173.31 C204.72 -176.37, 213.03 -179.3, 224.1 -181.87" stroke="#58a6ff" stroke-width="2" fill="none"></path></g></g><g transform="translate(803.6990280151367 246.49735451882907) rotate(0 36.80097198486328 11.25)"><text x="36.80097198486328" y="NaN" font-family="Virgil, Segoe UI Emoji" font-size="18px" fill="#c9d1d9" text-anchor="middle" style="white-space: pre;" direction="ltr">orders/*</text></g><g stroke-linecap="round"><g transform="translate(747.2449969967792 349.8981648464773) rotate(0 113.11754906920464 -23.474251622133345)"><path d="M-0.16 -0.11 C37.48 -7.65, 188.04 -37.94, 225.82 -45.91 M-1.71 -1.22 C35.74 -9.01, 186.73 -39.84, 224.65 -47.49" stroke="#58a6ff" stroke-width="2" fill="none"></path></g><g transform="translate(747.2449969967792 349.8981648464773) rotate(0 113.11754906920464 -23.474251622133345)"><path d="M198.88 -32.51 C208.48 -36, 212.72 -41.07, 224.09 -46.49 M198.27 -32.8 C209.25 -37.28, 217.7 -43.44, 224.09 -47.67" stroke="#58a6ff" stroke-width="2" fill="none"></path></g><g transform="translate(747.2449969967792 349.8981648464773) rotate(0 113.11754906920464 -23.474251622133345)"><path d="M194.8 -52.62 C205.49 -50.14, 210.95 -49.24, 224.09 -46.49 M194.18 -52.91 C206.64 -49.73, 216.65 -48.23, 224.09 -47.67" stroke="#58a6ff" stroke-width="2" fill="none"></path></g></g><g transform="translate(791.900032043457 317.99735451882907) rotate(0 48.59996795654297 11.25)"><text x="48.59996795654297" y="NaN" font-family="Virgil, Segoe UI Emoji" font-size="18px" fill="#c9d1d9" text-anchor="middle" style="white-space: pre;" direction="ltr">payments/*</text></g><g stroke-linecap="round"><g transform="translate(747.2449969967792 367.7837947907514) rotate(0 114.11800707731601 110.78258362889184)"><path d="M-0.81 -1.14 C37.4 35.71, 191.12 185.08, 229.15 222.18 M0.97 0.87 C39.11 37.89, 190.54 183.4, 228.68 220.37" stroke="#f0883e" stroke-width="2" fill="none"></path></g><g transform="translate(747.2449969967792 367.7837947907514) rotate(0 114.11800707731601 110.78258362889184)"><path d="M199.36 209.71 C210.37 210.44, 217.12 213.77, 228.68 219.77 M201.95 208.5 C206.61 210.77, 212.12 213.91, 228.15 219.75" stroke="#f0883e" stroke-width="2" fill="none"></path></g><g transform="translate(747.2449969967792 367.7837947907514) rotate(0 114.11800707731601 110.78258362889184)"><path d="M213.61 194.94 C220.6 199.88, 223.2 207.5, 228.68 219.77 M216.19 193.73 C218.02 199.09, 220.58 205.28, 228.15 219.75" stroke="#f0883e" stroke-width="2" fill="none"></path></g></g><g transform="translate(818.5050481414778 456.06637841964323) rotate(0 42.85795593261719 22.5)"><text x="42.85795593261719" y="NaN" font-family="Virgil, Segoe UI Emoji" font-size="18px" fill="#c9d1d9" text-anchor="middle" style="white-space: pre;" direction="ltr">everything</text><text x="42.85795593261719" y="NaN" font-family="Virgil, Segoe UI Emoji" font-size="18px" fill="#c9d1d9" text-anchor="middle" style="white-space: pre;" direction="ltr">else</text></g></svg>