<svg version="1.1" xmlns="http://www.w3.org/2000/svg" viewBox="0 0 1138.8 825" width="1138.8" height="825">
  <!-- svg-source:excalidraw -->
  
  <defs>
    <style>
      @font-face {
        font-family: "Virgil";
        src: url("https://excalidraw.com/Virgil.woff2");
      }
      @font-face {
        font-family: "Cascadia";
        src: url("https://excalidraw.com/Cascadia.woff2");
      }
    </style>
  </defs>
  <rect x="0" y="0" width="1138.8" height="825" fill="#0d1117"></rect><g stroke-linecap="round" transform="translate(88.80000000000001 10) rotate(0 100 30)"><path d="M1.25 0.28 L200.53 0.81 L201.64 59.59 L-0.94 60.39" stroke="none" stroke-width="0" fill="#3a1d6e"></path><path d="M-0.2 1.04 C60.54 -0.89, 121.29 0.11, 199.77 -1.09 M0.15 -0.85 C63.64 -2.02, 128.84 -2.43, 199.52 -0.25 M200.43 -1.23 C201.08 13.8, 198.71 26.29, 200.78 60.97 M200.32 0.43 C198.98 14.36, 200.17 26.23, 199.74 60.55 M200.09 59.56 C141.88 60.39, 83.65 60.98, 1.75 60.22 M199.81 59.52 C124.58 61.1, 49.41 61.26, 0.72 60.6 M-0.48 60.18 C-0.71 45.86, 0.98 31.52, -1.11 -1.81 M-0.54 59.2 C0.22 41.94, 0.53 22.05, -0.55 -0.86" stroke="#a371f7" stroke-width="2" fill="none"></path></g><g transform="translate(124.27006225585939 15) rotate(0 64.52993774414062 25)"><text x="64.52993774414062" y="NaN" font-family="Virgil, Segoe UI Emoji" font-size="20px" fill="#ffffff" text-anchor="middle" style="white-space: pre;" direction="ltr">Order</text><text x="64.52993774414062" y="NaN" font-family="Virgil, Segoe UI Emoji" font-size="20px" fill="#ffffff" text-anchor="middle" style="white-space: pre;" direction="ltr">Orchestrator</text></g><g stroke-linecap="round"><g transform="translate(188.8 60) rotate(0 0.7038787581432189 345.5711753955552)"><path d="M-0.12 -0.19 C0.01 115.13, 0.74 575.76, 1.09 690.92" stroke="#30363d" stroke-width="1.5" fill="none" stroke-dasharray="8 9"></path></g></g><g stroke-linecap="round" transform="translate(88.80000000000001 755) rotate(0 100 30)"><path d="M0.16 0.32 L199.86 -1.03 L200.95 59.87 L1.75 58.03" stroke="none" stroke-width="0" fill="#3a1d6e"></path><path d="M-1.51 0.31 C40.87 1, 78.78 2.2, 198.97 -0.35 M0.52 -0.53 C68.53 -1.39, 138.9 -1.14, 200.27 -0.38 M200.63 -1.42 C200.8 13.26, 201.32 28.19, 199.76 60.18 M199.75 0.6 C200.34 21.76, 200.82 44.91, 199.74 60.16 M200.06 61.46 C151.87 62.04, 103.2 61.82, -0.63 59.98 M200.23 60.11 C131.27 58.27, 63.99 57.94, -0.18 60.63 M1.72 59.13 C-0.43 42.23, -1.72 24.15, -1.96 -1.58 M-0.34 60.59 C1.5 44.21, 0.72 30.7, 0.78 -0.29" stroke="#a371f7" stroke-width="2" fill="none"></path></g><g transform="translate(124.27006225585939 760) rotate(0 64.52993774414062 25)"><text x="64.52993774414062" y="NaN" font-family="Virgil, Segoe UI Emoji" font-size="20px" fill="#ffffff" text-anchor="middle" style="white-space: pre;" direction="ltr">Order</text><text x="64.52993774414062" y="NaN" font-family="Virgil, Segoe UI Emoji" font-size="20px" fill="#ffffff" text-anchor="middle" style="white-space: pre;" direction="ltr">Orchestrator</text></g><g stroke-linecap="round" transform="translate(368.8 10) rotate(0 100 25)"><path d="M1.33 1.09 L200.58 -1.24 L199.91 50.92 L-0.09 48.94" stroke="none" stroke-width="0" fill="#3a1d6e"></path><path d="M0.28 -1.43 C60.65 0.12, 121.79 0.07, 199.51 0.45 M-0.58 0.83 C50.63 0.37, 100.78 0.99, 199.92 0.8 M198.18 -1.76 C200.08 9.93, 199.02 19.77, 201.85 50.65 M200.76 0.05 C200.27 18.03, 200.16 37.6, 199.43 49.44 M199.11 51.34 C160.23 49.44, 119.16 48.47, 1.32 49.25 M199.38 49.94 C138.8 50.34, 76.16 50.61, -0.43 49.23 M1.66 49.45 C-0.32 35.52, -1.58 20.44, -1.43 -1.79 M0.8 50.65 C-0.19 38.18, -0.34 27.82, 0.65 -0.71" stroke="#a371f7" stroke-width="2" fill="none"></path></g><g transform="translate(384.37007598876954 22.5) rotate(0 84.42992401123047 12.5)"><text x="84.42992401123047" y="NaN" font-family="Virgil, Segoe UI Emoji" font-size="20px" fill="#ffffff" text-anchor="middle" style="white-space: pre;" direction="ltr">Inventory Service</text></g><g stroke-linecap="round"><g transform="translate(468.9302414045124 60) rotate(0 0 345.70563211473257)"><path d="M0.18 0.75 C0.13 115.96, 0.23 576.46, 0.38 691.55" stroke="#30363d" stroke-width="1.5" fill="none" stroke-dasharray="8 9"></path></g></g><g stroke-linecap="round" transform="translate(368.8 755) rotate(0 100 25)"><path d="M1.49 -0.1 L199.53 -1.3 L200.06 51.35 L0.52 51.61" stroke="none" stroke-width="0" fill="#3a1d6e"></path><path d="M0.49 -0.48 C48.76 -0.28, 96.24 0.04, 200.53 -1.79 M0.85 0.49 C50.03 -0.14, 100.39 -0.03, 199.9 -0.47 M199.6 -1.61 C201.52 20, 198.7 40.89, 201.56 50.16 M199.37 0.76 C200.58 10.12, 199.66 21.66, 199.02 49.09 M199.22 50.21 C124.96 49.14, 52.25 47.64, 0.84 49.58 M200.75 50.27 C155.39 49.88, 110.53 50.31, -0.83 49.29 M1.51 50.44 C-1.16 34.9, -1.1 19.2, -1.33 0.69 M0.3 50.35 C-0.64 38.59, -1.18 27.53, 0.51 0.73" stroke="#a371f7" stroke-width="2" fill="none"></path></g><g transform="translate(384.37007598876954 767.5) rotate(0 84.42992401123047 12.5)"><text x="84.42992401123047" y="NaN" font-family="Virgil, Segoe UI Emoji" font-size="20px" fill="#ffffff" text-anchor="middle" style="white-space: pre;" direction="ltr">Inventory Service</text></g><g stroke-linecap="round" transform="translate(648.8 10) rotate(0 100 25)"><path d="M0.11 -1.17 L198.46 -0.99 L199.05 48.24 L1.1 50.65" stroke="none" stroke-width="0" fill="#3a1d6e"></path><path d="M0.09 -0.04 C45.97 0.75, 90.16 2.82, 201.64 0.19 M0.55 0.26 C52.93 -1.18, 104.93 -1.41, 200.59 -0.04 M201.96 0.72 C198.93 10.96, 199.05 21.58, 201.31 51.95 M200.8 -0.85 C199.95 17.34, 198.99 33.69, 200.81 49.79 M199.14 51.22 C149.46 50.26, 99.79 49.75, 0.32 51.2 M199.33 49.5 C159.63 50.85, 117.87 50.97, -0.02 49.58 M1.52 50.16 C-0.1 38.33, -0.45 23, -1.78 1.12 M-0.35 50.15 C-0.36 33.31, 0.19 18.27, 0.35 0.29" stroke="#a371f7" stroke-width="2" fill="none"></path></g><g transform="translate(669.9500701904296 22.5) rotate(0 78.84992980957031 12.5)"><text x="78.84992980957031" y="NaN" font-family="Virgil, Segoe UI Emoji" font-size="20px" fill="#ffffff" text-anchor="middle" style="white-space: pre;" direction="ltr">Payment Service</text></g><g stroke-linecap="round"><g transform="translate(748.8 60) rotate(0 0.4118401823265003 345.8043965433812)"><path d="M0.39 0.08 C0.3 115.54, 0.2 576.5, 0.24 691.7" stroke="#30363d" stroke-width="1.5" fill="none" stroke-dasharray="8 9"></path></g></g><g stroke-linecap="round" transform="translate(648.8 755) rotate(0 100 25)"><path d="M1.47 -1.63 L201.7 -0.98 L201.87 50.31 L-1.98 51.21" stroke="none" stroke-width="0" fill="#3a1d6e"></path><path d="M0.29 -0.93 C45.01 2.11, 88.68 0.06, 199.11 -1.6 M-0.32 -0.8 C61.4 -1.42, 122.17 -0.08, 199.32 0.03 M201.56 -1.1 C201.26 18.62, 197.91 35.02, 198.33 51.86 M199.64 0.69 C199.8 17.4, 200.9 37.11, 200.2 50.65 M199.26 49.72 C126.03 50.21, 51.23 51.49, 0.5 50.44 M199.24 50.72 C151.04 50.7, 101.54 50.68, 0.49 50.8 M-1.46 50.62 C1.06 40.2, -1.58 27.88, 0.19 -1.07 M0.32 50.69 C1.01 34.93, 0.03 20.46, 0.85 0.49" stroke="#a371f7" stroke-width="2" fill="none"></path></g><g transform="translate(669.9500701904296 767.5) rotate(0 78.84992980957031 12.5)"><text x="78.84992980957031" y="NaN" font-family="Virgil, Segoe UI Emoji" font-size="20px" fill="#ffffff" text-anchor="middle" style="white-space: pre;" direction="ltr">Payment Service</text></g><g stroke-linecap="round" transform="translate(928.8 10) rotate(0 100 25)"><path d="M0.77 1.93 L198.69 -0.64 L200.27 49.75 L0.84 48.93" stroke="none" stroke-width="0" fill="#3a1d6e"></path><path d="M0.51 -0.05 C54.88 -1.08, 107.52 0.3, 198.73 0.75 M0.18 0.62 C53.25 0.28, 107.84 -0.1, 199.9 -0.23 M200.89 -1.85 C202.24 16.32, 199.82 32.31, 199.12 50.6 M199.59 0.48 C200.75 18.74, 200.74 36.47, 199.87 50.78 M199.01 51.7 C149.74 48.11, 96.66 50.35, 1.45 49.33 M200.57 50.5 C139.65 50.76, 80.38 51.57, -0.38 50.55 M1.27 49.3 C-0.12 37.06, -1.13 19.89, -0.57 -1.11 M0.53 49.74 C-0.54 35.56, 0.48 20.56, -0.29 0" stroke="#a371f7" stroke-width="2" fill="none"></path></g><g transform="translate(955.1000793457031 22.5) rotate(0 73.69992065429688 12.5)"><text x="73.69992065429688" y="NaN" font-family="Virgil, Segoe UI Emoji" font-size="20px" fill="#ffffff" text-anchor="middle" style="white-space: pre;" direction="ltr">Shipping Service</text></g><g stroke-linecap="round"><g transform="translate(1028.8 60) rotate(0 0.5126137796473813 347.0986951228874)"><path d="M0.49 -0.88 C1.01 114.91, 1.76 578.57, 1.93 694.41" stroke="#30363d" stroke-width="1.5" fill="none" stroke-dasharray="8 9"></path></g></g><g stroke-linecap="round" transform="translate(928.8 755) rotate(0 100 25)"><path d="M0.87 1.48 L201.87 -0.06 L200.59 51.44 L1.86 48.8" stroke="none" stroke-width="0" fill="#3a1d6e"></path><path d="M0.19 0.61 C51.71 -0.49, 105.37 2.06, 200.47 -1.64 M0.03 -0.75 C52.73 -1.62, 105.25 -0.19, 200.28 -0.51 M199.37 1.94 C201.42 14.67, 202.03 27.94, 199.92 50.84 M199.74 0.57 C200.46 16.79, 200.48 33.83, 199.27 50.78 M201.64 48.49 C156.87 50.11, 118.56 52.3, -0.96 49.14 M199.1 49.44 C133.33 49.93, 66.67 49.55, 0.15 50.34 M1.21 51.67 C0.01 39.93, 0.1 25.44, -0.1 -0.01 M-0.53 50.44 C-1.36 38.28, -1.36 27, -0.86 0.06" stroke="#a371f7" stroke-width="2" fill="none"></path></g><g transform="translate(955.1000793457031 767.5) rotate(0 73.69992065429688 12.5)"><text x="73.69992065429688" y="NaN" font-family="Virgil, Segoe UI Emoji" font-size="20px" fill="#ffffff" text-anchor="middle" style="white-space: pre;" direction="ltr">Shipping Service</text></g><g stroke-linecap="round"><g transform="translate(188.8 140) rotate(0 140 0)"><path d="M0.96 -0.13 C47.5 -0.09, 232.49 -0.76, 278.82 -0.81 M0 -1.25 C46.92 -0.99, 234.03 -0.02, 280.91 0.3" stroke="#c9d1d9" stroke-width="2" fill="none"></path></g><g transform="translate(188.8 140) rotate(0 140 0)"><path d="M252.44 8.43 C258.92 5.72, 267.1 3.56, 280.81 0.64 M252.33 10.41 C259.23 9.03, 263.66 6.18, 281.34 0.1" stroke="#c9d1d9" stroke-width="2" fill="none"></path></g><g transform="translate(188.8 140) rotate(0 140 0)"><path d="M252.56 -12.09 C258.83 -9.34, 266.98 -6.03, 280.81 0.64 M252.45 -10.11 C259.23 -7.34, 263.63 -6.03, 281.34 0.1" stroke="#c9d1d9" stroke-width="2" fill="none"></path></g></g><g transform="translate(251.7960708618164 128.75) rotate(0 77.00392913818361 11.25)"><text x="77.0039291381836" y="NaN" font-family="Virgil, Segoe UI Emoji" font-size="18px" fill="#c9d1d9" text-anchor="middle" style="white-space: pre;" direction="ltr">Reserve inventory</text></g><g stroke-linecap="round"><g transform="translate(468.8 220) rotate(0 -140 0)"><path d="M0.22 -0.03 C-46.65 -0.03, -234.13 0.95, -280.95 0.81" stroke="#c9d1d9" stroke-width="2.5" fill="none" stroke-dasharray="8 10"></path></g><g transform="translate(468.8 220) rotate(0 -140 0)"><path d="M-252.83 -11.08 C-260.41 -7.28, -272.26 -2.46, -280.31 -1.01" stroke="#c9d1d9" stroke-width="2.5" fill="none"></path></g><g transform="translate(468.8 220) rotate(0 -140 0)"><path d="M-252.79 9.45 C-260.52 6.64, -272.38 4.86, -280.31 -1.01" stroke="#c9d1d9" stroke-width="2.5" fill="none"></path></g></g><g transform="translate(272.79304199218757 208.75) rotate(0 56.006958007812486 11.25)"><text x="56.0069580078125" y="NaN" font-family="Virgil, Segoe UI Emoji" font-size="18px" fill="#c9d1d9" text-anchor="middle" style="white-space: pre;" direction="ltr">Reserved OK</text></g><g stroke-linecap="round"><g transform="translate(188.8 300) rotate(0 280 0)"><path d="M0.62 -0.08 C93.92 0.13, 466.99 0.45, 560.05 0.46 M-0.52 -1.17 C92.61 -1.25, 465.49 -1.83, 559.13 -1.43" stroke="#c9d1d9" stroke-width="2" fill="none"></path></g><g transform="translate(188.8 300) rotate(0 280 0)"><path d="M530.79 8.89 C540.74 3.64, 548.89 1.27, 558.05 -1.84 M531.83 8.5 C539.07 6.47, 548.11 2.93, 559.99 -1.13" stroke="#c9d1d9" stroke-width="2" fill="none"></path></g><g transform="translate(188.8 300) rotate(0 280 0)"><path d="M530.81 -11.63 C540.61 -10.34, 548.76 -6.17, 558.05 -1.84 M531.84 -12.02 C539.07 -7.9, 548.1 -5.27, 559.99 -1.13" stroke="#c9d1d9" stroke-width="2" fill="none"></path></g></g><g transform="translate(400.18404083251954 288.75) rotate(0 68.61595916748047 11.25)"><text x="68.61595916748047" y="NaN" font-family="Virgil, Segoe UI Emoji" font-size="18px" fill="#c9d1d9" text-anchor="middle" style="white-space: pre;" direction="ltr">Charge payment</text></g><g stroke-linecap="round"><g transform="translate(748.8 380) rotate(0 -280 0)"><path d="M0.56 0.14 C-92.87 0.21, -467.46 -0.64, -561.08 -0.56" stroke="#c9d1d9" stroke-width="2.5" fill="none" stroke-dasharray="8 10"></path></g><g transform="translate(748.8 380) rotate(0 -280 0)"><path d="M-532.64 -12.6 C-541.14 -10.01, -546.45 -5.73, -562.5 1.42" stroke="#c9d1d9" stroke-width="2.5" fill="none"></path></g><g transform="translate(748.8 380) rotate(0 -280 0)"><path d="M-532.66 7.92 C-540.99 5.24, -546.29 4.25, -562.5 1.42" stroke="#c9d1d9" stroke-width="2.5" fill="none"></path></g></g><g transform="translate(403.4600494384766 368.75) rotate(0 65.33995056152344 11.25)"><text x="65.33995056152344" y="NaN" font-family="Virgil, Segoe UI Emoji" font-size="18px" fill="#c9d1d9" text-anchor="middle" style="white-space: pre;" direction="ltr">Payment failed</text></g><g stroke-opacity="0.85" fill-opacity="0.85" stroke-linecap="round" transform="translate(10 418) rotate(0 178.8 22)"><path d="M0.78 -0.29 L357.58 -0.71 L358.47 43.1 L0.25 45.54" stroke="none" stroke-width="0" fill="#1f4d2b"></path><path d="M1.21 -0.43 C92.41 -2.25, 185.91 -1.58, 357.37 -0.86 M0.13 0 C132.75 -1, 264.61 -0.35, 357.05 -0.6 M357.57 0.18 C358.23 12.45, 358.65 22.36, 359.32 44.48 M356.9 0.64 C357.06 12.71, 357.71 25.2, 356.7 44.89 M358.18 44.32 C220.39 46.07, 83.81 46.11, -0.51 44.06 M357.98 43.98 C237.72 43.15, 118.04 43.2, 0.24 44.43 M1.95 42.19 C0.91 34.45, -0.44 24.11, -1.91 -1.9 M0.33 43.18 C0.66 32.74, -0.39 20.33, -0.34 0.67" stroke="#3fb950" stroke-width="2" fill="none"></path></g><g transform="translate(40.20008544921876 430) rotate(0 148.59991455078125 10)"><text x="148.59991455078125" y="NaN" font-family="Virgil, Segoe UI Emoji" font-size="16px" fill="#ffffff" text-anchor="middle" style="white-space: pre;" direction="ltr">Payment failed - trigger compensation</text></g><g stroke-linecap="round"><g transform="translate(188.8 515) rotate(0 140 0)"><path d="M0.72 -0.24 C47.58 -0.02, 234.6 0.26, 281.15 0.3 M-0.35 -1.4 C46.45 -1.48, 234.2 -2.12, 280.81 -1.67" stroke="#c9d1d9" stroke-width="2" fill="none"></path></g><g transform="translate(188.8 515) rotate(0 140 0)"><path d="M252.2 10.45 C261.63 5.38, 269.55 4.01, 280.74 -0.72 M253.38 8.82 C263.44 3.75, 275.04 0.86, 280.98 -1.82" stroke="#c9d1d9" stroke-width="2" fill="none"></path></g><g transform="translate(188.8 515) rotate(0 140 0)"><path d="M252.25 -10.07 C261.49 -8.99, 269.39 -4.21, 280.74 -0.72 M253.43 -11.7 C263.38 -8.96, 274.97 -4.03, 280.98 -1.82" stroke="#c9d1d9" stroke-width="2" fill="none"></path></g></g><g transform="translate(252.00306396484376 503.75) rotate(0 76.79693603515625 22.5)"><text x="76.79693603515625" y="NaN" font-family="Virgil, Segoe UI Emoji" font-size="18px" fill="#c9d1d9" text-anchor="middle" style="white-space: pre;" direction="ltr">Release inventory</text><text x="76.79693603515625" y="NaN" font-family="Virgil, Segoe UI Emoji" font-size="18px" fill="#c9d1d9" text-anchor="middle" style="white-space: pre;" direction="ltr">(compensate)</text></g><g stroke-linecap="round"><g transform="translate(468.8 595) rotate(0 -140 0)"><path d="M0.01 -1.18 C-46.53 -1.2, -233.31 -0.67, -279.87 -0.31" stroke="#c9d1d9" stroke-width="2.5" fill="none" stroke-dasharray="8 10"></path></g><g transform="translate(468.8 595) rotate(0 -140 0)"><path d="M-253.7 -10.49 C-259.28 -6.97, -264.13 -3.59, -278.4 -0.28" stroke="#c9d1d9" stroke-width="2.5" fill="none"></path></g><g transform="translate(468.8 595) rotate(0 -140 0)"><path d="M-253.6 10.03 C-259.17 8.43, -264.05 6.69, -278.4 -0.28" stroke="#c9d1d9" stroke-width="2.5" fill="none"></path></g></g><g transform="translate(273.0000350952149 583.75) rotate(0 55.79996490478514 11.25)"><text x="55.799964904785156" y="NaN" font-family="Virgil, Segoe UI Emoji" font-size="18px" fill="#c9d1d9" text-anchor="middle" style="white-space: pre;" direction="ltr">Released OK</text></g><g stroke-linecap="round"><g transform="translate(188.8 675) rotate(0 30 15)"><path d="M0.31 0.73 C10.39 0.79, 49.57 -5.43, 59.45 -0.54 C69.32 4.35, 69.3 24.87, 59.55 30.06 C49.79 35.24, 10.95 30.68, 0.92 30.58 M-0.99 0.07 C8.98 0.36, 48.29 -4.51, 58.21 0.71 C68.13 5.94, 67.97 26.8, 58.55 31.4 C49.12 36, 11.2 28.64, 1.64 28.32" stroke="#c9d1d9" stroke-width="2" fill="none"></path></g><g transform="translate(188.8 675) rotate(0 30 15)"><path d="M32.03 20.39 C23.67 22.12, 18.47 25.89, 2.61 27.27 M30.73 20.93 C23.35 23.39, 16.33 25.6, 1.26 27.99" stroke="#c9d1d9" stroke-width="2" fill="none"></path></g><g transform="translate(188.8 675) rotate(0 30 15)"><path d="M29.72 40.78 C21.99 38.18, 17.28 37.62, 2.61 27.27 M28.41 41.32 C21.58 38.61, 15.15 35.66, 1.26 27.99" stroke="#c9d1d9" stroke-width="2" fill="none"></path></g></g><g transform="translate(163.23106842041017 678.75) rotate(0 93.06893157958984 11.25)"><text x="93.06893157958984" y="NaN" font-family="Virgil, Segoe UI Emoji" font-size="18px" fill="#c9d1d9" text-anchor="middle" style="white-space: pre;" direction="ltr">Mark order as failed</text></g></svg>