<svg version="1.1" xmlns="http://www.w3.org/2000/svg" viewBox="0 0 1272 1353.1433942180754" width="1272" height="1353.1433942180754">
  <!-- svg-source:excalidraw -->
  
  <defs>
    <style>
      @font-face {
        font-family: "Virgil";
        src: url("https://excalidraw.com/Virgil.woff2");
      }
      @font-face {
        font-family: "Cascadia";
        src: url("https://excalidraw.com/Cascadia.woff2");
      }
    </style>
  </defs>
  <rect x="0" y="0" width="1272" height="1353.1433942180754" fill="#1e1e2e"></rect><g stroke-opacity="0.6" fill-opacity="0.6" stroke-linecap="round" transform="translate(27.957521379543664 10) rotate(0 608.4064836339685 149.0301294269385)"><path d="M-1.99 -0.51 L1216.95 -0.96 L1215.98 299.26 L1.98 298.68" stroke="none" stroke-width="0" fill="#181825"></path><path d="M0.18 0.13 C431.98 2.08, 863.23 0.69, 1216.26 -0.09 M1215.37 -0.45 C1216.6 86.27, 1216.76 173.74, 1216.05 297.36 M1217.46 298.08 C824.24 297.99, 431.5 297.08, -0.5 298.2 M-0.46 296.89 C1.26 189.81, 0.97 80.54, -1.13 -0.92" stroke="#45475a" stroke-width="2.5" fill="none" stroke-dasharray="8 10"></path></g><g transform="translate(43.124062649385735 42.83395481865011) rotate(0 141.1739044189453 11.25)"><text x="0" y="NaN" font-family="Virgil, Segoe UI Emoji" font-size="18px" fill="#a6adc8" text-anchor="start" style="white-space: pre;" direction="ltr">Synchronous (Request-Response)</text></g><g stroke-opacity="0.6" fill-opacity="0.6" stroke-linecap="round" transform="translate(10.000000000000057 350.99656466715624) rotate(0 626 218.3693467996581)"><path d="M1.42 -0.93 L1253.4 -0.51 L1250.41 438.03 L-0.96 435.46" stroke="none" stroke-width="0" fill="#181825"></path><path d="M-0.64 -0.34 C262.64 2.22, 526.5 2.15, 1251.58 0.47 M1251.04 -0.27 C1252.04 114.6, 1252.1 231.13, 1252.49 436.66 M1252.67 437.31 C797.64 441, 342.98 440.79, 0.14 436.29 M0.8 435.78 C1.16 294.34, 1.64 154.32, 0.31 0.84" stroke="#45475a" stroke-width="2.5" fill="none" stroke-dasharray="8 10"></path></g><g transform="translate(61.45149780274494 398.6623341151308) rotate(0 122.87689971923828 11.25)"><text x="0" y="NaN" font-family="Virgil, Segoe UI Emoji" font-size="18px" fill="#a6adc8" text-anchor="start" style="white-space: pre;" direction="ltr">Asynchronous (Event-Driven)</text></g><g stroke-linecap="round" transform="translate(97.75957821239052 143.0698594129194) rotate(0 107.5 36.5)"><path d="M1.36 1.15 L214.86 0.7 L214.58 72.81 L-0.46 71.54" stroke="none" stroke-width="0" fill="#5b21b6"></path><path d="M1.51 -1.04 C47.9 -1.13, 97.61 -0.67, 214.24 1.36 M0.29 -0.08 C68.79 -2.05, 137.62 -1.92, 214.34 -0.61 M215.04 -0.92 C213.77 27.92, 216.11 55.14, 213.6 72.94 M215.12 -0.44 C214.65 24.79, 214.42 49.18, 215.64 73.89 M216.18 73.43 C156.22 73.57, 95.18 74.92, -0.85 74.39 M214.55 73.06 C146.61 74.01, 79.36 73.34, 0.87 72.82 M1.08 72.63 C1.46 54.04, 0.9 33.27, -0.8 -0.49 M0.11 73.92 C-0.4 50.52, 0.07 29.56, -0.62 0.94" stroke="#7c3aed" stroke-width="2" fill="none"></path></g><g transform="translate(139.4796404682499 167.0698594129194) rotate(0 65.77993774414062 12.5)"><text x="65.77993774414062" y="NaN" font-family="Virgil, Segoe UI Emoji" font-size="20px" fill="#fff" text-anchor="middle" style="white-space: pre;" direction="ltr">Order Service</text></g><g stroke-linecap="round" transform="translate(911.1067730077832 152.0870443069674) rotate(0 118.5 36.5)"><path d="M0.38 1.71 L237.09 1.69 L237.73 73.33 L-1.52 72.88" stroke="none" stroke-width="0" fill="#1e40af"></path><path d="M-1.5 0.17 C73.55 -2.44, 147.63 0.02, 236.34 -0.77 M-0.34 0.36 C76.38 -2.04, 152.92 -2.25, 237.72 0.31 M237.85 0.43 C237.14 28.51, 235.75 55.28, 236.31 71.33 M236.06 0.27 C236.02 24.08, 236.05 48.54, 236.8 72.09 M236.88 74.04 C159.49 73.83, 80.29 75.08, -1.59 73.76 M237.58 72.6 C149.7 74.81, 62.83 73.68, -0.65 72.81 M-0.35 72.32 C-0.07 51, -0.05 26.76, -1.19 -0.42 M0.4 73.25 C-1.01 53.93, -0.33 34.55, -0.36 -0.03" stroke="#3b82f6" stroke-width="2" fill="none"></path></g><g transform="translate(950.7568431982129 176.0870443069674) rotate(0 78.84992980957031 12.5)"><text x="78.84992980957031" y="NaN" font-family="Virgil, Segoe UI Emoji" font-size="20px" fill="#fff" text-anchor="middle" style="white-space: pre;" direction="ltr">Payment Service</text></g><g stroke-linecap="round" transform="translate(71.2507928414501 519.193568103165) rotate(0 107.5 36.5)"><path d="M-0.09 0.15 L215.54 -1.84 L214.31 73.57 L-0.97 73.31" stroke="none" stroke-width="0" fill="#5b21b6"></path><path d="M-0.77 1.67 C73.63 -2.09, 146.68 -1.17, 215.78 1.51 M0.69 -0.55 C76.77 -1.17, 153.9 -2.41, 215.79 0.22 M216.94 1.7 C213.12 22.98, 215.03 47.36, 215.3 74.67 M214.47 -0.71 C214.58 17.95, 216.04 37.11, 215.86 72.7 M215.17 73.11 C156.45 70.93, 100.22 70.56, -0.02 71.25 M215.18 73.24 C149.53 74.28, 85.31 74.77, -0.24 73.62 M1.57 71.54 C1.55 46.31, -1.61 19.27, 1.53 1.83 M-0.34 72.88 C0.72 44.56, -0.72 17.38, 0.58 0.33" stroke="#7c3aed" stroke-width="2" fill="none"></path></g><g transform="translate(112.97085509730948 543.193568103165) rotate(0 65.77993774414062 12.5)"><text x="65.77993774414062" y="NaN" font-family="Virgil, Segoe UI Emoji" font-size="20px" fill="#fff" text-anchor="middle" style="white-space: pre;" direction="ltr">Order Service</text></g><g stroke-linecap="round" transform="translate(544.804266715342 529.1483774331881) rotate(0 90 36.5)"><path d="M0.7 -1.03 L179.75 -1.06 L179.97 74.89 L-0.26 71.68" stroke="none" stroke-width="0" fill="#b45309"></path><path d="M1.81 -1.07 C71.78 -2.15, 141.63 -2.42, 178.38 0.86 M-0.49 -0.19 C50.08 -1.54, 101.64 -2, 179.89 -0.61 M178.33 -1.15 C179.77 20.8, 181.55 41.43, 179.84 73.87 M179.29 -0.61 C180.92 18.08, 180.39 36.83, 180.65 73.05 M180.41 71.27 C106.45 74.68, 36.48 74.7, -0.19 71.77 M180.52 73.04 C138.21 74.23, 95.84 74.75, -0.96 72.38 M1.51 72.71 C-1.16 50.26, 0.56 29.32, 0.82 -0.15 M0.09 72.28 C-1.4 54.65, 0.09 37.6, -0.66 -0.11" stroke="#d97706" stroke-width="2" fill="none"></path></g><g transform="translate(605.6042850258889 553.1483774331881) rotate(0 29.199981689453125 12.5)"><text x="29.199981689453125" y="NaN" font-family="Virgil, Segoe UI Emoji" font-size="20px" fill="#fff" text-anchor="middle" style="white-space: pre;" direction="ltr">Kafka</text></g><g stroke-linecap="round" transform="translate(964.804266715342 386.1483774331881) rotate(0 118.5 36.5)"><path d="M-0.13 -1.03 L237.84 0.21 L237.58 74.05 L-1.91 71.82" stroke="none" stroke-width="0" fill="#1e40af"></path><path d="M0.96 -0.46 C81.86 -1.05, 164.1 -0.96, 235.74 0.49 M-0.14 -0.64 C76.08 -0.92, 153.83 0.16, 236.73 -0.57 M236.1 1.3 C237.73 29.63, 236.48 56.84, 235.85 73.33 M237.76 -0.23 C237.98 19.89, 236.81 39.07, 236.94 72.01 M237.32 72.24 C177.18 72.68, 119.45 71.54, -0.6 74.06 M236.88 72.19 C175.66 72.91, 115.09 73.62, -0.38 72.31 M-1.99 74.11 C0.35 45.41, 1.53 18.55, 0.43 0.5 M0.37 73.65 C-0.78 45.58, 0.78 16.67, -0.53 -0.69" stroke="#3b82f6" stroke-width="2" fill="none"></path></g><g transform="translate(1004.4543369057717 410.1483774331881) rotate(0 78.84992980957031 12.5)"><text x="78.84992980957031" y="NaN" font-family="Virgil, Segoe UI Emoji" font-size="20px" fill="#fff" text-anchor="middle" style="white-space: pre;" direction="ltr">Payment Service</text></g><g stroke-linecap="round" transform="translate(964.804266715342 529.1483774331881) rotate(0 129.5 36.5)"><path d="M0.76 1.86 L257.75 -1.09 L257.2 73.64 L-0.7 72.82" stroke="none" stroke-width="0" fill="#1e40af"></path><path d="M-0.38 -0.47 C103.73 -0.42, 202.94 1.79, 257.63 -1.05 M-0.58 -0.45 C88.21 -1.81, 174.86 -1.35, 259.17 -0.55 M260.11 -1.3 C257.25 19.83, 260.32 36.45, 257.92 71.05 M259.32 -0.73 C259.23 15.39, 258.68 31.87, 258.36 72.84 M259.9 72.96 C165.17 74.09, 71.19 73.31, 0.41 72.37 M259.13 73.08 C204.04 70.83, 150.27 71.29, -0.05 72.45 M-0.53 71.15 C-0.99 52.31, -1.69 36.34, -0.02 0.77 M-0.8 73.33 C0.46 49.77, -1.09 26.33, -0.14 0.6" stroke="#3b82f6" stroke-width="2" fill="none"></path></g><g transform="translate(1009.8743427041115 553.1483774331881) rotate(0 84.42992401123047 12.5)"><text x="84.42992401123047" y="NaN" font-family="Virgil, Segoe UI Emoji" font-size="20px" fill="#fff" text-anchor="middle" style="white-space: pre;" direction="ltr">Inventory Service</text></g><g stroke-linecap="round" transform="translate(964.804266715342 672.1483774331881) rotate(0 146 36.5)"><path d="M0.71 -0.99 L290.68 1.05 L291.07 72.9 L-1.19 74.46" stroke="none" stroke-width="0" fill="#1e40af"></path><path d="M0.94 0.98 C112.86 2.6, 226.7 0.65, 293.38 0.19 M-0.21 -0.23 C71.36 0.61, 141.29 -0.38, 291.73 -0.73 M290.3 -1.56 C292.99 19.08, 293.94 36.07, 293.18 71.21 M292.38 -0.5 C292.47 24.37, 292.24 50.5, 292.12 72.82 M292.91 74.05 C202.89 72.25, 111.81 74.09, 0.74 73.88 M291.84 72.93 C214.72 75.01, 137.35 75.34, -0.56 73.61 M-0.94 71.21 C0.77 50.4, -0.16 23.47, -1.41 0.79 M0.72 73.38 C-0.23 46.73, 1.41 18.68, 0.84 -1" stroke="#3b82f6" stroke-width="2" fill="none"></path></g><g transform="translate(1015.4343631508889 696.1483774331881) rotate(0 95.36990356445312 12.5)"><text x="95.36990356445312" y="NaN" font-family="Virgil, Segoe UI Emoji" font-size="20px" fill="#fff" text-anchor="middle" style="white-space: pre;" direction="ltr">Notification Service</text></g><g stroke-linecap="round"><g transform="translate(316.8329299886414 150.13350671925912) rotate(0 295.7564745101074 -33.22021562668482)"><path d="M-0.1 -1.01 C45.64 -13.05, 174.63 -72.95, 273.34 -71.64 C372.05 -70.33, 539.06 -6.09, 592.14 6.86 M-1.61 1.08 C44.07 -11.33, 173.56 -73.8, 272.44 -73.18 C371.33 -72.55, 538.4 -8.57, 591.71 4.82" stroke="#40916c" stroke-width="2" fill="none"></path></g><g transform="translate(316.8329299886414 150.13350671925912) rotate(0 295.7564745101074 -33.22021562668482)"><path d="M560.07 6.52 C569.88 7.11, 575.26 6.3, 591.38 3.75 M561.85 5.86 C569.45 5.99, 575.92 6.08, 591.45 5.22" stroke="#40916c" stroke-width="2" fill="none"></path></g><g transform="translate(316.8329299886414 150.13350671925912) rotate(0 295.7564745101074 -33.22021562668482)"><path d="M566.09 -13.1 C574.74 -8.39, 578.85 -5.08, 591.38 3.75 M567.87 -13.76 C574.03 -8.79, 579.01 -3.82, 591.45 5.22" stroke="#40916c" stroke-width="2" fill="none"></path></g></g><g transform="translate(240.56899155788912 1320.6433942180754) rotate(0 73.64696502685548 11.25)"><text x="73.64696502685547" y="NaN" font-family="Virgil, Segoe UI Emoji" font-size="18px" fill="#cdd6f4" text-anchor="middle" style="white-space: pre;" direction="ltr">POST /payments</text></g><g stroke-linecap="round"><g transform="translate(905.5055663094911 212.3213227551766) rotate(0 -294.03792392750006 27.297023126991036)"><path d="M-0.76 -0.53 C-51.65 9.61, -208.55 60.42, -306.47 59.78 C-404.38 59.13, -541.28 6.54, -588.25 -4.39 M1.05 1.8 C-49.93 11.65, -209.21 59.13, -307.57 57.76 C-405.92 56.39, -542.34 4.06, -589.1 -6.42" stroke="#3b82f6" stroke-width="2" fill="none"></path></g><g transform="translate(905.5055663094911 212.3213227551766) rotate(0 -294.03792392750006 27.297023126991036)"><path d="M-560.06 -8.89 C-565.09 -8.47, -570.66 -8.12, -590.42 -7.22 M-558.28 -8.35 C-568.81 -6.63, -576.3 -6.58, -588.52 -6.76" stroke="#3b82f6" stroke-width="2" fill="none"></path></g><g transform="translate(905.5055663094911 212.3213227551766) rotate(0 -294.03792392750006 27.297023126991036)"><path d="M-565.77 10.82 C-569.44 7.17, -573.82 3.41, -590.42 -7.22 M-564 11.36 C-573 7.07, -578.75 1.16, -588.52 -6.76" stroke="#3b82f6" stroke-width="2" fill="none"></path></g></g><g transform="translate(277.0999897878696 1320.6433942180754) rotate(0 37.115966796875 11.25)"><text x="37.115966796875" y="NaN" font-family="Virgil, Segoe UI Emoji" font-size="18px" fill="#cdd6f4" text-anchor="middle" style="white-space: pre;" direction="ltr">response</text></g><g stroke-linecap="round"><g transform="translate(292.2507928414501 557.5314973539064) rotate(0 123.27673693694598 3.789059475397984)"><path d="M0.97 0.44 C42.07 1.98, 204.66 6.92, 245.44 8.14" stroke="#d97706" stroke-width="2.5" fill="none" stroke-dasharray="8 10"></path></g><g transform="translate(292.2507928414501 557.5314973539064) rotate(0 123.27673693694598 3.789059475397984)"><path d="M217.69 15.69 C223.82 13.91, 229.06 14.38, 245.2 8.19" stroke="#d97706" stroke-width="2.5" fill="none"></path></g><g transform="translate(292.2507928414501 557.5314973539064) rotate(0 123.27673693694598 3.789059475397984)"><path d="M218.31 -4.82 C224.13 -2.39, 229.25 2.29, 245.2 8.19" stroke="#d97706" stroke-width="2.5" fill="none"></path></g></g><g transform="translate(360.7643268349709 457.8983774331881) rotate(0 81.53993988037111 11.25)"><text x="81.5399398803711" y="NaN" font-family="Virgil, Segoe UI Emoji" font-size="18px" fill="#cdd6f4" text-anchor="middle" style="white-space: pre;" direction="ltr">OrderPlaced event</text></g><g stroke-linecap="round"><g transform="translate(730.804266715342 555.7350024735956) rotate(0 114 -62.154699575334206)"><path d="M-0.8 -0.73 C37.33 -21.31, 189.99 -103.93, 227.99 -124.46" stroke="#d97706" stroke-width="2.5" fill="none" stroke-dasharray="8 10"></path></g><g transform="translate(730.804266715342 555.7350024735956) rotate(0 114 -62.154699575334206)"><path d="M206.87 -102.04 C212.66 -108.47, 218.22 -113.85, 228.55 -125.65" stroke="#d97706" stroke-width="2.5" fill="none"></path></g><g transform="translate(730.804266715342 555.7350024735956) rotate(0 114 -62.154699575334206)"><path d="M197.1 -120.09 C205.04 -122.23, 212.88 -123.4, 228.55 -125.65" stroke="#d97706" stroke-width="2.5" fill="none"></path></g></g><g transform="translate(810.4782855752053 482.8983774331881) rotate(0 34.32598114013672 11.25)"><text x="34.32598114013672" y="NaN" font-family="Virgil, Segoe UI Emoji" font-size="18px" fill="#cdd6f4" text-anchor="middle" style="white-space: pre;" direction="ltr">consume</text></g><g stroke-linecap="round"><g transform="translate(730.8042667153419 565.6556774331881) rotate(0 114 0)"><path d="M0.84 0.4 C38.68 0.29, 190.47 -0.18, 228.21 -0.08" stroke="#d97706" stroke-width="2.5" fill="none" stroke-dasharray="8 10"></path></g><g transform="translate(730.8042667153419 565.6556774331881) rotate(0 114 0)"><path d="M200.69 10.54 C210.96 4.74, 223.84 0.45, 229.62 -1.74" stroke="#d97706" stroke-width="2.5" fill="none"></path></g><g transform="translate(730.8042667153419 565.6556774331881) rotate(0 114 0)"><path d="M200.67 -9.98 C211.05 -7.68, 223.93 -3.87, 229.62 -1.74" stroke="#d97706" stroke-width="2.5" fill="none"></path></g></g><g transform="translate(810.4782855752053 554.3983774331881) rotate(0 34.32598114013672 11.25)"><text x="34.32598114013672" y="NaN" font-family="Virgil, Segoe UI Emoji" font-size="18px" fill="#cdd6f4" text-anchor="middle" style="white-space: pre;" direction="ltr">consume</text></g><g stroke-linecap="round"><g transform="translate(730.804266715342 576.8205082375108) rotate(0 114 61.46893224045254)"><path d="M-0.76 1.16 C37.16 21.48, 189.15 101.57, 227.42 121.97" stroke="#d97706" stroke-width="2.5" fill="none" stroke-dasharray="8 10"></path></g><g transform="translate(730.804266715342 576.8205082375108) rotate(0 114 61.46893224045254)"><path d="M199.64 116.88 C204.71 120.63, 216 121.29, 226.47 121.73" stroke="#d97706" stroke-width="2.5" fill="none"></path></g><g transform="translate(730.804266715342 576.8205082375108) rotate(0 114 61.46893224045254)"><path d="M209.24 98.74 C211.54 107.68, 220.05 113.6, 226.47 121.73" stroke="#d97706" stroke-width="2.5" fill="none"></path></g></g><g transform="translate(810.4782855752053 625.8983774331881) rotate(0 34.32598114013672 11.25)"><text x="34.32598114013672" y="NaN" font-family="Virgil, Segoe UI Emoji" font-size="18px" fill="#cdd6f4" text-anchor="middle" style="white-space: pre;" direction="ltr">consume</text></g></svg>