<svg version="1.1" xmlns="http://www.w3.org/2000/svg" viewBox="0 0 1344.1598935573056 652.1063262029719" width="1344.1598935573056" height="652.1063262029719">
  <!-- svg-source:excalidraw -->
  
  <defs>
    <style>
      @font-face {
        font-family: "Virgil";
        src: url("https://excalidraw.com/Virgil.woff2");
      }
      @font-face {
        font-family: "Cascadia";
        src: url("https://excalidraw.com/Cascadia.woff2");
      }
    </style>
  </defs>
  <rect x="0" y="0" width="1344.1598935573056" height="652.1063262029719" fill="#1e1e2e"></rect><g stroke-opacity="0.6" fill-opacity="0.6" stroke-linecap="round" transform="translate(17.54578260485812 302.1063262029719) rotate(0 294.62230031423456 129.8401893966859)"><path d="M-0.29 -0.5 L588.78 0.07 L590.48 260.52 L0.9 259.8" stroke="none" stroke-width="0" fill="#181825"></path><path d="M0.75 0.22 C161.08 1.19, 323.76 1.44, 589.72 -0.32 M589.95 -1.1 C587.48 88.73, 586.9 176.38, 588.24 260.84 M589.47 259.29 C397.28 261.84, 204.61 262.38, -0.21 260.06 M-0.74 258.13 C2.58 199.11, 1.75 136.29, 0.13 1.48" stroke="#45475a" stroke-width="2.5" fill="none" stroke-dasharray="8 10"></path></g><g transform="translate(77.50860571136639 341.64980823369245) rotate(0 26.459991455078125 11.25)"><text x="0" y="NaN" font-family="Virgil, Segoe UI Emoji" font-size="18px" fill="#a6adc8" text-anchor="start" style="white-space: pre;" direction="ltr">Pod A</text></g><g stroke-opacity="0.6" fill-opacity="0.6" stroke-linecap="round" transform="translate(779.4054801537269 324.13129106526833) rotate(0 277.3772067017893 116.73888762778626)"><path d="M0.94 -0.59 L556.48 -0.92 L556.47 232.66 L-1.97 232.37" stroke="none" stroke-width="0" fill="#181825"></path><path d="M0.36 0.79 C164.01 -1.84, 327.76 -1.64, 554.43 0.11 M554.57 -1.15 C552.69 92.37, 553.66 182.08, 555.65 234.14 M553.98 234.25 C392.94 232.54, 231.61 232.93, -0.72 233.44 M1.51 233.22 C-0.42 159.34, -0.43 84.56, 0.35 0.14" stroke="#45475a" stroke-width="2.5" fill="none" stroke-dasharray="8 10"></path></g><g transform="translate(806.134526797728 350.2341186726919) rotate(0 27.09899139404297 11.25)"><text x="0" y="NaN" font-family="Virgil, Segoe UI Emoji" font-size="18px" fill="#a6adc8" text-anchor="start" style="white-space: pre;" direction="ltr">Pod B</text></g><g stroke-opacity="0.6" fill-opacity="0.6" stroke-linecap="round" transform="translate(10 10) rotate(0 178.5 121.5)"><path d="M1.03 0.68 L358.23 1.92 L357.28 241.88 L0.14 241.93" stroke="none" stroke-width="0" fill="#181825"></path><path d="M-1.03 1.26 C108.96 0.29, 219.04 1.07, 356.76 0.4 M356.06 -0.31 C356.83 52.19, 357.53 107.38, 357.28 244.57 M357.66 243.68 C237.76 241.78, 117.46 242.07, -0.8 243.6 M-0.58 243.51 C-0.13 161.7, -2.48 80.69, -0.51 0.96" stroke="#45475a" stroke-width="2.5" fill="none" stroke-dasharray="8 10"></path></g><g transform="translate(66.0903257461481 33.79150677451287) rotate(0 59.23796844482422 11.25)"><text x="0" y="NaN" font-family="Virgil, Segoe UI Emoji" font-size="18px" fill="#a6adc8" text-anchor="start" style="white-space: pre;" direction="ltr">Control Plane</text></g><g stroke-linecap="round" transform="translate(33.01273976517592 411.6792315975952) rotate(0 90 36.5)"><path d="M1.18 1.4 L181.64 -0.61 L179.42 73.32 L-1.61 73.91" stroke="none" stroke-width="0" fill="#5b21b6"></path><path d="M-1.51 -1.03 C50.89 0.53, 104.18 -3.18, 180.24 -1.23 M0.98 0.21 C68.38 0.04, 137.25 0.08, 179.56 0.18 M178.72 -1.42 C180.54 14.8, 180.95 30.81, 179.65 71.81 M180.87 -0.98 C179 23.64, 179.35 46.36, 180.14 73.93 M178.21 71.01 C111.68 73.59, 47.12 75.01, 0.61 71.25 M179.17 72.95 C142.1 72.56, 104.27 74.26, -0.49 72.86 M1.58 71.88 C0.38 48.3, -1.39 24.41, -0.08 1.08 M0.18 72.99 C-0.19 46.74, 0.71 21.58, -0.37 -0.97" stroke="#7c3aed" stroke-width="2" fill="none"></path></g><g transform="translate(77.69277821732436 435.6792315975952) rotate(0 45.31996154785156 12.5)"><text x="45.31996154785156" y="NaN" font-family="Virgil, Segoe UI Emoji" font-size="20px" fill="#fff" text-anchor="middle" style="white-space: pre;" direction="ltr">Service A</text></g><g stroke-linecap="round" transform="translate(407.1392016316464 412.0739825141717) rotate(0 87.91747989717197 36.5)"><path d="M1.47 -1.63 L177.72 -1.05 L177.68 74.36 L1.17 74.67" stroke="none" stroke-width="0" fill="#b45309"></path><path d="M0.55 -1.98 C44.01 3.02, 85.76 2.35, 176.37 1.3 M0.24 -0.87 C51.18 -1.11, 100.38 -1.77, 176.49 0.81 M176.82 -1.37 C175.72 20.84, 174.58 40.65, 177.46 74.69 M176.57 0.98 C176.93 27.09, 176.36 56.33, 175.52 73.82 M174.68 72.91 C111.08 72.23, 52.07 71.52, 1.66 73.6 M175.57 72.95 C137.68 71.85, 98.03 73.05, 0.01 73.46 M0.72 72.63 C1.89 52.74, 0.45 31.42, -1.01 0.06 M-0.99 72.06 C0.25 45.22, -0.71 15.9, -0.47 0.64" stroke="#d97706" stroke-width="2" fill="none"></path></g><g transform="translate(427.76673401905276 436.0739825141717) rotate(0 67.28994750976562 12.5)"><text x="67.28994750976562" y="NaN" font-family="Virgil, Segoe UI Emoji" font-size="20px" fill="#fff" text-anchor="middle" style="white-space: pre;" direction="ltr">Envoy Sidecar</text></g><g stroke-linecap="round" transform="translate(831.1477957256719 438.4262968550056) rotate(0 79.50757993561626 36.5)"><path d="M-0.34 0.4 L158.1 -1.1 L159.77 72.32 L0.35 73.15" stroke="none" stroke-width="0" fill="#b45309"></path><path d="M-1.02 1.03 C47.01 0.1, 93.75 1.95, 159.15 -0.12 M0.08 -0.86 C35.99 0.37, 73.32 -0.85, 158.16 0.41 M158.33 -0.87 C160.2 16.27, 160.15 33.6, 159.63 72.93 M158.5 0.78 C159.32 29.51, 159.32 57.14, 158.64 72.46 M157.91 72.76 C105.55 75.46, 52.27 72.8, -0.63 73.75 M159.64 73.16 C119.67 72.3, 81.35 72.34, 0.4 72.86 M-1.29 71.55 C-0.13 56.18, -1.47 37.59, 0.49 0.87 M0.55 73.54 C-0.51 50.23, 0.45 27.1, 0.4 0.74" stroke="#d97706" stroke-width="2" fill="none"></path></g><g transform="translate(843.3654281515226 462.4262968550056) rotate(0 67.28994750976562 12.5)"><text x="67.28994750976562" y="NaN" font-family="Virgil, Segoe UI Emoji" font-size="20px" fill="#fff" text-anchor="middle" style="white-space: pre;" direction="ltr">Envoy Sidecar</text></g><g stroke-linecap="round" transform="translate(1145.2277953213556 435.8985146917481) rotate(0 90 36.5)"><path d="M0.65 0.02 L181.37 0.39 L179.72 73.09 L-1.45 74.97" stroke="none" stroke-width="0" fill="#1e40af"></path><path d="M-1.52 1.54 C37.17 -0.44, 74.66 -1.45, 178.26 0.04 M-0.8 -0.19 C68.33 0.92, 136.4 0.62, 179.38 -0.87 M178.41 1.18 C180.65 18.12, 178.49 38.43, 178.22 71.69 M179.92 0.92 C179.11 27.39, 180.06 53.22, 180.15 72.83 M181.24 73.05 C109.74 73.45, 41.29 72, 1.8 74.04 M180.09 72.25 C114.94 73.42, 48.88 74.26, -0.43 73.8 M0.85 73.39 C-1.74 47.53, 1.12 18.98, -0.5 0.53 M-0.11 73.72 C-0.46 52.87, 0.34 35.05, 0.56 0.1" stroke="#3b82f6" stroke-width="2" fill="none"></path></g><g transform="translate(1189.1978346890314 459.8985146917481) rotate(0 46.02996063232422 12.5)"><text x="46.02996063232422" y="NaN" font-family="Virgil, Segoe UI Emoji" font-size="20px" fill="#fff" text-anchor="middle" style="white-space: pre;" direction="ltr">Service B</text></g><g stroke-linecap="round" transform="translate(70.9788565829447 89.70684004388175) rotate(0 118.5 36.5)"><path d="M1.58 1.48 L238.58 0.01 L238.19 71.09 L1.21 72.52" stroke="none" stroke-width="0" fill="#2d6a4f"></path><path d="M-0.77 -0.1 C59.71 -0.54, 119.2 -2.17, 237.25 -0.21 M0.17 0.13 C63.01 -1.02, 126.57 -1.35, 237.58 -0.17 M237.18 0.8 C236.87 26.96, 238.23 54.66, 238.93 74.77 M237.06 0.72 C236.69 21.92, 235.43 43.12, 236.12 73.19 M236.11 71.37 C167.73 71.16, 95.48 69.82, 0.51 73.14 M237.06 72.48 C164.49 73.95, 91.71 74.89, 0.71 72.94 M0.07 72.58 C0.17 49.44, 1.15 28.37, -0.33 -1.66 M-0.63 73.42 C-0.75 47.65, 0.16 23.45, -0.47 -0.77" stroke="#40916c" stroke-width="2" fill="none"></path></g><g transform="translate(117.0389151766947 113.70684004388175) rotate(0 72.43994140625 12.5)"><text x="72.43994140625" y="NaN" font-family="Virgil, Segoe UI Emoji" font-size="20px" fill="#fff" text-anchor="middle" style="white-space: pre;" direction="ltr">Istio / Linkerd</text></g><g stroke-linecap="round"><g transform="translate(219.01273976517592 447.73259832934946) rotate(0 91.06323093323525 1.6207043356374982)"><path d="M-0.68 0.02 C29.32 0.83, 150.7 3.97, 181.09 4.35 M1.16 -1.01 C31.43 -0.47, 153.34 2.11, 183.26 2.82" stroke="#40916c" stroke-width="2" fill="none"></path></g><g transform="translate(219.01273976517592 447.73259832934946) rotate(0 91.06323093323525 1.6207043356374982)"><path d="M154.89 10.72 C167.76 8.1, 175.45 5.74, 183.06 2.14 M153.92 11.55 C160.11 9.35, 166.75 7.41, 182.67 1.85" stroke="#40916c" stroke-width="2" fill="none"></path></g><g transform="translate(219.01273976517592 447.73259832934946) rotate(0 91.06323093323525 1.6207043356374982)"><path d="M155.34 -9.79 C167.96 -4.46, 175.47 1.14, 183.06 2.14 M154.38 -8.96 C160.32 -6.99, 166.87 -4.74, 182.67 1.85" stroke="#40916c" stroke-width="2" fill="none"></path></g></g><g transform="translate(337.9008012205808 558.8563262029719) rotate(0 39.644981384277344 11.25)"><text x="39.644981384277344" y="NaN" font-family="Virgil, Segoe UI Emoji" font-size="18px" fill="#cdd6f4" text-anchor="middle" style="white-space: pre;" direction="ltr">localhost</text></g><g stroke-linecap="round"><g transform="translate(588.9741614259904 454.5353185495128) rotate(0 118.08681714984075 7.487688395361907)"><path d="M1.07 1.16 C40.63 3.84, 197.85 13.02, 237.02 15.42 M0.18 0.73 C39.67 3.1, 197.34 11.4, 236.51 13.53" stroke="#3b82f6" stroke-width="2" fill="none"></path></g><g transform="translate(588.9741614259904 454.5353185495128) rotate(0 118.08681714984075 7.487688395361907)"><path d="M209.75 23.68 C216.49 19.4, 224.63 17.94, 236.62 13.2 M208.49 22.68 C215.53 20.12, 222.74 18.25, 237.07 12.55" stroke="#3b82f6" stroke-width="2" fill="none"></path></g><g transform="translate(588.9741614259904 454.5353185495128) rotate(0 118.08681714984075 7.487688395361907)"><path d="M210.85 3.18 C217.17 4.55, 225.01 8.72, 236.62 13.2 M209.59 2.18 C216.25 4.73, 223.19 7.96, 237.07 12.55" stroke="#3b82f6" stroke-width="2" fill="none"></path></g></g><g transform="translate(581.2497849852291 558.8563262029719) rotate(0 23.795997619628935 11.25)"><text x="23.795997619628906" y="NaN" font-family="Virgil, Segoe UI Emoji" font-size="18px" fill="#cdd6f4" text-anchor="middle" style="white-space: pre;" direction="ltr">mTLS</text></g><g stroke-linecap="round"><g transform="translate(996.1629555969045 474.39998625898596) rotate(0 71.53241986222565 0.474944226764876)"><path d="M0.4 -0.17 C24.24 0.18, 119.66 1.73, 143.48 1.92 M-0.85 -1.31 C22.82 -1.26, 118.82 -0.29, 142.75 0.3" stroke="#3b82f6" stroke-width="2" fill="none"></path></g><g transform="translate(996.1629555969045 474.39998625898596) rotate(0 71.53241986222565 0.474944226764876)"><path d="M114.11 10.8 C125.64 7.15, 133.62 2.68, 142.15 1.12 M113.52 11.07 C119.52 7.55, 126.22 6.3, 143 0.55" stroke="#3b82f6" stroke-width="2" fill="none"></path></g><g transform="translate(996.1629555969045 474.39998625898596) rotate(0 71.53241986222565 0.474944226764876)"><path d="M114.45 -9.72 C125.83 -6.41, 133.69 -3.92, 142.15 1.12 M113.85 -9.45 C119.92 -8.85, 126.55 -5.97, 143 0.55" stroke="#3b82f6" stroke-width="2" fill="none"></path></g></g><g transform="translate(605.4008012205808 619.6063262029719) rotate(0 39.644981384277344 11.25)"><text x="39.644981384277344" y="NaN" font-family="Virgil, Segoe UI Emoji" font-size="18px" fill="#cdd6f4" text-anchor="middle" style="white-space: pre;" direction="ltr">localhost</text></g><g stroke-linecap="round"><g transform="translate(229.3047522463815 168.70684004388175) rotate(0 112.54271411890582 118.68357123514497)"><path d="M-1.07 0.77 C15.21 17.91, 59.01 63.5, 96.72 102.73 C134.44 141.97, 203.92 213.58, 225.22 236.17" stroke="#d97706" stroke-width="2.5" fill="none" stroke-dasharray="8 10"></path></g><g transform="translate(229.3047522463815 168.70684004388175) rotate(0 112.54271411890582 118.68357123514497)"><path d="M199.6 223.54 C204.02 226.27, 208.11 228.03, 226.78 237.1" stroke="#d97706" stroke-width="2.5" fill="none"></path></g><g transform="translate(229.3047522463815 168.70684004388175) rotate(0 112.54271411890582 118.68357123514497)"><path d="M214.43 209.36 C215.59 215.06, 216.43 219.93, 226.78 237.1" stroke="#d97706" stroke-width="2.5" fill="none"></path></g></g><g transform="translate(381.48480848376437 437.3563262029719) rotate(0 24.56097412109375 11.25)"><text x="24.56097412109375" y="NaN" font-family="Virgil, Segoe UI Emoji" font-size="18px" fill="#cdd6f4" text-anchor="middle" style="white-space: pre;" direction="ltr">config</text></g><g stroke-linecap="round"><g transform="translate(313.97885658294473 121.3536951044851) rotate(0 264.45886173380893 155.8234327408057)"><path d="M-0.14 -0.71 C33.21 18.31, 112.8 62.45, 201.06 114.61 C289.33 166.77, 474.7 279.59, 529.44 312.28" stroke="#d97706" stroke-width="2.5" fill="none" stroke-dasharray="8 10"></path></g><g transform="translate(313.97885658294473 121.3536951044851) rotate(0 264.45886173380893 155.8234327408057)"><path d="M498.83 307.42 C509.78 309.62, 523.5 311.95, 527.98 313.12" stroke="#d97706" stroke-width="2.5" fill="none"></path></g><g transform="translate(313.97885658294473 121.3536951044851) rotate(0 264.45886173380893 155.8234327408057)"><path d="M509.42 289.84 C516.42 298.72, 526.11 307.74, 527.98 313.12" stroke="#d97706" stroke-width="2.5" fill="none"></path></g></g><g transform="translate(381.48480848376437 558.8563262029719) rotate(0 24.56097412109375 11.25)"><text x="24.56097412109375" y="NaN" font-family="Virgil, Segoe UI Emoji" font-size="18px" fill="#cdd6f4" text-anchor="middle" style="white-space: pre;" direction="ltr">config</text></g></svg>