<svg version="1.1" xmlns="http://www.w3.org/2000/svg" viewBox="0 0 1200 875" width="1200" height="875">
  <!-- svg-source:excalidraw -->
  
  <defs>
    <style>
      @font-face {
        font-family: "Virgil";
        src: url("https://excalidraw.com/Virgil.woff2");
      }
      @font-face {
        font-family: "Cascadia";
        src: url("https://excalidraw.com/Cascadia.woff2");
      }
    </style>
  </defs>
  <rect x="0" y="0" width="1200" height="875" fill="#0d1117"></rect><g transform="translate(50 10) rotate(0 429.1207275390625 13.75)"><text x="429.1207275390625" y="NaN" font-family="Virgil, Segoe UI Emoji" font-size="22px" fill="#f85149" text-anchor="middle" style="white-space: pre;" direction="ltr">Distributed Monolith: four anti-patterns that destroy independent deployability</text></g><g stroke-opacity="0.6" fill-opacity="0.6" stroke-linecap="round" transform="translate(10 70) rotate(0 280 170)"><path d="M-1.57 0.29 L559.25 -1.02 L558.24 339.31 L-1.24 339.35" stroke="none" stroke-width="0" fill="#161b22"></path><path d="M-0.59 0.07 C196.89 -0.72, 393.88 -0.56, 560.54 -0.17 M561.06 -0.15 C560.11 101.34, 558.02 201.07, 558.73 340.91 M559.68 340.57 C373.36 341.31, 185.93 341.26, -0.25 340.53 M0.5 340.12 C-0.51 241.53, -2.4 141.32, -1.23 -1.06" stroke="#30363d" stroke-width="2.5" fill="none" stroke-dasharray="8 10"></path></g><g transform="translate(30 84) rotate(0 145.44989013671875 12.5)"><text x="0" y="NaN" font-family="Virgil, Segoe UI Emoji" font-size="20px" fill="#f85149" text-anchor="start" style="white-space: pre;" direction="ltr">1. Services share a database</text></g><g stroke-linecap="round" transform="translate(50 140) rotate(0 70 28)"><path d="M-1.52 1.11 L140.75 1.44 L139.25 56.17 L-0.34 54.32" stroke="none" stroke-width="0" fill="#0d2c5a"></path><path d="M1.96 0.02 C48.17 2.03, 96.9 2.86, 138.18 1.15 M0.2 0.95 C54.04 -1.88, 106.68 -1.23, 140.72 -0.31 M141.36 -1.58 C142.12 12.54, 140.23 24.37, 140.93 57.84 M139.56 0.89 C139.83 19.8, 140.51 41.28, 140.7 56.61 M139.19 57.39 C99.61 57.4, 60.99 55.88, 1.26 56.03 M139.26 55.14 C112.29 56.87, 83.84 56.98, 0.45 55.09 M0.91 57.56 C0.01 36.91, -0.45 13.2, -1.01 -0.65 M0.89 55.34 C-1.33 34.91, -0.64 14.17, -0.66 0.02" stroke="#58a6ff" stroke-width="2" fill="none"></path></g><g transform="translate(90.79502868652344 156.75) rotate(0 29.204971313476562 11.25)"><text x="29.204971313476562" y="NaN" font-family="Virgil, Segoe UI Emoji" font-size="18px" fill="#ffffff" text-anchor="middle" style="white-space: pre;" direction="ltr">Orders</text></g><g stroke-linecap="round" transform="translate(220 140) rotate(0 70 28)"><path d="M0.08 -1.2 L140.93 0.69 L140.26 57.1 L-0.64 56.45" stroke="none" stroke-width="0" fill="#0d2c5a"></path><path d="M1.39 -0.12 C50.89 1.55, 98.66 -1.2, 139 -1.28 M-0.4 0.01 C37.76 -0.24, 74.94 -1.87, 140.4 0.7 M139.51 -0.58 C138.6 13.38, 139.48 29.64, 138.49 54.37 M140.75 -0.31 C140.38 13.28, 139.15 27.23, 140.33 56.02 M139.4 56.53 C90.96 56.57, 44.7 56.87, 0.6 54.41 M139.49 56.57 C97.42 56.56, 54 57.59, 0.2 55.26 M-1.97 56.44 C0.54 37.75, 1.15 19.83, 1.36 -1.47 M-0.24 55.33 C0.43 42.41, 1.14 30.8, -0.89 -0.02" stroke="#58a6ff" stroke-width="2" fill="none"></path></g><g transform="translate(249.0320281982422 156.75) rotate(0 40.96797180175781 11.25)"><text x="40.96797180175781" y="NaN" font-family="Virgil, Segoe UI Emoji" font-size="18px" fill="#ffffff" text-anchor="middle" style="white-space: pre;" direction="ltr">Payments</text></g><g stroke-linecap="round" transform="translate(390 140) rotate(0 70 28)"><path d="M1.68 0.49 L141.11 -0.07 L141.28 54.04 L-0.94 54.58" stroke="none" stroke-width="0" fill="#0d2c5a"></path><path d="M0.82 -0.27 C49.62 -2.94, 96.43 -1.25, 139.83 0.29 M-0.99 -0.94 C49.47 -0.61, 99.2 -0.51, 140.08 -0.29 M141.65 0.42 C137.96 18.22, 137.61 38.92, 140.05 54.89 M139.94 0.5 C140.06 17.96, 140.92 35.58, 139.96 55.43 M139.62 55.68 C110.3 55.73, 80.41 53.87, -0.05 56.8 M139.71 55.99 C110.56 55.46, 82.16 55.4, -0.04 55.43 M-0.86 55.31 C2.2 42.59, -0.12 26.46, -0.27 1.7 M0.63 55.33 C1.07 40.71, -0.19 25.03, 0.87 -0.07" stroke="#58a6ff" stroke-width="2" fill="none"></path></g><g transform="translate(435.0070266723633 156.75) rotate(0 24.99297332763672 11.25)"><text x="24.99297332763672" y="NaN" font-family="Virgil, Segoe UI Emoji" font-size="18px" fill="#ffffff" text-anchor="middle" style="white-space: pre;" direction="ltr">Users</text></g><g stroke-linecap="round" transform="translate(200 280) rotate(0 90 30)"><path d="M-0.72 -1.83 L181.3 -0.83 L178.29 58.97 L-1.24 60.71" stroke="none" stroke-width="0" fill="#4a1219"></path><path d="M0.25 -0.41 C62.4 -0.46, 126.31 1.65, 180.65 1.86 M0.41 0.12 C42.75 -1, 86.59 0.81, 179.76 0.73 M179.8 1.43 C178.41 12.72, 180.82 27.51, 181.62 59.41 M179.14 -0.7 C180.6 24.18, 179.56 47.02, 179.59 60.84 M179.83 58.83 C130.75 58.68, 82.33 58.64, -0.7 59.18 M179.94 59.42 C123.25 59.07, 67.43 59.93, -0.29 59.59 M0.26 58.18 C-1.27 46.6, 1.48 35.43, -1.91 0.88 M-0.5 59.32 C-0.3 39.66, 0.46 18.56, 0.63 -0.12" stroke="#f85149" stroke-width="2" fill="none"></path></g><g transform="translate(242.10202026367188 298.75) rotate(0 47.897979736328125 11.25)"><text x="47.897979736328125" y="NaN" font-family="Virgil, Segoe UI Emoji" font-size="18px" fill="#ffffff" text-anchor="middle" style="white-space: pre;" direction="ltr">Shared DB</text></g><g stroke-linecap="round"><g transform="translate(132.15714285714284 202) rotate(0 72.85885714285718 36)"><path d="M0.5 -0.19 C24.63 11.98, 121.23 60.93, 145.38 73.11 M-0.7 -1.34 C23.19 10.52, 120.06 59.51, 144.26 71.57" stroke="#f85149" stroke-width="2" fill="none"></path></g><g transform="translate(132.15714285714284 202) rotate(0 72.85885714285718 36)"><path d="M114.14 67.53 C126.79 68.67, 136.95 68.43, 145.74 71 M114.28 67.26 C123.56 69.68, 134.61 70.35, 143.7 71.31" stroke="#f85149" stroke-width="2" fill="none"></path></g><g transform="translate(132.15714285714284 202) rotate(0 72.85885714285718 36)"><path d="M123.36 49.19 C132.78 56.81, 139.7 63.02, 145.74 71 M123.5 48.93 C129.62 57.28, 137.68 63.9, 143.7 71.31" stroke="#f85149" stroke-width="2" fill="none"></path></g></g><g stroke-linecap="round"><g transform="translate(290.0142857142857 202) rotate(0 0.001714285714314201 36)"><path d="M0.98 0.84 C1.02 12.88, 0.81 60.83, 0.83 72.73 M0.04 0.23 C-0.06 11.89, 0.17 58.74, 0.31 70.99" stroke="#f85149" stroke-width="2" fill="none"></path></g><g transform="translate(290.0142857142857 202) rotate(0 0.001714285714314201 36)"><path d="M-8.77 44.25 C-5.15 54.48, -2.27 61.11, 0.2 71.2 M-9.64 42.59 C-5.8 53.16, -3.28 63.88, 0.59 70.23" stroke="#f85149" stroke-width="2" fill="none"></path></g><g transform="translate(290.0142857142857 202) rotate(0 0.001714285714314201 36)"><path d="M11.75 44.09 C8.15 54.55, 3.83 61.23, 0.2 71.2 M10.88 42.43 C7.18 53.2, 2.16 63.98, 0.59 70.23" stroke="#f85149" stroke-width="2" fill="none"></path></g></g><g stroke-linecap="round"><g transform="translate(447.87142857142857 202) rotate(0 -72.85542857142852 36)"><path d="M-0.93 -0.53 C-25.39 11.37, -122.01 60.33, -146.13 72.35 M0.78 1.8 C-23.92 13.25, -122.78 58.59, -147.3 70.4" stroke="#f85149" stroke-width="2" fill="none"></path></g><g transform="translate(447.87142857142857 202) rotate(0 -72.85542857142852 36)"><path d="M-127.02 48.45 C-132.83 56.59, -141.56 63.03, -148.99 71.4 M-126.9 49.39 C-131.32 53.18, -135.8 58.9, -148.18 71.15" stroke="#f85149" stroke-width="2" fill="none"></path></g><g transform="translate(447.87142857142857 202) rotate(0 -72.85542857142852 36)"><path d="M-118.31 67.04 C-127.33 68.58, -139.11 68.48, -148.99 71.4 M-118.2 67.98 C-124.47 67.82, -130.78 69.64, -148.18 71.15" stroke="#f85149" stroke-width="2" fill="none"></path></g></g><g transform="translate(89.96446503119063 369.9188111072283) rotate(0 193.02638244628906 10.625)"><text x="193.02638244628906" y="NaN" font-family="Virgil, Segoe UI Emoji" font-size="17px" fill="#8b949e" text-anchor="middle" style="white-space: pre;" direction="ltr">Any schema change = cross-team coordination.</text></g><g stroke-opacity="0.6" fill-opacity="0.6" stroke-linecap="round" transform="translate(630 70) rotate(0 280 170)"><path d="M-0.12 -1.45 L561.77 -0.22 L560.8 341.73 L1.73 339.76" stroke="none" stroke-width="0" fill="#161b22"></path><path d="M-0.08 0.02 C199.51 1.95, 398.86 1.58, 559.9 -0.03 M560.17 0.65 C558.73 84.58, 557.9 168.39, 560.89 339.33 M559.97 339.99 C427.63 340.85, 294.73 341.18, 0.77 339.99 M0.07 341.08 C2.27 242.82, -0.25 143.29, -0.06 -0.74" stroke="#30363d" stroke-width="2.5" fill="none" stroke-dasharray="8 10"></path></g><g transform="translate(650 84) rotate(0 155.30987548828125 12.5)"><text x="0" y="NaN" font-family="Virgil, Segoe UI Emoji" font-size="20px" fill="#f85149" text-anchor="start" style="white-space: pre;" direction="ltr">2. Deep synchronous call chains</text></g><g stroke-linecap="round" transform="translate(660 210) rotate(0 40 28)"><path d="M-1.83 -1.27 L78.3 0.47 L80.94 54.24 L1.21 54.8" stroke="none" stroke-width="0" fill="#0d2c5a"></path><path d="M-0.77 -0.09 C27.69 0.18, 55.32 -0.33, 80.58 1.48 M-0.47 -0.45 C26.67 -1.41, 53.42 -0.43, 80.35 0.51 M78.06 0.99 C80.06 16.53, 77.71 35.03, 79.48 56.49 M79.24 -0.38 C80.31 19.44, 80.51 40.11, 79.58 56.85 M79.99 55.95 C53.31 57.63, 23.92 56.58, 1.71 56.5 M79.83 55.41 C55.42 56.8, 29.78 57.45, -0.6 56.94 M0.3 56.09 C0.92 36, 0.03 12.16, -1.21 1.27 M0.84 55.56 C-0.65 36.86, 0.09 17.46, 0.08 0.05" stroke="#58a6ff" stroke-width="2" fill="none"></path></g><g transform="translate(693.4400024414062 225.5) rotate(0 6.55999755859375 12.5)"><text x="6.55999755859375" y="NaN" font-family="Virgil, Segoe UI Emoji" font-size="20px" fill="#ffffff" text-anchor="middle" style="white-space: pre;" direction="ltr">A</text></g><g stroke-linecap="round" transform="translate(770 210) rotate(0 40 28)"><path d="M-0.23 0.42 L78.48 -0.28 L81.96 55.17 L0.92 56.93" stroke="none" stroke-width="0" fill="#0d2c5a"></path><path d="M-1.34 -0.24 C30.41 0.18, 57.09 0.1, 81.41 -0.95 M0.94 0.6 C17.26 0.06, 35.43 -1.24, 80.03 -0.48 M80.21 1.99 C80.54 21.37, 80.96 40.31, 81.04 57.01 M80.43 0.42 C80.86 12.92, 79.16 26.06, 79.21 56.26 M80.21 55.09 C64.41 56.82, 43.16 57.6, 1.06 54.89 M80.06 56.84 C62.78 54.62, 44.38 56.19, -0.85 55.1 M1.42 54.97 C1.46 36.84, 1.64 18.79, 1.16 0.45 M-0.28 55.56 C-0.01 33.16, -1.24 11.69, -0.15 0.01" stroke="#58a6ff" stroke-width="2" fill="none"></path></g><g transform="translate(802.7300033569336 225.5) rotate(0 7.269996643066406 12.5)"><text x="7.269996643066406" y="NaN" font-family="Virgil, Segoe UI Emoji" font-size="20px" fill="#ffffff" text-anchor="middle" style="white-space: pre;" direction="ltr">B</text></g><g stroke-linecap="round" transform="translate(880 210) rotate(0 40 28)"><path d="M1.37 -1.89 L78.67 -1.04 L78.97 56.11 L0.62 55.06" stroke="none" stroke-width="0" fill="#0d2c5a"></path><path d="M-1.92 -0.38 C29.14 1.79, 58.85 2.13, 78.23 0.62 M0.34 -0.34 C23.85 -0.46, 49.44 -0.04, 79.71 0.53 M78.36 -1.01 C81.02 15.01, 80.21 27.19, 78.6 57.53 M79.62 -0.78 C79.41 17.6, 79.81 34.41, 80.84 55.67 M80.42 54.24 C55.52 56.02, 34.39 54.62, 0.41 57.27 M80.29 56.26 C54.13 56.04, 28.98 56.52, 0.91 55.27 M-1.46 57.84 C-0.88 41.69, 0.36 25.42, -0.47 -0.38 M0.59 55.55 C-0.25 42.66, 0.54 28.32, -0.39 -0.04" stroke="#58a6ff" stroke-width="2" fill="none"></path></g><g transform="translate(913.5600051879883 225.5) rotate(0 6.439994812011719 12.5)"><text x="6.439994812011719" y="NaN" font-family="Virgil, Segoe UI Emoji" font-size="20px" fill="#ffffff" text-anchor="middle" style="white-space: pre;" direction="ltr">C</text></g><g stroke-linecap="round" transform="translate(990 210) rotate(0 40 28)"><path d="M-1.03 -0.21 L78.85 -1.8 L79.99 57.05 L0.32 57.19" stroke="none" stroke-width="0" fill="#0d2c5a"></path><path d="M1.51 -0.53 C27.86 1.79, 56.61 -1.43, 79.06 -1.81 M-0.25 0.72 C30.44 1.01, 63.45 1.15, 79.38 -0.46 M80.5 -0.01 C81.5 15.85, 79.45 36.47, 80.16 54.06 M80.81 0.02 C81.09 22.28, 79.58 42.76, 80.46 55.08 M80.63 57.38 C50.63 55.21, 25.63 55.64, -0.25 55.66 M80.51 55.69 C61.49 55.47, 43.58 56.86, 0.66 55.44 M-0.34 56.72 C-0.35 42.53, -2.03 32.05, 1.9 -1.2 M-0.54 55.54 C0.39 38.96, 1.2 22.55, -0.63 -0.09" stroke="#58a6ff" stroke-width="2" fill="none"></path></g><g transform="translate(1022.2000045776367 225.5) rotate(0 7.799995422363281 12.5)"><text x="7.799995422363281" y="NaN" font-family="Virgil, Segoe UI Emoji" font-size="20px" fill="#ffffff" text-anchor="middle" style="white-space: pre;" direction="ltr">D</text></g><g stroke-linecap="round" transform="translate(1100 210) rotate(0 40 28)"><path d="M0.56 1.48 L79.03 1.45 L81 57.98 L0.02 55.32" stroke="none" stroke-width="0" fill="#4a1219"></path><path d="M0.94 -0.67 C26.58 -0.61, 58.37 0.6, 79.89 -0.24 M-0.85 -0.22 C23.03 0.48, 43.46 0.34, 79.06 0.55 M78.65 0.99 C77.98 20.69, 78.7 41.75, 81.72 54.58 M80 0.83 C79.64 13.76, 80.22 28.72, 80.09 56.49 M80.84 56.53 C61.73 58.4, 44.86 56.66, -0.9 54.05 M80.74 55.11 C52.85 56.89, 28.18 57.19, 0.42 55.6 M0.78 55.59 C0.19 36.17, -0.42 16.27, 0.26 1.97 M0.33 55.53 C-0.97 35.26, -0.13 14.78, -0.86 -0.14" stroke="#f85149" stroke-width="2" fill="none"></path></g><g transform="translate(1133.2600021362305 225.5) rotate(0 6.739997863769531 12.5)"><text x="6.739997863769531" y="NaN" font-family="Virgil, Segoe UI Emoji" font-size="20px" fill="#ffffff" text-anchor="middle" style="white-space: pre;" direction="ltr">E</text></g><g stroke-linecap="round"><g transform="translate(746 238.00560000000004) rotate(0 9 0)"><path d="M-0.14 0.22 C2.66 0.14, 14.56 0.61, 17.51 0.49 M-1.68 -0.71 C0.87 -1.23, 13.26 -1.58, 16.31 -1.37" stroke="#f85149" stroke-width="2" fill="none"></path></g><g transform="translate(746 238.00560000000004) rotate(0 9 0)"><path d="M7.98 1.25 C11.18 0.25, 13.46 -0.08, 16.63 -0.77 M8.07 2 C11.19 0.31, 13.77 -0.06, 16.64 -1.57" stroke="#f85149" stroke-width="2" fill="none"></path></g><g transform="translate(746 238.00560000000004) rotate(0 9 0)"><path d="M8.05 -4.9 C11.28 -3.71, 13.53 -1.85, 16.63 -0.77 M8.13 -4.16 C11.23 -3.62, 13.78 -1.76, 16.64 -1.57" stroke="#f85149" stroke-width="2" fill="none"></path></g></g><g stroke-linecap="round"><g transform="translate(856 238.00560000000004) rotate(0 9 0)"><path d="M0.34 -1.15 C3.34 -0.96, 15.56 0.11, 18.67 0.11 M-0.93 0.86 C1.91 1.35, 14.79 1.93, 18.07 1.7" stroke="#f85149" stroke-width="2" fill="none"></path></g><g transform="translate(856 238.00560000000004) rotate(0 9 0)"><path d="M8.76 5.3 C12.73 4.41, 14.79 3.23, 17.68 0.86 M9.28 4.51 C11.16 4.6, 12.98 3.27, 17.88 1.29" stroke="#f85149" stroke-width="2" fill="none"></path></g><g transform="translate(856 238.00560000000004) rotate(0 9 0)"><path d="M8.75 -0.86 C12.68 0.44, 14.73 1.46, 17.68 0.86 M9.27 -1.64 C11.12 -0.3, 12.94 -0.37, 17.88 1.29" stroke="#f85149" stroke-width="2" fill="none"></path></g></g><g stroke-linecap="round"><g transform="translate(966 238.00560000000004) rotate(0 9 0)"><path d="M0.83 -0.12 C3.62 -0.06, 14.57 -0.39, 17.42 -0.27 M-0.19 -1.23 C2.33 -0.94, 13.28 1.16, 16.17 1.12" stroke="#f85149" stroke-width="2" fill="none"></path></g><g transform="translate(966 238.00560000000004) rotate(0 9 0)"><path d="M7.36 2.91 C10.36 2.47, 14.09 0.8, 16.86 0.62 M7.44 3.3 C9.78 2.98, 11.71 2.12, 16.36 1.38" stroke="#f85149" stroke-width="2" fill="none"></path></g><g transform="translate(966 238.00560000000004) rotate(0 9 0)"><path d="M7.97 -3.22 C10.73 -1.47, 14.24 -0.96, 16.86 0.62 M8.05 -2.83 C10.3 -1.62, 12.08 -0.97, 16.36 1.38" stroke="#f85149" stroke-width="2" fill="none"></path></g></g><g stroke-linecap="round"><g transform="translate(1076 238.00560000000004) rotate(0 9 0)"><path d="M-1.08 0.91 C1.9 0.83, 15.57 -0.49, 18.58 -0.66 M0.55 0.34 C3.37 0.43, 14.81 0.4, 17.94 0.53" stroke="#f85149" stroke-width="2" fill="none"></path></g><g transform="translate(1076 238.00560000000004) rotate(0 9 0)"><path d="M10.11 3.89 C11.97 1.72, 15.41 0.8, 17.91 0.39 M9.72 3.65 C11.57 2.73, 14.39 1.96, 17.6 0.57" stroke="#f85149" stroke-width="2" fill="none"></path></g><g transform="translate(1076 238.00560000000004) rotate(0 9 0)"><path d="M10.22 -2.26 C12.03 -2.24, 15.43 -0.97, 17.91 0.39 M9.84 -2.51 C11.68 -1.64, 14.47 -0.63, 17.6 0.57" stroke="#f85149" stroke-width="2" fill="none"></path></g></g><g transform="translate(723.4612251357514 348.9972106363974) rotate(0 186.6598663330078 10.625)"><text x="186.6598663330078" y="NaN" font-family="Virgil, Segoe UI Emoji" font-size="17px" fill="#8b949e" text-anchor="middle" style="white-space: pre;" direction="ltr">One slow service cascades failure upstream.</text></g><g stroke-opacity="0.6" fill-opacity="0.6" stroke-linecap="round" transform="translate(10 450) rotate(0 280 180)"><path d="M1.33 0.81 L560.28 0.59 L559.36 360.16 L0.7 360.16" stroke="none" stroke-width="0" fill="#161b22"></path><path d="M0.42 -0.03 C202.12 0.15, 403.85 0.85, 559.27 0.1 M559.32 -1.16 C557.37 71.88, 557.77 143.83, 560.38 360.39 M560.25 359.42 C369.9 361.98, 181.12 361.09, 0.18 359.44 M-0.34 359.42 C0.45 258.39, 0 156.51, 1.05 -0.39" stroke="#30363d" stroke-width="2.5" fill="none" stroke-dasharray="8 10"></path></g><g transform="translate(30 464) rotate(0 200.07984924316406 12.5)"><text x="0" y="NaN" font-family="Virgil, Segoe UI Emoji" font-size="20px" fill="#f85149" text-anchor="start" style="white-space: pre;" direction="ltr">3. A "God service" everything depends on</text></g><g stroke-linecap="round" transform="translate(230 600) rotate(0 60 35)"><path d="M1.86 0.35 L119.85 -0.5 L118.64 70.31 L-1.23 69.28" stroke="none" stroke-width="0" fill="#4a1219"></path><path d="M0.49 -0.21 C42.71 -1.37, 84.75 0.79, 118.99 1.82 M0.87 0.15 C33.74 0.38, 69.05 -0.31, 119.97 -0.68 M118.77 -0.45 C119.02 16.24, 120.21 29.15, 118.02 69.13 M120.92 0.34 C119.6 24.09, 119.34 50.96, 120.46 69.1 M120.8 68.51 C92.76 70.05, 66.39 69.48, -1.83 70.98 M120.41 69.68 C93.52 69.12, 65.66 68.31, 0.35 70.78 M-0.3 68.63 C1.96 43.72, 0.64 14.35, -1.41 -0.81 M0.8 69.79 C0.12 48.54, 0.91 28.2, 0.82 0.08" stroke="#f85149" stroke-width="2" fill="none"></path></g><g transform="translate(259.61602783203125 612.5) rotate(0 30.38397216796875 22.5)"><text x="30.38397216796875" y="NaN" font-family="Virgil, Segoe UI Emoji" font-size="18px" fill="#ffffff" text-anchor="middle" style="white-space: pre;" direction="ltr">God</text><text x="30.38397216796875" y="NaN" font-family="Virgil, Segoe UI Emoji" font-size="18px" fill="#ffffff" text-anchor="middle" style="white-space: pre;" direction="ltr">Service</text></g><g stroke-linecap="round" transform="translate(40 520) rotate(0 50 25)"><path d="M-0.54 -1.96 L100.04 -1.25 L99.66 51.25 L-1.53 51.41" stroke="none" stroke-width="0" fill="#0d2c5a"></path><path d="M-0.08 -0.35 C34.23 0.57, 72.1 -0.85, 99.81 -0.61 M0.27 -0.8 C36.31 -0.02, 75.01 -1, 99.65 0.33 M100.91 0.55 C99.63 12.48, 99.59 29.23, 99.59 49.66 M100.11 -0.85 C101.29 11.18, 101.12 22.13, 100.08 50.51 M101.01 51.65 C71.2 49.21, 40.29 50.47, 1.52 49.36 M100.63 49.1 C67.32 50.77, 35.13 48.87, 0.1 50.95 M0.82 51.5 C-1.63 31.93, -1.88 15.72, 0.96 -1.63 M-0.33 49.78 C0.66 31.27, -0.52 13.3, 0.59 0.04" stroke="#58a6ff" stroke-width="2" fill="none"></path></g><g transform="translate(68.364013671875 533.75) rotate(0 21.635986328125 11.25)"><text x="21.635986328125" y="NaN" font-family="Virgil, Segoe UI Emoji" font-size="18px" fill="#ffffff" text-anchor="middle" style="white-space: pre;" direction="ltr">Svc 1</text></g><g stroke-linecap="round" transform="translate(230 500) rotate(0 50 25)"><path d="M1.06 -0.27 L100.22 1.99 L100.67 48.18 L-1.83 49.54" stroke="none" stroke-width="0" fill="#0d2c5a"></path><path d="M-0.65 -0.5 C36.95 0.41, 73.86 -0.58, 100.64 0.96 M-0.32 0.26 C26.61 -0.49, 52.44 0.25, 99.33 -0.65 M99.06 1.56 C100.11 16.91, 98.83 33.67, 101.15 50.18 M99.3 -0.05 C99.88 15.42, 99.81 29.59, 99.71 49.92 M101.22 50.8 C65.05 48.4, 29.02 51.48, 0.86 51.75 M100.86 50.53 C76.6 50.28, 53.58 49.29, -0.14 49.11 M1.94 50.37 C-1.03 36.46, -0.22 21.71, -0.67 1.54 M0.54 49.77 C-0.68 39.9, 0.17 28.19, 0.35 -0.01" stroke="#58a6ff" stroke-width="2" fill="none"></path></g><g transform="translate(254.39501190185547 513.75) rotate(0 25.60498809814453 11.25)"><text x="25.60498809814453" y="NaN" font-family="Virgil, Segoe UI Emoji" font-size="18px" fill="#ffffff" text-anchor="middle" style="white-space: pre;" direction="ltr">Svc 2</text></g><g stroke-linecap="round" transform="translate(440 520) rotate(0 50 25)"><path d="M-1.34 1.41 L100.4 1.24 L101.69 49.12 L1.88 51.67" stroke="none" stroke-width="0" fill="#0d2c5a"></path><path d="M-1.22 -0.64 C35.67 0.25, 71.63 -0.31, 101.47 -1.47 M-0.92 -0.68 C34.9 1.03, 67.87 -0.5, 99.01 0.36 M101.21 -1.44 C100.58 11.33, 98.06 22.11, 98.71 50.7 M100.49 0.75 C100.48 19.65, 100.5 37.06, 99.34 49.33 M101.43 49.94 C78.91 51.58, 57.74 48.49, 0.21 50.14 M99.09 49.95 C65.88 49.79, 32.03 49.72, -0.39 49.28 M-0.95 49.25 C0.56 36.98, -1.56 27.71, 1.7 0.72 M-0.58 49.77 C-0.01 36.53, -1.14 23.09, 0.11 -0.06" stroke="#58a6ff" stroke-width="2" fill="none"></path></g><g transform="translate(464.67401123046875 533.75) rotate(0 25.32598876953125 11.25)"><text x="25.32598876953125" y="NaN" font-family="Virgil, Segoe UI Emoji" font-size="18px" fill="#ffffff" text-anchor="middle" style="white-space: pre;" direction="ltr">Svc 3</text></g><g stroke-linecap="round" transform="translate(40 700) rotate(0 50 25)"><path d="M0.25 -0.9 L100.58 0.48 L98.7 50.06 L1.58 49.8" stroke="none" stroke-width="0" fill="#0d2c5a"></path><path d="M-1.79 -0.79 C34.4 2.09, 73.39 1.96, 98.29 0.1 M0.49 0.38 C23.2 0.56, 45.29 0.75, 100.69 -0.63 M99.35 -0.44 C101.05 15.75, 101.3 30.55, 100.27 51.22 M99.68 -0.45 C100.08 11.89, 100.19 24.53, 100.97 50.73 M101.64 49.09 C72.76 50.77, 42.47 49.5, -0.45 48.52 M99.31 49.38 C75.17 49.31, 52.49 50.15, -0.63 49.45 M0.17 48.12 C1.15 31.51, 0.1 13.71, 0.06 -0.11 M0.29 49.76 C-0.34 33.16, 0.55 17.98, -0.12 -0.11" stroke="#58a6ff" stroke-width="2" fill="none"></path></g><g transform="translate(65.04301452636719 713.75) rotate(0 24.956985473632812 11.25)"><text x="24.956985473632812" y="NaN" font-family="Virgil, Segoe UI Emoji" font-size="18px" fill="#ffffff" text-anchor="middle" style="white-space: pre;" direction="ltr">Svc 4</text></g><g stroke-linecap="round" transform="translate(440 700) rotate(0 50 25)"><path d="M1.85 0.79 L100.76 -0.28 L99.71 50.99 L1.28 51.93" stroke="none" stroke-width="0" fill="#0d2c5a"></path><path d="M1.64 -0.93 C37.12 -2.06, 71.15 -1.77, 99.12 1.67 M-0.11 -0.56 C31.5 -1.91, 62.72 0, 100.37 0.38 M101.5 0.56 C101.52 16.17, 100.54 34.98, 101.83 51.75 M100.87 0.36 C100.68 16.13, 100.89 32, 100.59 50.14 M101.85 48.24 C66.61 49.95, 31.2 50.51, -1.1 50.91 M99.54 50.8 C66.45 48.82, 30.94 50.58, -0.87 49.62 M1.29 51 C-1.26 32.03, -1.24 19.7, -1.57 -0.93 M-0.84 49.75 C0.32 31.79, -0.76 12.87, -0.36 -0.16" stroke="#58a6ff" stroke-width="2" fill="none"></path></g><g transform="translate(465.2410125732422 713.75) rotate(0 24.758987426757812 11.25)"><text x="24.758987426757812" y="NaN" font-family="Virgil, Segoe UI Emoji" font-size="18px" fill="#ffffff" text-anchor="middle" style="white-space: pre;" direction="ltr">Svc 5</text></g><g stroke-linecap="round"><g transform="translate(146 548.8961578331753) rotate(0 41.14958037929301 26.686647324740136)"><path d="M-0.78 0.64 C12.71 9.6, 67.89 44.38, 81.65 53.25 M1.01 -0.07 C14.83 9.13, 70.74 46.08, 84.03 54.72" stroke="#f85149" stroke-width="2" fill="none"></path></g><g transform="translate(146 548.8961578331753) rotate(0 41.14958037929301 26.686647324740136)"><path d="M55.89 46.75 C65.11 49.63, 76.66 52.83, 83.97 53.95 M54.13 48.32 C66.41 50.69, 78.5 53.07, 84.07 54.11" stroke="#f85149" stroke-width="2" fill="none"></path></g><g transform="translate(146 548.8961578331753) rotate(0 41.14958037929301 26.686647324740136)"><path d="M67.16 29.59 C72.24 38.58, 79.73 47.97, 83.97 53.95 M65.39 31.16 C73.3 40.46, 80.89 49.69, 84.07 54.11" stroke="#f85149" stroke-width="2" fill="none"></path></g></g><g stroke-linecap="round"><g transform="translate(281.21024 556) rotate(0 3.800759999999997 19)"><path d="M-0.3 -0.73 C0.94 5.54, 6.65 31.07, 8.11 37.49 M1.75 1.5 C2.81 7.94, 6.36 32.5, 7.43 38.76" stroke="#f85149" stroke-width="2" fill="none"></path></g><g transform="translate(281.21024 556) rotate(0 3.800759999999997 19)"><path d="M-3.11 22.62 C0.61 29.34, 4.5 34.42, 5.84 38.78 M-1.93 20.85 C1.11 25.88, 3.11 30.46, 8.29 39.63" stroke="#f85149" stroke-width="2" fill="none"></path></g><g transform="translate(281.21024 556) rotate(0 3.800759999999997 19)"><path d="M9.98 20.57 C8.98 28, 8.15 33.82, 5.84 38.78 M11.17 18.8 C11.05 24.27, 9.87 29.35, 8.29 39.63" stroke="#f85149" stroke-width="2" fill="none"></path></g></g><g stroke-linecap="round"><g transform="translate(434 548.895954800562) rotate(0 -41.150324003685284 26.68573598642905)"><path d="M0.19 0.3 C-13.77 9, -69.26 43.77, -83.03 52.48 M-1.17 -0.59 C-14.8 8.21, -67.02 44.55, -80.71 53.55" stroke="#f85149" stroke-width="2" fill="none"></path></g><g transform="translate(434 548.895954800562) rotate(0 -41.150324003685284 26.68573598642905)"><path d="M-62.64 28.01 C-70.9 37.8, -77.18 47.72, -79.94 54.35 M-62.43 28.78 C-68.55 35.79, -72.53 44.07, -80.98 53.95" stroke="#f85149" stroke-width="2" fill="none"></path></g><g transform="translate(434 548.895954800562) rotate(0 -41.150324003685284 26.68573598642905)"><path d="M-51.12 44.99 C-63.58 48.68, -74.01 52.47, -79.94 54.35 M-50.91 45.77 C-60.27 47.99, -67.53 51.43, -80.98 53.95" stroke="#f85149" stroke-width="2" fill="none"></path></g></g><g stroke-linecap="round"><g transform="translate(146 722.1158488874341) rotate(0 48.24153404189789 -23.229609831581058)"><path d="M0.68 -1.08 C16.71 -8.75, 81.13 -37.92, 96.91 -45.34 M-0.43 0.97 C15.42 -7.06, 79.84 -38.8, 96.18 -46.87" stroke="#f85149" stroke-width="2" fill="none"></path></g><g transform="translate(146 722.1158488874341) rotate(0 48.24153404189789 -23.229609831581058)"><path d="M73.65 -24.49 C84.67 -35.02, 91.72 -39.48, 95.36 -45.28 M74.85 -25.11 C82.9 -32.94, 90 -39.83, 96.75 -46.96" stroke="#f85149" stroke-width="2" fill="none"></path></g><g transform="translate(146 722.1158488874341) rotate(0 48.24153404189789 -23.229609831581058)"><path d="M64.57 -42.89 C78.97 -46.84, 89.3 -44.66, 95.36 -45.28 M65.77 -43.51 C76.66 -45.26, 86.73 -46.12, 96.75 -46.96" stroke="#f85149" stroke-width="2" fill="none"></path></g></g><g stroke-linecap="round"><g transform="translate(434 714.5) rotate(0 -39.5 -19.75)"><path d="M1.16 -0.05 C-12.26 -6.69, -66.5 -32.22, -79.82 -38.76 M0.32 -1.12 C-12.79 -7.59, -64.26 -34.37, -77.54 -40.5" stroke="#f85149" stroke-width="2" fill="none"></path></g><g transform="translate(434 714.5) rotate(0 -39.5 -19.75)"><path d="M-47.8 -38.56 C-57.27 -37.67, -68.92 -41.28, -75.94 -42.12 M-47.61 -36.59 C-59.38 -37.55, -70.81 -39.7, -78.13 -41.08" stroke="#f85149" stroke-width="2" fill="none"></path></g><g transform="translate(434 714.5) rotate(0 -39.5 -19.75)"><path d="M-56.89 -20.17 C-63.25 -25.99, -71.63 -36.24, -75.94 -42.12 M-56.71 -18.19 C-65.27 -25.97, -73.33 -34.93, -78.13 -41.08" stroke="#f85149" stroke-width="2" fill="none"></path></g></g><g transform="translate(69.54180333486386 770.4132704441313) rotate(0 243.69488525390625 10.625)"><text x="243.69488525390625" y="NaN" font-family="Virgil, Segoe UI Emoji" font-size="17px" fill="#8b949e" text-anchor="middle" style="white-space: pre;" direction="ltr">Nothing deploys until the God service accepts the change.</text></g><g stroke-opacity="0.6" fill-opacity="0.6" stroke-linecap="round" transform="translate(630 450) rotate(0 280 180)"><path d="M-1.22 -0.93 L558.8 1.39 L561.92 358.59 L-0.33 360.57" stroke="none" stroke-width="0" fill="#161b22"></path><path d="M-0.67 -0.07 C204.74 -0.05, 408.83 -1.49, 560.23 0.23 M561.01 -0.4 C560.58 126.18, 562.17 253.22, 559.9 358.9 M560.53 360.45 C424.17 361.52, 289.91 362.61, -0.4 360.5 M-0.75 360.34 C3.24 259.77, 2.19 158.7, -0.37 -0.09" stroke="#30363d" stroke-width="2.5" fill="none" stroke-dasharray="8 10"></path></g><g transform="translate(650 464) rotate(0 155.69985961914062 12.5)"><text x="0" y="NaN" font-family="Virgil, Segoe UI Emoji" font-size="20px" fill="#f85149" text-anchor="start" style="white-space: pre;" direction="ltr">4. Deploys must be coordinated</text></g><g stroke-linecap="round" transform="translate(652.7089855389393 590) rotate(0 60 35)"><path d="M1.55 1.98 L121.4 -1.47 L120.34 68.38 L0.33 69.77" stroke="none" stroke-width="0" fill="#0d2c5a"></path><path d="M1.75 -0.32 C43.5 -0.59, 85.71 0.24, 121.39 -1.84 M0.2 0.74 C29.42 0.42, 57.9 0.05, 119.6 0.14 M119.47 -1.88 C118.12 21.66, 118.84 42.68, 120.57 71.78 M120.6 -0.93 C120.19 25.68, 119.46 49.68, 119.33 69.34 M121.6 71.07 C82.49 68.13, 49.4 68.04, -1.37 71.45 M120.98 69.95 C80.14 69.49, 38.56 69.21, -0.7 70.62 M-0.9 71.16 C-2.48 42.69, -0.24 13.04, -1.61 1.11 M0.76 70.01 C-0.49 50.96, 0.36 32.43, -0.44 0.11" stroke="#58a6ff" stroke-width="2" fill="none"></path></g><g transform="translate(684.8190014080799 612.5) rotate(0 27.889984130859375 12.5)"><text x="27.889984130859375" y="NaN" font-family="Virgil, Segoe UI Emoji" font-size="20px" fill="#ffffff" text-anchor="middle" style="white-space: pre;" direction="ltr">Svc A</text></g><g stroke-linecap="round" transform="translate(860.9165595343029 589.7335631324037) rotate(0 60 35)"><path d="M-0.85 -0.34 L121.59 1.78 L121.35 69.32 L0.03 71.9" stroke="none" stroke-width="0" fill="#0d2c5a"></path><path d="M1.18 -0.47 C42.22 -0.91, 87.47 0.34, 118.22 -0.28 M-0.39 -0.2 C39.43 0.01, 78.74 -0.64, 119.28 -0.85 M121.62 -0.88 C118.62 27.48, 118.11 53.92, 118.13 68.3 M119.79 -0.13 C120.64 15.39, 120.01 32.09, 120.96 70.75 M121.81 70.21 C75.09 67.31, 31.62 69.04, 1.97 69.84 M119.21 69.37 C91.35 71.1, 62.87 69.73, -0.95 70.79 M0.21 70.03 C-0.67 44.27, -1.36 21.15, 0.76 0.29 M-0.37 70 C1.48 46.49, 0.35 25.12, -0.67 0.07" stroke="#58a6ff" stroke-width="2" fill="none"></path></g><g transform="translate(892.3165763189709 612.2335631324037) rotate(0 28.59998321533203 12.5)"><text x="28.59998321533203" y="NaN" font-family="Virgil, Segoe UI Emoji" font-size="20px" fill="#ffffff" text-anchor="middle" style="white-space: pre;" direction="ltr">Svc B</text></g><g stroke-linecap="round" transform="translate(1061.705894216247 590) rotate(0 60 35)"><path d="M0.75 1.35 L121.77 1.02 L118.37 70.26 L-0.27 70.03" stroke="none" stroke-width="0" fill="#0d2c5a"></path><path d="M0.61 -0.61 C44.95 -1.23, 89.24 0.45, 119.05 1.29 M-0.99 0.86 C25.44 1.59, 49.59 0.66, 120.96 0.16 M119.76 0.12 C119.12 19.3, 121.38 37.16, 119.7 68.82 M120.98 0.67 C120.49 21.1, 119.95 42.5, 120.59 70.16 M118.02 69.36 C91.69 70.48, 65.84 70.04, 1.32 68.23 M119.43 70.8 C78.56 70.7, 37.17 70.25, 0.81 70.96 M1.33 68.91 C-0.26 49.85, 0.12 29.25, -0.87 -0.54 M0.5 70 C0.05 44.02, 0.95 15.81, -0.91 0.02" stroke="#58a6ff" stroke-width="2" fill="none"></path></g><g transform="translate(1093.9359128319697 612.5) rotate(0 27.769981384277344 12.5)"><text x="27.769981384277344" y="NaN" font-family="Virgil, Segoe UI Emoji" font-size="20px" fill="#ffffff" text-anchor="middle" style="white-space: pre;" direction="ltr">Svc C</text></g><g stroke-linecap="round"><g transform="translate(778.7089855389393 624.9888765993306) rotate(0 38.103786997681766 -0.11509503312890956)"><path d="M-0.51 0.02 C11.98 0.06, 62.93 -0.21, 75.75 -0.31 M1.42 -1.01 C13.65 -0.73, 62.18 0.93, 74.57 1.19" stroke="#f85149" stroke-width="3" fill="none"></path></g><g transform="translate(778.7089855389393 624.9888765993306) rotate(0 38.103786997681766 -0.11509503312890956)"><path d="M27.68 -11.1 C17.19 -6.34, 6.45 -4.45, -0.64 -1.11 M28.06 -10.42 C19.31 -7.25, 10.62 -5.4, 0.12 -0.8" stroke="#f85149" stroke-width="3" fill="none"></path></g><g transform="translate(778.7089855389393 624.9888765993306) rotate(0 38.103786997681766 -0.11509503312890956)"><path d="M27.76 9.42 C17.33 6.69, 6.56 1.09, -0.64 -1.11 M28.13 10.1 C19.54 7.22, 10.82 3.02, 0.12 -0.8" stroke="#f85149" stroke-width="3" fill="none"></path></g><g transform="translate(778.7089855389393 624.9888765993306) rotate(0 38.103786997681766 -0.11509503312890956)"><path d="M46.14 9.89 C56.4 7.66, 66.32 2.31, 74.44 0.05 M46.51 10.57 C54.63 8.33, 62.63 4.33, 75.2 0.36" stroke="#f85149" stroke-width="3" fill="none"></path></g><g transform="translate(778.7089855389393 624.9888765993306) rotate(0 38.103786997681766 -0.11509503312890956)"><path d="M46.72 -10.62 C56.68 -5.37, 66.4 -3.23, 74.44 0.05 M47.09 -9.95 C54.87 -6.14, 62.7 -4.09, 75.2 0.36" stroke="#f85149" stroke-width="3" fill="none"></path></g></g><g stroke-linecap="round"><g transform="translate(986.9165595343028 624.7603506601988) rotate(0 34.39466734097215 0.11343090600291816)"><path d="M-0.03 1.05 C11.43 1.03, 58.16 0.08, 69.49 -0.23 M-1.5 0.56 C9.79 0.71, 56.92 1.16, 68.91 1.06" stroke="#f85149" stroke-width="3" fill="none"></path></g><g transform="translate(986.9165595343028 624.7603506601988) rotate(0 34.39466734097215 0.11343090600291816)"><path d="M29.74 -8.51 C16.99 -7.1, 5.82 -2.87, -1.74 0.7 M27.11 -9.24 C19.54 -6.16, 8.99 -2.88, -0.55 1.73" stroke="#f85149" stroke-width="3" fill="none"></path></g><g transform="translate(986.9165595343028 624.7603506601988) rotate(0 34.39466734097215 0.11343090600291816)"><path d="M30.09 12 C17.22 5.93, 5.93 2.67, -1.74 0.7 M27.45 11.28 C19.63 7.44, 8.96 3.79, -0.55 1.73" stroke="#f85149" stroke-width="3" fill="none"></path></g><g transform="translate(986.9165595343028 624.7603506601988) rotate(0 34.39466734097215 0.11343090600291816)"><path d="M42.46 12.44 C50.24 6.21, 59.59 2.81, 67.2 0.71 M39.82 11.71 C51.09 7.67, 59.52 3.88, 68.39 1.74" stroke="#f85149" stroke-width="3" fill="none"></path></g><g transform="translate(986.9165595343028 624.7603506601988) rotate(0 34.39466734097215 0.11343090600291816)"><path d="M42.5 -8.09 C50.25 -6.82, 59.58 -2.73, 67.2 0.71 M39.86 -8.81 C51.26 -5.92, 59.67 -2.78, 68.39 1.74" stroke="#f85149" stroke-width="3" fill="none"></path></g></g><g transform="translate(681.0287067584793 761.5125843816205) rotate(0 196.2808837890625 11.25)"><text x="196.2808837890625" y="NaN" font-family="Virgil, Segoe UI Emoji" font-size="18px" fill="#f85149" text-anchor="middle" style="white-space: pre;" direction="ltr">chained contracts (shared schemas / types)</text></g><g transform="translate(650 710) rotate(0 185.4699249267578 10.625)"><text x="185.4699249267578" y="NaN" font-family="Virgil, Segoe UI Emoji" font-size="17px" fill="#8b949e" text-anchor="middle" style="white-space: pre;" direction="ltr">Deploy A, B, C together -- or nothing works.</text></g><g transform="translate(50 840) rotate(0 559.2794799804688 12.5)"><text x="559.2794799804688" y="NaN" font-family="Virgil, Segoe UI Emoji" font-size="20px" fill="#f85149" text-anchor="middle" style="white-space: pre;" direction="ltr">Operational complexity of microservices with none of the benefits. Strictly worse than a well-structured monolith.</text></g></svg>