<svg version="1.1" xmlns="http://www.w3.org/2000/svg" viewBox="0 0 850 549" width="850" height="549">
  <!-- svg-source:excalidraw -->
  
  <defs>
    <style>
      @font-face {
        font-family: "Virgil";
        src: url("https://excalidraw.com/Virgil.woff2");
      }
      @font-face {
        font-family: "Cascadia";
        src: url("https://excalidraw.com/Cascadia.woff2");
      }
    </style>
  </defs>
  <rect x="0" y="0" width="850" height="549" fill="#0d1117"></rect><g stroke-opacity="0.6" fill-opacity="0.6" stroke-linecap="round" transform="translate(10 10) rotate(0 184 264.5)"><path d="M-1.57 0.78 L367.26 1.15 L369.12 530.38 L-1.26 527.92" stroke="none" stroke-width="0" fill="#161b22"></path><path d="M0.05 0.29 C112.28 -0.09, 225.72 1.14, 369 -0.59 M368.38 0.22 C367.14 194.57, 367.38 388.82, 368.23 529.55 M368.82 528.77 C222.62 529.75, 76.89 530.35, 0.72 528.25 M0.08 529.79 C-1.84 329.03, -0.57 129.75, -0.78 -0.76" stroke="#30363d" stroke-width="2.5" fill="none" stroke-dasharray="8 10"></path></g><g transform="translate(26 20) rotate(0 57.851959228515625 11.25)"><text x="0" y="NaN" font-family="Virgil, Segoe UI Emoji" font-size="18px" fill="#8b949e" text-anchor="start" style="white-space: pre;" direction="ltr">Transactions</text></g><g stroke-opacity="0.6" fill-opacity="0.6" stroke-linecap="round" transform="translate(505 19) rotate(0 167.5 255.5)"><path d="M-1.06 -1.39 L335.53 -1.21 L335.48 511.23 L-1.69 509.41" stroke="none" stroke-width="0" fill="#161b22"></path><path d="M1.18 0.3 C105.99 -0.73, 215.38 -1.3, 333.78 0.02 M335.2 0.66 C335.02 133.17, 334.72 266.04, 334.24 511.13 M334.99 510.1 C206.69 513.38, 77.73 512.04, 0.75 509.67 M-0.8 511.43 C1.5 337.23, 1.31 163.51, -0.06 0.26" stroke="#30363d" stroke-width="2.5" fill="none" stroke-dasharray="8 10"></path></g><g transform="translate(521 29) rotate(0 55.44895935058594 11.25)"><text x="0" y="NaN" font-family="Virgil, Segoe UI Emoji" font-size="18px" fill="#8b949e" text-anchor="start" style="white-space: pre;" direction="ltr">Row Versions</text></g><g stroke-linecap="round" transform="translate(70 120) rotate(0 113 36.5)"><path d="M-0.74 1.58 L225.47 -1.15 L226.06 72.14 L-0.03 71.05" stroke="none" stroke-width="0" fill="#1f4d2b"></path><path d="M-1.38 1.27 C56.31 -1.27, 114.48 -2.15, 224.3 0.64 M0.3 -0.4 C53.11 0.22, 104.44 0.59, 225.18 -0.1 M225.76 -0.04 C227.21 17.57, 224.69 33.85, 226.92 74.2 M225.93 -0.13 C226.98 20.68, 226.25 41.45, 226.7 72.54 M226.34 73.31 C143.34 76.38, 60.97 75.79, 0.12 74.54 M226.65 73.24 C168.39 72.43, 110.35 72.42, 0.63 72.37 M1.55 72.31 C1.61 49.15, -1.84 25.74, -0.37 -1.08 M-0.52 72.27 C0.29 48.09, 0.41 24.5, -0.62 -0.74" stroke="#3fb950" stroke-width="2" fill="none"></path></g><g transform="translate(109.75005340576172 144) rotate(0 73.24994659423828 12.5)"><text x="73.24994659423828" y="NaN" font-family="Virgil, Segoe UI Emoji" font-size="20px" fill="#fff" text-anchor="middle" style="white-space: pre;" direction="ltr">Txn 12: Report</text></g><g stroke-linecap="round" transform="translate(70 263) rotate(0 124 36.5)"><path d="M-1.58 0.68 L248.01 -1.03 L249.82 72.47 L0.08 73.5" stroke="none" stroke-width="0" fill="#3a1d6e"></path><path d="M-0.19 1.19 C56.75 -0.12, 116.09 1.49, 247.52 -0.41 M0.16 0.58 C60.5 1.37, 119.37 2.05, 247.85 0.51 M246.19 0.92 C248.11 27.14, 248.67 58.95, 248.83 73.04 M248.26 0.12 C248.79 28.13, 248.76 58.18, 248.4 73.67 M246.96 73.05 C165.02 74.27, 82.84 74.36, 0.29 72.36 M247.52 72.86 C195.1 72.58, 142.08 71.28, -0.32 73.36 M-1.11 74.13 C-1.4 51.91, -0.99 26.73, 1.77 -1.28 M-0.4 73.29 C-0.45 50.41, -0.49 27.25, -0.93 0.37" stroke="#a371f7" stroke-width="2" fill="none"></path></g><g transform="translate(109.99005889892578 287) rotate(0 84.00994110107422 12.5)"><text x="84.00994110107422" y="NaN" font-family="Virgil, Segoe UI Emoji" font-size="20px" fill="#fff" text-anchor="middle" style="white-space: pre;" direction="ltr">Txn 13: Transfer</text></g><g stroke-linecap="round" transform="translate(70 406) rotate(0 113 36.5)"><path d="M-0.66 -1.05 L227.83 1.62 L226.36 74.88 L-0.43 74.84" stroke="none" stroke-width="0" fill="#1f4d2b"></path><path d="M0.38 -1.28 C51.31 0.75, 100.19 0.07, 226.95 -0.57 M0.77 -0.42 C56.79 0.84, 112.2 0.61, 226.63 0.28 M225.96 1.21 C227.08 16.68, 225.58 29.14, 225.83 74.59 M226.27 -0.73 C226.07 22.08, 225.85 43.37, 225.76 73.61 M225.13 72.67 C171 72.82, 117.01 70.96, -1.54 71.59 M226.49 73.78 C142.29 73.05, 58.87 72.92, 0.77 73.14 M-1.24 72.23 C-2.21 55.76, -1.07 40.35, -1.75 1.28 M-0.52 73.18 C-1.18 58.44, -0.66 42.68, 0.22 -0.16" stroke="#3fb950" stroke-width="2" fill="none"></path></g><g transform="translate(108.76004791259766 430) rotate(0 74.23995208740234 12.5)"><text x="74.23995208740234" y="NaN" font-family="Virgil, Segoe UI Emoji" font-size="20px" fill="#fff" text-anchor="middle" style="white-space: pre;" direction="ltr">Txn 14: Reader</text></g><g stroke-linecap="round" transform="translate(565 129) rotate(0 107.5 74)"><path d="M0.89 -1.73 L214.02 -0.33 L213.96 147.24 L1.35 148.81" stroke="none" stroke-width="0" fill="#0d2c5a"></path><path d="M-1.31 -1.56 C78.29 2.63, 151.94 1.07, 213.33 1.71 M0.5 0.38 C52.03 -0.53, 103 -1.51, 215.87 0.78 M214.19 -1.71 C215.32 59.02, 213.71 114.49, 215.02 147.36 M214.47 0.93 C215.39 41.59, 215.15 83.59, 214.98 147.99 M213.85 147.02 C131.37 147.72, 46.04 148.7, -0.03 148.12 M215.69 147.15 C170.06 148.77, 125.02 149.13, -0.82 147.62 M-1.98 147.22 C0.56 107.98, 1.54 66.56, 0.99 -0.95 M-0.66 147.79 C0.41 116.15, 1.59 87.01, -0.48 -0.39" stroke="#58a6ff" stroke-width="2" fill="none"></path></g><g transform="translate(602.7100601196289 153) rotate(0 69.7899398803711 50)"><text x="69.7899398803711" y="NaN" font-family="Virgil, Segoe UI Emoji" font-size="20px" fill="#fff" text-anchor="middle" style="white-space: pre;" direction="ltr">v1</text><text x="69.7899398803711" y="NaN" font-family="Virgil, Segoe UI Emoji" font-size="20px" fill="#fff" text-anchor="middle" style="white-space: pre;" direction="ltr">created_by=5</text><text x="69.7899398803711" y="NaN" font-family="Virgil, Segoe UI Emoji" font-size="20px" fill="#fff" text-anchor="middle" style="white-space: pre;" direction="ltr">deleted_by=13</text><text x="69.7899398803711" y="NaN" font-family="Virgil, Segoe UI Emoji" font-size="20px" fill="#fff" text-anchor="middle" style="white-space: pre;" direction="ltr">Alice $500</text></g><g stroke-linecap="round" transform="translate(565 347) rotate(0 107.5 61.5)"><path d="M-1.5 0.66 L213.9 -0.83 L216.76 121.16 L-0.25 123.63" stroke="none" stroke-width="0" fill="#0d2c5a"></path><path d="M-0.49 -0.75 C53.52 -0.22, 107.46 -0.32, 216.29 0.87 M-0.36 -0.05 C61.36 -1.73, 123.03 -0.82, 214.76 0.66 M213.05 1.72 C215.16 29.51, 212.28 60.98, 214.55 122.84 M215.91 0.84 C217.1 33.57, 216.74 68.23, 215.22 123.64 M214.56 124.56 C162.7 124.14, 109.27 124.23, 0.08 122.63 M214.38 123.53 C135.71 124.4, 54.81 124.47, 0.58 123.42 M0.3 124.23 C-1.32 77.94, -1.11 32.21, -1.35 -1.46 M0.94 123.68 C-1.36 98.49, -0.96 73.86, 0.17 -0.4" stroke="#58a6ff" stroke-width="2" fill="none"></path></g><g transform="translate(600.5100555419922 371) rotate(0 71.98994445800781 37.5)"><text x="71.98994445800781" y="NaN" font-family="Virgil, Segoe UI Emoji" font-size="20px" fill="#fff" text-anchor="middle" style="white-space: pre;" direction="ltr">v2</text><text x="71.98994445800781" y="NaN" font-family="Virgil, Segoe UI Emoji" font-size="20px" fill="#fff" text-anchor="middle" style="white-space: pre;" direction="ltr">created_by=13</text><text x="71.98994445800781" y="NaN" font-family="Virgil, Segoe UI Emoji" font-size="20px" fill="#fff" text-anchor="middle" style="white-space: pre;" direction="ltr">Alice $400</text></g><g stroke-linecap="round"><g transform="translate(324 303.6649039806683) rotate(0 117.50000000000003 49.43840092299993)"><path d="M0.91 -1.09 C40.12 15.6, 197.14 83.02, 235.99 99.58 M-0.06 0.96 C39 17.35, 196.16 81.44, 235.55 97.83" stroke="#3fb950" stroke-width="2" fill="none"></path></g><g transform="translate(324 303.6649039806683) rotate(0 117.50000000000003 49.43840092299993)"><path d="M203.77 98.23 C217.62 95.09, 226.33 97.43, 235.22 96.34 M204.81 95.94 C215.96 96.86, 225.57 97.25, 234.83 96.93" stroke="#3fb950" stroke-width="2" fill="none"></path></g><g transform="translate(324 303.6649039806683) rotate(0 117.50000000000003 49.43840092299993)"><path d="M211.58 79.25 C222.51 83.06, 228.39 92.28, 235.22 96.34 M212.62 76.97 C221.12 84.18, 228.13 90.86, 234.83 96.93" stroke="#3fb950" stroke-width="2" fill="none"></path></g></g><g transform="translate(310.87706756591797 342.75) rotate(0 93.12293243408202 22.5)"><text x="93.12293243408203" y="NaN" font-family="Virgil, Segoe UI Emoji" font-size="18px" fill="#c9d1d9" text-anchor="middle" style="white-space: pre;" direction="ltr">creates v2, marks v1</text><text x="93.12293243408203" y="NaN" font-family="Virgil, Segoe UI Emoji" font-size="18px" fill="#c9d1d9" text-anchor="middle" style="white-space: pre;" direction="ltr">deleted</text></g><g stroke-linecap="round"><g transform="translate(302 158.32993902766327) rotate(0 128.50000000000003 21.232291140490588)"><path d="M-0.11 1.15 C42.55 8.53, 214.19 36.71, 257.03 43.49 M-1.63 0.71 C40.78 7.84, 213.14 34.89, 256.1 41.9" stroke="#58a6ff" stroke-width="2" fill="none"></path></g><g transform="translate(302 158.32993902766327) rotate(0 128.50000000000003 21.232291140490588)"><path d="M228.57 47.65 C239.84 45.32, 248.48 41.26, 257.64 43.36 M226.27 47.6 C238.25 45.33, 250.2 43.78, 255.33 42.2" stroke="#58a6ff" stroke-width="2" fill="none"></path></g><g transform="translate(302 158.32993902766327) rotate(0 128.50000000000003 21.232291140490588)"><path d="M231.81 27.38 C241.69 32.93, 249.06 36.74, 257.64 43.36 M229.5 27.33 C240.25 33.09, 250.91 39.56, 255.33 42.2" stroke="#58a6ff" stroke-width="2" fill="none"></path></g></g><g transform="translate(336.47706604003906 157.06223016815386) rotate(0 94.02293395996094 22.5)"><text x="94.02293395996094" y="NaN" font-family="Virgil, Segoe UI Emoji" font-size="18px" fill="#c9d1d9" text-anchor="middle" style="white-space: pre;" direction="ltr">sees v1 (snapshot at</text><text x="94.02293395996094" y="NaN" font-family="Virgil, Segoe UI Emoji" font-size="18px" fill="#c9d1d9" text-anchor="middle" style="white-space: pre;" direction="ltr">txid=12)</text></g><g stroke-linecap="round"><g transform="translate(302 447.51663327817545) rotate(0 128.50000000000003 -6.287470543034033)"><path d="M0.23 -0.91 C43.02 -3.2, 213.18 -11.73, 256.16 -13.67 M-1.11 1.23 C42.11 -0.96, 215.26 -10.63, 258.43 -12.7" stroke="#58a6ff" stroke-width="2" fill="none"></path></g><g transform="translate(302 447.51663327817545) rotate(0 128.50000000000003 -6.287470543034033)"><path d="M229.31 -2.38 C235.91 -2.09, 244.71 -6.83, 259.55 -14.1 M231.12 -0.98 C241.8 -5.29, 251.96 -9.93, 257.76 -11.83" stroke="#58a6ff" stroke-width="2" fill="none"></path></g><g transform="translate(302 447.51663327817545) rotate(0 128.50000000000003 -6.287470543034033)"><path d="M228.23 -22.87 C235.12 -17.46, 244.19 -17.06, 259.55 -14.1 M230.05 -21.47 C240.94 -17.97, 251.52 -14.81, 257.76 -11.83" stroke="#58a6ff" stroke-width="2" fill="none"></path></g></g><g transform="translate(295.00806427001953 414.25) rotate(0 97.99193572998047 22.5)"><text x="97.99193572998047" y="NaN" font-family="Virgil, Segoe UI Emoji" font-size="18px" fill="#c9d1d9" text-anchor="middle" style="white-space: pre;" direction="ltr">sees v2 (snapshot at</text><text x="97.99193572998047" y="NaN" font-family="Virgil, Segoe UI Emoji" font-size="18px" fill="#c9d1d9" text-anchor="middle" style="white-space: pre;" direction="ltr">txid=14)</text></g></svg>