<svg version="1.1" xmlns="http://www.w3.org/2000/svg" viewBox="0 0 1448 625" width="1448" height="625">
  <!-- svg-source:excalidraw -->
  
  <defs>
    <style>
      @font-face {
        font-family: "Virgil";
        src: url("https://excalidraw.com/Virgil.woff2");
      }
      @font-face {
        font-family: "Cascadia";
        src: url("https://excalidraw.com/Cascadia.woff2");
      }
    </style>
  </defs>
  <rect x="0" y="0" width="1448" height="625" fill="#0d1117"></rect><g transform="translate(10 10) rotate(0 466.33984375 17.5)"><text x="0" y="NaN" font-family="Virgil, Segoe UI Emoji" font-size="28px" fill="#ff8c42" text-anchor="start" style="white-space: pre;" direction="ltr">Trace sampling: three strategies, three coverage / cost tradeoffs</text></g><g transform="translate(10 50) rotate(0 400.8087463378906 10.625)"><text x="0" y="NaN" font-family="Virgil, Segoe UI Emoji" font-size="17px" fill="#c9d1d9" text-anchor="start" style="white-space: pre;" direction="ltr">1M req/s is too expensive to trace fully. Each strategy keeps a different ~10K - 50K subset.</text></g><g stroke-linecap="round" transform="translate(10 95) rotate(0 230 260)"><path d="M0.3 1.64 L460.33 -1.22 L458.09 519.03 L0.19 520.34" stroke="none" stroke-width="0" fill="#161b22"></path><path d="M-0.9 0.25 C183.06 -0.22, 367.8 -0.36, 459.37 0.93 M459.32 0.72 C459.07 109.38, 459.03 219.07, 460.14 519.73 M460.63 520.6 C318.78 517.36, 177.68 517.71, 0.81 520.47 M0.32 519.67 C1.22 364.48, 1.06 209.65, -0.26 -0.46" stroke="#30363d" stroke-width="2.5" fill="none" stroke-dasharray="8 10"></path></g><g stroke-linecap="round" transform="translate(30 115) rotate(0 210 28)"><path d="M-1.39 1.57 L418.4 -1.13 L420 54.25 L-0.05 55.96" stroke="none" stroke-width="0" fill="#0d2c5a"></path><path d="M-0.36 -0.22 C96.45 -0.06, 194.82 -0.84, 420.32 -0.93 M-0.48 0.03 C124.84 -1.38, 250.17 -1.45, 420.52 -0.14 M421.98 1.65 C419.11 14.4, 418.97 27.07, 418.76 55.09 M419.31 -0.34 C421.03 16.48, 419.25 30.48, 419.47 56.38 M420.21 55.09 C319.59 55.3, 216.71 55.72, -0.45 56.12 M419.5 56.02 C287.52 57.42, 155.38 57.7, 0.23 56.45 M0.44 56.45 C0.17 38.69, -1.55 21.55, 1.96 -0.63 M-0.08 55.11 C0.75 45.32, 0.58 33.76, 0.2 0.49" stroke="#58a6ff" stroke-width="2" fill="none"></path></g><g transform="translate(96.92008972167969 123) rotate(0 143.0799102783203 20)"><text x="143.0799102783203" y="NaN" font-family="Virgil, Segoe UI Emoji" font-size="16px" fill="#ffffff" text-anchor="middle" style="white-space: pre;" direction="ltr">HEAD-BASED</text><text x="143.0799102783203" y="NaN" font-family="Virgil, Segoe UI Emoji" font-size="16px" fill="#ffffff" text-anchor="middle" style="white-space: pre;" direction="ltr">decide at entry, before work starts</text></g><g transform="translate(40 190) rotate(0 65.42194366455078 8.75)"><text x="0" y="NaN" font-family="Virgil, Segoe UI Emoji" font-size="14px" fill="#8b949e" text-anchor="start" style="white-space: pre;" direction="ltr">1M req / s entering</text></g><g stroke-linecap="round"><g transform="translate(70 215) rotate(0 0 17.5)"><path d="M0.63 -0.85 C0.76 4.68, 0.39 28.15, 0.13 34.09 M-0.5 1.32 C-0.46 6.89, -1.09 29.38, -0.75 35.15" stroke="#c9d1d9" stroke-width="2" fill="none"></path></g><g transform="translate(70 215) rotate(0 0 17.5)"><path d="M-8.14 18.95 C-6.59 21.46, -4.1 25.58, -1.34 34.27 M-7.2 18.54 C-4.45 24.94, -2.27 32.31, -0.23 34.76" stroke="#c9d1d9" stroke-width="2" fill="none"></path></g><g transform="translate(70 215) rotate(0 0 17.5)"><path d="M3.83 18.83 C2.43 21.43, 1.96 25.58, -1.34 34.27 M4.77 18.42 C2.78 24.88, 0.24 32.29, -0.23 34.76" stroke="#c9d1d9" stroke-width="2" fill="none"></path></g></g><g stroke-linecap="round"><g transform="translate(120 215) rotate(0 0 17.5)"><path d="M0.11 -0.87 C-0.04 4.79, -0.31 28.61, -0.17 34.49 M-1.29 1.28 C-1.68 7.07, -1.54 30.07, -1.21 35.76" stroke="#c9d1d9" stroke-width="2" fill="none"></path></g><g transform="translate(120 215) rotate(0 0 17.5)"><path d="M-8.91 19.23 C-5.97 26.8, -3.75 30.25, -0.1 37.49 M-7.2 19.11 C-5.73 25.26, -4.56 29.63, -0.35 35.5" stroke="#c9d1d9" stroke-width="2" fill="none"></path></g><g transform="translate(120 215) rotate(0 0 17.5)"><path d="M3.06 18.91 C1.64 26.61, -0.49 30.17, -0.1 37.49 M4.77 18.79 C2.61 24.97, 0.15 29.45, -0.35 35.5" stroke="#c9d1d9" stroke-width="2" fill="none"></path></g></g><g stroke-linecap="round"><g transform="translate(170 215) rotate(0 0 17.5)"><path d="M-0.16 -1.07 C-0.05 4.52, 0.95 28.05, 1.15 34.21 M-1.7 0.99 C-1.69 6.65, 0.38 29.83, 0.8 35.34" stroke="#c9d1d9" stroke-width="2" fill="none"></path></g><g transform="translate(170 215) rotate(0 0 17.5)"><path d="M-8.07 21.12 C-5.07 26.43, -0.11 29.47, -0.15 35.29 M-6.68 20.06 C-5.66 22.87, -3.05 26.15, 1.38 35.53" stroke="#c9d1d9" stroke-width="2" fill="none"></path></g><g transform="translate(170 215) rotate(0 0 17.5)"><path d="M3.86 20.13 C2.78 25.77, 3.66 29.14, -0.15 35.29 M5.25 19.07 C3.69 21.99, 3.7 25.48, 1.38 35.53" stroke="#c9d1d9" stroke-width="2" fill="none"></path></g></g><g stroke-linecap="round"><g transform="translate(220 215) rotate(0 0 17.5)"><path d="M-0.46 0.87 C-0.63 6.47, -1.28 28.42, -1.06 34.25 M1.5 0.28 C1.69 5.97, 1.25 29.78, 1.09 35.4" stroke="#c9d1d9" stroke-width="2" fill="none"></path></g><g transform="translate(220 215) rotate(0 0 17.5)"><path d="M-3.27 17.28 C-3.86 24.99, 0.18 27.59, 2.09 36.85 M-4.63 18.78 C-3.59 21.83, -1.42 26.21, 0.38 34.9" stroke="#c9d1d9" stroke-width="2" fill="none"></path></g><g transform="translate(220 215) rotate(0 0 17.5)"><path d="M8.7 17.54 C4.55 25.13, 5.04 27.66, 2.09 36.85 M7.33 19.04 C5.68 22.13, 5.16 26.45, 0.38 34.9" stroke="#c9d1d9" stroke-width="2" fill="none"></path></g></g><g stroke-linecap="round"><g transform="translate(270 215) rotate(0 0 17.5)"><path d="M-0.18 -0.03 C-0.42 5.79, -0.36 29.39, -0.45 35.26 M-1.73 -1.09 C-2.25 4.32, -2.22 26.99, -1.64 33.27" stroke="#c9d1d9" stroke-width="2" fill="none"></path></g><g transform="translate(270 215) rotate(0 0 17.5)"><path d="M-8.34 16.43 C-5.32 22.25, -2.85 29.32, -0.19 35.01 M-8.67 17.58 C-5.63 22.79, -3.45 30.06, -0.81 34.03" stroke="#c9d1d9" stroke-width="2" fill="none"></path></g><g transform="translate(270 215) rotate(0 0 17.5)"><path d="M3.62 15.94 C2.06 21.93, -0.05 29.19, -0.19 35.01 M3.29 17.09 C1.82 22.6, -0.5 30.05, -0.81 34.03" stroke="#c9d1d9" stroke-width="2" fill="none"></path></g></g><g stroke-linecap="round"><g transform="translate(320 215) rotate(0 0 17.5)"><path d="M1 1.02 C1.11 6.56, 0.83 28.68, 0.53 34.19 M0.07 0.51 C0.08 6.1, -0.4 29.56, -0.15 35.31" stroke="#c9d1d9" stroke-width="2" fill="none"></path></g><g transform="translate(320 215) rotate(0 0 17.5)"><path d="M-4.76 19.67 C-5.53 22.36, -3.88 27.45, -0.92 35.56 M-6.37 18.33 C-5.71 21.93, -4.12 26.42, 0 34.6" stroke="#c9d1d9" stroke-width="2" fill="none"></path></g><g transform="translate(320 215) rotate(0 0 17.5)"><path d="M7.21 19.59 C2.98 22.39, 1.18 27.52, -0.92 35.56 M5.6 18.25 C3.84 21.79, 3.03 26.29, 0 34.6" stroke="#c9d1d9" stroke-width="2" fill="none"></path></g></g><g stroke-linecap="round"><g transform="translate(370 215) rotate(0 0 17.5)"><path d="M0.88 0.33 C0.97 6.14, -0.29 30.15, -0.59 35.86 M-0.11 -0.55 C0.47 4.85, 1.55 28.16, 1.81 34.18" stroke="#c9d1d9" stroke-width="2" fill="none"></path></g><g transform="translate(370 215) rotate(0 0 17.5)"><path d="M-4.45 17.17 C-2.16 19.93, -2.68 25.18, 1.07 34.09 M-5.62 17.73 C-4.22 21.86, -1.76 25.3, 1.9 34.3" stroke="#c9d1d9" stroke-width="2" fill="none"></path></g><g transform="translate(370 215) rotate(0 0 17.5)"><path d="M7.51 16.62 C7.34 19.58, 4.36 24.95, 1.07 34.09 M6.34 17.18 C5.11 21.44, 4.95 25, 1.9 34.3" stroke="#c9d1d9" stroke-width="2" fill="none"></path></g></g><g stroke-linecap="round" transform="translate(60 260) rotate(0 180 30)"><path d="M-1.83 -0.98 L359.95 0.17 L361.14 60.48 L-1.95 61.6" stroke="none" stroke-width="0" fill="#4a1219"></path><path d="M0.04 0.73 C131.9 1.36, 263.29 0.17, 359.1 -0.26 M-0.15 -0.4 C134.13 1.62, 269.83 1.8, 359.53 -0.5 M361.79 0.92 C359.03 18.7, 361.8 40.39, 359.05 58.32 M359.03 -0.5 C361.17 20.15, 361.23 40.31, 359.29 60.81 M359.14 60.32 C231.11 61.69, 104.51 61.04, 1.21 59.07 M360.13 60.16 C254.12 57.86, 148.3 58.78, -0.12 59.84 M-0.2 60.58 C2.12 42.26, 1.93 25.09, 0.8 -0.74 M-0.75 59.43 C-0.57 35.51, -0.57 13.37, 0.88 0.49" stroke="#f85149" stroke-width="2" fill="none"></path></g><g transform="translate(144.16509246826172 271.25) rotate(0 95.83490753173828 18.75)"><text x="95.83490753173828" y="NaN" font-family="Virgil, Segoe UI Emoji" font-size="15px" fill="#ffffff" text-anchor="middle" style="white-space: pre;" direction="ltr">random gate (1% sampled)</text><text x="95.83490753173828" y="NaN" font-family="Virgil, Segoe UI Emoji" font-size="15px" fill="#ffffff" text-anchor="middle" style="white-space: pre;" direction="ltr">p = 0.01</text></g><g stroke-linecap="round"><g transform="translate(70 330) rotate(0 5 9)"><path d="M0.19 0.39 C1.63 3.43, 7.57 15.92, 9.05 18.9" stroke="#f85149" stroke-width="1.5" fill="none" stroke-dasharray="8 9"></path></g><g transform="translate(70 330) rotate(0 5 9)"><path d="M2 10.92 C4.96 13.32, 6.9 15.92, 9.22 18.45" stroke="#f85149" stroke-width="1.5" fill="none"></path></g><g transform="translate(70 330) rotate(0 5 9)"><path d="M8.34 7.85 C9.19 11.29, 9.01 14.91, 9.22 18.45" stroke="#f85149" stroke-width="1.5" fill="none"></path></g></g><g stroke-linecap="round"><g transform="translate(120 330) rotate(0 5 9)"><path d="M0.38 0.88 C1.83 4, 7.04 15.29, 8.81 18.17" stroke="#f85149" stroke-width="1.5" fill="none" stroke-dasharray="8 9"></path></g><g transform="translate(120 330) rotate(0 5 9)"><path d="M1.94 10.23 C3.66 14.21, 6 15.16, 9.44 18.3" stroke="#f85149" stroke-width="1.5" fill="none"></path></g><g transform="translate(120 330) rotate(0 5 9)"><path d="M8.17 6.95 C7.95 11.96, 8.36 13.93, 9.44 18.3" stroke="#f85149" stroke-width="1.5" fill="none"></path></g></g><g stroke-linecap="round"><g transform="translate(170 330) rotate(0 5 9)"><path d="M0.35 -1.09 C2.01 1.74, 8.17 14.78, 9.59 17.89" stroke="#f85149" stroke-width="1.5" fill="none" stroke-dasharray="8 9"></path></g><g transform="translate(170 330) rotate(0 5 9)"><path d="M1.36 10.26 C4.22 11.55, 5.91 15.01, 10.1 17.63" stroke="#f85149" stroke-width="1.5" fill="none"></path></g><g transform="translate(170 330) rotate(0 5 9)"><path d="M7.75 7.28 C8.91 9.39, 8.88 13.65, 10.1 17.63" stroke="#f85149" stroke-width="1.5" fill="none"></path></g></g><g stroke-linecap="round"><g transform="translate(220 330) rotate(0 0 17.5)"><path d="M-0.38 -0.78 C-0.19 5.14, 0.99 29.42, 0.97 35.2 M1.62 1.42 C1.75 6.99, 1.05 27.65, 0.53 33.18" stroke="#3fb950" stroke-width="3" fill="none"></path></g><g transform="translate(220 330) rotate(0 0 17.5)"><path d="M-5.61 17.82 C-2.8 20.5, -3.28 24.43, 1.69 34.17 M-5.3 16.76 C-2.83 20.58, -2.93 23.56, 0.51 33.24" stroke="#3fb950" stroke-width="3" fill="none"></path></g><g transform="translate(220 330) rotate(0 0 17.5)"><path d="M6.34 18.53 C5.74 20.97, 1.84 24.7, 1.69 34.17 M6.65 17.47 C6.44 21.12, 3.66 23.94, 0.51 33.24" stroke="#3fb950" stroke-width="3" fill="none"></path></g></g><g stroke-linecap="round"><g transform="translate(270 330) rotate(0 5 9)"><path d="M-0.78 -0.79 C0.96 2, 9.09 14.16, 10.87 17.23" stroke="#f85149" stroke-width="1.5" fill="none" stroke-dasharray="8 9"></path></g><g transform="translate(270 330) rotate(0 5 9)"><path d="M2.06 11.67 C4.83 13.02, 7.92 14.33, 11.73 18.13" stroke="#f85149" stroke-width="1.5" fill="none"></path></g><g transform="translate(270 330) rotate(0 5 9)"><path d="M8.01 7.92 C8.8 10.49, 9.89 13.06, 11.73 18.13" stroke="#f85149" stroke-width="1.5" fill="none"></path></g></g><g stroke-linecap="round"><g transform="translate(320 330) rotate(0 5 9)"><path d="M0.28 -0.55 C1.94 2.77, 7.64 15.89, 9.31 19.17" stroke="#f85149" stroke-width="1.5" fill="none" stroke-dasharray="8 9"></path></g><g transform="translate(320 330) rotate(0 5 9)"><path d="M1.55 11.31 C4.77 13.95, 6.53 14.71, 8.7 18.52" stroke="#f85149" stroke-width="1.5" fill="none"></path></g><g transform="translate(320 330) rotate(0 5 9)"><path d="M7.93 8.32 C9.56 11.71, 9.77 13.2, 8.7 18.52" stroke="#f85149" stroke-width="1.5" fill="none"></path></g></g><g stroke-linecap="round"><g transform="translate(370 330) rotate(0 5 9)"><path d="M-0.87 -0.93 C0.56 2.05, 7.2 15.76, 9 18.76" stroke="#f85149" stroke-width="1.5" fill="none" stroke-dasharray="8 9"></path></g><g transform="translate(370 330) rotate(0 5 9)"><path d="M0.56 11 C4.64 14.18, 5.78 16.57, 8.96 18.98" stroke="#f85149" stroke-width="1.5" fill="none"></path></g><g transform="translate(370 330) rotate(0 5 9)"><path d="M6.79 7.7 C8.79 11.95, 7.83 15.45, 8.96 18.98" stroke="#f85149" stroke-width="1.5" fill="none"></path></g></g><g transform="translate(40 380) rotate(0 108.80240631103516 9.375)"><text x="0" y="NaN" font-family="Virgil, Segoe UI Emoji" font-size="15px" fill="#3fb950" text-anchor="start" style="white-space: pre;" direction="ltr">kept:  ~10K traces / s  (1%)</text></g><g transform="translate(40 404) rotate(0 66.21292877197266 8.75)"><text x="0" y="NaN" font-family="Virgil, Segoe UI Emoji" font-size="14px" fill="#f85149" text-anchor="start" style="white-space: pre;" direction="ltr">dropped:  990K / s</text></g><g stroke-linecap="round" transform="translate(30 485) rotate(0 210 55)"><path d="M1.71 1.37 L421.05 1.89 L421.01 108.18 L0.58 108.96" stroke="none" stroke-width="0" fill="#161b22"></path><path d="M0.37 -0.72 C139.8 -2.04, 278.5 -0.76, 419.22 -0.28 M-0.4 -0.51 C165.91 -0.49, 332.29 -0.38, 420.27 0.44 M420.01 1.16 C418.04 35.3, 420.34 75.93, 419.09 109.38 M419.49 -0.14 C417.94 40.49, 419.06 78.34, 420.29 109.44 M420.41 110.77 C331.13 110.56, 244.04 110.55, -0.84 109.4 M420.14 109.88 C321.58 107.48, 222.84 107.62, 0.26 110.29 M0.47 110.09 C0.36 77.49, -0.22 48.08, -1.35 1.81 M0.91 110.54 C0.33 76.51, 0.32 43.97, -0.79 -0.02" stroke="#58a6ff" stroke-width="2" fill="none"></path></g><g transform="translate(42 493) rotate(0 39.955963134765625 8.75)"><text x="0" y="NaN" font-family="Virgil, Segoe UI Emoji" font-size="14px" fill="#e6edf3" text-anchor="start" style="white-space: pre;" direction="ltr">TRADEOFF:</text></g><g transform="translate(42 515) rotate(0 129.1678466796875 8.125)"><text x="0" y="NaN" font-family="Virgil, Segoe UI Emoji" font-size="13px" fill="#3fb950" text-anchor="start" style="white-space: pre;" direction="ltr">+ cheap, stateless, per-request decision</text></g><g transform="translate(42 537) rotate(0 166.60784912109375 8.125)"><text x="0" y="NaN" font-family="Virgil, Segoe UI Emoji" font-size="13px" fill="#f85149" text-anchor="start" style="white-space: pre;" direction="ltr">- BLIND: drops errors at the same rate as normal</text></g><g transform="translate(42 561) rotate(0 134.65383911132812 8.125)"><text x="0" y="NaN" font-family="Virgil, Segoe UI Emoji" font-size="13px" fill="#f85149" text-anchor="start" style="white-space: pre;" direction="ltr">- rare-bug requests almost never sampled</text></g><g stroke-linecap="round" transform="translate(494 95) rotate(0 230 260)"><path d="M0.22 -1.86 L461.99 -0.78 L461.8 519.99 L-1.06 521.51" stroke="none" stroke-width="0" fill="#161b22"></path><path d="M0.88 -0.67 C125.59 -0.02, 251.4 0.37, 460.19 0.07 M459.71 -0.69 C458.12 194.79, 458.76 390.46, 460.15 520.08 M460.09 519.93 C309.52 521.65, 158.72 521.11, -0.88 520.27 M-0.18 519.84 C-0.19 364.44, -1.26 208.21, 0.3 0.02" stroke="#30363d" stroke-width="2.5" fill="none" stroke-dasharray="8 10"></path></g><g stroke-linecap="round" transform="translate(514 115) rotate(0 210 28)"><path d="M-0.33 -1.62 L419.31 -0.21 L421.96 57.54 L-1.57 57.23" stroke="none" stroke-width="0" fill="#3a5d1d"></path><path d="M0.77 -0.95 C132.3 1.66, 265.52 1.38, 419.76 0.16 M-0.23 0.31 C158.06 -1.05, 317.36 -1.51, 420.11 -0.5 M418.86 1.66 C419.06 18.56, 420.12 37.05, 420.86 56.32 M419.18 0.24 C420.14 20.46, 420.58 39.49, 420.63 55.45 M419.83 56.81 C324.92 58.13, 230.81 57.56, 0.12 56.16 M419.6 55.98 C260.14 55.28, 100.87 55.3, 0.36 56.3 M-0.05 55.59 C-1.92 36.99, 1.24 21.59, 0.68 -1.6 M-0.41 55.67 C0.91 42.7, 0.67 27.77, 0.2 -0.4" stroke="#6dbf3a" stroke-width="2" fill="none"></path></g><g transform="translate(561.1976623535156 124.25) rotate(0 162.80233764648438 18.75)"><text x="162.80233764648438" y="NaN" font-family="Virgil, Segoe UI Emoji" font-size="15px" fill="#ffffff" text-anchor="middle" style="white-space: pre;" direction="ltr">TAIL-BASED</text><text x="162.80233764648438" y="NaN" font-family="Virgil, Segoe UI Emoji" font-size="15px" fill="#ffffff" text-anchor="middle" style="white-space: pre;" direction="ltr">buffer all, decide AFTER request completes</text></g><g transform="translate(524 190) rotate(0 140.16087341308594 8.75)"><text x="0" y="NaN" font-family="Virgil, Segoe UI Emoji" font-size="14px" fill="#8b949e" text-anchor="start" style="white-space: pre;" direction="ltr">1M req / s entering  (NONE dropped yet)</text></g><g stroke-linecap="round"><g transform="translate(554 215) rotate(0 0 17.5)"><path d="M0.73 0.45 C0.78 6.23, 1.3 29.49, 0.99 35.21 M-0.35 -0.35 C-0.42 4.98, 0.31 27.15, 0.56 33.2" stroke="#c9d1d9" stroke-width="2" fill="none"></path></g><g transform="translate(554 215) rotate(0 0 17.5)"><path d="M-5.35 18.41 C-3.31 20.97, -1.65 26.74, -0.29 31.98 M-6.44 16.27 C-2.99 22.91, -0.94 29.03, -0.29 32.43" stroke="#c9d1d9" stroke-width="2" fill="none"></path></g><g transform="translate(554 215) rotate(0 0 17.5)"><path d="M6.61 17.99 C4.43 20.76, 1.86 26.69, -0.29 31.98 M5.52 15.85 C4.36 22.71, 1.8 28.99, -0.29 32.43" stroke="#c9d1d9" stroke-width="2" fill="none"></path></g></g><g stroke-linecap="round"><g transform="translate(604 215) rotate(0 0 17.5)"><path d="M0.09 0.02 C0.24 6.06, 0.69 29.93, 0.87 35.77 M-1.32 -1.02 C-1.26 4.73, -0.01 27.82, 0.37 34.05" stroke="#c9d1d9" stroke-width="2" fill="none"></path></g><g transform="translate(604 215) rotate(0 0 17.5)"><path d="M-6.51 19.24 C-3.42 24.46, -2.4 29.14, 0.19 33.76 M-7 18.51 C-3.87 22.12, -2.1 27.32, -0.28 34.35" stroke="#c9d1d9" stroke-width="2" fill="none"></path></g><g transform="translate(604 215) rotate(0 0 17.5)"><path d="M5.44 18.56 C4.96 23.99, 2.4 28.87, 0.19 33.76 M4.95 17.84 C4.73 21.64, 3.15 27.04, -0.28 34.35" stroke="#c9d1d9" stroke-width="2" fill="none"></path></g></g><g stroke-linecap="round"><g transform="translate(654 215) rotate(0 0 17.5)"><path d="M-0.42 -1.04 C-0.81 4.54, -1.32 28.5, -1.18 34.59 M1.57 1.03 C1.42 7.29, 1.2 30.51, 0.91 35.91" stroke="#c9d1d9" stroke-width="2" fill="none"></path></g><g transform="translate(654 215) rotate(0 0 17.5)"><path d="M-6.14 17.57 C-2.87 26.5, 0.64 33.12, 0.64 35.32 M-5.21 18.55 C-2.84 24.19, -2.12 27.2, 0.7 36.22" stroke="#c9d1d9" stroke-width="2" fill="none"></path></g><g transform="translate(654 215) rotate(0 0 17.5)"><path d="M5.83 17.91 C4.32 26.66, 3.06 33.14, 0.64 35.32 M6.76 18.88 C6.04 24.54, 3.68 27.46, 0.7 36.22" stroke="#c9d1d9" stroke-width="2" fill="none"></path></g></g><g stroke-linecap="round"><g transform="translate(704 215) rotate(0 0 17.5)"><path d="M0.98 0.93 C0.81 6.73, -1.01 30.05, -0.99 35.86 M0.04 0.38 C0.23 6.36, 1.06 28.61, 1.2 34.19" stroke="#c9d1d9" stroke-width="2" fill="none"></path></g><g transform="translate(704 215) rotate(0 0 17.5)"><path d="M-3.95 16.5 C-1.93 24.39, -0.06 26.93, 0.23 35.78 M-4.81 18.41 C-2.28 24.29, 0.36 30.18, 0.68 34.53" stroke="#c9d1d9" stroke-width="2" fill="none"></path></g><g transform="translate(704 215) rotate(0 0 17.5)"><path d="M8.02 16.12 C6.41 24.22, 4.67 26.87, 0.23 35.78 M7.15 18.02 C5.23 24.05, 3.41 30.08, 0.68 34.53" stroke="#c9d1d9" stroke-width="2" fill="none"></path></g></g><g stroke-linecap="round"><g transform="translate(754 215) rotate(0 0 17.5)"><path d="M0.19 0.04 C0.32 5.7, -0.1 28.09, -0.19 34.11 M-1.17 -0.99 C-1.13 4.79, -1.22 29.27, -1.23 35.18" stroke="#c9d1d9" stroke-width="2" fill="none"></path></g><g transform="translate(754 215) rotate(0 0 17.5)"><path d="M-7.12 18.45 C-7.15 21.86, -2.82 25.19, -0.06 36.63 M-6.74 19.38 C-6.25 23.62, -4.89 27.77, -1.73 35.38" stroke="#c9d1d9" stroke-width="2" fill="none"></path></g><g transform="translate(754 215) rotate(0 0 17.5)"><path d="M4.85 18.48 C2.2 21.9, 3.9 25.23, -0.06 36.63 M5.23 19.42 C2.62 23.7, 0.88 27.84, -1.73 35.38" stroke="#c9d1d9" stroke-width="2" fill="none"></path></g></g><g stroke-linecap="round"><g transform="translate(804 215) rotate(0 0 17.5)"><path d="M1.2 0.37 C1.51 6.19, 1.38 28.32, 1.13 34.19 M0.36 -0.48 C0.68 5.54, 1.04 29.63, 0.78 35.31" stroke="#c9d1d9" stroke-width="2" fill="none"></path></g><g transform="translate(804 215) rotate(0 0 17.5)"><path d="M-4.51 20.46 C-4.94 22.23, -1.51 25.25, 1.61 33.58 M-4.67 18.24 C-3.3 23.08, -1.3 27.97, 1.39 35.88" stroke="#c9d1d9" stroke-width="2" fill="none"></path></g><g transform="translate(804 215) rotate(0 0 17.5)"><path d="M7.46 20.58 C4.19 22.43, 4.77 25.43, 1.61 33.58 M7.3 18.36 C5.63 23.12, 4.6 27.98, 1.39 35.88" stroke="#c9d1d9" stroke-width="2" fill="none"></path></g></g><g stroke-linecap="round"><g transform="translate(854 215) rotate(0 0 17.5)"><path d="M0.05 -0.54 C-0.19 5.44, -0.53 29.38, -0.4 35.48 M-1.39 1.79 C-1.91 7.44, -1.87 28.19, -1.55 33.61" stroke="#c9d1d9" stroke-width="2" fill="none"></path></g><g transform="translate(854 215) rotate(0 0 17.5)"><path d="M-8.73 16.74 C-4.83 24.81, -1.49 30.85, -2.09 33.95 M-7.44 16.45 C-5.97 22.81, -3.44 27.57, -2.08 33.35" stroke="#c9d1d9" stroke-width="2" fill="none"></path></g><g transform="translate(854 215) rotate(0 0 17.5)"><path d="M3.24 16.44 C2.51 24.64, 1.22 30.79, -2.09 33.95 M4.53 16.15 C1.9 22.7, 0.34 27.56, -2.08 33.35" stroke="#c9d1d9" stroke-width="2" fill="none"></path></g></g><g stroke-linecap="round" transform="translate(524 260) rotate(0 200 40)"><path d="M-0.46 -1.93 L400.7 0.48 L401.24 79.29 L1.27 79.17" stroke="none" stroke-width="0" fill="#5c3a10"></path><path d="M-0.23 0.29 C152.2 -0.38, 307.01 0.13, 400.32 -0.39 M-0.37 0 C94.18 0.65, 187.46 0.93, 399.49 0.42 M399.99 -1.26 C401.86 21.8, 398.83 42.84, 398.85 80.32 M400.19 -0.08 C399.79 25.51, 400.28 50.2, 399.51 79.86 M400.09 79.48 C260.09 81.29, 118.93 80.32, -0.55 79.73 M400.15 79.56 C249.85 81.61, 99.48 81.93, 0.55 79.48 M0.67 81.57 C-1.36 54.4, -1.48 24.84, -0.51 -0.49 M0.65 79.92 C0.29 62.66, 0.78 43.86, 0.75 -0.92" stroke="#f0883e" stroke-width="2" fill="none"></path></g><g transform="translate(539 268) rotate(0 148.16885375976562 8.75)"><text x="0" y="NaN" font-family="Virgil, Segoe UI Emoji" font-size="14px" fill="#e6edf3" text-anchor="start" style="white-space: pre;" direction="ltr">Trace buffer  (holds full spans for ~30s)</text></g><g transform="translate(539 296) rotate(0 147.2443389892578 8.125)"><text x="0" y="NaN" font-family="Virgil, Segoe UI Emoji" font-size="13px" fill="#8b949e" text-anchor="start" style="white-space: pre;" direction="ltr">memory &amp; latency cost - this is the price tag</text></g><g stroke-linecap="round"><g transform="translate(594 355) rotate(0 0 15)"><path d="M0.97 1.05 C0.95 6.04, 0.57 25.84, 0.51 30.52 M0.03 0.55 C-0.17 5.14, -0.2 23.77, -0.17 28.66" stroke="#f85149" stroke-width="3" fill="none"></path></g><g transform="translate(594 355) rotate(0 0 15)"><path d="M-4.01 15.22 C-2.78 20.34, -2.75 23.52, -1.48 29.81 M-5.74 15.26 C-3.65 19.67, -2.05 24.43, -0.71 28.79" stroke="#f85149" stroke-width="3" fill="none"></path></g><g transform="translate(594 355) rotate(0 0 15)"><path d="M6.25 15.2 C3.84 20.41, 0.24 23.6, -1.48 29.81 M4.52 15.25 C3.08 19.64, 1.16 24.41, -0.71 28.79" stroke="#f85149" stroke-width="3" fill="none"></path></g></g><g transform="translate(577.2630233764648 391) rotate(0 16.736976623535156 8.75)"><text x="16.736976623535156" y="NaN" font-family="Virgil, Segoe UI Emoji" font-size="14px" fill="#f85149" text-anchor="middle" style="white-space: pre;" direction="ltr">error</text></g><g transform="translate(578.4840087890625 411) rotate(0 15.5159912109375 7.5)"><text x="15.5159912109375" y="NaN" font-family="Virgil, Segoe UI Emoji" font-size="12px" fill="#f85149" text-anchor="middle" style="white-space: pre;" direction="ltr">100%</text></g><g transform="translate(574.3560180664062 429) rotate(0 19.64398193359375 7.5)"><text x="19.64398193359375" y="NaN" font-family="Virgil, Segoe UI Emoji" font-size="12px" fill="#8b949e" text-anchor="middle" style="white-space: pre;" direction="ltr">5K / s</text></g><g stroke-linecap="round"><g transform="translate(714 355) rotate(0 0 15)"><path d="M0.21 -0.42 C0.35 4.68, -0.08 25.48, 0.06 30.54 M-1.14 -1.69 C-1.09 3.06, -1.19 23.21, -0.86 28.7" stroke="#f0883e" stroke-width="3" fill="none"></path></g><g transform="translate(714 355) rotate(0 0 15)"><path d="M-6.86 14.8 C-4.37 19.32, -3.81 20.66, 0.6 27.34 M-6.57 14.4 C-4.5 18.23, -3.08 21.44, -1.27 28.3" stroke="#f0883e" stroke-width="3" fill="none"></path></g><g transform="translate(714 355) rotate(0 0 15)"><path d="M3.4 14.55 C3.46 19.16, 1.59 20.55, 0.6 27.34 M3.69 14.16 C3.28 18.08, 2.21 21.34, -1.27 28.3" stroke="#f0883e" stroke-width="3" fill="none"></path></g></g><g transform="translate(700.2170181274414 391) rotate(0 13.782981872558594 8.75)"><text x="13.782981872558594" y="NaN" font-family="Virgil, Segoe UI Emoji" font-size="14px" fill="#f0883e" text-anchor="middle" style="white-space: pre;" direction="ltr">slow</text></g><g transform="translate(698.4840087890625 411) rotate(0 15.5159912109375 7.5)"><text x="15.5159912109375" y="NaN" font-family="Virgil, Segoe UI Emoji" font-size="12px" fill="#f0883e" text-anchor="middle" style="white-space: pre;" direction="ltr">100%</text></g><g transform="translate(694.3560180664062 429) rotate(0 19.64398193359375 7.5)"><text x="19.64398193359375" y="NaN" font-family="Virgil, Segoe UI Emoji" font-size="12px" fill="#8b949e" text-anchor="middle" style="white-space: pre;" direction="ltr">5K / s</text></g><g stroke-linecap="round"><g transform="translate(834 355) rotate(0 0 15)"><path d="M-0.76 -1.06 C-0.88 4.22, -0.67 25.69, -0.49 31.01 M1.05 0.99 C0.69 6.02, -1.47 24.76, -1.7 29.41" stroke="#c9d1d9" stroke-width="3" fill="none"></path></g><g transform="translate(834 355) rotate(0 0 15)"><path d="M-6.93 14.31 C-3.17 20, -2.13 25.76, -2.64 28.59 M-5.89 14.26 C-5.3 17.88, -3.53 22.03, -1.51 28.85" stroke="#c9d1d9" stroke-width="3" fill="none"></path></g><g transform="translate(834 355) rotate(0 0 15)"><path d="M3.3 15.19 C3.76 20.54, 1.5 26.01, -2.64 28.59 M4.33 15.14 C2.52 18.56, 1.89 22.5, -1.51 28.85" stroke="#c9d1d9" stroke-width="3" fill="none"></path></g></g><g transform="translate(812.9020156860352 391) rotate(0 21.097984313964844 8.75)"><text x="21.097984313964844" y="NaN" font-family="Virgil, Segoe UI Emoji" font-size="14px" fill="#c9d1d9" text-anchor="middle" style="white-space: pre;" direction="ltr">normal</text></g><g transform="translate(820.9680099487305 411) rotate(0 13.031990051269531 7.5)"><text x="13.031990051269531" y="NaN" font-family="Virgil, Segoe UI Emoji" font-size="12px" fill="#c9d1d9" text-anchor="middle" style="white-space: pre;" direction="ltr">0.1%</text></g><g transform="translate(816.4380111694336 429) rotate(0 17.561988830566406 7.5)"><text x="17.561988830566406" y="NaN" font-family="Virgil, Segoe UI Emoji" font-size="12px" fill="#8b949e" text-anchor="middle" style="white-space: pre;" direction="ltr">1K / s</text></g><g transform="translate(524 455) rotate(0 165.98385620117188 8.75)"><text x="0" y="NaN" font-family="Virgil, Segoe UI Emoji" font-size="14px" fill="#3fb950" text-anchor="start" style="white-space: pre;" direction="ltr">kept:  ~11K / s  (errors + slow + 0.1% baseline)</text></g><g stroke-linecap="round" transform="translate(514 485) rotate(0 210 55)"><path d="M-0.45 0.52 L421.74 -0.29 L421.32 111.12 L-1.54 110.75" stroke="none" stroke-width="0" fill="#161b22"></path><path d="M0.76 -0.07 C137.83 1.19, 276.35 2.94, 420.65 -0.32 M-0.32 -0.27 C148.96 1.57, 298.05 1.35, 420.05 0.36 M419.55 0.93 C417.67 37.83, 417.57 78.92, 418.46 109.19 M419.25 -0.65 C420.18 36.76, 420.6 74.06, 419.91 109.12 M421.05 109.88 C257.43 110.49, 93.08 110.04, 0.54 108.97 M419.73 110.21 C306.22 108.41, 192.22 107.66, -0.42 109.8 M0.89 111.91 C-1.19 82.67, 0.35 57.61, 1.4 1.14 M-0.5 110.06 C0.16 78.17, 0.32 45.75, -0.07 0.81" stroke="#6dbf3a" stroke-width="2" fill="none"></path></g><g transform="translate(526 493) rotate(0 39.955963134765625 8.75)"><text x="0" y="NaN" font-family="Virgil, Segoe UI Emoji" font-size="14px" fill="#e6edf3" text-anchor="start" style="white-space: pre;" direction="ltr">TRADEOFF:</text></g><g transform="translate(526 515) rotate(0 181.94137573242188 8.125)"><text x="0" y="NaN" font-family="Virgil, Segoe UI Emoji" font-size="13px" fill="#3fb950" text-anchor="start" style="white-space: pre;" direction="ltr">+ keeps 100% of errors / slow - exactly what you want</text></g><g transform="translate(526 537) rotate(0 168.4538116455078 8.125)"><text x="0" y="NaN" font-family="Virgil, Segoe UI Emoji" font-size="13px" fill="#f85149" text-anchor="start" style="white-space: pre;" direction="ltr">- needs memory (full spans buffered until completion)</text></g><g transform="translate(526 561) rotate(0 162.34381103515625 8.125)"><text x="0" y="NaN" font-family="Virgil, Segoe UI Emoji" font-size="13px" fill="#f85149" text-anchor="start" style="white-space: pre;" direction="ltr">- adds pipeline latency, needs a buffering collector</text></g><g stroke-linecap="round" transform="translate(978 95) rotate(0 230 260)"><path d="M-1 0.88 L458.18 -1.58 L461.14 521.05 L0.89 520.86" stroke="none" stroke-width="0" fill="#161b22"></path><path d="M0.41 0.31 C175.73 1.42, 351.05 1.04, 459.23 -0.25 M460.79 -0.65 C459.66 147.12, 459.03 292.25, 460.16 519.8 M459.76 520.13 C277.65 520.36, 95.12 521.29, -0.52 519.44 M0.1 520.67 C-0.33 373.08, 0.58 227.95, 0.06 -0.76" stroke="#30363d" stroke-width="2.5" fill="none" stroke-dasharray="8 10"></path></g><g stroke-linecap="round" transform="translate(998 115) rotate(0 210 28)"><path d="M-1.79 -0.68 L419.05 1.54 L420.32 54.1 L1.92 55.43" stroke="none" stroke-width="0" fill="#1f4d2b"></path><path d="M-0.47 -0.62 C153.92 1.02, 307.59 1.34, 420.9 0.32 M-0.37 -0.06 C110.39 0.63, 220.09 0.15, 420.1 0.23 M421.87 0.08 C420.27 17.27, 419.91 34.79, 418.19 57.79 M420.22 -0.64 C420.95 12.5, 420.55 26.56, 420.52 56.28 M419.3 55.45 C331.59 55.07, 242.14 54.33, -0.93 56.52 M420.13 55.77 C275.88 55.52, 131.79 55.12, -0.14 55.98 M-0.02 57.3 C2.22 43.69, 2.36 30.04, -0.35 -1.33 M0.66 56.76 C-0.54 36.31, -0.33 15.64, 0.85 -0.29" stroke="#3fb950" stroke-width="2" fill="none"></path></g><g transform="translate(1054.6321105957031 123) rotate(0 153.36788940429688 20)"><text x="153.36788940429688" y="NaN" font-family="Virgil, Segoe UI Emoji" font-size="16px" fill="#ffffff" text-anchor="middle" style="white-space: pre;" direction="ltr">ADAPTIVE</text><text x="153.36788940429688" y="NaN" font-family="Virgil, Segoe UI Emoji" font-size="16px" fill="#ffffff" text-anchor="middle" style="white-space: pre;" direction="ltr">rate auto-scales with per-service load</text></g><g transform="translate(1008 190) rotate(0 123.04588317871094 8.75)"><text x="0" y="NaN" font-family="Virgil, Segoe UI Emoji" font-size="14px" fill="#8b949e" text-anchor="start" style="white-space: pre;" direction="ltr">per-service rate balances coverage:</text></g><g stroke-linecap="round" transform="translate(1008 220) rotate(0 80 25)"><path d="M1.15 0.82 L159.17 -1.74 L161.03 50.2 L0.37 50.8" stroke="none" stroke-width="0" fill="#3a1d6e"></path><path d="M1.41 -0.55 C45.74 1.15, 93.14 2.38, 161.96 -0.07 M-0.49 0.11 C50.57 -1.58, 101.69 -1.15, 159.99 0.32 M160.81 -1.08 C159.46 15.56, 161.37 29.43, 160.2 51.46 M159.61 -0.58 C161.01 15.44, 160 31.48, 160.84 50.3 M161.7 49.99 C102.52 48.06, 45.93 50.13, 1.98 49.14 M160.24 49.41 C111.65 49.58, 65.74 49.91, -0.68 51 M1.78 49.5 C-1.84 31.54, -1.07 15.96, -1.87 0.93 M0.84 49.32 C0.71 30.92, 0.2 9.73, -0.34 0.72" stroke="#a371f7" stroke-width="2" fill="none"></path></g><g transform="translate(1037.1800537109375 236.25) rotate(0 50.8199462890625 8.75)"><text x="50.8199462890625" y="NaN" font-family="Virgil, Segoe UI Emoji" font-size="14px" fill="#ffffff" text-anchor="middle" style="white-space: pre;" direction="ltr">low-traffic svc</text></g><g transform="translate(1173 224) rotate(0 39.916473388671875 8.125)"><text x="0" y="NaN" font-family="Virgil, Segoe UI Emoji" font-size="13px" fill="#8b949e" text-anchor="start" style="white-space: pre;" direction="ltr">in: 100 req/s</text></g><g stroke-linecap="round" transform="translate(1248 228) rotate(0 18 18)"><path d="M21.29 0.82 C25.03 1.56, 30.5 4.95, 32.97 7.83 C35.44 10.72, 36.49 14.45, 36.09 18.13 C35.69 21.8, 33.26 27.08, 30.58 29.89 C27.89 32.7, 23.79 34.52, 20 34.97 C16.21 35.42, 10.94 34.61, 7.85 32.6 C4.76 30.58, 2.66 26.4, 1.44 22.87 C0.23 19.34, -0.88 14.97, 0.55 11.4 C1.98 7.83, 6.04 3.1, 10.03 1.43 C14.03 -0.25, 21.56 0.88, 24.49 1.35 C27.43 1.82, 27.54 3.92, 27.63 4.24 M11.62 0.17 C15.13 -1.29, 20.39 -0.75, 24.04 1.08 C27.69 2.9, 31.43 7.83, 33.54 11.1 C35.65 14.37, 37.35 17.3, 36.71 20.7 C36.06 24.09, 32.82 28.79, 29.67 31.47 C26.51 34.16, 21.55 36.96, 17.78 36.79 C14 36.63, 9.68 33.02, 6.99 30.47 C4.3 27.92, 2.17 25, 1.62 21.49 C1.07 17.98, 1.96 12.68, 3.69 9.4 C5.41 6.12, 10.54 3.38, 11.98 1.82 C13.41 0.26, 11.95 -0.02, 12.29 0.05" stroke="none" stroke-width="0" fill="#5c3a10"></path><path d="M18.76 -0.05 C22.64 -0.06, 27.54 2.5, 30.46 5.16 C33.38 7.81, 35.78 12.27, 36.3 15.88 C36.82 19.49, 35.74 23.54, 33.59 26.81 C31.43 30.09, 27.11 34.28, 23.37 35.53 C19.64 36.77, 14.55 35.88, 11.17 34.29 C7.79 32.69, 4.88 29.15, 3.09 25.95 C1.31 22.75, -0.04 18.69, 0.45 15.09 C0.95 11.49, 2.78 7.02, 6.05 4.38 C9.31 1.74, 17.5 -0.25, 20.04 -0.76 C22.57 -1.26, 21.26 0.81, 21.25 1.35 M23.55 -0.53 C26.83 0.07, 30.49 4.31, 32.67 7.97 C34.86 11.63, 37.13 17.49, 36.65 21.45 C36.18 25.4, 32.88 29.41, 29.81 31.71 C26.74 34.02, 22.06 35.29, 18.23 35.26 C14.41 35.23, 9.6 33.84, 6.87 31.55 C4.14 29.26, 2.62 25.33, 1.87 21.49 C1.12 17.66, 1.03 12.15, 2.34 8.55 C3.65 4.95, 6.37 1.37, 9.72 -0.12 C13.07 -1.6, 20.08 -0.45, 22.45 -0.38 C24.81 -0.31, 24 -0.2, 23.89 0.29" stroke="#f0883e" stroke-width="2" fill="none"></path></g><g transform="translate(1251.7770156860352 236) rotate(0 14.222984313964844 6.875)"><text x="14.222984313964844" y="NaN" font-family="Virgil, Segoe UI Emoji" font-size="11px" fill="#e6edf3" text-anchor="middle" style="white-space: pre;" direction="ltr">100%</text></g><g stroke-linecap="round"><g transform="translate(1286 245) rotate(0 26 0)"><path d="M0.93 1.11 C9.43 1.11, 43.48 -0.58, 51.85 -0.77 M-0.04 0.65 C8.21 0.85, 41.88 0.25, 50.83 0.36" stroke="#3fb950" stroke-width="2" fill="none"></path></g><g transform="translate(1286 245) rotate(0 26 0)"><path d="M28.29 9.11 C34.33 4.45, 44.71 2.42, 51.97 -1.59 M27.43 9.38 C31.18 7.59, 36.54 4.96, 51.39 0.44" stroke="#3fb950" stroke-width="2" fill="none"></path></g><g transform="translate(1286 245) rotate(0 26 0)"><path d="M28.22 -8.68 C34.17 -6.69, 44.58 -2.06, 51.97 -1.59 M27.36 -8.41 C31.03 -6.35, 36.41 -5.14, 51.39 0.44" stroke="#3fb950" stroke-width="2" fill="none"></path></g></g><g transform="translate(1343 234) rotate(0 18.829978942871094 8.75)"><text x="0" y="NaN" font-family="Virgil, Segoe UI Emoji" font-size="14px" fill="#3fb950" text-anchor="start" style="white-space: pre;" direction="ltr">100/s</text></g><g stroke-linecap="round" transform="translate(1008 290) rotate(0 80 25)"><path d="M1.2 1.64 L158.14 1.86 L160.69 50.33 L-1.7 48.01" stroke="none" stroke-width="0" fill="#3a1d6e"></path><path d="M0.44 1.62 C50.55 -2.15, 99.29 -0.77, 158.1 -1.66 M-0.05 -0.72 C42.55 -1.07, 85.34 -1.2, 159.85 0.1 M161.09 0.39 C162.08 13.36, 159.29 32.07, 159.68 49.92 M159.13 0.13 C159.97 15.94, 160.46 30.76, 160.4 50.51 M160.39 49.63 C120.25 48.52, 83.42 47.38, 0.02 49.9 M160.28 50.07 C99.54 50.97, 40 50.2, 0.28 50.38 M-1.51 49.96 C-2.04 37.17, -1.45 26.9, -1.92 1.07 M-0.14 50.99 C0.41 36.34, -0.64 23.46, 0.06 -0.99" stroke="#a371f7" stroke-width="2" fill="none"></path></g><g transform="translate(1051.3410263061523 306.25) rotate(0 36.658973693847656 8.75)"><text x="36.658973693847656" y="NaN" font-family="Virgil, Segoe UI Emoji" font-size="14px" fill="#ffffff" text-anchor="middle" style="white-space: pre;" direction="ltr">medium svc</text></g><g transform="translate(1173 294) rotate(0 39.42897033691406 8.125)"><text x="0" y="NaN" font-family="Virgil, Segoe UI Emoji" font-size="13px" fill="#8b949e" text-anchor="start" style="white-space: pre;" direction="ltr">in: 10K req/s</text></g><g stroke-linecap="round" transform="translate(1248 298) rotate(0 18 18)"><path d="M13.62 1.22 C16.91 -0.08, 21.02 0.29, 24.28 1.64 C27.54 2.99, 31.39 5.88, 33.21 9.31 C35.02 12.74, 36.02 18.3, 35.17 22.22 C34.33 26.13, 31.29 30.67, 28.13 32.81 C24.98 34.96, 20.1 35.37, 16.24 35.07 C12.39 34.77, 7.81 33.55, 5 30.99 C2.2 28.43, -0.11 23.42, -0.59 19.7 C-1.07 15.97, -0.41 11.74, 2.12 8.64 C4.65 5.54, 12.39 2.42, 14.6 1.11 C16.81 -0.19, 15.34 0.64, 15.39 0.8 M10.14 0.39 C13.71 -1.38, 19.43 -1.74, 23.23 -0.61 C27.03 0.53, 30.69 3.96, 32.92 7.19 C35.15 10.41, 36.7 14.66, 36.61 18.74 C36.53 22.81, 35.13 28.97, 32.39 31.65 C29.66 34.32, 24.39 34.6, 20.18 34.79 C15.97 34.97, 10.55 34.53, 7.12 32.76 C3.69 30.98, 0.6 27.79, -0.4 24.12 C-1.4 20.45, -0.81 14.33, 1.13 10.76 C3.07 7.2, 9.59 4, 11.23 2.72 C12.87 1.45, 11.15 2.85, 10.99 3.12" stroke="none" stroke-width="0" fill="#5c3a10"></path><path d="M16.28 0.88 C19.82 -0.1, 24.53 0.23, 27.76 2.05 C31 3.87, 34.65 7.88, 35.68 11.81 C36.72 15.73, 35.47 22.03, 33.99 25.63 C32.51 29.22, 30.3 31.6, 26.81 33.36 C23.31 35.13, 16.97 36.94, 13 36.21 C9.03 35.48, 5.03 32.23, 3 29 C0.97 25.77, 0.57 20.68, 0.81 16.83 C1.05 12.98, 1.37 8.85, 4.45 5.9 C7.54 2.95, 16.15 0.04, 19.32 -0.84 C22.48 -1.73, 23.45 0.05, 23.42 0.58 M12.87 1.16 C16.32 0.07, 22.06 1.05, 25.39 2.5 C28.71 3.95, 30.96 6.56, 32.82 9.83 C34.68 13.11, 37.23 18.7, 36.53 22.15 C35.83 25.59, 31.89 28.07, 28.61 30.5 C25.32 32.94, 20.63 36.35, 16.83 36.74 C13.02 37.12, 8.45 35.47, 5.77 32.82 C3.1 30.17, 1.26 24.62, 0.77 20.81 C0.28 17.01, 1.17 13.37, 2.84 10 C4.5 6.62, 9.09 2.17, 10.77 0.56 C12.44 -1.04, 12.79 -0.24, 12.89 0.36" stroke="#f0883e" stroke-width="2" fill="none"></path></g><g transform="translate(1255.5610122680664 306) rotate(0 10.438987731933594 6.875)"><text x="10.438987731933594" y="NaN" font-family="Virgil, Segoe UI Emoji" font-size="11px" fill="#e6edf3" text-anchor="middle" style="white-space: pre;" direction="ltr">10%</text></g><g stroke-linecap="round"><g transform="translate(1286 315) rotate(0 26 0)"><path d="M-0.72 0.08 C7.98 0, 42.42 -0.61, 51.35 -0.68 M1.1 -0.93 C10.28 -0.84, 45.14 0.22, 53.72 0.5" stroke="#3fb950" stroke-width="2" fill="none"></path></g><g transform="translate(1286 315) rotate(0 26 0)"><path d="M29.15 7.54 C33.49 8.39, 39.63 3.24, 53.6 1.94 M28.72 9.57 C35.25 7.07, 42.12 4.47, 53.79 -0.27" stroke="#3fb950" stroke-width="2" fill="none"></path></g><g transform="translate(1286 315) rotate(0 26 0)"><path d="M29.7 -10.23 C33.89 -5.37, 39.9 -6.5, 53.6 1.94 M29.27 -8.2 C35.68 -6.01, 42.4 -3.91, 53.79 -0.27" stroke="#3fb950" stroke-width="2" fill="none"></path></g></g><g transform="translate(1343 304) rotate(0 13.488983154296875 8.75)"><text x="0" y="NaN" font-family="Virgil, Segoe UI Emoji" font-size="14px" fill="#3fb950" text-anchor="start" style="white-space: pre;" direction="ltr">1K/s</text></g><g stroke-linecap="round" transform="translate(1008 360) rotate(0 80 25)"><path d="M-0.45 -0.03 L160.96 -0.59 L158.61 49.38 L0.33 49.6" stroke="none" stroke-width="0" fill="#3a1d6e"></path><path d="M1.68 -0.38 C55.53 0.47, 109.34 -1.19, 161.37 1.05 M0.7 0.93 C57.19 2.24, 115.52 0.8, 160.63 0.59 M160.58 1.99 C158.22 19.26, 157.8 37.21, 160.44 49.2 M159.77 -0.46 C159.16 20.49, 159.1 38.94, 160.67 50.68 M158.41 50.52 C107.93 49.16, 57.07 49.35, 0.28 49.31 M159.7 49.36 C102.25 50.63, 44.23 51.83, 0.52 49.73 M-0.56 50.75 C-0.66 41.4, 1.28 29.59, -0.83 -0.74 M-0.45 49.06 C0.43 35.64, 0.76 21, -0.52 0.55" stroke="#a371f7" stroke-width="2" fill="none"></path></g><g transform="translate(1062.233024597168 376.25) rotate(0 25.76697540283203 8.75)"><text x="25.76697540283203" y="NaN" font-family="Virgil, Segoe UI Emoji" font-size="14px" fill="#ffffff" text-anchor="middle" style="white-space: pre;" direction="ltr">hot svc</text></g><g transform="translate(1173 364) rotate(0 35.95146942138672 8.125)"><text x="0" y="NaN" font-family="Virgil, Segoe UI Emoji" font-size="13px" fill="#8b949e" text-anchor="start" style="white-space: pre;" direction="ltr">in: 1M req/s</text></g><g stroke-linecap="round" transform="translate(1248 368) rotate(0 18 18)"><path d="M25.97 1.51 C29.22 2.73, 31.54 6.24, 33.17 9.68 C34.81 13.12, 36.66 18.26, 35.78 22.16 C34.9 26.05, 30.93 30.63, 27.9 33.05 C24.86 35.47, 21.24 37.14, 17.58 36.7 C13.91 36.25, 8.67 33.24, 5.92 30.38 C3.17 27.52, 1.68 23.41, 1.07 19.56 C0.47 15.7, 0.25 10.49, 2.28 7.24 C4.31 3.99, 9.25 0.84, 13.26 0.05 C17.26 -0.74, 24.05 2.1, 26.32 2.48 C28.58 2.86, 27.17 2.29, 26.85 2.33 M16.92 -0.19 C20.93 -1.3, 25.84 -0.21, 28.97 1.9 C32.09 4.01, 34.5 8.42, 35.66 12.48 C36.83 16.54, 37.71 22.72, 35.96 26.26 C34.2 29.8, 28.9 31.98, 25.13 33.71 C21.36 35.44, 16.96 37.26, 13.34 36.64 C9.73 36.03, 5.5 33.1, 3.44 30.02 C1.39 26.93, 0.97 22.3, 1 18.14 C1.04 13.99, 1.16 8.29, 3.65 5.09 C6.14 1.89, 14.04 -0.53, 15.94 -1.06 C17.84 -1.59, 15.14 1.44, 15.05 1.89" stroke="none" stroke-width="0" fill="#5c3a10"></path><path d="M19.3 0.55 C22.8 0.21, 27.01 1.54, 29.91 4.09 C32.8 6.64, 36.14 11.84, 36.66 15.83 C37.18 19.82, 35.35 24.75, 33.04 28.02 C30.73 31.29, 26.31 34.36, 22.79 35.45 C19.27 36.54, 15.19 36.22, 11.9 34.57 C8.62 32.92, 5.13 28.87, 3.09 25.54 C1.04 22.21, -0.85 18.08, -0.38 14.61 C0.09 11.15, 2.72 7.27, 5.91 4.75 C9.1 2.22, 16.32 0.16, 18.78 -0.53 C21.24 -1.22, 20.48 0.32, 20.67 0.61 M17.6 -0.77 C21.08 -0.91, 26.24 1.75, 29.53 4.45 C32.81 7.15, 36.88 11.57, 37.31 15.43 C37.73 19.29, 34.62 24.15, 32.11 27.63 C29.59 31.12, 25.55 35.26, 22.21 36.35 C18.87 37.44, 15.63 35.99, 12.08 34.17 C8.53 32.36, 2.66 28.65, 0.89 25.48 C-0.88 22.31, 0.62 18.63, 1.48 15.17 C2.33 11.71, 3.05 7.36, 6.02 4.71 C9 2.06, 17.07 0.23, 19.32 -0.72 C21.57 -1.66, 19.55 -1.23, 19.51 -0.95" stroke="#f0883e" stroke-width="2" fill="none"></path></g><g transform="translate(1254.0540161132812 376) rotate(0 11.94598388671875 6.875)"><text x="11.94598388671875" y="NaN" font-family="Virgil, Segoe UI Emoji" font-size="11px" fill="#e6edf3" text-anchor="middle" style="white-space: pre;" direction="ltr">0.1%</text></g><g stroke-linecap="round"><g transform="translate(1286 385) rotate(0 26 0)"><path d="M-0.85 0.65 C7.93 0.98, 42.74 1.26, 51.44 1.03 M0.91 -0.05 C9.58 0.05, 41.98 -0.6, 50.21 -0.55" stroke="#3fb950" stroke-width="2" fill="none"></path></g><g transform="translate(1286 385) rotate(0 26 0)"><path d="M26.93 7.62 C32.53 5.81, 34.55 6.54, 48.52 1.15 M25.7 7.83 C34.44 4.55, 43.71 1.78, 49.58 -0.22" stroke="#3fb950" stroke-width="2" fill="none"></path></g><g transform="translate(1286 385) rotate(0 26 0)"><path d="M26.79 -10.17 C32.27 -8.4, 34.32 -4.11, 48.52 1.15 M25.56 -9.96 C34.52 -6.67, 43.85 -2.86, 49.58 -0.22" stroke="#3fb950" stroke-width="2" fill="none"></path></g></g><g transform="translate(1343 374) rotate(0 13.488983154296875 8.75)"><text x="0" y="NaN" font-family="Virgil, Segoe UI Emoji" font-size="14px" fill="#3fb950" text-anchor="start" style="white-space: pre;" direction="ltr">1K/s</text></g><g transform="translate(1008 440) rotate(0 191.73681640625 8.75)"><text x="0" y="NaN" font-family="Virgil, Segoe UI Emoji" font-size="14px" fill="#3fb950" text-anchor="start" style="white-space: pre;" direction="ltr">kept:  ~2.1K / s   (rates rebalance every few minutes)</text></g><g stroke-linecap="round" transform="translate(998 485) rotate(0 210 55)"><path d="M-1.11 -1.21 L419.63 -0.04 L418.06 109.89 L-0.59 110.9" stroke="none" stroke-width="0" fill="#161b22"></path><path d="M0.69 -0.06 C140.31 0.16, 282.52 -0.7, 419.8 1.01 M-0.24 -0.12 C140.26 -1.21, 281.21 -1.18, 420.31 -0.44 M418.61 -1.83 C421.85 30.29, 418.51 59.75, 420.92 109.05 M419.45 0.18 C419.12 26.97, 418.71 53.12, 419.14 110.15 M420.61 109.22 C330.14 110.31, 242.26 110.05, -0.09 110.82 M419.79 109.67 C336.24 110.1, 251.66 110.07, -0.47 110.36 M-0.22 109.52 C-0.49 80.75, 0.79 49.52, 0.32 -0.17 M-0.42 110.88 C-0.34 77.34, 0.9 42.34, -0.96 0.8" stroke="#3fb950" stroke-width="2" fill="none"></path></g><g transform="translate(1010 493) rotate(0 39.955963134765625 8.75)"><text x="0" y="NaN" font-family="Virgil, Segoe UI Emoji" font-size="14px" fill="#e6edf3" text-anchor="start" style="white-space: pre;" direction="ltr">TRADEOFF:</text></g><g transform="translate(1010 515) rotate(0 161.3233184814453 8.125)"><text x="0" y="NaN" font-family="Virgil, Segoe UI Emoji" font-size="13px" fill="#3fb950" text-anchor="start" style="white-space: pre;" direction="ltr">+ low-traffic services not invisible (100% sampled)</text></g><g transform="translate(1010 537) rotate(0 158.32034301757812 8.125)"><text x="0" y="NaN" font-family="Virgil, Segoe UI Emoji" font-size="13px" fill="#3fb950" text-anchor="start" style="white-space: pre;" direction="ltr">+ hot services do not overwhelm the trace store</text></g><g transform="translate(1010 561) rotate(0 183.68978881835938 8.125)"><text x="0" y="NaN" font-family="Virgil, Segoe UI Emoji" font-size="13px" fill="#f85149" text-anchor="start" style="white-space: pre;" direction="ltr">- rate-control logic is complex to tune and reason about</text></g></svg>