<svg version="1.1" xmlns="http://www.w3.org/2000/svg" viewBox="0 0 1392.3999999999999 675" width="1392.3999999999999" height="675">
  <!-- svg-source:excalidraw -->
  
  <defs>
    <style>
      @font-face {
        font-family: "Virgil";
        src: url("https://excalidraw.com/Virgil.woff2");
      }
      @font-face {
        font-family: "Cascadia";
        src: url("https://excalidraw.com/Cascadia.woff2");
      }
    </style>
  </defs>
  <rect x="0" y="0" width="1392.3999999999999" height="675" fill="#1e1e2e"></rect><g stroke-linecap="round" transform="translate(10 10) rotate(0 100 25)"><path d="M-1.06 0.19 L198.17 -1.41 L200.3 50.13 L-1.35 50.78" stroke="none" stroke-width="0" fill="#5b21b6"></path><path d="M0.42 -1.12 C79.03 0.1, 157.08 -0.62, 201.15 -0.12 M-0.87 0.53 C56.99 -1.12, 112.19 -1.19, 199.7 -0.62 M201.49 0 C200.65 17.78, 198.83 37.44, 200.18 49.31 M200.33 0.33 C200 18.44, 200.22 36.3, 199.54 49.78 M199.59 51.07 C121.87 48.51, 43.22 48.81, 0.13 49.59 M199.79 49.67 C132.41 48.58, 66.06 49.43, -0.44 49.66 M-1.81 51.16 C1.36 34.69, 1.66 15.56, 0.24 -0.71 M0.1 50.31 C0.46 36.71, -0.88 23.93, 0.56 0.5" stroke="#7c3aed" stroke-width="2" fill="none"></path></g><g transform="translate(82.95002746582031 22.5) rotate(0 27.049972534179688 12.5)"><text x="27.049972534179688" y="NaN" font-family="Virgil, Segoe UI Emoji" font-size="20px" fill="#ffffff" text-anchor="middle" style="white-space: pre;" direction="ltr">Client</text></g><g stroke-linecap="round"><g transform="translate(110 60) rotate(0 0.2701569188209021 275.75106544047554)"><path d="M-0.68 -0.03 C-0.62 91.85, 0.5 459.4, 0.66 551.5" stroke="#585b70" stroke-width="1.5" fill="none" stroke-dasharray="8 9"></path></g></g><g stroke-linecap="round" transform="translate(10 615) rotate(0 100 25)"><path d="M-1.35 -1.66 L199.01 0.34 L200.07 50.27 L-1.55 51.01" stroke="none" stroke-width="0" fill="#5b21b6"></path><path d="M1.07 -1.36 C56.48 2.21, 113.51 0.86, 200.28 1.51 M-0.42 -0.68 C54.08 -1.13, 108.12 -1.71, 200.07 0.49 M201.24 -0.8 C201.15 9.54, 199.09 20.95, 198.48 49.42 M200.11 0.51 C200.81 13.2, 200.9 24.28, 200.64 49.99 M199.69 49.45 C153.87 49.98, 108.05 50.4, 1.74 48.61 M199.6 49.59 C156.28 50.18, 110.68 50.26, -0.72 49.41 M-0.91 50.68 C-1.29 32.91, 0.75 12.95, -0.88 0.84 M-0.67 49.06 C1.15 32.19, 0.73 14.4, 0.28 0.37" stroke="#7c3aed" stroke-width="2" fill="none"></path></g><g transform="translate(82.95002746582031 627.5) rotate(0 27.049972534179688 12.5)"><text x="27.049972534179688" y="NaN" font-family="Virgil, Segoe UI Emoji" font-size="20px" fill="#ffffff" text-anchor="middle" style="white-space: pre;" direction="ltr">Client</text></g><g stroke-linecap="round" transform="translate(290 10) rotate(0 100 25)"><path d="M0.73 0.49 L199.48 -1.63 L199.83 50.48 L-0.93 51.18" stroke="none" stroke-width="0" fill="#5b21b6"></path><path d="M-0.36 -1.2 C50.56 2.13, 96.74 2.74, 199.96 -0.49 M-0.73 0.34 C42.14 -0.41, 83.11 1.05, 199.52 -0.58 M201.24 -1.25 C199.73 17.32, 198.81 35.69, 200.21 49.94 M199.79 -0.88 C199.8 14.54, 200.02 28.2, 200.15 49.98 M200.26 49.19 C125.15 49.87, 48.07 51.08, 0.14 50.49 M199.72 49.6 C122.91 50.8, 46.03 51.09, 0.19 50.87 M0.15 51.85 C1.69 32.5, 0.87 15.97, -0.64 0.55 M0.62 49.14 C0.72 33, 0.5 18.68, -1 0.97" stroke="#7c3aed" stroke-width="2" fill="none"></path></g><g transform="translate(344.68003845214844 22.5) rotate(0 45.31996154785156 12.5)"><text x="45.31996154785156" y="NaN" font-family="Virgil, Segoe UI Emoji" font-size="20px" fill="#ffffff" text-anchor="middle" style="white-space: pre;" direction="ltr">Service A</text></g><g stroke-linecap="round"><g transform="translate(390 60) rotate(0 -0.04380923007909132 276.63017065739547)"><path d="M0.31 0.37 C0.32 92.64, -0.87 461.67, -1.09 553.84" stroke="#585b70" stroke-width="1.5" fill="none" stroke-dasharray="8 9"></path></g></g><g stroke-linecap="round" transform="translate(290 615) rotate(0 100 25)"><path d="M0.4 -1.09 L201.8 1.97 L201.26 50.75 L0.02 48.57" stroke="none" stroke-width="0" fill="#5b21b6"></path><path d="M1.62 -0.09 C52.63 -1.17, 108.13 -1.38, 201.37 -0.53 M0.88 0.78 C66.56 2.43, 132.55 1.81, 200.66 0.58 M201.49 -1.33 C199.98 18.41, 200.32 40.42, 201.07 50.6 M199.13 0.12 C198.99 12.6, 199.07 23.75, 199.29 49.27 M201.44 51.65 C147.46 51.87, 95.59 49.45, 1.55 48.62 M199.76 49.45 C154.13 49.33, 109.31 49.56, -0.02 49.45 M-0.62 51.49 C-0.37 37.67, -0.42 24.66, -1.96 0.16 M-0.32 50.51 C0.55 40.08, -0.03 28.01, 0.09 -0.73" stroke="#7c3aed" stroke-width="2" fill="none"></path></g><g transform="translate(344.68003845214844 627.5) rotate(0 45.31996154785156 12.5)"><text x="45.31996154785156" y="NaN" font-family="Virgil, Segoe UI Emoji" font-size="20px" fill="#ffffff" text-anchor="middle" style="white-space: pre;" direction="ltr">Service A</text></g><g stroke-linecap="round" transform="translate(570 10) rotate(0 100 25)"><path d="M-0.33 1.5 L201.17 0.1 L200.25 51.98 L-1.45 51.4" stroke="none" stroke-width="0" fill="#5b21b6"></path><path d="M0.94 1.74 C41.08 -0.71, 80.91 1.64, 199.74 -1.49 M0.72 -0.25 C64.42 -0.68, 130.03 -1.67, 200.1 -0.4 M200.1 0.2 C199.18 14.15, 199.05 27.74, 198.99 48.42 M199.49 0.92 C199.36 12.16, 201.2 25.33, 200.55 50.92 M201.13 51.17 C160.81 51.5, 117.72 50.22, -0.23 48.72 M199.36 50.74 C155.28 49.71, 111.85 50.54, 0.58 50.69 M-0.7 48.69 C2.43 38.97, 1.42 25.68, 1.58 0.93 M-0.04 49.18 C-0.48 33.95, 0.86 15.81, -0.01 0.25" stroke="#7c3aed" stroke-width="2" fill="none"></path></g><g transform="translate(623.9700393676758 22.5) rotate(0 46.02996063232422 12.5)"><text x="46.02996063232422" y="NaN" font-family="Virgil, Segoe UI Emoji" font-size="20px" fill="#ffffff" text-anchor="middle" style="white-space: pre;" direction="ltr">Service B</text></g><g stroke-linecap="round"><g transform="translate(670 60) rotate(0 0.5958055290752782 277.29022972392005)"><path d="M-0.43 -0.74 C-0.13 91.66, 0.42 461.23, 0.65 553.74" stroke="#585b70" stroke-width="1.5" fill="none" stroke-dasharray="8 9"></path></g></g><g stroke-linecap="round" transform="translate(570 615) rotate(0 100 25)"><path d="M-0.75 0.24 L201.47 0.62 L201.76 51.29 L1.88 48.22" stroke="none" stroke-width="0" fill="#5b21b6"></path><path d="M0.93 -1.51 C52.24 -1.1, 104.46 0.09, 200.08 -0.73 M-0.6 0.46 C66.04 -1.2, 131.81 -0.35, 199.48 -0.19 M201.84 -1.88 C199.63 11.25, 199.16 25.28, 201.57 51.69 M200.53 -0.53 C199.57 16.16, 200.81 30.62, 200.75 49.58 M201.59 49.44 C125.43 48.19, 49.88 48.58, 1.33 48.5 M200.57 49.18 C139.17 51.51, 77.6 50.26, -0.64 50.52 M-1.2 51.23 C0.36 33.58, 2.4 17.26, -0.87 -0.21 M0.1 49.75 C0 35.39, -0.31 21.44, -0.96 0.91" stroke="#7c3aed" stroke-width="2" fill="none"></path></g><g transform="translate(623.9700393676758 627.5) rotate(0 46.02996063232422 12.5)"><text x="46.02996063232422" y="NaN" font-family="Virgil, Segoe UI Emoji" font-size="20px" fill="#ffffff" text-anchor="middle" style="white-space: pre;" direction="ltr">Service B</text></g><g stroke-linecap="round" transform="translate(850 10) rotate(0 100 25)"><path d="M0.78 1.95 L198 1.51 L198.89 50.62 L0.38 49.88" stroke="none" stroke-width="0" fill="#5b21b6"></path><path d="M-1.73 -1.44 C54.18 1.43, 105.85 0.55, 199.62 1.42 M0.03 0.42 C46.75 -1.52, 92.93 -1.49, 199.3 -0.66 M200.38 1.68 C201.06 14.01, 201.56 23.2, 198.75 51.32 M199.96 0.56 C200.61 15.9, 201.23 31.2, 200.95 49.55 M201.29 51.25 C157.6 47.93, 115.81 48.3, -0.35 51.28 M199.15 49.98 C156.52 49.47, 114.68 49.63, 0.3 49.11 M0.13 51.04 C-1.03 37.91, -0.59 21.09, 1.38 0.96 M-0.5 49.85 C0.53 31.82, 0.12 15.08, -0.28 -0.33" stroke="#7c3aed" stroke-width="2" fill="none"></path></g><g transform="translate(920.8000183105469 22.5) rotate(0 29.199981689453125 12.5)"><text x="29.199981689453125" y="NaN" font-family="Virgil, Segoe UI Emoji" font-size="20px" fill="#ffffff" text-anchor="middle" style="white-space: pre;" direction="ltr">Kafka</text></g><g stroke-linecap="round"><g transform="translate(949.9036196938259 60) rotate(0 -0.37529907101065874 276.1424278958485)"><path d="M1.01 0.38 C0.6 92.18, -1.12 459.64, -1.58 551.81" stroke="#585b70" stroke-width="1.5" fill="none" stroke-dasharray="8 9"></path></g></g><g stroke-linecap="round" transform="translate(850 615) rotate(0 100 25)"><path d="M1.59 1.69 L200.32 1.62 L201.27 50.96 L-1.69 48.94" stroke="none" stroke-width="0" fill="#5b21b6"></path><path d="M-1.37 0.73 C69.75 0.66, 140.95 3.2, 201.07 1.62 M-0.58 0.23 C43.94 0.87, 85.7 0.17, 199.59 0.73 M200.5 0.9 C201.88 10.74, 199.5 22.78, 201.68 50.5 M199.79 -0.13 C200.24 16.5, 200.14 34.17, 199.27 49.54 M198.55 51.03 C157.56 49.72, 115.3 49.71, -1.34 48.38 M199.85 50.55 C154.54 48.69, 108.72 48.22, -0.12 49.26 M-0.52 49.66 C-0.64 35.58, 0.48 26.08, -1.45 1.46 M0.1 50.01 C0.86 32.44, -0.93 15.94, -0.22 0.68" stroke="#7c3aed" stroke-width="2" fill="none"></path></g><g transform="translate(920.8000183105469 627.5) rotate(0 29.199981689453125 12.5)"><text x="29.199981689453125" y="NaN" font-family="Virgil, Segoe UI Emoji" font-size="20px" fill="#ffffff" text-anchor="middle" style="white-space: pre;" direction="ltr">Kafka</text></g><g stroke-linecap="round" transform="translate(1130 10) rotate(0 100 25)"><path d="M1.8 -0.07 L199.47 1.88 L199.82 48.52 L0.28 49.86" stroke="none" stroke-width="0" fill="#5b21b6"></path><path d="M-0.42 -1.35 C52.22 1.07, 107.06 -1.18, 198.68 0.21 M0.51 0.4 C78.11 0.97, 156.22 0.4, 200.44 0.14 M198.68 1.44 C199.6 11.12, 199.58 21.77, 201.22 51.93 M199.29 -0.14 C200.3 13.08, 200.06 26.54, 200.57 49.75 M201.26 49.21 C131.7 49.1, 60.8 52.01, 1.38 50.68 M200.26 50.2 C146.14 50.87, 93.94 52.4, 0.25 50.78 M-0.97 50.71 C-0.12 35.1, -1.07 20.93, 0.47 0.39 M-0.78 50.44 C-0.22 35.56, -0.28 20.18, -0.62 -0.57" stroke="#7c3aed" stroke-width="2" fill="none"></path></g><g transform="translate(1184.8000411987305 22.5) rotate(0 45.19995880126953 12.5)"><text x="45.19995880126953" y="NaN" font-family="Virgil, Segoe UI Emoji" font-size="20px" fill="#ffffff" text-anchor="middle" style="white-space: pre;" direction="ltr">Service C</text></g><g stroke-linecap="round"><g transform="translate(1229.903619693826 60) rotate(0 -0.20152245836368365 276.1307454344941)"><path d="M0.19 0.34 C0.09 92.66, -1.18 461.12, -1.19 553.22" stroke="#585b70" stroke-width="1.5" fill="none" stroke-dasharray="8 9"></path></g></g><g stroke-linecap="round" transform="translate(1130 615) rotate(0 100 25)"><path d="M0.37 -1.44 L199.59 1.55 L199.24 51.66 L-0.82 49.44" stroke="none" stroke-width="0" fill="#5b21b6"></path><path d="M-1.21 0.03 C50.62 2.54, 104.41 0.31, 201.06 -1.59 M-0.27 0.34 C58.48 -0.91, 117.4 -0.18, 199.28 0.64 M201.45 0.28 C201.54 18.05, 199.13 40.25, 199.51 48.73 M200.79 0.98 C198.71 14.4, 199.61 27.13, 199.5 50 M198.55 50.66 C149.38 48.67, 100.07 47.62, 0 49.22 M200.03 49.98 C158.14 47.45, 115.96 49.04, -0.72 49.47 M-0.07 48.73 C-0.48 32.62, -1.32 15.01, 1.67 1.85 M0.69 49.27 C-0.55 36.5, 0.26 20.49, -0.76 -0.61" stroke="#7c3aed" stroke-width="2" fill="none"></path></g><g transform="translate(1184.8000411987305 627.5) rotate(0 45.19995880126953 12.5)"><text x="45.19995880126953" y="NaN" font-family="Virgil, Segoe UI Emoji" font-size="20px" fill="#ffffff" text-anchor="middle" style="white-space: pre;" direction="ltr">Service C</text></g><g stroke-linecap="round"><g transform="translate(110 90) rotate(0 140 0)"><path d="M-0.81 -0.04 C45.98 -0.24, 233.09 -0.07, 279.91 -0.22 M0.97 -1.11 C47.66 -1.21, 232.51 1.04, 278.91 1.2" stroke="#cdd6f4" stroke-width="2" fill="none"></path></g><g transform="translate(110 90) rotate(0 140 0)"><path d="M250.57 11.08 C256.81 9.24, 262.21 7.77, 278.95 -0.57 M250.82 11.74 C259.01 8.83, 265.79 6.35, 277.93 1.94" stroke="#cdd6f4" stroke-width="2" fill="none"></path></g><g transform="translate(110 90) rotate(0 140 0)"><path d="M250.74 -9.44 C257.1 -6.48, 262.47 -3.15, 278.95 -0.57 M250.99 -8.78 C259.19 -5.96, 265.91 -2.7, 277.93 1.94" stroke="#cdd6f4" stroke-width="2" fill="none"></path></g></g><g transform="translate(214.05402374267575 78.75) rotate(0 35.94597625732423 11.25)"><text x="35.94597625732422" y="NaN" font-family="Virgil, Segoe UI Emoji" font-size="18px" fill="#cdd6f4" text-anchor="middle" style="white-space: pre;" direction="ltr">Request</text></g><g stroke-opacity="0.85" fill-opacity="0.85" stroke-linecap="round" transform="translate(255.2 118) rotate(0 134.79999999999998 22)"><path d="M0.38 1.56 L269.97 -0.43 L270.15 43.69 L-0.69 43.04" stroke="none" stroke-width="0" fill="#2d6a4f"></path><path d="M0.23 0.75 C98.17 -2.73, 197.74 -2.54, 268.81 -0.03 M-0.54 -0.39 C77.92 1.27, 155.3 1.05, 269.03 -0.64 M269.83 0.97 C269.29 14.37, 268.75 33.88, 268.2 44.2 M270.59 -0.34 C269.81 13.69, 268.96 28.47, 270.38 44.96 M268.16 45.08 C182.23 46.19, 97.29 45.06, -1.07 45.13 M269.31 44.33 C211.23 45.83, 151.91 46.07, -0.33 44.18 M1.79 42.41 C1.7 31.45, 0.84 16.54, 0.25 -1.98 M0.56 43.9 C0.5 29.95, -0.69 16.17, 0.38 -0.57" stroke="#40916c" stroke-width="2" fill="none"></path></g><g transform="translate(273.0160675048828 130) rotate(0 116.98393249511719 10)"><text x="116.98393249511719" y="NaN" font-family="Virgil, Segoe UI Emoji" font-size="16px" fill="#ffffff" text-anchor="middle" style="white-space: pre;" direction="ltr">Create trace_id + root span</text></g><g stroke-linecap="round"><g transform="translate(390 195) rotate(0 140 0)"><path d="M-0.98 -0.88 C45.48 -0.9, 232.46 -0.21, 279.11 0.04 M0.7 1.27 C47.51 1.45, 234.59 2.04, 281.35 1.6" stroke="#cdd6f4" stroke-width="2" fill="none"></path></g><g transform="translate(390 195) rotate(0 140 0)"><path d="M251.72 10.44 C262.41 7.02, 272.56 4.59, 282.73 3.21 M253.41 12.23 C262.84 7.1, 273.62 4.78, 282.24 1.25" stroke="#cdd6f4" stroke-width="2" fill="none"></path></g><g transform="translate(390 195) rotate(0 140 0)"><path d="M251.67 -10.09 C262.41 -6.82, 272.57 -2.56, 282.73 3.21 M253.37 -8.29 C262.89 -5.7, 273.68 -0.31, 282.24 1.25" stroke="#cdd6f4" stroke-width="2" fill="none"></path></g></g><g transform="translate(443.29405212402344 183.75) rotate(0 86.70594787597656 22.5)"><text x="86.70594787597656" y="NaN" font-family="Virgil, Segoe UI Emoji" font-size="18px" fill="#cdd6f4" text-anchor="middle" style="white-space: pre;" direction="ltr">HTTP call +</text><text x="86.70594787597656" y="NaN" font-family="Virgil, Segoe UI Emoji" font-size="18px" fill="#cdd6f4" text-anchor="middle" style="white-space: pre;" direction="ltr">traceparent header</text></g><g stroke-opacity="0.85" fill-opacity="0.85" stroke-linecap="round" transform="translate(504.4 233) rotate(0 165.60000000000002 22)"><path d="M-0.69 -1 L333.2 1.66 L332.47 42.53 L1.39 44.96" stroke="none" stroke-width="0" fill="#2d6a4f"></path><path d="M-0.62 -1.23 C92.41 2.6, 186.04 1.71, 330.54 -0.52 M-0.66 0.44 C89.1 0.92, 177.57 0.4, 330.61 0.53 M332.21 -0.8 C331.64 17.43, 331.4 33.63, 331.88 44.19 M332.08 0.09 C331.73 9.66, 331.6 19.94, 331.65 43.75 M330.8 43.47 C258.79 44.58, 188.45 43.39, 0.89 44.99 M331.64 43.67 C206.3 46.58, 82.73 45.28, 0.47 44.33 M-1.57 44.06 C1.4 29.4, -0.81 19.03, 1.57 0.31 M-0.7 43.82 C-0.47 26.97, 0.39 11.41, 0.15 -0.17" stroke="#40916c" stroke-width="2" fill="none"></path></g><g transform="translate(530.3280792236328 245) rotate(0 139.6719207763672 10)"><text x="139.6719207763672" y="NaN" font-family="Virgil, Segoe UI Emoji" font-size="16px" fill="#ffffff" text-anchor="middle" style="white-space: pre;" direction="ltr">Extract context, create child span</text></g><g stroke-linecap="round"><g transform="translate(670 325) rotate(0 140 0)"><path d="M0.49 -1.13 C47.3 -1.05, 234.59 0.97, 281.19 1.17 M-0.71 0.89 C46.02 0.6, 234.18 -0.42, 280.86 -0.35" stroke="#cdd6f4" stroke-width="2" fill="none"></path></g><g transform="translate(670 325) rotate(0 140 0)"><path d="M250.81 11.96 C263.77 6.62, 271.07 4.67, 282.67 0.96 M252.63 10.17 C258.51 8.53, 264.02 6.49, 281.39 0.21" stroke="#cdd6f4" stroke-width="2" fill="none"></path></g><g transform="translate(670 325) rotate(0 140 0)"><path d="M250.76 -8.56 C263.86 -7.2, 271.17 -2.45, 282.67 0.96 M252.58 -10.35 C258.66 -7.83, 264.19 -5.7, 281.39 0.21" stroke="#cdd6f4" stroke-width="2" fill="none"></path></g></g><g transform="translate(730.2420501708984 313.75) rotate(0 79.75794982910156 33.75)"><text x="79.75794982910156" y="NaN" font-family="Virgil, Segoe UI Emoji" font-size="18px" fill="#cdd6f4" text-anchor="middle" style="white-space: pre;" direction="ltr">Publish message +</text><text x="79.75794982910156" y="NaN" font-family="Virgil, Segoe UI Emoji" font-size="18px" fill="#cdd6f4" text-anchor="middle" style="white-space: pre;" direction="ltr">traceparent in</text><text x="79.75794982910156" y="NaN" font-family="Virgil, Segoe UI Emoji" font-size="18px" fill="#cdd6f4" text-anchor="middle" style="white-space: pre;" direction="ltr">headers</text></g><g stroke-opacity="0.85" fill-opacity="0.85" stroke-linecap="round" transform="translate(788.8 378) rotate(0 161.20000000000005 22)"><path d="M0.76 -0.62 L324.3 0.84 L323.45 43.06 L-0.98 45.41" stroke="none" stroke-width="0" fill="#2d6a4f"></path><path d="M0.39 0.55 C104.29 -1.91, 206.25 -0.52, 322.03 -0.75 M-0.44 -0.51 C93.33 0.36, 186.34 0.93, 321.81 0.44 M320.84 -0.2 C323.79 10.54, 322.35 23.45, 322.1 45.29 M321.89 -0.29 C323.32 17.69, 322.36 33.52, 323.36 44.04 M322.32 45.12 C195.4 45.63, 71.82 45.37, -0.14 43.69 M322.65 43.58 C252.29 46.19, 181.83 45.98, 0.36 43.98 M-1.5 42.26 C-1.57 36.01, -1.99 23.84, 0.69 -1.14 M0.01 44 C-0.76 28.93, 0.19 12.19, -0.33 -0.2" stroke="#40916c" stroke-width="2" fill="none"></path></g><g transform="translate(809.39208984375 390) rotate(0 140.60791015625 10)"><text x="140.60791015625" y="NaN" font-family="Virgil, Segoe UI Emoji" font-size="16px" fill="#ffffff" text-anchor="middle" style="white-space: pre;" direction="ltr">Context stored in message headers</text></g><g stroke-linecap="round"><g transform="translate(949.8718888327 455) rotate(0 140 0)"><path d="M-0.01 0.37 C46.72 0.47, 232.54 0.84, 279.23 0.81 M-1.47 -0.48 C45.74 -0.73, 234.72 -1.24, 281.54 -0.88" stroke="#cdd6f4" stroke-width="2" fill="none"></path></g><g transform="translate(949.8718888327 455) rotate(0 140 0)"><path d="M253.96 8.06 C260.47 7.47, 265.32 5.19, 283.3 -1.07 M252.96 9.83 C261.06 7.23, 267.94 4.89, 282.4 -0.55" stroke="#cdd6f4" stroke-width="2" fill="none"></path></g><g transform="translate(949.8718888327 455) rotate(0 140 0)"><path d="M253.99 -12.46 C260.54 -8.83, 265.38 -6.9, 283.3 -1.07 M253 -10.69 C261.06 -8.14, 267.93 -5.32, 282.4 -0.55" stroke="#cdd6f4" stroke-width="2" fill="none"></path></g></g><g transform="translate(1014.0670471191406 443.75) rotate(0 75.93295288085938 11.25)"><text x="75.93295288085938" y="NaN" font-family="Virgil, Segoe UI Emoji" font-size="18px" fill="#cdd6f4" text-anchor="middle" style="white-space: pre;" direction="ltr">Consume message</text></g><g stroke-opacity="0.85" fill-opacity="0.85" stroke-linecap="round" transform="translate(1077.6 503) rotate(0 152.39999999999998 22)"><path d="M1.09 1.46 L303.81 -1.23 L303.34 42.75 L-1.88 45.01" stroke="none" stroke-width="0" fill="#2d6a4f"></path><path d="M-0.25 1.22 C82.09 -0.81, 163.65 -1.83, 306.13 -0.94 M-0.32 0.34 C94.13 1.77, 188.28 2.47, 304.86 0.46 M306.39 0.75 C306.16 13.42, 305.95 30.85, 303.64 45.77 M304.76 0.39 C305.35 17.75, 304.32 34.66, 303.86 43.48 M304.12 45.02 C228.17 44.19, 151.39 46.15, 0.22 44.76 M304.7 44.57 C199.41 42.08, 94.63 42.12, -0.06 44.14 M0.95 43.61 C-1.34 26.72, -1.28 11.11, -1.55 -1.99 M0.95 43.81 C0.3 32.9, -0.31 20.6, 0.46 -0.63" stroke="#40916c" stroke-width="2" fill="none"></path></g><g transform="translate(1101.3280639648438 515) rotate(0 128.67193603515625 10)"><text x="128.67193603515625" y="NaN" font-family="Virgil, Segoe UI Emoji" font-size="16px" fill="#ffffff" text-anchor="middle" style="white-space: pre;" direction="ltr">Extract context, continue trace</text></g><g stroke-linecap="round"><g transform="translate(1230 574.8636235961) rotate(0 -420 0)"><path d="M-0.35 -1.05 C-140.52 -0.9, -700.57 0.1, -840.52 0.46" stroke="#cdd6f4" stroke-width="2.5" fill="none" stroke-dasharray="8 10"></path></g><g transform="translate(1230 574.8636235961) rotate(0 -420 0)"><path d="M-814.1 -10.72 C-821.22 -6.53, -829.66 -2.97, -839.46 0.65" stroke="#cdd6f4" stroke-width="2.5" fill="none"></path></g><g transform="translate(1230 574.8636235961) rotate(0 -420 0)"><path d="M-814.05 9.8 C-821.12 6.99, -829.58 3.55, -839.46 0.65" stroke="#cdd6f4" stroke-width="2.5" fill="none"></path></g></g><g transform="translate(755.5230407714844 563.75) rotate(0 54.476959228515625 11.25)"><text x="54.476959228515625" y="NaN" font-family="Virgil, Segoe UI Emoji" font-size="18px" fill="#cdd6f4" text-anchor="middle" style="white-space: pre;" direction="ltr">Async result</text></g></svg>