<svg version="1.1" xmlns="http://www.w3.org/2000/svg" viewBox="0 0 1504.0095682171782 575" width="1504.0095682171782" height="575">
  <!-- svg-source:excalidraw -->
  
  <defs>
    <style>
      @font-face {
        font-family: "Virgil";
        src: url("https://excalidraw.com/Virgil.woff2");
      }
      @font-face {
        font-family: "Cascadia";
        src: url("https://excalidraw.com/Cascadia.woff2");
      }
    </style>
  </defs>
  <rect x="0" y="0" width="1504.0095682171782" height="575" fill="#1e1e2e"></rect><g transform="translate(23.101639750381253 10) rotate(0 451.121826171875 17.5)"><text x="0" y="NaN" font-family="Virgil, Segoe UI Emoji" font-size="28px" fill="#ff8c42" text-anchor="start" style="white-space: pre;" direction="ltr">Averages hide tail latency: same mean, 51x worse user experience</text></g><g transform="translate(23.101639750381253 50) rotate(0 335.1888122558594 10.625)"><text x="0" y="NaN" font-family="Virgil, Segoe UI Emoji" font-size="17px" fill="#c9d1d9" text-anchor="start" style="white-space: pre;" direction="ltr">The average tells you the middle. The shape of the tail tells you who suffers.</text></g><g stroke-linecap="round" transform="translate(10 105) rotate(0 360 230)"><path d="M0.3 1.64 L720.33 -1.22 L718.09 459.03 L0.19 460.34" stroke="none" stroke-width="0" fill="#161b22"></path><path d="M-0.77 0.21 C286.79 -0.2, 575.03 -0.32, 719.46 0.8 M719.2 0.83 C719.12 96.74, 719.07 193.84, 720.16 459.69 M720.54 460.51 C498.88 456.75, 277.87 457.05, 0.7 460.41 M0.37 459.61 C1.31 322.44, 1.13 185.68, -0.3 -0.54" stroke="#30363d" stroke-width="2.5" fill="none" stroke-dasharray="8 10"></path></g><g stroke-linecap="round" transform="translate(43.10163975038125 125) rotate(0 340 25)"><path d="M-1.39 1.57 L678.4 -1.13 L680 48.25 L-0.05 49.96" stroke="none" stroke-width="0" fill="#1f4d2b"></path><path d="M-0.27 -0.17 C157.03 -0.47, 315.5 -1.05, 680.24 -0.7 M-0.36 0.02 C202.53 -1.56, 405.43 -1.61, 680.39 -0.11 M681.98 1.65 C679.16 12.95, 679.02 24.17, 678.76 49.09 M679.31 -0.34 C681.01 14.81, 679.23 27.14, 679.47 50.38 M680.16 49.32 C516.51 49.19, 351.18 49.5, -0.34 50.09 M679.63 50.02 C465.83 51.92, 251.9 52.12, 0.17 50.34 M0.44 50.45 C0.21 34.5, -1.51 19.16, 1.96 -0.63 M-0.08 49.11 C0.73 40.52, 0.56 30.18, 0.2 0.49" stroke="#3fb950" stroke-width="2" fill="none"></path></g><g transform="translate(204.87973118104532 136.25) rotate(0 178.22190856933594 13.75)"><text x="178.22190856933594" y="NaN" font-family="Virgil, Segoe UI Emoji" font-size="22px" fill="#ffffff" text-anchor="middle" style="white-space: pre;" direction="ltr">System A   -   tight distribution</text></g><g stroke-linecap="round"><g transform="translate(73.10163975038125 415) rotate(0 320 0)"><path d="M0.99 0.04 C107.62 -0.17, 533.1 -1.17, 639.41 -0.99 M0.04 -0.98 C107.12 -1.1, 534.97 -0.03, 641.81 0.03" stroke="#8b949e" stroke-width="1" fill="none"></path></g></g><g stroke-linecap="round"><g transform="translate(73.10163975038125 415) rotate(0 0 3)"><path d="M0.63 -0.85 C0.76 -0.15, 0.39 3.99, 0.13 5.09 M-0.5 1.32 C-0.46 2.06, -1.09 5.21, -0.75 6.15" stroke="#8b949e" stroke-width="1" fill="none"></path></g></g><g transform="translate(55.10163975038125 425) rotate(0 3.78399658203125 6.875)"><text x="0" y="NaN" font-family="Virgil, Segoe UI Emoji" font-size="11px" fill="#8b949e" text-anchor="start" style="white-space: pre;" direction="ltr">0</text></g><g stroke-linecap="round"><g transform="translate(189.46527611401763 415) rotate(0 0 3)"><path d="M-0.16 -1.07 C-0.05 -0.31, 0.95 3.89, 1.15 5.21 M-1.7 0.99 C-1.69 1.82, 0.38 5.67, 0.8 6.34" stroke="#8b949e" stroke-width="1" fill="none"></path></g></g><g transform="translate(171.46527611401763 425) rotate(0 12.842483520507812 6.875)"><text x="0" y="NaN" font-family="Virgil, Segoe UI Emoji" font-size="11px" fill="#8b949e" text-anchor="start" style="white-space: pre;" direction="ltr">1000</text></g><g stroke-linecap="round"><g transform="translate(305.828912477654 415) rotate(0 0 3)"><path d="M-0.18 -0.03 C-0.42 0.96, -0.36 5.22, -0.45 6.26 M-1.73 -1.09 C-2.25 -0.52, -2.22 2.82, -1.64 4.27" stroke="#8b949e" stroke-width="1" fill="none"></path></g></g><g transform="translate(287.828912477654 425) rotate(0 15.267982482910156 6.875)"><text x="0" y="NaN" font-family="Virgil, Segoe UI Emoji" font-size="11px" fill="#8b949e" text-anchor="start" style="white-space: pre;" direction="ltr">2000</text></g><g stroke-linecap="round"><g transform="translate(422.1925488412903 415) rotate(0 0 3)"><path d="M0.88 0.33 C0.97 1.31, -0.29 5.99, -0.59 6.86 M-0.11 -0.55 C0.47 0.02, 1.55 3.99, 1.81 5.18" stroke="#8b949e" stroke-width="1" fill="none"></path></g></g><g transform="translate(404.1925488412903 425) rotate(0 15.097488403320312 6.875)"><text x="0" y="NaN" font-family="Virgil, Segoe UI Emoji" font-size="11px" fill="#8b949e" text-anchor="start" style="white-space: pre;" direction="ltr">3000</text></g><g stroke-linecap="round"><g transform="translate(538.5561852049268 415) rotate(0 0 3)"><path d="M0.43 1.04 C0.46 1.94, 0.71 4.69, 0.74 5.46 M-0.81 0.53 C-0.92 1.59, 0.02 5.67, 0.19 6.71" stroke="#8b949e" stroke-width="1" fill="none"></path></g></g><g transform="translate(520.5561852049268 425) rotate(0 14.871986389160156 6.875)"><text x="0" y="NaN" font-family="Virgil, Segoe UI Emoji" font-size="11px" fill="#8b949e" text-anchor="start" style="white-space: pre;" direction="ltr">4000</text></g><g stroke-linecap="round"><g transform="translate(654.9198215685631 415) rotate(0 0 3)"><path d="M0.38 0.88 C0.17 2, -1.29 5.29, -1.19 6.17 M-0.88 0.29 C-0.75 1.69, 0.63 6.59, 0.89 7.8" stroke="#8b949e" stroke-width="1" fill="none"></path></g></g><g transform="translate(636.9198215685631 425) rotate(0 14.750984191894531 6.875)"><text x="0" y="NaN" font-family="Virgil, Segoe UI Emoji" font-size="11px" fill="#8b949e" text-anchor="start" style="white-space: pre;" direction="ltr">5000</text></g><g transform="translate(683.1016397503813 443) rotate(0 35.45396423339844 7.5)"><text x="0" y="NaN" font-family="Virgil, Segoe UI Emoji" font-size="12px" fill="#8b949e" text-anchor="start" style="white-space: pre;" direction="ltr">latency (ms)</text></g><g stroke-linecap="round" transform="translate(84.7380033867449 245) rotate(0 3.490909090909092 85)"><path d="M-1.82 -1.43 L8.64 0.04 L6.7 169.29 L-1.32 170.66" stroke="none" stroke-width="0" fill="#58a6ff"></path><path d="M-0.46 0.51 C1.9 -0.01, 4.48 -0.56, 7.57 0.61 M0.34 -0.02 C2.03 -0.23, 4.11 0.1, 6.68 0.22 M8.69 1.13 C7.39 49.5, 6.9 100.59, 8.41 171.12 M6.88 0.86 C7.98 63.73, 8.44 127.78, 6.51 169.56 M6.64 169.38 C5.14 169.83, 4.2 170.2, -0.51 169.79 M7 170.34 C4.95 170.35, 2.61 170.21, -0.35 169.85 M-1.84 169.85 C-2.33 102.78, -1.46 38.17, -1.9 0.58 M-0.49 169.49 C-0.95 123.55, -1.88 77.67, -0.56 0.3" stroke="#58a6ff" stroke-width="2" fill="none"></path></g><g stroke-linecap="round"><g transform="translate(84.7380033867449 215) rotate(0 0 100)"><path d="M0.28 -0.55 C0.27 33.1, -0.7 167.55, -0.69 201.17" stroke="#e6edf3" stroke-width="2.5" fill="none" stroke-dasharray="8 10"></path></g></g><g transform="translate(98.57033710042184 256.78812208764816) rotate(0 47.27796173095704 8.75)"><text x="0" y="NaN" font-family="Virgil, Segoe UI Emoji" font-size="14px" fill="#e6edf3" text-anchor="start" style="white-space: pre;" direction="ltr">mean = 100ms</text></g><g stroke-linecap="round"><g transform="translate(84.7380033867449 215) rotate(0 0 100)"><path d="M0.84 -0.93 C0.92 32.37, 0.82 166.78, 0.74 200.21" stroke="#f85149" stroke-width="2.5" fill="none" stroke-dasharray="8 10"></path></g></g><g transform="translate(93.04678623621386 217.97937759355392) rotate(0 43.056953430175774 8.75)"><text x="0" y="NaN" font-family="Virgil, Segoe UI Emoji" font-size="14px" fill="#f85149" text-anchor="start" style="white-space: pre;" direction="ltr">p99 = 100ms</text></g><g stroke-linecap="round" transform="translate(43.10163975038125 475) rotate(0 340 35)"><path d="M1.71 1.37 L681.05 1.89 L681.01 68.18 L0.58 68.96" stroke="none" stroke-width="0" fill="#1f4d2b"></path><path d="M0.27 -0.54 C225.67 -2.04, 450.52 -1.08, 679.42 -0.21 M-0.3 -0.38 C268.84 -0.59, 538.04 -0.5, 680.2 0.33 M680.01 1.16 C678.35 21.82, 680.66 48.97, 679.09 69.38 M679.49 -0.14 C678.33 26.1, 679.45 49.54, 680.29 69.44 M680.31 70.57 C536.72 71.08, 394.79 71.08, -0.63 69.55 M680.1 69.91 C520.32 67.15, 360.4 67.25, 0.2 70.21 M0.47 70.09 C0.54 48.7, -0.04 30.51, -1.35 1.81 M0.91 70.54 C0.3 48.57, 0.29 28.08, -0.79 -0.02" stroke="#1f4d2b" stroke-width="2" fill="none"></path></g><g transform="translate(214.00077915467813 487.5) rotate(0 169.10086059570312 22.5)"><text x="169.10086059570312" y="NaN" font-family="Virgil, Segoe UI Emoji" font-size="18px" fill="#ffffff" text-anchor="middle" style="white-space: pre;" direction="ltr">Every request feels the same.</text><text x="169.10086059570312" y="NaN" font-family="Virgil, Segoe UI Emoji" font-size="18px" fill="#ffffff" text-anchor="middle" style="white-space: pre;" direction="ltr">Users experience the system as fast.</text></g><g stroke-linecap="round" transform="translate(752.0119130604094 101.14016532288196) rotate(0 360 230.00000000000003)"><path d="M1.47 -1.27 L721.11 -0.35 L718.74 459.09 L1.38 458.74" stroke="none" stroke-width="0" fill="#161b22"></path><path d="M-0.44 -0.4 C261.52 0.08, 524.2 -0.24, 719.23 0.16 M719.51 0.26 C720.57 152.18, 719.67 305.01, 719.49 460.5 M720.52 459.78 C501.77 463, 282.79 462.41, -0.3 459.7 M-0.37 459.28 C-0.39 366.53, -0.74 273.97, -0.32 0.1" stroke="#30363d" stroke-width="2.5" fill="none" stroke-dasharray="8 10"></path></g><g stroke-linecap="round" transform="translate(783.1016397503813 125) rotate(0 340 25)"><path d="M-1.62 0.19 L680.78 1.92 L681.38 49.78 L0.12 48.2" stroke="none" stroke-width="0" fill="#4a1219"></path><path d="M-0.04 -0.73 C146.53 -0.42, 293.97 -0.19, 680.72 -0.44 M0.06 -0.09 C161.55 -0.54, 323.09 -0.94, 679.64 0.15 M678.31 0.61 C679.21 14.35, 680.77 25.28, 681.67 50.35 M680.64 -0.62 C679.95 16.3, 679.25 31.97, 680.59 49.51 M679.79 50.28 C429.31 49.57, 179.8 49.6, 0.16 49.38 M679.9 49.62 C493.79 50.22, 307.81 50.32, -0.18 49.73 M0.77 48.93 C-0.36 33.41, -0.12 11.23, -0.62 0.58 M-0.77 49.88 C-1.12 32.39, 0.23 14.73, 0.59 -0.34" stroke="#f85149" stroke-width="2" fill="none"></path></g><g transform="translate(991.8166971234282 136.25) rotate(0 131.28494262695312 13.75)"><text x="131.28494262695312" y="NaN" font-family="Virgil, Segoe UI Emoji" font-size="22px" fill="#ffffff" text-anchor="middle" style="white-space: pre;" direction="ltr">System B   -   fat tail</text></g><g stroke-linecap="round"><g transform="translate(813.1016397503813 415) rotate(0 320 0)"><path d="M-0.07 1.14 C106.51 1.38, 532.49 0.42, 639.14 0.41 M-1.57 0.69 C105.42 0.65, 534.64 -1.27, 641.39 -1.49" stroke="#8b949e" stroke-width="1" fill="none"></path></g></g><g stroke-linecap="round"><g transform="translate(813.1016397503813 415) rotate(0 0 3)"><path d="M-0.36 0.86 C-0.57 1.74, -1.32 4.37, -1.07 5.1 M1.65 0.27 C1.78 1.29, 1.2 5.18, 1.08 6.16" stroke="#8b949e" stroke-width="1" fill="none"></path></g></g><g transform="translate(795.1016397503813 425) rotate(0 3.78399658203125 6.875)"><text x="0" y="NaN" font-family="Virgil, Segoe UI Emoji" font-size="11px" fill="#8b949e" text-anchor="start" style="white-space: pre;" direction="ltr">0</text></g><g stroke-linecap="round"><g transform="translate(929.4652761140176 415) rotate(0 0 3)"><path d="M-0.58 -0.58 C-0.43 0.6, 0.17 6.02, 0.45 7.08 M1.32 1.72 C1.39 2.6, -0.19 4.65, -0.26 5.53" stroke="#8b949e" stroke-width="1" fill="none"></path></g></g><g transform="translate(911.4652761140176 425) rotate(0 12.842483520507812 6.875)"><text x="0" y="NaN" font-family="Virgil, Segoe UI Emoji" font-size="11px" fill="#8b949e" text-anchor="start" style="white-space: pre;" direction="ltr">1000</text></g><g stroke-linecap="round"><g transform="translate(1045.828912477654 415) rotate(0 0 3)"><path d="M0.09 0.02 C0.24 1.23, 0.69 5.77, 0.87 6.77 M-1.32 -1.02 C-1.26 -0.1, -0.01 3.65, 0.37 5.05" stroke="#8b949e" stroke-width="1" fill="none"></path></g></g><g transform="translate(1027.828912477654 425) rotate(0 15.267982482910156 6.875)"><text x="0" y="NaN" font-family="Virgil, Segoe UI Emoji" font-size="11px" fill="#8b949e" text-anchor="start" style="white-space: pre;" direction="ltr">2000</text></g><g stroke-linecap="round"><g transform="translate(1162.1925488412903 415) rotate(0 0 3)"><path d="M0.98 0.93 C0.81 1.9, -1.01 5.89, -0.99 6.86 M0.04 0.38 C0.23 1.53, 1.06 4.44, 1.2 5.19" stroke="#8b949e" stroke-width="1" fill="none"></path></g></g><g transform="translate(1144.1925488412903 425) rotate(0 15.097488403320312 6.875)"><text x="0" y="NaN" font-family="Virgil, Segoe UI Emoji" font-size="11px" fill="#8b949e" text-anchor="start" style="white-space: pre;" direction="ltr">3000</text></g><g stroke-linecap="round"><g transform="translate(1278.5561852049268 415) rotate(0 0 3)"><path d="M1.2 0.37 C1.51 1.36, 1.38 4.16, 1.13 5.19 M0.36 -0.48 C0.68 0.71, 1.04 5.47, 0.78 6.31" stroke="#8b949e" stroke-width="1" fill="none"></path></g></g><g transform="translate(1260.5561852049268 425) rotate(0 14.871986389160156 6.875)"><text x="0" y="NaN" font-family="Virgil, Segoe UI Emoji" font-size="11px" fill="#8b949e" text-anchor="start" style="white-space: pre;" direction="ltr">4000</text></g><g stroke-linecap="round"><g transform="translate(1394.919821568563 415) rotate(0 0 3)"><path d="M0.48 -0.24 C0.37 0.59, 0.29 3.82, 0.31 4.99 M-0.73 -1.42 C-1.06 -0.46, -0.62 4.96, -0.48 5.99" stroke="#8b949e" stroke-width="1" fill="none"></path></g></g><g transform="translate(1376.919821568563 425) rotate(0 14.750984191894531 6.875)"><text x="0" y="NaN" font-family="Virgil, Segoe UI Emoji" font-size="11px" fill="#8b949e" text-anchor="start" style="white-space: pre;" direction="ltr">5000</text></g><g transform="translate(1423.1016397503813 443) rotate(0 35.45396423339844 7.5)"><text x="0" y="NaN" font-family="Virgil, Segoe UI Emoji" font-size="12px" fill="#8b949e" text-anchor="start" style="white-space: pre;" direction="ltr">latency (ms)</text></g><g stroke-linecap="round" transform="translate(816.5925488412904 245) rotate(0 4.654545454545428 85)"><path d="M0.95 -0.23 L10.13 -0.13 L9.82 170.33 L1.72 169.34" stroke="none" stroke-width="0" fill="#58a6ff"></path><path d="M0.81 0.4 C3.7 0.43, 5.89 -0.69, 8.5 0.71 M-0.27 0.42 C3.11 0.17, 6.21 0.12, 8.97 0.08 M8.18 0.83 C7.34 59.3, 8.92 117.71, 9.67 170.75 M9.25 0.73 C10.72 45.21, 10.75 88.28, 9.2 169.82 M8.79 169.85 C7.16 170.11, 4.41 169.14, -0.69 169.27 M8.99 170.22 C5.66 169.85, 2.44 169.71, -0.09 170.45 M1.77 170.51 C-0.48 119.35, 1.32 69.4, 1.28 0.34 M-0.09 169.32 C0.93 124.23, 1.35 77.32, 0.55 -0.76" stroke="#58a6ff" stroke-width="2" fill="none"></path></g><g stroke-linecap="round" transform="translate(1406.5561852049268 385) rotate(0 3.490909090909099 15)"><path d="M1.51 1.27 L6.75 1.72 L7.42 28.32 L1.53 28.24" stroke="none" stroke-width="0" fill="#f85149"></path><path d="M-0.54 -0.09 C1.23 -0.06, 3.06 -0.03, 7.39 -0.23 M0.03 0.2 C2.46 0.16, 5.23 0.23, 6.82 0.34 M8.29 -0.08 C5.77 7.03, 6.1 17.18, 6.81 31.28 M7.87 0.19 C6.98 12.19, 6.52 23.3, 6.2 30.55 M6.74 29.55 C5.57 29.6, 3.3 30.53, 0.58 29.48 M6.76 30.27 C5.12 30.28, 3.53 30.15, 0.21 30.14 M0.96 30.59 C0.85 18.92, -1.9 12.33, 1.37 -0.89 M-0.72 30.86 C0.07 23.27, -0.08 17.25, 0.8 0.27" stroke="#f85149" stroke-width="2" fill="none"></path></g><g stroke-linecap="round"><g transform="translate(824.7380033867448 215) rotate(0 0 100)"><path d="M0.43 0.84 C0.46 34.36, 0.06 167.47, -0.07 200.63" stroke="#e6edf3" stroke-width="2.5" fill="none" stroke-dasharray="8 10"></path></g></g><g transform="translate(831.7692754429429 220.61890107198315) rotate(0 47.27796173095703 8.75)"><text x="0" y="NaN" font-family="Virgil, Segoe UI Emoji" font-size="14px" fill="#e6edf3" text-anchor="start" style="white-space: pre;" direction="ltr">mean = 100ms</text></g><g stroke-linecap="round"><g transform="translate(1406.5561852049268 215) rotate(0 0 100)"><path d="M0.21 -0.42 C0.35 33.01, -0.08 167.14, 0.06 200.54" stroke="#f85149" stroke-width="2.5" fill="none" stroke-dasharray="8 10"></path></g></g><g transform="translate(1301.0426805840234 211.05689046009752) rotate(0 47.38294982910156 8.75)"><text x="0" y="NaN" font-family="Virgil, Segoe UI Emoji" font-size="14px" fill="#f85149" text-anchor="start" style="white-space: pre;" direction="ltr">p99 = 5100ms</text></g><g stroke-linecap="round" transform="translate(783.1016397503813 475) rotate(0 340 35)"><path d="M-0.94 1.45 L680.95 0.33 L679.34 70.99 L-1.01 70.48" stroke="none" stroke-width="0" fill="#4a1219"></path><path d="M-0.09 0.02 C182.13 0.35, 364.64 0.75, 680.79 -0.43 M0.13 0.11 C201.96 0.79, 403.22 0.55, 680.34 0.32 M678.05 -1.84 C679.37 17.98, 680.87 30.8, 679.1 70.13 M679.88 -0.64 C679.55 14.28, 680.14 28.51, 679.47 69.2 M680.57 70.33 C414.18 68.63, 149.19 68.35, -0.39 69.52 M680.3 70.23 C513.05 67.57, 345.62 67.17, -0.12 69.83 M-1.77 70.23 C1.5 46.26, 1.52 17.18, -0.8 -1.74 M0.04 70.44 C-0.67 49.69, -0.84 29.04, -0.56 -0.47" stroke="#4a1219" stroke-width="2" fill="none"></path></g><g transform="translate(945.1987772015532 487.5) rotate(0 177.90286254882812 22.5)"><text x="177.90286254882812" y="NaN" font-family="Virgil, Segoe UI Emoji" font-size="18px" fill="#ffffff" text-anchor="middle" style="white-space: pre;" direction="ltr">1 in 100 requests is 51x slower.</text><text x="177.90286254882812" y="NaN" font-family="Virgil, Segoe UI Emoji" font-size="18px" fill="#ffffff" text-anchor="middle" style="white-space: pre;" direction="ltr">Heavy users hit the spike every session.</text></g><g transform="translate(918.9198215685631 313) rotate(0 71.52593231201178 8.125)"><text x="0" y="NaN" font-family="Virgil, Segoe UI Emoji" font-size="13px" fill="#58a6ff" text-anchor="start" style="white-space: pre;" direction="ltr">99% of requests here</text></g><g stroke-linecap="round"><g transform="translate(908.9198215685631 335) rotate(0 253.8181818181818 -40)"><path d="M0.55 -0.6 C85.06 -14.24, 423.36 -67.9, 507.86 -81.14" stroke="#f85149" stroke-width="2.5" fill="none" stroke-dasharray="8 10"></path></g><g transform="translate(908.9198215685631 335) rotate(0 253.8181818181818 -40)"><path d="M480.61 -66.24 C489.31 -72.22, 500.82 -76.61, 506.61 -81.77" stroke="#f85149" stroke-width="2.5" fill="none"></path></g><g transform="translate(908.9198215685631 335) rotate(0 253.8181818181818 -40)"><path d="M477.41 -86.51 C487.4 -85.03, 500.09 -81.94, 506.61 -81.77" stroke="#f85149" stroke-width="2.5" fill="none"></path></g></g><g transform="translate(1292.40945907129 275.05437761041594) rotate(0 51.28495788574219 16.25)"><text x="0" y="NaN" font-family="Virgil, Segoe UI Emoji" font-size="13px" fill="#f85149" text-anchor="start" style="white-space: pre;" direction="ltr">...and a 5,100ms</text><text x="0" y="NaN" font-family="Virgil, Segoe UI Emoji" font-size="13px" fill="#f85149" text-anchor="start" style="white-space: pre;" direction="ltr">spike out here</text></g></svg>