<svg version="1.1" xmlns="http://www.w3.org/2000/svg" viewBox="0 0 1480 777" width="1480" height="777">
  <!-- svg-source:excalidraw -->
  
  <defs>
    <style>
      @font-face {
        font-family: "Virgil";
        src: url("https://excalidraw.com/Virgil.woff2");
      }
      @font-face {
        font-family: "Cascadia";
        src: url("https://excalidraw.com/Cascadia.woff2");
      }
    </style>
  </defs>
  <rect x="0" y="0" width="1480" height="777" fill="#1e1e2e"></rect><g transform="translate(10 10) rotate(0 468.59381103515625 17.5)"><text x="0" y="NaN" font-family="Virgil, Segoe UI Emoji" font-size="28px" fill="#ff8c42" text-anchor="start" style="white-space: pre;" direction="ltr">Structured logs are queryable. Unstructured logs are a regex tax.</text></g><g transform="translate(10 50) rotate(0 378.4112854003906 10.625)"><text x="0" y="NaN" font-family="Virgil, Segoe UI Emoji" font-size="17px" fill="#c9d1d9" text-anchor="start" style="white-space: pre;" direction="ltr">Same event, two encodings. The structure decides whether you debug in seconds or hours.</text></g><g stroke-linecap="round" transform="translate(10 105) rotate(0 360 270)"><path d="M0.3 1.64 L720.33 -1.22 L718.09 539.03 L0.19 540.34" stroke="none" stroke-width="0" fill="#161b22"></path><path d="M-0.77 0.21 C286.79 -0.2, 575.03 -0.32, 719.46 0.8 M719.32 0.72 C719.01 113.59, 718.97 227.49, 720.14 539.73 M720.54 540.51 C498.88 536.75, 277.87 537.05, 0.7 540.41 M0.32 539.67 C1.24 378.5, 1.09 217.68, -0.26 -0.46" stroke="#30363d" stroke-width="2.5" fill="none" stroke-dasharray="8 10"></path></g><g stroke-linecap="round" transform="translate(30 125) rotate(0 340 23)"><path d="M-1.39 1.57 L678.4 -1.13 L680 44.25 L-0.05 45.96" stroke="none" stroke-width="0" fill="#4a1219"></path><path d="M-0.27 -0.17 C157.03 -0.47, 315.5 -1.05, 680.24 -0.7 M-0.36 0.02 C202.53 -1.56, 405.43 -1.61, 680.39 -0.11 M681.98 1.65 C679.19 11.98, 679.05 22.24, 678.76 45.09 M679.31 -0.34 C680.99 13.69, 679.22 24.91, 679.47 46.38 M680.16 45.32 C516.51 45.19, 351.18 45.5, -0.34 46.09 M679.63 46.02 C465.83 47.92, 251.9 48.12, 0.17 46.34 M0.44 46.45 C0.24 31.7, -1.48 17.57, 1.96 -0.63 M-0.08 45.11 C0.72 37.33, 0.55 27.79, 0.2 0.49" stroke="#f85149" stroke-width="2" fill="none"></path></g><g transform="translate(173.4901123046875 135.5) rotate(0 196.5098876953125 12.5)"><text x="196.5098876953125" y="NaN" font-family="Virgil, Segoe UI Emoji" font-size="20px" fill="#ffffff" text-anchor="middle" style="white-space: pre;" direction="ltr">UNSTRUCTURED  -  text blob + regex</text></g><g stroke-linecap="round" transform="translate(40 195) rotate(0 330 28)"><path d="M-0.94 -0.77 L661.64 1.22 L660.36 54.15 L-0.03 54.71" stroke="none" stroke-width="0" fill="#0f1419"></path><path d="M0.03 -0.39 C174.57 -2.95, 351.21 -2.5, 660.63 -0.31 M0.24 0.02 C203.6 0.6, 407.55 0.39, 660.07 0.25 M659.37 1.58 C661 22.98, 660.87 44.14, 661.03 56.05 M660.51 -0.84 C659.38 15.55, 659.71 31.48, 659.74 55.67 M660.59 55.23 C463.55 53.63, 269.09 53.45, 0.12 55.54 M660.25 55.77 C499.86 58.34, 340.03 58, -0.21 56.38 M1.85 57.23 C-1.16 38.07, -0.7 21.22, 0.58 0.92 M0.5 56.9 C0.05 43.71, 0.66 33.38, -0.74 0.53" stroke="#30363d" stroke-width="2" fill="none"></path></g><g transform="translate(54 209) rotate(0 348.60565185546875 7.5)"><text x="0" y="NaN" font-family="Virgil, Segoe UI Emoji" font-size="12px" fill="#c9d1d9" text-anchor="start" style="white-space: pre;" direction="ltr">2024-03-15 14:23:01 ERROR Failed to process order 12345 for user abc-789: connection timeout to payment service</text></g><g stroke-linecap="round" transform="translate(40 341) rotate(0 105 24)"><path d="M-1.36 -1.41 L210.38 -0.38 L211.98 49.22 L-1.13 47.98" stroke="none" stroke-width="0" fill="#4a1219"></path><path d="M-1.29 -0.25 C75.69 1.24, 152.01 -1.27, 211.12 1.75 M0.44 -0.38 C63.61 1.78, 126.51 1.22, 210.87 -0.26 M208.98 1.66 C212.18 11.64, 210.07 18.54, 208.54 49.97 M210.54 0.31 C211.1 11.4, 210.21 22.48, 210.85 48.81 M209 47.66 C166.43 50.38, 120.6 48.26, -1.38 47.89 M209.53 48.03 C159.53 47.12, 109.01 46.46, 0.26 47.24 M0.52 47 C-1.35 31.47, 0.14 15.23, 1.85 -1.62 M0.37 48.2 C-0.53 34.11, 0.91 21.47, -0.98 -0.13" stroke="#f85149" stroke-width="2" fill="none"></path></g><g transform="translate(102.89952850341797 356.875) rotate(0 42.10047149658203 8.125)"><text x="42.10047149658203" y="NaN" font-family="Virgil, Segoe UI Emoji" font-size="13px" fill="#ffffff" text-anchor="middle" style="white-space: pre;" direction="ltr">/order (\d+)/</text></g><g stroke-linecap="round"><g transform="translate(145 337) rotate(0 92.5 -41)"><path d="M-0.46 0.87 C30.2 -13.03, 152.89 -69.08, 183.94 -82.75" stroke="#f85149" stroke-width="2.5" fill="none" stroke-dasharray="8 10"></path></g><g transform="translate(145 337) rotate(0 92.5 -41)"><path d="M163.88 -63.6 C167.46 -66.55, 176.56 -75.41, 185.08 -81.09" stroke="#f85149" stroke-width="2.5" fill="none"></path></g><g transform="translate(145 337) rotate(0 92.5 -41)"><path d="M155.46 -82.32 C161.64 -79.68, 173.24 -82.99, 185.08 -81.09" stroke="#f85149" stroke-width="2.5" fill="none"></path></g></g><g transform="translate(94.10806274414062 397) rotate(0 50.891937255859375 7.5)"><text x="50.891937255859375" y="NaN" font-family="Virgil, Segoe UI Emoji" font-size="12px" fill="#8b949e" text-anchor="middle" style="white-space: pre;" direction="ltr">extract order_id</text></g><g stroke-linecap="round" transform="translate(266 341) rotate(0 105 24)"><path d="M0.62 1.32 L210.29 -0.89 L210.63 47.4 L-0.85 48.29" stroke="none" stroke-width="0" fill="#4a1219"></path><path d="M1.5 0.77 C59.51 -2.8, 120.09 -2.44, 209.22 0.25 M-0.13 -0.58 C41.66 0.84, 84.35 2.03, 210.15 -0.71 M209.75 0.71 C210.67 18.41, 208.59 35.41, 210.67 49.9 M210.35 0.77 C210.69 18.91, 209.09 38.15, 210.17 48.29 M210.44 49.72 C128.67 47.91, 47.76 47.12, 1.49 47.98 M210.08 47.59 C166.89 48.58, 124.81 48.59, -0.62 47.67 M0.33 46.15 C-0.38 37.91, 1.68 26.81, -0.94 -0.47 M-0.07 48.67 C0.27 30, -0.76 13.27, -0.27 0.19" stroke="#f85149" stroke-width="2" fill="none"></path></g><g transform="translate(329.94602966308594 356.875) rotate(0 41.05397033691406 8.125)"><text x="41.05397033691406" y="NaN" font-family="Virgil, Segoe UI Emoji" font-size="13px" fill="#ffffff" text-anchor="middle" style="white-space: pre;" direction="ltr">/user (\S+):/</text></g><g stroke-linecap="round"><g transform="translate(371 337) rotate(0 24.5 -41)"><path d="M-0.43 0.04 C7.72 -13.85, 41.37 -68.45, 49.7 -82.3" stroke="#f85149" stroke-width="2.5" fill="none" stroke-dasharray="8 10"></path></g><g transform="translate(371 337) rotate(0 24.5 -41)"><path d="M43.85 -51.73 C45.21 -62.81, 46.09 -75.48, 48.28 -82.71" stroke="#f85149" stroke-width="2.5" fill="none"></path></g><g transform="translate(371 337) rotate(0 24.5 -41)"><path d="M26.33 -62.4 C34.21 -69.5, 41.53 -78.25, 48.28 -82.71" stroke="#f85149" stroke-width="2.5" fill="none"></path></g></g><g transform="translate(322.7600555419922 397) rotate(0 48.23994445800781 7.5)"><text x="48.23994445800781" y="NaN" font-family="Virgil, Segoe UI Emoji" font-size="12px" fill="#8b949e" text-anchor="middle" style="white-space: pre;" direction="ltr">extract user_id</text></g><g stroke-linecap="round" transform="translate(492 341) rotate(0 105 24)"><path d="M-0.21 1.19 L209.58 -1.05 L210.78 46.72 L1.55 46.57" stroke="none" stroke-width="0" fill="#4a1219"></path><path d="M0.58 -1.39 C71.64 -1.67, 141.03 -1.32, 210.28 -0.78 M-0.52 -0.15 C60.38 0.31, 119.8 0.88, 210.41 -0.02 M210.1 -0.08 C211.74 9.59, 211.92 20.89, 210.71 46.56 M210.63 -0.93 C211.26 16.03, 209.66 33.2, 210.09 47.53 M208.34 49.41 C164.09 48.78, 120.04 48.01, 0.94 47.91 M209.5 48.84 C139.53 48.44, 68.06 49, 0.31 47.44 M1.74 47.76 C1.08 36.91, -0.11 23.89, -1.14 -0.03 M-0.57 48.44 C-0.6 29.11, -0.67 12.36, 0.16 -0.34" stroke="#f85149" stroke-width="2" fill="none"></path></g><g transform="translate(506.8581008911133 356.875) rotate(0 90.14189910888672 8.125)"><text x="90.14189910888672" y="NaN" font-family="Virgil, Segoe UI Emoji" font-size="13px" fill="#ffffff" text-anchor="middle" style="white-space: pre;" direction="ltr">/(timeout|refused) to (\w+)/</text></g><g stroke-linecap="round"><g transform="translate(597 337) rotate(0 -13.5 -41)"><path d="M0.35 -1.09 C-4.16 -14.93, -22.66 -68.55, -27.41 -82.11" stroke="#f85149" stroke-width="2.5" fill="none" stroke-dasharray="8 10"></path></g><g transform="translate(597 337) rotate(0 -13.5 -41)"><path d="M-10.3 -59.53 C-13.92 -66.98, -19.54 -70.3, -26.41 -82.61" stroke="#f85149" stroke-width="2.5" fill="none"></path></g><g transform="translate(597 337) rotate(0 -13.5 -41)"><path d="M-29.69 -52.8 C-28.15 -62.12, -28.56 -67.24, -26.41 -82.61" stroke="#f85149" stroke-width="2.5" fill="none"></path></g></g><g transform="translate(537.4680633544922 397) rotate(0 59.53193664550781 7.5)"><text x="59.53193664550781" y="NaN" font-family="Virgil, Segoe UI Emoji" font-size="12px" fill="#8b949e" text-anchor="middle" style="white-space: pre;" direction="ltr">extract error + svc</text></g><g stroke-linecap="round" transform="translate(40 441) rotate(0 330 35)"><path d="M-1.82 -1.43 L661.65 0.04 L659.72 69.29 L-1.32 70.66" stroke="none" stroke-width="0" fill="#4a1219"></path><path d="M-0.53 0.58 C221.28 1.67, 443.34 1.03, 660.67 0.7 M0.39 -0.02 C189.81 -0.29, 379.68 0.09, 659.66 0.25 M661.71 1.13 C660.88 19.74, 660.39 41.08, 661.43 71.12 M659.9 0.86 C660.69 26.41, 661.15 53.14, 659.53 69.56 M659.61 69.29 C503.35 69.9, 347.73 70.32, -0.59 69.75 M660.02 70.39 C449.83 70.82, 239.3 70.66, -0.4 69.83 M-1.84 69.85 C-1.6 41.77, -0.73 16.16, -1.9 0.58 M-0.49 69.49 C-0.39 50.57, -1.32 31.69, -0.56 0.3" stroke="#f85149" stroke-width="2" fill="none"></path></g><g transform="translate(60 449) rotate(0 197.81588745117188 10)"><text x="0" y="NaN" font-family="Virgil, Segoe UI Emoji" font-size="16px" fill="#e6edf3" text-anchor="start" style="white-space: pre;" direction="ltr">Log format changes -&gt; every regex breaks silently</text></g><g transform="translate(60 475) rotate(0 242.88523864746094 8.125)"><text x="0" y="NaN" font-family="Virgil, Segoe UI Emoji" font-size="13px" fill="#c9d1d9" text-anchor="start" style="white-space: pre;" direction="ltr">Multi-line stack trace? Embedded comma? Unicode? Each is a regex outage.</text></g><g stroke-linecap="round" transform="translate(40 531) rotate(0 330 45)"><path d="M-1.01 0.56 L660.28 0.23 L661.05 88.29 L1.43 89.59" stroke="none" stroke-width="0" fill="#161b22"></path><path d="M-0.62 0.5 C215.38 -1.61, 430.27 -1.4, 659.78 0.78 M661.99 0.53 C659.5 19.88, 659.31 40.57, 658.71 90.59 M660.66 90.59 C451.25 88.69, 241.7 87.87, -0.52 90.22 M-0.64 91.94 C1.26 63.54, 1.95 32.45, 1.8 -1.91" stroke="#f85149" stroke-width="2.5" fill="none" stroke-dasharray="8 10"></path></g><g transform="translate(60 539) rotate(0 123.4573745727539 9.375)"><text x="0" y="NaN" font-family="Virgil, Segoe UI Emoji" font-size="15px" fill="#f85149" text-anchor="start" style="white-space: pre;" direction="ltr">Query: 'errors per minute by user'</text></g><g transform="translate(60 565) rotate(0 128.4779052734375 8.75)"><text x="0" y="NaN" font-family="Virgil, Segoe UI Emoji" font-size="14px" fill="#c9d1d9" text-anchor="start" style="white-space: pre;" direction="ltr">-&gt; full-text scan across TB of text</text></g><g transform="translate(60 587) rotate(0 167.50982666015625 8.75)"><text x="0" y="NaN" font-family="Virgil, Segoe UI Emoji" font-size="14px" fill="#c9d1d9" text-anchor="start" style="white-space: pre;" direction="ltr">-&gt; parse every line, hope the regex still matches</text></g><g stroke-linecap="round" transform="translate(750 105) rotate(0 360 270)"><path d="M1.47 -1.27 L721.11 -0.35 L718.74 539.09 L1.38 538.74" stroke="none" stroke-width="0" fill="#161b22"></path><path d="M-0.44 -0.4 C261.52 0.08, 524.2 -0.24, 719.23 0.16 M719.58 0.23 C720.49 178.82, 719.71 358.21, 719.56 540.43 M720.52 539.78 C501.77 543, 282.79 542.41, -0.3 539.7 M-0.31 539.38 C-0.43 430.38, -0.73 321.54, -0.27 0.09" stroke="#30363d" stroke-width="2.5" fill="none" stroke-dasharray="8 10"></path></g><g stroke-linecap="round" transform="translate(770 125) rotate(0 340 23)"><path d="M-1.62 0.19 L680.78 1.92 L681.38 45.78 L0.12 44.2" stroke="none" stroke-width="0" fill="#3a5d1d"></path><path d="M-0.04 -0.73 C146.53 -0.42, 293.97 -0.19, 680.72 -0.44 M0.06 -0.09 C161.55 -0.54, 323.09 -0.94, 679.64 0.15 M678.31 0.61 C679.19 13.29, 680.75 23.18, 681.67 46.35 M680.64 -0.62 C679.99 14.98, 679.29 29.34, 680.59 45.51 M679.79 46.28 C429.31 45.57, 179.8 45.6, 0.16 45.38 M679.9 45.62 C493.79 46.22, 307.81 46.32, -0.18 45.73 M0.77 44.93 C-0.36 30.89, -0.12 10.21, -0.62 0.58 M-0.77 45.88 C-1.08 29.78, 0.27 13.51, 0.59 -0.34" stroke="#6dbf3a" stroke-width="2" fill="none"></path></g><g transform="translate(896.4701538085938 135.5) rotate(0 213.52984619140625 12.5)"><text x="213.52984619140625" y="NaN" font-family="Virgil, Segoe UI Emoji" font-size="20px" fill="#ffffff" text-anchor="middle" style="white-space: pre;" direction="ltr">STRUCTURED  -  JSON  +  indexed fields</text></g><g stroke-linecap="round" transform="translate(780 195) rotate(0 180 165)"><path d="M0.3 1.04 L361.3 1.81 L359.99 331.59 L-0.49 328.55" stroke="none" stroke-width="0" fill="#0f1419"></path><path d="M1.2 -0.91 C98.47 -0.07, 197.24 0.46, 360.26 0.1 M-0.23 -0.55 C134.98 -0.9, 270.44 -0.31, 360.12 0.06 M360.14 -0.11 C357.62 108.68, 356.81 215.68, 358.72 330.39 M359.85 -0.14 C361.29 98.71, 360.38 196.85, 360.26 330.02 M359.51 331.14 C248.05 331.6, 137.07 331.58, 0.98 328.82 M360.24 329.64 C237.88 328.92, 114.84 329.03, 0.19 330.09 M0.48 329.02 C-2.58 262.55, -1.43 194.1, -0.3 0.49 M0.63 330.52 C0.28 245.92, 0.75 160.5, -0.5 -0.57" stroke="#6dbf3a" stroke-width="2" fill="none"></path></g><g transform="translate(794 203) rotate(0 4.010993957519531 8.75)"><text x="0" y="NaN" font-family="Virgil, Segoe UI Emoji" font-size="14px" fill="#c9d1d9" text-anchor="start" style="white-space: pre;" direction="ltr">{</text></g><g transform="translate(808 233) rotate(0 37.459442138671875 8.125)"><text x="0" y="NaN" font-family="Virgil, Segoe UI Emoji" font-size="13px" fill="#58a6ff" text-anchor="start" style="white-space: pre;" direction="ltr">"timestamp":</text></g><g transform="translate(980 233) rotate(0 78.60443878173828 8.125)"><text x="0" y="NaN" font-family="Virgil, Segoe UI Emoji" font-size="13px" fill="#3fb950" text-anchor="start" style="white-space: pre;" direction="ltr">"2024-03-15T14:23:01Z",</text></g><g transform="translate(808 263) rotate(0 19.76647186279297 8.125)"><text x="0" y="NaN" font-family="Virgil, Segoe UI Emoji" font-size="13px" fill="#58a6ff" text-anchor="start" style="white-space: pre;" direction="ltr">"level":</text></g><g transform="translate(980 263) rotate(0 28.255470275878906 8.125)"><text x="0" y="NaN" font-family="Virgil, Segoe UI Emoji" font-size="13px" fill="#3fb950" text-anchor="start" style="white-space: pre;" direction="ltr">"ERROR",</text></g><g transform="translate(808 293) rotate(0 27.35845947265625 8.125)"><text x="0" y="NaN" font-family="Virgil, Segoe UI Emoji" font-size="13px" fill="#58a6ff" text-anchor="start" style="white-space: pre;" direction="ltr">"service":</text></g><g transform="translate(980 293) rotate(0 46.57243347167969 8.125)"><text x="0" y="NaN" font-family="Virgil, Segoe UI Emoji" font-size="13px" fill="#3fb950" text-anchor="start" style="white-space: pre;" direction="ltr">"order-service",</text></g><g transform="translate(808 323) rotate(0 33.94944763183594 8.125)"><text x="0" y="NaN" font-family="Virgil, Segoe UI Emoji" font-size="13px" fill="#58a6ff" text-anchor="start" style="white-space: pre;" direction="ltr">"trace_id":</text></g><g transform="translate(980 323) rotate(0 50.40093994140625 8.125)"><text x="0" y="NaN" font-family="Virgil, Segoe UI Emoji" font-size="13px" fill="#3fb950" text-anchor="start" style="white-space: pre;" direction="ltr">"abc123def456",</text></g><g transform="translate(808 353) rotate(0 29.89995574951172 8.125)"><text x="0" y="NaN" font-family="Virgil, Segoe UI Emoji" font-size="13px" fill="#58a6ff" text-anchor="start" style="white-space: pre;" direction="ltr">"user_id":</text></g><g transform="translate(980 353) rotate(0 31.9344482421875 8.125)"><text x="0" y="NaN" font-family="Virgil, Segoe UI Emoji" font-size="13px" fill="#3fb950" text-anchor="start" style="white-space: pre;" direction="ltr">"abc-789",</text></g><g transform="translate(808 383) rotate(0 32.77295684814453 8.125)"><text x="0" y="NaN" font-family="Virgil, Segoe UI Emoji" font-size="13px" fill="#58a6ff" text-anchor="start" style="white-space: pre;" direction="ltr">"order_id":</text></g><g transform="translate(980 383) rotate(0 24.927474975585938 8.125)"><text x="0" y="NaN" font-family="Virgil, Segoe UI Emoji" font-size="13px" fill="#3fb950" text-anchor="start" style="white-space: pre;" direction="ltr">"12345",</text></g><g transform="translate(808 413) rotate(0 21.37847900390625 8.125)"><text x="0" y="NaN" font-family="Virgil, Segoe UI Emoji" font-size="13px" fill="#58a6ff" text-anchor="start" style="white-space: pre;" direction="ltr">"error":</text></g><g transform="translate(980 413) rotate(0 66.52090454101562 8.125)"><text x="0" y="NaN" font-family="Virgil, Segoe UI Emoji" font-size="13px" fill="#3fb950" text-anchor="start" style="white-space: pre;" direction="ltr">"connection_timeout",</text></g><g transform="translate(808 443) rotate(0 69.0234146118164 8.125)"><text x="0" y="NaN" font-family="Virgil, Segoe UI Emoji" font-size="13px" fill="#58a6ff" text-anchor="start" style="white-space: pre;" direction="ltr">"downstream_service":</text></g><g transform="translate(980 443) rotate(0 55.09392547607422 8.125)"><text x="0" y="NaN" font-family="Virgil, Segoe UI Emoji" font-size="13px" fill="#3fb950" text-anchor="start" style="white-space: pre;" direction="ltr">"payment-service",</text></g><g transform="translate(808 473) rotate(0 41.469947814941406 8.125)"><text x="0" y="NaN" font-family="Virgil, Segoe UI Emoji" font-size="13px" fill="#58a6ff" text-anchor="start" style="white-space: pre;" direction="ltr">"latency_ms":</text></g><g transform="translate(980 473) rotate(0 17.432998657226562 8.125)"><text x="0" y="NaN" font-family="Virgil, Segoe UI Emoji" font-size="13px" fill="#3fb950" text-anchor="start" style="white-space: pre;" direction="ltr">5000</text></g><g transform="translate(794 503) rotate(0 3.4719924926757812 8.75)"><text x="0" y="NaN" font-family="Virgil, Segoe UI Emoji" font-size="14px" fill="#c9d1d9" text-anchor="start" style="white-space: pre;" direction="ltr">}</text></g><g stroke-linecap="round"><g transform="translate(1144 239) rotate(0 26 0)"><path d="M0.73 -0.07 C9.53 -0.1, 43.88 0.31, 52.34 0.39 M-0.34 -1.14 C8.37 -1.6, 43.1 -1.44, 51.57 -1.53" stroke="#58a6ff" stroke-width="1" fill="none"></path></g><g transform="translate(1144 239) rotate(0 26 0)"><path d="M27.06 8 C34.18 4.14, 40.64 3.97, 52.28 -2.41 M26.55 6.51 C32.46 6.49, 36.38 4.34, 50.77 -2" stroke="#58a6ff" stroke-width="1" fill="none"></path></g><g transform="translate(1144 239) rotate(0 26 0)"><path d="M27.01 -9.78 C34.23 -8.97, 40.7 -4.48, 52.28 -2.41 M26.5 -11.28 C32.39 -7.62, 36.31 -6.1, 50.77 -2" stroke="#58a6ff" stroke-width="1" fill="none"></path></g></g><g stroke-linecap="round" transform="translate(1200 229) rotate(0 110 12)"><path d="M0.89 1.19 L219.66 -0.01 L218.12 23.33 L-1.23 25.93" stroke="none" stroke-width="0" fill="#0d2c5a"></path><path d="M-1.54 -0.71 C72.41 1.64, 143.1 2.9, 218.91 -0.95 M-0.34 -0.77 C51.12 -0.65, 103.83 0.21, 220.22 -0.65 M221.78 1.39 C218.52 7.82, 218.04 16.52, 219.42 23.91 M220.55 0.51 C220.69 7.44, 220.59 13.34, 219.55 24.98 M221.57 23.2 C159.68 24.29, 101.89 23.67, -0.52 24.37 M220.36 24.53 C166.24 25.36, 113.29 25.88, -0.45 23.74 M-0.14 23.59 C-0.43 18.96, -1.74 9.99, 0.51 -1.65 M-0.82 23.54 C1.03 15.56, -0.53 7.07, -0.14 -0.23" stroke="#58a6ff" stroke-width="2" fill="none"></path></g><g transform="translate(1250.7595596313477 234.125) rotate(0 59.240440368652344 6.875)"><text x="59.240440368652344" y="NaN" font-family="Virgil, Segoe UI Emoji" font-size="11px" fill="#ffffff" text-anchor="middle" style="white-space: pre;" direction="ltr">WHERE timestamp = ?</text></g><g stroke-linecap="round"><g transform="translate(1144 269) rotate(0 26 0)"><path d="M-0.43 -0.1 C7.98 -0.15, 42.23 -0.13, 51.01 -0.03 M1.54 -1.2 C10.27 -1.07, 44.85 1.56, 53.2 1.49" stroke="#58a6ff" stroke-width="1" fill="none"></path></g><g transform="translate(1144 269) rotate(0 26 0)"><path d="M28.27 7.75 C36.93 7.2, 46.33 4.93, 53.21 0.16 M27.63 10.35 C33.27 6.42, 40.04 5.15, 53.03 1.67" stroke="#58a6ff" stroke-width="1" fill="none"></path></g><g transform="translate(1144 269) rotate(0 26 0)"><path d="M28.97 -10.02 C37.44 -4.43, 46.59 -0.55, 53.21 0.16 M28.34 -7.42 C33.7 -7.33, 40.31 -4.6, 53.03 1.67" stroke="#58a6ff" stroke-width="1" fill="none"></path></g></g><g stroke-linecap="round" transform="translate(1200 259) rotate(0 110 12)"><path d="M-0.76 -1.84 L219.08 1.66 L221.53 23.36 L1.96 23.99" stroke="none" stroke-width="0" fill="#0d2c5a"></path><path d="M-0.52 0.36 C77.78 -1.15, 156.23 -1.4, 219.8 -0.8 M0.49 -0.39 C50.92 -1.01, 102.43 -0.58, 219.84 0.54 M220.04 -0.4 C221.74 8.54, 219.48 16.48, 221.35 24.03 M219.67 0.6 C218.89 4.47, 219.58 10.7, 220.88 23.19 M220.42 24.91 C140.09 24.5, 60.59 24.41, 0.47 25.5 M219.5 24.04 C135.59 23.87, 52.1 23.24, 0.38 24.37 M0.94 24.76 C-1.36 15.57, 1.44 7.32, -1.38 -1.54 M-0.59 24.58 C0.89 16.58, -0.78 7.98, 0.26 0.73" stroke="#58a6ff" stroke-width="2" fill="none"></path></g><g transform="translate(1265.7305526733398 264.125) rotate(0 44.269447326660156 6.875)"><text x="44.269447326660156" y="NaN" font-family="Virgil, Segoe UI Emoji" font-size="11px" fill="#ffffff" text-anchor="middle" style="white-space: pre;" direction="ltr">WHERE level = ?</text></g><g stroke-linecap="round"><g transform="translate(1144 299) rotate(0 26 0)"><path d="M-1.17 0.85 C7.43 1.06, 43.24 0.15, 51.92 0.21 M0.42 0.26 C8.83 0.16, 42.13 -1.67, 50.93 -1.8" stroke="#58a6ff" stroke-width="1" fill="none"></path></g><g transform="translate(1144 299) rotate(0 26 0)"><path d="M28.26 7.84 C35.16 3.15, 44.7 3.23, 52.14 -2.4 M26.25 7.48 C35.66 5.51, 44.81 1.64, 51.02 -1.14" stroke="#58a6ff" stroke-width="1" fill="none"></path></g><g transform="translate(1144 299) rotate(0 26 0)"><path d="M27.61 -9.93 C34.58 -8.79, 44.32 -2.88, 52.14 -2.4 M25.59 -10.29 C35.39 -5.96, 44.77 -3.54, 51.02 -1.14" stroke="#58a6ff" stroke-width="1" fill="none"></path></g></g><g stroke-linecap="round" transform="translate(1200 289) rotate(0 110 12)"><path d="M-0.11 -0.63 L220.71 -1.7 L220.17 24.68 L0.52 22.79" stroke="none" stroke-width="0" fill="#0d2c5a"></path><path d="M-0.2 0.09 C60.42 -1.14, 116.28 0.14, 219.92 1.26 M0.6 0.39 C60.3 -1.67, 121.23 -0.86, 220.33 -0.76 M218.53 -1.67 C220.09 6.69, 219.53 13.29, 219.82 22.86 M219.63 -0.95 C220.67 6.27, 221.09 12.07, 219.77 24.38 M220.11 25.16 C144.67 24.02, 66.62 25.71, 1.44 25.18 M220.1 24.51 C143.88 24.89, 67.16 23.82, -0.36 24.4 M1.26 25.19 C0.91 16.4, 0.01 6.94, 0.57 -1.24 M0.27 24.11 C-0.26 18.19, -0.22 14.13, 0.88 -0.77" stroke="#58a6ff" stroke-width="2" fill="none"></path></g><g transform="translate(1259.3065567016602 294.125) rotate(0 50.693443298339844 6.875)"><text x="50.693443298339844" y="NaN" font-family="Virgil, Segoe UI Emoji" font-size="11px" fill="#ffffff" text-anchor="middle" style="white-space: pre;" direction="ltr">WHERE service = ?</text></g><g stroke-linecap="round"><g transform="translate(1144 329) rotate(0 26 0)"><path d="M-0.96 -0.02 C7.68 0.02, 43.79 0.92, 52.78 0.82 M0.74 -1.08 C9.21 -1.42, 43.58 -1.12, 52.24 -0.87" stroke="#58a6ff" stroke-width="1" fill="none"></path></g><g transform="translate(1144 329) rotate(0 26 0)"><path d="M27.63 8.92 C38.25 6.23, 45.17 1.75, 50.3 -0.58 M26.79 8.61 C34.08 6.74, 39.49 4.3, 52.78 -1.69" stroke="#58a6ff" stroke-width="1" fill="none"></path></g><g transform="translate(1144 329) rotate(0 26 0)"><path d="M27.93 -8.86 C38.52 -4.85, 45.33 -2.64, 50.3 -0.58 M27.08 -9.17 C34.18 -7, 39.51 -5.39, 52.78 -1.69" stroke="#58a6ff" stroke-width="1" fill="none"></path></g></g><g stroke-linecap="round" transform="translate(1200 319) rotate(0 110 12)"><path d="M0.27 -0.66 L219.07 -0.23 L219.63 25.78 L1.56 23.66" stroke="none" stroke-width="0" fill="#0d2c5a"></path><path d="M-1.29 -0.17 C60.04 -0.34, 118.77 -1.21, 219.49 -0.19 M0.82 0.71 C65.47 0.66, 132.18 1.04, 219.97 0.3 M218.18 0.2 C219.51 6.92, 218.9 11.78, 221.5 22.16 M219.01 0.71 C220.36 5, 219.92 9.26, 220.39 23.85 M220.85 23.05 C138.49 22.29, 55.73 24.98, -0.25 24.66 M219.6 23.75 C161.86 22.68, 103.37 22.91, 0.57 23.45 M0.99 22.62 C-0.71 12.87, 0.16 6.09, -1.7 -0.3 M0.49 23.85 C0.55 14.55, -0.2 4.58, -0.28 -0.35" stroke="#58a6ff" stroke-width="2" fill="none"></path></g><g transform="translate(1253.7295608520508 324.125) rotate(0 56.27043914794922 6.875)"><text x="56.27043914794922" y="NaN" font-family="Virgil, Segoe UI Emoji" font-size="11px" fill="#ffffff" text-anchor="middle" style="white-space: pre;" direction="ltr">WHERE trace_id = ?</text></g><g stroke-linecap="round"><g transform="translate(1144 359) rotate(0 26 0)"><path d="M-1.1 -0.53 C7.31 -0.56, 42.64 0.07, 51.3 0.17 M0.52 1.81 C9.26 1.96, 44.87 1.86, 53.64 1.79" stroke="#58a6ff" stroke-width="1" fill="none"></path></g><g transform="translate(1144 359) rotate(0 26 0)"><path d="M28.36 9.62 C38.43 5.78, 47.18 3.08, 55.34 2.4 M28.55 10.69 C36.59 9.42, 42.65 6.15, 53.82 2.23" stroke="#58a6ff" stroke-width="1" fill="none"></path></g><g transform="translate(1144 359) rotate(0 26 0)"><path d="M28.29 -8.16 C38.44 -5.5, 47.22 -1.68, 55.34 2.4 M28.47 -7.1 C36.54 -3.72, 42.62 -2.33, 53.82 2.23" stroke="#58a6ff" stroke-width="1" fill="none"></path></g></g><g stroke-linecap="round" transform="translate(1200 349) rotate(0 110 12)"><path d="M-0.84 1.56 L221.5 0.59 L219.24 23.47 L-0.59 23.93" stroke="none" stroke-width="0" fill="#0d2c5a"></path><path d="M0.56 0.18 C81.06 2.4, 163.92 0.11, 220.61 0.11 M-0.07 0.14 C83.4 2.7, 167.38 2.58, 220.03 -0.27 M218.3 -1.09 C221.83 6.39, 218.64 15.52, 221.45 22.62 M220.65 -0.18 C219.21 9.83, 220.23 17.44, 219.37 24.87 M220.76 24.92 C168.56 24.51, 113.84 23.15, -0.42 23.14 M220.05 24.19 C147.84 26.47, 75.65 25.04, -0.55 23.36 M-1.5 22.24 C-1.08 15.05, -1.04 7.24, 1.55 0.83 M0.07 23.44 C-0.08 19.45, -0.99 13.84, 0.45 0.23" stroke="#58a6ff" stroke-width="2" fill="none"></path></g><g transform="translate(1257.1560592651367 354.125) rotate(0 52.84394073486328 6.875)"><text x="52.84394073486328" y="NaN" font-family="Virgil, Segoe UI Emoji" font-size="11px" fill="#ffffff" text-anchor="middle" style="white-space: pre;" direction="ltr">WHERE user_id = ?</text></g><g stroke-linecap="round"><g transform="translate(1144 389) rotate(0 26 0)"><path d="M-0.59 0.85 C8.05 0.93, 42.87 -0.18, 51.67 -0.23 M1.31 0.24 C9.77 0.57, 42.17 1.48, 50.55 1.18" stroke="#58a6ff" stroke-width="1" fill="none"></path></g><g transform="translate(1144 389) rotate(0 26 0)"><path d="M27.52 9.5 C32.82 7.98, 41.13 6.65, 52.51 1.11 M25.62 10.17 C33.25 6.97, 41.02 4.56, 50.54 1.5" stroke="#58a6ff" stroke-width="1" fill="none"></path></g><g transform="translate(1144 389) rotate(0 26 0)"><path d="M27.53 -8.28 C32.72 -4.67, 41.03 -0.88, 52.51 1.11 M25.63 -7.62 C33.41 -5.13, 41.18 -1.85, 50.54 1.5" stroke="#58a6ff" stroke-width="1" fill="none"></path></g></g><g stroke-linecap="round" transform="translate(1200 379) rotate(0 110 12)"><path d="M-0.36 -0.58 L219.99 -1.49 L221.67 24.42 L-1.24 22.75" stroke="none" stroke-width="0" fill="#0d2c5a"></path><path d="M0.83 0.01 C68.82 0.9, 141.81 1.6, 219.21 1.63 M0.8 -0.7 C69.07 -0.29, 136.84 -0.25, 219.75 0.41 M220.35 -1.72 C221.41 5.73, 221.65 14.75, 220.75 25.37 M219.83 0.09 C219.93 8.41, 220.26 14.1, 220.31 24.85 M218.39 22.59 C164.55 23.99, 110.61 21.69, 1.54 23.2 M220.6 24.31 C169 23.79, 118.39 24.41, -0.42 23.19 M-0.25 24.51 C1.15 17.12, -0.13 14.23, 1.31 0.96 M-0.59 24.26 C-0.84 19.34, 0.06 14.29, -0.79 0.96" stroke="#58a6ff" stroke-width="2" fill="none"></path></g><g transform="translate(1254.7250595092773 384.125) rotate(0 55.274940490722656 6.875)"><text x="55.274940490722656" y="NaN" font-family="Virgil, Segoe UI Emoji" font-size="11px" fill="#ffffff" text-anchor="middle" style="white-space: pre;" direction="ltr">WHERE order_id = ?</text></g><g stroke-linecap="round"><g transform="translate(1144 419) rotate(0 26 0)"><path d="M-0.93 -0.83 C7.94 -1.09, 43.26 -1.19, 52.09 -1.03 M0.78 1.35 C9.59 1.16, 42.77 -0.07, 51.18 -0.04" stroke="#58a6ff" stroke-width="1" fill="none"></path></g><g transform="translate(1144 419) rotate(0 26 0)"><path d="M25.55 9.47 C30.22 7.58, 37.21 5.49, 51.98 1 M26.19 9.16 C35.71 5.93, 43.34 3.74, 50.71 0.02" stroke="#58a6ff" stroke-width="1" fill="none"></path></g><g transform="translate(1144 419) rotate(0 26 0)"><path d="M25.2 -8.31 C30.02 -6.49, 37.08 -4.88, 51.98 1 M25.84 -8.62 C35.55 -5.68, 43.29 -1.7, 50.71 0.02" stroke="#58a6ff" stroke-width="1" fill="none"></path></g></g><g stroke-linecap="round" transform="translate(1200 409) rotate(0 110 12)"><path d="M-0.69 1.12 L221.95 0.08 L221.09 23.83 L-0.23 24.08" stroke="none" stroke-width="0" fill="#0d2c5a"></path><path d="M-0.09 1.06 C82.31 -0.42, 165.19 0.5, 218.38 -1.34 M0.71 0.66 C44.51 -1.42, 88.85 -0.22, 219.97 -0.83 M220.35 0.94 C221.2 7.19, 220.4 15.49, 221.66 23.93 M220.77 0.37 C219.3 5.33, 219.25 9.79, 219.67 23.54 M218.59 24.41 C137.82 23.1, 54.91 22.3, -0.88 22.92 M220.71 23.78 C164.87 25.02, 110.24 25.34, 0.84 23.5 M0.83 24.73 C1.66 18.4, 0.64 13.65, -1.51 -1.7 M0.14 23.82 C0.47 14.11, -0.32 4.9, 0.31 0.38" stroke="#58a6ff" stroke-width="2" fill="none"></path></g><g transform="translate(1264.3665466308594 414.125) rotate(0 45.633453369140625 6.875)"><text x="45.633453369140625" y="NaN" font-family="Virgil, Segoe UI Emoji" font-size="11px" fill="#ffffff" text-anchor="middle" style="white-space: pre;" direction="ltr">WHERE error = ?</text></g><g stroke-linecap="round"><g transform="translate(1144 449) rotate(0 26 0)"><path d="M-0.24 -0.22 C8.49 -0.2, 43.37 0.87, 51.91 1.04 M-1.83 -1.38 C6.79 -1.76, 41.71 -0.58, 50.91 -0.54" stroke="#58a6ff" stroke-width="1" fill="none"></path></g><g transform="translate(1144 449) rotate(0 26 0)"><path d="M25.95 7.72 C34.32 4.1, 40.27 4.38, 50.46 -0.17 M25.58 6.9 C34.27 5.67, 43.92 1.47, 51.05 -0.65" stroke="#58a6ff" stroke-width="1" fill="none"></path></g><g transform="translate(1144 449) rotate(0 26 0)"><path d="M26.3 -10.06 C34.72 -9.09, 40.58 -4.23, 50.46 -0.17 M25.93 -10.88 C34.68 -6.02, 44.21 -4.12, 51.05 -0.65" stroke="#58a6ff" stroke-width="1" fill="none"></path></g></g><g stroke-linecap="round" transform="translate(1200 439) rotate(0 110 12)"><path d="M1.2 1.64 L218.14 1.86 L220.69 24.33 L-1.7 22.01" stroke="none" stroke-width="0" fill="#0d2c5a"></path><path d="M0.38 1.4 C69.07 -2.03, 136.57 -0.83, 218.35 -1.44 M-0.04 -0.63 C58.39 -1.09, 116.99 -1.2, 219.87 0.09 M221.09 0.39 C221.9 5.43, 219.11 16.21, 219.68 23.92 M219.13 0.13 C219.71 7.89, 220.21 14.64, 220.4 24.51 M220.34 23.68 C166.11 22.42, 114.74 21.43, 0.01 23.91 M220.24 24.06 C137.01 24.96, 54.82 24.29, 0.24 24.33 M-1.51 23.96 C-1.9 17.35, -1.31 13.26, -1.92 1.07 M-0.14 24.99 C0.44 17.07, -0.61 10.91, 0.06 -0.99" stroke="#58a6ff" stroke-width="2" fill="none"></path></g><g transform="translate(1224.0515899658203 444.125) rotate(0 85.94841003417969 6.875)"><text x="85.94841003417969" y="NaN" font-family="Virgil, Segoe UI Emoji" font-size="11px" fill="#ffffff" text-anchor="middle" style="white-space: pre;" direction="ltr">WHERE downstream_service = ?</text></g><g stroke-linecap="round"><g transform="translate(1144 479) rotate(0 26 0)"><path d="M1.14 -0.22 C9.65 -0.35, 42.33 0.03, 50.91 -0.1 M0.28 -1.38 C9.15 -1.37, 44.39 1.2, 53.05 1.39" stroke="#58a6ff" stroke-width="1" fill="none"></path></g><g transform="translate(1144 479) rotate(0 26 0)"><path d="M27.83 7.22 C35.18 7.64, 40.83 4.13, 51.62 3.14 M28.59 8.98 C35.61 6.92, 41.91 4.17, 52.06 1.09" stroke="#58a6ff" stroke-width="1" fill="none"></path></g><g transform="translate(1144 479) rotate(0 26 0)"><path d="M28.72 -10.54 C35.91 -4.98, 41.31 -3.34, 51.62 3.14 M29.48 -8.78 C36.07 -5.63, 42.11 -3.18, 52.06 1.09" stroke="#58a6ff" stroke-width="1" fill="none"></path></g></g><g stroke-linecap="round" transform="translate(1200 469) rotate(0 110 12)"><path d="M-1.9 -1.76 L219.95 -1.86 L221.07 22.45 L0.42 23.61" stroke="none" stroke-width="0" fill="#0d2c5a"></path><path d="M1.6 -0.41 C47.28 2.54, 94.27 2.13, 219.84 -1.53 M0.47 0.6 C75.37 0.29, 152.54 0.55, 220.19 0.68 M219.98 -1.79 C221.46 6, 219.74 14.54, 218.59 24.96 M220.85 0.95 C219.67 6.36, 220.7 12.27, 219.33 23.16 M221.16 24.57 C171.51 23.64, 124.95 21.92, -0.62 25.12 M220.39 23.52 C169.39 25.74, 120.12 26.3, 0.43 23.15 M-0.62 23.85 C-0.77 17.12, -0.91 7.31, -1.07 0 M0.65 24.02 C0.85 17.61, 0.41 12.89, -0.01 -0.9" stroke="#58a6ff" stroke-width="2" fill="none"></path></g><g transform="translate(1247.366065979004 474.125) rotate(0 62.633934020996094 6.875)"><text x="62.633934020996094" y="NaN" font-family="Virgil, Segoe UI Emoji" font-size="11px" fill="#ffffff" text-anchor="middle" style="white-space: pre;" direction="ltr">WHERE latency_ms = ?</text></g><g stroke-linecap="round" transform="translate(780 547) rotate(0 330 45)"><path d="M1.93 1.13 L661.56 1.12 L659.46 89.23 L1.48 88.01" stroke="none" stroke-width="0" fill="#3a5d1d"></path><path d="M0.05 -0.43 C148.78 2.17, 298.23 0.84, 659.95 0.58 M-0.12 0.38 C174.17 0.3, 348.59 0.12, 660.03 -0.31 M659.51 -1.78 C657.52 28.81, 660.08 58.22, 658.1 90.46 M659.61 -0.6 C658.98 26.9, 658.33 53.63, 660.51 89.92 M660.33 89.37 C476.33 89.95, 292.11 90.56, 0.05 90.54 M660.12 89.61 C455.22 88.49, 250.72 88.63, -0.37 90.38 M-1.42 90.41 C-0.94 67.6, -1.67 44.96, -0.94 -0.91 M0.22 90.74 C-0.64 55.64, -0.69 20.03, -0.14 0.7" stroke="#6dbf3a" stroke-width="2" fill="none"></path></g><g transform="translate(800 555) rotate(0 123.4573745727539 9.375)"><text x="0" y="NaN" font-family="Virgil, Segoe UI Emoji" font-size="15px" fill="#3fb950" text-anchor="start" style="white-space: pre;" direction="ltr">Query: 'errors per minute by user'</text></g><g transform="translate(800 581) rotate(0 98.23092651367188 8.75)"><text x="0" y="NaN" font-family="Virgil, Segoe UI Emoji" font-size="14px" fill="#c9d1d9" text-anchor="start" style="white-space: pre;" direction="ltr">SELECT count(*) FROM logs</text></g><g transform="translate(800 603) rotate(0 266.76971435546875 8.75)"><text x="0" y="NaN" font-family="Virgil, Segoe UI Emoji" font-size="14px" fill="#c9d1d9" text-anchor="start" style="white-space: pre;" direction="ltr">WHERE level='ERROR' AND service='order-service' GROUP BY user_id, minute</text></g><g stroke-linecap="round" transform="translate(10 667) rotate(0 730 50)"><path d="M0.19 1.77 L1459.68 -1.86 L1460.75 99.45 L1.5 99.03" stroke="none" stroke-width="0" fill="#161b22"></path><path d="M0.38 -0.6 C308.97 4.74, 617.48 4.08, 1460.5 0.44 M0.36 -0.02 C568.5 -0.67, 1137.52 -0.36, 1459.95 -0.09 M1459.72 -1.19 C1459.59 29.49, 1461.34 53.24, 1460.94 99.75 M1460.2 -0.15 C1459.56 34.58, 1459.22 69.73, 1459.12 100.92 M1460.19 100.2 C952.6 95.58, 445.63 94.92, -0.62 99.72 M1459.81 99.88 C980.16 98.17, 500.07 98.25, -0.37 99.64 M1.13 98.85 C-0.29 73.08, -1.81 48.16, -0.27 0.68 M-0.78 99.9 C1.55 76.99, 0.77 55.9, 0.88 -0.38" stroke="#ff8c42" stroke-width="2" fill="none"></path></g><g transform="translate(30 679) rotate(0 486.79962158203125 12.5)"><text x="0" y="NaN" font-family="Virgil, Segoe UI Emoji" font-size="20px" fill="#e6edf3" text-anchor="start" style="white-space: pre;" direction="ltr">Same event.  3 fragile regexes  vs  9 indexed fields.  Distributed systems demand the right side.</text></g><g transform="translate(30 713) rotate(0 414.32958984375 8.75)"><text x="0" y="NaN" font-family="Virgil, Segoe UI Emoji" font-size="14px" fill="#c9d1d9" text-anchor="start" style="white-space: pre;" direction="ltr">Unstructured falls apart at log volume - format drift breaks parsers, queries scale O(bytes), aggregations need ETL.</text></g><g transform="translate(30 735) rotate(0 379.1756286621094 8.75)"><text x="0" y="NaN" font-family="Virgil, Segoe UI Emoji" font-size="14px" fill="#3fb950" text-anchor="start" style="white-space: pre;" direction="ltr">Structured turns logs into a queryable database: indexed fields, group-by aggregations, joinable on trace_id.</text></g></svg>