<svg version="1.1" xmlns="http://www.w3.org/2000/svg" viewBox="0 0 1480 865" width="1480" height="865">
  <!-- svg-source:excalidraw -->
  
  <defs>
    <style>
      @font-face {
        font-family: "Virgil";
        src: url("https://excalidraw.com/Virgil.woff2");
      }
      @font-face {
        font-family: "Cascadia";
        src: url("https://excalidraw.com/Cascadia.woff2");
      }
    </style>
  </defs>
  <rect x="0" y="0" width="1480" height="865" fill="#0d1117"></rect><g transform="translate(10 10) rotate(0 400.203857421875 17.5)"><text x="0" y="NaN" font-family="Virgil, Segoe UI Emoji" font-size="28px" fill="#ff8c42" text-anchor="start" style="white-space: pre;" direction="ltr">Correlation: trace_id turns three tools into one debugger</text></g><g transform="translate(10 50) rotate(0 354.07574462890625 10.625)"><text x="0" y="NaN" font-family="Virgil, Segoe UI Emoji" font-size="17px" fill="#c9d1d9" text-anchor="start" style="white-space: pre;" direction="ltr">Alert -&gt; trace -&gt; log, joined by one ID. Without the thread, each pillar is an island.</text></g><g stroke-linecap="round" transform="translate(10 115) rotate(0 220 30)"><path d="M-0.95 -1.56 L440.23 -0.65 L441.56 61.31 L-1.04 61.39" stroke="none" stroke-width="0" fill="#0d2c5a"></path><path d="M-0.96 0.27 C175.06 -0.23, 351.92 -0.38, 439.32 1 M-0.43 0.45 C93 -1.68, 185.59 -1.53, 440.09 -0.17 M441.34 1.29 C440.3 17.14, 440.81 36.34, 441.74 61.01 M440.39 -0.41 C440.32 18.02, 440.12 36.88, 439.68 59.42 M439.39 59.05 C300.88 60.46, 162.89 61.09, 0.31 59.51 M439.7 60.24 C339.83 59.99, 240.56 60.91, -0.42 60.22 M1.57 58.52 C0.44 45.15, 0.67 29.4, 1.5 -1.86 M-0.34 60.7 C1 42.02, 1.05 23.87, 0.1 -0.71" stroke="#58a6ff" stroke-width="2" fill="none"></path></g><g transform="translate(173.37203216552734 130) rotate(0 56.627967834472656 15)"><text x="56.627967834472656" y="NaN" font-family="Virgil, Segoe UI Emoji" font-size="24px" fill="#ffffff" text-anchor="middle" style="white-space: pre;" direction="ltr">METRICS</text></g><g transform="translate(151.49506378173828 181) rotate(0 78.50493621826172 8.75)"><text x="78.50493621826172" y="NaN" font-family="Virgil, Segoe UI Emoji" font-size="14px" fill="#8b949e" text-anchor="middle" style="white-space: pre;" direction="ltr">Prometheus / Grafana</text></g><g stroke-linecap="round" transform="translate(520 115) rotate(0 220 30)"><path d="M-0.94 -0.77 L441.64 1.22 L440.36 58.15 L-0.03 58.71" stroke="none" stroke-width="0" fill="#5c3a10"></path><path d="M0.04 -0.49 C116 -2.78, 234.57 -2.22, 440.78 -0.39 M0.3 0.03 C135.57 0.5, 271.56 0.25, 440.09 0.31 M439.37 1.58 C440.98 24.5, 440.85 47.17, 441.03 60.05 M440.51 -0.84 C439.37 16.7, 439.7 33.78, 439.74 59.67 M440.74 59.04 C308.59 57.99, 179.68 57.76, 0.15 59.43 M440.32 59.71 C333.11 61.94, 226.61 61.51, -0.26 60.48 M1.85 61.23 C-1.2 40.86, -0.74 22.79, 0.58 0.92 M0.5 60.9 C0.03 46.87, 0.64 35.7, -0.74 0.53" stroke="#f0883e" stroke-width="2" fill="none"></path></g><g transform="translate(691.2320251464844 130) rotate(0 48.767974853515625 15)"><text x="48.767974853515625" y="NaN" font-family="Virgil, Segoe UI Emoji" font-size="24px" fill="#ffffff" text-anchor="middle" style="white-space: pre;" direction="ltr">TRACES</text></g><g transform="translate(685.0010375976562 181) rotate(0 54.99896240234375 8.75)"><text x="54.99896240234375" y="NaN" font-family="Virgil, Segoe UI Emoji" font-size="14px" fill="#8b949e" text-anchor="middle" style="white-space: pre;" direction="ltr">Jaeger / Tempo</text></g><g stroke-linecap="round" transform="translate(1030 115) rotate(0 220 30)"><path d="M0.75 -1.02 L441.08 1.34 L441.17 59.02 L1.64 59.6" stroke="none" stroke-width="0" fill="#3a5d1d"></path><path d="M-0.89 0.96 C149.9 1.16, 301.86 -0.21, 439.45 -0.03 M-0.09 0.35 C95.06 2, 191.13 1.9, 440.33 0.11 M439.63 1.11 C439.32 14.06, 437.87 27.46, 441.67 61.87 M440.25 0.63 C439.35 17.79, 440.66 33.59, 440.25 60.74 M440.11 60.42 C293.94 60.35, 146.18 60.18, -0.21 59.05 M440.06 59.87 C272.54 60.48, 105.31 60.5, 0.06 60.2 M1.8 60.39 C1.09 39.92, -2.05 18.95, 0.96 -1.56 M0.59 59.43 C-0.16 44.63, 0.27 26.54, 0.97 0.8" stroke="#6dbf3a" stroke-width="2" fill="none"></path></g><g transform="translate(1217.3360137939453 130) rotate(0 32.66398620605469 15)"><text x="32.66398620605469" y="NaN" font-family="Virgil, Segoe UI Emoji" font-size="24px" fill="#ffffff" text-anchor="middle" style="white-space: pre;" direction="ltr">LOGS</text></g><g transform="translate(1180.175064086914 181) rotate(0 69.82493591308594 8.75)"><text x="69.82493591308594" y="NaN" font-family="Virgil, Segoe UI Emoji" font-size="14px" fill="#8b949e" text-anchor="middle" style="white-space: pre;" direction="ltr">Loki / Elasticsearch</text></g><g stroke-opacity="0.7" fill-opacity="0.7" stroke-linecap="round" transform="translate(10 210) rotate(0 220 260)"><path d="M1.79 -1.54 L439.08 0.5 L441.95 520.56 L0.87 521.6" stroke="none" stroke-width="0" fill="#161b22"></path><path d="M0.85 0.44 C126.49 -2.54, 253.6 -2.34, 439.56 0.14 M439.89 -0.52 C438.93 104.5, 439.27 210.37, 440.13 519.35 M439.87 520.35 C282.99 520.67, 124.4 520.58, 0.34 520.95 M0.28 520.62 C2.09 318.88, 0.81 118.03, 0.14 0.23" stroke="#30363d" stroke-width="2.5" fill="none" stroke-dasharray="8 10"></path></g><g stroke-opacity="0.7" fill-opacity="0.7" stroke-linecap="round" transform="translate(520 210) rotate(0 228.02268572580988 260)"><path d="M0.64 -0.05 L457.91 -1.39 L454.47 518.29 L-1.73 519.31" stroke="none" stroke-width="0" fill="#161b22"></path><path d="M0.26 -0.47 C94.66 -2.33, 187.61 -1.29, 455.65 -0.05 M455.41 -0.28 C455.35 114.33, 456.26 228.3, 456.12 520.1 M456.7 519.47 C352.13 518.23, 250.74 519.62, 0.41 520.62 M-0.55 520.38 C-2.35 322.73, -1.98 125.36, -0.54 -0.16" stroke="#30363d" stroke-width="2.5" fill="none" stroke-dasharray="8 10"></path></g><g stroke-opacity="0.7" fill-opacity="0.7" stroke-linecap="round" transform="translate(1030 210) rotate(0 220 260)"><path d="M1.1 0.93 L440.56 -1.35 L440.5 518.33 L1.67 520.3" stroke="none" stroke-width="0" fill="#161b22"></path><path d="M0.03 0.58 C161.34 1.21, 322.29 0.28, 439.29 -0.2 M439.82 -0.51 C440.12 194.6, 441.39 389.38, 439.4 519.36 M440.89 520.46 C295.84 518.05, 153.81 519.12, -0.47 519.16 M-0.78 519.6 C-0.23 344.3, -0.18 168.62, -0.57 0.65" stroke="#30363d" stroke-width="2.5" fill="none" stroke-dasharray="8 10"></path></g><g stroke-linecap="round" transform="translate(30 240) rotate(0 200 55)"><path d="M0.53 0.07 L401.47 -1.75 L400.83 108.68 L0.2 108.57" stroke="none" stroke-width="0" fill="#4a1219"></path><path d="M0.98 0.7 C138.57 -0.21, 277.84 -0.38, 399.24 0.82 M0.01 -0.13 C99.84 2.17, 198.81 1.85, 400.12 -0.06 M401.04 -1.91 C399.59 32.75, 401.1 67.72, 400.28 108.99 M400.76 -0.75 C398.54 28.09, 398.7 55.89, 400.19 110.75 M400.57 110.51 C273.8 111.76, 147.64 110.99, -0.01 109.15 M399.87 109.49 C318.5 111.87, 236.05 110.87, -0.45 110.07 M0.97 109.96 C0.06 66.82, 0.25 21.37, -1.79 0.46 M-0.61 110.31 C-0.12 87.98, 0.01 64.9, 0.98 0.08" stroke="#f85149" stroke-width="2" fill="none"></path></g><g transform="translate(45 252) rotate(0 144.35189819335938 10)"><text x="0" y="NaN" font-family="Virgil, Segoe UI Emoji" font-size="16px" fill="#f85149" text-anchor="start" style="white-space: pre;" direction="ltr">ALERT  p99_latency_seconds &gt; 0.5</text></g><g transform="translate(45 280) rotate(0 83.68492889404297 26.25)"><text x="0" y="NaN" font-family="Virgil, Segoe UI Emoji" font-size="14px" fill="#c9d1d9" text-anchor="start" style="white-space: pre;" direction="ltr">service="order-service"</text><text x="0" y="NaN" font-family="Virgil, Segoe UI Emoji" font-size="14px" fill="#c9d1d9" text-anchor="start" style="white-space: pre;" direction="ltr">route="POST /checkout"</text><text x="0" y="NaN" font-family="Virgil, Segoe UI Emoji" font-size="14px" fill="#c9d1d9" text-anchor="start" style="white-space: pre;" direction="ltr">14:23:01  fired</text></g><g stroke-linecap="round" transform="translate(30 375) rotate(0 200 65)"><path d="M0.58 -1.6 L400.05 1.83 L399.24 131.32 L-1.44 128.8" stroke="none" stroke-width="0" fill="#0f1419"></path><path d="M-1.03 -0.39 C107.35 -1.75, 214.51 -0.09, 400.57 -0.28 M0.51 0.37 C108.49 -2.12, 216.22 -1.53, 400.38 0.51 M398.25 -0.6 C401.98 45.14, 400.13 86.48, 401.13 131.74 M400.46 0.03 C400.65 45.21, 399.83 87.94, 399.33 130.83 M400.42 129.87 C298.98 131.76, 198.42 131.24, 1.02 129.06 M399.44 130.14 C290.07 131.21, 180.09 131.18, 0.19 129.69 M-1.7 128.77 C1.38 93.42, 0.9 57.19, 0.8 -0.78 M0.61 130.54 C1.03 87.14, 1.16 44.67, -0.69 0.08" stroke="#58a6ff" stroke-width="2" fill="none"></path></g><g transform="translate(42 383) rotate(0 79.23491668701172 8.125)"><text x="0" y="NaN" font-family="Virgil, Segoe UI Emoji" font-size="13px" fill="#8b949e" text-anchor="start" style="white-space: pre;" direction="ltr">p99 latency (last 15 min)</text></g><g stroke-linecap="round"><g transform="translate(50 495) rotate(0 20 -2.5)"><path d="M-0.78 -0.79 C5.96 -1.83, 34.09 -5.01, 40.87 -5.77 M1 1.41 C7.63 0.47, 34.03 -3.7, 40.38 -4.64" stroke="#58a6ff" stroke-width="2" fill="none"></path></g></g><g stroke-linecap="round"><g transform="translate(90 490) rotate(0 20 1)"><path d="M0.28 -0.55 C6.94 0.1, 32.64 2.55, 39.31 3.17 M-1.04 1.77 C6.07 2.18, 34.87 1.72, 41.66 1.66" stroke="#58a6ff" stroke-width="2" fill="none"></path></g></g><g stroke-linecap="round"><g transform="translate(130 492) rotate(0 20 -6)"><path d="M-0.87 -0.93 C5.56 -2.95, 32.2 -9.24, 39 -11.24 M0.88 1.2 C7.63 -1.24, 34.81 -10.75, 41.19 -12.97" stroke="#58a6ff" stroke-width="2" fill="none"></path></g></g><g stroke-linecap="round"><g transform="translate(170 480) rotate(0 20 -10)"><path d="M0.84 -0.93 C7.58 -4.29, 34.16 -16.56, 40.74 -19.79 M-0.17 1.2 C6.45 -2.59, 33.52 -18.41, 40.19 -21.8" stroke="#58a6ff" stroke-width="2" fill="none"></path></g></g><g stroke-linecap="round"><g transform="translate(210 460) rotate(0 20 -12.5)"><path d="M0.41 -0.97 C7.29 -5.24, 33.74 -21.73, 40.45 -25.89 M-0.83 1.13 C6 -2.99, 32.89 -20.45, 39.74 -24.81" stroke="#58a6ff" stroke-width="2" fill="none"></path></g></g><g stroke-linecap="round"><g transform="translate(250 435) rotate(0 20 -6.5)"><path d="M0.59 0.41 C7.06 -1.42, 32.79 -9.98, 39.19 -12.13 M-0.56 -0.42 C6.25 -2.48, 34.5 -11.43, 41.47 -13.79" stroke="#58a6ff" stroke-width="2" fill="none"></path></g></g><g stroke-linecap="round"><g transform="translate(290 422) rotate(0 20 4)"><path d="M0.32 0.8 C6.95 1.99, 34.45 6.39, 40.89 7.41 M-0.97 0.17 C5.48 1.49, 33.36 7.39, 40.4 8.63" stroke="#58a6ff" stroke-width="2" fill="none"></path></g></g><g stroke-linecap="round"><g transform="translate(330 430) rotate(0 20 7.5)"><path d="M0.07 -0.67 C6.51 1.59, 32.68 11.81, 39.4 14.57 M-1.35 1.6 C5.43 4.54, 34.94 13.81, 41.8 15.89" stroke="#58a6ff" stroke-width="2" fill="none"></path></g></g><g stroke-linecap="round"><g transform="translate(370 445) rotate(0 20 5)"><path d="M-0.02 -0.06 C6.63 1.35, 32.36 7.77, 38.91 9.51 M-1.5 -1.13 C5.6 0.95, 33.83 9.22, 41.04 10.79" stroke="#58a6ff" stroke-width="2" fill="none"></path></g></g><g stroke-linecap="round"><g transform="translate(50 425) rotate(0 180 0)"><path d="M0.36 -1.14 C60.35 -1.34, 300.25 -0.83, 360.03 -0.79" stroke="#f85149" stroke-width="1.5" fill="none" stroke-dasharray="8 9"></path></g></g><g transform="translate(340 413) rotate(0 19.019981384277344 7.5)"><text x="0" y="NaN" font-family="Virgil, Segoe UI Emoji" font-size="12px" fill="#f85149" text-anchor="start" style="white-space: pre;" direction="ltr">500ms</text></g><g stroke-linecap="round" transform="translate(283 415) rotate(0 7 7)"><path d="M-0.33 -1.62 L13.31 -0.21 L15.96 15.54 L-1.57 15.23" stroke="none" stroke-width="0" fill="#6dbf3a"></path><path d="M1.01 -1.25 C3.38 1.35, 7.96 0.98, 13.68 0.21 M-0.31 0.41 C4.72 0.54, 11.06 -0.05, 14.15 -0.66 M13.2 1.16 C13.31 4.4, 14.05 8.75, 14.6 14.23 M13.42 0.17 C13.85 5.5, 14.16 10, 14.44 13.61 M13.78 15.06 C10.76 14.45, 8.79 13.69, 0.15 14.21 M13.47 13.97 C8.12 14.01, 3.01 14.05, 0.47 14.4 M-0.03 13.71 C-1.14 8.6, 1.08 5.72, 0.48 -1.12 M-0.28 13.77 C0.4 10.85, 0.23 6.56, 0.14 -0.28" stroke="#6dbf3a" stroke-width="2" fill="none"></path></g><g transform="translate(277 431) rotate(0 24.851966857910156 7.5)"><text x="0" y="NaN" font-family="Virgil, Segoe UI Emoji" font-size="12px" fill="#6dbf3a" text-anchor="start" style="white-space: pre;" direction="ltr">exemplar</text></g><g transform="translate(30 630) rotate(0 53.501441955566406 8.125)"><text x="0" y="NaN" font-family="Virgil, Segoe UI Emoji" font-size="13px" fill="#8b949e" text-anchor="start" style="white-space: pre;" direction="ltr">exemplar embeds:</text></g><g stroke-linecap="round" transform="translate(30 652) rotate(0 200 25)"><path d="M1.84 -0.29 L400.7 -0.12 L400.46 49.88 L-1.44 50.72" stroke="none" stroke-width="0" fill="#3a1d6e"></path><path d="M0.43 0.93 C141.48 -2.47, 282.33 -2.44, 399.45 -0.79 M-0.28 -0.45 C154.5 -1.32, 308.41 -1.41, 399.45 -0.5 M398.96 -0.67 C400.43 15.19, 402.14 30.06, 399.87 51.34 M400.97 -0.41 C400.28 16.25, 400.2 31.99, 399.1 49.5 M401.04 50.67 C285.48 49.9, 172.02 49.71, -0.24 49.27 M399.81 49.89 C262.97 50.11, 125.4 49.81, -0.11 50.08 M-0.18 49.26 C2.06 38.83, 1.85 24.03, -0.56 -1.03 M-0.13 49.94 C-0.74 36.58, 0.47 22.26, -0.26 -0.48" stroke="#a371f7" stroke-width="2" fill="none"></path></g><g transform="translate(90.83309936523438 665.75) rotate(0 139.16690063476562 11.25)"><text x="139.16690063476562" y="NaN" font-family="Virgil, Segoe UI Emoji" font-size="18px" fill="#ffffff" text-anchor="middle" style="white-space: pre;" direction="ltr">trace_id = 4bf92f3577b34da6</text></g><g transform="translate(540 232) rotate(0 105.01390075683594 8.75)"><text x="0" y="NaN" font-family="Virgil, Segoe UI Emoji" font-size="14px" fill="#8b949e" text-anchor="start" style="white-space: pre;" direction="ltr">Filter by service + time window</text></g><g transform="translate(540 252) rotate(0 92.9669189453125 8.75)"><text x="0" y="NaN" font-family="Virgil, Segoe UI Emoji" font-size="14px" fill="#8b949e" text-anchor="start" style="white-space: pre;" direction="ltr">-&gt; sorted by duration desc</text></g><g transform="translate(540 295) rotate(0 82.98490905761719 8.75)"><text x="0" y="NaN" font-family="Virgil, Segoe UI Emoji" font-size="14px" fill="#e6edf3" text-anchor="start" style="white-space: pre;" direction="ltr">Slowest trace in window:</text></g><g stroke-linecap="round" transform="translate(550 325) rotate(0 180.5 11)"><path d="M1.87 -0.1 L360.75 0.61 L359.86 20.51 L1.34 23.04" stroke="none" stroke-width="0" fill="#1f4d2b"></path><path d="M0.39 1.19 C84.84 -2.59, 172 -3.23, 361.6 -1.25 M0.27 -0.41 C91.69 0.92, 183.54 1.43, 361.44 0.41 M362.2 -1.76 C360.22 5.45, 362.18 11.72, 362.56 21.33 M360.84 -0.21 C361.13 6.54, 360.34 14.75, 360.08 21.92 M361.06 23.11 C260.06 25.31, 160.21 25.31, 0.04 21.93 M361.55 21.94 C225.46 20.11, 89.68 20.06, -0.35 21.75 M1.27 22.5 C-0.96 13.27, 0.41 6.28, -1.11 0.27 M0.86 21.47 C0.19 13.02, 0.54 6.38, -0.01 0.43" stroke="#3fb950" stroke-width="2" fill="none"></path></g><g transform="translate(550 327) rotate(0 75.78990936279297 6.875)"><text x="0" y="NaN" font-family="Virgil, Segoe UI Emoji" font-size="11px" fill="#c9d1d9" text-anchor="start" style="white-space: pre;" direction="ltr">POST /checkout (order-svc)</text></g><g transform="translate(936 327) rotate(0 18.204986572265625 6.875)"><text x="0" y="NaN" font-family="Virgil, Segoe UI Emoji" font-size="11px" fill="#8b949e" text-anchor="start" style="white-space: pre;" direction="ltr">380ms</text></g><g stroke-linecap="round" transform="translate(559.5 355) rotate(0 14.25 11)"><path d="M-1.29 0.31 L30.01 0.4 L28.84 23.17 L0.7 22.95" stroke="none" stroke-width="0" fill="#1f4d2b"></path><path d="M0.89 -0.07 C11.33 1.05, 21.4 -0.32, 29.23 -0.83 M-0.09 0.43 C8.77 -0.54, 16.84 -0.66, 28 0.6 M27.12 -1.21 C27.12 6.12, 27.43 9.98, 28.5 21.65 M28.73 -0.53 C28.7 5.24, 29.2 9.51, 28.94 22.57 M29.02 21.98 C20.72 22.52, 11.69 22.16, 0.84 21.82 M28.21 22.07 C22.02 22.12, 16.1 21.52, 0.55 21.1 M1.93 20.19 C-1.52 13.81, -1.45 7.85, 0.87 0.02 M-0.54 22.86 C-0.13 17.4, -0.8 11.61, 0.94 -0.66" stroke="#3fb950" stroke-width="2" fill="none"></path></g><g transform="translate(550 357) rotate(0 67.96340942382812 6.875)"><text x="0" y="NaN" font-family="Virgil, Segoe UI Emoji" font-size="11px" fill="#c9d1d9" text-anchor="start" style="white-space: pre;" direction="ltr">validate-cart (order-svc)</text></g><g transform="translate(936 357) rotate(0 13.997489929199219 6.875)"><text x="0" y="NaN" font-family="Virgil, Segoe UI Emoji" font-size="11px" fill="#8b949e" text-anchor="start" style="white-space: pre;" direction="ltr">30ms</text></g><g stroke-linecap="round" transform="translate(592.75 385) rotate(0 11.875 11)"><path d="M-1.32 -1.4 L24.26 0.94 L25.54 23.27 L-1.09 20.47" stroke="none" stroke-width="0" fill="#0d2c5a"></path><path d="M-0.71 -1.15 C7.15 -0.8, 13.72 1.25, 23.77 1.84 M0.48 0.44 C6.73 -0.55, 14.18 -0.71, 23.29 0.24 M25.18 0.14 C22.59 3.77, 24.29 10.01, 22.22 21.38 M24.61 0.11 C23 7.33, 23.3 11.81, 24.44 21.44 M25.04 23.73 C15.82 20.99, 6.87 20.72, -1.91 22.03 M24.03 22.49 C15.29 22.93, 5.03 21.87, 0.33 21.98 M1.61 21.76 C-0.25 15.92, -0.83 11.12, 1.49 -1.99 M-0.92 21.17 C-0.45 16.07, -0.02 10.92, -0.57 -0.92" stroke="#58a6ff" stroke-width="2" fill="none"></path></g><g transform="translate(550 387) rotate(0 63.18391418457031 6.875)"><text x="0" y="NaN" font-family="Virgil, Segoe UI Emoji" font-size="11px" fill="#c9d1d9" text-anchor="start" style="white-space: pre;" direction="ltr">inventory.check (inv-svc)</text></g><g transform="translate(936 387) rotate(0 13.782981872558594 6.875)"><text x="0" y="NaN" font-family="Virgil, Segoe UI Emoji" font-size="11px" fill="#8b949e" text-anchor="start" style="white-space: pre;" direction="ltr">25ms</text></g><g stroke-linecap="round" transform="translate(626 415) rotate(0 133 11)"><path d="M0.91 0.57 L267.16 1.37 L265.58 22.91 L0.47 21.64" stroke="none" stroke-width="0" fill="#4a1219"></path><path d="M-0.09 0.45 C70.35 -1.91, 140.23 -0.18, 266.56 -0.69 M-0.49 -0.73 C55.16 1.93, 109.24 1.69, 265.36 -0.37 M264.63 0.24 C264.25 10.35, 264.54 17.6, 264.51 22.54 M265.56 -0.95 C265.47 5.71, 266.12 10.94, 265.39 21.77 M266.28 20.96 C182.13 21.78, 97.04 20.68, 0.03 22.88 M265.6 22.36 C189.18 20.96, 111.81 20.89, -0.74 22.44 M-0.82 20.25 C1.42 13.47, 1.32 9.96, 1.76 0.08 M-0.97 21.29 C-0.09 15.45, -0.39 9.22, 0.33 -0.77" stroke="#f85149" stroke-width="2" fill="none"></path></g><g transform="translate(550 417) rotate(0 78.80940246582031 6.875)"><text x="0" y="NaN" font-family="Virgil, Segoe UI Emoji" font-size="11px" fill="#c9d1d9" text-anchor="start" style="white-space: pre;" direction="ltr">payment.charge (payment-svc)</text></g><g transform="translate(936 417) rotate(0 18.37548065185547 6.875)"><text x="0" y="NaN" font-family="Virgil, Segoe UI Emoji" font-size="11px" fill="#8b949e" text-anchor="start" style="white-space: pre;" direction="ltr">280ms</text></g><g stroke-linecap="round" transform="translate(901.5 445) rotate(0 10 11)"><path d="M-0.76 -1.84 L19.08 1.66 L21.53 21.36 L1.96 21.99" stroke="none" stroke-width="0" fill="#1f4d2b"></path><path d="M-0.6 0.41 C6.15 -0.19, 13.06 -0.48, 19.77 -0.92 M0.57 -0.46 C3.94 -0.02, 8.55 0.47, 19.81 0.63 M20.04 -0.4 C21.75 7.88, 19.48 15.16, 21.35 22.03 M19.67 0.6 C18.9 4.06, 19.6 9.89, 20.88 21.19 M20.48 23.05 C13.09 21.12, 6.64 21.02, 0.54 23.73 M19.42 22.04 C12.09 22.73, 5.25 22, 0.44 22.43 M0.94 22.76 C-1.37 14.27, 1.43 6.73, -1.38 -1.54 M-0.59 22.58 C0.9 15.25, -0.77 7.32, 0.26 0.73" stroke="#3fb950" stroke-width="2" fill="none"></path></g><g transform="translate(550 447) rotate(0 65.07592010498047 6.875)"><text x="0" y="NaN" font-family="Virgil, Segoe UI Emoji" font-size="11px" fill="#c9d1d9" text-anchor="start" style="white-space: pre;" direction="ltr">send-receipt (notify-svc)</text></g><g transform="translate(936 447) rotate(0 10.675491333007812 6.875)"><text x="0" y="NaN" font-family="Virgil, Segoe UI Emoji" font-size="11px" fill="#8b949e" text-anchor="start" style="white-space: pre;" direction="ltr">8ms</text></g><g transform="translate(540 515) rotate(0 134.5048828125 9.375)"><text x="0" y="NaN" font-family="Virgil, Segoe UI Emoji" font-size="15px" fill="#f85149" text-anchor="start" style="white-space: pre;" direction="ltr">payment-svc holds 280ms of 380ms</text></g><g transform="translate(540 630) rotate(0 43.59545135498047 8.125)"><text x="0" y="NaN" font-family="Virgil, Segoe UI Emoji" font-size="13px" fill="#8b949e" text-anchor="start" style="white-space: pre;" direction="ltr">trace header:</text></g><g stroke-linecap="round" transform="translate(540 652) rotate(0 200 25)"><path d="M0.27 -0.66 L399.07 -0.23 L399.63 51.78 L1.56 49.66" stroke="none" stroke-width="0" fill="#3a1d6e"></path><path d="M-0.84 -0.11 C109.09 -0.99, 217.32 -1.56, 399.67 -0.13 M0.54 0.47 C119.27 0.9, 239.35 1.15, 399.98 0.2 M398.18 0.2 C399.31 14.26, 398.7 26.47, 401.5 48.16 M399.01 0.71 C400.59 10.31, 400.15 19.87, 400.39 49.85 M400.56 49.38 C250.44 48.67, 100.06 50.43, -0.16 50.43 M399.74 49.84 C294.2 48.66, 188.17 48.81, 0.37 49.64 M0.99 48.62 C-0.6 28.81, 0.28 11.99, -1.7 -0.3 M0.49 49.85 C0.6 30.39, -0.16 10.24, -0.28 -0.35" stroke="#a371f7" stroke-width="2" fill="none"></path></g><g transform="translate(600.8330993652344 665.75) rotate(0 139.16690063476562 11.25)"><text x="139.16690063476562" y="NaN" font-family="Virgil, Segoe UI Emoji" font-size="18px" fill="#ffffff" text-anchor="middle" style="white-space: pre;" direction="ltr">trace_id = 4bf92f3577b34da6</text></g><g transform="translate(1050 232) rotate(0 62.29994201660156 8.75)"><text x="0" y="NaN" font-family="Virgil, Segoe UI Emoji" font-size="14px" fill="#8b949e" text-anchor="start" style="white-space: pre;" direction="ltr">Filter by trace_id</text></g><g transform="translate(1050 252) rotate(0 113.18989562988281 8.75)"><text x="0" y="NaN" font-family="Virgil, Segoe UI Emoji" font-size="14px" fill="#8b949e" text-anchor="start" style="white-space: pre;" direction="ltr">-&gt; all log lines for THIS request</text></g><g stroke-linecap="round" transform="translate(1050 290) rotate(0 200 140)"><path d="M1.36 -0.48 L401.7 1.02 L399.61 278.59 L-0.01 279.79" stroke="none" stroke-width="0" fill="#0f1419"></path><path d="M1.07 0.13 C149.23 -1.22, 297.23 0.13, 401.09 -1.05 M-0.1 -0.26 C103.11 0.07, 206.57 0.64, 399.67 0.3 M399.05 0.41 C400.64 91.83, 403.03 181.59, 399.96 278.94 M400.45 -0.68 C399.09 94.31, 398.64 190.15, 399.47 280.14 M400.41 279.15 C257.49 282.4, 115.88 282.69, 0.63 280.16 M399.5 280.4 C292.37 281.65, 185.01 282.03, 0.11 280.05 M1.39 281.3 C1.97 207.47, 1.36 134.52, 1.22 -1.2 M-0.7 280.66 C-0.03 176.91, 0.41 73.13, -0.02 0.52" stroke="#30363d" stroke-width="2" fill="none"></path></g><g transform="translate(1058 302) rotate(0 34.02294158935547 6.875)"><text x="0" y="NaN" font-family="Virgil, Segoe UI Emoji" font-size="11px" fill="#8b949e" text-anchor="start" style="white-space: pre;" direction="ltr">14:23:00.812</text></g><g transform="translate(1142 302) rotate(0 13.689491271972656 6.875)"><text x="0" y="NaN" font-family="Virgil, Segoe UI Emoji" font-size="11px" fill="#8b949e" text-anchor="start" style="white-space: pre;" direction="ltr">INFO</text></g><g transform="translate(1188 302) rotate(0 91.56391143798828 6.875)"><text x="0" y="NaN" font-family="Virgil, Segoe UI Emoji" font-size="11px" fill="#c9d1d9" text-anchor="start" style="white-space: pre;" direction="ltr">request received POST /checkout</text></g><g transform="translate(1058 334) rotate(0 33.505943298339844 6.875)"><text x="0" y="NaN" font-family="Virgil, Segoe UI Emoji" font-size="11px" fill="#8b949e" text-anchor="start" style="white-space: pre;" direction="ltr">14:23:00.815</text></g><g transform="translate(1142 334) rotate(0 13.689491271972656 6.875)"><text x="0" y="NaN" font-family="Virgil, Segoe UI Emoji" font-size="11px" fill="#8b949e" text-anchor="start" style="white-space: pre;" direction="ltr">INFO</text></g><g transform="translate(1188 334) rotate(0 64.33893585205078 6.875)"><text x="0" y="NaN" font-family="Virgil, Segoe UI Emoji" font-size="11px" fill="#c9d1d9" text-anchor="start" style="white-space: pre;" direction="ltr">cart validated, 3 items</text></g><g transform="translate(1058 366) rotate(0 35.920448303222656 6.875)"><text x="0" y="NaN" font-family="Virgil, Segoe UI Emoji" font-size="11px" fill="#8b949e" text-anchor="start" style="white-space: pre;" direction="ltr">14:23:00.840</text></g><g transform="translate(1142 366) rotate(0 13.689491271972656 6.875)"><text x="0" y="NaN" font-family="Virgil, Segoe UI Emoji" font-size="11px" fill="#8b949e" text-anchor="start" style="white-space: pre;" direction="ltr">INFO</text></g><g transform="translate(1188 366) rotate(0 48.823455810546875 6.875)"><text x="0" y="NaN" font-family="Virgil, Segoe UI Emoji" font-size="11px" fill="#c9d1d9" text-anchor="start" style="white-space: pre;" direction="ltr">inventory reserved</text></g><g transform="translate(1058 398) rotate(0 35.920448303222656 6.875)"><text x="0" y="NaN" font-family="Virgil, Segoe UI Emoji" font-size="11px" fill="#8b949e" text-anchor="start" style="white-space: pre;" direction="ltr">14:23:00.860</text></g><g transform="translate(1142 398) rotate(0 13.689491271972656 6.875)"><text x="0" y="NaN" font-family="Virgil, Segoe UI Emoji" font-size="11px" fill="#8b949e" text-anchor="start" style="white-space: pre;" direction="ltr">INFO</text></g><g transform="translate(1188 398) rotate(0 60.197425842285156 6.875)"><text x="0" y="NaN" font-family="Virgil, Segoe UI Emoji" font-size="11px" fill="#c9d1d9" text-anchor="start" style="white-space: pre;" direction="ltr">calling payment-service</text></g><g transform="translate(1058 430) rotate(0 34.56744384765625 6.875)"><text x="0" y="NaN" font-family="Virgil, Segoe UI Emoji" font-size="11px" fill="#8b949e" text-anchor="start" style="white-space: pre;" direction="ltr">14:23:05.355</text></g><g transform="translate(1142 430) rotate(0 14.981986999511719 6.875)"><text x="0" y="NaN" font-family="Virgil, Segoe UI Emoji" font-size="11px" fill="#f85149" text-anchor="start" style="white-space: pre;" direction="ltr">WARN</text></g><g transform="translate(1188 430) rotate(0 76.56541442871094 6.875)"><text x="0" y="NaN" font-family="Virgil, Segoe UI Emoji" font-size="11px" fill="#c9d1d9" text-anchor="start" style="white-space: pre;" direction="ltr">payment-svc: waited 4495ms</text></g><g transform="translate(1058 462) rotate(0 35.073448181152344 6.875)"><text x="0" y="NaN" font-family="Virgil, Segoe UI Emoji" font-size="11px" fill="#8b949e" text-anchor="start" style="white-space: pre;" direction="ltr">14:23:05.360</text></g><g transform="translate(1142 462) rotate(0 18.886978149414062 6.875)"><text x="0" y="NaN" font-family="Virgil, Segoe UI Emoji" font-size="11px" fill="#f85149" text-anchor="start" style="white-space: pre;" direction="ltr">ERROR</text></g><g transform="translate(1188 462) rotate(0 70.23491668701172 6.875)"><text x="0" y="NaN" font-family="Virgil, Segoe UI Emoji" font-size="11px" fill="#c9d1d9" text-anchor="start" style="white-space: pre;" direction="ltr">connection pool exhausted</text></g><g transform="translate(1058 494) rotate(0 35.2054443359375 6.875)"><text x="0" y="NaN" font-family="Virgil, Segoe UI Emoji" font-size="11px" fill="#8b949e" text-anchor="start" style="white-space: pre;" direction="ltr">14:23:05.362</text></g><g transform="translate(1142 494) rotate(0 18.886978149414062 6.875)"><text x="0" y="NaN" font-family="Virgil, Segoe UI Emoji" font-size="11px" fill="#f85149" text-anchor="start" style="white-space: pre;" direction="ltr">ERROR</text></g><g transform="translate(1188 494) rotate(0 98.04289245605469 6.875)"><text x="0" y="NaN" font-family="Virgil, Segoe UI Emoji" font-size="11px" fill="#c9d1d9" text-anchor="start" style="white-space: pre;" direction="ltr">max_conns=20 inuse=20 wait_q=47</text></g><g transform="translate(1058 526) rotate(0 34.512451171875 6.875)"><text x="0" y="NaN" font-family="Virgil, Segoe UI Emoji" font-size="11px" fill="#8b949e" text-anchor="start" style="white-space: pre;" direction="ltr">14:23:05.370</text></g><g transform="translate(1142 526) rotate(0 13.689491271972656 6.875)"><text x="0" y="NaN" font-family="Virgil, Segoe UI Emoji" font-size="11px" fill="#8b949e" text-anchor="start" style="white-space: pre;" direction="ltr">INFO</text></g><g transform="translate(1188 526) rotate(0 84.54042053222656 6.875)"><text x="0" y="NaN" font-family="Virgil, Segoe UI Emoji" font-size="11px" fill="#c9d1d9" text-anchor="start" style="white-space: pre;" direction="ltr">payment succeeded after retry</text></g><g stroke-linecap="round" transform="translate(1050 580) rotate(0 200 18)"><path d="M1.96 -1.05 L400.8 -0.19 L401.42 35.46 L-0.67 34.86" stroke="none" stroke-width="0" fill="#4a1219"></path><path d="M-0.82 -0.67 C97.59 0.28, 197.31 -1.59, 400.11 0.92 M0.02 0.43 C125.07 1.49, 250.29 1.83, 400.41 0.22 M398.23 -1.89 C400.55 6.94, 400.58 16.27, 400.97 35.61 M400.04 -0.36 C400.84 9.29, 399.82 19.72, 400.51 36.29 M399.54 35.7 C311.46 35.17, 223.99 33.83, -0.05 35.4 M400 35.45 C307.26 34.53, 213.43 34.8, 0.34 35.53 M0.56 34.62 C0.5 26.6, 1.45 21.07, 1.51 0.69 M-0.26 36.63 C-0.04 22.41, -1.1 7.13, 0.01 -0.04" stroke="#f85149" stroke-width="2" fill="none"></path></g><g transform="translate(1085.6676330566406 588.625) rotate(0 164.33236694335938 9.375)"><text x="164.33236694335938" y="NaN" font-family="Virgil, Segoe UI Emoji" font-size="15px" fill="#ffffff" text-anchor="middle" style="white-space: pre;" direction="ltr">ROOT CAUSE  -  connection pool exhausted</text></g><g transform="translate(1050 630) rotate(0 67.742919921875 8.125)"><text x="0" y="NaN" font-family="Virgil, Segoe UI Emoji" font-size="13px" fill="#8b949e" text-anchor="start" style="white-space: pre;" direction="ltr">every log line tagged:</text></g><g stroke-linecap="round" transform="translate(1050 652) rotate(0 200 25)"><path d="M-1.94 0.58 L398.55 1 L400.27 51.61 L-1.46 51.74" stroke="none" stroke-width="0" fill="#3a1d6e"></path><path d="M0.98 -0.06 C148.74 -0.43, 298.14 -1.15, 400.61 -0.62 M0 0.34 C154.82 -0.65, 309.46 -0.4, 400 -0.3 M400.83 -0.29 C399.77 10.01, 398.72 22.5, 400.2 50.51 M400.88 -0.65 C400.12 11.1, 399.1 21.75, 399.79 50.81 M400.31 49.33 C307.46 51.62, 213.13 50.61, -0.72 50.8 M400.4 49.85 C301.16 50.68, 202.66 50.15, -0.32 50.3 M-0.36 50.68 C-1.41 31.66, 1.22 11.24, 0.74 -0.28 M0.28 49.46 C0.05 35.13, 0.07 17.56, -0.13 0.02" stroke="#a371f7" stroke-width="2" fill="none"></path></g><g transform="translate(1110.8330993652344 665.75) rotate(0 139.16690063476562 11.25)"><text x="139.16690063476562" y="NaN" font-family="Virgil, Segoe UI Emoji" font-size="18px" fill="#ffffff" text-anchor="middle" style="white-space: pre;" direction="ltr">trace_id = 4bf92f3577b34da6</text></g><g stroke-linecap="round"><g transform="translate(450 300) rotate(0 35 0)"><path d="M-0.66 0.59 C11.05 0.85, 59.13 1.14, 70.82 1.19 M1.19 -0.15 C12.77 -0.15, 59.09 -0.16, 70.3 -0.31" stroke="#ff8c42" stroke-width="3" fill="none"></path></g><g transform="translate(450 300) rotate(0 35 0)"><path d="M43.15 11.47 C53.9 5.77, 63.08 2.47, 71.76 -1.32 M42.32 9.48 C47.98 7.75, 54.15 4.99, 70.67 -0.97" stroke="#ff8c42" stroke-width="3" fill="none"></path></g><g transform="translate(450 300) rotate(0 35 0)"><path d="M43.03 -9.05 C53.76 -7.65, 62.98 -3.86, 71.76 -1.32 M42.2 -11.04 C48 -8.43, 54.19 -6.86, 70.67 -0.97" stroke="#ff8c42" stroke-width="3" fill="none"></path></g></g><g transform="translate(458.1744698734891 316.1990515763885) rotate(0 23.837974548339844 30)"><text x="23.837974548339844" y="NaN" font-family="Virgil, Segoe UI Emoji" font-size="12px" fill="#ff8c42" text-anchor="middle" style="white-space: pre;" direction="ltr">(2)</text><text x="23.837974548339844" y="NaN" font-family="Virgil, Segoe UI Emoji" font-size="12px" fill="#ff8c42" text-anchor="middle" style="white-space: pre;" direction="ltr">pivot to</text><text x="23.837974548339844" y="NaN" font-family="Virgil, Segoe UI Emoji" font-size="12px" fill="#ff8c42" text-anchor="middle" style="white-space: pre;" direction="ltr">slowest</text><text x="23.837974548339844" y="NaN" font-family="Virgil, Segoe UI Emoji" font-size="12px" fill="#ff8c42" text-anchor="middle" style="white-space: pre;" direction="ltr">trace</text></g><g stroke-linecap="round"><g transform="translate(982.0453714516198 300.00000000000006) rotate(0 23.97731427419012 -2.842170943040401e-14)"><path d="M0.19 0.61 C8.11 0.68, 39.4 -0.14, 47.38 -0.4 M-1.17 -0.11 C6.56 0.2, 38.04 0.93, 46.13 0.93" stroke="#ff8c42" stroke-width="3" fill="none"></path></g><g transform="translate(982.0453714516198 300.00000000000006) rotate(0 23.97731427419012 -2.842170943040401e-14)"><path d="M24.52 7.87 C29.39 6.76, 34.98 3.24, 47.57 1.39 M23.78 9.81 C30.64 6.59, 35.79 5.14, 46.64 1.42" stroke="#ff8c42" stroke-width="3" fill="none"></path></g><g transform="translate(982.0453714516198 300.00000000000006) rotate(0 23.97731427419012 -2.842170943040401e-14)"><path d="M24.74 -8.53 C29.43 -4.93, 34.96 -3.73, 47.57 1.39 M24 -6.59 C30.89 -5.25, 35.98 -2.14, 46.64 1.42" stroke="#ff8c42" stroke-width="3" fill="none"></path></g></g><g transform="translate(977.5308365009182 318.39755517726036) rotate(0 25.949966430664062 22.5)"><text x="25.949966430664062" y="NaN" font-family="Virgil, Segoe UI Emoji" font-size="12px" fill="#ff8c42" text-anchor="middle" style="white-space: pre;" direction="ltr">(4)</text><text x="25.949966430664062" y="NaN" font-family="Virgil, Segoe UI Emoji" font-size="12px" fill="#ff8c42" text-anchor="middle" style="white-space: pre;" direction="ltr">pivot by</text><text x="25.949966430664062" y="NaN" font-family="Virgil, Segoe UI Emoji" font-size="12px" fill="#ff8c42" text-anchor="middle" style="white-space: pre;" direction="ltr">trace_id</text></g><g stroke-linecap="round" transform="translate(18 127) rotate(0 18 19)"><path d="M-1.68 -1.03 L37.02 -0.49 L35.53 38.82 L-1.39 39.36" stroke="none" stroke-width="0" fill="#ff8c42"></path><path d="M-1.33 -0.4 C13.1 1.81, 21.91 -1.63, 37.17 -1.87 M0.33 -0.55 C7.26 1.28, 15.92 1.27, 35.27 -0.99 M34.36 -1.39 C37.55 16.33, 36.35 27.77, 37.74 39.05 M35.86 0.94 C34.89 10.95, 35.58 23.51, 35.49 38.84 M36.75 36.44 C22.11 39.23, 10.3 38.68, -0.24 38.76 M36.51 38.21 C27.93 37.78, 20.93 36.92, 0.07 37.93 M1.91 37.3 C-1.07 24.14, -1.4 11.95, 0.29 -1.78 M-0.06 37.03 C0.61 23.96, -1.15 8.63, -0.23 0.04" stroke="#ff8c42" stroke-width="2" fill="none"></path></g><g transform="translate(33.019004821777344 132.25) rotate(0 2.9809951782226562 13.75)"><text x="2.9809951782226562" y="NaN" font-family="Virgil, Segoe UI Emoji" font-size="22px" fill="#ffffff" text-anchor="middle" style="white-space: pre;" direction="ltr">1</text></g><g stroke-linecap="round" transform="translate(528 127) rotate(0 18 19)"><path d="M1.17 -0.05 L35.77 0.71 L35.07 36.06 L1.62 37.68" stroke="none" stroke-width="0" fill="#ff8c42"></path><path d="M0.47 -1.73 C11.69 -0.54, 26.57 1.4, 37.24 0.8 M0.36 0.06 C12.17 -0.4, 24.76 0.89, 36.48 -0.92 M35.08 1.88 C36.26 8.04, 36.72 19.3, 36.49 38.22 M35.83 -0.98 C35.91 10.49, 36.1 21.83, 36.09 37.01 M37.27 39.55 C26.74 39.98, 13.23 39.07, 1.35 39.06 M36.51 37.3 C23.26 37.77, 9.47 38.55, -0.38 37.19 M-0.78 36.02 C-1.25 23.01, -0.01 10.25, -1.89 -1.67 M0.82 37.28 C0.8 27.99, -0.27 16.82, -0.93 0.51" stroke="#ff8c42" stroke-width="2" fill="none"></path></g><g transform="translate(538.5090026855469 132.25) rotate(0 7.490997314453125 13.75)"><text x="7.490997314453125" y="NaN" font-family="Virgil, Segoe UI Emoji" font-size="22px" fill="#ffffff" text-anchor="middle" style="white-space: pre;" direction="ltr">3</text></g><g stroke-linecap="round" transform="translate(1038 127) rotate(0 18 19)"><path d="M-0.81 1.22 L34.6 -1.82 L35.52 38.41 L1.71 37" stroke="none" stroke-width="0" fill="#ff8c42"></path><path d="M-1.9 -1.94 C7.81 -1.57, 16.15 0.86, 34.12 -1.64 M0.53 -0.61 C8.22 0.54, 14.7 -0.64, 35.62 0.85 M35.17 -0.44 C34.44 14.86, 36.22 25.69, 34.79 38.98 M35.24 -0.95 C36.49 9.64, 36.14 20.98, 36.24 38.75 M37.61 37.51 C20.58 38.15, 10.46 37.9, -0.02 36.66 M35.01 38.75 C27.48 38.78, 19.78 37.47, -0.65 38.99 M1.94 37.07 C-0.98 31.62, 1.25 23.43, -0.14 0.8 M0.22 37.45 C0.69 29.59, -0.14 20.36, 0.22 0.41" stroke="#ff8c42" stroke-width="2" fill="none"></path></g><g transform="translate(1049.202003479004 132.25) rotate(0 6.797996520996094 13.75)"><text x="6.797996520996094" y="NaN" font-family="Virgil, Segoe UI Emoji" font-size="22px" fill="#ffffff" text-anchor="middle" style="white-space: pre;" direction="ltr">5</text></g><g stroke-linecap="round" transform="translate(10 755) rotate(0 730 50)"><path d="M-0.94 -0.34 L1458.12 -0.45 L1460.59 99.47 L-0.01 98.84" stroke="none" stroke-width="0" fill="#3a5d1d"></path><path d="M-0.44 0.1 C343.41 0.31, 688.62 0.4, 1460.52 0.69 M0.22 -0.29 C390.97 4.85, 782.54 4.84, 1460.24 -0.1 M1461.13 -0.62 C1457.26 25.55, 1458.53 54.87, 1458.05 98.01 M1460.05 -0.96 C1459.55 23.21, 1458.92 48.19, 1459.7 100.18 M1459.76 99.23 C1002.1 95.6, 545.03 96.77, -0.05 99.79 M1459.88 99.75 C907.02 102.42, 354.02 102.8, 0.39 100.28 M-1.26 100.66 C0.64 77.16, -0.4 58.5, -1.8 -1.19 M0.15 99.9 C-0.77 78.87, -1.07 59.47, -0.25 0.68" stroke="#6dbf3a" stroke-width="2" fill="none"></path></g><g transform="translate(30 769) rotate(0 367.454833984375 13.75)"><text x="0" y="NaN" font-family="Virgil, Segoe UI Emoji" font-size="22px" fill="#e6edf3" text-anchor="start" style="white-space: pre;" direction="ltr">Alert  -&gt;  root cause  =  5 hops, single ID, no context-switch tax</text></g><g transform="translate(30 805) rotate(0 404.3470764160156 9.375)"><text x="0" y="NaN" font-family="Virgil, Segoe UI Emoji" font-size="15px" fill="#c9d1d9" text-anchor="start" style="white-space: pre;" direction="ltr">Without the trace_id thread: 3 dashboards open, 3 manual time-window joins, 30 - 60 min debugging session.</text></g><g transform="translate(30 829) rotate(0 214.5972900390625 9.375)"><text x="0" y="NaN" font-family="Virgil, Segoe UI Emoji" font-size="15px" fill="#3fb950" text-anchor="start" style="white-space: pre;" direction="ltr">With it: alert -&gt; click exemplar -&gt; click span -&gt; filter logs.</text></g></svg>