<svg version="1.1" xmlns="http://www.w3.org/2000/svg" viewBox="0 0 1330 825" width="1330" height="825">
  <!-- svg-source:excalidraw -->
  
  <defs>
    <style>
      @font-face {
        font-family: "Virgil";
        src: url("https://excalidraw.com/Virgil.woff2");
      }
      @font-face {
        font-family: "Cascadia";
        src: url("https://excalidraw.com/Cascadia.woff2");
      }
    </style>
  </defs>
  <rect x="0" y="0" width="1330" height="825" fill="#1e1e2e"></rect><g transform="translate(10 10) rotate(0 335.8878479003906 17.5)"><text x="0" y="NaN" font-family="Virgil, Segoe UI Emoji" font-size="28px" fill="#ff8c42" text-anchor="start" style="white-space: pre;" direction="ltr">OpenTelemetry: instrument once, export anywhere</text></g><g transform="translate(10 50) rotate(0 450.7462158203125 10.625)"><text x="0" y="NaN" font-family="Virgil, Segoe UI Emoji" font-size="17px" fill="#c9d1d9" text-anchor="start" style="white-space: pre;" direction="ltr">Apps speak one wire format (OTLP). The Collector receives, processes, fans out. Backends are swappable.</text></g><g transform="translate(50 115) rotate(0 87.49794006347656 11.25)"><text x="0" y="NaN" font-family="Virgil, Segoe UI Emoji" font-size="18px" fill="#8b949e" text-anchor="start" style="white-space: pre;" direction="ltr">Apps (any language)</text></g><g stroke-linecap="round" transform="translate(30 155) rotate(0 125 50)"><path d="M-1.04 1.05 L248.99 0.5 L249.56 99.37 L1.08 98.98" stroke="none" stroke-width="0" fill="#3a1d6e"></path><path d="M1.18 -1.45 C73.19 1.92, 149.62 -0.24, 250.94 1.35 M-0.1 -0.05 C56.14 -2.28, 113.33 -1.67, 249.33 -0.47 M249.11 1.83 C249.5 24.91, 250.18 47.63, 248.59 98.25 M250.22 -0.66 C248.24 32.93, 249.41 64.37, 249.96 100.56 M248.52 100.93 C174.56 100.3, 98.47 101.05, 0.26 101.6 M249.53 99.62 C162.57 98.33, 75.52 97.8, 0.45 99.61 M1.79 101.33 C-0.76 76.01, -1.06 52.3, 1.5 -1.15 M-0.47 99.82 C0.12 64.67, -0.38 28.13, -0.41 -0.93" stroke="#a371f7" stroke-width="2" fill="none"></path></g><g transform="translate(74.38703155517578 182.5) rotate(0 80.61296844482422 22.5)"><text x="80.61296844482422" y="NaN" font-family="Virgil, Segoe UI Emoji" font-size="18px" fill="#ffffff" text-anchor="middle" style="white-space: pre;" direction="ltr">Service A</text><text x="80.61296844482422" y="NaN" font-family="Virgil, Segoe UI Emoji" font-size="18px" fill="#ffffff" text-anchor="middle" style="white-space: pre;" direction="ltr">Java + OTel SDK</text></g><g stroke-linecap="round" transform="translate(30 285) rotate(0 125 50)"><path d="M0.62 1.32 L250.29 -0.89 L250.63 99.4 L-0.85 100.29" stroke="none" stroke-width="0" fill="#3a1d6e"></path><path d="M1.39 0.72 C71.16 -2.86, 143.31 -2.53, 249.28 0.23 M-0.12 -0.54 C49.77 0.98, 100.49 2.08, 250.14 -0.66 M249.75 0.71 C250.23 37.03, 248.15 72.65, 250.67 101.9 M250.35 0.77 C250.36 39.04, 248.77 78.43, 250.17 100.29 M250.4 101.59 C153.05 99.77, 56.49 99.03, 1.38 99.98 M250.07 99.62 C198.77 100.74, 148.49 100.75, -0.57 99.69 M0.33 98.15 C0.13 77.8, 2.19 54.59, -0.94 -0.47 M-0.07 100.67 C-0.04 63.46, -1.06 28.19, -0.27 0.19" stroke="#a371f7" stroke-width="2" fill="none"></path></g><g transform="translate(67.91603088378906 312.5) rotate(0 87.08396911621094 22.5)"><text x="87.08396911621094" y="NaN" font-family="Virgil, Segoe UI Emoji" font-size="18px" fill="#ffffff" text-anchor="middle" style="white-space: pre;" direction="ltr">Service B</text><text x="87.08396911621094" y="NaN" font-family="Virgil, Segoe UI Emoji" font-size="18px" fill="#ffffff" text-anchor="middle" style="white-space: pre;" direction="ltr">Python + OTel SDK</text></g><g stroke-linecap="round" transform="translate(30 415) rotate(0 125 50)"><path d="M-1.83 -0.98 L249.95 0.17 L251.14 100.48 L-1.95 101.6" stroke="none" stroke-width="0" fill="#3a1d6e"></path><path d="M0.05 0.95 C91.41 1.43, 182.17 -0.1, 248.84 -0.33 M-0.19 -0.52 C92.81 1.46, 187.65 1.69, 249.39 -0.65 M251.79 0.92 C249.39 31.73, 252.15 66.47, 249.05 98.32 M249.03 -0.5 C251.35 33.66, 251.41 67.33, 249.29 100.81 M248.89 100.41 C159.86 101.93, 72.69 101.09, 1.56 98.8 M250.17 100.21 C176.39 97.87, 102.84 99.05, -0.16 99.79 M-0.2 100.58 C2.38 71.21, 2.2 42.99, 0.8 -0.74 M-0.75 99.43 C-0.39 59.74, -0.39 21.84, 0.88 0.49" stroke="#a371f7" stroke-width="2" fill="none"></path></g><g transform="translate(84.7190170288086 442.5) rotate(0 70.2809829711914 22.5)"><text x="70.2809829711914" y="NaN" font-family="Virgil, Segoe UI Emoji" font-size="18px" fill="#ffffff" text-anchor="middle" style="white-space: pre;" direction="ltr">Service C</text><text x="70.2809829711914" y="NaN" font-family="Virgil, Segoe UI Emoji" font-size="18px" fill="#ffffff" text-anchor="middle" style="white-space: pre;" direction="ltr">Go + OTel SDK</text></g><g stroke-opacity="0.8" fill-opacity="0.8" stroke-linecap="round" transform="translate(440 135) rotate(0 260 230)"><path d="M-1.7 -0.06 L521.53 -1.88 L521.6 459.08 L-0.72 460.27" stroke="none" stroke-width="0" fill="#161b22"></path><path d="M0.26 -0.63 C174.69 -0.95, 348.37 -0.79, 520.13 -0.36 M519.45 -0.15 C522.31 131.35, 521.57 263.64, 520.44 459.97 M520.04 459.97 C410.49 461.73, 300.51 462.19, 0.28 459.43 M0.59 459.13 C-1 300.08, -2.5 141.21, 0.08 -0.44" stroke="#30363d" stroke-width="2.5" fill="none" stroke-dasharray="8 10"></path></g><g transform="translate(460 149) rotate(0 71.61993408203125 12.5)"><text x="0" y="NaN" font-family="Virgil, Segoe UI Emoji" font-size="20px" fill="#e6edf3" text-anchor="start" style="white-space: pre;" direction="ltr">OTel Collector</text></g><g transform="translate(460 177) rotate(0 77.03491973876953 8.75)"><text x="0" y="NaN" font-family="Virgil, Segoe UI Emoji" font-size="14px" fill="#8b949e" text-anchor="start" style="white-space: pre;" direction="ltr">one binary, three roles</text></g><g stroke-linecap="round" transform="translate(470 245) rotate(0 70 45)"><path d="M0.38 -0.71 L139.31 -1.67 L139.17 90.13 L1.51 88.06" stroke="none" stroke-width="0" fill="#5c3a10"></path><path d="M-1.3 1.61 C40.38 -0.39, 78.25 -1.37, 141.33 1.13 M-0.95 0.4 C32.02 0.64, 62.03 -0.26, 139.98 0.07 M140.65 0.39 C140.26 26.64, 139.03 52.88, 139.36 91.57 M139.94 0.06 C139.81 19.53, 139.46 40.04, 140.63 89.4 M140.24 88.71 C102.39 91.18, 62.66 91.57, -0.22 91.16 M139.37 90.32 C84.86 90.13, 29.85 91.15, -0.7 89.88 M-1.31 89.33 C2.2 72.27, -0.22 51.01, -1.03 1.51 M-0.38 89.3 C-0.56 66.21, -0.06 42.8, -0.73 0.86" stroke="#f0883e" stroke-width="2" fill="none"></path></g><g transform="translate(494.6400451660156 277.5) rotate(0 45.359954833984375 12.5)"><text x="45.359954833984375" y="NaN" font-family="Virgil, Segoe UI Emoji" font-size="20px" fill="#ffffff" text-anchor="middle" style="white-space: pre;" direction="ltr">Receivers</text></g><g stroke-linecap="round" transform="translate(635 245) rotate(0 70 45)"><path d="M-1.38 0.7 L140.79 -0.55 L140.08 88.38 L-0.14 91.62" stroke="none" stroke-width="0" fill="#5c3a10"></path><path d="M-0.92 -1.15 C36.29 0.22, 70.59 -1.76, 138.8 -1.27 M-0.82 -0.86 C39.85 0.61, 77.78 0.7, 139.8 -0.34 M140.44 0.23 C140.03 25.57, 140.2 50.6, 138.84 89.13 M139.6 -0.72 C139.31 33.19, 139.2 64.2, 139.63 89.67 M140.58 90.24 C94.94 91.39, 51.47 88.22, 0.57 89.53 M140.47 90.02 C105.02 91.05, 71.12 90.8, -0.91 90.93 M-1.79 88.7 C-1.26 65.61, 1.1 40, -1.54 1.1 M-0.96 90.08 C0.66 61.45, -0.71 34.74, 0.75 -0.71" stroke="#f0883e" stroke-width="2" fill="none"></path></g><g transform="translate(651.930061340332 277.5) rotate(0 53.06993865966797 12.5)"><text x="53.06993865966797" y="NaN" font-family="Virgil, Segoe UI Emoji" font-size="20px" fill="#ffffff" text-anchor="middle" style="white-space: pre;" direction="ltr">Processors</text></g><g stroke-linecap="round" transform="translate(800 245) rotate(0 70 45)"><path d="M0.34 -0.03 L139.25 -1.51 L140.9 91.79 L1.23 88.22" stroke="none" stroke-width="0" fill="#5c3a10"></path><path d="M-1.55 1.24 C46.01 -0.36, 90.8 0.16, 139.44 1.94 M0.99 0.27 C33.18 -1.51, 66.11 -1.79, 139.36 0.3 M141.64 1.48 C140.78 29.61, 139.86 56.07, 138.7 90.54 M139.68 0.97 C140.08 29.09, 140.43 55.86, 140.9 89.05 M140.23 91.05 C103.36 91.63, 69.73 91.16, -0.89 89.06 M140.84 89.76 C110.33 90.48, 78.2 90.33, 0.8 90.71 M-1.18 89.62 C0.53 54.26, 0.93 21.16, -0.91 -0.89 M0.99 89.19 C-0.09 59.08, -0.3 29.91, -0.32 0.57" stroke="#f0883e" stroke-width="2" fill="none"></path></g><g transform="translate(822.0200500488281 277.5) rotate(0 47.979949951171875 12.5)"><text x="47.979949951171875" y="NaN" font-family="Virgil, Segoe UI Emoji" font-size="20px" fill="#ffffff" text-anchor="middle" style="white-space: pre;" direction="ltr">Exporters</text></g><g stroke-linecap="round"><g transform="translate(616 290.009) rotate(0 6.5 0)"><path d="M0.59 0.41 C2.56 0.75, 10.29 0.86, 12.19 0.87 M-0.56 -0.42 C1.75 -0.31, 12 -0.6, 14.47 -0.79" stroke="#f0883e" stroke-width="2" fill="none"></path></g><g transform="translate(616 290.009) rotate(0 6.5 0)"><path d="M8.7 1.28 C10.96 0.29, 12.74 0.24, 14 -0.96 M8.23 1.41 C10.69 0.7, 13.2 -0.22, 14.63 -0.52" stroke="#f0883e" stroke-width="2" fill="none"></path></g><g transform="translate(616 290.009) rotate(0 6.5 0)"><path d="M8.49 -3.16 C10.77 -2.68, 12.63 -1.27, 14 -0.96 M8.02 -3.03 C10.56 -1.98, 13.15 -1.15, 14.63 -0.52" stroke="#f0883e" stroke-width="2" fill="none"></path></g></g><g stroke-linecap="round"><g transform="translate(781 290.009) rotate(0 6.5 0)"><path d="M0.32 0.8 C2.45 0.65, 11.95 -0.27, 13.89 -0.59 M-0.97 0.17 C0.98 0.15, 10.86 0.73, 13.4 0.63" stroke="#f0883e" stroke-width="2" fill="none"></path></g><g transform="translate(781 290.009) rotate(0 6.5 0)"><path d="M7.69 3.24 C9.35 1.33, 11.48 1.61, 13.07 1.12 M7.13 2.63 C9.53 2.16, 11.55 1.03, 13.27 0.65" stroke="#f0883e" stroke-width="2" fill="none"></path></g><g transform="translate(781 290.009) rotate(0 6.5 0)"><path d="M7.76 -1.21 C9.4 -1.37, 11.51 0.66, 13.07 1.12 M7.21 -1.81 C9.62 -0.76, 11.62 -0.37, 13.27 0.65" stroke="#f0883e" stroke-width="2" fill="none"></path></g></g><g transform="translate(476.53407287597656 347) rotate(0 63.46592712402344 16.25)"><text x="63.46592712402344" y="NaN" font-family="Virgil, Segoe UI Emoji" font-size="13px" fill="#8b949e" text-anchor="middle" style="white-space: pre;" direction="ltr">OTLP, Prom scrape,</text><text x="63.46592712402344" y="NaN" font-family="Virgil, Segoe UI Emoji" font-size="13px" fill="#8b949e" text-anchor="middle" style="white-space: pre;" direction="ltr">Jaeger, Zipkin</text></g><g transform="translate(638.9405975341797 347) rotate(0 66.05940246582031 16.25)"><text x="66.05940246582031" y="NaN" font-family="Virgil, Segoe UI Emoji" font-size="13px" fill="#8b949e" text-anchor="middle" style="white-space: pre;" direction="ltr">batch, sample, filter,</text><text x="66.05940246582031" y="NaN" font-family="Virgil, Segoe UI Emoji" font-size="13px" fill="#8b949e" text-anchor="middle" style="white-space: pre;" direction="ltr">enrich, redact</text></g><g transform="translate(806.5665740966797 347) rotate(0 63.43342590332031 16.25)"><text x="63.43342590332031" y="NaN" font-family="Virgil, Segoe UI Emoji" font-size="13px" fill="#8b949e" text-anchor="middle" style="white-space: pre;" direction="ltr">Prom, OTLP, Kafka,</text><text x="63.43342590332031" y="NaN" font-family="Virgil, Segoe UI Emoji" font-size="13px" fill="#8b949e" text-anchor="middle" style="white-space: pre;" direction="ltr">cloud vendors</text></g><g transform="translate(470 500) rotate(0 37.934959411621094 9.375)"><text x="0" y="NaN" font-family="Virgil, Segoe UI Emoji" font-size="15px" fill="#e6edf3" text-anchor="start" style="white-space: pre;" direction="ltr">Deploy as:</text></g><g transform="translate(470 525) rotate(0 117.60690307617188 8.75)"><text x="0" y="NaN" font-family="Virgil, Segoe UI Emoji" font-size="14px" fill="#c9d1d9" text-anchor="start" style="white-space: pre;" direction="ltr">  - sidecar  (per-pod, low latency)</text></g><g transform="translate(470 547) rotate(0 150.30386352539062 8.75)"><text x="0" y="NaN" font-family="Virgil, Segoe UI Emoji" font-size="14px" fill="#c9d1d9" text-anchor="start" style="white-space: pre;" direction="ltr">  - gateway  (per-cluster, central sampling)</text></g><g transform="translate(470 569) rotate(0 176.8338623046875 8.75)"><text x="0" y="NaN" font-family="Virgil, Segoe UI Emoji" font-size="14px" fill="#c9d1d9" text-anchor="start" style="white-space: pre;" direction="ltr">  - both  (sidecar -&gt; gateway is the prod default)</text></g><g transform="translate(1050 115) rotate(0 94.96793365478516 11.25)"><text x="0" y="NaN" font-family="Virgil, Segoe UI Emoji" font-size="18px" fill="#8b949e" text-anchor="start" style="white-space: pre;" direction="ltr">Backends (swappable)</text></g><g stroke-linecap="round" transform="translate(1050 155) rotate(0 115 30)"><path d="M-1.06 -0.96 L228.6 -0.05 L229.98 58.83 L0.89 58.85" stroke="none" stroke-width="0" fill="#0d2c5a"></path><path d="M0.02 1.23 C69.83 1.49, 137.55 1.37, 229.82 -0.28 M-0.45 0.52 C65.14 -0.53, 129.51 0.14, 229.37 0.29 M229.77 -1.51 C228.46 14.77, 228.49 31.13, 228.68 59.01 M230.48 0.67 C230.47 14.83, 230.57 30.98, 229.5 60.44 M230.12 59.85 C161.84 59.19, 94.95 59.67, -0.78 61.54 M229.32 59.97 C176.79 60.34, 124.8 60.46, -0.39 60.62 M1.72 61.4 C-1.28 45.47, 1.52 30.77, 1.68 -0.87 M0 59.83 C0.07 39.67, 0.46 20.37, 0.72 0.48" stroke="#58a6ff" stroke-width="2" fill="none"></path></g><g transform="translate(1117.8930282592773 174.375) rotate(0 47.106971740722656 10.625)"><text x="47.106971740722656" y="NaN" font-family="Virgil, Segoe UI Emoji" font-size="17px" fill="#ffffff" text-anchor="middle" style="white-space: pre;" direction="ltr">Prometheus</text></g><g stroke-linecap="round" transform="translate(1050 235) rotate(0 115 30)"><path d="M-0.85 0.07 L228.33 -1.5 L231.34 60.33 L1.47 59.44" stroke="none" stroke-width="0" fill="#0d2c5a"></path><path d="M1.32 -1.41 C70.86 -0.08, 140.4 -2.38, 229.06 1.54 M0.48 0.44 C86.21 0.28, 172.14 0.12, 229.5 0.33 M228.35 -1.72 C228.94 23.44, 228.85 47.09, 228.87 58.99 M230.89 -0.12 C231.05 17.84, 229.98 35.5, 229.97 59.54 M229.11 61.35 C165 62.24, 101.24 62.69, 0.75 59.35 M230.77 60.77 C157.52 60.37, 84.3 60.61, 0.41 60.36 M-1.42 58.82 C-0.19 36.01, -0.81 11.91, 1.13 0.18 M0.59 59.84 C-0.97 46.6, 0.61 31.98, 0.84 0.12" stroke="#58a6ff" stroke-width="2" fill="none"></path></g><g transform="translate(1099.5160369873047 254.375) rotate(0 65.48396301269531 10.625)"><text x="65.48396301269531" y="NaN" font-family="Virgil, Segoe UI Emoji" font-size="17px" fill="#ffffff" text-anchor="middle" style="white-space: pre;" direction="ltr">Grafana Tempo</text></g><g stroke-linecap="round" transform="translate(1050 315) rotate(0 115 30)"><path d="M1.87 -0.1 L229.75 0.61 L228.86 58.51 L1.34 61.04" stroke="none" stroke-width="0" fill="#0d2c5a"></path><path d="M0.52 1.6 C53.45 -2.38, 110.03 -3.24, 230.8 -1.68 M0.37 -0.55 C58.56 0.81, 117.35 1.5, 230.59 0.55 M231.2 -1.76 C228.85 15.62, 230.81 32.06, 231.56 59.33 M229.84 -0.21 C230.21 18.64, 229.42 38.94, 229.08 59.92 M230.08 61.49 C165.63 63.35, 102.73 63.36, 0.06 59.9 M230.74 59.92 C143.83 58.38, 57.34 58.31, -0.47 59.67 M1.27 60.5 C-0.78 36.87, 0.59 15.49, -1.11 0.27 M0.86 59.47 C0.43 36.78, 0.79 15.91, -0.01 0.43" stroke="#58a6ff" stroke-width="2" fill="none"></path></g><g transform="translate(1136.7290115356445 334.375) rotate(0 28.27098846435547 10.625)"><text x="28.27098846435547" y="NaN" font-family="Virgil, Segoe UI Emoji" font-size="17px" fill="#ffffff" text-anchor="middle" style="white-space: pre;" direction="ltr">Jaeger</text></g><g stroke-linecap="round" transform="translate(1050 395) rotate(0 115 30)"><path d="M-0.46 -1.93 L230.7 0.48 L231.24 59.29 L1.27 59.17" stroke="none" stroke-width="0" fill="#0d2c5a"></path><path d="M-0.35 0.43 C86.63 0.01, 177.19 0.78, 230.48 -0.58 M-0.56 0 C54.5 0.69, 107.65 1.1, 229.24 0.62 M229.99 -1.26 C231.81 16.22, 228.79 31.67, 228.85 60.32 M230.19 -0.08 C229.72 19.3, 230.2 37.78, 229.51 59.86 M230.14 59.21 C149.64 61.51, 67.41 60.05, -0.83 59.6 M230.22 59.34 C143.55 61.47, 56.76 61.95, 0.83 59.22 M0.67 61.57 C-1.38 41.25, -1.5 18.54, -0.51 -0.49 M0.65 59.92 C0.26 47.07, 0.76 32.7, 0.75 -0.92" stroke="#58a6ff" stroke-width="2" fill="none"></path></g><g transform="translate(1080.2125549316406 414.375) rotate(0 84.78744506835938 10.625)"><text x="84.78744506835938" y="NaN" font-family="Virgil, Segoe UI Emoji" font-size="17px" fill="#ffffff" text-anchor="middle" style="white-space: pre;" direction="ltr">Elasticsearch / Loki</text></g><g stroke-linecap="round" transform="translate(1050 475) rotate(0 115 30)"><path d="M-1.29 0.31 L231.51 0.4 L230.34 61.17 L0.7 60.95" stroke="none" stroke-width="0" fill="#1f4d2b"></path><path d="M0.75 -0.06 C87.47 -0.24, 173.85 -1.4, 230.62 -0.71 M-0.08 0.36 C70.22 -2.01, 139.84 -2.11, 229.58 0.51 M228.62 -1.21 C228.28 16.15, 228.58 30.04, 230 59.65 M230.23 -0.53 C229.82 13.08, 230.33 25.19, 230.44 60.57 M230.44 59.99 C162.26 59.93, 93.45 59.62, 0.71 59.85 M229.75 60.06 C178.21 58.83, 126.89 58.32, 0.46 59.23 M1.93 58.19 C-1.68 39.32, -1.62 20.86, 0.87 0.02 M-0.54 60.86 C-0.25 45.87, -0.92 30.54, 0.94 -0.66" stroke="#3fb950" stroke-width="2" fill="none"></path></g><g transform="translate(1075.002052307129 494.375) rotate(0 89.9979476928711 10.625)"><text x="89.9979476928711" y="NaN" font-family="Virgil, Segoe UI Emoji" font-size="17px" fill="#ffffff" text-anchor="middle" style="white-space: pre;" direction="ltr">Datadog / Honeycomb</text></g><g stroke-linecap="round"><g transform="translate(286 211.8321465614998) rotate(0 88.99999999999997 34.89422543582988)"><path d="M-0.92 -0.93 C28.89 10.57, 148.06 57.5, 177.85 69.3 M0.8 1.2 C30.53 12.84, 147.47 58.91, 176.82 70.58" stroke="#3fb950" stroke-width="2" fill="none"></path></g><g transform="translate(286 211.8321465614998) rotate(0 88.99999999999997 34.89422543582988)"><path d="M145.29 69.5 C152.52 69.82, 159.92 70.11, 177.99 69.92 M146.93 70.32 C157.62 70.55, 169.3 71.07, 176.36 71.55" stroke="#3fb950" stroke-width="2" fill="none"></path></g><g transform="translate(286 211.8321465614998) rotate(0 88.99999999999997 34.89422543582988)"><path d="M152.83 50.42 C158.48 54.82, 164.24 59.25, 177.99 69.92 M154.47 51.23 C162.43 58.6, 171.29 66.26, 176.36 71.55" stroke="#3fb950" stroke-width="2" fill="none"></path></g></g><g stroke-linecap="round"><g transform="translate(286 331.0631529224804) rotate(0 88.99999999999997 -18.166326613604383)"><path d="M0.43 0.84 C30.13 -5.03, 148.39 -29.47, 177.93 -35.7 M-0.81 0.24 C28.76 -5.94, 147.36 -31.57, 176.95 -37.49" stroke="#3fb950" stroke-width="2" fill="none"></path></g><g transform="translate(286 331.0631529224804) rotate(0 88.99999999999997 -18.166326613604383)"><path d="M152.86 -21.78 C159.59 -26.68, 165.25 -31.37, 176 -36.54 M152.1 -21.77 C159.51 -26.97, 167.78 -31.66, 175.97 -36.68" stroke="#3fb950" stroke-width="2" fill="none"></path></g><g transform="translate(286 331.0631529224804) rotate(0 88.99999999999997 -18.166326613604383)"><path d="M148.66 -41.87 C156.47 -41.25, 163.28 -40.42, 176 -36.54 M147.89 -41.86 C156.4 -41.09, 165.93 -39.79, 175.97 -36.68" stroke="#3fb950" stroke-width="2" fill="none"></path></g></g><g stroke-linecap="round"><g transform="translate(286 452.7652865622132) rotate(0 89 -73.76695414522828)"><path d="M0.48 -0.43 C29.97 -25.04, 147.79 -123.23, 177.31 -147.94 M-0.73 -1.7 C29.13 -26.12, 150.11 -122.23, 179.66 -146.61" stroke="#3fb950" stroke-width="2" fill="none"></path></g><g transform="translate(286 452.7652865622132) rotate(0 89 -73.76695414522828)"><path d="M163.46 -122.07 C168.65 -130.15, 172.5 -136.55, 179.68 -144.77 M164.66 -120.47 C168.49 -128.92, 173.54 -136.55, 179.2 -146.37" stroke="#3fb950" stroke-width="2" fill="none"></path></g><g transform="translate(286 452.7652865622132) rotate(0 89 -73.76695414522828)"><path d="M150.57 -138.03 C159.97 -140.91, 168.07 -142.05, 179.68 -144.77 M151.76 -136.44 C159.35 -140.27, 168.15 -143.26, 179.2 -146.37" stroke="#3fb950" stroke-width="2" fill="none"></path></g></g><g transform="translate(311.5425567626953 275) rotate(0 63.45744323730469 18.75)"><text x="63.45744323730469" y="NaN" font-family="Virgil, Segoe UI Emoji" font-size="15px" fill="#3fb950" text-anchor="middle" style="white-space: pre;" direction="ltr">OTLP</text><text x="63.45744323730469" y="NaN" font-family="Virgil, Segoe UI Emoji" font-size="15px" fill="#3fb950" text-anchor="middle" style="white-space: pre;" direction="ltr">(one wire format)</text></g><g stroke-linecap="round"><g transform="translate(946 272.7322485602355) rotate(0 49 -38.08921830711664)"><path d="M-0.87 -1.01 C15.46 -13.65, 81.34 -64.23, 97.82 -76.81 M0.88 1.07 C17.05 -11.34, 80.71 -62.87, 96.77 -75.6" stroke="#58a6ff" stroke-width="2" fill="none"></path></g><g transform="translate(946 272.7322485602355) rotate(0 49 -38.08921830711664)"><path d="M79.5 -50.27 C84.82 -57.21, 89.85 -63.68, 95.25 -77.46 M82.1 -49.55 C86.31 -57.94, 91.57 -67.61, 95.98 -76.46" stroke="#58a6ff" stroke-width="2" fill="none"></path></g><g transform="translate(946 272.7322485602355) rotate(0 49 -38.08921830711664)"><path d="M66.67 -66.28 C75.53 -68.54, 84.24 -70.42, 95.25 -77.46 M69.27 -65.57 C77.99 -68.43, 87.62 -72.65, 95.98 -76.46" stroke="#58a6ff" stroke-width="2" fill="none"></path></g></g><g stroke-linecap="round"><g transform="translate(945.9999999999999 285.34122622412264) rotate(0 49.00000000000006 -8.420701449712482)"><path d="M-0.28 -0.13 C16.13 -2.75, 81.71 -14.18, 98.03 -16.89" stroke="#f0883e" stroke-width="2.5" fill="none" stroke-dasharray="8 10"></path></g><g transform="translate(945.9999999999999 285.34122622412264) rotate(0 49.00000000000006 -8.420701449712482)"><path d="M71.75 -2 C79 -6.64, 86.84 -9.64, 100 -17.98" stroke="#f0883e" stroke-width="2.5" fill="none"></path></g><g transform="translate(945.9999999999999 285.34122622412264) rotate(0 49.00000000000006 -8.420701449712482)"><path d="M68.3 -22.22 C76.28 -21.44, 85.03 -19.02, 100 -17.98" stroke="#f0883e" stroke-width="2.5" fill="none"></path></g></g><g stroke-linecap="round"><g transform="translate(945.9999999999999 299.78661554352044) rotate(0 49.00000000000006 19.165969722609532)"><path d="M0.73 -0.07 C17.2 6.29, 82.21 32.25, 98.34 38.72" stroke="#f0883e" stroke-width="2.5" fill="none" stroke-dasharray="8 10"></path></g><g transform="translate(945.9999999999999 299.78661554352044) rotate(0 49.00000000000006 19.165969722609532)"><path d="M68.25 38.35 C76.88 37.06, 84.8 39.48, 99.05 37.85" stroke="#f0883e" stroke-width="2.5" fill="none"></path></g><g transform="translate(945.9999999999999 299.78661554352044) rotate(0 49.00000000000006 19.165969722609532)"><path d="M75.87 19.3 C82.59 23.05, 88.51 30.48, 99.05 37.85" stroke="#f0883e" stroke-width="2.5" fill="none"></path></g></g><g stroke-linecap="round"><g transform="translate(945.9999999999999 311.227506824525) rotate(0 49.00000000000006 49.86266705665042)"><path d="M-0.76 -1.06 C15.45 15.84, 81 83.79, 97.51 100.73 M1.05 0.99 C17.03 17.64, 80.19 82.86, 96.3 99.14" stroke="#3fb950" stroke-width="2" fill="none"></path></g><g transform="translate(945.9999999999999 311.227506824525) rotate(0 49.00000000000006 49.86266705665042)"><path d="M67.49 85.33 C79.58 91.02, 88.01 96.65, 95.04 98.04 M68.87 85.26 C74.84 88.58, 82.33 92.63, 96.55 98.38" stroke="#3fb950" stroke-width="2" fill="none"></path></g><g transform="translate(945.9999999999999 311.227506824525) rotate(0 49.00000000000006 49.86266705665042)"><path d="M82.16 70.98 C89.44 81.21, 93.13 91.47, 95.04 98.04 M83.54 70.91 C85.95 77.62, 90 85.04, 96.55 98.38" stroke="#3fb950" stroke-width="2" fill="none"></path></g></g><g stroke-linecap="round"><g transform="translate(945.4498575208913 319.51139818322764) rotate(0 49.433819471567745 82.98401894157391)"><path d="M0.55 -0.6 C16.93 26.76, 82.72 137.07, 99.09 164.82 M-0.62 1.7 C15.55 29.1, 81.83 138.18, 98.26 165.76" stroke="#c9d1d9" stroke-width="2" fill="none"></path></g><g transform="translate(945.4498575208913 319.51139818322764) rotate(0 49.433819471567745 82.98401894157391)"><path d="M73.93 147.28 C81.74 153.62, 92.17 161.55, 97.01 165.14 M75.24 146.29 C83.87 153.01, 92.67 161.19, 98.97 166.2" stroke="#c9d1d9" stroke-width="2" fill="none"></path></g><g transform="translate(945.4498575208913 319.51139818322764) rotate(0 49.433819471567745 82.98401894157391)"><path d="M91.51 136.7 C92.89 147.02, 96.84 158.85, 97.01 165.14 M92.82 135.7 C95.12 146.32, 97.51 158.36, 98.97 166.2" stroke="#c9d1d9" stroke-width="2" fill="none"></path></g></g><g transform="translate(1050 585) rotate(0 48.96745300292969 9.375)"><text x="0" y="NaN" font-family="Virgil, Segoe UI Emoji" font-size="15px" fill="#e6edf3" text-anchor="start" style="white-space: pre;" direction="ltr">Signal routing</text></g><g transform="translate(1050 609) rotate(0 48.678428649902344 8.125)"><text x="0" y="NaN" font-family="Virgil, Segoe UI Emoji" font-size="13px" fill="#58a6ff" text-anchor="start" style="white-space: pre;" direction="ltr">- metrics (blue)</text></g><g transform="translate(1050 629) rotate(0 80.26840209960938 8.125)"><text x="0" y="NaN" font-family="Virgil, Segoe UI Emoji" font-size="13px" fill="#f0883e" text-anchor="start" style="white-space: pre;" direction="ltr">- traces (amber, dashed)</text></g><g transform="translate(1050 649) rotate(0 42.360450744628906 8.125)"><text x="0" y="NaN" font-family="Virgil, Segoe UI Emoji" font-size="13px" fill="#3fb950" text-anchor="start" style="white-space: pre;" direction="ltr">- logs (green)</text></g><g stroke-linecap="round" transform="translate(30 685) rotate(0 645 65)"><path d="M-0.11 -0.63 L1290.71 -1.7 L1290.17 130.68 L0.52 128.79" stroke="none" stroke-width="0" fill="#3a5d1d"></path><path d="M-0.09 0.04 C346.14 -1, 690.17 -0.41, 1289.96 0.58 M0.28 0.18 C354.57 -3.52, 709.43 -3.14, 1290.15 -0.35 M1288.53 -1.67 C1290.6 35.26, 1290.04 70.44, 1289.82 128.86 M1289.63 -0.95 C1291.07 30.88, 1291.49 61.29, 1289.77 130.38 M1290.05 130.53 C842.75 130.42, 394.24 131.21, 0.66 130.55 M1290.04 130.23 C844.3 130.82, 398.32 130.33, -0.17 130.19 M1.26 131.19 C1.32 85.68, 0.43 39.5, 0.57 -1.24 M0.27 130.11 C0.21 101.03, 0.24 73.81, 0.88 -0.77" stroke="#6dbf3a" stroke-width="2" fill="none"></path></g><g transform="translate(60 703) rotate(0 367.5868225097656 13.75)"><text x="0" y="NaN" font-family="Virgil, Segoe UI Emoji" font-size="22px" fill="#e6edf3" text-anchor="start" style="white-space: pre;" direction="ltr">1 instrumentation surface  -&gt;  1 OTLP wire format  -&gt;  N backends</text></g><g transform="translate(60 739) rotate(0 376.999755859375 10)"><text x="0" y="NaN" font-family="Virgil, Segoe UI Emoji" font-size="16px" fill="#c9d1d9" text-anchor="start" style="white-space: pre;" direction="ltr">Switch from Datadog to Grafana Cloud? Reconfigure exporters. No code change in any service.</text></g><g transform="translate(60 767) rotate(0 294.9518127441406 10)"><text x="0" y="NaN" font-family="Virgil, Segoe UI Emoji" font-size="16px" fill="#c9d1d9" text-anchor="start" style="white-space: pre;" direction="ltr">Add a new backend? New exporter in the Collector. Zero new SDK installs.</text></g><g transform="translate(60 789) rotate(0 367.9270935058594 9.375)"><text x="0" y="NaN" font-family="Virgil, Segoe UI Emoji" font-size="15px" fill="#3fb950" text-anchor="start" style="white-space: pre;" direction="ltr">Pre-OTel: vendor lock-in cost = reinstrument every service. Post-OTel: lock-in cost = a config edit.</text></g></svg>