<svg version="1.1" xmlns="http://www.w3.org/2000/svg" viewBox="0 0 1440 930" width="1440" height="930">
  <!-- svg-source:excalidraw -->
  
  <defs>
    <style>
      @font-face {
        font-family: "Virgil";
        src: url("https://excalidraw.com/Virgil.woff2");
      }
      @font-face {
        font-family: "Cascadia";
        src: url("https://excalidraw.com/Cascadia.woff2");
      }
    </style>
  </defs>
  <rect x="0" y="0" width="1440" height="930" fill="#0d1117"></rect><g transform="translate(10 10) rotate(0 354.6478271484375 17.5)"><text x="0" y="NaN" font-family="Virgil, Segoe UI Emoji" font-size="28px" fill="#ff8c42" text-anchor="start" style="white-space: pre;" direction="ltr">The aggregation problem: percentiles do not add up</text></g><g transform="translate(10 47.61071974861579) rotate(0 618.9495849609375 12.5)"><text x="0" y="NaN" font-family="Virgil, Segoe UI Emoji" font-size="20px" fill="#c9d1d9" text-anchor="start" style="white-space: pre;" direction="ltr">10 instances each report p99 = 200ms. Averaging gives 200ms - and is wrong. The math demands aggregating buckets first.</text></g><g stroke-opacity="0.8" fill-opacity="0.8" stroke-linecap="round" transform="translate(10 95) rotate(0 710 170)"><path d="M0.3 1.64 L1420.33 -1.22 L1418.09 339.03 L0.19 340.34" stroke="none" stroke-width="0" fill="#2a1a1f"></path><path d="M-0.77 0.21 C565.94 -0.23, 1133.32 -0.35, 1419.46 0.8 M1418.86 1.19 C1419.34 71.44, 1419.26 143.4, 1420.23 339.56 M1420.54 340.51 C983.81 334.09, 547.74 334.39, 0.7 340.41 M0.53 339.45 C1.58 238.37, 1.31 137.88, -0.43 -0.77" stroke="#f85149" stroke-width="2.5" fill="none" stroke-dasharray="8 10"></path></g><g transform="translate(30 111) rotate(0 318.0538330078125 13.75)"><text x="0" y="NaN" font-family="Virgil, Segoe UI Emoji" font-size="22px" fill="#f85149" text-anchor="start" style="white-space: pre;" direction="ltr">X   The wrong way:  average the pre-computed percentiles</text></g><g stroke-linecap="round" transform="translate(50 165) rotate(0 55 40)"><path d="M0.33 -0.03 L111.22 0.21 L110.91 81.24 L-1.34 79.53" stroke="none" stroke-width="0" fill="#3a1d6e"></path><path d="M-0.21 -1.58 C41.96 1.3, 81.23 2.44, 109.91 -1.96 M0.36 -0.69 C24.39 1.63, 48.6 1.86, 110.42 -0.49 M110.27 -0.13 C109.35 17.08, 110.21 34.12, 109.5 78.55 M110.19 -0.28 C111.12 23.21, 109.81 46.79, 110.15 80.09 M110.74 79.61 C69.1 80.49, 32.62 81.52, -1.95 79.45 M109.87 80.02 C80.63 80.23, 49.49 80.03, 0.76 79.72 M1.97 79.96 C1.97 57.47, 0.58 34.46, 0.7 0.09 M0.83 79.53 C-0.32 62.03, 0.5 42.54, 0.47 -0.03" stroke="#a371f7" stroke-width="2" fill="none"></path></g><g transform="translate(65.44802856445312 190) rotate(0 39.551971435546875 15)"><text x="39.551971435546875" y="NaN" font-family="Virgil, Segoe UI Emoji" font-size="12px" fill="#ffffff" text-anchor="middle" style="white-space: pre;" direction="ltr">inst 1</text><text x="39.551971435546875" y="NaN" font-family="Virgil, Segoe UI Emoji" font-size="12px" fill="#ffffff" text-anchor="middle" style="white-space: pre;" direction="ltr">p99 = 200ms</text></g><g stroke-linecap="round"><g transform="translate(105 249) rotate(0 0 16)"><path d="M0.63 -0.85 C0.76 4.18, 0.39 25.65, 0.13 31.09 M-0.5 1.32 C-0.46 6.39, -1.09 26.88, -0.75 32.15" stroke="#f85149" stroke-width="2" fill="none"></path></g><g transform="translate(105 249) rotate(0 0 16)"><path d="M-7.52 17.34 C-6.1 19.64, -3.82 23.4, -1.29 31.35 M-6.66 16.96 C-4.15 22.82, -2.14 29.55, -0.27 31.79" stroke="#f85149" stroke-width="2" fill="none"></path></g><g transform="translate(105 249) rotate(0 0 16)"><path d="M3.42 17.23 C2.14 19.6, 1.72 23.4, -1.29 31.35 M4.29 16.84 C2.47 22.76, 0.15 29.54, -0.27 31.79" stroke="#f85149" stroke-width="2" fill="none"></path></g></g><g stroke-linecap="round" transform="translate(180 165) rotate(0 55 40)"><path d="M-1.36 -1.41 L110.38 -0.38 L111.98 81.22 L-1.13 79.98" stroke="none" stroke-width="0" fill="#3a1d6e"></path><path d="M-1.45 -0.29 C39.19 1.5, 79.1 -1.34, 111.27 1.98 M0.5 -0.43 C33.27 1.5, 65.73 0.85, 110.99 -0.3 M108.98 1.66 C112.41 18.06, 110.3 31.39, 108.54 81.97 M110.54 0.31 C111.22 18.84, 110.34 37.36, 110.85 80.81 M108.86 79.62 C87.67 82.03, 62.79 79.63, -1.57 79.87 M109.47 80.04 C83.31 79.54, 56.58 78.79, 0.3 79.14 M0.52 79 C-1.56 53.14, -0.07 26.57, 1.85 -1.62 M0.37 80.2 C-0.58 57.51, 0.86 36.27, -0.98 -0.13" stroke="#a371f7" stroke-width="2" fill="none"></path></g><g transform="translate(195.44802856445312 190) rotate(0 39.551971435546875 15)"><text x="39.551971435546875" y="NaN" font-family="Virgil, Segoe UI Emoji" font-size="12px" fill="#ffffff" text-anchor="middle" style="white-space: pre;" direction="ltr">inst 2</text><text x="39.551971435546875" y="NaN" font-family="Virgil, Segoe UI Emoji" font-size="12px" fill="#ffffff" text-anchor="middle" style="white-space: pre;" direction="ltr">p99 = 200ms</text></g><g stroke-linecap="round"><g transform="translate(235 249) rotate(0 0 16)"><path d="M-0.46 0.87 C-0.63 5.97, -1.28 25.92, -1.06 31.25 M1.5 0.28 C1.69 5.47, 1.25 27.28, 1.09 32.4" stroke="#f85149" stroke-width="2" fill="none"></path></g><g transform="translate(235 249) rotate(0 0 16)"><path d="M-2.86 15.82 C-3.42 22.88, 0.27 25.26, 2.01 33.72 M-4.11 17.19 C-3.17 19.98, -1.19 23.99, 0.44 31.94" stroke="#f85149" stroke-width="2" fill="none"></path></g><g transform="translate(235 249) rotate(0 0 16)"><path d="M8.08 16.08 C4.28 23.02, 4.72 25.32, 2.01 33.72 M6.83 17.46 C5.31 20.27, 4.82 24.22, 0.44 31.94" stroke="#f85149" stroke-width="2" fill="none"></path></g></g><g stroke-linecap="round" transform="translate(310 165) rotate(0 55 40)"><path d="M-1.24 -0.42 L108.64 -0.05 L109.65 78.1 L-0.53 78.61" stroke="none" stroke-width="0" fill="#3a1d6e"></path><path d="M-0.05 -0.75 C42.54 -1.03, 84.56 -0.03, 111.65 1.99 M-0.43 0.56 C41.54 -1.44, 82.62 -0.11, 110.94 0.87 M111.78 -1.24 C111.13 29.75, 112.74 57.78, 109.73 78.23 M110.92 0.16 C109.57 28.12, 109.84 57.5, 109.99 79.07 M110.09 78 C66.52 81.41, 25.52 79.03, -0.54 79.54 M110.45 79.57 C85.9 80.46, 63.18 80.18, 0.86 79.84 M-1.56 81.51 C1.61 61.73, 0.47 43.27, -0.35 1.37 M-0.19 79.44 C1.1 60.48, 0.42 42.62, -0.48 -0.36" stroke="#a371f7" stroke-width="2" fill="none"></path></g><g transform="translate(325.4480285644531 190) rotate(0 39.551971435546875 15)"><text x="39.551971435546875" y="NaN" font-family="Virgil, Segoe UI Emoji" font-size="12px" fill="#ffffff" text-anchor="middle" style="white-space: pre;" direction="ltr">inst 3</text><text x="39.551971435546875" y="NaN" font-family="Virgil, Segoe UI Emoji" font-size="12px" fill="#ffffff" text-anchor="middle" style="white-space: pre;" direction="ltr">p99 = 200ms</text></g><g stroke-linecap="round"><g transform="translate(365 249) rotate(0 0 16)"><path d="M0.88 0.33 C0.97 5.64, -0.29 27.65, -0.59 32.86 M-0.11 -0.55 C0.47 4.35, 1.55 25.66, 1.81 31.18" stroke="#f85149" stroke-width="2" fill="none"></path></g><g transform="translate(365 249) rotate(0 0 16)"><path d="M-3.97 15.65 C-1.87 18.17, -2.33 22.97, 1.13 31.1 M-5.04 16.17 C-3.75 19.94, -1.49 23.08, 1.89 31.29" stroke="#f85149" stroke-width="2" fill="none"></path></g><g transform="translate(365 249) rotate(0 0 16)"><path d="M6.96 15.11 C6.82 17.82, 4.1 22.73, 1.13 31.1 M5.89 15.62 C4.78 19.52, 4.65 22.77, 1.89 31.29" stroke="#f85149" stroke-width="2" fill="none"></path></g></g><g stroke-linecap="round" transform="translate(440 165) rotate(0 55 40)"><path d="M-1.83 -0.98 L109.95 0.17 L111.14 80.48 L-1.95 81.6" stroke="none" stroke-width="0" fill="#3a1d6e"></path><path d="M0.06 1.16 C39.9 1.25, 79.01 -0.62, 108.58 -0.41 M-0.23 -0.64 C40.26 0.81, 83.01 1.09, 109.25 -0.79 M111.79 0.92 C109.21 25.22, 111.97 53.43, 109.05 78.32 M109.03 -0.5 C111.26 26.9, 111.32 53.82, 109.29 80.81 M108.65 80.5 C69.27 81.98, 32.18 80.95, 1.91 78.53 M110.2 80.25 C77.46 78.36, 45 79.82, -0.19 79.74 M-0.2 80.58 C2.25 56.74, 2.06 34.04, 0.8 -0.74 M-0.75 79.43 C-0.48 47.63, -0.48 17.61, 0.88 0.49" stroke="#a371f7" stroke-width="2" fill="none"></path></g><g transform="translate(455.4480285644531 190) rotate(0 39.551971435546875 15)"><text x="39.551971435546875" y="NaN" font-family="Virgil, Segoe UI Emoji" font-size="12px" fill="#ffffff" text-anchor="middle" style="white-space: pre;" direction="ltr">inst 4</text><text x="39.551971435546875" y="NaN" font-family="Virgil, Segoe UI Emoji" font-size="12px" fill="#ffffff" text-anchor="middle" style="white-space: pre;" direction="ltr">p99 = 200ms</text></g><g stroke-linecap="round"><g transform="translate(495 249) rotate(0 0 16)"><path d="M0.19 0.39 C-0.04 5.77, -0.76 27.59, -0.95 32.9 M-1.18 -0.44 C-1.07 4.54, 0.83 25.56, 1.27 31.26" stroke="#f85149" stroke-width="2" fill="none"></path></g><g transform="translate(495 249) rotate(0 0 16)"><path d="M-4.91 15.47 C-1.9 20.33, -0.48 25.51, 1.52 30.55 M-5.91 16.6 C-3.14 20.62, -1.85 25.3, 1.64 31.23" stroke="#f85149" stroke-width="2" fill="none"></path></g><g transform="translate(495 249) rotate(0 0 16)"><path d="M6 14.56 C5.36 19.74, 3.13 25.22, 1.52 30.55 M5 15.69 C4.65 19.93, 2.82 24.87, 1.64 31.23" stroke="#f85149" stroke-width="2" fill="none"></path></g></g><g stroke-linecap="round" transform="translate(570 165) rotate(0 55 40)"><path d="M-1.56 -1.23 L108.58 -1.45 L110.3 78.56 L-1.88 81.87" stroke="none" stroke-width="0" fill="#3a1d6e"></path><path d="M1.46 -1.99 C34.32 1.27, 68.31 -1.03, 111.22 0.24 M-0.37 0.54 C28.87 0.74, 57.96 0.31, 110.91 -0.42 M108.8 -0.21 C112.03 25.72, 111.24 54.17, 110.74 81.63 M109.57 0.31 C110.29 22.19, 111.07 43.21, 109.81 79.16 M111.62 81.99 C84.8 79.42, 58.39 79.68, 1.27 80.03 M110.56 80.77 C75.29 81.19, 39.17 80.62, 0.64 79.93 M1.77 79.04 C0.92 50.53, -1.96 22.32, 0.07 1.84 M0.43 80.13 C-0.06 61.18, 0.17 42.19, -0.94 0.52" stroke="#a371f7" stroke-width="2" fill="none"></path></g><g transform="translate(585.4480285644531 190) rotate(0 39.551971435546875 15)"><text x="39.551971435546875" y="NaN" font-family="Virgil, Segoe UI Emoji" font-size="12px" fill="#ffffff" text-anchor="middle" style="white-space: pre;" direction="ltr">inst 5</text><text x="39.551971435546875" y="NaN" font-family="Virgil, Segoe UI Emoji" font-size="12px" fill="#ffffff" text-anchor="middle" style="white-space: pre;" direction="ltr">p99 = 200ms</text></g><g stroke-linecap="round"><g transform="translate(625 249) rotate(0 0 16)"><path d="M-0.38 -0.78 C-0.19 4.64, 0.99 26.92, 0.97 32.2 M1.62 1.42 C1.75 6.49, 1.05 25.15, 0.53 30.18" stroke="#f85149" stroke-width="2" fill="none"></path></g><g transform="translate(625 249) rotate(0 0 16)"><path d="M-4.99 16.11 C-2.44 18.57, -2.91 22.17, 1.59 31.09 M-4.71 15.14 C-2.47 18.64, -2.58 21.37, 0.51 30.24" stroke="#f85149" stroke-width="2" fill="none"></path></g><g transform="translate(625 249) rotate(0 0 16)"><path d="M5.93 16.83 C5.36 19.05, 1.76 22.45, 1.59 31.09 M6.21 15.86 C6.01 19.19, 3.44 21.75, 0.51 30.24" stroke="#f85149" stroke-width="2" fill="none"></path></g></g><g stroke-linecap="round" transform="translate(700 165) rotate(0 55 40)"><path d="M-1.82 -1.43 L111.65 0.04 L109.72 79.29 L-1.32 80.66" stroke="none" stroke-width="0" fill="#3a1d6e"></path><path d="M-1.32 1.45 C35.68 0.57, 73.33 -1.01, 111.67 1.74 M0.98 -0.05 C31.7 -0.66, 63.53 0.27, 109.14 0.63 M111.71 1.13 C110.83 22.72, 110.34 47.03, 111.43 81.12 M109.9 0.86 C110.72 30.14, 111.18 60.6, 109.53 79.56 M109.03 78.22 C83.39 79.56, 59.38 80.61, -1.47 79.38 M110.04 80.97 C75.49 81.16, 40.09 80.75, -1 79.58 M-1.84 79.85 C-1.67 47.87, -0.81 18.36, -1.9 0.58 M-0.49 79.49 C-0.44 57.86, -1.37 36.29, -0.56 0.3" stroke="#a371f7" stroke-width="2" fill="none"></path></g><g transform="translate(715.4480285644531 190) rotate(0 39.551971435546875 15)"><text x="39.551971435546875" y="NaN" font-family="Virgil, Segoe UI Emoji" font-size="12px" fill="#ffffff" text-anchor="middle" style="white-space: pre;" direction="ltr">inst 6</text><text x="39.551971435546875" y="NaN" font-family="Virgil, Segoe UI Emoji" font-size="12px" fill="#ffffff" text-anchor="middle" style="white-space: pre;" direction="ltr">p99 = 200ms</text></g><g stroke-linecap="round"><g transform="translate(755 249) rotate(0 0 16)"><path d="M-0.87 -0.93 C-1.11 4.38, -1.13 27.42, -1 32.76 M0.88 1.2 C0.96 6.09, 1.48 25.91, 1.19 31.03" stroke="#f85149" stroke-width="2" fill="none"></path></g><g transform="translate(755 249) rotate(0 0 16)"><path d="M-5.37 14.61 C-1.22 20.97, -1.65 26.16, 1.13 31.38 M-4.32 16.65 C-1.72 20.87, -0.29 24.27, 0.45 30.3" stroke="#f85149" stroke-width="2" fill="none"></path></g><g transform="translate(755 249) rotate(0 0 16)"><path d="M5.57 14.72 C6.03 20.97, 1.91 26.12, 1.13 31.38 M6.62 16.76 C6.03 21.04, 4.27 24.42, 0.45 30.3" stroke="#f85149" stroke-width="2" fill="none"></path></g></g><g stroke-linecap="round" transform="translate(830 165) rotate(0 55 40)"><path d="M0.34 -0.03 L109.25 -1.51 L110.9 81.79 L1.23 78.22" stroke="none" stroke-width="0" fill="#3a1d6e"></path><path d="M-1.55 1.24 C36.23 -0.15, 71.23 0.37, 109.44 1.94 M0.99 0.27 C26.1 -1.34, 51.95 -1.61, 109.36 0.3 M111.64 1.48 C110.81 26.44, 109.89 49.73, 108.7 80.54 M109.68 0.97 C110.12 25.95, 110.47 49.59, 110.9 79.05 M110.23 81.05 C80.85 81.59, 54.7 81.12, -0.89 79.06 M110.84 79.76 C86.87 80.5, 61.28 80.35, 0.8 80.71 M-1.18 79.62 C0.57 48.08, 0.97 18.8, -0.91 -0.89 M0.99 79.19 C-0.16 52.41, -0.37 26.57, -0.32 0.57" stroke="#a371f7" stroke-width="2" fill="none"></path></g><g transform="translate(845.4480285644531 190) rotate(0 39.551971435546875 15)"><text x="39.551971435546875" y="NaN" font-family="Virgil, Segoe UI Emoji" font-size="12px" fill="#ffffff" text-anchor="middle" style="white-space: pre;" direction="ltr">inst 7</text><text x="39.551971435546875" y="NaN" font-family="Virgil, Segoe UI Emoji" font-size="12px" fill="#ffffff" text-anchor="middle" style="white-space: pre;" direction="ltr">p99 = 200ms</text></g><g stroke-linecap="round"><g transform="translate(885 249) rotate(0 0 16)"><path d="M0.59 0.41 C0.39 6.08, -0.54 27.52, -0.81 32.87 M-0.56 -0.42 C-0.41 5.02, 1.16 26.07, 1.47 31.21" stroke="#f85149" stroke-width="2" fill="none"></path></g><g transform="translate(885 249) rotate(0 0 16)"><path d="M-4.46 15.49 C-1.84 19.98, -0.18 26.74, 0.31 30.79 M-5.6 15.81 C-2.85 22.32, 0.04 28.27, 1.87 31.87" stroke="#f85149" stroke-width="2" fill="none"></path></g><g transform="translate(885 249) rotate(0 0 16)"><path d="M6.46 14.75 C5.46 19.54, 3.5 26.54, 0.31 30.79 M5.32 15.07 C3.75 21.89, 2.32 28.14, 1.87 31.87" stroke="#f85149" stroke-width="2" fill="none"></path></g></g><g stroke-linecap="round" transform="translate(960 165) rotate(0 55 40)"><path d="M-1.23 0.95 L108.42 -0.98 L108.11 79.51 L-0.17 79.2" stroke="none" stroke-width="0" fill="#3a1d6e"></path><path d="M1.33 1.48 C42.28 -2.06, 84.67 1.36, 108.97 1.49 M-0.38 -0.38 C38.32 0.56, 75.8 -0.68, 109.6 0.05 M109.89 -0.29 C108.84 25.57, 110.67 53.94, 110.57 78.84 M109.34 0.91 C110.26 19.52, 110.94 39.32, 109.62 79.94 M109.21 81.27 C72.55 80.86, 34.47 80.12, 0.37 79.68 M110.67 79.74 C82.94 80.7, 57.47 80.03, -0.65 80.69 M-0.03 78.37 C0.97 57.76, -1.72 32.72, 0.79 0.75 M0.7 79.11 C-0.51 62.7, -0.36 45.05, -0.18 1" stroke="#a371f7" stroke-width="2" fill="none"></path></g><g transform="translate(975.4480285644531 190) rotate(0 39.551971435546875 15)"><text x="39.551971435546875" y="NaN" font-family="Virgil, Segoe UI Emoji" font-size="12px" fill="#ffffff" text-anchor="middle" style="white-space: pre;" direction="ltr">inst 8</text><text x="39.551971435546875" y="NaN" font-family="Virgil, Segoe UI Emoji" font-size="12px" fill="#ffffff" text-anchor="middle" style="white-space: pre;" direction="ltr">p99 = 200ms</text></g><g stroke-linecap="round"><g transform="translate(1015 249) rotate(0 0 16)"><path d="M-0.02 -0.06 C-0.04 5.01, -0.98 26.1, -1.09 31.51 M-1.5 -1.13 C-1.07 4.61, 0.49 27.55, 1.04 32.79" stroke="#f85149" stroke-width="2" fill="none"></path></g><g transform="translate(1015 249) rotate(0 0 16)"><path d="M-5.73 16.8 C-4.73 20.44, -2.1 24.05, 2.49 31.9 M-5.52 18.08 C-4.43 22.23, -3.17 24.87, 0.33 33.08" stroke="#f85149" stroke-width="2" fill="none"></path></g><g transform="translate(1015 249) rotate(0 0 16)"><path d="M5.18 15.89 C3.83 19.73, 4.1 23.53, 2.49 31.9 M5.38 17.17 C3.89 21.57, 2.54 24.43, 0.33 33.08" stroke="#f85149" stroke-width="2" fill="none"></path></g></g><g stroke-linecap="round" transform="translate(1090 165) rotate(0 55 40)"><path d="M1.26 1.73 L109.14 1.82 L110.52 79.76 L0.47 80.06" stroke="none" stroke-width="0" fill="#3a1d6e"></path><path d="M-1.9 0.05 C32.17 -1.95, 65.41 0.79, 109.03 0.43 M-0.43 -0.27 C32.07 0.65, 62.1 -0.26, 109.76 -0.95 M110.01 -1.63 C109.59 26.86, 108.92 51.44, 111.44 81.22 M109.06 -0.16 C110.32 16.29, 111.01 33.55, 110.69 80.8 M111.42 80.61 C81.18 80.85, 49.73 80.03, -0.14 81.55 M109.25 79.68 C71.66 79.49, 35.87 80.42, 0.96 79.39 M-0.88 78.47 C-1.31 50.86, 0.53 20.94, 0.95 1.26 M-0.4 79.18 C-0.56 60.12, -0.31 41.01, 0.53 -0.02" stroke="#a371f7" stroke-width="2" fill="none"></path></g><g transform="translate(1105.4480285644531 190) rotate(0 39.551971435546875 15)"><text x="39.551971435546875" y="NaN" font-family="Virgil, Segoe UI Emoji" font-size="12px" fill="#ffffff" text-anchor="middle" style="white-space: pre;" direction="ltr">inst 9</text><text x="39.551971435546875" y="NaN" font-family="Virgil, Segoe UI Emoji" font-size="12px" fill="#ffffff" text-anchor="middle" style="white-space: pre;" direction="ltr">p99 = 200ms</text></g><g stroke-linecap="round"><g transform="translate(1145 249) rotate(0 0 16)"><path d="M-0.36 0.86 C-0.57 6.07, -1.32 26.04, -1.07 31.1 M1.65 0.27 C1.78 5.62, 1.2 26.85, 1.08 32.16" stroke="#f85149" stroke-width="2" fill="none"></path></g><g transform="translate(1145 249) rotate(0 0 16)"><path d="M-2.87 15.57 C-3.63 23.31, -1.86 27.69, 0.72 32.4 M-4.37 17.46 C-2.6 23.41, 0.53 28.45, 1.25 31.4" stroke="#f85149" stroke-width="2" fill="none"></path></g><g transform="translate(1145 249) rotate(0 0 16)"><path d="M8.07 15.84 C3.84 23.46, 2.15 27.76, 0.72 32.4 M6.57 17.73 C4.21 23.65, 3.21 28.59, 1.25 31.4" stroke="#f85149" stroke-width="2" fill="none"></path></g></g><g stroke-linecap="round" transform="translate(1220 165) rotate(0 55 40)"><path d="M-0.03 0.94 L110.66 -0.47 L108.54 79.72 L0.21 80.07" stroke="none" stroke-width="0" fill="#3a1d6e"></path><path d="M1.47 1.7 C31.54 -1.36, 61.95 0.78, 108.1 1.18 M0.76 -0.98 C33.05 0.13, 67.09 -0.35, 110.87 0.31 M110.63 1.62 C109.33 26.27, 109.08 49.52, 111.02 80.94 M110.16 0.03 C110.29 25.77, 110.82 51.89, 109.18 79.64 M108.23 79.35 C71.11 78.7, 34.07 80.88, -0.08 80.29 M110.82 80.94 C72.15 80.71, 35.94 80.36, -0.41 80.24 M0.46 79.86 C-0.05 54.75, 0.45 34.76, 0.21 -1.79 M0.83 80.64 C-0.18 62.21, -0.47 43.91, -0.96 0.81" stroke="#a371f7" stroke-width="2" fill="none"></path></g><g transform="translate(1235.4480285644531 190) rotate(0 39.551971435546875 15)"><text x="39.551971435546875" y="NaN" font-family="Virgil, Segoe UI Emoji" font-size="12px" fill="#ffffff" text-anchor="middle" style="white-space: pre;" direction="ltr">inst 10</text><text x="39.551971435546875" y="NaN" font-family="Virgil, Segoe UI Emoji" font-size="12px" fill="#ffffff" text-anchor="middle" style="white-space: pre;" direction="ltr">p99 = 200ms</text></g><g stroke-linecap="round"><g transform="translate(1275 249) rotate(0 0 16)"><path d="M0.73 0.45 C0.78 5.73, 1.3 26.99, 0.99 32.21 M-0.35 -0.35 C-0.42 4.48, 0.31 24.65, 0.56 30.2" stroke="#f85149" stroke-width="2" fill="none"></path></g><g transform="translate(1275 249) rotate(0 0 16)"><path d="M-4.89 16.7 C-3.01 19.03, -1.48 24.3, -0.22 29.08 M-5.89 14.75 C-2.72 20.8, -0.82 26.39, -0.21 29.49" stroke="#f85149" stroke-width="2" fill="none"></path></g><g transform="translate(1275 249) rotate(0 0 16)"><path d="M6.04 16.27 C4.07 18.82, 1.74 24.24, -0.22 29.08 M5.05 14.32 C4.01 20.6, 1.68 26.35, -0.21 29.49" stroke="#f85149" stroke-width="2" fill="none"></path></g></g><g stroke-linecap="round" transform="translate(30 305) rotate(0 690 35)"><path d="M-1.06 -0.96 L1378.6 -0.05 L1379.98 68.83 L0.89 68.85" stroke="none" stroke-width="0" fill="#4a1219"></path><path d="M0.01 0.58 C412.95 0.36, 824.9 0.3, 1379.92 -0.13 M-0.21 0.25 C387.45 -0.67, 774.54 -0.36, 1379.7 0.14 M1379.77 -1.51 C1378.42 17.4, 1378.45 36.39, 1378.68 69.01 M1380.48 0.67 C1380.43 17.35, 1380.52 36.02, 1379.5 70.44 M1380.06 69.93 C977.97 68.91, 576.53 69.13, -0.37 70.72 M1379.68 69.99 C1063.53 71.78, 747.64 71.84, -0.18 70.29 M1.72 71.4 C-1.24 52.87, 1.56 35.59, 1.68 -0.87 M0 69.83 C0.11 46.33, 0.5 23.67, 0.72 0.48" stroke="#f85149" stroke-width="2" fill="none"></path></g><g transform="translate(341.9282531738281 328.75) rotate(0 378.0717468261719 11.25)"><text x="378.0717468261719" y="NaN" font-family="Virgil, Segoe UI Emoji" font-size="18px" fill="#ffffff" text-anchor="middle" style="white-space: pre;" direction="ltr">avg(p99) = 200ms      &lt;- this is just the average of averages, not the global p99</text></g><g stroke-linecap="round"><g transform="translate(30 305) rotate(0 690 35)"><path d="M0.98 0.93 C230.81 12.56, 1148.99 59.22, 1379.01 70.86 M0.04 0.38 C230.23 12.2, 1151.06 57.78, 1381.2 69.19" stroke="#f85149" stroke-width="4" fill="none"></path></g></g><g stroke-linecap="round"><g transform="translate(30 375) rotate(0 690 -35)"><path d="M0.19 0.04 C230.32 -11.8, 1149.9 -59.41, 1379.81 -70.89 M-1.17 -0.99 C228.87 -12.71, 1148.78 -58.23, 1378.77 -69.82" stroke="#f85149" stroke-width="4" fill="none"></path></g></g><g transform="translate(30 385) rotate(0 383.24969482421875 8.75)"><text x="0" y="NaN" font-family="Virgil, Segoe UI Emoji" font-size="14px" fill="#c9d1d9" text-anchor="start" style="white-space: pre;" direction="ltr">Real global p99 is somewhere between 200ms and ... unknown. The slowest 1% may cluster on a few instances.</text></g><g stroke-opacity="0.8" fill-opacity="0.8" stroke-linecap="round" transform="translate(10 460) rotate(0 710 230)"><path d="M-1.06 0.04 L1421.29 1.76 L1418.52 461.25 L1.84 460.51" stroke="none" stroke-width="0" fill="#1a2a1f"></path><path d="M-0.36 -0.26 C549.71 0.33, 1099.5 0.21, 1419.75 0.16 M1420.53 -0.93 C1418.18 157.23, 1418.55 313.63, 1419.44 459.72 M1419.62 460.23 C941.26 465.43, 462.22 465.28, 0.11 459.63 M-0.37 460.3 C-0.69 346.57, -0.51 235.23, -0.32 0.01" stroke="#6dbf3a" stroke-width="2.5" fill="none" stroke-dasharray="8 10"></path></g><g transform="translate(30 476) rotate(0 429.1867370605469 13.75)"><text x="0" y="NaN" font-family="Virgil, Segoe UI Emoji" font-size="22px" fill="#3fb950" text-anchor="start" style="white-space: pre;" direction="ltr">OK   The correct way:  sum the histogram buckets, then compute the quantile</text></g><g stroke-linecap="round" transform="translate(50 530) rotate(0 55 45)"><path d="M0.57 1.74 L110.24 1.64 L111.77 91.89 L-0.75 90.52" stroke="none" stroke-width="0" fill="#3a1d6e"></path><path d="M0.78 -0.63 C28.98 1.45, 60.58 -0.98, 108.36 -1.17 M-0.9 0.44 C28.86 -0.47, 57.86 -0.82, 110.36 -0.03 M108.04 -0.93 C109.19 22.49, 108.65 42.88, 109.43 89.66 M109.48 0.67 C110.23 20.05, 110.37 41.21, 109.52 90.04 M108.18 90.76 C68.44 88.38, 31.17 91.75, -0.91 90.33 M109.11 90.02 C73.72 89.82, 35.56 90.74, 0.95 90.54 M1.71 89.6 C-0.1 66.47, -0.77 46.4, -0.95 -1.72 M-0.72 89.47 C1.58 72.64, -0.31 54.76, 0.61 0.06" stroke="#a371f7" stroke-width="2" fill="none"></path></g><g transform="translate(56 534) rotate(0 12.824981689453125 6.25)"><text x="0" y="NaN" font-family="Virgil, Segoe UI Emoji" font-size="10px" fill="#c9d1d9" text-anchor="start" style="white-space: pre;" direction="ltr">inst 1</text></g><g stroke-linecap="round" transform="translate(58 594) rotate(0 6.5 9)"><path d="M1.11 -0.56 L12 -0.45 L11.27 19.4 L-0.32 16.59" stroke="none" stroke-width="0" fill="#58a6ff"></path><path d="M-0.66 -1.29 C4.19 -0.25, 8.72 -0.57, 11.91 0.95 M0.33 -0.28 C4.39 0.17, 8.7 0.52, 12.6 -0.46 M14.4 1.27 C13.05 5.77, 13.6 11.85, 12.69 19.11 M13.33 0.49 C12.29 6.93, 13.65 13.07, 12.81 17.39 M13.59 18.72 C8.57 19.08, 3.43 16.67, 0.09 19.13 M12.72 17.72 C10.13 17.52, 7.94 17.96, 0.24 18.44 M0.08 17.28 C1.47 12.45, 0 7.89, 0.9 -0.89 M0.12 18.58 C0.81 10.02, -0.16 4.27, 0.15 0.03" stroke="#58a6ff" stroke-width="2" fill="none"></path></g><g stroke-linecap="round" transform="translate(72 569) rotate(0 6.5 21.5)"><path d="M-0.13 -0.01 L13.73 1.53 L14.81 44.14 L0.53 44.8" stroke="none" stroke-width="0" fill="#58a6ff"></path><path d="M0.44 0.79 C5.03 -1.14, 7.49 1.15, 13.48 0.87 M0.51 0.61 C2.24 -0.25, 5.42 0.5, 13.39 -0.52 M12.5 -1.44 C11.75 16.61, 13.49 31.91, 11.39 41.79 M13.59 0.18 C12.78 8.42, 13.64 16.63, 13.38 42.66 M13.58 44.11 C9.3 42.67, 4.53 42.51, 0.08 43.87 M12.7 42.68 C8.16 43, 4.49 42.51, -0.28 42.38 M-1.96 43.64 C1.09 33.98, -0.22 21.84, 1.3 0.95 M-0.39 42.95 C-0.89 29.74, -0.9 17.05, -0.82 -0.93" stroke="#58a6ff" stroke-width="2" fill="none"></path></g><g stroke-linecap="round" transform="translate(86 558) rotate(0 6.5 27)"><path d="M0.44 -1.87 L14.81 1.44 L13.34 55.14 L1.3 55.82" stroke="none" stroke-width="0" fill="#58a6ff"></path><path d="M0.9 -1.03 C2.26 -0.55, 4.73 1.15, 14.16 -0.32 M-0.21 0.56 C4.82 0.33, 8.17 0.27, 12.44 0.57 M13.83 1.48 C12.12 15.92, 11.25 36.34, 13.62 54.24 M13.27 0.33 C12.54 21.11, 12.42 42.53, 12.25 54.32 M12.71 53.24 C10.52 53.51, 6.36 54.57, 1.09 54.82 M13.38 53.85 C10.13 54.02, 7.18 53.9, -0.21 53.49 M-1.33 55.56 C-1.69 36.86, -2.05 23.74, -1.16 -1.59 M-0.3 53 C-0.86 39.87, 0.62 24.67, 0.64 -0.28" stroke="#58a6ff" stroke-width="2" fill="none"></path></g><g stroke-linecap="round" transform="translate(100 585) rotate(0 6.5 13.5)"><path d="M-0.15 0.45 L13.89 1.52 L14 27.85 L0.82 25.52" stroke="none" stroke-width="0" fill="#58a6ff"></path><path d="M-0.12 -1.15 C4.06 0.79, 5.96 -0.25, 14.27 0.36 M0.54 0.35 C2.93 -0.23, 5.78 -0.59, 13.08 0.11 M13.68 0.06 C14.33 8.03, 11.36 16.4, 11.36 28.09 M13.94 0.4 C12.25 8.97, 12.46 16.68, 13.74 26.92 M13.71 26.74 C8.97 27.88, 2.64 26.92, 1.27 26.82 M13.52 27.38 C9.12 26.6, 4.74 27.24, 0.02 26.6 M-0.98 25.72 C0.32 18.19, 1.32 7.49, 0.65 1.16 M-0.37 26.77 C-0.22 19.48, 0.05 9.64, 0.36 -0.32" stroke="#58a6ff" stroke-width="2" fill="none"></path></g><g stroke-linecap="round" transform="translate(114 605) rotate(0 6.5 3.5)"><path d="M-0.83 -1.63 L11.36 1.89 L14.38 5.87 L-1.91 7.12" stroke="none" stroke-width="0" fill="#58a6ff"></path><path d="M-0.95 -0.87 C2.84 -0.62, 7.4 -0.68, 12.77 1.1 M0.38 0.29 C4.3 -0.13, 9.25 -0.21, 13.12 -0.39 M13.53 0.62 C13.48 2.94, 13.26 5.48, 13.65 6.51 M13.24 0.04 C13.02 1.56, 12.65 3.84, 12.82 6.85 M12.07 7.81 C9.99 7.41, 5.21 6.26, -0.5 8.28 M13.19 6.77 C9.72 7.64, 6.78 7.28, 0.3 6.79 M-0.21 7.68 C-0.74 4.98, 0.44 4.38, -0.12 -0.1 M-0.18 6.87 C-0.03 4.26, 0.09 1.5, -0.06 0.17" stroke="#58a6ff" stroke-width="2" fill="none"></path></g><g stroke-linecap="round" transform="translate(128 609) rotate(0 6.5 1.5)"><path d="M-1.22 1.34 L14.94 -0.44 L12.33 3.81 L-1.45 3.38" stroke="none" stroke-width="0" fill="#58a6ff"></path><path d="M-0.08 -1.17 C2.4 -0.9, 6.37 -0.77, 13.6 0.7 M0.08 -0.4 C4.21 0.6, 8.98 -0.47, 12.98 -0.02 M13.09 0.13 C13.17 0.94, 13.22 2.09, 13.17 2.94 M12.95 0.03 C12.9 1.11, 13.02 2.45, 13 2.88 M12.45 3.87 C7.87 2.62, 4.29 4.34, -1.2 4.22 M13.33 3.37 C10.06 3.5, 7.21 2.74, -0.32 3.35 M-0.26 2.77 C-0.14 2.09, 0.02 1.38, 0.23 -0.07 M0 2.87 C0.01 2, 0.12 0.88, 0.06 0.01" stroke="#58a6ff" stroke-width="2" fill="none"></path></g><g stroke-linecap="round"><g transform="translate(105 624) rotate(0 0 13)"><path d="M0.62 -0.28 C0.61 3.78, -0.03 20.92, -0.26 25.47 M-0.52 -1.47 C-0.69 3.25, -1.73 22.29, -1.35 26.73" stroke="#3fb950" stroke-width="2" fill="none"></path></g><g transform="translate(105 624) rotate(0 0 13)"><path d="M-6.13 14.25 C-5.02 17.13, -2.09 21.03, -1.81 27.21 M-6.25 14.97 C-4.9 17.54, -3.3 20.36, -1.68 26.24" stroke="#3fb950" stroke-width="2" fill="none"></path></g><g transform="translate(105 624) rotate(0 0 13)"><path d="M2.76 14.22 C1.37 17.16, 1.8 21.06, -1.81 27.21 M2.64 14.94 C1.71 17.6, 1.04 20.43, -1.68 26.24" stroke="#3fb950" stroke-width="2" fill="none"></path></g></g><g stroke-linecap="round" transform="translate(180 530) rotate(0 55 45)"><path d="M-0.58 0.64 L111.11 -1.32 L111.97 90.71 L-0.92 91.89" stroke="none" stroke-width="0" fill="#3a1d6e"></path><path d="M0.53 1.4 C32.77 -0.7, 65.06 -0.07, 111.85 0.46 M0.58 -0.11 C28.65 -0.36, 59.35 1.21, 109.61 -0.49 M108.79 -0.66 C109.62 31.41, 110.83 62.88, 108.09 88.12 M109.33 -0.2 C108.99 32.79, 108.9 66.01, 110.75 89.37 M109.21 89.3 C80.49 90.25, 53.4 92.13, 0.81 91.19 M110.34 89.78 C75.95 88.65, 40.48 90.03, 0.08 89.56 M0.93 89.41 C0.65 64.75, -2.31 39.61, 0.12 -1.42 M-0.78 89.14 C0.89 65.26, 0.52 39.36, -0.64 0.4" stroke="#a371f7" stroke-width="2" fill="none"></path></g><g transform="translate(186 534) rotate(0 15.029983520507812 6.25)"><text x="0" y="NaN" font-family="Virgil, Segoe UI Emoji" font-size="10px" fill="#c9d1d9" text-anchor="start" style="white-space: pre;" direction="ltr">inst 2</text></g><g stroke-linecap="round" transform="translate(188 594) rotate(0 6.5 9)"><path d="M-0.94 0.75 L13.08 -1.64 L12.7 18.71 L-1.95 19.63" stroke="none" stroke-width="0" fill="#58a6ff"></path><path d="M-0.76 0.5 C4.53 -0.99, 8.88 1.15, 12.44 0.02 M-0.36 -0.38 C5.07 0.38, 9.31 -0.47, 13.11 -0.29 M14.71 -1.72 C14.5 5.42, 12.91 8.82, 13.07 18.62 M12.89 0.04 C12.39 3.5, 13.89 7.22, 12.52 17.49 M13.37 16.98 C8.23 16.83, 3.73 18.86, 0.5 17.45 M12.59 17.6 C10.38 18.26, 7.76 17.77, 0.43 17.38 M1.73 18.3 C-1.21 12, -1.04 10.64, 0.29 0.09 M-0.18 18.85 C-0.55 10.52, -0.62 4.12, -0.76 -0.19" stroke="#58a6ff" stroke-width="2" fill="none"></path></g><g stroke-linecap="round" transform="translate(202 569) rotate(0 6.5 21.5)"><path d="M0.24 0.95 L13.81 0.16 L14.38 42.01 L1.6 43.98" stroke="none" stroke-width="0" fill="#58a6ff"></path><path d="M-1.21 -1.18 C3.96 0.37, 6.56 0.9, 11.97 0.13 M-0.52 -0.37 C2.82 0.67, 6.33 0.71, 13.57 0.32 M11.15 -1.7 C12.41 14.26, 14.47 29.98, 13.95 41.02 M12.27 -0.46 C12.97 9.95, 12.39 20.33, 12.08 42.97 M12.24 43.22 C10.36 42.81, 7.32 42.47, 0.21 42.99 M13.08 42.47 C9.01 43.07, 5.99 42.63, -0.11 42.86 M1.28 42.27 C0.51 32.26, 0.66 20.83, 1.59 -0.44 M-0.78 43.03 C-1.04 30.1, 0.26 14.54, -0.48 -0.04" stroke="#58a6ff" stroke-width="2" fill="none"></path></g><g stroke-linecap="round" transform="translate(216 558) rotate(0 6.5 27)"><path d="M-1.93 -0.26 L13.74 0.35 L12.25 52.29 L1.01 52.75" stroke="none" stroke-width="0" fill="#58a6ff"></path><path d="M0.28 -1.16 C3.26 -0.08, 5.73 -0.4, 12.29 -0.19 M0.46 -0.07 C3.21 0.17, 7.99 0.48, 12.78 0.25 M13.21 0.41 C15.09 17.62, 13.13 34.46, 13.01 54.86 M12.94 0.33 C12.65 18.84, 12.24 38.36, 12.36 53.7 M13.64 54.26 C9.64 52.8, 5.24 55.16, -0.91 54.58 M13.12 53.88 C9.47 54.03, 7.58 54.32, -0.5 53.45 M0.87 54.21 C1.35 45.16, -0.96 31.51, 0.54 -0.15 M0.38 53.89 C-0.13 39.84, -0.24 26.09, -0.03 -0.33" stroke="#58a6ff" stroke-width="2" fill="none"></path></g><g stroke-linecap="round" transform="translate(230 585) rotate(0 6.5 13.5)"><path d="M-1.47 0.96 L13.9 -0.23 L14.93 26.74 L0.73 28.71" stroke="none" stroke-width="0" fill="#58a6ff"></path><path d="M-0.47 -1.22 C2.44 -0.2, 7.35 0.34, 13.98 -0.78 M-0.18 0.22 C3.27 -0.59, 7.51 -0.23, 12.98 0.24 M13.47 1.98 C14.36 10.31, 13.69 22.25, 12.95 25.2 M12.02 0.32 C14.08 6.18, 12.68 14.11, 12.55 27.91 M11.82 27.27 C10.89 26.27, 7.93 26.37, -1.16 27.56 M12.62 26.85 C8.44 27.06, 4.33 27.65, 0.04 27.19 M1.8 26.63 C1.11 15.21, 0.41 9.24, 0.75 0.61 M0.02 27.87 C0.65 19.49, 0.55 11.82, -0.64 -0.89" stroke="#58a6ff" stroke-width="2" fill="none"></path></g><g stroke-linecap="round" transform="translate(244 605) rotate(0 6.5 3.5)"><path d="M1.23 -1.76 L14.15 -1.34 L12.73 5.61 L1.41 8.11" stroke="none" stroke-width="0" fill="#58a6ff"></path><path d="M-0.1 -0.13 C3.64 -1.16, 6.73 1.02, 13.97 0.25 M-0.21 0.23 C2.16 0.49, 4.94 0.46, 12.67 0.53 M13.12 -0.59 C13.28 2.09, 12.7 2.96, 12.92 6.79 M13.23 -0.12 C12.85 1.83, 12.92 3.35, 12.67 7.21 M12.94 7.4 C8.27 7.58, 4.33 5.94, -0.97 6.37 M12.56 7.6 C8.99 6.58, 4.68 7.48, -0.03 6.72 M0.29 7.61 C-0.49 4.33, 0.45 2.01, 0.51 -0.42 M-0.15 7.17 C-0.02 4.91, 0.22 2.45, 0.07 -0.28" stroke="#58a6ff" stroke-width="2" fill="none"></path></g><g stroke-linecap="round" transform="translate(258 609) rotate(0 6.5 1.5)"><path d="M0.99 1.03 L11.67 -1.84 L12.57 2.38 L1.8 2.3" stroke="none" stroke-width="0" fill="#58a6ff"></path><path d="M0.13 0.06 C4.58 0.25, 8.3 0.51, 13.66 -0.66 M-0.11 -0.35 C3.33 0.65, 6.7 0.64, 13.32 -0.07 M13.08 -0.01 C13.04 0.86, 13.24 2.11, 12.72 3.12 M12.89 0.05 C13.09 0.9, 13.14 2.08, 13.07 3.04 M13.71 2.24 C11.06 3.39, 7.32 3.4, 0.33 1.87 M12.7 3.01 C10 2.74, 6.06 3.38, -0.23 2.41 M-0.05 3.01 C-0.16 2.24, -0.03 1.34, -0.29 0.1 M0.01 2.87 C0.1 2.15, -0.08 1.15, 0.11 -0.11" stroke="#58a6ff" stroke-width="2" fill="none"></path></g><g stroke-linecap="round"><g transform="translate(235 624) rotate(0 0 13)"><path d="M-0.75 0.44 C-0.54 4.6, 0.07 20.96, 0.34 25.32 M1.05 -0.38 C1.22 3.91, -0.34 22.34, -0.44 26.5" stroke="#3fb950" stroke-width="2" fill="none"></path></g><g transform="translate(235 624) rotate(0 0 13)"><path d="M-3.7 14.41 C-4.06 17.7, -1.86 20.81, 0.44 25.76 M-4.08 14.55 C-2.67 17.05, -1.93 20.36, -0.24 26.07" stroke="#3fb950" stroke-width="2" fill="none"></path></g><g transform="translate(235 624) rotate(0 0 13)"><path d="M5.18 14.92 C2.87 18.04, 3.12 21.04, 0.44 25.76 M4.8 15.06 C4.02 17.43, 2.57 20.61, -0.24 26.07" stroke="#3fb950" stroke-width="2" fill="none"></path></g></g><g stroke-linecap="round" transform="translate(310 530) rotate(0 55 45)"><path d="M1.38 1.66 L110.21 -1.66 L111.67 89.35 L0.9 91.38" stroke="none" stroke-width="0" fill="#3a1d6e"></path><path d="M1.36 0.96 C37.46 -1.39, 78.45 1.02, 111.23 0.16 M0.67 0.05 C22.09 -1.96, 45.19 -0.32, 109.7 0.08 M110.96 0.17 C108.58 20.02, 108.12 35.72, 111.69 90.78 M110.75 0.53 C110.46 29.32, 111.65 58.52, 110.4 89.57 M111.5 91.48 C82.45 91.28, 56.29 91.94, -0.76 91.35 M110.91 90.04 C70.69 90.58, 33.01 90.17, -0.78 90.69 M0.44 91.09 C1.74 58.88, -0.92 30.66, -1.76 -0.06 M0.22 89.64 C-0.12 68.43, 1.22 45.11, 0.31 -0.26" stroke="#a371f7" stroke-width="2" fill="none"></path></g><g transform="translate(316 534) rotate(0 14.874984741210938 6.25)"><text x="0" y="NaN" font-family="Virgil, Segoe UI Emoji" font-size="10px" fill="#c9d1d9" text-anchor="start" style="white-space: pre;" direction="ltr">inst 3</text></g><g stroke-linecap="round" transform="translate(318 594) rotate(0 6.5 9)"><path d="M-0.56 -1.34 L12.51 -1 L11.13 17.35 L-1.75 16.29" stroke="none" stroke-width="0" fill="#58a6ff"></path><path d="M-0.98 -1.16 C6.01 -0.62, 10.69 0.24, 12.23 0.37 M0.5 0.16 C4.94 0.18, 10.29 0.24, 13.2 0.48 M12.59 0.72 C12.17 6.7, 13.79 13.27, 13.5 19.11 M12.3 0.03 C12.37 5.76, 12.84 12.65, 12.33 18.73 M13.43 18.32 C9.54 17.31, 7.82 18.64, -0.22 16.99 M12.74 18.05 C9.62 17.47, 5.54 17.7, -0.4 17.43 M-1.15 17.75 C-0.48 13.41, -1.31 10.45, 1 0.04 M0.72 18.37 C0.38 11.96, -0.27 4.67, -0.17 0.7" stroke="#58a6ff" stroke-width="2" fill="none"></path></g><g stroke-linecap="round" transform="translate(332 573) rotate(0 6.5 19.5)"><path d="M0.4 -0.5 L11.96 -0.9 L11.5 38.86 L-1.2 38.85" stroke="none" stroke-width="0" fill="#58a6ff"></path><path d="M0.99 0.5 C3.37 0.01, 7.44 -0.19, 12.71 0.28 M-0.55 0.23 C5.05 0.46, 10.2 0.46, 12.54 0.1 M13.7 1.84 C13.86 13.36, 12.52 27.71, 13.18 37.15 M12.39 -0.73 C12.05 12.26, 13.22 22.22, 12.31 39.49 M12.42 37.72 C9.75 40.26, 6.34 39.21, -0.45 38.8 M12.52 38.67 C8.58 39.46, 5.29 39.08, 0.3 39.19 M0.35 40.4 C-0.29 29.95, -1.64 20.21, -0.56 -0.96 M-0.21 38.13 C-0.92 28.52, 0.63 16.48, 0.81 0.93" stroke="#58a6ff" stroke-width="2" fill="none"></path></g><g stroke-linecap="round" transform="translate(346 558) rotate(0 6.5 27)"><path d="M1.14 1.13 L11.26 0.54 L13.84 54.75 L-1.53 54.23" stroke="none" stroke-width="0" fill="#58a6ff"></path><path d="M0.56 -0.68 C3.92 -1.26, 6.8 1, 13.9 -1.19 M0.2 -0.11 C4.88 0.62, 9.98 0.19, 13.65 0.64 M14.83 1.62 C12.1 15.43, 12.05 31.54, 13.39 52.79 M12.56 -0.28 C12.41 17.91, 11.73 36.22, 12.94 54.69 M11.88 53.05 C9.28 54.82, 6.44 52.84, -0.56 54.54 M13.27 53.4 C10.35 53.73, 7.97 53.81, -0.59 53.58 M-0.84 53.71 C-1.61 40.22, 1.36 29.93, -0.16 0.83 M0.79 53.07 C-1.27 41.94, 0.55 32.03, 0.02 -0.46" stroke="#58a6ff" stroke-width="2" fill="none"></path></g><g stroke-linecap="round" transform="translate(360 573) rotate(0 6.5 19.5)"><path d="M1.7 0.97 L14.37 -0.81 L12.7 38.15 L1.83 37.83" stroke="none" stroke-width="0" fill="#58a6ff"></path><path d="M0.97 0.68 C1.57 -0.98, 5.14 0.9, 13.44 0.87 M0.41 -0.29 C4.41 0.26, 8.73 -0.53, 13.29 0.18 M11.51 0.68 C14.13 12.91, 14.7 28.69, 11.22 39.73 M13.98 -0.3 C13.56 14.02, 13.75 27.17, 12.37 39.05 M12.58 37.93 C7.72 38.6, 3.94 39.06, -0.81 38.11 M12.85 38.39 C8.55 38.84, 2.84 38.56, 0.07 39.55 M-1.37 37.11 C-1.83 30.79, 1.18 17.69, -0.86 0.8 M-0.84 38.17 C0.16 27.56, 0.64 15.09, -0.34 -0.63" stroke="#58a6ff" stroke-width="2" fill="none"></path></g><g stroke-linecap="round" transform="translate(374 591) rotate(0 6.5 10.5)"><path d="M1.63 -0.88 L13.37 1.58 L14.4 20.36 L-1.82 21.58" stroke="none" stroke-width="0" fill="#58a6ff"></path><path d="M-0.25 -0.48 C5.59 -0.88, 10.13 0.87, 12.65 -0.95 M-0.02 0.25 C2.35 0.27, 5.1 0.46, 13.61 0.44 M11.61 -0.63 C10.85 4.48, 13.66 11.39, 13.88 21.73 M13.45 0.59 C13.43 5.67, 12.28 11.33, 12.03 21.71 M13.81 21.81 C10.42 21.92, 5.7 20.72, 0.05 21.72 M13.55 20.75 C8.36 20.88, 3.75 21.34, -0.11 21.62 M0.91 20.77 C0.71 15.1, -0.78 8.56, -1.67 1.8 M-0.47 20.67 C0.65 17.46, -0.26 11.45, -0.07 0.8" stroke="#58a6ff" stroke-width="2" fill="none"></path></g><g stroke-linecap="round" transform="translate(388 602) rotate(0 6.5 5)"><path d="M1.11 -0.69 L14.91 -1.49 L14.93 8.68 L-1.44 11.8" stroke="none" stroke-width="0" fill="#58a6ff"></path><path d="M-0.65 -0.25 C2.9 0.46, 5.53 0.63, 13.76 -0.58 M0.51 -0.11 C4.45 -0.18, 8.79 0.28, 13.31 -0.08 M13.56 0.79 C12.04 1.98, 13.29 5.46, 13.8 10.34 M13.12 0.48 C13.29 3.17, 13.18 6.35, 13.35 10.41 M12.53 9.43 C9.48 10.6, 5.91 9.08, 1.11 8.79 M12.7 9.53 C8.5 9.38, 3.85 10.09, 0.2 10.2 M-0.73 10.5 C0.12 6.2, -0.69 1.79, 0.17 -0.53 M0.41 9.79 C0.2 6.63, 0.16 3.79, -0.35 -0.48" stroke="#58a6ff" stroke-width="2" fill="none"></path></g><g stroke-linecap="round"><g transform="translate(365 624) rotate(0 0 13)"><path d="M0.98 -0.28 C0.95 4.06, -0.08 20.62, -0.13 25.16 M0.03 -1.47 C-0.16 3.07, -1.18 21.83, -1.15 26.26" stroke="#3fb950" stroke-width="2" fill="none"></path></g><g transform="translate(365 624) rotate(0 0 13)"><path d="M-5.55 13.78 C-5.01 18.34, -1.82 21.86, -0.72 27.22 M-4.84 13.91 C-4.05 16.85, -3.49 19.3, -0.93 26.24" stroke="#3fb950" stroke-width="2" fill="none"></path></g><g transform="translate(365 624) rotate(0 0 13)"><path d="M3.34 14.03 C1.2 18.59, 1.71 22.03, -0.72 27.22 M4.05 14.16 C3 17.09, 1.73 19.48, -0.93 26.24" stroke="#3fb950" stroke-width="2" fill="none"></path></g></g><g stroke-linecap="round" transform="translate(440 530) rotate(0 55 45)"><path d="M1.71 0.26 L110.43 0.09 L109.02 91.79 L1.47 88.37" stroke="none" stroke-width="0" fill="#3a1d6e"></path><path d="M-1.34 -0.1 C37.3 -0.58, 70.32 -0.34, 111.97 0.8 M0.11 -0.57 C21.84 0.21, 44.09 -0.5, 109.38 -0.66 M108.6 -1.24 C109.27 25.75, 109.66 46.77, 111.71 90.53 M109.17 -0.19 C109.84 22.59, 109.97 44.75, 110.64 89.8 M109.02 88.89 C86.47 91.17, 62.96 89.66, -0.24 90.86 M109.19 90.37 C81.46 90.05, 52.33 90.65, 0.76 90.51 M-1.44 91.91 C-1.48 56.71, -1.09 19.57, 1.42 -0.21 M-0.26 89.77 C0.97 64.34, 0.28 40.39, 0.92 -0.23" stroke="#a371f7" stroke-width="2" fill="none"></path></g><g transform="translate(446 534) rotate(0 14.66998291015625 6.25)"><text x="0" y="NaN" font-family="Virgil, Segoe UI Emoji" font-size="10px" fill="#c9d1d9" text-anchor="start" style="white-space: pre;" direction="ltr">inst 4</text></g><g stroke-linecap="round" transform="translate(448 594) rotate(0 6.5 9)"><path d="M0.89 0.09 L13.12 0.85 L12.12 17.26 L1.75 19.26" stroke="none" stroke-width="0" fill="#58a6ff"></path><path d="M-0.52 -0.39 C4.14 -0.49, 6.91 -0.15, 12.46 -0.97 M-0.51 0.64 C3.22 -0.24, 6.28 0.33, 13.01 -0.39 M13.81 -0.38 C14.36 5.14, 13.01 13.71, 13.85 18.38 M13.64 0.17 C13.38 7.1, 13.4 14.48, 13.62 18.08 M13.17 18.58 C9.32 17.66, 6.5 17.49, 0.43 16.77 M13.53 18.27 C8.83 18.06, 5.11 18.38, 0.34 18.48 M-0.95 17.9 C1.24 14.62, -0.5 11.58, 0.56 -0.77 M0.26 18.54 C0.35 13.6, -0.44 9.69, -0.2 -0.48" stroke="#58a6ff" stroke-width="2" fill="none"></path></g><g stroke-linecap="round" transform="translate(462 569) rotate(0 6.5 21.5)"><path d="M-0.62 -1.85 L13.79 0.75 L14.64 44.58 L-1.71 41.39" stroke="none" stroke-width="0" fill="#58a6ff"></path><path d="M0.96 -0.96 C3.86 -1.17, 6.6 0.77, 14.06 -0.34 M-0.02 0.63 C5.3 0.27, 9.09 0.68, 13.63 0.44 M13.71 -0.15 C13.04 11.04, 11.42 18.14, 14.96 44.57 M12.14 0.69 C13.45 8.09, 13.43 18.39, 13.41 42.43 M13.17 42.72 C8.84 43.97, 6.73 44.12, 0.12 42.53 M12.92 43.32 C9.36 43.28, 5.99 42.58, -0.06 43.47 M0.91 41.23 C-1.61 34.4, -0.87 27.58, -1.11 -0.34 M-0.66 43.81 C-0.14 27.1, 0.25 9.93, 0.36 -0.65" stroke="#58a6ff" stroke-width="2" fill="none"></path></g><g stroke-linecap="round" transform="translate(476 558) rotate(0 6.5 27)"><path d="M1.12 0.65 L12.35 0.7 L11.05 55.42 L0.54 53.17" stroke="none" stroke-width="0" fill="#58a6ff"></path><path d="M0.23 1.27 C3.22 -0.34, 6.14 -0.6, 12.76 -0.14 M-0.5 0.3 C3.29 0.09, 7.02 0.34, 13.51 -0.53 M12.86 0.22 C12.19 19.44, 13.95 38.25, 14.6 54.09 M12.79 0.45 C11.98 19.35, 12.41 35.84, 13.13 53.15 M11.77 53.62 C8.58 53.45, 2.17 53.18, -0.71 54.44 M13.27 53.4 C9.66 53.27, 5.78 54.04, 0.25 54.36 M0.46 54.64 C1.32 43.61, 0.51 28.63, 0.92 1.61 M-0.47 54.68 C0.9 37.9, 0.68 22.67, -0.35 -0.88" stroke="#58a6ff" stroke-width="2" fill="none"></path></g><g stroke-linecap="round" transform="translate(490 585) rotate(0 6.5 13.5)"><path d="M1.76 1.21 L13.16 -0.39 L14.27 27.06 L1.12 28.39" stroke="none" stroke-width="0" fill="#58a6ff"></path><path d="M-1.17 0.41 C4.23 -0.66, 8.81 -0.83, 13.01 0.56 M0.28 0.6 C3.07 0.17, 7.23 -0.22, 13.36 0.52 M14.37 -0.14 C13.89 6.32, 14.67 11.77, 13.95 25.23 M13.1 0.38 C13.59 9.8, 12.73 18.32, 12.14 26.27 M12 27.91 C8.84 26.72, 7.07 28.02, -1.21 27.46 M13.63 26.79 C8.36 26.7, 4.83 27.57, -0.2 27.28 M-1.06 26.72 C1.87 17.67, 1.57 11.01, -1.37 1.01 M-0.03 26.19 C0.13 19.23, -0.5 11.3, -0.18 -0.44" stroke="#58a6ff" stroke-width="2" fill="none"></path></g><g stroke-linecap="round" transform="translate(504 605) rotate(0 6.5 3.5)"><path d="M-0.34 0.07 L13.23 0.02 L11.91 6.22 L-1.71 6.31" stroke="none" stroke-width="0" fill="#58a6ff"></path><path d="M0.08 1.14 C4.85 -1.09, 10.3 0.86, 13.86 -1.28 M-0.37 0.09 C2.33 0.11, 6.29 -0.03, 12.66 -0.51 M13.18 -0.28 C13.2 2.65, 12.82 5.71, 12.36 6.76 M13.14 -0.17 C12.62 2.79, 12.96 5.58, 12.68 6.87 M12.58 6.3 C8.01 6, 4.87 7.12, -0.65 7.96 M12.59 6.84 C8.15 7.14, 2.82 6.74, -0.03 6.51 M-0.36 7.57 C-0.04 4.18, -0.54 2.53, -0.28 -0.32 M0.2 6.91 C0.24 4.76, -0.25 2.74, 0.07 -0.03" stroke="#58a6ff" stroke-width="2" fill="none"></path></g><g stroke-linecap="round" transform="translate(518 609) rotate(0 6.5 1.5)"><path d="M0.28 0.41 L14.78 -1.22 L12 3.82 L1.27 4.23" stroke="none" stroke-width="0" fill="#58a6ff"></path><path d="M1.2 -0.11 C5.02 -0.7, 8.43 -0.67, 12.65 0.31 M0.52 0.14 C5.13 -0.33, 10.01 -0.03, 13.17 0.55 M13.05 0.12 C13.18 1.23, 12.88 2.39, 13.21 2.83 M12.99 0.09 C12.84 0.5, 12.94 1.25, 13.03 3.07 M12.37 3.76 C10.13 2.05, 6.1 3.96, -0.99 3.75 M12.73 2.73 C9.03 2.51, 5.24 2.93, -0.05 2.72 M-0.06 2.74 C-0.18 2.07, -0.27 0.76, 0.26 -0.14 M-0.09 3.1 C0 1.79, -0.02 0.51, 0.1 -0.15" stroke="#58a6ff" stroke-width="2" fill="none"></path></g><g stroke-linecap="round"><g transform="translate(495 624) rotate(0 0 13)"><path d="M-0.22 1.13 C-0.26 5.78, -1.23 22.78, -1.18 27.07 M-1.8 0.68 C-1.41 5.09, 0.72 21.46, 0.91 25.51" stroke="#3fb950" stroke-width="2" fill="none"></path></g><g transform="translate(495 624) rotate(0 0 13)"><path d="M-3.43 12.48 C-2.35 16.42, -1.34 20.12, -0.22 24.56 M-4.46 14 C-2.56 16.47, -1.79 20.24, 0.94 25.42" stroke="#3fb950" stroke-width="2" fill="none"></path></g><g transform="translate(495 624) rotate(0 0 13)"><path d="M5.42 11.65 C4.54 15.75, 3.59 19.64, -0.22 24.56 M4.39 13.17 C4.03 15.92, 2.54 19.9, 0.94 25.42" stroke="#3fb950" stroke-width="2" fill="none"></path></g></g><g stroke-linecap="round" transform="translate(570 530) rotate(0 55 45)"><path d="M-0.36 -0.7 L110.4 -0.17 L110.99 89.15 L1.29 88.04" stroke="none" stroke-width="0" fill="#3a1d6e"></path><path d="M1.34 -1.86 C43.47 0.07, 88.8 -1.14, 109.68 -1.89 M-0.57 -0.21 C43.87 -0.37, 88.46 -0.07, 110.71 -0.5 M109.78 0.54 C109.7 24.99, 111.48 54.96, 108.05 91.08 M110.99 0.38 C111.21 31.24, 111.35 62.05, 110.72 89.13 M109.47 90.11 C81.28 91.08, 51.04 88.29, 1.12 88.77 M110.88 90.69 C85.15 88.88, 60.48 90.5, 0.02 90.69 M0.13 90.65 C-0.16 64.94, -1.8 35.57, -1.46 -0.06 M-0.11 90.21 C0.43 64.84, 0.13 41.19, 0.04 0.04" stroke="#a371f7" stroke-width="2" fill="none"></path></g><g transform="translate(576 534) rotate(0 14.559982299804688 6.25)"><text x="0" y="NaN" font-family="Virgil, Segoe UI Emoji" font-size="10px" fill="#c9d1d9" text-anchor="start" style="white-space: pre;" direction="ltr">inst 5</text></g><g stroke-linecap="round" transform="translate(578 594) rotate(0 6.5 9)"><path d="M-0.31 1.63 L14.13 -0.66 L11.76 19.31 L-1.76 18.8" stroke="none" stroke-width="0" fill="#58a6ff"></path><path d="M0.67 -0.15 C2.38 0.95, 5.85 0.89, 12.87 -0.46 M-0.11 0.23 C2.71 -0.12, 6.66 0.03, 13.14 -0.55 M13.66 -1.03 C14.51 5.09, 11.94 9.65, 13 18.27 M13.38 0.53 C12.61 6.95, 13.47 13.14, 12.19 17.26 M13.77 18.27 C8.24 19.19, 2.18 16.89, 1.18 17.16 M13.5 18.23 C8.78 18.54, 5.95 18.52, 0.54 18.09 M-1.32 16.55 C-0.4 13.9, -0.33 11.4, -0.04 0.96 M-0.32 18.84 C0.15 15, 0.56 11.17, 0.32 0.71" stroke="#58a6ff" stroke-width="2" fill="none"></path></g><g stroke-linecap="round" transform="translate(592 569) rotate(0 6.5 21.5)"><path d="M1.14 -1.9 L12.56 1.26 L14.98 44.62 L-1.25 42.6" stroke="none" stroke-width="0" fill="#58a6ff"></path><path d="M0.82 -1.27 C6.07 -0.32, 9.11 -0.73, 13.5 -0.46 M-0.39 0.04 C5.05 -0.14, 9.58 -0.17, 13.49 0.34 M14.48 -0.27 C11.34 10.92, 12.05 17.86, 12.15 43.88 M13.74 -0.87 C12.55 16.77, 12.91 32.92, 12.67 42.31 M12.12 42.38 C7.54 42.35, 2.54 42.58, -0.55 44.14 M13.51 43.47 C8.06 42.43, 4.09 42.37, 0.24 42.59 M1.29 43.68 C-1.99 32.49, -0.22 21.85, -1.54 -1.08 M-0.31 43.42 C-0.37 34.9, -0.68 24.12, -0.14 -0.77" stroke="#58a6ff" stroke-width="2" fill="none"></path></g><g stroke-linecap="round" transform="translate(606 558) rotate(0 6.5 27)"><path d="M-0.2 0.61 L13.27 0.63 L12.53 54.39 L1.3 52.95" stroke="none" stroke-width="0" fill="#58a6ff"></path><path d="M-0.18 1.04 C4.6 -0.44, 6.92 0.49, 12.56 0.65 M-0.13 0.25 C2.87 -0.46, 6.4 -0.04, 12.96 -0.51 M12.14 1.73 C12.32 19.12, 12.62 32.95, 12.52 54.48 M13.66 0.05 C12.4 19.65, 12.47 40.98, 12.27 54.33 M12.02 53.23 C8.86 54.81, 6.76 53.47, -1.21 52.83 M13.56 54.13 C8.4 54.47, 5.11 54.53, 0.42 53.57 M-0.24 53.7 C-1.64 34.97, 0.23 20.61, 0.97 0.44 M-0.39 53.51 C0.49 36.83, 0.95 19.78, -0.35 -0.36" stroke="#58a6ff" stroke-width="2" fill="none"></path></g><g stroke-linecap="round" transform="translate(620 585) rotate(0 6.5 13.5)"><path d="M-1.25 1.27 L13.03 -1.27 L12.4 27.66 L1.78 27.86" stroke="none" stroke-width="0" fill="#58a6ff"></path><path d="M0.92 0.86 C2.69 -1.25, 7.73 -0.28, 12.17 1.07 M0.62 0.57 C3.65 -0.18, 8.42 0.37, 12.44 -0.47 M14.88 -0.95 C13.55 5.5, 12.52 9.83, 13.84 28.48 M13.98 0.35 C13.59 6.55, 12.62 12.78, 12.06 27.52 M12.59 27.75 C8.97 26.37, 4.9 25.93, 0.71 27.92 M13.24 26.43 C9.25 26.78, 5.08 27.53, -0.06 26.58 M-0.17 27.51 C-0.91 17.41, 0.72 10.35, 0.09 1.51 M-0.33 27.22 C-0.99 15.98, -0.21 6.93, 0.22 0.91" stroke="#58a6ff" stroke-width="2" fill="none"></path></g><g stroke-linecap="round" transform="translate(634 605) rotate(0 6.5 3.5)"><path d="M-0.81 0.91 L11.27 -1.11 L14.75 6.84 L0.99 6.02" stroke="none" stroke-width="0" fill="#58a6ff"></path><path d="M0 -0.26 C4.2 -0.05, 9.67 0.76, 12.92 -0.14 M-0.23 0.2 C3.08 -0.24, 7.3 0.1, 13.32 0.62 M13.58 -0.12 C12.69 2.25, 13.52 3.59, 12.58 6.97 M12.86 -0.3 C13 1.85, 13.34 3.8, 12.89 7.16 M14.24 6.11 C7.46 6.23, 5.09 7.96, -1.08 6.05 M13.31 7.2 C8.02 6.27, 2.46 6.7, -0.05 7.03 M0.16 6.57 C-0.18 4.59, -0.62 2.6, 0.52 -0.1 M0.11 7.31 C0.03 4.24, 0.28 1.51, 0.14 -0.24" stroke="#58a6ff" stroke-width="2" fill="none"></path></g><g stroke-linecap="round" transform="translate(648 609) rotate(0 6.5 1.5)"><path d="M1.23 -0.23 L13.4 1.67 L12.8 3.86 L-1.73 4.53" stroke="none" stroke-width="0" fill="#58a6ff"></path><path d="M1.18 0.26 C4.42 0.98, 7.33 -0.69, 13.82 0.55 M-0.37 -0.58 C4.29 -0.46, 9.18 -0.42, 13.62 0.54 M13.14 -0.07 C13.2 0.67, 13.05 1.09, 12.89 3.21 M12.88 -0.12 C13.11 0.94, 12.95 1.89, 12.86 2.91 M12.9 1.83 C10.79 3.55, 6.26 1.67, -0.51 3.16 M12.63 3.04 C10.15 3.05, 6.66 2.51, 0.33 3.34 M0.13 3.26 C-0.06 1.9, -0.08 1.17, 0.03 -0.27 M-0.14 3.05 C0.08 2.06, 0.01 1.02, 0 0.05" stroke="#58a6ff" stroke-width="2" fill="none"></path></g><g stroke-linecap="round"><g transform="translate(625 624) rotate(0 0 13)"><path d="M0.26 0.03 C0.1 4.41, -1 21.95, -1.17 26.18 M-1.06 -1 C-0.86 3.61, 1.06 23.24, 0.94 27.81" stroke="#3fb950" stroke-width="2" fill="none"></path></g><g transform="translate(625 624) rotate(0 0 13)"><path d="M-4.03 14.55 C-2.45 18.48, -1.83 21.56, 1.51 28.36 M-3.42 15.43 C-2.69 19.33, -1.36 23.33, 0.67 27.88" stroke="#3fb950" stroke-width="2" fill="none"></path></g><g transform="translate(625 624) rotate(0 0 13)"><path d="M4.85 14.14 C3.89 18.21, 1.96 21.41, 1.51 28.36 M5.47 15.03 C3.58 19.08, 2.29 23.21, 0.67 27.88" stroke="#3fb950" stroke-width="2" fill="none"></path></g></g><g stroke-linecap="round" transform="translate(700 530) rotate(0 55 45)"><path d="M-1.45 1.32 L108.93 0.44 L111.26 88.87 L-1.17 88.11" stroke="none" stroke-width="0" fill="#3a1d6e"></path><path d="M0.94 -1.65 C35.72 1.85, 71.88 1.16, 110.95 -0.66 M0.83 -0.77 C27.13 -1.59, 53.98 -1.59, 110.45 -0.93 M111.09 -1.09 C111.5 34.86, 111.12 67.44, 109.81 88.49 M110.88 0.53 C109.65 35.37, 110.63 69.92, 109.42 89.64 M109.26 88.4 C78.24 92.21, 46.9 89.2, 0.65 91.45 M109.47 90.8 C87.22 88.93, 63.19 88.4, 0.64 89.72 M0.11 90.31 C0.98 64.1, -0.69 40.66, 1.59 0.04 M0.49 89.88 C1.12 63.8, 0.83 38.44, -0.24 0.01" stroke="#a371f7" stroke-width="2" fill="none"></path></g><g transform="translate(706 534) rotate(0 14.66998291015625 6.25)"><text x="0" y="NaN" font-family="Virgil, Segoe UI Emoji" font-size="10px" fill="#c9d1d9" text-anchor="start" style="white-space: pre;" direction="ltr">inst 6</text></g><g stroke-linecap="round" transform="translate(708 594) rotate(0 6.5 9)"><path d="M-0.03 -0.45 L14.08 0.91 L14.24 17.8 L-1.49 16.21" stroke="none" stroke-width="0" fill="#58a6ff"></path><path d="M1.02 0.7 C4.45 -1.24, 6.71 -0.43, 11.98 0 M0.31 0.17 C2.23 -0.43, 4.96 -0.6, 12.55 -0.62 M14.28 -1.23 C13.43 4.35, 12.56 9.43, 13.71 18.72 M12.2 0.78 C13.41 3.17, 12.43 6.6, 13.69 17.64 M13.6 17.54 C7.38 18.23, 3.05 16.79, -0.48 18.26 M13.65 18.64 C8.82 18.13, 5.63 17.67, -0.59 17.55 M1.63 18.91 C-0.96 10.48, 0.52 7.22, 1.04 -0.44 M0.82 17.37 C-0.05 10.11, 0.49 4.25, 0.81 -0.8" stroke="#58a6ff" stroke-width="2" fill="none"></path></g><g stroke-linecap="round" transform="translate(722 573) rotate(0 6.5 19.5)"><path d="M-0.07 0.51 L13.79 -1.58 L11.01 37.74 L-1.44 37.97" stroke="none" stroke-width="0" fill="#58a6ff"></path><path d="M-1.12 1.2 C4.16 -0.77, 8.53 0.55, 11.89 -0.16 M0.35 -0.1 C3.75 0.61, 8.37 0.49, 13.02 0.62 M14.05 -1.53 C10.76 12.43, 12.92 22.37, 13.71 37.38 M13.07 0.4 C13.38 16.32, 12.98 31.47, 12.43 39.54 M12.28 39.67 C9.29 38.01, 5.79 38.93, 0.57 38.09 M12.87 39.3 C8.56 38.52, 3.89 39.02, -0.26 39.36 M-1.01 40.16 C0.74 29.27, 1.88 21.75, 1.42 0.28 M0.29 39.8 C0.64 24.51, 0.01 9.7, 0.74 0.03" stroke="#58a6ff" stroke-width="2" fill="none"></path></g><g stroke-linecap="round" transform="translate(736 558) rotate(0 6.5 27)"><path d="M-0.09 -1.95 L11.69 1.16 L12.25 52.92 L-1.32 53.99" stroke="none" stroke-width="0" fill="#58a6ff"></path><path d="M-0.48 0.84 C6.08 -1.04, 8.97 0.98, 12.25 -0.18 M0.09 -0.58 C4.74 -0.44, 9.97 0.64, 13.63 0.2 M11.27 1.6 C11.53 12.22, 12.07 23.12, 14.23 55.46 M13.42 -0.89 C13.69 18.37, 12.71 35.92, 13.94 53.88 M13.89 52.72 C8.9 52.68, 3.8 53.36, -0.23 54.59 M12.58 54.31 C9.43 54.5, 5.9 54.36, 0.22 54.04 M-1.76 54.01 C-1.07 38.72, -1.26 22.12, -1.35 -0.24 M0.25 54.2 C1.06 43.74, -0.42 31.67, -0.4 0.86" stroke="#58a6ff" stroke-width="2" fill="none"></path></g><g stroke-linecap="round" transform="translate(750 573) rotate(0 6.5 19.5)"><path d="M1.81 -0.18 L14.85 1.56 L13.38 39.78 L-0.73 37.46" stroke="none" stroke-width="0" fill="#58a6ff"></path><path d="M1.29 -0.99 C3.24 1.1, 8.56 -0.85, 12.9 -0.07 M0.12 0.58 C2.64 0.24, 6.64 -0.47, 13.3 0.46 M13.04 0.81 C12.75 14.27, 14.85 26.17, 12.93 40.13 M12.34 0.16 C13.13 7.28, 12.59 17.03, 13.59 38.93 M12.19 38.11 C8.77 39.74, 5.8 38.09, 0.12 39.47 M13.55 38.38 C9.91 38.51, 6.57 39.21, 0.54 39.01 M1.27 38.78 C-1.35 24.17, 1.18 9.43, 0.56 0.36 M0.45 39.37 C-0.92 25.33, -0.96 12.64, 0.84 -0.95" stroke="#58a6ff" stroke-width="2" fill="none"></path></g><g stroke-linecap="round" transform="translate(764 591) rotate(0 6.5 10.5)"><path d="M-1.9 -1.03 L11.81 0.87 L12.56 22.46 L0.08 20.29" stroke="none" stroke-width="0" fill="#58a6ff"></path><path d="M0.12 0.16 C6.19 1.2, 9.07 0.53, 12.46 -0.91 M0 -0.38 C3.39 0.54, 7.1 0.03, 13.31 0.39 M12.58 1.15 C11.59 5.01, 12.79 10.12, 13.19 20.04 M12.01 -0.13 C12.76 7.24, 12.66 13.28, 13.78 21.77 M12.54 21.94 C11.34 20.38, 6.51 20.85, 1 22.25 M13.37 20.82 C8.6 20.92, 6.04 21.55, 0.46 20.98 M-1.18 21 C-0.19 13.08, -0.2 6.26, -0.52 -0.32 M0.61 21.41 C0.21 13.62, 1.04 6.15, 0.6 0.82" stroke="#58a6ff" stroke-width="2" fill="none"></path></g><g stroke-linecap="round" transform="translate(778 602) rotate(0 6.5 5)"><path d="M-0.13 1.5 L11.68 -1.58 L13.52 11.49 L-0.09 9.19" stroke="none" stroke-width="0" fill="#58a6ff"></path><path d="M0.48 -0.15 C2.86 -1.28, 5.55 0.64, 12.02 -1.26 M0.56 -0.3 C4.51 0.42, 8.76 0.47, 12.81 -0.18 M12.97 -0.82 C13.7 3.07, 12.15 5.37, 12.29 9.27 M13.08 0.22 C12.63 1.72, 12.86 4.07, 12.95 9.74 M11.85 9.9 C9.42 10.34, 4.96 8.93, 0.41 9.25 M12.72 10.37 C7.81 9.68, 3.37 9.9, 0.58 10.15 M-0.26 10.29 C1.05 7.52, -0.15 5.01, -0.14 0.93 M-0.46 9.75 C-0.24 6.46, 0.21 1.82, -0.42 0.48" stroke="#58a6ff" stroke-width="2" fill="none"></path></g><g stroke-linecap="round"><g transform="translate(755 624) rotate(0 0 13)"><path d="M0.2 1.17 C0.38 5.75, 0.13 22.22, 0.01 26.52 M-1.16 0.74 C-1.04 5.05, -0.87 20.6, -0.94 24.67" stroke="#3fb950" stroke-width="2" fill="none"></path></g><g transform="translate(755 624) rotate(0 0 13)"><path d="M-4.11 12.46 C-3.98 14.44, -2.54 16.5, -1.74 24.46 M-4.74 12.4 C-4 15.81, -3.01 19.41, -0.79 24.68" stroke="#3fb950" stroke-width="2" fill="none"></path></g><g transform="translate(755 624) rotate(0 0 13)"><path d="M4.78 12.47 C3.05 14.46, 2.62 16.52, -1.74 24.46 M4.15 12.41 C2.15 15.84, 0.4 19.45, -0.79 24.68" stroke="#3fb950" stroke-width="2" fill="none"></path></g></g><g stroke-linecap="round" transform="translate(830 530) rotate(0 55 45)"><path d="M1.92 -1.61 L110.83 1.77 L108.27 88.72 L1.08 88.85" stroke="none" stroke-width="0" fill="#3a1d6e"></path><path d="M-0.9 0.54 C21.32 0.86, 46.88 0.61, 109.43 -1.22 M-0.79 0.34 C34.87 0.52, 72.12 -0.7, 110.59 -0.47 M111.5 0.07 C111.88 32.52, 108.24 62.81, 111.33 88.56 M110.73 0.64 C109.58 22.17, 111.12 43.04, 109.64 90.04 M110.51 89.23 C65.94 89.51, 22.02 91.84, -0.36 89.1 M109.43 89.88 C68.5 89.33, 27.14 88.45, 0.4 89.73 M0.67 91.54 C0.46 66.21, -2.51 40.28, 1.48 1.82 M-0.15 90.09 C0.13 70.06, 0.46 50.2, 0.05 0.3" stroke="#a371f7" stroke-width="2" fill="none"></path></g><g transform="translate(836 534) rotate(0 14.159980773925781 6.25)"><text x="0" y="NaN" font-family="Virgil, Segoe UI Emoji" font-size="10px" fill="#c9d1d9" text-anchor="start" style="white-space: pre;" direction="ltr">inst 7</text></g><g stroke-linecap="round" transform="translate(838 594) rotate(0 6.5 9)"><path d="M-1.72 0.2 L14.93 1.14 L14.81 19.31 L0.77 19.05" stroke="none" stroke-width="0" fill="#58a6ff"></path><path d="M1.28 -0.71 C5.64 1.07, 7.7 0.55, 11.78 0.31 M0.2 0.52 C2.88 -0.02, 6.46 -0.11, 13.63 -0.31 M13.98 1.1 C13.09 5.85, 12.12 11.64, 12.47 17.25 M12.31 0.45 C12.03 6.22, 12.28 14.2, 13.1 18.47 M13.05 18.34 C9.65 18.52, 8.89 17.72, -0.44 17.73 M13.46 18.14 C9.92 18.12, 5.52 17.95, -0.25 18.53 M1.46 16.89 C0.37 14.44, -0.02 10.77, 0.83 0.16 M0.06 17.7 C-0.28 11.57, -0.77 5.49, 0.77 -0.56" stroke="#58a6ff" stroke-width="2" fill="none"></path></g><g stroke-linecap="round" transform="translate(852 569) rotate(0 6.5 21.5)"><path d="M-1.44 -0.48 L13.17 1.63 L11.73 41.73 L-0.85 41.29" stroke="none" stroke-width="0" fill="#58a6ff"></path><path d="M-0.81 0.85 C3.41 -0.02, 8.69 -0.54, 13.17 1.07 M0.21 -0.08 C3.96 -0.13, 6.3 -0.2, 13.64 -0.26 M13.4 1.15 C15.09 13.85, 14.87 30.37, 12.85 43.89 M12.77 -0.35 C12.95 10.55, 12.77 20.32, 12.23 42.47 M12.12 44.14 C8.33 43.73, 3.66 42.09, 1.05 43.96 M13.09 42.45 C10.73 42.58, 7.83 43.06, 0.4 42.65 M0.41 41.43 C0.38 24.45, 1.42 10.55, 0.45 -0.53 M0.03 43.24 C-0.34 25.88, 0.57 8.26, -0.95 0.29" stroke="#58a6ff" stroke-width="2" fill="none"></path></g><g stroke-linecap="round" transform="translate(866 558) rotate(0 6.5 27)"><path d="M-1.88 -1.8 L12.64 0.34 L13.28 55.45 L-0.06 54.13" stroke="none" stroke-width="0" fill="#58a6ff"></path><path d="M-0.86 0.37 C2.48 -0.64, 5 0.82, 12.95 -0.71 M-0.53 -0.55 C3.97 -0.06, 8.63 -0.33, 12.37 0.12 M11.31 -0.95 C11.19 15.95, 13.33 31.96, 11.58 53.23 M12.86 0.9 C12.24 13.71, 13.75 28.67, 12.01 54.55 M12.01 54.14 C9.14 53.32, 6.74 53.89, -0.68 53.81 M12.41 54.44 C8.59 54.3, 4.13 54.64, -0.15 53.72 M-0.53 53.33 C-1.04 39.88, -1.8 25.06, -1.45 0.77 M-0.21 53.7 C0.87 34.14, 1.08 12.37, -0.34 0.8" stroke="#58a6ff" stroke-width="2" fill="none"></path></g><g stroke-linecap="round" transform="translate(880 585) rotate(0 6.5 13.5)"><path d="M0.3 0.06 L12.48 -1.96 L12.34 28.1 L0.76 26.91" stroke="none" stroke-width="0" fill="#58a6ff"></path><path d="M-0.87 0.53 C4.88 -0.25, 8.44 -0.44, 13.03 1.16 M-0.12 -0.57 C3.9 -0.32, 8.87 -0.06, 12.95 -0.31 M12.65 -0.95 C14.62 8.37, 14.45 19.33, 14.11 25.79 M12.85 0.77 C13.13 7.45, 13.85 13.58, 13 27.99 M13.17 27.36 C10.7 27.72, 8.34 26.47, -0.9 26.33 M12.51 27.6 C10.36 26.39, 7.68 27.47, 0.44 27.38 M0.93 25.02 C-0.09 15.78, -0.61 8.24, 0.66 0.24 M-0.98 27.17 C-0.93 21.17, 0.19 14.56, 0.54 -0.87" stroke="#58a6ff" stroke-width="2" fill="none"></path></g><g stroke-linecap="round" transform="translate(894 605) rotate(0 6.5 3.5)"><path d="M0.44 -1.71 L13.61 -1.38 L11.48 7.75 L1.76 6.57" stroke="none" stroke-width="0" fill="#58a6ff"></path><path d="M-0.42 -0.94 C5.6 0.37, 10.72 0.35, 14.23 1.28 M-0.41 0.05 C3.34 -0.08, 5.71 -0.22, 12.76 -0.07 M13.43 -0.04 C12.62 2.39, 13.53 5.5, 13.48 7.55 M12.91 0.17 C13.21 2.72, 13.21 5.18, 12.88 7.19 M13.27 6.42 C8.08 6.87, 3.28 5.87, -1.26 6.28 M13.02 7.4 C9.7 6.39, 5.05 6.94, -0.39 7.57 M0.26 7.62 C0.64 4.41, 0.46 2.12, 0.05 -0.03 M0.25 7.06 C0 4.2, 0.19 1.24, -0.11 0.21" stroke="#58a6ff" stroke-width="2" fill="none"></path></g><g stroke-linecap="round" transform="translate(908 609) rotate(0 6.5 1.5)"><path d="M-1.62 -0.79 L11.15 0.25 L11.37 3.41 L-1.98 1.92" stroke="none" stroke-width="0" fill="#58a6ff"></path><path d="M-0.75 -0.76 C3.96 0, 7.04 -1.11, 12.05 -0.89 M-0.4 -0.05 C3.17 -0.72, 6.32 -0.36, 12.49 -0.45 M12.94 0.22 C12.87 0.72, 12.8 1.25, 12.73 2.84 M12.85 0.12 C12.92 0.92, 13.16 1.81, 13.03 3.01 M12.78 1.87 C9.22 3.9, 7.98 3.52, 0.14 4 M12.84 2.48 C9.58 3, 5.04 2.56, -0.12 3.18 M-0.03 3.17 C0 2.26, -0.18 1.33, -0.26 -0.25 M0.01 2.86 C0.15 2.19, -0.04 1.61, -0.02 0.13" stroke="#58a6ff" stroke-width="2" fill="none"></path></g><g stroke-linecap="round"><g transform="translate(885 624) rotate(0 0 13)"><path d="M-0.19 0.66 C-0.16 5.1, -0.76 21.62, -0.59 25.84 M-1.75 -0.03 C-1.26 4.66, 1.44 22.73, 1.81 27.3" stroke="#3fb950" stroke-width="2" fill="none"></path></g><g transform="translate(885 624) rotate(0 0 13)"><path d="M-3.33 15.05 C-2.91 19.29, -1.31 22.09, 2.57 27 M-3.78 16.11 C-2.77 17.82, -1.93 21.39, 1.21 26.84" stroke="#3fb950" stroke-width="2" fill="none"></path></g><g transform="translate(885 624) rotate(0 0 13)"><path d="M5.5 14 C3.83 18.47, 3.34 21.52, 2.57 27 M5.05 15.06 C3.99 17, 2.78 20.81, 1.21 26.84" stroke="#3fb950" stroke-width="2" fill="none"></path></g></g><g stroke-linecap="round" transform="translate(960 530) rotate(0 55 45)"><path d="M1.35 0.65 L110.94 1.85 L109.2 90.22 L1.83 90.2" stroke="none" stroke-width="0" fill="#3a1d6e"></path><path d="M-0.15 -1.46 C31.28 -0.83, 58.99 -0.52, 109.7 1.49 M0.34 0.5 C34.93 -0.39, 69.13 -0.48, 110.88 -0.37 M109.22 -0.31 C108.83 23.48, 111.72 46.11, 109.35 90.72 M109.78 0.68 C109.25 20.18, 109.18 40.12, 110.31 90.22 M110.55 88.5 C86.79 88.13, 61.42 90.25, -0.89 91.19 M110.41 90.22 C87.78 91.63, 65.95 91.07, 0.86 90.29 M0.02 90.39 C-1.75 57.26, -0.33 25.2, -1.59 1.51 M-0.56 89.02 C0.03 56.98, 0.53 22.27, 0.86 0.35" stroke="#a371f7" stroke-width="2" fill="none"></path></g><g transform="translate(966 534) rotate(0 15.29498291015625 6.25)"><text x="0" y="NaN" font-family="Virgil, Segoe UI Emoji" font-size="10px" fill="#c9d1d9" text-anchor="start" style="white-space: pre;" direction="ltr">inst 8</text></g><g stroke-linecap="round" transform="translate(968 594) rotate(0 6.5 9)"><path d="M0.34 -0.46 L13.73 1.28 L14.99 18.76 L-0.2 18.03" stroke="none" stroke-width="0" fill="#58a6ff"></path><path d="M1.16 -1.17 C5.44 -1.06, 9.35 0.61, 12.14 -0.37 M0.02 0.19 C3.95 0.01, 6.83 -0.67, 12.56 0.56 M14.22 1.62 C13.47 6.89, 11.77 14.58, 14.28 19.38 M12.36 0.77 C12.31 4.78, 13.65 7.46, 12.31 17.66 M11.92 18.96 C9.79 19.1, 8.03 17.71, -0.77 17.41 M13.02 17.92 C10.49 18.42, 6.94 18.49, 0.18 17.68 M1.64 17.29 C1.61 10.67, 0.83 4.99, 1.63 -0.15 M-0.71 17.6 C0.89 12.73, -0.02 7.46, -0.15 0.24" stroke="#58a6ff" stroke-width="2" fill="none"></path></g><g stroke-linecap="round" transform="translate(982 569) rotate(0 6.5 21.5)"><path d="M0.63 0.18 L13.58 0.5 L11.17 41.84 L1.63 44.64" stroke="none" stroke-width="0" fill="#58a6ff"></path><path d="M0.34 -0.4 C2.43 0.51, 7.51 -0.36, 13.51 0.25 M-0.38 -0.59 C3.18 -0.36, 6.06 -0.3, 12.89 0.6 M14.01 -1.31 C13.38 12.21, 13.74 25.96, 14.1 41.76 M13.19 -0.64 C14.13 10.97, 14.07 21.76, 12.93 43.54 M12.36 43.87 C9.22 42.99, 5.08 42.96, -1.2 44.27 M13.35 42.96 C9.04 43.17, 5 43, -0.16 43.07 M1.4 42.22 C0.64 27.15, -1.44 14.51, -1.08 1.9 M0.73 43 C0.28 31.35, -0.07 20.53, 0.46 -0.93" stroke="#58a6ff" stroke-width="2" fill="none"></path></g><g stroke-linecap="round" transform="translate(996 558) rotate(0 6.5 27)"><path d="M-1.32 0.93 L14.66 -0.55 L12.91 53.69 L1.08 53.04" stroke="none" stroke-width="0" fill="#58a6ff"></path><path d="M0.46 -0.33 C3.99 -0.58, 8.73 0.02, 12.19 0.7 M0.3 0.27 C2.58 -0.11, 6.43 0.37, 13.41 0.15 M12.44 -1.51 C11.45 13.7, 15.37 25.09, 13.83 53.54 M13.51 -0.12 C13.07 20.13, 12.84 41.76, 12.29 53.96 M13.08 54.53 C8.17 52.9, 3.82 53.09, -0.39 53.47 M13.39 53.58 C9.01 54.58, 6.11 54.29, 0.6 54.23 M1.5 53.65 C0.5 38.7, 0.6 24.19, 0.51 1.73 M-0.74 54.91 C-0.96 32.28, -0.73 11.45, 0.73 -0.14" stroke="#58a6ff" stroke-width="2" fill="none"></path></g><g stroke-linecap="round" transform="translate(1010 585) rotate(0 6.5 13.5)"><path d="M1.51 -1.78 L11.44 0.87 L11.96 27.33 L-1.08 27.24" stroke="none" stroke-width="0" fill="#58a6ff"></path><path d="M-1.2 1.11 C4.87 -0.37, 6.91 -1.17, 12.18 -0.13 M0.59 -0.61 C3.39 0.38, 6.25 -0.32, 13.4 0.55 M14.81 0.15 C12.49 4.96, 12.57 10.58, 14.93 26.74 M12.31 -0.5 C12.02 6.77, 12.66 13.73, 12.16 26.73 M13.98 27.17 C9.02 26.53, 3.9 26.91, 1.22 27.78 M13.05 26.42 C10.09 26.53, 7.48 27.36, 0.3 26.6 M-1.53 28.43 C-2.25 18.6, 0.18 7.52, -0.03 1.3 M-0.21 27.05 C-0.41 16.09, 0.21 7.35, 0.31 0.81" stroke="#58a6ff" stroke-width="2" fill="none"></path></g><g stroke-linecap="round" transform="translate(1024 605) rotate(0 6.5 3.5)"><path d="M0.61 1.64 L14.35 -1.68 L13.53 8.47 L-0.1 6.1" stroke="none" stroke-width="0" fill="#58a6ff"></path><path d="M-0.7 -1.16 C5.65 -0.96, 10.05 0.42, 13.18 0.82 M0.28 0.41 C2.92 0.47, 7.14 -0.69, 13.1 -0.01 M12.73 0.67 C13.15 3.44, 13.16 5.5, 12.31 6.31 M13.34 0.27 C12.96 2.91, 13.24 5.32, 12.7 7.05 M12.77 8.24 C10.5 7.8, 7.18 6.58, 0.32 6.02 M12.85 6.85 C10.72 6.68, 8.05 7.42, 0.1 6.65 M-0.27 7.7 C-0.05 4.28, 0.3 1.57, -0.08 -0.18 M-0.11 7.19 C-0.14 4.95, 0.25 3.39, 0.2 0.32" stroke="#58a6ff" stroke-width="2" fill="none"></path></g><g stroke-linecap="round" transform="translate(1038 609) rotate(0 6.5 1.5)"><path d="M-1.43 0.17 L12.58 1.99 L12.92 4.43 L1.54 4" stroke="none" stroke-width="0" fill="#58a6ff"></path><path d="M0.66 -1.27 C4.66 0.44, 8.72 0.54, 14.06 -0.64 M-0.36 0 C5.62 -0.11, 10.49 -0.58, 12.37 -0.31 M12.76 0.3 C13.01 0.85, 13.04 1.86, 13.07 3.03 M13 -0.04 C13.02 0.6, 13.12 1.35, 12.95 3 M13.63 1.91 C9.74 4.28, 4.97 2.83, 1.21 3.57 M13 3.44 C8.21 3.35, 4.2 2.6, -0.6 2.37 M-0.17 2.81 C-0.13 2.27, 0.06 1.59, -0.07 -0.12 M0.13 2.9 C-0.09 2.39, 0.12 1.67, 0.03 -0.14" stroke="#58a6ff" stroke-width="2" fill="none"></path></g><g stroke-linecap="round"><g transform="translate(1015 624) rotate(0 0 13)"><path d="M-0.39 -0.65 C-0.26 3.74, 0.12 21.64, 0.08 26.15 M1.61 1.62 C1.65 6.25, -0.27 24, -0.83 27.76" stroke="#3fb950" stroke-width="2" fill="none"></path></g><g transform="translate(1015 624) rotate(0 0 13)"><path d="M-4.48 15.18 C-2.93 17.48, -1.99 21.75, -1.82 27.79 M-3.78 15.42 C-3.4 19.91, -2.36 23.71, -0.27 27.58" stroke="#3fb950" stroke-width="2" fill="none"></path></g><g transform="translate(1015 624) rotate(0 0 13)"><path d="M4.35 16.25 C3.78 18.26, 2.59 22.28, -1.82 27.79 M5.05 16.49 C2.41 20.62, 0.42 24.06, -0.27 27.58" stroke="#3fb950" stroke-width="2" fill="none"></path></g></g><g stroke-linecap="round" transform="translate(1090 530) rotate(0 55 45)"><path d="M-0.23 -0.28 L108.51 0.84 L110.97 91.2 L-0.13 88.61" stroke="none" stroke-width="0" fill="#3a1d6e"></path><path d="M-1.32 1.47 C37.74 1.31, 72.14 0.18, 108.73 0.22 M0.68 -0.24 C28.85 1.03, 57.52 1.71, 109.68 -0.74 M108.31 1.36 C111.12 25.81, 110.02 54.95, 111.89 88.48 M110.99 -0.98 C110.44 24.17, 109.38 45.97, 109.39 90.19 M109.66 88.83 C73.47 87.73, 34.94 90.56, -1.14 90.75 M109.74 90.89 C75.05 90.77, 38.51 89.74, 0.05 89.16 M0.47 91.27 C-0.25 62.31, 1.67 35.21, 1.76 -2 M0.14 90.96 C-1.39 59.1, 0.57 28.47, 0.25 0.66" stroke="#a371f7" stroke-width="2" fill="none"></path></g><g transform="translate(1096 534) rotate(0 14.514984130859375 6.25)"><text x="0" y="NaN" font-family="Virgil, Segoe UI Emoji" font-size="10px" fill="#c9d1d9" text-anchor="start" style="white-space: pre;" direction="ltr">inst 9</text></g><g stroke-linecap="round" transform="translate(1098 594) rotate(0 6.5 9)"><path d="M-1.56 0 L13.15 0.65 L11.78 18.24 L0.48 18.74" stroke="none" stroke-width="0" fill="#58a6ff"></path><path d="M0.14 -0.4 C5.52 1.11, 9.89 -0.04, 12.98 -1.03 M0.25 -0.07 C3.56 -0.04, 5.88 0.49, 13.09 -0.09 M14.18 0.45 C13.92 2.63, 13.9 9.32, 11.68 17.69 M12.64 0 C13.7 6.8, 13.19 12.09, 13.12 18.08 M14.27 17.19 C7.86 18.55, 3.68 18.77, -0.99 17.83 M13.51 18.43 C9.26 18.04, 6.57 18.49, 0.53 17.43 M-0.16 17.91 C0.99 13.83, 0.71 7.08, -1.58 -1.35 M-0.39 18.17 C-0.12 11.94, 0.23 7.8, -0.2 0.09" stroke="#58a6ff" stroke-width="2" fill="none"></path></g><g stroke-linecap="round" transform="translate(1112 573) rotate(0 6.5 19.5)"><path d="M-0.88 -0.81 L11.7 -1.43 L11.89 37.33 L1.5 38.35" stroke="none" stroke-width="0" fill="#58a6ff"></path><path d="M-0.98 0.17 C4.47 -0.37, 7.44 0.98, 12.14 -0.2 M0.6 0.44 C4.46 -0.14, 10.13 -0.04, 12.93 0.17 M13.96 -0.37 C11.18 12.2, 14.69 20.25, 11.39 39.93 M12.9 0.47 C12.87 8.28, 11.82 16, 12.85 39.56 M11.77 38.46 C9.16 39.24, 2.57 38.48, -1.02 39.16 M12.65 38.84 C9.27 39.25, 4.9 39.45, 0.05 38.42 M1.97 37.64 C-0.76 25.48, 1.51 12.45, -1.68 0.98 M-0.55 39.98 C-0.44 23.85, 0.55 8.77, -0.8 0.1" stroke="#58a6ff" stroke-width="2" fill="none"></path></g><g stroke-linecap="round" transform="translate(1126 558) rotate(0 6.5 27)"><path d="M-1.55 1.48 L11.13 1.67 L13 55.28 L-1.89 52.67" stroke="none" stroke-width="0" fill="#58a6ff"></path><path d="M-0.79 0.62 C3.07 0.8, 5.22 -0.07, 13.33 0.07 M0.35 0.19 C3.23 0.51, 6.09 0.32, 12.9 0 M11.35 -1.12 C11.29 19.82, 13.91 38.77, 11.64 54.49 M12.3 -0.13 C12.25 19.75, 12.57 37.51, 13.6 53.5 M12.51 54.41 C8.97 54.07, 5.18 54.89, -0.6 54.36 M13.5 54.31 C8.14 53.92, 3.72 54.41, -0.56 54.56 M-1.93 55.21 C0.15 40.33, -2.17 24.41, 1.49 1.64 M-0.56 53.33 C1.01 37.67, -0.01 20.58, 0.22 -0.44" stroke="#58a6ff" stroke-width="2" fill="none"></path></g><g stroke-linecap="round" transform="translate(1140 573) rotate(0 6.5 19.5)"><path d="M0.99 0.62 L14.16 0.88 L14.13 37.52 L0.93 39.42" stroke="none" stroke-width="0" fill="#58a6ff"></path><path d="M-0.73 0.43 C5.69 0.7, 8.43 0.14, 12.5 0.11 M0.5 0.18 C4.37 -0.59, 7.63 0.16, 13.44 0.53 M13.53 1.59 C13.12 13.84, 13.15 27.98, 13.99 38.68 M12.3 0.37 C13.09 11.65, 13.65 24.5, 13.38 39.59 M13.02 39.2 C9.54 38.22, 6.48 38.76, -0.16 38.94 M13.29 39.18 C10.63 38.67, 7.59 38.43, -0.61 38.64 M-0.58 39.05 C-0.99 31.74, 1.55 24.25, -1.12 2 M0.21 39.58 C0.95 24.46, 1.22 12.03, -0.06 -0.85" stroke="#58a6ff" stroke-width="2" fill="none"></path></g><g stroke-linecap="round" transform="translate(1154 591) rotate(0 6.5 10.5)"><path d="M-0.64 1.53 L13.8 -0.09 L13.15 19.7 L-0.19 20.69" stroke="none" stroke-width="0" fill="#58a6ff"></path><path d="M-0.26 1.21 C2.45 0.48, 7.27 1.2, 12.62 0.64 M-0.54 0.2 C3.12 0.34, 6.74 -0.42, 13.01 0.55 M11.45 0.26 C12.87 3.43, 11.81 8.96, 12.09 21.58 M12.76 0.75 C13.4 4.83, 13.1 9.57, 12.24 21.79 M11.98 19.96 C9.29 21.33, 6.51 20.64, -0.95 21.23 M12.56 21.24 C8.79 21.37, 4.15 20.82, -0.07 21.12 M1.85 22.32 C-0.25 11.99, -1.51 5.75, -1.49 1.93 M-0.13 20.76 C-0.71 17.49, 0.05 12.48, -0.76 0.83" stroke="#58a6ff" stroke-width="2" fill="none"></path></g><g stroke-linecap="round" transform="translate(1168 602) rotate(0 6.5 5)"><path d="M0.61 -1.69 L12.64 -0.72 L14.52 9.97 L-0.89 11.95" stroke="none" stroke-width="0" fill="#58a6ff"></path><path d="M0.33 1.3 C2.19 1.2, 6.45 -0.53, 13.23 -0.47 M0.21 -0.21 C4.66 0.11, 8.56 0.13, 13.03 -0.55 M12.48 -0.34 C12.96 1.55, 12.32 3.64, 12.39 10.91 M12.6 0.24 C13.37 2.07, 12.92 4.75, 13.43 10.19 M13.86 10.14 C9.1 10.36, 7.12 8.94, 0.68 9.44 M12.64 9.43 C8.35 9.53, 3.33 10.08, -0.11 10.61 M0.31 10.54 C-0.95 7.83, 0.46 3.8, -0.29 -0.1 M-0.09 9.61 C0.48 6.34, 0.42 4.03, 0.48 0.35" stroke="#58a6ff" stroke-width="2" fill="none"></path></g><g stroke-linecap="round"><g transform="translate(1145 624) rotate(0 0 13)"><path d="M0.25 -0.83 C0.23 3.28, 0.26 21.21, 0.27 25.66 M-1.08 1.34 C-1.27 5.55, -0.66 22.72, -0.53 27.02" stroke="#3fb950" stroke-width="2" fill="none"></path></g><g transform="translate(1145 624) rotate(0 0 13)"><path d="M-6.27 15.25 C-4.03 19.29, -2.18 22.7, -0.44 26.66 M-5.89 14.92 C-4.5 17.54, -2.49 20.49, -0.17 27.06" stroke="#3fb950" stroke-width="2" fill="none"></path></g><g transform="translate(1145 624) rotate(0 0 13)"><path d="M2.62 14.96 C1.9 19.12, 0.79 22.62, -0.44 26.66 M3 14.64 C2.17 17.35, 1.95 20.37, -0.17 27.06" stroke="#3fb950" stroke-width="2" fill="none"></path></g></g><g stroke-linecap="round" transform="translate(1220 530) rotate(0 55 45)"><path d="M-1.42 0.14 L109.36 1.96 L110.49 89.85 L-0.12 91.65" stroke="none" stroke-width="0" fill="#3a1d6e"></path><path d="M1.55 -1.3 C26.18 0.67, 51.49 1.2, 109.81 -0.31 M0.13 -0.03 C42.65 -0.02, 86.68 -0.9, 109.04 -0.47 M111.81 -1.42 C110.34 25.03, 109.56 49.33, 111 90.55 M110.67 0.1 C109.88 31.4, 108.63 62.78, 110.77 89.22 M108.06 91.03 C70.17 92.82, 31.4 89.96, -1.05 91.97 M110.11 89.8 C73.23 90.3, 36.02 90.87, 0.39 90.49 M-0.83 90.15 C0.99 54.6, -0.81 17.14, -1.5 -1.28 M0.24 90.26 C-1.11 66.85, 0.37 43.38, 0.6 -0.92" stroke="#a371f7" stroke-width="2" fill="none"></path></g><g transform="translate(1226 534) rotate(0 16.264976501464844 6.25)"><text x="0" y="NaN" font-family="Virgil, Segoe UI Emoji" font-size="10px" fill="#c9d1d9" text-anchor="start" style="white-space: pre;" direction="ltr">inst 10</text></g><g stroke-linecap="round" transform="translate(1228 594) rotate(0 6.5 9)"><path d="M-0.34 0.76 L12.83 -0.27 L14.58 19.98 L-1.62 17.71" stroke="none" stroke-width="0" fill="#58a6ff"></path><path d="M0.92 0.88 C3.19 0.34, 5.33 -1.23, 14.05 -1.21 M-0.36 -0.27 C4.1 -0.31, 8.74 0.05, 13.35 0.52 M14.52 -0.09 C14.3 5.08, 11.8 12.33, 14.14 16.79 M12.53 0.34 C12.49 5.85, 13.32 9.35, 12.95 18.17 M13.08 17.2 C11.38 18.77, 7.62 17.11, 0.28 16.96 M12.6 17.72 C8.45 17.65, 2.32 17.9, 0.39 17.73 M-0.48 16.6 C-0.42 14.23, 0.84 10.41, -0.32 1.6 M-0.17 18.07 C-0.26 13.46, -0.7 9.18, 0.58 -0.55" stroke="#58a6ff" stroke-width="2" fill="none"></path></g><g stroke-linecap="round" transform="translate(1242 569) rotate(0 6.5 21.5)"><path d="M0.74 0.97 L13.49 -1.01 L12.43 42.03 L1.75 41.57" stroke="none" stroke-width="0" fill="#58a6ff"></path><path d="M-0.52 -0.04 C4.06 -0.93, 9.2 0.93, 13.23 0.29 M-0.21 0.15 C3.31 -0.22, 6.21 -0.3, 12.39 0 M13.2 1.27 C13.55 11.68, 13.75 21.28, 11.4 41.15 M13.46 -0.76 C14.19 9.6, 13.53 17.6, 12.98 42.66 M14.25 43.63 C6.93 42.88, 2.69 42.64, -1.19 42.48 M13.46 43.17 C8.12 43.38, 4.34 43.29, 0.02 43.21 M-0.86 43.76 C-1.83 30.76, -2.09 20.66, -1.62 0.31 M-0.83 43.32 C-0.27 26.4, -1.2 11.44, -0.38 0.39" stroke="#58a6ff" stroke-width="2" fill="none"></path></g><g stroke-linecap="round" transform="translate(1256 558) rotate(0 6.5 27)"><path d="M-1.57 -1.78 L13.08 -1.97 L13.51 55.58 L-0.48 55.47" stroke="none" stroke-width="0" fill="#58a6ff"></path><path d="M-0.99 -0.95 C3.55 0.99, 7.32 1.07, 13.68 0.84 M0.59 -0.27 C3.97 -0.48, 8.46 -0.16, 12.71 -0.59 M12.58 -1.02 C13.64 12.35, 13.43 25.17, 13.05 54.34 M12.69 0.11 C14.46 16.9, 13.72 34.09, 12.78 54.19 M12.26 54.37 C8.28 53.6, 3.72 54.69, 0.35 55.03 M13.25 54.53 C8.04 53.96, 2.5 54.65, 0.52 53.66 M1.38 53.17 C2.04 40.39, 0.17 29.25, -1.23 -0.6 M0.58 54.22 C0.35 35.13, -0.14 18.28, 0.22 0.59" stroke="#58a6ff" stroke-width="2" fill="none"></path></g><g stroke-linecap="round" transform="translate(1270 585) rotate(0 6.5 13.5)"><path d="M1.42 -1.07 L13.23 0.42 L13.48 25.32 L0.19 27.46" stroke="none" stroke-width="0" fill="#58a6ff"></path><path d="M0.85 -1.21 C3.53 -1.12, 5.73 0.59, 13.8 1.13 M-0.39 -0.63 C4.98 0.54, 9.12 0.07, 13.47 0.19 M12.5 -1.67 C12.15 6.4, 14.67 18.56, 12.94 26.4 M12.83 0.39 C12.76 8.57, 12.21 16.02, 12.55 26.78 M13.13 26.35 C9.42 27.06, 6.99 26.2, -0.33 25.87 M13.33 27.53 C9.83 27.03, 6.17 26.71, -0.27 27.34 M-1.77 27.51 C-1.26 21.11, -1.19 13.47, -0.27 1.66 M-0.04 26.06 C0.11 19.92, -0.45 13.7, 0.43 -0.51" stroke="#58a6ff" stroke-width="2" fill="none"></path></g><g stroke-linecap="round" transform="translate(1284 605) rotate(0 6.5 3.5)"><path d="M-0.84 -1.07 L11.64 0.49 L14.58 5.94 L-1.22 7.16" stroke="none" stroke-width="0" fill="#58a6ff"></path><path d="M-0.28 -0.1 C5.28 -0.68, 9.06 1.25, 11.74 -1.3 M0.33 0.05 C3.19 -0.42, 5.67 0.45, 12.83 -0.23 M13.27 0.19 C13.16 2.62, 13.05 4.07, 13.13 6.62 M13.03 -0.19 C12.87 1.8, 13.09 3.81, 13.24 6.91 M14.27 6.43 C9.59 5.91, 4.57 6.65, 0.65 7.62 M13.07 6.69 C9.05 7.08, 4.13 6.99, -0.05 6.6 M-0.38 7.42 C0 5.55, 0.08 3.65, -0.61 0.32 M-0.22 7.05 C-0.04 4.94, 0.31 3.25, -0.1 0.19" stroke="#58a6ff" stroke-width="2" fill="none"></path></g><g stroke-linecap="round" transform="translate(1298 609) rotate(0 6.5 1.5)"><path d="M0.84 -1.4 L12.89 1.67 L13.82 3.26 L-0.09 3.09" stroke="none" stroke-width="0" fill="#58a6ff"></path><path d="M1.27 0.6 C2.53 1.08, 7.19 -0.89, 12.7 -0.19 M0.52 -0.16 C3.02 -0.5, 6.26 0.08, 12.7 0.15 M12.82 0.22 C12.89 1.16, 13.03 1.77, 13.23 2.83 M12.95 -0.04 C13.04 0.5, 13.1 1.36, 13.12 2.95 M12.44 2.45 C10.25 2.53, 4.44 2.73, 0.4 2.53 M13.04 3.54 C9.46 2.57, 5.71 2.72, -0.53 3.47 M0.14 2.92 C0.03 2.43, 0.24 1.83, 0.21 0.25 M-0.11 2.9 C-0.01 2.44, -0.01 1.85, 0.11 0.06" stroke="#58a6ff" stroke-width="2" fill="none"></path></g><g stroke-linecap="round"><g transform="translate(1275 624) rotate(0 0 13)"><path d="M0.86 1.14 C0.52 5.54, -0.96 22.25, -0.94 26.41 M-0.15 0.69 C-0.21 4.73, 1.13 20.04, 1.28 24.5" stroke="#3fb950" stroke-width="2" fill="none"></path></g><g transform="translate(1275 624) rotate(0 0 13)"><path d="M-2.66 11.55 C-1.44 18.23, 0.22 20.86, 0.69 24.67 M-3.51 13.01 C-1.42 16.68, 0.3 21.04, 1.41 23.91" stroke="#3fb950" stroke-width="2" fill="none"></path></g><g transform="translate(1275 624) rotate(0 0 13)"><path d="M6.21 11.02 C3.97 17.97, 2.16 20.81, 0.69 24.67 M5.36 12.47 C4.07 16.39, 2.41 20.96, 1.41 23.91" stroke="#3fb950" stroke-width="2" fill="none"></path></g></g><g transform="translate(50 656) rotate(0 119.3848876953125 9.375)"><text x="0" y="NaN" font-family="Virgil, Segoe UI Emoji" font-size="15px" fill="#3fb950" text-anchor="start" style="white-space: pre;" direction="ltr">sum (rate (bucket [5m])) by (le)</text></g><g stroke-linecap="round" transform="translate(320 690) rotate(0 400 80)"><path d="M1.8 1.38 L799.91 -1.55 L801.72 158.69 L-0.57 158.42" stroke="none" stroke-width="0" fill="#0f1419"></path><path d="M-0.15 -0.49 C198.8 -2.89, 397.01 -2.57, 800.12 -0.64 M-0.05 -0.04 C264.28 2.61, 528.09 2.85, 799.63 0.28 M798.08 -0.72 C800.25 38.63, 799.94 79.96, 800.79 158.13 M799.87 -0.25 C798.94 63.04, 798.64 125.89, 800.61 159.4 M799.48 159.46 C582.93 159.13, 366.7 157.92, 0.33 160.43 M799.62 160.38 C596.76 161.98, 393.83 161.7, -0.08 159.74 M0.02 160.52 C0.64 108.74, -1.51 57.86, 0.58 -1.91 M0.89 159.12 C-1.74 127.27, -1.76 92.45, 0.68 -0.57" stroke="#6dbf3a" stroke-width="2" fill="none"></path></g><g transform="translate(334 698) rotate(0 96.92190551757812 8.75)"><text x="0" y="NaN" font-family="Virgil, Segoe UI Emoji" font-size="14px" fill="#3fb950" text-anchor="start" style="white-space: pre;" direction="ltr">Aggregated global histogram</text></g><g stroke-linecap="round"><g transform="translate(350 826) rotate(0 370 0)"><path d="M-0.55 0.15 C122.68 0.06, 615.92 -0.64, 739.31 -0.59 M1.36 -0.81 C124.99 -0.75, 618.74 0.78, 741.66 0.64" stroke="#8b949e" stroke-width="1" fill="none"></path></g></g><g stroke-linecap="round" transform="translate(360 788) rotate(0 54 19)"><path d="M0.96 1 L107.23 -0.27 L109.74 39.28 L0.06 37.44" stroke="none" stroke-width="0" fill="#6dbf3a"></path><path d="M0.58 -1.78 C30.18 0.97, 63.91 -0.2, 107.38 -1.4 M-0.04 0.87 C28.74 -0.41, 56.85 -0.14, 108.88 0.79 M108.71 1.88 C108.46 11.47, 106.38 20.86, 107.98 38.49 M107.7 0.78 C107.1 10.55, 107.75 22.71, 107.53 38.94 M106.6 36.54 C67.17 39.44, 28.22 37.31, 0.35 38.87 M107.13 38.44 C66.96 38.6, 25.19 38.01, 0.95 37.24 M-0.15 37.55 C1.79 28.57, -1.29 18.01, -0.46 1.76 M-0.64 38.75 C0.48 24.22, -1 11.59, -0.77 0.54" stroke="#6dbf3a" stroke-width="2" fill="none"></path></g><g transform="translate(402.2575149536133 830) rotate(0 11.742485046386719 6.875)"><text x="11.742485046386719" y="NaN" font-family="Virgil, Segoe UI Emoji" font-size="11px" fill="#8b949e" text-anchor="middle" style="white-space: pre;" direction="ltr">10ms</text></g><g stroke-linecap="round" transform="translate(480 741) rotate(0 54 42.5)"><path d="M1.31 -0.04 L109.18 0.15 L106.77 84.89 L1.74 84.65" stroke="none" stroke-width="0" fill="#6dbf3a"></path><path d="M1.37 -0.68 C40.02 0.58, 81.6 -0.54, 109.75 0.94 M-0.08 -0.53 C43.8 -0.28, 86.58 -0.39, 108.3 -0.83 M106.15 0.95 C107.93 31.45, 109.6 62.73, 107.29 85.38 M107.96 -0.78 C107.5 21.24, 107.5 41.95, 107.16 85.27 M108.88 83.53 C71.23 85.68, 36.49 84.75, 0.31 83.71 M107.85 84.36 C76.79 83.84, 43.88 85.21, -0.31 84.35 M0.77 85.8 C0.78 61.38, 0.91 35.47, -1.35 1.69 M-0.7 84.93 C0.02 64.48, -0.91 43.4, -0.34 0.33" stroke="#6dbf3a" stroke-width="2" fill="none"></path></g><g transform="translate(520.3490142822266 830) rotate(0 13.650985717773438 6.875)"><text x="13.650985717773438" y="NaN" font-family="Virgil, Segoe UI Emoji" font-size="11px" fill="#8b949e" text-anchor="middle" style="white-space: pre;" direction="ltr">50ms</text></g><g stroke-linecap="round" transform="translate(600 716) rotate(0 54 55)"><path d="M-1.55 0.25 L107.03 -0.23 L107.98 108.69 L1.38 110.16" stroke="none" stroke-width="0" fill="#6dbf3a"></path><path d="M-0.35 -0.82 C25.67 0.91, 52.27 -1.29, 106.38 1.4 M-0.48 0.42 C40.2 0.44, 80.24 -0.47, 107.67 -0.16 M106.33 0.63 C108.66 37.1, 110.04 69.52, 108.81 109.38 M107.7 0.47 C107.08 42.83, 108.17 85.12, 108.95 109.47 M109.54 110.99 C71.95 109.94, 37.83 110.07, 1.1 110.58 M107.06 109.7 C79.5 110.52, 51.67 109.57, -0.97 110.39 M-1.24 109.3 C-0.95 76.85, 0.59 45.74, -0.86 -0.47 M0.27 110.29 C0.96 80.85, -0.8 50.78, -0.85 -0.92" stroke="#6dbf3a" stroke-width="2" fill="none"></path></g><g transform="translate(638.473518371582 830) rotate(0 15.526481628417969 6.875)"><text x="15.526481628417969" y="NaN" font-family="Virgil, Segoe UI Emoji" font-size="11px" fill="#8b949e" text-anchor="middle" style="white-space: pre;" direction="ltr">100ms</text></g><g stroke-linecap="round" transform="translate(720 759) rotate(0 54 33.5)"><path d="M-0.52 -0.08 L106.64 -1.94 L109.55 65.36 L-1.23 66.11" stroke="none" stroke-width="0" fill="#6dbf3a"></path><path d="M-1.28 -0.08 C28.71 1.11, 54.5 0.54, 108.04 -1.42 M0.91 0.12 C23.23 0.46, 43.97 1.51, 107.31 0.77 M108.14 -1.21 C109.42 24.21, 106.2 48.93, 106.88 66.49 M108.8 -0.21 C107.83 13.96, 107.72 29.2, 107.68 67.12 M107.03 66.74 C84.72 69.28, 58.47 68.54, 1.9 66.51 M107.12 66.98 C75.64 67.7, 44.32 68.32, -0.67 66.65 M-0.44 68.63 C-0.59 43.52, -0.82 22.99, 1.55 1.15 M0.08 66.73 C1.24 41.49, 0.36 16.78, -0.53 -0.09" stroke="#6dbf3a" stroke-width="2" fill="none"></path></g><g transform="translate(756.4330215454102 830) rotate(0 17.566978454589844 6.875)"><text x="17.566978454589844" y="NaN" font-family="Virgil, Segoe UI Emoji" font-size="11px" fill="#8b949e" text-anchor="middle" style="white-space: pre;" direction="ltr">250ms</text></g><g stroke-linecap="round" transform="translate(840 798) rotate(0 54 14)"><path d="M1.55 -0.08 L108.16 0.47 L106.51 27.7 L1.23 27.24" stroke="none" stroke-width="0" fill="#f85149"></path><path d="M1.88 0.78 C35.24 -2.6, 70.89 0.24, 108.27 -0.97 M-0.75 -0.61 C41.76 0.01, 84.62 0.29, 109 -0.91 M108.1 1.37 C106.05 9.49, 108.68 21.1, 109.36 29.51 M108.69 -0.06 C107.24 7.51, 108.23 16.93, 107.46 27.44 M109.62 28.55 C85.04 26.14, 58.12 28.87, 0.46 28.07 M108.92 28.16 C84.04 26.61, 58.63 26.94, 0.73 27.08 M-0.21 27.12 C0 18.92, 0.8 9.44, -1.77 -1.71 M-0.8 28.68 C-0.24 17.79, 0.87 9.4, -0.88 -0.47" stroke="#f85149" stroke-width="2" fill="none"></path></g><g transform="translate(876.5650177001953 830) rotate(0 17.434982299804688 6.875)"><text x="17.434982299804688" y="NaN" font-family="Virgil, Segoe UI Emoji" font-size="11px" fill="#8b949e" text-anchor="middle" style="white-space: pre;" direction="ltr">500ms</text></g><g stroke-linecap="round" transform="translate(960 814) rotate(0 54 6)"><path d="M1.82 -0.06 L106.97 0.04 L106.6 10.96 L-0.88 10.82" stroke="none" stroke-width="0" fill="#f85149"></path><path d="M1.99 0.74 C39.26 2.34, 75.78 1.7, 106.63 0.18 M-0.08 0.81 C27.76 -0.98, 55.13 -0.94, 108.4 -0.46 M106.86 0.06 C108.5 4.02, 109.11 6.81, 107.19 12.3 M107.85 -0.25 C107.66 3.13, 107.8 6.99, 107.71 12.45 M106.81 11.79 C75.7 12.01, 48.33 10.66, 1.62 13.29 M108.13 11.61 C83.1 10.21, 59.05 10.83, 0.26 11.66 M-1.12 12.42 C0.89 8.88, 1.18 3.48, -0.3 -0.71 M0 11.64 C0.3 9.41, 0.15 6.19, 0.22 0.53" stroke="#f85149" stroke-width="2" fill="none"></path></g><g transform="translate(994.6895217895508 830) rotate(0 19.31047821044922 6.875)"><text x="19.31047821044922" y="NaN" font-family="Virgil, Segoe UI Emoji" font-size="11px" fill="#8b949e" text-anchor="middle" style="white-space: pre;" direction="ltr">1000ms</text></g><g stroke-linecap="round"><g transform="translate(926.4 720) rotate(0 0 53)"><path d="M-0.84 0.97 C-0.64 18.69, 0.82 89.53, 0.92 107.07" stroke="#f85149" stroke-width="2.5" fill="none" stroke-dasharray="8 10"></path></g></g><g transform="translate(876.4 702) rotate(0 69.25794219970709 8.75)"><text x="0" y="NaN" font-family="Virgil, Segoe UI Emoji" font-size="14px" fill="#f85149" text-anchor="start" style="white-space: pre;" direction="ltr">global p99 = 380ms</text></g><g stroke-linecap="round" transform="translate(320 862) rotate(0 400 24)"><path d="M-0.19 -1.22 L800.54 -1.41 L800.11 48.77 L1.57 48.61" stroke="none" stroke-width="0" fill="#3a5d1d"></path><path d="M0.5 0.08 C241.88 -2, 484.08 -2.07, 799.7 -0.62 M-0.07 -0.25 C239.56 -0.56, 479.29 -0.42, 799.75 -0.35 M799.75 -0.13 C798.2 18.78, 798.96 35.21, 798.41 46.84 M800.07 0.74 C799.01 9.14, 799.93 20.2, 799.71 48.58 M800.59 47.63 C522.15 45.63, 244.53 45.56, -0.69 47.53 M799.61 47.67 C608.32 48.95, 417.32 49.39, -0.03 47.96 M-1.81 47.75 C0.98 31.21, 0.89 12.54, 0.65 -1.67 M0.54 48.92 C-0.03 30.03, 0.36 12.11, 0.36 -0.01" stroke="#6dbf3a" stroke-width="2" fill="none"></path></g><g transform="translate(436.2481689453125 874.75) rotate(0 283.7518310546875 11.25)"><text x="283.7518310546875" y="NaN" font-family="Virgil, Segoe UI Emoji" font-size="18px" fill="#ffffff" text-anchor="middle" style="white-space: pre;" direction="ltr">histogram_quantile(0.99, ...) = 380ms     CORRECT global p99</text></g></svg>