<svg version="1.1" xmlns="http://www.w3.org/2000/svg" viewBox="0 0 1400 855" width="1400" height="855">
  <!-- svg-source:excalidraw -->
  
  <defs>
    <style>
      @font-face {
        font-family: "Virgil";
        src: url("https://excalidraw.com/Virgil.woff2");
      }
      @font-face {
        font-family: "Cascadia";
        src: url("https://excalidraw.com/Cascadia.woff2");
      }
    </style>
  </defs>
  <rect x="0" y="0" width="1400" height="855" fill="#1e1e2e"></rect><g transform="translate(10 10) rotate(0 358.35784912109375 17.5)"><text x="0" y="NaN" font-family="Virgil, Segoe UI Emoji" font-size="28px" fill="#ff8c42" text-anchor="start" style="white-space: pre;" direction="ltr">Four metric types: pick by signal shape, not by name</text></g><g transform="translate(10 50) rotate(0 360.1787414550781 10.625)"><text x="0" y="NaN" font-family="Virgil, Segoe UI Emoji" font-size="17px" fill="#c9d1d9" text-anchor="start" style="white-space: pre;" direction="ltr">Each type is built for a different question. Misuse cascades into broken dashboards.</text></g><g stroke-linecap="round" transform="translate(10 105) rotate(0 340 180)"><path d="M0.3 1.64 L680.33 -1.22 L678.09 359.03 L0.19 360.34" stroke="none" stroke-width="0" fill="#161b22"></path><path d="M-0.77 0.21 C270.84 -0.2, 543.13 -0.32, 679.46 0.8 M678.92 1.13 C679.28 75.66, 679.2 151.8, 680.22 359.58 M680.54 360.51 C471.17 356.9, 262.45 357.21, 0.7 360.41 M0.5 359.48 C1.54 252.38, 1.29 145.84, -0.4 -0.73" stroke="#30363d" stroke-width="2.5" fill="none" stroke-dasharray="8 10"></path></g><g stroke-linecap="round" transform="translate(25 120) rotate(0 130 22)"><path d="M-1.39 1.57 L258.4 -1.13 L260 42.25 L-0.05 43.96" stroke="none" stroke-width="0" fill="#1f4d2b"></path><path d="M-0.54 -0.34 C58.83 0.42, 120.53 -0.73, 260.47 -1.4 M-0.72 0.05 C76.86 -1.42, 154.46 -1.54, 260.78 -0.22 M261.98 1.65 C259.2 11.5, 259.07 21.27, 258.76 43.09 M259.31 -0.34 C260.99 13.14, 259.21 23.79, 259.47 44.38 M260.31 42.64 C198.76 43.31, 133.84 43.93, -0.68 44.19 M259.25 44.03 C177.67 45.09, 95.85 45.5, 0.35 44.68 M0.44 44.45 C0.25 30.3, -1.47 16.78, 1.96 -0.63 M-0.08 43.11 C0.71 35.73, 0.54 26.6, 0.2 0.49" stroke="#3fb950" stroke-width="2" fill="none"></path></g><g transform="translate(101.27601623535156 128.25) rotate(0 53.72398376464844 13.75)"><text x="53.72398376464844" y="NaN" font-family="Virgil, Segoe UI Emoji" font-size="22px" fill="#ffffff" text-anchor="middle" style="white-space: pre;" direction="ltr">COUNTER</text></g><g transform="translate(300 127) rotate(0 107.64739227294922 9.375)"><text x="0" y="NaN" font-family="Virgil, Segoe UI Emoji" font-size="15px" fill="#c9d1d9" text-anchor="start" style="white-space: pre;" direction="ltr">monotonically increasing total</text></g><g stroke-linecap="round"><g transform="translate(50 335) rotate(0 300 0)"><path d="M0.63 -0.85 C100.76 -1.15, 500.39 -1.01, 600.13 -0.91 M-0.5 1.32 C99.54 1.06, 498.91 0.21, 599.25 0.15" stroke="#8b949e" stroke-width="1" fill="none"></path></g></g><g stroke-linecap="round"><g transform="translate(50 195) rotate(0 0 70)"><path d="M0.11 -0.87 C-0.04 22.29, -0.31 116.11, -0.17 139.49 M-1.29 1.28 C-1.68 24.57, -1.54 117.57, -1.21 140.76" stroke="#8b949e" stroke-width="1" fill="none"></path></g></g><g transform="translate(600 341) rotate(0 10.801994323730469 6.875)"><text x="0" y="NaN" font-family="Virgil, Segoe UI Emoji" font-size="11px" fill="#8b949e" text-anchor="start" style="white-space: pre;" direction="ltr">time</text></g><g transform="translate(42 177) rotate(0 45.160438537597656 6.875)"><text x="0" y="NaN" font-family="Virgil, Segoe UI Emoji" font-size="11px" fill="#8b949e" text-anchor="start" style="white-space: pre;" direction="ltr">cumulative count</text></g><g stroke-linecap="round"><g transform="translate(50 325) rotate(0 30 0)"><path d="M-0.18 -0.03 C9.58 -0.04, 49.64 0.22, 59.55 0.26 M-1.73 -1.09 C7.75 -1.52, 47.78 -2.18, 58.36 -1.73" stroke="#3fb950" stroke-width="2" fill="none"></path></g></g><g stroke-linecap="round"><g transform="translate(110 325) rotate(0 0 -10)"><path d="M1 1.02 C1.11 -2.61, 0.83 -17.16, 0.53 -20.81 M0.07 0.51 C0.08 -3.07, -0.4 -16.27, -0.15 -19.69" stroke="#3fb950" stroke-width="2" fill="none"></path></g></g><g stroke-linecap="round"><g transform="translate(110 305) rotate(0 35 0)"><path d="M0.88 0.33 C12.64 0.31, 58.05 0.99, 69.41 0.86 M-0.11 -0.55 C12.14 -0.98, 59.88 -1.01, 71.81 -0.82" stroke="#3fb950" stroke-width="2" fill="none"></path></g></g><g stroke-linecap="round"><g transform="translate(180 305) rotate(0 0 -12.5)"><path d="M-0.43 0.04 C-0.45 -4.35, 0.54 -20.95, 0.7 -25.3 M1.55 -0.99 C1.36 -4.68, 0.37 -19.87, 0.11 -23.92" stroke="#3fb950" stroke-width="2" fill="none"></path></g></g><g stroke-linecap="round"><g transform="translate(180 280) rotate(0 40 0)"><path d="M0.43 1.04 C13.79 0.94, 67.38 -0.31, 80.74 -0.54 M-0.81 0.53 C12.41 0.59, 66.69 0.67, 80.19 0.71" stroke="#3fb950" stroke-width="2" fill="none"></path></g></g><g stroke-linecap="round"><g transform="translate(260 280) rotate(0 0 -12.5)"><path d="M0.19 0.39 C-0.04 -3.73, -0.76 -19.91, -0.95 -24.1 M-1.18 -0.44 C-1.07 -4.96, 0.83 -21.94, 1.27 -25.74" stroke="#3fb950" stroke-width="2" fill="none"></path></g></g><g stroke-linecap="round"><g transform="translate(260 255) rotate(0 40 0)"><path d="M0.38 0.88 C13.5 1, 65.38 0.29, 78.81 0.17 M-0.88 0.29 C12.58 0.69, 67.3 1.59, 80.89 1.8" stroke="#3fb950" stroke-width="2" fill="none"></path></g></g><g stroke-linecap="round"><g transform="translate(340 255) rotate(0 0 -12.5)"><path d="M0.35 -1.09 C0.34 -5.43, -0.16 -21.05, -0.41 -25.11 M-0.93 0.95 C-1.1 -3.28, -1.92 -19.42, -1.58 -23.63" stroke="#3fb950" stroke-width="2" fill="none"></path></g></g><g stroke-linecap="round"><g transform="translate(340 230) rotate(0 45 0)"><path d="M-0.38 -0.78 C14.81 -0.69, 75.99 0.26, 90.97 0.2 M1.62 1.42 C16.75 1.15, 76.05 -1.52, 90.53 -1.82" stroke="#3fb950" stroke-width="2" fill="none"></path></g></g><g stroke-linecap="round"><g transform="translate(430 230) rotate(0 0 -7.5)"><path d="M-0.78 -0.79 C-0.71 -3.5, 0.76 -13.34, 0.87 -15.77 M1 1.41 C0.96 -1.2, 0.7 -12.03, 0.38 -14.64" stroke="#3fb950" stroke-width="2" fill="none"></path></g></g><g stroke-linecap="round"><g transform="translate(430 215) rotate(0 50 0)"><path d="M0.28 -0.55 C16.94 -0.23, 82.64 0.89, 99.31 1.17 M-1.04 1.77 C16.07 1.85, 84.87 0.05, 101.66 -0.34" stroke="#3fb950" stroke-width="2" fill="none"></path></g></g><g stroke-linecap="round"><g transform="translate(530 215) rotate(0 0 -6)"><path d="M-0.87 -0.93 C-1.11 -2.95, -1.13 -9.24, -1 -11.24 M0.88 1.2 C0.96 -1.24, 1.48 -10.75, 1.19 -12.97" stroke="#3fb950" stroke-width="2" fill="none"></path></g></g><g stroke-linecap="round"><g transform="translate(530 203) rotate(0 50 0)"><path d="M0.84 -0.93 C17.58 -0.96, 84.16 0.11, 100.74 0.21 M-0.17 1.2 C16.45 0.74, 83.52 -1.74, 100.19 -1.8" stroke="#3fb950" stroke-width="2" fill="none"></path></g></g><g stroke-linecap="round"><g transform="translate(390 200) rotate(0 0 65)"><path d="M0.41 -0.97 C0.63 20.59, 0.41 107.43, 0.45 129.11" stroke="#f85149" stroke-width="1.5" fill="none" stroke-dasharray="8 9"></path></g></g><g transform="translate(355 349) rotate(0 92.24039459228516 6.875)"><text x="0" y="NaN" font-family="Virgil, Segoe UI Emoji" font-size="11px" fill="#f85149" text-anchor="start" style="white-space: pre;" direction="ltr">(missed scrape - still recoverable)</text></g><g transform="translate(40 365) rotate(0 143.3548583984375 9.375)"><text x="0" y="NaN" font-family="Virgil, Segoe UI Emoji" font-size="15px" fill="#e6edf3" text-anchor="start" style="white-space: pre;" direction="ltr">USE:  rate(http_requests_total[5m])</text></g><g transform="translate(40 390) rotate(0 233.75079345703125 8.75)"><text x="0" y="NaN" font-family="Virgil, Segoe UI Emoji" font-size="14px" fill="#c9d1d9" text-anchor="start" style="white-space: pre;" direction="ltr">Never reads raw value. Survives scrape gaps - resolution loss only.</text></g><g stroke-linecap="round" transform="translate(440 415) rotate(0 110 22.5)"><path d="M-1.62 0.19 L220.78 1.92 L221.38 44.78 L0.12 43.2" stroke="none" stroke-width="0" fill="#1f4d2b"></path><path d="M-0.08 -1.58 C46.8 -0.99, 95.59 -0.49, 221.56 -0.96 M0.14 -0.19 C51.96 0.02, 103.91 -0.87, 219.23 0.32 M218.31 0.61 C219.18 13.03, 220.74 22.65, 221.67 45.35 M220.64 -0.62 C220 14.65, 219.3 28.68, 220.59 44.51 M219.54 45.6 C137.9 43.63, 58.35 43.7, 0.35 43.65 M219.78 44.19 C159.33 45.02, 99.18 45.24, -0.39 44.42 M0.77 43.93 C-0.36 30.26, -0.12 9.95, -0.62 0.58 M-0.77 44.88 C-1.07 29.13, 0.28 13.2, 0.59 -0.34" stroke="#3fb950" stroke-width="2" fill="none"></path></g><g transform="translate(453.3510971069336 420) rotate(0 96.6489028930664 17.5)"><text x="96.6489028930664" y="NaN" font-family="Virgil, Segoe UI Emoji" font-size="14px" fill="#ffffff" text-anchor="middle" style="white-space: pre;" direction="ltr">AGGREGATABLE: sum, then</text><text x="96.6489028930664" y="NaN" font-family="Virgil, Segoe UI Emoji" font-size="14px" fill="#ffffff" text-anchor="middle" style="white-space: pre;" direction="ltr">rate</text></g><g stroke-linecap="round" transform="translate(710 105) rotate(0 340 180)"><path d="M0.22 -1.86 L681.99 -0.78 L681.8 359.99 L-1.06 361.51" stroke="none" stroke-width="0" fill="#161b22"></path><path d="M0.76 -0.58 C185.45 0.03, 371.09 0.37, 680.16 0.06 M679.54 -1.1 C677.95 134.72, 678.96 270.84, 680.24 360.12 M680.08 359.94 C457.69 361.84, 235.12 361.38, -0.75 360.23 M-0.28 359.74 C0.07 252.29, -1.63 143.54, 0.48 0.03" stroke="#30363d" stroke-width="2.5" fill="none" stroke-dasharray="8 10"></path></g><g stroke-linecap="round" transform="translate(725 120) rotate(0 130 22)"><path d="M-0.33 -1.62 L259.31 -0.21 L261.96 45.54 L-1.57 45.23" stroke="none" stroke-width="0" fill="#0d2c5a"></path><path d="M1.15 -1.43 C81.19 2.11, 163.75 1.69, 259.64 0.24 M-0.35 0.47 C97.47 -0.7, 196.79 -1.38, 260.17 -0.76 M258.86 1.66 C259.05 14.46, 260.1 28.87, 260.86 44.32 M259.18 0.24 C260.02 16.26, 260.46 31.09, 260.63 43.45 M259.75 45.21 C201.09 46.12, 143.64 45.26, 0.17 44.24 M259.4 43.97 C160.66 43.35, 62.2 43.39, 0.54 44.46 M-0.05 43.59 C-1.82 28.76, 1.34 17.12, 0.68 -1.6 M-0.41 43.67 C0.8 33.63, 0.56 21.64, 0.2 -0.4" stroke="#58a6ff" stroke-width="2" fill="none"></path></g><g transform="translate(815.1580276489258 128.25) rotate(0 39.84197235107422 13.75)"><text x="39.84197235107422" y="NaN" font-family="Virgil, Segoe UI Emoji" font-size="22px" fill="#ffffff" text-anchor="middle" style="white-space: pre;" direction="ltr">GAUGE</text></g><g transform="translate(1000 127) rotate(0 115.62738037109375 9.375)"><text x="0" y="NaN" font-family="Virgil, Segoe UI Emoji" font-size="15px" fill="#c9d1d9" text-anchor="start" style="white-space: pre;" direction="ltr">point-in-time sample, up or down</text></g><g stroke-linecap="round"><g transform="translate(750 335) rotate(0 300 0)"><path d="M0.73 0.45 C100.78 0.39, 501.3 0.33, 600.99 0.21 M-0.35 -0.35 C99.58 -0.85, 500.31 -2.02, 600.56 -1.8" stroke="#8b949e" stroke-width="1" fill="none"></path></g></g><g stroke-linecap="round"><g transform="translate(750 195) rotate(0 0 70)"><path d="M0.09 0.02 C0.24 23.56, 0.69 117.43, 0.87 140.77 M-1.32 -1.02 C-1.26 22.23, -0.01 115.32, 0.37 139.05" stroke="#8b949e" stroke-width="1" fill="none"></path></g></g><g transform="translate(1300 341) rotate(0 10.801994323730469 6.875)"><text x="0" y="NaN" font-family="Virgil, Segoe UI Emoji" font-size="11px" fill="#8b949e" text-anchor="start" style="white-space: pre;" direction="ltr">time</text></g><g transform="translate(742 177) rotate(0 32.69196319580078 6.875)"><text x="0" y="NaN" font-family="Virgil, Segoe UI Emoji" font-size="11px" fill="#8b949e" text-anchor="start" style="white-space: pre;" direction="ltr">queue depth</text></g><g stroke-linecap="round"><g transform="translate(750 295) rotate(0 40 -7.5)"><path d="M0.19 0.04 C13.65 -2.63, 66.56 -13.58, 79.81 -15.89 M-1.17 -0.99 C12.2 -3.54, 65.45 -12.39, 78.77 -14.82" stroke="#58a6ff" stroke-width="2" fill="none"></path></g></g><g stroke-linecap="round"><g transform="translate(830 280) rotate(0 40 3.5)"><path d="M1.2 0.37 C14.84 1.53, 68.05 4.99, 81.13 6.19 M0.36 -0.48 C14.02 0.88, 67.71 6.3, 80.78 7.31" stroke="#58a6ff" stroke-width="2" fill="none"></path></g></g><g stroke-linecap="round"><g transform="translate(910 287) rotate(0 40 -7)"><path d="M0.05 -0.54 C13.14 -2.73, 66.14 -11.46, 79.6 -13.52 M-1.39 1.79 C11.42 -0.72, 64.8 -12.64, 78.45 -15.39" stroke="#58a6ff" stroke-width="2" fill="none"></path></g></g><g stroke-linecap="round"><g transform="translate(990 273) rotate(0 40 5)"><path d="M0.48 -0.24 C13.7 1.26, 66.96 7.16, 80.31 8.99 M-0.73 -1.42 C12.27 0.2, 66.05 8.29, 79.52 9.99" stroke="#58a6ff" stroke-width="2" fill="none"></path></g></g><g stroke-linecap="round"><g transform="translate(1070 283) rotate(0 40 -6.5)"><path d="M-0.48 -0.97 C12.85 -3.23, 66.32 -12.03, 79.57 -14.05 M1.46 1.13 C14.64 -0.97, 65.08 -10.9, 78.4 -13.07" stroke="#58a6ff" stroke-width="2" fill="none"></path></g></g><g stroke-linecap="round"><g transform="translate(1150 270) rotate(0 40 10)"><path d="M0.79 0.53 C13.96 3.76, 66.63 17.1, 79.96 20.33 M-0.26 -0.23 C12.67 2.54, 65.55 14.82, 78.99 18.39" stroke="#58a6ff" stroke-width="2" fill="none"></path></g></g><g stroke-linecap="round"><g transform="translate(1230 290) rotate(0 40 -7.5)"><path d="M0.97 1.05 C14.28 -1.46, 67.23 -11.66, 80.51 -14.48 M0.03 0.55 C13.17 -2.36, 66.47 -13.73, 79.83 -16.34" stroke="#58a6ff" stroke-width="2" fill="none"></path></g></g><g stroke-linecap="round" transform="translate(746 291) rotate(0 4 4)"><path d="M1.51 1.27 L7.77 1.72 L8.44 6.32 L1.53 6.24" stroke="none" stroke-width="0" fill="#58a6ff"></path><path d="M-0.62 -0.1 C1.41 -0.07, 3.5 -0.03, 8.47 -0.26 M0.04 0.23 C2.81 0.19, 5.99 0.27, 7.81 0.39 M8.52 -0.03 C7.52 1.64, 7.65 4.53, 7.93 8.51 M8.35 0.08 C7.97 3.37, 7.78 6.31, 7.69 8.22 M7.72 7.48 C6.39 7.54, 3.78 8.61, 0.66 7.4 M7.74 8.31 C5.87 8.32, 4.05 8.17, 0.24 8.16 M0.39 8.24 C0.35 4.78, -0.75 3.36, 0.55 -0.36 M-0.29 8.34 C0.06 6.21, 0 4.7, 0.32 0.11" stroke="#58a6ff" stroke-width="2" fill="none"></path></g><g stroke-linecap="round" transform="translate(826 276) rotate(0 4 4)"><path d="M1.47 1.26 L7.3 -1.56 L7.7 9.4 L-1.81 8.58" stroke="none" stroke-width="0" fill="#58a6ff"></path><path d="M0.56 -0.04 C2.62 -0.25, 4.28 -0.39, 7.62 0.38 M0.25 -0.04 C2.52 -0.21, 5.17 -0.2, 7.61 0.32 M8.18 -0.78 C7.26 1.25, 7.27 3.25, 8.8 7.52 M8.37 -0.08 C8.3 2.43, 7.99 4.42, 8.15 8.13 M7.22 8.19 C6.56 8.02, 5.02 8.76, 0.22 8.24 M7.9 8.24 C6.11 8.32, 4.12 8.35, 0.03 8.36 M0.78 8.63 C0.63 4.94, -0.23 2.18, 0.53 0.18 M0.08 7.83 C-0.13 5.87, 0.04 4.24, -0.2 0.12" stroke="#58a6ff" stroke-width="2" fill="none"></path></g><g stroke-linecap="round" transform="translate(906 283) rotate(0 4 4)"><path d="M-1.32 -1.4 L8.51 0.94 L9.79 9.27 L-1.09 6.47" stroke="none" stroke-width="0" fill="#58a6ff"></path><path d="M-0.28 -0.46 C2.37 -0.32, 4.5 0.51, 8.01 0.73 M0.19 0.18 C2.26 -0.22, 4.8 -0.28, 7.82 0.1 M8.57 0.06 C7.53 1.32, 8.21 3.62, 7.39 7.75 M8.34 0.04 C7.7 2.7, 7.82 4.26, 8.28 7.78 M8.52 8.69 C5.31 7.6, 2.2 7.49, -0.76 8.01 M8.11 8.2 C5.2 8.37, 1.68 7.95, 0.13 7.99 M0.64 7.91 C-0.1 5.77, -0.33 4.07, 0.59 -0.79 M-0.37 7.67 C-0.19 5.81, -0.01 3.94, -0.23 -0.37" stroke="#58a6ff" stroke-width="2" fill="none"></path></g><g stroke-linecap="round" transform="translate(986 269) rotate(0 4 4)"><path d="M-1.16 0.47 L8.8 -0.55 L9.78 9.03 L-1.64 6.85" stroke="none" stroke-width="0" fill="#58a6ff"></path><path d="M-0.28 0.04 C2.25 0.68, 3.76 -0.38, 8.78 -0.72 M-0.13 -0.17 C2.23 0.05, 4.22 -0.04, 7.79 -0.21 M8.02 -0.42 C7.84 2.13, 8.57 6.07, 8.4 8.15 M8.19 -0.35 C8.07 1.91, 7.71 3.78, 8.31 8.05 M8.23 8.59 C4.94 8.69, 3.49 7.99, 0.68 7.96 M7.6 8.37 C6.03 7.59, 3.67 7.74, -0.23 8.3 M0.11 8.02 C0.28 4.74, -0.38 2.7, 0.5 0.58 M-0.28 7.92 C0.41 5.4, -0.23 3.56, 0.14 -0.11" stroke="#58a6ff" stroke-width="2" fill="none"></path></g><g stroke-linecap="round" transform="translate(1066 279) rotate(0 4 4)"><path d="M-0.9 -1.56 L6.83 -0.48 L6.83 6.49 L-0.4 6.07" stroke="none" stroke-width="0" fill="#58a6ff"></path><path d="M-0.68 -0.12 C1.87 0.05, 4.39 0.41, 7.39 -0.74 M0.37 0.16 C2.74 0.31, 5.45 -0.06, 7.68 -0.35 M8.45 -0.12 C8.03 2.06, 8.69 5.09, 7.57 7.74 M8.18 0.22 C8.32 1.66, 7.64 3.23, 7.83 8.33 M8.56 8.78 C5.34 8.68, 3.07 8.64, -0.18 8.17 M7.98 8.14 C5.7 7.71, 3.16 8.26, 0.06 8.25 M0.68 8.22 C0.13 4.6, 0.1 3.04, 0.11 -0.55 M-0.23 7.96 C-0.18 5.44, -0.21 2.23, -0.07 -0.22" stroke="#58a6ff" stroke-width="2" fill="none"></path></g><g stroke-linecap="round" transform="translate(1146 266) rotate(0 4 4)"><path d="M-0.94 1.45 L8.95 0.33 L7.34 8.99 L-1.01 8.48" stroke="none" stroke-width="0" fill="#58a6ff"></path><path d="M-0.09 0.02 C2.11 -0.26, 4.59 0.14, 8.79 -0.43 M0.13 0.11 C2.58 -0.11, 4.47 -0.35, 8.34 0.32 M7.22 -0.73 C7.72 2.6, 8.32 3.13, 7.64 8.05 M7.95 -0.25 C7.71 1.6, 7.95 3.18, 7.79 7.68 M8.57 8.33 C4.13 7.66, 1.1 7.38, -0.39 7.52 M8.3 8.23 C6.13 8.18, 3.8 7.77, -0.12 7.83 M-0.71 8.09 C0.57 5.78, 0.58 1.42, -0.32 -0.69 M0.02 8.18 C-0.15 5.74, -0.22 3.34, -0.22 -0.19" stroke="#58a6ff" stroke-width="2" fill="none"></path></g><g stroke-linecap="round" transform="translate(1226 286) rotate(0 4 4)"><path d="M0.91 0.57 L9.16 1.37 L7.58 8.91 L0.47 7.64" stroke="none" stroke-width="0" fill="#58a6ff"></path><path d="M-0.04 0.23 C2.36 -0.36, 4.48 0.51, 8.28 -0.35 M-0.25 -0.37 C1.75 0.35, 2.95 0.23, 7.68 -0.19 M7.45 0.1 C7.3 3.83, 7.42 6.42, 7.4 8.22 M7.82 -0.38 C7.79 2.09, 8.05 3.99, 7.76 7.91 M8.14 7.47 C5.97 8.49, 3.32 7.94, 0.02 8.45 M7.79 8.18 C5.83 8.17, 3.38 8.14, -0.38 8.22 M-0.33 7.3 C0.56 4.83, 0.52 3.66, 0.7 0.03 M-0.39 7.71 C-0.04 5.63, -0.16 3.38, 0.13 -0.31" stroke="#58a6ff" stroke-width="2" fill="none"></path></g><g stroke-linecap="round" transform="translate(1306 271) rotate(0 4 4)"><path d="M0.89 1.19 L7.66 -0.01 L6.12 7.33 L-1.23 9.93" stroke="none" stroke-width="0" fill="#58a6ff"></path><path d="M-0.71 -0.33 C3.25 0.25, 5.71 0.83, 7.5 -0.44 M-0.16 -0.36 C1.61 -0.24, 3.94 0.15, 8.1 -0.3 M8.71 0.56 C7.41 2.51, 7.22 5.38, 7.77 7.96 M8.22 0.2 C8.28 2.54, 8.24 4.46, 7.82 8.39 M8.72 7.63 C5.4 8.21, 3.97 7.92, -0.24 8.17 M8.17 8.25 C5.99 8.12, 4.36 8.36, -0.21 7.88 M-0.06 7.84 C-0.18 6.43, -0.71 3.29, 0.2 -0.66 M-0.33 7.82 C0.41 5.2, -0.22 2.38, -0.06 -0.09" stroke="#58a6ff" stroke-width="2" fill="none"></path></g><g stroke-linecap="round"><g transform="translate(1030 283) rotate(0 5 -34)"><path d="M0.55 -0.6 C2.12 -12.24, 8.66 -57.9, 10.23 -69.14" stroke="#f85149" stroke-width="2.5" fill="none" stroke-dasharray="8 10"></path></g></g><g stroke-linecap="round"><g transform="translate(1040 215) rotate(0 5 1)"><path d="M-0.43 -0.1 C0.98 0.18, 7.23 1.54, 9.01 1.97" stroke="#f85149" stroke-width="2.5" fill="none" stroke-dasharray="8 10"></path></g></g><g stroke-linecap="round"><g transform="translate(1050 217) rotate(0 5 33)"><path d="M0.68 -0.36 C2.28 10.43, 8.7 54.46, 10.25 65.4" stroke="#f85149" stroke-width="2.5" fill="none" stroke-dasharray="8 10"></path></g></g><g transform="translate(980 201) rotate(0 45.653961181640625 15)"><text x="0" y="NaN" font-family="Virgil, Segoe UI Emoji" font-size="12px" fill="#f85149" text-anchor="start" style="white-space: pre;" direction="ltr">spike of 10,000</text><text x="0" y="NaN" font-family="Virgil, Segoe UI Emoji" font-size="12px" fill="#f85149" text-anchor="start" style="white-space: pre;" direction="ltr">(missed!)</text></g><g transform="translate(740 365) rotate(0 158.99984741210938 9.375)"><text x="0" y="NaN" font-family="Virgil, Segoe UI Emoji" font-size="15px" fill="#e6edf3" text-anchor="start" style="white-space: pre;" direction="ltr">USE:  jvm_heap_bytes, active_connections</text></g><g transform="translate(740 390) rotate(0 216.10379028320312 8.75)"><text x="0" y="NaN" font-family="Virgil, Segoe UI Emoji" font-size="14px" fill="#c9d1d9" text-anchor="start" style="white-space: pre;" direction="ltr">Fragile for rapidly-changing values - inter-scrape spikes vanish.</text></g><g stroke-linecap="round" transform="translate(1190 415) rotate(0 85 22.5)"><path d="M0.02 0.1 L171.53 1.6 L170.08 43.95 L0.9 44.8" stroke="none" stroke-width="0" fill="#0d2c5a"></path><path d="M-0.33 -1.86 C38.27 -0.5, 77.1 2.43, 170.58 -0.52 M0.88 0.81 C59.15 -0.38, 117.34 -0.94, 170.84 0.39 M171.03 0.38 C168.11 17.31, 168.94 33.47, 168.18 45.92 M170.84 -0.51 C170.86 9.81, 170.39 21.5, 169.47 44.33 M169.18 46.1 C106.12 41.86, 43.37 42.02, 1.46 44.43 M169.82 45.46 C133.99 45.18, 99.54 46.17, -0.69 44.53 M-0.32 45.08 C2.09 34.49, 0.33 23.91, 0.73 -1.49 M0.99 44.75 C0.78 28.44, 0.85 13.89, -0.12 0.41" stroke="#58a6ff" stroke-width="2" fill="none"></path></g><g transform="translate(1196.362075805664 420) rotate(0 78.63792419433594 17.5)"><text x="78.63792419433594" y="NaN" font-family="Virgil, Segoe UI Emoji" font-size="14px" fill="#ffffff" text-anchor="middle" style="white-space: pre;" direction="ltr">AGGREGATABLE: sum,</text><text x="78.63792419433594" y="NaN" font-family="Virgil, Segoe UI Emoji" font-size="14px" fill="#ffffff" text-anchor="middle" style="white-space: pre;" direction="ltr">avg</text></g><g stroke-linecap="round" transform="translate(10 485) rotate(0 340 180)"><path d="M1.52 -0.09 L679.58 0.98 L678.9 361.35 L-1.51 361.26" stroke="none" stroke-width="0" fill="#161b22"></path><path d="M-0.59 -0.08 C185.41 -1.54, 370.21 -1.94, 679.77 -0.09 M681.2 1.04 C680.25 107.15, 681.78 215.17, 679.96 360.44 M679.27 360.08 C487.75 359.61, 295.38 358.85, 0.6 359.26 M-1.26 360.9 C-1.81 286.62, -2.37 212.3, 0.5 -0.19" stroke="#30363d" stroke-width="2.5" fill="none" stroke-dasharray="8 10"></path></g><g stroke-linecap="round" transform="translate(25 500) rotate(0 130 22)"><path d="M1.4 1.34 L259.84 0.39 L260.63 44.98 L-0.22 43.07" stroke="none" stroke-width="0" fill="#3a5d1d"></path><path d="M0.7 0.54 C99.28 1.85, 197.86 1.2, 258.67 -0.43 M0.79 -0.65 C73.05 -0.59, 145.6 -1.81, 260.16 -0.2 M259.49 0.28 C261.21 16.29, 261.82 35.76, 258.9 42.8 M260.12 0.84 C259.5 11.76, 260.64 25.75, 260.07 43.06 M258.74 44.92 C195.81 42.82, 130.62 40.8, -0.57 44.63 M259.69 44.74 C196.93 42.48, 134.34 42.38, 0.36 43.6 M1.12 43.42 C0.44 27.63, -1.59 14.22, -0.99 -0.27 M0.15 43.16 C0.14 30.76, -1.23 18.66, -0.45 0.7" stroke="#6dbf3a" stroke-width="2" fill="none"></path></g><g transform="translate(87.64703369140625 508.25) rotate(0 67.35296630859375 13.75)"><text x="67.35296630859375" y="NaN" font-family="Virgil, Segoe UI Emoji" font-size="22px" fill="#ffffff" text-anchor="middle" style="white-space: pre;" direction="ltr">HISTOGRAM</text></g><g transform="translate(300 507) rotate(0 174.60784912109375 8.75)"><text x="0" y="NaN" font-family="Virgil, Segoe UI Emoji" font-size="14px" fill="#c9d1d9" text-anchor="start" style="white-space: pre;" direction="ltr">bucket counts; percentiles computed at query time</text></g><g stroke-linecap="round"><g transform="translate(60 715) rotate(0 290 0)"><path d="M0.15 1.13 C96.7 1.27, 483.66 1, 580.13 0.9 M-1.22 0.68 C95.1 0.49, 482.15 -0.37, 579.26 -0.75" stroke="#8b949e" stroke-width="1" fill="none"></path></g></g><g stroke-linecap="round"><g transform="translate(60 575) rotate(0 0 70)"><path d="M-0.59 0.85 C-0.62 24.26, -0.47 116.49, -0.33 139.77 M1.31 0.24 C1.1 23.91, -1.16 118.14, -1.45 141.18" stroke="#8b949e" stroke-width="1" fill="none"></path></g></g><g transform="translate(52 557) rotate(0 37.960960388183594 6.875)"><text x="0" y="NaN" font-family="Virgil, Segoe UI Emoji" font-size="11px" fill="#8b949e" text-anchor="start" style="white-space: pre;" direction="ltr">request count</text></g><g stroke-linecap="round" transform="translate(90 675) rotate(0 30 20)"><path d="M-1.85 0.72 L58.67 -0.87 L58.82 39.59 L-0.59 41.84" stroke="none" stroke-width="0" fill="#3a5d1d"></path><path d="M-1.38 0.14 C10.77 0.48, 25.2 0.34, 60.8 1.04 M-0.74 -0.17 C21.22 -0.26, 41.24 0.8, 59.52 0.06 M60.8 -1.67 C61.02 17.02, 60.73 32.04, 61.22 41.65 M59.67 -0.22 C60.58 16.37, 59.8 31.55, 59.61 39.52 M59.42 40.43 C41.23 38.76, 23.58 39.32, -1.61 40.82 M60.22 40.35 C45.92 40.11, 30.69 39.54, 0.43 40.78 M-1.59 39.67 C-1.04 22.65, -1.25 7.41, 1.13 -1.37 M-0.68 39.47 C-0.14 30.84, 0.82 22.79, 0.18 -0.61" stroke="#6dbf3a" stroke-width="2" fill="none"></path></g><g transform="translate(108.25751495361328 721) rotate(0 11.742485046386719 6.875)"><text x="11.742485046386719" y="NaN" font-family="Virgil, Segoe UI Emoji" font-size="11px" fill="#8b949e" text-anchor="middle" style="white-space: pre;" direction="ltr">10ms</text></g><g stroke-linecap="round" transform="translate(188 625) rotate(0 30 45)"><path d="M-0.57 -1.45 L60.63 1.44 L60.71 88.17 L1.04 88.67" stroke="none" stroke-width="0" fill="#3a5d1d"></path><path d="M1.86 -0.24 C21.16 -1.82, 44.86 -0.48, 61.14 -1.95 M1 0.03 C12.4 -0.14, 25.46 -0.84, 60.56 0.08 M58.13 -1.63 C60.11 17.77, 59.12 36.15, 59.79 91.22 M60.38 -0.56 C60.01 25.34, 58.9 52.01, 59.61 90.21 M60.58 88.76 C38.16 90.23, 14.45 89.06, 1.21 91.09 M60.89 90.25 C47.3 90.43, 34.14 91.11, 0.81 90.99 M1.5 88.99 C0.24 56.08, -0.16 18.29, 1.72 1.79 M-0.02 90.92 C-0.13 57.85, 0.33 25.62, 0.69 0.51" stroke="#6dbf3a" stroke-width="2" fill="none"></path></g><g transform="translate(204.34901428222656 721) rotate(0 13.650985717773438 6.875)"><text x="13.650985717773438" y="NaN" font-family="Virgil, Segoe UI Emoji" font-size="11px" fill="#8b949e" text-anchor="middle" style="white-space: pre;" direction="ltr">50ms</text></g><g stroke-linecap="round" transform="translate(286 585) rotate(0 30 65)"><path d="M1.2 1.64 L58.14 1.86 L60.69 130.33 L-1.7 128.01" stroke="none" stroke-width="0" fill="#6dbf3a"></path><path d="M0.44 1.62 C19.48 -1.83, 37.17 -0.45, 58.1 -1.66 M-0.05 -0.72 C16.1 -0.76, 32.43 -0.89, 59.85 0.1 M61.09 0.39 C62.62 37.76, 59.83 80.87, 59.68 129.92 M59.13 0.13 C60.76 40.73, 61.26 80.33, 60.4 130.51 M60.39 129.63 C44.16 129.09, 31.23 127.95, 0.02 129.9 M60.28 130.07 C37.15 130.75, 15.23 129.97, 0.28 130.38 M-1.51 129.96 C-2.47 98.15, -1.88 68.87, -1.92 1.07 M-0.14 130.99 C0.32 95.64, -0.73 62.06, 0.06 -0.99" stroke="#6dbf3a" stroke-width="2" fill="none"></path></g><g transform="translate(300.47351837158203 721) rotate(0 15.526481628417969 6.875)"><text x="15.526481628417969" y="NaN" font-family="Virgil, Segoe UI Emoji" font-size="11px" fill="#8b949e" text-anchor="middle" style="white-space: pre;" direction="ltr">100ms</text></g><g stroke-linecap="round" transform="translate(384 605) rotate(0 30 55)"><path d="M-0.66 -1.6 L58.57 -0.95 L60.03 110.2 L1.48 110.83" stroke="none" stroke-width="0" fill="#6dbf3a"></path><path d="M-0.37 -1.82 C17.2 0.48, 33.02 -0.82, 58.58 1.76 M0.39 -0.06 C17.64 -0.15, 34.24 -0.66, 59.01 -0.3 M61.15 0.82 C60.59 40.94, 61.89 78.84, 58.64 110.88 M59.36 0.11 C59.47 38.46, 60.84 77.92, 60.37 110.78 M59.61 111.77 C42.5 107.99, 21.5 109.53, 1.61 108.26 M59.61 109.64 C44.57 109.52, 29.71 109.85, -0.77 109 M-1.11 108.38 C-0.06 65.54, 2.13 25.98, -1.99 0.29 M-0.67 110.55 C1.12 70.24, 0.4 28.38, 0.25 0.57" stroke="#6dbf3a" stroke-width="2" fill="none"></path></g><g transform="translate(396.43302154541016 721) rotate(0 17.566978454589844 6.875)"><text x="17.566978454589844" y="NaN" font-family="Virgil, Segoe UI Emoji" font-size="11px" fill="#8b949e" text-anchor="middle" style="white-space: pre;" direction="ltr">250ms</text></g><g stroke-linecap="round" transform="translate(482 660) rotate(0 30 27.5)"><path d="M-0.47 1.14 L61 -0.3 L59.87 55.51 L-0.49 56.45" stroke="none" stroke-width="0" fill="#3a5d1d"></path><path d="M-1.1 1.2 C13.91 -2.24, 27.09 -0.04, 59.78 -0.49 M-0.66 -0.07 C18.76 -1.18, 38.76 -0.41, 59.06 0.71 M58.28 -1.17 C62.14 16.33, 60.79 33.74, 61.4 55.45 M59.49 0.74 C60.31 19.49, 58.76 38.95, 60.29 55.22 M61.27 53.42 C47.7 56.31, 30.4 56.61, 0.55 55.74 M60.82 55.62 C42.54 56.02, 24.81 54.37, 0.4 55.93 M-1.7 56.51 C-1.57 39.32, 0.2 18.87, 0.77 0.69 M-0.27 54.6 C0.42 42.22, -0.2 30.05, -0.86 -0.17" stroke="#6dbf3a" stroke-width="2" fill="none"></path></g><g transform="translate(494.5650177001953 721) rotate(0 17.434982299804688 6.875)"><text x="17.434982299804688" y="NaN" font-family="Virgil, Segoe UI Emoji" font-size="11px" fill="#8b949e" text-anchor="middle" style="white-space: pre;" direction="ltr">500ms</text></g><g stroke-linecap="round" transform="translate(580 697) rotate(0 30 9)"><path d="M0 -0.28 L60.64 0.93 L59.65 17.18 L0.82 16.63" stroke="none" stroke-width="0" fill="#3a5d1d"></path><path d="M1.9 1.86 C14.45 1.99, 28.26 -0.39, 59.93 -1.61 M-0.62 0.8 C13.9 0.2, 25.94 0.55, 59.18 -0.02 M59.86 -0.75 C58.66 4.03, 58.32 9.47, 59.35 17.27 M60.26 0.53 C59.11 6.43, 58.98 13.74, 59.35 18.76 M59.23 17.52 C44.5 17.19, 30.96 16.86, -1.64 19.33 M60.7 17.8 C36.82 17.94, 11.91 18.64, 0.48 18.66 M1.54 19.71 C0.61 13.61, -0.62 10.36, 0.56 0.77 M-0.75 18.1 C0.1 12.82, 0.78 9.63, 0.38 0.08" stroke="#6dbf3a" stroke-width="2" fill="none"></path></g><g transform="translate(590.6895217895508 721) rotate(0 19.31047821044922 6.875)"><text x="19.31047821044922" y="NaN" font-family="Virgil, Segoe UI Emoji" font-size="11px" fill="#8b949e" text-anchor="middle" style="white-space: pre;" direction="ltr">1000ms</text></g><g transform="translate(530 590) rotate(0 44.35595703125 8.125)"><text x="0" y="NaN" font-family="Virgil, Segoe UI Emoji" font-size="13px" fill="#f85149" text-anchor="start" style="white-space: pre;" direction="ltr">p99 lives here</text></g><g stroke-linecap="round"><g transform="translate(580 610) rotate(0 15 47.5)"><path d="M-0.98 0.58 C4.05 16.61, 23.95 79.63, 29.11 95.38 M0.71 -0.17 C6.2 15.56, 26.61 77.36, 31.35 93.46" stroke="#f85149" stroke-width="2" fill="none"></path></g><g transform="translate(580 610) rotate(0 15 47.5)"><path d="M14.05 68.17 C17.43 74.75, 20.79 78.14, 32.61 94.56 M13.98 69.6 C19.46 78.2, 27.01 88.24, 31.22 93.23" stroke="#f85149" stroke-width="2" fill="none"></path></g><g transform="translate(580 610) rotate(0 15 47.5)"><path d="M33.63 62 C32.82 69.73, 32.04 74.42, 32.61 94.56 M33.56 63.44 C31.44 74.45, 31.36 86.89, 31.22 93.23" stroke="#f85149" stroke-width="2" fill="none"></path></g></g><g transform="translate(40 745) rotate(0 214.33981323242188 8.75)"><text x="0" y="NaN" font-family="Virgil, Segoe UI Emoji" font-size="14px" fill="#e6edf3" text-anchor="start" style="white-space: pre;" direction="ltr">USE:  histogram_quantile(0.99, sum(rate(bucket[5m])) by (le))</text></g><g transform="translate(40 770) rotate(0 305.9837646484375 8.75)"><text x="0" y="NaN" font-family="Virgil, Segoe UI Emoji" font-size="14px" fill="#c9d1d9" text-anchor="start" style="white-space: pre;" direction="ltr">Buckets are just counters - sum across instances, then quantile. CORRECT global p99.</text></g><g stroke-linecap="round" transform="translate(400 795) rotate(0 130 16)"><path d="M1.17 -0.04 L261.91 0.62 L260.8 30.42 L-0.36 31.08" stroke="none" stroke-width="0" fill="#3a5d1d"></path><path d="M0.87 -0.74 C53.51 0.6, 103.35 2.64, 258.65 1.35 M-0.12 -0.57 C95.79 -1.57, 192.06 -1.1, 259.5 0.26 M258.67 1.25 C259.21 10.55, 261.53 16.05, 259.6 30.42 M259.04 -0.45 C260.56 12.42, 260.22 23.41, 259.59 31.57 M259.4 31.24 C187.74 32.74, 116.14 32.11, -0.64 32.27 M259.74 31.71 C198.22 29.96, 137.93 30.49, 0.45 32.54 M-0.91 32.6 C0.74 20.89, -1.4 8.09, 1.72 -0.87 M0.26 31.36 C0.16 24.2, 0.43 16.86, 0.95 0.36" stroke="#6dbf3a" stroke-width="2" fill="none"></path></g><g transform="translate(428.1501007080078 802.25) rotate(0 101.84989929199219 8.75)"><text x="101.84989929199219" y="NaN" font-family="Virgil, Segoe UI Emoji" font-size="14px" fill="#ffffff" text-anchor="middle" style="white-space: pre;" direction="ltr">AGGREGATABLE - workhorse</text></g><g stroke-linecap="round" transform="translate(710 485) rotate(0 340 180)"><path d="M-1.87 1.89 L680.8 -1.24 L679.73 359.47 L-1.82 360.32" stroke="none" stroke-width="0" fill="#161b22"></path><path d="M-0.76 0.31 C245.64 -1.34, 489.43 -1.52, 679.81 0 M680.92 -0.28 C677.21 122.77, 679.13 247.67, 680.68 360.44 M679.91 359.74 C532.39 359.86, 385.96 360.05, -0.05 359.85 M0.96 359.41 C-0.06 222.57, -0.66 85.86, -0.66 -0.13" stroke="#30363d" stroke-width="2.5" fill="none" stroke-dasharray="8 10"></path></g><g stroke-linecap="round" transform="translate(725 500) rotate(0 130 22)"><path d="M-1.11 -1.21 L259.63 -0.04 L258.06 43.89 L-0.59 44.9" stroke="none" stroke-width="0" fill="#4a1219"></path><path d="M1.03 -0.09 C86.31 0.49, 175.47 -0.79, 259.69 1.52 M-0.36 -0.18 C86.54 -1.35, 174.11 -1.31, 260.46 -0.66 M258.61 -1.83 C261.91 12.66, 258.57 24.49, 260.92 43.05 M259.45 0.18 C259.39 11.31, 258.98 21.79, 259.14 44.15 M260.91 42.83 C203.76 43.85, 150.48 43.46, -0.13 45.23 M259.69 43.51 C208.51 43.98, 155.79 43.95, -0.7 44.55 M-0.22 43.52 C-0.42 32.29, 0.86 18.61, 0.32 -0.17 M-0.42 44.88 C-0.62 31.52, 0.63 16.69, -0.96 0.8" stroke="#f85149" stroke-width="2" fill="none"></path></g><g transform="translate(803.2560272216797 508.25) rotate(0 51.74397277832031 13.75)"><text x="51.74397277832031" y="NaN" font-family="Virgil, Segoe UI Emoji" font-size="22px" fill="#ffffff" text-anchor="middle" style="white-space: pre;" direction="ltr">SUMMARY</text></g><g transform="translate(1000 507) rotate(0 161.1468505859375 8.75)"><text x="0" y="NaN" font-family="Virgil, Segoe UI Emoji" font-size="14px" fill="#c9d1d9" text-anchor="start" style="white-space: pre;" direction="ltr">quantiles pre-computed in-process, per-instance</text></g><g stroke-linecap="round" transform="translate(740 580) rotate(0 100 35)"><path d="M1.28 0.02 L198.79 1.44 L199.55 69.92 L1.3 69.46" stroke="none" stroke-width="0" fill="#3a1d6e"></path><path d="M1.08 -1.19 C51.01 1.55, 104.51 1.04, 199.91 1.33 M0.86 0.42 C43.43 -0.4, 86.6 -1.2, 200.53 -0.11 M201.28 1.66 C201.5 15.68, 199.79 33.2, 199.33 68.59 M199.13 0.58 C200.24 27.99, 199.36 54.69, 200.29 69.39 M200.7 71.56 C152.85 69.3, 103.57 71.92, 1.61 69.4 M199.61 70.09 C138.3 69.1, 75.86 69.7, -0.43 70.52 M0.24 69.4 C-0.09 49.22, 1.37 25.37, -0.78 -1.32 M0.21 69.74 C-0.74 44.03, -0.4 17.83, 0.22 0.92" stroke="#a371f7" stroke-width="2" fill="none"></path></g><g transform="translate(790.5600357055664 596.25) rotate(0 49.439964294433594 18.75)"><text x="49.439964294433594" y="NaN" font-family="Virgil, Segoe UI Emoji" font-size="15px" fill="#ffffff" text-anchor="middle" style="white-space: pre;" direction="ltr">instance 1</text><text x="49.439964294433594" y="NaN" font-family="Virgil, Segoe UI Emoji" font-size="15px" fill="#ffffff" text-anchor="middle" style="white-space: pre;" direction="ltr">p99 = 200ms</text></g><g stroke-linecap="round" transform="translate(955 580) rotate(0 100 35)"><path d="M-1.94 0.58 L198.55 1 L200.27 71.61 L-1.46 71.74" stroke="none" stroke-width="0" fill="#3a1d6e"></path><path d="M1.55 -0.09 C73.68 0.26, 148.4 -0.89, 200.97 -0.99 M-0.01 0.55 C77.42 -0.42, 154.55 -0.03, 200 -0.47 M200.83 -0.29 C199.86 14.67, 198.8 31.81, 200.2 70.51 M200.88 -0.65 C199.96 15.49, 198.94 30.51, 199.79 70.81 M200.49 68.94 C154.8 71.68, 106.74 70.07, -1.14 71.28 M200.63 69.76 C150.11 70.93, 100.78 70.08, -0.51 70.47 M-0.36 70.68 C-1.3 43.89, 1.33 15.7, 0.74 -0.28 M0.28 69.46 C0.08 48.85, 0.1 24.99, -0.13 0.02" stroke="#a371f7" stroke-width="2" fill="none"></path></g><g transform="translate(1005.5600357055664 596.25) rotate(0 49.439964294433594 18.75)"><text x="49.439964294433594" y="NaN" font-family="Virgil, Segoe UI Emoji" font-size="15px" fill="#ffffff" text-anchor="middle" style="white-space: pre;" direction="ltr">instance 2</text><text x="49.439964294433594" y="NaN" font-family="Virgil, Segoe UI Emoji" font-size="15px" fill="#ffffff" text-anchor="middle" style="white-space: pre;" direction="ltr">p99 = 200ms</text></g><g stroke-linecap="round" transform="translate(1170 580) rotate(0 100 35)"><path d="M-1.17 -0.06 L200.03 -1.84 L200.27 69.38 L0.96 68.08" stroke="none" stroke-width="0" fill="#3a1d6e"></path><path d="M0.88 1.23 C70.92 0.2, 139.56 0.47, 201.31 -0.9 M0.14 -0.57 C42.19 -0.84, 84.66 -1.35, 200.33 -0.59 M201.75 -1.15 C199.34 18.45, 197.86 41.47, 198.78 68.74 M200.1 -0.73 C200.29 27.02, 200.22 54.17, 199.99 69.09 M201.47 68.29 C139.13 68.76, 78.95 70.19, 0.9 70.81 M199.5 70.48 C154.82 71.24, 111.02 70.22, -0.71 69.67 M1.6 68.47 C-0.94 44.8, -1.89 23.46, -0.11 -1.45 M0.11 70.94 C0.86 44.19, 0.35 17.17, -0.65 -0.85" stroke="#a371f7" stroke-width="2" fill="none"></path></g><g transform="translate(1220.5600357055664 596.25) rotate(0 49.439964294433594 18.75)"><text x="49.439964294433594" y="NaN" font-family="Virgil, Segoe UI Emoji" font-size="15px" fill="#ffffff" text-anchor="middle" style="white-space: pre;" direction="ltr">instance 3</text><text x="49.439964294433594" y="NaN" font-family="Virgil, Segoe UI Emoji" font-size="15px" fill="#ffffff" text-anchor="middle" style="white-space: pre;" direction="ltr">p99 = 200ms</text></g><g transform="translate(770 660) rotate(0 110.64189910888672 8.75)"><text x="0" y="NaN" font-family="Virgil, Segoe UI Emoji" font-size="14px" fill="#8b949e" text-anchor="start" style="white-space: pre;" direction="ltr">naive: average across instances</text></g><g stroke-linecap="round"><g transform="translate(930 682) rotate(0 0 14)"><path d="M-1.1 0.3 C-1.1 4.91, 0.49 22.58, 0.75 27.12 M0.52 -0.59 C0.36 4.2, 0.29 23.32, 0.19 28.2" stroke="#f85149" stroke-width="2" fill="none"></path></g><g transform="translate(930 682) rotate(0 0 14)"><path d="M-4.1 15.86 C-3.85 20.36, -1.63 25.26, 0.25 28.59 M-5.03 15.19 C-2.94 17.72, -1.9 21.2, -0.15 28.46" stroke="#f85149" stroke-width="2" fill="none"></path></g><g transform="translate(930 682) rotate(0 0 14)"><path d="M5.47 15.97 C2.25 20.34, 1 25.2, 0.25 28.59 M4.55 15.3 C4.35 17.76, 3.1 21.22, -0.15 28.46" stroke="#f85149" stroke-width="2" fill="none"></path></g></g><g stroke-linecap="round"><g transform="translate(1050 682) rotate(0 0 14)"><path d="M0.33 -0.8 C0.27 4.25, -0.38 24.41, -0.24 29.17 M-0.95 1.4 C-1.2 6.24, -1.64 23.07, -1.32 27.66" stroke="#f85149" stroke-width="2" fill="none"></path></g><g transform="translate(1050 682) rotate(0 0 14)"><path d="M-7.25 14.3 C-3.53 19.96, -3.62 21.6, -0.5 26.35 M-6.09 14.2 C-5.87 18.28, -4.38 21.24, -1.83 26.97" stroke="#f85149" stroke-width="2" fill="none"></path></g><g transform="translate(1050 682) rotate(0 0 14)"><path d="M2.33 14.14 C3.08 19.88, 0.02 21.56, -0.5 26.35 M3.49 14.05 C1.54 18.08, 0.86 21.07, -1.83 26.97" stroke="#f85149" stroke-width="2" fill="none"></path></g></g><g stroke-linecap="round"><g transform="translate(1170 682) rotate(0 0 14)"><path d="M0.1 -0.94 C0.08 3.69, -0.78 22.94, -0.72 27.82 M-1.3 1.19 C-0.88 6, 1.41 24.49, 1.61 29.26" stroke="#f85149" stroke-width="2" fill="none"></path></g><g transform="translate(1170 682) rotate(0 0 14)"><path d="M-5.4 15.74 C-3.02 20.29, -0.96 22.23, 1.11 30.46 M-4.13 16.77 C-2.4 20.93, -0.57 23.54, 0.94 28.68" stroke="#f85149" stroke-width="2" fill="none"></path></g><g transform="translate(1170 682) rotate(0 0 14)"><path d="M4.13 14.9 C4.11 19.67, 3.77 21.82, 1.11 30.46 M5.41 15.93 C4.31 20.32, 3.31 23.18, 0.94 28.68" stroke="#f85149" stroke-width="2" fill="none"></path></g></g><g stroke-linecap="round" transform="translate(740 720) rotate(0 305 25)"><path d="M1.17 -0.05 L609.77 0.71 L609.07 48.06 L1.62 49.68" stroke="none" stroke-width="0" fill="#4a1219"></path><path d="M0.19 -0.69 C222.61 -1.63, 446.49 -0.85, 610.5 0.32 M0.14 0.02 C215.03 -0.52, 430.23 -0.01, 610.19 -0.37 M609.08 1.88 C610.27 11.18, 610.73 25.59, 610.49 50.22 M609.83 -0.98 C609.89 14.04, 610.08 28.93, 610.09 49.01 M610.51 50.62 C421.98 52.98, 232.26 52.62, 0.54 50.42 M610.21 49.72 C387.31 51.4, 164.19 51.71, -0.15 49.67 M-0.78 48.02 C-1.25 30.35, -0.01 12.93, -1.89 -1.67 M0.82 49.28 C0.82 36.74, -0.25 22.32, -0.93 0.51" stroke="#f85149" stroke-width="2" fill="none"></path></g><g transform="translate(917.9290771484375 733.75) rotate(0 127.0709228515625 11.25)"><text x="127.0709228515625" y="NaN" font-family="Virgil, Segoe UI Emoji" font-size="18px" fill="#ffffff" text-anchor="middle" style="white-space: pre;" direction="ltr">avg(p99) = 200ms   WRONG</text></g><g stroke-linecap="round"><g transform="translate(740 720) rotate(0 305 25)"><path d="M-1.09 -1.14 C100.56 7.1, 507.18 41.5, 608.84 50.11 M0.54 0.88 C102.64 9.27, 509.17 43.78, 610.94 51.71" stroke="#f85149" stroke-width="3" fill="none"></path></g></g><g stroke-linecap="round"><g transform="translate(740 770) rotate(0 305 -25)"><path d="M-0.54 -0.66 C101.11 -8.7, 507.12 -40.93, 608.91 -49.24 M1.37 1.61 C103.46 -6.68, 509.69 -42.45, 611.06 -50.97" stroke="#f85149" stroke-width="3" fill="none"></path></g></g><g transform="translate(740 750) rotate(0 260.75677490234375 8.75)"><text x="0" y="NaN" font-family="Virgil, Segoe UI Emoji" font-size="14px" fill="#c9d1d9" text-anchor="start" style="white-space: pre;" direction="ltr">Real global p99 could be 200ms ... or 600ms. The raw distribution is gone.</text></g><g stroke-linecap="round" transform="translate(1070 795) rotate(0 145 16)"><path d="M0.57 -0.31 L288.01 -1.33 L288.31 30.29 L0.88 32.19" stroke="none" stroke-width="0" fill="#4a1219"></path><path d="M1.21 0.85 C99.7 -0.41, 197.82 -0.39, 288.73 1.06 M-0.41 -0.67 C61.88 2.35, 123.27 2.39, 290.05 -0.06 M289.2 1.48 C289.65 12.13, 289.25 24.65, 291.84 30.12 M290.79 0.26 C289.46 6.85, 289.82 13.99, 290.28 31.22 M291.47 31.27 C192.36 32.86, 92.89 33.42, -1.19 33.44 M289.28 32.69 C206.37 30.14, 124.7 30, -0.26 32.64 M1.63 33.05 C-0.47 24.13, 0.54 13.83, 0.88 -0.58 M-0.3 31.57 C-0.17 21.58, 0.27 12.11, 0.66 -0.12" stroke="#f85149" stroke-width="2" fill="none"></path></g><g transform="translate(1109.2440872192383 802.25) rotate(0 105.75591278076172 8.75)"><text x="105.75591278076172" y="NaN" font-family="Virgil, Segoe UI Emoji" font-size="14px" fill="#ffffff" text-anchor="middle" style="white-space: pre;" direction="ltr">NOT AGGREGATABLE - avoid</text></g></svg>