<svg version="1.1" xmlns="http://www.w3.org/2000/svg" viewBox="0 0 1059.3209769629266 570.6850606751902" width="1059.3209769629266" height="570.6850606751902">
  <!-- svg-source:excalidraw -->
  
  <defs>
    <style>
      @font-face {
        font-family: "Virgil";
        src: url("https://excalidraw.com/Virgil.woff2");
      }
      @font-face {
        font-family: "Cascadia";
        src: url("https://excalidraw.com/Cascadia.woff2");
      }
    </style>
  </defs>
  <rect x="0" y="0" width="1059.3209769629266" height="570.6850606751902" fill="#1e1e2e"></rect><g stroke-linecap="round" transform="translate(338.48123421026037 10) rotate(0 162.5 69.17737872332964)"><path d="M163.14 -0.32 L324.96 68.61 L162.86 139.49 L0.29 71.39" stroke="none" stroke-width="0" fill="#5b21b6" fill-rule="evenodd"></path><path d="M164.12 0.7 C207.34 20.71, 254.55 37.46, 326.25 69.47 M162.36 -0.37 C212.07 20.1, 261.95 41.05, 324.82 69.82 M323.9 71.86 C271.71 94.57, 218.23 116.58, 162.96 136.49 M324.37 69.12 C264.62 94.17, 202.76 120.25, 163.98 137.82 M162.77 136.44 C122.71 122.02, 85.34 107.06, 0.56 69.88 M162.06 139.3 C130.84 124.34, 98.37 109.99, 0.14 70.85 M0.76 70.42 C36.4 57.28, 73.14 41.03, 163.73 0.45 M-0.97 69.53 C56.77 44.16, 113.71 20, 162.68 0.14" stroke="#7c3aed" stroke-width="2" fill="none"></path></g><g transform="translate(381.1013361389713 54.17737872332964) rotate(0 119.87989807128906 25)"><text x="119.87989807128906" y="NaN" font-family="Virgil, Segoe UI Emoji" font-size="20px" fill="#fff" text-anchor="middle" style="white-space: pre;" direction="ltr">How often do concurrent</text><text x="119.87989807128906" y="NaN" font-family="Virgil, Segoe UI Emoji" font-size="20px" fill="#fff" text-anchor="middle" style="white-space: pre;" direction="ltr">transactions conflict?</text></g><g stroke-linecap="round" transform="translate(10 475.43285329376477) rotate(0 135 36.5)"><path d="M0.5 1.24 L269.23 0.76 L270.95 74.04 L-0.22 72.51" stroke="none" stroke-width="0" fill="#2d6a4f"></path><path d="M1.03 1.41 C63.35 1.58, 123.73 1.51, 271.24 1.53 M0.77 -0.39 C55.77 1.22, 113.11 0.1, 270.04 0.72 M268.51 -0.45 C272.12 16.28, 270.8 32.72, 270.56 73.07 M269.8 0.44 C271.07 17.2, 271.15 33.52, 269.63 72.83 M270.86 71.74 C188.39 72.6, 109.28 71.88, -0.03 73.99 M269.33 72.49 C193.13 74.45, 116.99 74.52, -0.76 73.01 M0.36 72.16 C-0.28 50.03, 0.84 30.14, 0.97 0.71 M-0.35 72.34 C-0.12 54.66, -0.77 37.91, 0.88 -0.26" stroke="#40916c" stroke-width="2" fill="none"></path></g><g transform="translate(59.870086669921875 499.43285329376477) rotate(0 85.12991333007812 12.5)"><text x="85.12991333007812" y="NaN" font-family="Virgil, Segoe UI Emoji" font-size="20px" fill="#fff" text-anchor="middle" style="white-space: pre;" direction="ltr">Optimistic Locking</text></g><g stroke-linecap="round" transform="translate(768.3209769629265 467.7682278423471) rotate(0 140.5 36.5)"><path d="M1.35 1.97 L281.17 -1.31 L282.34 74.31 L-0.29 73.49" stroke="none" stroke-width="0" fill="#fa5252"></path><path d="M1.19 -0.1 C103.67 -1.24, 209.55 -0.54, 281.72 -0.86 M0.28 -0.04 C111.92 0.05, 223.92 1.13, 281.53 0.33 M281.3 -0.66 C281.27 15.22, 280.03 32.74, 281.45 71.8 M281.58 -0.64 C281.67 19.62, 282.52 40.64, 281.3 73.36 M279.62 72.27 C214.23 73.67, 146.79 73.99, 1.19 72.65 M281.21 73.71 C220.89 73.67, 160.83 73.64, -0.42 72.38 M-1.04 73.96 C1.84 57.86, 1.63 43.51, 0.99 1 M0.63 72.53 C-0.61 55.81, -0.68 39.96, 0.08 -0.65" stroke="#fa5252" stroke-width="2" fill="none"></path></g><g transform="translate(818.5910727881218 491.7682278423471) rotate(0 90.22990417480469 12.5)"><text x="90.22990417480469" y="NaN" font-family="Virgil, Segoe UI Emoji" font-size="20px" fill="#fff" text-anchor="middle" style="white-space: pre;" direction="ltr">Pessimistic Locking</text></g><g stroke-linecap="round" transform="translate(412.4856732473746 462.68506067519024) rotate(0 136.6644427953072 49)"><path d="M1.83 -0.32 L274.17 -1.66 L272.49 96.06 L-0.92 96.59" stroke="none" stroke-width="0" fill="#b45309"></path><path d="M-0.47 1.44 C102.61 1.54, 203.21 1.53, 272.42 -0.23 M0.32 0.28 C71.03 1.78, 142.41 2.21, 273.68 0.64 M271.79 0.85 C273.89 25.7, 273.99 51.78, 273.93 98.75 M272.34 0.01 C273.38 37.17, 272.79 75.21, 273.53 98.72 M273.38 97.16 C169.25 97.34, 66.68 98.07, 0.4 97.2 M272.66 98.24 C184.87 96.37, 96.66 96.43, 0.01 98.59 M0.18 97.57 C2.45 76.56, -0.66 50.24, 1.22 1.11 M-0.99 98.56 C0.8 75.52, 0.57 52.42, 0.95 0.94" stroke="#d97706" stroke-width="2" fill="none"></path></g><g transform="translate(426.9002152248107 486.68506067519024) rotate(0 122.2499008178711 25)"><text x="122.2499008178711" y="NaN" font-family="Virgil, Segoe UI Emoji" font-size="20px" fill="#fff" text-anchor="middle" style="white-space: pre;" direction="ltr">Depends on retry cost</text><text x="122.2499008178711" y="NaN" font-family="Virgil, Segoe UI Emoji" font-size="20px" fill="#fff" text-anchor="middle" style="white-space: pre;" direction="ltr">and latency requirements</text></g><g stroke-linecap="round"><g transform="translate(496.0056253546979 149.62377306627468) rotate(0 -154.05089955697753 159.90454011374504)"><path d="M0.04 -0.63 C-51.41 52.55, -257.25 266.36, -308.69 319.86 M-1.4 1.66 C-52.45 54.97, -254.91 268.65, -306.28 321.42" stroke="#40916c" stroke-width="2" fill="none"></path></g><g transform="translate(496.0056253546979 149.62377306627468) rotate(0 -154.05089955697753 159.90454011374504)"><path d="M-295.23 292.99 C-297.55 301.35, -300.37 309.23, -305.04 322.76 M-293.39 293.38 C-297.48 300.51, -299.53 307.74, -306.69 320.58" stroke="#40916c" stroke-width="2" fill="none"></path></g><g transform="translate(496.0056253546979 149.62377306627468) rotate(0 -154.05089955697753 159.90454011374504)"><path d="M-280.41 307.2 C-287.27 311.3, -294.54 314.91, -305.04 322.76 M-278.58 307.58 C-286.07 311.39, -291.65 315.25, -306.69 320.58" stroke="#40916c" stroke-width="2" fill="none"></path></g></g><g transform="translate(455.1332727844791 298.1047574466593) rotate(0 59.59796142578125 11.25)"><text x="59.59796142578125" y="NaN" font-family="Virgil, Segoe UI Emoji" font-size="18px" fill="#cdd6f4" text-anchor="middle" style="white-space: pre;" direction="ltr">Rarely (&lt; 1%)</text></g><g stroke-linecap="round"><g transform="translate(508.27778773723276 149.43501181439504) rotate(0 193.20504939703693 156.16660801397603)"><path d="M-1.18 -0.04 C63.02 52.01, 321.62 260.1, 386.16 311.99 M0.4 -1.1 C64.34 51.14, 320.97 261.16, 385.08 313.35" stroke="#e03131" stroke-width="2" fill="none"></path></g><g transform="translate(508.27778773723276 149.43501181439504) rotate(0 193.20504939703693 156.16660801397603)"><path d="M356.69 303.05 C366.94 306.89, 376.56 311.61, 385.71 311.69 M356.19 302.54 C362.12 305.9, 368.03 308.23, 385.32 313.82" stroke="#e03131" stroke-width="2" fill="none"></path></g><g transform="translate(508.27778773723276 149.43501181439504) rotate(0 193.20504939703693 156.16660801397603)"><path d="M369.67 287.16 C374.95 296.91, 379.64 307.67, 385.71 311.69 M369.17 286.65 C372.27 293.44, 375.41 299.18, 385.32 313.82" stroke="#e03131" stroke-width="2" fill="none"></path></g></g><g transform="translate(608.542292254694 298.1047574466593) rotate(0 78.93894195556642 11.25)"><text x="78.9389419555664" y="NaN" font-family="Virgil, Segoe UI Emoji" font-size="18px" fill="#cdd6f4" text-anchor="middle" style="white-space: pre;" direction="ltr">Frequently (&gt; 5%)</text></g><g stroke-linecap="round"><g transform="translate(501.7934444699321 149.97858306619744) rotate(0 7.929732537186979 153.3532388044964)"><path d="M-0.42 -1.2 C2.18 49.97, 12.3 256.5, 15.1 307.78 M1.56 0.79 C4.6 51.57, 15.03 255.07, 17.41 306.23" stroke="#d97706" stroke-width="2" fill="none"></path></g><g transform="translate(501.7934444699321 149.97858306619744) rotate(0 7.929732537186979 153.3532388044964)"><path d="M3.78 277.31 C10.75 286.58, 11.61 293.43, 16.38 305.76 M6.51 279.51 C9 285.49, 10.65 289.95, 18.29 305.42" stroke="#d97706" stroke-width="2" fill="none"></path></g><g transform="translate(501.7934444699321 149.97858306619744) rotate(0 7.929732537186979 153.3532388044964)"><path d="M24.27 276.3 C25.97 285.76, 21.56 292.87, 16.38 305.76 M27.01 278.5 C25 284.57, 22.15 289.25, 18.29 305.42" stroke="#d97706" stroke-width="2" fill="none"></path></g></g><g transform="translate(254.99827827764318 298.1047574466593) rotate(0 73.23295593261719 11.25)"><text x="73.23295593261719" y="NaN" font-family="Virgil, Segoe UI Emoji" font-size="18px" fill="#cdd6f4" text-anchor="middle" style="white-space: pre;" direction="ltr">Moderate (1-5%)</text></g></svg>