<svg version="1.1" xmlns="http://www.w3.org/2000/svg" viewBox="0 0 780 1075" width="780" height="1075">
  <!-- svg-source:excalidraw -->
  
  <defs>
    <style>
      @font-face {
        font-family: "Virgil";
        src: url("https://excalidraw.com/Virgil.woff2");
      }
      @font-face {
        font-family: "Cascadia";
        src: url("https://excalidraw.com/Cascadia.woff2");
      }
    </style>
  </defs>
  <rect x="0" y="0" width="780" height="1075" fill="#1e1e2e"></rect><g stroke-linecap="round" transform="translate(10 10) rotate(0 100 25)"><path d="M-0.8 -0.58 L198.6 -1.48 L200.71 49.07 L-0.49 51.48" stroke="none" stroke-width="0" fill="#5b21b6"></path><path d="M-0.56 -0.95 C72.68 -2.72, 141.61 -1.27, 199.48 -1.2 M0.47 -0.31 C54.31 -0.68, 109.77 -1.28, 200.35 0.63 M201.94 -1.26 C199.99 11.34, 198.92 22.24, 200.29 48.75 M199.1 -0.55 C200.26 18.02, 199.81 36.23, 200.97 50.28 M199.31 50.64 C143.82 48.52, 86.68 50.49, -1.17 50.74 M200.31 49.73 C129.47 50.05, 58.17 49.13, 0.01 50.84 M1.36 51.02 C-0.6 29.18, 0.1 11.16, -0.79 1.05 M-0.45 49.09 C-0.32 32.29, -0.18 14.4, 0.52 0.94" stroke="#7c3aed" stroke-width="2" fill="none"></path></g><g transform="translate(80.11001586914062 22.5) rotate(0 29.889984130859375 12.5)"><text x="29.889984130859375" y="NaN" font-family="Virgil, Segoe UI Emoji" font-size="20px" fill="#ffffff" text-anchor="middle" style="white-space: pre;" direction="ltr">Txn A</text></g><g stroke-linecap="round"><g transform="translate(110 60) rotate(0 0.1705104890698408 478.8146046450688)"><path d="M-0.68 0.55 C-0.54 160.16, 0.8 797.36, 1.1 956.74" stroke="#585b70" stroke-width="1.5" fill="none" stroke-dasharray="8 9"></path></g></g><g stroke-linecap="round" transform="translate(10 1015) rotate(0 100 25)"><path d="M1.21 -1.15 L198.64 -0.89 L200.59 51.03 L1.65 50.81" stroke="none" stroke-width="0" fill="#5b21b6"></path><path d="M-0.6 -0.28 C64.18 0.34, 130.18 -0.25, 199.38 -0.13 M-0.35 -0.49 C74.01 -1.3, 149.3 -1.16, 200.89 -0.66 M199.72 1.86 C198.72 11.83, 200.72 21.21, 199.42 49.81 M200.09 -0.61 C198.93 11.07, 199.66 22.42, 199.74 50.27 M201.73 49.39 C142.74 50.05, 85.05 51.28, -0.21 48.27 M200 49.33 C143.02 52.28, 87.51 51.32, 0.2 49.89 M-1.72 51.37 C-1.21 32.25, 1.41 11.92, 1.79 -1.88 M-0.8 50.57 C-0.69 34.97, -0.45 20.32, -0.38 0.63" stroke="#7c3aed" stroke-width="2" fill="none"></path></g><g transform="translate(80.11001586914062 1027.5) rotate(0 29.889984130859375 12.5)"><text x="29.889984130859375" y="NaN" font-family="Virgil, Segoe UI Emoji" font-size="20px" fill="#ffffff" text-anchor="middle" style="white-space: pre;" direction="ltr">Txn A</text></g><g stroke-linecap="round" transform="translate(290 10) rotate(0 100 25)"><path d="M0.6 -1.53 L201.54 0.97 L198.02 48.7 L-0.08 48.49" stroke="none" stroke-width="0" fill="#5b21b6"></path><path d="M-0.41 -0.15 C54.03 -2.26, 106.64 0.08, 200.71 -0.58 M0.8 -0.66 C76.92 0.32, 153.26 -0.26, 199.64 0.39 M200.48 0.25 C198.61 18.11, 198.77 33.52, 199.51 50.02 M200.84 -0.67 C199.96 19.1, 200.68 40.56, 199.53 49.44 M199.06 49.31 C120.78 52.75, 41.56 51.92, -0.07 48.82 M199.3 49.86 C128.45 52.22, 57.04 51.16, 0.53 49.14 M1.49 50.3 C0.7 32.93, 1.89 13.61, 0.45 -1.37 M0.78 49.75 C0.2 35.62, 0 22.16, 0.94 0.68" stroke="#7c3aed" stroke-width="2" fill="none"></path></g><g transform="translate(317.1500473022461 22.5) rotate(0 72.8499526977539 12.5)"><text x="72.8499526977539" y="NaN" font-family="Virgil, Segoe UI Emoji" font-size="20px" fill="#ffffff" text-anchor="middle" style="white-space: pre;" direction="ltr">Database Row</text></g><g stroke-linecap="round"><g transform="translate(390 60) rotate(0 2.174657416849243 477.19104824914257)"><path d="M-0.49 -0.48 C0.27 158.76, 2.99 795.15, 3.9 954.45" stroke="#585b70" stroke-width="1.5" fill="none" stroke-dasharray="8 9"></path></g></g><g stroke-linecap="round" transform="translate(290 1015) rotate(0 100 25)"><path d="M1.5 1.36 L201.31 -0.78 L201.01 51.66 L-1.15 50.68" stroke="none" stroke-width="0" fill="#5b21b6"></path><path d="M-1.64 1.11 C50.64 -1.88, 102.51 -0.2, 199.52 -0.15 M-0.37 0.79 C61.63 -0.97, 120.68 -0.53, 199.3 0.52 M200.54 0.76 C198.56 8.96, 200.17 19.9, 200.61 50.68 M200.07 -0.41 C199.16 11.84, 200.34 23.22, 200.9 49.22 M200.28 51.49 C137.21 49.72, 72 49.56, 1.05 48.48 M200.59 49.39 C126.77 50.11, 52.69 50.21, -0.34 49.45 M-1.29 49 C-0.35 38.76, 1.17 29.18, -0.97 1.49 M-0.08 49.25 C-0.6 37.19, 0.17 22.44, -0.33 0.38" stroke="#7c3aed" stroke-width="2" fill="none"></path></g><g transform="translate(317.1500473022461 1027.5) rotate(0 72.8499526977539 12.5)"><text x="72.8499526977539" y="NaN" font-family="Virgil, Segoe UI Emoji" font-size="20px" fill="#ffffff" text-anchor="middle" style="white-space: pre;" direction="ltr">Database Row</text></g><g stroke-linecap="round" transform="translate(570 10) rotate(0 100 25)"><path d="M-1.18 -1.23 L198.4 -0.31 L201.35 49.65 L0.68 48.6" stroke="none" stroke-width="0" fill="#5b21b6"></path><path d="M-0.19 0.38 C78.28 1.54, 154 1.37, 198.31 1.06 M0.14 0.04 C55.73 1.75, 111.42 1.41, 200.49 -0.31 M199.69 0.6 C199.13 15.66, 200.87 33.86, 198.99 49.53 M200.31 0.15 C200.6 16.51, 199.35 35.41, 200.25 50.62 M198.22 49.04 C154.22 48.05, 107.9 47.94, -1.16 49.98 M199.46 50.09 C159.83 48.89, 118.97 48.99, -0.63 50.18 M1.6 49.24 C1.66 38.53, 0.72 24.75, 0.66 1.75 M-0.77 50.51 C-0.24 36.56, 0.24 23.48, 0.4 0.66" stroke="#7c3aed" stroke-width="2" fill="none"></path></g><g transform="translate(639.400016784668 22.5) rotate(0 30.59998321533203 12.5)"><text x="30.59998321533203" y="NaN" font-family="Virgil, Segoe UI Emoji" font-size="20px" fill="#ffffff" text-anchor="middle" style="white-space: pre;" direction="ltr">Txn B</text></g><g stroke-linecap="round"><g transform="translate(669.8467258973251 60) rotate(0 0.2792109258518849 478.24371884728885)"><path d="M0.52 -0.46 C0.7 159.16, 1.63 797.23, 1.65 956.82" stroke="#585b70" stroke-width="1.5" fill="none" stroke-dasharray="8 9"></path></g></g><g stroke-linecap="round" transform="translate(570 1015) rotate(0 100 25)"><path d="M1.55 1.67 L198.31 -0.53 L201.37 50.2 L1.57 50.24" stroke="none" stroke-width="0" fill="#5b21b6"></path><path d="M-1.27 0.27 C78.41 2.01, 157.19 0.48, 199.94 -0.32 M-0.67 0.75 C70.19 -1.73, 140.76 -2.37, 200.07 0.21 M198.64 1.86 C199.76 15.28, 201.17 31.89, 198.07 51.55 M199.71 -0.97 C199.87 12.08, 199.89 22.01, 200.97 50.83 M199.2 49.38 C146.82 49.33, 92.07 52.16, -0.43 51.05 M200.89 50.87 C149.37 48.91, 97.37 48.21, 0.51 50.53 M-0.74 51.49 C-1.29 29.04, 1.18 10.95, 0.07 -0.12 M0.05 50.75 C1.14 37.01, 0.51 22.14, 0.34 0.82" stroke="#7c3aed" stroke-width="2" fill="none"></path></g><g transform="translate(639.400016784668 1027.5) rotate(0 30.59998321533203 12.5)"><text x="30.59998321533203" y="NaN" font-family="Virgil, Segoe UI Emoji" font-size="20px" fill="#ffffff" text-anchor="middle" style="white-space: pre;" direction="ltr">Txn B</text></g><g stroke-linecap="round"><g transform="translate(110 140) rotate(0 140 0)"><path d="M-0.01 1.03 C46.88 1.15, 234.29 0.6, 280.99 0.56 M-1.47 0.53 C45.38 0.3, 233.73 -0.99, 280.57 -1.27" stroke="#cdd6f4" stroke-width="2" fill="none"></path></g><g transform="translate(110 140) rotate(0 140 0)"><path d="M254.16 10.83 C261.03 6.69, 269.05 5.35, 278.96 0.62 M252.19 9.9 C262.31 5.8, 272.4 0.57, 280.57 -1.04" stroke="#cdd6f4" stroke-width="2" fill="none"></path></g><g transform="translate(110 140) rotate(0 140 0)"><path d="M254.03 -9.69 C260.9 -8.26, 268.97 -4.03, 278.96 0.62 M252.06 -10.63 C262.06 -7.46, 272.2 -5.44, 280.57 -1.04" stroke="#cdd6f4" stroke-width="2" fill="none"></path></g></g><g transform="translate(170.26006317138672 117.5) rotate(0 79.73993682861328 22.5)"><text x="79.73993682861328" y="NaN" font-family="Virgil, Segoe UI Emoji" font-size="18px" fill="#cdd6f4" text-anchor="middle" style="white-space: pre;" direction="ltr">Read quantity=10,</text><text x="79.73993682861328" y="NaN" font-family="Virgil, Segoe UI Emoji" font-size="18px" fill="#cdd6f4" text-anchor="middle" style="white-space: pre;" direction="ltr">version=3</text></g><g stroke-linecap="round"><g transform="translate(670 220) rotate(0 -140 0)"><path d="M-0.86 0.99 C-47.25 0.79, -232.55 -0.79, -278.88 -0.89 M0.88 0.47 C-45.51 0.37, -232.6 0.56, -279.23 0.17" stroke="#cdd6f4" stroke-width="2" fill="none"></path></g><g transform="translate(670 220) rotate(0 -140 0)"><path d="M-249.36 -8.13 C-259.56 -5.66, -264.59 -4.53, -279.33 0.64 M-250.2 -9.07 C-260.12 -7.31, -269.14 -3.29, -278.63 -0.57" stroke="#cdd6f4" stroke-width="2" fill="none"></path></g><g transform="translate(670 220) rotate(0 -140 0)"><path d="M-249.42 12.39 C-259.66 9.71, -264.67 5.69, -279.33 0.64 M-250.26 11.45 C-259.99 6.5, -269 3.82, -278.63 -0.57" stroke="#cdd6f4" stroke-width="2" fill="none"></path></g></g><g transform="translate(450.2600631713867 197.5) rotate(0 79.73993682861328 22.5)"><text x="79.73993682861328" y="NaN" font-family="Virgil, Segoe UI Emoji" font-size="18px" fill="#cdd6f4" text-anchor="middle" style="white-space: pre;" direction="ltr">Read quantity=10,</text><text x="79.73993682861328" y="NaN" font-family="Virgil, Segoe UI Emoji" font-size="18px" fill="#cdd6f4" text-anchor="middle" style="white-space: pre;" direction="ltr">version=3</text></g><g stroke-opacity="0.85" fill-opacity="0.85" stroke-linecap="round" transform="translate(131.60724646971556 258) rotate(0 261.3806760679172 22)"><path d="M-1.28 -0.82 L521.96 -1.5 L524.15 42.75 L0.7 44.7" stroke="none" stroke-width="0" fill="#2d6a4f"></path><path d="M-0.14 -0.51 C202.11 0.17, 402.14 -0.34, 523.25 0.62 M-0.25 0.19 C117.35 0.88, 234.19 1.2, 522.52 -0.36 M523.8 1.11 C523.24 12.22, 524.68 20.19, 523.31 45.99 M522.94 0.43 C522.46 17.74, 522.53 33.44, 521.85 43.15 M522.56 44.45 C344.44 43.24, 165.85 42.9, 0.75 43.85 M522.36 43.98 C332.06 42.39, 140.8 42.03, -0.01 44.24 M1.52 45.08 C0.65 31.51, -0.24 20.86, 0.21 -1.49 M0.4 43.67 C0.57 27.73, 0.54 9.6, -0.84 -0.87" stroke="#40916c" stroke-width="2" fill="none"></path></g><g transform="translate(303.51597582132416 270) rotate(0 89.4719467163086 10)"><text x="89.4719467163086" y="NaN" font-family="Virgil, Segoe UI Emoji" font-size="16px" fill="#ffffff" text-anchor="middle" style="white-space: pre;" direction="ltr">Both work concurrently</text></g><g stroke-linecap="round"><g transform="translate(110 355) rotate(0 140 0)"><path d="M-0.36 -0.81 C45.99 -0.94, 232.15 0, 278.84 0.08 M1.65 1.37 C48.28 1.39, 234.73 1.76, 280.95 1.66" stroke="#cdd6f4" stroke-width="2" fill="none"></path></g><g transform="translate(110 355) rotate(0 140 0)"><path d="M251.4 9.99 C263.07 7.98, 272.62 5.29, 279.25 0.4 M253.53 11.67 C261.28 8.42, 271.72 5.75, 280.48 2.41" stroke="#cdd6f4" stroke-width="2" fill="none"></path></g><g transform="translate(110 355) rotate(0 140 0)"><path d="M251.4 -10.54 C263.22 -5.08, 272.77 -0.3, 279.25 0.4 M253.54 -8.85 C261.42 -5.29, 271.87 -1.15, 280.48 2.41" stroke="#cdd6f4" stroke-width="2" fill="none"></path></g></g><g transform="translate(167.65003967285156 332.5) rotate(0 82.34996032714844 22.5)"><text x="82.34996032714844" y="NaN" font-family="Virgil, Segoe UI Emoji" font-size="18px" fill="#cdd6f4" text-anchor="middle" style="white-space: pre;" direction="ltr">UPDATE 7 WHERE</text><text x="82.34996032714844" y="NaN" font-family="Virgil, Segoe UI Emoji" font-size="18px" fill="#cdd6f4" text-anchor="middle" style="white-space: pre;" direction="ltr">version=3</text></g><g stroke-opacity="0.85" fill-opacity="0.85" stroke-linecap="round" transform="translate(140.51801755535467 407.98404658605693) rotate(0 254.23323245102935 22)"><path d="M1.46 -0.33 L508.19 0.08 L508.19 42.7 L0.32 43.27" stroke="none" stroke-width="0" fill="#2d6a4f"></path><path d="M-0.33 -0.66 C152.04 0.98, 303.76 0.5, 509 0.39 M0.04 0.12 C167.83 1.01, 335.17 0.83, 508.7 0.32 M507.89 0.92 C508.35 18.01, 506.94 31.91, 506.96 44.2 M508.37 0.3 C508.16 17.01, 508.27 33.41, 508 44.96 M508.27 43.96 C311.85 42.5, 114.75 42.1, -0.26 43.76 M508.28 43.61 C385.64 45.39, 262.7 45.92, -0.21 43.79 M0.63 44.99 C1.31 33.85, -0.34 20.89, 0.16 -0.06 M0.04 44.19 C-0.61 28.17, -1.22 13.24, 0.61 0.79" stroke="#40916c" stroke-width="2" fill="none"></path></g><g transform="translate(290.1433093325559 419.98404658605693) rotate(0 104.60794067382812 10)"><text x="104.60794067382812" y="NaN" font-family="Virgil, Segoe UI Emoji" font-size="16px" fill="#ffffff" text-anchor="middle" style="white-space: pre;" direction="ltr">version -&gt; 4, quantity -&gt; 7</text></g><g stroke-linecap="round"><g transform="translate(390 495) rotate(0 -140 0)"><path d="M0.79 0.28 C-45.92 0.63, -232.18 1.1, -279.11 1.17 M-0.25 -0.62 C-47.15 -0.49, -233.25 -0.22, -279.6 -0.34" stroke="#cdd6f4" stroke-width="2" fill="none"></path></g><g transform="translate(390 495) rotate(0 -140 0)"><path d="M-250.94 -9.12 C-260.78 -7.66, -272.86 -2.04, -278.04 -1.8 M-252.26 -10.1 C-259.18 -8.53, -269.64 -4.96, -280.56 0.01" stroke="#cdd6f4" stroke-width="2" fill="none"></path></g><g transform="translate(390 495) rotate(0 -140 0)"><path d="M-250.95 11.4 C-260.62 4.69, -272.7 2.12, -278.04 -1.8 M-252.26 10.42 C-259.34 5.65, -269.8 2.88, -280.56 0.01" stroke="#cdd6f4" stroke-width="2" fill="none"></path></g></g><g transform="translate(188.42203521728516 483.75) rotate(0 61.577964782714844 11.25)"><text x="61.577964782714844" y="NaN" font-family="Virgil, Segoe UI Emoji" font-size="18px" fill="#cdd6f4" text-anchor="middle" style="white-space: pre;" direction="ltr">1 row updated</text></g><g stroke-linecap="round"><g transform="translate(669.8468185660693 569.8467722316972) rotate(0 -140 0)"><path d="M-1.13 0.51 C-47.8 0.72, -233.88 0.14, -280.26 0.12 M0.47 -0.27 C-46.35 0.25, -234.62 1.97, -281.35 1.72" stroke="#cdd6f4" stroke-width="2" fill="none"></path></g><g transform="translate(669.8468185660693 569.8467722316972) rotate(0 -140 0)"><path d="M-252.34 -9.06 C-260.85 -5.04, -268.18 -4.07, -280.28 0.82 M-252.67 -8.62 C-261.85 -6.35, -270.59 -2.71, -281.41 2" stroke="#cdd6f4" stroke-width="2" fill="none"></path></g><g transform="translate(669.8468185660693 569.8467722316972) rotate(0 -140 0)"><path d="M-252.28 11.46 C-260.61 9.82, -267.96 5.12, -280.28 0.82 M-252.61 11.9 C-261.75 8.03, -270.51 5.52, -281.41 2" stroke="#cdd6f4" stroke-width="2" fill="none"></path></g></g><g transform="translate(456.9920349121094 547.5) rotate(0 73.00796508789062 22.5)"><text x="73.00796508789062" y="NaN" font-family="Virgil, Segoe UI Emoji" font-size="18px" fill="#cdd6f4" text-anchor="middle" style="white-space: pre;" direction="ltr">UPDATE WHERE</text><text x="73.00796508789062" y="NaN" font-family="Virgil, Segoe UI Emoji" font-size="18px" fill="#cdd6f4" text-anchor="middle" style="white-space: pre;" direction="ltr">version=3</text></g><g stroke-linecap="round"><g transform="translate(389.8468185660694 640) rotate(0 140 0)"><path d="M0.5 -0.96 C47.2 -1.14, 233.3 -0.17, 279.72 0.06 M-0.7 1.16 C45.87 1.69, 231.61 2.1, 278.63 1.63" stroke="#cdd6f4" stroke-width="2" fill="none"></path></g><g transform="translate(389.8468185660694 640) rotate(0 140 0)"><path d="M248.88 11.51 C257.73 7.58, 265.61 7.65, 278.55 2.46 M249.79 12.36 C257.29 10.53, 263.7 7.1, 278.81 1.08" stroke="#cdd6f4" stroke-width="2" fill="none"></path></g><g transform="translate(389.8468185660694 640) rotate(0 140 0)"><path d="M248.82 -9.02 C257.89 -7.64, 265.78 -2.27, 278.55 2.46 M249.73 -8.16 C257.31 -5.15, 263.74 -3.74, 278.81 1.08" stroke="#cdd6f4" stroke-width="2" fill="none"></path></g></g><g transform="translate(459.78204345703125 628.75) rotate(0 70.21795654296875 11.25)"><text x="70.21795654296875" y="NaN" font-family="Virgil, Segoe UI Emoji" font-size="18px" fill="#cdd6f4" text-anchor="middle" style="white-space: pre;" direction="ltr">0 rows updated</text></g><g stroke-opacity="0.85" fill-opacity="0.85" stroke-linecap="round" transform="translate(82.62593494707733 682.8578571976083) rotate(0 315.08129702059824 22)"><path d="M0.2 0.96 L628.35 -0.83 L630.38 42.75 L-0.6 44.54" stroke="none" stroke-width="0" fill="#ff8787"></path><path d="M-0.6 -0.27 C141.27 -1.39, 282.71 -2.07, 630.92 -0.59 M0.23 -0.07 C183.72 2.32, 366.98 2.27, 630.27 -0.1 M630.58 1.49 C630.07 10.92, 629.43 25.69, 631.21 42.67 M630.41 -0.68 C630.65 14.81, 629.41 30.09, 630 44.55 M630.71 43.4 C438.85 45.34, 249.64 44.79, -0.76 43.39 M629.91 43.87 C442.03 44.94, 253.84 45.05, -0.2 44.27 M-0.27 42.36 C-1.46 29.46, -1.46 15.98, -0.26 0.29 M-0.57 43.19 C0.91 29.09, -0.19 14.42, 0.39 -0.88" stroke="#fa5252" stroke-width="2" fill="none"></path></g><g transform="translate(275.531313388574 694.8578571976083) rotate(0 122.17591857910156 10)"><text x="122.17591857910156" y="NaN" font-family="Virgil, Segoe UI Emoji" font-size="16px" fill="#ffffff" text-anchor="middle" style="white-space: pre;" direction="ltr">Conflict detected - must retry</text></g><g stroke-linecap="round"><g transform="translate(669.84181445389 774.84181445389) rotate(0 -140 0)"><path d="M0.97 -0.13 C-45.97 -0.28, -233.93 -1.27, -280.7 -1.17 M0.02 -1.24 C-46.61 -1.26, -231.64 -0.18, -278.36 -0.24" stroke="#cdd6f4" stroke-width="2" fill="none"></path></g><g transform="translate(669.84181445389 774.84181445389) rotate(0 -140 0)"><path d="M-250.41 -11.75 C-262.78 -5.91, -270.63 -0.6, -276.42 -1.07 M-251.02 -9.95 C-257.31 -7.23, -263.36 -5.63, -278.72 -0.5" stroke="#cdd6f4" stroke-width="2" fill="none"></path></g><g transform="translate(669.84181445389 774.84181445389) rotate(0 -140 0)"><path d="M-250.36 8.77 C-262.7 6.88, -270.57 4.45, -276.42 -1.07 M-250.96 10.57 C-257.3 8.6, -263.36 5.51, -278.72 -0.5" stroke="#cdd6f4" stroke-width="2" fill="none"></path></g></g><g transform="translate(441.55706787109375 752.5) rotate(0 88.44293212890625 22.5)"><text x="88.44293212890625" y="NaN" font-family="Virgil, Segoe UI Emoji" font-size="18px" fill="#cdd6f4" text-anchor="middle" style="white-space: pre;" direction="ltr">Re-read quantity=7,</text><text x="88.44293212890625" y="NaN" font-family="Virgil, Segoe UI Emoji" font-size="18px" fill="#cdd6f4" text-anchor="middle" style="white-space: pre;" direction="ltr">version=4</text></g><g stroke-linecap="round"><g transform="translate(669.84181445389 864.8419071226342) rotate(0 -140 0)"><path d="M0.6 0.39 C-46.08 0.31, -232.45 -0.03, -279.05 -0.18 M-0.55 -0.46 C-47.39 -0.36, -233.05 1.1, -279.5 1.27" stroke="#cdd6f4" stroke-width="2" fill="none"></path></g><g transform="translate(669.84181445389 864.8419071226342) rotate(0 -140 0)"><path d="M-250.72 -7.57 C-262.45 -3.32, -273.79 -1.44, -278.39 2.2 M-250.95 -9.66 C-259.82 -6.14, -266.89 -2.81, -280.1 0.86" stroke="#cdd6f4" stroke-width="2" fill="none"></path></g><g transform="translate(669.84181445389 864.8419071226342) rotate(0 -140 0)"><path d="M-250.6 12.95 C-262.41 9.32, -273.8 3.32, -278.39 2.2 M-250.83 10.86 C-259.77 8.56, -266.87 6.07, -280.1 0.86" stroke="#cdd6f4" stroke-width="2" fill="none"></path></g></g><g transform="translate(456.9920349121094 842.5) rotate(0 73.00796508789062 22.5)"><text x="73.00796508789062" y="NaN" font-family="Virgil, Segoe UI Emoji" font-size="18px" fill="#cdd6f4" text-anchor="middle" style="white-space: pre;" direction="ltr">UPDATE WHERE</text><text x="73.00796508789062" y="NaN" font-family="Virgil, Segoe UI Emoji" font-size="18px" fill="#cdd6f4" text-anchor="middle" style="white-space: pre;" direction="ltr">version=4</text></g><g stroke-linecap="round"><g transform="translate(390 945) rotate(0 140 0)"><path d="M-1.04 0.41 C45.72 0.58, 233.89 0.97, 280.75 0.84 M0.61 -0.41 C47.26 -0.57, 233.73 -1.04, 280.2 -0.84" stroke="#cdd6f4" stroke-width="2" fill="none"></path></g><g transform="translate(390 945) rotate(0 140 0)"><path d="M252.7 10.67 C262.34 6.63, 269.3 2.19, 281.42 -0.98 M252.2 8.72 C258.68 5.9, 264.02 4.46, 280.38 -0.52" stroke="#cdd6f4" stroke-width="2" fill="none"></path></g><g transform="translate(390 945) rotate(0 140 0)"><path d="M252.71 -9.85 C262.32 -7.4, 269.28 -5.36, 281.42 -0.98 M252.21 -11.81 C258.75 -9.94, 264.09 -6.7, 280.38 -0.52" stroke="#cdd6f4" stroke-width="2" fill="none"></path></g></g><g transform="translate(468.42203521728516 933.75) rotate(0 61.577964782714844 11.25)"><text x="61.577964782714844" y="NaN" font-family="Virgil, Segoe UI Emoji" font-size="18px" fill="#cdd6f4" text-anchor="middle" style="white-space: pre;" direction="ltr">1 row updated</text></g></svg>