<svg version="1.1" xmlns="http://www.w3.org/2000/svg" viewBox="0 0 780.3191822033405 840" width="780.3191822033405" height="840">
  <!-- svg-source:excalidraw -->
  
  <defs>
    <style>
      @font-face {
        font-family: "Virgil";
        src: url("https://excalidraw.com/Virgil.woff2");
      }
      @font-face {
        font-family: "Cascadia";
        src: url("https://excalidraw.com/Cascadia.woff2");
      }
    </style>
  </defs>
  <rect x="0" y="0" width="780.3191822033405" height="840" fill="#0d1117"></rect><g stroke-linecap="round" transform="translate(10.31918220334046 10) rotate(0 100 25)"><path d="M0.74 -0.43 L199.37 0.56 L200.99 48.36 L0.73 51.97" stroke="none" stroke-width="0" fill="#3a1d6e"></path><path d="M-1.05 0.6 C68.18 -0.01, 133.44 1.86, 199.69 1.14 M0.77 0.55 C68.76 -0.16, 137.98 0.98, 200.29 0.71 M201.67 -0.08 C198.65 12.9, 197.89 27.75, 198.81 51.09 M199.3 0.02 C198.86 11.43, 199.67 21.89, 200.29 50.24 M199.34 50.91 C143.59 51.65, 89.15 49.79, 0.36 49.59 M200.23 50.54 C154.1 51.53, 108.09 51.54, 0.51 50.04 M-1.16 51.48 C-0.75 33.97, 0.47 18.88, 0.15 -0.04 M-0.14 49.35 C-1.31 37.56, -0.9 23.02, -0.16 0.3" stroke="#a371f7" stroke-width="2" fill="none"></path></g><g transform="translate(80.42919807248109 22.5) rotate(0 29.889984130859375 12.5)"><text x="29.889984130859375" y="NaN" font-family="Virgil, Segoe UI Emoji" font-size="20px" fill="#ffffff" text-anchor="middle" style="white-space: pre;" direction="ltr">Txn A</text></g><g stroke-linecap="round"><g transform="translate(110.31918220334046 60) rotate(0 0.6234480394281832 359.72177356615884)"><path d="M0.41 -0.28 C0.64 119.41, 0.21 599.05, 0.18 718.83" stroke="#30363d" stroke-width="1.5" fill="none" stroke-dasharray="8 9"></path></g></g><g stroke-linecap="round" transform="translate(10 780) rotate(0 100 25)"><path d="M1.44 -1.71 L198.87 -0.55 L200.47 51.52 L-1.47 51.87" stroke="none" stroke-width="0" fill="#3a1d6e"></path><path d="M-1.09 1.06 C54.42 -1.62, 111.17 -0.57, 198.83 1.54 M-0.73 -0.21 C42.41 -1.76, 83.74 -0.65, 200.02 0.17 M198.46 0.92 C199.54 14.89, 201.04 30.06, 201.12 50.87 M199.4 0.05 C200.06 17.13, 199.33 31.97, 200.17 50.3 M199.05 49.35 C121.48 52.22, 44.29 53.11, -0.56 48.54 M199.58 50.02 C139.41 49.23, 78.15 49.02, -0.46 49.92 M-0.35 51.69 C0.2 37.91, 0.64 27.26, 0.2 -1.57 M-0.98 49.72 C0.09 31.05, -0.09 10.91, -0.01 -0.38" stroke="#a371f7" stroke-width="2" fill="none"></path></g><g transform="translate(80.11001586914062 792.5) rotate(0 29.889984130859375 12.5)"><text x="29.889984130859375" y="NaN" font-family="Virgil, Segoe UI Emoji" font-size="20px" fill="#ffffff" text-anchor="middle" style="white-space: pre;" direction="ltr">Txn A</text></g><g stroke-linecap="round" transform="translate(290.31918220334046 10) rotate(0 100 25)"><path d="M1.63 1.02 L199.41 0.42 L201.91 48.63 L0.88 48.66" stroke="none" stroke-width="0" fill="#3a1d6e"></path><path d="M1.57 -1.37 C68.78 1.93, 134.46 -0.9, 201.15 1.03 M-0.18 -0.43 C60.18 -1.18, 119.03 -2.04, 199.51 -0.46 M199.03 1.81 C201.05 12.19, 200.85 20.08, 198.69 50.21 M199.83 0.83 C200.15 12.52, 200.38 24.5, 200.89 49.03 M200.59 49.57 C137.42 50.4, 75.62 51.08, 0.35 49.8 M200.21 49.43 C158.45 49.25, 119.4 49.24, -0.43 49.87 M1.79 49.19 C-2.04 37.91, -1.25 23.12, 1.32 -0.99 M-0.91 49.36 C-0.36 32.67, 0.54 16.2, -0.89 -0.17" stroke="#a371f7" stroke-width="2" fill="none"></path></g><g transform="translate(317.46922950558655 22.5) rotate(0 72.8499526977539 12.5)"><text x="72.8499526977539" y="NaN" font-family="Virgil, Segoe UI Emoji" font-size="20px" fill="#ffffff" text-anchor="middle" style="white-space: pre;" direction="ltr">Database Row</text></g><g stroke-linecap="round"><g transform="translate(390.31918220334046 60) rotate(0 0 359.18557926119206)"><path d="M-0.67 -0.68 C-0.74 118.86, 0.61 597.93, 0.73 717.74" stroke="#30363d" stroke-width="1.5" fill="none" stroke-dasharray="8 9"></path></g></g><g stroke-linecap="round" transform="translate(290 780) rotate(0 100 25)"><path d="M1.04 1.23 L200.95 0.9 L200.08 48.06 L-1.8 49.06" stroke="none" stroke-width="0" fill="#3a1d6e"></path><path d="M-0.55 0.79 C51.11 0.68, 102.99 1.76, 198.95 1.44 M-0.22 0.32 C44.73 0.99, 87.28 1.94, 200.3 0.44 M201.17 -0.48 C198.38 16.19, 201.34 35.25, 200.07 48.92 M199.13 0.1 C200.32 11.92, 199.96 23, 199.28 50.57 M200.85 49.24 C133.48 51.31, 63.85 49.91, 1.3 51.4 M200.62 50.81 C157.71 49.29, 114.78 49.24, 0.83 49.63 M1.54 48.88 C1.05 39.08, -0.44 28.16, 0.43 1.61 M-0.68 50.57 C0.43 37.55, -0.36 25.13, 0.19 -0.74" stroke="#a371f7" stroke-width="2" fill="none"></path></g><g transform="translate(317.1500473022461 792.5) rotate(0 72.8499526977539 12.5)"><text x="72.8499526977539" y="NaN" font-family="Virgil, Segoe UI Emoji" font-size="20px" fill="#ffffff" text-anchor="middle" style="white-space: pre;" direction="ltr">Database Row</text></g><g stroke-linecap="round" transform="translate(570.3191822033405 10) rotate(0 100 25)"><path d="M-1.61 -0.62 L199.81 -0.72 L201.91 51.11 L-1.07 49.48" stroke="none" stroke-width="0" fill="#3a1d6e"></path><path d="M-1.06 0.06 C65.16 -2.44, 126.41 -3.01, 201.68 -0.68 M0.66 0.45 C41.67 2.52, 84.47 1.24, 200.66 0.54 M200.51 -1.38 C197.9 18.16, 200.3 33.61, 199.67 51.76 M199.72 -0.39 C201.17 10.39, 200.48 22.02, 199.03 49.76 M199.07 50.66 C155.4 51.2, 113.35 49.53, -0.02 50.28 M199.93 50.47 C126.31 50.3, 54.45 50.45, 0.14 50.05 M0.2 48.28 C0.31 33.33, 1.87 13.39, 1.41 -1.5 M0.41 49.43 C1.16 32.59, 0.25 15.59, -0.91 -0.9" stroke="#a371f7" stroke-width="2" fill="none"></path></g><g transform="translate(639.7191989880084 22.5) rotate(0 30.59998321533203 12.5)"><text x="30.59998321533203" y="NaN" font-family="Virgil, Segoe UI Emoji" font-size="20px" fill="#ffffff" text-anchor="middle" style="white-space: pre;" direction="ltr">Txn B</text></g><g stroke-linecap="round"><g transform="translate(670.3191822033405 60) rotate(0 1.0549004552237875 359.3776216445965)"><path d="M-0.02 0.62 C0.48 120.5, 2.36 598.75, 2.57 718.56" stroke="#30363d" stroke-width="1.5" fill="none" stroke-dasharray="8 9"></path></g></g><g stroke-linecap="round" transform="translate(570 780) rotate(0 100 25)"><path d="M-0.74 0.37 L200.2 1.69 L200.64 49.1 L1.93 50.67" stroke="none" stroke-width="0" fill="#3a1d6e"></path><path d="M-0.42 1.39 C65.66 -1.36, 128.97 -1.49, 201.3 -0.17 M0.44 -0.46 C52.93 1.11, 104.49 0.13, 199.21 -0.14 M199.13 0.13 C202.07 12.5, 200.14 23.49, 200.29 48.55 M199.71 0.34 C200.9 12.48, 200.34 25.19, 200.58 50.56 M201.51 50.75 C121.17 48.75, 42.32 49.08, 1.48 50.21 M200.22 50.26 C123.83 51.6, 48.45 50.42, -0.29 49.63 M0.05 51.03 C-0.28 37.06, 0.08 25.36, -0.38 0.62 M0.84 49.79 C-1.06 34.31, 0.76 18.84, 0.67 -0.42" stroke="#a371f7" stroke-width="2" fill="none"></path></g><g transform="translate(639.400016784668 792.5) rotate(0 30.59998321533203 12.5)"><text x="30.59998321533203" y="NaN" font-family="Virgil, Segoe UI Emoji" font-size="20px" fill="#ffffff" text-anchor="middle" style="white-space: pre;" direction="ltr">Txn B</text></g><g stroke-linecap="round"><g transform="translate(110.16459439726907 115) rotate(0 140 0)"><path d="M1.02 0.77 C47.72 0.8, 234.23 0.78, 280.63 0.49 M0.1 0.12 C46.66 -0.23, 233.63 -1.33, 280.02 -1.37" stroke="#2f9e44" stroke-width="2" fill="none"></path></g><g transform="translate(110.16459439726907 115) rotate(0 140 0)"><path d="M253.14 10.05 C262.17 4.33, 269.28 0.88, 280.53 0.41 M251.16 8.84 C262.21 5.65, 272.88 1.02, 280.66 -1.76" stroke="#2f9e44" stroke-width="2" fill="none"></path></g><g transform="translate(110.16459439726907 115) rotate(0 140 0)"><path d="M253.06 -10.47 C262.16 -9.26, 269.3 -5.78, 280.53 0.41 M251.08 -11.68 C262.27 -7.22, 272.97 -4.2, 280.66 -1.76" stroke="#2f9e44" stroke-width="2" fill="none"></path></g></g><g transform="translate(191.9902103405475 92.5) rotate(0 58.32897186279297 22.5)"><text x="58.32897186279297" y="NaN" font-family="Virgil, Segoe UI Emoji" font-size="18px" fill="#2f9e44" text-anchor="middle" style="white-space: pre;" direction="ltr">SELECT FOR</text><text x="58.32897186279297" y="NaN" font-family="Virgil, Segoe UI Emoji" font-size="18px" fill="#2f9e44" text-anchor="middle" style="white-space: pre;" direction="ltr">UPDATE</text></g><g stroke-opacity="0.85" fill-opacity="0.85" stroke-linecap="round" transform="translate(290.71918220334044 158) rotate(0 99.60000000000002 22)"><path d="M1.06 -1.75 L199.84 -0.86 L197.96 43.33 L0.21 44.83" stroke="none" stroke-width="0" fill="#1f4d2b"></path><path d="M-0.34 -0.9 C53.73 -0.02, 106.4 -0.39, 200.72 -1.16 M-0.65 -0.08 C64.63 0.51, 131.56 -0.28, 198.34 0.14 M200.97 -0.32 C199.62 10.08, 199.57 20.12, 197.92 45.84 M198.57 0.81 C200.48 14.82, 199.99 31.15, 198.82 44.17 M201.1 45.94 C149.45 45.17, 101.76 44.78, -0.26 43.4 M198.68 44.45 C148.2 45.5, 95.21 44.06, 0.93 43.38 M-1.83 44.81 C-0.22 25.5, -1.69 10.38, -0.03 0.62 M0.52 43.32 C-0.09 28.32, -0.56 14.56, -0.3 -0.74" stroke="#3fb950" stroke-width="2" fill="none"></path></g><g transform="translate(310.91922645382874 170) rotate(0 79.39995574951172 10)"><text x="79.39995574951172" y="NaN" font-family="Virgil, Segoe UI Emoji" font-size="16px" fill="#ffffff" text-anchor="middle" style="white-space: pre;" direction="ltr">X lock granted to A</text></g><g stroke-linecap="round"><g transform="translate(670.3191822033405 240) rotate(0 -140 0)"><path d="M0.08 -0.11 C-46.6 -0.15, -232.46 -0.2, -279.11 -0.37 M-1.34 -1.21 C-48.19 -1.08, -233.07 0.84, -279.58 0.97" stroke="#f08c00" stroke-width="2" fill="none"></path></g><g transform="translate(670.3191822033405 240) rotate(0 -140 0)"><path d="M-251.65 -7.99 C-262.79 -5.11, -274.8 0.09, -279.72 0.52 M-250.59 -8.56 C-260 -4.8, -270.95 -1.62, -279.7 0.6" stroke="#f08c00" stroke-width="2" fill="none"></path></g><g transform="translate(670.3191822033405 240) rotate(0 -140 0)"><path d="M-251.51 12.53 C-262.69 7.6, -274.74 4.99, -279.72 0.52 M-250.45 11.96 C-259.86 8.92, -270.87 5.3, -279.7 0.6" stroke="#f08c00" stroke-width="2" fill="none"></path></g></g><g transform="translate(471.9902103405475 217.5) rotate(0 58.32897186279297 22.5)"><text x="58.32897186279297" y="NaN" font-family="Virgil, Segoe UI Emoji" font-size="18px" fill="#f08c00" text-anchor="middle" style="white-space: pre;" direction="ltr">SELECT FOR</text><text x="58.32897186279297" y="NaN" font-family="Virgil, Segoe UI Emoji" font-size="18px" fill="#f08c00" text-anchor="middle" style="white-space: pre;" direction="ltr">UPDATE</text></g><g stroke-opacity="0.85" fill-opacity="0.85" stroke-linecap="round" transform="translate(290.8737700094117 273) rotate(0 99.60000000000002 22)"><path d="M0.04 -1.79 L199.62 -1.47 L197.73 44.12 L1.64 45.44" stroke="none" stroke-width="0" fill="#1f4d2b"></path><path d="M-0.38 1.92 C57.86 0.12, 120.08 0.11, 197.58 1.92 M-0.6 -0.77 C69.64 0.57, 138.98 0.83, 200.02 0.65 M197.44 0.16 C199.08 12.28, 198.08 24.81, 200.04 43.09 M199.19 -0.72 C199.28 8.91, 198.46 17.25, 199.04 44.44 M198.76 42.22 C143.64 41.06, 90.63 40.81, -0.63 44.06 M199.18 44.41 C155.71 42.94, 114.36 41.3, -0.5 44.42 M1.31 42.63 C0.16 32.27, 1.36 17.74, -1.15 1.66 M-0.56 44.82 C0.03 28.52, 0.93 13.88, -0.28 0.7" stroke="#3fb950" stroke-width="2" fill="none"></path></g><g transform="translate(315.9538191427125 285) rotate(0 74.51995086669922 10)"><text x="74.51995086669922" y="NaN" font-family="Virgil, Segoe UI Emoji" font-size="16px" fill="#ffffff" text-anchor="middle" style="white-space: pre;" direction="ltr">B blocked - waiting</text></g><g stroke-linecap="round"><g transform="translate(110.00991307165373 365.1496312702445) rotate(0 140 0)"><path d="M-0.74 -0.51 C45.7 -0.69, 232.73 -0.77, 279.49 -0.75 M1.08 -1.83 C47.23 -1.89, 231.96 -0.03, 278.27 0.39" stroke="#2f9e44" stroke-width="2" fill="none"></path></g><g transform="translate(110.00991307165373 365.1496312702445) rotate(0 140 0)"><path d="M249.13 9.53 C259.25 6.51, 270.38 4.19, 278.76 -0.17 M249.46 10.58 C260.13 7.36, 271.82 2.09, 277.72 0.87" stroke="#2f9e44" stroke-width="2" fill="none"></path></g><g transform="translate(110.00991307165373 365.1496312702445) rotate(0 140 0)"><path d="M249.33 -10.99 C259.42 -6.37, 270.47 -1.05, 278.76 -0.17 M249.65 -9.94 C260.05 -5.49, 271.67 -3.09, 277.72 0.87" stroke="#2f9e44" stroke-width="2" fill="none"></path></g></g><g transform="translate(160.57123451046937 342.5) rotate(0 89.7479476928711 22.5)"><text x="89.7479476928711" y="NaN" font-family="Virgil, Segoe UI Emoji" font-size="18px" fill="#2f9e44" text-anchor="middle" style="white-space: pre;" direction="ltr">UPDATE quantity =</text><text x="89.7479476928711" y="NaN" font-family="Virgil, Segoe UI Emoji" font-size="18px" fill="#2f9e44" text-anchor="middle" style="white-space: pre;" direction="ltr">7</text></g><g stroke-linecap="round"><g transform="translate(110.31918220334046 435) rotate(0 140 0)"><path d="M1.14 -0.97 C47.87 -0.87, 234.21 0.34, 280.68 0.47 M0.28 1.14 C46.88 0.89, 233.6 -1.39, 280.09 -1.4" stroke="#2f9e44" stroke-width="2" fill="none"></path></g><g transform="translate(110.31918220334046 435) rotate(0 140 0)"><path d="M250.36 10.19 C261.92 5.34, 270 0.56, 281.68 -0.02 M252.27 9.89 C260.85 5.23, 270.71 2.34, 279.15 -0.72" stroke="#2f9e44" stroke-width="2" fill="none"></path></g><g transform="translate(110.31918220334046 435) rotate(0 140 0)"><path d="M250.21 -10.34 C261.8 -8.5, 269.93 -6.6, 281.68 -0.02 M252.13 -10.63 C260.62 -8.33, 270.53 -4.25, 279.15 -0.72" stroke="#2f9e44" stroke-width="2" fill="none"></path></g></g><g transform="translate(212.06019477658265 423.75) rotate(0 38.25898742675781 11.25)"><text x="38.25898742675781" y="NaN" font-family="Virgil, Segoe UI Emoji" font-size="18px" fill="#2f9e44" text-anchor="middle" style="white-space: pre;" direction="ltr">COMMIT</text></g><g stroke-opacity="0.85" fill-opacity="0.85" stroke-linecap="round" transform="translate(316.9595443418984 472.8403621385579) rotate(0 73.20000000000002 22)"><path d="M-0.67 -0.63 L145.48 1.5 L146.56 44.9 L0.53 45.62" stroke="none" stroke-width="0" fill="#1f4d2b"></path><path d="M0 0.43 C57.03 -1.28, 111.89 1.33, 146.25 1.36 M0.99 0.95 C56.31 1.15, 113.27 0.89, 146.23 0.12 M148.35 0.24 C148.15 12.13, 146.91 26.55, 144.95 45.13 M146.53 0.46 C145.58 11.31, 146.86 23.38, 146.99 43.68 M147.52 45.78 C113.05 43.78, 80.56 41.22, 0.58 45.89 M146.43 44.2 C101.01 45.25, 53.56 44.91, 0.78 43.88 M1.33 42.13 C-0.07 33.66, -1.29 20.88, -0.94 -0.68 M0.17 44.73 C0.14 33.63, 0.6 24.73, -0.46 0.7" stroke="#3fb950" stroke-width="2" fill="none"></path></g><g transform="translate(336.11957394394915 484.8403621385579) rotate(0 54.03997039794922 10)"><text x="54.03997039794922" y="NaN" font-family="Virgil, Segoe UI Emoji" font-size="16px" fill="#ffffff" text-anchor="middle" style="white-space: pre;" direction="ltr">Lock released</text></g><g stroke-linecap="round"><g transform="translate(390 550) rotate(0 140 0)"><path d="M-0.31 0.49 C46.17 0.21, 232.62 -0.79, 279.17 -0.79 M1.72 -0.29 C48.56 -0.52, 234.85 0.55, 281.44 0.33" stroke="#f08c00" stroke-width="2" fill="none"></path></g><g transform="translate(390 550) rotate(0 140 0)"><path d="M254.06 9.17 C260.97 5.58, 272.2 5.82, 280.35 -1.06 M253.27 9.86 C263.84 6.65, 275.92 2.53, 281.31 0.14" stroke="#f08c00" stroke-width="2" fill="none"></path></g><g transform="translate(390 550) rotate(0 140 0)"><path d="M254.08 -11.35 C261.13 -8.31, 272.36 -1.43, 280.35 -1.06 M253.29 -10.66 C263.73 -5.76, 275.8 -1.78, 281.31 0.14" stroke="#f08c00" stroke-width="2" fill="none"></path></g></g><g transform="translate(441.9752414684772 538.75) rotate(0 88.34394073486328 11.25)"><text x="88.34394073486328" y="NaN" font-family="Virgil, Segoe UI Emoji" font-size="18px" fill="#f08c00" text-anchor="middle" style="white-space: pre;" direction="ltr">Unblocked - reads 7</text></g><g stroke-linecap="round"><g transform="translate(670 630) rotate(0 -140 0)"><path d="M-0.77 -0.86 C-47.25 -0.7, -232.42 -0.14, -279.16 0.03 M1.02 1.31 C-45.51 1.75, -233.01 1.54, -279.66 1.58" stroke="#f08c00" stroke-width="2" fill="none"></path></g><g transform="translate(670 630) rotate(0 -140 0)"><path d="M-252.9 -7.27 C-259.28 -7.97, -266.81 -3.18, -281.31 0.55 M-252.04 -9.11 C-257.86 -7.33, -264.8 -3.35, -278.77 1.04" stroke="#f08c00" stroke-width="2" fill="none"></path></g><g transform="translate(670 630) rotate(0 -140 0)"><path d="M-252.9 13.25 C-259.13 6.88, -266.66 6.01, -281.31 0.55 M-252.04 11.41 C-257.9 8.62, -264.84 8.02, -278.77 1.04" stroke="#f08c00" stroke-width="2" fill="none"></path></g></g><g transform="translate(440.57123451046937 607.5) rotate(0 89.7479476928711 22.5)"><text x="89.7479476928711" y="NaN" font-family="Virgil, Segoe UI Emoji" font-size="18px" fill="#f08c00" text-anchor="middle" style="white-space: pre;" direction="ltr">UPDATE quantity =</text><text x="89.7479476928711" y="NaN" font-family="Virgil, Segoe UI Emoji" font-size="18px" fill="#f08c00" text-anchor="middle" style="white-space: pre;" direction="ltr">2</text></g><g stroke-linecap="round"><g transform="translate(670 710) rotate(0 -140 0)"><path d="M-0.13 -1.19 C-46.79 -1.18, -232.74 0.5, -279.47 0.87 M-1.65 0.79 C-48.47 0.41, -233.5 -0.54, -280.14 -0.8" stroke="#f08c00" stroke-width="2" fill="none"></path></g><g transform="translate(670 710) rotate(0 -140 0)"><path d="M-253.88 -10.02 C-260.07 -8.23, -269.46 -2.03, -281.06 -2.73 M-250.99 -10.47 C-262.9 -6.87, -273.61 -3.74, -279.78 -1.06" stroke="#f08c00" stroke-width="2" fill="none"></path></g><g transform="translate(670 710) rotate(0 -140 0)"><path d="M-253.99 10.5 C-260.27 5.24, -269.63 4.41, -281.06 -2.73 M-251.09 10.05 C-262.98 5.56, -273.64 0.6, -279.78 -1.06" stroke="#f08c00" stroke-width="2" fill="none"></path></g></g><g transform="translate(492.06019477658265 698.75) rotate(0 38.25898742675781 11.25)"><text x="38.25898742675781" y="NaN" font-family="Virgil, Segoe UI Emoji" font-size="18px" fill="#f08c00" text-anchor="middle" style="white-space: pre;" direction="ltr">COMMIT</text></g></svg>