<svg version="1.1" xmlns="http://www.w3.org/2000/svg" viewBox="0 0 849.5612851454757 621.042341345549" width="849.5612851454757" height="621.042341345549">
  <!-- svg-source:excalidraw -->
  
  <defs>
    <style>
      @font-face {
        font-family: "Virgil";
        src: url("https://excalidraw.com/Virgil.woff2");
      }
      @font-face {
        font-family: "Cascadia";
        src: url("https://excalidraw.com/Cascadia.woff2");
      }
    </style>
  </defs>
  <rect x="0" y="0" width="849.5612851454757" height="621.042341345549" fill="#0d1117"></rect><g stroke-opacity="0.6" fill-opacity="0.6" stroke-linecap="round" transform="translate(10 149.56911499287776) rotate(0 150 121.5)"><path d="M-1.89 1.65 L300.37 -1.85 L300.89 242.14 L0.87 243.37" stroke="none" stroke-width="0" fill="#161b22"></path><path d="M-1.38 0.29 C120 2.35, 237.67 2.81, 298.69 -1.01 M298.37 0.35 C301.48 63.49, 298.94 125.84, 299.93 244.61 M299.56 243.29 C192.73 241.78, 87.09 242.08, 0.07 244.26 M0.47 243.92 C3.12 182.6, 0.05 123.83, -0.62 0.87" stroke="#30363d" stroke-width="2.5" fill="none" stroke-dasharray="8 10"></path></g><g transform="translate(26 159.56911499287776) rotate(0 29.231971740722656 11.25)"><text x="0" y="NaN" font-family="Virgil, Segoe UI Emoji" font-size="18px" fill="#8b949e" text-anchor="start" style="white-space: pre;" direction="ltr">Clients</text></g><g stroke-opacity="0.6" fill-opacity="0.6" stroke-linecap="round" transform="translate(476.33583646240936 10) rotate(0 181.6127243415332 264.5)"><path d="M0.01 1.8 L364.13 -0.68 L364.96 529.87 L-1.1 529.68" stroke="none" stroke-width="0" fill="#161b22"></path><path d="M-0.66 0.79 C85.05 -0.2, 169.53 -1.74, 364.07 -0.01 M363.64 -0.53 C364.78 203.39, 363.54 407.75, 362.98 529.38 M364.1 527.98 C225.95 527.73, 87.52 528.3, 0.69 529.41 M-0.14 528.79 C0.07 394.51, -0.7 261.03, 0.41 0.31" stroke="#30363d" stroke-width="2.5" fill="none" stroke-dasharray="8 10"></path></g><g transform="translate(492.33583646240936 20) rotate(0 59.54395294189453 11.25)"><text x="0" y="NaN" font-family="Virgil, Segoe UI Emoji" font-size="18px" fill="#8b949e" text-anchor="start" style="white-space: pre;" direction="ltr">Redis Cluster</text></g><g stroke-linecap="round" transform="translate(70 228.74452691489864) rotate(0 90 61.06859848806107)"><path d="M1.01 1.07 L178.29 -0.81 L180.01 121.02 L1.96 122.46" stroke="none" stroke-width="0" fill="#1f4d2b"></path><path d="M0.54 -0.03 C39.9 -0.86, 80.67 -1.02, 180.44 -0.64 M0.17 0.69 C55.77 -0.86, 110.1 -0.82, 180.94 -0.45 M178.64 -0.62 C179.32 33.69, 177.47 66.06, 181.15 122.21 M179.19 -0.41 C180.36 30.5, 180.67 62.59, 179.51 121.85 M180.99 123.06 C118.02 121.37, 59.32 123.03, 1.41 120.21 M179.67 122.59 C110.84 123.92, 38.83 124.05, -0.38 121.51 M-0.23 121 C-0.27 89.05, -0.55 56.84, 0.84 -0.73 M-0.97 121.24 C0.25 83.58, 0.17 46.26, 0.35 0.69" stroke="#3fb950" stroke-width="2" fill="none"></path></g><g transform="translate(132.9500274658203 277.3131254029597) rotate(0 27.049972534179688 12.5)"><text x="27.049972534179688" y="NaN" font-family="Virgil, Segoe UI Emoji" font-size="20px" fill="#fff" text-anchor="middle" style="white-space: pre;" direction="ltr">Client</text></g><g stroke-linecap="round" transform="translate(566.6373737219429 119.90682313303068) rotate(0 117.64898230349078 36.5)"><path d="M1.36 -1.78 L234.57 0.94 L236.08 73.96 L-1.67 72.71" stroke="none" stroke-width="0" fill="#3a1d6e"></path><path d="M-0.63 1.03 C60.96 -1.31, 123.69 -0.89, 235.2 -0.88 M0.24 0.67 C60.04 0.61, 120.08 0.28, 234.99 0.38 M233.67 -1.64 C235.32 17.6, 237.22 38.03, 233.56 74.54 M234.78 0.15 C235.56 17.49, 236.18 32.92, 235.94 72.56 M236.34 71.44 C176.29 75.76, 117.89 75.86, 1.16 73.84 M235.85 72.29 C171.46 72.41, 107.75 72.5, -0.32 72.62 M0.53 72.2 C1.08 48.39, 0.33 21.9, 1.46 -1.96 M-0.77 72.84 C-0.13 52.37, 0.05 31.92, 0.19 0.47" stroke="#a371f7" stroke-width="2" fill="none"></path></g><g transform="translate(617.1064167554141 131.40682313303068) rotate(0 67.17993927001953 25)"><text x="67.17993927001953" y="NaN" font-family="Virgil, Segoe UI Emoji" font-size="20px" fill="#fff" text-anchor="middle" style="white-space: pre;" direction="ltr">Node A</text><text x="67.17993927001953" y="NaN" font-family="Virgil, Segoe UI Emoji" font-size="20px" fill="#fff" text-anchor="middle" style="white-space: pre;" direction="ltr">Slots 0-5460</text></g><g stroke-linecap="round" transform="translate(573.595179962035 263.1022008975637) rotate(0 113.43183703866319 36.5)"><path d="M0.62 -0.39 L225.76 0.76 L228.72 71.88 L-0.9 72.38" stroke="none" stroke-width="0" fill="#3a1d6e"></path><path d="M-0.9 1.58 C65.63 -1, 135.14 -0.14, 226.29 1.02 M-0.81 -0.76 C56.32 1.37, 110.93 1.02, 226.26 -0.19 M226.67 -0.08 C228.38 19.52, 228.59 40.49, 227.2 73.51 M227.73 -0.61 C227.55 19.34, 226.51 39.75, 227.42 72.18 M227.09 71.86 C160.6 71.47, 93.96 70.06, 1.12 72.79 M226.65 72.61 C141.42 73.86, 56.12 72.71, -0.4 72.83 M0.35 71.98 C-1.97 53.04, -1.72 36.5, 0.8 0.05 M0.22 72.86 C-0.51 57.73, 1.07 42.87, 0.62 0.72" stroke="#a371f7" stroke-width="2" fill="none"></path></g><g transform="translate(600.9770902428857 274.6022008975637) rotate(0 86.04992675781253 25)"><text x="86.0499267578125" y="NaN" font-family="Virgil, Segoe UI Emoji" font-size="20px" fill="#fff" text-anchor="middle" style="white-space: pre;" direction="ltr">Node B</text><text x="86.0499267578125" y="NaN" font-family="Virgil, Segoe UI Emoji" font-size="20px" fill="#fff" text-anchor="middle" style="white-space: pre;" direction="ltr">Slots 5461-10922</text></g><g stroke-linecap="round" transform="translate(577.4513775868872 406) rotate(0 113.48732429018094 36.5)"><path d="M1.55 -2 L228.72 -0.29 L226.43 74.84 L-1.86 71.39" stroke="none" stroke-width="0" fill="#3a1d6e"></path><path d="M-0.38 0.22 C82.18 -2.03, 164.66 -1.27, 225.7 0.97 M-0.18 -0.6 C66.55 -1.88, 135.17 -1.44, 227.71 -0.17 M226.23 -1.43 C226.65 16.69, 226.74 35.71, 228.38 73.37 M226.38 0.24 C227.27 15.15, 226.92 30.12, 226.92 73.06 M228.38 73.19 C169.81 72.9, 109.61 74.17, 1.42 74.64 M227.03 73.57 C166.4 72.52, 107.23 72.76, -0.41 73.76 M-0.94 72.02 C-0.3 43.74, -2.35 13.33, 1.89 -1.62 M0.95 72.34 C-0.33 57.73, -0.36 42.64, -0.04 0.82" stroke="#a371f7" stroke-width="2" fill="none"></path></g><g transform="translate(596.5087702364431 417.5) rotate(0 94.429931640625 25)"><text x="94.429931640625" y="NaN" font-family="Virgil, Segoe UI Emoji" font-size="20px" fill="#fff" text-anchor="middle" style="white-space: pre;" direction="ltr">Node C</text><text x="94.429931640625" y="NaN" font-family="Virgil, Segoe UI Emoji" font-size="20px" fill="#fff" text-anchor="middle" style="white-space: pre;" direction="ltr">Slots 10923-16383</text></g><g stroke-linecap="round"><g transform="translate(251.27765278024884 238.3194904761935) rotate(0 154.67986047084702 -41.97622700295673)"><path d="M0.9 -0.55 C25.23 -14.38, 94.11 -69.05, 145.58 -82.95 C197.05 -96.84, 282.39 -83.67, 309.73 -83.91 M-0.08 1.78 C24.11 -12.4, 93.1 -70.66, 144.64 -84.72 C196.18 -98.78, 281.6 -82.77, 309.16 -82.58" stroke="#58a6ff" stroke-width="2" fill="none"></path></g><g transform="translate(251.27765278024884 238.3194904761935) rotate(0 154.67986047084702 -41.97622700295673)"><path d="M279.3 -74.71 C289.13 -76.44, 295.92 -78.74, 308.4 -84.47 M279.85 -73.94 C285.12 -76.18, 291.74 -77.93, 308.35 -82.91" stroke="#58a6ff" stroke-width="2" fill="none"></path></g><g transform="translate(251.27765278024884 238.3194904761935) rotate(0 154.67986047084702 -41.97622700295673)"><path d="M281.03 -95.16 C290.4 -91.35, 296.72 -88.12, 308.4 -84.47 M281.58 -94.38 C286.68 -92.42, 292.94 -89.98, 308.35 -82.91" stroke="#58a6ff" stroke-width="2" fill="none"></path></g></g><g transform="translate(358.4595291782711 147.76367649032113) rotate(0 58.04096221923828 22.5)"><text x="58.04096221923828" y="NaN" font-family="Virgil, Segoe UI Emoji" font-size="18px" fill="#c9d1d9" text-anchor="middle" style="white-space: pre;" direction="ltr">GET user:42</text><text x="58.04096221923828" y="NaN" font-family="Virgil, Segoe UI Emoji" font-size="18px" fill="#c9d1d9" text-anchor="middle" style="white-space: pre;" direction="ltr">(slot 9831)</text></g><g stroke-linecap="round"><g transform="translate(569.4385810918561 194.67665138612335) rotate(359.6640482504177 -156.71929054592803 40.45733352363092)"><path d="M-1.08 -0.3 C-27.02 6.53, -103.18 27.27, -155.35 40.81 C-207.52 54.34, -287.66 74.21, -314.1 80.91 M0.55 -1.51 C-25.5 5.52, -103.26 28.2, -155.89 42.15 C-208.52 56.11, -288.86 75.55, -315.22 82.22" stroke="#f85149" stroke-width="2" fill="none"></path></g><g transform="translate(569.4385810918561 194.67665138612335) rotate(359.6640482504177 -156.71929054592803 40.45733352363092)"><path d="M-290.83 66.77 C-298.99 69.54, -306.44 75.14, -315.07 80.23 M-289.77 66.2 C-299.47 72.11, -307.67 77.86, -316.11 81.23" stroke="#f85149" stroke-width="2" fill="none"></path></g><g transform="translate(569.4385810918561 194.67665138612335) rotate(359.6640482504177 -156.71929054592803 40.45733352363092)"><path d="M-285.89 86.69 C-295.61 82.99, -304.65 82.16, -315.07 80.23 M-284.83 86.12 C-296.14 85.07, -306.06 83.88, -316.11 81.23" stroke="#f85149" stroke-width="2" fill="none"></path></g></g><g transform="translate(376.78977745092317 220.7045513944251) rotate(0 61.10096740722656 22.5)"><text x="61.10096740722656" y="NaN" font-family="Virgil, Segoe UI Emoji" font-size="18px" fill="#c9d1d9" text-anchor="middle" style="white-space: pre;" direction="ltr">MOVED 9831 </text><text x="61.10096740722656" y="NaN" font-family="Virgil, Segoe UI Emoji" font-size="18px" fill="#c9d1d9" text-anchor="middle" style="white-space: pre;" direction="ltr">Node B</text></g><g stroke-linecap="round"><g transform="translate(256 299.80402103738066) rotate(0 155.7975899810175 3.450534456624041)"><path d="M-0.02 -1.09 C24.4 -0.25, 94.08 5.64, 146.14 5.94 C198.2 6.24, 284.72 1.52, 312.33 0.7 M-1.49 0.95 C22.89 1.84, 93.48 6.89, 145.72 6.97 C197.96 7.04, 284.21 2.29, 311.95 1.4" stroke="#58a6ff" stroke-width="2" fill="none"></path></g><g transform="translate(256 299.80402103738066) rotate(0 155.7975899810175 3.450534456624041)"><path d="M282.4 14.53 C289.96 11, 297.05 7.08, 310.48 -0.27 M283.54 13.7 C292.56 9.2, 298.6 6.91, 311.29 2.09" stroke="#58a6ff" stroke-width="2" fill="none"></path></g><g transform="translate(256 299.80402103738066) rotate(0 155.7975899810175 3.450534456624041)"><path d="M281.54 -5.98 C289.48 -4, 296.8 -2.43, 310.48 -0.27 M282.68 -6.81 C291.74 -5.74, 298.01 -2.45, 311.29 2.09" stroke="#58a6ff" stroke-width="2" fill="none"></path></g></g><g transform="translate(191.29838138837732 588.542341345549) rotate(0 58.04096221923829 11.25)"><text x="58.04096221923828" y="NaN" font-family="Virgil, Segoe UI Emoji" font-size="18px" fill="#c9d1d9" text-anchor="middle" style="white-space: pre;" direction="ltr">GET user:42</text></g><g stroke-linecap="round"><g transform="translate(572.5479379544381 334.2588206004583) rotate(0 -158.67589468694285 22.39639783282655)"><path d="M-0.03 -0.01 C-27.11 8.21, -109.7 49.49, -162.42 48.89 C-215.14 48.29, -290.35 5.42, -316.35 -3.6 M-1.5 -1.06 C-28.22 7.38, -107.64 51.11, -160.15 50.35 C-212.67 49.59, -290.16 3.56, -316.6 -5.61" stroke="#3fb950" stroke-width="2" fill="none"></path></g><g transform="translate(572.5479379544381 334.2588206004583) rotate(0 -158.67589468694285 22.39639783282655)"><path d="M-286.69 -4.82 C-296.18 -2.42, -304.1 -6.58, -318.27 -4.07 M-286.4 -3.52 C-298.82 -3.72, -309.43 -4.98, -317.25 -5.82" stroke="#3fb950" stroke-width="2" fill="none"></path></g><g transform="translate(572.5479379544381 334.2588206004583) rotate(0 -158.67589468694285 22.39639783282655)"><path d="M-295.12 13.89 C-301.94 10.5, -307.25 0.56, -318.27 -4.07 M-294.82 15.19 C-304.08 7.9, -311.48 -0.5, -317.25 -5.82" stroke="#3fb950" stroke-width="2" fill="none"></path></g></g><g transform="translate(226.22735935468592 588.542341345549) rotate(0 23.111984252929688 11.25)"><text x="23.111984252929688" y="NaN" font-family="Virgil, Segoe UI Emoji" font-size="18px" fill="#c9d1d9" text-anchor="middle" style="white-space: pre;" direction="ltr">value</text></g></svg>