<svg version="1.1" xmlns="http://www.w3.org/2000/svg" viewBox="0 0 839.5443575395603 860" width="839.5443575395603" height="860">
  <!-- svg-source:excalidraw -->
  
  <defs>
    <style>
      @font-face {
        font-family: "Virgil";
        src: url("https://excalidraw.com/Virgil.woff2");
      }
      @font-face {
        font-family: "Cascadia";
        src: url("https://excalidraw.com/Cascadia.woff2");
      }
    </style>
  </defs>
  <rect x="0" y="0" width="839.5443575395603" height="860" fill="#0d1117"></rect><g stroke-linecap="round" transform="translate(10 10) rotate(0 100 25)"><path d="M1.08 1.75 L198.5 0.88 L201.28 49.84 L1.96 50.44" stroke="none" stroke-width="0" fill="#3a1d6e"></path><path d="M0.92 0.6 C41.77 2.43, 79.08 2.9, 198.85 -0.43 M0.68 -0.6 C55.71 1.6, 113.07 0.96, 199.57 -0.87 M199.61 0.33 C200.55 17.92, 200.52 37.59, 198.84 51.49 M200.6 -0.33 C200.17 17.84, 199.52 37.62, 200.69 50.89 M200.68 50.16 C128.34 49.06, 54.61 49.29, 0.36 50.01 M199.96 50.75 C150.23 48.64, 100.49 48.06, -0.08 50.54 M-0.02 49.63 C-0.42 37.66, 1.96 24.24, -0.87 -0.44 M0.84 49.05 C0.17 35.47, -0.43 21.3, -0.04 0.97" stroke="#a371f7" stroke-width="2" fill="none"></path></g><g transform="translate(82.95002746582031 22.5) rotate(0 27.049972534179688 12.5)"><text x="27.049972534179688" y="NaN" font-family="Virgil, Segoe UI Emoji" font-size="20px" fill="#ffffff" text-anchor="middle" style="white-space: pre;" direction="ltr">Client</text></g><g stroke-linecap="round"><g transform="translate(110 60) rotate(0 0 370)"><path d="M-0.39 -0.94 C-0.33 122.43, 0.55 616.24, 0.53 739.93" stroke="#30363d" stroke-width="1.5" fill="none" stroke-dasharray="8 9"></path></g></g><g stroke-linecap="round" transform="translate(10 800) rotate(0 100 25)"><path d="M-0.24 0.77 L200.51 -0.98 L200.95 49.27 L-1.45 49.33" stroke="none" stroke-width="0" fill="#3a1d6e"></path><path d="M0.88 0.42 C44.28 1.03, 90.19 1.6, 200.55 1.37 M-0.32 0.66 C45.74 -1.53, 89.9 -0.61, 199.95 -0.61 M198.36 0.26 C200.45 15.18, 199.3 28.94, 199.27 51.8 M200.96 0.75 C200.24 14.49, 200.45 28.47, 199.05 50.25 M199.89 50.45 C138.74 48.2, 74.77 48.02, -1.27 49.68 M199.68 49.16 C153.65 49.92, 106.6 50.19, 0.08 49.52 M0.16 49.53 C1.02 38.14, 0.4 28.13, 0.53 1.25 M0.03 50.91 C-0.11 37.9, 0.02 24.44, -0.81 0.07" stroke="#a371f7" stroke-width="2" fill="none"></path></g><g transform="translate(82.95002746582031 812.5) rotate(0 27.049972534179688 12.5)"><text x="27.049972534179688" y="NaN" font-family="Virgil, Segoe UI Emoji" font-size="20px" fill="#ffffff" text-anchor="middle" style="white-space: pre;" direction="ltr">Client</text></g><g stroke-linecap="round" transform="translate(290 10) rotate(0 100 25)"><path d="M1.89 1.9 L200.54 -0.99 L198.37 51.26 L1.08 49.21" stroke="none" stroke-width="0" fill="#3a1d6e"></path><path d="M-0.7 -1.45 C74.24 2.08, 146.63 1.17, 199.36 -0.92 M0.11 0.79 C69.18 0.04, 139.69 0, 199.12 0.12 M200.71 -1.14 C197.98 15.11, 201.26 28.1, 200.62 49.17 M200.26 -0.26 C200.5 16.01, 199.84 31.78, 200.96 50.62 M201.13 48.87 C158.21 50.21, 121.06 50.42, 0.54 51.78 M199.27 49.59 C122.66 51.18, 43.72 51.62, -0.42 50.66 M1.38 48.72 C-0.35 33.11, -0.11 14.3, 1.76 0.31 M-0.8 49.82 C-0.79 31.49, -0.43 11.32, 0.41 -0.49" stroke="#a371f7" stroke-width="2" fill="none"></path></g><g transform="translate(354.82003021240234 22.5) rotate(0 35.179969787597656 12.5)"><text x="35.179969787597656" y="NaN" font-family="Virgil, Segoe UI Emoji" font-size="20px" fill="#ffffff" text-anchor="middle" style="white-space: pre;" direction="ltr">Master</text></g><g stroke-linecap="round"><g transform="translate(390 60) rotate(0 0 370)"><path d="M-0.96 0.09 C-0.75 123.17, 0.1 615.79, 0.09 739.14" stroke="#30363d" stroke-width="1.5" fill="none" stroke-dasharray="8 9"></path></g></g><g stroke-linecap="round" transform="translate(290 800) rotate(0 100 25)"><path d="M0.32 0.34 L200.31 0.87 L198.56 49.6 L-1.79 49.48" stroke="none" stroke-width="0" fill="#3a1d6e"></path><path d="M0.13 -0.28 C41.7 0.17, 87.21 -0.84, 201.75 -0.65 M0.44 0.41 C67.64 -0.27, 135.32 -0.14, 199.13 0.49 M199.67 -1.07 C200.51 12.86, 198.14 28.86, 201.01 49.17 M199.99 0.75 C200.47 14.2, 200.79 29.88, 199.81 50.04 M200.51 49.29 C139.16 52.36, 82.64 49.44, -1.44 51.06 M199.36 49.17 C132.96 49.98, 65.55 49.38, -0.9 49.21 M-1.46 50.53 C0.34 36.96, 0.6 25.84, 1.5 -1.16 M0.39 49.25 C-0.54 33.53, 0.14 15.64, -0.32 -0.06" stroke="#a371f7" stroke-width="2" fill="none"></path></g><g transform="translate(354.82003021240234 812.5) rotate(0 35.179969787597656 12.5)"><text x="35.179969787597656" y="NaN" font-family="Virgil, Segoe UI Emoji" font-size="20px" fill="#ffffff" text-anchor="middle" style="white-space: pre;" direction="ltr">Master</text></g><g stroke-linecap="round" transform="translate(570 10) rotate(0 100 25)"><path d="M-0.39 0.95 L201.13 1.13 L198.65 51.6 L-0.65 51.68" stroke="none" stroke-width="0" fill="#3a1d6e"></path><path d="M1.67 -1.63 C57.39 0.13, 117.22 -0.56, 198.41 -1.38 M-0.56 -0.18 C44.11 1.9, 90.09 1.91, 200.52 0.66 M198.01 1.86 C201.21 16.51, 198.62 33.69, 198.69 48.48 M200.41 -0.08 C200.63 12.06, 199.97 26.05, 199.5 50.8 M199.89 51.03 C158.26 49.69, 119.53 49.14, -0.77 49.17 M199.23 50.52 C142.87 48.69, 86.67 50.05, 0.56 50.01 M-0.04 51.41 C1.22 28.84, 2.11 11.38, -1.18 1.38 M0.63 49.92 C0.26 37.36, 0.36 24.53, 0.59 0.24" stroke="#a371f7" stroke-width="2" fill="none"></path></g><g transform="translate(636.3100280761719 22.5) rotate(0 33.689971923828125 12.5)"><text x="33.689971923828125" y="NaN" font-family="Virgil, Segoe UI Emoji" font-size="20px" fill="#ffffff" text-anchor="middle" style="white-space: pre;" direction="ltr">Replica</text></g><g stroke-linecap="round"><g transform="translate(670 60) rotate(0 0 370)"><path d="M-1.04 0.7 C-0.9 124.32, 0.04 617.45, 0.14 740.79" stroke="#30363d" stroke-width="1.5" fill="none" stroke-dasharray="8 9"></path></g></g><g stroke-linecap="round" transform="translate(570 800) rotate(0 100 25)"><path d="M-0.14 -0.31 L198.77 1.92 L201.64 50.82 L1.01 49.7" stroke="none" stroke-width="0" fill="#3a1d6e"></path><path d="M-1.2 -0.15 C49.87 -1.1, 100.87 -0.79, 200.76 1.13 M-0.72 0.88 C77.22 -1.17, 153.91 -0.45, 199.3 -0.25 M198.33 -1.88 C200.89 15.69, 199.43 29.67, 199.32 49.91 M200.25 0.2 C200.09 16.17, 200.86 33.49, 200.52 50.1 M198.51 51.18 C144.24 51.32, 91.98 50.52, 0.75 48.89 M199.31 50.55 C125.9 50.1, 53.49 49.54, -0.01 49.34 M-1.22 48.59 C1.92 35.26, -0.71 17.81, -0.56 0.49 M-0.32 50.07 C0.31 34.07, 1.14 18.75, 1 0.75" stroke="#a371f7" stroke-width="2" fill="none"></path></g><g transform="translate(636.3100280761719 812.5) rotate(0 33.689971923828125 12.5)"><text x="33.689971923828125" y="NaN" font-family="Virgil, Segoe UI Emoji" font-size="20px" fill="#ffffff" text-anchor="middle" style="white-space: pre;" direction="ltr">Replica</text></g><g stroke-linecap="round"><g transform="translate(110 140) rotate(0 140 0)"><path d="M0.11 -0.51 C46.76 -0.53, 232.6 0.32, 279.08 0.26 M-1.3 -1.82 C45.8 -2.26, 234.21 -2.03, 281.31 -1.73" stroke="#c9d1d9" stroke-width="2" fill="none"></path></g><g transform="translate(110 140) rotate(0 140 0)"><path d="M252.24 6.9 C259.97 4.33, 264.54 2.42, 281.02 -2.93 M253.03 8.05 C261.12 6.16, 267.16 3.2, 281 -0.9" stroke="#c9d1d9" stroke-width="2" fill="none"></path></g><g transform="translate(110 140) rotate(0 140 0)"><path d="M252.3 -13.62 C260.09 -11.46, 264.64 -8.66, 281.02 -2.93 M253.1 -12.48 C261.1 -9.04, 267.12 -6.68, 281 -0.9" stroke="#c9d1d9" stroke-width="2" fill="none"></path></g></g><g transform="translate(178.2520294189453 128.75) rotate(0 71.74797058105469 11.25)"><text x="71.74797058105469" y="NaN" font-family="Virgil, Segoe UI Emoji" font-size="18px" fill="#c9d1d9" text-anchor="middle" style="white-space: pre;" direction="ltr">WRITE command</text></g><g stroke-linecap="round"><g transform="translate(350.16881785053647 218.17086019361506) rotate(0 30 15)"><path d="M0.03 -0.15 C9.95 -0.42, 48.7 -6.34, 58.8 -1.12 C68.9 4.1, 70.27 25.89, 60.64 31.16 C51 36.43, 11.29 30.75, 1 30.52 M-1.42 -1.27 C8.91 -1.48, 50.62 -5.28, 60.89 -0.17 C71.16 4.95, 70.06 24.69, 60.21 29.42 C50.35 34.16, 11.72 28.13, 1.77 28.23" stroke="#c9d1d9" stroke-width="2" fill="none"></path></g><g transform="translate(350.16881785053647 218.17086019361506) rotate(0 30 15)"><path d="M30.38 18.06 C21.85 23.09, 18.69 25.66, 2.63 26.34 M29.7 19.69 C22.49 22.74, 14.44 24.91, 1.45 28.13" stroke="#c9d1d9" stroke-width="2" fill="none"></path></g><g transform="translate(350.16881785053647 218.17086019361506) rotate(0 30 15)"><path d="M28.89 38.52 C20.63 38.63, 17.83 36.27, 2.63 26.34 M28.2 40.16 C21.57 37.47, 13.94 33.89, 1.45 28.13" stroke="#c9d1d9" stroke-width="2" fill="none"></path></g></g><g transform="translate(363.4950408935547 212.5) rotate(0 94.00495910644531 22.5)"><text x="94.00495910644531" y="NaN" font-family="Virgil, Segoe UI Emoji" font-size="18px" fill="#c9d1d9" text-anchor="middle" style="white-space: pre;" direction="ltr">Execute + append to</text><text x="94.00495910644531" y="NaN" font-family="Virgil, Segoe UI Emoji" font-size="18px" fill="#c9d1d9" text-anchor="middle" style="white-space: pre;" direction="ltr">backlog</text></g><g stroke-linecap="round"><g transform="translate(390 300) rotate(0 -140 0)"><path d="M-0.48 0.86 C-47.43 1.17, -234.56 0.92, -280.99 0.76 M1.47 0.27 C-45.18 0.33, -232 -1.12, -278.8 -0.97" stroke="#c9d1d9" stroke-width="2" fill="none"></path></g><g transform="translate(390 300) rotate(0 -140 0)"><path d="M-249.14 -12.8 C-259.52 -6.08, -271.05 -5.73, -278.17 -2.64 M-251.13 -11.91 C-257.67 -7.39, -265.76 -5.14, -277.87 -1.36" stroke="#c9d1d9" stroke-width="2" fill="none"></path></g><g transform="translate(390 300) rotate(0 -140 0)"><path d="M-249.2 7.72 C-259.38 7.09, -270.88 0.09, -278.17 -2.64 M-251.19 8.61 C-257.7 7.49, -265.77 4.11, -277.87 -1.36" stroke="#c9d1d9" stroke-width="2" fill="none"></path></g></g><g transform="translate(237.94900512695312 288.75) rotate(0 12.050994873046875 11.25)"><text x="12.050994873046875" y="NaN" font-family="Virgil, Segoe UI Emoji" font-size="18px" fill="#c9d1d9" text-anchor="middle" style="white-space: pre;" direction="ltr">OK</text></g><g stroke-linecap="round"><g transform="translate(390 380) rotate(0 140 0)"><path d="M0.35 -1.01 C47.1 -1.15, 234.02 -0.68, 280.52 -0.32" stroke="#c9d1d9" stroke-width="2.5" fill="none" stroke-dasharray="8 10"></path></g><g transform="translate(390 380) rotate(0 140 0)"><path d="M250.6 10.68 C260.13 5.66, 271.01 1.71, 279.05 -1.53" stroke="#c9d1d9" stroke-width="2.5" fill="none"></path></g><g transform="translate(390 380) rotate(0 140 0)"><path d="M250.7 -9.84 C260.28 -8.74, 271.13 -6.57, 279.05 -1.53" stroke="#c9d1d9" stroke-width="2.5" fill="none"></path></g></g><g transform="translate(458.2250289916992 357.5) rotate(0 71.77497100830078 22.5)"><text x="71.77497100830078" y="NaN" font-family="Virgil, Segoe UI Emoji" font-size="18px" fill="#c9d1d9" text-anchor="middle" style="white-space: pre;" direction="ltr">Stream command</text><text x="71.77497100830078" y="NaN" font-family="Virgil, Segoe UI Emoji" font-size="18px" fill="#c9d1d9" text-anchor="middle" style="white-space: pre;" direction="ltr">(async)</text></g><g stroke-linecap="round"><g transform="translate(668.8256602730781 406.31245129485256) rotate(0 30.06142588369437 26.81305717054829)"><path d="M-1.08 0.11 C9.22 3.09, 50.26 10.43, 60.65 18.31 C71.04 26.19, 70.66 41.63, 61.28 47.36 C51.9 53.1, 13.52 51.69, 4.4 52.74 M0.55 -0.87 C10.84 1.73, 49.88 8.35, 59.98 16.6 C70.08 24.84, 70.44 42.46, 61.12 48.59 C51.81 54.72, 13.33 52.47, 4.08 53.38" stroke="#c9d1d9" stroke-width="2" fill="none"></path></g><g transform="translate(668.8256602730781 406.31245129485256) rotate(0 30.06142588369437 26.81305717054829)"><path d="M29.92 44.37 C25.84 47.2, 19.04 45.49, 2.6 55.13 M29.49 43.42 C22.54 47.66, 14.4 48.69, 4.45 53.84" stroke="#c9d1d9" stroke-width="2" fill="none"></path></g><g transform="translate(668.8256602730781 406.31245129485256) rotate(0 30.06142588369437 26.81305717054829)"><path d="M30.27 63.17 C26.05 62.17, 19.18 56.63, 2.6 55.13 M29.84 62.22 C22.61 60.82, 14.36 56.2, 4.45 53.84" stroke="#c9d1d9" stroke-width="2" fill="none"></path></g></g><g transform="translate(642.7044680131932 427.6665554416758) rotate(0 93.4199447631836 11.25)"><text x="93.4199447631836" y="NaN" font-family="Virgil, Segoe UI Emoji" font-size="18px" fill="#c9d1d9" text-anchor="middle" style="white-space: pre;" direction="ltr">Apply command locally</text></g><g stroke-opacity="0.85" fill-opacity="0.85" stroke-linecap="round" transform="translate(394.59827180887163 469.0656890840337) rotate(0 134.79999999999998 22)"><path d="M0.98 0.27 L268.71 -0.87 L270.88 43.33 L-0.71 45.99" stroke="none" stroke-width="0" fill="#1f4d2b"></path><path d="M0.43 -0.68 C57.09 1.66, 116.29 1.47, 270.38 1.4 M0.09 0.28 C98.16 2.17, 195.98 1.62, 269.29 0.04 M268.38 1.59 C269.19 14.52, 271.54 24.06, 268.24 44.52 M269.49 0.79 C269.89 13.45, 269.63 27.68, 270.08 43.61 M269.2 42.69 C168.19 43.71, 68 43.74, -0.98 42.5 M269.82 43.74 C207.09 44.02, 144.94 44.25, -0.46 43.26 M-1.57 43.11 C-1.74 28.14, -2.06 16.57, 1.37 1.58 M-0.19 44.93 C0.54 35.42, 0.82 25.97, -0.87 -0.98" stroke="#3fb950" stroke-width="2" fill="none"></path></g><g transform="translate(427.24634004617633 481.0656890840337) rotate(0 102.15193176269531 10)"><text x="102.15193176269531" y="NaN" font-family="Virgil, Segoe UI Emoji" font-size="16px" fill="#ffffff" text-anchor="middle" style="white-space: pre;" direction="ltr">Replica disconnects briefly</text></g><g stroke-linecap="round"><g transform="translate(669.8985924738362 539.9019043111673) rotate(0 -140 0)"><path d="M0.02 1.08 C-46.81 1.02, -233.18 0.25, -279.88 0.07 M-1.43 0.61 C-48.5 0.71, -234.17 1.53, -280.76 1.64" stroke="#c9d1d9" stroke-width="2" fill="none"></path></g><g transform="translate(669.8985924738362 539.9019043111673) rotate(0 -140 0)"><path d="M-250.8 -8.52 C-263.48 -4.9, -274.66 -0.14, -280.37 2.73 M-251.74 -9.09 C-261.02 -4.27, -271.78 -2.44, -281.42 0.84" stroke="#c9d1d9" stroke-width="2" fill="none"></path></g><g transform="translate(669.8985924738362 539.9019043111673) rotate(0 -140 0)"><path d="M-250.73 12.01 C-263.51 7.58, -274.73 4.32, -280.37 2.73 M-251.66 11.43 C-261.17 9.38, -271.96 4.35, -281.42 0.84" stroke="#c9d1d9" stroke-width="2" fill="none"></path></g></g><g transform="translate(434.4896569269612 528.6519043111673) rotate(0 95.408935546875 11.25)"><text x="95.408935546875" y="NaN" font-family="Virgil, Segoe UI Emoji" font-size="18px" fill="#c9d1d9" text-anchor="middle" style="white-space: pre;" direction="ltr">PSYNC offset repl_id</text></g><g stroke-linecap="round"><g transform="translate(390 620) rotate(0 140 0)"><path d="M0.76 -0.65 C47.44 -0.55, 232.34 0.12, 278.9 0.3" stroke="#c9d1d9" stroke-width="2.5" fill="none" stroke-dasharray="8 10"></path></g><g transform="translate(390 620) rotate(0 140 0)"><path d="M249.59 8.62 C256.92 8.38, 262.83 7.6, 279.52 -0.26" stroke="#c9d1d9" stroke-width="2.5" fill="none"></path></g><g transform="translate(390 620) rotate(0 140 0)"><path d="M249.66 -11.91 C256.93 -7.98, 262.83 -4.6, 279.52 -0.26" stroke="#c9d1d9" stroke-width="2.5" fill="none"></path></g></g><g transform="translate(431.9090881347656 597.5) rotate(0 98.09091186523438 22.5)"><text x="98.09091186523438" y="NaN" font-family="Virgil, Segoe UI Emoji" font-size="18px" fill="#c9d1d9" text-anchor="middle" style="white-space: pre;" direction="ltr">Partial resync (missed</text><text x="98.09091186523438" y="NaN" font-family="Virgil, Segoe UI Emoji" font-size="18px" fill="#c9d1d9" text-anchor="middle" style="white-space: pre;" direction="ltr">commands)</text></g><g stroke-linecap="round"><g transform="translate(389.9762441333779 728.7455035981641) rotate(0 140.41832949889812 0.5611192257732114)"><path d="M1.11 -0.35 C47.77 -0.08, 234.42 1.17, 280.93 1.51" stroke="#c9d1d9" stroke-width="2.5" fill="none" stroke-dasharray="8 10"></path></g><g transform="translate(389.9762441333779 728.7455035981641) rotate(0 140.41832949889812 0.5611192257732114)"><path d="M252.09 11.72 C264 6.4, 275.03 4.49, 280.8 0.97" stroke="#c9d1d9" stroke-width="2.5" fill="none"></path></g><g transform="translate(389.9762441333779 728.7455035981641) rotate(0 140.41832949889812 0.5611192257732114)"><path d="M252.23 -8.8 C264.07 -6.36, 275.04 -0.52, 280.8 0.97" stroke="#c9d1d9" stroke-width="2.5" fill="none"></path></g></g><g transform="translate(446.23563045600645 706.8066228239372) rotate(0 84.15894317626953 22.5)"><text x="84.15894317626953" y="NaN" font-family="Virgil, Segoe UI Emoji" font-size="18px" fill="#c9d1d9" text-anchor="middle" style="white-space: pre;" direction="ltr">Full resync (RDB +</text><text x="84.15894317626953" y="NaN" font-family="Virgil, Segoe UI Emoji" font-size="18px" fill="#c9d1d9" text-anchor="middle" style="white-space: pre;" direction="ltr">backlog)</text></g><g stroke-linecap="round" transform="translate(368.3681655242234 570.9336812838424) rotate(0 167.5818017746633 42.3767471295094)"><path d="M-1.21 -0.07 C108.12 -0.96, 217.5 -2.51, 335.24 -0.7 M334.14 0.77 C336.76 24.3, 334.95 46.1, 337.03 83.38 M334.12 84.12 C237.91 84.69, 142.28 83.53, -0.22 83.88 M0.15 83.67 C-0.26 66.23, 0.09 48.47, 0.44 1.16" stroke="#ffffff" stroke-width="2.5" fill="none" stroke-dasharray="1.5 8"></path></g><g stroke-linecap="round" transform="translate(370.80599443935535 679.0428651617868) rotate(0 167.5818017746633 42.3767471295094)"><path d="M-0.18 -0.53 C112.39 -2.41, 222.58 -2.51, 334.68 0.08 M335.57 -1.59 C336.24 29.22, 335.13 60.81, 333.36 83.48 M335.17 85.95 C257.67 85.04, 181.07 83.82, -0.52 84.88 M-0.33 84.14 C0.85 64.24, 2.37 41.3, 0.77 1.85" stroke="#ffffff" stroke-width="2.5" fill="none" stroke-dasharray="1.5 8"></path></g><g transform="translate(372.99211927572946 575.6465703200084) rotate(0 65.70393371582031 10)"><text x="0" y="NaN" font-family="Segoe UI Emoji" font-size="16px" fill="#ffffff" text-anchor="start" style="white-space: pre;" direction="ltr">Within Threshold</text></g><g transform="translate(376.29058930162853 682.4153577045931) rotate(0 72.71992492675781 10)"><text x="0" y="NaN" font-family="Segoe UI Emoji" font-size="16px" fill="#ffffff" text-anchor="start" style="white-space: pre;" direction="ltr">Outside Threshold</text></g></svg>