<svg version="1.1" xmlns="http://www.w3.org/2000/svg" viewBox="0 0 898.433967590332 1014.095909988239" width="898.433967590332" height="1014.095909988239">
  <!-- svg-source:excalidraw -->
  
  <defs>
    <style>
      @font-face {
        font-family: "Virgil";
        src: url("https://excalidraw.com/Virgil.woff2");
      }
      @font-face {
        font-family: "Cascadia";
        src: url("https://excalidraw.com/Cascadia.woff2");
      }
    </style>
  </defs>
  <rect x="0" y="0" width="898.433967590332" height="1014.095909988239" fill="#0d1117"></rect><g stroke-opacity="0.6" fill-opacity="0.6" stroke-linecap="round" transform="translate(10 10) rotate(0 410.5 121.5)"><path d="M0.24 -0.1 L820.32 -1.74 L819.37 243.43 L-0.51 243.54" stroke="none" stroke-width="0" fill="#161b22"></path><path d="M0.52 0.28 C194.59 2.67, 390.11 2.91, 820.29 0.37 M821.8 -1.55 C820.14 95.6, 818.92 189.16, 819.47 242.51 M820.84 242.6 C554.87 241.81, 288.6 242.6, 0.64 243.1 M-0.34 241.92 C2.74 166.17, 2.53 89.41, 0.5 -0.63" stroke="#30363d" stroke-width="2.5" fill="none" stroke-dasharray="8 10"></path></g><g transform="translate(26 20) rotate(0 68.5529556274414 11.25)"><text x="0" y="NaN" font-family="Virgil, Segoe UI Emoji" font-size="18px" fill="#8b949e" text-anchor="start" style="white-space: pre;" direction="ltr">Parent Process</text></g><g stroke-opacity="0.6" fill-opacity="0.6" stroke-linecap="round" transform="translate(36.37153445997444 388.6269813047787) rotate(0 361 121.5)"><path d="M-0.39 0.64 L720.74 -0.48 L723.72 242.68 L-0.65 241.99" stroke="none" stroke-width="0" fill="#161b22"></path><path d="M-0.08 -0.02 C163.08 1.42, 325.55 0.79, 722.73 -0.08 M723.07 1.34 C720.36 81.82, 721.47 163.58, 723.03 243.87 M722.42 243.2 C496.63 244.64, 270.9 244.36, -0.17 242.59 M-0.16 244.6 C0.33 188.02, 2.65 133.76, -0.19 0.61" stroke="#30363d" stroke-width="2.5" fill="none" stroke-dasharray="8 10"></path></g><g transform="translate(52.82329869740681 411.53944670722717) rotate(0 87.11093139648438 11.25)"><text x="0" y="NaN" font-family="Virgil, Segoe UI Emoji" font-size="18px" fill="#8b949e" text-anchor="start" style="white-space: pre;" direction="ltr">Child Process (fork)</text></g><g stroke-opacity="0.6" fill-opacity="0.6" stroke-linecap="round" transform="translate(191.2122999992721 761.095909988239) rotate(0 150 121.5)"><path d="M-1.57 -0.16 L299.36 0.07 L299.3 242.87 L-1.71 241.66" stroke="none" stroke-width="0" fill="#161b22"></path><path d="M1.19 1.13 C108.02 2.57, 214.25 1.02, 300.94 -0.19 M300.65 -0.54 C302.38 59.27, 302.75 115.09, 300.56 243.05 M298.82 242.29 C209.6 244.4, 120.66 243.01, -0.89 244.11 M0.03 241.74 C0.8 172, 0.58 101.91, 0.13 1.21" stroke="#30363d" stroke-width="2.5" fill="none" stroke-dasharray="8 10"></path></g><g transform="translate(209.8772514507184 784.9427354906876) rotate(0 18.26097869873047 11.25)"><text x="0" y="NaN" font-family="Virgil, Segoe UI Emoji" font-size="18px" fill="#8b949e" text-anchor="start" style="white-space: pre;" direction="ltr">Disk</text></g><g stroke-linecap="round" transform="translate(70 120) rotate(0 124 36.5)"><path d="M0.68 -0.94 L248.14 1.24 L248.36 72.46 L-0.45 74.69" stroke="none" stroke-width="0" fill="#1f4d2b"></path><path d="M-0.3 -0.15 C65.88 -2.52, 134.33 -2.45, 248.27 0.89 M0.13 0.11 C69.77 1.31, 137.43 1.86, 248.24 0.79 M248.95 -0.95 C246.5 26.23, 249.77 55.74, 247.31 74.67 M247.94 0.44 C246.97 29.01, 247.01 56.35, 247.96 73.62 M246.59 72.06 C176.07 74.38, 103.36 74.48, 1.1 74.61 M248.37 72.71 C184.83 73.16, 120.62 73.94, 0.69 72.79 M0.56 71.54 C-2.64 57.9, 0.93 41.1, -1.47 -1.69 M-0.81 73.97 C-0.68 44.53, -1.06 16.86, -0.19 -0.68" stroke="#3fb950" stroke-width="2" fill="none"></path></g><g transform="translate(108.68006896972656 144) rotate(0 85.31993103027344 12.5)"><text x="85.31993103027344" y="NaN" font-family="Virgil, Segoe UI Emoji" font-size="20px" fill="#ffffff" text-anchor="middle" style="white-space: pre;" direction="ltr">Redis Event Loop</text></g><g stroke-linecap="round" transform="translate(490 120) rotate(0 140.5 36.5)"><path d="M0 -1.31 L279.01 -0.15 L282.04 71.74 L-1.74 73.51" stroke="none" stroke-width="0" fill="#1f4d2b"></path><path d="M1.16 -0.16 C103.88 0.58, 205.41 1.88, 281.7 -0.54 M0.12 0.37 C95.78 1.4, 189.84 -0.1, 281.06 -0.13 M279.08 -1.74 C278.9 29.24, 281.76 56.77, 280.08 71.21 M280.3 0.01 C280.11 16.92, 279.74 35.06, 281.22 73.6 M282.27 74.35 C203.9 72.24, 123.81 73.03, -1.18 74.53 M281.08 73.53 C221.4 74.56, 161.1 74.37, -0.55 72.54 M-1.39 72.89 C1.65 54.11, -1.91 33.34, -1.61 1.62 M-0.52 73.56 C1.37 58.53, -0.33 42.27, -0.23 0.49" stroke="#3fb950" stroke-width="2" fill="none"></path></g><g transform="translate(524.1700897216797 144) rotate(0 106.32991027832031 12.5)"><text x="106.32991027832031" y="NaN" font-family="Virgil, Segoe UI Emoji" font-size="20px" fill="#ffffff" text-anchor="middle" style="white-space: pre;" direction="ltr">Shared Memory Pages</text></g><g stroke-linecap="round" transform="translate(516.8232986974068 511.53944670722717) rotate(0 91 36.5)"><path d="M-0.95 -0.39 L181.7 -1.52 L183.87 71.88 L0.3 72.92" stroke="none" stroke-width="0" fill="#1f4d2b"></path><path d="M1.93 1.06 C57.2 -1.35, 113.78 1.96, 180.8 1.38 M0.5 -0.14 C66.32 1.62, 133.48 0.88, 182.03 -0.63 M183.35 1.12 C183.71 17.74, 180.88 34.35, 183.07 74.42 M182.69 0.61 C182.43 28.41, 181.87 57.96, 182.99 73.57 M182 73.04 C139.73 73.93, 96.31 75.44, -1.62 73.35 M181.2 73 C109.84 74.53, 39.29 75.13, -0.37 72.38 M0.77 71.93 C1.67 48.22, 1.15 22.06, -1.08 -1.58 M-0.24 72.94 C-0.21 43.58, -0.05 15.18, 0.92 0.79" stroke="#3fb950" stroke-width="2" fill="none"></path></g><g transform="translate(562.8033478307076 535.5394467072272) rotate(0 45.01995086669922 12.5)"><text x="45.01995086669922" y="NaN" font-family="Virgil, Segoe UI Emoji" font-size="20px" fill="#ffffff" text-anchor="middle" style="white-space: pre;" direction="ltr">Serializer</text></g><g stroke-linecap="round" transform="translate(96.82329869740681 511.53944670722717) rotate(0 118.5 36.5)"><path d="M-1.66 1.31 L236.52 -0.62 L238.74 73 L0.24 73.7" stroke="none" stroke-width="0" fill="#1f4d2b"></path><path d="M-0.94 -1.4 C52.67 0.96, 106.52 1.29, 235.84 1.49 M-0.79 -0.53 C67.03 1.07, 135.24 0.62, 236.62 -0.49 M236.74 1.64 C236.23 29.35, 238.39 57.64, 236.61 71.4 M237.3 -0.09 C236.25 22.98, 236.66 43.72, 237.14 73.21 M238.61 73.53 C187.43 70.12, 136.14 72.72, -0.55 72.57 M236.48 72.84 C177.73 72.55, 120.2 73.31, 0.2 73.38 M-0.68 74.55 C-0.02 56.65, -0.99 40.8, 0.63 1.45 M0.49 72.25 C-0.72 49.55, 0 28.53, 0.91 -0.58" stroke="#3fb950" stroke-width="2" fill="none"></path></g><g transform="translate(131.25336003773884 535.5394467072272) rotate(0 84.06993865966797 12.5)"><text x="84.06993865966797" y="NaN" font-family="Virgil, Segoe UI Emoji" font-size="20px" fill="#ffffff" text-anchor="middle" style="white-space: pre;" direction="ltr">COW Memory View</text></g><g stroke-linecap="round" transform="translate(253.8772514507184 884.9427354906876) rotate(0 90 36.5)"><path d="M-0.43 1.77 L180.93 -0.7 L181.75 73.29 L-0.24 73.04" stroke="none" stroke-width="0" fill="#1f4d2b"></path><path d="M-0.31 1.02 C64.95 -1.8, 132.22 0.39, 179.16 0.9 M0.1 -1 C54.26 1.26, 110.77 0.56, 180.77 0.51 M179.78 1.18 C181.61 16.44, 181.53 34.5, 180.96 73.08 M180.61 0.53 C180.75 19.18, 181.14 38.62, 180.49 72.47 M180.38 72.67 C109.4 71.54, 37.99 69.26, 0.08 74.48 M180.13 72.86 C115.41 73.87, 52.44 73.7, -0.33 73.34 M-0.85 74.31 C-1.07 56.69, -0.49 36.96, -1.18 -0.81 M0.5 72.17 C0.44 57.23, -0.51 42.29, -0.01 0.96" stroke="#3fb950" stroke-width="2" fill="none"></path></g><g transform="translate(300.99727708548403 908.9427354906876) rotate(0 42.879974365234375 12.5)"><text x="42.879974365234375" y="NaN" font-family="Virgil, Segoe UI Emoji" font-size="20px" fill="#ffffff" text-anchor="middle" style="white-space: pre;" direction="ltr">RDB File</text></g><g stroke-linecap="round"><g transform="translate(324 156.5073) rotate(0 80.00000000000003 0)"><path d="M1 0 C27.7 -0.09, 132.77 -1.06, 159.22 -1.05 M0.07 -1.04 C27.24 -0.99, 135.08 -0.47, 161.52 -0.07" stroke="#3fb950" stroke-width="2" fill="none"></path></g><g transform="translate(324 156.5073) rotate(0 80.00000000000003 0)"><path d="M133.24 8.63 C137.71 6.95, 145.7 6.87, 162.71 1.5 M132.98 10.25 C140.92 5.74, 149.81 2.79, 162.34 -0.62" stroke="#3fb950" stroke-width="2" fill="none"></path></g><g transform="translate(324 156.5073) rotate(0 80.00000000000003 0)"><path d="M133.43 -11.89 C137.78 -9.08, 145.72 -4.67, 162.71 1.5 M133.16 -10.27 C140.87 -8.62, 149.7 -5.41, 162.34 -0.62" stroke="#3fb950" stroke-width="2" fill="none"></path></g></g><g stroke-linecap="round"><g transform="translate(585.4696362061526 199) rotate(0 -162.52434607407469 153.26972335361359)"><path d="M-0.18 0.55 C0.19 21.54, 55.32 104.61, 1.07 125.33 C-53.17 146.05, -271.16 94.75, -325.65 124.87 C-380.13 155, -325.87 275.93, -325.85 306.06" stroke="#f0883e" stroke-width="2.5" fill="none" stroke-dasharray="8 10"></path></g><g transform="translate(585.4696362061526 199) rotate(0 -162.52434607407469 153.26972335361359)"><path d="M-341 282.52 C-338.39 284.91, -335.87 289.72, -326.64 305.28" stroke="#f0883e" stroke-width="2.5" fill="none"></path></g><g transform="translate(585.4696362061526 199) rotate(0 -162.52434607407469 153.26972335361359)"><path d="M-320.95 278.11 C-322.44 281.37, -324 287.08, -326.64 305.28" stroke="#f0883e" stroke-width="2.5" fill="none"></path></g></g><g transform="translate(792.566032409668 145.25) rotate(0 47.93396759033203 11.25)"><text x="47.93396759033203" y="NaN" font-family="Virgil, Segoe UI Emoji" font-size="18px" fill="#c9d1d9" text-anchor="middle" style="white-space: pre;" direction="ltr">fork() COW</text></g><g stroke-linecap="round"><g transform="translate(339.8232986974068 548.0467467072272) rotate(0 85.5 0)"><path d="M-0.1 -1.11 C28.46 -1.37, 141.63 -0.88, 170.15 -0.73 M-1.61 0.92 C27.43 0.72, 143.78 0.42, 172.41 0.43" stroke="#58a6ff" stroke-width="2" fill="none"></path></g><g transform="translate(339.8232986974068 548.0467467072272) rotate(0 85.5 0)"><path d="M142.38 9.3 C148.6 8.64, 155.08 5.67, 173.48 1.28 M144.02 9.74 C153.43 8.27, 162.36 3.71, 171.76 1.29" stroke="#58a6ff" stroke-width="2" fill="none"></path></g><g transform="translate(339.8232986974068 548.0467467072272) rotate(0 85.5 0)"><path d="M142.35 -11.22 C148.72 -7.76, 155.21 -6.62, 173.48 1.28 M143.99 -10.78 C153.29 -6, 162.23 -4.32, 171.76 1.29" stroke="#58a6ff" stroke-width="2" fill="none"></path></g></g><g stroke-linecap="round"><g transform="translate(585.0420749289508 590.5394467072272) rotate(0 -109.16978304580084 144.2016443917302)"><path d="M0.75 0.24 C0.78 18.22, 35.44 90.04, -0.91 108 C-37.25 125.96, -181.08 77.97, -217.32 107.98 C-253.56 137.98, -218.35 257.91, -218.35 288.05 M-0.32 -0.68 C0.18 17.49, 37.53 91.19, 1.33 109.51 C-34.88 127.83, -180.98 79.34, -217.55 109.25 C-254.13 139.16, -217.99 258.94, -218.1 288.97" stroke="#3fb950" stroke-width="2" fill="none"></path></g><g transform="translate(585.0420749289508 590.5394467072272) rotate(0 -109.16978304580084 144.2016443917302)"><path d="M-231.91 261.03 C-229.4 269.7, -226.47 273.53, -218.69 290.69 M-232.91 262.97 C-227.45 271.77, -222.72 280.56, -219.01 288.7" stroke="#3fb950" stroke-width="2" fill="none"></path></g><g transform="translate(585.0420749289508 590.5394467072272) rotate(0 -109.16978304580084 144.2016443917302)"><path d="M-211.6 258.08 C-213.35 267.49, -214.67 271.95, -218.69 290.69 M-212.6 260.02 C-214.01 269.82, -216.11 279.61, -219.01 288.7" stroke="#3fb950" stroke-width="2" fill="none"></path></g></g></svg>