<svg version="1.1" xmlns="http://www.w3.org/2000/svg" viewBox="0 0 1414.5555257214282 2660" width="1414.5555257214282" height="2660">
  <!-- svg-source:excalidraw -->
  
  <defs>
    <style>
      @font-face {
        font-family: "Virgil";
        src: url("https://excalidraw.com/Virgil.woff2");
      }
      @font-face {
        font-family: "Cascadia";
        src: url("https://excalidraw.com/Cascadia.woff2");
      }
    </style>
  </defs>
  <rect x="0" y="0" width="1414.5555257214282" height="2660" fill="#0d1117"></rect><g stroke-linecap="round" transform="translate(84.55552572142814 10) rotate(0 100 25)"><path d="M-1.01 -0.61 L198.06 -0.46 L198.94 51.02 L0.89 48.07" stroke="none" stroke-width="0" fill="#3a1d6e"></path><path d="M1.7 -1.37 C50.17 0.06, 97.57 -0.55, 201.38 0.96 M-0.21 0.46 C50.97 -0.3, 103.1 0.38, 200.62 0.14 M198.78 0.65 C199.18 14.98, 202.1 29.01, 199.09 51.01 M199.73 -0.71 C199.92 13.87, 199.53 27.79, 200.45 50.68 M198.89 50.77 C151.89 51.2, 100.66 49.7, 0.12 49.26 M199.39 49.64 C129.04 52.49, 58.29 51.08, -0.75 50.53 M0.65 49.55 C1.85 34.23, -0.86 18.54, 1.03 -1.72 M0.65 50.12 C0.18 37.45, -0.1 26.31, 0.08 -0.23" stroke="#a371f7" stroke-width="2" fill="none"></path></g><g transform="translate(157.50555318724844 22.5) rotate(0 27.049972534179688 12.5)"><text x="27.049972534179688" y="NaN" font-family="Virgil, Segoe UI Emoji" font-size="20px" fill="#ffffff" text-anchor="middle" style="white-space: pre;" direction="ltr">Client</text></g><g stroke-linecap="round"><g transform="translate(184.55552572142813 60) rotate(0 -0.735212501296985 1253.3452915332475)"><path d="M-0.63 -0.15 C-1.08 417.67, -2.17 2088.74, -2.17 2506.58" stroke="#30363d" stroke-width="1.5" fill="none" stroke-dasharray="8 9"></path></g></g><g stroke-linecap="round" transform="translate(82.98612980519808 2565) rotate(0 100 25)"><path d="M1.52 -0.88 L198.08 0.42 L200.88 51.57 L-1.71 49.77" stroke="none" stroke-width="0" fill="#3a1d6e"></path><path d="M0.09 -0.2 C60.35 2.86, 119.28 -0.03, 200.19 0.07 M0.67 -0.17 C51.67 2.04, 105.23 1.9, 200.19 -0.49 M200.06 -0.61 C201.85 18.52, 198.72 35.94, 200.58 50.29 M200.61 -0.96 C200.22 18.8, 198.97 37.17, 200.74 50.08 M199.58 49.59 C122.51 51.9, 43 49.91, -0.53 49.07 M200.24 49.31 C155.28 52.03, 111.99 50.71, -0.12 50.18 M0.28 51.95 C1.72 31.26, 1.98 9.22, 1.1 -1.62 M0.02 49.18 C0.56 36.3, -0.03 22.02, -0.8 -0.53" stroke="#a371f7" stroke-width="2" fill="none"></path></g><g transform="translate(155.93615727101837 2577.5) rotate(0 27.049972534179688 12.5)"><text x="27.049972534179688" y="NaN" font-family="Virgil, Segoe UI Emoji" font-size="20px" fill="#ffffff" text-anchor="middle" style="white-space: pre;" direction="ltr">Client</text></g><g stroke-linecap="round" transform="translate(364.5555257214281 10) rotate(0 100 30)"><path d="M-1.74 -0.99 L199.78 -1.83 L199.25 60.56 L0.46 59.68" stroke="none" stroke-width="0" fill="#3a1d6e"></path><path d="M1.61 0.73 C81.02 -0.34, 160.72 0.9, 198.5 1.58 M-0.05 0 C53.07 -0.36, 107.63 -1.08, 200.62 0.68 M201.34 1.4 C198.68 21.62, 201.07 42.88, 201.89 60.92 M199.82 0.21 C200.43 13.88, 200.33 29.46, 199.38 60.57 M201.15 58.28 C155.51 62.35, 110.06 59.53, -0.07 58.93 M199.51 60.43 C151.68 59.3, 102 58.39, 0.81 59.87 M1.94 61.23 C-1.4 46.79, 2.11 33.55, -1.34 -1.06 M-0.42 59.2 C-0.46 37.28, -0.36 14.46, 0.4 0.59" stroke="#a371f7" stroke-width="2" fill="none"></path></g><g transform="translate(396.0955800427172 15) rotate(0 68.45994567871094 25)"><text x="68.45994567871094" y="NaN" font-family="Virgil, Segoe UI Emoji" font-size="20px" fill="#ffffff" text-anchor="middle" style="white-space: pre;" direction="ltr">Coordinator</text><text x="68.45994567871094" y="NaN" font-family="Virgil, Segoe UI Emoji" font-size="20px" fill="#ffffff" text-anchor="middle" style="white-space: pre;" direction="ltr">Paxos Leader</text></g><g stroke-linecap="round"><g transform="translate(464.5555257214281 59.84918717922119) rotate(0 0.17909022467495106 1252.1906308741595)"><path d="M-1.08 1.17 C-1.1 418.75, 0.65 2088.21, 0.7 2505.37" stroke="#30363d" stroke-width="1.5" fill="none" stroke-dasharray="8 9"></path></g></g><g stroke-linecap="round" transform="translate(362.98612980519806 2565) rotate(0 100 30)"><path d="M-0.46 1.92 L199.48 -1.13 L201.83 60.22 L-1.26 59.26" stroke="none" stroke-width="0" fill="#3a1d6e"></path><path d="M-0.42 0.26 C69.34 1.92, 141.02 0.87, 199.27 -0.52 M0.68 0.63 C71.93 -0.61, 141.63 -0.5, 200.63 -0.13 M198.19 -1.3 C201.28 14.19, 198.67 28.37, 198.86 61.33 M199.79 -0.1 C200.11 12.73, 199.14 26.42, 200.72 60.25 M201.6 60.32 C156.74 59.01, 111.05 60.25, -0.68 59.34 M199.35 60.57 C140.58 59, 79.95 59.29, -0.66 60.83 M-1.33 58.87 C1.11 45.21, -1.33 32.69, -0.48 -0.05 M-0.12 60.91 C-0.39 46.67, -0.55 30.9, 0.33 0.32" stroke="#a371f7" stroke-width="2" fill="none"></path></g><g transform="translate(394.5261841264871 2570) rotate(0 68.45994567871094 25)"><text x="68.45994567871094" y="NaN" font-family="Virgil, Segoe UI Emoji" font-size="20px" fill="#ffffff" text-anchor="middle" style="white-space: pre;" direction="ltr">Coordinator</text><text x="68.45994567871094" y="NaN" font-family="Virgil, Segoe UI Emoji" font-size="20px" fill="#ffffff" text-anchor="middle" style="white-space: pre;" direction="ltr">Paxos Leader</text></g><g stroke-linecap="round" transform="translate(644.5555257214281 10) rotate(0 100 42.5)"><path d="M1.88 0.32 L201.89 -0.74 L199.81 86.54 L-1.6 86.99" stroke="none" stroke-width="0" fill="#3a1d6e"></path><path d="M0.51 -0.33 C60.49 0.08, 123.81 -0.82, 199.62 -0.03 M0.28 -0.36 C65.05 -1.61, 128.43 -0.5, 200.67 0.14 M200.25 1.42 C197.67 22.42, 199.79 45.6, 198.76 83.66 M200.65 -0.94 C200.14 23.9, 199.36 48.85, 200.55 85.74 M201.6 83.34 C147.76 86.13, 94.64 83.5, -1.54 83.81 M200.83 85.08 C136.77 87.32, 72.79 87.11, 0.72 85.84 M-1.5 84.52 C-0.48 62.04, -1.52 39.44, 1.23 1.84 M-0.59 85.8 C0.15 51.32, 0.21 19.81, -0.18 0.1" stroke="#a371f7" stroke-width="2" fill="none"></path></g><g transform="translate(676.0955800427172 27.5) rotate(0 68.45994567871094 25)"><text x="68.45994567871094" y="NaN" font-family="Virgil, Segoe UI Emoji" font-size="20px" fill="#ffffff" text-anchor="middle" style="white-space: pre;" direction="ltr">Participant 1</text><text x="68.45994567871094" y="NaN" font-family="Virgil, Segoe UI Emoji" font-size="20px" fill="#ffffff" text-anchor="middle" style="white-space: pre;" direction="ltr">Paxos Leader</text></g><g stroke-linecap="round"><g transform="translate(744.5555257214281 60) rotate(0 -1.7296345383076641 1251.3635168102003)"><path d="M-0.39 -1.18 C-0.78 416.12, -2.4 2085.61, -3.04 2503.12" stroke="#30363d" stroke-width="1.5" fill="none" stroke-dasharray="8 9"></path></g></g><g stroke-linecap="round" transform="translate(644.0700969545462 2564.849187179221) rotate(0 100 42.5)"><path d="M0.42 -1.83 L199.49 0.25 L200.57 85.95 L-1.04 83.19" stroke="none" stroke-width="0" fill="#3a1d6e"></path><path d="M-0.27 0.66 C67.58 -1.12, 135.95 -1.37, 200.18 0.34 M0.01 -0.82 C42.16 -1.8, 85.41 -1.53, 200.13 0.52 M199.53 1.78 C198.37 27.91, 199.66 55.22, 198.39 86.35 M199.34 0.64 C200.49 18.86, 200.76 35.76, 199.91 84.6 M198.89 86.79 C153.4 84.14, 105.47 87.35, 1.06 85.19 M199.76 85.84 C151.97 84.19, 105.51 84.85, 0.07 84.78 M-1.58 86.4 C-0.24 65.87, -0.56 51.46, 1.37 1.23 M-0.08 85.6 C-1.76 53.48, -1.47 21.92, -0.93 -0.77" stroke="#a371f7" stroke-width="2" fill="none"></path></g><g transform="translate(675.6101512758353 2582.349187179221) rotate(0 68.45994567871094 25)"><text x="68.45994567871094" y="NaN" font-family="Virgil, Segoe UI Emoji" font-size="20px" fill="#ffffff" text-anchor="middle" style="white-space: pre;" direction="ltr">Participant 1</text><text x="68.45994567871094" y="NaN" font-family="Virgil, Segoe UI Emoji" font-size="20px" fill="#ffffff" text-anchor="middle" style="white-space: pre;" direction="ltr">Paxos Leader</text></g><g stroke-linecap="round" transform="translate(924.5555257214281 10) rotate(0 100 42.5)"><path d="M1.68 0.3 L198.54 0.33 L198.96 84.18 L1.34 84.08" stroke="none" stroke-width="0" fill="#3a1d6e"></path><path d="M-0.75 -1.15 C81.12 -1.15, 160.98 -1.3, 198.85 1.19 M-0.15 -0.31 C61.6 -0.2, 121.85 -1.01, 200.47 0.43 M199.46 1.66 C202.2 25.8, 202.08 48.83, 198.26 83.5 M200.38 0.09 C201.24 27.99, 200.73 53.39, 199.36 84.21 M199.32 85.57 C155.99 85.8, 115.64 85.51, -1.2 86.44 M199.34 85.36 C146.06 84.88, 93.99 84.57, -0.58 85.83 M-0.09 84.63 C-0.54 58.28, -0.21 31.71, -0.73 -0.27 M-0.12 84.87 C1.08 61.12, -0.58 35.15, -0.15 0.18" stroke="#a371f7" stroke-width="2" fill="none"></path></g><g transform="translate(956.0955800427172 27.5) rotate(0 68.45994567871094 25)"><text x="68.45994567871094" y="NaN" font-family="Virgil, Segoe UI Emoji" font-size="20px" fill="#ffffff" text-anchor="middle" style="white-space: pre;" direction="ltr">Participant 2</text><text x="68.45994567871094" y="NaN" font-family="Virgil, Segoe UI Emoji" font-size="20px" fill="#ffffff" text-anchor="middle" style="white-space: pre;" direction="ltr">Paxos Leader</text></g><g stroke-linecap="round"><g transform="translate(1024.5555257214282 60) rotate(0 -0.21208052922020215 1253.7906606446104)"><path d="M0.92 -0.38 C0.59 417.65, -0.78 2090.54, -1.04 2508.57" stroke="#30363d" stroke-width="1.5" fill="none" stroke-dasharray="8 9"></path></g></g><g stroke-linecap="round" transform="translate(923.8627293259752 2565) rotate(0 100 42.5)"><path d="M1.76 -0.34 L199.83 -0.35 L199.62 83.78 L-1.74 83.11" stroke="none" stroke-width="0" fill="#3a1d6e"></path><path d="M-0.52 1.11 C52.43 1.2, 102.29 -0.89, 200.13 -0.71 M-0.19 -0.55 C45.66 0.14, 92.47 -0.19, 199.25 0.31 M198.94 1.54 C201.02 33.57, 198.04 63.79, 198.88 83.58 M199.88 0.06 C200.31 33.1, 199.79 64.63, 199.99 85.43 M200.51 83.88 C120.96 86.17, 43.8 86.56, -1.77 86.05 M200.05 85.52 C148.95 85.03, 96.63 85.4, 0.01 85.65 M1.33 83.93 C-1.47 56.53, -0.49 27.17, -1.87 -1.84 M-0.5 85.43 C0.01 66.85, -0.51 47.52, 0.71 0.36" stroke="#a371f7" stroke-width="2" fill="none"></path></g><g transform="translate(955.4027836472643 2582.5) rotate(0 68.45994567871094 25)"><text x="68.45994567871094" y="NaN" font-family="Virgil, Segoe UI Emoji" font-size="20px" fill="#ffffff" text-anchor="middle" style="white-space: pre;" direction="ltr">Participant 2</text><text x="68.45994567871094" y="NaN" font-family="Virgil, Segoe UI Emoji" font-size="20px" fill="#ffffff" text-anchor="middle" style="white-space: pre;" direction="ltr">Paxos Leader</text></g><g stroke-linecap="round" transform="translate(1204.5555257214282 10) rotate(0 100 25)"><path d="M-1 0.56 L201.41 0.44 L200.54 49.97 L-1.82 50.98" stroke="none" stroke-width="0" fill="#3a1d6e"></path><path d="M1.56 -0.46 C61.34 -3.14, 122.48 -0.01, 200.7 -1.23 M-0.12 0.01 C62.23 -0.16, 122.79 0.11, 199.57 -0.83 M198.76 0.23 C198.61 11.49, 201.59 25.28, 199.34 50.71 M200.5 0.06 C199.79 18.87, 198.92 35.72, 200.96 49.24 M200.17 51.61 C132.94 49, 64.03 50.53, 0.58 49.03 M199.23 49.83 C156.75 50.15, 114.85 50.02, -0.52 49.8 M1.64 49.43 C1.18 32.62, -0.33 15.09, 0.65 1.8 M0.72 49.85 C-1.34 34.13, 0.25 16.93, -0.8 -0.62" stroke="#a371f7" stroke-width="2" fill="none"></path></g><g transform="translate(1235.415587366936 22.5) rotate(0 69.13993835449219 12.5)"><text x="69.13993835449219" y="NaN" font-family="Virgil, Segoe UI Emoji" font-size="20px" fill="#ffffff" text-anchor="middle" style="white-space: pre;" direction="ltr">TrueTime API</text></g><g stroke-linecap="round"><g transform="translate(1304.2209097753253 60) rotate(0 -0.6927963954528877 1250.2418464556577)"><path d="M1.06 0.3 C0.68 417.15, -0.88 2084.3, -1.24 2501.02" stroke="#30363d" stroke-width="1.5" fill="none" stroke-dasharray="8 9"></path></g></g><g stroke-linecap="round" transform="translate(1204.5555257214282 2565) rotate(0 100 25)"><path d="M-1.74 0.73 L201.06 0.91 L198.63 49.13 L-1.94 51.47" stroke="none" stroke-width="0" fill="#3a1d6e"></path><path d="M-0.83 1.64 C64.43 0.42, 124.38 -0.32, 199.9 0.88 M-0.88 -0.04 C52.04 -1.05, 102.93 -1.46, 199.46 -0.32 M199.41 -0.55 C201.96 19.5, 201.13 34.96, 198.87 50.72 M199.68 0.93 C200.94 17.59, 199.62 35.28, 200.02 50.87 M200.15 49.08 C148.63 49.6, 92.87 47.79, -0.56 51.21 M199.9 49.89 C147.68 50.41, 94.17 50.19, -0.6 50.68 M1.77 49.05 C1.54 32.38, 1.69 13.23, -0.5 -1.09 M-0.56 50.98 C0.49 33.23, 0.67 15.58, -0.36 0.93" stroke="#a371f7" stroke-width="2" fill="none"></path></g><g transform="translate(1235.415587366936 2577.5) rotate(0 69.13993835449219 12.5)"><text x="69.13993835449219" y="NaN" font-family="Virgil, Segoe UI Emoji" font-size="20px" fill="#ffffff" text-anchor="middle" style="white-space: pre;" direction="ltr">TrueTime API</text></g><g stroke-opacity="0.85" fill-opacity="0.85" stroke-linecap="round" transform="translate(652.215634941352 108.42176384239389) rotate(0 90.80000000000001 22)"><path d="M-0.63 -0.49 L183.13 -0.36 L182.77 43.95 L1.27 45.36" stroke="none" stroke-width="0" fill="#1f4d2b"></path><path d="M-0.33 0.03 C42.35 2.2, 85.68 2.18, 183.41 0.89 M-0.49 -0.66 C67.66 0.93, 134.29 -0.87, 181.12 -0.27 M179.96 -0.76 C181.64 9.52, 182.86 20.69, 182.28 43.81 M181.72 0.22 C182.29 10.72, 182.11 20.7, 181.08 44.72 M181.86 45.89 C144.04 42.44, 103.07 43.02, 0.1 42.98 M182.18 43.71 C128.72 42.68, 73.09 42.61, 0.57 44.93 M-0.69 43.42 C0.32 34.29, 1.9 22.98, -1.47 -1.55 M-0.67 44.91 C-0.51 28.24, 0.06 13.67, 0.15 0.98" stroke="#3fb950" stroke-width="2" fill="none"></path></g><g transform="translate(669.2556709520942 120.42176384239389) rotate(0 73.75996398925781 10)"><text x="73.75996398925781" y="NaN" font-family="Virgil, Segoe UI Emoji" font-size="16px" fill="#ffffff" text-anchor="middle" style="white-space: pre;" direction="ltr">Transaction Start</text></g><g stroke-linecap="round"><g transform="translate(184.55552572142813 140) rotate(0 140 0)"><path d="M-0.23 -0.2 C46.41 -0.2, 232.66 0.31, 279.27 0.39 M-1.81 -1.36 C45.27 -1.75, 234.9 -2.04, 281.59 -1.53" stroke="#c9d1d9" stroke-width="2" fill="none"></path></g><g transform="translate(184.55552572142813 140) rotate(0 140 0)"><path d="M253.03 7.41 C261.01 5.17, 267.85 2.83, 281 -2.83 M254.12 9.24 C263.77 5.03, 275.52 1.5, 282.1 -2.35" stroke="#c9d1d9" stroke-width="2" fill="none"></path></g><g transform="translate(184.55552572142813 140) rotate(0 140 0)"><path d="M253.1 -13.11 C261.12 -10.25, 267.95 -7.48, 281 -2.83 M254.2 -11.28 C263.75 -7.32, 275.47 -2.68, 282.1 -2.35" stroke="#c9d1d9" stroke-width="2" fill="none"></path></g></g><g transform="translate(244.9415807141039 128.75) rotate(0 79.61394500732422 11.25)"><text x="79.61394500732422" y="NaN" font-family="Virgil, Segoe UI Emoji" font-size="18px" fill="#c9d1d9" text-anchor="middle" style="white-space: pre;" direction="ltr">Begin Transaction</text></g><g stroke-linecap="round"><g transform="translate(464.5555257214281 220) rotate(0 420 0)"><path d="M1 -0.05 C141.22 0.27, 701.35 0.85, 841.01 1.03 M0.07 -1.12 C140.24 -1.03, 700.38 -0.61, 840.6 -0.55" stroke="#c9d1d9" stroke-width="2" fill="none"></path></g><g transform="translate(464.5555257214281 220) rotate(0 420 0)"><path d="M812.32 11.39 C821.97 4.96, 829.76 4.52, 839.64 -0.97 M811.77 8.95 C823.93 5.77, 834.63 2.25, 841.33 0.45" stroke="#c9d1d9" stroke-width="2" fill="none"></path></g><g transform="translate(464.5555257214281 220) rotate(0 420 0)"><path d="M812.33 -9.14 C821.83 -9.9, 829.61 -4.68, 839.64 -0.97 M811.78 -11.57 C823.98 -6.75, 834.68 -2.28, 841.33 0.45" stroke="#c9d1d9" stroke-width="2" fill="none"></path></g></g><g transform="translate(846.1705464733813 208.75) rotate(0 38.384979248046875 11.25)"><text x="38.384979248046875" y="NaN" font-family="Virgil, Segoe UI Emoji" font-size="18px" fill="#c9d1d9" text-anchor="middle" style="white-space: pre;" direction="ltr">TT.now()</text></g><g stroke-linecap="round"><g transform="translate(1304.5555257214282 300) rotate(0 -420 0)"><path d="M0.82 0.35 C-139.39 0.38, -700.31 0.69, -840.39 0.61" stroke="#c9d1d9" stroke-width="2.5" fill="none" stroke-dasharray="8 10"></path></g><g transform="translate(1304.5555257214282 300) rotate(0 -420 0)"><path d="M-811.62 -10.3 C-821.63 -5.09, -833.42 -0.22, -838.69 -0.92" stroke="#c9d1d9" stroke-width="2.5" fill="none"></path></g><g transform="translate(1304.5555257214282 300) rotate(0 -420 0)"><path d="M-811.61 10.22 C-821.7 7.8, -833.49 5.04, -838.69 -0.92" stroke="#c9d1d9" stroke-width="2.5" fill="none"></path></g></g><g transform="translate(806.4445790661547 288.75) rotate(0 78.11094665527344 11.25)"><text x="78.11094665527344" y="NaN" font-family="Virgil, Segoe UI Emoji" font-size="18px" fill="#c9d1d9" text-anchor="middle" style="white-space: pre;" direction="ltr">[earliest, latest]</text></g><g stroke-linecap="round"><g transform="translate(464.5555257214281 380) rotate(0 -140 0)"><path d="M-0.44 0.68 C-46.93 0.89, -232.42 0.23, -278.95 0.29" stroke="#c9d1d9" stroke-width="2.5" fill="none" stroke-dasharray="8 10"></path></g><g transform="translate(464.5555257214281 380) rotate(0 -140 0)"><path d="M-249.62 -8.18 C-258.78 -6.3, -265.98 -3.33, -277.97 -0.61" stroke="#c9d1d9" stroke-width="2.5" fill="none"></path></g><g transform="translate(464.5555257214281 380) rotate(0 -140 0)"><path d="M-249.65 12.34 C-258.63 8.08, -265.82 4.91, -277.97 -0.61" stroke="#c9d1d9" stroke-width="2.5" fill="none"></path></g></g><g transform="translate(231.53157705199453 368.75) rotate(0 93.0239486694336 11.25)"><text x="93.0239486694336" y="NaN" font-family="Virgil, Segoe UI Emoji" font-size="18px" fill="#c9d1d9" text-anchor="middle" style="white-space: pre;" direction="ltr">Transaction Started</text></g><g stroke-opacity="0.85" fill-opacity="0.85" stroke-linecap="round" transform="translate(636.1555257214281 398) rotate(0 108.40000000000003 22)"><path d="M0.37 -1.86 L218.1 -0.42 L214.91 43.9 L-1.6 42.2" stroke="none" stroke-width="0" fill="#1f4d2b"></path><path d="M0.65 -0.44 C65.56 -2.62, 132.58 -1.92, 218 -1.36 M0.41 0.3 C56.54 -0.72, 114.18 -0.29, 216.35 0.87 M215.04 -1.67 C215.31 16.6, 218.82 32.33, 216.97 45.58 M217.09 -0.58 C216.27 15.17, 216.11 30.09, 217.21 44.82 M215.32 44.09 C166.21 44.4, 113.18 44.34, -1.66 44.6 M217.35 43.8 C136.57 45.18, 54.59 44.61, 0.71 44 M0.91 44.45 C-0.55 28.6, 1.26 10.29, -1.86 -1.25 M0.25 44.59 C-0.67 27.89, 1.21 13.07, -0.37 0.67" stroke="#3fb950" stroke-width="2" fill="none"></path></g><g transform="translate(655.1235799206469 410) rotate(0 89.43194580078125 10)"><text x="89.43194580078125" y="NaN" font-family="Virgil, Segoe UI Emoji" font-size="16px" fill="#ffffff" text-anchor="middle" style="white-space: pre;" direction="ltr">Read/Write Operations</text></g><g stroke-linecap="round"><g transform="translate(184.55552572142813 460) rotate(0 140 0)"><path d="M-0.8 0.7 C45.92 0.45, 233.72 -0.75, 280.38 -0.87 M0.98 0.01 C47.57 -0.15, 232.86 0, 279.63 0.21" stroke="#c9d1d9" stroke-width="2" fill="none"></path></g><g transform="translate(184.55552572142813 460) rotate(0 140 0)"><path d="M252.57 11.04 C258.49 6.11, 268.45 5.03, 281.19 2.11 M251.36 9.9 C258.19 8.72, 264.09 6.83, 280.34 0.56" stroke="#c9d1d9" stroke-width="2" fill="none"></path></g><g transform="translate(184.55552572142813 460) rotate(0 140 0)"><path d="M252.62 -9.48 C258.62 -8.18, 268.57 -3.02, 281.19 2.11 M251.41 -10.62 C258.08 -7.4, 263.98 -4.9, 280.34 0.56" stroke="#c9d1d9" stroke-width="2" fill="none"></path></g></g><g transform="translate(275.3435582531664 437.5) rotate(0 49.21196746826172 22.5)"><text x="49.21196746826172" y="NaN" font-family="Virgil, Segoe UI Emoji" font-size="18px" fill="#c9d1d9" text-anchor="middle" style="white-space: pre;" direction="ltr">Read/Write</text><text x="49.21196746826172" y="NaN" font-family="Virgil, Segoe UI Emoji" font-size="18px" fill="#c9d1d9" text-anchor="middle" style="white-space: pre;" direction="ltr">Operations</text></g><g stroke-linecap="round"><g transform="translate(464.5555257214281 540) rotate(0 140 0)"><path d="M-0.79 0.14 C45.65 -0.05, 233.1 -0.09, 279.85 -0.14 M0.99 -0.83 C47.17 -0.31, 232.53 1, 278.83 1.32" stroke="#c9d1d9" stroke-width="2" fill="none"></path></g><g transform="translate(464.5555257214281 540) rotate(0 140 0)"><path d="M250.81 11.14 C261.5 7.09, 272.74 4.96, 277.28 0.98 M251.45 11.36 C259.65 8.89, 268.1 5.01, 278.25 0.76" stroke="#c9d1d9" stroke-width="2" fill="none"></path></g><g transform="translate(464.5555257214281 540) rotate(0 140 0)"><path d="M250.95 -9.38 C261.76 -5.26, 272.94 0.78, 277.28 0.98 M251.59 -9.16 C259.67 -5.4, 268.09 -3.04, 278.25 0.76" stroke="#c9d1d9" stroke-width="2" fill="none"></path></g></g><g transform="translate(506.57260030638906 528.75) rotate(0 97.98292541503906 11.25)"><text x="97.98292541503906" y="NaN" font-family="Virgil, Segoe UI Emoji" font-size="18px" fill="#c9d1d9" text-anchor="middle" style="white-space: pre;" direction="ltr">Forward Reads/Writes</text></g><g stroke-linecap="round"><g transform="translate(464.5555257214281 620) rotate(0 280 0)"><path d="M0.86 -0.09 C94.1 0.21, 467.43 0.54, 560.42 0.64 M-0.15 -1.18 C92.89 -1.13, 466.15 -1.08, 559.69 -1.15" stroke="#c9d1d9" stroke-width="2" fill="none"></path></g><g transform="translate(464.5555257214281 620) rotate(0 280 0)"><path d="M531.35 9.82 C543.32 3.07, 553.74 -0.43, 560.53 0.74 M531.32 9.12 C539.23 6.01, 547.77 3.99, 559.07 -0.76" stroke="#c9d1d9" stroke-width="2" fill="none"></path></g><g transform="translate(464.5555257214281 620) rotate(0 280 0)"><path d="M531.35 -10.7 C543.12 -9.7, 553.53 -5.45, 560.53 0.74 M531.32 -11.4 C539.05 -8.73, 547.58 -4.97, 559.07 -0.76" stroke="#c9d1d9" stroke-width="2" fill="none"></path></g></g><g transform="translate(646.5726003063891 608.75) rotate(0 97.98292541503906 11.25)"><text x="97.98292541503906" y="NaN" font-family="Virgil, Segoe UI Emoji" font-size="18px" fill="#c9d1d9" text-anchor="middle" style="white-space: pre;" direction="ltr">Forward Reads/Writes</text></g><g stroke-linecap="round"><g transform="translate(744.5555257214281 700) rotate(0 -140 0)"><path d="M0.15 -0.5 C-46.23 -0.44, -232.09 -0.01, -278.86 0.25" stroke="#c9d1d9" stroke-width="2.5" fill="none" stroke-dasharray="8 10"></path></g><g transform="translate(744.5555257214281 700) rotate(0 -140 0)"><path d="M-251.55 -8.22 C-257.33 -8.34, -263.03 -4.42, -277.04 0.75" stroke="#c9d1d9" stroke-width="2.5" fill="none"></path></g><g transform="translate(744.5555257214281 700) rotate(0 -140 0)"><path d="M-251.47 12.3 C-257.26 7.06, -262.98 5.86, -277.04 0.75" stroke="#c9d1d9" stroke-width="2.5" fill="none"></path></g></g><g transform="translate(571.1925496472094 688.75) rotate(0 33.36297607421875 11.25)"><text x="33.36297607421875" y="NaN" font-family="Virgil, Segoe UI Emoji" font-size="18px" fill="#c9d1d9" text-anchor="middle" style="white-space: pre;" direction="ltr">Results</text></g><g stroke-linecap="round"><g transform="translate(1024.5555257214282 755) rotate(0 -280 0)"><path d="M-0.16 -0.36 C-93.58 -0.64, -467.45 -0.58, -560.82 -0.57" stroke="#c9d1d9" stroke-width="2.5" fill="none" stroke-dasharray="8 10"></path></g><g transform="translate(1024.5555257214282 755) rotate(0 -280 0)"><path d="M-533.24 -12.21 C-541.29 -8.7, -548.62 -6.19, -561.05 0.17" stroke="#c9d1d9" stroke-width="2.5" fill="none"></path></g><g transform="translate(1024.5555257214282 755) rotate(0 -280 0)"><path d="M-533.24 8.31 C-541.47 6.15, -548.81 2.99, -561.05 0.17" stroke="#c9d1d9" stroke-width="2.5" fill="none"></path></g></g><g transform="translate(711.1925496472094 743.75) rotate(0 33.36297607421875 11.25)"><text x="33.36297607421875" y="NaN" font-family="Virgil, Segoe UI Emoji" font-size="18px" fill="#c9d1d9" text-anchor="middle" style="white-space: pre;" direction="ltr">Results</text></g><g stroke-linecap="round"><g transform="translate(464.40942580129865 825) rotate(0 -140 0)"><path d="M0.53 1.2 C-46.42 1.04, -234.34 -0.35, -281.1 -0.63" stroke="#c9d1d9" stroke-width="2.5" fill="none" stroke-dasharray="8 10"></path></g><g transform="translate(464.40942580129865 825) rotate(0 -140 0)"><path d="M-250.85 -12.54 C-263.7 -7.15, -273.28 -4.79, -279.44 0.11" stroke="#c9d1d9" stroke-width="2.5" fill="none"></path></g><g transform="translate(464.40942580129865 825) rotate(0 -140 0)"><path d="M-250.98 7.98 C-263.84 6.23, -273.37 1.46, -279.44 0.11" stroke="#c9d1d9" stroke-width="2.5" fill="none"></path></g></g><g transform="translate(291.1925496472094 813.75) rotate(0 33.36297607421875 11.25)"><text x="33.36297607421875" y="NaN" font-family="Virgil, Segoe UI Emoji" font-size="18px" fill="#c9d1d9" text-anchor="middle" style="white-space: pre;" direction="ltr">Results</text></g><g stroke-opacity="0.85" fill-opacity="0.85" stroke-linecap="round" transform="translate(658.0047129006491 858) rotate(0 86.40000000000003 22)"><path d="M0.14 1.88 L174.29 0.89 L171.1 44.26 L1.99 45.48" stroke="none" stroke-width="0" fill="#1f4d2b"></path><path d="M0.89 0.91 C64.33 1.49, 128.86 1.32, 172.71 -1.31 M0.33 0.15 C57.11 -1.81, 114.56 -0.57, 172.47 0.99 M172 0.16 C174.68 13.92, 174.03 31.15, 172.66 42.95 M173.06 -0.69 C173.87 16.08, 173.79 31.23, 173.77 44.38 M172 43.57 C121.5 44.29, 68.11 43, 1.36 42.66 M173.03 43.93 C134.5 46.06, 95.32 46.09, 0.36 43.37 M-1.23 44.03 C0 29.75, -1.3 14.42, 1.71 1.73 M0.42 43.57 C-0.85 26.94, 0.33 9.48, -0.8 -0.38" stroke="#3fb950" stroke-width="2" fill="none"></path></g><g transform="translate(672.1007654519186 870) rotate(0 72.30394744873047 10)"><text x="72.30394744873047" y="NaN" font-family="Virgil, Segoe UI Emoji" font-size="16px" fill="#ffffff" text-anchor="middle" style="white-space: pre;" direction="ltr">Two-Phase Commit</text></g><g stroke-linecap="round"><g transform="translate(184.55552572142813 930) rotate(0 140 0)"><path d="M-0.12 0.4 C46.29 0.27, 232.19 -0.13, 278.92 -0.27 M-1.65 -0.43 C45.09 -0.42, 234.18 0.94, 281.07 1.13" stroke="#c9d1d9" stroke-width="2" fill="none"></path></g><g transform="translate(184.55552572142813 930) rotate(0 140 0)"><path d="M253.49 9.43 C261.83 8.37, 271.09 2.94, 281.46 1.13 M253.78 10.74 C260.64 7.75, 268.3 4.59, 280.99 0.41" stroke="#c9d1d9" stroke-width="2" fill="none"></path></g><g transform="translate(184.55552572142813 930) rotate(0 140 0)"><path d="M253.61 -11.09 C261.99 -5.25, 271.22 -3.79, 281.46 1.13 M253.9 -9.78 C260.73 -6.86, 268.36 -4.11, 280.99 0.41" stroke="#c9d1d9" stroke-width="2" fill="none"></path></g></g><g transform="translate(295.3235387219164 918.75) rotate(0 29.23198699951172 11.25)"><text x="29.23198699951172" y="NaN" font-family="Virgil, Segoe UI Emoji" font-size="18px" fill="#c9d1d9" text-anchor="middle" style="white-space: pre;" direction="ltr">Commit</text></g><g stroke-opacity="0.85" fill-opacity="0.85" stroke-linecap="round" transform="translate(653.6 948) rotate(0 90.80000000000001 22)"><path d="M-0.67 1.82 L180.23 -0.6 L181.17 43.36 L-1.29 43.36" stroke="none" stroke-width="0" fill="#1f4d2b"></path><path d="M-1.98 0.51 C40.2 0.17, 80.93 3.56, 179.91 -0.53 M0.31 0.85 C43.8 -0.7, 88.94 -2.33, 182.41 0.04 M183.44 1.92 C181.4 12.38, 179.46 22.55, 180.85 44.62 M181.53 -0.42 C182.17 12.33, 181.5 25.6, 182.57 44.58 M180.21 44.07 C128.01 43.78, 72.86 42.62, 0.53 42.54 M180.73 43.44 C126.71 44.68, 70.05 43.54, -0.31 43.32 M-0.02 43.42 C0.31 30.45, -0.84 14.53, -1.96 -0.85 M0.15 43.59 C0.79 34.35, -0.7 23.87, 0.3 0.74" stroke="#3fb950" stroke-width="2" fill="none"></path></g><g transform="translate(673.4480499267578 960) rotate(0 70.95195007324219 10)"><text x="70.95195007324219" y="NaN" font-family="Virgil, Segoe UI Emoji" font-size="16px" fill="#ffffff" text-anchor="middle" style="white-space: pre;" direction="ltr">Phase 1 - Prepare</text></g><g stroke-linecap="round"><g transform="translate(464.5555257214281 1020) rotate(0 140 0)"><path d="M-0.36 -0.62 C46.08 -0.44, 232.51 0.95, 279.41 0.88 M1.66 1.66 C48.42 1.54, 235.29 -0.46, 281.81 -0.78" stroke="#c9d1d9" stroke-width="2" fill="none"></path></g><g transform="translate(464.5555257214281 1020) rotate(0 140 0)"><path d="M252.68 8.75 C265.56 7.68, 272.7 2.75, 282.51 0.74 M254.63 9.44 C259.64 7.45, 266.03 5.01, 281.68 -0.6" stroke="#c9d1d9" stroke-width="2" fill="none"></path></g><g transform="translate(464.5555257214281 1020) rotate(0 140 0)"><path d="M252.49 -11.77 C265.4 -5.28, 272.61 -2.65, 282.51 0.74 M254.45 -11.08 C259.64 -8.59, 266.07 -6.54, 281.68 -0.6" stroke="#c9d1d9" stroke-width="2" fill="none"></path></g></g><g transform="translate(570.5805501354906 1008.75) rotate(0 33.9749755859375 11.25)"><text x="33.9749755859375" y="NaN" font-family="Virgil, Segoe UI Emoji" font-size="18px" fill="#c9d1d9" text-anchor="middle" style="white-space: pre;" direction="ltr">Prepare</text></g><g stroke-linecap="round"><g transform="translate(464.5555257214281 1070) rotate(0 280 0)"><path d="M-0.08 0.93 C93.6 0.97, 467.65 -0.64, 561.01 -0.68 M-1.58 0.38 C92.12 0.64, 467.1 0.78, 560.59 0.49" stroke="#c9d1d9" stroke-width="2" fill="none"></path></g><g transform="translate(464.5555257214281 1070) rotate(0 280 0)"><path d="M533.96 12.46 C537.35 8.71, 545.61 7.29, 561.13 2 M531.63 11.23 C540.77 7.77, 548.96 4.48, 560.95 0.94" stroke="#c9d1d9" stroke-width="2" fill="none"></path></g><g transform="translate(464.5555257214281 1070) rotate(0 280 0)"><path d="M533.94 -8.06 C537.17 -7.44, 545.44 -4.49, 561.13 2 M531.61 -9.29 C540.94 -6.34, 549.14 -3.2, 560.95 0.94" stroke="#c9d1d9" stroke-width="2" fill="none"></path></g></g><g transform="translate(710.5805501354906 1058.75) rotate(0 33.9749755859375 11.25)"><text x="33.9749755859375" y="NaN" font-family="Virgil, Segoe UI Emoji" font-size="18px" fill="#c9d1d9" text-anchor="middle" style="white-space: pre;" direction="ltr">Prepare</text></g><g stroke-linecap="round"><g transform="translate(745.7808798902564 1125.5455337084752) rotate(0 42.5810882834121 27.442057714256748)"><path d="M-0.3 0.7 C14.16 1.04, 73.39 -6.53, 87.32 2.21 C101.24 10.94, 97.93 44.23, 83.25 53.12 C68.58 62.02, 13.37 55.25, -0.74 55.6 M1.74 0.02 C16.01 -0.04, 73.08 -8.86, 86.49 0.21 C99.89 9.27, 97.18 45.54, 82.18 54.4 C67.18 63.27, 10.6 53.2, -3.53 53.41" stroke="#c9d1d9" stroke-width="2" fill="none"></path></g><g transform="translate(745.7808798902564 1125.5455337084752) rotate(0 42.5810882834121 27.442057714256748)"><path d="M26.57 45.85 C15.7 47.21, 5.08 52.94, -2.35 54.3 M25.9 44.61 C16.88 48.49, 6.31 50.82, -3.56 53.43" stroke="#c9d1d9" stroke-width="2" fill="none"></path></g><g transform="translate(745.7808798902564 1125.5455337084752) rotate(0 42.5810882834121 27.442057714256748)"><path d="M24.89 66.31 C14.58 60.52, 4.55 59.11, -2.35 54.3 M24.22 65.06 C15.69 62.3, 5.66 58.02, -3.56 53.43" stroke="#c9d1d9" stroke-width="2" fill="none"></path></g></g><g transform="translate(736.3767664284811 1132.5) rotate(0 75.52794647216797 22.5)"><text x="75.52794647216797" y="NaN" font-family="Virgil, Segoe UI Emoji" font-size="18px" fill="#c9d1d9" text-anchor="middle" style="white-space: pre;" direction="ltr">Acquire locks, log</text><text x="75.52794647216797" y="NaN" font-family="Virgil, Segoe UI Emoji" font-size="18px" fill="#c9d1d9" text-anchor="middle" style="white-space: pre;" direction="ltr">prepare</text></g><g stroke-linecap="round"><g transform="translate(744.4094258012987 1225) rotate(0 -140 0)"><path d="M0.09 0.04 C-46.83 0.09, -234.01 -0.12, -280.58 -0.18" stroke="#c9d1d9" stroke-width="2.5" fill="none" stroke-dasharray="8 10"></path></g><g transform="translate(744.4094258012987 1225) rotate(0 -140 0)"><path d="M-252.31 -11.37 C-263.35 -5.38, -274.19 -1.59, -282.56 0.3" stroke="#c9d1d9" stroke-width="2.5" fill="none"></path></g><g transform="translate(744.4094258012987 1225) rotate(0 -140 0)"><path d="M-252.33 9.15 C-263.29 7.4, -274.11 3.46, -282.56 0.3" stroke="#c9d1d9" stroke-width="2.5" fill="none"></path></g></g><g transform="translate(518.8665685070727 1202.5) rotate(0 85.68895721435547 22.5)"><text x="85.68895721435547" y="NaN" font-family="Virgil, Segoe UI Emoji" font-size="18px" fill="#c9d1d9" text-anchor="middle" style="white-space: pre;" direction="ltr">Vote Yes + prepare</text><text x="85.68895721435547" y="NaN" font-family="Virgil, Segoe UI Emoji" font-size="18px" fill="#c9d1d9" text-anchor="middle" style="white-space: pre;" direction="ltr">timestamp</text></g><g stroke-linecap="round"><g transform="translate(1031.8039669201125 1266.4099943053077) rotate(0 48.422728638268836 19.64927649057381)"><path d="M-0.41 0.84 C15.41 -2.1, 79.97 -26.63, 95.8 -17.31 C111.64 -7.99, 110.45 46.77, 94.62 56.75 C78.78 66.73, 16.6 45.21, 0.81 42.59 M1.58 0.23 C17.68 -2.59, 82.6 -25.29, 97.97 -16.18 C113.34 -7.07, 109.98 45.42, 93.82 54.88 C77.66 64.35, 16.39 42.9, 1.01 40.61" stroke="#c9d1d9" stroke-width="2" fill="none"></path></g><g transform="translate(1031.8039669201125 1266.4099943053077) rotate(0 48.422728638268836 19.64927649057381)"><path d="M32.23 35.68 C18.47 38.39, 10.16 39.55, 2.82 38.92 M30.01 36.68 C23.39 37.35, 16.12 38.16, 0.12 39.67" stroke="#c9d1d9" stroke-width="2" fill="none"></path></g><g transform="translate(1031.8039669201125 1266.4099943053077) rotate(0 48.422728638268836 19.64927649057381)"><path d="M27.3 55.6 C15.32 50.92, 8.85 44.66, 2.82 38.92 M25.08 56.6 C19.71 52.13, 13.71 47.77, 0.12 39.67" stroke="#c9d1d9" stroke-width="2" fill="none"></path></g></g><g transform="translate(1024.822284392098 1270.564997611125) rotate(0 75.52794647216797 22.5)"><text x="75.52794647216797" y="NaN" font-family="Virgil, Segoe UI Emoji" font-size="18px" fill="#c9d1d9" text-anchor="middle" style="white-space: pre;" direction="ltr">Acquire locks, log</text><text x="75.52794647216797" y="NaN" font-family="Virgil, Segoe UI Emoji" font-size="18px" fill="#c9d1d9" text-anchor="middle" style="white-space: pre;" direction="ltr">prepare</text></g><g stroke-linecap="round"><g transform="translate(1024.5555257214282 1335) rotate(0 -280 0)"><path d="M0.83 -0.22 C-92.4 -0.27, -465.73 -1.25, -559.13 -1.19" stroke="#c9d1d9" stroke-width="2.5" fill="none" stroke-dasharray="8 10"></path></g><g transform="translate(1024.5555257214282 1335) rotate(0 -280 0)"><path d="M-531.3 -9.97 C-542.1 -7.22, -549.02 -6.2, -560.39 -2.65" stroke="#c9d1d9" stroke-width="2.5" fill="none"></path></g><g transform="translate(1024.5555257214282 1335) rotate(0 -280 0)"><path d="M-531.33 10.55 C-541.96 6.68, -548.88 1.07, -560.39 -2.65" stroke="#c9d1d9" stroke-width="2.5" fill="none"></path></g></g><g transform="translate(610.5815877331469 1323.75) rotate(0 133.97393798828125 11.25)"><text x="133.97393798828125" y="NaN" font-family="Virgil, Segoe UI Emoji" font-size="18px" fill="#c9d1d9" text-anchor="middle" style="white-space: pre;" direction="ltr">Vote Yes + prepare timestamp</text></g><g stroke-opacity="0.85" fill-opacity="0.85" stroke-linecap="round" transform="translate(723.0633258811691 1367.8539000798705) rotate(0 161.20000000000005 22)"><path d="M1.72 0.46 L324.3 1.45 L321.55 44.8 L-0.49 45.37" stroke="none" stroke-width="0" fill="#1f4d2b"></path><path d="M1.17 0.98 C108.76 0.94, 216.6 -1.32, 322.28 0.32 M-0.52 -0.57 C117.88 -0.57, 235.14 -0.05, 322.81 -0.45 M321.51 -0.11 C322.36 8.95, 324.64 19.35, 323.27 45.36 M322.37 0.8 C322.35 15.14, 321.66 31.38, 322.94 43.52 M322.67 43.23 C217.53 44.51, 110.08 42.32, 0.83 44.58 M322.23 43.95 C233.6 45, 145.65 45.06, 0.18 43.9 M0.55 45.38 C0.44 30.29, -2.18 17.55, 1.97 -1.89 M0.35 43.09 C1.15 31.3, -0.04 16.33, -0.26 0.64" stroke="#3fb950" stroke-width="2" fill="none"></path></g><g transform="translate(745.4073993674973 1379.8539000798705) rotate(0 138.85592651367188 10)"><text x="138.85592651367188" y="NaN" font-family="Virgil, Segoe UI Emoji" font-size="16px" fill="#ffffff" text-anchor="middle" style="white-space: pre;" direction="ltr">Timestamp Selection + Commit-Wait</text></g><g stroke-linecap="round"><g transform="translate(466.2992989616838 1410.1438362196898) rotate(0 58.43764251811558 28.695689286981178)"><path d="M0.56 -0.54 C20.39 0.1, 99.55 -5.57, 118.08 4.27 C136.61 14.12, 131.47 50.48, 111.75 58.53 C92.03 66.58, 18.32 53.66, -0.24 52.56 M-0.6 1.79 C19.23 2.58, 98.55 -3.5, 117.67 5.66 C136.79 14.83, 133.71 48.81, 114.1 56.78 C94.48 64.75, 19.11 54.3, -0.03 53.46" stroke="#c9d1d9" stroke-width="2" fill="none"></path></g><g transform="translate(466.2992989616838 1410.1438362196898) rotate(0 58.43764251811558 28.695689286981178)"><path d="M28.05 47.43 C21.87 45.88, 17.6 49.29, -0.68 54.43 M29.14 46.46 C21.83 47.34, 15.71 49.97, -0.9 53.82" stroke="#c9d1d9" stroke-width="2" fill="none"></path></g><g transform="translate(466.2992989616838 1410.1438362196898) rotate(0 58.43764251811558 28.695689286981178)"><path d="M26.25 67.87 C20.42 61.64, 16.55 60.36, -0.68 54.43 M27.34 66.91 C20.42 63.42, 14.69 61.68, -0.9 53.82" stroke="#c9d1d9" stroke-width="2" fill="none"></path></g></g><g transform="translate(535.8233741348498 1419.5485875241602) rotate(0 59.741973876953125 22.5)"><text x="59.741973876953125" y="NaN" font-family="Virgil, Segoe UI Emoji" font-size="18px" fill="#c9d1d9" text-anchor="middle" style="white-space: pre;" direction="ltr">Select commit</text><text x="59.741973876953125" y="NaN" font-family="Virgil, Segoe UI Emoji" font-size="18px" fill="#c9d1d9" text-anchor="middle" style="white-space: pre;" direction="ltr">timestamp s</text></g><g stroke-opacity="0.85" fill-opacity="0.85" stroke-linecap="round" transform="translate(342.6848614090502 1494.8998663195157) rotate(0 139.2 40)"><path d="M1.25 0.86 L279.44 -1.72 L277.07 79.55 L1.4 80.13" stroke="none" stroke-width="0" fill="#1f4d2b"></path><path d="M1.52 -0.92 C75.75 0.29, 153.28 0.07, 278.33 -0.92 M0.56 0.56 C103.49 -1.9, 207.44 -1.29, 278.29 -0.51 M279.64 1.4 C278.57 28.07, 277.95 53.99, 280.12 78.13 M277.42 0.62 C280.01 17.11, 279.34 34.21, 278.08 80.85 M277.07 78.68 C215.12 79.68, 149.83 78.34, -1.33 81.34 M278.49 80.17 C177.42 77.7, 76.6 78.63, 0.41 79.69 M1.19 79.67 C0.06 49.49, 0.96 21.45, 1.48 1.63 M0.03 80.21 C0.2 62.56, -0.13 46.16, -0.38 -0.23" stroke="#3fb950" stroke-width="2" fill="none"></path></g><g transform="translate(364.13293880162837 1504.8998663195157) rotate(0 117.75192260742188 30)"><text x="117.75192260742188" y="NaN" font-family="Virgil, Segoe UI Emoji" font-size="16px" fill="#ffffff" text-anchor="middle" style="white-space: pre;" direction="ltr">s &gt; TT.now().latest at start</text><text x="117.75192260742188" y="NaN" font-family="Virgil, Segoe UI Emoji" font-size="16px" fill="#ffffff" text-anchor="middle" style="white-space: pre;" direction="ltr">s &gt; all prepare timestamps</text><text x="117.75192260742188" y="NaN" font-family="Virgil, Segoe UI Emoji" font-size="16px" fill="#ffffff" text-anchor="middle" style="white-space: pre;" direction="ltr">s &gt; all read timestamps</text></g><g stroke-linecap="round"><g transform="translate(464.5555257214281 1595) rotate(0 420 0)"><path d="M0.05 0.08 C140.14 0.23, 699.32 0.98, 839.37 0.82 M-1.38 -0.93 C139.2 -1.1, 701.56 -1.03, 841.75 -0.88" stroke="#c9d1d9" stroke-width="2" fill="none"></path></g><g transform="translate(464.5555257214281 1595) rotate(0 420 0)"><path d="M813.68 8.31 C820.71 7.84, 823.67 3.78, 840.79 -1.16 M813.85 9.33 C819.06 6.2, 826.26 3.93, 841.86 -0.43" stroke="#c9d1d9" stroke-width="2" fill="none"></path></g><g transform="translate(464.5555257214281 1595) rotate(0 420 0)"><path d="M813.69 -12.21 C820.7 -8.47, 823.66 -8.31, 840.79 -1.16 M813.86 -11.19 C818.95 -9.83, 826.15 -7.62, 841.86 -0.43" stroke="#c9d1d9" stroke-width="2" fill="none"></path></g></g><g transform="translate(827.5045689953539 1583.75) rotate(0 57.05095672607422 11.25)"><text x="57.05095672607422" y="NaN" font-family="Virgil, Segoe UI Emoji" font-size="18px" fill="#c9d1d9" text-anchor="middle" style="white-space: pre;" direction="ltr">TT.after(s)?</text></g><g stroke-opacity="0.85" fill-opacity="0.85" stroke-linecap="round" transform="translate(290 1623) rotate(0 174.39999999999998 22)"><path d="M-0.63 1.66 L348.45 -1.38 L347.07 43.64 L-1.03 44.56" stroke="none" stroke-width="0" fill="#1f4d2b"></path><path d="M-0.61 -1.23 C125.58 -1.59, 249.04 -2.39, 348.48 -1.13 M-0.15 -0.24 C112.71 -0.41, 224.99 -0.19, 349.14 0.21 M347.04 -0.09 C348.33 14.15, 348.61 33.8, 347.28 42.77 M348.99 -0.42 C347.59 17.07, 348.1 33.47, 349.57 44.97 M349.86 44.5 C241.15 43.82, 132.6 44.15, 0.63 43.44 M349.1 44.19 C263.55 45.79, 177.18 46.31, -0.27 44.41 M-1.14 43.1 C-1.92 35.22, 0.37 25.21, 1.55 1.57 M-0.63 43.65 C-0.24 31.81, 0.11 22.16, -0.98 0.82" stroke="#3fb950" stroke-width="2" fill="none"></path></g><g transform="translate(319.5600952148437 1635) rotate(0 144.83990478515625 10)"><text x="144.83990478515625" y="NaN" font-family="Virgil, Segoe UI Emoji" font-size="16px" fill="#ffffff" text-anchor="middle" style="white-space: pre;" direction="ltr">WAIT until s is provably in the past</text></g><g stroke-linecap="round"><g transform="translate(1304.5555257214282 1710) rotate(0 -420 0)"><path d="M-1.05 -0.02 C-140.93 -0.22, -700.59 -1.08, -840.45 -0.98" stroke="#c9d1d9" stroke-width="2.5" fill="none" stroke-dasharray="8 10"></path></g><g transform="translate(1304.5555257214282 1710) rotate(0 -420 0)"><path d="M-812.29 -11.98 C-819.54 -9.81, -822.64 -9.23, -841.89 -2.6" stroke="#c9d1d9" stroke-width="2.5" fill="none"></path></g><g transform="translate(1304.5555257214282 1710) rotate(0 -420 0)"><path d="M-812.3 8.54 C-819.59 6.58, -822.68 3.04, -841.89 -2.6" stroke="#c9d1d9" stroke-width="2.5" fill="none"></path></g></g><g transform="translate(865.5655354870531 1698.75) rotate(0 18.989990234375 11.25)"><text x="18.989990234375" y="NaN" font-family="Virgil, Segoe UI Emoji" font-size="18px" fill="#c9d1d9" text-anchor="middle" style="white-space: pre;" direction="ltr">true</text></g><g stroke-opacity="0.85" fill-opacity="0.85" stroke-linecap="round" transform="translate(658.1555257214281 1747.8491871792212) rotate(0 86.40000000000003 22)"><path d="M1.98 -1.14 L171.89 -1.28 L174.52 42.46 L-1.92 43.16" stroke="none" stroke-width="0" fill="#1f4d2b"></path><path d="M-1.61 -0.64 C43.1 -0.53, 91.35 -0.8, 174.14 1.05 M-0.74 -0.43 C44.35 0.11, 88.7 -0.35, 173.79 0.99 M170.83 0.97 C172.18 12.06, 174.22 26.17, 173.98 44.99 M172.82 0.54 C171.85 11, 172.29 22.63, 173.1 44 M171.03 45.4 C134.58 43.01, 99.48 45.8, 0.49 42.64 M173.04 44.77 C134.22 44.93, 96.72 44.91, -0.91 43.3 M1.19 45.73 C0.82 29.58, 1.11 18.78, -0.21 -1.73 M0.44 44.86 C-0.06 29.73, -0.81 15.41, -0.63 -0.04" stroke="#3fb950" stroke-width="2" fill="none"></path></g><g transform="translate(674.2915715588305 1759.8491871792212) rotate(0 70.26395416259766 10)"><text x="70.26395416259766" y="NaN" font-family="Virgil, Segoe UI Emoji" font-size="16px" fill="#ffffff" text-anchor="middle" style="white-space: pre;" direction="ltr">Phase 2 - Commit</text></g><g stroke-linecap="round"><g transform="translate(464.4047129006493 1819.8539000798703) rotate(0 37.644324853228966 14.000865062340154)"><path d="M0.26 1.17 C12.82 -1.09, 62.01 -19.24, 74.61 -12.8 C87.21 -6.36, 88.28 32.82, 75.85 39.81 C63.43 46.79, 12.57 30.89, 0.04 29.11 M-1.06 0.73 C11.4 -1.47, 60.92 -18.54, 73.66 -11.8 C86.4 -5.07, 87.61 34.22, 75.39 41.14 C63.16 48.07, 12.95 31.75, 0.3 29.74" stroke="#c9d1d9" stroke-width="2" fill="none"></path></g><g transform="translate(464.4047129006493 1819.8539000798703) rotate(0 37.644324853228966 14.000865062340154)"><path d="M32.05 26.31 C21.21 28.15, 15.81 28.1, -1.19 30.81 M30.19 25.4 C22.86 26.82, 16.91 27.47, 0.34 30.08" stroke="#c9d1d9" stroke-width="2" fill="none"></path></g><g transform="translate(464.4047129006493 1819.8539000798703) rotate(0 37.644324853228966 14.000865062340154)"><path d="M27.28 46.27 C17.47 43.28, 13.22 38.41, -1.19 30.81 M25.42 45.35 C19.14 42.25, 14.28 38.35, 0.34 30.08" stroke="#c9d1d9" stroke-width="2" fill="none"></path></g></g><g transform="translate(452.97232170392635 1822.6341643314893) rotate(0 95.9039535522461 11.25)"><text x="95.9039535522461" y="NaN" font-family="Virgil, Segoe UI Emoji" font-size="18px" fill="#c9d1d9" text-anchor="middle" style="white-space: pre;" direction="ltr">Log commit via Paxos</text></g><g stroke-linecap="round"><g transform="translate(464.5555257214281 1935) rotate(0 140 0)"><path d="M0.89 0.17 C47.36 0.09, 233.21 -0.23, 279.82 -0.26 M-0.1 -0.79 C46.11 -0.7, 232.08 0.79, 278.78 1.14" stroke="#c9d1d9" stroke-width="2" fill="none"></path></g><g transform="translate(464.5555257214281 1935) rotate(0 140 0)"><path d="M250.8 10.89 C260.94 8.1, 272.19 3.12, 280.41 1.82 M250.59 10.49 C256.55 9.05, 261.57 7.63, 279.15 1.03" stroke="#c9d1d9" stroke-width="2" fill="none"></path></g><g transform="translate(464.5555257214281 1935) rotate(0 140 0)"><path d="M250.95 -9.63 C261.06 -4.53, 272.26 -1.62, 280.41 1.82 M250.75 -10.03 C256.62 -7.11, 261.61 -4.17, 279.15 1.03" stroke="#c9d1d9" stroke-width="2" fill="none"></path></g></g><g transform="translate(511.4505681408617 1912.5) rotate(0 93.1049575805664 22.5)"><text x="93.1049575805664" y="NaN" font-family="Virgil, Segoe UI Emoji" font-size="18px" fill="#c9d1d9" text-anchor="middle" style="white-space: pre;" direction="ltr">Commit at timestamp</text><text x="93.1049575805664" y="NaN" font-family="Virgil, Segoe UI Emoji" font-size="18px" fill="#c9d1d9" text-anchor="middle" style="white-space: pre;" direction="ltr">s</text></g><g stroke-linecap="round"><g transform="translate(464.4094258012984 2005) rotate(0 280 0)"><path d="M0.13 0.38 C93.22 0.56, 466.07 1.03, 559.5 0.82 M-1.27 -0.47 C91.54 -0.59, 464.7 -0.94, 558.3 -0.87" stroke="#c9d1d9" stroke-width="2" fill="none"></path></g><g transform="translate(464.4094258012984 2005) rotate(0 280 0)"><path d="M530.73 8.57 C542.17 6.67, 549.96 2.97, 558.38 -2.01 M530.12 9.32 C537.74 7.02, 546.58 3.44, 558.69 -1.72" stroke="#c9d1d9" stroke-width="2" fill="none"></path></g><g transform="translate(464.4094258012984 2005) rotate(0 280 0)"><path d="M530.73 -11.95 C542.11 -6.08, 549.9 -2.02, 558.38 -2.01 M530.12 -11.2 C537.77 -7.45, 546.62 -4.97, 558.69 -1.72" stroke="#c9d1d9" stroke-width="2" fill="none"></path></g></g><g transform="translate(641.9174748125289 1993.75) rotate(0 102.49195098876953 11.25)"><text x="102.49195098876953" y="NaN" font-family="Virgil, Segoe UI Emoji" font-size="18px" fill="#c9d1d9" text-anchor="middle" style="white-space: pre;" direction="ltr">Commit at timestamp s</text></g><g stroke-linecap="round"><g transform="translate(744.1832065701304 2079.461055303665) rotate(0 51.766531648975274 12.125130603902335)"><path d="M0.67 0.9 C17.67 -3.08, 84.71 -33.1, 101.79 -25.02 C118.88 -16.93, 120.16 40.42, 103.15 49.4 C86.14 58.39, 17.1 32.17, -0.28 28.88 M-0.44 0.32 C16.46 -3.87, 83.93 -34.88, 101.03 -26.57 C118.14 -18.25, 119.06 40.89, 102.19 50.22 C85.32 59.54, 16.77 32.78, -0.18 29.4" stroke="#c9d1d9" stroke-width="2" fill="none"></path></g><g transform="translate(744.1832065701304 2079.461055303665) rotate(0 51.766531648975274 12.125130603902335)"><path d="M31.25 28.1 C23.2 27.56, 11.41 28.26, -2.04 27.55 M28.94 28.24 C21.49 27.75, 13.28 29.17, 0.79 29.87" stroke="#c9d1d9" stroke-width="2" fill="none"></path></g><g transform="translate(744.1832065701304 2079.461055303665) rotate(0 51.766531648975274 12.125130603902335)"><path d="M25.47 47.79 C19.22 41.72, 9.04 36.91, -2.04 27.55 M23.16 47.93 C17.16 42.04, 10.54 38.06, 0.79 29.87" stroke="#c9d1d9" stroke-width="2" fill="none"></path></g></g><g transform="translate(726.150595606682 1972.5) rotate(0 85.9049301147461 22.5)"><text x="85.9049301147461" y="NaN" font-family="Virgil, Segoe UI Emoji" font-size="18px" fill="#c9d1d9" text-anchor="middle" style="white-space: pre;" direction="ltr">Apply write, release</text><text x="85.9049301147461" y="NaN" font-family="Virgil, Segoe UI Emoji" font-size="18px" fill="#c9d1d9" text-anchor="middle" style="white-space: pre;" direction="ltr">locks</text></g><g stroke-linecap="round"><g transform="translate(744.5555257214281 2170) rotate(0 -140 0)"><path d="M-0.6 0.13 C-47.37 0.14, -234.51 0.37, -281.07 0.52" stroke="#c9d1d9" stroke-width="2.5" fill="none" stroke-dasharray="8 10"></path></g><g transform="translate(744.5555257214281 2170) rotate(0 -140 0)"><path d="M-252.67 -11.58 C-259.41 -7.13, -265.98 -3.12, -281.77 0.79" stroke="#c9d1d9" stroke-width="2.5" fill="none"></path></g><g transform="translate(744.5555257214281 2170) rotate(0 -140 0)"><path d="M-252.63 8.95 C-259.46 7.98, -266.04 6.58, -281.77 0.79" stroke="#c9d1d9" stroke-width="2.5" fill="none"></path></g></g><g transform="translate(589.7505330456469 2158.75) rotate(0 14.80499267578125 11.25)"><text x="14.80499267578125" y="NaN" font-family="Virgil, Segoe UI Emoji" font-size="18px" fill="#c9d1d9" text-anchor="middle" style="white-space: pre;" direction="ltr">Ack</text></g><g stroke-linecap="round"><g transform="translate(1025.4085607389584 2229.3912606383365) rotate(0 46.570558683078616 21.984518762321386)"><path d="M0.72 0.45 C16.93 -2.38, 81.59 -25.68, 97.2 -15.99 C112.8 -6.3, 111.02 48.12, 94.36 58.57 C77.69 69.01, 13.39 48.7, -2.77 46.66 M-0.36 -0.36 C15.79 -3.12, 81.08 -24.73, 96.8 -14.76 C112.52 -4.79, 110.48 49.56, 93.95 59.46 C77.42 69.37, 13.91 46.71, -2.4 44.66" stroke="#c9d1d9" stroke-width="2" fill="none"></path></g><g transform="translate(1025.4085607389584 2229.3912606383365) rotate(0 46.570558683078616 21.984518762321386)"><path d="M28.15 43 C17.72 43.59, 8.64 43.84, -0.64 45.3 M26.73 40.54 C17.23 42.98, 6.07 43.27, -1.6 44.3" stroke="#c9d1d9" stroke-width="2" fill="none"></path></g><g transform="translate(1025.4085607389584 2229.3912606383365) rotate(0 46.570558683078616 21.984518762321386)"><path d="M23.36 62.96 C14.17 57.67, 6.5 52.07, -0.64 45.3 M21.93 60.5 C14.37 55.69, 4.95 48.75, -1.6 44.3" stroke="#c9d1d9" stroke-width="2" fill="none"></path></g></g><g transform="translate(1006.150595606682 2232.5) rotate(0 85.9049301147461 22.5)"><text x="85.9049301147461" y="NaN" font-family="Virgil, Segoe UI Emoji" font-size="18px" fill="#c9d1d9" text-anchor="middle" style="white-space: pre;" direction="ltr">Apply write, release</text><text x="85.9049301147461" y="NaN" font-family="Virgil, Segoe UI Emoji" font-size="18px" fill="#c9d1d9" text-anchor="middle" style="white-space: pre;" direction="ltr">locks</text></g><g stroke-linecap="round"><g transform="translate(1024.5555257214282 2325) rotate(0 -280 0)"><path d="M0.09 -0.93 C-93.56 -0.9, -467.39 0.26, -560.75 0.61" stroke="#c9d1d9" stroke-width="2.5" fill="none" stroke-dasharray="8 10"></path></g><g transform="translate(1024.5555257214282 2325) rotate(0 -280 0)"><path d="M-534.14 -10.99 C-542.64 -5.78, -552.79 -0.21, -559.15 -0.92" stroke="#c9d1d9" stroke-width="2.5" fill="none"></path></g><g transform="translate(1024.5555257214282 2325) rotate(0 -280 0)"><path d="M-534.07 9.53 C-542.67 6.65, -552.85 4.13, -559.15 -0.92" stroke="#c9d1d9" stroke-width="2.5" fill="none"></path></g></g><g transform="translate(729.7505330456469 2313.75) rotate(0 14.80499267578125 11.25)"><text x="14.80499267578125" y="NaN" font-family="Virgil, Segoe UI Emoji" font-size="18px" fill="#c9d1d9" text-anchor="middle" style="white-space: pre;" direction="ltr">Ack</text></g><g stroke-linecap="round"><g transform="translate(464.5555257214281 2380) rotate(0 -140 0)"><path d="M-0.16 0.22 C-47.17 0.34, -234.59 0.72, -281.18 0.8" stroke="#c9d1d9" stroke-width="2.5" fill="none" stroke-dasharray="8 10"></path></g><g transform="translate(464.5555257214281 2380) rotate(0 -140 0)"><path d="M-252.64 -11.48 C-262.15 -5.27, -272.75 -1.16, -281.6 2.35" stroke="#c9d1d9" stroke-width="2.5" fill="none"></path></g><g transform="translate(464.5555257214281 2380) rotate(0 -140 0)"><path d="M-252.6 9.04 C-262.14 7.61, -272.76 4.09, -281.6 2.35" stroke="#c9d1d9" stroke-width="2.5" fill="none"></path></g></g><g transform="translate(271.5905599011156 2357.5) rotate(0 52.9649658203125 22.5)"><text x="52.9649658203125" y="NaN" font-family="Virgil, Segoe UI Emoji" font-size="18px" fill="#c9d1d9" text-anchor="middle" style="white-space: pre;" direction="ltr">Transaction</text><text x="52.9649658203125" y="NaN" font-family="Virgil, Segoe UI Emoji" font-size="18px" fill="#c9d1d9" text-anchor="middle" style="white-space: pre;" direction="ltr">Committed</text></g><g stroke-opacity="0.85" fill-opacity="0.85" stroke-linecap="round" transform="translate(596.5555257214281 2488) rotate(0 148 22)"><path d="M-1.16 -1.8 L297.55 -1.47 L297.07 45.34 L-0.06 43.38" stroke="none" stroke-width="0" fill="#1f4d2b"></path><path d="M-0.28 -0.98 C67.16 1.8, 133.83 1.9, 297.11 1.39 M-0.48 0.15 C99.31 -0.46, 199.11 -1.1, 296.27 0.69 M297.59 -0.99 C297.35 14.02, 296.98 28.75, 297.24 42.14 M295.23 0.91 C295.44 11.85, 295.82 22.31, 296.78 44.76 M295.67 43.74 C217.56 42.92, 139.32 43.92, 1.1 43.08 M295.81 43.95 C220.27 46.17, 143.08 46.08, -0.62 44.57 M-1.12 45.31 C-1.11 26.43, 1.17 8.27, -1.78 -0.17 M0.06 44.59 C1.19 34.35, 1.12 25.94, 0.38 -0.4" stroke="#3fb950" stroke-width="2" fill="none"></path></g><g transform="translate(617.0195912731859 2500) rotate(0 127.53593444824219 10)"><text x="127.53593444824219" y="NaN" font-family="Virgil, Segoe UI Emoji" font-size="16px" fill="#ffffff" text-anchor="middle" style="white-space: pre;" direction="ltr">External Consistency Guarantee</text></g><g stroke-opacity="0.85" fill-opacity="0.85" stroke-linecap="round" transform="translate(9.999999999999986 2440) rotate(0 174.39999999999998 30)"><path d="M-0.42 0.1 L348.64 1.53 L347.22 58.31 L-0.38 59.24" stroke="none" stroke-width="0" fill="#1f4d2b"></path><path d="M-0.3 1.13 C80.89 1.28, 159.68 2.08, 349.79 -0.33 M-0.3 0.22 C132.49 1.27, 265.7 1.52, 349.42 -0.18 M350.79 -1.65 C348.12 11.83, 349.51 25.69, 349.33 59.08 M348.9 0.39 C348.63 15.86, 348.42 29.75, 347.95 59.32 M350.06 59.17 C253.99 61.56, 156.93 62.47, 1.06 59.75 M348.16 60.6 C241.39 60.81, 133.72 61.08, 0.09 60.55 M1.79 59.94 C-1.14 43.58, -1.05 26.52, 1.22 1.87 M0.71 60.25 C0.66 42.71, 0.6 26.91, 0.54 0.76" stroke="#3fb950" stroke-width="2" fill="none"></path></g><g transform="translate(42.712088012695304 2450) rotate(0 141.6879119873047 20)"><text x="141.6879119873047" y="NaN" font-family="Virgil, Segoe UI Emoji" font-size="16px" fill="#ffffff" text-anchor="middle" style="white-space: pre;" direction="ltr">Any transaction starting after this</text><text x="141.6879119873047" y="NaN" font-family="Virgil, Segoe UI Emoji" font-size="16px" fill="#ffffff" text-anchor="middle" style="white-space: pre;" direction="ltr">point will receive a later timestamp</text></g></svg>