<svg version="1.1" xmlns="http://www.w3.org/2000/svg" viewBox="0 0 1200 642" width="1200" height="642">
  <!-- svg-source:excalidraw -->
  
  <defs>
    <style>
      @font-face {
        font-family: "Virgil";
        src: url("https://excalidraw.com/Virgil.woff2");
      }
      @font-face {
        font-family: "Cascadia";
        src: url("https://excalidraw.com/Cascadia.woff2");
      }
    </style>
  </defs>
  <rect x="0" y="0" width="1200" height="642" fill="#0d1117"></rect><g transform="translate(10 10) rotate(0 317.5 17.5)"><text x="0" y="NaN" font-family="Virgil, Segoe UI Emoji" font-size="28px" fill="#f5e0dc" text-anchor="start" style="white-space: pre;" direction="ltr">Spanner: Zones, Spanservers, Paxos Groups</text></g><g transform="translate(10 54) rotate(0 310 10)"><text x="0" y="NaN" font-family="Virgil, Segoe UI Emoji" font-size="16px" fill="#8b949e" text-anchor="start" style="white-space: pre;" direction="ltr">Each zone runs spanservers; each tablet is a Paxos group across zones.</text></g><g stroke-opacity="0.6" fill-opacity="0.6" stroke-linecap="round" transform="translate(30 110) rotate(0 180 230)"><path d="M0.39 1.17 L359.9 2 L359.19 461.04 L-1.45 459.44" stroke="none" stroke-width="0" fill="#161b22"></path><path d="M0.82 -0.72 C103.6 2.48, 209.4 1.9, 359.69 -0.06 M359.07 -0.08 C362.33 154.72, 361.6 312.09, 360.93 460.78 M359.14 460.75 C282.81 459.2, 204.88 458.55, -0.16 459.66 M-0.82 460.49 C-1.53 294.78, -2.21 127.69, -0.91 -0.65" stroke="#30363d" stroke-width="2.5" fill="none" stroke-dasharray="8 10"></path></g><g transform="translate(46 118) rotate(0 31.5 11)"><text x="0" y="NaN" font-family="Virgil, Segoe UI Emoji" font-size="18px" fill="#8b949e" text-anchor="start" style="white-space: pre;" direction="ltr">Zone 1</text></g><g stroke-linecap="round" transform="translate(70 170) rotate(0 140 30)"><path d="M1.19 0.39 L280.01 -0.46 L281.02 60.53 L0.56 58.25" stroke="none" stroke-width="0" fill="#3a1d6e"></path><path d="M-1.27 -0.91 C83.14 -0.63, 166.99 -0.98, 279.43 0.17 M-0.19 -0.29 C66.75 2.31, 133.39 2.48, 279.32 -0.61 M278.24 -0.27 C280.89 19.07, 280.14 38.79, 280.03 58.3 M280.49 0.3 C280.15 19.92, 281.03 38.89, 280.32 59.1 M279.82 59.83 C191.98 59.82, 104.24 60.51, -0.32 61.06 M279.75 59.31 C180.42 59.65, 79.93 59.68, -0.24 60.5 M-0.09 61.63 C-1.27 41.13, -1.79 21.88, -0.88 -1.64 M-0.24 59.88 C0.04 36.16, 0.53 13.29, 0.48 0.21" stroke="#a371f7" stroke-width="2" fill="none"></path></g><g transform="translate(153 187) rotate(0 57 12.5)"><text x="0" y="NaN" font-family="Virgil, Segoe UI Emoji" font-size="20px" fill="#ffffff" text-anchor="start" style="white-space: pre;" direction="ltr">Zonemaster</text></g><g stroke-linecap="round" transform="translate(70 250) rotate(0 140 30)"><path d="M-0.62 0.85 L278.14 1.88 L278.96 58.77 L-1.64 61.35" stroke="none" stroke-width="0" fill="#5c3a10"></path><path d="M0.06 -1.5 C90.28 -0.82, 183.68 0.17, 281.05 0.24 M-0.13 -0.26 C82.54 -1.57, 165.05 -2.65, 280.2 -0.61 M278.43 -1.11 C281.96 22.43, 279.79 49.25, 279.7 58.73 M279.35 0.65 C279.83 22.69, 281.04 45.09, 279.42 60.42 M280.86 59.53 C169.06 58.89, 58.71 61.23, -0.66 60.74 M280.64 59.95 C189.81 61.88, 98.67 61.57, 0.17 59.58 M-0.06 59.91 C-0.58 42.6, -0.87 28.18, 1.89 -0.46 M0.22 59.98 C-0.83 39.47, 0.15 17.12, -0.41 -0.73" stroke="#f0883e" stroke-width="2" fill="none"></path></g><g transform="translate(131 267) rotate(0 79 12.5)"><text x="0" y="NaN" font-family="Virgil, Segoe UI Emoji" font-size="20px" fill="#ffffff" text-anchor="start" style="white-space: pre;" direction="ltr">Location Proxy</text></g><g stroke-linecap="round" transform="translate(70 330) rotate(0 140 100)"><path d="M1.72 0.52 L281.97 -1.47 L280.72 199.09 L0.76 200.62" stroke="none" stroke-width="0" fill="#0d2c5a"></path><path d="M-0.14 -1.15 C104.73 -2.12, 211.42 -0.43, 280.58 0.17 M0.18 -0.09 C87.32 1.56, 174.83 1.52, 279.54 -0.15 M279.16 0.33 C280.56 71.59, 281.18 141.62, 280.87 201.22 M280.86 -0.68 C280.52 67.13, 281.66 135.57, 280.37 199.59 M279.19 198.76 C208.29 201.29, 132.88 200.71, 0.54 200.5 M280.54 200.47 C192.95 198.78, 105.45 198.34, -0.05 199.99 M-0.01 201.43 C-0.01 156.33, -2.97 112.37, -1.68 -1.59 M-0.64 199.38 C-2.52 119.59, -1.67 39.15, -0.45 -0.79" stroke="#58a6ff" stroke-width="2" fill="none"></path></g><g transform="translate(103 392) rotate(0 106.5 37.5)"><text x="0" y="NaN" font-family="Virgil, Segoe UI Emoji" font-size="20px" fill="#ffffff" text-anchor="start" style="white-space: pre;" direction="ltr">Spanserver</text><text x="0" y="NaN" font-family="Virgil, Segoe UI Emoji" font-size="20px" fill="#ffffff" text-anchor="start" style="white-space: pre;" direction="ltr">Tablet A (group g₁)</text><text x="0" y="NaN" font-family="Virgil, Segoe UI Emoji" font-size="20px" fill="#ffffff" text-anchor="start" style="white-space: pre;" direction="ltr">Tablet B (group g₂)</text></g><g stroke-opacity="0.6" fill-opacity="0.6" stroke-linecap="round" transform="translate(430 110) rotate(0 180 230)"><path d="M0.66 -1.07 L359.84 -0.44 L361.75 458.15 L0.67 460.9" stroke="none" stroke-width="0" fill="#161b22"></path><path d="M0.89 -0.29 C75.48 1, 152.71 2.65, 359.6 0.8 M360.66 0.66 C360.3 147.37, 361.05 294.41, 359.42 459.94 M359.68 459.09 C250.01 458.22, 138.75 458.74, 0.41 460.61 M0.56 460.65 C-0.38 368.1, 0.37 276.77, -0.08 -0.09" stroke="#30363d" stroke-width="2.5" fill="none" stroke-dasharray="8 10"></path></g><g transform="translate(446 118) rotate(0 31.5 11)"><text x="0" y="NaN" font-family="Virgil, Segoe UI Emoji" font-size="18px" fill="#8b949e" text-anchor="start" style="white-space: pre;" direction="ltr">Zone 2</text></g><g stroke-linecap="round" transform="translate(470 170) rotate(0 140 30)"><path d="M0.31 -1.59 L281.17 -0.96 L279.19 61.16 L1.49 60.86" stroke="none" stroke-width="0" fill="#3a1d6e"></path><path d="M0.66 -0.42 C58.66 0.96, 116.81 1.61, 281.27 0.41 M-0.04 0.74 C82.04 -0.28, 164.72 0.76, 280.33 0.42 M278.21 1.74 C280.96 18.58, 279.65 32.67, 280.32 59.65 M280.63 0.04 C279.83 18.7, 281.13 37.3, 279.04 59.92 M280.94 58.72 C203.6 61.74, 125 61.14, 0.78 58.48 M279.64 59.66 C201.94 60.22, 123.08 60.6, 0.64 60.61 M-0.12 60.82 C1.27 44.12, 0.73 29.1, 1.85 1.64 M0.11 60.78 C0.94 37.56, 0.94 15.55, -0.64 -0.18" stroke="#a371f7" stroke-width="2" fill="none"></path></g><g transform="translate(553 187) rotate(0 57 12.5)"><text x="0" y="NaN" font-family="Virgil, Segoe UI Emoji" font-size="20px" fill="#ffffff" text-anchor="start" style="white-space: pre;" direction="ltr">Zonemaster</text></g><g stroke-linecap="round" transform="translate(470 250) rotate(0 140 30)"><path d="M0.14 -0.32 L281.32 -0.92 L281.99 59.64 L1.06 58.57" stroke="none" stroke-width="0" fill="#5c3a10"></path><path d="M-0.46 1.38 C81.05 1.83, 159.7 0.08, 280.1 -0.61 M-0.23 -0.25 C63.82 -2.4, 126.08 -2.08, 280.49 -0.51 M280.59 -1.02 C278.23 21.21, 281.47 41.23, 279.18 59.72 M280.17 -0.15 C280.62 22.79, 281.24 47.46, 280.81 59.67 M279.07 59.01 C177.24 59.03, 76 59.17, 0.78 61.12 M280.69 60.15 C206.46 61.74, 132.74 61.07, 0.73 59.91 M-0.58 59.45 C0.04 41.77, -1.28 23.11, 1.7 -0.05 M0.48 59.87 C0.3 45.56, -0.89 29.93, -0.32 -0.99" stroke="#f0883e" stroke-width="2" fill="none"></path></g><g transform="translate(531 267) rotate(0 79 12.5)"><text x="0" y="NaN" font-family="Virgil, Segoe UI Emoji" font-size="20px" fill="#ffffff" text-anchor="start" style="white-space: pre;" direction="ltr">Location Proxy</text></g><g stroke-linecap="round" transform="translate(470 330) rotate(0 140 100)"><path d="M1.64 1.62 L278.86 0.11 L279.83 198.31 L-1.01 201.87" stroke="none" stroke-width="0" fill="#0d2c5a"></path><path d="M-0.96 1.52 C69.29 2.67, 137.4 0.47, 279.37 -0.81 M-0.35 0.08 C68.35 0.01, 136.55 0.61, 280.7 -0.58 M280.41 0.97 C281.98 73.5, 279.73 146.48, 281.31 199.09 M279.24 -0.55 C279.76 46.23, 280.22 93.95, 280.38 200.51 M279.11 198.71 C178.11 200.7, 78.63 200.04, -0.08 199.06 M280.13 200.76 C222.44 200.42, 166.31 200.48, -0.01 199.75 M0.26 200.67 C1.74 148.37, -0.15 100.11, -0.75 0.15 M0.47 200.32 C-0.67 159.81, -1.52 118.85, -0.74 0.08" stroke="#58a6ff" stroke-width="2" fill="none"></path></g><g transform="translate(503 392) rotate(0 106.5 37.5)"><text x="0" y="NaN" font-family="Virgil, Segoe UI Emoji" font-size="20px" fill="#ffffff" text-anchor="start" style="white-space: pre;" direction="ltr">Spanserver</text><text x="0" y="NaN" font-family="Virgil, Segoe UI Emoji" font-size="20px" fill="#ffffff" text-anchor="start" style="white-space: pre;" direction="ltr">Tablet A (group g₁)</text><text x="0" y="NaN" font-family="Virgil, Segoe UI Emoji" font-size="20px" fill="#ffffff" text-anchor="start" style="white-space: pre;" direction="ltr">Tablet B (group g₂)</text></g><g stroke-opacity="0.6" fill-opacity="0.6" stroke-linecap="round" transform="translate(830 110) rotate(0 180 230)"><path d="M-1.09 -0.68 L358.81 -0.48 L358.27 461.94 L-1.48 460.6" stroke="none" stroke-width="0" fill="#161b22"></path><path d="M0.79 -0.06 C101.77 0.02, 201.26 -1.41, 361.05 0.18 M360.84 -0.05 C359.84 114.81, 359.7 229.31, 360.53 460.72 M359.9 460.53 C224.07 458.63, 87.64 459.56, 1.18 460.37 M0.41 460.18 C2.63 314.83, 1.34 170.34, 0.65 0.68" stroke="#30363d" stroke-width="2.5" fill="none" stroke-dasharray="8 10"></path></g><g transform="translate(846 118) rotate(0 31.5 11)"><text x="0" y="NaN" font-family="Virgil, Segoe UI Emoji" font-size="18px" fill="#8b949e" text-anchor="start" style="white-space: pre;" direction="ltr">Zone 3</text></g><g stroke-linecap="round" transform="translate(870 170) rotate(0 140 30)"><path d="M1.28 1.34 L281.6 1.14 L281.46 58.38 L1.14 58.72" stroke="none" stroke-width="0" fill="#3a1d6e"></path><path d="M-0.97 0.13 C79.69 -0.12, 162.57 -0.23, 280.03 -1.1 M0.54 -0.75 C64.33 1.25, 129.35 1.18, 279.78 -0.61 M279.05 1.2 C277.96 13.27, 279.52 30.99, 280.4 60.5 M279.41 0.58 C279.72 18.76, 279.85 37.21, 279.96 60.21 M278.59 60.5 C185.52 62.58, 87.23 62.78, 0.27 60.64 M280.47 60.69 C209.41 59.45, 140.15 59.82, 0.51 60.01 M1.49 59.23 C-1.85 42.73, 0.02 22.8, 0.22 -0.14 M0.51 60.12 C-0.81 48.5, -0.36 35.01, 0.29 -0.78" stroke="#a371f7" stroke-width="2" fill="none"></path></g><g transform="translate(953 187) rotate(0 57 12.5)"><text x="0" y="NaN" font-family="Virgil, Segoe UI Emoji" font-size="20px" fill="#ffffff" text-anchor="start" style="white-space: pre;" direction="ltr">Zonemaster</text></g><g stroke-linecap="round" transform="translate(870 250) rotate(0 140 30)"><path d="M-1.02 1.65 L278.02 1.63 L279.72 59.78 L0.92 60.55" stroke="none" stroke-width="0" fill="#5c3a10"></path><path d="M1.15 -0.14 C67.31 -0.62, 137.14 -1.48, 278.83 0.98 M0.56 0.44 C91.79 -1.39, 183.41 -2.52, 280.33 -0.38 M281.37 -0.11 C277.76 16.64, 281.2 37.47, 279.42 60.69 M279.89 -0.93 C280.35 15.47, 280.59 29.18, 280.11 60.86 M278.81 59.25 C209.61 59.91, 140.95 60.33, -0.51 59.14 M280.05 59.65 C177.18 61.58, 74.51 61.31, -0.22 59.83 M1.23 60.6 C-2.27 41.31, -0.76 24.32, 1.83 0.96 M-0.62 60.08 C0.1 38.7, -0.36 15.21, -0.81 0.35" stroke="#f0883e" stroke-width="2" fill="none"></path></g><g transform="translate(931 267) rotate(0 79 12.5)"><text x="0" y="NaN" font-family="Virgil, Segoe UI Emoji" font-size="20px" fill="#ffffff" text-anchor="start" style="white-space: pre;" direction="ltr">Location Proxy</text></g><g stroke-linecap="round" transform="translate(870 330) rotate(0 140 100)"><path d="M0.12 0.53 L280.67 -0.95 L280.09 200.89 L-1.64 198.6" stroke="none" stroke-width="0" fill="#0d2c5a"></path><path d="M-0.36 0.9 C84.01 -2.39, 171.98 -0.52, 280.13 0.7 M0.58 0.4 C100.31 0.01, 199.77 -0.04, 279.47 -0.64 M281.25 -1.43 C281.18 78.03, 280.84 154.73, 278.65 199.94 M280.39 0.73 C279.52 58.73, 280.75 118.38, 280.84 199.21 M278.88 199.87 C170.32 201.73, 57.26 199.24, 0.09 199.71 M279.6 200.22 C220.62 198.29, 161.3 197.54, 0.73 199.55 M1.53 201.27 C0.09 157.41, 1.62 119.57, 1.11 -0.75 M-0.53 200.52 C-0.05 123.93, -0.76 48.83, 0.88 0.86" stroke="#58a6ff" stroke-width="2" fill="none"></path></g><g transform="translate(903 392) rotate(0 106.5 37.5)"><text x="0" y="NaN" font-family="Virgil, Segoe UI Emoji" font-size="20px" fill="#ffffff" text-anchor="start" style="white-space: pre;" direction="ltr">Spanserver</text><text x="0" y="NaN" font-family="Virgil, Segoe UI Emoji" font-size="20px" fill="#ffffff" text-anchor="start" style="white-space: pre;" direction="ltr">Tablet A (group g₁)</text><text x="0" y="NaN" font-family="Virgil, Segoe UI Emoji" font-size="20px" fill="#ffffff" text-anchor="start" style="white-space: pre;" direction="ltr">Tablet B (group g₂)</text></g><g transform="translate(30 610) rotate(0 427.5 11)"><text x="0" y="NaN" font-family="Virgil, Segoe UI Emoji" font-size="18px" fill="#8b949e" text-anchor="start" style="white-space: pre;" direction="ltr">Paxos group g₁ spans the three Spanservers (one per zone) — one leader, two followers.</text></g></svg>