<svg version="1.1" xmlns="http://www.w3.org/2000/svg" viewBox="0 0 980 520" width="980" height="520">
  <!-- svg-source:excalidraw -->
  
  <defs>
    <style>
      @font-face {
        font-family: "Virgil";
        src: url("https://excalidraw.com/Virgil.woff2");
      }
      @font-face {
        font-family: "Cascadia";
        src: url("https://excalidraw.com/Cascadia.woff2");
      }
    </style>
  </defs>
  <rect x="0" y="0" width="980" height="520" fill="#0d1117"></rect><g stroke-linecap="round" transform="translate(10 10) rotate(0 80 30)"><path d="M-1.93 -1.16 L161.32 0.63 L158.56 61.36 L-0.12 61.57" stroke="none" stroke-width="0" fill="#1f4d2b"></path><path d="M-0.27 0.84 C54.95 2.29, 108.52 1.29, 158.44 0.67 M0.88 -0.93 C42.1 -1, 83.68 -2.48, 160.84 -0.03 M158.32 -1.78 C158.2 19.96, 158.54 36.52, 160.69 60.21 M159.38 -0.51 C159.96 13.31, 160.93 27.46, 160.18 59.23 M161.11 60.23 C125.6 58.43, 95.59 59.06, -0.78 60.07 M159.1 59.37 C102.76 59.98, 44.52 59.23, 0.96 60.28 M-1.94 58.77 C-1.08 46.74, -0.8 29.36, 1.32 0.87 M-0.32 59.99 C1.32 47.25, 0.75 33.67, 0.41 0" stroke="#3fb950" stroke-width="2" fill="none"></path></g><g transform="translate(15 15) rotate(0 27.049972534179688 12.5)"><text x="0" y="NaN" font-family="Virgil, Segoe UI Emoji" font-size="20px" fill="#ffffff" text-anchor="start" style="white-space: pre;" direction="ltr">Client</text></g><g stroke-linecap="round" transform="translate(230 10) rotate(0 100 30)"><path d="M1.15 1.39 L198.61 0.38 L199.3 60.41 L1.98 60.24" stroke="none" stroke-width="0" fill="#3a1d6e"></path><path d="M1.59 -0.45 C42 -2.1, 79.19 -1.92, 199.97 0.39 M0.61 -0.55 C55.87 0.01, 112.61 -1.16, 200.53 0.3 M201.43 0.46 C201.45 17.47, 198.38 33.1, 201.1 58.04 M200.97 0.17 C200.58 21.5, 199.85 42.8, 200.98 60.34 M200.85 58.36 C133.06 58.62, 64.64 58.55, -1.75 59.66 M200.38 60.08 C126.56 60.66, 54.45 62.11, -0.76 60.14 M-1.11 59.03 C0.2 39.56, -0.88 19.48, -0.95 -0.14 M0.2 60.77 C-0.16 36.15, -0.65 12.4, -0.38 -0.41" stroke="#a371f7" stroke-width="2" fill="none"></path></g><g transform="translate(235 15) rotate(0 66.09994506835938 12.5)"><text x="0" y="NaN" font-family="Virgil, Segoe UI Emoji" font-size="20px" fill="#ffffff" text-anchor="start" style="white-space: pre;" direction="ltr">Coord Leader</text></g><g stroke-linecap="round" transform="translate(490 10) rotate(0 100 30)"><path d="M-1.43 -1.99 L200.51 -0.7 L200.71 58.95 L-0.9 58.83" stroke="none" stroke-width="0" fill="#3a1d6e"></path><path d="M-0.04 1.26 C46.66 1.92, 92.56 2.04, 198.53 1.53 M-0.17 0.33 C45.5 0.13, 92.66 0.16, 200.7 -0.6 M198.18 1.46 C199.03 13.21, 199.04 23.64, 199.31 58.36 M199.26 0.81 C200.24 21.46, 199.63 43.76, 199.22 59.96 M201.78 58.39 C147.96 60.7, 95.02 61.33, -0.88 61.56 M200.46 59.65 C138.47 61.53, 77.12 60.28, -0.65 59.28 M0.51 60.14 C-1.03 39.65, -0.49 19.33, -1.52 0.85 M-0.12 59.07 C-1.08 43.53, -1.08 25.08, 0.4 -1" stroke="#a371f7" stroke-width="2" fill="none"></path></g><g transform="translate(495 15) rotate(0 93.13992309570312 12.5)"><text x="0" y="NaN" font-family="Virgil, Segoe UI Emoji" font-size="20px" fill="#ffffff" text-anchor="start" style="white-space: pre;" direction="ltr">Participant Leader</text></g><g stroke-linecap="round" transform="translate(750 10) rotate(0 110 30)"><path d="M0.47 -1.56 L219.78 0.98 L218.78 58.31 L0.46 58.75" stroke="none" stroke-width="0" fill="#5c3a10"></path><path d="M-0.91 0.09 C61.35 -3.34, 120.94 -2.26, 218.9 1.15 M-0.48 -0.31 C54.87 0.94, 108.41 2.39, 220.23 -0.36 M220.79 1.82 C218.69 11.32, 220.2 24.97, 218.51 60.48 M219.76 0.33 C220.83 17.83, 220.59 32.97, 220.48 60.92 M218.99 58.59 C167.83 61.43, 114.51 61.15, 1.11 59.67 M220.56 59.23 C148.36 59.19, 76.12 58.71, -0.31 60.42 M1.48 61.9 C-1.57 37.97, 0.89 20.43, -1.55 0.45 M-0.09 59 C-1.21 35.91, 0.11 13.27, -0.32 0.4" stroke="#f0883e" stroke-width="2" fill="none"></path></g><g transform="translate(755 15) rotate(0 69.13993835449219 12.5)"><text x="0" y="NaN" font-family="Virgil, Segoe UI Emoji" font-size="20px" fill="#ffffff" text-anchor="start" style="white-space: pre;" direction="ltr">TrueTime API</text></g><g stroke-linecap="round"><g transform="translate(90 70) rotate(0 0 220)"><path d="M0.27 0.23 C0 73.94, -0.62 368.07, -0.75 441.19" stroke="#30363d" stroke-width="2.5" fill="none" stroke-dasharray="8 10"></path></g></g><g stroke-linecap="round"><g transform="translate(330 70) rotate(0 0 220)"><path d="M-0.7 -0.76 C-0.57 72.48, 0.72 366.25, 0.94 439.79" stroke="#30363d" stroke-width="2.5" fill="none" stroke-dasharray="8 10"></path></g></g><g stroke-linecap="round"><g transform="translate(590 70) rotate(0 0 220)"><path d="M-1.14 -1.07 C-0.93 72.26, 0.19 366.49, 0.35 440.15" stroke="#30363d" stroke-width="2.5" fill="none" stroke-dasharray="8 10"></path></g></g><g stroke-linecap="round"><g transform="translate(860 70) rotate(0 0 220)"><path d="M-0.29 0.8 C0 74.06, 1.06 366.81, 0.97 440.11" stroke="#30363d" stroke-width="2.5" fill="none" stroke-dasharray="8 10"></path></g></g><g stroke-linecap="round"><g transform="translate(96 110) rotate(0 114 0)"><path d="M-0.56 0.35 C37.42 0.36, 188.78 0.88, 226.8 0.96 M1.34 -0.51 C39.78 -0.9, 191.34 -0.56, 228.88 -0.65" stroke="#3fb950" stroke-width="2" fill="none"></path></g><g transform="translate(96 110) rotate(0 114 0)"><path d="M201.28 7.61 C208.05 6.93, 213.67 6.49, 228.98 -1.76 M201.5 8.72 C211.2 6.92, 220.51 3.09, 229.33 -1.36" stroke="#3fb950" stroke-width="2" fill="none"></path></g><g transform="translate(96 110) rotate(0 114 0)"><path d="M201.28 -12.91 C208.2 -9.35, 213.83 -5.55, 228.98 -1.76 M201.51 -11.8 C211.1 -6.62, 220.4 -3.48, 229.33 -1.36" stroke="#3fb950" stroke-width="2" fill="none"></path></g></g><g transform="translate(175 88) rotate(0 25.24897003173828 8.75)"><text x="0" y="NaN" font-family="Virgil, Segoe UI Emoji" font-size="14px" fill="#8b949e" text-anchor="start" style="white-space: pre;" direction="ltr">prepare</text></g><g stroke-linecap="round"><g transform="translate(336 150) rotate(0 124 0)"><path d="M-1.12 0.92 C39.9 0.86, 205.71 0.67, 247.24 0.48 M0.49 0.36 C41.81 -0.13, 208.41 -1.49, 249.56 -1.38" stroke="#3fb950" stroke-width="2" fill="none"></path></g><g transform="translate(336 150) rotate(0 124 0)"><path d="M222.95 7.72 C233.12 5.39, 242.97 2.61, 248.77 0.58 M221.7 8.26 C229.31 6.7, 235.56 3.18, 249.36 -1.7" stroke="#3fb950" stroke-width="2" fill="none"></path></g><g transform="translate(336 150) rotate(0 124 0)"><path d="M222.87 -12.8 C233.22 -7.13, 243.1 -1.9, 248.77 0.58 M221.62 -12.26 C229.21 -8.71, 235.48 -7.11, 249.36 -1.7" stroke="#3fb950" stroke-width="2" fill="none"></path></g></g><g transform="translate(425 128) rotate(0 25.24897003173828 8.75)"><text x="0" y="NaN" font-family="Virgil, Segoe UI Emoji" font-size="14px" fill="#8b949e" text-anchor="start" style="white-space: pre;" direction="ltr">prepare</text></g><g stroke-linecap="round"><g transform="translate(584 190) rotate(0 -124 0)"><path d="M1.09 -0.14 C-40.49 -0.3, -206.84 -0.46, -248.48 -0.58 M0.21 -1.26 C-41.67 -1.3, -208.61 0.45, -249.67 0.65" stroke="#58a6ff" stroke-width="2" fill="none"></path></g><g transform="translate(584 190) rotate(0 -124 0)"><path d="M-221.8 -10.63 C-233.4 -6.71, -244.82 -2.48, -248.72 1.91 M-221.13 -9.19 C-226.79 -7.75, -232.83 -4.54, -250.25 1.56" stroke="#58a6ff" stroke-width="2" fill="none"></path></g><g transform="translate(584 190) rotate(0 -124 0)"><path d="M-221.64 9.89 C-233.36 5.86, -244.84 2.14, -248.72 1.91 M-220.97 11.33 C-226.68 8.58, -232.75 7.61, -250.25 1.56" stroke="#58a6ff" stroke-width="2" fill="none"></path></g></g><g transform="translate(385 168) rotate(0 54.991943359375 8.75)"><text x="0" y="NaN" font-family="Virgil, Segoe UI Emoji" font-size="14px" fill="#8b949e" text-anchor="start" style="white-space: pre;" direction="ltr">prepared (ts_p)</text></g><g stroke-linecap="round"><g transform="translate(336 230) rotate(0 259 0)"><path d="M0.06 0.56 C86.22 0.86, 431.15 0.96, 517.54 0.82 M-1.37 -0.19 C84.54 -0.14, 429.82 -1.06, 516.35 -0.87" stroke="#f0883e" stroke-width="2" fill="none"></path></g><g transform="translate(336 230) rotate(0 259 0)"><path d="M489.1 8.64 C499.39 6.46, 507.37 1.58, 515.75 -0.7 M487.51 10.32 C493.46 6.45, 500.76 5.17, 516.15 -1.27" stroke="#f0883e" stroke-width="2" fill="none"></path></g><g transform="translate(336 230) rotate(0 259 0)"><path d="M489.09 -11.88 C499.22 -6.94, 507.21 -4.71, 515.75 -0.7 M487.5 -10.2 C493.58 -9.57, 500.88 -6.35, 516.15 -1.27" stroke="#f0883e" stroke-width="2" fill="none"></path></g></g><g transform="translate(555 208) rotate(0 29.85498046875 8.75)"><text x="0" y="NaN" font-family="Virgil, Segoe UI Emoji" font-size="14px" fill="#8b949e" text-anchor="start" style="white-space: pre;" direction="ltr">TT.now()</text></g><g stroke-linecap="round"><g transform="translate(854 270) rotate(0 -259 0)"><path d="M0.02 0.53 C-86.34 0.7, -432.2 0.61, -518.62 0.53 M-1.43 -0.24 C-87.35 -0.39, -429.88 -1.58, -516.24 -1.31" stroke="#58a6ff" stroke-width="2" fill="none"></path></g><g transform="translate(854 270) rotate(0 -259 0)"><path d="M-487.16 -12.59 C-494.49 -9.77, -502.59 -6.18, -514.67 0.25 M-487.11 -11.68 C-497.31 -8.67, -507.62 -5.17, -516.34 -0.82" stroke="#58a6ff" stroke-width="2" fill="none"></path></g><g transform="translate(854 270) rotate(0 -259 0)"><path d="M-487.18 7.93 C-494.42 5.44, -502.51 3.72, -514.67 0.25 M-487.13 8.84 C-497.27 4.99, -507.58 1.62, -516.34 -0.82" stroke="#58a6ff" stroke-width="2" fill="none"></path></g></g><g transform="translate(505 248) rotate(0 60.7529296875 8.75)"><text x="0" y="NaN" font-family="Virgil, Segoe UI Emoji" font-size="14px" fill="#8b949e" text-anchor="start" style="white-space: pre;" direction="ltr">[earliest, latest]</text></g><g stroke-linecap="round"><g transform="translate(336 310) rotate(0 124 0)"><path d="M-0.73 -1.17 C40.67 -1.26, 207.02 0.16, 248.52 0.44 M1.09 0.83 C42.36 0.29, 206.75 -1.05, 247.84 -1.45" stroke="#3fb950" stroke-width="2" fill="none"></path></g><g transform="translate(336 310) rotate(0 124 0)"><path d="M217.79 9.92 C229.13 6.44, 238 3.19, 248.29 -0.68 M219.94 9.36 C230.31 4.25, 240.75 0.67, 248.33 -1.98" stroke="#3fb950" stroke-width="2" fill="none"></path></g><g transform="translate(336 310) rotate(0 124 0)"><path d="M217.61 -10.6 C229.17 -7.7, 238.09 -4.56, 248.29 -0.68 M219.76 -11.16 C230.2 -8.79, 240.72 -4.87, 248.33 -1.98" stroke="#3fb950" stroke-width="2" fill="none"></path></g></g><g transform="translate(300 288) rotate(0 120.02891540527344 8.75)"><text x="0" y="NaN" font-family="Virgil, Segoe UI Emoji" font-size="14px" fill="#8b949e" text-anchor="start" style="white-space: pre;" direction="ltr">commit @ s = max(latest, ts_p)+ε</text></g><g stroke-linecap="round"><g transform="translate(584 350) rotate(0 -124 0)"><path d="M0.05 -1.09 C-41.13 -1.05, -205.6 0.15, -246.91 0.51 M-1.38 0.95 C-42.63 0.61, -206.11 -1.06, -247.28 -1.35" stroke="#58a6ff" stroke-width="2" fill="none"></path></g><g transform="translate(584 350) rotate(0 -124 0)"><path d="M-220.82 -9.54 C-226.99 -7.85, -234.95 -4.71, -246.91 -1.53 M-219.5 -11.91 C-226.63 -8.71, -234.79 -4.99, -247.33 -1.08" stroke="#58a6ff" stroke-width="2" fill="none"></path></g><g transform="translate(584 350) rotate(0 -124 0)"><path d="M-221 10.98 C-227.16 6.24, -235.06 2.96, -246.91 -1.53 M-219.68 8.61 C-226.71 5.78, -234.82 3.49, -247.33 -1.08" stroke="#58a6ff" stroke-width="2" fill="none"></path></g></g><g transform="translate(445 328) rotate(0 11.591995239257812 8.75)"><text x="0" y="NaN" font-family="Virgil, Segoe UI Emoji" font-size="14px" fill="#8b949e" text-anchor="start" style="white-space: pre;" direction="ltr">ack</text></g><g stroke-linecap="round"><g transform="translate(336 390) rotate(0 259 0)"><path d="M0.93 -0.08 C87.06 -0.12, 431.81 -0.93, 517.91 -1.11 M-0.03 -1.17 C85.83 -1.03, 430.82 -0.27, 516.91 -0.15" stroke="#f0883e" stroke-width="2" fill="none"></path></g><g transform="translate(336 390) rotate(0 259 0)"><path d="M488.56 9.9 C498.03 5.01, 509.03 -0.13, 518.83 -0.75 M488.01 10.58 C499.85 5.3, 510.17 2.55, 516.27 0.67" stroke="#f0883e" stroke-width="2" fill="none"></path></g><g transform="translate(336 390) rotate(0 259 0)"><path d="M488.6 -10.62 C497.91 -7.43, 508.89 -4.49, 518.83 -0.75 M488.05 -9.94 C499.79 -7.62, 510.09 -2.78, 516.27 0.67" stroke="#f0883e" stroke-width="2" fill="none"></path></g></g><g transform="translate(510 368) rotate(0 62.292938232421875 8.75)"><text x="0" y="NaN" font-family="Virgil, Segoe UI Emoji" font-size="14px" fill="#8b949e" text-anchor="start" style="white-space: pre;" direction="ltr">TT.after(s)? wait</text></g><g stroke-linecap="round"><g transform="translate(324 430) rotate(0 -114 0)"><path d="M1.13 0.62 C-36.96 0.61, -189.13 -1.25, -227.41 -1.2 M0.26 -0.1 C-38.03 0.09, -189.74 -0.16, -228.05 -0.29" stroke="#58a6ff" stroke-width="2" fill="none"></path></g><g transform="translate(324 430) rotate(0 -114 0)"><path d="M-198.8 -9.5 C-212.95 -7.15, -220.38 -3.78, -226.76 0.97 M-199.02 -11.39 C-211.12 -7.06, -223.1 -2.09, -227.46 -0.75" stroke="#58a6ff" stroke-width="2" fill="none"></path></g><g transform="translate(324 430) rotate(0 -114 0)"><path d="M-198.85 11.02 C-212.78 5.35, -220.2 0.71, -226.76 0.97 M-199.06 9.13 C-211.04 5.26, -223 2.03, -227.46 -0.75" stroke="#58a6ff" stroke-width="2" fill="none"></path></g></g><g transform="translate(165 408) rotate(0 32.52898406982422 8.75)"><text x="0" y="NaN" font-family="Virgil, Segoe UI Emoji" font-size="14px" fill="#8b949e" text-anchor="start" style="white-space: pre;" direction="ltr">commit ok</text></g></svg>