<svg version="1.1" xmlns="http://www.w3.org/2000/svg" viewBox="0 0 1192 532" width="1192" height="532">
  <!-- svg-source:excalidraw -->
  
  <defs>
    <style>
      @font-face {
        font-family: "Virgil";
        src: url("https://excalidraw.com/Virgil.woff2");
      }
      @font-face {
        font-family: "Cascadia";
        src: url("https://excalidraw.com/Cascadia.woff2");
      }
    </style>
  </defs>
  <rect x="0" y="0" width="1192" height="532" fill="#0d1117"></rect><g transform="translate(10 10) rotate(0 279 17.5)"><text x="0" y="NaN" font-family="Virgil, Segoe UI Emoji" font-size="28px" fill="#f5e0dc" text-anchor="start" style="white-space: pre;" direction="ltr">TrueTime: The Uncertainty Interval ε</text></g><g transform="translate(10 54) rotate(0 406.5 10)"><text x="0" y="NaN" font-family="Virgil, Segoe UI Emoji" font-size="16px" fill="#8b949e" text-anchor="start" style="white-space: pre;" direction="ltr">TT.now() returns [earliest, latest]; commit wait flushes ε so timestamps reflect real order.</text></g><g stroke-linecap="round"><g transform="translate(50 270) rotate(0 520 0)"><path d="M1.2 -0.47 C174.3 -0.42, 865.64 1.09, 1038.96 0.99 M0.37 -1.77 C173.8 -2.1, 867.7 -0.86, 1041.13 -0.62" stroke="#8b949e" stroke-width="2" fill="none"></path></g></g><g transform="translate(1070 290) rotate(0 56 11)"><text x="0" y="NaN" font-family="Virgil, Segoe UI Emoji" font-size="18px" fill="#8b949e" text-anchor="start" style="white-space: pre;" direction="ltr">real time →</text></g><g stroke-opacity="0.6" fill-opacity="0.6" stroke-linecap="round" transform="translate(420 240) rotate(0 150 30)"><path d="M1.87 -1.38 L298.76 -0.17 L301.42 61.95 L-0.82 58.02" stroke="none" stroke-width="0" fill="#5c3a10"></path><path d="M1.46 0.21 C105.98 -1.74, 213.42 -1.13, 300.37 0.69 M-0.11 -0.33 C86.96 -1.05, 173.16 -1.98, 299.89 -0.11 M300.09 0.14 C302.24 11.47, 298.84 23.89, 300.28 59.39 M299.75 -0.48 C299.34 15.57, 298.98 31.19, 300.61 60.36 M300.93 58.94 C182.39 59.63, 66.22 58.68, -1.23 59.19 M299.44 59.58 C229.94 60.92, 159.93 61.1, -0.68 59.91 M-1.75 60.17 C1.96 45.04, -0.78 31.17, -1.02 0.83 M-0.77 59.8 C1 46.15, 0.47 34.01, 0.59 -0.15" stroke="#f0883e" stroke-width="2" fill="none"></path></g><g transform="translate(420 200) rotate(0 46.5 11)"><text x="0" y="NaN" font-family="Virgil, Segoe UI Emoji" font-size="18px" fill="#ffffff" text-anchor="start" style="white-space: pre;" direction="ltr">[earliest</text></g><g transform="translate(670 200) rotate(0 36.5 11)"><text x="0" y="NaN" font-family="Virgil, Segoe UI Emoji" font-size="18px" fill="#ffffff" text-anchor="start" style="white-space: pre;" direction="ltr">latest]</text></g><g transform="translate(510 258) rotate(0 62.5 13.5)"><text x="0" y="NaN" font-family="Virgil, Segoe UI Emoji" font-size="22px" fill="#ffffff" text-anchor="start" style="white-space: pre;" direction="ltr">ε ≈ 1–7 ms</text></g><g stroke-linecap="round"><g transform="translate(570 240) rotate(0 0 35)"><path d="M-0.72 0.13 C-0.56 11.68, 0.51 58.42, 0.76 69.87" stroke="#f0883e" stroke-width="2.5" fill="none" stroke-dasharray="8 10"></path></g></g><g transform="translate(530 320) rotate(0 41.5 11)"><text x="0" y="NaN" font-family="Virgil, Segoe UI Emoji" font-size="18px" fill="#f0883e" text-anchor="start" style="white-space: pre;" direction="ltr">true now</text></g><g stroke-linecap="round"><g transform="translate(770 270) rotate(0 0 75)"><path d="M0.65 0.65 C0.74 25.7, 0.63 124.8, 0.67 149.72 M-0.47 -0.06 C-0.49 25.22, -0.1 125.84, 0.08 151.11" stroke="#3fb950" stroke-width="2" fill="none"></path></g></g><g transform="translate(750 430) rotate(0 66 11)"><text x="0" y="NaN" font-family="Virgil, Segoe UI Emoji" font-size="18px" fill="#3fb950" text-anchor="start" style="white-space: pre;" direction="ltr">s (commit ts)</text></g><g stroke-linecap="round"><g transform="translate(570 400) rotate(0 100 0)"><path d="M0.26 -0.58 C33.48 -0.57, 165.99 0.61, 199.14 0.73" stroke="#3fb950" stroke-width="2.5" fill="none" stroke-dasharray="8 10"></path></g><g transform="translate(570 400) rotate(0 100 0)"><path d="M169.92 9.38 C180.21 6.49, 187.39 5.36, 197.15 -0.09" stroke="#3fb950" stroke-width="2.5" fill="none"></path></g><g transform="translate(570 400) rotate(0 100 0)"><path d="M170.05 -11.14 C180.42 -8.1, 187.56 -3.3, 197.15 -0.09" stroke="#3fb950" stroke-width="2.5" fill="none"></path></g></g><g transform="translate(600 370) rotate(0 76 11)"><text x="0" y="NaN" font-family="Virgil, Segoe UI Emoji" font-size="18px" fill="#3fb950" text-anchor="start" style="white-space: pre;" direction="ltr">commit wait ≈ ε</text></g><g transform="translate(50 500) rotate(0 402.5 11)"><text x="0" y="NaN" font-family="Virgil, Segoe UI Emoji" font-size="18px" fill="#8b949e" text-anchor="start" style="white-space: pre;" direction="ltr">After wait, no future TT.now().earliest can equal s — external consistency holds.</text></g></svg>