<svg version="1.1" xmlns="http://www.w3.org/2000/svg" viewBox="0 0 2713.359464627677 1004.1033542853543" width="2713.359464627677" height="1004.1033542853543">
  <!-- svg-source:excalidraw -->
  
  <defs>
    <style>
      @font-face {
        font-family: "Virgil";
        src: url("https://excalidraw.com/Virgil.woff2");
      }
      @font-face {
        font-family: "Cascadia";
        src: url("https://excalidraw.com/Cascadia.woff2");
      }
    </style>
  </defs>
  <rect x="0" y="0" width="2713.359464627677" height="1004.1033542853543" fill="#0d1117"></rect><g transform="translate(453.3594646276768 10) rotate(0 228.89593505859375 20)"><text x="0" y="NaN" font-family="Virgil, Segoe UI Emoji" font-size="32px" fill="#ff8c42" text-anchor="start" style="white-space: pre;" direction="ltr">Spanner Deployment Hierarchy</text></g><g transform="translate(453.3594646276768 56) rotate(0 402.75982666015625 10)"><text x="0" y="NaN" font-family="Virgil, Segoe UI Emoji" font-size="16px" fill="#8b949e" text-anchor="start" style="white-space: pre;" direction="ltr">Universe contains Zones; each Zone has a Zone Master + Location Proxies + Spanservers (tablets).</text></g><g stroke-opacity="0.6" fill-opacity="0.6" stroke-linecap="round" transform="translate(415.4660494126094 94.10335428535421) rotate(0 1140 450)"><path d="M-0.67 -0.52 L2280.6 -0.12 L2278.68 898.48 L0.54 901.65" stroke="none" stroke-width="0" fill="#161b22"></path><path d="M0.58 -0.32 C475.69 -1.32, 952.98 -1.73, 2280.76 -0.12 M2280.03 0.17 C2278.7 273.72, 2278.96 549.19, 2280.45 900 M2280.77 899.95 C1809.27 900.85, 1338.82 900.54, 0.43 900.69 M-0.21 899.42 C-1.97 586.6, -3.05 273.38, 0.19 0.43" stroke="#30363d" stroke-width="2.5" fill="none" stroke-dasharray="8 10"></path></g><g transform="translate(471.3594646276768 150) rotate(0 132.65989685058594 11.25)"><text x="0" y="NaN" font-family="Virgil, Segoe UI Emoji" font-size="18px" fill="#8b949e" text-anchor="start" style="white-space: pre;" direction="ltr">Universe (Spanner Deployment)</text></g><g stroke-linecap="round" transform="translate(1243.3594646276767 200) rotate(0 180 55)"><path d="M0.63 -0.94 L361.38 0.88 L359.97 109.55 L1.45 109.99" stroke="none" stroke-width="0" fill="#4a1219"></path><path d="M0.59 -0.61 C115.32 3.13, 232.04 2.88, 358.75 0.78 M-0.21 -0.17 C129.19 -1.41, 257.48 -0.94, 359.81 0.55 M358.88 0.07 C359.37 28.68, 358.65 60.02, 359.83 108.79 M359.71 -0.25 C358.58 43.37, 360.31 85.42, 360.85 110.4 M360.11 111.02 C258.66 110.71, 155.67 111.9, -0.34 110.34 M360.48 110.52 C223.1 109.89, 85.73 110.31, -0.6 110.54 M1.72 109.17 C-2.57 69.25, -0.92 27.65, 0.65 -0.45 M0.32 109.78 C-1.09 69.59, 0.11 30.25, -0.14 0.52" stroke="#f85149" stroke-width="2" fill="none"></path></g><g transform="translate(1340.5495357336338 242.5) rotate(0 82.80992889404297 12.5)"><text x="82.80992889404297" y="NaN" font-family="Virgil, Segoe UI Emoji" font-size="20px" fill="#ffffff" text-anchor="middle" style="white-space: pre;" direction="ltr">Placement Driver</text></g><g stroke-linecap="round" transform="translate(1683.3594646276767 200) rotate(0 180 55)"><path d="M-1.66 1.95 L361.13 1.24 L360.3 111.36 L-1.11 110.9" stroke="none" stroke-width="0" fill="#4a1219"></path><path d="M0.62 -0.29 C140.88 -0.39, 279.63 0.4, 359.31 0.32 M-0.05 0.33 C81.91 -0.79, 164.24 -0.98, 360.22 0.43 M361.43 0.85 C357.96 33.83, 359.84 67.34, 359.62 110.8 M360.62 0.78 C360.25 34.57, 359.75 71.49, 359.97 109.53 M360.46 109.74 C259.71 111.01, 156.57 111.79, 0.28 109.22 M360.43 110.58 C246.08 109.17, 131.8 108.5, -0.02 109.78 M0.01 110.88 C1.16 65.18, 2.57 24.58, -0.43 -0.98 M-0.82 110.68 C1.23 82.23, 0.55 53.03, 0.11 0.61" stroke="#f85149" stroke-width="2" fill="none"></path></g><g transform="translate(1783.2795314611728 242.5) rotate(0 80.0799331665039 12.5)"><text x="80.0799331665039" y="NaN" font-family="Virgil, Segoe UI Emoji" font-size="20px" fill="#ffffff" text-anchor="middle" style="white-space: pre;" direction="ltr">Universe Master</text></g><g stroke-opacity="0.6" fill-opacity="0.6" stroke-linecap="round" transform="translate(483.3594646276768 380) rotate(0 540 280)"><path d="M0.27 -1.48 L1080.05 -0.14 L1079.88 558.65 L0.08 561.13" stroke="none" stroke-width="0" fill="#161b22"></path><path d="M-0.15 -0.53 C297.9 -1.91, 594.88 -2.48, 1080.46 -0.05 M1080.31 -0.62 C1079.98 224.37, 1080.81 447.43, 1079.21 559.9 M1080.19 560.52 C688.96 557.38, 297.25 557.49, 0.37 559.9 M-0.26 559.41 C0.88 380.93, 0.47 201.2, -0.31 0.53" stroke="#30363d" stroke-width="2.5" fill="none" stroke-dasharray="8 10"></path></g><g transform="translate(501.3594646276768 390) rotate(0 94.59895324707031 11.25)"><text x="0" y="NaN" font-family="Virgil, Segoe UI Emoji" font-size="18px" fill="#8b949e" text-anchor="start" style="white-space: pre;" direction="ltr">Zone A (Datacenter)</text></g><g stroke-linecap="round" transform="translate(883.3594646276767 440) rotate(0 310 55)"><path d="M0.72 -0.51 L619.54 0.1 L618.86 110.4 L1.62 108.31" stroke="none" stroke-width="0" fill="#3a1d6e"></path><path d="M0.37 -0.62 C149.48 2.83, 298.01 2.08, 619.39 -0.21 M-0.39 -0.06 C140.26 1.45, 280.26 1.36, 620.21 -0.28 M621.11 1.91 C619.85 30.08, 622.73 59.41, 620.79 108.97 M620.79 -0.51 C621.89 23.39, 620.46 44.56, 620.55 110.48 M620.73 110.21 C469.23 110.41, 319.3 111.37, 0.16 109.89 M619.89 110.14 C445.22 110.89, 270.91 110.88, -0.34 110.13 M1.4 108.96 C0.75 70.35, -0.92 32.6, -1.1 -0.5 M0.37 110.08 C-0.21 81.47, -0.9 53.26, -0.92 0.53" stroke="#a371f7" stroke-width="2" fill="none"></path></g><g transform="translate(1100.3195323767002 470) rotate(0 93.03993225097656 25)"><text x="93.03993225097656" y="NaN" font-family="Virgil, Segoe UI Emoji" font-size="20px" fill="#ffffff" text-anchor="middle" style="white-space: pre;" direction="ltr">Spanserver 1</text><text x="93.03993225097656" y="NaN" font-family="Virgil, Segoe UI Emoji" font-size="20px" fill="#ffffff" text-anchor="middle" style="white-space: pre;" direction="ltr">(100-1000 tablets)</text></g><g stroke-linecap="round" transform="translate(883.3594646276767 590) rotate(0 310 55)"><path d="M1.95 -1.16 L621.06 -1.2 L619.42 111.68 L1.89 110.65" stroke="none" stroke-width="0" fill="#3a1d6e"></path><path d="M0.77 -0.12 C204.25 -0.78, 409.36 0.11, 619.86 -0.78 M-0.3 -0.02 C225.36 -2.25, 451.13 -2.54, 620.26 -0.31 M621.84 1.4 C619.3 31.73, 621.29 61.07, 619.36 111.25 M620.52 0.96 C620.79 40.72, 620.64 83, 619.99 110.83 M620.63 109.67 C452.15 110.33, 283.54 110.32, -0.11 110.3 M620.31 109.99 C458.48 108.58, 296.66 108.35, 0.39 109.96 M-0.97 111.48 C-0.56 75.34, -1.08 42.55, -1.37 -1.14 M-0.34 109.99 C-0.4 70.72, -0.02 31.13, -0.3 -0.45" stroke="#a371f7" stroke-width="2" fill="none"></path></g><g transform="translate(1100.3195323767002 620) rotate(0 93.03993225097656 25)"><text x="93.03993225097656" y="NaN" font-family="Virgil, Segoe UI Emoji" font-size="20px" fill="#ffffff" text-anchor="middle" style="white-space: pre;" direction="ltr">Spanserver 2</text><text x="93.03993225097656" y="NaN" font-family="Virgil, Segoe UI Emoji" font-size="20px" fill="#ffffff" text-anchor="middle" style="white-space: pre;" direction="ltr">(100-1000 tablets)</text></g><g stroke-linecap="round" transform="translate(883.3594646276767 740) rotate(0 310 55)"><path d="M0.48 -1.03 L620.89 -0.56 L621.68 109.04 L1.45 111.67" stroke="none" stroke-width="0" fill="#3a1d6e"></path><path d="M0.77 0.78 C169.52 1.36, 338.26 1.82, 619.28 0.1 M0.23 -0.08 C163.89 -0.01, 327.23 -0.13, 619.61 0.07 M619.49 0.61 C620.69 33.03, 620.49 68.53, 619.66 108.14 M619.37 -0.63 C619.82 26.42, 621.3 50.04, 620.94 109.71 M619.47 109.88 C480.57 111.11, 341.76 110.08, 0.73 110.51 M620.13 110.28 C494.53 110.61, 370.03 111.07, 0.17 110.26 M0.05 111.64 C1.78 72.26, 1.5 35.63, -1.39 1.25 M0.06 109.3 C0.25 85.74, 0.77 60.5, -0.01 0.76" stroke="#a371f7" stroke-width="2" fill="none"></path></g><g transform="translate(1100.3195323767002 770) rotate(0 93.03993225097656 25)"><text x="93.03993225097656" y="NaN" font-family="Virgil, Segoe UI Emoji" font-size="20px" fill="#ffffff" text-anchor="middle" style="white-space: pre;" direction="ltr">Spanserver 3</text><text x="93.03993225097656" y="NaN" font-family="Virgil, Segoe UI Emoji" font-size="20px" fill="#ffffff" text-anchor="middle" style="white-space: pre;" direction="ltr">(100-1000 tablets)</text></g><g stroke-linecap="round" transform="translate(543.3594646276767 440) rotate(0 140 45)"><path d="M-0.84 0.59 L281.84 -1.87 L280.57 89.63 L0.85 91.13" stroke="none" stroke-width="0" fill="#0d2c5a"></path><path d="M-0.45 0.29 C110.82 2.6, 221.43 1.61, 278.73 -1.28 M-0.31 -0.68 C95.67 1.52, 191.64 2.27, 279.66 0.29 M278.82 -0.71 C280.26 26.85, 279.89 55.47, 278.26 89.58 M279.68 0.26 C279.23 33.53, 280.52 65.67, 280.59 89.33 M278.7 90.42 C210.2 89.72, 141.96 90.11, 0.33 89.43 M279.89 90.1 C207.66 91.19, 135.93 90.37, -0.54 89.87 M0.71 88.65 C0.41 56.68, -0.95 24.15, 1.34 1.98 M0.74 90.5 C-0.06 58.81, 0.17 29.42, 0.14 -0.03" stroke="#58a6ff" stroke-width="2" fill="none"></path></g><g transform="translate(619.5295162023838 472.5) rotate(0 63.82994842529297 12.5)"><text x="63.82994842529297" y="NaN" font-family="Virgil, Segoe UI Emoji" font-size="20px" fill="#ffffff" text-anchor="middle" style="white-space: pre;" direction="ltr">Zone Master</text></g><g stroke-linecap="round" transform="translate(543.3594646276767 580) rotate(0 140 40)"><path d="M-0.24 1.54 L279.09 1.45 L280.69 81.22 L-1.1 79.25" stroke="none" stroke-width="0" fill="#5c3a10"></path><path d="M-0.44 0.76 C111.5 -1.03, 223.12 -1.36, 280.46 0.96 M0.03 -0.53 C105.78 -1.83, 211.39 -0.58, 280.64 0.14 M281.33 1.1 C280.59 21.78, 281.19 41.75, 278.46 79.32 M279.69 0.66 C280.65 18.58, 281.29 37.04, 279.39 79.1 M281.51 81.35 C217.18 79.74, 153.1 80.41, 1.28 79.43 M280.12 79.89 C179.96 78.69, 78.34 80.02, -0.47 79.88 M0.92 80.46 C0.68 51.34, 0.34 23.95, -0.02 -0.65 M0.68 79.53 C0.43 52.22, 1.04 22.1, -0.09 0.42" stroke="#f0883e" stroke-width="2" fill="none"></path></g><g transform="translate(610.6935024084385 608.75) rotate(0 72.66596221923828 11.25)"><text x="72.66596221923828" y="NaN" font-family="Virgil, Segoe UI Emoji" font-size="18px" fill="#ffffff" text-anchor="middle" style="white-space: pre;" direction="ltr">Location Proxy 1</text></g><g stroke-linecap="round" transform="translate(543.3594646276767 700) rotate(0 140 40)"><path d="M1.03 -1.97 L279.57 1.09 L281.75 78.32 L-1.48 79.61" stroke="none" stroke-width="0" fill="#5c3a10"></path><path d="M0.95 -1.43 C102.92 1.67, 204.64 2.78, 280.62 -1.33 M0.08 -0.1 C87.24 -0.72, 174.89 -1.34, 280 0.1 M281.45 -1.43 C281.08 26.08, 279.03 52.26, 278.6 80.04 M280.93 0.14 C279.92 27.59, 280.93 55.94, 279.94 80.34 M280.99 80.62 C212.85 82.77, 146.09 80.96, -0.59 79.56 M280.75 80.66 C177.15 80.42, 73.9 80.62, -0.68 79.32 M-1.2 81.51 C0.64 49.58, -0.74 22.33, 1.63 0.92 M0.52 79.37 C-0.06 51.42, -0.93 23.9, -0.13 0.06" stroke="#f0883e" stroke-width="2" fill="none"></path></g><g transform="translate(606.7245006384189 728.75) rotate(0 76.63496398925781 11.25)"><text x="76.63496398925781" y="NaN" font-family="Virgil, Segoe UI Emoji" font-size="18px" fill="#ffffff" text-anchor="middle" style="white-space: pre;" direction="ltr">Location Proxy 2</text></g><g stroke-linecap="round"><g transform="translate(827.3594646276767 620) rotate(0 26 -62.5)"><path d="M-1.11 -0.41 C7.6 -21.46, 42.5 -104.43, 51.36 -125.34 M0.51 -1.67 C9.69 -22.64, 45.27 -103.42, 53.74 -123.98" stroke="#58a6ff" stroke-width="2" fill="none"></path></g><g transform="translate(827.3594646276767 620) rotate(0 26 -62.5)"><path d="M51.39 -95.09 C51.64 -100.73, 51.12 -109.08, 54.19 -124.12 M51.25 -94 C52.27 -102.92, 52.23 -109.62, 53.45 -123.25" stroke="#58a6ff" stroke-width="2" fill="none"></path></g><g transform="translate(827.3594646276767 620) rotate(0 26 -62.5)"><path d="M32.53 -103.17 C37.12 -106.8, 40.87 -113.32, 54.19 -124.12 M32.38 -102.08 C38.55 -108.74, 43.59 -113.26, 53.45 -123.25" stroke="#58a6ff" stroke-width="2" fill="none"></path></g></g><g stroke-linecap="round"><g transform="translate(827.3594646276767 740) rotate(0 26 27.5)"><path d="M0.79 -0.53 C9.41 8.86, 43.32 46.14, 51.89 55.56 M-0.26 1.81 C8.19 10.91, 42.25 45, 50.88 53.74" stroke="#58a6ff" stroke-width="2" fill="none"></path></g><g transform="translate(827.3594646276767 740) rotate(0 26 27.5)"><path d="M22.86 40.77 C33.05 45.06, 42.27 50.01, 49.15 55.26 M23.15 40.42 C30.07 42.94, 35.58 46.62, 50.06 54.11" stroke="#58a6ff" stroke-width="2" fill="none"></path></g><g transform="translate(827.3594646276767 740) rotate(0 26 27.5)"><path d="M37.42 26.31 C42.98 35.2, 47.66 44.66, 49.15 55.26 M37.72 25.96 C41.18 31.89, 43.34 38.9, 50.06 54.11" stroke="#58a6ff" stroke-width="2" fill="none"></path></g></g><g stroke-opacity="0.6" fill-opacity="0.6" stroke-linecap="round" transform="translate(1623.3594646276767 380) rotate(0 540 280)"><path d="M0.62 -0.13 L1080.44 1.73 L1081.02 559.3 L-1.84 558.05" stroke="none" stroke-width="0" fill="#161b22"></path><path d="M-0.17 0.69 C322.34 0.06, 645.36 -0.25, 1079.86 0.05 M1079.69 0.63 C1078.95 153.23, 1078.35 306.44, 1079.67 560.65 M1079.73 559.34 C659.56 559.05, 240.33 559.52, 0.63 559.72 M0.6 559.62 C-1.77 416.45, -0.9 273.77, -0.78 0.17" stroke="#30363d" stroke-width="2.5" fill="none" stroke-dasharray="8 10"></path></g><g transform="translate(1641.3594646276767 390) rotate(0 95.23795318603516 11.25)"><text x="0" y="NaN" font-family="Virgil, Segoe UI Emoji" font-size="18px" fill="#8b949e" text-anchor="start" style="white-space: pre;" direction="ltr">Zone B (Datacenter)</text></g><g stroke-linecap="round" transform="translate(2023.3594646276767 440) rotate(0 310 55)"><path d="M-1.46 1.89 L619.88 1.84 L618.55 109.36 L0.13 109.36" stroke="none" stroke-width="0" fill="#3a1d6e"></path><path d="M-0.31 0.21 C214.69 -0.02, 430.82 0.75, 619.36 0.16 M0.32 -0.08 C147.13 -0.1, 295.06 -0.4, 620.19 0.21 M618.54 1.13 C620.96 37.62, 618.64 71.1, 618.18 111.1 M619.46 -0.64 C620.86 28.4, 620.07 57.51, 620.3 110.89 M619.44 109.31 C383.62 108.09, 147.99 108, -0.46 110.29 M619.69 110.39 C489.71 108.62, 358.38 109.32, -0.32 110.2 M1.27 108.8 C0.51 72.41, 0.37 34.53, -0.31 1.29 M-0.96 109.82 C0.24 76, 1.05 42.21, 0.21 -0.15" stroke="#a371f7" stroke-width="2" fill="none"></path></g><g transform="translate(2240.3195323767004 470) rotate(0 93.03993225097656 25)"><text x="93.03993225097656" y="NaN" font-family="Virgil, Segoe UI Emoji" font-size="20px" fill="#ffffff" text-anchor="middle" style="white-space: pre;" direction="ltr">Spanserver 4</text><text x="93.03993225097656" y="NaN" font-family="Virgil, Segoe UI Emoji" font-size="20px" fill="#ffffff" text-anchor="middle" style="white-space: pre;" direction="ltr">(100-1000 tablets)</text></g><g stroke-linecap="round" transform="translate(2023.3594646276767 590) rotate(0 310 55)"><path d="M1.29 0.26 L620.36 1.78 L621.44 108.94 L0.76 108.19" stroke="none" stroke-width="0" fill="#3a1d6e"></path><path d="M-0.69 -0.04 C136.37 -0.25, 272.72 -0.9, 620.56 0.05 M-0.01 0.06 C183.93 0.66, 366.73 1.24, 620.32 0.01 M620.72 0.84 C621.56 35.27, 620.74 66.31, 621.28 110.5 M619.86 1 C618.84 39.2, 619.65 79.38, 620.2 109.04 M620.52 109.4 C438.51 109.71, 258.15 109.69, -0.59 109.63 M620.01 110.19 C408.61 110.59, 196.65 110.97, 0.01 110.13 M-1.13 110.73 C-0.44 78.13, 0.06 48.33, 0.11 -0.24 M0.71 109.76 C-0.09 84.72, -1.45 61.31, -0.58 -0.68" stroke="#a371f7" stroke-width="2" fill="none"></path></g><g transform="translate(2240.3195323767004 620) rotate(0 93.03993225097656 25)"><text x="93.03993225097656" y="NaN" font-family="Virgil, Segoe UI Emoji" font-size="20px" fill="#ffffff" text-anchor="middle" style="white-space: pre;" direction="ltr">Spanserver 5</text><text x="93.03993225097656" y="NaN" font-family="Virgil, Segoe UI Emoji" font-size="20px" fill="#ffffff" text-anchor="middle" style="white-space: pre;" direction="ltr">(100-1000 tablets)</text></g><g stroke-linecap="round" transform="translate(2023.3594646276767 740) rotate(0 310 55)"><path d="M-1.23 1.06 L618.83 0.38 L621.07 111.61 L-0.58 108.47" stroke="none" stroke-width="0" fill="#3a1d6e"></path><path d="M-0.66 0.13 C211.3 -2.04, 423.64 -2.13, 620 0.21 M-0.14 0.15 C132.25 -1.83, 264.04 -1.45, 620.12 0.24 M618.81 -0.32 C621.39 31.07, 622.47 58.21, 621.36 111.94 M619.75 -0.78 C619.52 43.4, 620.43 86.08, 620.59 109.64 M620.27 110.75 C483.84 110.66, 347.53 110.47, -0.16 110.52 M620.34 110.19 C461.16 107.83, 301.51 107.61, -0.06 110.04 M-1.55 110.16 C-1.07 70.91, -2.72 30.53, 0.37 0.45 M-0.44 109.58 C-1.1 86.01, 0.46 62.22, -0.71 0.17" stroke="#a371f7" stroke-width="2" fill="none"></path></g><g transform="translate(2240.3195323767004 770) rotate(0 93.03993225097656 25)"><text x="93.03993225097656" y="NaN" font-family="Virgil, Segoe UI Emoji" font-size="20px" fill="#ffffff" text-anchor="middle" style="white-space: pre;" direction="ltr">Spanserver 6</text><text x="93.03993225097656" y="NaN" font-family="Virgil, Segoe UI Emoji" font-size="20px" fill="#ffffff" text-anchor="middle" style="white-space: pre;" direction="ltr">(100-1000 tablets)</text></g><g stroke-linecap="round" transform="translate(1683.3594646276767 440) rotate(0 140 45)"><path d="M-1.1 0.67 L278.31 -1.4 L281.18 90.33 L0.06 88.58" stroke="none" stroke-width="0" fill="#0d2c5a"></path><path d="M-0.82 -1.16 C60.38 0.18, 118.84 -0.41, 279.52 -0.16 M-0.45 -0.64 C103.47 1.53, 205.42 1.31, 279.68 0.3 M279.24 -0.05 C278.72 36.21, 278.8 68.69, 280.04 89.4 M279.55 -0.6 C279.79 25.43, 281.59 49.22, 280.94 90.75 M279.24 88.54 C172.2 88.7, 65.54 89.31, 0.19 89.62 M280.46 89.63 C174.85 89.34, 69.58 88.98, 0.12 89.51 M-1.98 89.02 C0.56 59.84, 2.27 29.13, 1.44 -0.79 M0.34 90.51 C0.96 67.63, 0.34 46.65, -0.78 -0.04" stroke="#58a6ff" stroke-width="2" fill="none"></path></g><g transform="translate(1759.5295162023838 472.5) rotate(0 63.82994842529297 12.5)"><text x="63.82994842529297" y="NaN" font-family="Virgil, Segoe UI Emoji" font-size="20px" fill="#ffffff" text-anchor="middle" style="white-space: pre;" direction="ltr">Zone Master</text></g><g stroke-linecap="round" transform="translate(1683.3594646276767 580) rotate(0 140 40)"><path d="M-0.31 1.34 L279.32 -0.07 L278.61 81.44 L-0.17 79.2" stroke="none" stroke-width="0" fill="#5c3a10"></path><path d="M0.32 -0.82 C57.28 0.95, 112.29 1.11, 280.33 -0.05 M0.23 -0.13 C111.72 -1.66, 223.57 -1.63, 279.61 -0.25 M279.85 -0.21 C279.81 19.05, 281.18 40.47, 280.79 78.13 M280.75 -0.29 C279.44 29.86, 281.19 58.69, 280.1 79.94 M280.89 78.88 C203.03 81.18, 124.83 79.49, 0.86 79.59 M280.55 80.2 C203.44 79.56, 126.34 80.13, 0.33 80.33 M0.23 78.6 C0.99 56.85, 0.84 30.31, 1.95 -1.01 M0.66 79.3 C-0.6 58.05, -0.71 34.45, -0.02 -0.19" stroke="#f0883e" stroke-width="2" fill="none"></path></g><g transform="translate(1750.6935024084385 608.75) rotate(0 72.66596221923828 11.25)"><text x="72.66596221923828" y="NaN" font-family="Virgil, Segoe UI Emoji" font-size="18px" fill="#ffffff" text-anchor="middle" style="white-space: pre;" direction="ltr">Location Proxy 1</text></g><g stroke-linecap="round" transform="translate(1683.3594646276767 700) rotate(0 140 40)"><path d="M0.15 0.78 L278.8 -0.15 L278.89 78.85 L0.17 81.23" stroke="none" stroke-width="0" fill="#5c3a10"></path><path d="M1.33 -1.37 C81.76 -1.93, 163.98 -0.38, 279.75 0.13 M-0.76 -0.17 C98.92 -0.59, 198.22 -1.1, 279.38 0.34 M280.11 -1.89 C282.26 29.1, 281.64 57.17, 279.51 81.82 M280.41 -0.06 C279.86 22.85, 279.3 44.81, 280.38 80.22 M280.57 80.46 C218.25 81.7, 156.9 81.1, 0.33 79 M280.26 79.42 C212.87 77.55, 144.67 77.21, -0.5 80.14 M-1.55 79.05 C-0.6 50.3, -1.16 20.46, 0.65 0.38 M-0.13 79 C-0.12 52.76, 0.94 26.57, -0.01 -0.7" stroke="#f0883e" stroke-width="2" fill="none"></path></g><g transform="translate(1746.724500638419 728.75) rotate(0 76.63496398925781 11.25)"><text x="76.63496398925781" y="NaN" font-family="Virgil, Segoe UI Emoji" font-size="18px" fill="#ffffff" text-anchor="middle" style="white-space: pre;" direction="ltr">Location Proxy 2</text></g><g stroke-linecap="round"><g transform="translate(1967.3594646276767 620) rotate(0 26 -62.5)"><path d="M0.84 1.2 C9.41 -19.49, 42.4 -103.76, 51 -124.97 M-0.18 0.78 C8.79 -19.63, 44.51 -102.41, 53.19 -123.42" stroke="#58a6ff" stroke-width="2" fill="none"></path></g><g transform="translate(1967.3594646276767 620) rotate(0 26 -62.5)"><path d="M53.63 -95.12 C52.31 -100.75, 50.93 -109.44, 52.8 -124.55 M52.23 -93.24 C52.12 -104.13, 51.52 -112.88, 53.34 -123.63" stroke="#58a6ff" stroke-width="2" fill="none"></path></g><g transform="translate(1967.3594646276767 620) rotate(0 26 -62.5)"><path d="M34.74 -103.13 C38.41 -106.75, 42.09 -113.29, 52.8 -124.55 M33.34 -101.25 C39.38 -109.4, 44.9 -115.56, 53.34 -123.63" stroke="#58a6ff" stroke-width="2" fill="none"></path></g></g><g stroke-linecap="round"><g transform="translate(1967.3594646276767 740) rotate(0 26 27.5)"><path d="M0.05 -0.4 C8.8 8.87, 44.33 45.81, 52.85 55.1 M-1.38 -1.65 C7.25 7.87, 43.18 47.55, 52.35 56.69" stroke="#58a6ff" stroke-width="2" fill="none"></path></g><g transform="translate(1967.3594646276767 740) rotate(0 26 27.5)"><path d="M24.87 44.67 C34.56 46.34, 43.89 50.26, 52.31 55.03 M26.2 43.11 C32.94 47.61, 39.29 49.42, 51.91 55.73" stroke="#58a6ff" stroke-width="2" fill="none"></path></g><g transform="translate(1967.3594646276767 740) rotate(0 26 27.5)"><path d="M39.78 30.57 C44.45 36.94, 48.82 45.55, 52.31 55.03 M41.11 29.01 C43.86 37.34, 46.23 42.91, 51.91 55.73" stroke="#58a6ff" stroke-width="2" fill="none"></path></g></g><g stroke-linecap="round" transform="translate(10 579.0564630646664) rotate(0 140 40)"><path d="M1.21 0.8 L281.72 -1.28 L281.51 80.59 L-0.25 80.3" stroke="none" stroke-width="0" fill="#1f4d2b"></path><path d="M0.87 1.41 C103.78 -2.74, 208.67 -3.27, 279.12 -1.46 M-0.28 0.08 C71.02 -0.87, 140.52 -0.31, 279.63 0.08 M278.3 1.31 C280.07 24.83, 278.13 48.05, 278.58 79.55 M279.61 0.76 C279.22 22.65, 278.31 42.55, 280.1 80.15 M279.43 78.48 C184.78 78.97, 87.52 77.83, -1.41 78.91 M279.48 79.89 C209.04 81.91, 137.09 81.79, 0.47 80.03 M0.27 79.61 C0.3 53.9, 2.19 25.17, 1.15 -0.61 M0.54 80.21 C0.23 55.46, -0.31 30.63, -0.51 0.97" stroke="#3fb950" stroke-width="2" fill="none"></path></g><g transform="translate(120.2450180053711 605.3064630646664) rotate(0 29.754981994628906 13.75)"><text x="29.754981994628906" y="NaN" font-family="Virgil, Segoe UI Emoji" font-size="22px" fill="#ffffff" text-anchor="middle" style="white-space: pre;" direction="ltr">Client</text></g><g stroke-linecap="round"><g transform="translate(296 619.0868076872379) rotate(0 120.6797323138384 0.4494238450953958)"><path d="M0.05 -1.02 C40.02 -1.19, 200.61 -0.73, 240.81 -0.22 M-1.38 1.06 C38.29 0.93, 199.27 0.86, 239.57 0.73" stroke="#3fb950" stroke-width="2" fill="none"></path></g><g transform="translate(296 619.0868076872379) rotate(0 120.6797323138384 0.4494238450953958)"><path d="M209.7 10.12 C220.36 6.89, 234.98 1.24, 237.85 -0.56 M212.22 11.73 C219.76 7.9, 226.98 6.16, 239.73 1.56" stroke="#3fb950" stroke-width="2" fill="none"></path></g><g transform="translate(296 619.0868076872379) rotate(0 120.6797323138384 0.4494238450953958)"><path d="M209.67 -10.4 C220.47 -5.7, 235.1 -3.42, 237.85 -0.56 M212.18 -8.79 C219.84 -6.65, 227.07 -2.42, 239.73 1.56" stroke="#3fb950" stroke-width="2" fill="none"></path></g></g><g transform="translate(833.3594646276767 950) rotate(0 136.23387145996094 8.75)"><text x="0" y="NaN" font-family="Virgil, Segoe UI Emoji" font-size="14px" fill="#3fb950" text-anchor="start" style="white-space: pre;" direction="ltr">read / write (routed to nearest proxy)</text></g><g stroke-linecap="round"><g transform="translate(1441.856633858446 316) rotate(0 181.5348307692309 59)"><path d="M0.24 -0.65 C60.71 19.12, 302.16 98.12, 362.73 118.03" stroke="#f0883e" stroke-width="2.5" fill="none" stroke-dasharray="8 10"></path></g><g transform="translate(1441.856633858446 316) rotate(0 181.5348307692309 59)"><path d="M331.66 118.43 C341.52 119.61, 351.56 120.04, 362.44 119.95" stroke="#f0883e" stroke-width="2.5" fill="none"></path></g><g transform="translate(1441.856633858446 316) rotate(0 181.5348307692309 59)"><path d="M338.05 98.93 C345.95 105.8, 354.13 111.9, 362.44 119.95" stroke="#f0883e" stroke-width="2.5" fill="none"></path></g></g><g transform="translate(1366.8358739840264 343.9156838718193) rotate(0 81.33293914794922 8.75)"><text x="0" y="NaN" font-family="Virgil, Segoe UI Emoji" font-size="14px" fill="#f0883e" text-anchor="start" style="white-space: pre;" direction="ltr">moves data (rebalance)</text></g><g stroke-linecap="round"><g transform="translate(1888.350802234167 316) rotate(0 245.39415313048698 59)"><path d="M-1.08 -0.83 C80.65 18.7, 407.69 97.17, 489.69 117.05" stroke="#f0883e" stroke-width="2.5" fill="none" stroke-dasharray="8 10"></path></g><g transform="translate(1888.350802234167 316) rotate(0 245.39415313048698 59)"><path d="M458.49 118.59 C465.58 120.02, 475.22 120.17, 488.62 115.75" stroke="#f0883e" stroke-width="2.5" fill="none"></path></g><g transform="translate(1888.350802234167 316) rotate(0 245.39415313048698 59)"><path d="M463.3 98.64 C469.19 104.9, 477.66 109.92, 488.62 115.75" stroke="#f0883e" stroke-width="2.5" fill="none"></path></g></g><g transform="translate(1843.5273078890823 333.11671769020404) rotate(0 50.03595733642578 8.75)"><text x="0" y="NaN" font-family="Virgil, Segoe UI Emoji" font-size="14px" fill="#f0883e" text-anchor="start" style="white-space: pre;" direction="ltr">monitors zones</text></g></svg>