<svg version="1.1" xmlns="http://www.w3.org/2000/svg" viewBox="0 0 981.8126068375044 480.4276478125008" width="981.8126068375044" height="480.4276478125008">
  <!-- svg-source:excalidraw -->
  
  <defs>
    <style>
      @font-face {
        font-family: "Virgil";
        src: url("https://excalidraw.com/Virgil.woff2");
      }
      @font-face {
        font-family: "Cascadia";
        src: url("https://excalidraw.com/Cascadia.woff2");
      }
    </style>
  </defs>
  <rect x="0" y="0" width="981.8126068375044" height="480.4276478125008" fill="#1e1e2e"></rect><g stroke-opacity="0.5" fill-opacity="0.5" stroke-linecap="round" transform="translate(10 12.411124868478908) rotate(0 278.35446354569825 75)"><path d="M1.76 1.04 L555.69 1.23 L558.08 150.15 L-1.34 149.04" stroke="none" stroke-width="0" fill="#181825"></path><path d="M-0.07 0.11 C163.47 -1.71, 328.66 -0.86, 556.63 0.52 M556.99 0.22 C557.7 48.93, 555.75 97.23, 557.21 151 M556.31 150.23 C405.98 149.71, 254.06 148.81, 0.66 149.24 M1.69 148.11 C0.14 120.2, -0.89 90.4, 1.72 -1.68" stroke="#45475a" stroke-width="2.5" fill="none" stroke-dasharray="8 10"></path></g><g transform="translate(36.584787480701095 22.28695669367613) rotate(0 39.671966552734375 11.25)"><text x="0" y="NaN" font-family="Virgil, Segoe UI Emoji" font-size="18px" fill="#a6adc8" text-anchor="start" style="white-space: pre;" direction="ltr">Ingestion</text></g><g stroke-opacity="0.5" fill-opacity="0.5" stroke-linecap="round" transform="translate(750.9912607761545 10) rotate(0 110.41067303067496 84.38259539770232)"><path d="M0.26 -0.36 L220.99 1.25 L219.79 169.2 L0.37 167.87" stroke="none" stroke-width="0" fill="#181825"></path><path d="M0.41 -0.75 C76.02 -0.38, 150.44 -3.18, 220.69 0.56 M219.79 0.2 C221.49 43.41, 218.33 82.76, 221.83 170.08 M219.13 167.24 C157.28 170.11, 89.71 169.47, -0.76 169.23 M-0.75 169.39 C0.96 106.25, 2.56 46.68, -0.74 -0.8" stroke="#45475a" stroke-width="2.5" fill="none" stroke-dasharray="8 10"></path></g><g transform="translate(770.9912607761545 20) rotate(0 25.838973999023438 11.25)"><text x="0" y="NaN" font-family="Virgil, Segoe UI Emoji" font-size="18px" fill="#a6adc8" text-anchor="start" style="white-space: pre;" direction="ltr">Config</text></g><g stroke-opacity="0.5" fill-opacity="0.5" stroke-linecap="round" transform="translate(10.965352573184873 198.7784845117859) rotate(0 421.09291287513264 135.82458165035746)"><path d="M-1.25 -1.77 L843.53 1.26 L842.75 272.37 L-1.91 270.82" stroke="none" stroke-width="0" fill="#181825"></path><path d="M0.44 0.79 C323.64 2.12, 647.27 1.88, 842.15 0 M843.48 0.13 C842.44 99.37, 842.16 199.13, 843.38 272.92 M842.62 271.61 C574.43 269.95, 307.33 270.26, 0.24 271.24 M0.62 270.98 C1.74 185.45, 1.92 100.73, 0.62 0.06" stroke="#45475a" stroke-width="2.5" fill="none" stroke-dasharray="8 10"></path></g><g transform="translate(31.708927091396504 212.41509527940548) rotate(0 36.827972412109375 11.25)"><text x="0" y="NaN" font-family="Virgil, Segoe UI Emoji" font-size="18px" fill="#a6adc8" text-anchor="start" style="white-space: pre;" direction="ltr">Channels</text></g><g stroke-linecap="round" transform="translate(46.708927091396504 57.41112486847891) rotate(0 70 32)"><path d="M0.34 -0.47 L139.32 -0.09 L139.76 64.78 L0.2 62.15" stroke="none" stroke-width="0" fill="#2d6a4f"></path><path d="M1.55 1.91 C42.79 0.13, 82.46 1.99, 140.28 -0.51 M0.24 -0.01 C56.91 1.29, 112.47 0.2, 140.56 -0.07 M138.39 -0.44 C137.52 18.7, 141.39 35.89, 138.94 64.14 M139.84 0.39 C140.1 13.67, 139.42 28.63, 139.78 63.1 M141.37 63.76 C95.16 63.22, 52.57 65.74, 1.16 62.9 M139.74 63.45 C98.28 63.93, 57.47 64.79, 0.88 64.91 M-1.54 62.13 C-1.17 39.88, -1.58 18.56, 0.66 -1.36 M-0.4 63.61 C-1.05 49.72, 0.35 35.25, 0.55 -1" stroke="#40916c" stroke-width="2" fill="none"></path></g><g transform="translate(77.51897042635744 64.41112486847891) rotate(0 39.18995666503906 25)"><text x="39.18995666503906" y="NaN" font-family="Virgil, Segoe UI Emoji" font-size="20px" fill="#ffffff" text-anchor="middle" style="white-space: pre;" direction="ltr">Product</text><text x="39.18995666503906" y="NaN" font-family="Virgil, Segoe UI Emoji" font-size="20px" fill="#ffffff" text-anchor="middle" style="white-space: pre;" direction="ltr">Services</text></g><g stroke-linecap="round" transform="translate(346.7089270913965 57.28695669367613) rotate(0 70 32)"><path d="M1.24 -0.26 L138.84 -1.78 L140.74 65.51 L-0.23 62.98" stroke="none" stroke-width="0" fill="#b45309"></path><path d="M-1.82 0.76 C47.55 -0.95, 97.81 -0.45, 140.33 -1.15 M-0.42 -0.03 C44.08 -1.34, 89.69 -1.16, 140.82 0.09 M141.43 1.23 C139.07 18.76, 138.3 38.94, 140.42 62.59 M140.62 -0.35 C138.38 24.58, 139.01 47.92, 140.54 63.53 M141.39 65.35 C105.98 62.96, 73.7 62.24, 1.72 63.67 M139.48 64.13 C109.93 64.95, 79.46 65.16, 0.38 63.35 M0.41 63.45 C-1.08 46.91, 2.17 32.19, -1.34 1.83 M-0.83 63.84 C0.51 46.32, 0.45 28.33, -0.04 -0.7" stroke="#d97706" stroke-width="2" fill="none"></path></g><g transform="translate(365.5689658487207 64.28695669367613) rotate(0 51.13996124267578 25)"><text x="51.13996124267578" y="NaN" font-family="Virgil, Segoe UI Emoji" font-size="20px" fill="#ffffff" text-anchor="middle" style="white-space: pre;" direction="ltr">Event Bus</text><text x="51.13996124267578" y="NaN" font-family="Virgil, Segoe UI Emoji" font-size="20px" fill="#ffffff" text-anchor="middle" style="white-space: pre;" direction="ltr">(Kafka)</text></g><g stroke-linecap="round" transform="translate(346.7089270913965 252.28695669367613) rotate(0 90 32)"><path d="M-1.87 -0.06 L178.35 0.52 L181.71 62.24 L-0.67 63.82" stroke="none" stroke-width="0" fill="#5b21b6"></path><path d="M-1.18 -0.39 C71.87 -2.27, 140.28 0.86, 180.38 -1.8 M0.93 -0.04 C42.76 0.88, 85.92 0.33, 179.08 0.24 M180.47 -1.1 C180.62 18.81, 179.21 41.98, 181.9 65.04 M179.39 0.91 C179.94 20.68, 179.89 43.61, 179.31 63.97 M181.41 62.95 C114.38 65.5, 49.99 65.53, -1.71 64.43 M179.21 64.81 C117.82 62.81, 55.93 62.38, -0.12 63.8 M-1.63 64.77 C1.72 41.14, 0.65 20.22, 0.67 1.03 M0.74 64.07 C0.79 42.92, 1.27 19.4, -0.63 -0.4" stroke="#7c3aed" stroke-width="2" fill="none"></path></g><g transform="translate(380.0989875162012 259.28695669367613) rotate(0 56.60993957519531 25)"><text x="56.60993957519531" y="NaN" font-family="Virgil, Segoe UI Emoji" font-size="20px" fill="#ffffff" text-anchor="middle" style="white-space: pre;" direction="ltr">Notification</text><text x="56.60993957519531" y="NaN" font-family="Virgil, Segoe UI Emoji" font-size="20px" fill="#ffffff" text-anchor="middle" style="white-space: pre;" direction="ltr">Service</text></g><g stroke-linecap="round" transform="translate(770.9912607761545 45) rotate(0 90 27.5)"><path d="M-0.97 0.15 L181.86 -1.17 L178.69 53.97 L-1.1 55.65" stroke="none" stroke-width="0" fill="#1e40af"></path><path d="M-0.55 -1.55 C42.42 0.03, 83.23 1.8, 180.44 1.56 M0.27 -0.06 C64.69 1.39, 128.65 2.12, 179.33 0.4 M179.51 0.56 C180.93 19.74, 178.87 38.77, 179.37 54.5 M180.17 0.17 C180.15 16.16, 181.41 32.05, 180.08 55.41 M181.42 55.55 C128.2 55.28, 77.14 56.06, -1.15 56.2 M180.95 54.49 C130.43 55.07, 81.86 53.99, -0.63 55.24 M0.33 53.09 C1.78 41.23, 0.37 29, -1.33 0.22 M0.31 55.3 C1.02 43.17, 0.04 32.77, 0.77 -0.09" stroke="#3b82f6" stroke-width="2" fill="none"></path></g><g transform="translate(809.6283075901193 50) rotate(0 51.362953186035156 22.5)"><text x="51.362953186035156" y="NaN" font-family="Virgil, Segoe UI Emoji" font-size="18px" fill="#ffffff" text-anchor="middle" style="white-space: pre;" direction="ltr">User</text><text x="51.362953186035156" y="NaN" font-family="Virgil, Segoe UI Emoji" font-size="18px" fill="#ffffff" text-anchor="middle" style="white-space: pre;" direction="ltr">Preferences</text></g><g stroke-linecap="round" transform="translate(770.9912607761545 110) rotate(0 90 25)"><path d="M-0.07 0.35 L181.38 1.13 L179.66 49.69 L-1.54 51.48" stroke="none" stroke-width="0" fill="#1e40af"></path><path d="M0.08 1.3 C48.97 -1.28, 102.18 -0.87, 180.49 0.91 M-0.38 -0.07 C48.62 0.3, 99.39 0.3, 179.59 0.56 M178.56 -1.77 C178.39 17.73, 179.7 37.69, 180.85 51.95 M180.95 -0.57 C180.4 13.4, 180.97 24.01, 180.85 50.85 M181.44 48.15 C142.03 49.46, 104.29 46.99, -0.58 51.96 M180.68 50.17 C109.05 51.32, 37.79 49.6, 0.87 50.68 M-1.71 49.41 C1.76 32.92, 0.02 16.94, 0.67 -0.59 M-0.12 50.53 C-0.71 36.68, 0.86 22.66, 0.18 0.21" stroke="#3b82f6" stroke-width="2" fill="none"></path></g><g transform="translate(815.4332850071115 123.75) rotate(0 45.55797576904297 11.25)"><text x="45.55797576904297" y="NaN" font-family="Virgil, Segoe UI Emoji" font-size="18px" fill="#ffffff" text-anchor="middle" style="white-space: pre;" direction="ltr">Templates</text></g><g stroke-linecap="round" transform="translate(726.3563832292124 401.66786929023505) rotate(0 50 25)"><path d="M0.83 0.56 L100.89 -0.56 L100.64 50.42 L-1.98 48.31" stroke="none" stroke-width="0" fill="#2d6a4f"></path><path d="M0.72 0.15 C33.61 1.67, 65.3 0.71, 100.54 0.27 M0.96 -0.08 C39.01 0.31, 79.03 1.58, 99.85 0.72 M101.6 -0.11 C98.83 21.47, 99.49 40.08, 98.33 50.4 M99.73 0.69 C100.69 10.11, 100.58 20.89, 99.62 49.28 M101.46 49.75 C66.64 48.42, 33.01 50.71, -0.01 48.73 M100.42 50.85 C67.4 51.85, 35.18 51.49, 0.37 49.13 M0.25 50.73 C0.75 38.45, -1.32 27.58, -1.32 -1.4 M-0.55 50.76 C-0.4 34.16, -0.29 17.49, -0.42 0.51" stroke="#40916c" stroke-width="2" fill="none"></path></g><g transform="translate(754.252402211146 415.41786929023505) rotate(0 22.103981018066406 11.25)"><text x="22.103981018066406" y="NaN" font-family="Virgil, Segoe UI Emoji" font-size="18px" fill="#ffffff" text-anchor="middle" style="white-space: pre;" direction="ltr">Email</text></g><g stroke-linecap="round" transform="translate(721.1666416899064 252.75557943943517) rotate(0 50 25)"><path d="M1.72 0.76 L100.41 1.74 L101.61 51.15 L1.59 49.14" stroke="none" stroke-width="0" fill="#2d6a4f"></path><path d="M1.35 -1 C36.57 0.82, 73.05 -1.5, 100.6 -0.38 M0.3 -0.1 C31.42 0.14, 62.74 -1.31, 100.11 0.88 M100.64 1.56 C100.27 11.2, 100.29 22.48, 99.81 48.85 M100.5 -0.05 C100.98 18.81, 100.18 35.77, 100.39 49.72 M101.47 51.35 C74.45 50.73, 48.12 49.77, 0.55 49.49 M100.15 49.53 C76.08 48.63, 51.24 49.62, -0.13 49.57 M-1.79 48.05 C0.75 33.98, -1.66 18.23, 0.68 1.79 M-0.98 50.99 C-0.09 29.64, 0.57 10.32, 0.99 0.81" stroke="#40916c" stroke-width="2" fill="none"></path></g><g transform="translate(750.7726521269182 266.50557943943517) rotate(0 20.39398956298828 11.25)"><text x="20.39398956298828" y="NaN" font-family="Virgil, Segoe UI Emoji" font-size="18px" fill="#ffffff" text-anchor="middle" style="white-space: pre;" direction="ltr">Push</text></g><g stroke-linecap="round" transform="translate(721.3059062742481 328.8418807977185) rotate(0 50 25)"><path d="M-1.38 0.97 L99.92 0.05 L98.59 51.88 L1.15 49.97" stroke="none" stroke-width="0" fill="#2d6a4f"></path><path d="M1.99 1.84 C19.53 1.96, 40.81 2.29, 100.65 -1.02 M-0.35 -0.11 C23.84 -0.02, 46.44 -0.2, 100.36 -0.96 M99.68 -0.78 C101.71 10.94, 101.09 24.88, 101.28 51.3 M99.28 -0.79 C101.27 15.51, 99.79 32.65, 99.16 50.16 M101.49 48.95 C62.25 49.03, 23.24 52.83, 1.12 50.26 M99.88 50.21 C62.77 49.41, 25.31 49.76, -0.64 50.01 M0.17 49.37 C0.74 39.51, 2 28.87, -1.32 0.99 M0.58 49.22 C0.22 37.12, -0.58 25.15, 0.39 -0.89" stroke="#40916c" stroke-width="2" fill="none"></path></g><g transform="translate(753.4679088377246 342.5918807977185) rotate(0 17.837997436523438 11.25)"><text x="17.837997436523438" y="NaN" font-family="Virgil, Segoe UI Emoji" font-size="18px" fill="#ffffff" text-anchor="middle" style="white-space: pre;" direction="ltr">SMS</text></g><g stroke-linecap="round" transform="translate(34.00099594385125 260.52608437159284) rotate(0 70 25)"><path d="M-0.48 1.18 L139.43 -1.65 L139.57 48.6 L0.71 50.8" stroke="none" stroke-width="0" fill="#5b21b6"></path><path d="M-1.38 0.69 C36.84 1.11, 73.26 0.07, 140.7 -1.67 M0.99 -0.12 C48.3 -0.52, 98.24 -1.42, 140.62 -0.8 M138.73 0.89 C138.14 14.67, 140.88 27.28, 138.76 49.75 M140.06 0.46 C139.56 14.21, 139.4 27.53, 139.92 50.59 M141.5 50.54 C97.7 49.15, 53.62 49.7, 1.68 51.02 M139.62 50.89 C97.48 50.46, 55.44 50.16, 0.86 50.46 M-1.87 50.69 C-0.26 35.05, 0.66 19.51, 0.69 0.18 M0.15 49.45 C0.52 34.6, 0.27 17.98, -0.2 -0.59" stroke="#7c3aed" stroke-width="2" fill="none"></path></g><g transform="translate(50.61304123193719 274.27608437159284) rotate(0 53.38795471191406 11.25)"><text x="53.38795471191406" y="NaN" font-family="Virgil, Segoe UI Emoji" font-size="18px" fill="#ffffff" text-anchor="middle" style="white-space: pre;" direction="ltr">Delivery Log</text></g><g stroke-linecap="round"><g transform="translate(192.7089270913965 89.38607472537703) rotate(0 74 -0.03062814978468964)"><path d="M-1.04 -0.07 C23.37 -0.05, 122.14 1.02, 147.03 0.86 M0.61 -1.14 C25.34 -1.52, 124.72 -0.93, 149.23 -0.78" stroke="#40916c" stroke-width="2" fill="none"></path></g><g transform="translate(192.7089270913965 89.38607472537703) rotate(0 74 -0.03062814978468964)"><path d="M120.88 7.71 C132.3 6.59, 138.96 3.3, 150.04 0.26 M120.67 9.17 C132.16 6.28, 142.73 2, 148.37 -1.27" stroke="#40916c" stroke-width="2" fill="none"></path></g><g transform="translate(192.7089270913965 89.38607472537703) rotate(0 74 -0.03062814978468964)"><path d="M120.99 -12.81 C132.51 -6.78, 139.12 -2.91, 150.04 0.26 M120.78 -11.35 C132.26 -6.26, 142.78 -2.56, 148.37 -1.27" stroke="#40916c" stroke-width="2" fill="none"></path></g></g><g transform="translate(233.6449622476465 69.35544657559235) rotate(0 33.06396484375 20)"><text x="33.06396484375" y="NaN" font-family="Virgil, Segoe UI Emoji" font-size="16px" fill="#40916c" text-anchor="middle" style="white-space: pre;" direction="ltr">1. publish</text><text x="33.06396484375" y="NaN" font-family="Virgil, Segoe UI Emoji" font-size="16px" fill="#40916c" text-anchor="middle" style="white-space: pre;" direction="ltr">event</text></g><g stroke-linecap="round"><g transform="translate(413.71305900747603 127.2869566936761) rotate(0 1.1883993641384336 59.500000000000014)"><path d="M-0.36 0.32 C-0.03 20.29, 2.63 99.11, 3.12 119 M1.65 -0.56 C1.79 19.69, 2.52 100.83, 2.56 120.53" stroke="#d97706" stroke-width="2" fill="none"></path></g><g transform="translate(413.71305900747603 127.2869566936761) rotate(0 1.1883993641384336 59.500000000000014)"><path d="M-7.35 93.64 C-3.97 103.76, 1.24 113.71, 3.42 120.93 M-8.84 92.24 C-4.14 100.67, -1.95 110.25, 1.95 120.21" stroke="#d97706" stroke-width="2" fill="none"></path></g><g transform="translate(413.71305900747603 127.2869566936761) rotate(0 1.1883993641384336 59.500000000000014)"><path d="M13.18 93.51 C8.47 103.63, 5.6 113.62, 3.42 120.93 M11.68 92.11 C10.07 100.65, 5.94 110.27, 1.95 120.21" stroke="#d97706" stroke-width="2" fill="none"></path></g></g><g transform="translate(372.50147973391915 176.78695669367613) rotate(0 42.39997863769531 10)"><text x="42.39997863769531" y="NaN" font-family="Virgil, Segoe UI Emoji" font-size="16px" fill="#d97706" text-anchor="middle" style="white-space: pre;" direction="ltr">2. consume</text></g><g stroke-linecap="round"><g transform="translate(529.288726334749 254.94361257523082) rotate(0 117.85126722070277 -96.47305850619875)"><path d="M0.31 0.7 C21.45 -22.81, 86.87 -108.83, 126.1 -141.12 C165.33 -173.41, 217.27 -184.48, 235.68 -193.03 M-0.98 0.02 C20.07 -23.36, 85.86 -108.11, 125.18 -140.07 C164.49 -172.03, 216.22 -182.66, 234.91 -191.75" stroke="#3b82f6" stroke-width="2" fill="none"></path></g><g transform="translate(529.288726334749 254.94361257523082) rotate(0 117.85126722070277 -96.47305850619875)"><path d="M213.23 -172.21 C215.99 -177.03, 222.84 -180.16, 235.82 -192 M212.45 -172.47 C216.42 -175.95, 221.98 -180.17, 234.55 -191.92" stroke="#3b82f6" stroke-width="2" fill="none"></path></g><g transform="translate(529.288726334749 254.94361257523082) rotate(0 117.85126722070277 -96.47305850619875)"><path d="M206.07 -191.44 C210.52 -191.69, 219.08 -190.23, 235.82 -192 M205.28 -191.7 C210.96 -190.78, 218.14 -190.64, 234.55 -191.92" stroke="#3b82f6" stroke-width="2" fill="none"></path></g></g><g transform="translate(611.0294824059255 94.75021807447214) rotate(0 44.31196594238281 20)"><text x="44.31196594238281" y="NaN" font-family="Virgil, Segoe UI Emoji" font-size="16px" fill="#3b82f6" text-anchor="middle" style="white-space: pre;" direction="ltr">3. check</text><text x="44.31196594238281" y="NaN" font-family="Virgil, Segoe UI Emoji" font-size="16px" fill="#3b82f6" text-anchor="middle" style="white-space: pre;" direction="ltr">preferences</text></g><g stroke-linecap="round"><g transform="translate(532.7089270913964 277.4515329384268) rotate(0 116.14116684237902 -71.59994299762788)"><path d="M0.99 1.08 C27.91 -15.87, 122.83 -76.8, 161.34 -100.98 C199.86 -125.17, 220.28 -137.09, 232.09 -144.02 M0.05 0.6 C27.39 -16.77, 125.19 -78.86, 163.72 -102.82 C202.25 -126.77, 219.78 -136.13, 231.22 -143.14" stroke="#3b82f6" stroke-width="2" fill="none"></path></g><g transform="translate(532.7089270913964 277.4515329384268) rotate(0 116.14116684237902 -71.59994299762788)"><path d="M213.94 -121.06 C218.34 -127.03, 221.45 -133.45, 232.19 -144.03 M211.86 -120.18 C218.62 -128.48, 224.99 -137.01, 231.13 -143.15" stroke="#3b82f6" stroke-width="2" fill="none"></path></g><g transform="translate(532.7089270913964 277.4515329384268) rotate(0 116.14116684237902 -71.59994299762788)"><path d="M203.52 -138.74 C210.98 -139.79, 217.05 -141.19, 232.19 -144.03 M201.44 -137.87 C211.72 -140.11, 221.7 -142.54, 231.13 -143.15" stroke="#3b82f6" stroke-width="2" fill="none"></path></g></g><g transform="translate(659.4641897112632 155.91722624416153) rotate(0 35.231971740722656 20)"><text x="35.231971740722656" y="NaN" font-family="Virgil, Segoe UI Emoji" font-size="16px" fill="#3b82f6" text-anchor="middle" style="white-space: pre;" direction="ltr">4. render</text><text x="35.231971740722656" y="NaN" font-family="Virgil, Segoe UI Emoji" font-size="16px" fill="#3b82f6" text-anchor="middle" style="white-space: pre;" direction="ltr">template</text></g><g stroke-linecap="round"><g transform="translate(522.2897923188823 319.87139914263844) rotate(0 100.22174418495155 41.99960547914347)"><path d="M-0.73 -0.94 C32.8 13.15, 168.04 69.33, 201.51 83.63 M1.08 1.18 C34.52 15.52, 168.11 71.34, 201.12 84.97" stroke="#40916c" stroke-width="2" fill="none"></path></g><g transform="translate(522.2897923188823 319.87139914263844) rotate(0 100.22174418495155 41.99960547914347)"><path d="M169.58 85.39 C180.37 83.64, 192.22 82.87, 202.14 83.43 M170.21 83.41 C179.39 84.67, 186.5 83.77, 201.28 85.12" stroke="#40916c" stroke-width="2" fill="none"></path></g><g transform="translate(522.2897923188823 319.87139914263844) rotate(0 100.22174418495155 41.99960547914347)"><path d="M177.46 66.44 C185.51 70.86, 194.78 76.32, 202.14 83.43 M178.09 64.46 C185.32 70.72, 190.34 74.83, 201.28 85.12" stroke="#40916c" stroke-width="2" fill="none"></path></g></g><g transform="translate(586.5915688524666 351.8710046217819) rotate(0 35.91996765136719 10)"><text x="35.91996765136719" y="NaN" font-family="Virgil, Segoe UI Emoji" font-size="16px" fill="#40916c" text-anchor="middle" style="white-space: pre;" direction="ltr">5. deliver</text></g><g stroke-linecap="round"><g transform="translate(532.7089270913964 283.60437890412834) rotate(0 91.228857299255 -3.1781950164532304)"><path d="M0.06 -0.18 C30.56 -1.14, 153.2 -5.68, 183.45 -6.58 M-1.37 -1.33 C29.03 -2.03, 152.13 -4.13, 183.03 -5.16" stroke="#40916c" stroke-width="2" fill="none"></path></g><g transform="translate(532.7089270913964 283.60437890412834) rotate(0 91.228857299255 -3.1781950164532304)"><path d="M154.79 7.44 C164.1 0.69, 175.04 -1.51, 182.46 -6.36 M155.49 6.17 C160.85 3.88, 167.01 0.58, 182.82 -4.2" stroke="#40916c" stroke-width="2" fill="none"></path></g><g transform="translate(532.7089270913964 283.60437890412834) rotate(0 91.228857299255 -3.1781950164532304)"><path d="M154.29 -13.08 C163.62 -13, 174.73 -8.36, 182.46 -6.36 M154.99 -14.35 C160.55 -12.2, 166.82 -11.05, 182.82 -4.2" stroke="#40916c" stroke-width="2" fill="none"></path></g></g><g stroke-linecap="round"><g transform="translate(532.7089270913965 298.0263460998244) rotate(0 91.29848959142572 23.160009615515236)"><path d="M0.84 0.57 C31.36 8.41, 153.06 38.51, 183.52 46.24 M-0.17 -0.17 C30.22 7.93, 152.46 40.21, 183.06 47.74" stroke="#40916c" stroke-width="2" fill="none"></path></g><g transform="translate(532.7089270913965 298.0263460998244) rotate(0 91.29848959142572 23.160009615515236)"><path d="M154.16 52.22 C163.17 51.21, 174.52 50.33, 184.9 46.87 M152.93 51.66 C163.41 49.85, 175.46 48.17, 182.48 47.52" stroke="#40916c" stroke-width="2" fill="none"></path></g><g transform="translate(532.7089270913965 298.0263460998244) rotate(0 91.29848959142572 23.160009615515236)"><path d="M159.26 32.34 C166.43 38.08, 176.05 43.91, 184.9 46.87 M158.03 31.79 C166.66 37.26, 176.83 42.9, 182.48 47.52" stroke="#40916c" stroke-width="2" fill="none"></path></g></g><g stroke-linecap="round"><g transform="translate(340.7089270913965 281.3216746343927) rotate(0 -80.35396557377263 -1.3458890685372467)"><path d="M-0.06 -0.56 C-10.39 -0.8, -34.26 -1.66, -61.13 -1.59 C-87.99 -1.52, -144.7 -0.47, -161.25 -0.13" stroke="#94a3b8" stroke-width="2.5" fill="none" stroke-dasharray="8 10"></path></g><g transform="translate(340.7089270913965 281.3216746343927) rotate(0 -80.35396557377263 -1.3458890685372467)"><path d="M-134.19 -10.3 C-141.88 -7.8, -154.02 -2.35, -160.17 1.68" stroke="#94a3b8" stroke-width="2.5" fill="none"></path></g><g transform="translate(340.7089270913965 281.3216746343927) rotate(0 -80.35396557377263 -1.3458890685372467)"><path d="M-133.8 10.22 C-141.61 5.05, -153.9 2.84, -160.17 1.68" stroke="#94a3b8" stroke-width="2.5" fill="none"></path></g></g><g transform="translate(257.3516350810951 268.6298964973182) rotate(0 21.855979919433594 10)"><text x="21.855979919433594" y="NaN" font-family="Virgil, Segoe UI Emoji" font-size="16px" fill="#94a3b8" text-anchor="middle" style="white-space: pre;" direction="ltr">6. log</text></g></svg>