<svg version="1.1" xmlns="http://www.w3.org/2000/svg" viewBox="0 0 1463.4457567735417 127.7845937055057" width="1463.4457567735417" height="127.7845937055057">
  <!-- svg-source:excalidraw -->
  
  <defs>
    <style>
      @font-face {
        font-family: "Virgil";
        src: url("https://excalidraw.com/Virgil.woff2");
      }
      @font-face {
        font-family: "Cascadia";
        src: url("https://excalidraw.com/Cascadia.woff2");
      }
    </style>
  </defs>
  <rect x="0" y="0" width="1463.4457567735417" height="127.7845937055057" fill="#1e1e2e"></rect><g stroke-linecap="round" transform="translate(10 11.206953922856087) rotate(0 90 36.5)"><path d="M-0.09 1.08 L179.11 -1.63 L179.82 71.27 L0.86 72.1" stroke="none" stroke-width="0" fill="#87CEEB"></path><path d="M0.44 -1.89 C55.04 1.43, 112.91 1.63, 180.01 -0.78 M-0.51 0.66 C49.42 1.26, 98.88 0.4, 180.52 0.51 M181.19 -1.53 C180.37 27.09, 180.5 51.06, 180.15 71.05 M179.52 -0.29 C180.73 24.42, 180.62 47.76, 179.5 72.03 M178.42 74.04 C139.29 70.92, 102.15 72.7, 0.81 73.08 M180.36 73.65 C109.59 72.51, 41.24 71.99, -0.05 72.06 M-0.7 71.2 C0.68 55.38, 2.1 36.23, 0.69 1.99 M-0.75 72.99 C-0.98 52.89, -1.15 32.43, -0.37 -0.34" stroke="#4682B4" stroke-width="2" fill="none"></path></g><g transform="translate(72.95002746582031 35.20695392285609) rotate(0 27.049972534179688 12.5)"><text x="27.049972534179688" y="NaN" font-family="Virgil, Segoe UI Emoji" font-size="20px" fill="#000" text-anchor="middle" style="white-space: pre;" direction="ltr">Client</text></g><g stroke-linecap="round" transform="translate(295.63297521234915 10) rotate(0 90 36.5)"><path d="M-1.79 -1.6 L178.99 1.95 L178.82 72.7 L1.59 71.55" stroke="none" stroke-width="0" fill="#90EE90"></path><path d="M0.75 1.63 C67.08 -0.32, 132.3 -1.71, 179.29 1.79 M0.63 0.53 C58.59 1.65, 117.83 1.44, 180.04 -0.02 M179.07 -1.71 C180.46 28.05, 180.21 57.42, 178.24 72.77 M179.52 0.57 C179.46 26.25, 179.2 51.21, 180.18 73.91 M178.88 74.22 C139.25 74.55, 100.44 73.86, -0.27 74.93 M180.75 73.6 C127.26 73.39, 75.4 73.46, 0.4 73.2 M-1.8 72.99 C-1.4 52.27, 1.84 32.53, 0.4 0.76 M0.01 72.72 C1.32 55.51, 1.56 38.33, -0.63 -0.74" stroke="#228B22" stroke-width="2" fill="none"></path></g><g transform="translate(364.95299016596243 34) rotate(0 20.67998504638672 12.5)"><text x="20.67998504638672" y="NaN" font-family="Virgil, Segoe UI Emoji" font-size="20px" fill="#000" text-anchor="middle" style="white-space: pre;" direction="ltr">CDN</text></g><g stroke-linecap="round" transform="translate(565.7037519949426 14.056237417326429) rotate(0 96.5 36.5)"><path d="M1.72 -1.35 L194.4 0.17 L191.37 73.46 L-0.93 74.18" stroke="none" stroke-width="0" fill="#90EE90"></path><path d="M0.91 1.69 C67.64 2.05, 133.16 3.31, 192.63 1.38 M-0.88 0.72 C60.31 -0.36, 121.65 -1.75, 193.37 0.39 M193.86 1.48 C192.7 16.63, 192.25 31.46, 191.04 72.61 M193.24 -0.27 C193.65 28.05, 193.24 56, 192.68 73.55 M194.07 71.62 C145.66 70.48, 97.36 73.06, 1.61 74.98 M193.8 72.72 C123.98 73.43, 55.26 74.17, 0.41 73.37 M-0.32 74.29 C-1.33 51.23, 0.46 25.86, 0.98 0.73 M-0.61 73.08 C-0.36 55.78, 0.49 37.76, 0.47 -0.9" stroke="#228B22" stroke-width="2" fill="none"></path></g><g transform="translate(603.1037992971887 38.05623741732643) rotate(0 59.099952697753906 12.5)"><text x="59.099952697753906" y="NaN" font-family="Virgil, Segoe UI Emoji" font-size="20px" fill="#000" text-anchor="middle" style="white-space: pre;" direction="ltr">Cache/Redis</text></g><g stroke-linecap="round" transform="translate(923.4923591302249 15.46666819013717) rotate(0 102 36.5)"><path d="M-0.65 0.65 L204.46 -1.06 L203.56 73.72 L0.48 71.93" stroke="none" stroke-width="0" fill="#FFB6C1"></path><path d="M-0.88 -1.1 C52.67 2.11, 103.76 1.12, 202.54 1.13 M-0.22 0.02 C46.62 1.52, 94.14 0.88, 204.62 -0.05 M203.21 1.84 C204.61 18.8, 201.7 39.15, 202.75 74.17 M204.96 0.09 C204.72 27.19, 204.11 51.85, 203.1 73.52 M205.01 72.72 C126.73 70.2, 51.88 71.21, -0.49 73.2 M204.09 73.65 C149.77 75.36, 96.95 75.02, 0.15 73.6 M0.38 71.09 C0.11 58.22, 1.19 41.29, -1.79 -1.05 M-0.02 73.59 C0.41 44.81, -0.12 16.51, -0.97 0.56" stroke="#DC143C" stroke-width="2" fill="none"></path></g><g transform="translate(962.1924018548343 39.46666819013717) rotate(0 63.299957275390625 12.5)"><text x="63.299957275390625" y="NaN" font-family="Virgil, Segoe UI Emoji" font-size="20px" fill="#000" text-anchor="middle" style="white-space: pre;" direction="ltr">Read Replica</text></g><g stroke-linecap="round" transform="translate(1271.4457567735417 20.68726036232988) rotate(0 91 36.5)"><path d="M-0.19 -1.62 L182.08 0.05 L182.63 74.33 L1.99 74.88" stroke="none" stroke-width="0" fill="#FFB6C1"></path><path d="M-0.5 -1.92 C54.99 -1.65, 107.81 -0.33, 181.27 1.9 M0.94 0.37 C36.78 -1.39, 75.29 -0.82, 181.62 -0.9 M182.68 1.61 C182.19 16.39, 180.08 31.34, 182.16 73.3 M182.03 0.2 C182.33 21.65, 182.09 43.13, 181.54 72.33 M180.09 74.14 C115.2 69.81, 52.72 70.18, 0.35 74.04 M182.86 73.37 C143.82 73.36, 103.66 72.2, 0.8 73.54 M-1.88 72.97 C-0.22 51.74, 1.01 33.1, 1.51 0.52 M-0.95 73.92 C-0.53 46.18, -0.15 21.7, 0.88 0.51" stroke="#DC143C" stroke-width="2" fill="none"></path></g><g transform="translate(1307.2857988877995 44.68726036232988) rotate(0 55.15995788574219 12.5)"><text x="55.15995788574219" y="NaN" font-family="Virgil, Segoe UI Emoji" font-size="20px" fill="#000" text-anchor="middle" style="white-space: pre;" direction="ltr">Primary DB</text></g><g stroke-linecap="round"><g transform="translate(196 47.30867802134314) rotate(0 46.816487606174576 -0.19782500017236404)"><path d="M0.71 -0.59 C16.41 -0.29, 78.04 0.65, 93.43 0.77 M-0.37 1.72 C15.21 1.79, 76.98 -0.13, 92.37 -0.74" stroke="#94a3b8" stroke-width="2" fill="none"></path></g><g transform="translate(196 47.30867802134314) rotate(0 46.816487606174576 -0.19782500017236404)"><path d="M63.56 10.13 C73.21 6.64, 78.77 5.08, 93.19 1.14 M63.86 10.88 C70.84 8.64, 78.39 5.04, 91.52 -0.46" stroke="#94a3b8" stroke-width="2" fill="none"></path></g><g transform="translate(196 47.30867802134314) rotate(0 46.816487606174576 -0.19782500017236404)"><path d="M62.87 -10.38 C72.51 -8.99, 78.23 -5.67, 93.19 1.14 M63.16 -9.63 C70.43 -6.76, 78.16 -5.25, 91.52 -0.46" stroke="#94a3b8" stroke-width="2" fill="none"></path></g></g><g stroke-linecap="round"><g transform="translate(481.63297521234915 47.914982888015714) rotate(0 39.03538839129675 0.5724974293667103)"><path d="M-0.39 0.83 C12.76 1.22, 65.21 1.88, 78.36 2.02 M1.61 0.21 C14.68 0.31, 64.83 0.47, 77.56 0.35" stroke="#94a3b8" stroke-width="2" fill="none"></path></g><g transform="translate(481.63297521234915 47.914982888015714) rotate(0 39.03538839129675 0.5724974293667103)"><path d="M50.77 11.15 C58.05 8.91, 64.56 5.1, 77.54 -0.18 M50.03 9.75 C55.81 8.9, 62.39 6.56, 76.85 0.94" stroke="#94a3b8" stroke-width="2" fill="none"></path></g><g transform="translate(481.63297521234915 47.914982888015714) rotate(0 39.03538839129675 0.5724974293667103)"><path d="M50.73 -9.37 C57.95 -6.39, 64.47 -4.98, 77.54 -0.18 M49.99 -10.77 C55.81 -6.7, 62.4 -4.11, 76.85 0.94" stroke="#94a3b8" stroke-width="2" fill="none"></path></g></g><g stroke-linecap="round"><g transform="translate(764.7037519949426 50.961407024035) rotate(0 76.39430356764115 0.2965921535980181)"><path d="M0.05 -0.79 C25.57 -0.74, 127.59 -0.15, 153.11 0.12 M-1.38 1.41 C24.01 1.64, 126.67 1.26, 152.33 1.41" stroke="#94a3b8" stroke-width="2" fill="none"></path></g><g transform="translate(764.7037519949426 50.961407024035) rotate(0 76.39430356764115 0.2965921535980181)"><path d="M122.81 12.19 C131.84 9.17, 141.56 5.16, 153.62 -0.47 M123.91 10.88 C130.64 8.24, 135.41 7.55, 153.06 2.33" stroke="#94a3b8" stroke-width="2" fill="none"></path></g><g transform="translate(764.7037519949426 50.961407024035) rotate(0 76.39430356764115 0.2965921535980181)"><path d="M122.83 -8.33 C131.81 -5.18, 141.53 -3.03, 153.62 -0.47 M123.92 -9.64 C130.68 -7.87, 135.45 -4.15, 153.06 2.33" stroke="#94a3b8" stroke-width="2" fill="none"></path></g></g><g stroke-linecap="round"><g transform="translate(1133.492359130225 53.646962553888415) rotate(0 65.97669882165837 1.0222175787606917)"><path d="M0.08 -0.99 C21.95 -0.86, 109.88 1.33, 131.69 1.91 M-1.33 1.11 C20.32 1.94, 108.17 3.5, 130.6 3.37" stroke="#94a3b8" stroke-width="2" fill="none"></path></g><g transform="translate(1133.492359130225 53.646962553888415) rotate(0 65.97669882165837 1.0222175787606917)"><path d="M100.68 12.96 C111.57 8.28, 122.08 4.67, 129.62 3.03 M102.86 12.76 C110.69 10.94, 116.77 8.13, 130.66 3.67" stroke="#94a3b8" stroke-width="2" fill="none"></path></g><g transform="translate(1133.492359130225 53.646962553888415) rotate(0 65.97669882165837 1.0222175787606917)"><path d="M100.85 -7.56 C111.87 -5.3, 122.33 -1.97, 129.62 3.03 M103.03 -7.76 C110.74 -4.18, 116.77 -1.6, 130.66 3.67" stroke="#94a3b8" stroke-width="2" fill="none"></path></g></g><g stroke-linecap="round"><g transform="translate(764.7037519949426 65.9288551939887) rotate(0 76.39430356764115 22.09411291309204)"><path d="M-0.46 0.98 C13.16 8.3, 55.74 43, 81.31 43.25 C106.88 43.5, 140.88 9.22, 152.97 2.47" stroke="#94a3b8" stroke-width="2.5" fill="none" stroke-dasharray="8 10"></path></g><g transform="translate(764.7037519949426 65.9288551939887) rotate(0 76.39430356764115 22.09411291309204)"><path d="M138.05 27.58 C139.38 21.22, 146.28 16.03, 154.4 1.55" stroke="#94a3b8" stroke-width="2.5" fill="none"></path></g><g transform="translate(764.7037519949426 65.9288551939887) rotate(0 76.39430356764115 22.09411291309204)"><path d="M125.84 11.09 C130.32 9.15, 140.46 8.33, 154.4 1.55" stroke="#94a3b8" stroke-width="2.5" fill="none"></path></g></g><g transform="translate(837.6167768972864 39.31353741732643) rotate(0 34.58697509765625 11.25)"><text x="34.58697509765625" y="NaN" font-family="Virgil, Segoe UI Emoji" font-size="18px" fill="#2f9e44" text-anchor="middle" style="white-space: pre;" direction="ltr">fallback</text></g><g stroke-linecap="round"><g transform="translate(1128.4163513794915 86.77489488124814) rotate(0 68.6983824937364 12.474296678921082)"><path d="M-0.47 -0.09 C11 5.16, 46.74 31.78, 69.9 30.87 C93.06 29.96, 127.29 0.78, 138.49 -5.53" stroke="#94a3b8" stroke-width="2.5" fill="none" stroke-dasharray="8 10"></path></g><g transform="translate(1128.4163513794915 86.77489488124814) rotate(0 68.6983824937364 12.474296678921082)"><path d="M120.82 18.87 C127.7 11.2, 135.66 -0.68, 136.96 -5.26" stroke="#94a3b8" stroke-width="2.5" fill="none"></path></g><g transform="translate(1128.4163513794915 86.77489488124814) rotate(0 68.6983824937364 12.474296678921082)"><path d="M109.27 1.91 C120.57 0.91, 133.05 -4.35, 136.96 -5.26" stroke="#94a3b8" stroke-width="2.5" fill="none"></path></g></g><g transform="translate(1263.1167768972864 39.30623741732643) rotate(0 34.58697509765625 11.25)"><text x="34.58697509765625" y="NaN" font-family="Virgil, Segoe UI Emoji" font-size="18px" fill="#cdd6f4" text-anchor="middle" style="white-space: pre;" direction="ltr">fallback</text></g></svg>