<svg version="1.1" xmlns="http://www.w3.org/2000/svg" viewBox="0 0 973.3289196697549 714.7778984349229" width="973.3289196697549" height="714.7778984349229">
  <!-- svg-source:excalidraw -->
  
  <defs>
    <style>
      @font-face {
        font-family: "Virgil";
        src: url("https://excalidraw.com/Virgil.woff2");
      }
      @font-face {
        font-family: "Cascadia";
        src: url("https://excalidraw.com/Cascadia.woff2");
      }
    </style>
  </defs>
  <rect x="0" y="0" width="973.3289196697549" height="714.7778984349229" fill="#1e1e2e"></rect><g stroke-opacity="0.5" fill-opacity="0.5" stroke-linecap="round" transform="translate(10 10) rotate(0 476.66445983487745 176.3266306326454)"><path d="M-0.73 -1.55 L955.13 1.21 L953.1 352.52 L0.95 351.63" stroke="none" stroke-width="0" fill="#181825"></path><path d="M-0.32 0.58 C238.03 -0.1, 475.46 1.3, 953.23 0.78 M954.36 0.16 C951.17 75.23, 950.68 149.69, 953.32 353.09 M953.31 352.22 C716.61 354.35, 480.96 354.45, 0.07 352.51 M0.09 352.39 C0.02 265.86, 0.24 179.73, 0.12 0.94" stroke="#45475a" stroke-width="2.5" fill="none" stroke-dasharray="8 10"></path></g><g stroke-opacity="0.5" fill-opacity="0.5" stroke-linecap="round" transform="translate(18.850691701084827 503.8773052150852) rotate(0 468.78426916129695 100.4502966099189)"><path d="M0.22 0.38 L939.19 1.37 L937.32 199.6 L-1.91 200.54" stroke="none" stroke-width="0" fill="#181825"></path><path d="M0.62 0.76 C280.81 1.68, 560.38 2.43, 937.68 -0.2 M938 -0.02 C940.49 81.57, 939.78 159.91, 938.58 200.77 M936.92 200.73 C675.43 204.48, 415.61 204.22, -0.42 200.96 M-0.29 201.6 C2.94 156.17, 1.71 113.75, -0.4 -1.62" stroke="#45475a" stroke-width="2.5" fill="none" stroke-dasharray="8 10"></path></g><g transform="translate(57.41246911835418 514.6661707046424) rotate(0 66.14997100830078 11.25)"><text x="0" y="NaN" font-family="Virgil, Segoe UI Emoji" font-size="18px" fill="#a6adc8" text-anchor="start" style="white-space: pre;" direction="ltr">Download Path</text></g><g stroke-linecap="round" transform="translate(32.41846386062656 211.50225961264528) rotate(0 90 32)"><path d="M1.31 1.59 L178.46 -1.04 L181.52 64.06 L-0.16 62.46" stroke="none" stroke-width="0" fill="#2d6a4f"></path><path d="M-0.11 -1.61 C64.3 2.1, 123.86 2.34, 180.81 1.04 M-0.32 -0.15 C70.21 2.16, 139.79 1.81, 179.13 -0.49 M180.81 0.22 C179.88 18.47, 181.34 40.74, 181.72 64.65 M179.61 0.98 C180.21 25.14, 180.67 50.35, 179.46 63.47 M181.54 63.74 C116.98 64.53, 51.2 66.58, -1.18 62.55 M179.09 64.25 C116.75 63.63, 53.36 64.05, -0.15 63.34 M-1.96 63.33 C-0.15 46.16, 0.1 26.9, 0.69 -1.44 M-0.71 63.91 C-0.99 48.14, -0.15 32.81, 0.61 0.01" stroke="#40916c" stroke-width="2" fill="none"></path></g><g transform="translate(95.36849132644687 231.00225961264528) rotate(0 27.049972534179688 12.5)"><text x="27.049972534179688" y="NaN" font-family="Virgil, Segoe UI Emoji" font-size="20px" fill="#ffffff" text-anchor="middle" style="white-space: pre;" direction="ltr">Client</text></g><g stroke-linecap="round" transform="translate(406.76968351542286 40.84923317952604) rotate(0 90 32)"><path d="M-1.72 -0.36 L181.6 -1.99 L179.27 63.33 L-0.52 62.77" stroke="none" stroke-width="0" fill="#5b21b6"></path><path d="M-1.76 -1.14 C69.83 0.27, 145.33 -1.12, 181.34 -1.41 M-0.87 -0.29 C67.51 -0.73, 135.13 -0.34, 179.71 -0.9 M179.23 0.88 C179.52 22.25, 178.57 41.59, 180.49 65.16 M179.38 -0.42 C179.03 23.82, 180.64 46.47, 179.15 63.84 M181.7 63.73 C143.24 65.51, 106.7 67.09, 0.48 62.21 M180.43 63.05 C142.92 63.35, 104.66 63.33, 0.83 63.78 M1.63 64.54 C-0.42 48.45, 0.5 35.24, 0.73 -1.51 M0.98 64.21 C-0.92 46.57, -0.65 28.36, 0.67 -0.98" stroke="#7c3aed" stroke-width="2" fill="none"></path></g><g transform="translate(442.2997280710869 60.34923317952604) rotate(0 54.46995544433594 12.5)"><text x="54.46995544433594" y="NaN" font-family="Virgil, Segoe UI Emoji" font-size="20px" fill="#ffffff" text-anchor="middle" style="white-space: pre;" direction="ltr">API Server</text></g><g stroke-linecap="round" transform="translate(757.3132465310798 42.885524689217874) rotate(0 90 32)"><path d="M-0.82 -0.15 L181.11 0.32 L180.25 64.06 L-0.95 63.6" stroke="none" stroke-width="0" fill="#5b21b6"></path><path d="M-1.13 1.71 C44.39 2.57, 88.28 -0.18, 181.4 1.95 M0.47 -0.31 C53.44 -0.22, 107.86 -0.56, 179.96 -0.74 M178.28 -1.46 C179.79 22.3, 178.2 44.63, 181.97 63.61 M180.16 0.84 C179.32 21.93, 180.24 42.16, 179.91 64.28 M181.71 65.32 C121.07 60.68, 61.85 63.02, 1.04 62.97 M180.16 63.73 C119.54 64.6, 58.59 63.94, 0.32 64.22 M-0.41 65.86 C-0.33 42.67, 0.25 23.28, -1.27 1.68 M0.55 64.44 C0.63 43.17, 1.46 21.44, 0.07 -0.68" stroke="#7c3aed" stroke-width="2" fill="none"></path></g><g transform="translate(777.1132877298103 62.385524689217874) rotate(0 70.19995880126953 12.5)"><text x="70.19995880126953" y="NaN" font-family="Virgil, Segoe UI Emoji" font-size="20px" fill="#ffffff" text-anchor="middle" style="white-space: pre;" direction="ltr">Metadata DB</text></g><g stroke-linecap="round" transform="translate(476.5355760884001 213.69090826134214) rotate(0 90 32)"><path d="M-0.75 1.7 L180.74 1.07 L181.02 62.61 L-0.88 63.08" stroke="none" stroke-width="0" fill="#b45309"></path><path d="M0.58 -0.67 C43.37 -1.96, 90.81 -0.97, 181.88 0.14 M0.57 -0.43 C66.82 -0.02, 132.47 -0.89, 180.28 0.69 M181.66 1.54 C181.88 22.02, 178.52 46.44, 179.27 65.66 M179.15 0.17 C179.86 22.49, 178.62 44.59, 180.83 64.21 M181.86 63.71 C133.5 66.48, 90.21 63.6, -1.86 65.86 M179.77 63.85 C131.09 63.07, 83.96 62.61, -0.2 64.21 M1.22 65.75 C0.6 41.93, -1.82 17.99, 0.76 -1.59 M0.68 64.52 C0.42 44.99, 0.14 25.92, 0.73 0.03" stroke="#d97706" stroke-width="2" fill="none"></path></g><g transform="translate(491.0556413960173 220.69090826134214) rotate(0 75.47993469238281 25)"><text x="75.47993469238281" y="NaN" font-family="Virgil, Segoe UI Emoji" font-size="20px" fill="#ffffff" text-anchor="middle" style="white-space: pre;" direction="ltr">Object Storage</text><text x="75.47993469238281" y="NaN" font-family="Virgil, Segoe UI Emoji" font-size="20px" fill="#ffffff" text-anchor="middle" style="white-space: pre;" direction="ltr">(S3)</text></g><g stroke-linecap="round" transform="translate(758.1628461791952 210.49823992534135) rotate(0 90 32)"><path d="M0.15 1.9 L180.25 -0.63 L178 63.33 L-1.32 63.91" stroke="none" stroke-width="0" fill="#b45309"></path><path d="M1.22 -1.82 C53.93 -3.26, 105.75 -3.64, 181.93 -0.5 M-0.09 -0.44 C50.75 0.49, 103.2 0.89, 180.53 0.85 M180.7 -0.8 C178.15 26.08, 178.14 49.48, 180.75 64.11 M179.93 -0.57 C180.14 18.6, 180.21 38.28, 179.6 64.65 M181.87 65.31 C111.33 61.66, 45.36 63.53, -1.3 62.62 M179.51 64.53 C109.7 64.32, 37.89 65.22, -0.7 64.65 M-0.82 63.07 C0.69 48.96, 1.93 31.62, -1.24 1.6 M0.24 64.75 C0.69 41.6, 0.96 16.99, 0.13 0.33" stroke="#d97706" stroke-width="2" fill="none"></path></g><g transform="translate(798.4929014160116 217.49823992534135) rotate(0 49.669944763183594 25)"><text x="49.669944763183594" y="NaN" font-family="Virgil, Segoe UI Emoji" font-size="20px" fill="#ffffff" text-anchor="middle" style="white-space: pre;" direction="ltr">Processing</text><text x="49.669944763183594" y="NaN" font-family="Virgil, Segoe UI Emoji" font-size="20px" fill="#ffffff" text-anchor="middle" style="white-space: pre;" direction="ltr">Pipeline</text></g><g stroke-linecap="round" transform="translate(62.180815369573736 574.8895763756625) rotate(0 75.42819457853369 32)"><path d="M0.22 -0.25 L150.73 0.12 L149.64 65.88 L-1.24 63.39" stroke="none" stroke-width="0" fill="#2d6a4f"></path><path d="M-1.07 -0.19 C44.24 -0.17, 90.95 -0.81, 149.27 1.69 M0.01 -0.57 C53.74 0.66, 107.03 0.52, 151.7 0.28 M150.94 -1.81 C151.1 12.99, 149.32 25.68, 148.9 62.17 M151.78 0.77 C150.82 21.17, 150.73 40.71, 151.37 64.59 M148.88 63.7 C103.4 63.33, 58.15 63.98, -0.2 65.51 M149.97 64.65 C101.6 62.91, 53.1 64.01, 0.77 64.65 M0.81 62.95 C1.62 48.21, -0.14 30.33, 0.79 -1.67 M0.37 64.82 C0.48 43.42, -0.36 21.48, 0.78 -0.97" stroke="#40916c" stroke-width="2" fill="none"></path></g><g transform="translate(110.55903741392774 594.3895763756625) rotate(0 27.049972534179688 12.5)"><text x="27.049972534179688" y="NaN" font-family="Virgil, Segoe UI Emoji" font-size="20px" fill="#ffffff" text-anchor="middle" style="white-space: pre;" direction="ltr">Client</text></g><g stroke-linecap="round" transform="translate(430.1334302123926 574.3310373033415) rotate(0 67.70857517507562 32)"><path d="M1.19 1.81 L134.43 -0.83 L135.95 65.16 L-1.6 63.7" stroke="none" stroke-width="0" fill="#1e40af"></path><path d="M1.27 0.28 C46.98 1.44, 94.82 -0.81, 134.36 -0.76 M-0.54 -0.71 C46.03 1.16, 94.33 -0.24, 134.84 -0.14 M133.92 -1.15 C134.02 16.77, 133.83 30.53, 136.24 62.68 M136.11 -0.64 C136.21 19.84, 135.26 38.84, 135.62 64.96 M133.6 63.68 C89 64.28, 39.78 64.46, 1.46 65.16 M135.88 63.45 C83.96 62.73, 32.22 63.4, -0.26 63.08 M0.4 64.16 C1.35 50.49, 0.26 38.68, 0.83 -1.74 M0.06 63.12 C0.54 41.85, 1.15 19.03, 0.84 0.04" stroke="#3b82f6" stroke-width="2" fill="none"></path></g><g transform="translate(477.16202034108153 593.8310373033415) rotate(0 20.67998504638672 12.5)"><text x="20.67998504638672" y="NaN" font-family="Virgil, Segoe UI Emoji" font-size="20px" fill="#ffffff" text-anchor="middle" style="white-space: pre;" direction="ltr">CDN</text></g><g stroke-linecap="round" transform="translate(756.5309577539592 574.6661707046424) rotate(0 90 32)"><path d="M-1.84 -0.14 L178.16 -1.78 L178.29 64.43 L-1.96 64.01" stroke="none" stroke-width="0" fill="#b45309"></path><path d="M-0.38 0.76 C71.99 -0.66, 143.23 -0.54, 179.48 0.79 M0.9 -0.85 C60.74 2.11, 120.49 1.45, 179.99 -0.55 M180.93 -0.49 C180.96 16.54, 178.36 35.38, 179.59 63.18 M180.47 -0.04 C179.62 16.52, 179.82 34.96, 179.88 63.33 M178.34 63.67 C108.28 65.42, 36.73 65.13, -0.88 64.82 M179.8 64.25 C135.59 62.23, 91.86 62.46, 0.71 63.51 M-0.02 65.36 C-1.63 43.98, -2.06 21.42, 0.86 -1.82 M-0.25 63.43 C0.6 40.27, 0.65 16.59, 0.9 -0.95" stroke="#d97706" stroke-width="2" fill="none"></path></g><g transform="translate(771.0510230615764 581.6661707046424) rotate(0 75.47993469238281 25)"><text x="75.47993469238281" y="NaN" font-family="Virgil, Segoe UI Emoji" font-size="20px" fill="#ffffff" text-anchor="middle" style="white-space: pre;" direction="ltr">Object Storage</text><text x="75.47993469238281" y="NaN" font-family="Virgil, Segoe UI Emoji" font-size="20px" fill="#ffffff" text-anchor="middle" style="white-space: pre;" direction="ltr">(S3)</text></g><g stroke-linecap="round"><g transform="translate(217.8721439207593 221.51047806515078) rotate(0 91.44876979733178 -78.15140909786075)"><path d="M1.19 1.18 C7.15 -18.56, 4.91 -92.7, 35.13 -118.93 C65.34 -145.17, 157.67 -150, 182.48 -156.23 M0.36 0.75 C6.28 -19.29, 4.38 -94.73, 34.57 -120.67 C64.76 -146.6, 157.06 -149.12, 181.49 -154.87" stroke="#40916c" stroke-width="2" fill="none"></path></g><g transform="translate(217.8721439207593 221.51047806515078) rotate(0 91.44876979733178 -78.15140909786075)"><path d="M156.9 -139.66 C162.77 -145.3, 168.19 -146.24, 181.5 -156.52 M155.29 -141.88 C163.16 -145.26, 171.21 -149.71, 182.05 -155.83" stroke="#40916c" stroke-width="2" fill="none"></path></g><g transform="translate(217.8721439207593 221.51047806515078) rotate(0 91.44876979733178 -78.15140909786075)"><path d="M154.13 -159.99 C160.59 -160.65, 166.7 -156.6, 181.5 -156.52 M152.51 -162.21 C161.45 -159.02, 170.4 -156.88, 182.05 -155.83" stroke="#40916c" stroke-width="2" fill="none"></path></g></g><g transform="translate(188.59842433975552 91.83298014580748) rotate(0 63.663963317871094 10)"><text x="63.663963317871094" y="NaN" font-family="Virgil, Segoe UI Emoji" font-size="16px" fill="#40916c" text-anchor="middle" style="white-space: pre;" direction="ltr">1. POST /upload</text></g><g stroke-linecap="round"><g transform="translate(592.7696835154229 74.33052538271612) rotate(0 79.27178150782848 0.2704640786186161)"><path d="M-0.53 -0.84 C25.92 -0.83, 132.18 0.24, 158.59 0.36 M1.39 1.33 C27.69 1.51, 131.75 1.89, 157.67 1.8" stroke="#40916c" stroke-width="2" fill="none"></path></g><g transform="translate(592.7696835154229 74.33052538271612) rotate(0 79.27178150782848 0.2704640786186161)"><path d="M128.06 12.12 C137.35 8.2, 144.75 6.35, 157.73 3.5 M129.16 13.04 C136.57 8.94, 142.27 7.8, 158.48 1" stroke="#40916c" stroke-width="2" fill="none"></path></g><g transform="translate(592.7696835154229 74.33052538271612) rotate(0 79.27178150782848 0.2704640786186161)"><path d="M128.08 -8.4 C137.41 -6.35, 144.8 -2.23, 157.73 3.5 M129.17 -7.48 C136.58 -6.6, 142.28 -2.75, 158.48 1" stroke="#40916c" stroke-width="2" fill="none"></path></g></g><g transform="translate(633.0014869959077 54.60098946133475) rotate(0 39.03997802734375 20)"><text x="39.03997802734375" y="NaN" font-family="Virgil, Segoe UI Emoji" font-size="16px" fill="#40916c" text-anchor="middle" style="white-space: pre;" direction="ltr">2. Save </text><text x="39.03997802734375" y="NaN" font-family="Virgil, Segoe UI Emoji" font-size="16px" fill="#40916c" text-anchor="middle" style="white-space: pre;" direction="ltr">metadata</text></g><g stroke-linecap="round"><g transform="translate(400.8215401610367 90.79109584360137) rotate(0 -91.20153815020505 77.90855090921737)"><path d="M0.14 -0.46 C-12.62 9.8, -45.62 36.43, -76.17 62.64 C-106.72 88.85, -165.31 141.27, -183.17 156.81" stroke="#3b82f6" stroke-width="2.5" fill="none" stroke-dasharray="8 10"></path></g><g transform="translate(400.8215401610367 90.79109584360137) rotate(0 -91.20153815020505 77.90855090921737)"><path d="M-169.59 129.39 C-175.25 138.06, -176.58 146.67, -183.05 157.86" stroke="#3b82f6" stroke-width="2.5" fill="none"></path></g><g transform="translate(400.8215401610367 90.79109584360137) rotate(0 -91.20153815020505 77.90855090921737)"><path d="M-156.01 144.78 C-166.37 148.29, -172.26 151.74, -183.05 157.86" stroke="#3b82f6" stroke-width="2.5" fill="none"></path></g></g><g transform="translate(270.84170660576916 134.53510984571074) rotate(0 54.455963134765625 20)"><text x="54.455963134765625" y="NaN" font-family="Virgil, Segoe UI Emoji" font-size="16px" fill="#3b82f6" text-anchor="middle" style="white-space: pre;" direction="ltr">3. Return</text><text x="54.455963134765625" y="NaN" font-family="Virgil, Segoe UI Emoji" font-size="16px" fill="#3b82f6" text-anchor="middle" style="white-space: pre;" direction="ltr">presigned URL</text></g><g stroke-linecap="round"><g transform="translate(218.4184638606266 243.50865961264526) rotate(0 126.05855611388675 1.0943243243484346)"><path d="M0.82 -0.08 C42.86 0.44, 211.45 2.14, 253.18 2.56 M-0.21 -1.17 C41.68 -0.97, 210.49 -0.21, 252.79 0.64" stroke="#40916c" stroke-width="2" fill="none"></path></g><g transform="translate(218.4184638606266 243.50865961264526) rotate(0 126.05855611388675 1.0943243243484346)"><path d="M224.35 12.36 C235.94 5.04, 246.51 3.65, 252.97 1.05 M224.86 11.56 C231.71 7.07, 241.3 4.18, 252.12 0.15" stroke="#40916c" stroke-width="2" fill="none"></path></g><g transform="translate(218.4184638606266 243.50865961264526) rotate(0 126.05855611388675 1.0943243243484346)"><path d="M224.58 -8.16 C235.98 -7.67, 246.47 -1.23, 252.97 1.05 M225.09 -8.96 C231.93 -7.68, 241.46 -4.82, 252.12 0.15" stroke="#40916c" stroke-width="2" fill="none"></path></g></g><g transform="translate(279.9090649574235 224.60298393699372) rotate(0 64.56795501708984 20)"><text x="64.56795501708984" y="NaN" font-family="Virgil, Segoe UI Emoji" font-size="16px" fill="#40916c" text-anchor="middle" style="white-space: pre;" direction="ltr">4. Direct upload</text><text x="64.56795501708984" y="NaN" font-family="Virgil, Segoe UI Emoji" font-size="16px" fill="#40916c" text-anchor="middle" style="white-space: pre;" direction="ltr">(presigned URL)</text></g><g stroke-linecap="round"><g transform="translate(605.4037140734174 207.76079905394653) rotate(0 79.88798773581755 -16.674031299416114)"><path d="M-0.9 0.3 C9.83 -6.85, 36.93 -43.99, 63.52 -42.66 C90.12 -41.33, 142.7 -0.32, 158.66 8.27" stroke="#d97706" stroke-width="2.5" fill="none" stroke-dasharray="8 10"></path></g><g transform="translate(605.4037140734174 207.76079905394653) rotate(0 79.88798773581755 -16.674031299416114)"><path d="M129.91 2.25 C135.11 1.49, 141.82 4.04, 158.89 8.04" stroke="#d97706" stroke-width="2.5" fill="none"></path></g><g transform="translate(605.4037140734174 207.76079905394653) rotate(0 79.88798773581755 -16.674031299416114)"><path d="M141.02 -15 C143.75 -11.94, 147.94 -5.5, 158.89 8.04" stroke="#d97706" stroke-width="2.5" fill="none"></path></g></g><g transform="translate(629.9634813021189 155.64940505772415) rotate(0 38.59196472167969 10)"><text x="38.59196472167969" y="NaN" font-family="Virgil, Segoe UI Emoji" font-size="16px" fill="#d97706" text-anchor="middle" style="white-space: pre;" direction="ltr">5. Trigger</text></g><g stroke-linecap="round"><g transform="translate(772.1751489935773 280.4438492977222) rotate(0 -79.34298369645273 24.153565181222667)"><path d="M-0.22 0.68 C-13.25 8.72, -52.3 48.61, -78.52 49.24 C-104.74 49.86, -144.36 12.05, -157.57 4.41" stroke="#d97706" stroke-width="2.5" fill="none" stroke-dasharray="8 10"></path></g><g transform="translate(772.1751489935773 280.4438492977222) rotate(0 -79.34298369645273 24.153565181222667)"><path d="M-127.64 12.29 C-135.09 12.35, -142.5 9.75, -157.29 3.53" stroke="#d97706" stroke-width="2.5" fill="none"></path></g><g transform="translate(772.1751489935773 280.4438492977222) rotate(0 -79.34298369645273 24.153565181222667)"><path d="M-139.78 28.83 C-144.08 24.44, -148.2 17.36, -157.29 3.53" stroke="#d97706" stroke-width="2.5" fill="none"></path></g></g><g transform="translate(654.5593108382311 308.7509796601675) rotate(0 39.41596984863281 20)"><text x="39.41596984863281" y="NaN" font-family="Virgil, Segoe UI Emoji" font-size="16px" fill="#d97706" text-anchor="middle" style="white-space: pre;" direction="ltr">6. Write</text><text x="39.41596984863281" y="NaN" font-family="Virgil, Segoe UI Emoji" font-size="16px" fill="#d97706" text-anchor="middle" style="white-space: pre;" direction="ltr">thumbnails</text></g><g stroke-linecap="round"><g transform="translate(217.92712357108863 582.6163977863671) rotate(0 104.03591885835546 -17.854548222150186)"><path d="M0.45 1.06 C19.94 -4.78, 82.33 -35.15, 117.09 -35.7 C151.85 -36.25, 193.86 -7.78, 209.02 -2.24 M-0.77 0.57 C19.06 -5.01, 84.36 -33.34, 119.27 -34.16 C154.19 -34.99, 193.92 -9.85, 208.74 -4.36" stroke="#3b82f6" stroke-width="2" fill="none"></path></g><g transform="translate(217.92712357108863 582.6163977863671) rotate(0 104.03591885835546 -17.854548222150186)"><path d="M180.63 -8.7 C188.29 -4.72, 198.43 -5.56, 209.08 -5.89 M179.27 -6.09 C186.83 -5.96, 193.77 -5.61, 208.85 -4.37" stroke="#3b82f6" stroke-width="2" fill="none"></path></g><g transform="translate(217.92712357108863 582.6163977863671) rotate(0 104.03591885835546 -17.854548222150186)"><path d="M189.32 -27.29 C194.14 -17.4, 201.53 -12.38, 209.08 -5.89 M187.97 -24.67 C193.41 -20.17, 198.28 -15.41, 208.85 -4.37" stroke="#3b82f6" stroke-width="2" fill="none"></path></g></g><g transform="translate(305.5364250827228 526.9073013420668) rotate(0 30.495986938476562 20)"><text x="30.495986938476562" y="NaN" font-family="Virgil, Segoe UI Emoji" font-size="16px" fill="#3b82f6" text-anchor="middle" style="white-space: pre;" direction="ltr">1. GET </text><text x="30.495986938476562" y="NaN" font-family="Virgil, Segoe UI Emoji" font-size="16px" fill="#3b82f6" text-anchor="middle" style="white-space: pre;" direction="ltr">/file.jpg</text></g><g stroke-linecap="round"><g transform="translate(571.5505805625439 606.9404588185098) rotate(0 89.4901885957077 0.3033846980601709)"><path d="M1.13 -0.96 C13.48 -1.03, 45.08 -0.44, 74.85 -0.31 C104.62 -0.18, 162.57 -0.28, 179.75 -0.17" stroke="#3b82f6" stroke-width="2.5" fill="none" stroke-dasharray="8 10"></path></g><g transform="translate(571.5505805625439 606.9404588185098) rotate(0 89.4901885957077 0.3033846980601709)"><path d="M149.94 11.19 C160.17 7.37, 171.35 0.65, 180.14 1.66" stroke="#3b82f6" stroke-width="2.5" fill="none"></path></g><g transform="translate(571.5505805625439 606.9404588185098) rotate(0 89.4901885957077 0.3033846980601709)"><path d="M149.99 -9.33 C160.23 -5.75, 171.39 -5.07, 180.14 1.66" stroke="#3b82f6" stroke-width="2.5" fill="none"></path></g></g><g transform="translate(606.9836628171593 587.5472282146302) rotate(0 38.71997833251953 20)"><text x="38.71997833251953" y="NaN" font-family="Virgil, Segoe UI Emoji" font-size="16px" fill="#3b82f6" text-anchor="middle" style="white-space: pre;" direction="ltr">2. Cache </text><text x="38.71997833251953" y="NaN" font-family="Virgil, Segoe UI Emoji" font-size="16px" fill="#3b82f6" text-anchor="middle" style="white-space: pre;" direction="ltr">miss</text></g><g stroke-linecap="round"><g transform="translate(426.685538947079 634.179376720371) rotate(0 -104.58076643245788 12.69101902276634)"><path d="M-0.59 -0.58 C-14.42 3.89, -49.44 28.13, -84.1 27.75 C-118.76 27.37, -187.78 2.02, -208.56 -2.86 M1.3 1.73 C-12.59 5.77, -50 26.56, -85.05 25.92 C-120.1 25.28, -188.46 2.27, -209.01 -2.1" stroke="#40916c" stroke-width="2" fill="none"></path></g><g transform="translate(426.685538947079 634.179376720371) rotate(0 -104.58076643245788 12.69101902276634)"><path d="M-180.09 -4.68 C-184.32 -3.31, -193.17 -3.18, -208.57 -0.92 M-180.03 -3.79 C-187.42 -3.74, -195.02 -2.76, -208.4 -1.8" stroke="#40916c" stroke-width="2" fill="none"></path></g><g transform="translate(426.685538947079 634.179376720371) rotate(0 -104.58076643245788 12.69101902276634)"><path d="M-185.42 15.14 C-188.71 12.46, -196.46 8.51, -208.57 -0.92 M-185.36 16.03 C-191.29 10.63, -197.41 6.15, -208.4 -1.8" stroke="#40916c" stroke-width="2" fill="none"></path></g></g><g transform="translate(303.5534748024011 641.366336480093) rotate(0 39.02397155761719 19.99999999999997)"><text x="39.02397155761719" y="NaN" font-family="Virgil, Segoe UI Emoji" font-size="16px" fill="#40916c" text-anchor="middle" style="white-space: pre;" direction="ltr">3. Cached</text><text x="39.02397155761719" y="NaN" font-family="Virgil, Segoe UI Emoji" font-size="16px" fill="#40916c" text-anchor="middle" style="white-space: pre;" direction="ltr">response</text></g><g stroke-linecap="round"><g transform="translate(568.5399725863033 208.8960106474779) rotate(0 -31.037035654157734 -48.42083754090805)"><path d="M-0.02 0.41 C-10.53 -15.45, -51.88 -80.11, -62.19 -96.26 M-1.49 -0.41 C-12.24 -16.54, -53.03 -81.71, -63.21 -98.07" stroke="#2f9e44" stroke-width="2" fill="none"></path></g><g transform="translate(568.5399725863033 208.8960106474779) rotate(0 -31.037035654157734 -48.42083754090805)"><path d="M-38.87 -79.8 C-47.17 -86.14, -56.22 -92.43, -64.01 -96.39 M-38.78 -80.39 C-47.31 -84.33, -52.31 -89.86, -62.29 -97.44" stroke="#2f9e44" stroke-width="2" fill="none"></path></g><g transform="translate(568.5399725863033 208.8960106474779) rotate(0 -31.037035654157734 -48.42083754090805)"><path d="M-56.28 -68.93 C-58.03 -79.28, -60.65 -89.6, -64.01 -96.39 M-56.19 -69.51 C-59.57 -76.79, -59.5 -85.49, -62.29 -97.44" stroke="#2f9e44" stroke-width="2" fill="none"></path></g></g><g transform="translate(486.30297813087594 140.47517310656986) rotate(0 51.19995880126953 20)"><text x="51.19995880126953" y="NaN" font-family="Segoe UI Emoji" font-size="16px" fill="#2f9e44" text-anchor="middle" style="white-space: pre;" direction="ltr">7. Update S3</text><text x="51.19995880126953" y="NaN" font-family="Segoe UI Emoji" font-size="16px" fill="#2f9e44" text-anchor="middle" style="white-space: pre;" direction="ltr">Link</text></g><g transform="translate(47.3240965572561 46.935280389606106) rotate(0 48.21595764160156 10)"><text x="0" y="NaN" font-family="Segoe UI Emoji" font-size="16px" fill="#a6adc8" text-anchor="start" style="white-space: pre;" direction="ltr">Upload Path</text></g></svg>