<svg version="1.1" xmlns="http://www.w3.org/2000/svg" viewBox="0 0 1671.954721609633 121.97303601261626" width="1671.954721609633" height="121.97303601261626">
  <!-- svg-source:excalidraw -->
  
  <defs>
    <style>
      @font-face {
        font-family: "Virgil";
        src: url("https://excalidraw.com/Virgil.woff2");
      }
      @font-face {
        font-family: "Cascadia";
        src: url("https://excalidraw.com/Cascadia.woff2");
      }
    </style>
  </defs>
  <rect x="0" y="0" width="1671.954721609633" height="121.97303601261626" fill="#1e1e2e"></rect><g stroke-linecap="round" transform="translate(10 10.964499179262589) rotate(0 90 36.5)"><path d="M-1.06 -0.03 L178.56 0.91 L178.53 71.01 L-0.18 71.44" stroke="none" stroke-width="0" fill="#87CEEB"></path><path d="M-0.61 -0.09 C49.62 -0.82, 99.73 -2.46, 178.63 1.34 M1 0.33 C65.73 0.06, 131.44 -1.05, 180.12 -0.96 M180.54 1.36 C181.79 16.93, 181.77 31.02, 179.19 73.6 M179.11 -0.1 C180.56 15.81, 180.31 32.62, 179.69 73.75 M178.05 72.48 C117.78 72.46, 55.24 70.8, 0.46 72.13 M179.55 73.43 C128.86 73.72, 77.01 72.45, -0.23 73.29 M-1.17 74.77 C-0.04 48.23, -0.49 20.65, -0.61 1.08 M-0.26 72.5 C-0.71 57.18, 0.71 42.11, -0.56 -0.55" stroke="#4682B4" stroke-width="2" fill="none"></path></g><g transform="translate(72.95002746582031 34.96449917926259) rotate(0 27.049972534179688 12.5)"><text x="27.049972534179688" y="NaN" font-family="Virgil, Segoe UI Emoji" font-size="20px" fill="#000" text-anchor="middle" style="white-space: pre;" direction="ltr">Client</text></g><g stroke-linecap="round" transform="translate(430 10.964499179262589) rotate(0 91 36.5)"><path d="M0.45 -0.58 L181.62 1.12 L181.49 73.37 L-0.86 71.85" stroke="none" stroke-width="0" fill="#DDA0DD"></path><path d="M1.77 0.35 C62.88 -1, 123.45 0.93, 182.88 -1.02 M0.86 -0.21 C46.22 0.68, 93.39 1.35, 181.52 -0.36 M182.26 -0.66 C181.95 20.72, 180.19 40.21, 182.46 74.52 M182.11 -0.79 C183.28 14.21, 182.03 28.68, 182 73.68 M183.71 72.6 C128.87 75.87, 73.63 72.52, 0.82 73.6 M181.26 73.92 C112.62 72.57, 43.82 74.09, 0.49 72.13 M1.43 74.4 C0.84 52.68, -0.53 33.86, 1.79 0.62 M-0.88 73.55 C0.65 52.75, 0.89 32.22, -0.44 0.8" stroke="#8B008B" stroke-width="2" fill="none"></path></g><g transform="translate(466.53004455566406 34.96449917926259) rotate(0 54.46995544433594 12.5)"><text x="54.46995544433594" y="NaN" font-family="Virgil, Segoe UI Emoji" font-size="20px" fill="#000" text-anchor="middle" style="white-space: pre;" direction="ltr">API Server</text></g><g stroke-linecap="round" transform="translate(737.3227981267368 10) rotate(0 96.5 36.5)"><path d="M-1.28 -0.76 L192.97 -1.65 L191.63 72.73 L-1.05 72.34" stroke="none" stroke-width="0" fill="#F0E68C"></path><path d="M0.57 0.44 C72.17 2.86, 147.26 2.59, 194.26 -0.06 M-0.08 -0.45 C62.6 -1.21, 125.01 -0.27, 193.53 -0.96 M192.16 -0.73 C191.14 26.03, 194.25 51.79, 194.07 73.85 M192.35 -0.88 C192.9 26.25, 193.22 51.33, 193.13 72.22 M192.76 72.4 C134.2 72.23, 75.85 72.82, -1.12 73.29 M192.79 72.84 C144.12 73.76, 96.36 74.21, -0.92 73.78 M0.31 74.69 C1.77 50.46, 0.69 29.67, 0.22 -1.74 M-0.09 73.7 C-0.75 49.42, 0.4 24.68, 0.56 -0.63" stroke="#DAA520" stroke-width="2" fill="none"></path></g><g transform="translate(770.2728484807407 34) rotate(0 63.549949645996094 12.5)"><text x="63.549949645996094" y="NaN" font-family="Virgil, Segoe UI Emoji" font-size="20px" fill="#000" text-anchor="middle" style="white-space: pre;" direction="ltr">Queue/Kafka</text></g><g stroke-linecap="round" transform="translate(1157.3227981267369 10) rotate(0 107.5 36.5)"><path d="M0.13 -0.38 L216.66 0.08 L214.03 72.51 L-1.81 71.74" stroke="none" stroke-width="0" fill="#FFB6C1"></path><path d="M-0.43 0.51 C78.5 1.97, 158.75 2.67, 213.85 -0.75 M0.15 0.66 C74.7 -2.44, 150.1 -1.64, 215.25 0.63 M213.66 -1.7 C216.89 21.93, 216.47 46.92, 213.36 72.84 M215.57 -0.5 C214.28 14.7, 215.69 30.11, 215.39 72.34 M215.03 73.05 C130.67 74.23, 50.45 73.86, -0.4 73.79 M214.8 72.5 C170.26 72.17, 124.44 73.28, -0.21 72.59 M-0.86 72.49 C0.87 50.7, 0.85 25.39, -0.04 0.68 M0.59 73.17 C0.76 49.35, 0.28 28.49, -0.25 -0.59" stroke="#DC143C" stroke-width="2" fill="none"></path></g><g transform="translate(1196.082853668729 34) rotate(0 68.73994445800781 12.5)"><text x="68.73994445800781" y="NaN" font-family="Virgil, Segoe UI Emoji" font-size="20px" fill="#000" text-anchor="middle" style="white-space: pre;" direction="ltr">Async Workers</text></g><g stroke-linecap="round" transform="translate(1481.954721609633 10) rotate(0 90 36.5)"><path d="M-0.56 -0.82 L179.55 0.97 L180.59 71.82 L1.51 73.52" stroke="none" stroke-width="0" fill="#98FB98"></path><path d="M0.8 -1.2 C73.07 0.95, 143.28 -1.27, 180.23 -0.01 M0.71 -0.3 C68.61 1.31, 136.52 0.49, 180.98 -0.6 M179.21 -0.95 C179.05 23.46, 179.05 43.54, 179.17 74.01 M179.43 0.44 C180.96 26.18, 180.8 51.58, 180.67 72.95 M180.67 74.9 C141.77 73.64, 107.74 73.95, -1.47 72.28 M179.62 73.04 C115.89 75.05, 53.67 74.63, 0.13 72.74 M-1.14 72.73 C1.63 52.21, -0.6 34.1, -1.59 -1.78 M0.75 73.27 C0.6 52.11, -1.11 31.98, 0.64 -0.22" stroke="#228B22" stroke-width="2" fill="none"></path></g><g transform="translate(1522.5147573151994 34) rotate(0 49.439964294433594 12.5)"><text x="49.439964294433594" y="NaN" font-family="Virgil, Segoe UI Emoji" font-size="20px" fill="#000" text-anchor="middle" style="white-space: pre;" direction="ltr">Database</text></g><g stroke-linecap="round"><g transform="translate(196 47.47179917926259) rotate(0 114 0)"><path d="M1.06 -0.8 C38.99 -0.68, 190.36 -0.6, 228.05 -0.38 M0.15 1.4 C37.89 1.78, 188.88 1.46, 227.13 0.95" stroke="#94a3b8" stroke-width="2" fill="none"></path></g><g transform="translate(196 47.47179917926259) rotate(0 114 0)"><path d="M197.68 11.48 C207.96 6.23, 218.89 5.62, 227.56 1.87 M199.46 10.95 C207.86 9.12, 216.52 5.85, 227.98 0.85" stroke="#94a3b8" stroke-width="2" fill="none"></path></g><g transform="translate(196 47.47179917926259) rotate(0 114 0)"><path d="M197.54 -9.04 C207.68 -7.36, 218.66 -1.05, 227.56 1.87 M199.32 -9.57 C207.71 -5.29, 216.41 -2.46, 227.98 0.85" stroke="#94a3b8" stroke-width="2" fill="none"></path></g></g><g stroke-linecap="round"><g transform="translate(618.0000000000001 47.17278472715857) rotate(0 56.66139906336838 -0.17469852277829523)"><path d="M0.27 0.46 C19.14 0.44, 93.87 0.94, 112.82 0.73 M-1.05 -0.34 C17.66 -0.75, 92.51 -0.94, 111.61 -0.82" stroke="#94a3b8" stroke-width="2" fill="none"></path></g><g transform="translate(618.0000000000001 47.17278472715857) rotate(0 56.66139906336838 -0.17469852277829523)"><path d="M84.18 8.58 C92.56 7.71, 97.5 3.83, 111.39 -2.46 M82.56 9.64 C90.57 7.36, 99.47 3.56, 112.4 -0.66" stroke="#94a3b8" stroke-width="2" fill="none"></path></g><g transform="translate(618.0000000000001 47.17278472715857) rotate(0 56.66139906336838 -0.17469852277829523)"><path d="M84.19 -11.95 C92.72 -7.41, 97.65 -5.89, 111.39 -2.46 M82.57 -10.88 C90.51 -7.57, 99.41 -5.77, 112.4 -0.66" stroke="#94a3b8" stroke-width="2" fill="none"></path></g></g><g stroke-linecap="round"><g transform="translate(936.3227981267368 46.5073) rotate(0 107.5 0)"><path d="M-1.04 -0.59 C34.93 -0.64, 179.01 0.76, 215.04 0.72 M0.62 1.72 C36.5 1.85, 178.47 -0.75, 214.12 -1.03" stroke="#94a3b8" stroke-width="2" fill="none"></path></g><g transform="translate(936.3227981267368 46.5073) rotate(0 107.5 0)"><path d="M185.09 9.68 C193.73 7.66, 197.73 6.28, 212.38 -1.93 M186.48 10.57 C194.22 7.31, 202.11 4.27, 214.95 -1.78" stroke="#94a3b8" stroke-width="2" fill="none"></path></g><g transform="translate(936.3227981267368 46.5073) rotate(0 107.5 0)"><path d="M184.82 -10.84 C193.69 -8.07, 197.76 -4.65, 212.38 -1.93 M186.2 -9.94 C193.95 -7.56, 201.91 -4.95, 214.95 -1.78" stroke="#94a3b8" stroke-width="2" fill="none"></path></g></g><g stroke-linecap="round"><g transform="translate(1378.3227981267369 46.5073) rotate(0 48.81596174144818 0)"><path d="M1.01 -0.09 C16.97 -0.01, 80.44 1.02, 96.69 0.95 M0.07 -1.19 C16.33 -1.47, 82.55 -0.96, 98.91 -0.68" stroke="#94a3b8" stroke-width="2" fill="none"></path></g><g transform="translate(1378.3227981267369 46.5073) rotate(0 48.81596174144818 0)"><path d="M70.45 7.7 C82.79 6.79, 90.95 2.13, 98.77 0.63 M70.44 9.47 C79.9 5.5, 89.51 3.53, 98.65 -0.81" stroke="#94a3b8" stroke-width="2" fill="none"></path></g><g transform="translate(1378.3227981267369 46.5073) rotate(0 48.81596174144818 0)"><path d="M70.68 -12.82 C83.01 -6.02, 91.08 -2.97, 98.77 0.63 M70.68 -11.05 C79.97 -8.21, 89.51 -3.39, 98.65 -0.81" stroke="#94a3b8" stroke-width="2" fill="none"></path></g></g><g stroke-linecap="round"><g transform="translate(425.5210977922103 75.81060709123638) rotate(0 -115.7894687978661 18.081214460689942)"><path d="M-0.09 0.33 C-20.32 6.27, -83.45 35.32, -121.84 35.61 C-160.23 35.91, -212.11 7.68, -230.42 2.12" stroke="#94a3b8" stroke-width="2.5" fill="none" stroke-dasharray="8 10"></path></g><g transform="translate(425.5210977922103 75.81060709123638) rotate(0 -115.7894687978661 18.081214460689942)"><path d="M-199.88 3.13 C-209.27 4.74, -215.09 2.3, -229.05 3.82" stroke="#94a3b8" stroke-width="2.5" fill="none"></path></g><g transform="translate(425.5210977922103 75.81060709123638) rotate(0 -115.7894687978661 18.081214460689942)"><path d="M-207.53 22.17 C-214.9 18.77, -218.7 11.29, -229.05 3.82" stroke="#94a3b8" stroke-width="2.5" fill="none"></path></g></g><g transform="translate(136.5278381047641 35.25) rotate(0 60.794960021972656 11.25)"><text x="60.794960021972656" y="NaN" font-family="Virgil, Segoe UI Emoji" font-size="18px" fill="#cdd6f4" text-anchor="middle" style="white-space: pre;" direction="ltr">immediate ack</text></g><g stroke-linecap="round"><g transform="translate(933.9574550530252 76.95589522546078) rotate(0 110.24941071824401 16.73792192685815)"><path d="M-0.75 0.51 C17.61 5.89, 74.47 31.96, 111.23 32.3 C147.99 32.64, 201.78 7.55, 219.81 2.55" stroke="#94a3b8" stroke-width="2.5" fill="none" stroke-dasharray="8 10"></path></g><g transform="translate(933.9574550530252 76.95589522546078) rotate(0 110.24941071824401 16.73792192685815)"><path d="M197.54 23.59 C203.73 13.22, 216.43 5.07, 221.13 0.87" stroke="#94a3b8" stroke-width="2.5" fill="none"></path></g><g transform="translate(933.9574550530252 76.95589522546078) rotate(0 110.24941071824401 16.73792192685815)"><path d="M190.66 4.26 C199.53 1.45, 214.9 0.83, 221.13 0.87" stroke="#94a3b8" stroke-width="2.5" fill="none"></path></g></g><g transform="translate(1005.9148391423618 35.25) rotate(0 37.907958984375 11.25)"><text x="37.907958984375" y="NaN" font-family="Virgil, Segoe UI Emoji" font-size="18px" fill="#cdd6f4" text-anchor="middle" style="white-space: pre;" direction="ltr">buffering</text></g></svg>