<svg version="1.1" xmlns="http://www.w3.org/2000/svg" viewBox="0 0 1880 331.2463768067919" width="1880" height="331.2463768067919">
  <!-- svg-source:excalidraw -->
  
  <defs>
    <style>
      @font-face {
        font-family: "Virgil";
        src: url("https://excalidraw.com/Virgil.woff2");
      }
      @font-face {
        font-family: "Cascadia";
        src: url("https://excalidraw.com/Cascadia.woff2");
      }
    </style>
  </defs>
  <rect x="0" y="0" width="1880" height="331.2463768067919" fill="#1e1e2e"></rect><g stroke-linecap="round" transform="translate(10 81.5) rotate(0 90 36.5)"><path d="M-0.55 1.05 L181.38 -0.62 L179.2 73.71 L-0.83 74.68" stroke="none" stroke-width="0" fill="#87CEEB"></path><path d="M-1.14 1.37 C39.19 -0.09, 80.88 -1.12, 178.39 -0.54 M-0.04 -0.99 C42.12 -1.59, 85.98 -1.81, 179.59 -0.96 M180.72 -1.34 C180.08 14.17, 178.52 32.45, 181.78 72.8 M181 0.53 C179.85 24.12, 180.13 50.8, 180.2 73.11 M179.06 74.73 C131.73 69.86, 86.53 71.62, -0.1 73.84 M180.58 72.29 C135.74 70.91, 90.87 72.1, -0.77 72.75 M-0.83 71.13 C1.22 57.88, -0.01 42.11, 1.44 1.12 M0.2 73.54 C1.41 45.68, 0.89 16.07, -0.67 -0.68" stroke="#4682B4" stroke-width="2" fill="none"></path></g><g transform="translate(48.774017333984375 100.5) rotate(0 51.225982666015625 17.5)"><text x="51.225982666015625" y="NaN" font-family="Virgil, Segoe UI Emoji" font-size="28px" fill="#000" text-anchor="middle" style="white-space: pre;" direction="ltr">Stage 1</text></g><g stroke-linecap="round" transform="translate(430 81.5) rotate(0 90 36.5)"><path d="M1.1 1.49 L181.71 1.69 L178.4 73.85 L0.11 74.24" stroke="none" stroke-width="0" fill="#F0E68C"></path><path d="M-1.55 -0.48 C69.74 -3.5, 140.92 -2.98, 181.24 1.28 M0.96 0.54 C43.4 -0.3, 87.44 -1.3, 180.53 0.22 M180.85 0.37 C178.39 21.12, 177.51 38.42, 178.78 73.99 M179.63 0.39 C181.08 23.19, 179.76 45.72, 180.6 72.67 M181.29 71.61 C115.2 69.63, 47.1 72.94, -0.96 72.37 M179.08 72.58 C110.01 73.94, 39.7 74.25, -0.99 73.03 M1.39 71.86 C-1.8 45.65, 0.72 22.86, 1.55 0.45 M0.27 73.04 C0.9 56, 0.36 38.72, -0.1 -0.37" stroke="#DAA520" stroke-width="2" fill="none"></path></g><g transform="translate(468.1160202026367 100.5) rotate(0 51.88397979736328 17.5)"><text x="51.88397979736328" y="NaN" font-family="Virgil, Segoe UI Emoji" font-size="28px" fill="#000" text-anchor="middle" style="white-space: pre;" direction="ltr">Queue 1</text></g><g stroke-linecap="round" transform="translate(850 10) rotate(0 90 36.5)"><path d="M0.88 1.67 L181.49 -0.81 L180.1 71.93 L0.94 72.61" stroke="none" stroke-width="0" fill="#87CEEB"></path><path d="M-0.65 -0.98 C57.39 -0.75, 109.55 -0.42, 180.15 1.61 M-0.46 0.14 C38.08 1.17, 76.68 1.13, 180.62 0.76 M179.12 -0.58 C180.66 15.48, 178.33 33.45, 181.63 74.26 M179.67 -0.54 C179.86 17.89, 181.36 37.75, 180.91 73.26 M180.04 71.16 C129.9 73.75, 84.75 72.69, -1.66 73.3 M180.45 72.26 C125.08 74.41, 72.13 74.11, -0.96 72.63 M0.18 71.14 C-2.14 53.18, -2.09 37.92, 0.27 0.85 M0.07 73.43 C0.22 46.25, 0 20.87, -0.96 0.65" stroke="#4682B4" stroke-width="2" fill="none"></path></g><g transform="translate(882.6000213623047 29) rotate(0 57.39997863769531 17.5)"><text x="57.39997863769531" y="NaN" font-family="Virgil, Segoe UI Emoji" font-size="28px" fill="#000" text-anchor="middle" style="white-space: pre;" direction="ltr">Stage 2</text></g><g stroke-linecap="round" transform="translate(1270 10) rotate(0 90 36.5)"><path d="M-0.95 0.43 L178.3 0.66 L181.55 72.72 L-0.26 72.3" stroke="none" stroke-width="0" fill="#F0E68C"></path><path d="M0.49 0.21 C67.32 -0.21, 132.66 2.35, 179.79 0.45 M-0.98 -0.87 C63.98 -0.87, 128.33 -0.51, 180.19 0.83 M181.99 1.53 C179.52 24.32, 182.29 51.35, 180.41 74.19 M180.01 -0.59 C181.24 24.73, 179.65 49.15, 179.39 73.97 M180.56 72.56 C120.22 75.02, 62.25 73.12, -1.63 72.19 M180.23 73.82 C109.52 73.95, 40.73 74.24, -0.04 72.18 M1.55 73.33 C-0.41 48.22, -0.09 21.71, -1.54 -1.69 M-0.23 72.37 C0.1 48.64, 0.87 24.01, -0.42 0.01" stroke="#DAA520" stroke-width="2" fill="none"></path></g><g transform="translate(1301.942024230957 29) rotate(0 58.05797576904297 17.5)"><text x="58.05797576904297" y="NaN" font-family="Virgil, Segoe UI Emoji" font-size="28px" fill="#000" text-anchor="middle" style="white-space: pre;" direction="ltr">Queue 2</text></g><g stroke-linecap="round" transform="translate(1690 10) rotate(0 90 36.5)"><path d="M-1.66 -0.83 L182 -1.72 L180.9 74.82 L-0.59 71.35" stroke="none" stroke-width="0" fill="#87CEEB"></path><path d="M-0.93 -1.77 C49.98 2.5, 104.59 2.42, 181.79 -0.3 M0.71 -0.16 C47.32 2.45, 94.3 2.14, 180.02 0.58 M178.63 -1.51 C182.5 23.71, 179.83 48.21, 178 72.82 M180.73 0.82 C179.26 26.05, 179.02 51.44, 180.81 73.83 M181.62 72.86 C125.96 75.79, 70.09 73.85, 0.36 72.49 M180.59 73.03 C119.81 74.05, 57.11 75.64, -0.66 72.02 M1.76 72.64 C-1.88 47.22, 0.41 20.64, -1.54 -0.8 M-0.31 73.2 C-0.7 56.94, -0.89 41.83, 0.81 0.76" stroke="#4682B4" stroke-width="2" fill="none"></path></g><g transform="translate(1723.0340194702148 29) rotate(0 56.965980529785156 17.5)"><text x="56.965980529785156" y="NaN" font-family="Virgil, Segoe UI Emoji" font-size="28px" fill="#000" text-anchor="middle" style="white-space: pre;" direction="ltr">Stage 3</text></g><g stroke-linecap="round" transform="translate(850 153) rotate(0 90 36.5)"><path d="M0.09 -1.21 L179.21 1.98 L180.51 71.41 L0.85 71.66" stroke="none" stroke-width="0" fill="#FFB6C1"></path><path d="M-0.81 1.39 C39.5 -1.33, 74.13 0.12, 179.24 -1.06 M-0.14 0.49 C39.72 -0.82, 80.39 -0.8, 179.65 0.78 M179.23 -0.41 C178.23 30.62, 180.43 57.54, 178.59 72.76 M179.6 0.98 C181.43 15.51, 180.48 29.64, 179.66 72.98 M180.88 72.69 C114.99 72.41, 49.28 70.95, -0.75 73.44 M180.79 73.39 C134.17 72.49, 88.91 72.11, -0.2 72.57 M1.52 73.24 C-1.57 46.94, 1.52 21.68, 0.41 -1.88 M-0.07 73.76 C-1.36 44.05, -0.91 15.09, -0.87 0.56" stroke="#DC143C" stroke-width="2" fill="none"></path></g><g transform="translate(900.0300140380859 172) rotate(0 39.96998596191406 17.5)"><text x="39.96998596191406" y="NaN" font-family="Virgil, Segoe UI Emoji" font-size="28px" fill="#000" text-anchor="middle" style="white-space: pre;" direction="ltr">DLQ 1</text></g><g stroke-linecap="round" transform="translate(1690 153) rotate(0 90 36.5)"><path d="M1.76 -0.7 L179.46 1.56 L181.59 73.73 L1.49 74.43" stroke="none" stroke-width="0" fill="#FFB6C1"></path><path d="M-1.85 0.84 C44.42 -1.07, 86.64 0.08, 179.67 0.22 M-1 0.71 C59.43 0.31, 121.29 -0.28, 179.4 -0.48 M178.63 1.73 C179.48 20.08, 180.17 43.85, 180.22 74.53 M180.5 -0.27 C179.45 19.54, 179.29 38.01, 180.22 73.2 M180.99 71.95 C113.5 71.73, 43.63 74.5, 1.01 73.05 M179.96 72.17 C124.12 74.84, 68.31 74.59, -0.08 73 M-0.88 72.2 C-0.67 53.65, -0.22 36.64, -1.76 1.71 M0.89 72.08 C0.98 53.41, 0.45 34.67, -0.07 -0.23" stroke="#DC143C" stroke-width="2" fill="none"></path></g><g transform="translate(1733.8560180664062 172) rotate(0 46.14398193359375 17.5)"><text x="46.14398193359375" y="NaN" font-family="Virgil, Segoe UI Emoji" font-size="28px" fill="#000" text-anchor="middle" style="white-space: pre;" direction="ltr">DLQ 2</text></g><g stroke-linecap="round" transform="translate(1270 153) rotate(0 107.5 36.5)"><path d="M0.68 -0.53 L216.75 0.11 L216.19 73.59 L1.06 74.66" stroke="none" stroke-width="0" fill="#98FB98"></path><path d="M-0.76 0.89 C66.44 0.22, 130.91 0.3, 215.72 -0.52 M0.06 0.47 C76.83 -0.47, 152.25 0.52, 215.28 -0.1 M214.66 -0.25 C216.02 19.35, 215 39.66, 215.47 71.15 M214.53 0.8 C214.19 17.42, 215.63 36.89, 215.16 72.56 M213.84 73.28 C168.87 72.67, 122.8 74.18, -1.17 74.18 M214.37 73.25 C167.08 71.83, 119.83 72.74, -0.08 73.02 M-1.44 74.39 C1.4 47.1, -1.42 24.59, -0.95 1.86 M0.03 72.63 C0.17 48.21, 0.44 23.8, 0.06 0.89" stroke="#228B22" stroke-width="2" fill="none"></path></g><g transform="translate(1279.9340362548828 172) rotate(0 97.56596374511719 17.5)"><text x="97.56596374511719" y="NaN" font-family="Virgil, Segoe UI Emoji" font-size="28px" fill="#000" text-anchor="middle" style="white-space: pre;" direction="ltr">(Progress DB)</text></g><g stroke-linecap="round"><g transform="translate(196 118.0073) rotate(0 114 0)"><path d="M-0.31 -1.14 C37.42 -0.88, 189 0.26, 227.08 0.62 M1.72 0.88 C39.76 0.87, 191.68 -0.91, 229.3 -1.18" stroke="#94a3b8" stroke-width="2" fill="none"></path></g><g transform="translate(196 118.0073) rotate(0 114 0)"><path d="M199.32 7.81 C212.36 5.93, 223.1 2.33, 230.96 -1.38 M201.11 9.69 C210.01 5.59, 219.1 2.97, 228.77 -0.4" stroke="#94a3b8" stroke-width="2" fill="none"></path></g><g transform="translate(196 118.0073) rotate(0 114 0)"><path d="M199.12 -12.71 C212.07 -7.26, 222.88 -3.53, 230.96 -1.38 M200.92 -10.83 C209.72 -8.61, 218.87 -4.92, 228.77 -0.4" stroke="#94a3b8" stroke-width="2" fill="none"></path></g></g><g stroke-linecap="round"><g transform="translate(616 113.16912383125415) rotate(0 113.99999999999994 -30.921289355320866)"><path d="M1.17 0.55 C39.24 -9.66, 189.88 -51.27, 227.77 -61.8 M0.32 -0.21 C38.27 -10.17, 188.75 -49.99, 226.7 -60.24" stroke="#94a3b8" stroke-width="2" fill="none"></path></g><g transform="translate(616 113.16912383125415) rotate(0 113.99999999999994 -30.921289355320866)"><path d="M203.02 -43.44 C208.3 -46.66, 212.98 -51.49, 225.42 -58.98 M201.16 -42.39 C206.93 -47.89, 213.42 -50.77, 227.18 -60.74" stroke="#94a3b8" stroke-width="2" fill="none"></path></g><g transform="translate(616 113.16912383125415) rotate(0 113.99999999999994 -30.921289355320866)"><path d="M197.73 -63.27 C204.21 -61.67, 210.2 -61.64, 225.42 -58.98 M195.86 -62.22 C202.76 -63.35, 210.44 -61.81, 227.18 -60.74" stroke="#94a3b8" stroke-width="2" fill="none"></path></g></g><g stroke-linecap="round"><g transform="translate(1036 46.5073) rotate(0 114 0)"><path d="M0.33 0.74 C38.53 1.01, 190.55 0.86, 228.48 0.6 M-0.96 0.09 C37.2 0.09, 189.77 -1.2, 227.79 -1.22" stroke="#94a3b8" stroke-width="2" fill="none"></path></g><g transform="translate(1036 46.5073) rotate(0 114 0)"><path d="M200.89 9.99 C207.4 6.51, 211.65 5.3, 226.05 -2.36 M200.31 9.34 C206.61 5.5, 212.86 4.88, 228.45 -0.49" stroke="#94a3b8" stroke-width="2" fill="none"></path></g><g transform="translate(1036 46.5073) rotate(0 114 0)"><path d="M200.79 -10.53 C207.15 -9.14, 211.42 -5.49, 226.05 -2.36 M200.2 -11.18 C206.56 -10.21, 212.83 -6.03, 228.45 -0.49" stroke="#94a3b8" stroke-width="2" fill="none"></path></g></g><g stroke-linecap="round"><g transform="translate(1456 46.5073) rotate(0 114 0)"><path d="M0.47 -0.71 C38.52 -0.83, 191.08 -0.68, 228.91 -0.44 M-0.74 1.54 C37.18 1.55, 190.58 1.32, 228.43 0.87" stroke="#94a3b8" stroke-width="2" fill="none"></path></g><g transform="translate(1456 46.5073) rotate(0 114 0)"><path d="M199.12 12.81 C209.34 6.63, 221.14 5.9, 229.58 1.19 M201.18 11.15 C206.56 9.54, 213.79 6.7, 227.98 0.58" stroke="#94a3b8" stroke-width="2" fill="none"></path></g><g transform="translate(1456 46.5073) rotate(0 114 0)"><path d="M199 -7.71 C209.32 -6.75, 221.16 -0.33, 229.58 1.19 M201.06 -9.37 C206.35 -5.74, 213.61 -3.34, 227.98 0.58" stroke="#94a3b8" stroke-width="2" fill="none"></path></g></g><g stroke-linecap="round"><g transform="translate(616 122.82805328326864) rotate(0 114 30.921289325497195)"><path d="M0.74 1.16 C38.5 11.45, 189.33 52.8, 227.05 62.79" stroke="#94a3b8" stroke-width="2.5" fill="none" stroke-dasharray="8 10"></path></g><g transform="translate(616 122.82805328326864) rotate(0 114 30.921289325497195)"><path d="M199.09 63.77 C208.84 62.73, 216.13 62.29, 227.47 62.65" stroke="#94a3b8" stroke-width="2.5" fill="none"></path></g><g transform="translate(616 122.82805328326864) rotate(0 114 30.921289325497195)"><path d="M204.44 43.95 C212.56 49.66, 218.03 55.93, 227.47 62.65" stroke="#94a3b8" stroke-width="2.5" fill="none"></path></g></g><g transform="translate(691.4860229492188 136.24934260876583) rotate(0 38.51397705078125 17.5)"><text x="38.51397705078125" y="NaN" font-family="Virgil, Segoe UI Emoji" font-size="28px" fill="#cdd6f4" text-anchor="middle" style="white-space: pre;" direction="ltr">failed</text></g><g stroke-linecap="round"><g transform="translate(1456 55.00457104062105) rotate(0 114 62.99550425550362)"><path d="M-0.09 0.06 C38.18 20.99, 190.65 105.38, 228.48 126.27" stroke="#94a3b8" stroke-width="2.5" fill="none" stroke-dasharray="8 10"></path></g><g transform="translate(1456 55.00457104062105) rotate(0 114 62.99550425550362)"><path d="M198.94 122.41 C205.45 120.78, 210.11 123.5, 229.66 126.78" stroke="#94a3b8" stroke-width="2.5" fill="none"></path></g><g transform="translate(1456 55.00457104062105) rotate(0 114 62.99550425550362)"><path d="M208.87 104.45 C213.43 106.51, 216.05 112.93, 229.66 126.78" stroke="#94a3b8" stroke-width="2.5" fill="none"></path></g></g><g transform="translate(1531.4860229492188 100.50007529612466) rotate(0 38.51397705078125 17.5)"><text x="38.51397705078125" y="NaN" font-family="Virgil, Segoe UI Emoji" font-size="28px" fill="#cdd6f4" text-anchor="middle" style="white-space: pre;" direction="ltr">failed</text></g><g stroke-linecap="round"><g transform="translate(1036 55.88048402493743) rotate(0 114 62.46076005194113)"><path d="M0.66 -0.99 C38.45 19.92, 189.74 103.57, 227.45 124.51" stroke="#94a3b8" stroke-width="2.5" fill="none" stroke-dasharray="8 10"></path></g><g transform="translate(1036 55.88048402493743) rotate(0 114 62.46076005194113)"><path d="M196.17 118.91 C207.76 119.58, 218.61 124.35, 228.34 124.38" stroke="#94a3b8" stroke-width="2.5" fill="none"></path></g><g transform="translate(1036 55.88048402493743) rotate(0 114 62.46076005194113)"><path d="M206.11 100.96 C213.98 108.14, 221.25 119.37, 228.34 124.38" stroke="#94a3b8" stroke-width="2.5" fill="none"></path></g></g><g transform="translate(1082.3800430297852 100.84124407687855) rotate(0 67.61995697021484 17.5)"><text x="67.61995697021484" y="NaN" font-family="Virgil, Segoe UI Emoji" font-size="28px" fill="#cdd6f4" text-anchor="middle" style="white-space: pre;" direction="ltr">checkpoint</text></g><g stroke-linecap="round" transform="translate(466.3647529439724 207.45941327755918) rotate(0 64.83556522753744 56.893481764616354)"><path d="M56.63 -0.3 C65.8 -2.22, 77.99 0.66, 87.53 3.95 C97.07 7.23, 107.24 12.76, 113.87 19.42 C120.51 26.08, 124.97 35.3, 127.34 43.93 C129.71 52.56, 130.43 62.63, 128.1 71.21 C125.78 79.8, 120.19 89, 113.4 95.41 C106.6 101.82, 96.91 106.8, 87.33 109.66 C77.75 112.52, 65.88 113.47, 55.92 112.55 C45.96 111.63, 35.68 109.01, 27.57 104.13 C19.46 99.24, 11.71 91.22, 7.26 83.23 C2.8 75.24, 0.75 64.91, 0.83 56.19 C0.91 47.46, 3.13 38.48, 7.74 30.88 C12.35 23.29, 19.53 15.84, 28.5 10.61 C37.46 5.38, 55.08 1, 61.54 -0.49 C68 -1.98, 67.17 0.57, 67.27 1.68 M44.46 2.02 C53.45 -1.19, 67.36 -1.55, 77.58 -0.09 C87.81 1.36, 97.99 4.95, 105.79 10.74 C113.59 16.54, 120.2 26.24, 124.38 34.66 C128.56 43.08, 131.8 52.79, 130.89 61.27 C129.97 69.75, 124.35 78.11, 118.87 85.56 C113.38 93.01, 106.41 101.31, 97.97 105.96 C89.53 110.62, 78.1 113.25, 68.22 113.49 C58.34 113.73, 47.94 110.93, 38.66 107.42 C29.39 103.92, 19.08 99.34, 12.58 92.48 C6.09 85.62, 1.52 75.16, -0.31 66.26 C-2.14 57.37, -1.62 47.23, 1.59 39.09 C4.81 30.95, 11.83 23.58, 18.96 17.43 C26.09 11.27, 39.8 4.26, 44.36 2.16 C48.92 0.06, 45.86 3.86, 46.32 4.81" stroke="none" stroke-width="0" fill="#87CEEB"></path><path d="M67.07 -0.52 C76.7 -1.22, 88.87 2.49, 97.65 7.12 C106.43 11.76, 114.55 19.89, 119.76 27.3 C124.96 34.7, 128.16 42.94, 128.89 51.54 C129.62 60.15, 127.88 70.75, 124.15 78.94 C120.41 87.13, 114.13 95.06, 106.5 100.66 C98.87 106.26, 88.38 110.75, 78.38 112.56 C68.38 114.37, 56.2 114.07, 46.51 111.51 C36.83 108.96, 27.38 103.25, 20.26 97.23 C13.14 91.2, 7.08 83.56, 3.79 75.36 C0.5 67.16, -0.86 56.62, 0.5 48.01 C1.87 39.39, 5.79 30.84, 11.96 23.68 C18.13 16.52, 26.42 8.64, 37.54 5.07 C48.66 1.51, 69.97 2.05, 78.69 2.27 C87.4 2.5, 89.95 5.78, 89.82 6.43 M52.61 1.91 C61.93 -0.1, 74 1.57, 83.81 3.73 C93.63 5.89, 104.15 9.02, 111.49 14.88 C118.83 20.73, 124.85 30.17, 127.87 38.86 C130.88 47.55, 131.35 58.25, 129.58 67.02 C127.81 75.79, 123.61 84.44, 117.27 91.5 C110.92 98.56, 100.57 105.5, 91.51 109.35 C82.45 113.2, 72.9 115.35, 62.93 114.6 C52.96 113.84, 40.72 109.39, 31.69 104.8 C22.65 100.22, 13.85 94.66, 8.72 87.11 C3.58 79.56, 1.4 68.43, 0.89 59.5 C0.37 50.57, 1.74 41.5, 5.65 33.54 C9.56 25.58, 16.58 17.19, 24.33 11.74 C32.08 6.29, 47.33 2.6, 52.16 0.83 C57 -0.93, 53.28 0.22, 53.34 1.13" stroke="#1971c2" stroke-width="2" fill="none"></path></g><g transform="translate(491.97266181166475 246.6231282811021) rotate(0 39.3819885253906 17.5)"><text x="39.381988525390625" y="NaN" font-family="Segoe UI Emoji" font-size="28px" fill="#1971c2" text-anchor="middle" style="white-space: pre;" direction="ltr">Cache</text></g><g stroke-linecap="round"><g transform="translate(120.0252365917164 160.5) rotate(0 170.1839372015512 51.0367145671719)"><path d="M-0.53 1.15 C56.21 17.85, 283.75 84.31, 340.57 101.07 M1.4 0.71 C57.99 17.45, 283.36 85.07, 339.72 102.09" stroke="#cdd6f4" stroke-width="2" fill="none"></path></g><g transform="translate(120.0252365917164 160.5) rotate(0 170.1839372015512 51.0367145671719)"><path d="M311.69 104.12 C317.38 103.37, 327.72 103.85, 340.4 102.73 M309.2 103.61 C317.71 103.19, 324.33 103.25, 339.91 102.9" stroke="#cdd6f4" stroke-width="2" fill="none"></path></g><g transform="translate(120.0252365917164 160.5) rotate(0 170.1839372015512 51.0367145671719)"><path d="M317.6 84.47 C321.6 89.78, 330.11 96.35, 340.4 102.73 M315.11 83.96 C321.95 88.52, 327.06 93.59, 339.91 102.9" stroke="#cdd6f4" stroke-width="2" fill="none"></path></g></g><g transform="translate(192.75047363043876 179.7415362746611) rotate(0 87.30396270751953 34.99999999999999)"><text x="87.30396270751953" y="NaN" font-family="Segoe UI Emoji" font-size="28px" fill="#cdd6f4" text-anchor="middle" style="white-space: pre;" direction="ltr">idempotency </text><text x="87.30396270751953" y="NaN" font-family="Segoe UI Emoji" font-size="28px" fill="#cdd6f4" text-anchor="middle" style="white-space: pre;" direction="ltr">Key</text></g></svg>