<svg version="1.1" xmlns="http://www.w3.org/2000/svg" viewBox="0 0 599.8337303192611 739.8687825009033" width="599.8337303192611" height="739.8687825009033">
  <!-- svg-source:excalidraw -->
  
  <defs>
    <style>
      @font-face {
        font-family: "Virgil";
        src: url("https://excalidraw.com/Virgil.woff2");
      }
      @font-face {
        font-family: "Cascadia";
        src: url("https://excalidraw.com/Cascadia.woff2");
      }
    </style>
  </defs>
  <rect x="0" y="0" width="599.8337303192611" height="739.8687825009033" fill="#1e1e2e"></rect><g stroke-linecap="round" transform="translate(80.83692329222481 10) rotate(0 90 36.5)"><path d="M-0.01 -0.16 L179.62 1.4 L179.21 72.57 L-1.79 72.29" stroke="none" stroke-width="0" fill="#87CEEB"></path><path d="M-1.86 0.66 C55 2.54, 109.05 1.45, 181.5 -0.12 M-0.35 0.28 C61.41 -1.63, 123.45 -0.95, 179.35 0.21 M179.19 -0.04 C180.75 18.86, 179.12 40.21, 181.49 71.47 M180.38 -0.56 C180.44 20.04, 181.03 41.14, 179.95 72.15 M181.11 71.57 C139.15 75.27, 93.59 76.02, -0.03 74.86 M179.29 72.24 C129.55 73.67, 78.78 72.71, 0.86 73.08 M-1.22 72.47 C0.67 48.48, -1.12 20.11, -0.2 -0.09 M-0.59 72.47 C-0.38 52.62, -0.57 29.84, -0.08 -0.44" stroke="#4682B4" stroke-width="2" fill="none"></path></g><g transform="translate(125.56695716673653 34) rotate(0 45.26996612548828 12.5)"><text x="45.26996612548828" y="NaN" font-family="Virgil, Segoe UI Emoji" font-size="20px" fill="#000" text-anchor="middle" style="white-space: pre;" direction="ltr">Client US</text></g><g stroke-linecap="round" transform="translate(200.64814037878728 212.25057806225573) rotate(0 90 36.5)"><path d="M0.82 0.64 L179.72 1.06 L178.23 72.13 L-0.53 71.24" stroke="none" stroke-width="0" fill="#DDA0DD"></path><path d="M0.42 0.22 C38.93 -1.44, 73.42 0.1, 180.57 0.18 M0.75 0.49 C44.95 0.95, 88.74 0.85, 180.04 -0.78 M178.92 -0.08 C179.04 23.35, 180.81 45.59, 180.5 72.83 M179.77 -0.69 C181.17 25.86, 180.71 50.72, 179.79 72.25 M179.94 72.4 C141.79 71.01, 104.89 72.47, 0.51 74.59 M179.86 73.84 C108.6 74.74, 37.96 74, 0.77 73.87 M-1.44 71.59 C-0.14 51.1, -1.61 28.09, 1.05 -1.45 M0.41 72.81 C0.36 45.86, 0.78 19.49, 0.28 -0.88" stroke="#8B008B" stroke-width="2" fill="none"></path></g><g transform="translate(242.05817455847478 236.25057806225573) rotate(0 48.5899658203125 12.5)"><text x="48.5899658203125" y="NaN" font-family="Virgil, Segoe UI Emoji" font-size="20px" fill="#000" text-anchor="middle" style="white-space: pre;" direction="ltr">CDN Edge</text></g><g stroke-linecap="round" transform="translate(330.8369232922248 10) rotate(0 90 36.5)"><path d="M-1.27 1.03 L180.58 0.21 L181.64 74.78 L-1.77 74.66" stroke="none" stroke-width="0" fill="#87CEEB"></path><path d="M-0.81 -0.58 C69.39 -0.93, 144.56 0.09, 181.6 -1.71 M0.25 -0.46 C68.06 -1.31, 134.8 0.14, 179.74 -0.36 M181.39 0.93 C180.42 23.61, 179.91 48.41, 181.49 71.61 M180.3 0.03 C179.22 27.02, 180.23 55.52, 179.41 72.84 M179.71 73.35 C110.8 72.36, 40.36 75.37, 0.28 74.3 M179.81 73.69 C108.17 70.69, 37.56 70.7, -0.72 73.24 M-0.22 72.5 C0.85 58.24, -1.15 42.27, 0.61 -0.15 M0.94 73.07 C0.61 47.58, 0.55 20, -0.12 0.45" stroke="#4682B4" stroke-width="2" fill="none"></path></g><g transform="translate(374.90695350462715 34) rotate(0 45.929969787597656 12.5)"><text x="45.929969787597656" y="NaN" font-family="Virgil, Segoe UI Emoji" font-size="20px" fill="#000" text-anchor="middle" style="white-space: pre;" direction="ltr">Client EU</text></g><g stroke-linecap="round" transform="translate(16.756738575325244 398.1854921204257) rotate(0 90 36.5)"><path d="M-0.85 -0.45 L178.96 0.71 L179.5 73.12 L0.07 72.2" stroke="none" stroke-width="0" fill="#F0E68C"></path><path d="M-1.83 0.03 C36.33 2.12, 74.03 -0.68, 178.8 1.57 M-0.02 -0.14 C47.95 1.56, 97.33 2.42, 179.04 0.92 M180.2 0.47 C179.45 24.42, 178.56 45.3, 178.4 72.95 M179.57 0.42 C180.2 16.04, 179.89 32.18, 180.24 73.52 M180.37 71.61 C142.31 70.72, 106.41 72.36, -0.94 74.31 M180.19 73.99 C118.33 70.62, 55.84 71.95, -0.93 73.29 M-0.74 74.01 C0.98 49.06, -0.32 26.61, -0.04 1.41 M-0.84 73.86 C-0.58 52.31, -1.6 30.13, 0.61 0.64" stroke="#DAA520" stroke-width="2" fill="none"></path></g><g transform="translate(58.8767718394854 422.1854921204257) rotate(0 47.879966735839844 12.5)"><text x="47.879966735839844" y="NaN" font-family="Virgil, Segoe UI Emoji" font-size="20px" fill="#000" text-anchor="middle" style="white-space: pre;" direction="ltr">Region US</text></g><g stroke-linecap="round" transform="translate(398.8630608322783 397.8067209625606) rotate(0 90 36.5)"><path d="M0.16 -0.56 L178.2 -0.08 L180.81 74.89 L-0.4 73.97" stroke="none" stroke-width="0" fill="#F0E68C"></path><path d="M-1.77 1.32 C61.69 0.6, 128.14 1.51, 178.04 0.77 M-0.33 -0.81 C62.28 -1.41, 122.57 -2.46, 180.55 0.83 M179.48 -0.29 C181.92 26.03, 181.91 50.6, 180.23 73.16 M180.44 -0.4 C180.58 26.83, 179.54 55.4, 179.71 72.68 M178.42 74.65 C139.34 70.45, 98.34 71.42, -1.37 73.05 M179.9 73.7 C116.2 71.95, 53.73 72.17, -0.52 73.37 M-0.49 72.31 C1.59 57.51, -1.52 38.95, -1.96 1.17 M0.51 72.07 C0.34 49.58, 0.71 25.79, 0.41 0.73" stroke="#DAA520" stroke-width="2" fill="none"></path></g><g transform="translate(440.32309043432906 421.8067209625606) rotate(0 48.53997039794922 12.5)"><text x="48.53997039794922" y="NaN" font-family="Virgil, Segoe UI Emoji" font-size="20px" fill="#000" text-anchor="middle" style="white-space: pre;" direction="ltr">Region EU</text></g><g stroke-linecap="round" transform="translate(10 642.2699381020666) rotate(0 90 36.5)"><path d="M-1.22 0.2 L178.1 -0.38 L178.79 71.13 L-0.15 72.94" stroke="none" stroke-width="0" fill="#98FB98"></path><path d="M-1.45 -1.24 C66.72 -1.15, 132.36 -2.46, 179.83 1.93 M0.13 -0.26 C37.6 1.35, 75.95 -0.23, 180.92 -0.55 M180.53 -1.13 C180.89 18.72, 178.64 40.11, 178.51 73.26 M179.33 0.82 C179.81 27.74, 181.01 55.62, 179.6 73.03 M178.23 72.91 C133.28 74.46, 88.74 72.5, -1.09 73.23 M180.34 72.44 C108.99 74.75, 39.12 74.96, -0.31 72.25 M0.95 73.85 C-1.76 46.71, -1.35 21.84, -0.69 1.58 M0.19 72.98 C-0.16 51.13, 0.82 26.68, -0.66 -0.5" stroke="#228B22" stroke-width="2" fill="none"></path></g><g transform="translate(59.180023193359375 666.2699381020666) rotate(0 40.819976806640625 12.5)"><text x="40.819976806640625" y="NaN" font-family="Virgil, Segoe UI Emoji" font-size="20px" fill="#000" text-anchor="middle" style="white-space: pre;" direction="ltr">(DB US)</text></g><g stroke-linecap="round" transform="translate(409.8337303192611 638.2117497184818) rotate(0 90 36.5)"><path d="M1.28 0.57 L179.99 1.4 L179.95 72.41 L1.24 71.06" stroke="none" stroke-width="0" fill="#98FB98"></path><path d="M-1.52 -1.97 C56.01 -0.3, 110.76 -1.97, 179.99 1.16 M0.87 0.49 C50.6 -0.94, 101.88 -1.13, 179.09 0.12 M178.25 1.84 C180.24 23.27, 180.6 49.74, 178.58 73.82 M180.78 -0.72 C181.11 18.35, 180.63 34.09, 179.63 72.22 M179.99 71.18 C114.2 75.78, 48.36 74.7, -0.18 72.52 M180.52 73.04 C121 72.47, 60.45 73.31, 0.52 72.46 M0.95 73.97 C0.13 51.3, 0.84 30.76, -0.91 -0.35 M0.01 73.98 C-0.33 49.39, 1.05 26.43, -0.35 0.03" stroke="#228B22" stroke-width="2" fill="none"></path></g><g transform="translate(458.3537498505111 662.2117497184818) rotate(0 41.47998046875 12.5)"><text x="41.47998046875" y="NaN" font-family="Virgil, Segoe UI Emoji" font-size="20px" fill="#000" text-anchor="middle" style="white-space: pre;" direction="ltr">(DB EU)</text></g><g stroke-linecap="round"><g transform="translate(188.124291228326 88.99999999999994) rotate(0 42.61673886898579 58.62528903112789)"><path d="M0.7 -0.73 C14.73 18.58, 70.5 96.86, 84.6 116.52 M-0.4 1.51 C14 20.89, 72.83 98.18, 86.97 117.68" stroke="#94a3b8" stroke-width="2" fill="none"></path></g><g transform="translate(188.124291228326 88.99999999999994) rotate(0 42.61673886898579 58.62528903112789)"><path d="M60.69 100.15 C69.13 106.56, 78.64 112.02, 87.96 118.74 M61.05 101.33 C69.34 105.46, 75.47 110.03, 86.75 118.39" stroke="#94a3b8" stroke-width="2" fill="none"></path></g><g transform="translate(188.124291228326 88.99999999999994) rotate(0 42.61673886898579 58.62528903112789)"><path d="M77.14 87.88 C80.17 98.48, 84.2 108.02, 87.96 118.74 M77.5 89.06 C81.3 96.52, 82.87 104.49, 86.75 118.39" stroke="#94a3b8" stroke-width="2" fill="none"></path></g></g><g stroke-linecap="round"><g transform="translate(401.49771015556144 89) rotate(0 -45.75717043404752 58.62528903112786)"><path d="M-1.16 0.65 C-16.16 20.34, -75.34 97.76, -90.48 117.09 M0.43 -0.05 C-14.59 19.91, -75.31 98.93, -90.89 118.54" stroke="#94a3b8" stroke-width="2" fill="none"></path></g><g transform="translate(401.49771015556144 89) rotate(0 -45.75717043404752 58.62528903112786)"><path d="M-80.57 91.71 C-84.56 96.42, -87.71 104.04, -90.44 120.07 M-82.4 89.53 C-84.73 99.21, -87.66 110.12, -91.27 118.36" stroke="#94a3b8" stroke-width="2" fill="none"></path></g><g transform="translate(401.49771015556144 89) rotate(0 -45.75717043404752 58.62528903112786)"><path d="M-64.39 104.33 C-72.45 105.61, -79.8 109.97, -90.44 120.07 M-66.21 102.15 C-74.1 107.66, -82.52 114.29, -91.27 118.36" stroke="#94a3b8" stroke-width="2" fill="none"></path></g></g><g stroke-linecap="round"><g transform="translate(256.9891967475244 291.25057806225567) rotate(0 -58.28897918932271 50.46745702908501)"><path d="M-0.45 -1.19 C-19.76 15.8, -96.87 85.06, -116.09 101.93 M1.52 0.8 C-17.89 17.47, -97.17 83.65, -116.78 100.33" stroke="#94a3b8" stroke-width="2" fill="none"></path></g><g transform="translate(256.9891967475244 291.25057806225567) rotate(0 -58.28897918932271 50.46745702908501)"><path d="M-103.8 75.14 C-104.38 82.95, -111.79 89.46, -118.08 100.27 M-102.47 74.1 C-106.66 82.95, -111.39 90.75, -115.91 100.74" stroke="#94a3b8" stroke-width="2" fill="none"></path></g><g transform="translate(256.9891967475244 291.25057806225567) rotate(0 -58.28897918932271 50.46745702908501)"><path d="M-90.58 90.84 C-94.88 94.18, -106.02 96.26, -118.08 100.27 M-89.25 89.8 C-97.37 93.88, -106.15 96.86, -115.91 100.74" stroke="#94a3b8" stroke-width="2" fill="none"></path></g></g><g stroke-linecap="round"><g transform="translate(327.49143622427016 291.2505780622557) rotate(0 62.26242208419558 50.27807145015248)"><path d="M0.92 -1.12 C21.65 15.59, 104.37 83.94, 124.79 101 M-0.05 0.91 C20.51 17.19, 103 82.72, 123.98 99.11" stroke="#94a3b8" stroke-width="2" fill="none"></path></g><g transform="translate(327.49143622427016 291.2505780622557) rotate(0 62.26242208419558 50.27807145015248)"><path d="M93.63 90.16 C105.82 90.9, 115.71 97.62, 125.34 99.57 M95.82 90.25 C104.78 91.72, 113.28 95.83, 124.23 98.32" stroke="#94a3b8" stroke-width="2" fill="none"></path></g><g transform="translate(327.49143622427016 291.2505780622557) rotate(0 62.26242208419558 50.27807145015248)"><path d="M106.34 74.04 C114.37 80.27, 120.02 92.38, 125.34 99.57 M108.53 74.14 C113.55 80.72, 118.11 89.84, 124.23 98.32" stroke="#94a3b8" stroke-width="2" fill="none"></path></g></g><g stroke-linecap="round"><g transform="translate(105.95226691104827 477.1854921204258) rotate(0 -2.5557563275124835 79.54222299082045)"><path d="M-0.34 1.2 C-1.18 27.57, -3.07 132.64, -3.98 159.06 M1.68 0.78 C0.7 27.29, -2.9 134.43, -4.33 160.59" stroke="#94a3b8" stroke-width="2" fill="none"></path></g><g transform="translate(105.95226691104827 477.1854921204258) rotate(0 -2.5557563275124835 79.54222299082045)"><path d="M-11.39 133.88 C-9.74 141.94, -5.11 152.89, -5.33 160.63 M-14.01 131.81 C-11.86 140.1, -9.05 147.55, -3.51 160.46" stroke="#94a3b8" stroke-width="2" fill="none"></path></g><g transform="translate(105.95226691104827 477.1854921204258) rotate(0 -2.5557563275124835 79.54222299082045)"><path d="M9.11 134.75 C2.86 142.42, -0.41 153.03, -5.33 160.63 M6.49 132.68 C3.02 140.85, 0.21 148.05, -3.51 160.46" stroke="#94a3b8" stroke-width="2" fill="none"></path></g></g><g stroke-linecap="round"><g transform="translate(490.23070350826526 476.8067209625607) rotate(0 4.135460206701623 77.70251437796054)"><path d="M-0.52 -0.66 C0.9 25.26, 6.16 128.64, 7.72 154.64 M1.41 1.6 C2.69 27.75, 5.32 129.94, 6.49 155.78" stroke="#94a3b8" stroke-width="2" fill="none"></path></g><g transform="translate(490.23070350826526 476.8067209625607) rotate(0 4.135460206701623 77.70251437796054)"><path d="M-5.85 127.04 C-3.58 135.55, 0.23 141.68, 5.94 156.74 M-5.3 127.72 C-1.2 139.11, 4.22 149.7, 5.67 156.71" stroke="#94a3b8" stroke-width="2" fill="none"></path></g><g transform="translate(490.23070350826526 476.8067209625607) rotate(0 4.135460206701623 77.70251437796054)"><path d="M14.66 126.34 C12.09 134.92, 11.06 141.22, 5.94 156.74 M15.21 127.02 C11.64 138.76, 9.38 149.62, 5.67 156.71" stroke="#94a3b8" stroke-width="2" fill="none"></path></g></g><g stroke-linecap="round"><g transform="translate(273.2927371474974 643.3843044648411) rotate(0 29 0)"><path d="M0.15 0.89 C9.85 0.91, 47.57 0.92, 57.16 0.58" stroke="#94a3b8" stroke-width="2.5" fill="none" stroke-dasharray="8 10"></path></g><g transform="translate(273.2927371474974 643.3843044648411) rotate(0 29 0)"><path d="M31.53 9.5 C36.82 8.09, 39.76 7.24, 58.27 0.44" stroke="#94a3b8" stroke-width="2.5" fill="none"></path></g><g transform="translate(273.2927371474974 643.3843044648411) rotate(0 29 0)"><path d="M31.24 -10.33 C36.66 -7.47, 39.67 -4.05, 58.27 0.44" stroke="#94a3b8" stroke-width="2.5" fill="none"></path></g></g><g transform="translate(212.1619335121327 632.1343044648411) rotate(0 90.22492980957031 11.25)"><text x="90.22492980957031" y="NaN" font-family="Virgil, Segoe UI Emoji" font-size="18px" fill="#cdd6f4" text-anchor="middle" style="white-space: pre;" direction="ltr">eventual consistency</text></g><g stroke-linecap="round"><g transform="translate(194.75597671872748 669.9496511957549) rotate(0 109.28693527440288 -1.9592186605212873)"><path d="M-0.9 -0.9 C35.56 -1.41, 182.86 -2.19, 219.32 -2.79" stroke="#94a3b8" stroke-width="2.5" fill="none" stroke-dasharray="8 10"></path></g><g transform="translate(194.75597671872748 669.9496511957549) rotate(0 109.28693527440288 -1.9592186605212873)"><path d="M189.73 9 C202.8 3.12, 209.62 1.2, 219.71 -2.32" stroke="#94a3b8" stroke-width="2.5" fill="none"></path></g><g transform="translate(194.75597671872748 669.9496511957549) rotate(0 109.28693527440288 -1.9592186605212873)"><path d="M189.52 -11.52 C202.7 -10.31, 209.59 -5.14, 219.71 -2.32" stroke="#94a3b8" stroke-width="2.5" fill="none"></path></g></g><g stroke-linecap="round"><g transform="translate(403.97537720973185 696.3109304014285) rotate(0 -103.98768860486592 -0.6523343798360202)"><path d="M-0.34 -0.73 C-34.99 -0.85, -174.14 -0.53, -208.56 -0.49" stroke="#94a3b8" stroke-width="2.5" fill="none" stroke-dasharray="8 10"></path></g><g transform="translate(403.97537720973185 696.3109304014285) rotate(0 -103.98768860486592 -0.6523343798360202)"><path d="M-181.61 -11.77 C-185.91 -6.51, -192.83 -5.84, -207.81 -0.94" stroke="#94a3b8" stroke-width="2.5" fill="none"></path></g><g transform="translate(403.97537720973185 696.3109304014285) rotate(0 -103.98768860486592 -0.6523343798360202)"><path d="M-181.57 8.75 C-185.91 8.98, -192.85 4.62, -207.81 -0.94" stroke="#94a3b8" stroke-width="2.5" fill="none"></path></g></g><g transform="translate(226.08487880292626 704.8687825009033) rotate(0 84.60992431640625 12.5)"><text x="0" y="NaN" font-family="Segoe UI Emoji" font-size="20px" fill="#94a3b8" text-anchor="start" style="white-space: pre;" direction="ltr">Async Replication</text></g></svg>