<svg version="1.1" xmlns="http://www.w3.org/2000/svg" viewBox="0 0 2050.1242041948963 482.7714345210804" width="2050.1242041948963" height="482.7714345210804">
  <!-- svg-source:excalidraw -->
  
  <defs>
    <style>
      @font-face {
        font-family: "Virgil";
        src: url("https://excalidraw.com/Virgil.woff2");
      }
      @font-face {
        font-family: "Cascadia";
        src: url("https://excalidraw.com/Cascadia.woff2");
      }
    </style>
  </defs>
  <rect x="0" y="0" width="2050.1242041948963" height="482.7714345210804" fill="#1e1e2e"></rect><g stroke-linecap="round" transform="translate(42.47717524632543 183.27220805302997) rotate(0 90.00000000000003 36.5)"><path d="M1.63 -1.53 L179.77 1.22 L180.66 74.39 L1.29 74.25" stroke="none" stroke-width="0" fill="#87CEEB"></path><path d="M-1 -0.6 C54.58 1.26, 108.01 0.02, 180.79 1.86 M0.77 -0.91 C70.4 -0.13, 139.44 -1.32, 179.32 0.91 M181.83 1.15 C180.06 17.23, 181.41 38.74, 181.08 72.78 M179.79 0.66 C180.15 20.34, 180.35 40.88, 180.48 72.85 M179.96 71.48 C112.7 75.35, 45.6 72.61, -1.44 72.79 M179.65 73.16 C107.61 72.24, 35.98 72.23, 0.21 72.31 M0.99 74.32 C-1.74 54.32, -1.38 35.61, 0.01 -0.32 M0.33 72.2 C-0.26 48.63, 0 24.35, -0.15 0.82" stroke="#4682B4" stroke-width="2" fill="none"></path></g><g transform="translate(105.42720271214574 207.27220805302997) rotate(0 27.049972534179716 12.5)"><text x="27.049972534179688" y="NaN" font-family="Virgil, Segoe UI Emoji" font-size="20px" fill="#000" text-anchor="middle" style="white-space: pre;" direction="ltr">Client</text></g><g stroke-linecap="round" transform="translate(311.9201720274424 181.1078770861295) rotate(0 90 36.5)"><path d="M0 1.92 L178.12 0.38 L178.36 71.04 L0.3 72.67" stroke="none" stroke-width="0" fill="#DDA0DD"></path><path d="M-1.25 -0.64 C50.17 1.21, 97.59 2.63, 181.41 -0.69 M-0.2 -0.85 C44.93 1.23, 87.75 1.48, 180.8 0.99 M181.55 0.18 C180.73 15.08, 180.06 29.49, 179.12 72.24 M180.62 0.22 C180.24 21.23, 180.17 44.36, 179.21 72.35 M181.86 73.49 C109.45 72.85, 36.73 73.55, -1.46 73.82 M180.04 74 C131.36 72.99, 81.35 73.82, -0.61 72.74 M-1.32 71 C0.65 47.96, 0.48 19.01, 1.42 0.06 M-0.4 72.71 C-0.05 48.98, -0.18 22.78, 0.27 0.7" stroke="#8B008B" stroke-width="2" fill="none"></path></g><g transform="translate(383.3001845396494 205.1078770861295) rotate(0 18.61998748779297 12.5)"><text x="18.61998748779297" y="NaN" font-family="Virgil, Segoe UI Emoji" font-size="20px" fill="#000" text-anchor="middle" style="white-space: pre;" direction="ltr">API</text></g><g stroke-linecap="round" transform="translate(580.5443862352431 181.18622757740238) rotate(0 90 36.5)"><path d="M0.31 0.89 L178.21 -0.1 L178.24 71.13 L0.86 71.43" stroke="none" stroke-width="0" fill="#90EE90"></path><path d="M1.3 -0.28 C52.06 -0.55, 108.14 -1.6, 179.77 0.87 M0.94 -0.79 C52.53 -0.5, 104.95 -0.09, 180.84 -0.24 M179.3 1.76 C181.78 24.72, 181.58 46.27, 179.67 73.77 M179.04 -0.95 C180.89 25.31, 180.68 50.95, 179.6 73.79 M181.24 71.59 C121.63 72.97, 61.66 73.97, 1.75 74.49 M179.57 73.66 C131.67 73.3, 84.81 74.23, 0.63 73.03 M1.56 72.31 C0.68 58.45, 1.65 41.37, 1.75 -1.24 M0.35 72.25 C-1.06 51.97, 0.59 30.56, 0.25 0.68" stroke="#228B22" stroke-width="2" fill="none"></path></g><g transform="translate(642.0044082078994 205.18622757740238) rotate(0 28.53997802734375 12.5)"><text x="28.53997802734375" y="NaN" font-family="Virgil, Segoe UI Emoji" font-size="20px" fill="#000" text-anchor="middle" style="white-space: pre;" direction="ltr">Cache</text></g><g stroke-linecap="round" transform="translate(883.434722013515 168.62931920340927) rotate(0 135 49)"><path d="M-1.47 1.85 L269.32 0.02 L268.91 96.11 L-1.49 98.83" stroke="none" stroke-width="0" fill="#F0E68C"></path><path d="M0.66 -0.27 C73.41 -1.46, 148.02 -0.9, 269 1.03 M-0.3 0.6 C75.78 -1.77, 153.59 -1.22, 270.49 -0.77 M268.72 0.31 C269.08 21.8, 269.33 41.34, 268.48 96.57 M269.97 -0.47 C269.83 23.36, 268.73 46.75, 269.23 98.34 M269.47 99.33 C183.06 98.76, 98.15 98.3, 0.1 98.85 M269.26 97.37 C173.35 96.68, 77.35 97.78, 0.41 98.71 M-0.63 99.1 C0.76 65.43, -0.45 31.71, -0.21 0.06 M0.95 98.77 C0.08 72.96, -0.05 47.98, 0.98 0.83" stroke="#DAA520" stroke-width="2" fill="none"></path></g><g transform="translate(928.7247992229877 192.62931920340927) rotate(0 89.70992279052734 25)"><text x="89.70992279052734" y="NaN" font-family="Virgil, Segoe UI Emoji" font-size="20px" fill="#000" text-anchor="middle" style="white-space: pre;" direction="ltr">Search Index</text><text x="89.70992279052734" y="NaN" font-family="Virgil, Segoe UI Emoji" font-size="20px" fill="#000" text-anchor="middle" style="white-space: pre;" direction="ltr">Elasticsearch/Solr</text></g><g stroke-linecap="round" transform="translate(1703.098592839778 176.22209857123798) rotate(0 135 36.5)"><path d="M0.3 1.38 L269.96 -1.04 L271.05 74.13 L0.28 71.16" stroke="none" stroke-width="0" fill="#ADD8E6"></path><path d="M1.15 1.08 C106.39 0.95, 209.85 0.15, 269.92 -0.98 M0.25 0.12 C95.11 0.7, 190.26 0.42, 269.9 0.07 M270.74 -0.47 C271.71 22.35, 272.23 43.32, 269.76 74.96 M270.89 -0.2 C270.31 14.54, 269.28 29.21, 269.56 73.4 M271.31 73.1 C212.44 75.35, 156.09 73.44, -1.05 71.94 M269.4 73.77 C180.74 73.98, 91.84 74.51, -0.17 72.92 M-0.07 73.81 C0.27 49.81, 1.05 21.23, -1.83 -1.61 M-0.92 73.5 C-0.97 58.01, 0.53 41.7, -0.98 -0.61" stroke="#4169E1" stroke-width="2" fill="none"></path></g><g transform="translate(1754.8586788993482 200.22209857123798) rotate(0 83.23991394042969 12.5)"><text x="83.23991394042969" y="NaN" font-family="Virgil, Segoe UI Emoji" font-size="20px" fill="#000" text-anchor="middle" style="white-space: pre;" direction="ltr">Ingestion Pipeline</text></g><g stroke-linecap="round"><g transform="translate(228.4771752463255 219.00852191738437) rotate(0 38.72149839055845 -0.31103476079414694)"><path d="M-0.16 0.54 C12.49 0.3, 63.72 -0.85, 76.64 -1.08 M-1.7 -0.22 C11.26 -0.33, 65.89 0.12, 78.94 0.21" stroke="#94a3b8" stroke-width="2" fill="none"></path></g><g transform="translate(228.4771752463255 219.00852191738437) rotate(0 38.72149839055845 -0.31103476079414694)"><path d="M51.57 8.93 C60.19 6.55, 70.84 3.46, 80.15 -0.24 M49.89 9.36 C58.01 7.27, 66.52 4.73, 78.49 0.62" stroke="#94a3b8" stroke-width="2" fill="none"></path></g><g transform="translate(228.4771752463255 219.00852191738437) rotate(0 38.72149839055845 -0.31103476079414694)"><path d="M51.72 -11.59 C60.35 -6.48, 70.94 -2.08, 80.15 -0.24 M50.05 -11.16 C58.26 -7.28, 66.72 -3.86, 78.49 0.62" stroke="#94a3b8" stroke-width="2" fill="none"></path></g></g><g stroke-linecap="round"><g transform="translate(497.9201720274424 217.64317246575501) rotate(0 38.312107103900416 0.01117461589284699)"><path d="M0.21 -0.01 C13.01 0.06, 63.15 -0.3, 75.98 -0.2 M-1.14 -1.06 C12.12 -0.74, 65.37 1.28, 78.35 1.21" stroke="#94a3b8" stroke-width="2" fill="none"></path></g><g transform="translate(497.9201720274424 217.64317246575501) rotate(0 38.312107103900416 0.01117461589284699)"><path d="M49.94 9.84 C56.26 9.54, 64.18 6.73, 78.63 1.99 M50.06 11.64 C56.23 8.41, 62.93 7.31, 78.24 0.76" stroke="#94a3b8" stroke-width="2" fill="none"></path></g><g transform="translate(497.9201720274424 217.64317246575501) rotate(0 38.312107103900416 0.01117461589284699)"><path d="M50.35 -10.68 C56.46 -6.19, 64.28 -4.21, 78.63 1.99 M50.47 -8.87 C56.46 -7.7, 63.07 -4.4, 78.24 0.76" stroke="#94a3b8" stroke-width="2" fill="none"></path></g></g><g stroke-linecap="round"><g transform="translate(766.5443862352431 217.67851684292964) rotate(0 55.44516788913609 -0.008671133055987296)"><path d="M0.77 0.52 C19.55 0.77, 93.85 0.47, 112.06 0.39 M-0.29 -0.25 C18.49 -0.28, 92.94 -1.79, 111.72 -1.53" stroke="#94a3b8" stroke-width="2" fill="none"></path></g><g transform="translate(766.5443862352431 217.67851684292964) rotate(0 55.44516788913609 -0.008671133055987296)"><path d="M84.45 10.83 C91.38 4.61, 97.76 2.93, 110.87 0.25 M83.35 8.3 C91.69 4.93, 101.99 1.55, 111.93 -1.14" stroke="#94a3b8" stroke-width="2" fill="none"></path></g><g transform="translate(766.5443862352431 217.67851684292964) rotate(0 55.44516788913609 -0.008671133055987296)"><path d="M84.34 -9.69 C91.11 -10.79, 97.52 -7.34, 110.87 0.25 M83.24 -12.22 C91.69 -9.12, 102.03 -6.02, 111.93 -1.14" stroke="#94a3b8" stroke-width="2" fill="none"></path></g></g><g transform="translate(804.5475756697895 206.41984570987367) rotate(0 17.441978454589844 11.25)"><text x="17.441978454589844" y="NaN" font-family="Virgil, Segoe UI Emoji" font-size="18px" fill="#cdd6f4" text-anchor="middle" style="white-space: pre;" direction="ltr">miss</text></g><g stroke-linecap="round"><g transform="translate(1159.434722013515 217.44896617275478) rotate(0 78.79663628145806 -0.10628573694465446)"><path d="M0.6 0.92 C26.98 0.89, 131.03 0.22, 157.38 0.01 M-0.54 0.36 C25.74 -0.07, 129.81 -2.08, 156.32 -1.99" stroke="#94a3b8" stroke-width="2" fill="none"></path></g><g transform="translate(1159.434722013515 217.44896617275478) rotate(0 78.79663628145806 -0.10628573694465446)"><path d="M129.76 8.18 C134.92 7.81, 140.67 4.45, 158.25 -1.35 M127.9 8.33 C139.24 4, 150.2 0.52, 156.1 -1.52" stroke="#94a3b8" stroke-width="2" fill="none"></path></g><g transform="translate(1159.434722013515 217.44896617275478) rotate(0 78.79663628145806 -0.10628573694465446)"><path d="M129.56 -12.34 C134.8 -8.08, 140.59 -6.81, 158.25 -1.35 M127.7 -12.19 C139.16 -8.74, 150.2 -4.44, 156.1 -1.52" stroke="#94a3b8" stroke-width="2" fill="none"></path></g></g><g transform="translate(1191.191387897024 192.3426804358101) rotate(0 47.03997039794922 25)"><text x="47.03997039794922" y="NaN" font-family="Segoe UI Emoji" font-size="20px" fill="#ffffff" text-anchor="middle" style="white-space: pre;" direction="ltr">miss</text><text x="47.03997039794922" y="NaN" font-family="Segoe UI Emoji" font-size="20px" fill="#ffffff" text-anchor="middle" style="white-space: pre;" direction="ltr">(optional)</text></g><g stroke-linecap="round"><g transform="translate(1697.0985928397774 212.67189928365283) rotate(0 -91.387638785523 -0.40263725363072433)"><path d="M-0.82 -0.07 C-14.76 -0.19, -53 -0.66, -83.38 -0.88 C-113.75 -1.1, -166.69 -1.39, -183.06 -1.39 M0.95 -1.15 C-13.11 -1.07, -53.16 0.52, -83.98 0.62 C-114.8 0.72, -167.24 -0.44, -183.98 -0.54" stroke="#f08c00" stroke-width="2" fill="none"></path></g><g transform="translate(1697.0985928397774 212.67189928365283) rotate(0 -91.387638785523 -0.40263725363072433)"><path d="M-155.77 -9.33 C-164.89 -7.92, -175.35 -2.35, -184.65 -1.09 M-154.84 -10.72 C-167.43 -6.01, -177.64 -2.9, -183.82 -0.11" stroke="#f08c00" stroke-width="2" fill="none"></path></g><g transform="translate(1697.0985928397774 212.67189928365283) rotate(0 -91.387638785523 -0.40263725363072433)"><path d="M-156.05 11.19 C-165.06 6.01, -175.43 4.99, -184.65 -1.09 M-155.12 9.8 C-167.74 6.56, -177.84 1.71, -183.82 -0.11" stroke="#f08c00" stroke-width="2" fill="none"></path></g></g><g transform="translate(1551.6289508258055 199.36662477639138) rotate(0 61.43995666503906 12.5)"><text x="61.43995666503906" y="NaN" font-family="Segoe UI Emoji" font-size="20px" fill="#f08c00" text-anchor="middle" style="white-space: pre;" direction="ltr">Ingest Data</text></g><g stroke-linecap="round" transform="translate(1316.1342729736725 155.17745435061565) rotate(0 94.44992276987341 57.86101809250124)"><path d="M117.25 1.38 C129.29 2.13, 141.78 6.83, 151.72 11.65 C161.66 16.48, 170.87 23.49, 176.89 30.31 C182.91 37.14, 186.81 44.86, 187.84 52.59 C188.87 60.33, 187.19 69.35, 183.07 76.72 C178.94 84.08, 172 91.12, 163.08 96.8 C154.17 102.47, 141.58 107.7, 129.56 110.77 C117.54 113.84, 103.74 115.51, 90.96 115.23 C78.19 114.94, 64.2 112.29, 52.92 109.04 C41.65 105.79, 31.4 101.48, 23.3 95.71 C15.21 89.94, 8.23 82.07, 4.36 74.42 C0.5 66.77, -1.33 57.79, 0.12 49.81 C1.56 41.83, 6.35 33.03, 13.04 26.54 C19.74 20.05, 29.57 15.11, 40.28 10.86 C50.99 6.61, 63.23 2.44, 77.31 1.07 C91.39 -0.3, 115.76 1.8, 124.74 2.63 C133.72 3.46, 131.91 5.15, 131.19 6.05 M63.39 2.3 C74.09 -1.25, 89.02 -0.95, 101.85 0.03 C114.67 1.01, 128.81 4.55, 140.34 8.16 C151.88 11.78, 163.45 15.75, 171.05 21.74 C178.65 27.74, 183.04 36.1, 185.95 44.12 C188.87 52.13, 191.09 62.15, 188.54 69.84 C185.99 77.53, 178.02 84.12, 170.65 90.25 C163.28 96.37, 155.15 102.52, 144.33 106.58 C133.5 110.64, 118.76 113.28, 105.68 114.6 C92.61 115.91, 78.11 116.74, 65.9 114.46 C53.68 112.19, 41.79 106.39, 32.4 100.93 C23.01 95.46, 14.8 88.85, 9.56 81.68 C4.32 74.51, 1.31 65.49, 0.98 57.92 C0.65 50.34, 2.63 43.42, 7.58 36.22 C12.54 29.02, 21.62 20.12, 30.72 14.74 C39.81 9.37, 56.48 5.56, 62.16 3.95 C67.85 2.34, 64.06 4.24, 64.82 5.09" stroke="none" stroke-width="0" fill="#ffc9c9"></path><path d="M93.51 -0.11 C105.87 -1.13, 120.89 1.09, 132.55 4.38 C144.21 7.67, 154.95 13.91, 163.48 19.65 C172.02 25.39, 179.57 31.61, 183.74 38.83 C187.91 46.05, 189.52 55.13, 188.49 62.96 C187.46 70.78, 183.84 78.99, 177.56 85.79 C171.28 92.58, 161.39 98.9, 150.81 103.72 C140.23 108.54, 126.6 113, 114.09 114.73 C101.58 116.47, 88.12 115.74, 75.74 114.12 C63.35 112.49, 50.06 109.42, 39.78 105 C29.5 100.57, 20.46 94.23, 14.07 87.57 C7.68 80.91, 3.09 72.91, 1.45 65.02 C-0.18 57.13, 0.47 47.85, 4.28 40.23 C8.09 32.61, 15.67 24.99, 24.31 19.29 C32.94 13.59, 43.19 9.28, 56.08 6.02 C68.97 2.76, 92.92 0.35, 101.64 -0.28 C110.36 -0.91, 108.43 1.29, 108.4 2.24 M120.41 2.95 C132.45 4.17, 146.01 9.27, 156.02 14.35 C166.03 19.43, 174.87 26.35, 180.47 33.43 C186.08 40.5, 189.34 49.16, 189.65 56.82 C189.96 64.48, 187.39 72.47, 182.32 79.39 C177.24 86.31, 168.56 92.76, 159.19 98.33 C149.83 103.9, 138.28 109.86, 126.1 112.79 C113.92 115.71, 98.64 116.52, 86.09 115.89 C73.54 115.27, 61.8 112.78, 50.8 109.04 C39.79 105.3, 28.17 99.64, 20.09 93.43 C12 87.21, 5.11 79.29, 2.27 71.74 C-0.57 64.2, 0.7 55.69, 3.03 48.15 C5.36 40.62, 9.45 33.37, 16.25 26.55 C23.04 19.74, 32.95 11.64, 43.8 7.27 C54.64 2.89, 68.47 1.31, 81.32 0.32 C94.18 -0.66, 114.39 0.76, 120.93 1.37 C127.47 1.99, 121.02 2.73, 120.54 4" stroke="#ffffff" stroke-width="2" fill="none"></path></g><g transform="translate(1375.2480499656376 188.12455418355174) rotate(0 35.549964904785156 25)"><text x="35.549964904785156" y="NaN" font-family="Segoe UI Emoji" font-size="20px" fill="#000" text-anchor="middle" style="white-space: pre;" direction="ltr">Primary</text><text x="35.549964904785156" y="NaN" font-family="Segoe UI Emoji" font-size="20px" fill="#000" text-anchor="middle" style="white-space: pre;" direction="ltr">DB</text></g><g stroke-linecap="round"><g transform="translate(1407.2763480556418 276.86485551730806) rotate(0 -46.59583106005664 37.14679217507682)"><path d="M-0.29 0.76 C-4.72 8.74, -10.01 35.82, -25.55 48.19 C-41.09 60.57, -82.3 70.52, -93.54 75.01" stroke="#f08c00" stroke-width="2.5" fill="none" stroke-dasharray="8 10"></path></g><g transform="translate(1407.2763480556418 276.86485551730806) rotate(0 -46.59583106005664 37.14679217507682)"><path d="M-68.63 58.34 C-78.21 62.99, -86.8 70.96, -92.15 73.1" stroke="#f08c00" stroke-width="2.5" fill="none"></path></g><g transform="translate(1407.2763480556418 276.86485551730806) rotate(0 -46.59583106005664 37.14679217507682)"><path d="M-62.29 77.86 C-74.36 75, -85.38 75.48, -92.15 73.1" stroke="#f08c00" stroke-width="2.5" fill="none"></path></g></g><g stroke-linecap="round" transform="translate(1154.7458936855876 312.6484278580489) rotate(0 76.66939612497038 40.89332442805795)"><path d="M0.08 1.14 L151.63 -1.35 L154.48 83.06 L-0.03 82.83" stroke="none" stroke-width="0" fill="#b2f2bb"></path><path d="M1.64 1.38 C53.81 -1.17, 107.41 0.81, 154.43 1.97 M0.25 0.31 C54.72 0.51, 108.59 0.7, 154.08 0.49 M152.62 1.74 C153.95 25.41, 153.8 52.14, 155.26 81.32 M153.68 0.65 C153.83 17.33, 153.82 33.23, 153.98 82.28 M154.01 83.49 C112.71 84.67, 72.79 84.85, 1.86 79.85 M152.63 81.27 C101.84 81.44, 48.68 81.18, 0.21 82.04 M-0.83 80.31 C-2.46 55.2, 0.65 30.77, 0.35 1.69 M0.33 82.69 C-1 53.88, -0.84 26.76, 0.71 0.6" stroke="#2f9e44" stroke-width="2" fill="none"></path></g><g transform="translate(1187.055327347179 341.04175228610677) rotate(0 44.359962463378906 12.5)"><text x="44.359962463378906" y="NaN" font-family="Segoe UI Emoji" font-size="20px" fill="#000" text-anchor="middle" style="white-space: pre;" direction="ltr">Debezium</text></g><g stroke-linecap="round"><g transform="translate(1148.7458936855876 352.37642377526936) rotate(0 -62.773145953517314 -39.87355228593006)"><path d="M0.41 -1.18 C-12.07 -3.31, -53.18 -0.24, -74.23 -13.52 C-95.29 -26.8, -117.53 -69.92, -125.91 -80.86" stroke="#f08c00" stroke-width="2.5" fill="none" stroke-dasharray="8 10"></path></g><g transform="translate(1148.7458936855876 352.37642377526936) rotate(0 -62.773145953517314 -39.87355228593006)"><path d="M-103.97 -63.12 C-108.74 -69.66, -120.62 -73.71, -124.93 -82.25" stroke="#f08c00" stroke-width="2.5" fill="none"></path></g><g transform="translate(1148.7458936855876 352.37642377526936) rotate(0 -62.773145953517314 -39.87355228593006)"><path d="M-121.22 -51.99 C-119.82 -62.52, -125.62 -70.5, -124.93 -82.25" stroke="#f08c00" stroke-width="2.5" fill="none"></path></g></g><g transform="translate(1162.1241285917604 409.48192926733054) rotate(0 64.2199478149414 25)"><text x="64.2199478149414" y="NaN" font-family="Segoe UI Emoji" font-size="20px" fill="#f08c00" text-anchor="middle" style="white-space: pre;" direction="ltr">CDC to</text><text x="64.2199478149414" y="NaN" font-family="Segoe UI Emoji" font-size="20px" fill="#f08c00" text-anchor="middle" style="white-space: pre;" direction="ltr">Search Index</text></g><g stroke-linecap="round" transform="translate(10 66.83043392021762) rotate(0 584.7138342941088 125.63960913743728)"><path d="M-0.08 0.22 C423.53 4.07, 847.11 3.67, 1168.75 0.35 M1170.16 1.61 C1167.68 76.99, 1166.74 154.38, 1169.78 250.34 M1170.1 250.87 C744.35 253.17, 318.91 253.44, 0.7 251.93 M1.22 252.75 C-0.27 190.68, -0.7 131.42, -0.28 -1.11" stroke="#94a3b8" stroke-width="2.5" fill="none" stroke-dasharray="8 10"></path></g><g stroke-linecap="round" transform="translate(843.2142377696723 10) rotate(0 598.4549832126121 231.3857172605402)"><path d="M0.35 0.06 C342.85 4.44, 687.6 4.87, 1197.02 -0.16 M1196.38 0.59 C1196.24 119.21, 1197.36 237.08, 1197.04 462.41 M1197.56 462.3 C859.05 467.11, 520.51 467.71, 0.67 462.79 M-0.63 463.61 C-1.73 297.24, -1.29 133.4, 0.79 0.64" stroke="#94a3b8" stroke-width="2.5" fill="none" stroke-dasharray="8 10"></path></g><g transform="translate(36.71938844609292 86.86842358216526) rotate(0 72.9119644165039 17.5)"><text x="72.9119644165039" y="NaN" font-family="Segoe UI Emoji" font-size="28px" fill="#ffffff" text-anchor="middle" style="white-space: pre;" direction="ltr">Read Path</text></g><g transform="translate(1815.6287734294458 57.216725655249974) rotate(0 74.00396728515625 17.5)"><text x="74.00396728515625" y="NaN" font-family="Segoe UI Emoji" font-size="28px" fill="#ffffff" text-anchor="middle" style="white-space: pre;" direction="ltr">Write Path</text></g></svg>