<svg version="1.1" xmlns="http://www.w3.org/2000/svg" viewBox="0 0 1178.340769388028 235.88706323451333" width="1178.340769388028" height="235.88706323451333">
  <!-- svg-source:excalidraw -->
  
  <defs>
    <style>
      @font-face {
        font-family: "Virgil";
        src: url("https://excalidraw.com/Virgil.woff2");
      }
      @font-face {
        font-family: "Cascadia";
        src: url("https://excalidraw.com/Cascadia.woff2");
      }
    </style>
  </defs>
  <rect x="0" y="0" width="1178.340769388028" height="235.88706323451333" fill="#1e1e2e"></rect><g stroke-linecap="round" transform="translate(10 87.43932638948826) rotate(0 90 36.5)"><path d="M-1.92 0.91 L181.41 -0.79 L178.08 72.53 L0.46 71.93" stroke="none" stroke-width="0" fill="#87CEEB"></path><path d="M0.88 -1.79 C61.72 1.63, 122.35 -0.33, 181.78 0.92 M0.15 0.29 C36.84 -1.11, 73.08 -0.49, 180.53 0.3 M179.42 -1.54 C179.74 30.46, 181.8 57.4, 181.07 74.58 M179.22 -0.69 C180.77 27.14, 180.07 54.78, 180.8 72.46 M180.34 72.64 C117.36 71.79, 57.57 70.99, -0.57 74.22 M179.81 72.57 C135.04 71.79, 88.57 72.39, 0.25 73.07 M-0.75 72.18 C1.27 51.17, -1.54 31.63, -0.51 0.53 M-0.78 73.77 C-1.64 55.33, -0.33 37.14, -0.5 0.15" stroke="#4682B4" stroke-width="2" fill="none"></path></g><g transform="translate(72.95002746582031 111.43932638948826) rotate(0 27.049972534179688 12.5)"><text x="27.049972534179688" y="NaN" font-family="Virgil, Segoe UI Emoji" font-size="20px" fill="#000" text-anchor="middle" style="white-space: pre;" direction="ltr">Client</text></g><g stroke-linecap="round" transform="translate(568.3407693880281 81.38706323451333) rotate(0 91 36.5)"><path d="M-0.69 1.86 L181.96 0.11 L182.95 73.73 L-0.54 71.44" stroke="none" stroke-width="0" fill="#F0E68C"></path><path d="M1.06 -1.11 C52.93 2.43, 104.7 -0.01, 181.57 0.87 M0.76 -0.09 C41.52 2.2, 83.77 0.63, 181.24 -0.82 M183.62 0 C182.72 16.9, 179.97 34.09, 183.41 72.23 M182.81 0.83 C182.43 20.31, 183.66 41.14, 181.72 73.99 M182.61 72.11 C136.89 71.67, 88.02 72.73, 1 74.04 M181 72.81 C141.71 70.45, 102.24 70.23, 0.75 73.03 M-1.96 73.15 C-2.15 50.99, -0.66 29.22, 0.79 1.63 M0.14 72.02 C-1.26 59.2, -1.35 42.79, 0.81 0.14" stroke="#DAA520" stroke-width="2" fill="none"></path></g><g transform="translate(607.0708185213289 105.38706323451333) rotate(0 52.26995086669922 12.5)"><text x="52.26995086669922" y="NaN" font-family="Virgil, Segoe UI Emoji" font-size="20px" fill="#000" text-anchor="middle" style="white-space: pre;" direction="ltr">App Server</text></g><g stroke-linecap="round" transform="translate(988.3407693880281 10) rotate(0 83.66949418346917 42.5)"><path d="M-1.91 -0.58 L165.8 1.31 L166.5 85.27 L-1.01 84.25" stroke="none" stroke-width="0" fill="#FFB6C1"></path><path d="M-1.69 1.35 C62.9 0.25, 129.12 -1.61, 165.48 -1.52 M0.98 -0.62 C56.98 -1.52, 112.41 -0.55, 168.22 0.43 M165.85 -1.58 C169.17 29.05, 169.07 55.66, 168.01 84.96 M167.74 0.2 C167.3 20.75, 166.31 41.97, 167.01 84.83 M166.86 86.45 C112.55 83.84, 57.04 85.69, -0.94 83.62 M167.08 84.81 C119.27 85.13, 69.23 85.86, -0.24 84.43 M-1.43 86.92 C-0.23 64.93, 0.75 48.06, -0.42 -0.81 M0.2 84.08 C-0.13 59.23, -0.36 32.68, 0.19 -0.86" stroke="#DC143C" stroke-width="2" fill="none"></path></g><g transform="translate(1023.7903081271613 15) rotate(0 48.21995544433594 37.5)"><text x="48.21995544433594" y="NaN" font-family="Virgil, Segoe UI Emoji" font-size="20px" fill="#000" text-anchor="middle" style="white-space: pre;" direction="ltr">In-Memory</text><text x="48.21995544433594" y="NaN" font-family="Virgil, Segoe UI Emoji" font-size="20px" fill="#000" text-anchor="middle" style="white-space: pre;" direction="ltr">State</text><text x="48.21995544433594" y="NaN" font-family="Virgil, Segoe UI Emoji" font-size="20px" fill="#000" text-anchor="middle" style="white-space: pre;" direction="ltr">(Redis)</text></g><g stroke-linecap="round" transform="translate(988.3407693880281 152.88706323451333) rotate(0 90 36.5)"><path d="M0.1 -1.47 L180.37 1.41 L178.78 73.95 L-0.12 74.15" stroke="none" stroke-width="0" fill="#98FB98"></path><path d="M0.8 0.16 C62.63 1.55, 122.6 -0.9, 180.1 1.84 M0.73 -0.3 C62.69 1.17, 126.59 2.6, 179.33 -0.83 M181.61 -0.09 C179.15 19.63, 182.19 37.94, 180.27 72.78 M179.52 0.46 C179.19 14.77, 180.31 29.74, 179.04 73.75 M181.29 72.03 C128.54 74.13, 77.68 71.3, -1.62 73.97 M180.54 72.8 C136.5 70.66, 90.66 71.13, 0.21 72.47 M0.52 74.98 C1.84 51.32, 1.79 34.2, -0.03 0.74 M-0.16 73.03 C-0.64 57.32, -0.32 40.99, 0.66 -0.75" stroke="#228B22" stroke-width="2" fill="none"></path></g><g transform="translate(1039.130808450528 176.88706323451333) rotate(0 39.2099609375 12.5)"><text x="39.2099609375" y="NaN" font-family="Virgil, Segoe UI Emoji" font-size="20px" fill="#000" text-anchor="middle" style="white-space: pre;" direction="ltr">Pub/Sub</text></g><g stroke-linecap="round"><g transform="translate(756.3407693880281 110.07215101032861) rotate(0 112.99999999999989 -31.825660133747967)"><path d="M0.89 -0.46 C38.59 -11.38, 188.81 -54.04, 226.36 -64.64 M-0.11 -1.75 C37.46 -12.63, 188 -53.43, 225.6 -63.63" stroke="#94a3b8" stroke-width="2" fill="none"></path></g><g transform="translate(756.3407693880281 110.07215101032861) rotate(0 112.99999999999989 -31.825660133747967)"><path d="M200.31 -45.74 C206.91 -51.57, 215.49 -55.83, 226.08 -62.64 M200.55 -46.05 C208.86 -51.56, 214.51 -56.79, 225.07 -63.15" stroke="#94a3b8" stroke-width="2" fill="none"></path></g><g transform="translate(756.3407693880281 110.07215101032861) rotate(0 112.99999999999989 -31.825660133747967)"><path d="M194.93 -65.54 C203.35 -65.26, 213.59 -63.39, 226.08 -62.64 M195.17 -65.86 C204.9 -65.68, 212.08 -65.24, 225.07 -63.15" stroke="#94a3b8" stroke-width="2" fill="none"></path></g></g><g stroke-linecap="round"><g transform="translate(756.3407693880283 118.20615339628011) rotate(0 112.99999999999989 26.926309677014295)"><path d="M0.52 0.23 C21.4 1.19, 86.62 -2.64, 124.22 6.31 C161.81 15.27, 209.28 45.94, 226.1 53.94 M-0.67 -0.69 C20.16 0.41, 85.63 -1.55, 123.31 7.78 C160.98 17.11, 208.44 47.33, 225.38 55.3" stroke="#94a3b8" stroke-width="2" fill="none"></path></g><g transform="translate(756.3407693880283 118.20615339628011) rotate(0 112.99999999999989 26.926309677014295)"><path d="M196.08 51.14 C201.75 51.95, 208.37 51.27, 226.06 56 M195.71 50.13 C206.45 52.01, 218.56 54.25, 224.94 55.66" stroke="#94a3b8" stroke-width="2" fill="none"></path></g><g transform="translate(756.3407693880283 118.20615339628011) rotate(0 112.99999999999989 26.926309677014295)"><path d="M205.78 33.05 C209.49 37.72, 214.07 40.85, 226.06 56 M205.41 32.05 C212.54 40.66, 221.04 49.63, 224.94 55.66" stroke="#94a3b8" stroke-width="2" fill="none"></path></g></g><g stroke-linecap="round"><g transform="translate(982.3407693880281 199.98723457009766) rotate(0 -113.12096464619367 -29.7605318032388)"><path d="M0.03 1.02 C-20.8 0.33, -86.8 5.94, -124.55 -4.11 C-162.3 -14.15, -209.64 -50.04, -226.48 -59.26 M-1.42 0.51 C-22.4 0.02, -87.56 7.16, -125.22 -2.56 C-162.88 -12.28, -210.74 -48.51, -227.36 -57.81" stroke="#94a3b8" stroke-width="2" fill="none"></path></g><g transform="translate(982.3407693880281 199.98723457009766) rotate(0 -113.12096464619367 -29.7605318032388)"><path d="M-196.37 -50.43 C-207.91 -53.88, -217.39 -54.53, -227.28 -56.28 M-198.19 -51.8 C-204.68 -52.14, -211.55 -54.44, -227.83 -57.74" stroke="#94a3b8" stroke-width="2" fill="none"></path></g><g transform="translate(982.3407693880281 199.98723457009766) rotate(0 -113.12096464619367 -29.7605318032388)"><path d="M-207.4 -33.13 C-215.23 -42.41, -221 -48.89, -227.28 -56.28 M-209.22 -34.5 C-213.21 -38.73, -217.53 -45.02, -227.83 -57.74" stroke="#94a3b8" stroke-width="2" fill="none"></path></g></g><g stroke-linecap="round"><g transform="translate(563.1251570358651 143.64105649234807) rotate(0 -183.63965868688862 23.091110352677283)"><path d="M-0.63 0.43 C-29.16 8.16, -111.01 46.27, -171.93 46.41 C-232.85 46.55, -333.76 8.74, -366.13 1.27" stroke="#94a3b8" stroke-width="2.5" fill="none" stroke-dasharray="8 10"></path></g><g transform="translate(563.1251570358651 143.64105649234807) rotate(0 -183.63965868688862 23.091110352677283)"><path d="M-335.47 0.47 C-343.03 1.56, -351.9 2.01, -366.84 1.25" stroke="#94a3b8" stroke-width="2.5" fill="none"></path></g><g transform="translate(563.1251570358651 143.64105649234807) rotate(0 -183.63965868688862 23.091110352677283)"><path d="M-341.23 20.17 C-347.4 16.54, -354.88 12.24, -366.84 1.25" stroke="#94a3b8" stroke-width="2.5" fill="none"></path></g></g><g transform="translate(353.15092320044255 167.32327719770262) rotate(0 37.358985900878906 22.5)"><text x="37.358985900878906" y="NaN" font-family="Virgil, Segoe UI Emoji" font-size="18px" fill="#cdd6f4" text-anchor="middle" style="white-space: pre;" direction="ltr">timeout </text><text x="37.358985900878906" y="NaN" font-family="Virgil, Segoe UI Emoji" font-size="18px" fill="#cdd6f4" text-anchor="middle" style="white-space: pre;" direction="ltr">(100ms)</text></g><g stroke-linecap="round"><g transform="translate(192.0053254527541 124.64084134047972) rotate(0 183.17038469401407 -2.944714831870951)"><path d="M-0.84 -0.92 C29.54 -1.29, 120.35 -1.55, 181.69 -2.25 C243.03 -2.96, 336.44 -4.46, 367.17 -5.16 M0.92 1.22 C31.26 0.52, 120.13 -2.51, 181.12 -3.89 C242.11 -5.28, 336 -6.83, 366.85 -7.11" stroke="#2f9e44" stroke-width="2" fill="none"></path></g><g transform="translate(192.0053254527541 124.64084134047972) rotate(0 183.17038469401407 -2.944714831870951)"><path d="M0.21 -0.88 L13.66 -7.73 L12.07 3.74 L-0.26 -0.66" stroke="none" stroke-width="0" fill="#2f9e44" fill-rule="evenodd"></path><path d="M-1.99 -0.02 C3.72 -1.4, 6.88 -4.39, 12.05 -7.17 M-1.4 -0.68 C4.38 -3.44, 9.36 -6.26, 12.87 -6.86 M13.51 -6.11 C13.94 -3.65, 13.57 1.49, 13.34 5.72 M12.36 -7.45 C12.75 -3.92, 12.75 -0.67, 13.14 4.87 M13.79 4.29 C8.82 3.5, 7.28 3.22, -1.26 -0.58 M12.74 5.51 C9.88 4.04, 5.13 1.72, -0.21 -1.36 M-0.84 -0.92 C-0.84 -0.92, -0.84 -0.92, -0.84 -0.92 M-0.84 -0.92 C-0.84 -0.92, -0.84 -0.92, -0.84 -0.92" stroke="#2f9e44" stroke-width="2" fill="none"></path></g><g transform="translate(192.0053254527541 124.64084134047972) rotate(0 183.17038469401407 -2.944714831870951)"><path d="M337.26 4.72 C347.37 2.43, 354.1 -2.07, 365.96 -6.88 M338.05 3.83 C349.72 -0.72, 360.32 -5.29, 367.06 -6.47" stroke="#2f9e44" stroke-width="2" fill="none"></path></g><g transform="translate(192.0053254527541 124.64084134047972) rotate(0 183.17038469401407 -2.944714831870951)"><path d="M336.99 -15.8 C347.17 -12.93, 353.96 -12.29, 365.96 -6.88 M337.78 -16.69 C349.41 -13.11, 360.11 -9.55, 367.06 -6.47" stroke="#2f9e44" stroke-width="2" fill="none"></path></g></g><g transform="translate(320.52662311428924 96.46457825998039) rotate(0 52.44995880126953 25)"><text x="52.44995880126953" y="NaN" font-family="Segoe UI Emoji" font-size="20px" fill="#2f9e44" text-anchor="middle" style="white-space: pre;" direction="ltr">WebSocket</text><text x="52.44995880126953" y="NaN" font-family="Segoe UI Emoji" font-size="20px" fill="#2f9e44" text-anchor="middle" style="white-space: pre;" direction="ltr">Connection</text></g></svg>