<svg version="1.1" xmlns="http://www.w3.org/2000/svg" viewBox="0 0 1026.9391812783088 1628.8207297450201" width="1026.9391812783088" height="1628.8207297450201">
  <!-- svg-source:excalidraw -->
  
  <defs>
    <style>
      @font-face {
        font-family: "Virgil";
        src: url("https://excalidraw.com/Virgil.woff2");
      }
      @font-face {
        font-family: "Cascadia";
        src: url("https://excalidraw.com/Cascadia.woff2");
      }
    </style>
  </defs>
  <rect x="0" y="0" width="1026.9391812783088" height="1628.8207297450201" fill="#1e1e2e"></rect><g stroke-linecap="round" transform="translate(415.7891274093819 10) rotate(0 90 36.5)"><path d="M-1.34 0.61 L179.49 -0.28 L180.41 71.01 L1.27 72.3" stroke="none" stroke-width="0" fill="#87CEEB"></path><path d="M-0.64 0.36 C39.4 -2.25, 79.88 -1.72, 180.43 0.15 M0.45 0.27 C37.73 -0.95, 73.99 -0.43, 180.35 0.05 M181.7 -0.08 C179.26 25.23, 179.2 47.77, 180.2 74.36 M179.76 0.53 C179.2 19.78, 179.4 40.36, 180.69 72.23 M180.47 74.99 C117.56 74.06, 52.48 74.33, -0.44 74.59 M179.04 73.47 C142.86 74.84, 107.23 74.76, -0.58 72.58 M1.01 73.75 C-0.53 46.88, -0.75 17.72, 1.55 0.88 M-0.28 72.26 C-0.39 47.78, -1.44 21.89, -0.8 0.74" stroke="#4682B4" stroke-width="2" fill="none"></path></g><g transform="translate(467.91914755098344 29) rotate(0 37.86997985839844 17.5)"><text x="37.86997985839844" y="NaN" font-family="Virgil, Segoe UI Emoji" font-size="28px" fill="#000" text-anchor="middle" style="white-space: pre;" direction="ltr">Client</text></g><g stroke-linecap="round" transform="translate(333.6131298723909 206.50018585729572) rotate(0 162.5 40)"><path d="M1.59 1.68 L326.77 0.98 L326.93 80.37 L-1.06 78.28" stroke="none" stroke-width="0" fill="#DDA0DD"></path><path d="M-0.18 -0.19 C111.29 -2.15, 221.2 -1.43, 325.12 0.28 M0.24 0.06 C94.63 -0.94, 189.6 -1.95, 325.54 0.63 M325.07 0.27 C322.79 19.14, 326.02 39.62, 323.04 78.18 M324.88 0.37 C326.26 23.4, 326.03 48.52, 325.93 79.41 M324.34 78.73 C253.1 79.77, 181.64 77.36, -1 78.72 M324.75 80.04 C223.75 81.49, 121.96 81.38, -0.31 79.49 M0.16 78.52 C0.64 59.37, 1.15 35.12, 1.19 1.53 M0.54 80.18 C-0.01 52.25, 0.55 24.82, 0.4 0.1" stroke="#8B008B" stroke-width="2" fill="none"></path></g><g transform="translate(364.82116820246904 211.50018585729572) rotate(0 131.29196166992188 35)"><text x="131.29196166992188" y="NaN" font-family="Virgil, Segoe UI Emoji" font-size="28px" fill="#000" text-anchor="middle" style="white-space: pre;" direction="ltr">API + Idempotency</text><text x="131.29196166992188" y="NaN" font-family="Virgil, Segoe UI Emoji" font-size="28px" fill="#000" text-anchor="middle" style="white-space: pre;" direction="ltr">Check</text></g><g stroke-linecap="round" transform="translate(315.33189659359107 417.32683147277965) rotate(0 178.3505493412872 61.35133428967595)"><path d="M179.36 1.82 L357.78 62.27 L179.67 123.35 L-0.85 60.58" stroke="none" stroke-width="0" fill="#F0E68C" fill-rule="evenodd"></path><path d="M180.71 1.1 C238.67 21.45, 301.42 41.37, 357.27 60.74 M179.4 -0.58 C220.73 13.39, 260.21 27.84, 356.7 61.98 M354.82 61.05 C285.62 85.58, 218.6 111.03, 178.02 121.83 M357.58 61.87 C300.38 81.87, 243.24 101.38, 179.68 122.14 M177.96 122.34 C122.08 107.24, 69.6 86.86, 1.24 63.26 M179.89 123.44 C109.92 98.58, 41.04 75.65, 0.57 62.54 M-0.61 61.39 C68.17 39.26, 131.43 18.12, 177.96 -0.88 M0.84 61.52 C36.07 48.46, 71.84 36.13, 178.61 -0.28" stroke="#DAA520" stroke-width="2" fill="none"></path></g><g transform="translate(361.2004970823392 461.1781657624556) rotate(0 132.48194885253906 17.5)"><text x="132.48194885253906" y="NaN" font-family="Virgil, Segoe UI Emoji" font-size="28px" fill="#000" text-anchor="middle" style="white-space: pre;" direction="ltr">Already Processed?</text></g><g stroke-linecap="round" transform="translate(629.8673057855625 775.0667884380524) rotate(0 193.53593774637318 57.5)"><path d="M-1.53 -1.26 L387.64 1.34 L387.5 114.48 L0.67 115.52" stroke="none" stroke-width="0" fill="#FFB6C1"></path><path d="M-0.59 -0.91 C84.75 1.4, 167.16 0.64, 387.08 0.59 M-0.44 -0.1 C92.54 0.84, 185.34 1.17, 386.5 0.03 M385.23 -1.21 C387.52 29.22, 384.08 54.04, 385.44 114.02 M387.79 0.61 C387.14 32.42, 387.24 66.83, 386.84 115.97 M387.9 115.96 C260.11 115.14, 131.07 116.4, -0.08 114.93 M387.12 115.49 C288.09 113.24, 188.67 113.36, 0.48 114.9 M-1.41 116.41 C0.51 75.5, 1.41 38.9, -1.74 -0.02 M0.46 115.36 C1.39 79.04, 1.45 43.26, -0.93 -0.49" stroke="#DC143C" stroke-width="2" fill="none"></path></g><g transform="translate(671.6153101823262 780.0667884380524) rotate(0 151.78793334960938 52.5)"><text x="151.78793334960938" y="NaN" font-family="Virgil, Segoe UI Emoji" font-size="28px" fill="#000" text-anchor="middle" style="white-space: pre;" direction="ltr">Return Cached Result</text><text x="151.78793334960938" y="NaN" font-family="Virgil, Segoe UI Emoji" font-size="28px" fill="#000" text-anchor="middle" style="white-space: pre;" direction="ltr">{idempotencyKey :</text><text x="151.78793334960938" y="NaN" font-family="Virgil, Segoe UI Emoji" font-size="28px" fill="#000" text-anchor="middle" style="white-space: pre;" direction="ltr">response/id}</text></g><g stroke-linecap="round" transform="translate(71.16181268544506 790.9868103930801) rotate(0 129.5 36.5)"><path d="M0.61 -1.23 L259.82 1.84 L258.66 74.89 L-1.03 74.48" stroke="none" stroke-width="0" fill="#98FB98"></path><path d="M-0.55 1.26 C71.12 1.2, 141.83 -0.59, 258.33 1.49 M-0.67 -0.63 C100.98 1.72, 203.2 1.82, 259.09 0.74 M260.21 -1.34 C259.2 17.09, 260.72 31.6, 257.26 71.72 M259.82 -0.18 C259.26 20.5, 259.51 40.26, 258.31 73.7 M259.57 74.37 C157.59 70.79, 58.72 72.54, -0.63 73.43 M259.51 72.53 C206.75 73.31, 154.19 74.32, -0.14 72.87 M-1.43 72.97 C0.83 50.69, -1.02 27.1, 1.31 -1.44 M0.55 72.04 C-1.12 51.33, -0.59 27.54, -0.48 -0.01" stroke="#228B22" stroke-width="2" fill="none"></path></g><g transform="translate(76.81787195058178 809.9868103930801) rotate(0 123.84394073486328 17.5)"><text x="123.84394073486328" y="NaN" font-family="Virgil, Segoe UI Emoji" font-size="28px" fill="#000" text-anchor="middle" style="white-space: pre;" direction="ltr">Begin Transaction</text></g><g stroke-linecap="round" transform="translate(89.9729510328549 990.0752197382997) rotate(0 102 36.5)"><path d="M-0.82 1.62 L203.83 -1.36 L203.94 73.94 L1.41 71.94" stroke="none" stroke-width="0" fill="#FFA07A"></path><path d="M-0.06 -0.52 C61.97 -2.93, 125.56 0.15, 203.94 -1.32 M0.03 -0.19 C64.79 0.07, 130.98 -0.81, 204.44 0.77 M202.98 -0.58 C203.55 14.28, 206.48 30.33, 204.92 74.04 M204.33 -0.63 C205.25 26.41, 205.14 51.42, 203.09 73.64 M204.14 71.93 C145.14 70.87, 85.25 72.68, 1.02 72.18 M204.63 72.62 C149.9 72.33, 96.18 72.44, -0.77 73.58 M0.33 73.78 C1.35 46.55, -0.49 21.42, -0.19 0.15 M-0.96 73.32 C0.12 48.05, -1.23 23.44, 0.78 0.2" stroke="#FF4500" stroke-width="2" fill="none"></path></g><g transform="translate(106.4329882643002 1009.0752197382997) rotate(0 85.53996276855469 17.5)"><text x="85.53996276855469" y="NaN" font-family="Virgil, Segoe UI Emoji" font-size="28px" fill="#000" text-anchor="middle" style="white-space: pre;" direction="ltr">Acquire Lock</text></g><g stroke-linecap="round" transform="translate(48.12741073066206 1145.2365121900993) rotate(0 140.5 36.5)"><path d="M0.31 1.14 L281.18 -0.23 L281.41 74.35 L0.47 71.86" stroke="none" stroke-width="0" fill="#ADD8E6"></path><path d="M0.38 -1.28 C75.14 -2.54, 148.76 -2.32, 282.22 0.77 M-0.07 0.74 C58.36 1.33, 117.12 1.02, 281.41 -0.39 M279.27 0.29 C279.49 24.07, 281.38 47.43, 280.04 71.79 M280.89 -0.23 C281.18 25.5, 280.42 50.82, 280.56 73.1 M279.64 71.97 C194.7 73.94, 107.2 71.27, 1.11 73.05 M280.78 73.1 C188.73 73.75, 97.14 73.58, -0.07 72.41 M-0.23 71.11 C-1.13 43.53, -0.09 16.65, -0.23 1.94 M-0.87 72.99 C-0.55 44.53, -1 17.82, 0.76 -0.07" stroke="#4169E1" stroke-width="2" fill="none"></path></g><g transform="translate(54.1294706671855 1164.2365121900993) rotate(0 134.49794006347656 17.5)"><text x="134.49794006347656" y="NaN" font-family="Virgil, Segoe UI Emoji" font-size="28px" fill="#000" text-anchor="middle" style="white-space: pre;" direction="ltr">Validate Invariants</text></g><g stroke-linecap="round" transform="translate(70.61071705761378 1327.9173779931396) rotate(0 113 36.5)"><path d="M0.02 -1.08 L227.72 -0.5 L225.46 71.26 L0.56 73.97" stroke="none" stroke-width="0" fill="#90EE90"></path><path d="M-0.83 1.61 C49.45 -0.13, 101.41 -0.39, 225.28 -1.36 M0.73 -0.28 C87.6 -1.3, 175.3 -0.77, 225.46 0.58 M226.24 0.41 C226.16 26.9, 225.59 49.08, 225.84 73.38 M225.41 0.67 C225.94 26.12, 225.39 53.26, 225.61 73.45 M226.4 71.91 C156.03 73.47, 88.5 75.55, -1 71.69 M226.24 72.43 C157.62 72.79, 89.54 72.6, 0.14 72.23 M-1.41 74.53 C1.11 50.42, -1.36 22.53, -1.06 -1.83 M0.93 72.12 C0.9 55.79, 1.2 39.9, 0.19 -0.75" stroke="#32CD32" stroke-width="2" fill="none"></path></g><g transform="translate(80.29074788036769 1346.9173779931396) rotate(0 103.3199691772461 17.5)"><text x="103.3199691772461" y="NaN" font-family="Virgil, Segoe UI Emoji" font-size="28px" fill="#000" text-anchor="middle" style="white-space: pre;" direction="ltr">Write + Commit</text></g><g stroke-linecap="round" transform="translate(10 1503.8207297450201) rotate(0 172.0694141071841 57.5)"><path d="M0.59 0.37 L346.07 -0.88 L345.48 114.79 L1.82 113.23" stroke="none" stroke-width="0" fill="#FFB6C1"></path><path d="M-0.99 1.14 C88.28 -0.3, 174.7 -0.16, 344.73 -0.34 M-0.49 -0.21 C84.18 -2.07, 168.29 -2.24, 344.47 -0.65 M343.74 -1.28 C344.3 40.67, 342.24 80.48, 344.21 116.51 M344.57 0.21 C345 40.88, 345.1 84.31, 344.38 114.19 M344.47 114.25 C233.33 113.41, 125.12 114.7, -1.15 113.89 M343.77 114.41 C247.62 114.95, 150.87 113.88, 0.15 115.37 M1.95 113.62 C-0.34 78.3, 1.55 41.37, -0.01 -0.33 M-0.32 115.49 C1.64 84.35, 0.41 54.92, 0.74 0.09" stroke="#DC143C" stroke-width="2" fill="none"></path></g><g transform="translate(24.933488814215337 1508.8207297450201) rotate(0 157.13592529296875 52.5)"><text x="157.13592529296875" y="NaN" font-family="Virgil, Segoe UI Emoji" font-size="28px" fill="#000" text-anchor="middle" style="white-space: pre;" direction="ltr">Store Idempotency Key</text><text x="157.13592529296875" y="NaN" font-family="Virgil, Segoe UI Emoji" font-size="28px" fill="#000" text-anchor="middle" style="white-space: pre;" direction="ltr">{idempotencyKey :</text><text x="157.13592529296875" y="NaN" font-family="Virgil, Segoe UI Emoji" font-size="28px" fill="#000" text-anchor="middle" style="white-space: pre;" direction="ltr">response/id}</text></g><g stroke-linecap="round"><g transform="translate(503.7178514394943 89.00000000000001) rotate(0 -2.741113873084714 55.46242169577114)"><path d="M0.91 -0.81 C-0.01 17.6, -3.35 91.77, -4.42 110.38 M-0.07 1.38 C-1.16 19.95, -3.77 93.17, -4.81 111.63" stroke="#94a3b8" stroke-width="2" fill="none"></path></g><g transform="translate(503.7178514394943 89.00000000000001) rotate(0 -2.741113873084714 55.46242169577114)"><path d="M-15.15 84.79 C-11.17 94.24, -6.81 105.45, -6.63 110.17 M-14.41 82.79 C-10.73 92.68, -6.32 103.99, -5.27 110.79" stroke="#94a3b8" stroke-width="2" fill="none"></path></g><g transform="translate(503.7178514394943 89.00000000000001) rotate(0 -2.741113873084714 55.46242169577114)"><path d="M5.35 85.7 C1.23 94.95, -2.51 105.8, -6.63 110.17 M6.09 83.71 C2.16 93.43, -1.04 104.4, -5.27 110.79" stroke="#94a3b8" stroke-width="2" fill="none"></path></g></g><g stroke-linecap="round"><g transform="translate(495.84497541706435 292.5001858572957) rotate(0 -0.40107156290116563 61.35314521998842)"><path d="M0.26 0.45 C-0.04 20.83, -1.52 102.99, -1.78 123.19 M-1.07 -0.36 C-1 19.58, 0.63 100.86, 0.42 121.32" stroke="#94a3b8" stroke-width="2" fill="none"></path></g><g transform="translate(495.84497541706435 292.5001858572957) rotate(0 -0.40107156290116563 61.35314521998842)"><path d="M-9.28 91.57 C-5.87 100.8, -5.32 111.43, 1.77 121.69 M-10.48 93.63 C-7.09 100.69, -5.69 107.02, 1.04 120.87" stroke="#94a3b8" stroke-width="2" fill="none"></path></g><g transform="translate(495.84497541706435 292.5001858572957) rotate(0 -0.40107156290116563 61.35314521998842)"><path d="M11.24 91.43 C8.46 100.75, 2.82 111.42, 1.77 121.69 M10.04 93.49 C8.48 100.53, 4.94 106.9, 1.04 120.87" stroke="#94a3b8" stroke-width="2" fill="none"></path></g></g><g stroke-linecap="round"><g transform="translate(664.4946081171644 489.68466524752404) rotate(0 69.5791609338844 137.96503419800385)"><path d="M-0.34 -1.04 C22.9 45.08, 115.16 230.64, 138.54 276.68 M1.68 1.03 C25.4 46.82, 117.94 229.1, 140.93 274.96" stroke="#94a3b8" stroke-width="2" fill="none"></path></g><g transform="translate(664.4946081171644 489.68466524752404) rotate(0 69.5791609338844 137.96503419800385)"><path d="M117.33 253.39 C125.21 260.43, 127.67 263.99, 142.57 273.57 M118.26 255.41 C128.35 262.62, 135.78 269.46, 141.52 275.76" stroke="#94a3b8" stroke-width="2" fill="none"></path></g><g transform="translate(664.4946081171644 489.68466524752404) rotate(0 69.5791609338844 137.96503419800385)"><path d="M135.65 244.14 C139.42 253.2, 137.78 258.83, 142.57 273.57 M136.57 246.15 C139.66 256.94, 140.09 267.32, 141.52 275.76" stroke="#94a3b8" stroke-width="2" fill="none"></path></g></g><g transform="translate(711.5897755207753 610.1496994455279) rotate(0 22.483993530273438 17.5)"><text x="22.483993530273438" y="NaN" font-family="Virgil, Segoe UI Emoji" font-size="28px" fill="#cdd6f4" text-anchor="middle" style="white-space: pre;" direction="ltr">Yes</text></g><g stroke-linecap="round"><g transform="translate(324.67386499240894 491.2075863551722) rotate(0 -61.37685829462001 146.88961201895387)"><path d="M0.12 -0.23 C-20.21 48.95, -101.79 245.04, -122.46 294.05 M-1.27 -1.39 C-21.7 47.5, -103.2 242.65, -123.25 292.07" stroke="#94a3b8" stroke-width="2" fill="none"></path></g><g transform="translate(324.67386499240894 491.2075863551722) rotate(0 -61.37685829462001 146.88961201895387)"><path d="M-122.37 262.59 C-122.12 268.11, -122.83 276.01, -121.75 291.2 M-121.4 262.84 C-121.65 271.73, -123.44 283.02, -122.83 291.99" stroke="#94a3b8" stroke-width="2" fill="none"></path></g><g transform="translate(324.67386499240894 491.2075863551722) rotate(0 -61.37685829462001 146.88961201895387)"><path d="M-103.4 270.41 C-108.08 273.89, -113.78 279.74, -121.75 291.2 M-102.43 270.66 C-109.22 276.97, -117.56 285.56, -122.83 291.99" stroke="#94a3b8" stroke-width="2" fill="none"></path></g></g><g transform="translate(246.5250111533553 620.597198374126) rotate(0 16.771995544433594 17.5)"><text x="16.771995544433594" y="NaN" font-family="Virgil, Segoe UI Emoji" font-size="28px" fill="#cdd6f4" text-anchor="middle" style="white-space: pre;" direction="ltr">No</text></g><g stroke-linecap="round"><g transform="translate(200.187089604765 869.98681039308) rotate(0 -2.683126353994396 57.04420467260985)"><path d="M-0.21 0.28 C-0.92 19.29, -4.22 96.4, -5.26 115.27 M-1.77 -0.63 C-2.55 18.59, -5.77 94.59, -6.16 113.76" stroke="#94a3b8" stroke-width="2" fill="none"></path></g><g transform="translate(200.187089604765 869.98681039308) rotate(0 -2.683126353994396 57.04420467260985)"><path d="M-15.03 85.42 C-11.22 89.64, -12.22 96.27, -4.45 112.45 M-15.7 85.63 C-13.3 92.47, -9.53 101.72, -6.14 112.99" stroke="#94a3b8" stroke-width="2" fill="none"></path></g><g transform="translate(200.187089604765 869.98681039308) rotate(0 -2.683126353994396 57.04420467260985)"><path d="M5.48 86.1 C4.84 90.14, -0.6 96.62, -4.45 112.45 M4.81 86.31 C1.37 93.04, -0.69 102.1, -6.14 112.99" stroke="#94a3b8" stroke-width="2" fill="none"></path></g></g><g stroke-linecap="round"><g transform="translate(191.07924517328263 1069.0752197382997) rotate(0 -0.7546572534264442 35.080646225899784)"><path d="M0.87 0.66 C0.41 12.39, -1.84 58.45, -2.22 70.06 M-0.13 -0.04 C-0.26 11.92, 0.45 59.59, 0.11 71.55" stroke="#94a3b8" stroke-width="2" fill="none"></path></g><g transform="translate(191.07924517328263 1069.0752197382997) rotate(0 -0.7546572534264442 35.080646225899784)"><path d="M-8.94 42.13 C-6.74 53.21, -2.75 62.03, -0.74 72.83 M-9.59 42.38 C-8.21 50.48, -4.42 56.74, 0.43 70.87" stroke="#94a3b8" stroke-width="2" fill="none"></path></g><g transform="translate(191.07924517328263 1069.0752197382997) rotate(0 -0.7546572534264442 35.080646225899784)"><path d="M11.59 42.21 C6.64 53.41, 3.48 62.21, -0.74 72.83 M10.93 42.46 C7.2 50.55, 5.88 56.79, 0.43 70.87" stroke="#94a3b8" stroke-width="2" fill="none"></path></g></g><g stroke-linecap="round"><g transform="translate(187.4886187907228 1224.2365121900993) rotate(0 -1.3440044313011583 48.84043290152022)"><path d="M0.18 0.83 C-0.56 16.91, -2.94 81.48, -3.5 97.54 M-1.18 0.23 C-1.63 17.01, -0.71 82.67, -1.22 99" stroke="#94a3b8" stroke-width="2" fill="none"></path></g><g transform="translate(187.4886187907228 1224.2365121900993) rotate(0 -1.3440044313011583 48.84043290152022)"><path d="M-9.92 69.4 C-7.44 80.69, -4.21 91.53, -0.13 100.22 M-11.18 70.32 C-9.21 78.48, -5.84 86.07, -1.97 99.18" stroke="#94a3b8" stroke-width="2" fill="none"></path></g><g transform="translate(187.4886187907228 1224.2365121900993) rotate(0 -1.3440044313011583 48.84043290152022)"><path d="M10.6 69.52 C5.25 80.79, 0.66 91.59, -0.13 100.22 M9.34 70.44 C5.86 78.41, 3.78 85.97, -1.97 99.18" stroke="#94a3b8" stroke-width="2" fill="none"></path></g></g><g stroke-linecap="round"><g transform="translate(183.19236069757375 1406.9173779931396) rotate(0 -0.29376743521609683 43.72564847868)"><path d="M-0.6 0.65 C-0.59 15.3, 0.34 73.82, 0.21 88.26 M1.28 -0.06 C1.2 14.23, -0.28 71.8, -0.31 86.57" stroke="#94a3b8" stroke-width="2" fill="none"></path></g><g transform="translate(183.19236069757375 1406.9173779931396) rotate(0 -0.29376743521609683 43.72564847868)"><path d="M-9.07 59.56 C-5.65 65.78, -4.17 75.2, -0.67 86.38 M-10.87 58.41 C-7.02 66.25, -3.93 73.5, 0.56 86.4" stroke="#94a3b8" stroke-width="2" fill="none"></path></g><g transform="translate(183.19236069757375 1406.9173779931396) rotate(0 -0.29376743521609683 43.72564847868)"><path d="M11.45 59.87 C8.49 65.89, 3.6 75.22, -0.67 86.38 M9.65 58.72 C7.84 66.44, 5.27 73.6, 0.56 86.4" stroke="#94a3b8" stroke-width="2" fill="none"></path></g></g></svg>