<svg version="1.1" xmlns="http://www.w3.org/2000/svg" viewBox="0 0 800 675" width="800" height="675">
  <!-- svg-source:excalidraw -->
  
  <defs>
    <style>
      @font-face {
        font-family: "Virgil";
        src: url("https://excalidraw.com/Virgil.woff2");
      }
      @font-face {
        font-family: "Cascadia";
        src: url("https://excalidraw.com/Cascadia.woff2");
      }
    </style>
  </defs>
  <rect x="0" y="0" width="800" height="675" fill="#1e1e2e"></rect><g stroke-linecap="round" transform="translate(300 10) rotate(0 100 32)"><path d="M0.62 -0.7 L199.41 0.39 L198.92 62.59 L-1.98 65.96" stroke="none" stroke-width="0" fill="#5b21b6"></path><path d="M-1.58 1.16 C61.16 1.99, 125.94 0.62, 200.65 0.72 M-0.73 0.64 C41.76 0.01, 82.74 0.47, 200.48 -0.18 M200.95 -0.21 C197.57 16.7, 200.65 30.51, 199.99 65.07 M200.48 -0.73 C201.05 21.36, 199.54 42.84, 200.41 63.31 M200.77 65 C129.15 65.75, 55.23 64.88, -1.71 63.98 M199.56 63.37 C151.18 64.63, 103.37 65.02, -0.12 64.16 M1.16 62.23 C-0.35 40.16, 0.1 17.33, 0.9 -1.01 M0.04 64.65 C1.19 46.75, 0.59 28.74, -0.44 0.84" stroke="#7c3aed" stroke-width="2" fill="none"></path></g><g transform="translate(343.47005462646484 29.5) rotate(0 56.529945373535156 12.5)"><text x="56.529945373535156" y="NaN" font-family="Virgil, Segoe UI Emoji" font-size="20px" fill="#ffffff" text-anchor="middle" style="white-space: pre;" direction="ltr">Coordinator</text></g><g stroke-opacity="0.6" fill-opacity="0.6" stroke-linecap="round" transform="translate(10 310) rotate(0 110 140)"><path d="M0.22 0.38 L221.62 1.37 L219.76 278.7 L-1.91 279.64" stroke="none" stroke-width="0" fill="#181825"></path><path d="M1.34 1.66 C66.6 0.47, 130.49 2.08, 220.24 -0.44 M220.37 -0.02 C222.91 113, 222.3 223.25, 220.86 279.89 M218.6 279.62 C156.98 282.39, 99 281.83, -0.92 280.12 M-0.25 280.6 C3.08 218.01, 2.03 158, -0.34 -1.38" stroke="#45475a" stroke-width="2.5" fill="none" stroke-dasharray="8 10"></path></g><g transform="translate(30 315) rotate(0 19.214988708496094 11.25)"><text x="0" y="NaN" font-family="Virgil, Segoe UI Emoji" font-size="18px" fill="#a6adc8" text-anchor="start" style="white-space: pre;" direction="ltr">AZ-1</text></g><g stroke-opacity="0.6" fill-opacity="0.6" stroke-linecap="round" transform="translate(290 310) rotate(0 110 140)"><path d="M1.17 -1.69 L221.44 1.54 L219.74 281.54 L-0.77 280.3" stroke="none" stroke-width="0" fill="#181825"></path><path d="M-0.09 -1.4 C78.04 2.12, 151.98 2.33, 220.7 0.9 M219.51 -0.23 C220.59 109.89, 219.95 218.24, 218.67 279.26 M220.7 280.19 C152.38 277.29, 85.58 279.43, 1.49 280.56 M-0.6 281.51 C-1.06 169.25, -0.35 58.6, -0.83 -0.81" stroke="#45475a" stroke-width="2.5" fill="none" stroke-dasharray="8 10"></path></g><g transform="translate(310 315) rotate(0 23.183990478515625 11.25)"><text x="0" y="NaN" font-family="Virgil, Segoe UI Emoji" font-size="18px" fill="#a6adc8" text-anchor="start" style="white-space: pre;" direction="ltr">AZ-2</text></g><g stroke-opacity="0.6" fill-opacity="0.6" stroke-linecap="round" transform="translate(570 310) rotate(0 110 140)"><path d="M-1.87 0.24 L221.26 1.7 L219.73 280.37 L0.37 280.96" stroke="none" stroke-width="0" fill="#181825"></path><path d="M-1.53 -0.99 C86.01 -0.03, 176.93 -1.24, 221.16 -1.22 M218.66 -0.45 C218.27 106.78, 217.59 213.23, 219.55 278.62 M219.34 280.76 C144.32 279.46, 68.69 277.37, 0.43 281 M-0.95 279.35 C-0.9 176.49, 1.57 71.2, -1.31 -0.24" stroke="#45475a" stroke-width="2.5" fill="none" stroke-dasharray="8 10"></path></g><g transform="translate(590 315) rotate(0 22.904991149902344 11.25)"><text x="0" y="NaN" font-family="Virgil, Segoe UI Emoji" font-size="18px" fill="#a6adc8" text-anchor="start" style="white-space: pre;" direction="ltr">AZ-3</text></g><g stroke-linecap="round" transform="translate(29.90452859855668 350) rotate(0 90 32)"><path d="M-0.75 1.7 L180.74 1.07 L181.02 62.61 L-0.88 63.08" stroke="none" stroke-width="0" fill="#1e40af"></path><path d="M0.58 -0.67 C43.37 -1.96, 90.81 -0.97, 181.88 0.14 M0.57 -0.43 C66.82 -0.02, 132.47 -0.89, 180.28 0.69 M181.66 1.54 C181.88 22.02, 178.52 46.44, 179.27 65.66 M179.15 0.17 C179.86 22.49, 178.62 44.59, 180.83 64.21 M181.86 63.71 C133.5 66.48, 90.21 63.6, -1.86 65.86 M179.77 63.85 C131.09 63.07, 83.96 62.61, -0.2 64.21 M1.22 65.75 C0.6 41.93, -1.82 17.99, 0.76 -1.59 M0.68 64.52 C0.42 44.99, 0.14 25.92, 0.73 0.03" stroke="#3b82f6" stroke-width="2" fill="none"></path></g><g transform="translate(80.2545575902559 357) rotate(0 39.64997100830078 25)"><text x="39.64997100830078" y="NaN" font-family="Virgil, Segoe UI Emoji" font-size="20px" fill="#ffffff" text-anchor="middle" style="white-space: pre;" direction="ltr">Data A</text><text x="39.64997100830078" y="NaN" font-family="Virgil, Segoe UI Emoji" font-size="20px" fill="#ffffff" text-anchor="middle" style="white-space: pre;" direction="ltr">Worker 1</text></g><g stroke-linecap="round" transform="translate(30 515) rotate(0 90 32)"><path d="M0.15 1.9 L180.25 -0.63 L178 63.33 L-1.32 63.91" stroke="none" stroke-width="0" fill="#2d6a4f"></path><path d="M1.22 -1.82 C53.93 -3.26, 105.75 -3.64, 181.93 -0.5 M-0.09 -0.44 C50.75 0.49, 103.2 0.89, 180.53 0.85 M180.7 -0.8 C178.15 26.08, 178.14 49.48, 180.75 64.11 M179.93 -0.57 C180.14 18.6, 180.21 38.28, 179.6 64.65 M181.87 65.31 C111.33 61.66, 45.36 63.53, -1.3 62.62 M179.51 64.53 C109.7 64.32, 37.89 65.22, -0.7 64.65 M-0.82 63.07 C0.69 48.96, 1.93 31.62, -1.24 1.6 M0.24 64.75 C0.69 41.6, 0.96 16.99, 0.13 0.33" stroke="#40916c" stroke-width="2" fill="none"></path></g><g transform="translate(81.65001678466797 534.5) rotate(0 38.34998321533203 12.5)"><text x="38.34998321533203" y="NaN" font-family="Virgil, Segoe UI Emoji" font-size="20px" fill="#ffffff" text-anchor="middle" style="white-space: pre;" direction="ltr">Data A</text></g><g stroke-linecap="round" transform="translate(310 345) rotate(0 90 42.5)"><path d="M0.22 -0.25 L179.88 0.12 L178.78 86.88 L-1.24 84.39" stroke="none" stroke-width="0" fill="#1e40af"></path><path d="M-1.07 -0.19 C52.91 -0.19, 108.28 -0.83, 178.41 1.69 M0.01 -0.57 C64.13 0.69, 127.81 0.55, 180.85 0.28 M180.08 -1.81 C180.34 17.22, 178.56 34.14, 178.04 83.17 M180.92 0.77 C180.09 27.92, 179.99 54.21, 180.51 85.59 M178.02 84.7 C123.76 84.46, 69.72 85.11, -0.2 86.51 M179.12 85.65 C121.26 83.79, 63.26 84.89, 0.77 85.65 M0.81 83.95 C1.72 63.39, -0.04 39.68, 0.79 -1.67 M0.37 85.82 C0.66 57.6, -0.18 28.84, 0.78 -0.97" stroke="#3b82f6" stroke-width="2" fill="none"></path></g><g transform="translate(355.9400329589844 362.5) rotate(0 44.059967041015625 25)"><text x="44.059967041015625" y="NaN" font-family="Virgil, Segoe UI Emoji" font-size="20px" fill="#ffffff" text-anchor="middle" style="white-space: pre;" direction="ltr">Data B</text><text x="44.059967041015625" y="NaN" font-family="Virgil, Segoe UI Emoji" font-size="20px" fill="#ffffff" text-anchor="middle" style="white-space: pre;" direction="ltr">Worker 2</text></g><g stroke-linecap="round" transform="translate(310 515) rotate(0 90 32)"><path d="M1.12 -0.04 L179.39 -1.58 L179.75 62.61 L-1.68 64.23" stroke="none" stroke-width="0" fill="#2d6a4f"></path><path d="M-0.44 -1.35 C63.46 -1.5, 123.23 0.51, 178.47 1.05 M-0.64 -0.58 C50.06 1.2, 98.54 2.34, 179.1 0.44 M179.13 -0.14 C180.51 13.05, 178.09 28.73, 179.52 64.62 M179.7 0.03 C180.25 17.28, 179.47 36.41, 179.28 63.02 M178.04 65.29 C137.58 62.64, 96.87 64.04, 0.36 62.28 M180.85 63.33 C133.87 64.04, 89.19 64.5, 0.27 63.09 M-1.23 64.27 C0.42 38.44, -1.67 18.37, -1.2 1.53 M-0.06 63.05 C0.76 40.02, 0.47 14.55, 0.19 -0.67" stroke="#40916c" stroke-width="2" fill="none"></path></g><g transform="translate(360.9400177001953 534.5) rotate(0 39.05998229980469 12.5)"><text x="39.05998229980469" y="NaN" font-family="Virgil, Segoe UI Emoji" font-size="20px" fill="#ffffff" text-anchor="middle" style="white-space: pre;" direction="ltr">Data B</text></g><g stroke-linecap="round" transform="translate(590 345) rotate(0 90 42.5)"><path d="M1.19 1.81 L179.02 -0.83 L180.53 86.16 L-1.6 84.7" stroke="none" stroke-width="0" fill="#1e40af"></path><path d="M1.27 0.28 C62.45 1.58, 125.75 -0.68, 178.95 -0.76 M-0.54 -0.71 C61.44 1.4, 125.15 0, 179.42 -0.14 M178.51 -1.15 C178.66 21.64, 178.48 40.27, 180.82 83.68 M180.69 -0.64 C180.78 26.08, 179.83 51.3, 180.2 85.96 M178.18 84.68 C118.02 85.44, 53.22 85.62, 1.46 86.16 M180.46 84.45 C111.42 83.51, 42.56 84.18, -0.26 84.08 M0.4 85.16 C1.15 67.1, 0.05 50.89, 0.83 -1.74 M0.06 84.12 C0.7 55.47, 1.31 25.27, 0.84 0.04" stroke="#3b82f6" stroke-width="2" fill="none"></path></g><g transform="translate(636.2500305175781 362.5) rotate(0 43.749969482421875 25)"><text x="43.749969482421875" y="NaN" font-family="Virgil, Segoe UI Emoji" font-size="20px" fill="#ffffff" text-anchor="middle" style="white-space: pre;" direction="ltr">Data C</text><text x="43.749969482421875" y="NaN" font-family="Virgil, Segoe UI Emoji" font-size="20px" fill="#ffffff" text-anchor="middle" style="white-space: pre;" direction="ltr">Worker 3</text></g><g stroke-linecap="round" transform="translate(590 515) rotate(0 90 32)"><path d="M-1.91 -1.99 L178.53 1.47 L181.51 65.88 L1.96 64.54" stroke="none" stroke-width="0" fill="#2d6a4f"></path><path d="M1.91 -0.87 C69 0.27, 140.7 0.65, 179 -1.4 M0.8 -0.72 C47.37 -1.69, 95.88 -1.81, 179.68 0.02 M181.55 0.52 C178.87 16.83, 178.04 33.58, 178.3 65.13 M179.47 0.62 C179.08 15.95, 179.44 32.53, 180.97 63.4 M178.2 65.28 C131.84 67.22, 80.37 64.15, -1.98 65.93 M180.2 64.13 C124.04 63.76, 68.49 63.78, -0.76 63.52 M-1.65 65.48 C1.44 44.72, 0.01 26.71, -1.17 1.45 M-0.37 63.35 C0.82 51.25, -0.03 35.71, 0.25 0.34" stroke="#40916c" stroke-width="2" fill="none"></path></g><g transform="translate(641.77001953125 534.5) rotate(0 38.22998046875 12.5)"><text x="38.22998046875" y="NaN" font-family="Virgil, Segoe UI Emoji" font-size="20px" fill="#ffffff" text-anchor="middle" style="white-space: pre;" direction="ltr">Data C</text></g><g stroke-linecap="round"><g transform="translate(354.6549512108175 80) rotate(0 -121.32865657562263 132)"><path d="M-0.78 -0.23 C-41.34 44.01, -201.71 220.28, -242.2 264.37 M1.01 -1.4 C-39.77 42.57, -202.51 217.92, -242.91 262.45" stroke="#94a3b8" stroke-width="2" fill="none"></path></g><g transform="translate(354.6549512108175 80) rotate(0 -121.32865657562263 132)"><path d="M-231.77 235.5 C-235.59 243.83, -240.29 254.92, -243.43 263.24 M-230.49 233.9 C-234.94 244.29, -239.33 252.9, -242.92 261.9" stroke="#94a3b8" stroke-width="2" fill="none"></path></g><g transform="translate(354.6549512108175 80) rotate(0 -121.32865657562263 132)"><path d="M-216.67 249.39 C-226.35 252.11, -237.03 257.7, -243.43 263.24 M-215.38 247.79 C-224.81 253.38, -234.25 257.34, -242.92 261.9" stroke="#94a3b8" stroke-width="2" fill="none"></path></g></g><g transform="translate(171.51794007538274 167) rotate(0 60.95195770263672 10)"><text x="60.95195770263672" y="NaN" font-family="Virgil, Segoe UI Emoji" font-size="16px" fill="#94a3b8" text-anchor="middle" style="white-space: pre;" direction="ltr">assign partition</text></g><g stroke-linecap="round"><g transform="translate(406.34022204615565 80) rotate(0 12.409751219389477 129.5)"><path d="M-0.1 0.15 C4.11 24.98, 23.84 105.58, 24.58 148.65 C25.32 191.72, 7.85 240.21, 4.35 258.56 M-1.62 -0.82 C2.48 24.19, 22.54 106.49, 23.51 149.9 C24.47 193.31, 7.42 241.34, 4.18 259.64" stroke="#94a3b8" stroke-width="2" fill="none"></path></g><g transform="translate(406.34022204615565 80) rotate(0 12.409751219389477 129.5)"><path d="M1.19 229.42 C0.72 238.9, 1.68 244.86, 3.71 259.79 M1.18 228.95 C2.92 236.75, 2.61 244.93, 4.43 259.25" stroke="#94a3b8" stroke-width="2" fill="none"></path></g><g transform="translate(406.34022204615565 80) rotate(0 12.409751219389477 129.5)"><path d="M21.12 234.31 C15.85 242.6, 12 247.37, 3.71 259.79 M21.11 233.85 C17.76 240.44, 12.4 247.38, 4.43 259.25" stroke="#94a3b8" stroke-width="2" fill="none"></path></g></g><g transform="translate(370.8729414009232 193.25887153165135) rotate(0 60.95195770263672 10)"><text x="60.95195770263672" y="NaN" font-family="Virgil, Segoe UI Emoji" font-size="16px" fill="#94a3b8" text-anchor="middle" style="white-space: pre;" direction="ltr">assign partition</text></g><g stroke-linecap="round"><g transform="translate(438.26020790585335 80) rotate(0 119.63723421021035 129.5)"><path d="M0.57 0.53 C11.35 16.04, 24.55 50.65, 64.49 93.53 C104.44 136.41, 211.2 230.28, 240.23 257.81 M-0.59 -0.24 C10.57 14.91, 26.62 48.77, 66.72 91.9 C106.81 135.02, 211.32 230.54, 239.97 258.51" stroke="#94a3b8" stroke-width="2" fill="none"></path></g><g transform="translate(438.26020790585335 80) rotate(0 119.63723421021035 129.5)"><path d="M213.32 245.04 C221.91 251.47, 226.27 252.27, 239.56 258.01 M212.03 245.72 C222.18 251.58, 232.71 255.9, 240.47 258.28" stroke="#94a3b8" stroke-width="2" fill="none"></path></g><g transform="translate(438.26020790585335 80) rotate(0 119.63723421021035 129.5)"><path d="M227.42 230.13 C232.03 240.9, 232.36 245.97, 239.56 258.01 M226.13 230.81 C230.98 242.13, 236.26 252.02, 240.47 258.28" stroke="#94a3b8" stroke-width="2" fill="none"></path></g></g><g transform="translate(442.7310828872721 162.60480844416023) rotate(0 60.95195770263672 10)"><text x="60.95195770263672" y="NaN" font-family="Virgil, Segoe UI Emoji" font-size="16px" fill="#94a3b8" text-anchor="middle" style="white-space: pre;" direction="ltr">assign partition</text></g><g stroke-linecap="round"><g transform="translate(120.018 509) rotate(0 -0.04773570072165967 -44.5)"><path d="M1.19 1.18 C1.4 -13.45, 0.93 -73.24, 0.64 -88.26 M0.36 0.75 C0.53 -14.17, 0.39 -75.27, 0.08 -89.99" stroke="#40916c" stroke-width="2" fill="none"></path></g><g transform="translate(120.018 509) rotate(0 -0.04773570072165967 -44.5)"><path d="M12.58 -60.67 C9.38 -69.41, 5.68 -73.83, 0.1 -91.64 M10.96 -62.89 C6.7 -70.61, 2.73 -79.64, 0.64 -90.95" stroke="#40916c" stroke-width="2" fill="none"></path></g><g transform="translate(120.018 509) rotate(0 -0.04773570072165967 -44.5)"><path d="M-7.94 -60.47 C-6.09 -69.46, -4.74 -73.93, 0.1 -91.64 M-9.56 -62.69 C-7.18 -70.6, -4.49 -79.69, 0.64 -90.95" stroke="#40916c" stroke-width="2" fill="none"></path></g></g><g transform="translate(80.27428804195412 454.5) rotate(0 39.69597625732422 10)"><text x="39.69597625732422" y="NaN" font-family="Virgil, Segoe UI Emoji" font-size="16px" fill="#40916c" text-anchor="middle" style="white-space: pre;" direction="ltr">local read</text></g><g stroke-linecap="round"><g transform="translate(400.01800000000003 509) rotate(0 0 -36.49999999999997)"><path d="M-0.53 -0.84 C-0.51 -13.09, 0.06 -61.04, 0.05 -73.18 M1.39 1.33 C1.27 -10.75, -0.37 -59.4, -0.88 -71.74" stroke="#40916c" stroke-width="2" fill="none"></path></g><g transform="translate(400.01800000000003 509) rotate(0 0 -36.49999999999997)"><path d="M9 -43.86 C6.76 -53.07, 2.67 -60.03, -0.81 -70.04 M10.09 -42.94 C7.92 -51.4, 4.03 -56.8, -0.06 -72.54" stroke="#40916c" stroke-width="2" fill="none"></path></g><g transform="translate(400.01800000000003 509) rotate(0 0 -36.49999999999997)"><path d="M-11.51 -43.11 C-7.78 -52.45, -5.91 -59.62, -0.81 -70.04 M-10.41 -42.19 C-7.6 -50.79, -6.51 -56.37, -0.06 -72.54" stroke="#40916c" stroke-width="2" fill="none"></path></g></g><g transform="translate(360.3220237426758 462.5) rotate(0 39.69597625732422 10)"><text x="39.69597625732422" y="NaN" font-family="Virgil, Segoe UI Emoji" font-size="16px" fill="#40916c" text-anchor="middle" style="white-space: pre;" direction="ltr">local read</text></g><g stroke-linecap="round"><g transform="translate(680.018 509) rotate(0 5.684341886080802e-14 -36.49999999999997)"><path d="M0.14 -0.46 C-0.04 -12.99, -0.49 -62.18, -0.65 -74.1 M-1.24 -1.75 C-1.06 -13.65, 1.23 -61.13, 1.73 -73.14" stroke="#40916c" stroke-width="2" fill="none"></path></g><g transform="translate(680.018 509) rotate(0 5.684341886080802e-14 -36.49999999999997)"><path d="M9.95 -45.6 C5.61 -55.41, 6.08 -65.25, 1.85 -72.09 M9.75 -43.54 C8.49 -54.48, 3.49 -64.22, 0.8 -73.79" stroke="#40916c" stroke-width="2" fill="none"></path></g><g transform="translate(680.018 509) rotate(0 5.684341886080802e-14 -36.49999999999997)"><path d="M-10.55 -46.52 C-8 -56.04, -0.64 -65.58, 1.85 -72.09 M-10.75 -44.45 C-4.6 -55.26, -2.18 -64.66, 0.8 -73.79" stroke="#40916c" stroke-width="2" fill="none"></path></g></g><g transform="translate(640.3220237426758 462.5) rotate(0 39.69597625732422 10)"><text x="39.69597625732422" y="NaN" font-family="Virgil, Segoe UI Emoji" font-size="16px" fill="#40916c" text-anchor="middle" style="white-space: pre;" direction="ltr">local read</text></g><g stroke-linecap="round"><g transform="translate(70.19630730717198 344.00000000000006) rotate(0 123.37312073953933 -132.00000000000003)"><path d="M-0.22 0.68 C18.01 -30.69, 67.69 -143.31, 109.04 -187.23 C150.38 -231.15, 224.76 -250.07, 247.86 -262.83" stroke="#d97706" stroke-width="2.5" fill="none" stroke-dasharray="8 10"></path></g><g transform="translate(70.19630730717198 344.00000000000006) rotate(0 123.37312073953933 -132.00000000000003)"><path d="M227.01 -242.95 C233.21 -246.05, 239.56 -251.89, 248.14 -263.71" stroke="#d97706" stroke-width="2.5" fill="none"></path></g><g transform="translate(70.19630730717198 344.00000000000006) rotate(0 123.37312073953933 -132.00000000000003)"><path d="M219.03 -261.86 C227.55 -259.82, 236.06 -260.54, 248.14 -263.71" stroke="#d97706" stroke-width="2.5" fill="none"></path></g></g><g transform="translate(136.63942027556737 128.32968187705958) rotate(0 27.671974182128906 10)"><text x="27.671974182128906" y="NaN" font-family="Virgil, Segoe UI Emoji" font-size="16px" fill="#d97706" text-anchor="middle" style="white-space: pre;" direction="ltr">results</text></g><g stroke-linecap="round"><g transform="translate(370.4988751285162 339) rotate(0 -13.66211535910557 -129.5)"><path d="M0.45 1.06 C-4.3 -24.1, -28.28 -108.34, -28.34 -151.61 C-28.4 -194.89, -4.48 -240.71, 0.09 -258.58" stroke="#d97706" stroke-width="2.5" fill="none" stroke-dasharray="8 10"></path></g><g transform="translate(370.4988751285162 339) rotate(0 -13.66211535910557 -129.5)"><path d="M2.01 -230.26 C0.37 -236.48, 1.02 -247.63, 0.43 -260.1" stroke="#d97706" stroke-width="2.5" fill="none"></path></g><g transform="translate(370.4988751285162 339) rotate(0 -13.66211535910557 -129.5)"><path d="M-17.3 -237.18 C-12.89 -241.28, -6.14 -250.25, 0.43 -260.1" stroke="#d97706" stroke-width="2.5" fill="none"></path></g></g><g transform="translate(313.98358987322774 125.62729663780934) rotate(0 27.671974182128906 10)"><text x="27.671974182128906" y="NaN" font-family="Virgil, Segoe UI Emoji" font-size="16px" fill="#d97706" text-anchor="middle" style="white-space: pre;" direction="ltr">results</text></g><g stroke-linecap="round"><g transform="translate(727.5616441936781 339) rotate(0 -126.1701675617906 -129.5)"><path d="M1.13 -0.96 C-13.65 -26.39, -45.82 -109.39, -87.94 -152.45 C-130.06 -195.51, -223.99 -241.6, -251.57 -259.32" stroke="#d97706" stroke-width="2.5" fill="none" stroke-dasharray="8 10"></path></g><g transform="translate(727.5616441936781 339) rotate(0 -126.1701675617906 -129.5)"><path d="M-223.62 -252.99 C-234.21 -254.45, -243.87 -259.36, -251.18 -257.49" stroke="#d97706" stroke-width="2.5" fill="none"></path></g><g transform="translate(727.5616441936781 339) rotate(0 -126.1701675617906 -129.5)"><path d="M-233.85 -235.2 C-240.78 -243.18, -246.75 -254.5, -251.18 -257.49" stroke="#d97706" stroke-width="2.5" fill="none"></path></g></g><g transform="translate(568.5070275965048 127.3543334465389) rotate(0 27.671974182128906 10)"><text x="27.671974182128906" y="NaN" font-family="Virgil, Segoe UI Emoji" font-size="16px" fill="#d97706" text-anchor="middle" style="white-space: pre;" direction="ltr">results</text></g><g stroke-opacity="0.8" fill-opacity="0.8" transform="translate(295.6360397338867 620) rotate(0 104.36396026611328 22.5)"><text x="104.36396026611328" y="NaN" font-family="Virgil, Segoe UI Emoji" font-size="18px" fill="#a6adc8" text-anchor="middle" style="white-space: pre;" direction="ltr">Move compute to data,</text><text x="104.36396026611328" y="NaN" font-family="Virgil, Segoe UI Emoji" font-size="18px" fill="#a6adc8" text-anchor="middle" style="white-space: pre;" direction="ltr">not data to compute</text></g></svg>