<svg version="1.1" xmlns="http://www.w3.org/2000/svg" viewBox="0 0 1494.7440908877418 745.832181377688" width="1494.7440908877418" height="745.832181377688">
  <!-- svg-source:excalidraw -->
  
  <defs>
    <style>
      @font-face {
        font-family: "Virgil";
        src: url("https://excalidraw.com/Virgil.woff2");
      }
      @font-face {
        font-family: "Cascadia";
        src: url("https://excalidraw.com/Cascadia.woff2");
      }
    </style>
  </defs>
  <rect x="0" y="0" width="1494.7440908877418" height="745.832181377688" fill="#1e1e2e"></rect><g stroke-opacity="0.6" fill-opacity="0.6" stroke-linecap="round" transform="translate(24.744090887741777 10) rotate(0 730 135)"><path d="M0.24 1.37 L1461.92 -0.05 L1459.9 270.86 L-1.08 269.81" stroke="none" stroke-width="0" fill="#181825"></path><path d="M0.23 0.07 C565.27 -1.16, 1130.35 -0.91, 1459.48 -0.47 M1460.23 -1.23 C1459.58 72.76, 1459.48 147.52, 1461.42 270.18 M1460.65 270.14 C983.83 264.63, 507.25 265.2, -0.15 269.91 M0.03 271.54 C-0.19 199.82, -0.59 130.77, 0.98 1.2" stroke="#45475a" stroke-width="2.5" fill="none" stroke-dasharray="8 10"></path></g><g transform="translate(45.06662098742345 20) rotate(0 84.33893585205078 11.25)"><text x="0" y="NaN" font-family="Virgil, Segoe UI Emoji" font-size="18px" fill="#a6adc8" text-anchor="start" style="white-space: pre;" direction="ltr">Online Serving Path</text></g><g stroke-opacity="0.6" fill-opacity="0.6" stroke-linecap="round" transform="translate(9.999999999999943 395.832181377688) rotate(0 730 170)"><path d="M1.5 -0.54 L1461.83 0.17 L1459.05 340.99 L-1.85 341.07" stroke="none" stroke-width="0" fill="#181825"></path><path d="M0 0.01 C564.78 6.04, 1131.11 4.87, 1459.81 0.16 M1459.4 0.36 C1457.38 119.78, 1458.08 241.89, 1460.78 338.84 M1459.91 340.54 C881.78 340.33, 304.08 339.5, 0.48 340.12 M-1.05 339.71 C2.79 227.74, 2.58 115.09, 0.33 0.24" stroke="#45475a" stroke-width="2.5" fill="none" stroke-dasharray="8 10"></path></g><g transform="translate(123.21139535957775 403.25089905524) rotate(0 91.51192474365234 11.25)"><text x="0" y="NaN" font-family="Virgil, Segoe UI Emoji" font-size="18px" fill="#a6adc8" text-anchor="start" style="white-space: pre;" direction="ltr">Offline Training Loop</text></g><g stroke-linecap="round" transform="translate(65.06662098742345 108) rotate(0 90 32)"><path d="M-0.09 0.43 L181 1.25 L180.76 62.82 L1.94 64.55" stroke="none" stroke-width="0" fill="#2d6a4f"></path><path d="M-0.57 -0.12 C71.02 -1.63, 138.21 -0.14, 180.35 1.96 M0.96 -0.67 C44.32 1.28, 86.88 1.81, 180.27 0.14 M181.92 -1.66 C181.19 15.23, 181.52 34.72, 178.76 64.81 M180.4 0.59 C180.2 13.56, 180.13 25.82, 179.88 63.59 M180.38 62.19 C138.34 66.95, 92.8 67.53, -0.76 63.57 M180.24 64.32 C116.81 62.42, 54.5 62.34, 0.59 63.49 M1.69 63.22 C1.47 47, -0.82 30.07, -0.74 -1.25 M0.53 64.44 C0.26 46.75, 0.01 30.24, -0.54 -0.15" stroke="#40916c" stroke-width="2" fill="none"></path></g><g transform="translate(128.01664845324376 127.5) rotate(0 27.049972534179688 12.5)"><text x="27.049972534179688" y="NaN" font-family="Virgil, Segoe UI Emoji" font-size="20px" fill="#ffffff" text-anchor="middle" style="white-space: pre;" direction="ltr">Client</text></g><g stroke-linecap="round" transform="translate(459.16084269767293 108) rotate(0 90 32)"><path d="M1.51 -1.88 L181.19 0.49 L181.77 63.75 L1.65 62.68" stroke="none" stroke-width="0" fill="#2d6a4f"></path><path d="M-1.14 -0.26 C69.75 -2.43, 139.97 -0.52, 181.17 -0.47 M0.36 0.39 C59.45 1.02, 117.97 1.28, 179.95 -0.85 M180.07 -0.65 C180.41 20.63, 179.5 41.12, 180.32 65.34 M179.59 -0.61 C180.69 16.83, 180.72 35.34, 179.51 65 M180.59 65.34 C127.18 66.1, 71.5 64.51, -1.41 65.96 M180.47 63.74 C133.8 62.3, 88.37 63.13, 0.35 63.65 M-1.19 62.09 C-0.78 52.26, 2 37.54, 1.63 1.93 M-0.6 64.44 C-1.14 44.61, 0.64 23.59, -0.78 -0.2" stroke="#40916c" stroke-width="2" fill="none"></path></g><g transform="translate(508.2708661962081 127.5) rotate(0 40.889976501464844 12.5)"><text x="40.889976501464844" y="NaN" font-family="Virgil, Segoe UI Emoji" font-size="20px" fill="#ffffff" text-anchor="middle" style="white-space: pre;" direction="ltr">Rec API</text></g><g stroke-linecap="round" transform="translate(836.0921078263971 89.82106164708881) rotate(0 115 52)"><path d="M-0.89 -0.2 L231.37 -0.26 L228.79 104.69 L1.35 104.81" stroke="none" stroke-width="0" fill="#1e40af"></path><path d="M-1.45 -0.35 C88.02 0.52, 176.72 2.5, 231.7 0.94 M-0.2 -0.47 C49.13 -1.1, 98.18 -1.12, 229.68 0.14 M228.22 0.35 C230.57 21.48, 228.42 42.41, 231.88 105.86 M230.78 0.19 C228.81 36.13, 228.94 72.93, 229.13 104.4 M230.68 104.41 C147.66 105.4, 63.77 105.6, 1.64 104.29 M230.59 103.29 C147.01 104.18, 64.58 103.96, 0.09 103.85 M-0.07 104.97 C-0.46 66.71, -0.61 31.39, -0.01 1.1 M0.27 104.43 C-0.93 65.56, -1.12 27.11, 0.99 -0.25" stroke="#3b82f6" stroke-width="2" fill="none"></path></g><g transform="translate(868.2821789323541 104.32106164708881) rotate(0 82.80992889404297 37.5)"><text x="82.80992889404297" y="NaN" font-family="Virgil, Segoe UI Emoji" font-size="20px" fill="#ffffff" text-anchor="middle" style="white-space: pre;" direction="ltr">Candidate</text><text x="82.80992889404297" y="NaN" font-family="Virgil, Segoe UI Emoji" font-size="20px" fill="#ffffff" text-anchor="middle" style="white-space: pre;" direction="ltr">Generation</text><text x="82.80992889404297" y="NaN" font-family="Virgil, Segoe UI Emoji" font-size="20px" fill="#ffffff" text-anchor="middle" style="white-space: pre;" direction="ltr">(Tune for recall)</text></g><g stroke-linecap="round" transform="translate(1219.4665249749403 94.03195617267545) rotate(0 115 52)"><path d="M0.71 1.49 L231.55 -1.02 L229.8 105.62 L1.05 102.94" stroke="none" stroke-width="0" fill="#5b21b6"></path><path d="M1.46 -0.47 C90.34 -0.51, 178.22 -1.56, 229 -1.13 M-0.7 0.43 C68.57 -1.2, 136.06 -1.45, 229.41 -0.7 M230.36 1.35 C231.12 29.68, 227.75 58.4, 229.44 102.38 M229.97 1 C231.09 23.54, 231.31 46.75, 230.76 103.81 M230.86 103.69 C179.35 104.66, 124.61 106.41, 1.09 102.92 M230.78 104.51 C170.57 104.27, 109.91 104.83, -0.12 103.99 M1.04 103.84 C1.72 74.09, 2.64 43.09, -1.64 0.28 M-0.86 104.42 C1.57 80.01, 1.4 55.66, 0.75 -0.29" stroke="#7c3aed" stroke-width="2" fill="none"></path></g><g transform="translate(1236.9566220208387 108.53195617267545) rotate(0 97.50990295410156 37.5)"><text x="97.50990295410156" y="NaN" font-family="Virgil, Segoe UI Emoji" font-size="20px" fill="#ffffff" text-anchor="middle" style="white-space: pre;" direction="ltr">Ranking</text><text x="97.50990295410156" y="NaN" font-family="Virgil, Segoe UI Emoji" font-size="20px" fill="#ffffff" text-anchor="middle" style="white-space: pre;" direction="ltr">Model</text><text x="97.50990295410156" y="NaN" font-family="Virgil, Segoe UI Emoji" font-size="20px" fill="#ffffff" text-anchor="middle" style="white-space: pre;" direction="ltr">(Tune for Precision)</text></g><g stroke-linecap="round" transform="translate(837.7828013859806 507.379239563841) rotate(0 110.00000000000006 32)"><path d="M-1.69 -0.83 L221.73 -1.77 L220.82 62.56 L0.75 65.07" stroke="none" stroke-width="0" fill="#b45309"></path><path d="M1 -0.6 C85.39 2.34, 172.01 1.64, 219.69 0.21 M0.5 -0.38 C84.18 -1.29, 167.97 -0.06, 220.85 0.16 M218.51 -1.65 C217.89 24.04, 221.28 42.71, 221.01 62.9 M219.16 -0.2 C219.46 19.83, 219.77 38.33, 220.39 63.22 M221.06 62.94 C157.94 63.85, 92.6 63.76, 0.54 64.97 M219.26 64.02 C140.09 66.02, 58.83 65.65, -0.33 64.14 M-1.84 62.72 C1.89 47.25, -0.12 34.36, 0.73 -0.55 M0.02 64.41 C-0.05 44.99, -0.2 27.24, 0.51 -0.34" stroke="#d97706" stroke-width="2" fill="none"></path></g><g transform="translate(876.7628657780705 526.879239563841) rotate(0 71.01993560791016 12.5)"><text x="71.01993560791016" y="NaN" font-family="Virgil, Segoe UI Emoji" font-size="20px" fill="#ffffff" text-anchor="middle" style="white-space: pre;" direction="ltr">Feature Store</text></g><g stroke-linecap="round" transform="translate(146.65325167829724 522.0711576224709) rotate(0 90 32)"><path d="M-0.09 0.86 L181.91 1.47 L181.83 63.5 L0.46 63.2" stroke="none" stroke-width="0" fill="#b45309"></path><path d="M0.58 -0.84 C68.64 1.54, 139.04 1.16, 180.47 1.81 M-0.01 0.62 C47.98 0.41, 96.34 -0.45, 180.66 -0.81 M180.66 -0.65 C178.38 12.64, 180.54 27.51, 178.57 63.43 M180.35 0.6 C181.23 23.1, 179.63 47.85, 180.02 64.63 M181.43 65.93 C118.53 66.7, 54.29 64.42, -0.03 63.5 M179.37 63.44 C131.76 62.22, 83.85 62.7, -0.63 64.32 M-0.72 65.59 C-0.36 39.71, -1.3 12.23, -0.91 -1.37 M0.89 64.41 C0.55 42.85, 0.43 20.59, 0.28 -0.39" stroke="#d97706" stroke-width="2" fill="none"></path></g><g transform="translate(207.4532699888441 541.5711576224709) rotate(0 29.199981689453125 12.5)"><text x="29.199981689453125" y="NaN" font-family="Virgil, Segoe UI Emoji" font-size="20px" fill="#ffffff" text-anchor="middle" style="white-space: pre;" direction="ltr">Kafka</text></g><g stroke-linecap="round" transform="translate(405.83079193356593 521.5734410264256) rotate(0 90 32)"><path d="M1.51 -1.45 L178.1 0.71 L178.85 64.43 L0.16 65.33" stroke="none" stroke-width="0" fill="#b45309"></path><path d="M0.01 -0.99 C71.37 -3.27, 140.8 -3.22, 181.3 -0.62 M-0.61 -0.32 C63.11 0.15, 127.43 1.02, 180.34 0.21 M178.8 0.36 C178.87 18.04, 179.8 37.91, 180.13 63.95 M179.54 -0.59 C179.72 15.57, 180.22 31.78, 179.64 64.04 M181.64 65.07 C143.37 65.85, 104.99 65.39, -0.68 65.89 M179.6 64.87 C112.75 64.1, 45.72 63.5, -0.87 64.49 M0.4 64.47 C0.1 40.98, 0.23 19.71, 1.46 1.8 M-0.24 64.4 C-0.85 38.71, -0.95 13.94, 0.04 -0.44" stroke="#d97706" stroke-width="2" fill="none"></path></g><g transform="translate(475.7308087182339 541.0734410264256) rotate(0 20.09998321533203 12.5)"><text x="20.09998321533203" y="NaN" font-family="Virgil, Segoe UI Emoji" font-size="20px" fill="#ffffff" text-anchor="middle" style="white-space: pre;" direction="ltr">Flink</text></g><g stroke-linecap="round" transform="translate(398.82857761514174 640.331427239086) rotate(0 100 32)"><path d="M-0.89 0.23 L198.28 -0.04 L199.86 65.37 L-0.14 63.46" stroke="none" stroke-width="0" fill="#5b21b6"></path><path d="M-0.51 -1.02 C77.8 -0.34, 154.15 0.08, 198.31 0.85 M0.72 0.66 C47.11 -0.01, 96.05 0.52, 200.01 -0.71 M200.95 1.36 C199.37 23.44, 199.06 44.3, 201.69 64.47 M200.74 0.21 C200.22 20.84, 198.81 41.31, 199.27 63.45 M201.67 64.2 C146.48 65, 88.71 66.24, -1.2 64.25 M199.84 64.27 C144.28 64.04, 88.64 64.33, 0.79 64.59 M1.52 63.34 C0.57 46.24, -2.23 27.18, -0.17 0.98 M0.63 64.39 C1.03 47.37, 0.96 32.89, -0.2 -0.48" stroke="#7c3aed" stroke-width="2" fill="none"></path></g><g transform="translate(444.0386072171925 659.831427239086) rotate(0 54.78997039794922 12.5)"><text x="54.78997039794922" y="NaN" font-family="Virgil, Segoe UI Emoji" font-size="20px" fill="#ffffff" text-anchor="middle" style="white-space: pre;" direction="ltr">Data Lake</text></g><g stroke-linecap="round" transform="translate(845.0626711492914 630.411987899011) rotate(0 110 40)"><path d="M0.7 1.92 L218.46 -0.8 L220.88 78.31 L-0.44 81.59" stroke="none" stroke-width="0" fill="#5b21b6"></path><path d="M-0.98 -1.11 C84.43 -1.23, 171.21 -0.46, 219.09 -1.29 M0.17 -0.18 C72.23 1.67, 143.49 1.94, 219.74 0.2 M219.1 -1.64 C219.88 19.66, 218.33 36.34, 219.26 80.99 M219.93 -0.99 C220.09 30.39, 220.78 63.39, 220.9 80.86 M218.32 79.45 C143.73 80.32, 71.19 79.62, -1.73 78.84 M220.05 79.76 C135.66 81.89, 53.05 81.22, 0.55 80.72 M-1.37 78.21 C-1.65 59.76, 0.62 43.18, -1.8 0.16 M-0.5 80.39 C-0.32 56.38, -0.37 30.54, -0.43 -0.53" stroke="#7c3aed" stroke-width="2" fill="none"></path></g><g transform="translate(917.3227038031 645.411987899011) rotate(0 37.739967346191406 25)"><text x="37.739967346191406" y="NaN" font-family="Virgil, Segoe UI Emoji" font-size="20px" fill="#ffffff" text-anchor="middle" style="white-space: pre;" direction="ltr">Training</text><text x="37.739967346191406" y="NaN" font-family="Virgil, Segoe UI Emoji" font-size="20px" fill="#ffffff" text-anchor="middle" style="white-space: pre;" direction="ltr">Pipeline</text></g><g stroke-linecap="round" transform="translate(1225.2117842207203 634.3624794580976) rotate(0 115 32)"><path d="M-1.7 -0.39 L228.64 -1.55 L231.89 63.24 L-0.74 63.72" stroke="none" stroke-width="0" fill="#5b21b6"></path><path d="M-1.45 -1.21 C90.64 1.64, 177.04 2.76, 229.81 0.07 M-0.33 0.73 C48.9 1.6, 95.85 1.63, 229.47 -0.65 M231.24 -0.64 C230.36 17.44, 231.58 39.5, 230.82 65.52 M229.12 -0.19 C230.49 16.58, 229.27 34.77, 230.53 64.27 M228.54 62.73 C182.06 63.61, 138.64 64.48, 1.15 64.89 M230.24 63.27 C165.44 62.11, 99.07 62.23, 0.33 64.84 M-0.25 65.09 C-1.22 39.97, -1.88 16.53, 0.56 -0.67 M0.37 64.38 C0.24 41.09, 0.21 17.59, -0.67 -0.58" stroke="#7c3aed" stroke-width="2" fill="none"></path></g><g transform="translate(1268.7018507490407 653.8624794580976) rotate(0 71.50993347167969 12.5)"><text x="71.50993347167969" y="NaN" font-family="Virgil, Segoe UI Emoji" font-size="20px" fill="#ffffff" text-anchor="middle" style="white-space: pre;" direction="ltr">Model Registry</text></g><g stroke-linecap="round"><g transform="translate(251.06662098742345 140.00639999999999) rotate(0 101.04711085512471 0)"><path d="M-0.02 1.03 C33.33 0.96, 167.4 0.45, 201.16 0.32 M-1.49 0.53 C32.14 0.02, 169.47 -1.83, 203.37 -1.64" stroke="#40916c" stroke-width="2" fill="none"></path></g><g transform="translate(251.06662098742345 140.00639999999999) rotate(0 101.04711085512471 0)"><path d="M176.96 7.21 C186.61 5.43, 197.37 -0.86, 203.98 0.02 M174.25 8.69 C184.08 6.36, 191.38 3.04, 202.43 -1.39" stroke="#40916c" stroke-width="2" fill="none"></path></g><g transform="translate(251.06662098742345 140.00639999999999) rotate(0 101.04711085512471 0)"><path d="M176.85 -13.31 C186.66 -7.14, 197.47 -5.48, 203.98 0.02 M174.14 -11.83 C183.86 -8.1, 191.19 -5.36, 202.43 -1.39" stroke="#40916c" stroke-width="2" fill="none"></path></g></g><g transform="translate(308.99476669362235 128.75639999999999) rotate(0 43.11896514892578 11.25)"><text x="43.11896514892578" y="NaN" font-family="Virgil, Segoe UI Emoji" font-size="18px" fill="#cdd6f4" text-anchor="middle" style="white-space: pre;" direction="ltr">1. request</text></g><g stroke-linecap="round"><g transform="translate(645.1608426976729 140.06200503496166) rotate(0 92.46563256436207 0.8569257885827284)"><path d="M0.95 0.69 C31.43 1.04, 153.11 1.28, 183.91 1.26 M0 0.01 C30.74 0.6, 155.18 2.34, 186.08 2.57" stroke="#3b82f6" stroke-width="2" fill="none"></path></g><g transform="translate(645.1608426976729 140.06200503496166) rotate(0 92.46563256436207 0.8569257885827284)"><path d="M158.93 10.8 C168.06 9.77, 177.93 4.09, 187.51 1.79 M158.19 13.48 C168.73 8.72, 179.08 4.4, 186.81 1.83" stroke="#3b82f6" stroke-width="2" fill="none"></path></g><g transform="translate(645.1608426976729 140.06200503496166) rotate(0 92.46563256436207 0.8569257885827284)"><path d="M159.16 -9.72 C168.06 -2.8, 177.84 -0.53, 187.51 1.79 M158.42 -7.04 C168.95 -3.99, 179.22 -0.49, 186.81 1.83" stroke="#3b82f6" stroke-width="2" fill="none"></path></g></g><g transform="translate(689.9805173152577 129.66893082354437) rotate(0 47.645957946777344 11.25)"><text x="47.645957946777344" y="NaN" font-family="Virgil, Segoe UI Emoji" font-size="18px" fill="#cdd6f4" text-anchor="middle" style="white-space: pre;" direction="ltr">2. retrieve</text></g><g stroke-linecap="round"><g transform="translate(1072.092107826397 141.99619164328533) rotate(0 70.68720857427161 1.9407172665968062)"><path d="M-0.47 0.35 C22.73 1.2, 116.42 4.48, 140.26 5.06 M1.48 -0.51 C24.95 0.04, 118.9 2.62, 142.39 3.56" stroke="#3b82f6" stroke-width="2" fill="none"></path></g><g transform="translate(1072.092107826397 141.99619164328533) rotate(0 70.68720857427161 1.9407172665968062)"><path d="M114.46 11.04 C126.9 11.38, 135.89 6.37, 140.64 4.36 M113.7 12.93 C121.49 9.74, 129.24 8.45, 142.8 3.84" stroke="#3b82f6" stroke-width="2" fill="none"></path></g><g transform="translate(1072.092107826397 141.99619164328533) rotate(0 70.68720857427161 1.9407172665968062)"><path d="M115.13 -9.47 C127.31 -1.19, 136.03 1.75, 140.64 4.36 M114.37 -7.58 C121.88 -5.31, 129.45 -1.14, 142.8 3.84" stroke="#3b82f6" stroke-width="2" fill="none"></path></g></g><g transform="translate(1111.303455684439 132.68690890988216) rotate(0 31.553977966308594 11.25)"><text x="31.553977966308594" y="NaN" font-family="Virgil, Segoe UI Emoji" font-size="18px" fill="#cdd6f4" text-anchor="middle" style="white-space: pre;" direction="ltr">3. rank</text></g><g stroke-linecap="round"><g transform="translate(947.7764484956276 501.37923956384094) rotate(0 -0.712503829460104 -150.77908895837606)"><path d="M0.5 0.01 C-0.11 -50.31, -2.17 -251.05, -2.62 -301.14" stroke="#d97706" stroke-width="2.5" fill="none" stroke-dasharray="8 10"></path></g><g transform="translate(947.7764484956276 501.37923956384094) rotate(0 -0.712503829460104 -150.77908895837606)"><path d="M7.92 -275.05 C4.34 -285.25, 1.24 -293.11, -3.55 -302.78" stroke="#d97706" stroke-width="2.5" fill="none"></path></g><g transform="translate(947.7764484956276 501.37923956384094) rotate(0 -0.712503829460104 -150.77908895837606)"><path d="M-12.6 -274.85 C-8.23 -285.22, -3.38 -293.15, -3.55 -302.78" stroke="#d97706" stroke-width="2.5" fill="none"></path></g></g><g transform="translate(878.0519817755425 328.1001506054649) rotate(0 69.011962890625 22.5)"><text x="69.011962890625" y="NaN" font-family="Virgil, Segoe UI Emoji" font-size="18px" fill="#cdd6f4" text-anchor="middle" style="white-space: pre;" direction="ltr">User + Content</text><text x="69.011962890625" y="NaN" font-family="Virgil, Segoe UI Emoji" font-size="18px" fill="#cdd6f4" text-anchor="middle" style="white-space: pre;" direction="ltr">features</text></g><g stroke-linecap="round"><g transform="translate(1056.4969010464933 505.7784302394761) rotate(0 128.13990194680014 -150.87323703340036)"><path d="M-0.93 -0.34 C41.8 -50.55, 214.6 -251.81, 257.39 -302.1" stroke="#d97706" stroke-width="2.5" fill="none" stroke-dasharray="8 10"></path></g><g transform="translate(1056.4969010464933 505.7784302394761) rotate(0 128.13990194680014 -150.87323703340036)"><path d="M246.31 -272.15 C250.55 -285.52, 254.65 -296.95, 257.3 -302.17" stroke="#d97706" stroke-width="2.5" fill="none"></path></g><g transform="translate(1056.4969010464933 505.7784302394761) rotate(0 128.13990194680014 -150.87323703340036)"><path d="M230.71 -285.49 C240.91 -293.57, 251.05 -299.83, 257.3 -302.17" stroke="#d97706" stroke-width="2.5" fill="none"></path></g></g><g transform="translate(1115.6248401026685 332.40519320607575) rotate(0 69.011962890625 22.5)"><text x="69.011962890625" y="NaN" font-family="Virgil, Segoe UI Emoji" font-size="18px" fill="#cdd6f4" text-anchor="middle" style="white-space: pre;" direction="ltr">User + Content</text><text x="69.011962890625" y="NaN" font-family="Virgil, Segoe UI Emoji" font-size="18px" fill="#cdd6f4" text-anchor="middle" style="white-space: pre;" direction="ltr">features</text></g><g stroke-linecap="round"><g transform="translate(332.65325167829724 554.0398411239962) rotate(0 33.58877012763435 -0.21114179954798828)"><path d="M0.05 -0.68 C11.24 -0.94, 57.02 -1.7, 68.21 -1.54 M-1.39 1.58 C9.64 1.42, 56.51 -0.05, 67.8 -0.59" stroke="#d97706" stroke-width="2" fill="none"></path></g><g transform="translate(332.65325167829724 554.0398411239962) rotate(0 33.58877012763435 -0.21114179954798828)"><path d="M38.88 12.45 C48.92 6.28, 62.74 1.77, 68.53 0.91 M40.06 9.94 C48.14 6.4, 57.02 3.11, 67.24 -1.28" stroke="#d97706" stroke-width="2" fill="none"></path></g><g transform="translate(332.65325167829724 554.0398411239962) rotate(0 33.58877012763435 -0.21114179954798828)"><path d="M38.1 -8.06 C48.44 -6.28, 62.56 -2.84, 68.53 0.91 M39.28 -10.57 C47.76 -7.49, 56.9 -4.17, 67.24 -1.28" stroke="#d97706" stroke-width="2" fill="none"></path></g></g><g stroke-linecap="round"><g transform="translate(591.8307919335659 546.1841875992671) rotate(0 119.97600472620735 -3.316348717969845)"><path d="M0.53 0.35 C40.31 -0.68, 200.01 -4.58, 239.74 -5.74 M-0.65 -0.51 C38.86 -1.9, 198.36 -6.6, 238.68 -7.39" stroke="#d97706" stroke-width="2" fill="none"></path></g><g transform="translate(591.8307919335659 546.1841875992671) rotate(0 119.97600472620735 -3.316348717969845)"><path d="M211.34 3.23 C223.03 -2.52, 232.43 -4.67, 237.82 -9.1 M211.49 3.32 C221.04 0.28, 230.46 -4.5, 238.96 -6.57" stroke="#d97706" stroke-width="2" fill="none"></path></g><g transform="translate(591.8307919335659 546.1841875992671) rotate(0 119.97600472620735 -3.316348717969845)"><path d="M210.82 -17.29 C222.78 -15.09, 232.38 -9.29, 237.82 -9.1 M210.98 -17.2 C220.77 -12.74, 230.38 -10.04, 238.96 -6.57" stroke="#d97706" stroke-width="2" fill="none"></path></g></g><g transform="translate(681.1258121627029 531.6178388812973) rotate(0 30.680984497070312 11.25)"><text x="30.680984497070312" y="NaN" font-family="Virgil, Segoe UI Emoji" font-size="18px" fill="#cdd6f4" text-anchor="middle" style="white-space: pre;" direction="ltr">update</text></g><g stroke-linecap="round"><g transform="translate(248.79662551309752 592.071157622471) rotate(0 72.01597605102208 35.63567294445096)"><path d="M-0.89 0.01 C22.88 12.1, 119.68 59.34, 143.73 71.4 M0.84 -1.03 C24.34 11.38, 119.05 61.07, 142.62 73.01" stroke="#d97706" stroke-width="2" fill="none"></path></g><g transform="translate(248.79662551309752 592.071157622471) rotate(0 72.01597605102208 35.63567294445096)"><path d="M112.88 68.67 C124.58 69.81, 137.72 73.81, 142.59 72.86 M113.02 69.97 C120.18 70.17, 127.45 72.07, 142.59 72.83" stroke="#d97706" stroke-width="2" fill="none"></path></g><g transform="translate(248.79662551309752 592.071157622471) rotate(0 72.01597605102208 35.63567294445096)"><path d="M122.31 50.44 C130.18 58.57, 139.67 69.64, 142.59 72.86 M122.44 51.74 C127.13 56.51, 132.04 62.98, 142.59 72.83" stroke="#d97706" stroke-width="2" fill="none"></path></g></g><g stroke-linecap="round"><g transform="translate(604.8285776151417 672.2910951400688) rotate(0 117.11704676707484 -0.9121875710202403)"><path d="M-0.41 1.04 C38.6 0.82, 195.86 -1.67, 235.09 -2.08 M1.58 0.53 C40.41 0.56, 195.75 0, 234.59 -0.67" stroke="#d97706" stroke-width="2" fill="none"></path></g><g transform="translate(604.8285776151417 672.2910951400688) rotate(0 117.11704676707484 -0.9121875710202403)"><path d="M208.22 11.27 C217.03 7.12, 229.05 3.78, 232.97 -0.03 M207.35 9.17 C215.4 6.19, 222.74 2.9, 235.39 -1.34" stroke="#d97706" stroke-width="2" fill="none"></path></g><g transform="translate(604.8285776151417 672.2910951400688) rotate(0 117.11704676707484 -0.9121875710202403)"><path d="M208.03 -9.25 C216.78 -5.45, 228.88 -0.84, 232.97 -0.03 M207.15 -11.35 C215.45 -8.32, 222.85 -5.59, 235.39 -1.34" stroke="#d97706" stroke-width="2" fill="none"></path></g></g><g stroke-linecap="round"><g transform="translate(1071.0626711492914 670.268212780315) rotate(0 74.07455653571446 -1.8737791017607037)"><path d="M0.08 -0.34 C24.53 -1.01, 123.12 -3.78, 147.76 -4.39 M-1.34 -1.56 C22.83 -2.05, 121.89 -2.97, 146.61 -3.18" stroke="#d97706" stroke-width="2" fill="none"></path></g><g transform="translate(1071.0626711492914 670.268212780315) rotate(0 74.07455653571446 -1.8737791017607037)"><path d="M117.95 6.69 C128.37 2.82, 139.91 -2.31, 147.4 -1.76 M118.06 7.19 C127.54 3.17, 137.38 0.3, 146.25 -2.35" stroke="#d97706" stroke-width="2" fill="none"></path></g><g transform="translate(1071.0626711492914 670.268212780315) rotate(0 74.07455653571446 -1.8737791017607037)"><path d="M117.77 -13.83 C128.2 -9.75, 139.81 -6.92, 147.4 -1.76 M117.88 -13.33 C127.51 -10.45, 137.41 -6.43, 146.25 -2.35" stroke="#d97706" stroke-width="2" fill="none"></path></g></g><g transform="translate(887.347225675361 661.9384397290488) rotate(0 27.791976928710938 11.25)"><text x="27.791976928710938" y="NaN" font-family="Virgil, Segoe UI Emoji" font-size="18px" fill="#cdd6f4" text-anchor="middle" style="white-space: pre;" direction="ltr">publish</text></g><g stroke-linecap="round"><g transform="translate(1340.2026934042854 628.3624794580977) rotate(0 -2.2161739629253816 -212.16526164271113)"><path d="M1.05 -0.68 C0.53 -49.78, -1.16 -223.65, -2.05 -294.12 C-2.94 -364.6, -3.86 -401.98, -4.29 -423.52" stroke="#d97706" stroke-width="2.5" fill="none" stroke-dasharray="8 10"></path></g><g transform="translate(1340.2026934042854 628.3624794580977) rotate(0 -2.2161739629253816 -212.16526164271113)"><path d="M5.43 -396.34 C3.9 -406.07, -0.61 -417.53, -2.68 -424.53" stroke="#d97706" stroke-width="2.5" fill="none"></path></g><g transform="translate(1340.2026934042854 628.3624794580977) rotate(0 -2.2161739629253816 -212.16526164271113)"><path d="M-15.09 -395.91 C-8.67 -405.98, -5.23 -417.61, -2.68 -424.53" stroke="#d97706" stroke-width="2.5" fill="none"></path></g></g><g transform="translate(1283.6792920616942 310.7439987140907) rotate(0 54.944969177246094 22.5)"><text x="54.944969177246094" y="NaN" font-family="Virgil, Segoe UI Emoji" font-size="18px" fill="#cdd6f4" text-anchor="middle" style="white-space: pre;" direction="ltr">load model</text><text x="54.944969177246094" y="NaN" font-family="Virgil, Segoe UI Emoji" font-size="18px" fill="#cdd6f4" text-anchor="middle" style="white-space: pre;" direction="ltr">(on startup)</text></g><g stroke-linecap="round"><g transform="translate(153.0252098303784 178) rotate(0 -50.53685350509119 188.3223829037347)"><path d="M-0.38 -1.02 C-17.49 48.28, -100.74 231.85, -101.64 294.7 C-102.53 357.56, -21.7 362.61, -5.74 376.11" stroke="#94a3b8" stroke-width="2.5" fill="none" stroke-dasharray="8 10"></path></g><g transform="translate(153.0252098303784 178) rotate(0 -50.53685350509119 188.3223829037347)"><path d="M-37.41 373.78 C-23.72 376.23, -13.38 376.58, -7.29 376.67" stroke="#94a3b8" stroke-width="2.5" fill="none"></path></g><g transform="translate(153.0252098303784 178) rotate(0 -50.53685350509119 188.3223829037347)"><path d="M-29.5 354.84 C-19.06 364.61, -11.78 372.29, -7.29 376.67" stroke="#94a3b8" stroke-width="2.5" fill="none"></path></g></g><g transform="translate(126.68953875373637 336.12316462746867) rotate(0 28.72797393798828 11.25)"><text x="28.72797393798828" y="NaN" font-family="Virgil, Segoe UI Emoji" font-size="18px" fill="#cdd6f4" text-anchor="middle" style="white-space: pre;" direction="ltr">events</text></g></svg>