<svg version="1.1" xmlns="http://www.w3.org/2000/svg" viewBox="0 0 1220 364" width="1220" height="364">
  <!-- svg-source:excalidraw -->
  
  <defs>
    <style>
      @font-face {
        font-family: "Virgil";
        src: url("https://excalidraw.com/Virgil.woff2");
      }
      @font-face {
        font-family: "Cascadia";
        src: url("https://excalidraw.com/Cascadia.woff2");
      }
    </style>
  </defs>
  <rect x="0" y="0" width="1220" height="364" fill="#0d1117"></rect><g stroke-linecap="round" transform="translate(10 110) rotate(0 100 40)"><path d="M0.25 -0.87 L199.12 0.97 L198.23 79.6 L0.62 79.74" stroke="none" stroke-width="0" fill="#5c3a10"></path><path d="M-0.87 0.3 C54.53 1.1, 107.29 1.03, 201.8 -1.5 M0.71 -0.52 C60.84 -0.17, 120.15 -0.2, 200.19 -0.5 M200.81 -1.68 C201.66 22.48, 198.43 42.6, 200.78 78.84 M200.07 0.23 C199.25 24.06, 199.65 47.85, 199.38 80.29 M201.6 78.45 C156.07 78.05, 116.55 79.34, 0.73 78.34 M200.76 79.59 C129.74 80.67, 60.47 80.32, -0.49 79.4 M-0.58 78.72 C-1.83 62.06, 1.48 44.9, -0.26 1.68 M-0.13 80.97 C0.7 52.52, 0.17 23.11, 0.04 0.55" stroke="#f0883e" stroke-width="2" fill="none"></path></g><g transform="translate(25 113) rotate(0 85 37.5)"><text x="85" y="NaN" font-family="Virgil, Segoe UI Emoji" font-size="20px" fill="#ffffff" text-anchor="middle" style="white-space: pre;" direction="ltr">Check:</text><text x="85" y="NaN" font-family="Virgil, Segoe UI Emoji" font-size="20px" fill="#ffffff" text-anchor="middle" style="white-space: pre;" direction="ltr">can alice view</text><text x="85" y="NaN" font-family="Virgil, Segoe UI Emoji" font-size="20px" fill="#ffffff" text-anchor="middle" style="white-space: pre;" direction="ltr">document:readme?</text></g><g stroke-linecap="round" transform="translate(310 110) rotate(0 110 40)"><path d="M1.85 0.82 L219.3 0.22 L219.25 80.54 L0.32 81.87" stroke="none" stroke-width="0" fill="#3a1d6e"></path><path d="M-1.33 0.16 C58.8 0.1, 119.63 0.41, 218.98 -0.08 M0.17 0.42 C85.41 -0.37, 170.06 -0.65, 219.9 0.39 M218.96 -0.68 C218.18 25, 221.72 55.24, 218.35 79.36 M219.27 -0.97 C219.62 30.51, 220.12 59.73, 219.01 79.69 M221.72 81.23 C158.17 77.26, 98.02 80.09, 0.13 80.47 M219.19 80.84 C163.65 78.73, 108.14 77.45, -0.69 79.56 M0.54 81.6 C0.09 48.16, 0.47 22.07, -1.9 0.85 M0.74 80.96 C-0.77 63.5, 0.72 46.7, -0.2 0.51" stroke="#a371f7" stroke-width="2" fill="none"></path></g><g transform="translate(325 125) rotate(0 95 25)"><text x="95" y="NaN" font-family="Virgil, Segoe UI Emoji" font-size="20px" fill="#ffffff" text-anchor="middle" style="white-space: pre;" direction="ltr">document:readme</text><text x="95" y="NaN" font-family="Virgil, Segoe UI Emoji" font-size="20px" fill="#ffffff" text-anchor="middle" style="white-space: pre;" direction="ltr">#can_view</text></g><g stroke-linecap="round" transform="translate(650 10) rotate(0 110 40)"><path d="M-0.55 -1.5 L219.48 -0.54 L220.26 81.47 L0.02 80" stroke="none" stroke-width="0" fill="#3a1d6e"></path><path d="M1.64 0.03 C57.69 -0.53, 117.7 0.14, 219.69 1.28 M-0.35 -0.4 C59.99 -0.5, 119.94 0.72, 219.63 -0.46 M221.1 0.33 C218.7 15.52, 221 31.87, 219.91 79.89 M220.46 -0.17 C219.6 18.95, 220.19 39.61, 220.64 79.1 M218.44 80.49 C144.49 79.97, 71.53 77.45, -0.43 79.08 M219.39 80.34 C142.27 78.78, 63.56 78.3, 0.83 79.71 M1.66 80.47 C0.41 54.27, 1.86 27.23, 0.47 0.03 M-0.39 80.95 C-0.24 58.48, -0.73 38.28, -0.44 0.46" stroke="#a371f7" stroke-width="2" fill="none"></path></g><g transform="translate(665 25) rotate(0 95 25)"><text x="95" y="NaN" font-family="Virgil, Segoe UI Emoji" font-size="20px" fill="#ffffff" text-anchor="middle" style="white-space: pre;" direction="ltr">folder:engineering</text><text x="95" y="NaN" font-family="Virgil, Segoe UI Emoji" font-size="20px" fill="#ffffff" text-anchor="middle" style="white-space: pre;" direction="ltr">#can_view</text></g><g stroke-linecap="round" transform="translate(650 230) rotate(0 110 40)"><path d="M1.05 0.19 L219.67 -1.3 L221.28 78.41 L-0.28 78.13" stroke="none" stroke-width="0" fill="#0d2c5a"></path><path d="M1.14 -0.09 C60.05 -1.51, 119.23 -0.47, 220.41 -0.83 M-0.86 0.52 C78.57 1.11, 157.82 0.35, 219.35 0.41 M219.25 1.33 C219.22 22.05, 220.29 44.51, 221.47 80.41 M219.65 0.63 C219.97 25.4, 220.66 51.49, 220.26 80.51 M218.62 79.75 C174.8 79.22, 133.05 78.28, -1 81.14 M219.59 79.85 C163.17 80.57, 105.25 79.14, 0.62 79.85 M-1.23 79.34 C2.33 60.38, 0.85 36.39, -1.16 -0.79 M0.49 80.94 C0.29 53.46, -0.17 27.87, -0.67 0.41" stroke="#58a6ff" stroke-width="2" fill="none"></path></g><g transform="translate(665 245) rotate(0 95 25)"><text x="95" y="NaN" font-family="Virgil, Segoe UI Emoji" font-size="20px" fill="#ffffff" text-anchor="middle" style="white-space: pre;" direction="ltr">group:eng-team</text><text x="95" y="NaN" font-family="Virgil, Segoe UI Emoji" font-size="20px" fill="#ffffff" text-anchor="middle" style="white-space: pre;" direction="ltr">#member</text></g><g stroke-linecap="round" transform="translate(1010 110) rotate(0 100 40)"><path d="M-1.35 1.87 L199.85 1.95 L198.29 79.35 L-0.57 80.26" stroke="none" stroke-width="0" fill="#1f4d2b"></path><path d="M0.67 -0.22 C53.54 1.21, 106.45 2.68, 201.17 0.55 M0.37 -0.31 C48.3 0.92, 96.25 1.68, 200.83 -0.46 M201.4 -1.67 C199.73 28.57, 199.57 53.15, 199.03 80.93 M200.84 -0.56 C198.35 31.85, 199.13 63.38, 199.89 79.92 M198.76 78.98 C146.35 78.56, 93.61 79.22, -1.63 79.73 M199.77 79.32 C127.36 80.57, 53.49 79.91, 0.43 80 M-0.11 78.22 C-1.35 62.49, -1.76 45.55, 1.21 -1.62 M-0.64 80.94 C0.42 50.44, -0.02 19.46, -0.91 0.36" stroke="#3fb950" stroke-width="2" fill="none"></path></g><g transform="translate(1025 137) rotate(0 85 12.5)"><text x="85" y="NaN" font-family="Virgil, Segoe UI Emoji" font-size="20px" fill="#ffffff" text-anchor="middle" style="white-space: pre;" direction="ltr">user:alice</text></g><g stroke-linecap="round" transform="translate(1010 290) rotate(0 100 32)"><path d="M0.25 -0.44 L200.03 1.19 L199.31 64.28 L-0.87 62.39" stroke="none" stroke-width="0" fill="#1f4d2b"></path><path d="M0.16 -0.35 C52.39 0.34, 108.04 -1.41, 198.31 -1.63 M-0.17 0.64 C65.16 0.74, 130.72 1.25, 200.54 0.45 M199.54 -0.67 C200.14 15.66, 198.74 26.93, 200.6 65.45 M200.03 0.24 C200.26 18.02, 201.14 34.72, 199.52 63.33 M198.95 62.21 C133.92 61.78, 69.67 64.1, 1.38 62.28 M199.98 64.6 C146.31 66.34, 93.09 66.51, 0.21 64.15 M1.01 65.09 C-0.89 42.39, -0.23 18.32, -0.43 1.56 M0.23 64.93 C0.9 49.1, 0.49 34.41, 0.85 0.32" stroke="#3fb950" stroke-width="2" fill="none"></path></g><g transform="translate(1025 309) rotate(0 85 12.5)"><text x="85" y="NaN" font-family="Virgil, Segoe UI Emoji" font-size="20px" fill="#ffffff" text-anchor="middle" style="white-space: pre;" direction="ltr">ALLOW</text></g><g stroke-linecap="round"><g transform="translate(210 150) rotate(0 50 0)"><path d="M0.85 -0.24 C17.53 0.04, 83.07 0.35, 99.68 0.58 M-0.16 -1.41 C16.36 -1.38, 81.87 -1.37, 98.56 -1.24" stroke="#f0883e" stroke-width="2" fill="none"></path></g><g transform="translate(210 150) rotate(0 50 0)"><path d="M69.94 8.38 C79.01 6.81, 87.53 2.55, 97.51 -1.49 M69.55 8.7 C75.64 6.86, 82.26 4.98, 98.84 -1.73" stroke="#f0883e" stroke-width="2" fill="none"></path></g><g transform="translate(210 150) rotate(0 50 0)"><path d="M70.01 -12.14 C78.87 -8.17, 87.37 -6.89, 97.51 -1.49 M69.62 -11.82 C75.76 -9.29, 82.37 -6.79, 98.84 -1.73" stroke="#f0883e" stroke-width="2" fill="none"></path></g></g><g transform="translate(232 125) rotate(0 40 11.5)"><text x="40" y="NaN" font-family="Virgil, Segoe UI Emoji" font-size="18px" fill="#c9d1d9" text-anchor="middle" style="white-space: pre;" direction="ltr">1. lookup</text></g><g stroke-linecap="round"><g transform="translate(530 125) rotate(0 60 -37.5)"><path d="M-0.57 -0.58 C19.42 -13.06, 99.35 -62.75, 119.59 -75.19 M1.32 1.73 C21.15 -10.54, 98.55 -61.12, 118.43 -73.75" stroke="#58a6ff" stroke-width="2" fill="none"></path></g><g transform="translate(530 125) rotate(0 60 -37.5)"><path d="M99.33 -50.53 C104.94 -54.73, 109.77 -62.27, 118.2 -72.43 M100.92 -49.01 C104.94 -57.49, 111.55 -64.62, 118.39 -73.23" stroke="#58a6ff" stroke-width="2" fill="none"></path></g><g transform="translate(530 125) rotate(0 60 -37.5)"><path d="M88.21 -67.77 C96.77 -67.27, 104.61 -70.15, 118.2 -72.43 M89.8 -66.26 C97.03 -69.65, 106.96 -71.63, 118.39 -73.23" stroke="#58a6ff" stroke-width="2" fill="none"></path></g></g><g transform="translate(558 65) rotate(0 40 11.5)"><text x="40" y="NaN" font-family="Virgil, Segoe UI Emoji" font-size="18px" fill="#c9d1d9" text-anchor="middle" style="white-space: pre;" direction="ltr">2. parent</text></g><g stroke-linecap="round"><g transform="translate(760 90) rotate(0 0 70)"><path d="M0.4 -0.92 C0.38 22.17, -0.24 115.42, -0.5 139.04 M-0.85 1.21 C-1.04 24.37, -2.05 117.13, -1.71 140.08" stroke="#58a6ff" stroke-width="2" fill="none"></path></g><g transform="translate(760 90) rotate(0 0 70)"><path d="M-13.5 111.06 C-10.67 117.6, -4.92 128.54, -1.1 138.97 M-11.94 111.78 C-7.05 123.53, -3.33 134.09, -2.07 139.61" stroke="#58a6ff" stroke-width="2" fill="none"></path></g><g transform="translate(760 90) rotate(0 0 70)"><path d="M7.02 111.06 C4.31 117.66, 4.53 128.61, -1.1 138.97 M8.59 111.78 C5.59 123.6, 1.43 134.15, -2.07 139.61" stroke="#58a6ff" stroke-width="2" fill="none"></path></g></g><g transform="translate(770 147) rotate(0 40 11.5)"><text x="40" y="NaN" font-family="Virgil, Segoe UI Emoji" font-size="18px" fill="#c9d1d9" text-anchor="middle" style="white-space: pre;" direction="ltr">3. viewer</text></g><g stroke-linecap="round"><g transform="translate(870 255) rotate(0 70 -52.5)"><path d="M-1.03 1.14 C22.27 -16.07, 116.03 -86.55, 139.42 -104.32 M0.63 0.69 C24.36 -16.78, 118.3 -88.57, 141.82 -106.09" stroke="#3fb950" stroke-width="2" fill="none"></path></g><g transform="translate(870 255) rotate(0 70 -52.5)"><path d="M127.41 -81.88 C131.27 -88.78, 133.69 -95.81, 143.25 -105.63 M124.95 -79.96 C130.62 -87.59, 135.38 -94.92, 141.14 -105.55" stroke="#3fb950" stroke-width="2" fill="none"></path></g><g transform="translate(870 255) rotate(0 70 -52.5)"><path d="M115.04 -98.26 C122.09 -100.63, 127.85 -103.24, 143.25 -105.63 M112.58 -96.33 C121.51 -99.56, 129.6 -102.48, 141.14 -105.55" stroke="#3fb950" stroke-width="2" fill="none"></path></g></g><g transform="translate(905 180) rotate(0 42.5 11.5)"><text x="42.5" y="NaN" font-family="Virgil, Segoe UI Emoji" font-size="18px" fill="#c9d1d9" text-anchor="middle" style="white-space: pre;" direction="ltr">4. member</text></g><g stroke-linecap="round"><g transform="translate(1110 190) rotate(0 0 50)"><path d="M-0.06 0.79 C-0.11 17.49, -0.62 83.28, -0.67 99.91" stroke="#3fb950" stroke-width="2.5" fill="none" stroke-dasharray="8 10"></path></g><g transform="translate(1110 190) rotate(0 0 50)"><path d="M-9.45 70.54 C-8.25 78.73, -4.47 86.55, -2.42 97.94" stroke="#3fb950" stroke-width="2.5" fill="none"></path></g><g transform="translate(1110 190) rotate(0 0 50)"><path d="M11.07 70.66 C6.73 78.8, 4.97 86.59, -2.42 97.94" stroke="#3fb950" stroke-width="2.5" fill="none"></path></g></g><g transform="translate(1120 228) rotate(0 30 11.5)"><text x="30" y="NaN" font-family="Virgil, Segoe UI Emoji" font-size="18px" fill="#c9d1d9" text-anchor="middle" style="white-space: pre;" direction="ltr">match!</text></g></svg>